<?xml version="1.0" encoding="UTF-8" standalone="no"?>
<!DOCTYPE svg PUBLIC "-//W3C//DTD SVG 1.1//EN"
 "http://www.w3.org/Graphics/SVG/1.1/DTD/svg11.dtd">
<!-- Generated by graphviz version 13.1.2 (20250808.2320)
 -->
<!-- Title: sort Pages: 1 -->
<svg width="598pt" height="1016pt"
 viewBox="0.00 0.00 598.00 1016.00" xmlns="http://www.w3.org/2000/svg" xmlns:xlink="http://www.w3.org/1999/xlink">
<g id="graph0" class="graph" transform="scale(1 1) rotate(0) translate(4 1012)">
<title>sort</title>
<polygon fill="white" stroke="none" points="-4,4 -4,-1012 593.5,-1012 593.5,4 -4,4"/>
<!-- start -->
<g id="node1" class="node">
<title>start</title>
<ellipse fill="none" stroke="black" cx="257" cy="-990" rx="54.93" ry="18"/>
<text xml:space="preserve" text-anchor="middle" x="257" y="-984.95" font-family="Times New Roman,serif" font-size="14.00">Inicio (sort)</text>
</g>
<!-- B1 -->
<g id="node3" class="node">
<title>B1</title>
<polygon fill="none" stroke="black" points="381.25,-935 132.75,-935 132.75,-877.5 381.25,-877.5 381.25,-935"/>
<text xml:space="preserve" text-anchor="middle" x="257" y="-917.7" font-family="Times New Roman,serif" font-size="14.00">B1: Inicializacao</text>
<text xml:space="preserve" text-anchor="middle" x="257" y="-901.2" font-family="Times New Roman,serif" font-size="14.00">i, ir=n, j, k, l=1, jstack=0, flag=0, a, temp</text>
<text xml:space="preserve" text-anchor="middle" x="257" y="-884.7" font-family="Times New Roman,serif" font-size="14.00">def: i, ir, j, k, l, jstack, flag, a, temp</text>
</g>
<!-- start&#45;&gt;B1 -->
<g id="edge1" class="edge">
<title>start&#45;&gt;B1</title>
<path fill="none" stroke="black" d="M257,-971.66C257,-964.36 257,-955.54 257,-946.81"/>
<polygon fill="black" stroke="black" points="260.5,-947.01 257,-937.01 253.5,-947.01 260.5,-947.01"/>
</g>
<!-- end -->
<g id="node2" class="node">
<title>end</title>
<ellipse fill="none" stroke="black" cx="27" cy="-291" rx="27" ry="18"/>
<text xml:space="preserve" text-anchor="middle" x="27" y="-285.95" font-family="Times New Roman,serif" font-size="14.00">Fim</text>
</g>
<!-- B2 -->
<g id="node4" class="node">
<title>B2</title>
<polygon fill="none" stroke="black" points="316.75,-840.5 197.25,-840.5 197.25,-783 316.75,-783 316.75,-840.5"/>
<text xml:space="preserve" text-anchor="middle" x="257" y="-823.2" font-family="Times New Roman,serif" font-size="14.00">B2: Loop principal</text>
<text xml:space="preserve" text-anchor="middle" x="257" y="-806.7" font-family="Times New Roman,serif" font-size="14.00">if (ir &#45; l &lt; M)</text>
<text xml:space="preserve" text-anchor="middle" x="257" y="-790.2" font-family="Times New Roman,serif" font-size="14.00">p&#45;use: ir, l</text>
</g>
<!-- B1&#45;&gt;B2 -->
<g id="edge2" class="edge">
<title>B1&#45;&gt;B2</title>
<path fill="none" stroke="black" d="M250.74,-877.25C250.3,-869.44 250.16,-860.81 250.31,-852.46"/>
<polygon fill="black" stroke="black" points="253.81,-852.61 250.67,-842.49 246.81,-852.36 253.81,-852.61"/>
</g>
<!-- B1&#45;&gt;B2 -->
<g id="edge17" class="edge">
<title>B1&#45;&gt;B2</title>
<path fill="none" stroke="black" d="M263.26,-877.25C263.7,-869.44 263.84,-860.81 263.69,-852.46"/>
<polygon fill="black" stroke="black" points="267.19,-852.36 263.33,-842.49 260.19,-852.61 267.19,-852.36"/>
<text xml:space="preserve" text-anchor="middle" x="242" y="-862.35" font-family="Times New Roman,serif" font-size="14.00" fill="blue">def: ir, l</text>
</g>
<!-- B3 -->
<g id="node5" class="node">
<title>B3</title>
<polygon fill="none" stroke="black" points="186.62,-730.5 63.38,-730.5 63.38,-574 186.62,-574 186.62,-730.5"/>
<text xml:space="preserve" text-anchor="middle" x="125" y="-713.2" font-family="Times New Roman,serif" font-size="14.00">B3: Insertion sort</text>
<text xml:space="preserve" text-anchor="middle" x="125" y="-696.7" font-family="Times New Roman,serif" font-size="14.00">for j=l+1 to ir</text>
<text xml:space="preserve" text-anchor="middle" x="125" y="-680.2" font-family="Times New Roman,serif" font-size="14.00">a=arr[j]</text>
<text xml:space="preserve" text-anchor="middle" x="125" y="-663.7" font-family="Times New Roman,serif" font-size="14.00">for i=j&#45;1 downto l</text>
<text xml:space="preserve" text-anchor="middle" x="125" y="-647.2" font-family="Times New Roman,serif" font-size="14.00">if arr[i] &lt;= a: break</text>
<text xml:space="preserve" text-anchor="middle" x="125" y="-630.7" font-family="Times New Roman,serif" font-size="14.00">arr[i+1]=arr[i]</text>
<text xml:space="preserve" text-anchor="middle" x="125" y="-614.2" font-family="Times New Roman,serif" font-size="14.00">arr[i+1]=a</text>
<text xml:space="preserve" text-anchor="middle" x="125" y="-597.7" font-family="Times New Roman,serif" font-size="14.00">def: j, a, i, arr</text>
<text xml:space="preserve" text-anchor="middle" x="125" y="-581.2" font-family="Times New Roman,serif" font-size="14.00">c&#45;use: l, ir, arr</text>
</g>
<!-- B2&#45;&gt;B3 -->
<g id="edge3" class="edge">
<title>B2&#45;&gt;B3</title>
<path fill="none" stroke="black" d="M196.98,-807.24C167.46,-802.11 134.32,-790.54 115.75,-765 110.75,-758.13 107.73,-750.35 106.15,-742.17"/>
<polygon fill="black" stroke="black" points="109.64,-741.86 105.01,-732.33 102.68,-742.66 109.64,-741.86"/>
<text xml:space="preserve" text-anchor="middle" x="157.38" y="-751.7" font-family="Times New Roman,serif" font-size="14.00">True (ir&#45;l &lt; M)</text>
</g>
<!-- B2&#45;&gt;B3 -->
<g id="edge18" class="edge">
<title>B2&#45;&gt;B3</title>
<path fill="none" stroke="black" d="M233.4,-782.59C222.29,-769.33 208.39,-752.75 194.29,-735.93"/>
<polygon fill="black" stroke="black" points="197,-733.71 187.89,-728.29 191.63,-738.2 197,-733.71"/>
<text xml:space="preserve" text-anchor="middle" x="238" y="-758.17" font-family="Times New Roman,serif" font-size="14.00" fill="blue">p&#45;use: ir, l</text>
</g>
<!-- B6 -->
<g id="node8" class="node">
<title>B6</title>
<polygon fill="none" stroke="black" points="443.5,-722.25 304.5,-722.25 304.5,-582.25 443.5,-582.25 443.5,-722.25"/>
<text xml:space="preserve" text-anchor="middle" x="374" y="-704.95" font-family="Times New Roman,serif" font-size="14.00">B6: Particao</text>
<text xml:space="preserve" text-anchor="middle" x="374" y="-688.45" font-family="Times New Roman,serif" font-size="14.00">k=(l+ir)&gt;&gt;1</text>
<text xml:space="preserve" text-anchor="middle" x="374" y="-671.95" font-family="Times New Roman,serif" font-size="14.00">SWAP(arr[k],arr[l+1])</text>
<text xml:space="preserve" text-anchor="middle" x="374" y="-655.45" font-family="Times New Roman,serif" font-size="14.00">...</text>
<text xml:space="preserve" text-anchor="middle" x="374" y="-638.95" font-family="Times New Roman,serif" font-size="14.00">a=arr[l+1]</text>
<text xml:space="preserve" text-anchor="middle" x="374" y="-622.45" font-family="Times New Roman,serif" font-size="14.00">i=l+1, j=ir</text>
<text xml:space="preserve" text-anchor="middle" x="374" y="-605.95" font-family="Times New Roman,serif" font-size="14.00">def: k, arr, a, i, j</text>
<text xml:space="preserve" text-anchor="middle" x="374" y="-589.45" font-family="Times New Roman,serif" font-size="14.00">c&#45;use: l, ir, arr</text>
</g>
<!-- B2&#45;&gt;B6 -->
<g id="edge4" class="edge">
<title>B2&#45;&gt;B6</title>
<path fill="none" stroke="black" d="M277.92,-782.59C288.6,-768.21 302.18,-749.92 315.75,-731.66"/>
<polygon fill="black" stroke="black" points="318.55,-733.76 321.71,-723.64 312.93,-729.58 318.55,-733.76"/>
<text xml:space="preserve" text-anchor="middle" x="348.83" y="-751.7" font-family="Times New Roman,serif" font-size="14.00">False (ir&#45;l &gt;= M)</text>
</g>
<!-- B4 -->
<g id="node6" class="node">
<title>B4</title>
<polygon fill="none" stroke="black" points="186.25,-487.5 63.75,-487.5 63.75,-446.5 186.25,-446.5 186.25,-487.5"/>
<text xml:space="preserve" text-anchor="middle" x="125" y="-470.2" font-family="Times New Roman,serif" font-size="14.00">B4: if (jstack == 0)</text>
<text xml:space="preserve" text-anchor="middle" x="125" y="-453.7" font-family="Times New Roman,serif" font-size="14.00">p&#45;use: jstack</text>
</g>
<!-- B3&#45;&gt;B4 -->
<g id="edge5" class="edge">
<title>B3&#45;&gt;B4</title>
<path fill="none" stroke="black" d="M118.32,-573.54C118.06,-547.4 118.54,-519.72 119.77,-499.27"/>
<polygon fill="black" stroke="black" points="123.26,-499.58 120.5,-489.35 116.28,-499.06 123.26,-499.58"/>
</g>
<!-- B3&#45;&gt;B4 -->
<g id="edge19" class="edge">
<title>B3&#45;&gt;B4</title>
<path fill="none" stroke="black" d="M131.68,-573.54C131.94,-547.4 131.46,-519.72 130.23,-499.27"/>
<polygon fill="black" stroke="black" points="133.72,-499.06 129.5,-489.35 126.74,-499.58 133.72,-499.06"/>
<text xml:space="preserve" text-anchor="middle" x="111.57" y="-533.91" font-family="Times New Roman,serif" font-size="14.00" fill="blue">def: arr</text>
</g>
<!-- B4&#45;&gt;end -->
<g id="edge6" class="edge">
<title>B4&#45;&gt;end</title>
<path fill="none" stroke="black" d="M100.28,-446.13C81.94,-429.99 57.83,-405.61 44.25,-379 34.98,-360.84 30.68,-338.18 28.7,-320.54"/>
<polygon fill="black" stroke="black" points="32.2,-320.4 27.8,-310.76 25.23,-321.04 32.2,-320.4"/>
<text xml:space="preserve" text-anchor="middle" x="86.62" y="-365.7" font-family="Times New Roman,serif" font-size="14.00">True (jstack=0)</text>
</g>
<!-- B5 -->
<g id="node7" class="node">
<title>B5</title>
<polygon fill="none" stroke="black" points="219.75,-328 106.25,-328 106.25,-254 219.75,-254 219.75,-328"/>
<text xml:space="preserve" text-anchor="middle" x="163" y="-310.7" font-family="Times New Roman,serif" font-size="14.00">B5: Pop da pilha</text>
<text xml:space="preserve" text-anchor="middle" x="163" y="-294.2" font-family="Times New Roman,serif" font-size="14.00">ir=istack[jstack&#45;&#45;]</text>
<text xml:space="preserve" text-anchor="middle" x="163" y="-277.7" font-family="Times New Roman,serif" font-size="14.00">l=istack[jstack&#45;&#45;]</text>
<text xml:space="preserve" text-anchor="middle" x="163" y="-261.2" font-family="Times New Roman,serif" font-size="14.00">def: ir, l, jstack</text>
</g>
<!-- B4&#45;&gt;B5 -->
<g id="edge7" class="edge">
<title>B4&#45;&gt;B5</title>
<path fill="none" stroke="black" d="M125.65,-446.29C126.7,-425.28 129.38,-391.15 136.25,-362.5 138.1,-354.8 140.57,-346.8 143.26,-339.08"/>
<polygon fill="black" stroke="black" points="146.5,-340.41 146.65,-329.82 139.92,-338 146.5,-340.41"/>
<text xml:space="preserve" text-anchor="middle" x="180.12" y="-365.7" font-family="Times New Roman,serif" font-size="14.00">False (jstack=0)</text>
</g>
<!-- B5&#45;&gt;B2 -->
<g id="edge8" class="edge">
<title>B5&#45;&gt;B2</title>
<path fill="none" stroke="black" d="M202.18,-328.45C210.83,-338.6 218.91,-350.24 224,-362.5 254.44,-435.85 257.34,-675.93 257.25,-771.24"/>
<polygon fill="black" stroke="black" points="253.75,-771.13 257.22,-781.14 260.75,-771.15 253.75,-771.13"/>
</g>
<!-- B7 -->
<g id="node9" class="node">
<title>B7</title>
<polygon fill="none" stroke="black" points="435.62,-537 312.38,-537 312.38,-397 435.62,-397 435.62,-537"/>
<text xml:space="preserve" text-anchor="middle" x="374" y="-519.7" font-family="Times New Roman,serif" font-size="14.00">B7: Loop interno</text>
<text xml:space="preserve" text-anchor="middle" x="374" y="-503.2" font-family="Times New Roman,serif" font-size="14.00">i++ while arr[i] &lt; a</text>
<text xml:space="preserve" text-anchor="middle" x="374" y="-486.7" font-family="Times New Roman,serif" font-size="14.00">j&#45;&#45; while arr[j] &gt; a</text>
<text xml:space="preserve" text-anchor="middle" x="374" y="-470.2" font-family="Times New Roman,serif" font-size="14.00">if (j &lt; i) break</text>
<text xml:space="preserve" text-anchor="middle" x="374" y="-453.7" font-family="Times New Roman,serif" font-size="14.00">SWAP(arr[i],arr[j])</text>
<text xml:space="preserve" text-anchor="middle" x="374" y="-437.2" font-family="Times New Roman,serif" font-size="14.00">def: i, j, arr</text>
<text xml:space="preserve" text-anchor="middle" x="374" y="-420.7" font-family="Times New Roman,serif" font-size="14.00">c&#45;use: a, arr</text>
<text xml:space="preserve" text-anchor="middle" x="374" y="-404.2" font-family="Times New Roman,serif" font-size="14.00">p&#45;use: j, i</text>
</g>
<!-- B6&#45;&gt;B7 -->
<g id="edge9" class="edge">
<title>B6&#45;&gt;B7</title>
<path fill="none" stroke="black" d="M367.43,-581.97C367.25,-571.14 367.21,-559.86 367.29,-548.8"/>
<polygon fill="black" stroke="black" points="370.79,-548.93 367.41,-538.89 363.79,-548.85 370.79,-548.93"/>
</g>
<!-- B6&#45;&gt;B7 -->
<g id="edge20" class="edge">
<title>B6&#45;&gt;B7</title>
<path fill="none" stroke="black" d="M380.57,-581.97C380.75,-571.14 380.79,-559.86 380.71,-548.8"/>
<polygon fill="black" stroke="black" points="384.21,-548.85 380.59,-538.89 377.21,-548.93 384.21,-548.85"/>
<text xml:space="preserve" text-anchor="middle" x="354.12" y="-562.94" font-family="Times New Roman,serif" font-size="14.00" fill="blue">def: a, i, j</text>
</g>
<!-- B7&#45;&gt;B7 -->
<g id="edge11" class="edge">
<title>B7&#45;&gt;B7</title>
<path fill="none" stroke="black" d="M436.1,-482.42C446.47,-480.27 453.62,-475.12 453.62,-467 453.62,-462.05 450.97,-458.21 446.54,-455.47"/>
<polygon fill="black" stroke="black" points="448.11,-452.32 437.51,-452.11 445.66,-458.88 448.11,-452.32"/>
<text xml:space="preserve" text-anchor="middle" x="490" y="-461.95" font-family="Times New Roman,serif" font-size="14.00">Loop (j &gt;= i)</text>
</g>
<!-- B8 -->
<g id="node10" class="node">
<title>B8</title>
<polygon fill="none" stroke="black" points="503.62,-344.5 338.38,-344.5 338.38,-237.5 503.62,-237.5 503.62,-344.5"/>
<text xml:space="preserve" text-anchor="middle" x="421" y="-327.2" font-family="Times New Roman,serif" font-size="14.00">B8: Finalizacao da particao</text>
<text xml:space="preserve" text-anchor="middle" x="421" y="-310.7" font-family="Times New Roman,serif" font-size="14.00">arr[l+1]=arr[j]</text>
<text xml:space="preserve" text-anchor="middle" x="421" y="-294.2" font-family="Times New Roman,serif" font-size="14.00">arr[j]=a</text>
<text xml:space="preserve" text-anchor="middle" x="421" y="-277.7" font-family="Times New Roman,serif" font-size="14.00">jstack+=2</text>
<text xml:space="preserve" text-anchor="middle" x="421" y="-261.2" font-family="Times New Roman,serif" font-size="14.00">def: arr, jstack</text>
<text xml:space="preserve" text-anchor="middle" x="421" y="-244.7" font-family="Times New Roman,serif" font-size="14.00">c&#45;use: l, j, a</text>
</g>
<!-- B7&#45;&gt;B8 -->
<g id="edge10" class="edge">
<title>B7&#45;&gt;B8</title>
<path fill="none" stroke="black" d="M352.32,-396.74C351.53,-385.09 352.57,-373.29 356.75,-362.5 357.8,-359.8 359,-357.14 360.34,-354.52"/>
<polygon fill="black" stroke="black" points="363.3,-356.39 365.31,-345.99 357.25,-352.86 363.3,-356.39"/>
<text xml:space="preserve" text-anchor="middle" x="390.88" y="-365.7" font-family="Times New Roman,serif" font-size="14.00">Break (j &lt; i)</text>
</g>
<!-- B7&#45;&gt;B8 -->
<g id="edge21" class="edge">
<title>B7&#45;&gt;B8</title>
<path fill="none" stroke="black" d="M418.81,-396.66C421.27,-390.84 423.39,-384.91 425,-379 427,-371.65 428.05,-363.82 428.46,-355.99"/>
<polygon fill="black" stroke="black" points="431.96,-356.12 428.6,-346.07 424.96,-356.02 431.96,-356.12"/>
<text xml:space="preserve" text-anchor="middle" x="453.36" y="-374.47" font-family="Times New Roman,serif" font-size="14.00" fill="blue">c&#45;use: a, j</text>
</g>
<!-- B9 -->
<g id="node11" class="node">
<title>B9</title>
<polygon fill="none" stroke="black" points="484.12,-200.5 357.88,-200.5 357.88,-143 484.12,-143 484.12,-200.5"/>
<text xml:space="preserve" text-anchor="middle" x="421" y="-183.2" font-family="Times New Roman,serif" font-size="14.00">B9: Escolha do lado</text>
<text xml:space="preserve" text-anchor="middle" x="421" y="-166.7" font-family="Times New Roman,serif" font-size="14.00">if (ir&#45;i+1 &gt;= j&#45;l)</text>
<text xml:space="preserve" text-anchor="middle" x="421" y="-150.2" font-family="Times New Roman,serif" font-size="14.00">p&#45;use: ir, i, j, l</text>
</g>
<!-- B8&#45;&gt;B9 -->
<g id="edge12" class="edge">
<title>B8&#45;&gt;B9</title>
<path fill="none" stroke="black" d="M421,-237.21C421,-228.79 421,-220.22 421,-212.18"/>
<polygon fill="black" stroke="black" points="424.5,-212.4 421,-202.4 417.5,-212.4 424.5,-212.4"/>
</g>
<!-- B10 -->
<g id="node12" class="node">
<title>B10</title>
<polygon fill="none" stroke="black" points="374.75,-90.5 243.25,-90.5 243.25,0 374.75,0 374.75,-90.5"/>
<text xml:space="preserve" text-anchor="middle" x="309" y="-73.2" font-family="Times New Roman,serif" font-size="14.00">B10: Empilha direito</text>
<text xml:space="preserve" text-anchor="middle" x="309" y="-56.7" font-family="Times New Roman,serif" font-size="14.00">istack[jstack]=ir</text>
<text xml:space="preserve" text-anchor="middle" x="309" y="-40.2" font-family="Times New Roman,serif" font-size="14.00">istack[jstack&#45;1]=i</text>
<text xml:space="preserve" text-anchor="middle" x="309" y="-23.7" font-family="Times New Roman,serif" font-size="14.00">ir=j&#45;1</text>
<text xml:space="preserve" text-anchor="middle" x="309" y="-7.2" font-family="Times New Roman,serif" font-size="14.00">def: istack, ir</text>
</g>
<!-- B9&#45;&gt;B10 -->
<g id="edge13" class="edge">
<title>B9&#45;&gt;B10</title>
<path fill="none" stroke="black" d="M357.59,-158.51C339.29,-151.74 321.31,-141.25 310.25,-125 305.6,-118.16 303.07,-110.16 301.93,-101.92"/>
<polygon fill="black" stroke="black" points="305.44,-101.88 301.27,-92.14 298.45,-102.35 305.44,-101.88"/>
<text xml:space="preserve" text-anchor="middle" x="358.62" y="-111.7" font-family="Times New Roman,serif" font-size="14.00">True (ir&#45;i+1 ≥ j&#45;l)</text>
</g>
<!-- B9&#45;&gt;B10 -->
<g id="edge22" class="edge">
<title>B9&#45;&gt;B10</title>
<path fill="none" stroke="black" d="M419.32,-142.51C417.52,-131.13 413.95,-118.38 407,-108.5 400.8,-99.69 392.92,-91.85 384.33,-84.95"/>
<polygon fill="black" stroke="black" points="386.48,-82.19 376.38,-79.01 382.29,-87.8 386.48,-82.19"/>
<text xml:space="preserve" text-anchor="middle" x="404.29" y="-91.54" font-family="Times New Roman,serif" font-size="14.00" fill="blue">p&#45;use: ir, i, j, l</text>
</g>
<!-- B11 -->
<g id="node13" class="node">
<title>B11</title>
<polygon fill="none" stroke="black" points="589.5,-90.5 444.5,-90.5 444.5,0 589.5,0 589.5,-90.5"/>
<text xml:space="preserve" text-anchor="middle" x="517" y="-73.2" font-family="Times New Roman,serif" font-size="14.00">B11: Empilha esquerdo</text>
<text xml:space="preserve" text-anchor="middle" x="517" y="-56.7" font-family="Times New Roman,serif" font-size="14.00">istack[jstack]=j&#45;1</text>
<text xml:space="preserve" text-anchor="middle" x="517" y="-40.2" font-family="Times New Roman,serif" font-size="14.00">istack[jstack&#45;1]=l</text>
<text xml:space="preserve" text-anchor="middle" x="517" y="-23.7" font-family="Times New Roman,serif" font-size="14.00">l=i</text>
<text xml:space="preserve" text-anchor="middle" x="517" y="-7.2" font-family="Times New Roman,serif" font-size="14.00">def: istack, l</text>
</g>
<!-- B9&#45;&gt;B11 -->
<g id="edge14" class="edge">
<title>B9&#45;&gt;B11</title>
<path fill="none" stroke="black" d="M434.4,-142.79C440.25,-131.69 447.58,-119.08 455.5,-108.5 457.8,-105.43 460.25,-102.36 462.79,-99.31"/>
<polygon fill="black" stroke="black" points="465.24,-101.83 469.16,-91.99 459.95,-97.24 465.24,-101.83"/>
<text xml:space="preserve" text-anchor="middle" x="505.75" y="-111.7" font-family="Times New Roman,serif" font-size="14.00">False (ir&#45;i+1 &lt; j&#45;l)</text>
</g>
<!-- B10&#45;&gt;B2 -->
<g id="edge15" class="edge">
<title>B10&#45;&gt;B2</title>
<path fill="none" stroke="black" d="M291.24,-90.74C283.43,-114.16 276,-143.58 276,-170.75 276,-653.25 276,-653.25 276,-653.25 276,-693.85 269.7,-739.91 264.36,-771.68"/>
<polygon fill="black" stroke="black" points="260.96,-770.76 262.7,-781.22 267.86,-771.96 260.96,-770.76"/>
</g>
<!-- B11&#45;&gt;B2 -->
<g id="edge16" class="edge">
<title>B11&#45;&gt;B2</title>
<path fill="none" stroke="black" d="M547.4,-90.85C550.61,-96.64 553.57,-102.6 556,-108.5 566.79,-134.72 570,-142.39 570,-170.75 570,-653.25 570,-653.25 570,-653.25 570,-760.85 420.59,-794.95 328.22,-805.75"/>
<polygon fill="black" stroke="black" points="328.04,-802.25 318.48,-806.82 328.81,-809.21 328.04,-802.25"/>
</g>
</g>
</svg>
