<?xml version="1.0" encoding="UTF-8" standalone="no"?>
<!DOCTYPE svg PUBLIC "-//W3C//DTD SVG 1.1//EN"
 "http://www.w3.org/Graphics/SVG/1.1/DTD/svg11.dtd">
<!-- Generated by graphviz version 13.1.2 (20250808.2320)
 -->
<!-- Title: sort_CFG Pages: 1 -->
<svg width="858pt" height="1602pt"
 viewBox="0.00 0.00 858.00 1602.00" xmlns="http://www.w3.org/2000/svg" xmlns:xlink="http://www.w3.org/1999/xlink">
<g id="graph0" class="graph" transform="scale(1 1) rotate(0) translate(4 1598)">
<title>sort_CFG</title>
<polygon fill="white" stroke="none" points="-4,4 -4,-1598 854,-1598 854,4 -4,4"/>
<!-- N1 -->
<g id="node1" class="node">
<title>N1</title>
<path fill="none" stroke="black" d="M309.12,-1594C309.12,-1594 110.88,-1594 110.88,-1594 104.88,-1594 98.88,-1588 98.88,-1582 98.88,-1582 98.88,-1519.25 98.88,-1519.25 98.88,-1513.25 104.88,-1507.25 110.88,-1507.25 110.88,-1507.25 309.12,-1507.25 309.12,-1507.25 315.12,-1507.25 321.12,-1513.25 321.12,-1519.25 321.12,-1519.25 321.12,-1582 321.12,-1582 321.12,-1588 315.12,-1594 309.12,-1594"/>
<text xml:space="preserve" text-anchor="middle" x="210" y="-1576.7" font-family="Helvetica,sans-Serif" font-size="14.00">1: unsigned long i, ir = n, j, k, l = 1;</text>
<text xml:space="preserve" text-anchor="middle" x="210" y="-1560.95" font-family="Helvetica,sans-Serif" font-size="14.00">int jstack = 0;</text>
<text xml:space="preserve" text-anchor="middle" x="210" y="-1545.2" font-family="Helvetica,sans-Serif" font-size="14.00">int flag;</text>
<text xml:space="preserve" text-anchor="middle" x="210" y="-1529.45" font-family="Helvetica,sans-Serif" font-size="14.00">float a, temp;</text>
<text xml:space="preserve" text-anchor="middle" x="210" y="-1513.7" font-family="Helvetica,sans-Serif" font-size="14.00">flag = 0;</text>
</g>
<!-- N2 -->
<g id="node2" class="node">
<title>N2</title>
<path fill="none" stroke="black" d="M231.5,-1470.25C231.5,-1470.25 188.5,-1470.25 188.5,-1470.25 182.5,-1470.25 176.5,-1464.25 176.5,-1458.25 176.5,-1458.25 176.5,-1446.25 176.5,-1446.25 176.5,-1440.25 182.5,-1434.25 188.5,-1434.25 188.5,-1434.25 231.5,-1434.25 231.5,-1434.25 237.5,-1434.25 243.5,-1440.25 243.5,-1446.25 243.5,-1446.25 243.5,-1458.25 243.5,-1458.25 243.5,-1464.25 237.5,-1470.25 231.5,-1470.25"/>
<text xml:space="preserve" text-anchor="middle" x="210" y="-1446.83" font-family="Helvetica,sans-Serif" font-size="14.00">2: for (;;)</text>
</g>
<!-- N1&#45;&gt;N2 -->
<g id="edge1" class="edge">
<title>N1&#45;&gt;N2</title>
<path fill="none" stroke="black" d="M210,-1506.79C210,-1498.35 210,-1489.68 210,-1481.84"/>
<polygon fill="black" stroke="black" points="213.5,-1481.88 210,-1471.88 206.5,-1481.88 213.5,-1481.88"/>
</g>
<!-- N3 -->
<g id="node3" class="node">
<title>N3</title>
<path fill="none" stroke="black" d="M339.38,-1397.25C339.38,-1397.25 262.62,-1397.25 262.62,-1397.25 256.62,-1397.25 250.62,-1391.25 250.62,-1385.25 250.62,-1385.25 250.62,-1373.25 250.62,-1373.25 250.62,-1367.25 256.62,-1361.25 262.62,-1361.25 262.62,-1361.25 339.38,-1361.25 339.38,-1361.25 345.38,-1361.25 351.38,-1367.25 351.38,-1373.25 351.38,-1373.25 351.38,-1385.25 351.38,-1385.25 351.38,-1391.25 345.38,-1397.25 339.38,-1397.25"/>
<text xml:space="preserve" text-anchor="middle" x="301" y="-1373.83" font-family="Helvetica,sans-Serif" font-size="14.00">3: if (ir &#45; l &lt; M)</text>
</g>
<!-- N2&#45;&gt;N3 -->
<g id="edge2" class="edge">
<title>N2&#45;&gt;N3</title>
<path fill="none" stroke="black" d="M232.03,-1434.06C243.46,-1425.15 257.61,-1414.11 270.11,-1404.35"/>
<polygon fill="black" stroke="black" points="271.93,-1407.37 277.67,-1398.46 267.63,-1401.85 271.93,-1407.37"/>
</g>
<!-- N4 -->
<g id="node4" class="node">
<title>N4</title>
<path fill="none" stroke="black" d="M375.75,-1307.75C375.75,-1307.75 226.25,-1307.75 226.25,-1307.75 220.25,-1307.75 214.25,-1301.75 214.25,-1295.75 214.25,-1295.75 214.25,-1283.75 214.25,-1283.75 214.25,-1277.75 220.25,-1271.75 226.25,-1271.75 226.25,-1271.75 375.75,-1271.75 375.75,-1271.75 381.75,-1271.75 387.75,-1277.75 387.75,-1283.75 387.75,-1283.75 387.75,-1295.75 387.75,-1295.75 387.75,-1301.75 381.75,-1307.75 375.75,-1307.75"/>
<text xml:space="preserve" text-anchor="middle" x="301" y="-1284.33" font-family="Helvetica,sans-Serif" font-size="14.00">4: for (j = l + 1; j &lt;= ir; j++)</text>
</g>
<!-- N3&#45;&gt;N4 -->
<g id="edge3" class="edge">
<title>N3&#45;&gt;N4</title>
<path fill="none" stroke="black" d="M301,-1360.96C301,-1349.1 301,-1333.07 301,-1319.33"/>
<polygon fill="black" stroke="black" points="304.5,-1319.51 301,-1309.51 297.5,-1319.51 304.5,-1319.51"/>
<text xml:space="preserve" text-anchor="middle" x="312.62" y="-1329.95" font-family="Helvetica,sans-Serif" font-size="14.00">true</text>
</g>
<!-- N13 -->
<g id="node13" class="node">
<title>N13</title>
<path fill="none" stroke="black" d="M647.5,-1309.5C647.5,-1309.5 514.5,-1309.5 514.5,-1309.5 508.5,-1309.5 502.5,-1303.5 502.5,-1297.5 502.5,-1297.5 502.5,-1282 502.5,-1282 502.5,-1276 508.5,-1270 514.5,-1270 514.5,-1270 647.5,-1270 647.5,-1270 653.5,-1270 659.5,-1276 659.5,-1282 659.5,-1282 659.5,-1297.5 659.5,-1297.5 659.5,-1303.5 653.5,-1309.5 647.5,-1309.5"/>
<text xml:space="preserve" text-anchor="middle" x="581" y="-1292.2" font-family="Helvetica,sans-Serif" font-size="14.00">13: k = (l + ir) &gt;&gt; 1;</text>
<text xml:space="preserve" text-anchor="middle" x="581" y="-1276.45" font-family="Helvetica,sans-Serif" font-size="14.00">SWAP(arr[k], arr[l + 1]);</text>
</g>
<!-- N3&#45;&gt;N13 -->
<g id="edge4" class="edge">
<title>N3&#45;&gt;N13</title>
<path fill="none" stroke="black" d="M351.71,-1362.4C395.51,-1348.71 459.34,-1328.77 508.54,-1313.39"/>
<polygon fill="black" stroke="black" points="509.49,-1316.76 517.99,-1310.44 507.4,-1310.08 509.49,-1316.76"/>
<text xml:space="preserve" text-anchor="middle" x="472.01" y="-1329.95" font-family="Helvetica,sans-Serif" font-size="14.00">false</text>
</g>
<!-- N5 -->
<g id="node5" class="node">
<title>N5</title>
<path fill="none" stroke="black" d="M478.38,-1218.25C478.38,-1218.25 359.62,-1218.25 359.62,-1218.25 353.62,-1218.25 347.62,-1212.25 347.62,-1206.25 347.62,-1206.25 347.62,-1190.75 347.62,-1190.75 347.62,-1184.75 353.62,-1178.75 359.62,-1178.75 359.62,-1178.75 478.38,-1178.75 478.38,-1178.75 484.38,-1178.75 490.38,-1184.75 490.38,-1190.75 490.38,-1190.75 490.38,-1206.25 490.38,-1206.25 490.38,-1212.25 484.38,-1218.25 478.38,-1218.25"/>
<text xml:space="preserve" text-anchor="middle" x="419" y="-1200.95" font-family="Helvetica,sans-Serif" font-size="14.00">5: a = arr[j];</text>
<text xml:space="preserve" text-anchor="middle" x="419" y="-1185.2" font-family="Helvetica,sans-Serif" font-size="14.00">for (i = j &#45; 1; i &gt;= l; i&#45;&#45;)</text>
</g>
<!-- N4&#45;&gt;N5 -->
<g id="edge5" class="edge">
<title>N4&#45;&gt;N5</title>
<path fill="none" stroke="black" d="M324.03,-1271.33C341.21,-1258.34 364.96,-1240.37 384.41,-1225.66"/>
<polygon fill="black" stroke="black" points="386.5,-1228.47 392.36,-1219.65 382.28,-1222.89 386.5,-1228.47"/>
<text xml:space="preserve" text-anchor="middle" x="384.31" y="-1238.7" font-family="Helvetica,sans-Serif" font-size="14.00">j &lt;= ir</text>
</g>
<!-- N10 -->
<g id="node10" class="node">
<title>N10</title>
<path fill="none" stroke="black" d="M261,-1216.5C261,-1216.5 161,-1216.5 161,-1216.5 155,-1216.5 149,-1210.5 149,-1204.5 149,-1204.5 149,-1192.5 149,-1192.5 149,-1186.5 155,-1180.5 161,-1180.5 161,-1180.5 261,-1180.5 261,-1180.5 267,-1180.5 273,-1186.5 273,-1192.5 273,-1192.5 273,-1204.5 273,-1204.5 273,-1210.5 267,-1216.5 261,-1216.5"/>
<text xml:space="preserve" text-anchor="middle" x="211" y="-1193.08" font-family="Helvetica,sans-Serif" font-size="14.00">10: if (jstack == 0)</text>
</g>
<!-- N4&#45;&gt;N10 -->
<g id="edge6" class="edge">
<title>N4&#45;&gt;N10</title>
<path fill="none" stroke="black" d="M281.49,-1271.46C274.82,-1265.4 267.37,-1258.5 260.75,-1252 252.01,-1243.42 242.71,-1233.76 234.55,-1225.09"/>
<polygon fill="black" stroke="black" points="237.24,-1222.85 227.86,-1217.93 232.13,-1227.63 237.24,-1222.85"/>
<text xml:space="preserve" text-anchor="middle" x="273.88" y="-1238.7" font-family="Helvetica,sans-Serif" font-size="14.00">j &gt; ir</text>
</g>
<!-- N6 -->
<g id="node6" class="node">
<title>N6</title>
<path fill="none" stroke="black" d="M518.5,-1125.25C518.5,-1125.25 433.5,-1125.25 433.5,-1125.25 427.5,-1125.25 421.5,-1119.25 421.5,-1113.25 421.5,-1113.25 421.5,-1101.25 421.5,-1101.25 421.5,-1095.25 427.5,-1089.25 433.5,-1089.25 433.5,-1089.25 518.5,-1089.25 518.5,-1089.25 524.5,-1089.25 530.5,-1095.25 530.5,-1101.25 530.5,-1101.25 530.5,-1113.25 530.5,-1113.25 530.5,-1119.25 524.5,-1125.25 518.5,-1125.25"/>
<text xml:space="preserve" text-anchor="middle" x="476" y="-1101.83" font-family="Helvetica,sans-Serif" font-size="14.00">6: if (arr[i] &lt;= a)</text>
</g>
<!-- N5&#45;&gt;N6 -->
<g id="edge7" class="edge">
<title>N5&#45;&gt;N6</title>
<path fill="none" stroke="black" d="M431.09,-1178.57C439.14,-1165.97 449.83,-1149.23 458.76,-1135.24"/>
<polygon fill="black" stroke="black" points="461.65,-1137.22 464.08,-1126.91 455.75,-1133.46 461.65,-1137.22"/>
<text xml:space="preserve" text-anchor="middle" x="465.91" y="-1147.45" font-family="Helvetica,sans-Serif" font-size="14.00">i &gt;= l</text>
</g>
<!-- N9 -->
<g id="node9" class="node">
<title>N9</title>
<path fill="none" stroke="black" d="M547.12,-948C547.12,-948 462.88,-948 462.88,-948 456.88,-948 450.88,-942 450.88,-936 450.88,-936 450.88,-924 450.88,-924 450.88,-918 456.88,-912 462.88,-912 462.88,-912 547.12,-912 547.12,-912 553.12,-912 559.12,-918 559.12,-924 559.12,-924 559.12,-936 559.12,-936 559.12,-942 553.12,-948 547.12,-948"/>
<text xml:space="preserve" text-anchor="middle" x="505" y="-924.58" font-family="Helvetica,sans-Serif" font-size="14.00">9: arr[i + 1] = a;</text>
</g>
<!-- N5&#45;&gt;N9 -->
<g id="edge8" class="edge">
<title>N5&#45;&gt;N9</title>
<path fill="none" stroke="black" d="M474.52,-1178.39C498.59,-1167.21 524.71,-1150.56 540,-1127 570.92,-1079.35 568.78,-1054.02 552,-999.75 547.2,-984.23 537.56,-969.09 528.25,-956.99"/>
<polygon fill="black" stroke="black" points="531.25,-955.12 522.24,-949.54 525.8,-959.52 531.25,-955.12"/>
<text xml:space="preserve" text-anchor="middle" x="574.96" y="-1056.2" font-family="Helvetica,sans-Serif" font-size="14.00">i &lt; l</text>
</g>
<!-- N7 -->
<g id="node7" class="node">
<title>N7</title>
<path fill="none" stroke="black" d="M531.25,-1035.75C531.25,-1035.75 486.75,-1035.75 486.75,-1035.75 480.75,-1035.75 474.75,-1029.75 474.75,-1023.75 474.75,-1023.75 474.75,-1011.75 474.75,-1011.75 474.75,-1005.75 480.75,-999.75 486.75,-999.75 486.75,-999.75 531.25,-999.75 531.25,-999.75 537.25,-999.75 543.25,-1005.75 543.25,-1011.75 543.25,-1011.75 543.25,-1023.75 543.25,-1023.75 543.25,-1029.75 537.25,-1035.75 531.25,-1035.75"/>
<text xml:space="preserve" text-anchor="middle" x="509" y="-1012.33" font-family="Helvetica,sans-Serif" font-size="14.00">7: break;</text>
</g>
<!-- N6&#45;&gt;N7 -->
<g id="edge9" class="edge">
<title>N6&#45;&gt;N7</title>
<path fill="none" stroke="black" d="M482.52,-1088.96C487.08,-1076.86 493.28,-1060.43 498.53,-1046.5"/>
<polygon fill="black" stroke="black" points="501.71,-1048.01 501.96,-1037.42 495.16,-1045.54 501.71,-1048.01"/>
<text xml:space="preserve" text-anchor="middle" x="507.08" y="-1056.2" font-family="Helvetica,sans-Serif" font-size="14.00">true</text>
</g>
<!-- N8 -->
<g id="node8" class="node">
<title>N8</title>
<path fill="none" stroke="black" d="M444.88,-1035.75C444.88,-1035.75 341.12,-1035.75 341.12,-1035.75 335.12,-1035.75 329.12,-1029.75 329.12,-1023.75 329.12,-1023.75 329.12,-1011.75 329.12,-1011.75 329.12,-1005.75 335.12,-999.75 341.12,-999.75 341.12,-999.75 444.88,-999.75 444.88,-999.75 450.88,-999.75 456.88,-1005.75 456.88,-1011.75 456.88,-1011.75 456.88,-1023.75 456.88,-1023.75 456.88,-1029.75 450.88,-1035.75 444.88,-1035.75"/>
<text xml:space="preserve" text-anchor="middle" x="393" y="-1012.33" font-family="Helvetica,sans-Serif" font-size="14.00">8: arr[i + 1] = arr[i];</text>
</g>
<!-- N6&#45;&gt;N8 -->
<g id="edge10" class="edge">
<title>N6&#45;&gt;N8</title>
<path fill="none" stroke="black" d="M459.6,-1088.96C447.44,-1076.14 430.67,-1058.46 417,-1044.05"/>
<polygon fill="black" stroke="black" points="419.83,-1041.95 410.41,-1037.1 414.75,-1046.76 419.83,-1041.95"/>
<text xml:space="preserve" text-anchor="middle" x="453.72" y="-1056.2" font-family="Helvetica,sans-Serif" font-size="14.00">false</text>
</g>
<!-- N7&#45;&gt;N9 -->
<g id="edge11" class="edge">
<title>N7&#45;&gt;N9</title>
<path fill="none" stroke="black" d="M508.19,-999.4C507.66,-988.01 506.95,-972.84 506.34,-959.68"/>
<polygon fill="black" stroke="black" points="509.84,-959.66 505.88,-949.84 502.85,-959.99 509.84,-959.66"/>
</g>
<!-- N8&#45;&gt;N5 -->
<g id="edge12" class="edge">
<title>N8&#45;&gt;N5</title>
<path fill="none" stroke="black" d="M395.53,-1036.15C399.94,-1066.49 409.1,-1129.42 414.58,-1167.1"/>
<polygon fill="black" stroke="black" points="411.1,-1167.48 416,-1176.87 418.02,-1166.47 411.1,-1167.48"/>
</g>
<!-- N9&#45;&gt;N4 -->
<g id="edge13" class="edge">
<title>N9&#45;&gt;N4</title>
<path fill="none" stroke="black" d="M450.6,-931.47C390.17,-935.2 301,-951.73 301,-1016.75 301,-1199.5 301,-1199.5 301,-1199.5 301,-1219.67 301,-1242.41 301,-1259.88"/>
<polygon fill="black" stroke="black" points="297.5,-1259.79 301,-1269.79 304.5,-1259.79 297.5,-1259.79"/>
</g>
<!-- N11 -->
<g id="node11" class="node">
<title>N11</title>
<path fill="none" stroke="black" d="M260.62,-1125.25C260.62,-1125.25 209.38,-1125.25 209.38,-1125.25 203.38,-1125.25 197.38,-1119.25 197.38,-1113.25 197.38,-1113.25 197.38,-1101.25 197.38,-1101.25 197.38,-1095.25 203.38,-1089.25 209.38,-1089.25 209.38,-1089.25 260.62,-1089.25 260.62,-1089.25 266.62,-1089.25 272.62,-1095.25 272.62,-1101.25 272.62,-1101.25 272.62,-1113.25 272.62,-1113.25 272.62,-1119.25 266.62,-1125.25 260.62,-1125.25"/>
<text xml:space="preserve" text-anchor="middle" x="235" y="-1101.83" font-family="Helvetica,sans-Serif" font-size="14.00">11: break;</text>
</g>
<!-- N10&#45;&gt;N11 -->
<g id="edge14" class="edge">
<title>N10&#45;&gt;N11</title>
<path fill="none" stroke="black" d="M215.63,-1180.29C218.96,-1167.9 223.53,-1150.91 227.39,-1136.54"/>
<polygon fill="black" stroke="black" points="230.69,-1137.74 229.91,-1127.17 223.94,-1135.92 230.69,-1137.74"/>
<text xml:space="preserve" text-anchor="middle" x="236.06" y="-1147.45" font-family="Helvetica,sans-Serif" font-size="14.00">true</text>
</g>
<!-- N12 -->
<g id="node12" class="node">
<title>N12</title>
<path fill="none" stroke="black" d="M167.5,-1127C167.5,-1127 40.5,-1127 40.5,-1127 34.5,-1127 28.5,-1121 28.5,-1115 28.5,-1115 28.5,-1099.5 28.5,-1099.5 28.5,-1093.5 34.5,-1087.5 40.5,-1087.5 40.5,-1087.5 167.5,-1087.5 167.5,-1087.5 173.5,-1087.5 179.5,-1093.5 179.5,-1099.5 179.5,-1099.5 179.5,-1115 179.5,-1115 179.5,-1121 173.5,-1127 167.5,-1127"/>
<text xml:space="preserve" text-anchor="middle" x="104" y="-1109.7" font-family="Helvetica,sans-Serif" font-size="14.00">12: ir = istack[jstack&#45;&#45;];</text>
<text xml:space="preserve" text-anchor="middle" x="104" y="-1093.95" font-family="Helvetica,sans-Serif" font-size="14.00">l = istack[jstack&#45;&#45;];</text>
</g>
<!-- N10&#45;&gt;N12 -->
<g id="edge15" class="edge">
<title>N10&#45;&gt;N12</title>
<path fill="none" stroke="black" d="M190.12,-1180.08C174.68,-1167.21 153.39,-1149.45 135.84,-1134.81"/>
<polygon fill="black" stroke="black" points="138.14,-1132.17 128.22,-1128.45 133.66,-1137.55 138.14,-1132.17"/>
<text xml:space="preserve" text-anchor="middle" x="178.16" y="-1147.45" font-family="Helvetica,sans-Serif" font-size="14.00">false</text>
</g>
<!-- N31 -->
<g id="node31" class="node">
<title>N31</title>
<path fill="none" stroke="black" d="M260.75,-1035.75C260.75,-1035.75 207.25,-1035.75 207.25,-1035.75 201.25,-1035.75 195.25,-1029.75 195.25,-1023.75 195.25,-1023.75 195.25,-1011.75 195.25,-1011.75 195.25,-1005.75 201.25,-999.75 207.25,-999.75 207.25,-999.75 260.75,-999.75 260.75,-999.75 266.75,-999.75 272.75,-1005.75 272.75,-1011.75 272.75,-1011.75 272.75,-1023.75 272.75,-1023.75 272.75,-1029.75 266.75,-1035.75 260.75,-1035.75"/>
<text xml:space="preserve" text-anchor="middle" x="234" y="-1012.33" font-family="Helvetica,sans-Serif" font-size="14.00">31: return;</text>
</g>
<!-- N11&#45;&gt;N31 -->
<g id="edge16" class="edge">
<title>N11&#45;&gt;N31</title>
<path fill="none" stroke="black" d="M234.8,-1088.96C234.67,-1077.1 234.48,-1061.07 234.33,-1047.33"/>
<polygon fill="black" stroke="black" points="237.83,-1047.47 234.21,-1037.51 230.83,-1047.55 237.83,-1047.47"/>
</g>
<!-- N12&#45;&gt;N2 -->
<g id="edge17" class="edge">
<title>N12&#45;&gt;N2</title>
<path fill="none" stroke="black" d="M106.71,-1127.36C109.03,-1145.4 112,-1173.23 112,-1197.5 112,-1380.25 112,-1380.25 112,-1380.25 112,-1408.87 139.75,-1427.14 165.72,-1437.96"/>
<polygon fill="black" stroke="black" points="164.27,-1441.16 174.86,-1441.48 166.78,-1434.62 164.27,-1441.16"/>
</g>
<!-- N14 -->
<g id="node14" class="node">
<title>N14</title>
<path fill="none" stroke="black" d="M732.12,-1216.5C732.12,-1216.5 623.88,-1216.5 623.88,-1216.5 617.88,-1216.5 611.88,-1210.5 611.88,-1204.5 611.88,-1204.5 611.88,-1192.5 611.88,-1192.5 611.88,-1186.5 617.88,-1180.5 623.88,-1180.5 623.88,-1180.5 732.12,-1180.5 732.12,-1180.5 738.12,-1180.5 744.12,-1186.5 744.12,-1192.5 744.12,-1192.5 744.12,-1204.5 744.12,-1204.5 744.12,-1210.5 738.12,-1216.5 732.12,-1216.5"/>
<text xml:space="preserve" text-anchor="middle" x="678" y="-1193.08" font-family="Helvetica,sans-Serif" font-size="14.00">14: if (arr[l] &gt; arr[ir])</text>
</g>
<!-- N13&#45;&gt;N14 -->
<g id="edge18" class="edge">
<title>N13&#45;&gt;N14</title>
<path fill="none" stroke="black" d="M601.57,-1269.82C615.93,-1256.61 635.24,-1238.84 650.86,-1224.47"/>
<polygon fill="black" stroke="black" points="653,-1227.26 657.99,-1217.91 648.26,-1222.11 653,-1227.26"/>
</g>
<!-- N15 -->
<g id="node15" class="node">
<title>N15</title>
<path fill="none" stroke="black" d="M744.5,-1125.25C744.5,-1125.25 611.5,-1125.25 611.5,-1125.25 605.5,-1125.25 599.5,-1119.25 599.5,-1113.25 599.5,-1113.25 599.5,-1101.25 599.5,-1101.25 599.5,-1095.25 605.5,-1089.25 611.5,-1089.25 611.5,-1089.25 744.5,-1089.25 744.5,-1089.25 750.5,-1089.25 756.5,-1095.25 756.5,-1101.25 756.5,-1101.25 756.5,-1113.25 756.5,-1113.25 756.5,-1119.25 750.5,-1125.25 744.5,-1125.25"/>
<text xml:space="preserve" text-anchor="middle" x="678" y="-1101.83" font-family="Helvetica,sans-Serif" font-size="14.00">15: SWAP(arr[l], arr[ir]);</text>
</g>
<!-- N14&#45;&gt;N15 -->
<g id="edge19" class="edge">
<title>N14&#45;&gt;N15</title>
<path fill="none" stroke="black" d="M678,-1180.29C678,-1168.02 678,-1151.24 678,-1136.96"/>
<polygon fill="black" stroke="black" points="681.5,-1137.22 678,-1127.22 674.5,-1137.22 681.5,-1137.22"/>
<text xml:space="preserve" text-anchor="middle" x="689.62" y="-1147.45" font-family="Helvetica,sans-Serif" font-size="14.00">true</text>
</g>
<!-- N16 -->
<g id="node16" class="node">
<title>N16</title>
<path fill="none" stroke="black" d="M790.75,-1035.75C790.75,-1035.75 659.25,-1035.75 659.25,-1035.75 653.25,-1035.75 647.25,-1029.75 647.25,-1023.75 647.25,-1023.75 647.25,-1011.75 647.25,-1011.75 647.25,-1005.75 653.25,-999.75 659.25,-999.75 659.25,-999.75 790.75,-999.75 790.75,-999.75 796.75,-999.75 802.75,-1005.75 802.75,-1011.75 802.75,-1011.75 802.75,-1023.75 802.75,-1023.75 802.75,-1029.75 796.75,-1035.75 790.75,-1035.75"/>
<text xml:space="preserve" text-anchor="middle" x="725" y="-1012.33" font-family="Helvetica,sans-Serif" font-size="14.00">16: if (arr[l + 1] &gt; arr[ir])</text>
</g>
<!-- N14&#45;&gt;N16 -->
<g id="edge20" class="edge">
<title>N14&#45;&gt;N16</title>
<path fill="none" stroke="black" d="M712.51,-1180.02C732.12,-1168.04 754.9,-1150.12 766,-1127 779.03,-1099.86 762.77,-1067.41 747.03,-1045.16"/>
<polygon fill="black" stroke="black" points="749.88,-1043.12 741.09,-1037.21 744.28,-1047.32 749.88,-1043.12"/>
<text xml:space="preserve" text-anchor="middle" x="784.99" y="-1101.83" font-family="Helvetica,sans-Serif" font-size="14.00">false</text>
</g>
<!-- N15&#45;&gt;N16 -->
<g id="edge21" class="edge">
<title>N15&#45;&gt;N16</title>
<path fill="none" stroke="black" d="M687.29,-1088.96C693.85,-1076.74 702.79,-1060.1 710.32,-1046.09"/>
<polygon fill="black" stroke="black" points="713.37,-1047.8 715.02,-1037.33 707.2,-1044.49 713.37,-1047.8"/>
</g>
<!-- N17 -->
<g id="node17" class="node">
<title>N17</title>
<path fill="none" stroke="black" d="M745.12,-948C745.12,-948 588.88,-948 588.88,-948 582.88,-948 576.88,-942 576.88,-936 576.88,-936 576.88,-924 576.88,-924 576.88,-918 582.88,-912 588.88,-912 588.88,-912 745.12,-912 745.12,-912 751.12,-912 757.12,-918 757.12,-924 757.12,-924 757.12,-936 757.12,-936 757.12,-942 751.12,-948 745.12,-948"/>
<text xml:space="preserve" text-anchor="middle" x="667" y="-924.58" font-family="Helvetica,sans-Serif" font-size="14.00">17: SWAP(arr[l + 1], arr[ir]);</text>
</g>
<!-- N16&#45;&gt;N17 -->
<g id="edge22" class="edge">
<title>N16&#45;&gt;N17</title>
<path fill="none" stroke="black" d="M713.26,-999.4C705.17,-987.43 694.24,-971.28 685.05,-957.68"/>
<polygon fill="black" stroke="black" points="688.07,-955.9 679.57,-949.58 682.27,-959.82 688.07,-955.9"/>
<text xml:space="preserve" text-anchor="middle" x="712.82" y="-968.45" font-family="Helvetica,sans-Serif" font-size="14.00">true</text>
</g>
<!-- N18 -->
<g id="node18" class="node">
<title>N18</title>
<path fill="none" stroke="black" d="M743.5,-875C743.5,-875 616.5,-875 616.5,-875 610.5,-875 604.5,-869 604.5,-863 604.5,-863 604.5,-851 604.5,-851 604.5,-845 610.5,-839 616.5,-839 616.5,-839 743.5,-839 743.5,-839 749.5,-839 755.5,-845 755.5,-851 755.5,-851 755.5,-863 755.5,-863 755.5,-869 749.5,-875 743.5,-875"/>
<text xml:space="preserve" text-anchor="middle" x="680" y="-851.58" font-family="Helvetica,sans-Serif" font-size="14.00">18: if (arr[l] &gt; arr[l + 1])</text>
</g>
<!-- N16&#45;&gt;N18 -->
<g id="edge23" class="edge">
<title>N16&#45;&gt;N18</title>
<path fill="none" stroke="black" d="M740.9,-999.44C758.44,-978.15 782.16,-941.23 766,-912 758.86,-899.09 747.2,-888.85 734.74,-880.92"/>
<polygon fill="black" stroke="black" points="736.82,-878.08 726.42,-876.05 733.29,-884.12 736.82,-878.08"/>
<text xml:space="preserve" text-anchor="middle" x="785.63" y="-924.58" font-family="Helvetica,sans-Serif" font-size="14.00">false</text>
</g>
<!-- N17&#45;&gt;N18 -->
<g id="edge24" class="edge">
<title>N17&#45;&gt;N18</title>
<path fill="none" stroke="black" d="M670.15,-911.81C671.55,-904.14 673.25,-894.89 674.83,-886.24"/>
<polygon fill="black" stroke="black" points="678.25,-886.98 676.61,-876.52 671.37,-885.72 678.25,-886.98"/>
</g>
<!-- N19 -->
<g id="node19" class="node">
<title>N19</title>
<path fill="none" stroke="black" d="M776.88,-787.25C776.88,-787.25 625.12,-787.25 625.12,-787.25 619.12,-787.25 613.12,-781.25 613.12,-775.25 613.12,-775.25 613.12,-763.25 613.12,-763.25 613.12,-757.25 619.12,-751.25 625.12,-751.25 625.12,-751.25 776.88,-751.25 776.88,-751.25 782.88,-751.25 788.88,-757.25 788.88,-763.25 788.88,-763.25 788.88,-775.25 788.88,-775.25 788.88,-781.25 782.88,-787.25 776.88,-787.25"/>
<text xml:space="preserve" text-anchor="middle" x="701" y="-763.83" font-family="Helvetica,sans-Serif" font-size="14.00">19: SWAP(arr[l], arr[l + 1]);</text>
</g>
<!-- N18&#45;&gt;N19 -->
<g id="edge25" class="edge">
<title>N18&#45;&gt;N19</title>
<path fill="none" stroke="black" d="M684.25,-838.65C687.07,-827.14 690.83,-811.78 694.07,-798.53"/>
<polygon fill="black" stroke="black" points="697.42,-799.59 696.4,-789.05 690.62,-797.93 697.42,-799.59"/>
<text xml:space="preserve" text-anchor="middle" x="704.01" y="-807.7" font-family="Helvetica,sans-Serif" font-size="14.00">true</text>
</g>
<!-- N20 -->
<g id="node20" class="node">
<title>N20</title>
<path fill="none" stroke="black" d="M641.62,-714.25C641.62,-714.25 572.38,-714.25 572.38,-714.25 566.38,-714.25 560.38,-708.25 560.38,-702.25 560.38,-702.25 560.38,-671 560.38,-671 560.38,-665 566.38,-659 572.38,-659 572.38,-659 641.62,-659 641.62,-659 647.62,-659 653.62,-665 653.62,-671 653.62,-671 653.62,-702.25 653.62,-702.25 653.62,-708.25 647.62,-714.25 641.62,-714.25"/>
<text xml:space="preserve" text-anchor="middle" x="607" y="-696.95" font-family="Helvetica,sans-Serif" font-size="14.00">20: i = l + 1;</text>
<text xml:space="preserve" text-anchor="middle" x="607" y="-681.2" font-family="Helvetica,sans-Serif" font-size="14.00">j = ir;</text>
<text xml:space="preserve" text-anchor="middle" x="607" y="-665.45" font-family="Helvetica,sans-Serif" font-size="14.00">a = arr[l + 1];</text>
</g>
<!-- N18&#45;&gt;N20 -->
<g id="edge26" class="edge">
<title>N18&#45;&gt;N20</title>
<path fill="none" stroke="black" d="M634.68,-838.51C612.59,-827.41 588.12,-810.67 575.5,-787.25 564.92,-767.62 571.76,-743.88 581.73,-724.49"/>
<polygon fill="black" stroke="black" points="584.75,-726.27 586.59,-715.83 578.64,-722.84 584.75,-726.27"/>
<text xml:space="preserve" text-anchor="middle" x="589.75" y="-763.83" font-family="Helvetica,sans-Serif" font-size="14.00">false</text>
</g>
<!-- N19&#45;&gt;N20 -->
<g id="edge27" class="edge">
<title>N19&#45;&gt;N20</title>
<path fill="none" stroke="black" d="M680.6,-750.76C670.79,-742.34 658.68,-731.95 647.13,-722.04"/>
<polygon fill="black" stroke="black" points="649.47,-719.44 639.6,-715.59 644.91,-724.75 649.47,-719.44"/>
</g>
<!-- N21 -->
<g id="node21" class="node">
<title>N21</title>
<path fill="none" stroke="black" d="M632.25,-622C632.25,-622 581.75,-622 581.75,-622 575.75,-622 569.75,-616 569.75,-610 569.75,-610 569.75,-598 569.75,-598 569.75,-592 575.75,-586 581.75,-586 581.75,-586 632.25,-586 632.25,-586 638.25,-586 644.25,-592 644.25,-598 644.25,-598 644.25,-610 644.25,-610 644.25,-616 638.25,-622 632.25,-622"/>
<text xml:space="preserve" text-anchor="middle" x="607" y="-598.58" font-family="Helvetica,sans-Serif" font-size="14.00">21: for (;;)</text>
</g>
<!-- N20&#45;&gt;N21 -->
<g id="edge28" class="edge">
<title>N20&#45;&gt;N21</title>
<path fill="none" stroke="black" d="M607,-658.78C607,-650.65 607,-641.7 607,-633.48"/>
<polygon fill="black" stroke="black" points="610.5,-633.63 607,-623.63 603.5,-633.63 610.5,-633.63"/>
</g>
<!-- N22 -->
<g id="node22" class="node">
<title>N22</title>
<path fill="none" stroke="black" d="M591.38,-549C591.38,-549 478.62,-549 478.62,-549 472.62,-549 466.62,-543 466.62,-537 466.62,-537 466.62,-521.5 466.62,-521.5 466.62,-515.5 472.62,-509.5 478.62,-509.5 478.62,-509.5 591.38,-509.5 591.38,-509.5 597.38,-509.5 603.38,-515.5 603.38,-521.5 603.38,-521.5 603.38,-537 603.38,-537 603.38,-543 597.38,-549 591.38,-549"/>
<text xml:space="preserve" text-anchor="middle" x="535" y="-531.7" font-family="Helvetica,sans-Serif" font-size="14.00">22: i++;</text>
<text xml:space="preserve" text-anchor="middle" x="535" y="-515.95" font-family="Helvetica,sans-Serif" font-size="14.00">while (arr[i] &lt; a) i++;</text>
</g>
<!-- N21&#45;&gt;N22 -->
<g id="edge29" class="edge">
<title>N21&#45;&gt;N22</title>
<path fill="none" stroke="black" d="M589.94,-585.76C581.57,-577.31 571.31,-566.93 561.92,-557.45"/>
<polygon fill="black" stroke="black" points="564.55,-555.14 555.03,-550.49 559.58,-560.06 564.55,-555.14"/>
</g>
<!-- N23 -->
<g id="node23" class="node">
<title>N23</title>
<path fill="none" stroke="black" d="M587.62,-472.5C587.62,-472.5 482.38,-472.5 482.38,-472.5 476.38,-472.5 470.38,-466.5 470.38,-460.5 470.38,-460.5 470.38,-445 470.38,-445 470.38,-439 476.38,-433 482.38,-433 482.38,-433 587.62,-433 587.62,-433 593.62,-433 599.62,-439 599.62,-445 599.62,-445 599.62,-460.5 599.62,-460.5 599.62,-466.5 593.62,-472.5 587.62,-472.5"/>
<text xml:space="preserve" text-anchor="middle" x="535" y="-455.2" font-family="Helvetica,sans-Serif" font-size="14.00">23: j&#45;&#45;;</text>
<text xml:space="preserve" text-anchor="middle" x="535" y="-439.45" font-family="Helvetica,sans-Serif" font-size="14.00">while (arr[j] &gt; a) j&#45;&#45;;</text>
</g>
<!-- N22&#45;&gt;N23 -->
<g id="edge30" class="edge">
<title>N22&#45;&gt;N23</title>
<path fill="none" stroke="black" d="M535,-509.06C535,-501.5 535,-492.63 535,-484.24"/>
<polygon fill="black" stroke="black" points="538.5,-484.38 535,-474.38 531.5,-484.38 538.5,-484.38"/>
</g>
<!-- N24 -->
<g id="node24" class="node">
<title>N24</title>
<path fill="none" stroke="black" d="M562.88,-396C562.88,-396 507.12,-396 507.12,-396 501.12,-396 495.12,-390 495.12,-384 495.12,-384 495.12,-372 495.12,-372 495.12,-366 501.12,-360 507.12,-360 507.12,-360 562.88,-360 562.88,-360 568.88,-360 574.88,-366 574.88,-372 574.88,-372 574.88,-384 574.88,-384 574.88,-390 568.88,-396 562.88,-396"/>
<text xml:space="preserve" text-anchor="middle" x="535" y="-372.57" font-family="Helvetica,sans-Serif" font-size="14.00">24: if (j &lt; i)</text>
</g>
<!-- N23&#45;&gt;N24 -->
<g id="edge31" class="edge">
<title>N23&#45;&gt;N24</title>
<path fill="none" stroke="black" d="M535,-432.64C535,-424.97 535,-415.97 535,-407.55"/>
<polygon fill="black" stroke="black" points="538.5,-407.76 535,-397.76 531.5,-407.76 538.5,-407.76"/>
</g>
<!-- N25 -->
<g id="node25" class="node">
<title>N25</title>
<path fill="none" stroke="black" d="M525,-308.25C525,-308.25 473,-308.25 473,-308.25 467,-308.25 461,-302.25 461,-296.25 461,-296.25 461,-284.25 461,-284.25 461,-278.25 467,-272.25 473,-272.25 473,-272.25 525,-272.25 525,-272.25 531,-272.25 537,-278.25 537,-284.25 537,-284.25 537,-296.25 537,-296.25 537,-302.25 531,-308.25 525,-308.25"/>
<text xml:space="preserve" text-anchor="middle" x="499" y="-284.82" font-family="Helvetica,sans-Serif" font-size="14.00">25: break;</text>
</g>
<!-- N24&#45;&gt;N25 -->
<g id="edge32" class="edge">
<title>N24&#45;&gt;N25</title>
<path fill="none" stroke="black" d="M527.71,-359.65C522.84,-348.02 516.3,-332.47 510.7,-319.13"/>
<polygon fill="black" stroke="black" points="513.96,-317.84 506.86,-309.97 507.5,-320.55 513.96,-317.84"/>
<text xml:space="preserve" text-anchor="middle" x="531.85" y="-328.7" font-family="Helvetica,sans-Serif" font-size="14.00">true</text>
</g>
<!-- N26 -->
<g id="node26" class="node">
<title>N26</title>
<path fill="none" stroke="black" d="M695.25,-308.25C695.25,-308.25 566.75,-308.25 566.75,-308.25 560.75,-308.25 554.75,-302.25 554.75,-296.25 554.75,-296.25 554.75,-284.25 554.75,-284.25 554.75,-278.25 560.75,-272.25 566.75,-272.25 566.75,-272.25 695.25,-272.25 695.25,-272.25 701.25,-272.25 707.25,-278.25 707.25,-284.25 707.25,-284.25 707.25,-296.25 707.25,-296.25 707.25,-302.25 701.25,-308.25 695.25,-308.25"/>
<text xml:space="preserve" text-anchor="middle" x="631" y="-284.82" font-family="Helvetica,sans-Serif" font-size="14.00">26: SWAP(arr[i], arr[j]);</text>
</g>
<!-- N24&#45;&gt;N26 -->
<g id="edge33" class="edge">
<title>N24&#45;&gt;N26</title>
<path fill="none" stroke="black" d="M552.54,-359.77C562.85,-349.79 576.22,-337.1 588.5,-326.25 592.5,-322.72 596.77,-319.06 601.01,-315.5"/>
<polygon fill="black" stroke="black" points="602.94,-318.45 608.4,-309.37 598.47,-313.06 602.94,-318.45"/>
<text xml:space="preserve" text-anchor="middle" x="602.75" y="-328.7" font-family="Helvetica,sans-Serif" font-size="14.00">false</text>
</g>
<!-- N27 -->
<g id="node27" class="node">
<title>N27</title>
<path fill="none" stroke="black" d="M554.62,-235.25C554.62,-235.25 443.38,-235.25 443.38,-235.25 437.38,-235.25 431.38,-229.25 431.38,-223.25 431.38,-223.25 431.38,-192 431.38,-192 431.38,-186 437.38,-180 443.38,-180 443.38,-180 554.62,-180 554.62,-180 560.62,-180 566.62,-186 566.62,-192 566.62,-192 566.62,-223.25 566.62,-223.25 566.62,-229.25 560.62,-235.25 554.62,-235.25"/>
<text xml:space="preserve" text-anchor="middle" x="499" y="-217.95" font-family="Helvetica,sans-Serif" font-size="14.00">27: arr[l + 1] = arr[j];</text>
<text xml:space="preserve" text-anchor="middle" x="499" y="-202.2" font-family="Helvetica,sans-Serif" font-size="14.00">arr[j] = a;</text>
<text xml:space="preserve" text-anchor="middle" x="499" y="-186.45" font-family="Helvetica,sans-Serif" font-size="14.00">jstack += 2;</text>
</g>
<!-- N25&#45;&gt;N27 -->
<g id="edge34" class="edge">
<title>N25&#45;&gt;N27</title>
<path fill="none" stroke="black" d="M499,-271.76C499,-264.41 499,-255.57 499,-246.85"/>
<polygon fill="black" stroke="black" points="502.5,-247.12 499,-237.12 495.5,-247.12 502.5,-247.12"/>
</g>
<!-- N26&#45;&gt;N21 -->
<g id="edge35" class="edge">
<title>N26&#45;&gt;N21</title>
<path fill="none" stroke="black" d="M631,-308.66C631,-325.98 631,-353.33 631,-377 631,-530.25 631,-530.25 631,-530.25 631,-545.63 626.1,-561.96 620.73,-575.24"/>
<polygon fill="black" stroke="black" points="617.61,-573.64 616.82,-584.2 624.03,-576.44 617.61,-573.64"/>
</g>
<!-- N28 -->
<g id="node28" class="node">
<title>N28</title>
<path fill="none" stroke="black" d="M559.88,-143C559.88,-143 438.12,-143 438.12,-143 432.12,-143 426.12,-137 426.12,-131 426.12,-131 426.12,-119 426.12,-119 426.12,-113 432.12,-107 438.12,-107 438.12,-107 559.88,-107 559.88,-107 565.88,-107 571.88,-113 571.88,-119 571.88,-119 571.88,-131 571.88,-131 571.88,-137 565.88,-143 559.88,-143"/>
<text xml:space="preserve" text-anchor="middle" x="499" y="-119.58" font-family="Helvetica,sans-Serif" font-size="14.00">28: if (ir &#45; i + 1 &gt;= j &#45; l)</text>
</g>
<!-- N27&#45;&gt;N28 -->
<g id="edge36" class="edge">
<title>N27&#45;&gt;N28</title>
<path fill="none" stroke="black" d="M499,-179.78C499,-171.65 499,-162.7 499,-154.48"/>
<polygon fill="black" stroke="black" points="502.5,-154.63 499,-144.63 495.5,-154.63 502.5,-154.63"/>
</g>
<!-- N29 -->
<g id="node29" class="node">
<title>N29</title>
<path fill="none" stroke="black" d="M276,-55.25C276,-55.25 158,-55.25 158,-55.25 152,-55.25 146,-49.25 146,-43.25 146,-43.25 146,-12 146,-12 146,-6 152,0 158,0 158,0 276,0 276,0 282,0 288,-6 288,-12 288,-12 288,-43.25 288,-43.25 288,-49.25 282,-55.25 276,-55.25"/>
<text xml:space="preserve" text-anchor="middle" x="217" y="-37.95" font-family="Helvetica,sans-Serif" font-size="14.00">29: istack[jstack] = ir;</text>
<text xml:space="preserve" text-anchor="middle" x="217" y="-22.2" font-family="Helvetica,sans-Serif" font-size="14.00">istack[jstack &#45; 1] = i;</text>
<text xml:space="preserve" text-anchor="middle" x="217" y="-6.45" font-family="Helvetica,sans-Serif" font-size="14.00">ir = j &#45; 1;</text>
</g>
<!-- N28&#45;&gt;N29 -->
<g id="edge37" class="edge">
<title>N28&#45;&gt;N29</title>
<path fill="none" stroke="black" d="M447.28,-106.51C405.81,-92.48 346.85,-72.54 298.97,-56.35"/>
<polygon fill="black" stroke="black" points="300.33,-53.11 289.74,-53.23 298.09,-59.75 300.33,-53.11"/>
<text xml:space="preserve" text-anchor="middle" x="403.18" y="-75.7" font-family="Helvetica,sans-Serif" font-size="14.00">true</text>
</g>
<!-- N30 -->
<g id="node30" class="node">
<title>N30</title>
<path fill="none" stroke="black" d="M813.5,-55.25C813.5,-55.25 680.5,-55.25 680.5,-55.25 674.5,-55.25 668.5,-49.25 668.5,-43.25 668.5,-43.25 668.5,-12 668.5,-12 668.5,-6 674.5,0 680.5,0 680.5,0 813.5,0 813.5,0 819.5,0 825.5,-6 825.5,-12 825.5,-12 825.5,-43.25 825.5,-43.25 825.5,-49.25 819.5,-55.25 813.5,-55.25"/>
<text xml:space="preserve" text-anchor="middle" x="747" y="-37.95" font-family="Helvetica,sans-Serif" font-size="14.00">30: istack[jstack] = j &#45; 1;</text>
<text xml:space="preserve" text-anchor="middle" x="747" y="-22.2" font-family="Helvetica,sans-Serif" font-size="14.00">istack[jstack &#45; 1] = l;</text>
<text xml:space="preserve" text-anchor="middle" x="747" y="-6.45" font-family="Helvetica,sans-Serif" font-size="14.00">l = i;</text>
</g>
<!-- N28&#45;&gt;N30 -->
<g id="edge38" class="edge">
<title>N28&#45;&gt;N30</title>
<path fill="none" stroke="black" d="M544.49,-106.51C578.38,-93.47 625.55,-75.33 665.85,-59.83"/>
<polygon fill="black" stroke="black" points="666.98,-63.15 675.06,-56.29 664.47,-56.61 666.98,-63.15"/>
<text xml:space="preserve" text-anchor="middle" x="644.69" y="-75.7" font-family="Helvetica,sans-Serif" font-size="14.00">false</text>
</g>
<!-- N29&#45;&gt;N2 -->
<g id="edge39" class="edge">
<title>N29&#45;&gt;N2</title>
<path fill="none" stroke="black" d="M145.65,-31.3C82.4,-37.96 0,-59.08 0,-124 0,-1380.25 0,-1380.25 0,-1380.25 0,-1414.78 103.17,-1435.79 164.88,-1445.26"/>
<polygon fill="black" stroke="black" points="164.36,-1448.72 174.76,-1446.73 165.39,-1441.8 164.36,-1448.72"/>
</g>
<!-- N30&#45;&gt;N2 -->
<g id="edge40" class="edge">
<title>N30&#45;&gt;N2</title>
<path fill="none" stroke="black" d="M802.72,-55.62C826.99,-71.59 850,-94.51 850,-124 850,-1380.25 850,-1380.25 850,-1380.25 850,-1440.18 400.92,-1449.53 255.12,-1450.98"/>
<polygon fill="black" stroke="black" points="255.44,-1447.48 245.47,-1451.07 255.5,-1454.48 255.44,-1447.48"/>
</g>
</g>
</svg>
