<?xml version="1.0" encoding="UTF-8" standalone="no"?>
<!DOCTYPE svg PUBLIC "-//W3C//DTD SVG 1.1//EN"
 "http://www.w3.org/Graphics/SVG/1.1/DTD/svg11.dtd">
<!-- Generated by graphviz version 13.1.2 (20250808.2320)
 -->
<!-- Title: my_abs_DFG Pages: 1 -->
<svg width="117pt" height="260pt"
 viewBox="0.00 0.00 117.00 260.00" xmlns="http://www.w3.org/2000/svg" xmlns:xlink="http://www.w3.org/1999/xlink">
<g id="graph0" class="graph" transform="scale(1 1) rotate(0) translate(4 256)">
<title>my_abs_DFG</title>
<polygon fill="white" stroke="none" points="-4,4 -4,-256 113,-256 113,4 -4,4"/>
<!-- n_in -->
<g id="node1" class="node">
<title>n_in</title>
<ellipse fill="lightblue" stroke="black" cx="54.5" cy="-234" rx="27" ry="18"/>
<text xml:space="preserve" text-anchor="middle" x="54.5" y="-228.95" font-family="Times New Roman,serif" font-size="14.00">n</text>
</g>
<!-- op_cond -->
<g id="node2" class="node">
<title>op_cond</title>
<polygon fill="lightblue" stroke="black" points="54.5,-180 0.5,-180 0.5,-144 54.5,-144 54.5,-180"/>
<text xml:space="preserve" text-anchor="middle" x="27.5" y="-156.95" font-family="Times New Roman,serif" font-size="14.00">&gt;=0?</text>
</g>
<!-- n_in&#45;&gt;op_cond -->
<g id="edge1" class="edge">
<title>n_in&#45;&gt;op_cond</title>
<path fill="none" stroke="black" d="M47.96,-216.05C45.06,-208.52 41.55,-199.44 38.28,-190.94"/>
<polygon fill="black" stroke="black" points="41.57,-189.76 34.71,-181.69 35.04,-192.28 41.57,-189.76"/>
</g>
<!-- op_assign -->
<g id="node3" class="node">
<title>op_assign</title>
<polygon fill="lightblue" stroke="black" points="109,-108 0,-108 0,-72 109,-72 109,-108"/>
<text xml:space="preserve" text-anchor="middle" x="54.5" y="-84.95" font-family="Times New Roman,serif" font-size="14.00">m = n ou m = &#45;n</text>
</g>
<!-- n_in&#45;&gt;op_assign -->
<g id="edge3" class="edge">
<title>n_in&#45;&gt;op_assign</title>
<path fill="none" stroke="black" d="M58.15,-215.91C60.18,-205.57 62.48,-192.09 63.5,-180 64.84,-164.06 64.84,-159.94 63.5,-144 62.82,-135.97 61.58,-127.33 60.23,-119.4"/>
<polygon fill="black" stroke="black" points="63.67,-118.79 58.43,-109.58 56.79,-120.05 63.67,-118.79"/>
</g>
<!-- op_cond&#45;&gt;op_assign -->
<g id="edge2" class="edge">
<title>op_cond&#45;&gt;op_assign</title>
<path fill="none" stroke="black" d="M34.17,-143.7C37.08,-136.15 40.57,-127.12 43.82,-118.68"/>
<polygon fill="black" stroke="black" points="47.02,-120.11 47.36,-109.52 40.49,-117.59 47.02,-120.11"/>
</g>
<!-- m_out -->
<g id="node4" class="node">
<title>m_out</title>
<ellipse fill="lightgreen" stroke="black" cx="54.5" cy="-18" rx="27" ry="18"/>
<text xml:space="preserve" text-anchor="middle" x="54.5" y="-12.95" font-family="Times New Roman,serif" font-size="14.00">m</text>
</g>
<!-- op_assign&#45;&gt;m_out -->
<g id="edge4" class="edge">
<title>op_assign&#45;&gt;m_out</title>
<path fill="none" stroke="black" d="M54.5,-71.7C54.5,-64.41 54.5,-55.73 54.5,-47.54"/>
<polygon fill="black" stroke="black" points="58,-47.62 54.5,-37.62 51,-47.62 58,-47.62"/>
</g>
</g>
</svg>
