<?xml version="1.0" encoding="UTF-8" standalone="no"?>
<!DOCTYPE svg PUBLIC "-//W3C//DTD SVG 1.1//EN"
 "http://www.w3.org/Graphics/SVG/1.1/DTD/svg11.dtd">
<!-- Generated by graphviz version 13.1.2 (20250808.2320)
 -->
<!-- Title: my_abs_CFG Pages: 1 -->
<svg width="134pt" height="352pt"
 viewBox="0.00 0.00 134.00 352.00" xmlns="http://www.w3.org/2000/svg" xmlns:xlink="http://www.w3.org/1999/xlink">
<g id="graph0" class="graph" transform="scale(1 1) rotate(0) translate(4 347.5)">
<title>my_abs_CFG</title>
<polygon fill="white" stroke="none" points="-4,4 -4,-347.5 130.12,-347.5 130.12,4 -4,4"/>
<!-- entry -->
<g id="node1" class="node">
<title>entry</title>
<ellipse fill="none" stroke="black" cx="63" cy="-325.5" rx="31.39" ry="18"/>
<text xml:space="preserve" text-anchor="middle" x="63" y="-320.45" font-family="Times New Roman,serif" font-size="14.00">Entry</text>
</g>
<!-- cond -->
<g id="node3" class="node">
<title>cond</title>
<polygon fill="none" stroke="black" points="100.25,-270.5 25.75,-270.5 25.75,-234.5 100.25,-234.5 100.25,-270.5"/>
<text xml:space="preserve" text-anchor="middle" x="63" y="-247.45" font-family="Times New Roman,serif" font-size="14.00">if (n &gt;= 0)</text>
</g>
<!-- entry&#45;&gt;cond -->
<g id="edge1" class="edge">
<title>entry&#45;&gt;cond</title>
<path fill="none" stroke="black" d="M63,-307.31C63,-299.73 63,-290.6 63,-282.04"/>
<polygon fill="black" stroke="black" points="66.5,-282.04 63,-272.04 59.5,-282.04 66.5,-282.04"/>
</g>
<!-- exit -->
<g id="node2" class="node">
<title>exit</title>
<ellipse fill="none" stroke="black" cx="62" cy="-18" rx="27" ry="18"/>
<text xml:space="preserve" text-anchor="middle" x="62" y="-12.95" font-family="Times New Roman,serif" font-size="14.00">Exit</text>
</g>
<!-- true_branch -->
<g id="node4" class="node">
<title>true_branch</title>
<polygon fill="none" stroke="black" points="54,-182 0,-182 0,-146 54,-146 54,-182"/>
<text xml:space="preserve" text-anchor="middle" x="27" y="-158.95" font-family="Times New Roman,serif" font-size="14.00">m = n</text>
</g>
<!-- cond&#45;&gt;true_branch -->
<g id="edge2" class="edge">
<title>cond&#45;&gt;true_branch</title>
<path fill="none" stroke="black" d="M55.89,-234.41C50.94,-222.52 44.23,-206.41 38.53,-192.7"/>
<polygon fill="black" stroke="black" points="41.88,-191.64 34.8,-183.75 35.41,-194.32 41.88,-191.64"/>
<text xml:space="preserve" text-anchor="middle" x="58.72" y="-203.2" font-family="Times New Roman,serif" font-size="14.00">true</text>
</g>
<!-- false_branch -->
<g id="node5" class="node">
<title>false_branch</title>
<polygon fill="none" stroke="black" points="126.12,-182 71.88,-182 71.88,-146 126.12,-146 126.12,-182"/>
<text xml:space="preserve" text-anchor="middle" x="99" y="-158.95" font-family="Times New Roman,serif" font-size="14.00">m = &#45;n</text>
</g>
<!-- cond&#45;&gt;false_branch -->
<g id="edge3" class="edge">
<title>cond&#45;&gt;false_branch</title>
<path fill="none" stroke="black" d="M70.11,-234.41C75.06,-222.52 81.77,-206.41 87.47,-192.7"/>
<polygon fill="black" stroke="black" points="90.59,-194.32 91.2,-183.75 84.12,-191.64 90.59,-194.32"/>
<text xml:space="preserve" text-anchor="middle" x="96.97" y="-203.2" font-family="Times New Roman,serif" font-size="14.00">false</text>
</g>
<!-- return -->
<g id="node6" class="node">
<title>return</title>
<polygon fill="none" stroke="black" points="93.62,-109 30.38,-109 30.38,-73 93.62,-73 93.62,-109"/>
<text xml:space="preserve" text-anchor="middle" x="62" y="-85.95" font-family="Times New Roman,serif" font-size="14.00">return m</text>
</g>
<!-- true_branch&#45;&gt;return -->
<g id="edge4" class="edge">
<title>true_branch&#45;&gt;return</title>
<path fill="none" stroke="black" d="M35.47,-145.81C39.43,-137.79 44.23,-128.05 48.66,-119.07"/>
<polygon fill="black" stroke="black" points="51.65,-120.9 52.94,-110.39 45.38,-117.81 51.65,-120.9"/>
</g>
<!-- false_branch&#45;&gt;return -->
<g id="edge5" class="edge">
<title>false_branch&#45;&gt;return</title>
<path fill="none" stroke="black" d="M90.04,-145.81C85.86,-137.79 80.79,-128.05 76.11,-119.07"/>
<polygon fill="black" stroke="black" points="79.3,-117.62 71.57,-110.37 73.09,-120.86 79.3,-117.62"/>
</g>
<!-- return&#45;&gt;exit -->
<g id="edge6" class="edge">
<title>return&#45;&gt;exit</title>
<path fill="none" stroke="black" d="M62,-72.81C62,-65.23 62,-56.1 62,-47.54"/>
<polygon fill="black" stroke="black" points="65.5,-47.54 62,-37.54 58.5,-47.54 65.5,-47.54"/>
</g>
</g>
</svg>
