<?xml version="1.0" encoding="UTF-8" standalone="no"?>
<!DOCTYPE svg PUBLIC "-//W3C//DTD SVG 1.1//EN"
 "http://www.w3.org/Graphics/SVG/1.1/DTD/svg11.dtd">
<!-- Generated by graphviz version 13.1.2 (20250808.2320)
 -->
<!-- Title: CFG Pages: 1 -->
<svg width="396pt" height="592pt"
 viewBox="0.00 0.00 396.00 592.00" xmlns="http://www.w3.org/2000/svg" xmlns:xlink="http://www.w3.org/1999/xlink">
<g id="graph0" class="graph" transform="scale(1 1) rotate(0) translate(4 588.48)">
<title>CFG</title>
<polygon fill="white" stroke="none" points="-4,4 -4,-588.48 391.75,-588.48 391.75,4 -4,4"/>
<!-- main_start -->
<g id="node1" class="node">
<title>main_start</title>
<path fill="none" stroke="black" d="M77.12,-433.23C77.12,-433.23 18.38,-433.23 18.38,-433.23 12.38,-433.23 6.38,-427.23 6.38,-421.23 6.38,-421.23 6.38,-409.23 6.38,-409.23 6.38,-403.23 12.38,-397.23 18.38,-397.23 18.38,-397.23 77.12,-397.23 77.12,-397.23 83.12,-397.23 89.12,-403.23 89.12,-409.23 89.12,-409.23 89.12,-421.23 89.12,-421.23 89.12,-427.23 83.12,-433.23 77.12,-433.23"/>
<text xml:space="preserve" text-anchor="middle" x="47.75" y="-409.8" font-family="Helvetica,sans-Serif" font-size="14.00">main: int a;</text>
</g>
<!-- main_assign -->
<g id="node2" class="node">
<title>main_assign</title>
<path fill="none" stroke="black" d="M83.5,-326.23C83.5,-326.23 12,-326.23 12,-326.23 6,-326.23 0,-320.23 0,-314.23 0,-314.23 0,-302.23 0,-302.23 0,-296.23 6,-290.23 12,-290.23 12,-290.23 83.5,-290.23 83.5,-290.23 89.5,-290.23 95.5,-296.23 95.5,-302.23 95.5,-302.23 95.5,-314.23 95.5,-314.23 95.5,-320.23 89.5,-326.23 83.5,-326.23"/>
<text xml:space="preserve" text-anchor="middle" x="47.75" y="-302.8" font-family="Helvetica,sans-Serif" font-size="14.00">main: a = 30;</text>
</g>
<!-- main_start&#45;&gt;main_assign -->
<g id="edge1" class="edge">
<title>main_start&#45;&gt;main_assign</title>
<path fill="none" stroke="black" d="M47.75,-396.89C47.75,-380.93 47.75,-356.95 47.75,-338.1"/>
<polygon fill="black" stroke="black" points="51.25,-338.11 47.75,-328.11 44.25,-338.11 51.25,-338.11"/>
</g>
<!-- main_call -->
<g id="node3" class="node">
<title>main_call</title>
<path fill="none" stroke="black" d="M207.75,-235.73C207.75,-235.73 143.75,-235.73 143.75,-235.73 137.75,-235.73 131.75,-229.73 131.75,-223.73 131.75,-223.73 131.75,-211.73 131.75,-211.73 131.75,-205.73 137.75,-199.73 143.75,-199.73 143.75,-199.73 207.75,-199.73 207.75,-199.73 213.75,-199.73 219.75,-205.73 219.75,-211.73 219.75,-211.73 219.75,-223.73 219.75,-223.73 219.75,-229.73 213.75,-235.73 207.75,-235.73"/>
<text xml:space="preserve" text-anchor="middle" x="175.75" y="-212.3" font-family="Helvetica,sans-Serif" font-size="14.00">main: fib(a);</text>
</g>
<!-- main_assign&#45;&gt;main_call -->
<g id="edge2" class="edge">
<title>main_assign&#45;&gt;main_call</title>
<path fill="none" stroke="black" d="M73.04,-289.74C92.5,-276.29 119.61,-257.55 141.09,-242.69"/>
<polygon fill="black" stroke="black" points="143.03,-245.6 149.27,-237.04 139.05,-239.85 143.03,-245.6"/>
</g>
<!-- main_return -->
<g id="node4" class="node">
<title>main_return</title>
<path fill="none" stroke="black" d="M271.62,-147.98C271.62,-147.98 191.88,-147.98 191.88,-147.98 185.88,-147.98 179.88,-141.98 179.88,-135.98 179.88,-135.98 179.88,-123.98 179.88,-123.98 179.88,-117.98 185.88,-111.98 191.88,-111.98 191.88,-111.98 271.62,-111.98 271.62,-111.98 277.62,-111.98 283.62,-117.98 283.62,-123.98 283.62,-123.98 283.62,-135.98 283.62,-135.98 283.62,-141.98 277.62,-147.98 271.62,-147.98"/>
<text xml:space="preserve" text-anchor="middle" x="231.75" y="-124.55" font-family="Helvetica,sans-Serif" font-size="14.00">main: return a;</text>
</g>
<!-- main_call&#45;&gt;main_return -->
<g id="edge3" class="edge">
<title>main_call&#45;&gt;main_return</title>
<path fill="none" stroke="black" d="M186.14,-199.69C192.24,-189.78 200.18,-177.09 207.5,-165.98 209.29,-163.26 211.19,-160.44 213.09,-157.63"/>
<polygon fill="black" stroke="black" points="215.86,-159.79 218.64,-149.56 210.09,-155.82 215.86,-159.79"/>
<text xml:space="preserve" text-anchor="middle" x="238.62" y="-168.43" font-family="Helvetica,sans-Serif" font-size="14.00">Chama fib</text>
</g>
<!-- end -->
<g id="node11" class="node">
<title>end</title>
<ellipse fill="none" stroke="black" cx="231.75" cy="-30.11" rx="26.11" ry="26.11"/>
<ellipse fill="none" stroke="black" cx="231.75" cy="-30.11" rx="30.11" ry="30.11"/>
<text xml:space="preserve" text-anchor="middle" x="231.75" y="-24.69" font-family="Helvetica,sans-Serif" font-size="14.00">Fim</text>
</g>
<!-- main_return&#45;&gt;end -->
<g id="edge4" class="edge">
<title>main_return&#45;&gt;end</title>
<path fill="none" stroke="black" d="M231.75,-111.48C231.75,-100.4 231.75,-85.59 231.75,-71.7"/>
<polygon fill="black" stroke="black" points="235.25,-71.87 231.75,-61.87 228.25,-71.87 235.25,-71.87"/>
<text xml:space="preserve" text-anchor="middle" x="249" y="-80.68" font-family="Helvetica,sans-Serif" font-size="14.00">Saida</text>
</g>
<!-- fib_start -->
<g id="node5" class="node">
<title>fib_start</title>
<path fill="none" stroke="black" d="M355.5,-584.48C355.5,-584.48 176,-584.48 176,-584.48 170,-584.48 164,-578.48 164,-572.48 164,-572.48 164,-560.48 164,-560.48 164,-554.48 170,-548.48 176,-548.48 176,-548.48 355.5,-548.48 355.5,-548.48 361.5,-548.48 367.5,-554.48 367.5,-560.48 367.5,-560.48 367.5,-572.48 367.5,-572.48 367.5,-578.48 361.5,-584.48 355.5,-584.48"/>
<text xml:space="preserve" text-anchor="middle" x="265.75" y="-561.05" font-family="Helvetica,sans-Serif" font-size="14.00">fib: int i, Fnew, Fold, temp, ans;</text>
</g>
<!-- fib_init -->
<g id="node6" class="node">
<title>fib_init</title>
<path fill="none" stroke="black" d="M302.62,-511.48C302.62,-511.48 228.88,-511.48 228.88,-511.48 222.88,-511.48 216.88,-505.48 216.88,-499.48 216.88,-499.48 216.88,-483.98 216.88,-483.98 216.88,-477.98 222.88,-471.98 228.88,-471.98 228.88,-471.98 302.62,-471.98 302.62,-471.98 308.62,-471.98 314.62,-477.98 314.62,-483.98 314.62,-483.98 314.62,-499.48 314.62,-499.48 314.62,-505.48 308.62,-511.48 302.62,-511.48"/>
<text xml:space="preserve" text-anchor="middle" x="265.75" y="-494.18" font-family="Helvetica,sans-Serif" font-size="14.00">fib: Fnew = 1;</text>
<text xml:space="preserve" text-anchor="middle" x="265.75" y="-478.43" font-family="Helvetica,sans-Serif" font-size="14.00">Fold = 0;</text>
</g>
<!-- fib_start&#45;&gt;fib_init -->
<g id="edge5" class="edge">
<title>fib_start&#45;&gt;fib_init</title>
<path fill="none" stroke="black" d="M265.75,-548.24C265.75,-540.73 265.75,-531.69 265.75,-523.12"/>
<polygon fill="black" stroke="black" points="269.25,-523.41 265.75,-513.41 262.25,-523.41 269.25,-523.41"/>
</g>
<!-- fib_loop_cond -->
<g id="node7" class="node">
<title>fib_loop_cond</title>
<path fill="none" stroke="black" d="M314.62,-434.98C314.62,-434.98 216.88,-434.98 216.88,-434.98 210.88,-434.98 204.88,-428.98 204.88,-422.98 204.88,-422.98 204.88,-407.48 204.88,-407.48 204.88,-401.48 210.88,-395.48 216.88,-395.48 216.88,-395.48 314.62,-395.48 314.62,-395.48 320.62,-395.48 326.62,-401.48 326.62,-407.48 326.62,-407.48 326.62,-422.98 326.62,-422.98 326.62,-428.98 320.62,-434.98 314.62,-434.98"/>
<text xml:space="preserve" text-anchor="middle" x="265.75" y="-417.68" font-family="Helvetica,sans-Serif" font-size="14.00">fib: for (i = 2;</text>
<text xml:space="preserve" text-anchor="middle" x="265.75" y="-401.93" font-family="Helvetica,sans-Serif" font-size="14.00">i &lt;= 30 &amp;&amp; i &lt;= n;</text>
</g>
<!-- fib_init&#45;&gt;fib_loop_cond -->
<g id="edge6" class="edge">
<title>fib_init&#45;&gt;fib_loop_cond</title>
<path fill="none" stroke="black" d="M265.75,-471.54C265.75,-463.98 265.75,-455.11 265.75,-446.72"/>
<polygon fill="black" stroke="black" points="269.25,-446.86 265.75,-436.86 262.25,-446.86 269.25,-446.86"/>
</g>
<!-- fib_loop_body -->
<g id="node8" class="node">
<title>fib_loop_body</title>
<path fill="none" stroke="black" d="M245.5,-343.73C245.5,-343.73 126,-343.73 126,-343.73 120,-343.73 114,-337.73 114,-331.73 114,-331.73 114,-284.73 114,-284.73 114,-278.73 120,-272.73 126,-272.73 126,-272.73 245.5,-272.73 245.5,-272.73 251.5,-272.73 257.5,-278.73 257.5,-284.73 257.5,-284.73 257.5,-331.73 257.5,-331.73 257.5,-337.73 251.5,-343.73 245.5,-343.73"/>
<text xml:space="preserve" text-anchor="middle" x="185.75" y="-326.43" font-family="Helvetica,sans-Serif" font-size="14.00">fib: temp = Fnew;</text>
<text xml:space="preserve" text-anchor="middle" x="185.75" y="-310.68" font-family="Helvetica,sans-Serif" font-size="14.00">Fnew = Fnew + Fold;</text>
<text xml:space="preserve" text-anchor="middle" x="185.75" y="-294.93" font-family="Helvetica,sans-Serif" font-size="14.00">Fold = temp;</text>
<text xml:space="preserve" text-anchor="middle" x="185.75" y="-279.18" font-family="Helvetica,sans-Serif" font-size="14.00">i++</text>
</g>
<!-- fib_loop_cond&#45;&gt;fib_loop_body -->
<g id="edge7" class="edge">
<title>fib_loop_cond&#45;&gt;fib_loop_body</title>
<path fill="none" stroke="black" d="M204.66,-395.05C197.5,-390.38 191.11,-384.61 186.5,-377.48 182.26,-370.93 180.16,-363.23 179.37,-355.41"/>
<polygon fill="black" stroke="black" points="182.87,-355.4 179.09,-345.5 175.87,-355.59 182.87,-355.4"/>
<text xml:space="preserve" text-anchor="middle" x="219.12" y="-364.18" font-family="Helvetica,sans-Serif" font-size="14.00">Verdadeiro</text>
</g>
<!-- fib_after_loop -->
<g id="node9" class="node">
<title>fib_after_loop</title>
<path fill="none" stroke="black" d="M375.75,-326.23C375.75,-326.23 287.75,-326.23 287.75,-326.23 281.75,-326.23 275.75,-320.23 275.75,-314.23 275.75,-314.23 275.75,-302.23 275.75,-302.23 275.75,-296.23 281.75,-290.23 287.75,-290.23 287.75,-290.23 375.75,-290.23 375.75,-290.23 381.75,-290.23 387.75,-296.23 387.75,-302.23 387.75,-302.23 387.75,-314.23 387.75,-314.23 387.75,-320.23 381.75,-326.23 375.75,-326.23"/>
<text xml:space="preserve" text-anchor="middle" x="331.75" y="-302.8" font-family="Helvetica,sans-Serif" font-size="14.00">fib: ans = Fnew;</text>
</g>
<!-- fib_loop_cond&#45;&gt;fib_after_loop -->
<g id="edge8" class="edge">
<title>fib_loop_cond&#45;&gt;fib_after_loop</title>
<path fill="none" stroke="black" d="M277.55,-395.46C287.94,-378.93 303.18,-354.68 314.86,-336.1"/>
<polygon fill="black" stroke="black" points="317.76,-338.06 320.12,-327.73 311.84,-334.33 317.76,-338.06"/>
<text xml:space="preserve" text-anchor="middle" x="315.25" y="-364.18" font-family="Helvetica,sans-Serif" font-size="14.00">Falso</text>
</g>
<!-- fib_loop_body&#45;&gt;fib_loop_cond -->
<g id="edge9" class="edge">
<title>fib_loop_body&#45;&gt;fib_loop_cond</title>
<path fill="none" stroke="black" d="M236.74,-343.98C242.38,-349.41 247.58,-355.36 251.75,-361.73 256.07,-368.33 259.07,-376.23 261.14,-383.86"/>
<polygon fill="black" stroke="black" points="257.71,-384.58 263.29,-393.58 264.54,-383.06 257.71,-384.58"/>
</g>
<!-- fib_return -->
<g id="node10" class="node">
<title>fib_return</title>
<path fill="none" stroke="black" d="M348.88,-235.73C348.88,-235.73 270.62,-235.73 270.62,-235.73 264.62,-235.73 258.62,-229.73 258.62,-223.73 258.62,-223.73 258.62,-211.73 258.62,-211.73 258.62,-205.73 264.62,-199.73 270.62,-199.73 270.62,-199.73 348.88,-199.73 348.88,-199.73 354.88,-199.73 360.88,-205.73 360.88,-211.73 360.88,-211.73 360.88,-223.73 360.88,-223.73 360.88,-229.73 354.88,-235.73 348.88,-235.73"/>
<text xml:space="preserve" text-anchor="middle" x="309.75" y="-212.3" font-family="Helvetica,sans-Serif" font-size="14.00">fib: return ans;</text>
</g>
<!-- fib_after_loop&#45;&gt;fib_return -->
<g id="edge10" class="edge">
<title>fib_after_loop&#45;&gt;fib_return</title>
<path fill="none" stroke="black" d="M327.4,-289.74C324.39,-277.62 320.31,-261.21 316.83,-247.22"/>
<polygon fill="black" stroke="black" points="320.26,-246.51 314.45,-237.65 313.47,-248.19 320.26,-246.51"/>
</g>
<!-- fib_return&#45;&gt;main_return -->
<g id="edge11" class="edge">
<title>fib_return&#45;&gt;main_return</title>
<path fill="none" stroke="black" d="M297.07,-199.26C289.51,-189.2 279.51,-176.51 269.75,-165.98 266.68,-162.67 263.36,-159.31 259.99,-156.04"/>
<polygon fill="black" stroke="black" points="262.44,-153.54 252.75,-149.25 257.65,-158.65 262.44,-153.54"/>
<text xml:space="preserve" text-anchor="middle" x="306.54" y="-168.43" font-family="Helvetica,sans-Serif" font-size="14.00">Retorno</text>
</g>
</g>
</svg>
