<?xml version="1.0" encoding="UTF-8" standalone="no"?>
<!DOCTYPE svg PUBLIC "-//W3C//DTD SVG 1.1//EN"
 "http://www.w3.org/Graphics/SVG/1.1/DTD/svg11.dtd">
<!-- Generated by graphviz version 13.1.2 (20250808.2320)
 -->
<!-- Title: DFG Pages: 1 -->
<svg width="360pt" height="498pt"
 viewBox="0.00 0.00 360.00 498.00" xmlns="http://www.w3.org/2000/svg" xmlns:xlink="http://www.w3.org/1999/xlink">
<g id="graph0" class="graph" transform="scale(1 1) rotate(0) translate(4 493.5)">
<title>DFG</title>
<polygon fill="white" stroke="none" points="-4,4 -4,-493.5 355.88,-493.5 355.88,4 -4,4"/>
<!-- n_input -->
<g id="node1" class="node">
<title>n_input</title>
<ellipse fill="lightblue" stroke="black" cx="60.88" cy="-471.5" rx="51.35" ry="18"/>
<text xml:space="preserve" text-anchor="middle" x="60.88" y="-466.45" font-family="Times New Roman,serif" font-size="14.00">n (entrada)</text>
</g>
<!-- op_cond -->
<g id="node8" class="node">
<title>op_cond</title>
<polygon fill="none" stroke="black" points="121.75,-416.5 0,-416.5 0,-380.5 121.75,-380.5 121.75,-416.5"/>
<text xml:space="preserve" text-anchor="middle" x="60.88" y="-393.45" font-family="Times New Roman,serif" font-size="14.00">i &lt;= 30 &amp;&amp; i &lt;= n</text>
</g>
<!-- n_input&#45;&gt;op_cond -->
<g id="edge1" class="edge">
<title>n_input&#45;&gt;op_cond</title>
<path fill="none" stroke="black" d="M60.88,-453.31C60.88,-445.73 60.88,-436.6 60.88,-428.04"/>
<polygon fill="black" stroke="black" points="64.38,-428.04 60.88,-418.04 57.38,-428.04 64.38,-428.04"/>
</g>
<!-- constant_1 -->
<g id="node2" class="node">
<title>constant_1</title>
<ellipse fill="lightblue" stroke="black" cx="173.88" cy="-471.5" rx="27" ry="18"/>
<text xml:space="preserve" text-anchor="middle" x="173.88" y="-466.45" font-family="Times New Roman,serif" font-size="14.00">1</text>
</g>
<!-- op_init_Fnew -->
<g id="node5" class="node">
<title>op_init_Fnew</title>
<polygon fill="none" stroke="black" points="208.12,-416.5 139.62,-416.5 139.62,-380.5 208.12,-380.5 208.12,-416.5"/>
<text xml:space="preserve" text-anchor="middle" x="173.88" y="-393.45" font-family="Times New Roman,serif" font-size="14.00">Fnew = 1</text>
</g>
<!-- constant_1&#45;&gt;op_init_Fnew -->
<g id="edge2" class="edge">
<title>constant_1&#45;&gt;op_init_Fnew</title>
<path fill="none" stroke="black" d="M173.88,-453.31C173.88,-445.73 173.88,-436.6 173.88,-428.04"/>
<polygon fill="black" stroke="black" points="177.38,-428.04 173.88,-418.04 170.38,-428.04 177.38,-428.04"/>
</g>
<!-- constant_0 -->
<g id="node3" class="node">
<title>constant_0</title>
<ellipse fill="lightblue" stroke="black" cx="257.88" cy="-325.5" rx="27" ry="18"/>
<text xml:space="preserve" text-anchor="middle" x="257.88" y="-320.45" font-family="Times New Roman,serif" font-size="14.00">0</text>
</g>
<!-- op_init_Fold -->
<g id="node6" class="node">
<title>op_init_Fold</title>
<polygon fill="none" stroke="black" points="289.5,-270.5 226.25,-270.5 226.25,-234.5 289.5,-234.5 289.5,-270.5"/>
<text xml:space="preserve" text-anchor="middle" x="257.88" y="-247.45" font-family="Times New Roman,serif" font-size="14.00">Fold = 0</text>
</g>
<!-- constant_0&#45;&gt;op_init_Fold -->
<g id="edge3" class="edge">
<title>constant_0&#45;&gt;op_init_Fold</title>
<path fill="none" stroke="black" d="M257.88,-307.31C257.88,-299.73 257.88,-290.6 257.88,-282.04"/>
<polygon fill="black" stroke="black" points="261.38,-282.04 257.88,-272.04 254.38,-282.04 261.38,-282.04"/>
</g>
<!-- constant_2 -->
<g id="node4" class="node">
<title>constant_2</title>
<ellipse fill="lightblue" stroke="black" cx="252.88" cy="-471.5" rx="27" ry="18"/>
<text xml:space="preserve" text-anchor="middle" x="252.88" y="-466.45" font-family="Times New Roman,serif" font-size="14.00">2</text>
</g>
<!-- op_init_i -->
<g id="node7" class="node">
<title>op_init_i</title>
<polygon fill="none" stroke="black" points="279.88,-416.5 225.88,-416.5 225.88,-380.5 279.88,-380.5 279.88,-416.5"/>
<text xml:space="preserve" text-anchor="middle" x="252.88" y="-393.45" font-family="Times New Roman,serif" font-size="14.00">i = 2</text>
</g>
<!-- constant_2&#45;&gt;op_init_i -->
<g id="edge4" class="edge">
<title>constant_2&#45;&gt;op_init_i</title>
<path fill="none" stroke="black" d="M252.88,-453.31C252.88,-445.73 252.88,-436.6 252.88,-428.04"/>
<polygon fill="black" stroke="black" points="256.38,-428.04 252.88,-418.04 249.38,-428.04 256.38,-428.04"/>
</g>
<!-- op_temp -->
<g id="node9" class="node">
<title>op_temp</title>
<polygon fill="none" stroke="black" points="169.62,-343.5 80.12,-343.5 80.12,-307.5 169.62,-307.5 169.62,-343.5"/>
<text xml:space="preserve" text-anchor="middle" x="124.88" y="-320.45" font-family="Times New Roman,serif" font-size="14.00">temp = Fnew</text>
</g>
<!-- op_init_Fnew&#45;&gt;op_temp -->
<g id="edge5" class="edge">
<title>op_init_Fnew&#45;&gt;op_temp</title>
<path fill="none" stroke="black" d="M162.01,-380.31C156.36,-372.12 149.46,-362.12 143.15,-352.98"/>
<polygon fill="black" stroke="black" points="146.05,-351.02 137.49,-344.77 140.29,-354.99 146.05,-351.02"/>
</g>
<!-- op_Fnew -->
<g id="node10" class="node">
<title>op_Fnew</title>
<polygon fill="none" stroke="black" points="235,-182 102.75,-182 102.75,-146 235,-146 235,-182"/>
<text xml:space="preserve" text-anchor="middle" x="168.88" y="-158.95" font-family="Times New Roman,serif" font-size="14.00">Fnew = Fnew + Fold</text>
</g>
<!-- op_init_Fnew&#45;&gt;op_Fnew -->
<g id="edge6" class="edge">
<title>op_init_Fnew&#45;&gt;op_Fnew</title>
<path fill="none" stroke="black" d="M175.72,-380.01C176.78,-369.45 178.06,-355.71 178.88,-343.5 182.11,-295.14 186.35,-282.76 181.88,-234.5 180.61,-220.88 177.99,-205.96 175.42,-193.44"/>
<polygon fill="black" stroke="black" points="178.87,-192.82 173.35,-183.78 172.03,-194.29 178.87,-192.82"/>
</g>
<!-- op_init_Fold&#45;&gt;op_Fnew -->
<g id="edge7" class="edge">
<title>op_init_Fold&#45;&gt;op_Fnew</title>
<path fill="none" stroke="black" d="M243.6,-234.18C234.83,-223.88 223.14,-210.76 211.88,-200 208.17,-196.46 204.15,-192.89 200.11,-189.44"/>
<polygon fill="black" stroke="black" points="202.42,-186.81 192.49,-183.12 197.95,-192.2 202.42,-186.81"/>
</g>
<!-- op_Fold -->
<g id="node11" class="node">
<title>op_Fold</title>
<polygon fill="none" stroke="black" points="105,-270.5 20.75,-270.5 20.75,-234.5 105,-234.5 105,-270.5"/>
<text xml:space="preserve" text-anchor="middle" x="62.88" y="-247.45" font-family="Times New Roman,serif" font-size="14.00">Fold = temp</text>
</g>
<!-- op_temp&#45;&gt;op_Fold -->
<g id="edge8" class="edge">
<title>op_temp&#45;&gt;op_Fold</title>
<path fill="none" stroke="black" d="M109.87,-307.31C102.48,-298.85 93.42,-288.48 85.24,-279.11"/>
<polygon fill="black" stroke="black" points="87.95,-276.9 78.74,-271.67 82.68,-281.5 87.95,-276.9"/>
</g>
<!-- op_Fnew&#45;&gt;op_temp -->
<g id="edge9" class="edge">
<title>op_Fnew&#45;&gt;op_temp</title>
<path fill="none" stroke="black" d="M164.09,-182.35C156.52,-209.78 141.72,-263.43 132.63,-296.4"/>
<polygon fill="black" stroke="black" points="129.36,-295.1 130.07,-305.67 136.1,-296.96 129.36,-295.1"/>
<text xml:space="preserve" text-anchor="middle" x="163.69" y="-247.45" font-family="Times New Roman,serif" font-size="14.00">Loop</text>
</g>
<!-- op_Fnew&#45;&gt;op_Fnew -->
<g id="edge10" class="edge">
<title>op_Fnew&#45;&gt;op_Fnew</title>
<path fill="none" stroke="black" d="M235.17,-170.3C245.76,-169.38 253,-167.28 253,-164 253,-162.1 250.58,-160.6 246.49,-159.49"/>
<polygon fill="black" stroke="black" points="247.09,-156.05 236.67,-157.93 246,-162.96 247.09,-156.05"/>
<text xml:space="preserve" text-anchor="middle" x="267.25" y="-158.95" font-family="Times New Roman,serif" font-size="14.00">Loop</text>
</g>
<!-- op_ans -->
<g id="node13" class="node">
<title>op_ans</title>
<polygon fill="none" stroke="black" points="208.75,-109 129,-109 129,-73 208.75,-73 208.75,-109"/>
<text xml:space="preserve" text-anchor="middle" x="168.88" y="-85.95" font-family="Times New Roman,serif" font-size="14.00">ans = Fnew</text>
</g>
<!-- op_Fnew&#45;&gt;op_ans -->
<g id="edge12" class="edge">
<title>op_Fnew&#45;&gt;op_ans</title>
<path fill="none" stroke="black" d="M168.88,-145.81C168.88,-138.23 168.88,-129.1 168.88,-120.54"/>
<polygon fill="black" stroke="black" points="172.38,-120.54 168.88,-110.54 165.38,-120.54 172.38,-120.54"/>
</g>
<!-- op_Fold&#45;&gt;op_Fnew -->
<g id="edge11" class="edge">
<title>op_Fold&#45;&gt;op_Fnew</title>
<path fill="none" stroke="black" d="M71.89,-234.05C78.17,-223.19 87.38,-209.53 98.38,-200 103.4,-195.64 109.07,-191.68 114.95,-188.11"/>
<polygon fill="black" stroke="black" points="116.64,-191.18 123.65,-183.23 113.21,-185.07 116.64,-191.18"/>
<text xml:space="preserve" text-anchor="middle" x="112.62" y="-203.2" font-family="Times New Roman,serif" font-size="14.00">Loop</text>
</g>
<!-- op_i_inc -->
<g id="node12" class="node">
<title>op_i_inc</title>
<polygon fill="none" stroke="black" points="351.88,-489.5 297.88,-489.5 297.88,-453.5 351.88,-453.5 351.88,-489.5"/>
<text xml:space="preserve" text-anchor="middle" x="324.88" y="-466.45" font-family="Times New Roman,serif" font-size="14.00">i++</text>
</g>
<!-- ans_output -->
<g id="node14" class="node">
<title>ans_output</title>
<ellipse fill="lightgreen" stroke="black" cx="168.88" cy="-18" rx="50.84" ry="18"/>
<text xml:space="preserve" text-anchor="middle" x="168.88" y="-12.95" font-family="Times New Roman,serif" font-size="14.00">ans (saida)</text>
</g>
<!-- op_ans&#45;&gt;ans_output -->
<g id="edge13" class="edge">
<title>op_ans&#45;&gt;ans_output</title>
<path fill="none" stroke="black" d="M168.88,-72.81C168.88,-65.23 168.88,-56.1 168.88,-47.54"/>
<polygon fill="black" stroke="black" points="172.38,-47.54 168.88,-37.54 165.38,-47.54 172.38,-47.54"/>
</g>
</g>
</svg>
