<?xml version="1.0" encoding="UTF-8" standalone="no"?>
<!DOCTYPE svg PUBLIC "-//W3C//DTD SVG 1.1//EN"
 "http://www.w3.org/Graphics/SVG/1.1/DTD/svg11.dtd">
<!-- Generated by graphviz version 13.1.2 (20250808.2320)
 -->
<!-- Title: Fib Pages: 1 -->
<svg width="454pt" height="623pt"
 viewBox="0.00 0.00 454.00 623.00" xmlns="http://www.w3.org/2000/svg" xmlns:xlink="http://www.w3.org/1999/xlink">
<g id="graph0" class="graph" transform="scale(1 1) rotate(0) translate(4 619)">
<title>Fib</title>
<polygon fill="white" stroke="none" points="-4,4 -4,-619 450.37,-619 450.37,4 -4,4"/>
<!-- start -->
<g id="node1" class="node">
<title>start</title>
<ellipse fill="none" stroke="black" cx="339.37" cy="-597" rx="55.96" ry="18"/>
<text xml:space="preserve" text-anchor="middle" x="339.37" y="-591.95" font-family="Times New Roman,serif" font-size="14.00">Inicio fib(n)</text>
</g>
<!-- decl -->
<g id="node2" class="node">
<title>decl</title>
<polygon fill="none" stroke="black" points="444.12,-542 234.62,-542 234.62,-506 444.12,-506 444.12,-542"/>
<text xml:space="preserve" text-anchor="middle" x="339.37" y="-518.95" font-family="Times New Roman,serif" font-size="14.00">1: Declara i, Fnew, Fold, temp, ans</text>
</g>
<!-- start&#45;&gt;decl -->
<g id="edge1" class="edge">
<title>start&#45;&gt;decl</title>
<path fill="none" stroke="black" d="M339.37,-578.81C339.37,-571.23 339.37,-562.1 339.37,-553.54"/>
<polygon fill="black" stroke="black" points="342.87,-553.54 339.37,-543.54 335.87,-553.54 342.87,-553.54"/>
</g>
<!-- init -->
<g id="node3" class="node">
<title>init</title>
<polygon fill="none" stroke="black" points="408.12,-469 270.62,-469 270.62,-433 408.12,-433 408.12,-469"/>
<text xml:space="preserve" text-anchor="middle" x="339.37" y="-445.95" font-family="Times New Roman,serif" font-size="14.00">2: Fnew = 1, Fold = 0</text>
</g>
<!-- decl&#45;&gt;init -->
<g id="edge2" class="edge">
<title>decl&#45;&gt;init</title>
<path fill="none" stroke="black" d="M339.37,-505.81C339.37,-498.23 339.37,-489.1 339.37,-480.54"/>
<polygon fill="black" stroke="black" points="342.87,-480.54 339.37,-470.54 335.87,-480.54 342.87,-480.54"/>
</g>
<!-- for_init -->
<g id="node4" class="node">
<title>for_init</title>
<polygon fill="none" stroke="black" points="181.62,-396 125.12,-396 125.12,-360 181.62,-360 181.62,-396"/>
<text xml:space="preserve" text-anchor="middle" x="153.37" y="-372.95" font-family="Times New Roman,serif" font-size="14.00">3: i = 2</text>
</g>
<!-- init&#45;&gt;for_init -->
<g id="edge3" class="edge">
<title>init&#45;&gt;for_init</title>
<path fill="none" stroke="black" d="M293.87,-432.63C262.87,-420.8 222.26,-405.3 192.67,-394"/>
<polygon fill="black" stroke="black" points="193.92,-390.73 183.33,-390.44 191.42,-397.27 193.92,-390.73"/>
</g>
<!-- loop_body -->
<g id="node6" class="node">
<title>loop_body</title>
<polygon fill="none" stroke="black" points="186.49,-219 54.24,-219 54.24,-161.5 186.49,-161.5 186.49,-219"/>
<text xml:space="preserve" text-anchor="middle" x="120.37" y="-201.7" font-family="Times New Roman,serif" font-size="14.00">5: temp = Fnew</text>
<text xml:space="preserve" text-anchor="middle" x="120.37" y="-185.2" font-family="Times New Roman,serif" font-size="14.00">Fnew = Fnew + Fold</text>
<text xml:space="preserve" text-anchor="middle" x="120.37" y="-168.7" font-family="Times New Roman,serif" font-size="14.00">Fold = temp</text>
</g>
<!-- init&#45;&gt;loop_body -->
<g id="edge10" class="edge">
<title>init&#45;&gt;loop_body</title>
<path fill="none" stroke="blue" stroke-dasharray="5,2" d="M326.37,-432.59C301.98,-400.15 247.28,-328.59 197.37,-271.5 184.42,-256.69 169.59,-240.96 156.42,-227.39"/>
<polygon fill="blue" stroke="blue" points="159.01,-225.04 149.52,-220.33 154.01,-229.93 159.01,-225.04"/>
<text xml:space="preserve" text-anchor="middle" x="286.73" y="-328.7" font-family="Times New Roman,serif" font-size="14.00">Fnew, Fold</text>
</g>
<!-- assign_ans -->
<g id="node8" class="node">
<title>assign_ans</title>
<polygon fill="none" stroke="black" points="384.37,-109 290.37,-109 290.37,-73 384.37,-73 384.37,-109"/>
<text xml:space="preserve" text-anchor="middle" x="337.37" y="-85.95" font-family="Times New Roman,serif" font-size="14.00">7: ans = Fnew</text>
</g>
<!-- init&#45;&gt;assign_ans -->
<g id="edge14" class="edge">
<title>init&#45;&gt;assign_ans</title>
<path fill="none" stroke="blue" stroke-dasharray="5,2" d="M376.97,-432.51C396.51,-420.58 416.37,-402.64 416.37,-379 416.37,-379 416.37,-379 416.37,-189.25 416.37,-159.56 393.91,-133.88 372.94,-116.38"/>
<polygon fill="blue" stroke="blue" points="375.31,-113.79 365.3,-110.33 370.97,-119.28 375.31,-113.79"/>
<text xml:space="preserve" text-anchor="middle" x="431.37" y="-284.45" font-family="Times New Roman,serif" font-size="14.00">Fnew</text>
</g>
<!-- for_cond -->
<g id="node5" class="node">
<title>for_cond</title>
<polygon fill="none" stroke="black" points="188.37,-307.5 52.37,-307.5 52.37,-271.5 188.37,-271.5 188.37,-307.5"/>
<text xml:space="preserve" text-anchor="middle" x="120.37" y="-284.45" font-family="Times New Roman,serif" font-size="14.00">4: i &lt;= 30 &amp;&amp; i &lt;= n</text>
</g>
<!-- for_init&#45;&gt;for_cond -->
<g id="edge4" class="edge">
<title>for_init&#45;&gt;for_cond</title>
<path fill="none" stroke="black" d="M142.88,-359.58C139.86,-354.08 136.74,-347.9 134.37,-342 131.44,-334.69 128.91,-326.56 126.84,-318.95"/>
<polygon fill="black" stroke="black" points="130.28,-318.29 124.43,-309.46 123.5,-320.02 130.28,-318.29"/>
</g>
<!-- for_init&#45;&gt;for_cond -->
<g id="edge12" class="edge">
<title>for_init&#45;&gt;for_cond</title>
<path fill="none" stroke="blue" stroke-dasharray="5,2" d="M146.85,-359.91C142.31,-348.02 136.17,-331.91 130.94,-318.2"/>
<polygon fill="blue" stroke="blue" points="134.36,-317.36 127.53,-309.26 127.82,-319.86 134.36,-317.36"/>
<text xml:space="preserve" text-anchor="middle" x="141.7" y="-328.7" font-family="Times New Roman,serif" font-size="14.00">i</text>
</g>
<!-- for_cond&#45;&gt;loop_body -->
<g id="edge5" class="edge">
<title>for_cond&#45;&gt;loop_body</title>
<path fill="none" stroke="black" d="M120.37,-271.11C120.37,-259.85 120.37,-244.7 120.37,-230.62"/>
<polygon fill="black" stroke="black" points="123.87,-230.67 120.37,-220.67 116.87,-230.67 123.87,-230.67"/>
<text xml:space="preserve" text-anchor="middle" x="133.12" y="-240.2" font-family="Times New Roman,serif" font-size="14.00">True</text>
</g>
<!-- for_cond&#45;&gt;assign_ans -->
<g id="edge6" class="edge">
<title>for_cond&#45;&gt;assign_ans</title>
<path fill="none" stroke="black" d="M188.6,-280.22C229.66,-271.66 279.75,-254.28 310.37,-219 334.03,-191.74 338.65,-148.9 338.8,-120.63"/>
<polygon fill="black" stroke="black" points="342.3,-120.95 338.65,-111 335.31,-121.06 342.3,-120.95"/>
<text xml:space="preserve" text-anchor="middle" x="349.19" y="-185.2" font-family="Times New Roman,serif" font-size="14.00">False</text>
</g>
<!-- loop_body&#45;&gt;loop_body -->
<g id="edge11" class="edge">
<title>loop_body&#45;&gt;loop_body</title>
<path fill="none" stroke="blue" stroke-dasharray="5,2" d="M186.67,-199.75C197.25,-198.36 204.49,-195.19 204.49,-190.25 204.49,-187.32 201.94,-185.01 197.65,-183.33"/>
<polygon fill="blue" stroke="blue" points="198.68,-179.97 188.14,-181.1 197.08,-186.79 198.68,-179.97"/>
<text xml:space="preserve" text-anchor="middle" x="252.87" y="-185.2" font-family="Times New Roman,serif" font-size="14.00">Fnew, Fold, temp</text>
</g>
<!-- inc -->
<g id="node7" class="node">
<title>inc</title>
<polygon fill="none" stroke="black" points="59.37,-109 5.37,-109 5.37,-73 59.37,-73 59.37,-109"/>
<text xml:space="preserve" text-anchor="middle" x="32.37" y="-85.95" font-family="Times New Roman,serif" font-size="14.00">6: i++</text>
</g>
<!-- loop_body&#45;&gt;inc -->
<g id="edge7" class="edge">
<title>loop_body&#45;&gt;inc</title>
<path fill="none" stroke="black" d="M94.91,-161.12C82.51,-147.41 67.69,-131.03 55.59,-117.66"/>
<polygon fill="black" stroke="black" points="58.41,-115.56 49.1,-110.49 53.22,-120.26 58.41,-115.56"/>
</g>
<!-- loop_body&#45;&gt;assign_ans -->
<g id="edge15" class="edge">
<title>loop_body&#45;&gt;assign_ans</title>
<path fill="none" stroke="blue" stroke-dasharray="5,2" d="M183.13,-161.12C216.65,-146.1 257.28,-127.89 288.43,-113.93"/>
<polygon fill="blue" stroke="blue" points="289.53,-117.27 297.23,-109.99 286.67,-110.89 289.53,-117.27"/>
<text xml:space="preserve" text-anchor="middle" x="269.69" y="-130.2" font-family="Times New Roman,serif" font-size="14.00">Fnew</text>
</g>
<!-- inc&#45;&gt;for_cond -->
<g id="edge8" class="edge">
<title>inc&#45;&gt;for_cond</title>
<path fill="none" stroke="black" d="M23.51,-109.46C8.28,-142.23 -17.92,-213.28 18.37,-253.5 24.86,-260.69 32.89,-266.41 41.58,-270.95"/>
<polygon fill="black" stroke="black" points="40.11,-274.12 50.65,-275.13 43.03,-267.77 40.11,-274.12"/>
</g>
<!-- inc&#45;&gt;for_cond -->
<g id="edge13" class="edge">
<title>inc&#45;&gt;for_cond</title>
<path fill="none" stroke="blue" stroke-dasharray="5,2" d="M29.71,-109.08C26.58,-134.51 23.85,-183.15 41.62,-219 50.69,-237.3 66.9,-252.89 82.27,-264.64"/>
<polygon fill="blue" stroke="blue" points="79.78,-267.17 89.93,-270.22 83.9,-261.5 79.78,-267.17"/>
<text xml:space="preserve" text-anchor="middle" x="43.49" y="-185.2" font-family="Times New Roman,serif" font-size="14.00">i</text>
</g>
<!-- ret -->
<g id="node9" class="node">
<title>ret</title>
<ellipse fill="none" stroke="black" cx="337.37" cy="-18" rx="57.49" ry="18"/>
<text xml:space="preserve" text-anchor="middle" x="337.37" y="-12.95" font-family="Times New Roman,serif" font-size="14.00">8: return ans</text>
</g>
<!-- assign_ans&#45;&gt;ret -->
<g id="edge9" class="edge">
<title>assign_ans&#45;&gt;ret</title>
<path fill="none" stroke="black" d="M337.37,-72.81C337.37,-65.23 337.37,-56.1 337.37,-47.54"/>
<polygon fill="black" stroke="black" points="340.87,-47.54 337.37,-37.54 333.87,-47.54 340.87,-47.54"/>
</g>
</g>
</svg>
