<?xml version="1.0" encoding="UTF-8" standalone="no"?>
<!DOCTYPE svg PUBLIC "-//W3C//DTD SVG 1.1//EN"
 "http://www.w3.org/Graphics/SVG/1.1/DTD/svg11.dtd">
<!-- Generated by graphviz version 13.1.2 (20250808.2320)
 -->
<!-- Title: Main Pages: 1 -->
<svg width="131pt" height="352pt"
 viewBox="0.00 0.00 131.00 352.00" xmlns="http://www.w3.org/2000/svg" xmlns:xlink="http://www.w3.org/1999/xlink">
<g id="graph0" class="graph" transform="scale(1 1) rotate(0) translate(4 347.5)">
<title>Main</title>
<polygon fill="white" stroke="none" points="-4,4 -4,-347.5 127.18,-347.5 127.18,4 -4,4"/>
<!-- start -->
<g id="node1" class="node">
<title>start</title>
<ellipse fill="none" stroke="black" cx="63.12" cy="-325.5" rx="60.05" ry="18"/>
<text xml:space="preserve" text-anchor="middle" x="63.12" y="-320.45" font-family="Times New Roman,serif" font-size="14.00">Inicio main()</text>
</g>
<!-- decl -->
<g id="node2" class="node">
<title>decl</title>
<polygon fill="none" stroke="black" points="90.25,-270.5 36,-270.5 36,-234.5 90.25,-234.5 90.25,-270.5"/>
<text xml:space="preserve" text-anchor="middle" x="63.12" y="-247.45" font-family="Times New Roman,serif" font-size="14.00">1: int a</text>
</g>
<!-- start&#45;&gt;decl -->
<g id="edge1" class="edge">
<title>start&#45;&gt;decl</title>
<path fill="none" stroke="black" d="M63.12,-307.31C63.12,-299.73 63.12,-290.6 63.12,-282.04"/>
<polygon fill="black" stroke="black" points="66.63,-282.04 63.13,-272.04 59.63,-282.04 66.63,-282.04"/>
</g>
<!-- assign -->
<g id="node3" class="node">
<title>assign</title>
<polygon fill="none" stroke="black" points="95.88,-197.5 30.38,-197.5 30.38,-161.5 95.88,-161.5 95.88,-197.5"/>
<text xml:space="preserve" text-anchor="middle" x="63.12" y="-174.45" font-family="Times New Roman,serif" font-size="14.00">2: a = 30</text>
</g>
<!-- decl&#45;&gt;assign -->
<g id="edge2" class="edge">
<title>decl&#45;&gt;assign</title>
<path fill="none" stroke="black" d="M63.12,-234.31C63.12,-226.73 63.12,-217.6 63.12,-209.04"/>
<polygon fill="black" stroke="black" points="66.63,-209.04 63.13,-199.04 59.63,-209.04 66.63,-209.04"/>
</g>
<!-- call_fib -->
<g id="node4" class="node">
<title>call_fib</title>
<polygon fill="none" stroke="black" points="60.25,-109 0,-109 0,-73 60.25,-73 60.25,-109"/>
<text xml:space="preserve" text-anchor="middle" x="30.12" y="-85.95" font-family="Times New Roman,serif" font-size="14.00">3: fib(a)</text>
</g>
<!-- assign&#45;&gt;call_fib -->
<g id="edge3" class="edge">
<title>assign&#45;&gt;call_fib</title>
<path fill="none" stroke="black" d="M52.64,-161.08C49.61,-155.58 46.49,-149.4 44.12,-143.5 41.19,-136.19 38.67,-128.06 36.6,-120.45"/>
<polygon fill="black" stroke="black" points="40.04,-119.79 34.19,-110.96 33.25,-121.52 40.04,-119.79"/>
</g>
<!-- assign&#45;&gt;call_fib -->
<g id="edge5" class="edge">
<title>assign&#45;&gt;call_fib</title>
<path fill="none" stroke="blue" stroke-dasharray="5,2" d="M56.61,-161.41C52.07,-149.52 45.92,-133.41 40.69,-119.7"/>
<polygon fill="blue" stroke="blue" points="44.12,-118.86 37.28,-110.76 37.58,-121.36 44.12,-118.86"/>
<text xml:space="preserve" text-anchor="middle" x="52.58" y="-130.2" font-family="Times New Roman,serif" font-size="14.00">a</text>
</g>
<!-- ret -->
<g id="node5" class="node">
<title>ret</title>
<ellipse fill="none" stroke="black" cx="63.12" cy="-18" rx="49.3" ry="18"/>
<text xml:space="preserve" text-anchor="middle" x="63.12" y="-12.95" font-family="Times New Roman,serif" font-size="14.00">4: return a</text>
</g>
<!-- assign&#45;&gt;ret -->
<g id="edge6" class="edge">
<title>assign&#45;&gt;ret</title>
<path fill="none" stroke="blue" stroke-dasharray="5,2" d="M65.29,-161.32C67.64,-140.45 70.85,-104.14 69.12,-73 68.67,-64.77 67.83,-55.87 66.91,-47.72"/>
<polygon fill="blue" stroke="blue" points="70.41,-47.48 65.74,-37.97 63.46,-48.32 70.41,-47.48"/>
<text xml:space="preserve" text-anchor="middle" x="72.61" y="-85.95" font-family="Times New Roman,serif" font-size="14.00">a</text>
</g>
<!-- call_fib&#45;&gt;ret -->
<g id="edge4" class="edge">
<title>call_fib&#45;&gt;ret</title>
<path fill="none" stroke="black" d="M38.11,-72.81C41.8,-64.88 46.27,-55.26 50.41,-46.36"/>
<polygon fill="black" stroke="black" points="53.53,-47.94 54.57,-37.4 47.18,-44.99 53.53,-47.94"/>
</g>
</g>
</svg>
