<?xml version="1.0" encoding="UTF-8" standalone="no"?>
<!DOCTYPE svg PUBLIC "-//W3C//DTD SVG 1.1//EN"
 "http://www.w3.org/Graphics/SVG/1.1/DTD/svg11.dtd">
<!-- Generated by graphviz version 13.1.2 (20250808.2320)
 -->
<!-- Title: Sum_CFG Pages: 1 -->
<svg width="728pt" height="673pt"
 viewBox="0.00 0.00 728.00 673.00" xmlns="http://www.w3.org/2000/svg" xmlns:xlink="http://www.w3.org/1999/xlink">
<g id="graph0" class="graph" transform="scale(1 1) rotate(0) translate(4 668.75)">
<title>Sum_CFG</title>
<polygon fill="white" stroke="none" points="-4,4 -4,-668.75 723.75,-668.75 723.75,4 -4,4"/>
<!-- N1 -->
<g id="node1" class="node">
<title>N1</title>
<path fill="none" stroke="black" d="M594.75,-664.75C594.75,-664.75 508.25,-664.75 508.25,-664.75 502.25,-664.75 496.25,-658.75 496.25,-652.75 496.25,-652.75 496.25,-605.75 496.25,-605.75 496.25,-599.75 502.25,-593.75 508.25,-593.75 508.25,-593.75 594.75,-593.75 594.75,-593.75 600.75,-593.75 606.75,-599.75 606.75,-605.75 606.75,-605.75 606.75,-652.75 606.75,-652.75 606.75,-658.75 600.75,-664.75 594.75,-664.75"/>
<text xml:space="preserve" text-anchor="middle" x="551.5" y="-647.45" font-family="Helvetica,sans-Serif" font-size="14.00">1: int Ptotal = 0;</text>
<text xml:space="preserve" text-anchor="middle" x="551.5" y="-631.7" font-family="Helvetica,sans-Serif" font-size="14.00">int Ntotal = 0;</text>
<text xml:space="preserve" text-anchor="middle" x="551.5" y="-615.95" font-family="Helvetica,sans-Serif" font-size="14.00">int Pcnt = 0;</text>
<text xml:space="preserve" text-anchor="middle" x="551.5" y="-600.2" font-family="Helvetica,sans-Serif" font-size="14.00">int Ncnt = 0;</text>
</g>
<!-- N2 -->
<g id="node2" class="node">
<title>N2</title>
<path fill="none" stroke="black" d="M583.88,-556.75C583.88,-556.75 519.12,-556.75 519.12,-556.75 513.12,-556.75 507.12,-550.75 507.12,-544.75 507.12,-544.75 507.12,-532.75 507.12,-532.75 507.12,-526.75 513.12,-520.75 519.12,-520.75 519.12,-520.75 583.88,-520.75 583.88,-520.75 589.88,-520.75 595.88,-526.75 595.88,-532.75 595.88,-532.75 595.88,-544.75 595.88,-544.75 595.88,-550.75 589.88,-556.75 583.88,-556.75"/>
<text xml:space="preserve" text-anchor="middle" x="551.5" y="-533.33" font-family="Helvetica,sans-Serif" font-size="14.00">2: Outer = 0</text>
</g>
<!-- N1&#45;&gt;N2 -->
<g id="edge1" class="edge">
<title>N1&#45;&gt;N2</title>
<path fill="none" stroke="black" d="M551.5,-593.27C551.5,-585.06 551.5,-576.4 551.5,-568.49"/>
<polygon fill="black" stroke="black" points="555,-568.75 551.5,-558.75 548,-568.75 555,-568.75"/>
</g>
<!-- N3 -->
<g id="node3" class="node">
<title>N3</title>
<path fill="none" stroke="black" d="M613.88,-483.75C613.88,-483.75 489.12,-483.75 489.12,-483.75 483.12,-483.75 477.12,-477.75 477.12,-471.75 477.12,-471.75 477.12,-459.75 477.12,-459.75 477.12,-453.75 483.12,-447.75 489.12,-447.75 489.12,-447.75 613.88,-447.75 613.88,-447.75 619.88,-447.75 625.88,-453.75 625.88,-459.75 625.88,-459.75 625.88,-471.75 625.88,-471.75 625.88,-477.75 619.88,-483.75 613.88,-483.75"/>
<text xml:space="preserve" text-anchor="middle" x="551.5" y="-460.32" font-family="Helvetica,sans-Serif" font-size="14.00">3: Outer &lt; MAXSIZE?</text>
</g>
<!-- N2&#45;&gt;N3 -->
<g id="edge2" class="edge">
<title>N2&#45;&gt;N3</title>
<path fill="none" stroke="black" d="M551.5,-520.56C551.5,-512.98 551.5,-503.85 551.5,-495.29"/>
<polygon fill="black" stroke="black" points="555,-495.29 551.5,-485.29 548,-495.29 555,-495.29"/>
</g>
<!-- N4 -->
<g id="node4" class="node">
<title>N4</title>
<path fill="none" stroke="black" d="M504,-378.5C504,-378.5 443,-378.5 443,-378.5 437,-378.5 431,-372.5 431,-366.5 431,-366.5 431,-354.5 431,-354.5 431,-348.5 437,-342.5 443,-342.5 443,-342.5 504,-342.5 504,-342.5 510,-342.5 516,-348.5 516,-354.5 516,-354.5 516,-366.5 516,-366.5 516,-372.5 510,-378.5 504,-378.5"/>
<text xml:space="preserve" text-anchor="middle" x="473.5" y="-355.07" font-family="Helvetica,sans-Serif" font-size="14.00">4: Inner = 0</text>
</g>
<!-- N3&#45;&gt;N4 -->
<g id="edge3" class="edge">
<title>N3&#45;&gt;N4</title>
<path fill="none" stroke="black" d="M531.14,-447.54C525.35,-442.15 519.26,-435.97 514.25,-429.75 504.08,-417.11 494.66,-401.68 487.44,-388.7"/>
<polygon fill="black" stroke="black" points="490.7,-387.37 482.87,-380.24 484.54,-390.7 490.7,-387.37"/>
<text xml:space="preserve" text-anchor="middle" x="525.88" y="-416.45" font-family="Helvetica,sans-Serif" font-size="14.00">true</text>
</g>
<!-- N11 -->
<g id="node11" class="node">
<title>N11</title>
<path fill="none" stroke="black" d="M707.75,-396C707.75,-396 591.25,-396 591.25,-396 585.25,-396 579.25,-390 579.25,-384 579.25,-384 579.25,-337 579.25,-337 579.25,-331 585.25,-325 591.25,-325 591.25,-325 707.75,-325 707.75,-325 713.75,-325 719.75,-331 719.75,-337 719.75,-337 719.75,-384 719.75,-384 719.75,-390 713.75,-396 707.75,-396"/>
<text xml:space="preserve" text-anchor="middle" x="649.5" y="-378.7" font-family="Helvetica,sans-Serif" font-size="14.00">11: Postotal = Ptotal;</text>
<text xml:space="preserve" text-anchor="middle" x="649.5" y="-362.95" font-family="Helvetica,sans-Serif" font-size="14.00">Poscnt = Pcnt;</text>
<text xml:space="preserve" text-anchor="middle" x="649.5" y="-347.2" font-family="Helvetica,sans-Serif" font-size="14.00">Negtotal = Ntotal;</text>
<text xml:space="preserve" text-anchor="middle" x="649.5" y="-331.45" font-family="Helvetica,sans-Serif" font-size="14.00">Negcnt = Ncnt;</text>
</g>
<!-- N3&#45;&gt;N11 -->
<g id="edge4" class="edge">
<title>N3&#45;&gt;N11</title>
<path fill="none" stroke="black" d="M567.68,-447.7C578.88,-435.91 594.3,-419.66 608.73,-404.45"/>
<polygon fill="black" stroke="black" points="611.23,-406.9 615.58,-397.24 606.16,-402.08 611.23,-406.9"/>
<text xml:space="preserve" text-anchor="middle" x="611.81" y="-416.45" font-family="Helvetica,sans-Serif" font-size="14.00">false</text>
</g>
<!-- N5 -->
<g id="node5" class="node">
<title>N5</title>
<path fill="none" stroke="black" d="M511,-288C511,-288 390,-288 390,-288 384,-288 378,-282 378,-276 378,-276 378,-264 378,-264 378,-258 384,-252 390,-252 390,-252 511,-252 511,-252 517,-252 523,-258 523,-264 523,-264 523,-276 523,-276 523,-282 517,-288 511,-288"/>
<text xml:space="preserve" text-anchor="middle" x="450.5" y="-264.57" font-family="Helvetica,sans-Serif" font-size="14.00">5: Inner &lt; MAXSIZE?</text>
</g>
<!-- N4&#45;&gt;N5 -->
<g id="edge5" class="edge">
<title>N4&#45;&gt;N5</title>
<path fill="none" stroke="black" d="M468.96,-342.02C465.81,-329.89 461.54,-313.48 457.9,-299.49"/>
<polygon fill="black" stroke="black" points="461.32,-298.71 455.42,-289.91 454.54,-300.47 461.32,-298.71"/>
</g>
<!-- N6 -->
<g id="node6" class="node">
<title>N6</title>
<path fill="none" stroke="black" d="M406.62,-200.25C406.62,-200.25 244.38,-200.25 244.38,-200.25 238.38,-200.25 232.38,-194.25 232.38,-188.25 232.38,-188.25 232.38,-176.25 232.38,-176.25 232.38,-170.25 238.38,-164.25 244.38,-164.25 244.38,-164.25 406.62,-164.25 406.62,-164.25 412.62,-164.25 418.62,-170.25 418.62,-176.25 418.62,-176.25 418.62,-188.25 418.62,-188.25 418.62,-194.25 412.62,-200.25 406.62,-200.25"/>
<text xml:space="preserve" text-anchor="middle" x="325.5" y="-176.82" font-family="Helvetica,sans-Serif" font-size="14.00">6: if (Array[Outer][Inner] &lt; 0)</text>
</g>
<!-- N5&#45;&gt;N6 -->
<g id="edge6" class="edge">
<title>N5&#45;&gt;N6</title>
<path fill="none" stroke="black" d="M425.2,-251.65C406.48,-238.8 380.76,-221.16 360.13,-207"/>
<polygon fill="black" stroke="black" points="362.23,-204.2 352.01,-201.43 358.27,-209.98 362.23,-204.2"/>
<text xml:space="preserve" text-anchor="middle" x="410.82" y="-220.7" font-family="Helvetica,sans-Serif" font-size="14.00">true</text>
</g>
<!-- N10 -->
<g id="node10" class="node">
<title>N10</title>
<path fill="none" stroke="black" d="M573.25,-200.25C573.25,-200.25 507.75,-200.25 507.75,-200.25 501.75,-200.25 495.75,-194.25 495.75,-188.25 495.75,-188.25 495.75,-176.25 495.75,-176.25 495.75,-170.25 501.75,-164.25 507.75,-164.25 507.75,-164.25 573.25,-164.25 573.25,-164.25 579.25,-164.25 585.25,-170.25 585.25,-176.25 585.25,-176.25 585.25,-188.25 585.25,-188.25 585.25,-194.25 579.25,-200.25 573.25,-200.25"/>
<text xml:space="preserve" text-anchor="middle" x="540.5" y="-176.82" font-family="Helvetica,sans-Serif" font-size="14.00">10: Outer++</text>
</g>
<!-- N5&#45;&gt;N10 -->
<g id="edge7" class="edge">
<title>N5&#45;&gt;N10</title>
<path fill="none" stroke="black" d="M468.71,-251.65C481.77,-239.21 499.55,-222.27 514.15,-208.36"/>
<polygon fill="black" stroke="black" points="516.39,-211.05 521.22,-201.62 511.56,-205.99 516.39,-211.05"/>
<text xml:space="preserve" text-anchor="middle" x="517.81" y="-220.7" font-family="Helvetica,sans-Serif" font-size="14.00">false</text>
</g>
<!-- N7 -->
<g id="node7" class="node">
<title>N7</title>
<path fill="none" stroke="black" d="M193,-112.5C193,-112.5 12,-112.5 12,-112.5 6,-112.5 0,-106.5 0,-100.5 0,-100.5 0,-85 0,-85 0,-79 6,-73 12,-73 12,-73 193,-73 193,-73 199,-73 205,-79 205,-85 205,-85 205,-100.5 205,-100.5 205,-106.5 199,-112.5 193,-112.5"/>
<text xml:space="preserve" text-anchor="middle" x="102.5" y="-95.2" font-family="Helvetica,sans-Serif" font-size="14.00">7: Ptotal += Array[Outer][Inner];</text>
<text xml:space="preserve" text-anchor="middle" x="102.5" y="-79.45" font-family="Helvetica,sans-Serif" font-size="14.00">Pcnt++;</text>
</g>
<!-- N6&#45;&gt;N7 -->
<g id="edge8" class="edge">
<title>N6&#45;&gt;N7</title>
<path fill="none" stroke="black" d="M280.91,-163.75C246.64,-150.31 198.98,-131.61 161.54,-116.92"/>
<polygon fill="black" stroke="black" points="163.27,-113.83 152.68,-113.44 160.71,-120.35 163.27,-113.83"/>
<text xml:space="preserve" text-anchor="middle" x="245.6" y="-132.95" font-family="Helvetica,sans-Serif" font-size="14.00">true</text>
</g>
<!-- N8 -->
<g id="node8" class="node">
<title>N8</title>
<path fill="none" stroke="black" d="M416.38,-112.5C416.38,-112.5 234.62,-112.5 234.62,-112.5 228.62,-112.5 222.62,-106.5 222.62,-100.5 222.62,-100.5 222.62,-85 222.62,-85 222.62,-79 228.62,-73 234.62,-73 234.62,-73 416.38,-73 416.38,-73 422.38,-73 428.38,-79 428.38,-85 428.38,-85 428.38,-100.5 428.38,-100.5 428.38,-106.5 422.38,-112.5 416.38,-112.5"/>
<text xml:space="preserve" text-anchor="middle" x="325.5" y="-95.2" font-family="Helvetica,sans-Serif" font-size="14.00">8: Ntotal += Array[Outer][Inner];</text>
<text xml:space="preserve" text-anchor="middle" x="325.5" y="-79.45" font-family="Helvetica,sans-Serif" font-size="14.00">Ncnt++;</text>
</g>
<!-- N6&#45;&gt;N8 -->
<g id="edge9" class="edge">
<title>N6&#45;&gt;N8</title>
<path fill="none" stroke="black" d="M325.5,-163.96C325.5,-152.56 325.5,-137.32 325.5,-123.95"/>
<polygon fill="black" stroke="black" points="329,-124.34 325.5,-114.34 322,-124.34 329,-124.34"/>
<text xml:space="preserve" text-anchor="middle" x="339.75" y="-132.95" font-family="Helvetica,sans-Serif" font-size="14.00">false</text>
</g>
<!-- N9 -->
<g id="node9" class="node">
<title>N9</title>
<path fill="none" stroke="black" d="M352.62,-36C352.62,-36 298.38,-36 298.38,-36 292.38,-36 286.38,-30 286.38,-24 286.38,-24 286.38,-12 286.38,-12 286.38,-6 292.38,0 298.38,0 298.38,0 352.62,0 352.62,0 358.62,0 364.62,-6 364.62,-12 364.62,-12 364.62,-24 364.62,-24 364.62,-30 358.62,-36 352.62,-36"/>
<text xml:space="preserve" text-anchor="middle" x="325.5" y="-12.57" font-family="Helvetica,sans-Serif" font-size="14.00">9: Inner++</text>
</g>
<!-- N7&#45;&gt;N9 -->
<g id="edge10" class="edge">
<title>N7&#45;&gt;N9</title>
<path fill="none" stroke="black" d="M161.38,-72.54C196.9,-60.95 241.65,-46.35 275.45,-35.33"/>
<polygon fill="black" stroke="black" points="276.15,-38.78 284.57,-32.35 273.98,-32.13 276.15,-38.78"/>
</g>
<!-- N8&#45;&gt;N9 -->
<g id="edge11" class="edge">
<title>N8&#45;&gt;N9</title>
<path fill="none" stroke="black" d="M325.5,-72.64C325.5,-64.97 325.5,-55.97 325.5,-47.55"/>
<polygon fill="black" stroke="black" points="329,-47.76 325.5,-37.76 322,-47.76 329,-47.76"/>
</g>
<!-- N9&#45;&gt;N5 -->
<g id="edge12" class="edge">
<title>N9&#45;&gt;N5</title>
<path fill="none" stroke="black" d="M364.88,-27.27C390.04,-34.75 420.95,-48.49 437.5,-73 471.73,-123.7 464.37,-199.57 456.9,-240.46"/>
<polygon fill="black" stroke="black" points="453.48,-239.74 454.97,-250.23 460.34,-241.1 453.48,-239.74"/>
</g>
<!-- N10&#45;&gt;N3 -->
<g id="edge13" class="edge">
<title>N10&#45;&gt;N3</title>
<path fill="none" stroke="black" d="M541.18,-200.57C543.02,-247.64 548.12,-378.3 550.39,-436.34"/>
<polygon fill="black" stroke="black" points="546.88,-436.2 550.77,-446.05 553.88,-435.92 546.88,-436.2"/>
</g>
<!-- N12 -->
<g id="node12" class="node">
<title>N12</title>
<path fill="none" stroke="black" d="M664.5,-288C664.5,-288 634.5,-288 634.5,-288 628.5,-288 622.5,-282 622.5,-276 622.5,-276 622.5,-264 622.5,-264 622.5,-258 628.5,-252 634.5,-252 634.5,-252 664.5,-252 664.5,-252 670.5,-252 676.5,-258 676.5,-264 676.5,-264 676.5,-276 676.5,-276 676.5,-282 670.5,-288 664.5,-288"/>
<text xml:space="preserve" text-anchor="middle" x="649.5" y="-264.57" font-family="Helvetica,sans-Serif" font-size="14.00">N12</text>
</g>
<!-- N11&#45;&gt;N12 -->
</g>
</svg>
