<?xml version="1.0" encoding="UTF-8" standalone="no"?>
<!DOCTYPE svg PUBLIC "-//W3C//DTD SVG 1.1//EN"
 "http://www.w3.org/Graphics/SVG/1.1/DTD/svg11.dtd">
<!-- Generated by graphviz version 13.1.2 (20250808.2320)
 -->
<!-- Title: Sum_DFG Pages: 1 -->
<svg width="513pt" height="675pt"
 viewBox="0.00 0.00 513.00 675.00" xmlns="http://www.w3.org/2000/svg" xmlns:xlink="http://www.w3.org/1999/xlink">
<g id="graph0" class="graph" transform="scale(1 1) rotate(0) translate(4 670.5)">
<title>Sum_DFG</title>
<polygon fill="white" stroke="none" points="-4,4 -4,-670.5 508.91,-670.5 508.91,4 -4,4"/>
<!-- Array_in -->
<g id="node1" class="node">
<title>Array_in</title>
<ellipse fill="lightblue" stroke="black" cx="151.38" cy="-414" rx="32.41" ry="18"/>
<text xml:space="preserve" text-anchor="middle" x="151.38" y="-408.95" font-family="Times New Roman,serif" font-size="14.00">Array</text>
</g>
<!-- op_cond -->
<g id="node9" class="node">
<title>op_cond</title>
<polygon fill="none" stroke="black" points="226.38,-343.5 172.38,-343.5 172.38,-307.5 226.38,-307.5 226.38,-343.5"/>
<text xml:space="preserve" text-anchor="middle" x="199.38" y="-320.45" font-family="Times New Roman,serif" font-size="14.00">&lt; 0?</text>
</g>
<!-- Array_in&#45;&gt;op_cond -->
<g id="edge1" class="edge">
<title>Array_in&#45;&gt;op_cond</title>
<path fill="none" stroke="black" d="M160.63,-396.32C167.32,-384.27 176.5,-367.73 184.24,-353.77"/>
<polygon fill="black" stroke="black" points="187.29,-355.48 189.09,-345.04 181.17,-352.09 187.29,-355.48"/>
</g>
<!-- op_ptotal_add -->
<g id="node10" class="node">
<title>op_ptotal_add</title>
<polygon fill="none" stroke="black" points="174.38,-255 120.38,-255 120.38,-219 174.38,-219 174.38,-255"/>
<text xml:space="preserve" text-anchor="middle" x="147.38" y="-231.95" font-family="Times New Roman,serif" font-size="14.00">+=</text>
</g>
<!-- Array_in&#45;&gt;op_ptotal_add -->
<g id="edge2" class="edge">
<title>Array_in&#45;&gt;op_ptotal_add</title>
<path fill="none" stroke="black" d="M150.98,-395.58C150.29,-365.44 148.87,-303.3 148.03,-266.7"/>
<polygon fill="black" stroke="black" points="151.53,-266.78 147.81,-256.86 144.54,-266.94 151.53,-266.78"/>
</g>
<!-- op_ntotal_add -->
<g id="node11" class="node">
<title>op_ntotal_add</title>
<polygon fill="none" stroke="black" points="268.38,-255 214.38,-255 214.38,-219 268.38,-219 268.38,-255"/>
<text xml:space="preserve" text-anchor="middle" x="241.38" y="-231.95" font-family="Times New Roman,serif" font-size="14.00">+=</text>
</g>
<!-- Array_in&#45;&gt;op_ntotal_add -->
<g id="edge3" class="edge">
<title>Array_in&#45;&gt;op_ntotal_add</title>
<path fill="none" stroke="black" d="M167.18,-398.03C178.59,-387.46 194.55,-373.15 209.38,-361.5 220.43,-352.82 227.96,-355.44 235.38,-343.5 249.66,-320.52 249.48,-289 246.75,-266.41"/>
<polygon fill="black" stroke="black" points="250.24,-266.08 245.33,-256.69 243.32,-267.09 250.24,-266.08"/>
</g>
<!-- MAXSIZE_in -->
<g id="node2" class="node">
<title>MAXSIZE_in</title>
<ellipse fill="lightblue" stroke="black" cx="52.38" cy="-648.5" rx="52.38" ry="18"/>
<text xml:space="preserve" text-anchor="middle" x="52.38" y="-643.45" font-family="Times New Roman,serif" font-size="14.00">MAXSIZE</text>
</g>
<!-- op_outer_cond -->
<g id="node4" class="node">
<title>op_outer_cond</title>
<polygon fill="none" stroke="black" points="179.38,-593.5 125.38,-593.5 125.38,-557.5 179.38,-557.5 179.38,-593.5"/>
<text xml:space="preserve" text-anchor="middle" x="152.38" y="-570.45" font-family="Times New Roman,serif" font-size="14.00">&lt;</text>
</g>
<!-- MAXSIZE_in&#45;&gt;op_outer_cond -->
<g id="edge4" class="edge">
<title>MAXSIZE_in&#45;&gt;op_outer_cond</title>
<path fill="none" stroke="black" d="M74.57,-631.74C87.5,-622.56 104.07,-610.79 118.6,-600.48"/>
<polygon fill="black" stroke="black" points="120.43,-603.48 126.55,-594.83 116.37,-597.77 120.43,-603.48"/>
</g>
<!-- op_inner_cond -->
<g id="node7" class="node">
<title>op_inner_cond</title>
<polygon fill="none" stroke="black" points="255.38,-432 201.38,-432 201.38,-396 255.38,-396 255.38,-432"/>
<text xml:space="preserve" text-anchor="middle" x="228.38" y="-408.95" font-family="Times New Roman,serif" font-size="14.00">&lt;</text>
</g>
<!-- MAXSIZE_in&#45;&gt;op_inner_cond -->
<g id="edge5" class="edge">
<title>MAXSIZE_in&#45;&gt;op_inner_cond</title>
<path fill="none" stroke="black" d="M52.43,-630.14C53.13,-605.26 56.79,-558.56 73.38,-523 86.7,-494.43 94.52,-488.39 119.38,-469 122.54,-466.53 160.41,-447.94 190.63,-433.25"/>
<polygon fill="black" stroke="black" points="192.1,-436.43 199.57,-428.91 189.05,-430.13 192.1,-436.43"/>
</g>
<!-- op_outer_init -->
<g id="node3" class="node">
<title>op_outer_init</title>
<polygon fill="none" stroke="black" points="179.38,-666.5 125.38,-666.5 125.38,-630.5 179.38,-630.5 179.38,-666.5"/>
<text xml:space="preserve" text-anchor="middle" x="152.38" y="-643.45" font-family="Times New Roman,serif" font-size="14.00">=</text>
</g>
<!-- op_outer_init&#45;&gt;op_outer_cond -->
<g id="edge6" class="edge">
<title>op_outer_init&#45;&gt;op_outer_cond</title>
<path fill="none" stroke="black" d="M152.38,-630.31C152.38,-622.73 152.38,-613.6 152.38,-605.04"/>
<polygon fill="black" stroke="black" points="155.88,-605.04 152.38,-595.04 148.88,-605.04 155.88,-605.04"/>
</g>
<!-- op_inner_init -->
<g id="node6" class="node">
<title>op_inner_init</title>
<polygon fill="none" stroke="black" points="182.38,-505 128.38,-505 128.38,-469 182.38,-469 182.38,-505"/>
<text xml:space="preserve" text-anchor="middle" x="155.38" y="-481.95" font-family="Times New Roman,serif" font-size="14.00">=</text>
</g>
<!-- op_outer_cond&#45;&gt;op_inner_init -->
<g id="edge7" class="edge">
<title>op_outer_cond&#45;&gt;op_inner_init</title>
<path fill="none" stroke="black" d="M152.97,-557.41C153.37,-545.76 153.92,-530.05 154.39,-516.52"/>
<polygon fill="black" stroke="black" points="157.87,-516.98 154.72,-506.86 150.88,-516.74 157.87,-516.98"/>
<text xml:space="preserve" text-anchor="middle" x="164.64" y="-526.2" font-family="Times New Roman,serif" font-size="14.00">true</text>
</g>
<!-- op_assign_ptotal -->
<g id="node14" class="node">
<title>op_assign_ptotal</title>
<polygon fill="none" stroke="black" points="146.38,-109 92.38,-109 92.38,-73 146.38,-73 146.38,-109"/>
<text xml:space="preserve" text-anchor="middle" x="119.38" y="-85.95" font-family="Times New Roman,serif" font-size="14.00">=</text>
</g>
<!-- op_outer_cond&#45;&gt;op_assign_ptotal -->
<g id="edge8" class="edge">
<title>op_outer_cond&#45;&gt;op_assign_ptotal</title>
<path fill="none" stroke="black" d="M128.54,-557.1C109.99,-541.36 87.38,-516.36 87.38,-488 87.38,-488 87.38,-488 87.38,-163 87.38,-147.53 93.77,-131.71 100.84,-118.94"/>
<polygon fill="black" stroke="black" points="103.63,-121.09 105.77,-110.71 97.62,-117.49 103.63,-121.09"/>
<text xml:space="preserve" text-anchor="middle" x="100.13" y="-320.45" font-family="Times New Roman,serif" font-size="14.00">false</text>
</g>
<!-- op_outer_inc -->
<g id="node5" class="node">
<title>op_outer_inc</title>
<polygon fill="none" stroke="black" points="338.38,-343.5 284.38,-343.5 284.38,-307.5 338.38,-307.5 338.38,-343.5"/>
<text xml:space="preserve" text-anchor="middle" x="311.38" y="-320.45" font-family="Times New Roman,serif" font-size="14.00">++</text>
</g>
<!-- op_outer_inc&#45;&gt;op_outer_cond -->
<g id="edge9" class="edge">
<title>op_outer_inc&#45;&gt;op_outer_cond</title>
<path fill="none" stroke="black" d="M311,-343.81C309.44,-377.98 301.71,-455.09 264.38,-505 245.51,-530.22 214.56,-548.41 189.97,-559.84"/>
<polygon fill="black" stroke="black" points="188.63,-556.6 180.91,-563.86 191.47,-563 188.63,-556.6"/>
</g>
<!-- op_inner_init&#45;&gt;op_inner_cond -->
<g id="edge10" class="edge">
<title>op_inner_init&#45;&gt;op_inner_cond</title>
<path fill="none" stroke="black" d="M173.05,-468.81C181.86,-460.24 192.69,-449.71 202.42,-440.24"/>
<polygon fill="black" stroke="black" points="204.8,-442.81 209.53,-433.33 199.92,-437.79 204.8,-442.81"/>
</g>
<!-- op_inner_cond&#45;&gt;op_outer_inc -->
<g id="edge12" class="edge">
<title>op_inner_cond&#45;&gt;op_outer_inc</title>
<path fill="none" stroke="black" d="M242.73,-395.93C251.49,-385.72 263.06,-372.62 273.88,-361.5 277,-358.29 280.34,-354.99 283.7,-351.76"/>
<polygon fill="black" stroke="black" points="285.99,-354.41 290.86,-345 281.18,-349.32 285.99,-354.41"/>
<text xml:space="preserve" text-anchor="middle" x="286.63" y="-364.7" font-family="Times New Roman,serif" font-size="14.00">false</text>
</g>
<!-- op_inner_cond&#45;&gt;op_cond -->
<g id="edge11" class="edge">
<title>op_inner_cond&#45;&gt;op_cond</title>
<path fill="none" stroke="black" d="M222.65,-395.91C218.7,-384.14 213.37,-368.23 208.8,-354.61"/>
<polygon fill="black" stroke="black" points="212.17,-353.65 205.67,-345.29 205.53,-355.88 212.17,-353.65"/>
<text xml:space="preserve" text-anchor="middle" x="226.97" y="-364.7" font-family="Times New Roman,serif" font-size="14.00">true</text>
</g>
<!-- op_inner_inc -->
<g id="node8" class="node">
<title>op_inner_inc</title>
<polygon fill="none" stroke="black" points="255.38,-505 201.38,-505 201.38,-469 255.38,-469 255.38,-505"/>
<text xml:space="preserve" text-anchor="middle" x="228.38" y="-481.95" font-family="Times New Roman,serif" font-size="14.00">++</text>
</g>
<!-- op_inner_inc&#45;&gt;op_inner_cond -->
<g id="edge13" class="edge">
<title>op_inner_inc&#45;&gt;op_inner_cond</title>
<path fill="none" stroke="black" d="M228.38,-468.81C228.38,-461.23 228.38,-452.1 228.38,-443.54"/>
<polygon fill="black" stroke="black" points="231.88,-443.54 228.38,-433.54 224.88,-443.54 231.88,-443.54"/>
</g>
<!-- op_cond&#45;&gt;op_ptotal_add -->
<g id="edge14" class="edge">
<title>op_cond&#45;&gt;op_ptotal_add</title>
<path fill="none" stroke="black" d="M189.1,-307.41C181.81,-295.29 171.88,-278.77 163.54,-264.89"/>
<polygon fill="black" stroke="black" points="166.74,-263.41 158.59,-256.65 160.74,-267.02 166.74,-263.41"/>
<text xml:space="preserve" text-anchor="middle" x="188.53" y="-276.2" font-family="Times New Roman,serif" font-size="14.00">true</text>
</g>
<!-- op_cond&#45;&gt;op_ntotal_add -->
<g id="edge15" class="edge">
<title>op_cond&#45;&gt;op_ntotal_add</title>
<path fill="none" stroke="black" d="M204.36,-307.36C207.62,-297.13 212.3,-284.02 217.88,-273 219.25,-270.28 220.8,-267.51 222.44,-264.79"/>
<polygon fill="black" stroke="black" points="225.26,-266.87 227.72,-256.56 219.37,-263.09 225.26,-266.87"/>
<text xml:space="preserve" text-anchor="middle" x="230.63" y="-276.2" font-family="Times New Roman,serif" font-size="14.00">false</text>
</g>
<!-- Ptotal_out -->
<g id="node18" class="node">
<title>Ptotal_out</title>
<ellipse fill="lightgreen" stroke="black" cx="147.38" cy="-164" rx="32.41" ry="18"/>
<text xml:space="preserve" text-anchor="middle" x="147.38" y="-158.95" font-family="Times New Roman,serif" font-size="14.00">Ptotal</text>
</g>
<!-- op_ptotal_add&#45;&gt;Ptotal_out -->
<g id="edge16" class="edge">
<title>op_ptotal_add&#45;&gt;Ptotal_out</title>
<path fill="none" stroke="black" d="M141.5,-218.81C140.69,-211.14 140.45,-201.89 140.75,-193.24"/>
<polygon fill="black" stroke="black" points="144.23,-193.75 141.41,-183.54 137.24,-193.28 144.23,-193.75"/>
</g>
<!-- Ntotal_out -->
<g id="node19" class="node">
<title>Ntotal_out</title>
<ellipse fill="lightgreen" stroke="black" cx="241.38" cy="-164" rx="33.95" ry="18"/>
<text xml:space="preserve" text-anchor="middle" x="241.38" y="-158.95" font-family="Times New Roman,serif" font-size="14.00">Ntotal</text>
</g>
<!-- op_ntotal_add&#45;&gt;Ntotal_out -->
<g id="edge17" class="edge">
<title>op_ntotal_add&#45;&gt;Ntotal_out</title>
<path fill="none" stroke="black" d="M235.5,-218.81C234.69,-211.14 234.45,-201.89 234.75,-193.24"/>
<polygon fill="black" stroke="black" points="238.23,-193.75 235.41,-183.54 231.24,-193.28 238.23,-193.75"/>
</g>
<!-- op_pcnt_inc -->
<g id="node12" class="node">
<title>op_pcnt_inc</title>
<polygon fill="none" stroke="black" points="403.38,-666.5 349.38,-666.5 349.38,-630.5 403.38,-630.5 403.38,-666.5"/>
<text xml:space="preserve" text-anchor="middle" x="376.38" y="-643.45" font-family="Times New Roman,serif" font-size="14.00">++</text>
</g>
<!-- Pcnt_out -->
<g id="node20" class="node">
<title>Pcnt_out</title>
<ellipse fill="lightgreen" stroke="black" cx="376.38" cy="-575.5" rx="27.3" ry="18"/>
<text xml:space="preserve" text-anchor="middle" x="376.38" y="-570.45" font-family="Times New Roman,serif" font-size="14.00">Pcnt</text>
</g>
<!-- op_pcnt_inc&#45;&gt;Pcnt_out -->
<g id="edge18" class="edge">
<title>op_pcnt_inc&#45;&gt;Pcnt_out</title>
<path fill="none" stroke="black" d="M370.5,-630.31C369.69,-622.64 369.45,-613.39 369.75,-604.74"/>
<polygon fill="black" stroke="black" points="373.23,-605.25 370.41,-595.04 366.24,-604.78 373.23,-605.25"/>
</g>
<!-- op_ncnt_inc -->
<g id="node13" class="node">
<title>op_ncnt_inc</title>
<polygon fill="none" stroke="black" points="494.38,-666.5 440.38,-666.5 440.38,-630.5 494.38,-630.5 494.38,-666.5"/>
<text xml:space="preserve" text-anchor="middle" x="467.38" y="-643.45" font-family="Times New Roman,serif" font-size="14.00">++</text>
</g>
<!-- Ncnt_out -->
<g id="node21" class="node">
<title>Ncnt_out</title>
<ellipse fill="lightgreen" stroke="black" cx="467.38" cy="-575.5" rx="28.83" ry="18"/>
<text xml:space="preserve" text-anchor="middle" x="467.38" y="-570.45" font-family="Times New Roman,serif" font-size="14.00">Ncnt</text>
</g>
<!-- op_ncnt_inc&#45;&gt;Ncnt_out -->
<g id="edge19" class="edge">
<title>op_ncnt_inc&#45;&gt;Ncnt_out</title>
<path fill="none" stroke="black" d="M461.5,-630.31C460.69,-622.64 460.45,-613.39 460.75,-604.74"/>
<polygon fill="black" stroke="black" points="464.23,-605.25 461.41,-595.04 457.24,-604.78 464.23,-605.25"/>
</g>
<!-- Postotal_out -->
<g id="node22" class="node">
<title>Postotal_out</title>
<ellipse fill="lightgreen" stroke="black" cx="119.38" cy="-18" rx="40.6" ry="18"/>
<text xml:space="preserve" text-anchor="middle" x="119.38" y="-12.95" font-family="Times New Roman,serif" font-size="14.00">Postotal</text>
</g>
<!-- op_assign_ptotal&#45;&gt;Postotal_out -->
<g id="edge25" class="edge">
<title>op_assign_ptotal&#45;&gt;Postotal_out</title>
<path fill="none" stroke="black" d="M119.38,-72.81C119.38,-65.23 119.38,-56.1 119.38,-47.54"/>
<polygon fill="black" stroke="black" points="122.88,-47.54 119.38,-37.54 115.88,-47.54 122.88,-47.54"/>
</g>
<!-- op_assign_ntotal -->
<g id="node15" class="node">
<title>op_assign_ntotal</title>
<polygon fill="none" stroke="black" points="268.38,-109 214.38,-109 214.38,-73 268.38,-73 268.38,-109"/>
<text xml:space="preserve" text-anchor="middle" x="241.38" y="-85.95" font-family="Times New Roman,serif" font-size="14.00">=</text>
</g>
<!-- Negtotal_out -->
<g id="node23" class="node">
<title>Negtotal_out</title>
<ellipse fill="lightgreen" stroke="black" cx="241.38" cy="-18" rx="42.65" ry="18"/>
<text xml:space="preserve" text-anchor="middle" x="241.38" y="-12.95" font-family="Times New Roman,serif" font-size="14.00">Negtotal</text>
</g>
<!-- op_assign_ntotal&#45;&gt;Negtotal_out -->
<g id="edge27" class="edge">
<title>op_assign_ntotal&#45;&gt;Negtotal_out</title>
<path fill="none" stroke="black" d="M241.38,-72.81C241.38,-65.23 241.38,-56.1 241.38,-47.54"/>
<polygon fill="black" stroke="black" points="244.88,-47.54 241.38,-37.54 237.88,-47.54 244.88,-47.54"/>
</g>
<!-- op_assign_pcnt -->
<g id="node16" class="node">
<title>op_assign_pcnt</title>
<polygon fill="none" stroke="black" points="403.38,-505 349.38,-505 349.38,-469 403.38,-469 403.38,-505"/>
<text xml:space="preserve" text-anchor="middle" x="376.38" y="-481.95" font-family="Times New Roman,serif" font-size="14.00">=</text>
</g>
<!-- Poscnt_out -->
<g id="node24" class="node">
<title>Poscnt_out</title>
<ellipse fill="lightgreen" stroke="black" cx="376.38" cy="-414" rx="35.49" ry="18"/>
<text xml:space="preserve" text-anchor="middle" x="376.38" y="-408.95" font-family="Times New Roman,serif" font-size="14.00">Poscnt</text>
</g>
<!-- op_assign_pcnt&#45;&gt;Poscnt_out -->
<g id="edge29" class="edge">
<title>op_assign_pcnt&#45;&gt;Poscnt_out</title>
<path fill="none" stroke="black" d="M376.38,-468.81C376.38,-461.23 376.38,-452.1 376.38,-443.54"/>
<polygon fill="black" stroke="black" points="379.88,-443.54 376.38,-433.54 372.88,-443.54 379.88,-443.54"/>
</g>
<!-- op_assign_ncnt -->
<g id="node17" class="node">
<title>op_assign_ncnt</title>
<polygon fill="none" stroke="black" points="494.38,-505 440.38,-505 440.38,-469 494.38,-469 494.38,-505"/>
<text xml:space="preserve" text-anchor="middle" x="467.38" y="-481.95" font-family="Times New Roman,serif" font-size="14.00">=</text>
</g>
<!-- Negcnt_out -->
<g id="node25" class="node">
<title>Negcnt_out</title>
<ellipse fill="lightgreen" stroke="black" cx="467.38" cy="-414" rx="37.53" ry="18"/>
<text xml:space="preserve" text-anchor="middle" x="467.38" y="-408.95" font-family="Times New Roman,serif" font-size="14.00">Negcnt</text>
</g>
<!-- op_assign_ncnt&#45;&gt;Negcnt_out -->
<g id="edge31" class="edge">
<title>op_assign_ncnt&#45;&gt;Negcnt_out</title>
<path fill="none" stroke="black" d="M467.38,-468.81C467.38,-461.23 467.38,-452.1 467.38,-443.54"/>
<polygon fill="black" stroke="black" points="470.88,-443.54 467.38,-433.54 463.88,-443.54 470.88,-443.54"/>
</g>
<!-- Ptotal_out&#45;&gt;op_ptotal_add -->
<g id="edge20" class="edge">
<title>Ptotal_out&#45;&gt;op_ptotal_add</title>
<path fill="none" stroke="black" stroke-dasharray="5,2" d="M153.24,-182.03C154.05,-189.68 154.3,-198.92 154,-207.58"/>
<polygon fill="black" stroke="black" points="150.53,-207.09 153.35,-217.3 157.51,-207.56 150.53,-207.09"/>
</g>
<!-- Ptotal_out&#45;&gt;op_assign_ptotal -->
<g id="edge24" class="edge">
<title>Ptotal_out&#45;&gt;op_assign_ptotal</title>
<path fill="none" stroke="black" d="M140.74,-146.17C137.67,-138.39 133.94,-128.93 130.46,-120.11"/>
<polygon fill="black" stroke="black" points="133.74,-118.87 126.81,-110.85 127.22,-121.44 133.74,-118.87"/>
</g>
<!-- Ntotal_out&#45;&gt;op_ntotal_add -->
<g id="edge21" class="edge">
<title>Ntotal_out&#45;&gt;op_ntotal_add</title>
<path fill="none" stroke="black" stroke-dasharray="5,2" d="M247.24,-182.03C248.05,-189.68 248.3,-198.92 248,-207.58"/>
<polygon fill="black" stroke="black" points="244.53,-207.09 247.35,-217.3 251.51,-207.56 244.53,-207.09"/>
</g>
<!-- Ntotal_out&#45;&gt;op_assign_ntotal -->
<g id="edge26" class="edge">
<title>Ntotal_out&#45;&gt;op_assign_ntotal</title>
<path fill="none" stroke="black" d="M241.38,-145.81C241.38,-138.23 241.38,-129.1 241.38,-120.54"/>
<polygon fill="black" stroke="black" points="244.88,-120.54 241.38,-110.54 237.88,-120.54 244.88,-120.54"/>
</g>
<!-- Pcnt_out&#45;&gt;op_pcnt_inc -->
<g id="edge22" class="edge">
<title>Pcnt_out&#45;&gt;op_pcnt_inc</title>
<path fill="none" stroke="black" stroke-dasharray="5,2" d="M382.24,-593.53C383.05,-601.18 383.3,-610.42 383,-619.08"/>
<polygon fill="black" stroke="black" points="379.53,-618.59 382.35,-628.8 386.51,-619.06 379.53,-618.59"/>
</g>
<!-- Pcnt_out&#45;&gt;op_assign_pcnt -->
<g id="edge28" class="edge">
<title>Pcnt_out&#45;&gt;op_assign_pcnt</title>
<path fill="none" stroke="black" d="M376.38,-557.41C376.38,-545.76 376.38,-530.05 376.38,-516.52"/>
<polygon fill="black" stroke="black" points="379.88,-516.86 376.38,-506.86 372.88,-516.86 379.88,-516.86"/>
</g>
<!-- Ncnt_out&#45;&gt;op_ncnt_inc -->
<g id="edge23" class="edge">
<title>Ncnt_out&#45;&gt;op_ncnt_inc</title>
<path fill="none" stroke="black" stroke-dasharray="5,2" d="M473.24,-593.53C474.05,-601.18 474.3,-610.42 474,-619.08"/>
<polygon fill="black" stroke="black" points="470.53,-618.59 473.35,-628.8 477.51,-619.06 470.53,-618.59"/>
</g>
<!-- Ncnt_out&#45;&gt;op_assign_ncnt -->
<g id="edge30" class="edge">
<title>Ncnt_out&#45;&gt;op_assign_ncnt</title>
<path fill="none" stroke="black" d="M467.38,-557.41C467.38,-545.76 467.38,-530.05 467.38,-516.52"/>
<polygon fill="black" stroke="black" points="470.88,-516.86 467.38,-506.86 463.88,-516.86 470.88,-516.86"/>
</g>
</g>
</svg>
