<?xml version="1.0" encoding="UTF-8" standalone="no"?>
<!DOCTYPE svg PUBLIC "-//W3C//DTD SVG 1.1//EN"
 "http://www.w3.org/Graphics/SVG/1.1/DTD/svg11.dtd">
<!-- Generated by graphviz version 13.1.2 (20250808.2320)
 -->
<!-- Title: InitSeed Pages: 1 -->
<svg width="138pt" height="208pt"
 viewBox="0.00 0.00 138.00 208.00" xmlns="http://www.w3.org/2000/svg" xmlns:xlink="http://www.w3.org/1999/xlink">
<g id="graph0" class="graph" transform="scale(1 1) rotate(0) translate(4 203.86)">
<title>InitSeed</title>
<polygon fill="white" stroke="none" points="-4,4 -4,-203.86 134.07,-203.86 134.07,4 -4,4"/>
<!-- start -->
<g id="node1" class="node">
<title>start</title>
<ellipse fill="none" stroke="black" cx="65.04" cy="-181.86" rx="65.04" ry="18"/>
<text xml:space="preserve" text-anchor="middle" x="65.04" y="-176.44" font-family="Arial" font-size="14.00">InitSeed Start</text>
</g>
<!-- node1 -->
<g id="node2" class="node">
<title>node1</title>
<polygon fill="none" stroke="black" points="100.41,-127.86 29.66,-127.86 29.66,-91.86 100.41,-91.86 100.41,-127.86"/>
<text xml:space="preserve" text-anchor="middle" x="65.04" y="-104.44" font-family="Arial" font-size="14.00">Seed = 0</text>
</g>
<!-- start&#45;&gt;node1 -->
<g id="edge1" class="edge">
<title>start&#45;&gt;node1</title>
<path fill="none" stroke="black" d="M65.04,-163.56C65.04,-156.27 65.04,-147.59 65.04,-139.4"/>
<polygon fill="black" stroke="black" points="68.54,-139.48 65.04,-129.48 61.54,-139.48 68.54,-139.48"/>
</g>
<!-- end -->
<g id="node3" class="node">
<title>end</title>
<ellipse fill="none" stroke="black" cx="65.04" cy="-27.93" rx="46.85" ry="27.93"/>
<text xml:space="preserve" text-anchor="middle" x="65.04" y="-30.38" font-family="Arial" font-size="14.00">return 0;</text>
<text xml:space="preserve" text-anchor="middle" x="65.04" y="-14.63" font-family="Arial" font-size="14.00">End</text>
</g>
<!-- node1&#45;&gt;end -->
<g id="edge2" class="edge">
<title>node1&#45;&gt;end</title>
<path fill="none" stroke="black" d="M65.04,-91.52C65.04,-84.45 65.04,-75.97 65.04,-67.57"/>
<polygon fill="black" stroke="black" points="68.54,-67.81 65.04,-57.81 61.54,-67.81 68.54,-67.81"/>
</g>
</g>
</svg>
