<?xml version="1.0" encoding="UTF-8" standalone="no"?>
<!DOCTYPE svg PUBLIC "-//W3C//DTD SVG 1.1//EN"
 "http://www.w3.org/Graphics/SVG/1.1/DTD/svg11.dtd">
<!-- Generated by graphviz version 13.1.2 (20250808.2320)
 -->
<!-- Title: Initialize Pages: 1 -->
<svg width="649pt" height="551pt"
 viewBox="0.00 0.00 649.00 551.00" xmlns="http://www.w3.org/2000/svg" xmlns:xlink="http://www.w3.org/1999/xlink">
<g id="graph0" class="graph" transform="scale(1 1) rotate(0) translate(4 547.22)">
<title>Initialize</title>
<polygon fill="white" stroke="none" points="-4,4 -4,-547.22 645.34,-547.22 645.34,4 -4,4"/>
<!-- start -->
<g id="node1" class="node">
<title>start</title>
<ellipse fill="none" stroke="black" cx="491.5" cy="-515.29" rx="103.59" ry="27.93"/>
<text xml:space="preserve" text-anchor="middle" x="491.5" y="-517.74" font-family="Arial" font-size="14.00">Start</text>
<text xml:space="preserve" text-anchor="middle" x="491.5" y="-501.99" font-family="Arial" font-size="14.00">Initialize(matrix Array)</text>
</g>
<!-- outer_init -->
<g id="node3" class="node">
<title>outer_init</title>
<polygon fill="none" stroke="black" points="544.88,-450.36 438.12,-450.36 438.12,-414.36 544.88,-414.36 544.88,-450.36"/>
<text xml:space="preserve" text-anchor="middle" x="491.5" y="-426.94" font-family="Arial" font-size="14.00">OuterIndex = 0</text>
</g>
<!-- start&#45;&gt;outer_init -->
<g id="edge1" class="edge">
<title>start&#45;&gt;outer_init</title>
<path fill="none" stroke="black" d="M491.5,-486.89C491.5,-478.98 491.5,-470.31 491.5,-462.3"/>
<polygon fill="black" stroke="black" points="495,-462.35 491.5,-452.35 488,-462.35 495,-462.35"/>
</g>
<!-- end -->
<g id="node2" class="node">
<title>end</title>
<ellipse fill="none" stroke="black" cx="563.5" cy="-188.68" rx="44.19" ry="27.93"/>
<text xml:space="preserve" text-anchor="middle" x="563.5" y="-191.13" font-family="Arial" font-size="14.00">End</text>
<text xml:space="preserve" text-anchor="middle" x="563.5" y="-175.38" font-family="Arial" font-size="14.00">return 0</text>
</g>
<!-- outer_cond -->
<g id="node4" class="node">
<title>outer_cond</title>
<polygon fill="none" stroke="black" points="491.5,-377.36 341.66,-359.36 491.5,-341.36 641.34,-359.36 491.5,-377.36"/>
<text xml:space="preserve" text-anchor="middle" x="491.5" y="-353.94" font-family="Arial" font-size="14.00">OuterIndex &lt; MAXSIZE</text>
</g>
<!-- outer_init&#45;&gt;outer_cond -->
<g id="edge2" class="edge">
<title>outer_init&#45;&gt;outer_cond</title>
<path fill="none" stroke="black" d="M491.5,-414.17C491.5,-406.59 491.5,-397.46 491.5,-388.9"/>
<polygon fill="black" stroke="black" points="495,-388.9 491.5,-378.9 488,-388.9 495,-388.9"/>
</g>
<!-- inner_init -->
<g id="node5" class="node">
<title>inner_init</title>
<polygon fill="none" stroke="black" points="440,-289.61 337,-289.61 337,-253.61 440,-253.61 440,-289.61"/>
<text xml:space="preserve" text-anchor="middle" x="388.5" y="-266.19" font-family="Arial" font-size="14.00">InnerIndex = 0</text>
</g>
<!-- outer_cond&#45;&gt;inner_init -->
<g id="edge3" class="edge">
<title>outer_cond&#45;&gt;inner_init</title>
<path fill="none" stroke="black" d="M473.56,-343.42C458.2,-330.64 435.8,-311.99 417.84,-297.04"/>
<polygon fill="black" stroke="black" points="420.52,-294.71 410.59,-291 416.04,-300.09 420.52,-294.71"/>
<text xml:space="preserve" text-anchor="middle" x="463.1" y="-310.06" font-family="Arial" font-size="14.00">True</text>
</g>
<!-- return -->
<g id="node10" class="node">
<title>return</title>
<polygon fill="none" stroke="black" points="588.75,-289.61 526.25,-289.61 526.25,-253.61 588.75,-253.61 588.75,-289.61"/>
<text xml:space="preserve" text-anchor="middle" x="557.5" y="-266.19" font-family="Arial" font-size="14.00">return 0</text>
</g>
<!-- outer_cond&#45;&gt;return -->
<g id="edge4" class="edge">
<title>outer_cond&#45;&gt;return</title>
<path fill="none" stroke="black" d="M503.61,-342.63C513.01,-330.42 526.25,-313.21 537.26,-298.91"/>
<polygon fill="black" stroke="black" points="539.86,-301.27 543.19,-291.21 534.31,-297 539.86,-301.27"/>
<text xml:space="preserve" text-anchor="middle" x="546.91" y="-310.06" font-family="Arial" font-size="14.00">False</text>
</g>
<!-- inner_cond -->
<g id="node6" class="node">
<title>inner_cond</title>
<polygon fill="none" stroke="black" points="317.5,-206.68 171.19,-188.68 317.5,-170.68 463.81,-188.68 317.5,-206.68"/>
<text xml:space="preserve" text-anchor="middle" x="317.5" y="-183.26" font-family="Arial" font-size="14.00">InnerIndex &lt; MAXSIZE</text>
</g>
<!-- inner_init&#45;&gt;inner_cond -->
<g id="edge5" class="edge">
<title>inner_init&#45;&gt;inner_cond</title>
<path fill="none" stroke="black" d="M373.44,-253.45C363.32,-241.91 349.84,-226.54 338.65,-213.78"/>
<polygon fill="black" stroke="black" points="341.56,-211.79 332.33,-206.58 336.29,-216.41 341.56,-211.79"/>
</g>
<!-- assign -->
<g id="node7" class="node">
<title>assign</title>
<polygon fill="none" stroke="black" points="313,-109 0,-109 0,-73 313,-73 313,-109"/>
<text xml:space="preserve" text-anchor="middle" x="156.5" y="-85.58" font-family="Arial" font-size="14.00">Array[OuterIndex][InnerIndex] = RandomInteger()</text>
</g>
<!-- inner_cond&#45;&gt;assign -->
<g id="edge6" class="edge">
<title>inner_cond&#45;&gt;assign</title>
<path fill="none" stroke="black" d="M293.4,-173.36C267.55,-157.99 226.1,-133.36 195.58,-115.22"/>
<polygon fill="black" stroke="black" points="197.37,-112.22 186.99,-110.12 193.79,-118.24 197.37,-112.22"/>
<text xml:space="preserve" text-anchor="middle" x="255.7" y="-129.45" font-family="Arial" font-size="14.00">True</text>
</g>
<!-- outer_inc -->
<g id="node9" class="node">
<title>outer_inc</title>
<polygon fill="none" stroke="black" points="506.5,-109 406.5,-109 406.5,-73 506.5,-73 506.5,-109"/>
<text xml:space="preserve" text-anchor="middle" x="456.5" y="-85.58" font-family="Arial" font-size="14.00">OuterIndex++</text>
</g>
<!-- inner_cond&#45;&gt;outer_inc -->
<g id="edge7" class="edge">
<title>inner_cond&#45;&gt;outer_inc</title>
<path fill="none" stroke="black" d="M338.91,-172.94C361.16,-157.63 396.3,-133.44 422.38,-115.49"/>
<polygon fill="black" stroke="black" points="424.03,-118.6 430.29,-110.04 420.07,-112.83 424.03,-118.6"/>
<text xml:space="preserve" text-anchor="middle" x="420.04" y="-129.45" font-family="Arial" font-size="14.00">False</text>
</g>
<!-- inner_inc -->
<g id="node8" class="node">
<title>inner_inc</title>
<polygon fill="none" stroke="black" points="296.62,-36 200.38,-36 200.38,0 296.62,0 296.62,-36"/>
<text xml:space="preserve" text-anchor="middle" x="248.5" y="-12.57" font-family="Arial" font-size="14.00">InnerIndex++</text>
</g>
<!-- assign&#45;&gt;inner_inc -->
<g id="edge8" class="edge">
<title>assign&#45;&gt;inner_inc</title>
<path fill="none" stroke="black" d="M178.77,-72.81C190.32,-63.9 204.63,-52.86 217.27,-43.1"/>
<polygon fill="black" stroke="black" points="219.14,-46.08 224.92,-37.2 214.86,-40.54 219.14,-46.08"/>
</g>
<!-- inner_inc&#45;&gt;inner_cond -->
<g id="edge9" class="edge">
<title>inner_inc&#45;&gt;inner_cond</title>
<path fill="none" stroke="black" d="M284.65,-36.31C298.85,-45.15 313.62,-57.37 321.5,-73 335.22,-100.21 331.11,-135.85 325.59,-160.13"/>
<polygon fill="black" stroke="black" points="322.26,-159.03 323.2,-169.58 329.04,-160.74 322.26,-159.03"/>
</g>
<!-- outer_inc&#45;&gt;outer_cond -->
<g id="edge10" class="edge">
<title>outer_inc&#45;&gt;outer_cond</title>
<path fill="none" stroke="black" d="M461.22,-109.39C464.81,-123.21 469.61,-143.09 472.5,-160.75 482.27,-220.44 487.58,-291.17 489.94,-329.74"/>
<polygon fill="black" stroke="black" points="486.44,-329.79 490.52,-339.57 493.43,-329.38 486.44,-329.79"/>
</g>
<!-- return&#45;&gt;end -->
<g id="edge11" class="edge">
<title>return&#45;&gt;end</title>
<path fill="none" stroke="black" d="M558.77,-253.45C559.32,-246.09 559.98,-237.18 560.63,-228.38"/>
<polygon fill="black" stroke="black" points="564.11,-228.75 561.36,-218.52 557.13,-228.23 564.11,-228.75"/>
</g>
</g>
</svg>
