<?xml version="1.0" encoding="UTF-8" standalone="no"?>
<!DOCTYPE svg PUBLIC "-//W3C//DTD SVG 1.1//EN"
 "http://www.w3.org/Graphics/SVG/1.1/DTD/svg11.dtd">
<!-- Generated by graphviz version 13.1.2 (20250808.2320)
 -->
<!-- Title: Sum Pages: 1 -->
<svg width="701pt" height="746pt"
 viewBox="0.00 0.00 701.00 746.00" xmlns="http://www.w3.org/2000/svg" xmlns:xlink="http://www.w3.org/1999/xlink">
<g id="graph0" class="graph" transform="scale(1 1) rotate(0) translate(4 741.75)">
<title>Sum</title>
<polygon fill="white" stroke="none" points="-4,4 -4,-741.75 696.75,-741.75 696.75,4 -4,4"/>
<!-- start -->
<g id="node1" class="node">
<title>start</title>
<ellipse fill="none" stroke="black" cx="547.12" cy="-719.75" rx="84" ry="18"/>
<text xml:space="preserve" text-anchor="middle" x="547.12" y="-714.33" font-family="Arial" font-size="14.00">Sum(matrix Array)</text>
</g>
<!-- init_vars -->
<g id="node3" class="node">
<title>init_vars</title>
<polygon fill="none" stroke="black" points="584.38,-664.75 509.88,-664.75 509.88,-593.75 584.38,-593.75 584.38,-664.75"/>
<text xml:space="preserve" text-anchor="middle" x="547.12" y="-647.45" font-family="Arial" font-size="14.00">Ptotal = 0</text>
<text xml:space="preserve" text-anchor="middle" x="547.12" y="-631.7" font-family="Arial" font-size="14.00">Ntotal = 0</text>
<text xml:space="preserve" text-anchor="middle" x="547.12" y="-615.95" font-family="Arial" font-size="14.00">Pcnt = 0</text>
<text xml:space="preserve" text-anchor="middle" x="547.12" y="-600.2" font-family="Arial" font-size="14.00">Ncnt = 0</text>
</g>
<!-- start&#45;&gt;init_vars -->
<g id="edge1" class="edge">
<title>start&#45;&gt;init_vars</title>
<path fill="none" stroke="black" d="M547.12,-701.27C547.12,-693.97 547.12,-685.12 547.12,-676.17"/>
<polygon fill="black" stroke="black" points="550.63,-676.42 547.13,-666.42 543.63,-676.42 550.63,-676.42"/>
</g>
<!-- end -->
<g id="node2" class="node">
<title>end</title>
<ellipse fill="none" stroke="black" cx="634.12" cy="-270" rx="27" ry="18"/>
<text xml:space="preserve" text-anchor="middle" x="634.12" y="-264.57" font-family="Arial" font-size="14.00">End</text>
</g>
<!-- outer_loop_init -->
<g id="node4" class="node">
<title>outer_loop_init</title>
<polygon fill="none" stroke="black" points="584,-556.75 510.25,-556.75 510.25,-520.75 584,-520.75 584,-556.75"/>
<text xml:space="preserve" text-anchor="middle" x="547.12" y="-533.33" font-family="Arial" font-size="14.00">Outer = 0</text>
</g>
<!-- init_vars&#45;&gt;outer_loop_init -->
<g id="edge2" class="edge">
<title>init_vars&#45;&gt;outer_loop_init</title>
<path fill="none" stroke="black" d="M547.12,-593.27C547.12,-585.06 547.12,-576.4 547.12,-568.49"/>
<polygon fill="black" stroke="black" points="550.63,-568.75 547.13,-558.75 543.63,-568.75 550.63,-568.75"/>
</g>
<!-- outer_cond -->
<g id="node5" class="node">
<title>outer_cond</title>
<polygon fill="none" stroke="black" points="547.12,-483.75 428.33,-465.75 547.12,-447.75 665.92,-465.75 547.12,-483.75"/>
<text xml:space="preserve" text-anchor="middle" x="547.12" y="-460.32" font-family="Arial" font-size="14.00">Outer &lt; MAXSIZE</text>
</g>
<!-- outer_loop_init&#45;&gt;outer_cond -->
<g id="edge3" class="edge">
<title>outer_loop_init&#45;&gt;outer_cond</title>
<path fill="none" stroke="black" d="M547.12,-520.56C547.12,-512.98 547.12,-503.85 547.12,-495.29"/>
<polygon fill="black" stroke="black" points="550.63,-495.29 547.13,-485.29 543.63,-495.29 550.63,-495.29"/>
</g>
<!-- inner_loop_init -->
<g id="node6" class="node">
<title>inner_loop_init</title>
<polygon fill="none" stroke="black" points="499.12,-378.5 429.12,-378.5 429.12,-342.5 499.12,-342.5 499.12,-378.5"/>
<text xml:space="preserve" text-anchor="middle" x="464.12" y="-355.07" font-family="Arial" font-size="14.00">Inner = 0</text>
</g>
<!-- outer_cond&#45;&gt;inner_loop_init -->
<g id="edge4" class="edge">
<title>outer_cond&#45;&gt;inner_loop_init</title>
<path fill="none" stroke="black" d="M527.22,-450.29C519.87,-444.4 511.77,-437.22 505.38,-429.75 494.71,-417.31 485.09,-401.78 477.83,-388.68"/>
<polygon fill="black" stroke="black" points="481.06,-387.3 473.25,-380.14 474.89,-390.6 481.06,-387.3"/>
<text xml:space="preserve" text-anchor="middle" x="519.25" y="-416.45" font-family="Arial" font-size="14.00">True</text>
</g>
<!-- assign_results -->
<g id="node13" class="node">
<title>assign_results</title>
<polygon fill="none" stroke="black" points="692.75,-396 575.5,-396 575.5,-325 692.75,-325 692.75,-396"/>
<text xml:space="preserve" text-anchor="middle" x="634.12" y="-378.7" font-family="Arial" font-size="14.00">Postotal = Ptotal</text>
<text xml:space="preserve" text-anchor="middle" x="634.12" y="-362.95" font-family="Arial" font-size="14.00">Poscnt = Pcnt</text>
<text xml:space="preserve" text-anchor="middle" x="634.12" y="-347.2" font-family="Arial" font-size="14.00">Negtotal = Ntotal</text>
<text xml:space="preserve" text-anchor="middle" x="634.12" y="-331.45" font-family="Arial" font-size="14.00">Negcnt = Ncnt</text>
</g>
<!-- outer_cond&#45;&gt;assign_results -->
<g id="edge5" class="edge">
<title>outer_cond&#45;&gt;assign_results</title>
<path fill="none" stroke="black" d="M559.96,-449.52C569.85,-437.78 584.05,-420.93 597.37,-405.12"/>
<polygon fill="black" stroke="black" points="599.91,-407.53 603.68,-397.63 594.56,-403.02 599.91,-407.53"/>
<text xml:space="preserve" text-anchor="middle" x="604.52" y="-416.45" font-family="Arial" font-size="14.00">False</text>
</g>
<!-- inner_cond -->
<g id="node7" class="node">
<title>inner_cond</title>
<polygon fill="none" stroke="black" points="404.12,-288 288.86,-270 404.12,-252 519.39,-270 404.12,-288"/>
<text xml:space="preserve" text-anchor="middle" x="404.12" y="-264.57" font-family="Arial" font-size="14.00">Inner &lt; MAXSIZE</text>
</g>
<!-- inner_loop_init&#45;&gt;inner_cond -->
<g id="edge6" class="edge">
<title>inner_loop_init&#45;&gt;inner_cond</title>
<path fill="none" stroke="black" d="M452.27,-342.02C443.39,-328.92 431.11,-310.81 421.18,-296.16"/>
<polygon fill="black" stroke="black" points="424.11,-294.23 415.6,-287.92 418.31,-298.16 424.11,-294.23"/>
</g>
<!-- array_check -->
<g id="node8" class="node">
<title>array_check</title>
<polygon fill="none" stroke="black" points="249.12,-200.25 106.34,-182.25 249.12,-164.25 391.91,-182.25 249.12,-200.25"/>
<text xml:space="preserve" text-anchor="middle" x="249.12" y="-176.82" font-family="Arial" font-size="14.00">Array[Outer][Inner] &lt; 0</text>
</g>
<!-- inner_cond&#45;&gt;array_check -->
<g id="edge7" class="edge">
<title>inner_cond&#45;&gt;array_check</title>
<path fill="none" stroke="black" d="M379.56,-255.41C353.98,-241.26 313.66,-218.95 284.62,-202.89"/>
<polygon fill="black" stroke="black" points="286.63,-200 276.19,-198.22 283.24,-206.12 286.63,-200"/>
<text xml:space="preserve" text-anchor="middle" x="354.38" y="-220.7" font-family="Arial" font-size="14.00">True</text>
</g>
<!-- outer_increment -->
<g id="node12" class="node">
<title>outer_increment</title>
<polygon fill="none" stroke="black" points="549.62,-200.25 482.62,-200.25 482.62,-164.25 549.62,-164.25 549.62,-200.25"/>
<text xml:space="preserve" text-anchor="middle" x="516.12" y="-176.82" font-family="Arial" font-size="14.00">Outer++</text>
</g>
<!-- inner_cond&#45;&gt;outer_increment -->
<g id="edge8" class="edge">
<title>inner_cond&#45;&gt;outer_increment</title>
<path fill="none" stroke="black" d="M422.87,-254.65C439.64,-241.81 464.58,-222.72 484.44,-207.51"/>
<polygon fill="black" stroke="black" points="486.43,-210.39 492.25,-201.53 482.18,-204.83 486.43,-210.39"/>
<text xml:space="preserve" text-anchor="middle" x="486.66" y="-220.7" font-family="Arial" font-size="14.00">False</text>
</g>
<!-- positive_case -->
<g id="node9" class="node">
<title>positive_case</title>
<polygon fill="none" stroke="black" points="186.25,-112.5 0,-112.5 0,-73 186.25,-73 186.25,-112.5"/>
<text xml:space="preserve" text-anchor="middle" x="93.12" y="-95.2" font-family="Arial" font-size="14.00">Ptotal += Array[Outer][Inner]</text>
<text xml:space="preserve" text-anchor="middle" x="93.12" y="-79.45" font-family="Arial" font-size="14.00">Pcnt++</text>
</g>
<!-- array_check&#45;&gt;positive_case -->
<g id="edge10" class="edge">
<title>array_check&#45;&gt;positive_case</title>
<path fill="none" stroke="black" d="M223.71,-167C200.34,-153.89 165.17,-134.16 137.21,-118.48"/>
<polygon fill="black" stroke="black" points="139.03,-115.48 128.6,-113.65 135.61,-121.59 139.03,-115.48"/>
<text xml:space="preserve" text-anchor="middle" x="201.6" y="-132.95" font-family="Arial" font-size="14.00">False</text>
</g>
<!-- negative_case -->
<g id="node10" class="node">
<title>negative_case</title>
<polygon fill="none" stroke="black" points="391.62,-112.5 204.62,-112.5 204.62,-73 391.62,-73 391.62,-112.5"/>
<text xml:space="preserve" text-anchor="middle" x="298.12" y="-95.2" font-family="Arial" font-size="14.00">Ntotal += Array[Outer][Inner]</text>
<text xml:space="preserve" text-anchor="middle" x="298.12" y="-79.45" font-family="Arial" font-size="14.00">Ncnt++</text>
</g>
<!-- array_check&#45;&gt;negative_case -->
<g id="edge9" class="edge">
<title>array_check&#45;&gt;negative_case</title>
<path fill="none" stroke="black" d="M258.11,-165.2C264.78,-153.29 274.06,-136.73 282,-122.55"/>
<polygon fill="black" stroke="black" points="284.92,-124.5 286.75,-114.06 278.81,-121.08 284.92,-124.5"/>
<text xml:space="preserve" text-anchor="middle" x="290.43" y="-132.95" font-family="Arial" font-size="14.00">True</text>
</g>
<!-- inner_increment -->
<g id="node11" class="node">
<title>inner_increment</title>
<polygon fill="none" stroke="black" points="329.75,-36 266.5,-36 266.5,0 329.75,0 329.75,-36"/>
<text xml:space="preserve" text-anchor="middle" x="298.12" y="-12.57" font-family="Arial" font-size="14.00">Inner++</text>
</g>
<!-- positive_case&#45;&gt;inner_increment -->
<g id="edge11" class="edge">
<title>positive_case&#45;&gt;inner_increment</title>
<path fill="none" stroke="black" d="M147.25,-72.54C181.1,-60.53 224.09,-45.27 255.51,-34.12"/>
<polygon fill="black" stroke="black" points="256.42,-37.51 264.68,-30.87 254.08,-30.92 256.42,-37.51"/>
</g>
<!-- negative_case&#45;&gt;inner_increment -->
<g id="edge12" class="edge">
<title>negative_case&#45;&gt;inner_increment</title>
<path fill="none" stroke="black" d="M298.12,-72.64C298.12,-64.97 298.12,-55.97 298.12,-47.55"/>
<polygon fill="black" stroke="black" points="301.63,-47.76 298.13,-37.76 294.63,-47.76 301.63,-47.76"/>
</g>
<!-- inner_increment&#45;&gt;inner_cond -->
<g id="edge13" class="edge">
<title>inner_increment&#45;&gt;inner_cond</title>
<path fill="none" stroke="black" d="M329.94,-26.55C353.76,-34.03 384.78,-48.09 400.12,-73 432.31,-125.24 421.15,-201.1 411.73,-241.41"/>
<polygon fill="black" stroke="black" points="408.36,-240.47 409.34,-251.01 415.15,-242.16 408.36,-240.47"/>
</g>
<!-- outer_increment&#45;&gt;outer_cond -->
<g id="edge14" class="edge">
<title>outer_increment&#45;&gt;outer_cond</title>
<path fill="none" stroke="black" d="M519.59,-200.71C522.24,-214.57 525.82,-234.46 528.12,-252 536.77,-317.64 542.6,-395.2 545.33,-436.13"/>
<polygon fill="black" stroke="black" points="541.84,-436.34 545.98,-446.09 548.82,-435.88 541.84,-436.34"/>
</g>
<!-- assign_results&#45;&gt;end -->
<g id="edge15" class="edge">
<title>assign_results&#45;&gt;end</title>
<path fill="none" stroke="black" d="M634.12,-324.52C634.12,-316.31 634.12,-307.65 634.12,-299.74"/>
<polygon fill="black" stroke="black" points="637.63,-300 634.13,-290 630.63,-300 637.63,-300"/>
</g>
</g>
</svg>
