<?xml version="1.0" encoding="UTF-8" standalone="no"?>
<!DOCTYPE svg PUBLIC "-//W3C//DTD SVG 1.1//EN"
 "http://www.w3.org/Graphics/SVG/1.1/DTD/svg11.dtd">
<!-- Generated by graphviz version 13.1.2 (20250808.2320)
 -->
<!-- Title: my_abs_DFG Pages: 1 -->
<svg width="134pt" height="188pt"
 viewBox="0.00 0.00 134.00 188.00" xmlns="http://www.w3.org/2000/svg" xmlns:xlink="http://www.w3.org/1999/xlink">
<g id="graph0" class="graph" transform="scale(1 1) rotate(0) translate(4 184)">
<title>my_abs_DFG</title>
<polygon fill="white" stroke="none" points="-4,4 -4,-184 130,-184 130,4 -4,4"/>
<!-- n_in -->
<g id="node1" class="node">
<title>n_in</title>
<ellipse fill="lightblue" stroke="black" cx="63" cy="-162" rx="27" ry="18"/>
<text xml:space="preserve" text-anchor="middle" x="63" y="-156.95" font-family="Times New Roman,serif" font-size="14.00">n</text>
</g>
<!-- op_assign -->
<g id="node2" class="node">
<title>op_assign</title>
<polygon fill="none" stroke="black" points="54,-108 0,-108 0,-72 54,-72 54,-108"/>
<text xml:space="preserve" text-anchor="middle" x="27" y="-84.95" font-family="Times New Roman,serif" font-size="14.00">=</text>
</g>
<!-- n_in&#45;&gt;op_assign -->
<g id="edge1" class="edge">
<title>n_in&#45;&gt;op_assign</title>
<path fill="none" stroke="black" d="M54.65,-144.76C50.59,-136.87 45.6,-127.16 40.98,-118.18"/>
<polygon fill="black" stroke="black" points="44.18,-116.76 36.5,-109.47 37.96,-119.96 44.18,-116.76"/>
</g>
<!-- op_neg -->
<g id="node3" class="node">
<title>op_neg</title>
<polygon fill="none" stroke="black" points="126,-108 72,-108 72,-72 126,-72 126,-108"/>
<text xml:space="preserve" text-anchor="middle" x="99" y="-84.95" font-family="Times New Roman,serif" font-size="14.00">&#45;</text>
</g>
<!-- n_in&#45;&gt;op_neg -->
<g id="edge2" class="edge">
<title>n_in&#45;&gt;op_neg</title>
<path fill="none" stroke="black" d="M71.35,-144.76C75.41,-136.87 80.4,-127.16 85.02,-118.18"/>
<polygon fill="black" stroke="black" points="88.04,-119.96 89.5,-109.47 81.82,-116.76 88.04,-119.96"/>
</g>
<!-- m_out -->
<g id="node4" class="node">
<title>m_out</title>
<ellipse fill="lightgreen" stroke="black" cx="63" cy="-18" rx="27" ry="18"/>
<text xml:space="preserve" text-anchor="middle" x="63" y="-12.95" font-family="Times New Roman,serif" font-size="14.00">m</text>
</g>
<!-- op_assign&#45;&gt;m_out -->
<g id="edge3" class="edge">
<title>op_assign&#45;&gt;m_out</title>
<path fill="none" stroke="black" d="M35.9,-71.7C39.98,-63.75 44.92,-54.16 49.45,-45.34"/>
<polygon fill="black" stroke="black" points="52.54,-46.98 54,-36.49 46.32,-43.78 52.54,-46.98"/>
</g>
<!-- op_neg&#45;&gt;m_out -->
<g id="edge4" class="edge">
<title>op_neg&#45;&gt;m_out</title>
<path fill="none" stroke="black" d="M90.1,-71.7C86.02,-63.75 81.08,-54.16 76.55,-45.34"/>
<polygon fill="black" stroke="black" points="79.68,-43.78 72,-36.49 73.46,-46.98 79.68,-43.78"/>
</g>
</g>
</svg>
