<?xml version="1.0" encoding="UTF-8" standalone="no"?>
<!DOCTYPE svg PUBLIC "-//W3C//DTD SVG 1.1//EN"
 "http://www.w3.org/Graphics/SVG/1.1/DTD/svg11.dtd">
<!-- Generated by graphviz version 13.1.2 (20250808.2320)
 -->
<!-- Title: my_abs_CFG Pages: 1 -->
<svg width="200pt" height="396pt"
 viewBox="0.00 0.00 200.00 396.00" xmlns="http://www.w3.org/2000/svg" xmlns:xlink="http://www.w3.org/1999/xlink">
<g id="graph0" class="graph" transform="scale(1 1) rotate(0) translate(4 391.69)">
<title>my_abs_CFG</title>
<polygon fill="white" stroke="none" points="-4,4 -4,-391.69 195.5,-391.69 195.5,4 -4,4"/>
<!-- N1 -->
<g id="node1" class="node">
<title>N1</title>
<path fill="none" stroke="black" d="M107.38,-387.69C107.38,-387.69 66.62,-387.69 66.62,-387.69 60.62,-387.69 54.62,-381.69 54.62,-375.69 54.62,-375.69 54.62,-363.69 54.62,-363.69 54.62,-357.69 60.62,-351.69 66.62,-351.69 66.62,-351.69 107.38,-351.69 107.38,-351.69 113.38,-351.69 119.38,-357.69 119.38,-363.69 119.38,-363.69 119.38,-375.69 119.38,-375.69 119.38,-381.69 113.38,-387.69 107.38,-387.69"/>
<text xml:space="preserve" text-anchor="middle" x="87" y="-364.26" font-family="Helvetica,sans-Serif" font-size="14.00">1: int m;</text>
</g>
<!-- N2 -->
<g id="node2" class="node">
<title>N2</title>
<path fill="none" stroke="black" d="M119.75,-314.69C119.75,-314.69 54.25,-314.69 54.25,-314.69 48.25,-314.69 42.25,-308.69 42.25,-302.69 42.25,-302.69 42.25,-290.69 42.25,-290.69 42.25,-284.69 48.25,-278.69 54.25,-278.69 54.25,-278.69 119.75,-278.69 119.75,-278.69 125.75,-278.69 131.75,-284.69 131.75,-290.69 131.75,-290.69 131.75,-302.69 131.75,-302.69 131.75,-308.69 125.75,-314.69 119.75,-314.69"/>
<text xml:space="preserve" text-anchor="middle" x="87" y="-291.26" font-family="Helvetica,sans-Serif" font-size="14.00">2: if (n &gt;= 0)</text>
</g>
<!-- N1&#45;&gt;N2 -->
<g id="edge1" class="edge">
<title>N1&#45;&gt;N2</title>
<path fill="none" stroke="black" d="M87,-351.5C87,-343.91 87,-334.79 87,-326.23"/>
<polygon fill="black" stroke="black" points="90.5,-326.23 87,-316.23 83.5,-326.23 90.5,-326.23"/>
</g>
<!-- N3 -->
<g id="node3" class="node">
<title>N3</title>
<path fill="none" stroke="black" d="M58,-226.19C58,-226.19 12,-226.19 12,-226.19 6,-226.19 0,-220.19 0,-214.19 0,-214.19 0,-202.19 0,-202.19 0,-196.19 6,-190.19 12,-190.19 12,-190.19 58,-190.19 58,-190.19 64,-190.19 70,-196.19 70,-202.19 70,-202.19 70,-214.19 70,-214.19 70,-220.19 64,-226.19 58,-226.19"/>
<text xml:space="preserve" text-anchor="middle" x="35" y="-202.76" font-family="Helvetica,sans-Serif" font-size="14.00">3: m = n;</text>
</g>
<!-- N2&#45;&gt;N3 -->
<g id="edge2" class="edge">
<title>N2&#45;&gt;N3</title>
<path fill="none" stroke="black" d="M76.73,-278.6C69.44,-266.47 59.51,-249.96 51.17,-236.08"/>
<polygon fill="black" stroke="black" points="54.36,-234.6 46.21,-227.84 48.36,-238.21 54.36,-234.6"/>
<text xml:space="preserve" text-anchor="middle" x="76.16" y="-247.39" font-family="Times New Roman,serif" font-size="14.00">true</text>
</g>
<!-- N4 -->
<g id="node4" class="node">
<title>N4</title>
<path fill="none" stroke="black" d="M179.5,-226.19C179.5,-226.19 100.5,-226.19 100.5,-226.19 94.5,-226.19 88.5,-220.19 88.5,-214.19 88.5,-214.19 88.5,-202.19 88.5,-202.19 88.5,-196.19 94.5,-190.19 100.5,-190.19 100.5,-190.19 179.5,-190.19 179.5,-190.19 185.5,-190.19 191.5,-196.19 191.5,-202.19 191.5,-202.19 191.5,-214.19 191.5,-214.19 191.5,-220.19 185.5,-226.19 179.5,-226.19"/>
<text xml:space="preserve" text-anchor="middle" x="140" y="-202.76" font-family="Helvetica,sans-Serif" font-size="14.00">4: else m = &#45;n;</text>
</g>
<!-- N2&#45;&gt;N4 -->
<g id="edge3" class="edge">
<title>N2&#45;&gt;N4</title>
<path fill="none" stroke="black" d="M97.47,-278.6C104.9,-266.47 115.02,-249.96 123.52,-236.08"/>
<polygon fill="black" stroke="black" points="126.34,-238.18 128.58,-227.83 120.37,-234.53 126.34,-238.18"/>
<text xml:space="preserve" text-anchor="middle" x="131" y="-247.39" font-family="Times New Roman,serif" font-size="14.00">false</text>
</g>
<!-- N5 -->
<g id="node5" class="node">
<title>N5</title>
<path fill="none" stroke="black" d="M117.88,-153.19C117.88,-153.19 56.12,-153.19 56.12,-153.19 50.12,-153.19 44.12,-147.19 44.12,-141.19 44.12,-141.19 44.12,-129.19 44.12,-129.19 44.12,-123.19 50.12,-117.19 56.12,-117.19 56.12,-117.19 117.88,-117.19 117.88,-117.19 123.88,-117.19 129.88,-123.19 129.88,-129.19 129.88,-129.19 129.88,-141.19 129.88,-141.19 129.88,-147.19 123.88,-153.19 117.88,-153.19"/>
<text xml:space="preserve" text-anchor="middle" x="87" y="-129.76" font-family="Helvetica,sans-Serif" font-size="14.00">5: return m;</text>
</g>
<!-- N3&#45;&gt;N5 -->
<g id="edge4" class="edge">
<title>N3&#45;&gt;N5</title>
<path fill="none" stroke="black" d="M47.59,-190C53.66,-181.72 61.07,-171.6 67.82,-162.38"/>
<polygon fill="black" stroke="black" points="70.55,-164.57 73.63,-154.44 64.9,-160.44 70.55,-164.57"/>
</g>
<!-- N4&#45;&gt;N5 -->
<g id="edge5" class="edge">
<title>N4&#45;&gt;N5</title>
<path fill="none" stroke="black" d="M127.17,-190C120.99,-181.72 113.43,-171.6 106.55,-162.38"/>
<polygon fill="black" stroke="black" points="109.4,-160.35 100.62,-154.43 103.79,-164.54 109.4,-160.35"/>
</g>
<!-- N6 -->
<g id="node6" class="node">
<title>N6</title>
<ellipse fill="none" stroke="black" cx="87" cy="-40.09" rx="36.09" ry="36.09"/>
<ellipse fill="none" stroke="black" cx="87" cy="-40.09" rx="40.09" ry="40.09"/>
<text xml:space="preserve" text-anchor="middle" x="87" y="-34.67" font-family="Helvetica,sans-Serif" font-size="14.00">6: Fim</text>
</g>
<!-- N5&#45;&gt;N6 -->
<g id="edge6" class="edge">
<title>N5&#45;&gt;N6</title>
<path fill="none" stroke="black" d="M87,-117.11C87,-109.88 87,-101.03 87,-91.96"/>
<polygon fill="black" stroke="black" points="90.5,-91.98 87,-81.98 83.5,-91.98 90.5,-91.98"/>
</g>
</g>
</svg>
