<?xml version="1.0" encoding="UTF-8" standalone="no"?>
<!DOCTYPE svg PUBLIC "-//W3C//DTD SVG 1.1//EN"
 "http://www.w3.org/Graphics/SVG/1.1/DTD/svg11.dtd">
<!-- Generated by graphviz version 13.1.2 (20250808.2320)
 -->
<!-- Title: my_cos_CFG Pages: 1 -->
<svg width="206pt" height="160pt"
 viewBox="0.00 0.00 206.00 160.00" xmlns="http://www.w3.org/2000/svg" xmlns:xlink="http://www.w3.org/1999/xlink">
<g id="graph0" class="graph" transform="scale(1 1) rotate(0) translate(4 156.19)">
<title>my_cos_CFG</title>
<polygon fill="white" stroke="none" points="-4,4 -4,-156.19 202.25,-156.19 202.25,4 -4,4"/>
<!-- N1 -->
<g id="node1" class="node">
<title>N1</title>
<path fill="none" stroke="black" d="M186.25,-152.19C186.25,-152.19 12,-152.19 12,-152.19 6,-152.19 0,-146.19 0,-140.19 0,-140.19 0,-128.19 0,-128.19 0,-122.19 6,-116.19 12,-116.19 12,-116.19 186.25,-116.19 186.25,-116.19 192.25,-116.19 198.25,-122.19 198.25,-128.19 198.25,-128.19 198.25,-140.19 198.25,-140.19 198.25,-146.19 192.25,-152.19 186.25,-152.19"/>
<text xml:space="preserve" text-anchor="middle" x="99.12" y="-128.76" font-family="Helvetica,sans-Serif" font-size="14.00">1: return (my_sin(PI / 2 &#45; rad));</text>
</g>
<!-- N2 -->
<g id="node2" class="node">
<title>N2</title>
<ellipse fill="none" stroke="black" cx="99.12" cy="-40.09" rx="36.09" ry="36.09"/>
<ellipse fill="none" stroke="black" cx="99.12" cy="-40.09" rx="40.09" ry="40.09"/>
<text xml:space="preserve" text-anchor="middle" x="99.12" y="-34.67" font-family="Helvetica,sans-Serif" font-size="14.00">2: Fim</text>
</g>
<!-- N1&#45;&gt;N2 -->
<g id="edge1" class="edge">
<title>N1&#45;&gt;N2</title>
<path fill="none" stroke="black" d="M99.12,-115.87C99.12,-108.91 99.12,-100.5 99.12,-91.86"/>
<polygon fill="black" stroke="black" points="102.63,-92 99.13,-82 95.63,-92 102.63,-92"/>
</g>
</g>
</svg>
