<?xml version="1.0" encoding="UTF-8" standalone="no"?>
<!DOCTYPE svg PUBLIC "-//W3C//DTD SVG 1.1//EN"
 "http://www.w3.org/Graphics/SVG/1.1/DTD/svg11.dtd">
<!-- Generated by graphviz version 13.1.2 (20250808.2320)
 -->
<!-- Title: my_cos_DFG Pages: 1 -->
<svg width="134pt" height="260pt"
 viewBox="0.00 0.00 134.00 260.00" xmlns="http://www.w3.org/2000/svg" xmlns:xlink="http://www.w3.org/1999/xlink">
<g id="graph0" class="graph" transform="scale(1 1) rotate(0) translate(4 256)">
<title>my_cos_DFG</title>
<polygon fill="white" stroke="none" points="-4,4 -4,-256 130,-256 130,4 -4,4"/>
<!-- rad_in -->
<g id="node1" class="node">
<title>rad_in</title>
<ellipse fill="lightblue" stroke="black" cx="27" cy="-162" rx="27" ry="18"/>
<text xml:space="preserve" text-anchor="middle" x="27" y="-156.95" font-family="Times New Roman,serif" font-size="14.00">rad</text>
</g>
<!-- op_sub -->
<g id="node3" class="node">
<title>op_sub</title>
<polygon fill="none" stroke="black" points="90,-108 36,-108 36,-72 90,-72 90,-108"/>
<text xml:space="preserve" text-anchor="middle" x="63" y="-84.95" font-family="Times New Roman,serif" font-size="14.00">&#45;</text>
</g>
<!-- rad_in&#45;&gt;op_sub -->
<g id="edge1" class="edge">
<title>rad_in&#45;&gt;op_sub</title>
<path fill="none" stroke="black" d="M35.35,-144.76C39.41,-136.87 44.4,-127.16 49.02,-118.18"/>
<polygon fill="black" stroke="black" points="52.04,-119.96 53.5,-109.47 45.82,-116.76 52.04,-119.96"/>
</g>
<!-- PI_in -->
<g id="node2" class="node">
<title>PI_in</title>
<ellipse fill="lightblue" stroke="black" cx="99" cy="-234" rx="27" ry="18"/>
<text xml:space="preserve" text-anchor="middle" x="99" y="-228.95" font-family="Times New Roman,serif" font-size="14.00">PI</text>
</g>
<!-- op_div -->
<g id="node4" class="node">
<title>op_div</title>
<polygon fill="none" stroke="black" points="126,-180 72,-180 72,-144 126,-144 126,-180"/>
<text xml:space="preserve" text-anchor="middle" x="99" y="-156.95" font-family="Times New Roman,serif" font-size="14.00">/</text>
</g>
<!-- PI_in&#45;&gt;op_div -->
<g id="edge2" class="edge">
<title>PI_in&#45;&gt;op_div</title>
<path fill="none" stroke="black" d="M99,-215.7C99,-208.41 99,-199.73 99,-191.54"/>
<polygon fill="black" stroke="black" points="102.5,-191.62 99,-181.62 95.5,-191.62 102.5,-191.62"/>
</g>
<!-- result -->
<g id="node5" class="node">
<title>result</title>
<ellipse fill="lightgreen" stroke="black" cx="63" cy="-18" rx="32.93" ry="18"/>
<text xml:space="preserve" text-anchor="middle" x="63" y="-12.95" font-family="Times New Roman,serif" font-size="14.00">return</text>
</g>
<!-- op_sub&#45;&gt;result -->
<g id="edge4" class="edge">
<title>op_sub&#45;&gt;result</title>
<path fill="none" stroke="black" d="M63,-71.7C63,-64.41 63,-55.73 63,-47.54"/>
<polygon fill="black" stroke="black" points="66.5,-47.62 63,-37.62 59.5,-47.62 66.5,-47.62"/>
</g>
<!-- op_div&#45;&gt;op_sub -->
<g id="edge3" class="edge">
<title>op_div&#45;&gt;op_sub</title>
<path fill="none" stroke="black" d="M90.1,-143.7C86.13,-135.98 81.37,-126.71 76.94,-118.11"/>
<polygon fill="black" stroke="black" points="80.17,-116.74 72.49,-109.45 73.95,-119.94 80.17,-116.74"/>
</g>
</g>
</svg>
