<?xml version="1.0" encoding="UTF-8" standalone="no"?>
<!DOCTYPE svg PUBLIC "-//W3C//DTD SVG 1.1//EN"
 "http://www.w3.org/Graphics/SVG/1.1/DTD/svg11.dtd">
<!-- Generated by graphviz version 13.1.2 (20250808.2320)
 -->
<!-- Title: my_fabs_CFG Pages: 1 -->
<svg width="182pt" height="396pt"
 viewBox="0.00 0.00 182.00 396.00" xmlns="http://www.w3.org/2000/svg" xmlns:xlink="http://www.w3.org/1999/xlink">
<g id="graph0" class="graph" transform="scale(1 1) rotate(0) translate(4 391.69)">
<title>my_fabs_CFG</title>
<polygon fill="white" stroke="none" points="-4,4 -4,-391.69 178.25,-391.69 178.25,4 -4,4"/>
<!-- N1 -->
<g id="node1" class="node">
<title>N1</title>
<path fill="none" stroke="black" d="M95.12,-387.69C95.12,-387.69 62.62,-387.69 62.62,-387.69 56.62,-387.69 50.62,-381.69 50.62,-375.69 50.62,-375.69 50.62,-363.69 50.62,-363.69 50.62,-357.69 56.62,-351.69 62.62,-351.69 62.62,-351.69 95.12,-351.69 95.12,-351.69 101.12,-351.69 107.12,-357.69 107.12,-363.69 107.12,-363.69 107.12,-375.69 107.12,-375.69 107.12,-381.69 101.12,-387.69 95.12,-387.69"/>
<text xml:space="preserve" text-anchor="middle" x="78.88" y="-364.26" font-family="Helvetica,sans-Serif" font-size="14.00">1: int f;</text>
</g>
<!-- N2 -->
<g id="node2" class="node">
<title>N2</title>
<path fill="none" stroke="black" d="M111.62,-314.69C111.62,-314.69 46.12,-314.69 46.12,-314.69 40.12,-314.69 34.12,-308.69 34.12,-302.69 34.12,-302.69 34.12,-290.69 34.12,-290.69 34.12,-284.69 40.12,-278.69 46.12,-278.69 46.12,-278.69 111.62,-278.69 111.62,-278.69 117.62,-278.69 123.62,-284.69 123.62,-290.69 123.62,-290.69 123.62,-302.69 123.62,-302.69 123.62,-308.69 117.62,-314.69 111.62,-314.69"/>
<text xml:space="preserve" text-anchor="middle" x="78.88" y="-291.26" font-family="Helvetica,sans-Serif" font-size="14.00">2: if (n &gt;= 0)</text>
</g>
<!-- N1&#45;&gt;N2 -->
<g id="edge1" class="edge">
<title>N1&#45;&gt;N2</title>
<path fill="none" stroke="black" d="M78.88,-351.5C78.88,-343.91 78.88,-334.79 78.88,-326.23"/>
<polygon fill="black" stroke="black" points="82.38,-326.23 78.88,-316.23 75.38,-326.23 82.38,-326.23"/>
</g>
<!-- N3 -->
<g id="node3" class="node">
<title>N3</title>
<path fill="none" stroke="black" d="M49.75,-226.19C49.75,-226.19 12,-226.19 12,-226.19 6,-226.19 0,-220.19 0,-214.19 0,-214.19 0,-202.19 0,-202.19 0,-196.19 6,-190.19 12,-190.19 12,-190.19 49.75,-190.19 49.75,-190.19 55.75,-190.19 61.75,-196.19 61.75,-202.19 61.75,-202.19 61.75,-214.19 61.75,-214.19 61.75,-220.19 55.75,-226.19 49.75,-226.19"/>
<text xml:space="preserve" text-anchor="middle" x="30.88" y="-202.76" font-family="Helvetica,sans-Serif" font-size="14.00">3: f = n;</text>
</g>
<!-- N2&#45;&gt;N3 -->
<g id="edge2" class="edge">
<title>N2&#45;&gt;N3</title>
<path fill="none" stroke="black" d="M69.39,-278.6C62.73,-266.59 53.68,-250.28 46.02,-236.48"/>
<polygon fill="black" stroke="black" points="49.15,-234.91 41.24,-227.86 43.03,-238.3 49.15,-234.91"/>
<text xml:space="preserve" text-anchor="middle" x="69.67" y="-247.39" font-family="Times New Roman,serif" font-size="14.00">true</text>
</g>
<!-- N4 -->
<g id="node4" class="node">
<title>N4</title>
<path fill="none" stroke="black" d="M162.25,-226.19C162.25,-226.19 91.5,-226.19 91.5,-226.19 85.5,-226.19 79.5,-220.19 79.5,-214.19 79.5,-214.19 79.5,-202.19 79.5,-202.19 79.5,-196.19 85.5,-190.19 91.5,-190.19 91.5,-190.19 162.25,-190.19 162.25,-190.19 168.25,-190.19 174.25,-196.19 174.25,-202.19 174.25,-202.19 174.25,-214.19 174.25,-214.19 174.25,-220.19 168.25,-226.19 162.25,-226.19"/>
<text xml:space="preserve" text-anchor="middle" x="126.88" y="-202.76" font-family="Helvetica,sans-Serif" font-size="14.00">4: else f = &#45;n;</text>
</g>
<!-- N2&#45;&gt;N4 -->
<g id="edge3" class="edge">
<title>N2&#45;&gt;N4</title>
<path fill="none" stroke="black" d="M88.36,-278.6C95.02,-266.59 104.07,-250.28 111.73,-236.48"/>
<polygon fill="black" stroke="black" points="114.72,-238.3 116.51,-227.86 108.6,-234.91 114.72,-238.3"/>
<text xml:space="preserve" text-anchor="middle" x="119.92" y="-247.39" font-family="Times New Roman,serif" font-size="14.00">false</text>
</g>
<!-- N5 -->
<g id="node5" class="node">
<title>N5</title>
<path fill="none" stroke="black" d="M104.62,-153.19C104.62,-153.19 51.12,-153.19 51.12,-153.19 45.12,-153.19 39.12,-147.19 39.12,-141.19 39.12,-141.19 39.12,-129.19 39.12,-129.19 39.12,-123.19 45.12,-117.19 51.12,-117.19 51.12,-117.19 104.62,-117.19 104.62,-117.19 110.62,-117.19 116.62,-123.19 116.62,-129.19 116.62,-129.19 116.62,-141.19 116.62,-141.19 116.62,-147.19 110.62,-153.19 104.62,-153.19"/>
<text xml:space="preserve" text-anchor="middle" x="77.88" y="-129.76" font-family="Helvetica,sans-Serif" font-size="14.00">5: return f;</text>
</g>
<!-- N3&#45;&gt;N5 -->
<g id="edge4" class="edge">
<title>N3&#45;&gt;N5</title>
<path fill="none" stroke="black" d="M42.25,-190C47.68,-181.8 54.29,-171.81 60.34,-162.67"/>
<polygon fill="black" stroke="black" points="63.17,-164.75 65.77,-154.48 57.33,-160.89 63.17,-164.75"/>
</g>
<!-- N4&#45;&gt;N5 -->
<g id="edge5" class="edge">
<title>N4&#45;&gt;N5</title>
<path fill="none" stroke="black" d="M115.01,-190C109.36,-181.8 102.46,-171.81 96.15,-162.67"/>
<polygon fill="black" stroke="black" points="99.05,-160.7 90.49,-154.46 93.29,-164.68 99.05,-160.7"/>
</g>
<!-- N6 -->
<g id="node6" class="node">
<title>N6</title>
<ellipse fill="none" stroke="black" cx="77.88" cy="-40.09" rx="36.09" ry="36.09"/>
<ellipse fill="none" stroke="black" cx="77.88" cy="-40.09" rx="40.09" ry="40.09"/>
<text xml:space="preserve" text-anchor="middle" x="77.88" y="-34.67" font-family="Helvetica,sans-Serif" font-size="14.00">6: Fim</text>
</g>
<!-- N5&#45;&gt;N6 -->
<g id="edge6" class="edge">
<title>N5&#45;&gt;N6</title>
<path fill="none" stroke="black" d="M77.88,-117.11C77.88,-109.88 77.88,-101.03 77.88,-91.96"/>
<polygon fill="black" stroke="black" points="81.38,-91.98 77.88,-81.98 74.38,-91.98 81.38,-91.98"/>
</g>
</g>
</svg>
