<?xml version="1.0" encoding="UTF-8" standalone="no"?>
<!DOCTYPE svg PUBLIC "-//W3C//DTD SVG 1.1//EN"
 "http://www.w3.org/Graphics/SVG/1.1/DTD/svg11.dtd">
<!-- Generated by graphviz version 13.1.2 (20250808.2320)
 -->
<!-- Title: my_sin_CFG Pages: 1 -->
<svg width="479pt" height="728pt"
 viewBox="0.00 0.00 479.00 728.00" xmlns="http://www.w3.org/2000/svg" xmlns:xlink="http://www.w3.org/1999/xlink">
<g id="graph0" class="graph" transform="scale(1 1) rotate(0) translate(4 723.67)">
<title>my_sin_CFG</title>
<polygon fill="white" stroke="none" points="-4,4 -4,-723.67 474.62,-723.67 474.62,4 -4,4"/>
<!-- N1 -->
<g id="node1" class="node">
<title>N1</title>
<path fill="none" stroke="black" d="M181,-719.67C181,-719.67 12,-719.67 12,-719.67 6,-719.67 0,-713.67 0,-707.67 0,-707.67 0,-695.67 0,-695.67 0,-689.67 6,-683.67 12,-683.67 12,-683.67 181,-683.67 181,-683.67 187,-683.67 193,-689.67 193,-695.67 193,-695.67 193,-707.67 193,-707.67 193,-713.67 187,-719.67 181,-719.67"/>
<text xml:space="preserve" text-anchor="middle" x="96.5" y="-696.24" font-family="Helvetica,sans-Serif" font-size="14.00">1: int diff; int app=0; int inc=1;</text>
</g>
<!-- N2 -->
<g id="node2" class="node">
<title>N2</title>
<path fill="none" stroke="black" d="M152.12,-646.67C152.12,-646.67 40.88,-646.67 40.88,-646.67 34.88,-646.67 28.88,-640.67 28.88,-634.67 28.88,-634.67 28.88,-622.67 28.88,-622.67 28.88,-616.67 34.88,-610.67 40.88,-610.67 40.88,-610.67 152.12,-610.67 152.12,-610.67 158.12,-610.67 164.12,-616.67 164.12,-622.67 164.12,-622.67 164.12,-634.67 164.12,-634.67 164.12,-640.67 158.12,-646.67 152.12,-646.67"/>
<text xml:space="preserve" text-anchor="middle" x="96.5" y="-623.24" font-family="Helvetica,sans-Serif" font-size="14.00">2: while (rad &gt; 2*PI)</text>
</g>
<!-- N1&#45;&gt;N2 -->
<g id="edge1" class="edge">
<title>N1&#45;&gt;N2</title>
<path fill="none" stroke="black" d="M96.5,-683.48C96.5,-675.9 96.5,-666.77 96.5,-658.21"/>
<polygon fill="black" stroke="black" points="100,-658.21 96.5,-648.21 93,-658.21 100,-658.21"/>
</g>
<!-- N3 -->
<g id="node3" class="node">
<title>N3</title>
<path fill="none" stroke="black" d="M98.5,-558.17C98.5,-558.17 22.5,-558.17 22.5,-558.17 16.5,-558.17 10.5,-552.17 10.5,-546.17 10.5,-546.17 10.5,-534.17 10.5,-534.17 10.5,-528.17 16.5,-522.17 22.5,-522.17 22.5,-522.17 98.5,-522.17 98.5,-522.17 104.5,-522.17 110.5,-528.17 110.5,-534.17 110.5,-534.17 110.5,-546.17 110.5,-546.17 110.5,-552.17 104.5,-558.17 98.5,-558.17"/>
<text xml:space="preserve" text-anchor="middle" x="60.5" y="-534.74" font-family="Helvetica,sans-Serif" font-size="14.00">3: rad &#45;= 2*PI;</text>
</g>
<!-- N2&#45;&gt;N3 -->
<g id="edge2" class="edge">
<title>N2&#45;&gt;N3</title>
<path fill="none" stroke="black" d="M74.16,-610.5C69.07,-605.36 64.33,-599.31 61.5,-592.67 58.51,-585.65 57.4,-577.59 57.26,-569.96"/>
<polygon fill="black" stroke="black" points="60.75,-570.18 57.62,-560.06 53.76,-569.92 60.75,-570.18"/>
<text xml:space="preserve" text-anchor="middle" x="72" y="-579.37" font-family="Times New Roman,serif" font-size="14.00">true</text>
</g>
<!-- N4 -->
<g id="node4" class="node">
<title>N4</title>
<path fill="none" stroke="black" d="M256.38,-558.17C256.38,-558.17 140.62,-558.17 140.62,-558.17 134.62,-558.17 128.62,-552.17 128.62,-546.17 128.62,-546.17 128.62,-534.17 128.62,-534.17 128.62,-528.17 134.62,-522.17 140.62,-522.17 140.62,-522.17 256.38,-522.17 256.38,-522.17 262.38,-522.17 268.38,-528.17 268.38,-534.17 268.38,-534.17 268.38,-546.17 268.38,-546.17 268.38,-552.17 262.38,-558.17 256.38,-558.17"/>
<text xml:space="preserve" text-anchor="middle" x="198.5" y="-534.74" font-family="Helvetica,sans-Serif" font-size="14.00">4: while (rad &lt; &#45;2*PI)</text>
</g>
<!-- N2&#45;&gt;N4 -->
<g id="edge3" class="edge">
<title>N2&#45;&gt;N4</title>
<path fill="none" stroke="black" d="M116.65,-610.58C131.78,-597.75 152.71,-580 169.62,-565.66"/>
<polygon fill="black" stroke="black" points="171.52,-568.64 176.89,-559.5 167,-563.3 171.52,-568.64"/>
<text xml:space="preserve" text-anchor="middle" x="169.39" y="-579.37" font-family="Times New Roman,serif" font-size="14.00">false</text>
</g>
<!-- N3&#45;&gt;N2 -->
<g id="edge4" class="edge">
<title>N3&#45;&gt;N2</title>
<path fill="none" stroke="black" d="M72.75,-558.41C76.26,-563.9 79.85,-570.12 82.5,-576.17 85.71,-583.5 88.35,-591.74 90.44,-599.44"/>
<polygon fill="black" stroke="black" points="87.02,-600.2 92.82,-609.07 93.81,-598.52 87.02,-600.2"/>
</g>
<!-- N5 -->
<g id="node5" class="node">
<title>N5</title>
<path fill="none" stroke="black" d="M202.38,-469.67C202.38,-469.67 122.62,-469.67 122.62,-469.67 116.62,-469.67 110.62,-463.67 110.62,-457.67 110.62,-457.67 110.62,-445.67 110.62,-445.67 110.62,-439.67 116.62,-433.67 122.62,-433.67 122.62,-433.67 202.38,-433.67 202.38,-433.67 208.38,-433.67 214.38,-439.67 214.38,-445.67 214.38,-445.67 214.38,-457.67 214.38,-457.67 214.38,-463.67 208.38,-469.67 202.38,-469.67"/>
<text xml:space="preserve" text-anchor="middle" x="162.5" y="-446.24" font-family="Helvetica,sans-Serif" font-size="14.00">5: rad += 2*PI;</text>
</g>
<!-- N4&#45;&gt;N5 -->
<g id="edge5" class="edge">
<title>N4&#45;&gt;N5</title>
<path fill="none" stroke="black" d="M176.16,-522C171.07,-516.86 166.33,-510.81 163.5,-504.17 160.51,-497.15 159.4,-489.09 159.26,-481.46"/>
<polygon fill="black" stroke="black" points="162.75,-481.68 159.62,-471.56 155.76,-481.42 162.75,-481.68"/>
<text xml:space="preserve" text-anchor="middle" x="174" y="-490.87" font-family="Times New Roman,serif" font-size="14.00">true</text>
</g>
<!-- N6 -->
<g id="node6" class="node">
<title>N6</title>
<path fill="none" stroke="black" d="M372.38,-469.67C372.38,-469.67 244.62,-469.67 244.62,-469.67 238.62,-469.67 232.62,-463.67 232.62,-457.67 232.62,-457.67 232.62,-445.67 232.62,-445.67 232.62,-439.67 238.62,-433.67 244.62,-433.67 244.62,-433.67 372.38,-433.67 372.38,-433.67 378.38,-433.67 384.38,-439.67 384.38,-445.67 384.38,-445.67 384.38,-457.67 384.38,-457.67 384.38,-463.67 378.38,-469.67 372.38,-469.67"/>
<text xml:space="preserve" text-anchor="middle" x="308.5" y="-446.24" font-family="Helvetica,sans-Serif" font-size="14.00">6: diff = rad; app = diff;</text>
</g>
<!-- N4&#45;&gt;N6 -->
<g id="edge6" class="edge">
<title>N4&#45;&gt;N6</title>
<path fill="none" stroke="black" d="M220.5,-521.87C236.83,-509.03 259.34,-491.33 277.5,-477.05"/>
<polygon fill="black" stroke="black" points="279.66,-479.8 285.35,-470.87 275.33,-474.3 279.66,-479.8"/>
<text xml:space="preserve" text-anchor="middle" x="276.1" y="-490.87" font-family="Times New Roman,serif" font-size="14.00">false</text>
</g>
<!-- N5&#45;&gt;N4 -->
<g id="edge7" class="edge">
<title>N5&#45;&gt;N4</title>
<path fill="none" stroke="black" d="M174.75,-469.91C178.26,-475.4 181.85,-481.62 184.5,-487.67 187.71,-495 190.35,-503.24 192.44,-510.94"/>
<polygon fill="black" stroke="black" points="189.02,-511.7 194.82,-520.57 195.81,-510.02 189.02,-511.7"/>
</g>
<!-- N7 -->
<g id="node7" class="node">
<title>N7</title>
<path fill="none" stroke="black" d="M458.62,-396.67C458.62,-396.67 158.38,-396.67 158.38,-396.67 152.38,-396.67 146.38,-390.67 146.38,-384.67 146.38,-384.67 146.38,-372.67 146.38,-372.67 146.38,-366.67 152.38,-360.67 158.38,-360.67 158.38,-360.67 458.62,-360.67 458.62,-360.67 464.62,-360.67 470.62,-366.67 470.62,-372.67 470.62,-372.67 470.62,-384.67 470.62,-384.67 470.62,-390.67 464.62,-396.67 458.62,-396.67"/>
<text xml:space="preserve" text-anchor="middle" x="308.5" y="-373.24" font-family="Helvetica,sans-Serif" font-size="14.00">7: diff = (diff * (&#45;(rad*rad))) / ((2 * inc) * (2 * inc + 1));</text>
</g>
<!-- N6&#45;&gt;N7 -->
<g id="edge8" class="edge">
<title>N6&#45;&gt;N7</title>
<path fill="none" stroke="black" d="M308.5,-433.48C308.5,-425.9 308.5,-416.77 308.5,-408.21"/>
<polygon fill="black" stroke="black" points="312,-408.21 308.5,-398.21 305,-408.21 312,-408.21"/>
</g>
<!-- N8 -->
<g id="node8" class="node">
<title>N8</title>
<path fill="none" stroke="black" d="M321.75,-323.67C321.75,-323.67 175.25,-323.67 175.25,-323.67 169.25,-323.67 163.25,-317.67 163.25,-311.67 163.25,-311.67 163.25,-299.67 163.25,-299.67 163.25,-293.67 169.25,-287.67 175.25,-287.67 175.25,-287.67 321.75,-287.67 321.75,-287.67 327.75,-287.67 333.75,-293.67 333.75,-299.67 333.75,-299.67 333.75,-311.67 333.75,-311.67 333.75,-317.67 327.75,-323.67 321.75,-323.67"/>
<text xml:space="preserve" text-anchor="middle" x="248.5" y="-300.24" font-family="Helvetica,sans-Serif" font-size="14.00">8: app = app + diff; inc++;</text>
</g>
<!-- N7&#45;&gt;N8 -->
<g id="edge9" class="edge">
<title>N7&#45;&gt;N8</title>
<path fill="none" stroke="black" d="M293.98,-360.48C286.83,-352.02 278.06,-341.65 270.14,-332.28"/>
<polygon fill="black" stroke="black" points="273,-330.23 263.87,-324.85 267.65,-334.75 273,-330.23"/>
</g>
<!-- N9 -->
<g id="node9" class="node">
<title>N9</title>
<path fill="none" stroke="black" d="M388.88,-250.67C388.88,-250.67 228.12,-250.67 228.12,-250.67 222.12,-250.67 216.12,-244.67 216.12,-238.67 216.12,-238.67 216.12,-226.67 216.12,-226.67 216.12,-220.67 222.12,-214.67 228.12,-214.67 228.12,-214.67 388.88,-214.67 388.88,-214.67 394.88,-214.67 400.88,-220.67 400.88,-226.67 400.88,-226.67 400.88,-238.67 400.88,-238.67 400.88,-244.67 394.88,-250.67 388.88,-250.67"/>
<text xml:space="preserve" text-anchor="middle" x="308.5" y="-227.24" font-family="Helvetica,sans-Serif" font-size="14.00">9: while (my_fabs(diff) &gt;= 1)</text>
</g>
<!-- N8&#45;&gt;N9 -->
<g id="edge10" class="edge">
<title>N8&#45;&gt;N9</title>
<path fill="none" stroke="black" d="M263.02,-287.48C270.17,-279.02 278.94,-268.65 286.86,-259.28"/>
<polygon fill="black" stroke="black" points="289.35,-261.75 293.13,-251.85 284,-257.23 289.35,-261.75"/>
</g>
<!-- N9&#45;&gt;N7 -->
<g id="edge11" class="edge">
<title>N9&#45;&gt;N7</title>
<path fill="none" stroke="black" d="M322.9,-250.93C330.33,-260.97 338.63,-274.26 342.5,-287.67 346.94,-303.04 346.94,-308.3 342.5,-323.67 339.75,-333.2 334.76,-342.68 329.44,-350.97"/>
<polygon fill="black" stroke="black" points="326.57,-348.95 323.76,-359.17 332.33,-352.93 326.57,-348.95"/>
<text xml:space="preserve" text-anchor="middle" x="356.33" y="-300.62" font-family="Times New Roman,serif" font-size="14.00">true</text>
</g>
<!-- N10 -->
<g id="node10" class="node">
<title>N10</title>
<path fill="none" stroke="black" d="M348.38,-162.17C348.38,-162.17 268.62,-162.17 268.62,-162.17 262.62,-162.17 256.62,-156.17 256.62,-150.17 256.62,-150.17 256.62,-138.17 256.62,-138.17 256.62,-132.17 262.62,-126.17 268.62,-126.17 268.62,-126.17 348.38,-126.17 348.38,-126.17 354.38,-126.17 360.38,-132.17 360.38,-138.17 360.38,-138.17 360.38,-150.17 360.38,-150.17 360.38,-156.17 354.38,-162.17 348.38,-162.17"/>
<text xml:space="preserve" text-anchor="middle" x="308.5" y="-138.74" font-family="Helvetica,sans-Serif" font-size="14.00">10: return app;</text>
</g>
<!-- N9&#45;&gt;N10 -->
<g id="edge12" class="edge">
<title>N9&#45;&gt;N10</title>
<path fill="none" stroke="black" d="M308.5,-214.58C308.5,-202.93 308.5,-187.22 308.5,-173.69"/>
<polygon fill="black" stroke="black" points="312,-174.03 308.5,-164.03 305,-174.03 312,-174.03"/>
<text xml:space="preserve" text-anchor="middle" x="321.25" y="-183.37" font-family="Times New Roman,serif" font-size="14.00">false</text>
</g>
<!-- N11 -->
<g id="node11" class="node">
<title>N11</title>
<ellipse fill="none" stroke="black" cx="308.5" cy="-44.58" rx="40.58" ry="40.58"/>
<ellipse fill="none" stroke="black" cx="308.5" cy="-44.58" rx="44.58" ry="44.58"/>
<text xml:space="preserve" text-anchor="middle" x="308.5" y="-39.16" font-family="Helvetica,sans-Serif" font-size="14.00">11: Fim</text>
</g>
<!-- N10&#45;&gt;N11 -->
<g id="edge13" class="edge">
<title>N10&#45;&gt;N11</title>
<path fill="none" stroke="black" d="M308.5,-125.72C308.5,-118.55 308.5,-109.82 308.5,-100.78"/>
<polygon fill="black" stroke="black" points="312,-100.79 308.5,-90.79 305,-100.79 312,-100.79"/>
</g>
</g>
</svg>
