<?xml version="1.0" encoding="UTF-8" standalone="no"?>
<!DOCTYPE svg PUBLIC "-//W3C//DTD SVG 1.1//EN"
 "http://www.w3.org/Graphics/SVG/1.1/DTD/svg11.dtd">
<!-- Generated by graphviz version 13.1.2 (20250808.2320)
 -->
<!-- Title: my_sin_DFG Pages: 1 -->
<svg width="206pt" height="332pt"
 viewBox="0.00 0.00 206.00 332.00" xmlns="http://www.w3.org/2000/svg" xmlns:xlink="http://www.w3.org/1999/xlink">
<g id="graph0" class="graph" transform="scale(1 1) rotate(0) translate(4 328)">
<title>my_sin_DFG</title>
<polygon fill="white" stroke="none" points="-4,4 -4,-328 202,-328 202,4 -4,4"/>
<!-- rad_in -->
<g id="node1" class="node">
<title>rad_in</title>
<ellipse fill="lightblue" stroke="black" cx="99" cy="-306" rx="27" ry="18"/>
<text xml:space="preserve" text-anchor="middle" x="99" y="-300.95" font-family="Times New Roman,serif" font-size="14.00">rad</text>
</g>
<!-- op_sub -->
<g id="node2" class="node">
<title>op_sub</title>
<polygon fill="none" stroke="black" points="54,-252 0,-252 0,-216 54,-216 54,-252"/>
<text xml:space="preserve" text-anchor="middle" x="27" y="-228.95" font-family="Times New Roman,serif" font-size="14.00">&#45;=</text>
</g>
<!-- rad_in&#45;&gt;op_sub -->
<g id="edge1" class="edge">
<title>rad_in&#45;&gt;op_sub</title>
<path fill="none" stroke="black" d="M84.08,-290.5C75.11,-281.77 63.44,-270.43 53,-260.28"/>
<polygon fill="black" stroke="black" points="55.65,-257.97 46.04,-253.51 50.77,-262.99 55.65,-257.97"/>
</g>
<!-- op_add -->
<g id="node3" class="node">
<title>op_add</title>
<polygon fill="none" stroke="black" points="126,-252 72,-252 72,-216 126,-216 126,-252"/>
<text xml:space="preserve" text-anchor="middle" x="99" y="-228.95" font-family="Times New Roman,serif" font-size="14.00">+=</text>
</g>
<!-- rad_in&#45;&gt;op_add -->
<g id="edge2" class="edge">
<title>rad_in&#45;&gt;op_add</title>
<path fill="none" stroke="black" d="M99,-287.7C99,-280.41 99,-271.73 99,-263.54"/>
<polygon fill="black" stroke="black" points="102.5,-263.62 99,-253.62 95.5,-263.62 102.5,-263.62"/>
</g>
<!-- op_mult -->
<g id="node4" class="node">
<title>op_mult</title>
<polygon fill="none" stroke="black" points="198,-252 144,-252 144,-216 198,-216 198,-252"/>
<text xml:space="preserve" text-anchor="middle" x="171" y="-228.95" font-family="Times New Roman,serif" font-size="14.00">*</text>
</g>
<!-- rad_in&#45;&gt;op_mult -->
<g id="edge3" class="edge">
<title>rad_in&#45;&gt;op_mult</title>
<path fill="none" stroke="black" d="M113.92,-290.5C122.89,-281.77 134.56,-270.43 145,-260.28"/>
<polygon fill="black" stroke="black" points="147.23,-262.99 151.96,-253.51 142.35,-257.97 147.23,-262.99"/>
</g>
<!-- op_div -->
<g id="node5" class="node">
<title>op_div</title>
<polygon fill="none" stroke="black" points="198,-180 144,-180 144,-144 198,-144 198,-180"/>
<text xml:space="preserve" text-anchor="middle" x="171" y="-156.95" font-family="Times New Roman,serif" font-size="14.00">/</text>
</g>
<!-- op_mult&#45;&gt;op_div -->
<g id="edge4" class="edge">
<title>op_mult&#45;&gt;op_div</title>
<path fill="none" stroke="black" d="M171,-215.7C171,-208.41 171,-199.73 171,-191.54"/>
<polygon fill="black" stroke="black" points="174.5,-191.62 171,-181.62 167.5,-191.62 174.5,-191.62"/>
</g>
<!-- op_assign -->
<g id="node6" class="node">
<title>op_assign</title>
<polygon fill="none" stroke="black" points="198,-108 144,-108 144,-72 198,-72 198,-108"/>
<text xml:space="preserve" text-anchor="middle" x="171" y="-84.95" font-family="Times New Roman,serif" font-size="14.00">=</text>
</g>
<!-- op_div&#45;&gt;op_assign -->
<g id="edge5" class="edge">
<title>op_div&#45;&gt;op_assign</title>
<path fill="none" stroke="black" d="M171,-143.7C171,-136.41 171,-127.73 171,-119.54"/>
<polygon fill="black" stroke="black" points="174.5,-119.62 171,-109.62 167.5,-119.62 174.5,-119.62"/>
</g>
<!-- app_out -->
<g id="node8" class="node">
<title>app_out</title>
<ellipse fill="lightgreen" stroke="black" cx="171" cy="-18" rx="27" ry="18"/>
<text xml:space="preserve" text-anchor="middle" x="171" y="-12.95" font-family="Times New Roman,serif" font-size="14.00">app</text>
</g>
<!-- op_assign&#45;&gt;app_out -->
<g id="edge6" class="edge">
<title>op_assign&#45;&gt;app_out</title>
<path fill="none" stroke="black" d="M171,-71.7C171,-64.41 171,-55.73 171,-47.54"/>
<polygon fill="black" stroke="black" points="174.5,-47.62 171,-37.62 167.5,-47.62 174.5,-47.62"/>
</g>
<!-- op_inc -->
<g id="node7" class="node">
<title>op_inc</title>
<polygon fill="none" stroke="black" points="198,-324 144,-324 144,-288 198,-288 198,-324"/>
<text xml:space="preserve" text-anchor="middle" x="171" y="-300.95" font-family="Times New Roman,serif" font-size="14.00">++</text>
</g>
<!-- op_inc&#45;&gt;op_mult -->
<g id="edge7" class="edge">
<title>op_inc&#45;&gt;op_mult</title>
<path fill="none" stroke="black" d="M171,-287.7C171,-280.41 171,-271.73 171,-263.54"/>
<polygon fill="black" stroke="black" points="174.5,-263.62 171,-253.62 167.5,-263.62 174.5,-263.62"/>
</g>
</g>
</svg>
