<?xml version="1.0" encoding="UTF-8" standalone="no"?>
<!DOCTYPE svg PUBLIC "-//W3C//DTD SVG 1.1//EN"
 "http://www.w3.org/Graphics/SVG/1.1/DTD/svg11.dtd">
<!-- Generated by graphviz version 13.1.2 (20250808.2320)
 -->
<!-- Title: fib_DFG Pages: 1 -->
<svg width="358pt" height="476pt"
 viewBox="0.00 0.00 358.00 476.00" xmlns="http://www.w3.org/2000/svg" xmlns:xlink="http://www.w3.org/1999/xlink">
<g id="graph0" class="graph" transform="scale(1 1) rotate(0) translate(4 472)">
<title>fib_DFG</title>
<polygon fill="white" stroke="none" points="-4,4 -4,-472 353.5,-472 353.5,4 -4,4"/>
<!-- n_input -->
<g id="node1" class="node">
<title>n_input</title>
<ellipse fill="lightblue" stroke="black" cx="60.88" cy="-450" rx="43.16" ry="18"/>
<text xml:space="preserve" text-anchor="middle" x="60.88" y="-444.95" font-family="Times New Roman,serif" font-size="14.00">n (input)</text>
</g>
<!-- op_cond -->
<g id="node4" class="node">
<title>op_cond</title>
<polygon fill="none" stroke="black" points="121.75,-396 0,-396 0,-360 121.75,-360 121.75,-396"/>
<text xml:space="preserve" text-anchor="middle" x="60.88" y="-372.95" font-family="Times New Roman,serif" font-size="14.00">i &lt;= 30 &amp;&amp; i &lt;= n</text>
</g>
<!-- n_input&#45;&gt;op_cond -->
<g id="edge1" class="edge">
<title>n_input&#45;&gt;op_cond</title>
<path fill="none" stroke="black" d="M60.88,-431.7C60.88,-424.41 60.88,-415.73 60.88,-407.54"/>
<polygon fill="black" stroke="black" points="64.38,-407.62 60.88,-397.62 57.38,-407.62 64.38,-407.62"/>
</g>
<!-- op_init_fnew -->
<g id="node2" class="node">
<title>op_init_fnew</title>
<polygon fill="none" stroke="black" points="255.12,-468 186.62,-468 186.62,-432 255.12,-432 255.12,-468"/>
<text xml:space="preserve" text-anchor="middle" x="220.88" y="-444.95" font-family="Times New Roman,serif" font-size="14.00">Fnew = 1</text>
</g>
<!-- op_temp -->
<g id="node5" class="node">
<title>op_temp</title>
<polygon fill="none" stroke="black" points="229.62,-396 140.12,-396 140.12,-360 229.62,-360 229.62,-396"/>
<text xml:space="preserve" text-anchor="middle" x="184.88" y="-372.95" font-family="Times New Roman,serif" font-size="14.00">temp = Fnew</text>
</g>
<!-- op_init_fnew&#45;&gt;op_temp -->
<g id="edge2" class="edge">
<title>op_init_fnew&#45;&gt;op_temp</title>
<path fill="none" stroke="black" d="M211.98,-431.7C208.01,-423.98 203.24,-414.71 198.82,-406.11"/>
<polygon fill="black" stroke="black" points="202.05,-404.74 194.36,-397.45 195.82,-407.94 202.05,-404.74"/>
</g>
<!-- op_add -->
<g id="node6" class="node">
<title>op_add</title>
<polygon fill="none" stroke="black" points="266.12,-252 179.62,-252 179.62,-216 266.12,-216 266.12,-252"/>
<text xml:space="preserve" text-anchor="middle" x="222.88" y="-228.95" font-family="Times New Roman,serif" font-size="14.00">Fnew + Fold</text>
</g>
<!-- op_init_fnew&#45;&gt;op_add -->
<g id="edge3" class="edge">
<title>op_init_fnew&#45;&gt;op_add</title>
<path fill="none" stroke="black" d="M228.35,-431.7C232.35,-421.52 236.85,-408.27 238.88,-396 246.7,-348.64 245.89,-335.49 238.88,-288 237.67,-279.82 235.47,-271.16 233.07,-263.26"/>
<polygon fill="black" stroke="black" points="236.42,-262.23 230,-253.81 229.77,-264.4 236.42,-262.23"/>
</g>
<!-- op_init_fold -->
<g id="node3" class="node">
<title>op_init_fold</title>
<polygon fill="none" stroke="black" points="349.5,-324 286.25,-324 286.25,-288 349.5,-288 349.5,-324"/>
<text xml:space="preserve" text-anchor="middle" x="317.88" y="-300.95" font-family="Times New Roman,serif" font-size="14.00">Fold = 0</text>
</g>
<!-- op_init_fold&#45;&gt;op_add -->
<g id="edge4" class="edge">
<title>op_init_fold&#45;&gt;op_add</title>
<path fill="none" stroke="black" d="M294.39,-287.7C282.63,-279.03 268.2,-268.4 255.4,-258.96"/>
<polygon fill="black" stroke="black" points="257.76,-256.36 247.64,-253.24 253.61,-261.99 257.76,-256.36"/>
</g>
<!-- op_assign_fold -->
<g id="node8" class="node">
<title>op_assign_fold</title>
<polygon fill="none" stroke="black" points="230,-324 145.75,-324 145.75,-288 230,-288 230,-324"/>
<text xml:space="preserve" text-anchor="middle" x="187.88" y="-300.95" font-family="Times New Roman,serif" font-size="14.00">Fold = temp</text>
</g>
<!-- op_temp&#45;&gt;op_assign_fold -->
<g id="edge9" class="edge">
<title>op_temp&#45;&gt;op_assign_fold</title>
<path fill="none" stroke="black" d="M185.62,-359.7C185.93,-352.41 186.3,-343.73 186.65,-335.54"/>
<polygon fill="black" stroke="black" points="190.15,-335.76 187.08,-325.62 183.15,-335.46 190.15,-335.76"/>
</g>
<!-- op_assign_fnew -->
<g id="node7" class="node">
<title>op_assign_fnew</title>
<polygon fill="none" stroke="black" points="259.38,-180 186.38,-180 186.38,-144 259.38,-144 259.38,-180"/>
<text xml:space="preserve" text-anchor="middle" x="222.88" y="-156.95" font-family="Times New Roman,serif" font-size="14.00">Fnew = ...</text>
</g>
<!-- op_add&#45;&gt;op_assign_fnew -->
<g id="edge5" class="edge">
<title>op_add&#45;&gt;op_assign_fnew</title>
<path fill="none" stroke="black" d="M216.96,-215.7C216.21,-208.41 215.96,-199.73 216.23,-191.54"/>
<polygon fill="black" stroke="black" points="219.72,-191.82 216.88,-181.61 212.73,-191.36 219.72,-191.82"/>
</g>
<!-- op_assign_fnew&#45;&gt;op_temp -->
<g id="edge6" class="edge">
<title>op_assign_fnew&#45;&gt;op_temp</title>
<path fill="none" stroke="black" stroke-dasharray="5,2" d="M202.94,-180.28C192.5,-190.04 180.01,-202.89 170.88,-216 150.64,-245.04 144.62,-253.47 136.88,-288 133.37,-303.61 131.12,-309.07 136.88,-324 140.78,-334.12 147.61,-343.51 154.92,-351.49"/>
<polygon fill="black" stroke="black" points="152.32,-353.84 161.85,-358.48 157.29,-348.91 152.32,-353.84"/>
</g>
<!-- op_assign_fnew&#45;&gt;op_add -->
<g id="edge7" class="edge">
<title>op_assign_fnew&#45;&gt;op_add</title>
<path fill="none" stroke="black" stroke-dasharray="5,2" d="M228.77,-180.1C229.53,-187.37 229.78,-196.04 229.53,-204.24"/>
<polygon fill="black" stroke="black" points="226.04,-203.98 228.89,-214.19 233.02,-204.43 226.04,-203.98"/>
</g>
<!-- op_ans -->
<g id="node10" class="node">
<title>op_ans</title>
<polygon fill="none" stroke="black" points="262.75,-108 183,-108 183,-72 262.75,-72 262.75,-108"/>
<text xml:space="preserve" text-anchor="middle" x="222.88" y="-84.95" font-family="Times New Roman,serif" font-size="14.00">ans = Fnew</text>
</g>
<!-- op_assign_fnew&#45;&gt;op_ans -->
<g id="edge8" class="edge">
<title>op_assign_fnew&#45;&gt;op_ans</title>
<path fill="none" stroke="black" d="M222.88,-143.7C222.88,-136.41 222.88,-127.73 222.88,-119.54"/>
<polygon fill="black" stroke="black" points="226.38,-119.62 222.88,-109.62 219.38,-119.62 226.38,-119.62"/>
</g>
<!-- op_assign_fold&#45;&gt;op_add -->
<g id="edge10" class="edge">
<title>op_assign_fold&#45;&gt;op_add</title>
<path fill="none" stroke="black" stroke-dasharray="5,2" d="M196.53,-287.7C200.34,-280.07 204.92,-270.92 209.18,-262.4"/>
<polygon fill="black" stroke="black" points="212.3,-263.97 213.65,-253.46 206.04,-260.84 212.3,-263.97"/>
</g>
<!-- op_inc_i -->
<g id="node9" class="node">
<title>op_inc_i</title>
<polygon fill="none" stroke="black" points="326.88,-468 272.88,-468 272.88,-432 326.88,-432 326.88,-468"/>
<text xml:space="preserve" text-anchor="middle" x="299.88" y="-444.95" font-family="Times New Roman,serif" font-size="14.00">i++</text>
</g>
<!-- ans_output -->
<g id="node11" class="node">
<title>ans_output</title>
<ellipse fill="lightgreen" stroke="black" cx="222.88" cy="-18" rx="55.45" ry="18"/>
<text xml:space="preserve" text-anchor="middle" x="222.88" y="-12.95" font-family="Times New Roman,serif" font-size="14.00">ans (output)</text>
</g>
<!-- op_ans&#45;&gt;ans_output -->
<g id="edge11" class="edge">
<title>op_ans&#45;&gt;ans_output</title>
<path fill="none" stroke="black" d="M222.88,-71.7C222.88,-64.41 222.88,-55.73 222.88,-47.54"/>
<polygon fill="black" stroke="black" points="226.38,-47.62 222.88,-37.62 219.38,-47.62 226.38,-47.62"/>
</g>
</g>
</svg>
