<?xml version="1.0" encoding="UTF-8" standalone="no"?>
<!DOCTYPE svg PUBLIC "-//W3C//DTD SVG 1.1//EN"
 "http://www.w3.org/Graphics/SVG/1.1/DTD/svg11.dtd">
<!-- Generated by graphviz version 13.1.2 (20250808.2320)
 -->
<!-- Title: Initialize_DFG Pages: 1 -->
<svg width="303pt" height="260pt"
 viewBox="0.00 0.00 303.00 260.00" xmlns="http://www.w3.org/2000/svg" xmlns:xlink="http://www.w3.org/1999/xlink">
<g id="graph0" class="graph" transform="scale(1 1) rotate(0) translate(4 256)">
<title>Initialize_DFG</title>
<polygon fill="white" stroke="none" points="-4,4 -4,-256 299,-256 299,4 -4,4"/>
<!-- OuterIndex -->
<g id="node1" class="node">
<title>OuterIndex</title>
<ellipse fill="none" stroke="black" cx="208" cy="-162" rx="52.89" ry="18"/>
<text xml:space="preserve" text-anchor="middle" x="208" y="-156.95" font-family="Times New Roman,serif" font-size="14.00">OuterIndex</text>
</g>
<!-- AssignArray -->
<g id="node6" class="node">
<title>AssignArray</title>
<polygon fill="none" stroke="black" points="174,-108 120,-108 120,-72 174,-72 174,-108"/>
<text xml:space="preserve" text-anchor="middle" x="147" y="-84.95" font-family="Times New Roman,serif" font-size="14.00">=</text>
</g>
<!-- OuterIndex&#45;&gt;AssignArray -->
<g id="edge3" class="edge">
<title>OuterIndex&#45;&gt;AssignArray</title>
<path fill="none" stroke="black" d="M193.54,-144.41C186.39,-136.2 177.59,-126.1 169.57,-116.9"/>
<polygon fill="black" stroke="black" points="172.41,-114.83 163.2,-109.59 167.13,-119.43 172.41,-114.83"/>
</g>
<!-- InnerIndex -->
<g id="node2" class="node">
<title>InnerIndex</title>
<ellipse fill="none" stroke="black" cx="86" cy="-162" rx="51.35" ry="18"/>
<text xml:space="preserve" text-anchor="middle" x="86" y="-156.95" font-family="Times New Roman,serif" font-size="14.00">InnerIndex</text>
</g>
<!-- InnerIndex&#45;&gt;AssignArray -->
<g id="edge4" class="edge">
<title>InnerIndex&#45;&gt;AssignArray</title>
<path fill="none" stroke="black" d="M100.46,-144.41C107.61,-136.2 116.41,-126.1 124.43,-116.9"/>
<polygon fill="black" stroke="black" points="126.87,-119.43 130.8,-109.59 121.59,-114.83 126.87,-119.43"/>
</g>
<!-- Array -->
<g id="node3" class="node">
<title>Array</title>
<ellipse fill="none" stroke="black" cx="147" cy="-18" rx="32.41" ry="18"/>
<text xml:space="preserve" text-anchor="middle" x="147" y="-12.95" font-family="Times New Roman,serif" font-size="14.00">Array</text>
</g>
<!-- AssignOuter -->
<g id="node4" class="node">
<title>AssignOuter</title>
<polygon fill="none" stroke="black" points="223,-252 169,-252 169,-216 223,-216 223,-252"/>
<text xml:space="preserve" text-anchor="middle" x="196" y="-228.95" font-family="Times New Roman,serif" font-size="14.00">=</text>
</g>
<!-- AssignOuter&#45;&gt;OuterIndex -->
<g id="edge1" class="edge">
<title>AssignOuter&#45;&gt;OuterIndex</title>
<path fill="none" stroke="black" d="M198.97,-215.7C200.23,-208.32 201.74,-199.52 203.16,-191.25"/>
<polygon fill="black" stroke="black" points="206.57,-192.04 204.81,-181.6 199.67,-190.86 206.57,-192.04"/>
</g>
<!-- AssignInner -->
<g id="node5" class="node">
<title>AssignInner</title>
<polygon fill="none" stroke="black" points="54,-252 0,-252 0,-216 54,-216 54,-252"/>
<text xml:space="preserve" text-anchor="middle" x="27" y="-228.95" font-family="Times New Roman,serif" font-size="14.00">=</text>
</g>
<!-- AssignInner&#45;&gt;InnerIndex -->
<g id="edge2" class="edge">
<title>AssignInner&#45;&gt;InnerIndex</title>
<path fill="none" stroke="black" d="M41.58,-215.7C48.55,-207.44 57.01,-197.39 64.68,-188.3"/>
<polygon fill="black" stroke="black" points="67.25,-190.68 71.01,-180.78 61.89,-186.17 67.25,-190.68"/>
</g>
<!-- AssignArray&#45;&gt;Array -->
<g id="edge5" class="edge">
<title>AssignArray&#45;&gt;Array</title>
<path fill="none" stroke="black" d="M147,-71.7C147,-64.41 147,-55.73 147,-47.54"/>
<polygon fill="black" stroke="black" points="150.5,-47.62 147,-37.62 143.5,-47.62 150.5,-47.62"/>
</g>
<!-- IncInner -->
<g id="node7" class="node">
<title>IncInner</title>
<polygon fill="none" stroke="black" points="126,-252 72,-252 72,-216 126,-216 126,-252"/>
<text xml:space="preserve" text-anchor="middle" x="99" y="-228.95" font-family="Times New Roman,serif" font-size="14.00">++</text>
</g>
<!-- IncInner&#45;&gt;InnerIndex -->
<g id="edge6" class="edge">
<title>IncInner&#45;&gt;InnerIndex</title>
<path fill="none" stroke="black" d="M95.79,-215.7C94.42,-208.32 92.78,-199.52 91.25,-191.25"/>
<polygon fill="black" stroke="black" points="94.72,-190.79 89.45,-181.59 87.84,-192.06 94.72,-190.79"/>
</g>
<!-- IncOuter -->
<g id="node8" class="node">
<title>IncOuter</title>
<polygon fill="none" stroke="black" points="295,-252 241,-252 241,-216 295,-216 295,-252"/>
<text xml:space="preserve" text-anchor="middle" x="268" y="-228.95" font-family="Times New Roman,serif" font-size="14.00">++</text>
</g>
<!-- IncOuter&#45;&gt;OuterIndex -->
<g id="edge7" class="edge">
<title>IncOuter&#45;&gt;OuterIndex</title>
<path fill="none" stroke="black" d="M253.17,-215.7C246.09,-207.44 237.48,-197.39 229.69,-188.3"/>
<polygon fill="black" stroke="black" points="232.4,-186.09 223.23,-180.77 227.08,-190.64 232.4,-186.09"/>
</g>
</g>
</svg>
