<?xml version="1.0" encoding="UTF-8" standalone="no"?>
<!DOCTYPE svg PUBLIC "-//W3C//DTD SVG 1.1//EN"
 "http://www.w3.org/Graphics/SVG/1.1/DTD/svg11.dtd">
<!-- Generated by graphviz version 13.1.2 (20250808.2320)
 -->
<!-- Title: main_CFG Pages: 1 -->
<svg width="91pt" height="188pt"
 viewBox="0.00 0.00 91.00 188.00" xmlns="http://www.w3.org/2000/svg" xmlns:xlink="http://www.w3.org/1999/xlink">
<g id="graph0" class="graph" transform="scale(1 1) rotate(0) translate(4 184)">
<title>main_CFG</title>
<polygon fill="white" stroke="none" points="-4,4 -4,-184 86.75,-184 86.75,4 -4,4"/>
<!-- N1 -->
<g id="node1" class="node">
<title>N1</title>
<polygon fill="none" stroke="black" points="78.25,-180 4.5,-180 4.5,-144 78.25,-144 78.25,-180"/>
<text xml:space="preserve" text-anchor="middle" x="41.38" y="-156.95" font-family="Times New Roman,serif" font-size="14.00">InitSeed();</text>
</g>
<!-- N2 -->
<g id="node2" class="node">
<title>N2</title>
<polygon fill="none" stroke="black" points="82.75,-108 0,-108 0,-72 82.75,-72 82.75,-108"/>
<text xml:space="preserve" text-anchor="middle" x="41.38" y="-84.95" font-family="Times New Roman,serif" font-size="14.00">Test(Array);</text>
</g>
<!-- N1&#45;&gt;N2 -->
<g id="edge1" class="edge">
<title>N1&#45;&gt;N2</title>
<path fill="none" stroke="black" d="M41.38,-143.7C41.38,-136.41 41.38,-127.73 41.38,-119.54"/>
<polygon fill="black" stroke="black" points="44.88,-119.62 41.38,-109.62 37.88,-119.62 44.88,-119.62"/>
</g>
<!-- N3 -->
<g id="node3" class="node">
<title>N3</title>
<polygon fill="none" stroke="black" points="72.62,-36 10.12,-36 10.12,0 72.62,0 72.62,-36"/>
<text xml:space="preserve" text-anchor="middle" x="41.38" y="-12.95" font-family="Times New Roman,serif" font-size="14.00">return 1;</text>
</g>
<!-- N2&#45;&gt;N3 -->
<g id="edge2" class="edge">
<title>N2&#45;&gt;N3</title>
<path fill="none" stroke="black" d="M41.38,-71.7C41.38,-64.41 41.38,-55.73 41.38,-47.54"/>
<polygon fill="black" stroke="black" points="44.88,-47.62 41.38,-37.62 37.88,-47.62 44.88,-47.62"/>
</g>
</g>
</svg>
