<?xml version="1.0" encoding="UTF-8" standalone="no"?>
<!DOCTYPE svg PUBLIC "-//W3C//DTD SVG 1.1//EN"
 "http://www.w3.org/Graphics/SVG/1.1/DTD/svg11.dtd">
<!-- Generated by graphviz version 13.1.2 (20250808.2320)
 -->
<!-- Title: Sum_CFG Pages: 1 -->
<svg width="1023pt" height="602pt"
 viewBox="0.00 0.00 1023.00 602.00" xmlns="http://www.w3.org/2000/svg" xmlns:xlink="http://www.w3.org/1999/xlink">
<g id="graph0" class="graph" transform="scale(1 1) rotate(0) translate(4 597.5)">
<title>Sum_CFG</title>
<polygon fill="white" stroke="none" points="-4,4 -4,-597.5 1018.5,-597.5 1018.5,4 -4,4"/>
<!-- N1 -->
<g id="node1" class="node">
<title>N1</title>
<polygon fill="none" stroke="black" points="724.5,-593.5 476.75,-593.5 476.75,-557.5 724.5,-557.5 724.5,-593.5"/>
<text xml:space="preserve" text-anchor="middle" x="600.62" y="-570.45" font-family="Times New Roman,serif" font-size="14.00">Ptotal = 0; Ntotal = 0; Pcnt = 0; Ncnt = 0;</text>
</g>
<!-- N2 -->
<g id="node2" class="node">
<title>N2</title>
<polygon fill="none" stroke="black" points="635.25,-520.5 566,-520.5 566,-484.5 635.25,-484.5 635.25,-520.5"/>
<text xml:space="preserve" text-anchor="middle" x="600.62" y="-497.45" font-family="Times New Roman,serif" font-size="14.00">Outer = 0</text>
</g>
<!-- N1&#45;&gt;N2 -->
<g id="edge1" class="edge">
<title>N1&#45;&gt;N2</title>
<path fill="none" stroke="black" d="M600.62,-557.31C600.62,-549.73 600.62,-540.6 600.62,-532.04"/>
<polygon fill="black" stroke="black" points="604.13,-532.04 600.63,-522.04 597.13,-532.04 604.13,-532.04"/>
</g>
<!-- N3 -->
<g id="node3" class="node">
<title>N3</title>
<polygon fill="none" stroke="black" points="665.25,-447.5 536,-447.5 536,-411.5 665.25,-411.5 665.25,-447.5"/>
<text xml:space="preserve" text-anchor="middle" x="600.62" y="-424.45" font-family="Times New Roman,serif" font-size="14.00">Outer &lt; MAXSIZE?</text>
</g>
<!-- N2&#45;&gt;N3 -->
<g id="edge2" class="edge">
<title>N2&#45;&gt;N3</title>
<path fill="none" stroke="black" d="M600.62,-484.31C600.62,-476.73 600.62,-467.6 600.62,-459.04"/>
<polygon fill="black" stroke="black" points="604.13,-459.04 600.63,-449.04 597.13,-459.04 604.13,-459.04"/>
</g>
<!-- N4 -->
<g id="node4" class="node">
<title>N4</title>
<polygon fill="none" stroke="black" points="565.12,-359 498.12,-359 498.12,-323 565.12,-323 565.12,-359"/>
<text xml:space="preserve" text-anchor="middle" x="531.62" y="-335.95" font-family="Times New Roman,serif" font-size="14.00">Inner = 0</text>
</g>
<!-- N3&#45;&gt;N4 -->
<g id="edge3" class="edge">
<title>N3&#45;&gt;N4</title>
<path fill="none" stroke="black" d="M582.09,-411.35C576.55,-405.87 570.62,-399.63 565.62,-393.5 559.36,-385.83 553.19,-376.98 547.86,-368.81"/>
<polygon fill="black" stroke="black" points="550.95,-367.15 542.64,-360.58 545.04,-370.9 550.95,-367.15"/>
<text xml:space="preserve" text-anchor="middle" x="576.12" y="-380.2" font-family="Times New Roman,serif" font-size="14.00">true</text>
</g>
<!-- N11 -->
<g id="node11" class="node">
<title>N11</title>
<polygon fill="none" stroke="black" points="1014.5,-359 628.75,-359 628.75,-323 1014.5,-323 1014.5,-359"/>
<text xml:space="preserve" text-anchor="middle" x="821.62" y="-335.95" font-family="Times New Roman,serif" font-size="14.00">Postotal = Ptotal; Poscnt = Pcnt; Negtotal = Ntotal; Negcnt = Ncnt;</text>
</g>
<!-- N3&#45;&gt;N11 -->
<g id="edge4" class="edge">
<title>N3&#45;&gt;N11</title>
<path fill="none" stroke="black" d="M645.08,-411.1C680.22,-397.35 729.44,-378.08 766.98,-363.39"/>
<polygon fill="black" stroke="black" points="767.79,-366.83 775.83,-359.92 765.24,-360.31 767.79,-366.83"/>
<text xml:space="preserve" text-anchor="middle" x="743.67" y="-380.2" font-family="Times New Roman,serif" font-size="14.00">false</text>
</g>
<!-- N5 -->
<g id="node5" class="node">
<title>N5</title>
<polygon fill="none" stroke="black" points="572.12,-286 445.12,-286 445.12,-250 572.12,-250 572.12,-286"/>
<text xml:space="preserve" text-anchor="middle" x="508.62" y="-262.95" font-family="Times New Roman,serif" font-size="14.00">Inner &lt; MAXSIZE?</text>
</g>
<!-- N4&#45;&gt;N5 -->
<g id="edge5" class="edge">
<title>N4&#45;&gt;N5</title>
<path fill="none" stroke="black" d="M526.06,-322.81C523.54,-315.05 520.51,-305.68 517.68,-296.95"/>
<polygon fill="black" stroke="black" points="521.02,-295.9 514.61,-287.47 514.36,-298.06 521.02,-295.9"/>
</g>
<!-- N6 -->
<g id="node6" class="node">
<title>N6</title>
<polygon fill="none" stroke="black" points="444.25,-197.5 291,-197.5 291,-161.5 444.25,-161.5 444.25,-197.5"/>
<text xml:space="preserve" text-anchor="middle" x="367.62" y="-174.45" font-family="Times New Roman,serif" font-size="14.00">Array[Outer][Inner] &lt; 0?</text>
</g>
<!-- N5&#45;&gt;N6 -->
<g id="edge6" class="edge">
<title>N5&#45;&gt;N6</title>
<path fill="none" stroke="black" d="M480.43,-249.7C458.91,-236.5 429.05,-218.18 405.46,-203.71"/>
<polygon fill="black" stroke="black" points="407.41,-200.8 397.06,-198.56 403.75,-206.77 407.41,-200.8"/>
<text xml:space="preserve" text-anchor="middle" x="461.25" y="-218.7" font-family="Times New Roman,serif" font-size="14.00">true</text>
</g>
<!-- N10 -->
<g id="node10" class="node">
<title>N10</title>
<polygon fill="none" stroke="black" points="619.25,-197.5 556,-197.5 556,-161.5 619.25,-161.5 619.25,-197.5"/>
<text xml:space="preserve" text-anchor="middle" x="587.62" y="-174.45" font-family="Times New Roman,serif" font-size="14.00">Outer++</text>
</g>
<!-- N5&#45;&gt;N10 -->
<g id="edge7" class="edge">
<title>N5&#45;&gt;N10</title>
<path fill="none" stroke="black" d="M524.23,-249.91C535.63,-237.43 551.27,-220.3 564.17,-206.18"/>
<polygon fill="black" stroke="black" points="566.6,-208.71 570.76,-198.97 561.43,-203.99 566.6,-208.71"/>
<text xml:space="preserve" text-anchor="middle" x="567.95" y="-218.7" font-family="Times New Roman,serif" font-size="14.00">false</text>
</g>
<!-- N7 -->
<g id="node7" class="node">
<title>N7</title>
<polygon fill="none" stroke="black" points="231.25,-109 0,-109 0,-73 231.25,-73 231.25,-109"/>
<text xml:space="preserve" text-anchor="middle" x="115.62" y="-85.95" font-family="Times New Roman,serif" font-size="14.00">Ptotal += Array[Outer][Inner]; Pcnt++;</text>
</g>
<!-- N6&#45;&gt;N7 -->
<g id="edge8" class="edge">
<title>N6&#45;&gt;N7</title>
<path fill="none" stroke="black" d="M316.93,-161.1C276.61,-147.26 220.02,-127.84 177.11,-113.11"/>
<polygon fill="black" stroke="black" points="178.26,-109.8 167.67,-109.86 175.99,-116.42 178.26,-109.8"/>
<text xml:space="preserve" text-anchor="middle" x="274.7" y="-130.2" font-family="Times New Roman,serif" font-size="14.00">true</text>
</g>
<!-- N8 -->
<g id="node8" class="node">
<title>N8</title>
<polygon fill="none" stroke="black" points="485.5,-109 249.75,-109 249.75,-73 485.5,-73 485.5,-109"/>
<text xml:space="preserve" text-anchor="middle" x="367.62" y="-85.95" font-family="Times New Roman,serif" font-size="14.00">Ntotal += Array[Outer][Inner]; Ncnt++;</text>
</g>
<!-- N6&#45;&gt;N8 -->
<g id="edge9" class="edge">
<title>N6&#45;&gt;N8</title>
<path fill="none" stroke="black" d="M367.62,-161.41C367.62,-149.76 367.62,-134.05 367.62,-120.52"/>
<polygon fill="black" stroke="black" points="371.13,-120.86 367.63,-110.86 364.13,-120.86 371.13,-120.86"/>
<text xml:space="preserve" text-anchor="middle" x="380.38" y="-130.2" font-family="Times New Roman,serif" font-size="14.00">false</text>
</g>
<!-- N9 -->
<g id="node9" class="node">
<title>N9</title>
<polygon fill="none" stroke="black" points="398.12,-36 337.12,-36 337.12,0 398.12,0 398.12,-36"/>
<text xml:space="preserve" text-anchor="middle" x="367.62" y="-12.95" font-family="Times New Roman,serif" font-size="14.00">Inner++</text>
</g>
<!-- N7&#45;&gt;N9 -->
<g id="edge10" class="edge">
<title>N7&#45;&gt;N9</title>
<path fill="none" stroke="black" d="M177.59,-72.54C223.72,-59.55 285.43,-42.16 325.84,-30.77"/>
<polygon fill="black" stroke="black" points="326.76,-34.15 335.44,-28.07 324.86,-27.41 326.76,-34.15"/>
</g>
<!-- N8&#45;&gt;N9 -->
<g id="edge11" class="edge">
<title>N8&#45;&gt;N9</title>
<path fill="none" stroke="black" d="M367.62,-72.81C367.62,-65.23 367.62,-56.1 367.62,-47.54"/>
<polygon fill="black" stroke="black" points="371.13,-47.54 367.63,-37.54 364.13,-47.54 371.13,-47.54"/>
</g>
<!-- N9&#45;&gt;N5 -->
<g id="edge12" class="edge">
<title>N9&#45;&gt;N5</title>
<path fill="none" stroke="black" d="M398.41,-22.93C428.3,-28.51 472.34,-41.81 494.62,-73 529.84,-122.28 522.58,-197.74 515.08,-238.51"/>
<polygon fill="black" stroke="black" points="511.66,-237.76 513.14,-248.25 518.52,-239.13 511.66,-237.76"/>
</g>
<!-- N10&#45;&gt;N3 -->
<g id="edge13" class="edge">
<title>N10&#45;&gt;N3</title>
<path fill="none" stroke="black" d="M588.54,-197.92C590.75,-240.05 596.4,-347.82 599.12,-399.72"/>
<polygon fill="black" stroke="black" points="595.61,-399.75 599.63,-409.55 602.6,-399.38 595.61,-399.75"/>
</g>
</g>
</svg>
