<?xml version="1.0" encoding="UTF-8" standalone="no"?>
<!DOCTYPE svg PUBLIC "-//W3C//DTD SVG 1.1//EN"
 "http://www.w3.org/Graphics/SVG/1.1/DTD/svg11.dtd">
<!-- Generated by graphviz version 13.1.2 (20250808.2320)
 -->
<!-- Title: Sum_DFG Pages: 1 -->
<svg width="502pt" height="332pt"
 viewBox="0.00 0.00 502.00 332.00" xmlns="http://www.w3.org/2000/svg" xmlns:xlink="http://www.w3.org/1999/xlink">
<g id="graph0" class="graph" transform="scale(1 1) rotate(0) translate(4 328)">
<title>Sum_DFG</title>
<polygon fill="white" stroke="none" points="-4,4 -4,-328 498,-328 498,4 -4,4"/>
<!-- Ptotal -->
<g id="node1" class="node">
<title>Ptotal</title>
<ellipse fill="none" stroke="black" cx="179" cy="-162" rx="32.41" ry="18"/>
<text xml:space="preserve" text-anchor="middle" x="179" y="-156.95" font-family="Times New Roman,serif" font-size="14.00">Ptotal</text>
</g>
<!-- AssignPostotal -->
<g id="node15" class="node">
<title>AssignPostotal</title>
<polygon fill="none" stroke="black" points="206,-108 152,-108 152,-72 206,-72 206,-108"/>
<text xml:space="preserve" text-anchor="middle" x="179" y="-84.95" font-family="Times New Roman,serif" font-size="14.00">=</text>
</g>
<!-- Ptotal&#45;&gt;AssignPostotal -->
<g id="edge11" class="edge">
<title>Ptotal&#45;&gt;AssignPostotal</title>
<path fill="none" stroke="black" d="M179,-143.7C179,-136.41 179,-127.73 179,-119.54"/>
<polygon fill="black" stroke="black" points="182.5,-119.62 179,-109.62 175.5,-119.62 182.5,-119.62"/>
</g>
<!-- Ntotal -->
<g id="node2" class="node">
<title>Ntotal</title>
<ellipse fill="none" stroke="black" cx="66" cy="-162" rx="33.95" ry="18"/>
<text xml:space="preserve" text-anchor="middle" x="66" y="-156.95" font-family="Times New Roman,serif" font-size="14.00">Ntotal</text>
</g>
<!-- AssignNegtotal -->
<g id="node17" class="node">
<title>AssignNegtotal</title>
<polygon fill="none" stroke="black" points="93,-108 39,-108 39,-72 93,-72 93,-108"/>
<text xml:space="preserve" text-anchor="middle" x="66" y="-84.95" font-family="Times New Roman,serif" font-size="14.00">=</text>
</g>
<!-- Ntotal&#45;&gt;AssignNegtotal -->
<g id="edge13" class="edge">
<title>Ntotal&#45;&gt;AssignNegtotal</title>
<path fill="none" stroke="black" d="M66,-143.7C66,-136.41 66,-127.73 66,-119.54"/>
<polygon fill="black" stroke="black" points="69.5,-119.62 66,-109.62 62.5,-119.62 69.5,-119.62"/>
</g>
<!-- Pcnt -->
<g id="node3" class="node">
<title>Pcnt</title>
<ellipse fill="none" stroke="black" cx="279" cy="-162" rx="27.3" ry="18"/>
<text xml:space="preserve" text-anchor="middle" x="279" y="-156.95" font-family="Times New Roman,serif" font-size="14.00">Pcnt</text>
</g>
<!-- AssignPoscnt -->
<g id="node16" class="node">
<title>AssignPoscnt</title>
<polygon fill="none" stroke="black" points="306,-108 252,-108 252,-72 306,-72 306,-108"/>
<text xml:space="preserve" text-anchor="middle" x="279" y="-84.95" font-family="Times New Roman,serif" font-size="14.00">=</text>
</g>
<!-- Pcnt&#45;&gt;AssignPoscnt -->
<g id="edge12" class="edge">
<title>Pcnt&#45;&gt;AssignPoscnt</title>
<path fill="none" stroke="black" d="M279,-143.7C279,-136.41 279,-127.73 279,-119.54"/>
<polygon fill="black" stroke="black" points="282.5,-119.62 279,-109.62 275.5,-119.62 282.5,-119.62"/>
</g>
<!-- Ncnt -->
<g id="node4" class="node">
<title>Ncnt</title>
<ellipse fill="none" stroke="black" cx="434" cy="-162" rx="28.83" ry="18"/>
<text xml:space="preserve" text-anchor="middle" x="434" y="-156.95" font-family="Times New Roman,serif" font-size="14.00">Ncnt</text>
</g>
<!-- AssignNegcnt -->
<g id="node18" class="node">
<title>AssignNegcnt</title>
<polygon fill="none" stroke="black" points="461,-108 407,-108 407,-72 461,-72 461,-108"/>
<text xml:space="preserve" text-anchor="middle" x="434" y="-84.95" font-family="Times New Roman,serif" font-size="14.00">=</text>
</g>
<!-- Ncnt&#45;&gt;AssignNegcnt -->
<g id="edge14" class="edge">
<title>Ncnt&#45;&gt;AssignNegcnt</title>
<path fill="none" stroke="black" d="M434,-143.7C434,-136.41 434,-127.73 434,-119.54"/>
<polygon fill="black" stroke="black" points="437.5,-119.62 434,-109.62 430.5,-119.62 437.5,-119.62"/>
</g>
<!-- Array -->
<g id="node5" class="node">
<title>Array</title>
<ellipse fill="none" stroke="black" cx="63" cy="-306" rx="32.41" ry="18"/>
<text xml:space="preserve" text-anchor="middle" x="63" y="-300.95" font-family="Times New Roman,serif" font-size="14.00">Array</text>
</g>
<!-- UpdatePtotal -->
<g id="node11" class="node">
<title>UpdatePtotal</title>
<polygon fill="none" stroke="black" points="126,-252 72,-252 72,-216 126,-216 126,-252"/>
<text xml:space="preserve" text-anchor="middle" x="99" y="-228.95" font-family="Times New Roman,serif" font-size="14.00">+=</text>
</g>
<!-- Array&#45;&gt;UpdatePtotal -->
<g id="edge5" class="edge">
<title>Array&#45;&gt;UpdatePtotal</title>
<path fill="none" stroke="black" d="M71.53,-288.41C75.49,-280.71 80.31,-271.34 84.8,-262.62"/>
<polygon fill="black" stroke="black" points="87.87,-264.29 89.34,-253.79 81.65,-261.08 87.87,-264.29"/>
</g>
<!-- UpdateNtotal -->
<g id="node12" class="node">
<title>UpdateNtotal</title>
<polygon fill="none" stroke="black" points="54,-252 0,-252 0,-216 54,-216 54,-252"/>
<text xml:space="preserve" text-anchor="middle" x="27" y="-228.95" font-family="Times New Roman,serif" font-size="14.00">+=</text>
</g>
<!-- Array&#45;&gt;UpdateNtotal -->
<g id="edge6" class="edge">
<title>Array&#45;&gt;UpdateNtotal</title>
<path fill="none" stroke="black" d="M54.47,-288.41C50.51,-280.71 45.69,-271.34 41.2,-262.62"/>
<polygon fill="black" stroke="black" points="44.35,-261.08 36.66,-253.79 38.13,-264.29 44.35,-261.08"/>
</g>
<!-- Postotal -->
<g id="node6" class="node">
<title>Postotal</title>
<ellipse fill="none" stroke="black" cx="179" cy="-18" rx="40.6" ry="18"/>
<text xml:space="preserve" text-anchor="middle" x="179" y="-12.95" font-family="Times New Roman,serif" font-size="14.00">Postotal</text>
</g>
<!-- Poscnt -->
<g id="node7" class="node">
<title>Poscnt</title>
<ellipse fill="none" stroke="black" cx="279" cy="-18" rx="35.49" ry="18"/>
<text xml:space="preserve" text-anchor="middle" x="279" y="-12.95" font-family="Times New Roman,serif" font-size="14.00">Poscnt</text>
</g>
<!-- Negtotal -->
<g id="node8" class="node">
<title>Negtotal</title>
<ellipse fill="none" stroke="black" cx="66" cy="-18" rx="42.65" ry="18"/>
<text xml:space="preserve" text-anchor="middle" x="66" y="-12.95" font-family="Times New Roman,serif" font-size="14.00">Negtotal</text>
</g>
<!-- Negcnt -->
<g id="node9" class="node">
<title>Negcnt</title>
<ellipse fill="none" stroke="black" cx="434" cy="-18" rx="37.53" ry="18"/>
<text xml:space="preserve" text-anchor="middle" x="434" y="-12.95" font-family="Times New Roman,serif" font-size="14.00">Negcnt</text>
</g>
<!-- InitVars -->
<g id="node10" class="node">
<title>InitVars</title>
<polygon fill="none" stroke="black" points="349.88,-252 144.12,-252 144.12,-216 349.88,-216 349.88,-252"/>
<text xml:space="preserve" text-anchor="middle" x="247" y="-228.95" font-family="Times New Roman,serif" font-size="14.00">Initialize Ptotal, Ntotal, Pcnt, Ncnt</text>
</g>
<!-- InitVars&#45;&gt;Ptotal -->
<g id="edge1" class="edge">
<title>InitVars&#45;&gt;Ptotal</title>
<path fill="none" stroke="black" d="M230.19,-215.7C221.55,-206.8 210.9,-195.84 201.56,-186.22"/>
<polygon fill="black" stroke="black" points="204.3,-184.02 194.82,-179.29 199.28,-188.9 204.3,-184.02"/>
</g>
<!-- InitVars&#45;&gt;Ntotal -->
<g id="edge2" class="edge">
<title>InitVars&#45;&gt;Ntotal</title>
<path fill="none" stroke="black" d="M201.79,-215.52C171.43,-203.77 131.91,-188.49 103.34,-177.44"/>
<polygon fill="black" stroke="black" points="104.96,-174.32 94.38,-173.97 102.44,-180.85 104.96,-174.32"/>
</g>
<!-- InitVars&#45;&gt;Pcnt -->
<g id="edge3" class="edge">
<title>InitVars&#45;&gt;Pcnt</title>
<path fill="none" stroke="black" d="M254.91,-215.7C258.45,-207.95 262.71,-198.64 266.65,-190.02"/>
<polygon fill="black" stroke="black" points="269.8,-191.55 270.77,-181 263.43,-188.64 269.8,-191.55"/>
</g>
<!-- InitVars&#45;&gt;Ncnt -->
<g id="edge4" class="edge">
<title>InitVars&#45;&gt;Ncnt</title>
<path fill="none" stroke="black" d="M293.71,-215.52C326.32,-203.31 369.17,-187.27 398.89,-176.14"/>
<polygon fill="black" stroke="black" points="400.04,-179.45 408.17,-172.67 397.58,-172.9 400.04,-179.45"/>
</g>
<!-- UpdatePtotal&#45;&gt;Ptotal -->
<g id="edge7" class="edge">
<title>UpdatePtotal&#45;&gt;Ptotal</title>
<path fill="none" stroke="black" d="M118.78,-215.7C129.29,-206.5 142.34,-195.08 153.59,-185.23"/>
<polygon fill="black" stroke="black" points="155.8,-187.95 161.02,-178.73 151.19,-182.69 155.8,-187.95"/>
</g>
<!-- UpdateNtotal&#45;&gt;Ntotal -->
<g id="edge8" class="edge">
<title>UpdateNtotal&#45;&gt;Ntotal</title>
<path fill="none" stroke="black" d="M36.64,-215.7C41.05,-207.78 46.37,-198.23 51.27,-189.44"/>
<polygon fill="black" stroke="black" points="54.19,-191.38 56,-180.94 48.08,-187.98 54.19,-191.38"/>
</g>
<!-- IncPcnt -->
<g id="node13" class="node">
<title>IncPcnt</title>
<polygon fill="none" stroke="black" points="422,-252 368,-252 368,-216 422,-216 422,-252"/>
<text xml:space="preserve" text-anchor="middle" x="395" y="-228.95" font-family="Times New Roman,serif" font-size="14.00">++</text>
</g>
<!-- IncPcnt&#45;&gt;Pcnt -->
<g id="edge9" class="edge">
<title>IncPcnt&#45;&gt;Pcnt</title>
<path fill="none" stroke="black" d="M367.51,-216.41C349.73,-205.68 326.6,-191.72 308.45,-180.77"/>
<polygon fill="black" stroke="black" points="310.34,-177.82 299.97,-175.65 306.72,-183.82 310.34,-177.82"/>
</g>
<!-- IncNcnt -->
<g id="node14" class="node">
<title>IncNcnt</title>
<polygon fill="none" stroke="black" points="494,-252 440,-252 440,-216 494,-216 494,-252"/>
<text xml:space="preserve" text-anchor="middle" x="467" y="-228.95" font-family="Times New Roman,serif" font-size="14.00">++</text>
</g>
<!-- IncNcnt&#45;&gt;Ncnt -->
<g id="edge10" class="edge">
<title>IncNcnt&#45;&gt;Ncnt</title>
<path fill="none" stroke="black" d="M458.84,-215.7C455.19,-207.95 450.8,-198.64 446.74,-190.02"/>
<polygon fill="black" stroke="black" points="449.91,-188.54 442.48,-180.99 443.58,-191.53 449.91,-188.54"/>
</g>
<!-- AssignPostotal&#45;&gt;Postotal -->
<g id="edge15" class="edge">
<title>AssignPostotal&#45;&gt;Postotal</title>
<path fill="none" stroke="black" d="M179,-71.7C179,-64.41 179,-55.73 179,-47.54"/>
<polygon fill="black" stroke="black" points="182.5,-47.62 179,-37.62 175.5,-47.62 182.5,-47.62"/>
</g>
<!-- AssignPoscnt&#45;&gt;Poscnt -->
<g id="edge16" class="edge">
<title>AssignPoscnt&#45;&gt;Poscnt</title>
<path fill="none" stroke="black" d="M279,-71.7C279,-64.41 279,-55.73 279,-47.54"/>
<polygon fill="black" stroke="black" points="282.5,-47.62 279,-37.62 275.5,-47.62 282.5,-47.62"/>
</g>
<!-- AssignNegtotal&#45;&gt;Negtotal -->
<g id="edge17" class="edge">
<title>AssignNegtotal&#45;&gt;Negtotal</title>
<path fill="none" stroke="black" d="M66,-71.7C66,-64.41 66,-55.73 66,-47.54"/>
<polygon fill="black" stroke="black" points="69.5,-47.62 66,-37.62 62.5,-47.62 69.5,-47.62"/>
</g>
<!-- AssignNegcnt&#45;&gt;Negcnt -->
<g id="edge18" class="edge">
<title>AssignNegcnt&#45;&gt;Negcnt</title>
<path fill="none" stroke="black" d="M434,-71.7C434,-64.41 434,-55.73 434,-47.54"/>
<polygon fill="black" stroke="black" points="437.5,-47.62 434,-37.62 430.5,-47.62 437.5,-47.62"/>
</g>
</g>
</svg>
