<?xml version="1.0" encoding="UTF-8" standalone="no"?>
<!DOCTYPE svg PUBLIC "-//W3C//DTD SVG 1.1//EN"
 "http://www.w3.org/Graphics/SVG/1.1/DTD/svg11.dtd">
<!-- Generated by graphviz version 13.1.2 (20250808.2320)
 -->
<!-- Title: ns_code Pages: 1 -->
<svg width="578pt" height="908pt"
 viewBox="0.00 0.00 578.00 908.00" xmlns="http://www.w3.org/2000/svg" xmlns:xlink="http://www.w3.org/1999/xlink">
<g id="graph0" class="graph" transform="scale(1 1) rotate(0) translate(4 904)">
<title>ns_code</title>
<polygon fill="white" stroke="none" points="-4,4 -4,-904 573.96,-904 573.96,4 -4,4"/>
<!-- start -->
<g id="node1" class="node">
<title>start</title>
<ellipse fill="none" stroke="black" cx="80.58" cy="-419" rx="32.41" ry="18"/>
<text xml:space="preserve" text-anchor="middle" x="80.58" y="-413.95" font-family="Times New Roman,serif" font-size="14.00">Inicio</text>
</g>
<!-- main_start -->
<g id="node15" class="node">
<title>main_start</title>
<polygon fill="none" stroke="black" points="118.96,-361.5 42.21,-361.5 42.21,-325.5 118.96,-325.5 118.96,-361.5"/>
<text xml:space="preserve" text-anchor="middle" x="80.58" y="-338.45" font-family="Times New Roman,serif" font-size="14.00">main(void)</text>
</g>
<!-- start&#45;&gt;main_start -->
<g id="edge1" class="edge">
<title>start&#45;&gt;main_start</title>
<path fill="none" stroke="black" d="M80.58,-400.58C80.58,-392.43 80.58,-382.52 80.58,-373.3"/>
<polygon fill="black" stroke="black" points="84.08,-373.31 80.58,-363.31 77.08,-373.31 84.08,-373.31"/>
</g>
<!-- end -->
<g id="node2" class="node">
<title>end</title>
<ellipse fill="none" stroke="black" cx="312.58" cy="-18" rx="27" ry="18"/>
<text xml:space="preserve" text-anchor="middle" x="312.58" y="-12.95" font-family="Times New Roman,serif" font-size="14.00">Fim</text>
</g>
<!-- foo_start -->
<g id="node3" class="node">
<title>foo_start</title>
<polygon fill="none" stroke="black" points="423.83,-364 349.33,-364 349.33,-323 423.83,-323 423.83,-364"/>
<text xml:space="preserve" text-anchor="middle" x="386.58" y="-346.7" font-family="Times New Roman,serif" font-size="14.00">foo(x)</text>
<text xml:space="preserve" text-anchor="middle" x="386.58" y="-330.2" font-family="Times New Roman,serif" font-size="14.00">int i, j, k, l</text>
<text xml:space="preserve" text-anchor="middle" x="314.46" y="-367.2" font-family="Times New Roman,serif" font-size="14.00">parametro: x</text>
</g>
<!-- loop_i -->
<g id="node4" class="node">
<title>loop_i</title>
<polygon fill="none" stroke="black" points="363.58,-270.5 309.58,-270.5 309.58,-234.5 363.58,-234.5 363.58,-270.5"/>
<text xml:space="preserve" text-anchor="middle" x="336.58" y="-247.45" font-family="Times New Roman,serif" font-size="14.00">i = 0</text>
<text xml:space="preserve" text-anchor="middle" x="295.33" y="-273.7" font-family="Times New Roman,serif" font-size="14.00">def: i</text>
</g>
<!-- foo_start&#45;&gt;loop_i -->
<g id="edge7" class="edge">
<title>foo_start&#45;&gt;loop_i</title>
<path fill="none" stroke="black" d="M384.07,-322.52C382.09,-311.88 378.62,-298.88 372.58,-288.5 370.7,-285.26 368.43,-282.12 365.97,-279.14"/>
<polygon fill="black" stroke="black" points="368.55,-276.77 359.17,-271.84 363.42,-281.54 368.55,-276.77"/>
</g>
<!-- cond_i -->
<g id="node5" class="node">
<title>cond_i</title>
<polygon fill="none" stroke="black" points="336.58,-197.5 295.81,-179.5 336.58,-161.5 377.36,-179.5 336.58,-197.5"/>
<text xml:space="preserve" text-anchor="middle" x="336.58" y="-174.45" font-family="Times New Roman,serif" font-size="14.00">i &lt; 5</text>
<text xml:space="preserve" text-anchor="middle" x="275.18" y="-200.7" font-family="Times New Roman,serif" font-size="14.00">p&#45;uso: i</text>
</g>
<!-- loop_i&#45;&gt;cond_i -->
<g id="edge8" class="edge">
<title>loop_i&#45;&gt;cond_i</title>
<path fill="none" stroke="black" d="M336.58,-234.31C336.58,-226.84 336.58,-217.87 336.58,-209.42"/>
<polygon fill="black" stroke="black" points="340.08,-209.54 336.58,-199.54 333.08,-209.54 340.08,-209.54"/>
</g>
<!-- loop_j -->
<g id="node6" class="node">
<title>loop_j</title>
<polygon fill="none" stroke="black" points="249.58,-437 195.58,-437 195.58,-401 249.58,-401 249.58,-437"/>
<text xml:space="preserve" text-anchor="middle" x="222.58" y="-413.95" font-family="Times New Roman,serif" font-size="14.00">j = 0</text>
<text xml:space="preserve" text-anchor="middle" x="181.33" y="-440.2" font-family="Times New Roman,serif" font-size="14.00">def: j</text>
</g>
<!-- cond_i&#45;&gt;loop_j -->
<g id="edge9" class="edge">
<title>cond_i&#45;&gt;loop_j</title>
<path fill="none" stroke="black" d="M325.67,-192.83C305.47,-216.36 262.36,-270.03 240.58,-323 231.85,-344.24 227.31,-369.91 224.98,-389.21"/>
<polygon fill="black" stroke="black" points="221.5,-388.77 223.93,-399.08 228.47,-389.51 221.5,-388.77"/>
<text xml:space="preserve" text-anchor="middle" x="269.93" y="-291.7" font-family="Times New Roman,serif" font-size="14.00">True</text>
</g>
<!-- return_not_found -->
<g id="node14" class="node">
<title>return_not_found</title>
<polygon fill="none" stroke="black" points="398.21,-109 334.96,-109 334.96,-73 398.21,-73 398.21,-109"/>
<text xml:space="preserve" text-anchor="middle" x="366.58" y="-85.95" font-family="Times New Roman,serif" font-size="14.00">return &#45;1</text>
</g>
<!-- cond_i&#45;&gt;return_not_found -->
<g id="edge10" class="edge">
<title>cond_i&#45;&gt;return_not_found</title>
<path fill="none" stroke="black" d="M341.81,-163.43C345.94,-151.52 351.83,-134.54 356.83,-120.13"/>
<polygon fill="black" stroke="black" points="360.13,-121.3 360.1,-110.7 353.51,-119 360.13,-121.3"/>
<text xml:space="preserve" text-anchor="middle" x="368.52" y="-130.2" font-family="Times New Roman,serif" font-size="14.00">False</text>
</g>
<!-- cond_j -->
<g id="node7" class="node">
<title>cond_j</title>
<polygon fill="none" stroke="black" points="290.58,-361.5 249.81,-343.5 290.58,-325.5 331.36,-343.5 290.58,-361.5"/>
<text xml:space="preserve" text-anchor="middle" x="290.58" y="-338.45" font-family="Times New Roman,serif" font-size="14.00">j &lt; 5</text>
<text xml:space="preserve" text-anchor="middle" x="229.18" y="-364.7" font-family="Times New Roman,serif" font-size="14.00">p&#45;uso: j</text>
</g>
<!-- loop_j&#45;&gt;cond_j -->
<g id="edge11" class="edge">
<title>loop_j&#45;&gt;cond_j</title>
<path fill="none" stroke="black" d="M238.7,-400.58C248.62,-389.86 261.37,-376.08 271.75,-364.86"/>
<polygon fill="black" stroke="black" points="274.22,-367.34 278.44,-357.62 269.08,-362.59 274.22,-367.34"/>
</g>
<!-- cond_j&#45;&gt;loop_i -->
<g id="edge13" class="edge">
<title>cond_j&#45;&gt;loop_i</title>
<path fill="none" stroke="black" d="M295.13,-327.36C298.74,-316.27 304.3,-301.02 311.08,-288.5 312.63,-285.65 314.37,-282.77 316.21,-279.94"/>
<polygon fill="black" stroke="black" points="318.94,-282.15 321.79,-271.94 313.2,-278.15 318.94,-282.15"/>
<text xml:space="preserve" text-anchor="middle" x="341.83" y="-291.7" font-family="Times New Roman,serif" font-size="14.00">False (i++)</text>
</g>
<!-- loop_k -->
<g id="node8" class="node">
<title>loop_k</title>
<polygon fill="none" stroke="black" points="333.58,-598.5 279.58,-598.5 279.58,-562.5 333.58,-562.5 333.58,-598.5"/>
<text xml:space="preserve" text-anchor="middle" x="306.58" y="-575.45" font-family="Times New Roman,serif" font-size="14.00">k = 0</text>
<text xml:space="preserve" text-anchor="middle" x="263.83" y="-601.7" font-family="Times New Roman,serif" font-size="14.00">def: k</text>
</g>
<!-- cond_j&#45;&gt;loop_k -->
<g id="edge12" class="edge">
<title>cond_j&#45;&gt;loop_k</title>
<path fill="none" stroke="black" d="M291.74,-361.49C294.45,-401.36 301.26,-501.29 304.63,-550.79"/>
<polygon fill="black" stroke="black" points="301.13,-550.97 305.3,-560.71 308.12,-550.5 301.13,-550.97"/>
<text xml:space="preserve" text-anchor="middle" x="311.89" y="-458.2" font-family="Times New Roman,serif" font-size="14.00">True</text>
</g>
<!-- cond_k -->
<g id="node9" class="node">
<title>cond_k</title>
<polygon fill="none" stroke="black" points="235.58,-525.5 191.91,-507.5 235.58,-489.5 279.25,-507.5 235.58,-525.5"/>
<text xml:space="preserve" text-anchor="middle" x="235.58" y="-502.45" font-family="Times New Roman,serif" font-size="14.00">k &lt; 5</text>
<text xml:space="preserve" text-anchor="middle" x="169.79" y="-528.7" font-family="Times New Roman,serif" font-size="14.00">p&#45;uso: k</text>
</g>
<!-- loop_k&#45;&gt;cond_k -->
<g id="edge14" class="edge">
<title>loop_k&#45;&gt;cond_k</title>
<path fill="none" stroke="black" d="M289.4,-562.31C279.29,-552.21 266.46,-539.38 255.87,-528.78"/>
<polygon fill="black" stroke="black" points="258.56,-526.52 249.01,-521.93 253.61,-531.47 258.56,-526.52"/>
</g>
<!-- cond_k&#45;&gt;loop_j -->
<g id="edge16" class="edge">
<title>cond_k&#45;&gt;loop_j</title>
<path fill="none" stroke="black" d="M229.69,-491.75C227.51,-485.6 225.27,-478.3 224.08,-471.5 222.8,-464.19 222.2,-456.2 221.96,-448.75"/>
<polygon fill="black" stroke="black" points="225.46,-448.77 221.87,-438.81 218.46,-448.84 225.46,-448.77"/>
<text xml:space="preserve" text-anchor="middle" x="254.83" y="-458.2" font-family="Times New Roman,serif" font-size="14.00">False (j++)</text>
</g>
<!-- loop_l -->
<g id="node10" class="node">
<title>loop_l</title>
<polygon fill="none" stroke="black" points="264.58,-795 210.58,-795 210.58,-759 264.58,-759 264.58,-795"/>
<text xml:space="preserve" text-anchor="middle" x="237.58" y="-771.95" font-family="Times New Roman,serif" font-size="14.00">l = 0</text>
<text xml:space="preserve" text-anchor="middle" x="196.33" y="-798.2" font-family="Times New Roman,serif" font-size="14.00">def: l</text>
</g>
<!-- cond_k&#45;&gt;loop_l -->
<g id="edge15" class="edge">
<title>cond_k&#45;&gt;loop_l</title>
<path fill="none" stroke="black" d="M235.71,-525.84C236.05,-570.89 236.96,-691.92 237.37,-747.45"/>
<polygon fill="black" stroke="black" points="233.87,-747.37 237.44,-757.35 240.87,-747.32 233.87,-747.37"/>
<text xml:space="preserve" text-anchor="middle" x="249.26" y="-619.7" font-family="Times New Roman,serif" font-size="14.00">True</text>
</g>
<!-- cond_l -->
<g id="node11" class="node">
<title>cond_l</title>
<polygon fill="none" stroke="black" points="306.58,-687 265.81,-669 306.58,-651 347.36,-669 306.58,-687"/>
<text xml:space="preserve" text-anchor="middle" x="306.58" y="-663.95" font-family="Times New Roman,serif" font-size="14.00">l &lt; 5</text>
<text xml:space="preserve" text-anchor="middle" x="245.18" y="-690.2" font-family="Times New Roman,serif" font-size="14.00">p&#45;uso: l</text>
</g>
<!-- loop_l&#45;&gt;cond_l -->
<g id="edge17" class="edge">
<title>loop_l&#45;&gt;cond_l</title>
<path fill="none" stroke="black" d="M248.67,-758.97C260.28,-741.13 278.6,-712.99 291.52,-693.14"/>
<polygon fill="black" stroke="black" points="294.37,-695.18 296.89,-684.89 288.5,-691.36 294.37,-695.18"/>
</g>
<!-- cond_l&#45;&gt;loop_k -->
<g id="edge19" class="edge">
<title>cond_l&#45;&gt;loop_k</title>
<path fill="none" stroke="black" d="M306.58,-650.5C306.58,-639.01 306.58,-623.7 306.58,-610.43"/>
<polygon fill="black" stroke="black" points="310.08,-610.49 306.58,-600.49 303.08,-610.49 310.08,-610.49"/>
<text xml:space="preserve" text-anchor="middle" x="338.83" y="-619.7" font-family="Times New Roman,serif" font-size="14.00">False (k++)</text>
</g>
<!-- body -->
<g id="node12" class="node">
<title>body</title>
<polygon fill="none" stroke="black" points="314.58,-883.5 173.2,-865.5 314.58,-847.5 455.97,-865.5 314.58,-883.5"/>
<text xml:space="preserve" text-anchor="middle" x="314.58" y="-860.45" font-family="Times New Roman,serif" font-size="14.00">if (keys[i][j][k][l] == x)</text>
<text xml:space="preserve" text-anchor="middle" x="111.33" y="-886.7" font-family="Times New Roman,serif" font-size="14.00">c&#45;uso: keys, x, i, j, k, l</text>
</g>
<!-- cond_l&#45;&gt;body -->
<g id="edge18" class="edge">
<title>cond_l&#45;&gt;body</title>
<path fill="none" stroke="black" d="M307.29,-687.22C308.67,-720.71 311.72,-794.91 313.41,-835.9"/>
<polygon fill="black" stroke="black" points="309.9,-835.88 313.81,-845.73 316.9,-835.59 309.9,-835.88"/>
<text xml:space="preserve" text-anchor="middle" x="324.39" y="-771.95" font-family="Times New Roman,serif" font-size="14.00">True</text>
</g>
<!-- body&#45;&gt;loop_l -->
<g id="edge21" class="edge">
<title>body&#45;&gt;loop_l</title>
<path fill="none" stroke="black" d="M269.15,-852.95C257.44,-847.74 246.16,-840.23 239.08,-829.5 234.65,-822.78 233.15,-814.41 233.07,-806.39"/>
<polygon fill="black" stroke="black" points="236.55,-806.84 233.69,-796.63 229.56,-806.39 236.55,-806.84"/>
<text xml:space="preserve" text-anchor="middle" x="269.83" y="-816.2" font-family="Times New Roman,serif" font-size="14.00">False (l++)</text>
</g>
<!-- return_found -->
<g id="node13" class="node">
<title>return_found</title>
<polygon fill="none" stroke="black" points="569.96,-741 331.21,-741 331.21,-705 569.96,-705 569.96,-741"/>
<text xml:space="preserve" text-anchor="middle" x="450.58" y="-717.95" font-family="Times New Roman,serif" font-size="14.00">return answer[i][j][k][l] + keys[i][j][k][l]</text>
<text xml:space="preserve" text-anchor="middle" x="253.96" y="-744.2" font-family="Times New Roman,serif" font-size="14.00">c&#45;uso: answer, keys, i, j, k, l</text>
</g>
<!-- body&#45;&gt;return_found -->
<g id="edge20" class="edge">
<title>body&#45;&gt;return_found</title>
<path fill="none" stroke="black" d="M329.66,-848.93C352.95,-824.87 397.91,-778.41 425.97,-749.43"/>
<polygon fill="black" stroke="black" points="428.25,-752.1 432.69,-742.49 423.22,-747.24 428.25,-752.1"/>
<text xml:space="preserve" text-anchor="middle" x="375.21" y="-816.2" font-family="Times New Roman,serif" font-size="14.00">True</text>
</g>
<!-- return_found&#45;&gt;end -->
<g id="edge22" class="edge">
<title>return_found&#45;&gt;end</title>
<path fill="none" stroke="black" d="M450.87,-704.61C451.17,-685.34 451.58,-653.32 451.58,-625.75 451.58,-625.75 451.58,-625.75 451.58,-90 451.58,-44.65 392.17,-28.25 351.03,-22.33"/>
<polygon fill="black" stroke="black" points="351.58,-18.87 341.22,-21.08 350.7,-25.82 351.58,-18.87"/>
</g>
<!-- return_not_found&#45;&gt;end -->
<g id="edge23" class="edge">
<title>return_not_found&#45;&gt;end</title>
<path fill="none" stroke="black" d="M353.51,-72.81C346.86,-64.07 338.66,-53.29 331.35,-43.68"/>
<polygon fill="black" stroke="black" points="334.19,-41.62 325.35,-35.78 328.61,-45.86 334.19,-41.62"/>
</g>
<!-- call_foo -->
<g id="node16" class="node">
<title>call_foo</title>
<polygon fill="none" stroke="black" points="112.21,-270.5 48.96,-270.5 48.96,-234.5 112.21,-234.5 112.21,-270.5"/>
<text xml:space="preserve" text-anchor="middle" x="80.58" y="-247.45" font-family="Times New Roman,serif" font-size="14.00">foo(400)</text>
</g>
<!-- main_start&#45;&gt;call_foo -->
<g id="edge2" class="edge">
<title>main_start&#45;&gt;call_foo</title>
<path fill="none" stroke="black" d="M80.58,-325.34C80.58,-313.11 80.58,-296.37 80.58,-282.13"/>
<polygon fill="black" stroke="black" points="84.08,-282.42 80.58,-272.42 77.08,-282.42 84.08,-282.42"/>
</g>
<!-- cond_test -->
<g id="node17" class="node">
<title>cond_test</title>
<polygon fill="none" stroke="black" points="80.58,-197.5 0,-179.5 80.58,-161.5 161.17,-179.5 80.58,-197.5"/>
<text xml:space="preserve" text-anchor="middle" x="80.58" y="-174.45" font-family="Times New Roman,serif" font-size="14.00">#ifdef TEST</text>
</g>
<!-- call_foo&#45;&gt;cond_test -->
<g id="edge3" class="edge">
<title>call_foo&#45;&gt;cond_test</title>
<path fill="none" stroke="black" d="M80.58,-234.31C80.58,-226.73 80.58,-217.6 80.58,-209.04"/>
<polygon fill="black" stroke="black" points="84.08,-209.04 80.58,-199.04 77.08,-209.04 84.08,-209.04"/>
</g>
<!-- cond_test&#45;&gt;end -->
<g id="edge5" class="edge">
<title>cond_test&#45;&gt;end</title>
<path fill="none" stroke="black" d="M67.65,-163.99C49.75,-142.09 22,-100.27 44.33,-73 72.94,-38.07 206.96,-25.24 274.08,-20.95"/>
<polygon fill="black" stroke="black" points="274.13,-24.45 283.9,-20.36 273.71,-17.46 274.13,-24.45"/>
<text xml:space="preserve" text-anchor="middle" x="81.46" y="-85.95" font-family="Times New Roman,serif" font-size="14.00">Nao Definido</text>
</g>
<!-- print_result -->
<g id="node18" class="node">
<title>print_result</title>
<polygon fill="none" stroke="black" points="317.21,-109 127.96,-109 127.96,-73 317.21,-73 317.21,-109"/>
<text xml:space="preserve" text-anchor="middle" x="222.58" y="-85.95" font-family="Times New Roman,serif" font-size="14.00">printf(&quot;result=%d\n&quot;, foo(400))</text>
</g>
<!-- cond_test&#45;&gt;print_result -->
<g id="edge4" class="edge">
<title>cond_test&#45;&gt;print_result</title>
<path fill="none" stroke="black" d="M101.54,-165.74C123.22,-152.53 157.58,-131.6 184.16,-115.41"/>
<polygon fill="black" stroke="black" points="185.91,-118.44 192.63,-110.24 182.27,-112.46 185.91,-118.44"/>
<text xml:space="preserve" text-anchor="middle" x="188.3" y="-130.2" font-family="Times New Roman,serif" font-size="14.00">Definido</text>
</g>
<!-- print_result&#45;&gt;end -->
<g id="edge6" class="edge">
<title>print_result&#45;&gt;end</title>
<path fill="none" stroke="black" d="M244.37,-72.81C257.14,-62.74 273.33,-49.96 286.74,-39.39"/>
<polygon fill="black" stroke="black" points="288.63,-42.36 294.31,-33.41 284.29,-36.86 288.63,-42.36"/>
</g>
</g>
</svg>
