<?xml version="1.0" encoding="UTF-8" standalone="no"?>
<!DOCTYPE svg PUBLIC "-//W3C//DTD SVG 1.1//EN"
 "http://www.w3.org/Graphics/SVG/1.1/DTD/svg11.dtd">
<!-- Generated by graphviz version 13.1.2 (20250808.2320)
 -->
<!-- Title: CFG Pages: 1 -->
<svg width="909pt" height="607pt"
 viewBox="0.00 0.00 909.00 607.00" xmlns="http://www.w3.org/2000/svg" xmlns:xlink="http://www.w3.org/1999/xlink">
<g id="graph0" class="graph" transform="scale(1 1) rotate(0) translate(4 602.5)">
<title>CFG</title>
<polygon fill="white" stroke="none" points="-4,4 -4,-602.5 904.75,-602.5 904.75,4 -4,4"/>
<!-- Start -->
<g id="node1" class="node">
<title>Start</title>
<polygon fill="none" stroke="black" points="704,-598.5 597.25,-598.5 597.25,-562.5 704,-562.5 704,-598.5"/>
<text xml:space="preserve" text-anchor="middle" x="650.62" y="-575.45" font-family="Courier,monospace" font-size="14.00">Sum: Inicio</text>
</g>
<!-- Loop1 -->
<g id="node2" class="node">
<title>Loop1</title>
<polygon fill="none" stroke="black" points="695.75,-525.5 605.5,-525.5 605.5,-489.5 695.75,-489.5 695.75,-525.5"/>
<text xml:space="preserve" text-anchor="middle" x="650.62" y="-502.45" font-family="Courier,monospace" font-size="14.00">Outer = 0</text>
</g>
<!-- Start&#45;&gt;Loop1 -->
<g id="edge1" class="edge">
<title>Start&#45;&gt;Loop1</title>
<path fill="none" stroke="black" d="M650.62,-562.31C650.62,-554.73 650.62,-545.6 650.62,-537.04"/>
<polygon fill="black" stroke="black" points="654.13,-537.04 650.63,-527.04 647.13,-537.04 654.13,-537.04"/>
</g>
<!-- Cond1 -->
<g id="node3" class="node">
<title>Cond1</title>
<polygon fill="none" stroke="black" points="724.62,-452.5 576.62,-452.5 576.62,-416.5 724.62,-416.5 724.62,-452.5"/>
<text xml:space="preserve" text-anchor="middle" x="650.62" y="-429.45" font-family="Courier,monospace" font-size="14.00">Outer &lt; MAXSIZE?</text>
</g>
<!-- Loop1&#45;&gt;Cond1 -->
<g id="edge2" class="edge">
<title>Loop1&#45;&gt;Cond1</title>
<path fill="none" stroke="black" d="M650.62,-489.31C650.62,-481.73 650.62,-472.6 650.62,-464.04"/>
<polygon fill="black" stroke="black" points="654.13,-464.04 650.63,-454.04 647.13,-464.04 654.13,-464.04"/>
</g>
<!-- Loop2 -->
<g id="node4" class="node">
<title>Loop2</title>
<polygon fill="none" stroke="black" points="615.75,-364 525.5,-364 525.5,-328 615.75,-328 615.75,-364"/>
<text xml:space="preserve" text-anchor="middle" x="570.62" y="-340.95" font-family="Courier,monospace" font-size="14.00">Inner = 0</text>
</g>
<!-- Cond1&#45;&gt;Loop2 -->
<g id="edge3" class="edge">
<title>Cond1&#45;&gt;Loop2</title>
<path fill="none" stroke="black" d="M630.33,-416.28C624.21,-410.8 617.6,-404.57 611.88,-398.5 604.45,-390.63 596.89,-381.55 590.31,-373.23"/>
<polygon fill="black" stroke="black" points="593.17,-371.22 584.27,-365.47 587.64,-375.51 593.17,-371.22"/>
<text xml:space="preserve" text-anchor="middle" x="624.25" y="-385.2" font-family="Courier,monospace" font-size="14.00">Sim</text>
</g>
<!-- End -->
<g id="node11" class="node">
<title>End</title>
<polygon fill="none" stroke="black" points="900.75,-364 678.5,-364 678.5,-328 900.75,-328 900.75,-364"/>
<text xml:space="preserve" text-anchor="middle" x="789.62" y="-340.95" font-family="Courier,monospace" font-size="14.00">Atribui globais e retorna</text>
</g>
<!-- Cond1&#45;&gt;End -->
<g id="edge4" class="edge">
<title>Cond1&#45;&gt;End</title>
<path fill="none" stroke="black" d="M678.42,-416.2C699.63,-403 729.07,-384.68 752.33,-370.21"/>
<polygon fill="black" stroke="black" points="753.95,-373.32 760.59,-365.07 750.25,-367.38 753.95,-373.32"/>
<text xml:space="preserve" text-anchor="middle" x="744.95" y="-385.2" font-family="Courier,monospace" font-size="14.00">Nao</text>
</g>
<!-- Cond2 -->
<g id="node5" class="node">
<title>Cond2</title>
<polygon fill="none" stroke="black" points="622.62,-291 474.62,-291 474.62,-255 622.62,-255 622.62,-291"/>
<text xml:space="preserve" text-anchor="middle" x="548.62" y="-267.95" font-family="Courier,monospace" font-size="14.00">Inner &lt; MAXSIZE?</text>
</g>
<!-- Loop2&#45;&gt;Cond2 -->
<g id="edge5" class="edge">
<title>Loop2&#45;&gt;Cond2</title>
<path fill="none" stroke="black" d="M565.3,-327.81C562.89,-320.05 559.99,-310.68 557.29,-301.95"/>
<polygon fill="black" stroke="black" points="560.65,-300.99 554.35,-292.47 553.97,-303.06 560.65,-300.99"/>
</g>
<!-- Check -->
<g id="node6" class="node">
<title>Check</title>
<polygon fill="none" stroke="black" points="450.62,-202.5 236.62,-202.5 236.62,-166.5 450.62,-166.5 450.62,-202.5"/>
<text xml:space="preserve" text-anchor="middle" x="343.62" y="-179.45" font-family="Courier,monospace" font-size="14.00">Array[Outer][Inner] &lt; 0?</text>
</g>
<!-- Cond2&#45;&gt;Check -->
<g id="edge6" class="edge">
<title>Cond2&#45;&gt;Check</title>
<path fill="none" stroke="black" d="M507.63,-254.7C475.34,-241.08 430.11,-221.99 395.33,-207.32"/>
<polygon fill="black" stroke="black" points="396.87,-204.17 386.29,-203.5 394.14,-210.62 396.87,-204.17"/>
<text xml:space="preserve" text-anchor="middle" x="476.86" y="-223.7" font-family="Courier,monospace" font-size="14.00">Sim</text>
</g>
<!-- OuterInc -->
<g id="node10" class="node">
<title>OuterInc</title>
<polygon fill="none" stroke="black" points="673.5,-202.5 599.75,-202.5 599.75,-166.5 673.5,-166.5 673.5,-202.5"/>
<text xml:space="preserve" text-anchor="middle" x="636.62" y="-179.45" font-family="Courier,monospace" font-size="14.00">Outer++</text>
</g>
<!-- Cond2&#45;&gt;OuterInc -->
<g id="edge7" class="edge">
<title>Cond2&#45;&gt;OuterInc</title>
<path fill="none" stroke="black" d="M566.01,-254.91C578.82,-242.32 596.46,-224.98 610.9,-210.79"/>
<polygon fill="black" stroke="black" points="613.22,-213.42 617.89,-203.91 608.31,-208.43 613.22,-213.42"/>
<text xml:space="preserve" text-anchor="middle" x="612.88" y="-223.7" font-family="Courier,monospace" font-size="14.00">Nao</text>
</g>
<!-- PosBlock -->
<g id="node7" class="node">
<title>PosBlock</title>
<polygon fill="none" stroke="red" points="255.25,-114 0,-114 0,-73 255.25,-73 255.25,-114"/>
<text xml:space="preserve" text-anchor="middle" x="127.62" y="-96.7" font-family="Courier,monospace" font-size="14.00">Ptotal += Array[Outer][Inner]</text>
<text xml:space="preserve" text-anchor="middle" x="127.62" y="-80.2" font-family="Courier,monospace" font-size="14.00">Pcnt++</text>
</g>
<!-- Check&#45;&gt;PosBlock -->
<g id="edge8" class="edge">
<title>Check&#45;&gt;PosBlock</title>
<path fill="none" stroke="red" d="M236.35,-174.27C197.75,-168.96 160.19,-160.8 145.88,-148.5 138.99,-142.58 134.69,-133.96 132.02,-125.35"/>
<polygon fill="red" stroke="red" points="135.44,-124.62 129.7,-115.71 128.64,-126.25 135.44,-124.62"/>
<text xml:space="preserve" text-anchor="middle" x="240.75" y="-135.2" font-family="Courier,monospace" font-size="14.00">Verdadeiro (Infeasible)</text>
</g>
<!-- NegBlock -->
<g id="node8" class="node">
<title>NegBlock</title>
<polygon fill="none" stroke="green" points="528.25,-114 273,-114 273,-73 528.25,-73 528.25,-114"/>
<text xml:space="preserve" text-anchor="middle" x="400.62" y="-96.7" font-family="Courier,monospace" font-size="14.00">Ntotal += Array[Outer][Inner]</text>
<text xml:space="preserve" text-anchor="middle" x="400.62" y="-80.2" font-family="Courier,monospace" font-size="14.00">Ncnt++</text>
</g>
<!-- Check&#45;&gt;NegBlock -->
<g id="edge9" class="edge">
<title>Check&#45;&gt;NegBlock</title>
<path fill="none" stroke="green" d="M340.12,-166.25C338.88,-155.73 338.96,-142.36 344.62,-132 346.62,-128.35 349.15,-124.98 352.01,-121.9"/>
<polygon fill="green" stroke="green" points="354.11,-124.72 359.15,-115.41 349.4,-119.55 354.11,-124.72"/>
<text xml:space="preserve" text-anchor="middle" x="443.62" y="-135.2" font-family="Courier,monospace" font-size="14.00">Falso (Sempre executado)</text>
</g>
<!-- InnerInc -->
<g id="node9" class="node">
<title>InnerInc</title>
<polygon fill="none" stroke="black" points="437.5,-36 363.75,-36 363.75,0 437.5,0 437.5,-36"/>
<text xml:space="preserve" text-anchor="middle" x="400.62" y="-12.95" font-family="Courier,monospace" font-size="14.00">Inner++</text>
</g>
<!-- PosBlock&#45;&gt;InnerInc -->
<g id="edge10" class="edge">
<title>PosBlock&#45;&gt;InnerInc</title>
<path fill="none" stroke="red" d="M201.86,-72.51C249.74,-59.62 310.61,-43.23 352.3,-32.01"/>
<polygon fill="red" stroke="red" points="353.05,-35.43 361.8,-29.45 351.23,-28.67 353.05,-35.43"/>
</g>
<!-- NegBlock&#45;&gt;InnerInc -->
<g id="edge11" class="edge">
<title>NegBlock&#45;&gt;InnerInc</title>
<path fill="none" stroke="black" d="M400.62,-72.8C400.62,-65.06 400.62,-56.01 400.62,-47.57"/>
<polygon fill="black" stroke="black" points="404.13,-47.76 400.63,-37.76 397.13,-47.76 404.13,-47.76"/>
</g>
<!-- InnerInc&#45;&gt;Cond2 -->
<g id="edge12" class="edge">
<title>InnerInc&#45;&gt;Cond2</title>
<path fill="none" stroke="black" d="M437.97,-22.95C469.89,-28.46 514.27,-41.62 537.62,-73 575.03,-123.25 565.03,-201.96 555.97,-243.74"/>
<polygon fill="black" stroke="black" points="552.61,-242.72 553.76,-253.26 559.43,-244.31 552.61,-242.72"/>
</g>
<!-- OuterInc&#45;&gt;Cond1 -->
<g id="edge13" class="edge">
<title>OuterInc&#45;&gt;Cond1</title>
<path fill="none" stroke="black" d="M637.61,-202.92C639.99,-245.05 646.07,-352.82 649,-404.72"/>
<polygon fill="black" stroke="black" points="645.5,-404.76 649.56,-414.55 652.49,-404.37 645.5,-404.76"/>
</g>
</g>
</svg>
