<?xml version="1.0" encoding="UTF-8" standalone="no"?>
<!DOCTYPE svg PUBLIC "-//W3C//DTD SVG 1.1//EN"
 "http://www.w3.org/Graphics/SVG/1.1/DTD/svg11.dtd">
<!-- Generated by graphviz version 13.1.2 (20250808.2320)
 -->
<!-- Title: Sum Pages: 1 -->
<svg width="882pt" height="680pt"
 viewBox="0.00 0.00 882.00 680.00" xmlns="http://www.w3.org/2000/svg" xmlns:xlink="http://www.w3.org/1999/xlink">
<g id="graph0" class="graph" transform="scale(1 1) rotate(0) translate(4 675.5)">
<title>Sum</title>
<polygon fill="white" stroke="none" points="-4,4 -4,-675.5 877.75,-675.5 877.75,4 -4,4"/>
<!-- start -->
<g id="node1" class="node">
<title>start</title>
<ellipse fill="none" stroke="black" cx="493.75" cy="-653.5" rx="28.32" ry="18"/>
<text xml:space="preserve" text-anchor="middle" x="493.75" y="-648.45" font-family="Times New Roman,serif" font-size="14.00">Start</text>
</g>
<!-- decl -->
<g id="node3" class="node">
<title>decl</title>
<polygon fill="none" stroke="black" points="600.75,-598.5 386.75,-598.5 386.75,-562.5 600.75,-562.5 600.75,-598.5"/>
<text xml:space="preserve" text-anchor="middle" x="493.75" y="-575.45" font-family="Times New Roman,serif" font-size="14.00">Ptotal=0, Ntotal=0, Pcnt=0, Ncnt=0</text>
</g>
<!-- start&#45;&gt;decl -->
<g id="edge1" class="edge">
<title>start&#45;&gt;decl</title>
<path fill="none" stroke="black" d="M493.75,-635.31C493.75,-627.73 493.75,-618.6 493.75,-610.04"/>
<polygon fill="black" stroke="black" points="497.25,-610.04 493.75,-600.04 490.25,-610.04 497.25,-610.04"/>
</g>
<!-- end -->
<g id="node2" class="node">
<title>end</title>
<ellipse fill="none" stroke="black" cx="697.75" cy="-273" rx="27" ry="18"/>
<text xml:space="preserve" text-anchor="middle" x="697.75" y="-267.95" font-family="Times New Roman,serif" font-size="14.00">End</text>
</g>
<!-- outer_loop -->
<g id="node4" class="node">
<title>outer_loop</title>
<polygon fill="none" stroke="black" points="493.75,-525.5 426.92,-507.5 493.75,-489.5 560.58,-507.5 493.75,-525.5"/>
<text xml:space="preserve" text-anchor="middle" x="493.75" y="-502.45" font-family="Times New Roman,serif" font-size="14.00">Outer = 0</text>
</g>
<!-- decl&#45;&gt;outer_loop -->
<g id="edge2" class="edge">
<title>decl&#45;&gt;outer_loop</title>
<path fill="none" stroke="black" d="M493.75,-562.31C493.75,-554.73 493.75,-545.6 493.75,-537.04"/>
<polygon fill="black" stroke="black" points="497.25,-537.04 493.75,-527.04 490.25,-537.04 497.25,-537.04"/>
</g>
<!-- outer_cond -->
<g id="node5" class="node">
<title>outer_cond</title>
<polygon fill="none" stroke="black" points="555.38,-452.5 432.12,-452.5 432.12,-416.5 555.38,-416.5 555.38,-452.5"/>
<text xml:space="preserve" text-anchor="middle" x="493.75" y="-429.45" font-family="Times New Roman,serif" font-size="14.00">Outer &lt; MAXSIZE</text>
</g>
<!-- outer_loop&#45;&gt;outer_cond -->
<g id="edge3" class="edge">
<title>outer_loop&#45;&gt;outer_cond</title>
<path fill="none" stroke="black" d="M493.75,-489.31C493.75,-481.73 493.75,-472.6 493.75,-464.04"/>
<polygon fill="black" stroke="black" points="497.25,-464.04 493.75,-454.04 490.25,-464.04 497.25,-464.04"/>
</g>
<!-- inner_loop -->
<g id="node6" class="node">
<title>inner_loop</title>
<polygon fill="none" stroke="black" points="400.75,-364 336.09,-346 400.75,-328 465.41,-346 400.75,-364"/>
<text xml:space="preserve" text-anchor="middle" x="400.75" y="-340.95" font-family="Times New Roman,serif" font-size="14.00">Inner = 0</text>
</g>
<!-- outer_cond&#45;&gt;inner_loop -->
<g id="edge4" class="edge">
<title>outer_cond&#45;&gt;inner_loop</title>
<path fill="none" stroke="black" d="M473.92,-416.21C467.58,-410.61 460.58,-404.34 454.25,-398.5 443.66,-388.72 432.12,-377.66 422.48,-368.31"/>
<polygon fill="black" stroke="black" points="424.93,-365.81 415.32,-361.34 420.04,-370.82 424.93,-365.81"/>
<text xml:space="preserve" text-anchor="middle" x="467" y="-385.2" font-family="Times New Roman,serif" font-size="14.00">True</text>
</g>
<!-- assign_globals -->
<g id="node13" class="node">
<title>assign_globals</title>
<polygon fill="none" stroke="black" points="873.75,-364 521.75,-364 521.75,-328 873.75,-328 873.75,-364"/>
<text xml:space="preserve" text-anchor="middle" x="697.75" y="-340.95" font-family="Times New Roman,serif" font-size="14.00">Postotal=Ptotal, Poscnt=Pcnt, Negtotal=Ntotal, Negcnt=Ncnt</text>
</g>
<!-- outer_cond&#45;&gt;assign_globals -->
<g id="edge5" class="edge">
<title>outer_cond&#45;&gt;assign_globals</title>
<path fill="none" stroke="black" d="M534.54,-416.2C566.68,-402.58 611.69,-383.49 646.3,-368.82"/>
<polygon fill="black" stroke="black" points="647.45,-372.13 655.29,-365.01 644.71,-365.69 647.45,-372.13"/>
<text xml:space="preserve" text-anchor="middle" x="628.27" y="-385.2" font-family="Times New Roman,serif" font-size="14.00">False</text>
</g>
<!-- inner_cond -->
<g id="node7" class="node">
<title>inner_cond</title>
<polygon fill="none" stroke="black" points="464.25,-291 343.25,-291 343.25,-255 464.25,-255 464.25,-291"/>
<text xml:space="preserve" text-anchor="middle" x="403.75" y="-267.95" font-family="Times New Roman,serif" font-size="14.00">Inner &lt; MAXSIZE</text>
</g>
<!-- inner_loop&#45;&gt;inner_cond -->
<g id="edge6" class="edge">
<title>inner_loop&#45;&gt;inner_cond</title>
<path fill="none" stroke="black" d="M401.48,-327.81C401.8,-320.14 402.19,-310.89 402.56,-302.24"/>
<polygon fill="black" stroke="black" points="406.04,-302.68 402.97,-292.54 399.05,-302.38 406.04,-302.68"/>
</g>
<!-- condition -->
<g id="node8" class="node">
<title>condition</title>
<polygon fill="none" stroke="black" points="231.75,-202.5 83.85,-184.5 231.75,-166.5 379.65,-184.5 231.75,-202.5"/>
<text xml:space="preserve" text-anchor="middle" x="231.75" y="-179.45" font-family="Times New Roman,serif" font-size="14.00">Array[Outer][Inner] &lt; 0?</text>
</g>
<!-- inner_cond&#45;&gt;condition -->
<g id="edge7" class="edge">
<title>inner_cond&#45;&gt;condition</title>
<path fill="none" stroke="black" d="M369.36,-254.7C340.5,-240.19 299.36,-219.5 269.58,-204.52"/>
<polygon fill="black" stroke="black" points="271.42,-201.53 260.91,-200.17 268.27,-207.79 271.42,-201.53"/>
<text xml:space="preserve" text-anchor="middle" x="345.91" y="-223.7" font-family="Times New Roman,serif" font-size="14.00">True</text>
</g>
<!-- inc_outer -->
<g id="node12" class="node">
<title>inc_outer</title>
<polygon fill="none" stroke="black" points="512.38,-202.5 449.12,-202.5 449.12,-166.5 512.38,-166.5 512.38,-202.5"/>
<text xml:space="preserve" text-anchor="middle" x="480.75" y="-179.45" font-family="Times New Roman,serif" font-size="14.00">Outer++</text>
</g>
<!-- inner_cond&#45;&gt;inc_outer -->
<g id="edge8" class="edge">
<title>inner_cond&#45;&gt;inc_outer</title>
<path fill="none" stroke="black" d="M418.96,-254.91C430.07,-242.43 445.32,-225.3 457.89,-211.18"/>
<polygon fill="black" stroke="black" points="460.26,-213.78 464.3,-203.98 455.04,-209.12 460.26,-213.78"/>
<text xml:space="preserve" text-anchor="middle" x="463.4" y="-223.7" font-family="Times New Roman,serif" font-size="14.00">False</text>
</g>
<!-- if_block -->
<g id="node9" class="node">
<title>if_block</title>
<polygon fill="none" stroke="black" points="179.5,-114 0,-114 0,-73 179.5,-73 179.5,-114"/>
<text xml:space="preserve" text-anchor="middle" x="89.75" y="-96.7" font-family="Times New Roman,serif" font-size="14.00">Ptotal += Array[Outer][Inner]</text>
<text xml:space="preserve" text-anchor="middle" x="89.75" y="-80.2" font-family="Times New Roman,serif" font-size="14.00">Pcnt++</text>
</g>
<!-- condition&#45;&gt;if_block -->
<g id="edge9" class="edge">
<title>condition&#45;&gt;if_block</title>
<path fill="none" stroke="black" d="M208.62,-169C187.74,-155.91 156.51,-136.34 131.3,-120.54"/>
<polygon fill="black" stroke="black" points="133.24,-117.63 122.9,-115.28 129.52,-123.56 133.24,-117.63"/>
<text xml:space="preserve" text-anchor="middle" x="186.22" y="-135.2" font-family="Times New Roman,serif" font-size="14.00">True</text>
</g>
<!-- else_block -->
<g id="node10" class="node">
<title>else_block</title>
<polygon fill="none" stroke="black" points="379.62,-114 197.88,-114 197.88,-73 379.62,-73 379.62,-114"/>
<text xml:space="preserve" text-anchor="middle" x="288.75" y="-96.7" font-family="Times New Roman,serif" font-size="14.00">Ntotal += Array[Outer][Inner]</text>
<text xml:space="preserve" text-anchor="middle" x="288.75" y="-80.2" font-family="Times New Roman,serif" font-size="14.00">Ncnt++</text>
</g>
<!-- condition&#45;&gt;else_block -->
<g id="edge10" class="edge">
<title>condition&#45;&gt;else_block</title>
<path fill="none" stroke="black" d="M241.94,-167.59C249.69,-155.48 260.58,-138.48 269.91,-123.92"/>
<polygon fill="black" stroke="black" points="272.79,-125.91 275.24,-115.6 266.9,-122.13 272.79,-125.91"/>
<text xml:space="preserve" text-anchor="middle" x="277.91" y="-135.2" font-family="Times New Roman,serif" font-size="14.00">False</text>
</g>
<!-- inc_inner -->
<g id="node11" class="node">
<title>inc_inner</title>
<polygon fill="none" stroke="black" points="319.25,-36 258.25,-36 258.25,0 319.25,0 319.25,-36"/>
<text xml:space="preserve" text-anchor="middle" x="288.75" y="-12.95" font-family="Times New Roman,serif" font-size="14.00">Inner++</text>
</g>
<!-- if_block&#45;&gt;inc_inner -->
<g id="edge11" class="edge">
<title>if_block&#45;&gt;inc_inner</title>
<path fill="none" stroke="black" d="M143.86,-72.51C176.46,-60.47 217.33,-45.38 247.34,-34.29"/>
<polygon fill="black" stroke="black" points="248.29,-37.68 256.45,-30.93 245.86,-31.11 248.29,-37.68"/>
</g>
<!-- else_block&#45;&gt;inc_inner -->
<g id="edge12" class="edge">
<title>else_block&#45;&gt;inc_inner</title>
<path fill="none" stroke="black" d="M288.75,-72.8C288.75,-65.06 288.75,-56.01 288.75,-47.57"/>
<polygon fill="black" stroke="black" points="292.25,-47.76 288.75,-37.76 285.25,-47.76 292.25,-47.76"/>
</g>
<!-- inc_inner&#45;&gt;inner_cond -->
<g id="edge13" class="edge">
<title>inc_inner&#45;&gt;inner_cond</title>
<path fill="none" stroke="black" d="M319.59,-26.96C342.75,-34.67 373.07,-48.83 388.75,-73 422.64,-125.25 416.33,-202.24 409.57,-243.46"/>
<polygon fill="black" stroke="black" points="406.17,-242.62 407.86,-253.08 413.06,-243.85 406.17,-242.62"/>
</g>
<!-- inc_outer&#45;&gt;outer_cond -->
<g id="edge14" class="edge">
<title>inc_outer&#45;&gt;outer_cond</title>
<path fill="none" stroke="black" d="M481.66,-202.92C483.87,-245.05 489.52,-352.82 492.24,-404.72"/>
<polygon fill="black" stroke="black" points="488.74,-404.75 492.76,-414.55 495.73,-404.38 488.74,-404.75"/>
</g>
<!-- assign_globals&#45;&gt;end -->
<g id="edge15" class="edge">
<title>assign_globals&#45;&gt;end</title>
<path fill="none" stroke="black" d="M697.75,-327.81C697.75,-320.23 697.75,-311.1 697.75,-302.54"/>
<polygon fill="black" stroke="black" points="701.25,-302.54 697.75,-292.54 694.25,-302.54 701.25,-302.54"/>
</g>
</g>
</svg>
