<?xml version="1.0" encoding="UTF-8" standalone="no"?>
<!DOCTYPE svg PUBLIC "-//W3C//DTD SVG 1.1//EN"
 "http://www.w3.org/Graphics/SVG/1.1/DTD/svg11.dtd">
<!-- Generated by graphviz version 13.1.2 (20250808.2320)
 -->
<!-- Title: CFG Pages: 1 -->
<svg width="803pt" height="612pt"
 viewBox="0.00 0.00 803.00 612.00" xmlns="http://www.w3.org/2000/svg" xmlns:xlink="http://www.w3.org/1999/xlink">
<g id="graph0" class="graph" transform="scale(1 1) rotate(0) translate(4 607.5)">
<title>CFG</title>
<polygon fill="white" stroke="none" points="-4,4 -4,-607.5 799,-607.5 799,4 -4,4"/>
<!-- start -->
<g id="node1" class="node">
<title>start</title>
<ellipse fill="none" stroke="black" cx="242.38" cy="-585.5" rx="39.07" ry="18"/>
<text xml:space="preserve" text-anchor="middle" x="242.38" y="-580.45" font-family="Courier,monospace" font-size="14.00">Start</text>
</g>
<!-- B1 -->
<g id="node2" class="node">
<title>B1</title>
<polygon fill="none" stroke="black" points="407.12,-530.5 77.62,-530.5 77.62,-489.5 407.12,-489.5 407.12,-530.5"/>
<text xml:space="preserve" text-anchor="middle" x="242.38" y="-513.2" font-family="Courier,monospace" font-size="14.00">B1: Initialize variables</text>
<text xml:space="preserve" text-anchor="middle" x="242.38" y="-496.7" font-family="Courier,monospace" font-size="14.00">(i, ir=n, j, k, l=1, jstack=0, flag=0)</text>
</g>
<!-- start&#45;&gt;B1 -->
<g id="edge1" class="edge">
<title>start&#45;&gt;B1</title>
<path fill="none" stroke="black" d="M242.38,-567.08C242.38,-559.7 242.38,-550.85 242.38,-542.4"/>
<polygon fill="black" stroke="black" points="245.88,-542.4 242.38,-532.4 238.88,-542.4 245.88,-542.4"/>
</g>
<!-- B2 -->
<g id="node3" class="node">
<title>B2</title>
<polygon fill="none" stroke="black" points="345.25,-452.5 139.5,-452.5 139.5,-416.5 345.25,-416.5 345.25,-452.5"/>
<text xml:space="preserve" text-anchor="middle" x="242.38" y="-429.45" font-family="Courier,monospace" font-size="14.00">B2: Infinite loop start</text>
</g>
<!-- B1&#45;&gt;B2 -->
<g id="edge2" class="edge">
<title>B1&#45;&gt;B2</title>
<path fill="none" stroke="black" d="M242.38,-489.3C242.38,-481.56 242.38,-472.51 242.38,-464.07"/>
<polygon fill="black" stroke="black" points="245.88,-464.26 242.38,-454.26 238.88,-464.26 245.88,-464.26"/>
</g>
<!-- B3 -->
<g id="node4" class="node">
<title>B3</title>
<polygon fill="none" stroke="black" points="411.75,-379.5 239,-379.5 239,-343.5 411.75,-343.5 411.75,-379.5"/>
<text xml:space="preserve" text-anchor="middle" x="325.38" y="-356.45" font-family="Courier,monospace" font-size="14.00">B3: if (ir &#45; l &lt; M)</text>
</g>
<!-- B2&#45;&gt;B3 -->
<g id="edge3" class="edge">
<title>B2&#45;&gt;B3</title>
<path fill="none" stroke="black" d="M262.47,-416.31C272.69,-407.57 285.3,-396.78 296.53,-387.17"/>
<polygon fill="black" stroke="black" points="298.71,-389.92 304.03,-380.76 294.16,-384.6 298.71,-389.92"/>
</g>
<!-- B4 -->
<g id="node5" class="node">
<title>B4</title>
<polygon fill="none" stroke="black" points="664.25,-291 458.5,-291 458.5,-250 664.25,-250 664.25,-291"/>
<text xml:space="preserve" text-anchor="middle" x="561.38" y="-273.7" font-family="Courier,monospace" font-size="14.00">B4: Insertion sort loop</text>
<text xml:space="preserve" text-anchor="middle" x="561.38" y="-257.2" font-family="Courier,monospace" font-size="14.00">(j = l+1 to ir)</text>
</g>
<!-- B3&#45;&gt;B4 -->
<g id="edge4" class="edge">
<title>B3&#45;&gt;B4</title>
<path fill="none" stroke="black" d="M371.72,-343.02C407.75,-329.44 458.12,-310.44 497.9,-295.44"/>
<polygon fill="black" stroke="black" points="499.01,-298.76 507.13,-291.96 496.54,-292.21 499.01,-298.76"/>
<text xml:space="preserve" text-anchor="middle" x="474" y="-312.2" font-family="Courier,monospace" font-size="14.00">True</text>
</g>
<!-- B8 -->
<g id="node9" class="node">
<title>B8</title>
<polygon fill="none" stroke="black" points="440.62,-291 210.12,-291 210.12,-250 440.62,-250 440.62,-291"/>
<text xml:space="preserve" text-anchor="middle" x="325.38" y="-273.7" font-family="Courier,monospace" font-size="14.00">B8: Partitioning setup</text>
<text xml:space="preserve" text-anchor="middle" x="325.38" y="-257.2" font-family="Courier,monospace" font-size="14.00">(SWAP and median&#45;of&#45;three)</text>
</g>
<!-- B3&#45;&gt;B8 -->
<g id="edge5" class="edge">
<title>B3&#45;&gt;B8</title>
<path fill="none" stroke="black" d="M325.38,-343.34C325.38,-331.85 325.38,-316.4 325.38,-302.77"/>
<polygon fill="black" stroke="black" points="328.88,-302.92 325.38,-292.92 321.88,-302.92 328.88,-302.92"/>
<text xml:space="preserve" text-anchor="middle" x="346" y="-312.2" font-family="Courier,monospace" font-size="14.00">False</text>
</g>
<!-- B5 -->
<g id="node6" class="node">
<title>B5</title>
<polygon fill="none" stroke="black" points="651.88,-213 470.88,-213 470.88,-177 651.88,-177 651.88,-213"/>
<text xml:space="preserve" text-anchor="middle" x="561.38" y="-189.95" font-family="Courier,monospace" font-size="14.00">B5: if (jstack == 0)</text>
</g>
<!-- B4&#45;&gt;B5 -->
<g id="edge6" class="edge">
<title>B4&#45;&gt;B5</title>
<path fill="none" stroke="black" d="M561.38,-249.8C561.38,-242.06 561.38,-233.01 561.38,-224.57"/>
<polygon fill="black" stroke="black" points="564.88,-224.76 561.38,-214.76 557.88,-224.76 564.88,-224.76"/>
</g>
<!-- B6 -->
<g id="node7" class="node">
<title>B6</title>
<polygon fill="none" stroke="black" points="588,-124.5 398.75,-124.5 398.75,-88.5 588,-88.5 588,-124.5"/>
<text xml:space="preserve" text-anchor="middle" x="493.38" y="-101.45" font-family="Courier,monospace" font-size="14.00">B6: Break out of loop</text>
</g>
<!-- B5&#45;&gt;B6 -->
<g id="edge7" class="edge">
<title>B5&#45;&gt;B6</title>
<path fill="none" stroke="black" d="M547.94,-176.91C538.22,-164.55 524.92,-147.63 513.88,-133.58"/>
<polygon fill="black" stroke="black" points="516.88,-131.74 507.95,-126.04 511.38,-136.06 516.88,-131.74"/>
<text xml:space="preserve" text-anchor="middle" x="549.97" y="-145.7" font-family="Courier,monospace" font-size="14.00">True</text>
</g>
<!-- B7 -->
<g id="node8" class="node">
<title>B7</title>
<polygon fill="none" stroke="black" points="795,-124.5 605.75,-124.5 605.75,-88.5 795,-88.5 795,-124.5"/>
<text xml:space="preserve" text-anchor="middle" x="700.38" y="-101.45" font-family="Courier,monospace" font-size="14.00">B7: Pop stack (ir, l)</text>
</g>
<!-- B5&#45;&gt;B7 -->
<g id="edge8" class="edge">
<title>B5&#45;&gt;B7</title>
<path fill="none" stroke="black" d="M587.79,-176.57C603.24,-166.46 623.18,-153.59 641.12,-142.5 647.48,-138.58 654.26,-134.48 660.88,-130.54"/>
<polygon fill="black" stroke="black" points="662.28,-133.78 669.1,-125.67 658.71,-127.75 662.28,-133.78"/>
<text xml:space="preserve" text-anchor="middle" x="661.75" y="-145.7" font-family="Courier,monospace" font-size="14.00">False</text>
</g>
<!-- end -->
<g id="node13" class="node">
<title>end</title>
<ellipse fill="none" stroke="black" cx="493.38" cy="-18" rx="27.81" ry="18"/>
<text xml:space="preserve" text-anchor="middle" x="493.38" y="-12.95" font-family="Courier,monospace" font-size="14.00">End</text>
</g>
<!-- B6&#45;&gt;end -->
<g id="edge9" class="edge">
<title>B6&#45;&gt;end</title>
<path fill="none" stroke="black" d="M493.38,-88.41C493.38,-76.76 493.38,-61.05 493.38,-47.52"/>
<polygon fill="black" stroke="black" points="496.88,-47.86 493.38,-37.86 489.88,-47.86 496.88,-47.86"/>
</g>
<!-- B7&#45;&gt;B2 -->
<g id="edge10" class="edge">
<title>B7&#45;&gt;B2</title>
<path fill="none" stroke="black" d="M699.11,-124.72C697.94,-142.17 696.38,-169.95 696.38,-194 696.38,-362.5 696.38,-362.5 696.38,-362.5 696.38,-396.81 491.34,-417.07 356.85,-426.67"/>
<polygon fill="black" stroke="black" points="356.92,-423.16 347.19,-427.35 357.41,-430.14 356.92,-423.16"/>
</g>
<!-- B9 -->
<g id="node10" class="node">
<title>B9</title>
<polygon fill="none" stroke="black" points="430.75,-213 192,-213 192,-177 430.75,-177 430.75,-213"/>
<text xml:space="preserve" text-anchor="middle" x="311.38" y="-189.95" font-family="Courier,monospace" font-size="14.00">B9: Inner partitioning loop</text>
</g>
<!-- B8&#45;&gt;B9 -->
<g id="edge11" class="edge">
<title>B8&#45;&gt;B9</title>
<path fill="none" stroke="black" d="M321.62,-249.8C320.13,-241.97 318.39,-232.81 316.76,-224.28"/>
<polygon fill="black" stroke="black" points="320.25,-223.9 314.94,-214.73 313.38,-225.21 320.25,-223.9"/>
</g>
<!-- B10 -->
<g id="node11" class="node">
<title>B10</title>
<polygon fill="none" stroke="black" points="380.88,-124.5 133.88,-124.5 133.88,-88.5 380.88,-88.5 380.88,-124.5"/>
<text xml:space="preserve" text-anchor="middle" x="257.38" y="-101.45" font-family="Courier,monospace" font-size="14.00">B10: Update stack and bounds</text>
</g>
<!-- B9&#45;&gt;B10 -->
<g id="edge12" class="edge">
<title>B9&#45;&gt;B10</title>
<path fill="none" stroke="black" d="M300.71,-176.91C293.14,-164.79 282.83,-148.27 274.16,-134.39"/>
<polygon fill="black" stroke="black" points="277.27,-132.76 269.01,-126.13 271.33,-136.47 277.27,-132.76"/>
<text xml:space="preserve" text-anchor="middle" x="346.96" y="-145.7" font-family="Courier,monospace" font-size="14.00">Partition done</text>
</g>
<!-- B10&#45;&gt;B2 -->
<g id="edge14" class="edge">
<title>B10&#45;&gt;B2</title>
<path fill="none" stroke="black" d="M215.53,-124.96C188.89,-139.17 159.38,-162.12 159.38,-194 159.38,-362.5 159.38,-362.5 159.38,-362.5 159.38,-382.98 174.15,-398.82 191.23,-410.28"/>
<polygon fill="black" stroke="black" points="189.23,-413.16 199.59,-415.41 192.89,-407.2 189.23,-413.16"/>
<text xml:space="preserve" text-anchor="middle" x="175.88" y="-265.45" font-family="Courier,monospace" font-size="14.00">True</text>
</g>
<!-- B11 -->
<g id="node12" class="node">
<title>B11</title>
<polygon fill="none" stroke="black" points="304.75,-36 0,-36 0,0 304.75,0 304.75,-36"/>
<text xml:space="preserve" text-anchor="middle" x="152.38" y="-12.95" font-family="Courier,monospace" font-size="14.00">B11: Update stack and bounds (else)</text>
</g>
<!-- B10&#45;&gt;B11 -->
<g id="edge13" class="edge">
<title>B10&#45;&gt;B11</title>
<path fill="none" stroke="black" d="M236.38,-88.2C220.78,-75.36 199.3,-57.66 181.97,-43.38"/>
<polygon fill="black" stroke="black" points="184.45,-40.89 174.5,-37.23 180,-46.29 184.45,-40.89"/>
<text xml:space="preserve" text-anchor="middle" x="234.9" y="-57.2" font-family="Courier,monospace" font-size="14.00">False</text>
</g>
<!-- B11&#45;&gt;B2 -->
<g id="edge15" class="edge">
<title>B11&#45;&gt;B2</title>
<path fill="none" stroke="black" d="M136.2,-36.4C122.6,-52.89 105.38,-79.01 105.38,-105.5 105.38,-362.5 105.38,-362.5 105.38,-362.5 105.38,-385.29 120.51,-400.78 140.71,-411.29"/>
<polygon fill="black" stroke="black" points="139.08,-414.39 149.62,-415.43 142.03,-408.04 139.08,-414.39"/>
</g>
</g>
</svg>
