<?xml version="1.0" encoding="UTF-8" standalone="no"?>
<!DOCTYPE svg PUBLIC "-//W3C//DTD SVG 1.1//EN"
 "http://www.w3.org/Graphics/SVG/1.1/DTD/svg11.dtd">
<!-- Generated by graphviz version 13.1.2 (20250808.2320)
 -->
<!-- Title: sort_DFG Pages: 1 -->
<svg width="298pt" height="440pt"
 viewBox="0.00 0.00 298.00 440.00" xmlns="http://www.w3.org/2000/svg" xmlns:xlink="http://www.w3.org/1999/xlink">
<g id="graph0" class="graph" transform="scale(1 1) rotate(0) translate(4 436)">
<title>sort_DFG</title>
<polygon fill="white" stroke="none" points="-4,4 -4,-436 293.54,-436 293.54,4 -4,4"/>
<!-- n_in -->
<g id="node1" class="node">
<title>n_in</title>
<ellipse fill="lightblue" stroke="black" cx="39.08" cy="-414" rx="27" ry="18"/>
<text xml:space="preserve" text-anchor="middle" x="39.08" y="-408.95" font-family="Times New Roman,serif" font-size="14.00">n</text>
</g>
<!-- op_init -->
<g id="node4" class="node">
<title>op_init</title>
<polygon fill="none" stroke="black" points="153.58,-359 68.58,-359 68.58,-323 153.58,-323 153.58,-359"/>
<text xml:space="preserve" text-anchor="middle" x="111.08" y="-335.95" font-family="Times New Roman,serif" font-size="14.00">Initialization</text>
</g>
<!-- n_in&#45;&gt;op_init -->
<g id="edge1" class="edge">
<title>n_in&#45;&gt;op_init</title>
<path fill="none" stroke="black" d="M53.65,-398.63C62.73,-389.68 74.66,-377.91 85.3,-367.42"/>
<polygon fill="black" stroke="black" points="87.73,-369.93 92.4,-360.42 82.82,-364.95 87.73,-369.93"/>
</g>
<!-- arr_in -->
<g id="node2" class="node">
<title>arr_in</title>
<ellipse fill="lightblue" stroke="black" cx="111.08" cy="-414" rx="27" ry="18"/>
<text xml:space="preserve" text-anchor="middle" x="111.08" y="-408.95" font-family="Times New Roman,serif" font-size="14.00">arr</text>
</g>
<!-- arr_in&#45;&gt;op_init -->
<g id="edge2" class="edge">
<title>arr_in&#45;&gt;op_init</title>
<path fill="none" stroke="black" d="M111.08,-395.81C111.08,-388.23 111.08,-379.1 111.08,-370.54"/>
<polygon fill="black" stroke="black" points="114.58,-370.54 111.08,-360.54 107.58,-370.54 114.58,-370.54"/>
</g>
<!-- istack_in -->
<g id="node3" class="node">
<title>istack_in</title>
<ellipse fill="lightblue" stroke="black" cx="188.08" cy="-414" rx="32.41" ry="18"/>
<text xml:space="preserve" text-anchor="middle" x="188.08" y="-408.95" font-family="Times New Roman,serif" font-size="14.00">istack</text>
</g>
<!-- istack_in&#45;&gt;op_init -->
<g id="edge3" class="edge">
<title>istack_in&#45;&gt;op_init</title>
<path fill="none" stroke="black" d="M171.75,-397.94C161.97,-388.93 149.29,-377.24 138.06,-366.88"/>
<polygon fill="black" stroke="black" points="140.66,-364.52 130.93,-360.31 135.91,-369.66 140.66,-364.52"/>
</g>
<!-- op_cond -->
<g id="node5" class="node">
<title>op_cond</title>
<polygon fill="none" stroke="black" points="145.33,-286 76.83,-286 76.83,-250 145.33,-250 145.33,-286"/>
<text xml:space="preserve" text-anchor="middle" x="111.08" y="-262.95" font-family="Times New Roman,serif" font-size="14.00">ir &#45; l &lt; M</text>
</g>
<!-- op_init&#45;&gt;op_cond -->
<g id="edge4" class="edge">
<title>op_init&#45;&gt;op_cond</title>
<path fill="none" stroke="black" d="M111.08,-322.81C111.08,-315.23 111.08,-306.1 111.08,-297.54"/>
<polygon fill="black" stroke="black" points="114.58,-297.54 111.08,-287.54 107.58,-297.54 114.58,-297.54"/>
</g>
<!-- op_insert -->
<g id="node6" class="node">
<title>op_insert</title>
<polygon fill="none" stroke="black" points="130.2,-197.5 39.95,-197.5 39.95,-161.5 130.2,-161.5 130.2,-197.5"/>
<text xml:space="preserve" text-anchor="middle" x="85.08" y="-174.45" font-family="Times New Roman,serif" font-size="14.00">Insertion Sort</text>
</g>
<!-- op_cond&#45;&gt;op_insert -->
<g id="edge5" class="edge">
<title>op_cond&#45;&gt;op_insert</title>
<path fill="none" stroke="black" d="M105.94,-249.91C102.4,-238.14 97.62,-222.23 93.53,-208.61"/>
<polygon fill="black" stroke="black" points="96.96,-207.87 90.73,-199.3 90.25,-209.88 96.96,-207.87"/>
<text xml:space="preserve" text-anchor="middle" x="110.91" y="-218.7" font-family="Times New Roman,serif" font-size="14.00">true</text>
</g>
<!-- op_partition -->
<g id="node7" class="node">
<title>op_partition</title>
<polygon fill="none" stroke="black" points="239.95,-197.5 160.2,-197.5 160.2,-161.5 239.95,-161.5 239.95,-197.5"/>
<text xml:space="preserve" text-anchor="middle" x="200.08" y="-174.45" font-family="Times New Roman,serif" font-size="14.00">Partitioning</text>
</g>
<!-- op_cond&#45;&gt;op_partition -->
<g id="edge6" class="edge">
<title>op_cond&#45;&gt;op_partition</title>
<path fill="none" stroke="black" d="M125.14,-249.64C133.8,-239.32 145.36,-226.21 156.58,-215.5 160.22,-212.02 164.19,-208.5 168.18,-205.12"/>
<polygon fill="black" stroke="black" points="170.21,-207.98 175.72,-198.93 165.77,-202.57 170.21,-207.98"/>
<text xml:space="preserve" text-anchor="middle" x="169.33" y="-218.7" font-family="Times New Roman,serif" font-size="14.00">false</text>
</g>
<!-- op_break -->
<g id="node8" class="node">
<title>op_break</title>
<polygon fill="none" stroke="black" points="116.2,-124.5 37.95,-124.5 37.95,-88.5 116.2,-88.5 116.2,-124.5"/>
<text xml:space="preserve" text-anchor="middle" x="77.08" y="-101.45" font-family="Times New Roman,serif" font-size="14.00">jstack == 0</text>
</g>
<!-- op_insert&#45;&gt;op_break -->
<g id="edge7" class="edge">
<title>op_insert&#45;&gt;op_break</title>
<path fill="none" stroke="black" d="M83.14,-161.31C82.28,-153.64 81.23,-144.39 80.26,-135.74"/>
<polygon fill="black" stroke="black" points="83.76,-135.58 79.17,-126.03 76.81,-136.36 83.76,-135.58"/>
</g>
<!-- arr_out -->
<g id="node9" class="node">
<title>arr_out</title>
<ellipse fill="lightgreen" stroke="black" cx="77.08" cy="-18" rx="52.38" ry="18"/>
<text xml:space="preserve" text-anchor="middle" x="77.08" y="-12.95" font-family="Times New Roman,serif" font-size="14.00">arr (sorted)</text>
</g>
<!-- op_insert&#45;&gt;arr_out -->
<g id="edge11" class="edge">
<title>op_insert&#45;&gt;arr_out</title>
<path fill="none" stroke="black" d="M59.24,-161.13C47.69,-151.79 35.31,-139.17 29.08,-124.5 17.23,-96.63 35.91,-65.06 53.31,-43.78"/>
<polygon fill="black" stroke="black" points="55.72,-46.34 59.6,-36.48 50.42,-41.77 55.72,-46.34"/>
</g>
<!-- istack_out -->
<g id="node10" class="node">
<title>istack_out</title>
<ellipse fill="lightgreen" stroke="black" cx="204.08" cy="-106.5" rx="70.29" ry="18"/>
<text xml:space="preserve" text-anchor="middle" x="204.08" y="-101.45" font-family="Times New Roman,serif" font-size="14.00">istack (updated)</text>
</g>
<!-- op_insert&#45;&gt;istack_out -->
<g id="edge13" class="edge">
<title>op_insert&#45;&gt;istack_out</title>
<path fill="none" stroke="black" d="M114.19,-161.13C130.29,-151.52 150.46,-139.49 167.61,-129.26"/>
<polygon fill="black" stroke="black" points="169.21,-132.38 176,-124.25 165.62,-126.37 169.21,-132.38"/>
</g>
<!-- op_partition&#45;&gt;op_cond -->
<g id="edge10" class="edge">
<title>op_partition&#45;&gt;op_cond</title>
<path fill="none" stroke="black" d="M197.44,-197.97C195.03,-208.83 190.49,-222.5 182.08,-232 174.99,-240.01 165.64,-246.39 156.07,-251.38"/>
<polygon fill="black" stroke="black" points="154.62,-248.2 147.06,-255.62 157.6,-254.53 154.62,-248.2"/>
</g>
<!-- op_partition&#45;&gt;arr_out -->
<g id="edge12" class="edge">
<title>op_partition&#45;&gt;arr_out</title>
<path fill="none" stroke="black" d="M240.17,-162.76C256.56,-154.1 273.82,-141.58 283.08,-124.5 290.71,-110.44 292.41,-101.5 283.08,-88.5 250.88,-43.65 188.22,-27.37 140.42,-21.64"/>
<polygon fill="black" stroke="black" points="141.06,-18.19 130.74,-20.62 140.32,-25.15 141.06,-18.19"/>
</g>
<!-- op_partition&#45;&gt;istack_out -->
<g id="edge14" class="edge">
<title>op_partition&#45;&gt;istack_out</title>
<path fill="none" stroke="black" d="M201.05,-161.31C201.48,-153.64 202,-144.39 202.49,-135.74"/>
<polygon fill="black" stroke="black" points="205.96,-136.22 203.03,-126.04 198.98,-135.83 205.96,-136.22"/>
</g>
<!-- op_break&#45;&gt;op_cond -->
<g id="edge8" class="edge">
<title>op_break&#45;&gt;op_cond</title>
<path fill="none" stroke="black" d="M41.65,-124.97C27.74,-133.84 13.27,-146.04 5.58,-161.5 -1.55,-175.82 -2.01,-183.41 5.58,-197.5 18.52,-221.53 43.81,-238.62 66.38,-249.84"/>
<polygon fill="black" stroke="black" points="64.6,-252.87 75.14,-253.94 67.57,-246.53 64.6,-252.87"/>
<text xml:space="preserve" text-anchor="middle" x="18.33" y="-174.45" font-family="Times New Roman,serif" font-size="14.00">false</text>
</g>
<!-- op_break&#45;&gt;arr_out -->
<g id="edge9" class="edge">
<title>op_break&#45;&gt;arr_out</title>
<path fill="none" stroke="black" d="M77.08,-88.41C77.08,-76.76 77.08,-61.05 77.08,-47.52"/>
<polygon fill="black" stroke="black" points="80.58,-47.86 77.08,-37.86 73.58,-47.86 80.58,-47.86"/>
<text xml:space="preserve" text-anchor="middle" x="87.58" y="-57.2" font-family="Times New Roman,serif" font-size="14.00">true</text>
</g>
</g>
</svg>
