<?xml version="1.0" encoding="UTF-8" standalone="no"?>
<!DOCTYPE svg PUBLIC "-//W3C//DTD SVG 1.1//EN"
 "http://www.w3.org/Graphics/SVG/1.1/DTD/svg11.dtd">
<!-- Generated by graphviz version 13.1.2 (20250808.2320)
 -->
<!-- Title: CFG Pages: 1 -->
<svg width="945pt" height="970pt"
 viewBox="0.00 0.00 945.00 970.00" xmlns="http://www.w3.org/2000/svg" xmlns:xlink="http://www.w3.org/1999/xlink">
<g id="graph0" class="graph" transform="scale(1 1) rotate(0) translate(4 965.75)">
<title>CFG</title>
<polygon fill="white" stroke="none" points="-4,4 -4,-965.75 940.62,-965.75 940.62,4 -4,4"/>
<!-- Main_Start -->
<g id="node1" class="node">
<title>Main_Start</title>
<path fill="none" stroke="black" d="M272.25,-961.75C272.25,-961.75 214.25,-961.75 214.25,-961.75 208.25,-961.75 202.25,-955.75 202.25,-949.75 202.25,-949.75 202.25,-934.25 202.25,-934.25 202.25,-928.25 208.25,-922.25 214.25,-922.25 214.25,-922.25 272.25,-922.25 272.25,-922.25 278.25,-922.25 284.25,-928.25 284.25,-934.25 284.25,-934.25 284.25,-949.75 284.25,-949.75 284.25,-955.75 278.25,-961.75 272.25,-961.75"/>
<text xml:space="preserve" text-anchor="middle" x="243.25" y="-944.45" font-family="Helvetica,sans-Serif" font-size="14.00">Main: Start</text>
<text xml:space="preserve" text-anchor="middle" x="243.25" y="-928.7" font-family="Helvetica,sans-Serif" font-size="14.00">InitSeed();</text>
</g>
<!-- Main_Call_Test -->
<g id="node2" class="node">
<title>Main_Call_Test</title>
<path fill="none" stroke="black" d="M287.62,-885.25C287.62,-885.25 198.88,-885.25 198.88,-885.25 192.88,-885.25 186.88,-879.25 186.88,-873.25 186.88,-873.25 186.88,-861.25 186.88,-861.25 186.88,-855.25 192.88,-849.25 198.88,-849.25 198.88,-849.25 287.62,-849.25 287.62,-849.25 293.62,-849.25 299.62,-855.25 299.62,-861.25 299.62,-861.25 299.62,-873.25 299.62,-873.25 299.62,-879.25 293.62,-885.25 287.62,-885.25"/>
<text xml:space="preserve" text-anchor="middle" x="243.25" y="-861.83" font-family="Helvetica,sans-Serif" font-size="14.00">Call Test(Array);</text>
</g>
<!-- Main_Start&#45;&gt;Main_Call_Test -->
<g id="edge1" class="edge">
<title>Main_Start&#45;&gt;Main_Call_Test</title>
<path fill="none" stroke="black" d="M243.25,-921.89C243.25,-914.22 243.25,-905.22 243.25,-896.8"/>
<polygon fill="black" stroke="black" points="246.75,-897.01 243.25,-887.01 239.75,-897.01 246.75,-897.01"/>
</g>
<!-- Main_Return -->
<g id="node3" class="node">
<title>Main_Return</title>
<path fill="none" stroke="black" d="M237.38,-795.75C237.38,-795.75 195.12,-795.75 195.12,-795.75 189.12,-795.75 183.12,-789.75 183.12,-783.75 183.12,-783.75 183.12,-771.75 183.12,-771.75 183.12,-765.75 189.12,-759.75 195.12,-759.75 195.12,-759.75 237.38,-759.75 237.38,-759.75 243.38,-759.75 249.38,-765.75 249.38,-771.75 249.38,-771.75 249.38,-783.75 249.38,-783.75 249.38,-789.75 243.38,-795.75 237.38,-795.75"/>
<text xml:space="preserve" text-anchor="middle" x="216.25" y="-772.33" font-family="Helvetica,sans-Serif" font-size="14.00">return 1;</text>
</g>
<!-- Main_Call_Test&#45;&gt;Main_Return -->
<g id="edge2" class="edge">
<title>Main_Call_Test&#45;&gt;Main_Return</title>
<path fill="none" stroke="black" d="M237.92,-848.96C234.22,-836.98 229.21,-820.75 224.94,-806.91"/>
<polygon fill="black" stroke="black" points="228.31,-805.97 222.02,-797.45 221.62,-808.03 228.31,-805.97"/>
</g>
<!-- Test_Start -->
<g id="node4" class="node">
<title>Test_Start</title>
<path fill="none" stroke="black" d="M365.12,-797.5C365.12,-797.5 279.38,-797.5 279.38,-797.5 273.38,-797.5 267.38,-791.5 267.38,-785.5 267.38,-785.5 267.38,-770 267.38,-770 267.38,-764 273.38,-758 279.38,-758 279.38,-758 365.12,-758 365.12,-758 371.12,-758 377.12,-764 377.12,-770 377.12,-770 377.12,-785.5 377.12,-785.5 377.12,-791.5 371.12,-797.5 365.12,-797.5"/>
<text xml:space="preserve" text-anchor="middle" x="322.25" y="-780.2" font-family="Helvetica,sans-Serif" font-size="14.00">Test: Start</text>
<text xml:space="preserve" text-anchor="middle" x="322.25" y="-764.45" font-family="Helvetica,sans-Serif" font-size="14.00">Initialize(Array);</text>
</g>
<!-- Main_Call_Test&#45;&gt;Test_Start -->
<g id="edge31" class="edge">
<title>Main_Call_Test&#45;&gt;Test_Start</title>
<path fill="none" stroke="blue" stroke-dasharray="5,2" d="M258.86,-848.96C269.88,-836.75 284.88,-820.14 297.52,-806.14"/>
<polygon fill="blue" stroke="blue" points="299.91,-808.72 304.01,-798.95 294.72,-804.02 299.91,-808.72"/>
</g>
<!-- Test_Assign_StartTime -->
<g id="node5" class="node">
<title>Test_Assign_StartTime</title>
<path fill="none" stroke="black" d="M378.25,-721C378.25,-721 266.25,-721 266.25,-721 260.25,-721 254.25,-715 254.25,-709 254.25,-709 254.25,-697 254.25,-697 254.25,-691 260.25,-685 266.25,-685 266.25,-685 378.25,-685 378.25,-685 384.25,-685 390.25,-691 390.25,-697 390.25,-697 390.25,-709 390.25,-709 390.25,-715 384.25,-721 378.25,-721"/>
<text xml:space="preserve" text-anchor="middle" x="322.25" y="-697.58" font-family="Helvetica,sans-Serif" font-size="14.00">StartTime = 1000.0;</text>
</g>
<!-- Test_Start&#45;&gt;Test_Assign_StartTime -->
<g id="edge3" class="edge">
<title>Test_Start&#45;&gt;Test_Assign_StartTime</title>
<path fill="none" stroke="black" d="M322.25,-757.64C322.25,-749.97 322.25,-740.97 322.25,-732.55"/>
<polygon fill="black" stroke="black" points="325.75,-732.76 322.25,-722.76 318.75,-732.76 325.75,-732.76"/>
</g>
<!-- Test_Call_Sum -->
<g id="node6" class="node">
<title>Test_Call_Sum</title>
<path fill="none" stroke="black" d="M368.5,-633.25C368.5,-633.25 276,-633.25 276,-633.25 270,-633.25 264,-627.25 264,-621.25 264,-621.25 264,-609.25 264,-609.25 264,-603.25 270,-597.25 276,-597.25 276,-597.25 368.5,-597.25 368.5,-597.25 374.5,-597.25 380.5,-603.25 380.5,-609.25 380.5,-609.25 380.5,-621.25 380.5,-621.25 380.5,-627.25 374.5,-633.25 368.5,-633.25"/>
<text xml:space="preserve" text-anchor="middle" x="322.25" y="-609.83" font-family="Helvetica,sans-Serif" font-size="14.00">Call Sum(Array);</text>
</g>
<!-- Test_Assign_StartTime&#45;&gt;Test_Call_Sum -->
<g id="edge4" class="edge">
<title>Test_Assign_StartTime&#45;&gt;Test_Call_Sum</title>
<path fill="none" stroke="black" d="M322.25,-684.65C322.25,-673.26 322.25,-658.09 322.25,-644.93"/>
<polygon fill="black" stroke="black" points="325.75,-645.09 322.25,-635.09 318.75,-645.09 325.75,-645.09"/>
</g>
<!-- Test_Assign_StopTime -->
<g id="node7" class="node">
<title>Test_Assign_StopTime</title>
<path fill="none" stroke="black" d="M194.88,-558.5C194.88,-558.5 83.62,-558.5 83.62,-558.5 77.62,-558.5 71.62,-552.5 71.62,-546.5 71.62,-546.5 71.62,-534.5 71.62,-534.5 71.62,-528.5 77.62,-522.5 83.62,-522.5 83.62,-522.5 194.88,-522.5 194.88,-522.5 200.88,-522.5 206.88,-528.5 206.88,-534.5 206.88,-534.5 206.88,-546.5 206.88,-546.5 206.88,-552.5 200.88,-558.5 194.88,-558.5"/>
<text xml:space="preserve" text-anchor="middle" x="139.25" y="-535.08" font-family="Helvetica,sans-Serif" font-size="14.00">StopTime = 1500.0;</text>
</g>
<!-- Test_Call_Sum&#45;&gt;Test_Assign_StopTime -->
<g id="edge5" class="edge">
<title>Test_Call_Sum&#45;&gt;Test_Assign_StopTime</title>
<path fill="none" stroke="black" d="M278.42,-596.82C252.93,-586.69 220.6,-573.84 193.52,-563.08"/>
<polygon fill="black" stroke="black" points="195.03,-559.91 184.45,-559.47 192.45,-566.41 195.03,-559.91"/>
</g>
<!-- Sum_Start -->
<g id="node18" class="node">
<title>Sum_Start</title>
<path fill="none" stroke="black" d="M500,-560.25C500,-560.25 236.5,-560.25 236.5,-560.25 230.5,-560.25 224.5,-554.25 224.5,-548.25 224.5,-548.25 224.5,-532.75 224.5,-532.75 224.5,-526.75 230.5,-520.75 236.5,-520.75 236.5,-520.75 500,-520.75 500,-520.75 506,-520.75 512,-526.75 512,-532.75 512,-532.75 512,-548.25 512,-548.25 512,-554.25 506,-560.25 500,-560.25"/>
<text xml:space="preserve" text-anchor="middle" x="368.25" y="-542.95" font-family="Helvetica,sans-Serif" font-size="14.00">Sum: Start</text>
<text xml:space="preserve" text-anchor="middle" x="368.25" y="-527.2" font-family="Helvetica,sans-Serif" font-size="14.00">Ptotal=0; Ntotal=0; Pcnt=0; Ncnt=0; Outer=0;</text>
</g>
<!-- Test_Call_Sum&#45;&gt;Sum_Start -->
<g id="edge32" class="edge">
<title>Test_Call_Sum&#45;&gt;Sum_Start</title>
<path fill="none" stroke="blue" stroke-dasharray="5,2" d="M333.15,-597.01C338.22,-588.99 344.39,-579.23 350.14,-570.14"/>
<polygon fill="blue" stroke="blue" points="352.94,-572.27 355.32,-561.94 347.02,-568.53 352.94,-572.27"/>
</g>
<!-- Test_Compute_TotalTime -->
<g id="node8" class="node">
<title>Test_Compute_TotalTime</title>
<path fill="none" stroke="black" d="M266.5,-483.75C266.5,-483.75 12,-483.75 12,-483.75 6,-483.75 0,-477.75 0,-471.75 0,-471.75 0,-459.75 0,-459.75 0,-453.75 6,-447.75 12,-447.75 12,-447.75 266.5,-447.75 266.5,-447.75 272.5,-447.75 278.5,-453.75 278.5,-459.75 278.5,-459.75 278.5,-471.75 278.5,-471.75 278.5,-477.75 272.5,-483.75 266.5,-483.75"/>
<text xml:space="preserve" text-anchor="middle" x="139.25" y="-460.32" font-family="Helvetica,sans-Serif" font-size="14.00">TotalTime = (StopTime &#45; StartTime)/1000.0;</text>
</g>
<!-- Test_Assign_StopTime&#45;&gt;Test_Compute_TotalTime -->
<g id="edge6" class="edge">
<title>Test_Assign_StopTime&#45;&gt;Test_Compute_TotalTime</title>
<path fill="none" stroke="black" d="M139.25,-522.26C139.25,-514.25 139.25,-504.52 139.25,-495.45"/>
<polygon fill="black" stroke="black" points="142.75,-495.63 139.25,-485.63 135.75,-495.63 142.75,-495.63"/>
</g>
<!-- Test_Return -->
<g id="node9" class="node">
<title>Test_Return</title>
<path fill="none" stroke="black" d="M160.38,-378.5C160.38,-378.5 118.12,-378.5 118.12,-378.5 112.12,-378.5 106.12,-372.5 106.12,-366.5 106.12,-366.5 106.12,-354.5 106.12,-354.5 106.12,-348.5 112.12,-342.5 118.12,-342.5 118.12,-342.5 160.38,-342.5 160.38,-342.5 166.38,-342.5 172.38,-348.5 172.38,-354.5 172.38,-354.5 172.38,-366.5 172.38,-366.5 172.38,-372.5 166.38,-378.5 160.38,-378.5"/>
<text xml:space="preserve" text-anchor="middle" x="139.25" y="-355.07" font-family="Helvetica,sans-Serif" font-size="14.00">return 0;</text>
</g>
<!-- Test_Compute_TotalTime&#45;&gt;Test_Return -->
<g id="edge7" class="edge">
<title>Test_Compute_TotalTime&#45;&gt;Test_Return</title>
<path fill="none" stroke="black" d="M139.25,-447.7C139.25,-432.1 139.25,-408.71 139.25,-390.23"/>
<polygon fill="black" stroke="black" points="142.75,-390.43 139.25,-380.43 135.75,-390.43 142.75,-390.43"/>
</g>
<!-- Init_Start -->
<g id="node10" class="node">
<title>Init_Start</title>
<path fill="none" stroke="black" d="M622.75,-961.75C622.75,-961.75 543.75,-961.75 543.75,-961.75 537.75,-961.75 531.75,-955.75 531.75,-949.75 531.75,-949.75 531.75,-934.25 531.75,-934.25 531.75,-928.25 537.75,-922.25 543.75,-922.25 543.75,-922.25 622.75,-922.25 622.75,-922.25 628.75,-922.25 634.75,-928.25 634.75,-934.25 634.75,-934.25 634.75,-949.75 634.75,-949.75 634.75,-955.75 628.75,-961.75 622.75,-961.75"/>
<text xml:space="preserve" text-anchor="middle" x="583.25" y="-944.45" font-family="Helvetica,sans-Serif" font-size="14.00">Initialize: Start</text>
<text xml:space="preserve" text-anchor="middle" x="583.25" y="-928.7" font-family="Helvetica,sans-Serif" font-size="14.00">OuterIndex=0;</text>
</g>
<!-- Init_OuterLoop -->
<g id="node11" class="node">
<title>Init_OuterLoop</title>
<path fill="none" stroke="black" d="M654.62,-885.25C654.62,-885.25 511.88,-885.25 511.88,-885.25 505.88,-885.25 499.88,-879.25 499.88,-873.25 499.88,-873.25 499.88,-861.25 499.88,-861.25 499.88,-855.25 505.88,-849.25 511.88,-849.25 511.88,-849.25 654.62,-849.25 654.62,-849.25 660.62,-849.25 666.62,-855.25 666.62,-861.25 666.62,-861.25 666.62,-873.25 666.62,-873.25 666.62,-879.25 660.62,-885.25 654.62,-885.25"/>
<text xml:space="preserve" text-anchor="middle" x="583.25" y="-861.83" font-family="Helvetica,sans-Serif" font-size="14.00">OuterIndex &lt; MAXSIZE?</text>
</g>
<!-- Init_Start&#45;&gt;Init_OuterLoop -->
<g id="edge8" class="edge">
<title>Init_Start&#45;&gt;Init_OuterLoop</title>
<path fill="none" stroke="black" d="M583.25,-921.89C583.25,-914.22 583.25,-905.22 583.25,-896.8"/>
<polygon fill="black" stroke="black" points="586.75,-897.01 583.25,-887.01 579.75,-897.01 586.75,-897.01"/>
</g>
<!-- Init_InnerLoop -->
<g id="node12" class="node">
<title>Init_InnerLoop</title>
<path fill="none" stroke="black" d="M620.88,-795.75C620.88,-795.75 545.62,-795.75 545.62,-795.75 539.62,-795.75 533.62,-789.75 533.62,-783.75 533.62,-783.75 533.62,-771.75 533.62,-771.75 533.62,-765.75 539.62,-759.75 545.62,-759.75 545.62,-759.75 620.88,-759.75 620.88,-759.75 626.88,-759.75 632.88,-765.75 632.88,-771.75 632.88,-771.75 632.88,-783.75 632.88,-783.75 632.88,-789.75 626.88,-795.75 620.88,-795.75"/>
<text xml:space="preserve" text-anchor="middle" x="583.25" y="-772.33" font-family="Helvetica,sans-Serif" font-size="14.00">InnerIndex=0;</text>
</g>
<!-- Init_OuterLoop&#45;&gt;Init_InnerLoop -->
<g id="edge9" class="edge">
<title>Init_OuterLoop&#45;&gt;Init_InnerLoop</title>
<path fill="none" stroke="black" d="M583.25,-848.96C583.25,-837.1 583.25,-821.07 583.25,-807.33"/>
<polygon fill="black" stroke="black" points="586.75,-807.51 583.25,-797.51 579.75,-807.51 586.75,-807.51"/>
<text xml:space="preserve" text-anchor="middle" x="594.88" y="-817.95" font-family="Helvetica,sans-Serif" font-size="14.00">true</text>
</g>
<!-- Init_Return -->
<g id="node17" class="node">
<title>Init_Return</title>
<path fill="none" stroke="black" d="M705.38,-795.75C705.38,-795.75 663.12,-795.75 663.12,-795.75 657.12,-795.75 651.12,-789.75 651.12,-783.75 651.12,-783.75 651.12,-771.75 651.12,-771.75 651.12,-765.75 657.12,-759.75 663.12,-759.75 663.12,-759.75 705.38,-759.75 705.38,-759.75 711.38,-759.75 717.38,-765.75 717.38,-771.75 717.38,-771.75 717.38,-783.75 717.38,-783.75 717.38,-789.75 711.38,-795.75 705.38,-795.75"/>
<text xml:space="preserve" text-anchor="middle" x="684.25" y="-772.33" font-family="Helvetica,sans-Serif" font-size="14.00">return 0;</text>
</g>
<!-- Init_OuterLoop&#45;&gt;Init_Return -->
<g id="edge10" class="edge">
<title>Init_OuterLoop&#45;&gt;Init_Return</title>
<path fill="none" stroke="black" d="M603.2,-848.96C618.28,-835.9 639.18,-817.8 655.98,-803.24"/>
<polygon fill="black" stroke="black" points="657.93,-806.19 663.19,-796.99 653.34,-800.89 657.93,-806.19"/>
<text xml:space="preserve" text-anchor="middle" x="654.05" y="-817.95" font-family="Helvetica,sans-Serif" font-size="14.00">false</text>
</g>
<!-- Init_InnerCondition -->
<g id="node13" class="node">
<title>Init_InnerCondition</title>
<path fill="none" stroke="black" d="M668.75,-721C668.75,-721 529.75,-721 529.75,-721 523.75,-721 517.75,-715 517.75,-709 517.75,-709 517.75,-697 517.75,-697 517.75,-691 523.75,-685 529.75,-685 529.75,-685 668.75,-685 668.75,-685 674.75,-685 680.75,-691 680.75,-697 680.75,-697 680.75,-709 680.75,-709 680.75,-715 674.75,-721 668.75,-721"/>
<text xml:space="preserve" text-anchor="middle" x="599.25" y="-697.58" font-family="Helvetica,sans-Serif" font-size="14.00">InnerIndex &lt; MAXSIZE?</text>
</g>
<!-- Init_InnerLoop&#45;&gt;Init_InnerCondition -->
<g id="edge11" class="edge">
<title>Init_InnerLoop&#45;&gt;Init_InnerCondition</title>
<path fill="none" stroke="black" d="M587.04,-759.51C588.82,-751.41 590.99,-741.55 593,-732.4"/>
<polygon fill="black" stroke="black" points="596.38,-733.37 595.1,-722.85 589.54,-731.86 596.38,-733.37"/>
</g>
<!-- Init_Assign -->
<g id="node14" class="node">
<title>Init_Assign</title>
<path fill="none" stroke="black" d="M924.62,-633.25C924.62,-633.25 631.88,-633.25 631.88,-633.25 625.88,-633.25 619.88,-627.25 619.88,-621.25 619.88,-621.25 619.88,-609.25 619.88,-609.25 619.88,-603.25 625.88,-597.25 631.88,-597.25 631.88,-597.25 924.62,-597.25 924.62,-597.25 930.62,-597.25 936.62,-603.25 936.62,-609.25 936.62,-609.25 936.62,-621.25 936.62,-621.25 936.62,-627.25 930.62,-633.25 924.62,-633.25"/>
<text xml:space="preserve" text-anchor="middle" x="778.25" y="-609.83" font-family="Helvetica,sans-Serif" font-size="14.00">Array[OuterIndex][InnerIndex] = RandomInteger();</text>
</g>
<!-- Init_InnerCondition&#45;&gt;Init_Assign -->
<g id="edge12" class="edge">
<title>Init_InnerCondition&#45;&gt;Init_Assign</title>
<path fill="none" stroke="black" d="M635.47,-684.65C663.16,-671.38 701.55,-652.99 731.54,-638.62"/>
<polygon fill="black" stroke="black" points="732.9,-641.85 740.41,-634.38 729.88,-635.54 732.9,-641.85"/>
<text xml:space="preserve" text-anchor="middle" x="716.41" y="-653.7" font-family="Helvetica,sans-Serif" font-size="14.00">true</text>
</g>
<!-- Init_OuterIncrement -->
<g id="node16" class="node">
<title>Init_OuterIncrement</title>
<path fill="none" stroke="black" d="M537.12,-633.25C537.12,-633.25 457.38,-633.25 457.38,-633.25 451.38,-633.25 445.38,-627.25 445.38,-621.25 445.38,-621.25 445.38,-609.25 445.38,-609.25 445.38,-603.25 451.38,-597.25 457.38,-597.25 457.38,-597.25 537.12,-597.25 537.12,-597.25 543.12,-597.25 549.12,-603.25 549.12,-609.25 549.12,-609.25 549.12,-621.25 549.12,-621.25 549.12,-627.25 543.12,-633.25 537.12,-633.25"/>
<text xml:space="preserve" text-anchor="middle" x="497.25" y="-609.83" font-family="Helvetica,sans-Serif" font-size="14.00">OuterIndex++;</text>
</g>
<!-- Init_InnerCondition&#45;&gt;Init_OuterIncrement -->
<g id="edge13" class="edge">
<title>Init_InnerCondition&#45;&gt;Init_OuterIncrement</title>
<path fill="none" stroke="black" d="M573,-684.56C565.33,-679.16 557.04,-673.04 549.75,-667 540.23,-659.11 530.35,-649.87 521.76,-641.45"/>
<polygon fill="black" stroke="black" points="524.29,-639.03 514.74,-634.46 519.35,-643.99 524.29,-639.03"/>
<text xml:space="preserve" text-anchor="middle" x="564" y="-653.7" font-family="Helvetica,sans-Serif" font-size="14.00">false</text>
</g>
<!-- Init_InnerIncrement -->
<g id="node15" class="node">
<title>Init_InnerIncrement</title>
<path fill="none" stroke="black" d="M665.25,-558.5C665.25,-558.5 589.25,-558.5 589.25,-558.5 583.25,-558.5 577.25,-552.5 577.25,-546.5 577.25,-546.5 577.25,-534.5 577.25,-534.5 577.25,-528.5 583.25,-522.5 589.25,-522.5 589.25,-522.5 665.25,-522.5 665.25,-522.5 671.25,-522.5 677.25,-528.5 677.25,-534.5 677.25,-534.5 677.25,-546.5 677.25,-546.5 677.25,-552.5 671.25,-558.5 665.25,-558.5"/>
<text xml:space="preserve" text-anchor="middle" x="627.25" y="-535.08" font-family="Helvetica,sans-Serif" font-size="14.00">InnerIndex++;</text>
</g>
<!-- Init_Assign&#45;&gt;Init_InnerIncrement -->
<g id="edge14" class="edge">
<title>Init_Assign&#45;&gt;Init_InnerIncrement</title>
<path fill="none" stroke="black" d="M742.08,-596.82C721.52,-586.92 695.56,-574.41 673.52,-563.79"/>
<polygon fill="black" stroke="black" points="675.28,-560.75 664.75,-559.57 672.24,-567.06 675.28,-560.75"/>
</g>
<!-- Rand_Start -->
<g id="node28" class="node">
<title>Rand_Start</title>
<path fill="none" stroke="black" d="M839.12,-558.5C839.12,-558.5 717.38,-558.5 717.38,-558.5 711.38,-558.5 705.38,-552.5 705.38,-546.5 705.38,-546.5 705.38,-534.5 705.38,-534.5 705.38,-528.5 711.38,-522.5 717.38,-522.5 717.38,-522.5 839.12,-522.5 839.12,-522.5 845.12,-522.5 851.12,-528.5 851.12,-534.5 851.12,-534.5 851.12,-546.5 851.12,-546.5 851.12,-552.5 845.12,-558.5 839.12,-558.5"/>
<text xml:space="preserve" text-anchor="middle" x="778.25" y="-535.08" font-family="Helvetica,sans-Serif" font-size="14.00">RandomInteger: Start</text>
</g>
<!-- Init_Assign&#45;&gt;Rand_Start -->
<g id="edge33" class="edge">
<title>Init_Assign&#45;&gt;Rand_Start</title>
<path fill="none" stroke="green" stroke-dasharray="5,2" d="M778.25,-597.01C778.25,-589 778.25,-579.27 778.25,-570.2"/>
<polygon fill="green" stroke="green" points="781.75,-570.38 778.25,-560.38 774.75,-570.38 781.75,-570.38"/>
</g>
<!-- Init_InnerIncrement&#45;&gt;Init_InnerCondition -->
<g id="edge15" class="edge">
<title>Init_InnerIncrement&#45;&gt;Init_InnerCondition</title>
<path fill="none" stroke="black" d="M621.45,-558.89C618.02,-569.8 613.85,-584.21 611.25,-597.25 606.16,-622.76 603.03,-652.23 601.24,-673.4"/>
<polygon fill="black" stroke="black" points="597.76,-673.06 600.46,-683.3 604.74,-673.61 597.76,-673.06"/>
</g>
<!-- Init_OuterIncrement&#45;&gt;Init_OuterLoop -->
<g id="edge16" class="edge">
<title>Init_OuterIncrement&#45;&gt;Init_OuterLoop</title>
<path fill="none" stroke="black" d="M496.43,-633.51C495.54,-666.98 497.05,-742.28 524.25,-797.5 532.08,-813.4 544.44,-828.61 555.84,-840.67"/>
<polygon fill="black" stroke="black" points="553.31,-843.1 562.82,-847.78 558.31,-838.2 553.31,-843.1"/>
</g>
<!-- Sum_OuterLoop -->
<g id="node19" class="node">
<title>Sum_OuterLoop</title>
<path fill="none" stroke="black" d="M423.12,-483.75C423.12,-483.75 313.38,-483.75 313.38,-483.75 307.38,-483.75 301.38,-477.75 301.38,-471.75 301.38,-471.75 301.38,-459.75 301.38,-459.75 301.38,-453.75 307.38,-447.75 313.38,-447.75 313.38,-447.75 423.12,-447.75 423.12,-447.75 429.12,-447.75 435.12,-453.75 435.12,-459.75 435.12,-459.75 435.12,-471.75 435.12,-471.75 435.12,-477.75 429.12,-483.75 423.12,-483.75"/>
<text xml:space="preserve" text-anchor="middle" x="368.25" y="-460.32" font-family="Helvetica,sans-Serif" font-size="14.00">Outer &lt; MAXSIZE?</text>
</g>
<!-- Sum_Start&#45;&gt;Sum_OuterLoop -->
<g id="edge17" class="edge">
<title>Sum_Start&#45;&gt;Sum_OuterLoop</title>
<path fill="none" stroke="black" d="M368.25,-520.39C368.25,-512.72 368.25,-503.72 368.25,-495.3"/>
<polygon fill="black" stroke="black" points="371.75,-495.51 368.25,-485.51 364.75,-495.51 371.75,-495.51"/>
</g>
<!-- Sum_InnerLoop -->
<g id="node20" class="node">
<title>Sum_InnerLoop</title>
<path fill="none" stroke="black" d="M460.38,-378.5C460.38,-378.5 418.12,-378.5 418.12,-378.5 412.12,-378.5 406.12,-372.5 406.12,-366.5 406.12,-366.5 406.12,-354.5 406.12,-354.5 406.12,-348.5 412.12,-342.5 418.12,-342.5 418.12,-342.5 460.38,-342.5 460.38,-342.5 466.38,-342.5 472.38,-348.5 472.38,-354.5 472.38,-354.5 472.38,-366.5 472.38,-366.5 472.38,-372.5 466.38,-378.5 460.38,-378.5"/>
<text xml:space="preserve" text-anchor="middle" x="439.25" y="-355.07" font-family="Helvetica,sans-Serif" font-size="14.00">Inner=0;</text>
</g>
<!-- Sum_OuterLoop&#45;&gt;Sum_InnerLoop -->
<g id="edge18" class="edge">
<title>Sum_OuterLoop&#45;&gt;Sum_InnerLoop</title>
<path fill="none" stroke="black" d="M379.97,-447.7C391.06,-431.58 407.87,-407.14 420.76,-388.39"/>
<polygon fill="black" stroke="black" points="423.63,-390.39 426.41,-380.17 417.86,-386.42 423.63,-390.39"/>
<text xml:space="preserve" text-anchor="middle" x="413.25" y="-416.45" font-family="Helvetica,sans-Serif" font-size="14.00">true</text>
</g>
<!-- Sum_Assign -->
<g id="node27" class="node">
<title>Sum_Assign</title>
<path fill="none" stroke="black" d="M328,-396C328,-396 238.5,-396 238.5,-396 232.5,-396 226.5,-390 226.5,-384 226.5,-384 226.5,-337 226.5,-337 226.5,-331 232.5,-325 238.5,-325 238.5,-325 328,-325 328,-325 334,-325 340,-331 340,-337 340,-337 340,-384 340,-384 340,-390 334,-396 328,-396"/>
<text xml:space="preserve" text-anchor="middle" x="283.25" y="-378.7" font-family="Helvetica,sans-Serif" font-size="14.00">Postotal=Ptotal;</text>
<text xml:space="preserve" text-anchor="middle" x="283.25" y="-362.95" font-family="Helvetica,sans-Serif" font-size="14.00">Poscnt=Pcnt;</text>
<text xml:space="preserve" text-anchor="middle" x="283.25" y="-347.2" font-family="Helvetica,sans-Serif" font-size="14.00">Negtotal=Ntotal;</text>
<text xml:space="preserve" text-anchor="middle" x="283.25" y="-331.45" font-family="Helvetica,sans-Serif" font-size="14.00">Negcnt=Ncnt;</text>
</g>
<!-- Sum_OuterLoop&#45;&gt;Sum_Assign -->
<g id="edge19" class="edge">
<title>Sum_OuterLoop&#45;&gt;Sum_Assign</title>
<path fill="none" stroke="black" d="M344.52,-447.49C338.05,-442.19 331.29,-436.08 325.75,-429.75 319.4,-422.51 313.39,-414.21 307.99,-405.95"/>
<polygon fill="black" stroke="black" points="311.04,-404.23 302.76,-397.62 305.12,-407.95 311.04,-404.23"/>
<text xml:space="preserve" text-anchor="middle" x="340" y="-416.45" font-family="Helvetica,sans-Serif" font-size="14.00">false</text>
</g>
<!-- Sum_InnerCondition -->
<g id="node21" class="node">
<title>Sum_InnerCondition</title>
<path fill="none" stroke="black" d="M514.25,-288C514.25,-288 408.25,-288 408.25,-288 402.25,-288 396.25,-282 396.25,-276 396.25,-276 396.25,-264 396.25,-264 396.25,-258 402.25,-252 408.25,-252 408.25,-252 514.25,-252 514.25,-252 520.25,-252 526.25,-258 526.25,-264 526.25,-264 526.25,-276 526.25,-276 526.25,-282 520.25,-288 514.25,-288"/>
<text xml:space="preserve" text-anchor="middle" x="461.25" y="-264.57" font-family="Helvetica,sans-Serif" font-size="14.00">Inner &lt; MAXSIZE?</text>
</g>
<!-- Sum_InnerLoop&#45;&gt;Sum_InnerCondition -->
<g id="edge20" class="edge">
<title>Sum_InnerLoop&#45;&gt;Sum_InnerCondition</title>
<path fill="none" stroke="black" d="M443.6,-342.02C446.61,-329.89 450.69,-313.48 454.17,-299.49"/>
<polygon fill="black" stroke="black" points="457.53,-300.47 456.55,-289.92 450.74,-298.78 457.53,-300.47"/>
</g>
<!-- Sum_CheckValue -->
<g id="node22" class="node">
<title>Sum_CheckValue</title>
<path fill="none" stroke="black" d="M647.88,-200.25C647.88,-200.25 512.62,-200.25 512.62,-200.25 506.62,-200.25 500.62,-194.25 500.62,-188.25 500.62,-188.25 500.62,-176.25 500.62,-176.25 500.62,-170.25 506.62,-164.25 512.62,-164.25 512.62,-164.25 647.88,-164.25 647.88,-164.25 653.88,-164.25 659.88,-170.25 659.88,-176.25 659.88,-176.25 659.88,-188.25 659.88,-188.25 659.88,-194.25 653.88,-200.25 647.88,-200.25"/>
<text xml:space="preserve" text-anchor="middle" x="580.25" y="-176.82" font-family="Helvetica,sans-Serif" font-size="14.00">Array[Outer][Inner] &lt; 0?</text>
</g>
<!-- Sum_InnerCondition&#45;&gt;Sum_CheckValue -->
<g id="edge21" class="edge">
<title>Sum_InnerCondition&#45;&gt;Sum_CheckValue</title>
<path fill="none" stroke="black" d="M485.33,-251.65C503.07,-238.86 527.42,-221.32 547.02,-207.2"/>
<polygon fill="black" stroke="black" points="548.91,-210.15 554.98,-201.46 544.82,-204.47 548.91,-210.15"/>
<text xml:space="preserve" text-anchor="middle" x="543.03" y="-220.7" font-family="Helvetica,sans-Serif" font-size="14.00">true</text>
</g>
<!-- Sum_OuterIncrement -->
<g id="node26" class="node">
<title>Sum_OuterIncrement</title>
<path fill="none" stroke="black" d="M410.62,-200.25C410.62,-200.25 363.88,-200.25 363.88,-200.25 357.88,-200.25 351.88,-194.25 351.88,-188.25 351.88,-188.25 351.88,-176.25 351.88,-176.25 351.88,-170.25 357.88,-164.25 363.88,-164.25 363.88,-164.25 410.62,-164.25 410.62,-164.25 416.62,-164.25 422.62,-170.25 422.62,-176.25 422.62,-176.25 422.62,-188.25 422.62,-188.25 422.62,-194.25 416.62,-200.25 410.62,-200.25"/>
<text xml:space="preserve" text-anchor="middle" x="387.25" y="-176.82" font-family="Helvetica,sans-Serif" font-size="14.00">Outer++;</text>
</g>
<!-- Sum_InnerCondition&#45;&gt;Sum_OuterIncrement -->
<g id="edge22" class="edge">
<title>Sum_InnerCondition&#45;&gt;Sum_OuterIncrement</title>
<path fill="none" stroke="black" d="M433.99,-251.54C427.2,-246.41 420.29,-240.43 414.75,-234 408.75,-227.03 403.51,-218.54 399.27,-210.51"/>
<polygon fill="black" stroke="black" points="402.51,-209.16 394.95,-201.74 396.23,-212.26 402.51,-209.16"/>
<text xml:space="preserve" text-anchor="middle" x="429" y="-220.7" font-family="Helvetica,sans-Serif" font-size="14.00">false</text>
</g>
<!-- Sum_PositiveCase -->
<g id="node23" class="node">
<title>Sum_PositiveCase</title>
<path fill="none" stroke="black" d="M871.25,-112.5C871.25,-112.5 705.25,-112.5 705.25,-112.5 699.25,-112.5 693.25,-106.5 693.25,-100.5 693.25,-100.5 693.25,-85 693.25,-85 693.25,-79 699.25,-73 705.25,-73 705.25,-73 871.25,-73 871.25,-73 877.25,-73 883.25,-79 883.25,-85 883.25,-85 883.25,-100.5 883.25,-100.5 883.25,-106.5 877.25,-112.5 871.25,-112.5"/>
<text xml:space="preserve" text-anchor="middle" x="788.25" y="-95.2" font-family="Helvetica,sans-Serif" font-size="14.00">Ptotal += Array[Outer][Inner];</text>
<text xml:space="preserve" text-anchor="middle" x="788.25" y="-79.45" font-family="Helvetica,sans-Serif" font-size="14.00">Pcnt++;</text>
</g>
<!-- Sum_CheckValue&#45;&gt;Sum_PositiveCase -->
<g id="edge23" class="edge">
<title>Sum_CheckValue&#45;&gt;Sum_PositiveCase</title>
<path fill="none" stroke="black" d="M621.84,-163.75C653.54,-150.42 697.5,-131.92 732.28,-117.29"/>
<polygon fill="black" stroke="black" points="733.5,-120.58 741.36,-113.47 730.79,-114.13 733.5,-120.58"/>
<text xml:space="preserve" text-anchor="middle" x="708.33" y="-132.95" font-family="Helvetica,sans-Serif" font-size="14.00">true</text>
</g>
<!-- Sum_NegativeCase -->
<g id="node24" class="node">
<title>Sum_NegativeCase</title>
<path fill="none" stroke="black" d="M663.62,-112.5C663.62,-112.5 496.88,-112.5 496.88,-112.5 490.88,-112.5 484.88,-106.5 484.88,-100.5 484.88,-100.5 484.88,-85 484.88,-85 484.88,-79 490.88,-73 496.88,-73 496.88,-73 663.62,-73 663.62,-73 669.62,-73 675.62,-79 675.62,-85 675.62,-85 675.62,-100.5 675.62,-100.5 675.62,-106.5 669.62,-112.5 663.62,-112.5"/>
<text xml:space="preserve" text-anchor="middle" x="580.25" y="-95.2" font-family="Helvetica,sans-Serif" font-size="14.00">Ntotal += Array[Outer][Inner];</text>
<text xml:space="preserve" text-anchor="middle" x="580.25" y="-79.45" font-family="Helvetica,sans-Serif" font-size="14.00">Ncnt++;</text>
</g>
<!-- Sum_CheckValue&#45;&gt;Sum_NegativeCase -->
<g id="edge24" class="edge">
<title>Sum_CheckValue&#45;&gt;Sum_NegativeCase</title>
<path fill="none" stroke="black" d="M580.25,-163.96C580.25,-152.56 580.25,-137.32 580.25,-123.95"/>
<polygon fill="black" stroke="black" points="583.75,-124.34 580.25,-114.34 576.75,-124.34 583.75,-124.34"/>
<text xml:space="preserve" text-anchor="middle" x="594.5" y="-132.95" font-family="Helvetica,sans-Serif" font-size="14.00">false</text>
</g>
<!-- Sum_InnerIncrement -->
<g id="node25" class="node">
<title>Sum_InnerIncrement</title>
<path fill="none" stroke="black" d="M601.75,-36C601.75,-36 558.75,-36 558.75,-36 552.75,-36 546.75,-30 546.75,-24 546.75,-24 546.75,-12 546.75,-12 546.75,-6 552.75,0 558.75,0 558.75,0 601.75,0 601.75,0 607.75,0 613.75,-6 613.75,-12 613.75,-12 613.75,-24 613.75,-24 613.75,-30 607.75,-36 601.75,-36"/>
<text xml:space="preserve" text-anchor="middle" x="580.25" y="-12.57" font-family="Helvetica,sans-Serif" font-size="14.00">Inner++;</text>
</g>
<!-- Sum_PositiveCase&#45;&gt;Sum_InnerIncrement -->
<g id="edge25" class="edge">
<title>Sum_PositiveCase&#45;&gt;Sum_InnerIncrement</title>
<path fill="none" stroke="black" d="M733.33,-72.54C699.41,-60.68 656.46,-45.66 624.7,-34.55"/>
<polygon fill="black" stroke="black" points="625.98,-31.29 615.39,-31.29 623.67,-37.9 625.98,-31.29"/>
</g>
<!-- Sum_NegativeCase&#45;&gt;Sum_InnerIncrement -->
<g id="edge26" class="edge">
<title>Sum_NegativeCase&#45;&gt;Sum_InnerIncrement</title>
<path fill="none" stroke="black" d="M580.25,-72.64C580.25,-64.97 580.25,-55.97 580.25,-47.55"/>
<polygon fill="black" stroke="black" points="583.75,-47.76 580.25,-37.76 576.75,-47.76 583.75,-47.76"/>
</g>
<!-- Sum_InnerIncrement&#45;&gt;Sum_InnerCondition -->
<g id="edge27" class="edge">
<title>Sum_InnerIncrement&#45;&gt;Sum_InnerCondition</title>
<path fill="none" stroke="black" d="M546.48,-27.17C522.65,-34.82 492.24,-48.82 476.25,-73 442.58,-123.94 448.64,-199.41 455.35,-240.24"/>
<polygon fill="black" stroke="black" points="451.89,-240.79 457.1,-250.01 458.78,-239.55 451.89,-240.79"/>
</g>
<!-- Sum_OuterIncrement&#45;&gt;Sum_OuterLoop -->
<g id="edge28" class="edge">
<title>Sum_OuterIncrement&#45;&gt;Sum_OuterLoop</title>
<path fill="none" stroke="black" d="M386.08,-200.57C382.9,-247.64 374.09,-378.3 370.17,-436.34"/>
<polygon fill="black" stroke="black" points="366.69,-435.84 369.51,-446.05 373.68,-436.31 366.69,-435.84"/>
</g>
<!-- Rand_Compute -->
<g id="node29" class="node">
<title>Rand_Compute</title>
<path fill="none" stroke="black" d="M871.38,-483.75C871.38,-483.75 685.12,-483.75 685.12,-483.75 679.12,-483.75 673.12,-477.75 673.12,-471.75 673.12,-471.75 673.12,-459.75 673.12,-459.75 673.12,-453.75 679.12,-447.75 685.12,-447.75 685.12,-447.75 871.38,-447.75 871.38,-447.75 877.38,-447.75 883.38,-453.75 883.38,-459.75 883.38,-459.75 883.38,-471.75 883.38,-471.75 883.38,-477.75 877.38,-483.75 871.38,-483.75"/>
<text xml:space="preserve" text-anchor="middle" x="778.25" y="-460.32" font-family="Helvetica,sans-Serif" font-size="14.00">Seed = ((Seed*133)+81)%8095;</text>
</g>
<!-- Rand_Start&#45;&gt;Rand_Compute -->
<g id="edge29" class="edge">
<title>Rand_Start&#45;&gt;Rand_Compute</title>
<path fill="none" stroke="black" d="M778.25,-522.26C778.25,-514.25 778.25,-504.52 778.25,-495.45"/>
<polygon fill="black" stroke="black" points="781.75,-495.63 778.25,-485.63 774.75,-495.63 781.75,-495.63"/>
</g>
<!-- Rand_Return -->
<g id="node30" class="node">
<title>Rand_Return</title>
<path fill="none" stroke="black" d="M811.38,-378.5C811.38,-378.5 745.12,-378.5 745.12,-378.5 739.12,-378.5 733.12,-372.5 733.12,-366.5 733.12,-366.5 733.12,-354.5 733.12,-354.5 733.12,-348.5 739.12,-342.5 745.12,-342.5 745.12,-342.5 811.38,-342.5 811.38,-342.5 817.38,-342.5 823.38,-348.5 823.38,-354.5 823.38,-354.5 823.38,-366.5 823.38,-366.5 823.38,-372.5 817.38,-378.5 811.38,-378.5"/>
<text xml:space="preserve" text-anchor="middle" x="778.25" y="-355.07" font-family="Helvetica,sans-Serif" font-size="14.00">return Seed;</text>
</g>
<!-- Rand_Compute&#45;&gt;Rand_Return -->
<g id="edge30" class="edge">
<title>Rand_Compute&#45;&gt;Rand_Return</title>
<path fill="none" stroke="black" d="M778.25,-447.7C778.25,-432.1 778.25,-408.71 778.25,-390.23"/>
<polygon fill="black" stroke="black" points="781.75,-390.43 778.25,-380.43 774.75,-390.43 781.75,-390.43"/>
</g>
</g>
</svg>
