<?xml version="1.0" encoding="UTF-8" standalone="no"?>
<!DOCTYPE svg PUBLIC "-//W3C//DTD SVG 1.1//EN"
 "http://www.w3.org/Graphics/SVG/1.1/DTD/svg11.dtd">
<!-- Generated by graphviz version 13.1.2 (20250808.2320)
 -->
<!-- Title: DFG Pages: 1 -->
<svg width="539pt" height="497pt"
 viewBox="0.00 0.00 539.00 497.00" xmlns="http://www.w3.org/2000/svg" xmlns:xlink="http://www.w3.org/1999/xlink">
<g id="graph0" class="graph" transform="scale(1 1) rotate(0) translate(4 492.75)">
<title>DFG</title>
<polygon fill="white" stroke="none" points="-4,4 -4,-492.75 535.12,-492.75 535.12,4 -4,4"/>
<!-- Rand_Seed -->
<g id="node1" class="node">
<title>Rand_Seed</title>
<ellipse fill="none" stroke="black" cx="390.75" cy="-470.75" rx="28.83" ry="18"/>
<text xml:space="preserve" text-anchor="middle" x="390.75" y="-465.7" font-family="Times New Roman,serif" font-size="14.00">Seed</text>
</g>
<!-- Rand_Compute -->
<g id="node2" class="node">
<title>Rand_Compute</title>
<polygon fill="none" stroke="black" points="445.62,-415.75 335.88,-415.75 335.88,-379.75 445.62,-379.75 445.62,-415.75"/>
<text xml:space="preserve" text-anchor="middle" x="390.75" y="-392.7" font-family="Times New Roman,serif" font-size="14.00">RandomInteger()</text>
</g>
<!-- Rand_Seed&#45;&gt;Rand_Compute -->
<g id="edge1" class="edge">
<title>Rand_Seed&#45;&gt;Rand_Compute</title>
<path fill="none" stroke="black" d="M390.75,-452.56C390.75,-444.98 390.75,-435.85 390.75,-427.29"/>
<polygon fill="black" stroke="black" points="394.25,-427.29 390.75,-417.29 387.25,-427.29 394.25,-427.29"/>
</g>
<!-- Array_Assign -->
<g id="node3" class="node">
<title>Array_Assign</title>
<polygon fill="none" stroke="black" points="507.88,-342.75 273.62,-342.75 273.62,-306.75 507.88,-306.75 507.88,-342.75"/>
<text xml:space="preserve" text-anchor="middle" x="390.75" y="-319.7" font-family="Times New Roman,serif" font-size="14.00">Array[Outer][Inner] = RandomInteger()</text>
</g>
<!-- Rand_Compute&#45;&gt;Array_Assign -->
<g id="edge2" class="edge">
<title>Rand_Compute&#45;&gt;Array_Assign</title>
<path fill="none" stroke="black" d="M390.75,-379.56C390.75,-371.98 390.75,-362.85 390.75,-354.29"/>
<polygon fill="black" stroke="black" points="394.25,-354.29 390.75,-344.29 387.25,-354.29 394.25,-354.29"/>
</g>
<!-- Array_Access -->
<g id="node4" class="node">
<title>Array_Access</title>
<ellipse fill="none" stroke="black" cx="390.75" cy="-251.75" rx="85.13" ry="18"/>
<text xml:space="preserve" text-anchor="middle" x="390.75" y="-246.7" font-family="Times New Roman,serif" font-size="14.00">Array[Outer][Inner]</text>
</g>
<!-- Array_Assign&#45;&gt;Array_Access -->
<g id="edge3" class="edge">
<title>Array_Assign&#45;&gt;Array_Access</title>
<path fill="none" stroke="black" d="M390.75,-306.56C390.75,-298.98 390.75,-289.85 390.75,-281.29"/>
<polygon fill="black" stroke="black" points="394.25,-281.29 390.75,-271.29 387.25,-281.29 394.25,-281.29"/>
</g>
<!-- Condition -->
<g id="node5" class="node">
<title>Condition</title>
<polygon fill="none" stroke="black" points="467.38,-196.75 314.12,-196.75 314.12,-160.75 467.38,-160.75 467.38,-196.75"/>
<text xml:space="preserve" text-anchor="middle" x="390.75" y="-173.7" font-family="Times New Roman,serif" font-size="14.00">Array[Outer][Inner] &lt; 0?</text>
</g>
<!-- Array_Access&#45;&gt;Condition -->
<g id="edge4" class="edge">
<title>Array_Access&#45;&gt;Condition</title>
<path fill="none" stroke="black" d="M390.75,-233.56C390.75,-225.98 390.75,-216.85 390.75,-208.29"/>
<polygon fill="black" stroke="black" points="394.25,-208.29 390.75,-198.29 387.25,-208.29 394.25,-208.29"/>
</g>
<!-- Ptotal_Update -->
<g id="node6" class="node">
<title>Ptotal_Update</title>
<polygon fill="none" stroke="black" points="179.5,-109 0,-109 0,-73 179.5,-73 179.5,-109"/>
<text xml:space="preserve" text-anchor="middle" x="89.75" y="-85.95" font-family="Times New Roman,serif" font-size="14.00">Ptotal += Array[Outer][Inner]</text>
</g>
<!-- Condition&#45;&gt;Ptotal_Update -->
<g id="edge5" class="edge">
<title>Condition&#45;&gt;Ptotal_Update</title>
<path fill="none" stroke="black" d="M329.48,-160.29C280.95,-146.47 213.06,-127.13 161.91,-112.56"/>
<polygon fill="black" stroke="black" points="162.97,-109.22 152.39,-109.85 161.05,-115.95 162.97,-109.22"/>
<text xml:space="preserve" text-anchor="middle" x="278.83" y="-129.45" font-family="Helvetica,sans-Serif" font-size="14.00">true</text>
</g>
<!-- Ntotal_Update -->
<g id="node7" class="node">
<title>Ntotal_Update</title>
<polygon fill="none" stroke="black" points="379.62,-109 197.88,-109 197.88,-73 379.62,-73 379.62,-109"/>
<text xml:space="preserve" text-anchor="middle" x="288.75" y="-85.95" font-family="Times New Roman,serif" font-size="14.00">Ntotal += Array[Outer][Inner]</text>
</g>
<!-- Condition&#45;&gt;Ntotal_Update -->
<g id="edge6" class="edge">
<title>Condition&#45;&gt;Ntotal_Update</title>
<path fill="none" stroke="black" d="M370.11,-160.4C355.18,-147.84 334.79,-130.7 318.16,-116.72"/>
<polygon fill="black" stroke="black" points="320.43,-114.06 310.52,-110.3 315.92,-119.42 320.43,-114.06"/>
<text xml:space="preserve" text-anchor="middle" x="363.14" y="-129.45" font-family="Helvetica,sans-Serif" font-size="14.00">false</text>
</g>
<!-- Pcnt_Update -->
<g id="node8" class="node">
<title>Pcnt_Update</title>
<polygon fill="none" stroke="black" points="454,-109 397.5,-109 397.5,-73 454,-73 454,-109"/>
<text xml:space="preserve" text-anchor="middle" x="425.75" y="-85.95" font-family="Times New Roman,serif" font-size="14.00">Pcnt++</text>
</g>
<!-- Condition&#45;&gt;Pcnt_Update -->
<g id="edge9" class="edge">
<title>Condition&#45;&gt;Pcnt_Update</title>
<path fill="none" stroke="black" d="M397.83,-160.4C402.58,-148.77 408.93,-133.22 414.37,-119.88"/>
<polygon fill="black" stroke="black" points="417.57,-121.31 418.11,-110.73 411.09,-118.66 417.57,-121.31"/>
<text xml:space="preserve" text-anchor="middle" x="423.01" y="-129.45" font-family="Helvetica,sans-Serif" font-size="14.00">true</text>
</g>
<!-- Ncnt_Update -->
<g id="node9" class="node">
<title>Ncnt_Update</title>
<polygon fill="none" stroke="black" points="531.12,-109 472.38,-109 472.38,-73 531.12,-73 531.12,-109"/>
<text xml:space="preserve" text-anchor="middle" x="501.75" y="-85.95" font-family="Times New Roman,serif" font-size="14.00">Ncnt++</text>
</g>
<!-- Condition&#45;&gt;Ncnt_Update -->
<g id="edge10" class="edge">
<title>Condition&#45;&gt;Ncnt_Update</title>
<path fill="none" stroke="black" d="M414.84,-160.53C422.54,-154.93 431.06,-148.65 438.75,-142.75 449.7,-134.36 461.52,-124.93 471.93,-116.5"/>
<polygon fill="black" stroke="black" points="473.94,-119.38 479.49,-110.36 469.52,-113.95 473.94,-119.38"/>
<text xml:space="preserve" text-anchor="middle" x="472.26" y="-129.45" font-family="Helvetica,sans-Serif" font-size="14.00">false</text>
</g>
<!-- Postotal_Assign -->
<g id="node10" class="node">
<title>Postotal_Assign</title>
<polygon fill="none" stroke="black" points="143.12,-36 36.38,-36 36.38,0 143.12,0 143.12,-36"/>
<text xml:space="preserve" text-anchor="middle" x="89.75" y="-12.95" font-family="Times New Roman,serif" font-size="14.00">Postotal = Ptotal</text>
</g>
<!-- Ptotal_Update&#45;&gt;Postotal_Assign -->
<g id="edge7" class="edge">
<title>Ptotal_Update&#45;&gt;Postotal_Assign</title>
<path fill="none" stroke="black" d="M89.75,-72.81C89.75,-65.23 89.75,-56.1 89.75,-47.54"/>
<polygon fill="black" stroke="black" points="93.25,-47.54 89.75,-37.54 86.25,-47.54 93.25,-47.54"/>
</g>
<!-- Negtotal_Assign -->
<g id="node11" class="node">
<title>Negtotal_Assign</title>
<polygon fill="none" stroke="black" points="344.75,-36 232.75,-36 232.75,0 344.75,0 344.75,-36"/>
<text xml:space="preserve" text-anchor="middle" x="288.75" y="-12.95" font-family="Times New Roman,serif" font-size="14.00">Negtotal = Ntotal</text>
</g>
<!-- Ntotal_Update&#45;&gt;Negtotal_Assign -->
<g id="edge8" class="edge">
<title>Ntotal_Update&#45;&gt;Negtotal_Assign</title>
<path fill="none" stroke="black" d="M288.75,-72.81C288.75,-65.23 288.75,-56.1 288.75,-47.54"/>
<polygon fill="black" stroke="black" points="292.25,-47.54 288.75,-37.54 285.25,-47.54 292.25,-47.54"/>
</g>
</g>
</svg>
