<?xml version="1.0" encoding="UTF-8" standalone="no"?>
<!DOCTYPE svg PUBLIC "-//W3C//DTD SVG 1.1//EN"
 "http://www.w3.org/Graphics/SVG/1.1/DTD/svg11.dtd">
<!-- Generated by graphviz version 13.1.2 (20250808.2320)
 -->
<!-- Title: encode_CFG Pages: 1 -->
<svg width="375pt" height="1055pt"
 viewBox="0.00 0.00 375.00 1055.00" xmlns="http://www.w3.org/2000/svg" xmlns:xlink="http://www.w3.org/1999/xlink">
<g id="graph0" class="graph" transform="scale(1 1) rotate(0) translate(4 1051)">
<title>encode_CFG</title>
<polygon fill="white" stroke="none" points="-4,4 -4,-1051 371,-1051 371,4 -4,4"/>
<!-- N1 -->
<g id="node1" class="node">
<title>N1</title>
<path fill="none" stroke="black" d="M304.88,-1047C304.88,-1047 54.12,-1047 54.12,-1047 48.12,-1047 42.12,-1041 42.12,-1035 42.12,-1035 42.12,-1023 42.12,-1023 42.12,-1017 48.12,-1011 54.12,-1011 54.12,-1011 304.88,-1011 304.88,-1011 310.88,-1011 316.88,-1017 316.88,-1023 316.88,-1023 316.88,-1035 316.88,-1035 316.88,-1041 310.88,-1047 304.88,-1047"/>
<text xml:space="preserve" text-anchor="middle" x="179.5" y="-1023.58" font-family="Helvetica,sans-Serif" font-size="14.00">Inicio: Inicializacao de ponteiros e variaveis</text>
</g>
<!-- N2 -->
<g id="node2" class="node">
<title>N2</title>
<path fill="none" stroke="black" d="M292.88,-974C292.88,-974 66.12,-974 66.12,-974 60.12,-974 54.12,-968 54.12,-962 54.12,-962 54.12,-950 54.12,-950 54.12,-944 60.12,-938 66.12,-938 66.12,-938 292.88,-938 292.88,-938 298.88,-938 304.88,-944 304.88,-950 304.88,-950 304.88,-962 304.88,-962 304.88,-968 298.88,-974 292.88,-974"/>
<text xml:space="preserve" text-anchor="middle" x="179.5" y="-950.58" font-family="Helvetica,sans-Serif" font-size="14.00">Loop: Calculo de xa e xb (10 iteracoes)</text>
</g>
<!-- N1&#45;&gt;N2 -->
<g id="edge1" class="edge">
<title>N1&#45;&gt;N2</title>
<path fill="none" stroke="black" d="M179.5,-1010.81C179.5,-1003.23 179.5,-994.1 179.5,-985.54"/>
<polygon fill="black" stroke="black" points="183,-985.54 179.5,-975.54 176,-985.54 183,-985.54"/>
</g>
<!-- N2&#45;&gt;N2 -->
<g id="edge2" class="edge">
<title>N2&#45;&gt;N2</title>
<path fill="none" stroke="black" d="M305.33,-961.34C316.13,-960.2 322.88,-958.42 322.88,-956 322.88,-954.6 320.62,-953.41 316.63,-952.44"/>
<polygon fill="black" stroke="black" points="317.25,-949 306.83,-950.9 316.16,-955.91 317.25,-949"/>
<text xml:space="preserve" text-anchor="middle" x="339.38" y="-950.95" font-family="Times New Roman,serif" font-size="14.00">i &lt; 10</text>
</g>
<!-- N3 -->
<g id="node3" class="node">
<title>N3</title>
<path fill="none" stroke="black" d="M260.25,-885.5C260.25,-885.5 98.75,-885.5 98.75,-885.5 92.75,-885.5 86.75,-879.5 86.75,-873.5 86.75,-873.5 86.75,-861.5 86.75,-861.5 86.75,-855.5 92.75,-849.5 98.75,-849.5 98.75,-849.5 260.25,-849.5 260.25,-849.5 266.25,-849.5 272.25,-855.5 272.25,-861.5 272.25,-861.5 272.25,-873.5 272.25,-873.5 272.25,-879.5 266.25,-885.5 260.25,-885.5"/>
<text xml:space="preserve" text-anchor="middle" x="179.5" y="-862.08" font-family="Helvetica,sans-Serif" font-size="14.00">Acumulacao final de xa e xb</text>
</g>
<!-- N2&#45;&gt;N3 -->
<g id="edge3" class="edge">
<title>N2&#45;&gt;N3</title>
<path fill="none" stroke="black" d="M179.5,-937.91C179.5,-926.26 179.5,-910.55 179.5,-897.02"/>
<polygon fill="black" stroke="black" points="183,-897.36 179.5,-887.36 176,-897.36 183,-897.36"/>
<text xml:space="preserve" text-anchor="middle" x="200.12" y="-906.7" font-family="Times New Roman,serif" font-size="14.00">i &gt;= 10</text>
</g>
<!-- N4 -->
<g id="node4" class="node">
<title>N4</title>
<path fill="none" stroke="black" d="M293.25,-812.5C293.25,-812.5 65.75,-812.5 65.75,-812.5 59.75,-812.5 53.75,-806.5 53.75,-800.5 53.75,-800.5 53.75,-788.5 53.75,-788.5 53.75,-782.5 59.75,-776.5 65.75,-776.5 65.75,-776.5 293.25,-776.5 293.25,-776.5 299.25,-776.5 305.25,-782.5 305.25,-788.5 305.25,-788.5 305.25,-800.5 305.25,-800.5 305.25,-806.5 299.25,-812.5 293.25,-812.5"/>
<text xml:space="preserve" text-anchor="middle" x="179.5" y="-789.08" font-family="Helvetica,sans-Serif" font-size="14.00">Atualizacao do delay line (22 iteracoes)</text>
</g>
<!-- N3&#45;&gt;N4 -->
<g id="edge4" class="edge">
<title>N3&#45;&gt;N4</title>
<path fill="none" stroke="black" d="M179.5,-849.31C179.5,-841.73 179.5,-832.6 179.5,-824.04"/>
<polygon fill="black" stroke="black" points="183,-824.04 179.5,-814.04 176,-824.04 183,-824.04"/>
</g>
<!-- N4&#45;&gt;N4 -->
<g id="edge5" class="edge">
<title>N4&#45;&gt;N4</title>
<path fill="none" stroke="black" d="M305.66,-799.84C316.49,-798.7 323.25,-796.92 323.25,-794.5 323.25,-793.1 320.99,-791.91 316.99,-790.94"/>
<polygon fill="black" stroke="black" points="317.58,-787.49 307.15,-789.4 316.49,-794.41 317.58,-787.49"/>
<text xml:space="preserve" text-anchor="middle" x="339.75" y="-789.45" font-family="Times New Roman,serif" font-size="14.00">i &lt; 22</text>
</g>
<!-- N5 -->
<g id="node5" class="node">
<title>N5</title>
<path fill="none" stroke="black" d="M228.75,-724C228.75,-724 130.25,-724 130.25,-724 124.25,-724 118.25,-718 118.25,-712 118.25,-712 118.25,-700 118.25,-700 118.25,-694 124.25,-688 130.25,-688 130.25,-688 228.75,-688 228.75,-688 234.75,-688 240.75,-694 240.75,-700 240.75,-700 240.75,-712 240.75,-712 240.75,-718 234.75,-724 228.75,-724"/>
<text xml:space="preserve" text-anchor="middle" x="179.5" y="-700.58" font-family="Helvetica,sans-Serif" font-size="14.00">Calculo de xl e xh</text>
</g>
<!-- N4&#45;&gt;N5 -->
<g id="edge6" class="edge">
<title>N4&#45;&gt;N5</title>
<path fill="none" stroke="black" d="M179.5,-776.41C179.5,-764.76 179.5,-749.05 179.5,-735.52"/>
<polygon fill="black" stroke="black" points="183,-735.86 179.5,-725.86 176,-735.86 183,-735.86"/>
<text xml:space="preserve" text-anchor="middle" x="200.12" y="-745.2" font-family="Times New Roman,serif" font-size="14.00">i &gt;= 22</text>
</g>
<!-- N6 -->
<g id="node6" class="node">
<title>N6</title>
<path fill="none" stroke="black" d="M328.88,-651C328.88,-651 30.12,-651 30.12,-651 24.12,-651 18.12,-645 18.12,-639 18.12,-639 18.12,-627 18.12,-627 18.12,-621 24.12,-615 30.12,-615 30.12,-615 328.88,-615 328.88,-615 334.88,-615 340.88,-621 340.88,-627 340.88,-627 340.88,-639 340.88,-639 340.88,-645 334.88,-651 328.88,-651"/>
<text xml:space="preserve" text-anchor="middle" x="179.5" y="-627.58" font-family="Helvetica,sans-Serif" font-size="14.00">Sub&#45;banda inferior: szl, spl, sl, el, il, dlt, nbl, detl, plt</text>
</g>
<!-- N5&#45;&gt;N6 -->
<g id="edge7" class="edge">
<title>N5&#45;&gt;N6</title>
<path fill="none" stroke="black" d="M179.5,-687.81C179.5,-680.23 179.5,-671.1 179.5,-662.54"/>
<polygon fill="black" stroke="black" points="183,-662.54 179.5,-652.54 176,-662.54 183,-662.54"/>
</g>
<!-- N7 -->
<g id="node7" class="node">
<title>N7</title>
<path fill="none" stroke="black" d="M299.62,-578C299.62,-578 59.38,-578 59.38,-578 53.38,-578 47.38,-572 47.38,-566 47.38,-566 47.38,-554 47.38,-554 47.38,-548 53.38,-542 59.38,-542 59.38,-542 299.62,-542 299.62,-542 305.62,-542 311.62,-548 311.62,-554 311.62,-554 311.62,-566 311.62,-566 311.62,-572 305.62,-578 299.62,-578"/>
<text xml:space="preserve" text-anchor="middle" x="179.5" y="-554.58" font-family="Helvetica,sans-Serif" font-size="14.00">Atualizacao de upzero, uppol2, uppol1, rlt</text>
</g>
<!-- N6&#45;&gt;N7 -->
<g id="edge8" class="edge">
<title>N6&#45;&gt;N7</title>
<path fill="none" stroke="black" d="M179.5,-614.81C179.5,-607.23 179.5,-598.1 179.5,-589.54"/>
<polygon fill="black" stroke="black" points="183,-589.54 179.5,-579.54 176,-589.54 183,-589.54"/>
</g>
<!-- N8 -->
<g id="node8" class="node">
<title>N8</title>
<path fill="none" stroke="black" d="M285.75,-505C285.75,-505 73.25,-505 73.25,-505 67.25,-505 61.25,-499 61.25,-493 61.25,-493 61.25,-481 61.25,-481 61.25,-475 67.25,-469 73.25,-469 73.25,-469 285.75,-469 285.75,-469 291.75,-469 297.75,-475 297.75,-481 297.75,-481 297.75,-493 297.75,-493 297.75,-499 291.75,-505 285.75,-505"/>
<text xml:space="preserve" text-anchor="middle" x="179.5" y="-481.57" font-family="Helvetica,sans-Serif" font-size="14.00">Sub&#45;banda superior: szh, sph, sh, eh</text>
</g>
<!-- N7&#45;&gt;N8 -->
<g id="edge9" class="edge">
<title>N7&#45;&gt;N8</title>
<path fill="none" stroke="black" d="M179.5,-541.81C179.5,-534.23 179.5,-525.1 179.5,-516.54"/>
<polygon fill="black" stroke="black" points="183,-516.54 179.5,-506.54 176,-516.54 183,-516.54"/>
</g>
<!-- N9 -->
<g id="node9" class="node">
<title>N9</title>
<path fill="none" stroke="black" d="M231,-432C231,-432 128,-432 128,-432 122,-432 116,-426 116,-420 116,-420 116,-408 116,-408 116,-402 122,-396 128,-396 128,-396 231,-396 231,-396 237,-396 243,-402 243,-408 243,-408 243,-420 243,-420 243,-426 237,-432 231,-432"/>
<text xml:space="preserve" text-anchor="middle" x="179.5" y="-408.57" font-family="Helvetica,sans-Serif" font-size="14.00">Condicao: eh &gt;= 0</text>
</g>
<!-- N8&#45;&gt;N9 -->
<g id="edge10" class="edge">
<title>N8&#45;&gt;N9</title>
<path fill="none" stroke="black" d="M179.5,-468.81C179.5,-461.23 179.5,-452.1 179.5,-443.54"/>
<polygon fill="black" stroke="black" points="183,-443.54 179.5,-433.54 176,-443.54 183,-443.54"/>
</g>
<!-- N10 -->
<g id="node10" class="node">
<title>N10</title>
<path fill="none" stroke="black" d="M155.5,-343.5C155.5,-343.5 125.5,-343.5 125.5,-343.5 119.5,-343.5 113.5,-337.5 113.5,-331.5 113.5,-331.5 113.5,-319.5 113.5,-319.5 113.5,-313.5 119.5,-307.5 125.5,-307.5 125.5,-307.5 155.5,-307.5 155.5,-307.5 161.5,-307.5 167.5,-313.5 167.5,-319.5 167.5,-319.5 167.5,-331.5 167.5,-331.5 167.5,-337.5 161.5,-343.5 155.5,-343.5"/>
<text xml:space="preserve" text-anchor="middle" x="140.5" y="-320.07" font-family="Helvetica,sans-Serif" font-size="14.00">ih = 3</text>
</g>
<!-- N9&#45;&gt;N10 -->
<g id="edge11" class="edge">
<title>N9&#45;&gt;N10</title>
<path fill="none" stroke="black" d="M149.9,-395.74C143.99,-390.81 138.58,-384.88 135.25,-378 131.82,-370.91 131.35,-362.64 132.22,-354.82"/>
<polygon fill="black" stroke="black" points="135.66,-355.49 134.08,-345.01 128.78,-354.19 135.66,-355.49"/>
<text xml:space="preserve" text-anchor="middle" x="164.88" y="-364.7" font-family="Times New Roman,serif" font-size="14.00">Verdadeiro</text>
</g>
<!-- N11 -->
<g id="node11" class="node">
<title>N11</title>
<path fill="none" stroke="black" d="M232.5,-343.5C232.5,-343.5 202.5,-343.5 202.5,-343.5 196.5,-343.5 190.5,-337.5 190.5,-331.5 190.5,-331.5 190.5,-319.5 190.5,-319.5 190.5,-313.5 196.5,-307.5 202.5,-307.5 202.5,-307.5 232.5,-307.5 232.5,-307.5 238.5,-307.5 244.5,-313.5 244.5,-319.5 244.5,-319.5 244.5,-331.5 244.5,-331.5 244.5,-337.5 238.5,-343.5 232.5,-343.5"/>
<text xml:space="preserve" text-anchor="middle" x="217.5" y="-320.07" font-family="Helvetica,sans-Serif" font-size="14.00">ih = 1</text>
</g>
<!-- N9&#45;&gt;N11 -->
<g id="edge12" class="edge">
<title>N9&#45;&gt;N11</title>
<path fill="none" stroke="black" d="M189.47,-395.8C192.54,-390.21 195.82,-383.92 198.5,-378 201.88,-370.53 205.14,-362.27 207.97,-354.59"/>
<polygon fill="black" stroke="black" points="211.2,-355.94 211.27,-345.34 204.61,-353.58 211.2,-355.94"/>
<text xml:space="preserve" text-anchor="middle" x="219.52" y="-364.7" font-family="Times New Roman,serif" font-size="14.00">Falso</text>
</g>
<!-- N12 -->
<g id="node12" class="node">
<title>N12</title>
<path fill="none" stroke="black" d="M302.38,-270.5C302.38,-270.5 54.62,-270.5 54.62,-270.5 48.62,-270.5 42.62,-264.5 42.62,-258.5 42.62,-258.5 42.62,-246.5 42.62,-246.5 42.62,-240.5 48.62,-234.5 54.62,-234.5 54.62,-234.5 302.38,-234.5 302.38,-234.5 308.38,-234.5 314.38,-240.5 314.38,-246.5 314.38,-246.5 314.38,-258.5 314.38,-258.5 314.38,-264.5 308.38,-270.5 302.38,-270.5"/>
<text xml:space="preserve" text-anchor="middle" x="178.5" y="-247.07" font-family="Helvetica,sans-Serif" font-size="14.00">Calculo de decis e verificacao: |eh| &gt; decis</text>
</g>
<!-- N10&#45;&gt;N12 -->
<g id="edge13" class="edge">
<title>N10&#45;&gt;N12</title>
<path fill="none" stroke="black" d="M149.7,-307.31C153.99,-299.29 159.21,-289.55 164.01,-280.57"/>
<polygon fill="black" stroke="black" points="167.04,-282.33 168.67,-271.86 160.87,-279.03 167.04,-282.33"/>
</g>
<!-- N11&#45;&gt;N12 -->
<g id="edge14" class="edge">
<title>N11&#45;&gt;N12</title>
<path fill="none" stroke="black" d="M208.06,-307.31C203.65,-299.29 198.3,-289.55 193.37,-280.57"/>
<polygon fill="black" stroke="black" points="196.46,-278.94 188.58,-271.86 190.33,-282.31 196.46,-278.94"/>
</g>
<!-- N13 -->
<g id="node13" class="node">
<title>N13</title>
<path fill="none" stroke="black" d="M162.5,-182C162.5,-182 132.5,-182 132.5,-182 126.5,-182 120.5,-176 120.5,-170 120.5,-170 120.5,-158 120.5,-158 120.5,-152 126.5,-146 132.5,-146 132.5,-146 162.5,-146 162.5,-146 168.5,-146 174.5,-152 174.5,-158 174.5,-158 174.5,-170 174.5,-170 174.5,-176 168.5,-182 162.5,-182"/>
<text xml:space="preserve" text-anchor="middle" x="147.5" y="-158.57" font-family="Helvetica,sans-Serif" font-size="14.00">ih&#45;&#45;</text>
</g>
<!-- N12&#45;&gt;N13 -->
<g id="edge15" class="edge">
<title>N12&#45;&gt;N13</title>
<path fill="none" stroke="black" d="M154.91,-234.12C149.78,-229.07 145.05,-223.1 142.25,-216.5 139.22,-209.36 138.83,-201.18 139.64,-193.47"/>
<polygon fill="black" stroke="black" points="143.05,-194.28 141.35,-183.82 136.16,-193.06 143.05,-194.28"/>
<text xml:space="preserve" text-anchor="middle" x="171.88" y="-203.2" font-family="Times New Roman,serif" font-size="14.00">Verdadeiro</text>
</g>
<!-- N14 -->
<g id="node14" class="node">
<title>N14</title>
<path fill="none" stroke="black" d="M355,-109C355,-109 12,-109 12,-109 6,-109 0,-103 0,-97 0,-97 0,-85 0,-85 0,-79 6,-73 12,-73 12,-73 355,-73 355,-73 361,-73 367,-79 367,-85 367,-85 367,-97 367,-97 367,-103 361,-109 355,-109"/>
<text xml:space="preserve" text-anchor="middle" x="183.5" y="-85.58" font-family="Helvetica,sans-Serif" font-size="14.00">Continuacao: dh, nbh, deth, ph, upzero, uppol2, uppol1, yh</text>
</g>
<!-- N12&#45;&gt;N14 -->
<g id="edge16" class="edge">
<title>N12&#45;&gt;N14</title>
<path fill="none" stroke="black" d="M192.6,-234.34C196.22,-228.96 199.62,-222.77 201.5,-216.5 211.16,-184.2 202.63,-145.59 194.33,-120.02"/>
<polygon fill="black" stroke="black" points="197.68,-118.99 191.09,-110.69 191.06,-121.28 197.68,-118.99"/>
<text xml:space="preserve" text-anchor="middle" x="220.37" y="-158.95" font-family="Times New Roman,serif" font-size="14.00">Falso</text>
</g>
<!-- N13&#45;&gt;N14 -->
<g id="edge17" class="edge">
<title>N13&#45;&gt;N14</title>
<path fill="none" stroke="black" d="M156.21,-145.81C160.28,-137.79 165.22,-128.05 169.77,-119.07"/>
<polygon fill="black" stroke="black" points="172.78,-120.88 174.18,-110.38 166.54,-117.71 172.78,-120.88"/>
</g>
<!-- N15 -->
<g id="node15" class="node">
<title>N15</title>
<path fill="none" stroke="black" d="M241.38,-36C241.38,-36 125.62,-36 125.62,-36 119.62,-36 113.62,-30 113.62,-24 113.62,-24 113.62,-12 113.62,-12 113.62,-6 119.62,0 125.62,0 125.62,0 241.38,0 241.38,0 247.38,0 253.38,-6 253.38,-12 253.38,-12 253.38,-24 253.38,-24 253.38,-30 247.38,-36 241.38,-36"/>
<text xml:space="preserve" text-anchor="middle" x="183.5" y="-12.57" font-family="Helvetica,sans-Serif" font-size="14.00">Retorno: il | (ih &lt;&lt; 6)</text>
</g>
<!-- N14&#45;&gt;N15 -->
<g id="edge18" class="edge">
<title>N14&#45;&gt;N15</title>
<path fill="none" stroke="black" d="M183.5,-72.81C183.5,-65.23 183.5,-56.1 183.5,-47.54"/>
<polygon fill="black" stroke="black" points="187,-47.54 183.5,-37.54 180,-47.54 187,-47.54"/>
</g>
</g>
</svg>
