<?xml version="1.0" encoding="UTF-8" standalone="no"?>
<!DOCTYPE svg PUBLIC "-//W3C//DTD SVG 1.1//EN"
 "http://www.w3.org/Graphics/SVG/1.1/DTD/svg11.dtd">
<!-- Generated by graphviz version 13.1.2 (20250808.2320)
 -->
<!-- Title: Fib Pages: 1 -->
<svg width="386pt" height="449pt"
 viewBox="0.00 0.00 386.00 449.00" xmlns="http://www.w3.org/2000/svg" xmlns:xlink="http://www.w3.org/1999/xlink">
<g id="graph0" class="graph" transform="scale(1 1) rotate(0) translate(4 445)">
<title>Fib</title>
<polygon fill="white" stroke="none" points="-4,4 -4,-445 381.81,-445 381.81,4 -4,4"/>
<!-- entry -->
<g id="node1" class="node">
<title>entry</title>
<ellipse fill="none" stroke="black" cx="272.88" cy="-423" rx="63.12" ry="18"/>
<text xml:space="preserve" text-anchor="middle" x="272.88" y="-417.95" font-family="Times New Roman,serif" font-size="14.00">Entrada fib(n)</text>
</g>
<!-- block1 -->
<g id="node2" class="node">
<title>block1</title>
<polygon fill="none" stroke="black" points="307.12,-368 238.62,-368 238.62,-294 307.12,-294 307.12,-368"/>
<text xml:space="preserve" text-anchor="middle" x="272.88" y="-350.7" font-family="Times New Roman,serif" font-size="14.00">Bloco 1</text>
<text xml:space="preserve" text-anchor="middle" x="272.88" y="-334.2" font-family="Times New Roman,serif" font-size="14.00">i = 2</text>
<text xml:space="preserve" text-anchor="middle" x="272.88" y="-317.7" font-family="Times New Roman,serif" font-size="14.00">Fnew = 1</text>
<text xml:space="preserve" text-anchor="middle" x="272.88" y="-301.2" font-family="Times New Roman,serif" font-size="14.00">Fold = 0</text>
<text xml:space="preserve" text-anchor="middle" x="189.88" y="-371.2" font-family="Times New Roman,serif" font-size="14.00">def: i, Fnew, Fold</text>
</g>
<!-- entry&#45;&gt;block1 -->
<g id="edge1" class="edge">
<title>entry&#45;&gt;block1</title>
<path fill="none" stroke="black" d="M272.88,-404.65C272.88,-397.39 272.88,-388.57 272.88,-379.61"/>
<polygon fill="black" stroke="black" points="276.38,-379.81 272.88,-369.81 269.38,-379.81 276.38,-379.81"/>
</g>
<!-- block2 -->
<g id="node3" class="node">
<title>block2</title>
<polygon fill="none" stroke="black" points="363.38,-257 182.38,-257 182.38,-216 363.38,-216 363.38,-257"/>
<text xml:space="preserve" text-anchor="middle" x="272.88" y="-239.7" font-family="Times New Roman,serif" font-size="14.00">Bloco 2</text>
<text xml:space="preserve" text-anchor="middle" x="272.88" y="-223.2" font-family="Times New Roman,serif" font-size="14.00">Condicao: i &lt;= 30 &amp;&amp; i &lt;= n</text>
<text xml:space="preserve" text-anchor="middle" x="155" y="-260.2" font-family="Times New Roman,serif" font-size="14.00">p&#45;use: i, n</text>
</g>
<!-- block1&#45;&gt;block2 -->
<g id="edge2" class="edge">
<title>block1&#45;&gt;block2</title>
<path fill="none" stroke="black" d="M272.88,-293.71C272.88,-285.51 272.88,-276.87 272.88,-268.89"/>
<polygon fill="black" stroke="black" points="276.38,-268.94 272.88,-258.94 269.38,-268.94 276.38,-268.94"/>
</g>
<!-- block3 -->
<g id="node4" class="node">
<title>block3</title>
<polygon fill="none" stroke="black" points="265,-163.5 132.75,-163.5 132.75,-73 265,-73 265,-163.5"/>
<text xml:space="preserve" text-anchor="middle" x="198.88" y="-146.2" font-family="Times New Roman,serif" font-size="14.00">Bloco 3</text>
<text xml:space="preserve" text-anchor="middle" x="198.88" y="-129.7" font-family="Times New Roman,serif" font-size="14.00">temp = Fnew</text>
<text xml:space="preserve" text-anchor="middle" x="198.88" y="-113.2" font-family="Times New Roman,serif" font-size="14.00">Fnew = Fnew + Fold</text>
<text xml:space="preserve" text-anchor="middle" x="198.88" y="-96.7" font-family="Times New Roman,serif" font-size="14.00">Fold = temp</text>
<text xml:space="preserve" text-anchor="middle" x="198.88" y="-80.2" font-family="Times New Roman,serif" font-size="14.00">i++</text>
<text xml:space="preserve" text-anchor="middle" x="66.38" y="-183.2" font-family="Times New Roman,serif" font-size="14.00">def: temp, Fnew, Fold, i</text>
<text xml:space="preserve" text-anchor="middle" x="66.38" y="-166.7" font-family="Times New Roman,serif" font-size="14.00">c&#45;use: Fnew, Fold</text>
</g>
<!-- block2&#45;&gt;block3 -->
<g id="edge3" class="edge">
<title>block2&#45;&gt;block3</title>
<path fill="none" stroke="black" d="M217.02,-215.55C210.12,-210.83 203.98,-205.05 199.62,-198 195.37,-191.12 193.05,-183.22 191.98,-175.13"/>
<polygon fill="black" stroke="black" points="195.48,-174.93 191.34,-165.18 188.49,-175.38 195.48,-174.93"/>
<text xml:space="preserve" text-anchor="middle" x="229.25" y="-184.7" font-family="Times New Roman,serif" font-size="14.00">Verdadeiro</text>
</g>
<!-- block4 -->
<g id="node5" class="node">
<title>block4</title>
<polygon fill="none" stroke="black" points="362.75,-138.75 283,-138.75 283,-97.75 362.75,-97.75 362.75,-138.75"/>
<text xml:space="preserve" text-anchor="middle" x="322.88" y="-121.45" font-family="Times New Roman,serif" font-size="14.00">Bloco 4</text>
<text xml:space="preserve" text-anchor="middle" x="322.88" y="-104.95" font-family="Times New Roman,serif" font-size="14.00">ans = Fnew</text>
<text xml:space="preserve" text-anchor="middle" x="316" y="-158.45" font-family="Times New Roman,serif" font-size="14.00">def: ans</text>
<text xml:space="preserve" text-anchor="middle" x="316" y="-141.95" font-family="Times New Roman,serif" font-size="14.00">c&#45;use: Fnew</text>
</g>
<!-- block2&#45;&gt;block4 -->
<g id="edge4" class="edge">
<title>block2&#45;&gt;block4</title>
<path fill="none" stroke="black" d="M281.47,-215.52C289.28,-197.36 300.92,-170.31 309.86,-149.5"/>
<polygon fill="black" stroke="black" points="313.06,-150.93 313.79,-140.36 306.63,-148.17 313.06,-150.93"/>
<text xml:space="preserve" text-anchor="middle" x="309.51" y="-184.7" font-family="Times New Roman,serif" font-size="14.00">Falso</text>
</g>
<!-- block3&#45;&gt;block2 -->
<g id="edge5" class="edge">
<title>block3&#45;&gt;block2</title>
<path fill="none" stroke="black" d="M246.66,-163.67C251.23,-169.35 255.43,-175.34 258.88,-181.5 262.82,-188.54 265.68,-196.72 267.74,-204.55"/>
<polygon fill="black" stroke="black" points="264.28,-205.13 269.89,-214.12 271.11,-203.59 264.28,-205.13"/>
</g>
<!-- exit -->
<g id="node6" class="node">
<title>exit</title>
<ellipse fill="none" stroke="black" cx="322.88" cy="-18" rx="54.93" ry="18"/>
<text xml:space="preserve" text-anchor="middle" x="322.88" y="-12.95" font-family="Times New Roman,serif" font-size="14.00">Retorna ans</text>
</g>
<!-- block4&#45;&gt;exit -->
<g id="edge6" class="edge">
<title>block4&#45;&gt;exit</title>
<path fill="none" stroke="black" d="M322.88,-97.37C322.88,-83.07 322.88,-63.57 322.88,-47.61"/>
<polygon fill="black" stroke="black" points="326.38,-47.74 322.88,-37.74 319.38,-47.74 326.38,-47.74"/>
</g>
</g>
</svg>
