<?xml version="1.0" encoding="UTF-8" standalone="no"?>
<!DOCTYPE svg PUBLIC "-//W3C//DTD SVG 1.1//EN"
 "http://www.w3.org/Graphics/SVG/1.1/DTD/svg11.dtd">
<!-- Generated by graphviz version 13.1.2 (20250808.2320)
 -->
<!-- Title: Sum_CFG Pages: 1 -->
<svg width="938pt" height="685pt"
 viewBox="0.00 0.00 938.00 685.00" xmlns="http://www.w3.org/2000/svg" xmlns:xlink="http://www.w3.org/1999/xlink">
<g id="graph0" class="graph" transform="scale(1 1) rotate(0) translate(4 680.5)">
<title>Sum_CFG</title>
<polygon fill="white" stroke="none" points="-4,4 -4,-680.5 934.12,-680.5 934.12,4 -4,4"/>
<!-- Start -->
<g id="node1" class="node">
<title>Start</title>
<path fill="none" stroke="black" d="M687.75,-676.5C687.75,-676.5 621.5,-676.5 621.5,-676.5 615.5,-676.5 609.5,-670.5 609.5,-664.5 609.5,-664.5 609.5,-652.5 609.5,-652.5 609.5,-646.5 615.5,-640.5 621.5,-640.5 621.5,-640.5 687.75,-640.5 687.75,-640.5 693.75,-640.5 699.75,-646.5 699.75,-652.5 699.75,-652.5 699.75,-664.5 699.75,-664.5 699.75,-670.5 693.75,-676.5 687.75,-676.5"/>
<text xml:space="preserve" text-anchor="middle" x="654.62" y="-653.45" font-family="Courier,monospace" font-size="14.00">Start Sum</text>
</g>
<!-- InitVars -->
<g id="node2" class="node">
<title>InitVars</title>
<path fill="none" stroke="black" d="M790.88,-603.5C790.88,-603.5 518.38,-603.5 518.38,-603.5 512.38,-603.5 506.38,-597.5 506.38,-591.5 506.38,-591.5 506.38,-579.5 506.38,-579.5 506.38,-573.5 512.38,-567.5 518.38,-567.5 518.38,-567.5 790.88,-567.5 790.88,-567.5 796.88,-567.5 802.88,-573.5 802.88,-579.5 802.88,-579.5 802.88,-591.5 802.88,-591.5 802.88,-597.5 796.88,-603.5 790.88,-603.5"/>
<text xml:space="preserve" text-anchor="middle" x="654.62" y="-580.45" font-family="Courier,monospace" font-size="14.00">Ptotal=0, Ntotal=0, Pcnt=0, Ncnt=0</text>
</g>
<!-- Start&#45;&gt;InitVars -->
<g id="edge1" class="edge">
<title>Start&#45;&gt;InitVars</title>
<path fill="none" stroke="black" d="M654.62,-640.31C654.62,-632.73 654.62,-623.6 654.62,-615.04"/>
<polygon fill="black" stroke="black" points="658.13,-615.04 654.63,-605.04 651.13,-615.04 658.13,-615.04"/>
</g>
<!-- OuterLoopInit -->
<g id="node3" class="node">
<title>OuterLoopInit</title>
<path fill="none" stroke="black" d="M679.5,-530.5C679.5,-530.5 629.75,-530.5 629.75,-530.5 623.75,-530.5 617.75,-524.5 617.75,-518.5 617.75,-518.5 617.75,-506.5 617.75,-506.5 617.75,-500.5 623.75,-494.5 629.75,-494.5 629.75,-494.5 679.5,-494.5 679.5,-494.5 685.5,-494.5 691.5,-500.5 691.5,-506.5 691.5,-506.5 691.5,-518.5 691.5,-518.5 691.5,-524.5 685.5,-530.5 679.5,-530.5"/>
<text xml:space="preserve" text-anchor="middle" x="654.62" y="-507.45" font-family="Courier,monospace" font-size="14.00">Outer=0</text>
</g>
<!-- InitVars&#45;&gt;OuterLoopInit -->
<g id="edge2" class="edge">
<title>InitVars&#45;&gt;OuterLoopInit</title>
<path fill="none" stroke="black" d="M654.62,-567.31C654.62,-559.73 654.62,-550.6 654.62,-542.04"/>
<polygon fill="black" stroke="black" points="658.13,-542.04 654.63,-532.04 651.13,-542.04 658.13,-542.04"/>
</g>
<!-- OuterLoopCond -->
<g id="node4" class="node">
<title>OuterLoopCond</title>
<path fill="none" stroke="black" d="M716.62,-457.5C716.62,-457.5 592.62,-457.5 592.62,-457.5 586.62,-457.5 580.62,-451.5 580.62,-445.5 580.62,-445.5 580.62,-433.5 580.62,-433.5 580.62,-427.5 586.62,-421.5 592.62,-421.5 592.62,-421.5 716.62,-421.5 716.62,-421.5 722.62,-421.5 728.62,-427.5 728.62,-433.5 728.62,-433.5 728.62,-445.5 728.62,-445.5 728.62,-451.5 722.62,-457.5 716.62,-457.5"/>
<text xml:space="preserve" text-anchor="middle" x="654.62" y="-434.45" font-family="Courier,monospace" font-size="14.00">Outer &lt; MAXSIZE?</text>
</g>
<!-- OuterLoopInit&#45;&gt;OuterLoopCond -->
<g id="edge3" class="edge">
<title>OuterLoopInit&#45;&gt;OuterLoopCond</title>
<path fill="none" stroke="black" d="M654.62,-494.31C654.62,-486.73 654.62,-477.6 654.62,-469.04"/>
<polygon fill="black" stroke="black" points="658.13,-469.04 654.63,-459.04 651.13,-469.04 658.13,-469.04"/>
</g>
<!-- InnerLoopInit -->
<g id="node5" class="node">
<title>InnerLoopInit</title>
<path fill="none" stroke="black" d="M605.5,-366.5C605.5,-366.5 555.75,-366.5 555.75,-366.5 549.75,-366.5 543.75,-360.5 543.75,-354.5 543.75,-354.5 543.75,-342.5 543.75,-342.5 543.75,-336.5 549.75,-330.5 555.75,-330.5 555.75,-330.5 605.5,-330.5 605.5,-330.5 611.5,-330.5 617.5,-336.5 617.5,-342.5 617.5,-342.5 617.5,-354.5 617.5,-354.5 617.5,-360.5 611.5,-366.5 605.5,-366.5"/>
<text xml:space="preserve" text-anchor="middle" x="580.62" y="-343.45" font-family="Courier,monospace" font-size="14.00">Inner=0</text>
</g>
<!-- OuterLoopCond&#45;&gt;InnerLoopInit -->
<g id="edge4" class="edge">
<title>OuterLoopCond&#45;&gt;InnerLoopInit</title>
<path fill="none" stroke="black" d="M626.92,-421.2C620.06,-416.07 613.11,-410.05 607.62,-403.5 601.12,-395.73 595.67,-386.13 591.42,-377.18"/>
<polygon fill="black" stroke="black" points="594.68,-375.89 587.44,-368.15 588.27,-378.72 594.68,-375.89"/>
<text xml:space="preserve" text-anchor="middle" x="624.12" y="-390.2" font-family="Courier,monospace" font-size="14.00">true</text>
</g>
<!-- AssignGlobals -->
<g id="node12" class="node">
<title>AssignGlobals</title>
<path fill="none" stroke="black" d="M918.12,-369C918.12,-369 695.12,-369 695.12,-369 689.12,-369 683.12,-363 683.12,-357 683.12,-357 683.12,-340 683.12,-340 683.12,-334 689.12,-328 695.12,-328 695.12,-328 918.12,-328 918.12,-328 924.12,-328 930.12,-334 930.12,-340 930.12,-340 930.12,-357 930.12,-357 930.12,-363 924.12,-369 918.12,-369"/>
<text xml:space="preserve" text-anchor="middle" x="806.62" y="-351.7" font-family="Courier,monospace" font-size="14.00">Postotal=Ptotal, Poscnt=Pcnt</text>
<text xml:space="preserve" text-anchor="middle" x="806.62" y="-335.2" font-family="Courier,monospace" font-size="14.00">Negtotal=Ntotal, Negcnt=Ncnt</text>
</g>
<!-- OuterLoopCond&#45;&gt;AssignGlobals -->
<g id="edge5" class="edge">
<title>OuterLoopCond&#45;&gt;AssignGlobals</title>
<path fill="none" stroke="black" d="M684.29,-421.13C706.64,-408.04 737.63,-389.9 762.83,-375.14"/>
<polygon fill="black" stroke="black" points="764.35,-378.31 771.22,-370.23 760.82,-372.27 764.35,-378.31"/>
<text xml:space="preserve" text-anchor="middle" x="760.35" y="-390.2" font-family="Courier,monospace" font-size="14.00">false</text>
</g>
<!-- InnerLoopCond -->
<g id="node6" class="node">
<title>InnerLoopCond</title>
<path fill="none" stroke="black" d="M614.62,-291C614.62,-291 490.62,-291 490.62,-291 484.62,-291 478.62,-285 478.62,-279 478.62,-279 478.62,-267 478.62,-267 478.62,-261 484.62,-255 490.62,-255 490.62,-255 614.62,-255 614.62,-255 620.62,-255 626.62,-261 626.62,-267 626.62,-267 626.62,-279 626.62,-279 626.62,-285 620.62,-291 614.62,-291"/>
<text xml:space="preserve" text-anchor="middle" x="552.62" y="-267.95" font-family="Courier,monospace" font-size="14.00">Inner &lt; MAXSIZE?</text>
</g>
<!-- InnerLoopInit&#45;&gt;InnerLoopCond -->
<g id="edge6" class="edge">
<title>InnerLoopInit&#45;&gt;InnerLoopCond</title>
<path fill="none" stroke="black" d="M573.99,-330.08C570.78,-321.66 566.85,-311.35 563.24,-301.87"/>
<polygon fill="black" stroke="black" points="566.58,-300.81 559.75,-292.71 560.04,-303.3 566.58,-300.81"/>
</g>
<!-- CheckValue -->
<g id="node7" class="node">
<title>CheckValue</title>
<path fill="none" stroke="black" d="M512.12,-202.5C512.12,-202.5 289.12,-202.5 289.12,-202.5 283.12,-202.5 277.12,-196.5 277.12,-190.5 277.12,-190.5 277.12,-178.5 277.12,-178.5 277.12,-172.5 283.12,-166.5 289.12,-166.5 289.12,-166.5 512.12,-166.5 512.12,-166.5 518.12,-166.5 524.12,-172.5 524.12,-178.5 524.12,-178.5 524.12,-190.5 524.12,-190.5 524.12,-196.5 518.12,-202.5 512.12,-202.5"/>
<text xml:space="preserve" text-anchor="middle" x="400.62" y="-179.45" font-family="Courier,monospace" font-size="14.00">if (Array[Outer][Inner] &lt; 0)</text>
</g>
<!-- InnerLoopCond&#45;&gt;CheckValue -->
<g id="edge7" class="edge">
<title>InnerLoopCond&#45;&gt;CheckValue</title>
<path fill="none" stroke="black" d="M522.23,-254.7C498.9,-241.43 466.48,-222.98 440.98,-208.46"/>
<polygon fill="black" stroke="black" points="442.96,-205.57 432.54,-203.66 439.5,-211.65 442.96,-205.57"/>
<text xml:space="preserve" text-anchor="middle" x="506.74" y="-223.7" font-family="Courier,monospace" font-size="14.00">true</text>
</g>
<!-- OuterIncr -->
<g id="node11" class="node">
<title>OuterIncr</title>
<path fill="none" stroke="black" d="M663.5,-202.5C663.5,-202.5 613.75,-202.5 613.75,-202.5 607.75,-202.5 601.75,-196.5 601.75,-190.5 601.75,-190.5 601.75,-178.5 601.75,-178.5 601.75,-172.5 607.75,-166.5 613.75,-166.5 613.75,-166.5 663.5,-166.5 663.5,-166.5 669.5,-166.5 675.5,-172.5 675.5,-178.5 675.5,-178.5 675.5,-190.5 675.5,-190.5 675.5,-196.5 669.5,-202.5 663.5,-202.5"/>
<text xml:space="preserve" text-anchor="middle" x="638.62" y="-179.45" font-family="Courier,monospace" font-size="14.00">Outer++</text>
</g>
<!-- InnerLoopCond&#45;&gt;OuterIncr -->
<g id="edge8" class="edge">
<title>InnerLoopCond&#45;&gt;OuterIncr</title>
<path fill="none" stroke="black" d="M567.35,-254.88C576.34,-244.66 588.23,-231.55 599.38,-220.5 602.73,-217.17 606.33,-213.76 609.95,-210.44"/>
<polygon fill="black" stroke="black" points="612.08,-213.22 617.16,-203.92 607.39,-208.03 612.08,-213.22"/>
<text xml:space="preserve" text-anchor="middle" x="620" y="-223.7" font-family="Courier,monospace" font-size="14.00">false</text>
</g>
<!-- UpdatePos -->
<g id="node8" class="node">
<title>UpdatePos</title>
<path fill="none" stroke="black" d="M243.25,-114C243.25,-114 12,-114 12,-114 6,-114 0,-108 0,-102 0,-102 0,-85 0,-85 0,-79 6,-73 12,-73 12,-73 243.25,-73 243.25,-73 249.25,-73 255.25,-79 255.25,-85 255.25,-85 255.25,-102 255.25,-102 255.25,-108 249.25,-114 243.25,-114"/>
<text xml:space="preserve" text-anchor="middle" x="127.62" y="-96.7" font-family="Courier,monospace" font-size="14.00">Ptotal += Array[Outer][Inner]</text>
<text xml:space="preserve" text-anchor="middle" x="127.62" y="-80.2" font-family="Courier,monospace" font-size="14.00">Pcnt++</text>
</g>
<!-- CheckValue&#45;&gt;UpdatePos -->
<g id="edge9" class="edge">
<title>CheckValue&#45;&gt;UpdatePos</title>
<path fill="none" stroke="black" d="M347.01,-166.02C304.89,-152.29 245.83,-133.03 199.59,-117.96"/>
<polygon fill="black" stroke="black" points="200.76,-114.66 190.17,-114.89 198.59,-121.32 200.76,-114.66"/>
<text xml:space="preserve" text-anchor="middle" x="305.08" y="-135.2" font-family="Courier,monospace" font-size="14.00">true</text>
</g>
<!-- UpdateNeg -->
<g id="node9" class="node">
<title>UpdateNeg</title>
<path fill="none" stroke="black" d="M516.25,-114C516.25,-114 285,-114 285,-114 279,-114 273,-108 273,-102 273,-102 273,-85 273,-85 273,-79 279,-73 285,-73 285,-73 516.25,-73 516.25,-73 522.25,-73 528.25,-79 528.25,-85 528.25,-85 528.25,-102 528.25,-102 528.25,-108 522.25,-114 516.25,-114"/>
<text xml:space="preserve" text-anchor="middle" x="400.62" y="-96.7" font-family="Courier,monospace" font-size="14.00">Ntotal += Array[Outer][Inner]</text>
<text xml:space="preserve" text-anchor="middle" x="400.62" y="-80.2" font-family="Courier,monospace" font-size="14.00">Ncnt++</text>
</g>
<!-- CheckValue&#45;&gt;UpdateNeg -->
<g id="edge10" class="edge">
<title>CheckValue&#45;&gt;UpdateNeg</title>
<path fill="none" stroke="black" d="M400.62,-166.34C400.62,-154.85 400.62,-139.4 400.62,-125.77"/>
<polygon fill="black" stroke="black" points="404.13,-125.92 400.63,-115.92 397.13,-125.92 404.13,-125.92"/>
<text xml:space="preserve" text-anchor="middle" x="421.25" y="-135.2" font-family="Courier,monospace" font-size="14.00">false</text>
</g>
<!-- InnerIncr -->
<g id="node10" class="node">
<title>InnerIncr</title>
<path fill="none" stroke="black" d="M425.5,-36C425.5,-36 375.75,-36 375.75,-36 369.75,-36 363.75,-30 363.75,-24 363.75,-24 363.75,-12 363.75,-12 363.75,-6 369.75,0 375.75,0 375.75,0 425.5,0 425.5,0 431.5,0 437.5,-6 437.5,-12 437.5,-12 437.5,-24 437.5,-24 437.5,-30 431.5,-36 425.5,-36"/>
<text xml:space="preserve" text-anchor="middle" x="400.62" y="-12.95" font-family="Courier,monospace" font-size="14.00">Inner++</text>
</g>
<!-- UpdatePos&#45;&gt;InnerIncr -->
<g id="edge11" class="edge">
<title>UpdatePos&#45;&gt;InnerIncr</title>
<path fill="none" stroke="black" d="M201.86,-72.51C249.74,-59.62 310.61,-43.23 352.3,-32.01"/>
<polygon fill="black" stroke="black" points="353.05,-35.43 361.8,-29.45 351.23,-28.67 353.05,-35.43"/>
</g>
<!-- UpdateNeg&#45;&gt;InnerIncr -->
<g id="edge12" class="edge">
<title>UpdateNeg&#45;&gt;InnerIncr</title>
<path fill="none" stroke="black" d="M400.62,-72.8C400.62,-65.06 400.62,-56.01 400.62,-47.57"/>
<polygon fill="black" stroke="black" points="404.13,-47.76 400.63,-37.76 397.13,-47.76 404.13,-47.76"/>
</g>
<!-- InnerIncr&#45;&gt;InnerLoopCond -->
<g id="edge13" class="edge">
<title>InnerIncr&#45;&gt;InnerLoopCond</title>
<path fill="none" stroke="black" d="M437.73,-22.85C469.72,-28.29 514.34,-41.41 537.62,-73 574.77,-123.38 566.96,-201.76 559.14,-243.53"/>
<polygon fill="black" stroke="black" points="555.72,-242.79 557.17,-253.29 562.58,-244.18 555.72,-242.79"/>
</g>
<!-- OuterIncr&#45;&gt;OuterLoopCond -->
<g id="edge14" class="edge">
<title>OuterIncr&#45;&gt;OuterLoopCond</title>
<path fill="none" stroke="black" d="M639.71,-202.68C642.42,-245.43 649.47,-356.98 652.81,-409.88"/>
<polygon fill="black" stroke="black" points="649.31,-409.84 653.43,-419.6 656.29,-409.4 649.31,-409.84"/>
</g>
<!-- End -->
<g id="node13" class="node">
<title>End</title>
<path fill="none" stroke="black" d="M831.5,-291C831.5,-291 781.75,-291 781.75,-291 775.75,-291 769.75,-285 769.75,-279 769.75,-279 769.75,-267 769.75,-267 769.75,-261 775.75,-255 781.75,-255 781.75,-255 831.5,-255 831.5,-255 837.5,-255 843.5,-261 843.5,-267 843.5,-267 843.5,-279 843.5,-279 843.5,-285 837.5,-291 831.5,-291"/>
<text xml:space="preserve" text-anchor="middle" x="806.62" y="-267.95" font-family="Courier,monospace" font-size="14.00">End Sum</text>
</g>
<!-- AssignGlobals&#45;&gt;End -->
<g id="edge15" class="edge">
<title>AssignGlobals&#45;&gt;End</title>
<path fill="none" stroke="black" d="M806.62,-327.8C806.62,-320.06 806.62,-311.01 806.62,-302.57"/>
<polygon fill="black" stroke="black" points="810.13,-302.76 806.63,-292.76 803.13,-302.76 810.13,-302.76"/>
</g>
</g>
</svg>
