<?xml version="1.0" encoding="UTF-8" standalone="no"?>
<!DOCTYPE svg PUBLIC "-//W3C//DTD SVG 1.1//EN"
 "http://www.w3.org/Graphics/SVG/1.1/DTD/svg11.dtd">
<!-- Generated by graphviz version 13.1.2 (20250808.2320)
 -->
<!-- Title: Sum_DFG Pages: 1 -->
<svg width="308pt" height="352pt"
 viewBox="0.00 0.00 308.00 352.00" xmlns="http://www.w3.org/2000/svg" xmlns:xlink="http://www.w3.org/1999/xlink">
<g id="graph0" class="graph" transform="scale(1 1) rotate(0) translate(4 347.5)">
<title>Sum_DFG</title>
<polygon fill="white" stroke="none" points="-4,4 -4,-347.5 304.25,-347.5 304.25,4 -4,4"/>
<!-- Array_input -->
<g id="node1" class="node">
<title>Array_input</title>
<ellipse fill="lightblue" stroke="black" cx="152.41" cy="-325.5" rx="32.41" ry="18"/>
<text xml:space="preserve" text-anchor="middle" x="152.41" y="-320.45" font-family="Times New Roman,serif" font-size="14.00">Array</text>
</g>
<!-- CheckValue -->
<g id="node10" class="node">
<title>CheckValue</title>
<ellipse fill="lightgreen" stroke="black" cx="152.41" cy="-252.5" rx="55.45" ry="18"/>
<text xml:space="preserve" text-anchor="middle" x="152.41" y="-247.45" font-family="Times New Roman,serif" font-size="14.00">CheckValue</text>
</g>
<!-- Array_input&#45;&gt;CheckValue -->
<g id="edge1" class="edge">
<title>Array_input&#45;&gt;CheckValue</title>
<path fill="none" stroke="black" d="M152.41,-307.31C152.41,-299.73 152.41,-290.6 152.41,-282.04"/>
<polygon fill="black" stroke="black" points="155.91,-282.04 152.41,-272.04 148.91,-282.04 155.91,-282.04"/>
</g>
<!-- Add_Ptotal -->
<g id="node2" class="node">
<title>Add_Ptotal</title>
<polygon fill="none" stroke="black" points="61.41,-109 7.41,-109 7.41,-73 61.41,-73 61.41,-109"/>
<text xml:space="preserve" text-anchor="middle" x="34.41" y="-85.95" font-family="Times New Roman,serif" font-size="14.00">+=</text>
</g>
<!-- Ptotal_out -->
<g id="node6" class="node">
<title>Ptotal_out</title>
<ellipse fill="lightgreen" stroke="black" cx="32.41" cy="-18" rx="32.41" ry="18"/>
<text xml:space="preserve" text-anchor="middle" x="32.41" y="-12.95" font-family="Times New Roman,serif" font-size="14.00">Ptotal</text>
</g>
<!-- Add_Ptotal&#45;&gt;Ptotal_out -->
<g id="edge8" class="edge">
<title>Add_Ptotal&#45;&gt;Ptotal_out</title>
<path fill="none" stroke="black" d="M33.93,-72.81C33.71,-65.14 33.45,-55.89 33.21,-47.24"/>
<polygon fill="black" stroke="black" points="36.72,-47.44 32.94,-37.54 29.72,-47.64 36.72,-47.44"/>
</g>
<!-- Add_Ntotal -->
<g id="node3" class="node">
<title>Add_Ntotal</title>
<polygon fill="none" stroke="black" points="219.41,-109 165.41,-109 165.41,-73 219.41,-73 219.41,-109"/>
<text xml:space="preserve" text-anchor="middle" x="192.41" y="-85.95" font-family="Times New Roman,serif" font-size="14.00">+=</text>
</g>
<!-- Ntotal_out -->
<g id="node7" class="node">
<title>Ntotal_out</title>
<ellipse fill="lightgreen" stroke="black" cx="190.41" cy="-18" rx="33.95" ry="18"/>
<text xml:space="preserve" text-anchor="middle" x="190.41" y="-12.95" font-family="Times New Roman,serif" font-size="14.00">Ntotal</text>
</g>
<!-- Add_Ntotal&#45;&gt;Ntotal_out -->
<g id="edge9" class="edge">
<title>Add_Ntotal&#45;&gt;Ntotal_out</title>
<path fill="none" stroke="black" d="M191.93,-72.81C191.71,-65.14 191.45,-55.89 191.21,-47.24"/>
<polygon fill="black" stroke="black" points="194.72,-47.44 190.94,-37.54 187.72,-47.64 194.72,-47.44"/>
</g>
<!-- Inc_Pcnt -->
<g id="node4" class="node">
<title>Inc_Pcnt</title>
<polygon fill="none" stroke="black" points="134.41,-109 80.41,-109 80.41,-73 134.41,-73 134.41,-109"/>
<text xml:space="preserve" text-anchor="middle" x="107.41" y="-85.95" font-family="Times New Roman,serif" font-size="14.00">++</text>
</g>
<!-- Pcnt_out -->
<g id="node8" class="node">
<title>Pcnt_out</title>
<ellipse fill="lightgreen" stroke="black" cx="110.41" cy="-18" rx="27.3" ry="18"/>
<text xml:space="preserve" text-anchor="middle" x="110.41" y="-12.95" font-family="Times New Roman,serif" font-size="14.00">Pcnt</text>
</g>
<!-- Inc_Pcnt&#45;&gt;Pcnt_out -->
<g id="edge10" class="edge">
<title>Inc_Pcnt&#45;&gt;Pcnt_out</title>
<path fill="none" stroke="black" d="M108.14,-72.81C108.47,-65.14 108.86,-55.89 109.22,-47.24"/>
<polygon fill="black" stroke="black" points="112.71,-47.68 109.63,-37.54 105.71,-47.38 112.71,-47.68"/>
</g>
<!-- Inc_Ncnt -->
<g id="node5" class="node">
<title>Inc_Ncnt</title>
<polygon fill="none" stroke="black" points="295.41,-109 241.41,-109 241.41,-73 295.41,-73 295.41,-109"/>
<text xml:space="preserve" text-anchor="middle" x="268.41" y="-85.95" font-family="Times New Roman,serif" font-size="14.00">++</text>
</g>
<!-- Ncnt_out -->
<g id="node9" class="node">
<title>Ncnt_out</title>
<ellipse fill="lightgreen" stroke="black" cx="271.41" cy="-18" rx="28.83" ry="18"/>
<text xml:space="preserve" text-anchor="middle" x="271.41" y="-12.95" font-family="Times New Roman,serif" font-size="14.00">Ncnt</text>
</g>
<!-- Inc_Ncnt&#45;&gt;Ncnt_out -->
<g id="edge11" class="edge">
<title>Inc_Ncnt&#45;&gt;Ncnt_out</title>
<path fill="none" stroke="black" d="M269.14,-72.81C269.47,-65.14 269.86,-55.89 270.22,-47.24"/>
<polygon fill="black" stroke="black" points="273.71,-47.68 270.63,-37.54 266.71,-47.38 273.71,-47.68"/>
</g>
<!-- UpdatePos -->
<g id="node11" class="node">
<title>UpdatePos</title>
<ellipse fill="lightgreen" stroke="black" cx="92.41" cy="-164" rx="50.84" ry="18"/>
<text xml:space="preserve" text-anchor="middle" x="92.41" y="-158.95" font-family="Times New Roman,serif" font-size="14.00">UpdatePos</text>
</g>
<!-- CheckValue&#45;&gt;UpdatePos -->
<g id="edge2" class="edge">
<title>CheckValue&#45;&gt;UpdatePos</title>
<path fill="none" stroke="black" d="M140.85,-234.82C132.27,-222.46 120.41,-205.36 110.57,-191.18"/>
<polygon fill="black" stroke="black" points="113.59,-189.39 105.01,-183.17 107.84,-193.38 113.59,-189.39"/>
<text xml:space="preserve" text-anchor="middle" x="151.79" y="-203.2" font-family="Times New Roman,serif" font-size="14.00">true path</text>
</g>
<!-- UpdateNeg -->
<g id="node12" class="node">
<title>UpdateNeg</title>
<ellipse fill="lightgreen" stroke="black" cx="214.41" cy="-164" rx="52.89" ry="18"/>
<text xml:space="preserve" text-anchor="middle" x="214.41" y="-158.95" font-family="Times New Roman,serif" font-size="14.00">UpdateNeg</text>
</g>
<!-- CheckValue&#45;&gt;UpdateNeg -->
<g id="edge3" class="edge">
<title>CheckValue&#45;&gt;UpdateNeg</title>
<path fill="none" stroke="black" d="M165.81,-234.57C170.21,-228.88 175.09,-222.47 179.41,-216.5 185.28,-208.41 191.47,-199.45 196.99,-191.3"/>
<polygon fill="black" stroke="black" points="199.8,-193.38 202.47,-183.13 193.99,-189.48 199.8,-193.38"/>
<text xml:space="preserve" text-anchor="middle" x="216.52" y="-203.2" font-family="Times New Roman,serif" font-size="14.00">false path</text>
</g>
<!-- UpdatePos&#45;&gt;Add_Ptotal -->
<g id="edge4" class="edge">
<title>UpdatePos&#45;&gt;Add_Ptotal</title>
<path fill="none" stroke="black" d="M78.96,-146.53C72.06,-138.09 63.5,-127.61 55.73,-118.09"/>
<polygon fill="black" stroke="black" points="58.6,-116.07 49.56,-110.54 53.18,-120.5 58.6,-116.07"/>
</g>
<!-- UpdatePos&#45;&gt;Inc_Pcnt -->
<g id="edge5" class="edge">
<title>UpdatePos&#45;&gt;Inc_Pcnt</title>
<path fill="none" stroke="black" d="M96.05,-145.81C97.67,-138.14 99.62,-128.89 101.45,-120.24"/>
<polygon fill="black" stroke="black" points="104.86,-121.02 103.5,-110.51 98.01,-119.57 104.86,-121.02"/>
</g>
<!-- UpdateNeg&#45;&gt;Add_Ntotal -->
<g id="edge6" class="edge">
<title>UpdateNeg&#45;&gt;Add_Ntotal</title>
<path fill="none" stroke="black" d="M209.09,-145.81C206.68,-138.05 203.78,-128.68 201.08,-119.95"/>
<polygon fill="black" stroke="black" points="204.44,-118.99 198.14,-110.47 197.76,-121.06 204.44,-118.99"/>
</g>
<!-- UpdateNeg&#45;&gt;Inc_Ncnt -->
<g id="edge7" class="edge">
<title>UpdateNeg&#45;&gt;Inc_Ncnt</title>
<path fill="none" stroke="black" d="M227.21,-146.17C233.53,-137.87 241.29,-127.66 248.37,-118.35"/>
<polygon fill="black" stroke="black" points="250.96,-120.73 254.23,-110.65 245.39,-116.49 250.96,-120.73"/>
</g>
</g>
</svg>
