<?xml version="1.0" encoding="UTF-8" standalone="no"?>
<!DOCTYPE svg PUBLIC "-//W3C//DTD SVG 1.1//EN"
 "http://www.w3.org/Graphics/SVG/1.1/DTD/svg11.dtd">
<!-- Generated by graphviz version 13.1.2 (20250808.2320)
 -->
<!-- Title: fib_CFG Pages: 1 -->
<svg width="552pt" height="278pt"
 viewBox="0.00 0.00 552.00 278.00" xmlns="http://www.w3.org/2000/svg" xmlns:xlink="http://www.w3.org/1999/xlink">
<g id="graph0" class="graph" transform="scale(1 1) rotate(0) translate(4 273.75)">
<title>fib_CFG</title>
<polygon fill="white" stroke="none" points="-4,4 -4,-273.75 548.12,-273.75 548.12,4 -4,4"/>
<!-- N1 -->
<g id="node1" class="node">
<title>N1</title>
<path fill="none" stroke="black" d="M300.75,-269.75C300.75,-269.75 128,-269.75 128,-269.75 122,-269.75 116,-263.75 116,-257.75 116,-257.75 116,-245.75 116,-245.75 116,-239.75 122,-233.75 128,-233.75 128,-233.75 300.75,-233.75 300.75,-233.75 306.75,-233.75 312.75,-239.75 312.75,-245.75 312.75,-245.75 312.75,-257.75 312.75,-257.75 312.75,-263.75 306.75,-269.75 300.75,-269.75"/>
<text xml:space="preserve" text-anchor="middle" x="214.38" y="-246.32" font-family="Helvetica,sans-Serif" font-size="14.00">1: int i, Fnew, Fold, temp, ans;</text>
</g>
<!-- N2 -->
<g id="node2" class="node">
<title>N2</title>
<path fill="none" stroke="black" d="M293.25,-196.75C293.25,-196.75 135.5,-196.75 135.5,-196.75 129.5,-196.75 123.5,-190.75 123.5,-184.75 123.5,-184.75 123.5,-172.75 123.5,-172.75 123.5,-166.75 129.5,-160.75 135.5,-160.75 135.5,-160.75 293.25,-160.75 293.25,-160.75 299.25,-160.75 305.25,-166.75 305.25,-172.75 305.25,-172.75 305.25,-184.75 305.25,-184.75 305.25,-190.75 299.25,-196.75 293.25,-196.75"/>
<text xml:space="preserve" text-anchor="middle" x="214.38" y="-173.32" font-family="Helvetica,sans-Serif" font-size="14.00">2: Fnew = 1; Fold = 0; i = 2;</text>
</g>
<!-- N1&#45;&gt;N2 -->
<g id="edge1" class="edge">
<title>N1&#45;&gt;N2</title>
<path fill="none" stroke="black" d="M214.38,-233.56C214.38,-225.98 214.38,-216.85 214.38,-208.29"/>
<polygon fill="black" stroke="black" points="217.88,-208.29 214.38,-198.29 210.88,-208.29 217.88,-208.29"/>
</g>
<!-- N3 -->
<g id="node3" class="node">
<title>N3</title>
<path fill="none" stroke="black" d="M268.88,-123.75C268.88,-123.75 159.88,-123.75 159.88,-123.75 153.88,-123.75 147.88,-117.75 147.88,-111.75 147.88,-111.75 147.88,-99.75 147.88,-99.75 147.88,-93.75 153.88,-87.75 159.88,-87.75 159.88,-87.75 268.88,-87.75 268.88,-87.75 274.88,-87.75 280.88,-93.75 280.88,-99.75 280.88,-99.75 280.88,-111.75 280.88,-111.75 280.88,-117.75 274.88,-123.75 268.88,-123.75"/>
<text xml:space="preserve" text-anchor="middle" x="214.38" y="-100.33" font-family="Helvetica,sans-Serif" font-size="14.00">3: i &lt;= 30 &amp;&amp; i &lt;= n</text>
</g>
<!-- N2&#45;&gt;N3 -->
<g id="edge2" class="edge">
<title>N2&#45;&gt;N3</title>
<path fill="none" stroke="black" d="M214.38,-160.56C214.38,-152.98 214.38,-143.85 214.38,-135.29"/>
<polygon fill="black" stroke="black" points="217.88,-135.29 214.38,-125.29 210.88,-135.29 217.88,-135.29"/>
</g>
<!-- N4 -->
<g id="node4" class="node">
<title>N4</title>
<path fill="none" stroke="black" d="M340.75,-36C340.75,-36 12,-36 12,-36 6,-36 0,-30 0,-24 0,-24 0,-12 0,-12 0,-6 6,0 12,0 12,0 340.75,0 340.75,0 346.75,0 352.75,-6 352.75,-12 352.75,-12 352.75,-24 352.75,-24 352.75,-30 346.75,-36 340.75,-36"/>
<text xml:space="preserve" text-anchor="middle" x="176.38" y="-12.57" font-family="Helvetica,sans-Serif" font-size="14.00">4: temp = Fnew; Fnew = Fnew + Fold; Fold = temp; i++;</text>
</g>
<!-- N3&#45;&gt;N4 -->
<g id="edge3" class="edge">
<title>N3&#45;&gt;N4</title>
<path fill="none" stroke="black" d="M190.21,-87.45C184.94,-82.39 180.06,-76.41 177.12,-69.75 174.09,-62.87 172.99,-54.94 172.88,-47.43"/>
<polygon fill="black" stroke="black" points="176.37,-47.82 173.31,-37.68 169.38,-47.51 176.37,-47.82"/>
<text xml:space="preserve" text-anchor="middle" x="188.75" y="-56.45" font-family="Helvetica,sans-Serif" font-size="14.00">true</text>
</g>
<!-- N5 -->
<g id="node5" class="node">
<title>N5</title>
<path fill="none" stroke="black" d="M532.12,-36C532.12,-36 382.62,-36 382.62,-36 376.62,-36 370.62,-30 370.62,-24 370.62,-24 370.62,-12 370.62,-12 370.62,-6 376.62,0 382.62,0 382.62,0 532.12,0 532.12,0 538.12,0 544.12,-6 544.12,-12 544.12,-12 544.12,-24 544.12,-24 544.12,-30 538.12,-36 532.12,-36"/>
<text xml:space="preserve" text-anchor="middle" x="457.38" y="-12.57" font-family="Helvetica,sans-Serif" font-size="14.00">5: ans = Fnew; return ans;</text>
</g>
<!-- N3&#45;&gt;N5 -->
<g id="edge4" class="edge">
<title>N3&#45;&gt;N5</title>
<path fill="none" stroke="black" d="M263.84,-87.29C302.44,-73.67 356.22,-54.7 397.29,-40.2"/>
<polygon fill="black" stroke="black" points="398.28,-43.56 406.55,-36.94 395.95,-36.96 398.28,-43.56"/>
<text xml:space="preserve" text-anchor="middle" x="371.89" y="-56.45" font-family="Helvetica,sans-Serif" font-size="14.00">false</text>
</g>
<!-- N4&#45;&gt;N3 -->
<g id="edge5" class="edge">
<title>N4&#45;&gt;N3</title>
<path fill="none" stroke="black" d="M190.04,-36.48C193.78,-41.88 197.58,-47.99 200.38,-54 203.61,-60.96 206.23,-68.82 208.29,-76.23"/>
<polygon fill="black" stroke="black" points="204.88,-77.02 210.71,-85.86 211.67,-75.31 204.88,-77.02"/>
</g>
</g>
</svg>
