<?xml version="1.0" encoding="UTF-8" standalone="no"?>
<!DOCTYPE svg PUBLIC "-//W3C//DTD SVG 1.1//EN"
 "http://www.w3.org/Graphics/SVG/1.1/DTD/svg11.dtd">
<!-- Generated by graphviz version 13.1.2 (20250808.2320)
 -->
<!-- Title: fib_DFG Pages: 1 -->
<svg width="502pt" height="279pt"
 viewBox="0.00 0.00 502.00 279.00" xmlns="http://www.w3.org/2000/svg" xmlns:xlink="http://www.w3.org/1999/xlink">
<g id="graph0" class="graph" transform="scale(1 1) rotate(0) translate(4 274.5)">
<title>fib_DFG</title>
<polygon fill="white" stroke="none" points="-4,4 -4,-274.5 498,-274.5 498,4 -4,4"/>
<!-- n_in -->
<g id="node1" class="node">
<title>n_in</title>
<ellipse fill="lightblue" stroke="black" cx="240.62" cy="-252.5" rx="27" ry="18"/>
<text xml:space="preserve" text-anchor="middle" x="240.62" y="-247.45" font-family="Times New Roman,serif" font-size="14.00">n</text>
</g>
<!-- op_cond -->
<g id="node3" class="node">
<title>op_cond</title>
<polygon fill="none" stroke="black" points="327.5,-197.5 205.75,-197.5 205.75,-161.5 327.5,-161.5 327.5,-197.5"/>
<text xml:space="preserve" text-anchor="middle" x="266.62" y="-174.45" font-family="Times New Roman,serif" font-size="14.00">i &lt;= 30 &amp;&amp; i &lt;= n</text>
</g>
<!-- n_in&#45;&gt;op_cond -->
<g id="edge1" class="edge">
<title>n_in&#45;&gt;op_cond</title>
<path fill="none" stroke="black" d="M246.79,-234.67C249.64,-226.89 253.1,-217.43 256.33,-208.61"/>
<polygon fill="black" stroke="black" points="259.56,-209.96 259.72,-199.37 252.99,-207.55 259.56,-209.96"/>
</g>
<!-- op_init -->
<g id="node2" class="node">
<title>op_init</title>
<polygon fill="none" stroke="black" points="425.88,-270.5 285.38,-270.5 285.38,-234.5 425.88,-234.5 425.88,-270.5"/>
<text xml:space="preserve" text-anchor="middle" x="355.62" y="-247.45" font-family="Times New Roman,serif" font-size="14.00">Initialize i, Fnew, Fold</text>
</g>
<!-- op_init&#45;&gt;op_cond -->
<g id="edge2" class="edge">
<title>op_init&#45;&gt;op_cond</title>
<path fill="none" stroke="black" d="M334.08,-234.31C323.01,-225.48 309.33,-214.57 297.19,-204.89"/>
<polygon fill="black" stroke="black" points="299.46,-202.22 289.46,-198.72 295.1,-207.69 299.46,-202.22"/>
</g>
<!-- op_loop -->
<g id="node4" class="node">
<title>op_loop</title>
<polygon fill="none" stroke="black" points="494,-109 177.25,-109 177.25,-73 494,-73 494,-109"/>
<text xml:space="preserve" text-anchor="middle" x="335.62" y="-85.95" font-family="Times New Roman,serif" font-size="14.00">temp = Fnew; Fnew = Fnew + Fold; Fold = temp; i++</text>
</g>
<!-- op_init&#45;&gt;op_loop -->
<g id="edge3" class="edge">
<title>op_init&#45;&gt;op_loop</title>
<path fill="none" stroke="black" d="M353.45,-234.13C350.02,-206.8 343.34,-153.5 339.2,-120.5"/>
<polygon fill="black" stroke="black" points="342.71,-120.34 337.99,-110.85 335.76,-121.21 342.71,-120.34"/>
</g>
<!-- op_cond&#45;&gt;op_loop -->
<g id="edge4" class="edge">
<title>op_cond&#45;&gt;op_loop</title>
<path fill="none" stroke="black" d="M280.26,-161.41C290.12,-149.05 303.62,-132.13 314.82,-118.08"/>
<polygon fill="black" stroke="black" points="317.34,-120.53 320.84,-110.53 311.87,-116.17 317.34,-120.53"/>
<text xml:space="preserve" text-anchor="middle" x="317.81" y="-130.2" font-family="Times New Roman,serif" font-size="14.00">true</text>
</g>
<!-- op_ret -->
<g id="node5" class="node">
<title>op_ret</title>
<polygon fill="none" stroke="black" points="141.25,-109 0,-109 0,-73 141.25,-73 141.25,-109"/>
<text xml:space="preserve" text-anchor="middle" x="70.62" y="-85.95" font-family="Times New Roman,serif" font-size="14.00">ans = Fnew; return ans</text>
</g>
<!-- op_cond&#45;&gt;op_ret -->
<g id="edge6" class="edge">
<title>op_cond&#45;&gt;op_ret</title>
<path fill="none" stroke="black" d="M227.43,-161.2C196.69,-147.63 153.69,-128.66 120.49,-114.01"/>
<polygon fill="black" stroke="black" points="122.03,-110.86 111.47,-110.03 119.21,-117.27 122.03,-110.86"/>
<text xml:space="preserve" text-anchor="middle" x="198.93" y="-130.2" font-family="Times New Roman,serif" font-size="14.00">false</text>
</g>
<!-- op_loop&#45;&gt;op_cond -->
<g id="edge5" class="edge">
<title>op_loop&#45;&gt;op_cond</title>
<path fill="none" stroke="black" d="M309,-109.36C302.43,-114.5 295.81,-120.5 290.62,-127 285.05,-134 280.41,-142.51 276.74,-150.58"/>
<polygon fill="black" stroke="black" points="273.54,-149.15 272.93,-159.73 280.01,-151.84 273.54,-149.15"/>
</g>
<!-- op_loop&#45;&gt;op_ret -->
<g id="edge7" class="edge">
<title>op_loop&#45;&gt;op_ret</title>
<path fill="none" stroke="black" d="M176.79,-91C168.8,-91 160.81,-91 152.83,-91"/>
<polygon fill="black" stroke="black" points="153.05,-87.5 143.05,-91 153.05,-94.5 153.05,-87.5"/>
<text xml:space="preserve" text-anchor="middle" x="159.19" y="-77.7" font-family="Times New Roman,serif" font-size="14.00">Fnew (carried)</text>
</g>
<!-- ans_out -->
<g id="node6" class="node">
<title>ans_out</title>
<ellipse fill="lightgreen" stroke="black" cx="70.62" cy="-18" rx="27" ry="18"/>
<text xml:space="preserve" text-anchor="middle" x="70.62" y="-12.95" font-family="Times New Roman,serif" font-size="14.00">ans</text>
</g>
<!-- op_ret&#45;&gt;ans_out -->
<g id="edge8" class="edge">
<title>op_ret&#45;&gt;ans_out</title>
<path fill="none" stroke="black" d="M70.62,-72.81C70.62,-65.23 70.62,-56.1 70.62,-47.54"/>
<polygon fill="black" stroke="black" points="74.13,-47.54 70.63,-37.54 67.13,-47.54 74.13,-47.54"/>
</g>
</g>
</svg>
