<?xml version="1.0" encoding="UTF-8" standalone="no"?>
<!DOCTYPE svg PUBLIC "-//W3C//DTD SVG 1.1//EN"
 "http://www.w3.org/Graphics/SVG/1.1/DTD/svg11.dtd">
<!-- Generated by graphviz version 13.1.2 (20250808.2320)
 -->
<!-- Title: main_DFG Pages: 1 -->
<svg width="134pt" height="116pt"
 viewBox="0.00 0.00 134.00 116.00" xmlns="http://www.w3.org/2000/svg" xmlns:xlink="http://www.w3.org/1999/xlink">
<g id="graph0" class="graph" transform="scale(1 1) rotate(0) translate(4 112)">
<title>main_DFG</title>
<polygon fill="white" stroke="none" points="-4,4 -4,-112 130,-112 130,4 -4,4"/>
<!-- a_out -->
<g id="node1" class="node">
<title>a_out</title>
<ellipse fill="lightgreen" stroke="black" cx="27" cy="-18" rx="27" ry="18"/>
<text xml:space="preserve" text-anchor="middle" x="27" y="-12.95" font-family="Times New Roman,serif" font-size="14.00">a</text>
</g>
<!-- op_assign -->
<g id="node2" class="node">
<title>op_assign</title>
<polygon fill="none" stroke="black" points="90,-108 36,-108 36,-72 90,-72 90,-108"/>
<text xml:space="preserve" text-anchor="middle" x="63" y="-84.95" font-family="Times New Roman,serif" font-size="14.00">a = 30</text>
</g>
<!-- op_assign&#45;&gt;a_out -->
<g id="edge2" class="edge">
<title>op_assign&#45;&gt;a_out</title>
<path fill="none" stroke="black" d="M54.1,-71.7C50.02,-63.75 45.08,-54.16 40.55,-45.34"/>
<polygon fill="black" stroke="black" points="43.68,-43.78 36,-36.49 37.46,-46.98 43.68,-43.78"/>
</g>
<!-- op_call -->
<g id="node3" class="node">
<title>op_call</title>
<polygon fill="none" stroke="black" points="126,-36 72,-36 72,0 126,0 126,-36"/>
<text xml:space="preserve" text-anchor="middle" x="99" y="-12.95" font-family="Times New Roman,serif" font-size="14.00">fib(a)</text>
</g>
<!-- op_assign&#45;&gt;op_call -->
<g id="edge1" class="edge">
<title>op_assign&#45;&gt;op_call</title>
<path fill="none" stroke="black" d="M71.9,-71.7C75.87,-63.98 80.63,-54.71 85.06,-46.11"/>
<polygon fill="black" stroke="black" points="88.05,-47.94 89.51,-37.45 81.83,-44.74 88.05,-47.94"/>
</g>
</g>
</svg>
