<?xml version="1.0" encoding="UTF-8" standalone="no"?>
<!DOCTYPE svg PUBLIC "-//W3C//DTD SVG 1.1//EN"
 "http://www.w3.org/Graphics/SVG/1.1/DTD/svg11.dtd">
<!-- Generated by graphviz version 13.1.2 (20250808.2320)
 -->
<!-- Title: CFG_compress Pages: 1 -->
<svg width="230pt" height="456pt"
 viewBox="0.00 0.00 230.00 456.00" xmlns="http://www.w3.org/2000/svg" xmlns:xlink="http://www.w3.org/1999/xlink">
<g id="graph0" class="graph" transform="scale(1 1) rotate(0) translate(4 451.5)">
<title>CFG_compress</title>
<polygon fill="white" stroke="none" points="-4,4 -4,-451.5 225.92,-451.5 225.92,4 -4,4"/>
<!-- entry -->
<g id="node1" class="node">
<title>entry</title>
<polygon fill="none" stroke="black" points="151.88,-447.5 97.88,-447.5 97.88,-411.5 151.88,-411.5 151.88,-447.5"/>
<text xml:space="preserve" text-anchor="middle" x="124.88" y="-424.45" font-family="Times New Roman,serif" font-size="14.00">entry</text>
</g>
<!-- init -->
<g id="node2" class="node">
<title>init</title>
<polygon fill="none" stroke="black" points="151.88,-374.5 97.88,-374.5 97.88,-338.5 151.88,-338.5 151.88,-374.5"/>
<text xml:space="preserve" text-anchor="middle" x="124.88" y="-351.45" font-family="Times New Roman,serif" font-size="14.00">init</text>
</g>
<!-- entry&#45;&gt;init -->
<g id="edge1" class="edge">
<title>entry&#45;&gt;init</title>
<path fill="none" stroke="black" d="M124.88,-411.31C124.88,-403.73 124.88,-394.6 124.88,-386.04"/>
<polygon fill="black" stroke="black" points="128.38,-386.04 124.88,-376.04 121.38,-386.04 128.38,-386.04"/>
</g>
<!-- while_cond -->
<g id="node3" class="node">
<title>while_cond</title>
<polygon fill="none" stroke="black" points="164.38,-301.5 85.38,-301.5 85.38,-265.5 164.38,-265.5 164.38,-301.5"/>
<text xml:space="preserve" text-anchor="middle" x="124.88" y="-278.45" font-family="Times New Roman,serif" font-size="14.00">while_cond</text>
</g>
<!-- init&#45;&gt;while_cond -->
<g id="edge2" class="edge">
<title>init&#45;&gt;while_cond</title>
<path fill="none" stroke="black" d="M124.88,-338.31C124.88,-330.73 124.88,-321.6 124.88,-313.04"/>
<polygon fill="black" stroke="black" points="128.38,-313.04 124.88,-303.04 121.38,-313.04 128.38,-313.04"/>
</g>
<!-- while_body -->
<g id="node4" class="node">
<title>while_body</title>
<polygon fill="none" stroke="black" points="79.75,-213 0,-213 0,-177 79.75,-177 79.75,-213"/>
<text xml:space="preserve" text-anchor="middle" x="39.88" y="-189.95" font-family="Times New Roman,serif" font-size="14.00">while_body</text>
</g>
<!-- while_cond&#45;&gt;while_body -->
<g id="edge3" class="edge">
<title>while_cond&#45;&gt;while_body</title>
<path fill="none" stroke="black" d="M89.69,-265.03C81.83,-260.07 73.95,-254.18 67.62,-247.5 61.05,-240.55 55.55,-231.74 51.23,-223.38"/>
<polygon fill="black" stroke="black" points="54.5,-222.11 47.05,-214.57 48.18,-225.11 54.5,-222.11"/>
<text xml:space="preserve" text-anchor="middle" x="94.25" y="-234.2" font-family="Times New Roman,serif" font-size="14.00">InCnt &gt; 0</text>
</g>
<!-- exit -->
<g id="node5" class="node">
<title>exit</title>
<polygon fill="none" stroke="black" points="151.88,-213 97.88,-213 97.88,-177 151.88,-177 151.88,-213"/>
<text xml:space="preserve" text-anchor="middle" x="124.88" y="-189.95" font-family="Times New Roman,serif" font-size="14.00">exit</text>
</g>
<!-- while_cond&#45;&gt;exit -->
<g id="edge4" class="edge">
<title>while_cond&#45;&gt;exit</title>
<path fill="none" stroke="black" d="M124.88,-265.41C124.88,-253.76 124.88,-238.05 124.88,-224.52"/>
<polygon fill="black" stroke="black" points="128.38,-224.86 124.88,-214.86 121.38,-224.86 128.38,-224.86"/>
<text xml:space="preserve" text-anchor="middle" x="155.62" y="-234.2" font-family="Times New Roman,serif" font-size="14.00">InCnt &lt;= 0</text>
</g>
<!-- nomatch -->
<g id="node6" class="node">
<title>nomatch</title>
<polygon fill="none" stroke="black" points="140.5,-36 77.25,-36 77.25,0 140.5,0 140.5,-36"/>
<text xml:space="preserve" text-anchor="middle" x="108.88" y="-12.95" font-family="Times New Roman,serif" font-size="14.00">nomatch</text>
</g>
<!-- while_body&#45;&gt;nomatch -->
<g id="edge5" class="edge">
<title>while_body&#45;&gt;nomatch</title>
<path fill="none" stroke="black" d="M30.93,-176.68C21.06,-155.02 8.3,-117.3 22.12,-88.5 31.71,-68.54 50.13,-52.51 67.54,-40.89"/>
<polygon fill="black" stroke="black" points="69.18,-44 75.77,-35.71 65.44,-38.08 69.18,-44"/>
<text xml:space="preserve" text-anchor="middle" x="57" y="-101.45" font-family="Times New Roman,serif" font-size="14.00">htabof(i) &lt; 0</text>
</g>
<!-- probe -->
<g id="node7" class="node">
<title>probe</title>
<polygon fill="none" stroke="black" points="154.88,-124.5 100.88,-124.5 100.88,-88.5 154.88,-88.5 154.88,-124.5"/>
<text xml:space="preserve" text-anchor="middle" x="127.88" y="-101.45" font-family="Times New Roman,serif" font-size="14.00">probe</text>
</g>
<!-- while_body&#45;&gt;probe -->
<g id="edge6" class="edge">
<title>while_body&#45;&gt;probe</title>
<path fill="none" stroke="black" d="M56.52,-176.64C66.28,-166.57 78.9,-153.69 90.38,-142.5 93.75,-139.21 97.32,-135.79 100.88,-132.43"/>
<polygon fill="black" stroke="black" points="103.02,-135.21 107.92,-125.82 98.24,-130.11 103.02,-135.21"/>
<text xml:space="preserve" text-anchor="middle" x="139.12" y="-145.7" font-family="Times New Roman,serif" font-size="14.00">htabof(i) != fcode</text>
</g>
<!-- nomatch&#45;&gt;while_cond -->
<g id="edge8" class="edge">
<title>nomatch&#45;&gt;while_cond</title>
<path fill="none" stroke="black" d="M140.92,-24.54C157.96,-29.29 177.48,-38.03 187.88,-54 234.78,-126.08 231.49,-173.38 187.88,-247.5 184.46,-253.3 179.7,-258.21 174.3,-262.35"/>
<polygon fill="black" stroke="black" points="172.47,-259.36 166.03,-267.77 176.31,-265.22 172.47,-259.36"/>
</g>
<!-- probe&#45;&gt;nomatch -->
<g id="edge7" class="edge">
<title>probe&#45;&gt;nomatch</title>
<path fill="none" stroke="black" d="M117.07,-88.32C114.17,-82.83 111.41,-76.6 109.88,-70.5 108.06,-63.3 107.32,-55.36 107.14,-47.91"/>
<polygon fill="black" stroke="black" points="110.64,-47.98 107.26,-37.94 103.64,-47.9 110.64,-47.98"/>
<text xml:space="preserve" text-anchor="middle" x="148.88" y="-57.2" font-family="Times New Roman,serif" font-size="14.00">htabof(i) &lt;= 0</text>
</g>
</g>
</svg>
