<?xml version="1.0" encoding="UTF-8" standalone="no"?>
<!DOCTYPE svg PUBLIC "-//W3C//DTD SVG 1.1//EN"
 "http://www.w3.org/Graphics/SVG/1.1/DTD/svg11.dtd">
<!-- Generated by graphviz version 13.1.2 (20250808.2320)
 -->
<!-- Title: DFG_compress Pages: 1 -->
<svg width="94pt" height="425pt"
 viewBox="0.00 0.00 94.00 425.00" xmlns="http://www.w3.org/2000/svg" xmlns:xlink="http://www.w3.org/1999/xlink">
<g id="graph0" class="graph" transform="scale(1 1) rotate(0) translate(4 420.5)">
<title>DFG_compress</title>
<polygon fill="white" stroke="none" points="-4,4 -4,-420.5 90.32,-420.5 90.32,4 -4,4"/>
<!-- getbyte -->
<g id="node1" class="node">
<title>getbyte</title>
<ellipse fill="none" stroke="black" cx="43.16" cy="-398.5" rx="38.04" ry="18"/>
<text xml:space="preserve" text-anchor="middle" x="43.16" y="-393.45" font-family="Times New Roman,serif" font-size="14.00">getbyte</text>
</g>
<!-- ent -->
<g id="node2" class="node">
<title>ent</title>
<ellipse fill="none" stroke="black" cx="43.16" cy="-325.5" rx="27" ry="18"/>
<text xml:space="preserve" text-anchor="middle" x="43.16" y="-320.45" font-family="Times New Roman,serif" font-size="14.00">ent</text>
</g>
<!-- getbyte&#45;&gt;ent -->
<g id="edge1" class="edge">
<title>getbyte&#45;&gt;ent</title>
<path fill="none" stroke="black" d="M43.16,-380.31C43.16,-372.73 43.16,-363.6 43.16,-355.04"/>
<polygon fill="black" stroke="black" points="46.66,-355.04 43.16,-345.04 39.66,-355.04 46.66,-355.04"/>
</g>
<!-- fcode -->
<g id="node3" class="node">
<title>fcode</title>
<ellipse fill="none" stroke="black" cx="43.16" cy="-252.5" rx="31.39" ry="18"/>
<text xml:space="preserve" text-anchor="middle" x="43.16" y="-247.45" font-family="Times New Roman,serif" font-size="14.00">fcode</text>
</g>
<!-- ent&#45;&gt;fcode -->
<g id="edge2" class="edge">
<title>ent&#45;&gt;fcode</title>
<path fill="none" stroke="black" d="M43.16,-307.31C43.16,-299.73 43.16,-290.6 43.16,-282.04"/>
<polygon fill="black" stroke="black" points="46.66,-282.04 43.16,-272.04 39.66,-282.04 46.66,-282.04"/>
</g>
<!-- htabof -->
<g id="node4" class="node">
<title>htabof</title>
<ellipse fill="none" stroke="black" cx="43.16" cy="-179.5" rx="34.46" ry="18"/>
<text xml:space="preserve" text-anchor="middle" x="43.16" y="-174.45" font-family="Times New Roman,serif" font-size="14.00">htabof</text>
</g>
<!-- fcode&#45;&gt;htabof -->
<g id="edge3" class="edge">
<title>fcode&#45;&gt;htabof</title>
<path fill="none" stroke="black" d="M43.16,-234.31C43.16,-226.73 43.16,-217.6 43.16,-209.04"/>
<polygon fill="black" stroke="black" points="46.66,-209.04 43.16,-199.04 39.66,-209.04 46.66,-209.04"/>
</g>
<!-- cond -->
<g id="node5" class="node">
<title>cond</title>
<ellipse fill="none" stroke="black" cx="43.16" cy="-106.5" rx="28.83" ry="18"/>
<text xml:space="preserve" text-anchor="middle" x="43.16" y="-101.45" font-family="Times New Roman,serif" font-size="14.00">cond</text>
</g>
<!-- htabof&#45;&gt;cond -->
<g id="edge4" class="edge">
<title>htabof&#45;&gt;cond</title>
<path fill="none" stroke="black" d="M43.16,-161.31C43.16,-153.73 43.16,-144.6 43.16,-136.04"/>
<polygon fill="black" stroke="black" points="46.66,-136.04 43.16,-126.04 39.66,-136.04 46.66,-136.04"/>
</g>
<!-- nomatch -->
<g id="node6" class="node">
<title>nomatch</title>
<ellipse fill="none" stroke="black" cx="43.16" cy="-18" rx="43.16" ry="18"/>
<text xml:space="preserve" text-anchor="middle" x="43.16" y="-12.95" font-family="Times New Roman,serif" font-size="14.00">nomatch</text>
</g>
<!-- cond&#45;&gt;nomatch -->
<g id="edge5" class="edge">
<title>cond&#45;&gt;nomatch</title>
<path fill="none" stroke="black" d="M43.16,-88.41C43.16,-76.76 43.16,-61.05 43.16,-47.52"/>
<polygon fill="black" stroke="black" points="46.66,-47.86 43.16,-37.86 39.66,-47.86 46.66,-47.86"/>
<text xml:space="preserve" text-anchor="middle" x="52.54" y="-57.2" font-family="Times New Roman,serif" font-size="14.00">&lt; 0</text>
</g>
</g>
</svg>
