<?xml version="1.0" encoding="UTF-8" standalone="no"?>
<!DOCTYPE svg PUBLIC "-//W3C//DTD SVG 1.1//EN"
 "http://www.w3.org/Graphics/SVG/1.1/DTD/svg11.dtd">
<!-- Generated by graphviz version 13.1.2 (20250808.2320)
 -->
<!-- Title: CDFG Pages: 1 -->
<svg width="465pt" height="676pt"
 viewBox="0.00 0.00 465.00 676.00" xmlns="http://www.w3.org/2000/svg" xmlns:xlink="http://www.w3.org/1999/xlink">
<g id="graph0" class="graph" transform="scale(1 1) rotate(0) translate(4 671.5)">
<title>CDFG</title>
<polygon fill="white" stroke="none" points="-4,4 -4,-671.5 460.57,-671.5 460.57,4 -4,4"/>
<!-- 1 -->
<g id="node1" class="node">
<title>1</title>
<ellipse fill="none" stroke="black" cx="319.5" cy="-616.5" rx="18" ry="18"/>
<text xml:space="preserve" text-anchor="middle" x="319.5" y="-611.45" font-family="Times New Roman,serif" font-size="14.00">1</text>
<text xml:space="preserve" text-anchor="middle" x="150.75" y="-654.2" font-family="Times New Roman,serif" font-size="14.00">Def: isPremium, isEligibleForDiscount, isOnClearance</text>
<text xml:space="preserve" text-anchor="middle" x="150.75" y="-637.7" font-family="Times New Roman,serif" font-size="14.00">C&#45;Use: customer, product</text>
</g>
<!-- 2 -->
<g id="node2" class="node">
<title>2</title>
<ellipse fill="none" stroke="black" cx="319.5" cy="-543.5" rx="18" ry="18"/>
<text xml:space="preserve" text-anchor="middle" x="319.5" y="-538.45" font-family="Times New Roman,serif" font-size="14.00">2</text>
<text xml:space="preserve" text-anchor="middle" x="187.88" y="-564.7" font-family="Times New Roman,serif" font-size="14.00">P&#45;Use: isPremium, isEligibleForDiscount</text>
</g>
<!-- 1&#45;&gt;2 -->
<g id="edge1" class="edge">
<title>1&#45;&gt;2</title>
<path fill="none" stroke="black" d="M319.5,-598.31C319.5,-590.73 319.5,-581.6 319.5,-573.04"/>
<polygon fill="black" stroke="black" points="323,-573.04 319.5,-563.04 316,-573.04 323,-573.04"/>
</g>
<!-- 3 -->
<g id="node3" class="node">
<title>3</title>
<ellipse fill="none" stroke="black" cx="293.5" cy="-438.5" rx="18" ry="18"/>
<text xml:space="preserve" text-anchor="middle" x="293.5" y="-433.45" font-family="Times New Roman,serif" font-size="14.00">3</text>
<text xml:space="preserve" text-anchor="middle" x="223.75" y="-459.7" font-family="Times New Roman,serif" font-size="14.00">C&#45;Use: System.out</text>
</g>
<!-- 2&#45;&gt;3 -->
<g id="edge2" class="edge">
<title>2&#45;&gt;3</title>
<path fill="none" stroke="black" d="M301.42,-543.08C275.07,-542.81 226.79,-537.9 204.25,-507.5 195.51,-495.72 195.99,-486.62 204.25,-474.5 217.58,-454.96 243.61,-446.33 264.14,-442.52"/>
<polygon fill="black" stroke="black" points="264.6,-445.99 273.95,-441.01 263.54,-439.07 264.6,-445.99"/>
<text xml:space="preserve" text-anchor="middle" x="313.38" y="-494.2" font-family="Times New Roman,serif" font-size="14.00">True</text>
<text xml:space="preserve" text-anchor="middle" x="313.38" y="-477.7" font-family="Times New Roman,serif" font-size="14.00">(isPremium &amp;&amp; isEligibleForDiscount)</text>
</g>
<!-- 4 -->
<g id="node4" class="node">
<title>4</title>
<ellipse fill="none" stroke="black" cx="364.5" cy="-365.5" rx="18" ry="18"/>
<text xml:space="preserve" text-anchor="middle" x="364.5" y="-360.45" font-family="Times New Roman,serif" font-size="14.00">4</text>
<text xml:space="preserve" text-anchor="middle" x="286.5" y="-386.7" font-family="Times New Roman,serif" font-size="14.00">P&#45;Use: isOnClearance</text>
</g>
<!-- 2&#45;&gt;4 -->
<g id="edge3" class="edge">
<title>2&#45;&gt;4</title>
<path fill="none" stroke="black" d="M337.72,-542.3C361.72,-540.93 403.14,-534.52 422.5,-507.5 450.02,-469.08 410.95,-415.67 384.78,-386.87"/>
<polygon fill="black" stroke="black" points="387.6,-384.75 378.2,-379.86 382.5,-389.55 387.6,-384.75"/>
<text xml:space="preserve" text-anchor="middle" x="442.32" y="-433.45" font-family="Times New Roman,serif" font-size="14.00">False</text>
</g>
<!-- 3&#45;&gt;4 -->
<g id="edge4" class="edge">
<title>3&#45;&gt;4</title>
<path fill="none" stroke="black" d="M305.87,-425.13C316.46,-414.54 331.91,-399.09 344.29,-386.71"/>
<polygon fill="black" stroke="black" points="346.61,-389.34 351.2,-379.8 341.66,-384.39 346.61,-389.34"/>
</g>
<!-- 5 -->
<g id="node5" class="node">
<title>5</title>
<ellipse fill="none" stroke="black" cx="312.5" cy="-260.5" rx="18" ry="18"/>
<text xml:space="preserve" text-anchor="middle" x="312.5" y="-255.45" font-family="Times New Roman,serif" font-size="14.00">5</text>
<text xml:space="preserve" text-anchor="middle" x="242.75" y="-281.7" font-family="Times New Roman,serif" font-size="14.00">C&#45;Use: System.out</text>
</g>
<!-- 4&#45;&gt;5 -->
<g id="edge5" class="edge">
<title>4&#45;&gt;5</title>
<path fill="none" stroke="black" d="M348.14,-358.03C336.34,-352.41 321.28,-343.03 314,-329.5 307.53,-317.48 306.6,-302.44 307.53,-289.57"/>
<polygon fill="black" stroke="black" points="310.96,-290.35 308.62,-280.01 304,-289.55 310.96,-290.35"/>
<text xml:space="preserve" text-anchor="middle" x="358.25" y="-316.2" font-family="Times New Roman,serif" font-size="14.00">True</text>
<text xml:space="preserve" text-anchor="middle" x="358.25" y="-299.7" font-family="Times New Roman,serif" font-size="14.00">(isOnClearance)</text>
</g>
<!-- 8 -->
<g id="node8" class="node">
<title>8</title>
<ellipse fill="none" stroke="black" cx="359.5" cy="-22" rx="18" ry="18"/>
<ellipse fill="none" stroke="black" cx="359.5" cy="-22" rx="22" ry="22"/>
<text xml:space="preserve" text-anchor="middle" x="359.5" y="-16.95" font-family="Times New Roman,serif" font-size="14.00">8</text>
</g>
<!-- 4&#45;&gt;8 -->
<g id="edge6" class="edge">
<title>4&#45;&gt;8</title>
<path fill="none" stroke="black" d="M379.26,-354.49C387.35,-348.24 396.85,-339.49 402.5,-329.5 417.69,-302.64 416.5,-292.36 416.5,-261.5 416.5,-261.5 416.5,-261.5 416.5,-98 416.5,-75.99 400.75,-56.39 385.8,-42.76"/>
<polygon fill="black" stroke="black" points="388.26,-40.25 378.37,-36.42 383.71,-45.57 388.26,-40.25"/>
<text xml:space="preserve" text-anchor="middle" x="430.75" y="-182.45" font-family="Times New Roman,serif" font-size="14.00">False</text>
</g>
<!-- 6 -->
<g id="node6" class="node">
<title>6</title>
<ellipse fill="none" stroke="black" cx="312.5" cy="-187.5" rx="18" ry="18"/>
<text xml:space="preserve" text-anchor="middle" x="312.5" y="-182.45" font-family="Times New Roman,serif" font-size="14.00">6</text>
<text xml:space="preserve" text-anchor="middle" x="180.88" y="-208.7" font-family="Times New Roman,serif" font-size="14.00">P&#45;Use: isPremium, isEligibleForDiscount</text>
</g>
<!-- 5&#45;&gt;6 -->
<g id="edge7" class="edge">
<title>5&#45;&gt;6</title>
<path fill="none" stroke="black" d="M312.5,-242.31C312.5,-234.73 312.5,-225.6 312.5,-217.04"/>
<polygon fill="black" stroke="black" points="316,-217.04 312.5,-207.04 309,-217.04 316,-217.04"/>
</g>
<!-- 7 -->
<g id="node7" class="node">
<title>7</title>
<ellipse fill="none" stroke="black" cx="305.5" cy="-99" rx="18" ry="18"/>
<text xml:space="preserve" text-anchor="middle" x="305.5" y="-93.95" font-family="Times New Roman,serif" font-size="14.00">7</text>
<text xml:space="preserve" text-anchor="middle" x="235.75" y="-120.2" font-family="Times New Roman,serif" font-size="14.00">C&#45;Use: System.out</text>
</g>
<!-- 6&#45;&gt;7 -->
<g id="edge8" class="edge">
<title>6&#45;&gt;7</title>
<path fill="none" stroke="black" d="M311.12,-169.41C310.17,-157.76 308.9,-142.05 307.81,-128.52"/>
<polygon fill="black" stroke="black" points="311.32,-128.54 307.03,-118.86 304.34,-129.11 311.32,-128.54"/>
<text xml:space="preserve" text-anchor="middle" x="322.38" y="-138.2" font-family="Times New Roman,serif" font-size="14.00">True</text>
</g>
<!-- 6&#45;&gt;8 -->
<g id="edge9" class="edge">
<title>6&#45;&gt;8</title>
<path fill="none" stroke="black" d="M324.74,-173.89C330.11,-167.63 335.99,-159.68 339.5,-151.5 352.71,-120.74 357.33,-82.5 358.88,-55.76"/>
<polygon fill="black" stroke="black" points="362.37,-56.02 359.32,-45.87 355.37,-55.7 362.37,-56.02"/>
<text xml:space="preserve" text-anchor="middle" x="370.87" y="-93.95" font-family="Times New Roman,serif" font-size="14.00">False</text>
</g>
<!-- 7&#45;&gt;8 -->
<g id="edge10" class="edge">
<title>7&#45;&gt;8</title>
<path fill="none" stroke="black" d="M315.66,-83.89C322.58,-74.28 331.96,-61.25 340.27,-49.71"/>
<polygon fill="black" stroke="black" points="343.03,-51.86 346.03,-41.7 337.35,-47.77 343.03,-51.86"/>
</g>
</g>
</svg>
