<?xml version="1.0" encoding="UTF-8" standalone="no"?>
<!DOCTYPE svg PUBLIC "-//W3C//DTD SVG 1.1//EN"
 "http://www.w3.org/Graphics/SVG/1.1/DTD/svg11.dtd">
<!-- Generated by graphviz version 13.1.2 (20250808.2320)
 -->
<!-- Title: compress_CDFG Pages: 1 -->
<svg width="1024pt" height="1238pt"
 viewBox="0.00 0.00 1024.00 1238.00" xmlns="http://www.w3.org/2000/svg" xmlns:xlink="http://www.w3.org/1999/xlink">
<g id="graph0" class="graph" transform="scale(1 1) rotate(0) translate(4 1234)">
<title>compress_CDFG</title>
<polygon fill="white" stroke="none" points="-4,4 -4,-1234 1019.5,-1234 1019.5,4 -4,4"/>
<!-- 1 -->
<g id="node1" class="node">
<title>1</title>
<polygon fill="none" stroke="black" points="1015.5,-1230 42.5,-1230 42.5,-1139.5 1015.5,-1139.5 1015.5,-1230"/>
<text xml:space="preserve" text-anchor="middle" x="529" y="-1212.7" font-family="Courier,monospace" font-size="14.00">1: Inicializacao</text>
<text xml:space="preserve" text-anchor="middle" x="529" y="-1196.2" font-family="Courier,monospace" font-size="14.00">(compress)</text>
<text xml:space="preserve" text-anchor="middle" x="529" y="-1179.7" font-family="Courier,monospace" font-size="14.00">def: offset, bytes_out, out_count, clear_flg, ratio, in_count, checkpoint, maxcode, free_ent, ent, hshift, hsize_reg</text>
<text xml:space="preserve" text-anchor="middle" x="529" y="-1163.2" font-family="Courier,monospace" font-size="14.00">c&#45;use: hsize, block_compress, INIT_BITS, FIRST, getbyte</text>
<text xml:space="preserve" text-anchor="middle" x="529" y="-1146.7" font-family="Courier,monospace" font-size="14.00">p&#45;use: </text>
</g>
<!-- 2 -->
<g id="node2" class="node">
<title>2</title>
<polygon fill="none" stroke="black" points="415.12,-1102.5 258.88,-1102.5 258.88,-1045 415.12,-1045 415.12,-1102.5"/>
<text xml:space="preserve" text-anchor="middle" x="337" y="-1085.2" font-family="Courier,monospace" font-size="14.00">2: Loop Principal</text>
<text xml:space="preserve" text-anchor="middle" x="337" y="-1068.7" font-family="Courier,monospace" font-size="14.00">while (InCnt &gt; 0)</text>
<text xml:space="preserve" text-anchor="middle" x="337" y="-1052.2" font-family="Courier,monospace" font-size="14.00">p&#45;use: InCnt</text>
</g>
<!-- 1&#45;&gt;2 -->
<g id="edge1" class="edge">
<title>1&#45;&gt;2</title>
<path fill="none" stroke="black" d="M450.35,-1139.1C432.35,-1128.88 413.5,-1118.18 396.45,-1108.5"/>
<polygon fill="black" stroke="black" points="398.39,-1105.58 387.96,-1103.68 394.93,-1111.66 398.39,-1105.58"/>
</g>
<!-- 3 -->
<g id="node3" class="node">
<title>3</title>
<polygon fill="none" stroke="black" points="710.25,-992.5 347.75,-992.5 347.75,-918.5 710.25,-918.5 710.25,-992.5"/>
<text xml:space="preserve" text-anchor="middle" x="529" y="-975.2" font-family="Courier,monospace" font-size="14.00">3: Corpo do Loop</text>
<text xml:space="preserve" text-anchor="middle" x="529" y="-958.7" font-family="Courier,monospace" font-size="14.00">def: apsim_bound111, c, in_count, fcode, i</text>
<text xml:space="preserve" text-anchor="middle" x="529" y="-942.2" font-family="Courier,monospace" font-size="14.00">c&#45;use: maxbits, ent, hshift</text>
<text xml:space="preserve" text-anchor="middle" x="529" y="-925.7" font-family="Courier,monospace" font-size="14.00">p&#45;use: </text>
</g>
<!-- 1&#45;&gt;3 -->
<g id="edge19" class="edge">
<title>1&#45;&gt;3</title>
<path fill="none" stroke="blue" stroke-dasharray="5,2" d="M529,-1139.12C529,-1100.18 529,-1043.84 529,-1004.06"/>
<polygon fill="blue" stroke="blue" points="532.5,-1004.31 529,-994.31 525.5,-1004.31 532.5,-1004.31"/>
<text xml:space="preserve" text-anchor="middle" x="556.38" y="-1068.7" font-family="Times New Roman,serif" font-size="14.00">ent, hshift</text>
</g>
<!-- 11 -->
<g id="node11" class="node">
<title>11</title>
<polygon fill="none" stroke="black" points="903.25,-866 672.75,-866 672.75,-775.5 903.25,-775.5 903.25,-866"/>
<text xml:space="preserve" text-anchor="middle" x="788" y="-848.7" font-family="Courier,monospace" font-size="14.00">11: Pos&#45;Loop</text>
<text xml:space="preserve" text-anchor="middle" x="788" y="-832.2" font-family="Courier,monospace" font-size="14.00">if (bytes_out &gt; in_count)</text>
<text xml:space="preserve" text-anchor="middle" x="788" y="-815.7" font-family="Courier,monospace" font-size="14.00">def: exit_stat</text>
<text xml:space="preserve" text-anchor="middle" x="788" y="-799.2" font-family="Courier,monospace" font-size="14.00">c&#45;use: bytes_out, in_count</text>
<text xml:space="preserve" text-anchor="middle" x="788" y="-782.7" font-family="Courier,monospace" font-size="14.00">p&#45;use: bytes_out, in_count</text>
</g>
<!-- 1&#45;&gt;11 -->
<g id="edge26" class="edge">
<title>1&#45;&gt;11</title>
<path fill="none" stroke="red" stroke-dasharray="5,2" d="M648.48,-1139.05C712.3,-1108.31 785.12,-1060.61 822,-992.5 841.3,-956.85 831.05,-911.68 816.91,-876.76"/>
<polygon fill="red" stroke="red" points="820.17,-875.48 813.02,-867.67 813.73,-878.24 820.17,-875.48"/>
<text xml:space="preserve" text-anchor="middle" x="864.48" y="-1013.7" font-family="Times New Roman,serif" font-size="14.00">bytes_out, in_count</text>
</g>
<!-- 2&#45;&gt;3 -->
<g id="edge2" class="edge">
<title>2&#45;&gt;3</title>
<path fill="none" stroke="black" d="M383.48,-1044.61C406.21,-1030.85 434.05,-1013.99 459.26,-998.72"/>
<polygon fill="black" stroke="black" points="460.74,-1001.92 467.49,-993.74 457.12,-995.93 460.74,-1001.92"/>
<text xml:space="preserve" text-anchor="middle" x="465.38" y="-1013.7" font-family="Times New Roman,serif" font-size="14.00">InCnt &gt; 0</text>
</g>
<!-- 2&#45;&gt;11 -->
<g id="edge3" class="edge">
<title>2&#45;&gt;11</title>
<path fill="none" stroke="black" d="M415.34,-1060.33C520.23,-1043.09 695.88,-1011.86 719,-992.5 737.42,-977.08 757.99,-920.93 771.84,-877.18"/>
<polygon fill="black" stroke="black" points="775.13,-878.39 774.76,-867.8 768.44,-876.31 775.13,-878.39"/>
<text xml:space="preserve" text-anchor="middle" x="787.6" y="-950.45" font-family="Times New Roman,serif" font-size="14.00">InCnt &lt;= 0</text>
</g>
<!-- 4 -->
<g id="node4" class="node">
<title>4</title>
<polygon fill="none" stroke="black" points="503.62,-857.75 182.38,-857.75 182.38,-783.75 503.62,-783.75 503.62,-857.75"/>
<text xml:space="preserve" text-anchor="middle" x="343" y="-840.45" font-family="Courier,monospace" font-size="14.00">4: Condicao 1</text>
<text xml:space="preserve" text-anchor="middle" x="343" y="-823.95" font-family="Courier,monospace" font-size="14.00">if (htabof(i) == fcode)</text>
<text xml:space="preserve" text-anchor="middle" x="343" y="-807.45" font-family="Courier,monospace" font-size="14.00">c&#45;use: htabof(i), fcode, codetabof(i)</text>
<text xml:space="preserve" text-anchor="middle" x="343" y="-790.95" font-family="Courier,monospace" font-size="14.00">p&#45;use: htabof(i), fcode</text>
</g>
<!-- 3&#45;&gt;4 -->
<g id="edge4" class="edge">
<title>3&#45;&gt;4</title>
<path fill="none" stroke="black" d="M456.42,-918.07C446.98,-912.54 437.6,-906.62 429,-900.5 414.52,-890.2 399.86,-877.71 386.84,-865.73"/>
<polygon fill="black" stroke="black" points="389.35,-863.28 379.65,-859 384.56,-868.39 389.35,-863.28"/>
</g>
<!-- 3&#45;&gt;4 -->
<g id="edge20" class="edge">
<title>3&#45;&gt;4</title>
<path fill="none" stroke="green" stroke-dasharray="5,2" d="M478.17,-918.23C455,-901.68 427.39,-881.98 403.18,-864.7"/>
<polygon fill="green" stroke="green" points="405.49,-862.05 395.32,-859.09 401.42,-867.75 405.49,-862.05"/>
<text xml:space="preserve" text-anchor="middle" x="473.28" y="-887.2" font-family="Times New Roman,serif" font-size="14.00">fcode, i</text>
</g>
<!-- 8 -->
<g id="node8" class="node">
<title>8</title>
<polygon fill="none" stroke="black" points="490.62,-327 169.38,-327 169.38,-253 490.62,-253 490.62,-327"/>
<text xml:space="preserve" text-anchor="middle" x="330" y="-309.7" font-family="Courier,monospace" font-size="14.00">8: Condicao no Probe</text>
<text xml:space="preserve" text-anchor="middle" x="330" y="-293.2" font-family="Courier,monospace" font-size="14.00">if (htabof(i) == fcode)</text>
<text xml:space="preserve" text-anchor="middle" x="330" y="-276.7" font-family="Courier,monospace" font-size="14.00">c&#45;use: htabof(i), fcode, codetabof(i)</text>
<text xml:space="preserve" text-anchor="middle" x="330" y="-260.2" font-family="Courier,monospace" font-size="14.00">p&#45;use: htabof(i), fcode</text>
</g>
<!-- 3&#45;&gt;8 -->
<g id="edge21" class="edge">
<title>3&#45;&gt;8</title>
<path fill="none" stroke="green" stroke-dasharray="5,2" d="M530.89,-918.3C534.2,-823.08 532.57,-560.51 428,-379.5 418.41,-362.91 404.64,-347.71 390.43,-334.78"/>
<polygon fill="green" stroke="green" points="393.01,-332.38 383.18,-328.42 388.4,-337.65 393.01,-332.38"/>
<text xml:space="preserve" text-anchor="middle" x="526.87" y="-617.7" font-family="Times New Roman,serif" font-size="14.00">fcode</text>
</g>
<!-- 9 -->
<g id="node9" class="node">
<title>9</title>
<polygon fill="none" stroke="black" points="567.88,-200.5 164.12,-200.5 164.12,-126.5 567.88,-126.5 567.88,-200.5"/>
<text xml:space="preserve" text-anchor="middle" x="366" y="-183.2" font-family="Courier,monospace" font-size="14.00">9: Condicao de Continuidade</text>
<text xml:space="preserve" text-anchor="middle" x="366" y="-166.7" font-family="Courier,monospace" font-size="14.00">if (htabof(i) &gt; 0 &amp;&amp; apsim_bound111 &lt; in_count)</text>
<text xml:space="preserve" text-anchor="middle" x="366" y="-150.2" font-family="Courier,monospace" font-size="14.00">c&#45;use: htabof(i), apsim_bound111, in_count</text>
<text xml:space="preserve" text-anchor="middle" x="366" y="-133.7" font-family="Courier,monospace" font-size="14.00">p&#45;use: htabof(i), apsim_bound111, in_count</text>
</g>
<!-- 3&#45;&gt;9 -->
<g id="edge24" class="edge">
<title>3&#45;&gt;9</title>
<path fill="none" stroke="orange" stroke-dasharray="5,2" d="M546.63,-918.23C557.74,-892.06 570,-855.52 570,-821.75 570,-821.75 570,-821.75 570,-495.25 570,-383.18 577.27,-334.18 500,-253 483.65,-235.82 463.36,-220.28 443.57,-207.2"/>
<polygon fill="orange" stroke="orange" points="445.48,-204.27 435.18,-201.79 441.69,-210.15 445.48,-204.27"/>
<text xml:space="preserve" text-anchor="middle" x="593.62" y="-554.45" font-family="Times New Roman,serif" font-size="14.00">in_count</text>
</g>
<!-- 10 -->
<g id="node10" class="node">
<title>10</title>
<polygon fill="none" stroke="black" points="653.5,-74 76.5,-74 76.5,0 653.5,0 653.5,-74"/>
<text xml:space="preserve" text-anchor="middle" x="365" y="-56.7" font-family="Courier,monospace" font-size="14.00">10: Bloco nomatch</text>
<text xml:space="preserve" text-anchor="middle" x="365" y="-40.2" font-family="Courier,monospace" font-size="14.00">def: out_count, ent</text>
<text xml:space="preserve" text-anchor="middle" x="365" y="-23.7" font-family="Courier,monospace" font-size="14.00">c&#45;use: c, free_ent, maxmaxcode, in_count, checkpoint, block_compress</text>
<text xml:space="preserve" text-anchor="middle" x="365" y="-7.2" font-family="Courier,monospace" font-size="14.00">p&#45;use: free_ent, maxmaxcode, in_count, checkpoint, block_compress</text>
</g>
<!-- 3&#45;&gt;10 -->
<g id="edge22" class="edge">
<title>3&#45;&gt;10</title>
<path fill="none" stroke="green" stroke-dasharray="5,2" d="M586.32,-918.05C615.55,-894.63 645,-861.23 645,-821.75 645,-821.75 645,-821.75 645,-162.5 645,-124.65 623.38,-98.23 592.15,-79.8"/>
<polygon fill="green" stroke="green" points="593.94,-76.79 583.49,-75.06 590.58,-82.93 593.94,-76.79"/>
<text xml:space="preserve" text-anchor="middle" x="648" y="-491.2" font-family="Times New Roman,serif" font-size="14.00">c</text>
</g>
<!-- 3&#45;&gt;11 -->
<g id="edge27" class="edge">
<title>3&#45;&gt;11</title>
<path fill="none" stroke="red" stroke-dasharray="5,2" d="M622.24,-918.12C634.76,-912.55 647.31,-906.61 659,-900.5 671.05,-894.2 673.21,-891.18 684.75,-884 690.96,-880.14 697.4,-876.17 703.89,-872.2"/>
<polygon fill="red" stroke="red" points="705.4,-875.38 712.12,-867.18 701.76,-869.4 705.4,-875.38"/>
<text xml:space="preserve" text-anchor="middle" x="708.38" y="-887.2" font-family="Times New Roman,serif" font-size="14.00">in_count</text>
</g>
<!-- 4&#45;&gt;2 -->
<g id="edge5" class="edge">
<title>4&#45;&gt;2</title>
<path fill="none" stroke="black" d="M300.43,-857.87C284.1,-874.47 267.34,-895.56 258.75,-918.5 247.22,-949.3 246.36,-962.04 258.75,-992.5 265.55,-1009.21 277.68,-1024.34 290.4,-1036.84"/>
<polygon fill="black" stroke="black" points="287.98,-1039.37 297.68,-1043.64 292.76,-1034.26 287.98,-1039.37"/>
<text xml:space="preserve" text-anchor="middle" x="298.88" y="-950.45" font-family="Times New Roman,serif" font-size="14.00">true (continue)</text>
</g>
<!-- 5 -->
<g id="node5" class="node">
<title>5</title>
<polygon fill="none" stroke="black" points="445.88,-723 240.12,-723 240.12,-649 445.88,-649 445.88,-723"/>
<text xml:space="preserve" text-anchor="middle" x="343" y="-705.7" font-family="Courier,monospace" font-size="14.00">5: Condicao 2</text>
<text xml:space="preserve" text-anchor="middle" x="343" y="-689.2" font-family="Courier,monospace" font-size="14.00">else if (htabof(i) &lt; 0)</text>
<text xml:space="preserve" text-anchor="middle" x="343" y="-672.7" font-family="Courier,monospace" font-size="14.00">c&#45;use: htabof(i)</text>
<text xml:space="preserve" text-anchor="middle" x="343" y="-656.2" font-family="Courier,monospace" font-size="14.00">p&#45;use: htabof(i)</text>
</g>
<!-- 4&#45;&gt;5 -->
<g id="edge6" class="edge">
<title>4&#45;&gt;5</title>
<path fill="none" stroke="black" d="M343,-783.48C343,-768.4 343,-750.7 343,-734.61"/>
<polygon fill="black" stroke="black" points="346.5,-734.74 343,-724.74 339.5,-734.74 346.5,-734.74"/>
<text xml:space="preserve" text-anchor="middle" x="355.75" y="-744.2" font-family="Times New Roman,serif" font-size="14.00">false</text>
</g>
<!-- 6 -->
<g id="node6" class="node">
<title>6</title>
<polygon fill="none" stroke="black" points="411.38,-596.5 238.62,-596.5 238.62,-522.5 411.38,-522.5 411.38,-596.5"/>
<text xml:space="preserve" text-anchor="middle" x="325" y="-579.2" font-family="Courier,monospace" font-size="14.00">6: Calculo de disp</text>
<text xml:space="preserve" text-anchor="middle" x="325" y="-562.7" font-family="Courier,monospace" font-size="14.00">def: disp</text>
<text xml:space="preserve" text-anchor="middle" x="325" y="-546.2" font-family="Courier,monospace" font-size="14.00">c&#45;use: hsize_reg, i</text>
<text xml:space="preserve" text-anchor="middle" x="325" y="-529.7" font-family="Courier,monospace" font-size="14.00">p&#45;use: i</text>
</g>
<!-- 5&#45;&gt;6 -->
<g id="edge8" class="edge">
<title>5&#45;&gt;6</title>
<path fill="none" stroke="black" d="M337.75,-648.65C335.9,-635.87 333.79,-621.31 331.83,-607.76"/>
<polygon fill="black" stroke="black" points="335.34,-607.57 330.45,-598.17 328.41,-608.57 335.34,-607.57"/>
<text xml:space="preserve" text-anchor="middle" x="347.83" y="-617.7" font-family="Times New Roman,serif" font-size="14.00">false</text>
</g>
<!-- 5&#45;&gt;10 -->
<g id="edge7" class="edge">
<title>5&#45;&gt;10</title>
<path fill="none" stroke="black" d="M379.38,-648.88C393.36,-633.63 408.67,-615.11 420,-596.5 426.15,-586.39 574.78,-212.12 577,-200.5 583.17,-168.2 595.23,-153.87 577,-126.5 563.97,-106.94 545.71,-91.7 525.32,-79.82"/>
<polygon fill="black" stroke="black" points="527.26,-76.89 516.8,-75.16 523.89,-83.03 527.26,-76.89"/>
<text xml:space="preserve" text-anchor="middle" x="574.83" y="-348.2" font-family="Times New Roman,serif" font-size="14.00">true (goto nomatch)</text>
</g>
<!-- 7 -->
<g id="node7" class="node">
<title>7</title>
<polygon fill="none" stroke="black" points="418.88,-470 213.12,-470 213.12,-379.5 418.88,-379.5 418.88,-470"/>
<text xml:space="preserve" text-anchor="middle" x="316" y="-452.7" font-family="Courier,monospace" font-size="14.00">7: Loop Interno (probe)</text>
<text xml:space="preserve" text-anchor="middle" x="316" y="-436.2" font-family="Courier,monospace" font-size="14.00">if (i &#45;= disp) &lt; 0</text>
<text xml:space="preserve" text-anchor="middle" x="316" y="-419.7" font-family="Courier,monospace" font-size="14.00">def: i</text>
<text xml:space="preserve" text-anchor="middle" x="316" y="-403.2" font-family="Courier,monospace" font-size="14.00">c&#45;use: disp, hsize_reg</text>
<text xml:space="preserve" text-anchor="middle" x="316" y="-386.7" font-family="Courier,monospace" font-size="14.00">p&#45;use: i, disp</text>
</g>
<!-- 6&#45;&gt;7 -->
<g id="edge9" class="edge">
<title>6&#45;&gt;7</title>
<path fill="none" stroke="black" d="M322.54,-522.23C321.69,-509.63 320.71,-495.2 319.77,-481.41"/>
<polygon fill="black" stroke="black" points="323.27,-481.27 319.1,-471.53 316.29,-481.75 323.27,-481.27"/>
</g>
<!-- 7&#45;&gt;8 -->
<g id="edge10" class="edge">
<title>7&#45;&gt;8</title>
<path fill="none" stroke="black" d="M328.9,-379.13C330.18,-373.24 331.27,-367.26 332,-361.5 332.92,-354.22 332.14,-352.33 332,-345 331.96,-342.94 331.92,-340.84 331.86,-338.72"/>
<polygon fill="black" stroke="black" points="335.36,-338.71 331.57,-328.82 328.37,-338.91 335.36,-338.71"/>
<text xml:space="preserve" text-anchor="middle" x="349.69" y="-348.2" font-family="Times New Roman,serif" font-size="14.00">i &gt;= 0</text>
</g>
<!-- 7&#45;&gt;8 -->
<g id="edge11" class="edge">
<title>7&#45;&gt;8</title>
<path fill="none" stroke="black" d="M213.45,-379.05C204.33,-369.14 201.25,-357.74 209.5,-345 211.72,-341.58 214.21,-338.37 216.92,-335.36"/>
<polygon fill="black" stroke="black" points="219.3,-337.94 224.04,-328.47 214.43,-332.91 219.3,-337.94"/>
<text xml:space="preserve" text-anchor="middle" x="268.75" y="-348.2" font-family="Times New Roman,serif" font-size="14.00">i &lt; 0 (i += hsize_reg)</text>
</g>
<!-- 8&#45;&gt;2 -->
<g id="edge12" class="edge">
<title>8&#45;&gt;2</title>
<path fill="none" stroke="black" d="M225.3,-327.5C216.61,-332.66 208.35,-338.47 201,-345 57.4,-472.46 46,-556.24 46,-748.25 46,-956.5 46,-956.5 46,-956.5 46,-1000.47 162.05,-1035.27 247.58,-1054.94"/>
<polygon fill="black" stroke="black" points="246.63,-1058.32 257.16,-1057.11 248.18,-1051.49 246.63,-1058.32"/>
<text xml:space="preserve" text-anchor="middle" x="88.1" y="-680.95" font-family="Times New Roman,serif" font-size="14.00">true (continue)</text>
</g>
<!-- 8&#45;&gt;9 -->
<g id="edge13" class="edge">
<title>8&#45;&gt;9</title>
<path fill="none" stroke="black" d="M321.68,-252.8C320.55,-241.57 320.83,-229.31 324.5,-218.5 325.42,-215.81 326.53,-213.14 327.79,-210.52"/>
<polygon fill="black" stroke="black" points="330.71,-212.46 332.55,-202.03 324.61,-209.04 330.71,-212.46"/>
<text xml:space="preserve" text-anchor="middle" x="337.25" y="-221.7" font-family="Times New Roman,serif" font-size="14.00">false</text>
</g>
<!-- 9&#45;&gt;8 -->
<g id="edge14" class="edge">
<title>9&#45;&gt;8</title>
<path fill="none" stroke="black" d="M358.68,-200.96C356.22,-211.98 353.25,-224.05 350,-235 349.33,-237.25 348.62,-239.53 347.87,-241.84"/>
<polygon fill="black" stroke="black" points="344.6,-240.59 344.7,-251.19 351.23,-242.84 344.6,-240.59"/>
<text xml:space="preserve" text-anchor="middle" x="400.32" y="-221.7" font-family="Times New Roman,serif" font-size="14.00">true (goto probe)</text>
</g>
<!-- 9&#45;&gt;10 -->
<g id="edge15" class="edge">
<title>9&#45;&gt;10</title>
<path fill="none" stroke="black" d="M347.85,-126.27C345.64,-120.46 343.73,-114.41 342.5,-108.5 340.92,-100.89 341.34,-92.95 342.9,-85.25"/>
<polygon fill="black" stroke="black" points="346.26,-86.24 345.52,-75.67 339.51,-84.39 346.26,-86.24"/>
<text xml:space="preserve" text-anchor="middle" x="355.25" y="-95.2" font-family="Times New Roman,serif" font-size="14.00">false</text>
</g>
<!-- 10&#45;&gt;2 -->
<g id="edge16" class="edge">
<title>10&#45;&gt;2</title>
<path fill="none" stroke="black" d="M155.59,-74.47C74.14,-94.78 0,-123.88 0,-162.5 0,-956.5 0,-956.5 0,-956.5 0,-1008.87 147.26,-1042.8 247.09,-1059.79"/>
<polygon fill="black" stroke="black" points="246.48,-1063.23 256.92,-1061.43 247.63,-1056.33 246.48,-1063.23"/>
</g>
<!-- 10&#45;&gt;3 -->
<g id="edge23" class="edge">
<title>10&#45;&gt;3</title>
<path fill="none" stroke="blue" stroke-dasharray="5,2" d="M216.44,-74.41C192.15,-86.96 170.04,-103.84 155,-126.5 109.55,-194.98 121.51,-801.94 173,-866 184.58,-880.4 258.8,-899.93 336.51,-916.98"/>
<polygon fill="blue" stroke="blue" points="335.5,-920.34 346.01,-919.05 336.98,-913.5 335.5,-920.34"/>
<text xml:space="preserve" text-anchor="middle" x="135.97" y="-491.2" font-family="Times New Roman,serif" font-size="14.00">ent</text>
</g>
<!-- 10&#45;&gt;9 -->
<g id="edge25" class="edge">
<title>10&#45;&gt;9</title>
<path fill="none" stroke="orange" stroke-dasharray="5,2" d="M367.29,-74.3C367.59,-80.21 367.84,-86.27 368,-92 368.21,-99.4 368.2,-107.23 368.08,-114.88"/>
<polygon fill="orange" stroke="orange" points="364.58,-114.68 367.84,-124.76 371.58,-114.85 364.58,-114.68"/>
<text xml:space="preserve" text-anchor="middle" x="391.79" y="-95.2" font-family="Times New Roman,serif" font-size="14.00">in_count</text>
</g>
<!-- 12 -->
<g id="node12" class="node">
<title>12</title>
<polygon fill="none" stroke="black" points="840.38,-706.5 733.62,-706.5 733.62,-665.5 840.38,-665.5 840.38,-706.5"/>
<text xml:space="preserve" text-anchor="middle" x="787" y="-689.2" font-family="Courier,monospace" font-size="14.00">12: Retorno</text>
<text xml:space="preserve" text-anchor="middle" x="787" y="-672.7" font-family="Courier,monospace" font-size="14.00">return</text>
</g>
<!-- 11&#45;&gt;12 -->
<g id="edge17" class="edge">
<title>11&#45;&gt;12</title>
<path fill="none" stroke="black" d="M766.78,-775.14C763.72,-764.08 762.26,-752.19 764.5,-741 766.08,-733.1 768.84,-724.92 771.89,-717.38"/>
<polygon fill="black" stroke="black" points="775.07,-718.86 775.88,-708.3 768.66,-716.05 775.07,-718.86"/>
<text xml:space="preserve" text-anchor="middle" x="777.25" y="-744.2" font-family="Times New Roman,serif" font-size="14.00">false</text>
</g>
<!-- 11&#45;&gt;12 -->
<g id="edge18" class="edge">
<title>11&#45;&gt;12</title>
<path fill="none" stroke="black" d="M789.96,-775.19C790.22,-764.02 790.31,-752.07 790,-741 789.8,-733.7 789.44,-725.84 789.04,-718.45"/>
<polygon fill="black" stroke="black" points="792.54,-718.28 788.46,-708.5 785.55,-718.69 792.54,-718.28"/>
<text xml:space="preserve" text-anchor="middle" x="837.45" y="-744.2" font-family="Times New Roman,serif" font-size="14.00">true (exit_stat=2)</text>
</g>
</g>
</svg>
