<?xml version="1.0" encoding="UTF-8" standalone="no"?>
<!DOCTYPE svg PUBLIC "-//W3C//DTD SVG 1.1//EN"
 "http://www.w3.org/Graphics/SVG/1.1/DTD/svg11.dtd">
<!-- Generated by graphviz version 13.1.2 (20250808.2320)
 -->
<!-- Title: Sum Pages: 1 -->
<svg width="853pt" height="830pt"
 viewBox="0.00 0.00 853.00 830.00" xmlns="http://www.w3.org/2000/svg" xmlns:xlink="http://www.w3.org/1999/xlink">
<g id="graph0" class="graph" transform="scale(1 1) rotate(0) translate(4 826)">
<title>Sum</title>
<polygon fill="white" stroke="none" points="-4,4 -4,-826 849,-826 849,4 -4,4"/>
<!-- start -->
<g id="node1" class="node">
<title>start</title>
<ellipse fill="none" stroke="black" cx="705" cy="-804" rx="52.38" ry="18"/>
<text xml:space="preserve" text-anchor="middle" x="705" y="-798.95" font-family="Times New Roman,serif" font-size="14.00">Inicio Sum</text>
</g>
<!-- node1 -->
<g id="node3" class="node">
<title>node1</title>
<polygon fill="none" stroke="black" points="741.12,-749 668.88,-749 668.88,-658.5 741.12,-658.5 741.12,-749"/>
<text xml:space="preserve" text-anchor="middle" x="705" y="-731.7" font-family="Times New Roman,serif" font-size="14.00">B1</text>
<text xml:space="preserve" text-anchor="middle" x="705" y="-715.2" font-family="Times New Roman,serif" font-size="14.00">Ptotal = 0</text>
<text xml:space="preserve" text-anchor="middle" x="705" y="-698.7" font-family="Times New Roman,serif" font-size="14.00">Ntotal = 0</text>
<text xml:space="preserve" text-anchor="middle" x="705" y="-682.2" font-family="Times New Roman,serif" font-size="14.00">Pcnt = 0</text>
<text xml:space="preserve" text-anchor="middle" x="705" y="-665.7" font-family="Times New Roman,serif" font-size="14.00">Ncnt = 0</text>
<text xml:space="preserve" text-anchor="middle" x="587.5" y="-752.2" font-family="Times New Roman,serif" font-size="14.00">def: Ptotal, Ntotal, Pcnt, Ncnt</text>
</g>
<!-- start&#45;&gt;node1 -->
<g id="edge1" class="edge">
<title>start&#45;&gt;node1</title>
<path fill="none" stroke="black" d="M705,-785.89C705,-778.62 705,-769.69 705,-760.45"/>
<polygon fill="black" stroke="black" points="708.5,-760.62 705,-750.62 701.5,-760.62 708.5,-760.62"/>
</g>
<!-- end -->
<g id="node2" class="node">
<title>end</title>
<ellipse fill="none" stroke="black" cx="789" cy="-302" rx="46.23" ry="18"/>
<text xml:space="preserve" text-anchor="middle" x="789" y="-296.95" font-family="Times New Roman,serif" font-size="14.00">Fim Sum</text>
</g>
<!-- node2 -->
<g id="node4" class="node">
<title>node2</title>
<polygon fill="none" stroke="black" points="739.62,-621.5 670.38,-621.5 670.38,-580.5 739.62,-580.5 739.62,-621.5"/>
<text xml:space="preserve" text-anchor="middle" x="705" y="-604.2" font-family="Times New Roman,serif" font-size="14.00">B2</text>
<text xml:space="preserve" text-anchor="middle" x="705" y="-587.7" font-family="Times New Roman,serif" font-size="14.00">Outer = 0</text>
</g>
<!-- node1&#45;&gt;node2 -->
<g id="edge2" class="edge">
<title>node1&#45;&gt;node2</title>
<path fill="none" stroke="black" d="M705,-658.27C705,-649.8 705,-641.1 705,-633.15"/>
<polygon fill="black" stroke="black" points="708.5,-633.31 705,-623.31 701.5,-633.31 708.5,-633.31"/>
</g>
<!-- node3 -->
<g id="node5" class="node">
<title>node3</title>
<polygon fill="none" stroke="black" points="769.62,-543.5 640.38,-543.5 640.38,-502.5 769.62,-502.5 769.62,-543.5"/>
<text xml:space="preserve" text-anchor="middle" x="705" y="-526.2" font-family="Times New Roman,serif" font-size="14.00">B3</text>
<text xml:space="preserve" text-anchor="middle" x="705" y="-509.7" font-family="Times New Roman,serif" font-size="14.00">Outer &lt; MAXSIZE?</text>
</g>
<!-- node2&#45;&gt;node3 -->
<g id="edge3" class="edge">
<title>node2&#45;&gt;node3</title>
<path fill="none" stroke="black" d="M705,-580.03C705,-572.44 705,-563.6 705,-555.21"/>
<polygon fill="black" stroke="black" points="708.5,-555.35 705,-545.35 701.5,-555.35 708.5,-555.35"/>
</g>
<!-- node4 -->
<g id="node6" class="node">
<title>node4</title>
<polygon fill="none" stroke="black" points="669.5,-425.25 602.5,-425.25 602.5,-384.25 669.5,-384.25 669.5,-425.25"/>
<text xml:space="preserve" text-anchor="middle" x="636" y="-407.95" font-family="Times New Roman,serif" font-size="14.00">B4</text>
<text xml:space="preserve" text-anchor="middle" x="636" y="-391.45" font-family="Times New Roman,serif" font-size="14.00">Inner = 0</text>
</g>
<!-- node3&#45;&gt;node4 -->
<g id="edge4" class="edge">
<title>node3&#45;&gt;node4</title>
<path fill="none" stroke="black" d="M680.58,-502.14C675.1,-496.83 669.68,-490.81 665.5,-484.5 655.87,-469.95 648.8,-451.82 644,-436.62"/>
<polygon fill="black" stroke="black" points="647.38,-435.73 641.19,-427.13 640.67,-437.72 647.38,-435.73"/>
<text xml:space="preserve" text-anchor="middle" x="678.25" y="-471.2" font-family="Times New Roman,serif" font-size="14.00">True</text>
</g>
<!-- node11 -->
<g id="node13" class="node">
<title>node11</title>
<polygon fill="none" stroke="black" points="845,-450 733,-450 733,-359.5 845,-359.5 845,-450"/>
<text xml:space="preserve" text-anchor="middle" x="789" y="-432.7" font-family="Times New Roman,serif" font-size="14.00">B11</text>
<text xml:space="preserve" text-anchor="middle" x="789" y="-416.2" font-family="Times New Roman,serif" font-size="14.00">Postotal = Ptotal</text>
<text xml:space="preserve" text-anchor="middle" x="789" y="-399.7" font-family="Times New Roman,serif" font-size="14.00">Poscnt = Pcnt</text>
<text xml:space="preserve" text-anchor="middle" x="789" y="-383.2" font-family="Times New Roman,serif" font-size="14.00">Negtotal = Ntotal</text>
<text xml:space="preserve" text-anchor="middle" x="789" y="-366.7" font-family="Times New Roman,serif" font-size="14.00">Negcnt = Ncnt</text>
<text xml:space="preserve" text-anchor="middle" x="626.88" y="-346.2" font-family="Times New Roman,serif" font-size="14.00">c&#45;use: Ptotal, Pcnt, Ntotal, Ncnt</text>
<text xml:space="preserve" text-anchor="middle" x="626.88" y="-329.7" font-family="Times New Roman,serif" font-size="14.00">def: Postotal, Poscnt, Negtotal, Negcnt</text>
</g>
<!-- node3&#45;&gt;node11 -->
<g id="edge5" class="edge">
<title>node3&#45;&gt;node11</title>
<path fill="none" stroke="black" d="M719.44,-502.02C728.07,-490.08 739.47,-474.3 750.54,-458.97"/>
<polygon fill="black" stroke="black" points="753.1,-461.42 756.12,-451.26 747.42,-457.32 753.1,-461.42"/>
<text xml:space="preserve" text-anchor="middle" x="756.22" y="-471.2" font-family="Times New Roman,serif" font-size="14.00">False</text>
</g>
<!-- node5 -->
<g id="node7" class="node">
<title>node5</title>
<polygon fill="none" stroke="black" points="676.5,-322.5 549.5,-322.5 549.5,-281.5 676.5,-281.5 676.5,-322.5"/>
<text xml:space="preserve" text-anchor="middle" x="613" y="-305.2" font-family="Times New Roman,serif" font-size="14.00">B5</text>
<text xml:space="preserve" text-anchor="middle" x="613" y="-288.7" font-family="Times New Roman,serif" font-size="14.00">Inner &lt; MAXSIZE?</text>
</g>
<!-- node4&#45;&gt;node5 -->
<g id="edge6" class="edge">
<title>node4&#45;&gt;node5</title>
<path fill="none" stroke="black" d="M631.46,-383.85C628.21,-369.63 623.78,-350.24 620.08,-334"/>
<polygon fill="black" stroke="black" points="623.51,-333.31 617.87,-324.34 616.68,-334.87 623.51,-333.31"/>
</g>
<!-- node6 -->
<g id="node8" class="node">
<title>node6</title>
<polygon fill="none" stroke="black" points="574.62,-229 421.38,-229 421.38,-188 574.62,-188 574.62,-229"/>
<text xml:space="preserve" text-anchor="middle" x="498" y="-211.7" font-family="Times New Roman,serif" font-size="14.00">B6</text>
<text xml:space="preserve" text-anchor="middle" x="498" y="-195.2" font-family="Times New Roman,serif" font-size="14.00">Array[Outer][Inner] &lt; 0?</text>
<text xml:space="preserve" text-anchor="middle" x="351.62" y="-248.7" font-family="Times New Roman,serif" font-size="14.00">c&#45;use: Array, Outer, Inner</text>
<text xml:space="preserve" text-anchor="middle" x="351.62" y="-232.2" font-family="Times New Roman,serif" font-size="14.00">p&#45;use: Array</text>
</g>
<!-- node5&#45;&gt;node6 -->
<g id="edge7" class="edge">
<title>node5&#45;&gt;node6</title>
<path fill="none" stroke="black" d="M588.05,-281.15C571.47,-267.96 549.51,-250.49 531.43,-236.1"/>
<polygon fill="black" stroke="black" points="534.09,-233.75 524.09,-230.26 529.74,-239.22 534.09,-233.75"/>
<text xml:space="preserve" text-anchor="middle" x="578.55" y="-250.2" font-family="Times New Roman,serif" font-size="14.00">True</text>
</g>
<!-- node10 -->
<g id="node12" class="node">
<title>node10</title>
<polygon fill="none" stroke="black" points="722.62,-229 659.38,-229 659.38,-188 722.62,-188 722.62,-229"/>
<text xml:space="preserve" text-anchor="middle" x="691" y="-211.7" font-family="Times New Roman,serif" font-size="14.00">B10</text>
<text xml:space="preserve" text-anchor="middle" x="691" y="-195.2" font-family="Times New Roman,serif" font-size="14.00">Outer++</text>
</g>
<!-- node5&#45;&gt;node10 -->
<g id="edge8" class="edge">
<title>node5&#45;&gt;node10</title>
<path fill="none" stroke="black" d="M629.92,-281.15C640.76,-268.44 654.98,-251.75 666.98,-237.68"/>
<polygon fill="black" stroke="black" points="669.3,-240.35 673.13,-230.47 663.98,-235.81 669.3,-240.35"/>
<text xml:space="preserve" text-anchor="middle" x="673.24" y="-250.2" font-family="Times New Roman,serif" font-size="14.00">False</text>
</g>
<!-- node7 -->
<g id="node9" class="node">
<title>node7</title>
<polygon fill="none" stroke="black" points="388.75,-135.5 209.25,-135.5 209.25,-78 388.75,-78 388.75,-135.5"/>
<text xml:space="preserve" text-anchor="middle" x="299" y="-118.2" font-family="Times New Roman,serif" font-size="14.00">B7</text>
<text xml:space="preserve" text-anchor="middle" x="299" y="-101.7" font-family="Times New Roman,serif" font-size="14.00">Ptotal += Array[Outer][Inner]</text>
<text xml:space="preserve" text-anchor="middle" x="299" y="-85.2" font-family="Times New Roman,serif" font-size="14.00">Pcnt++</text>
<text xml:space="preserve" text-anchor="middle" x="104.62" y="-155.2" font-family="Times New Roman,serif" font-size="14.00">c&#45;use: Array, Outer, Inner, Ptotal, Pcnt</text>
<text xml:space="preserve" text-anchor="middle" x="104.62" y="-138.7" font-family="Times New Roman,serif" font-size="14.00">def: Ptotal, Pcnt</text>
</g>
<!-- node6&#45;&gt;node7 -->
<g id="edge9" class="edge">
<title>node6&#45;&gt;node7</title>
<path fill="none" stroke="red" d="M442.52,-187.53C429.23,-182.25 415.2,-176.26 402.5,-170 385.6,-161.67 367.81,-151.52 351.84,-141.85"/>
<polygon fill="red" stroke="red" points="353.8,-138.95 343.45,-136.71 350.15,-144.92 353.8,-138.95"/>
<text xml:space="preserve" text-anchor="middle" x="448.25" y="-156.7" font-family="Times New Roman,serif" font-size="14.00" fill="red">True (Infeasible)</text>
</g>
<!-- node8 -->
<g id="node10" class="node">
<title>node8</title>
<polygon fill="none" stroke="black" points="588.88,-135.5 407.12,-135.5 407.12,-78 588.88,-78 588.88,-135.5"/>
<text xml:space="preserve" text-anchor="middle" x="498" y="-118.2" font-family="Times New Roman,serif" font-size="14.00">B8</text>
<text xml:space="preserve" text-anchor="middle" x="498" y="-101.7" font-family="Times New Roman,serif" font-size="14.00">Ntotal += Array[Outer][Inner]</text>
<text xml:space="preserve" text-anchor="middle" x="498" y="-85.2" font-family="Times New Roman,serif" font-size="14.00">Ncnt++</text>
<text xml:space="preserve" text-anchor="middle" x="300.25" y="-64.7" font-family="Times New Roman,serif" font-size="14.00">c&#45;use: Array, Outer, Inner, Ntotal, Ncnt</text>
<text xml:space="preserve" text-anchor="middle" x="300.25" y="-48.2" font-family="Times New Roman,serif" font-size="14.00">def: Ntotal, Ncnt</text>
</g>
<!-- node6&#45;&gt;node8 -->
<g id="edge10" class="edge">
<title>node6&#45;&gt;node8</title>
<path fill="none" stroke="black" d="M498,-187.79C498,-176.17 498,-161.05 498,-147.08"/>
<polygon fill="black" stroke="black" points="501.5,-147.24 498,-137.24 494.5,-147.24 501.5,-147.24"/>
<text xml:space="preserve" text-anchor="middle" x="512.25" y="-156.7" font-family="Times New Roman,serif" font-size="14.00">False</text>
</g>
<!-- node9 -->
<g id="node11" class="node">
<title>node9</title>
<polygon fill="none" stroke="black" points="528.5,-41 467.5,-41 467.5,0 528.5,0 528.5,-41"/>
<text xml:space="preserve" text-anchor="middle" x="498" y="-23.7" font-family="Times New Roman,serif" font-size="14.00">B9</text>
<text xml:space="preserve" text-anchor="middle" x="498" y="-7.2" font-family="Times New Roman,serif" font-size="14.00">Inner++</text>
</g>
<!-- node7&#45;&gt;node9 -->
<g id="edge11" class="edge">
<title>node7&#45;&gt;node9</title>
<path fill="none" stroke="red" d="M365.54,-77.58C395.73,-64.8 430.48,-50.08 456.82,-38.94"/>
<polygon fill="red" stroke="red" points="457.95,-42.26 465.79,-35.14 455.22,-35.81 457.95,-42.26"/>
</g>
<!-- node8&#45;&gt;node9 -->
<g id="edge12" class="edge">
<title>node8&#45;&gt;node9</title>
<path fill="none" stroke="black" d="M498,-77.7C498,-69.72 498,-60.98 498,-52.83"/>
<polygon fill="black" stroke="black" points="501.5,-52.96 498,-42.96 494.5,-52.96 501.5,-52.96"/>
</g>
<!-- node9&#45;&gt;node5 -->
<g id="edge13" class="edge">
<title>node9&#45;&gt;node5</title>
<path fill="none" stroke="black" d="M528.93,-30.18C552.15,-38.45 582.49,-53.36 598,-78 635.38,-137.38 627.44,-224.15 619.55,-269.98"/>
<polygon fill="black" stroke="black" points="616.12,-269.28 617.74,-279.75 623,-270.55 616.12,-269.28"/>
</g>
<!-- node10&#45;&gt;node3 -->
<g id="edge14" class="edge">
<title>node10&#45;&gt;node3</title>
<path fill="none" stroke="black" d="M691.89,-229.44C694.27,-282.5 700.76,-427.41 703.62,-491.18"/>
<polygon fill="black" stroke="black" points="700.11,-491.11 704.06,-500.94 707.11,-490.79 700.11,-491.11"/>
</g>
<!-- node11&#45;&gt;end -->
<g id="edge15" class="edge">
<title>node11&#45;&gt;end</title>
<path fill="none" stroke="black" d="M789,-359.27C789,-349.81 789,-340.07 789,-331.41"/>
<polygon fill="black" stroke="black" points="792.5,-331.53 789,-321.53 785.5,-331.53 792.5,-331.53"/>
</g>
</g>
</svg>
