<?xml version="1.0" encoding="UTF-8" standalone="no"?>
<!DOCTYPE svg PUBLIC "-//W3C//DTD SVG 1.1//EN"
 "http://www.w3.org/Graphics/SVG/1.1/DTD/svg11.dtd">
<!-- Generated by graphviz version 13.1.2 (20250808.2320)
 -->
<!-- Title: main Pages: 1 -->
<svg width="90pt" height="332pt"
 viewBox="0.00 0.00 90.00 332.00" xmlns="http://www.w3.org/2000/svg" xmlns:xlink="http://www.w3.org/1999/xlink">
<g id="graph0" class="graph" transform="scale(1 1) rotate(0) translate(4 328)">
<title>main</title>
<polygon fill="white" stroke="none" points="-4,4 -4,-328 86,-328 86,4 -4,4"/>
<!-- start -->
<g id="node1" class="node">
<title>start</title>
<ellipse fill="none" stroke="black" cx="41" cy="-306" rx="29.61" ry="18"/>
<text xml:space="preserve" text-anchor="middle" x="41" y="-300.57" font-family="Arial" font-size="14.00">Start</text>
</g>
<!-- call_InitSeed -->
<g id="node3" class="node">
<title>call_InitSeed</title>
<polygon fill="none" stroke="black" points="78.25,-252 3.75,-252 3.75,-216 78.25,-216 78.25,-252"/>
<text xml:space="preserve" text-anchor="middle" x="41" y="-228.57" font-family="Arial" font-size="14.00">InitSeed()</text>
</g>
<!-- start&#45;&gt;call_InitSeed -->
<g id="edge1" class="edge">
<title>start&#45;&gt;call_InitSeed</title>
<path fill="none" stroke="black" d="M41,-287.7C41,-280.41 41,-271.73 41,-263.54"/>
<polygon fill="black" stroke="black" points="44.5,-263.62 41,-253.62 37.5,-263.62 44.5,-263.62"/>
</g>
<!-- end -->
<g id="node2" class="node">
<title>end</title>
<ellipse fill="none" stroke="black" cx="41" cy="-18" rx="27" ry="18"/>
<text xml:space="preserve" text-anchor="middle" x="41" y="-12.57" font-family="Arial" font-size="14.00">End</text>
</g>
<!-- call_Test -->
<g id="node4" class="node">
<title>call_Test</title>
<polygon fill="none" stroke="black" points="82,-180 0,-180 0,-144 82,-144 82,-180"/>
<text xml:space="preserve" text-anchor="middle" x="41" y="-156.57" font-family="Arial" font-size="14.00">Test(Array)</text>
</g>
<!-- call_InitSeed&#45;&gt;call_Test -->
<g id="edge2" class="edge">
<title>call_InitSeed&#45;&gt;call_Test</title>
<path fill="none" stroke="black" d="M41,-215.7C41,-208.41 41,-199.73 41,-191.54"/>
<polygon fill="black" stroke="black" points="44.5,-191.62 41,-181.62 37.5,-191.62 44.5,-191.62"/>
</g>
<!-- return_stmt -->
<g id="node5" class="node">
<title>return_stmt</title>
<polygon fill="none" stroke="black" points="72.25,-108 9.75,-108 9.75,-72 72.25,-72 72.25,-108"/>
<text xml:space="preserve" text-anchor="middle" x="41" y="-84.58" font-family="Arial" font-size="14.00">return 1</text>
</g>
<!-- call_Test&#45;&gt;return_stmt -->
<g id="edge3" class="edge">
<title>call_Test&#45;&gt;return_stmt</title>
<path fill="none" stroke="black" d="M41,-143.7C41,-136.41 41,-127.73 41,-119.54"/>
<polygon fill="black" stroke="black" points="44.5,-119.62 41,-109.62 37.5,-119.62 44.5,-119.62"/>
</g>
<!-- return_stmt&#45;&gt;end -->
<g id="edge4" class="edge">
<title>return_stmt&#45;&gt;end</title>
<path fill="none" stroke="black" d="M41,-71.7C41,-64.41 41,-55.73 41,-47.54"/>
<polygon fill="black" stroke="black" points="44.5,-47.62 41,-37.62 37.5,-47.62 44.5,-47.62"/>
</g>
</g>
</svg>
