<?xml version="1.0" encoding="UTF-8" standalone="no"?>
<!DOCTYPE svg PUBLIC "-//W3C//DTD SVG 1.1//EN"
 "http://www.w3.org/Graphics/SVG/1.1/DTD/svg11.dtd">
<!-- Generated by graphviz version 13.1.2 (20250808.2320)
 -->
<!-- Title: RandomInteger Pages: 1 -->
<svg width="237pt" height="260pt"
 viewBox="0.00 0.00 237.00 260.00" xmlns="http://www.w3.org/2000/svg" xmlns:xlink="http://www.w3.org/1999/xlink">
<g id="graph0" class="graph" transform="scale(1 1) rotate(0) translate(4 256)">
<title>RandomInteger</title>
<polygon fill="white" stroke="none" points="-4,4 -4,-256 233,-256 233,4 -4,4"/>
<!-- start -->
<g id="node1" class="node">
<title>start</title>
<ellipse fill="none" stroke="black" cx="114.5" cy="-234" rx="94.48" ry="18"/>
<text xml:space="preserve" text-anchor="middle" x="114.5" y="-228.57" font-family="Arial" font-size="14.00">RandomInteger Start</text>
</g>
<!-- computation -->
<g id="node3" class="node">
<title>computation</title>
<polygon fill="none" stroke="black" points="229,-180 0,-180 0,-144 229,-144 229,-180"/>
<text xml:space="preserve" text-anchor="middle" x="114.5" y="-156.57" font-family="Arial" font-size="14.00">Seed = ((Seed * 133) + 81) % 8095</text>
</g>
<!-- start&#45;&gt;computation -->
<g id="edge1" class="edge">
<title>start&#45;&gt;computation</title>
<path fill="none" stroke="black" d="M114.5,-215.7C114.5,-208.41 114.5,-199.73 114.5,-191.54"/>
<polygon fill="black" stroke="black" points="118,-191.62 114.5,-181.62 111,-191.62 118,-191.62"/>
</g>
<!-- end -->
<g id="node2" class="node">
<title>end</title>
<ellipse fill="none" stroke="black" cx="114.5" cy="-18" rx="91.48" ry="18"/>
<text xml:space="preserve" text-anchor="middle" x="114.5" y="-12.57" font-family="Arial" font-size="14.00">RandomInteger End</text>
</g>
<!-- return -->
<g id="node4" class="node">
<title>return</title>
<polygon fill="none" stroke="black" points="157.75,-108 71.25,-108 71.25,-72 157.75,-72 157.75,-108"/>
<text xml:space="preserve" text-anchor="middle" x="114.5" y="-84.58" font-family="Arial" font-size="14.00">return Seed</text>
</g>
<!-- computation&#45;&gt;return -->
<g id="edge2" class="edge">
<title>computation&#45;&gt;return</title>
<path fill="none" stroke="black" d="M114.5,-143.7C114.5,-136.41 114.5,-127.73 114.5,-119.54"/>
<polygon fill="black" stroke="black" points="118,-119.62 114.5,-109.62 111,-119.62 118,-119.62"/>
</g>
<!-- return&#45;&gt;end -->
<g id="edge3" class="edge">
<title>return&#45;&gt;end</title>
<path fill="none" stroke="black" d="M114.5,-71.7C114.5,-64.41 114.5,-55.73 114.5,-47.54"/>
<polygon fill="black" stroke="black" points="118,-47.62 114.5,-37.62 111,-47.62 118,-47.62"/>
</g>
</g>
</svg>
