<?xml version="1.0" encoding="UTF-8" standalone="no"?>
<!DOCTYPE svg PUBLIC "-//W3C//DTD SVG 1.1//EN"
 "http://www.w3.org/Graphics/SVG/1.1/DTD/svg11.dtd">
<!-- Generated by graphviz version 13.1.2 (20250808.2320)
 -->
<!-- Title: foo_CFG Pages: 1 -->
<svg width="458pt" height="1014pt"
 viewBox="0.00 0.00 458.00 1014.00" xmlns="http://www.w3.org/2000/svg" xmlns:xlink="http://www.w3.org/1999/xlink">
<g id="graph0" class="graph" transform="scale(1 1) rotate(0) translate(4 1009.67)">
<title>foo_CFG</title>
<polygon fill="white" stroke="none" points="-4,4 -4,-1009.67 453.62,-1009.67 453.62,4 -4,4"/>
<!-- N1 -->
<g id="node1" class="node">
<title>N1</title>
<path fill="none" stroke="black" d="M374.5,-1005.67C374.5,-1005.67 307.5,-1005.67 307.5,-1005.67 301.5,-1005.67 295.5,-999.67 295.5,-993.67 295.5,-993.67 295.5,-981.67 295.5,-981.67 295.5,-975.67 301.5,-969.67 307.5,-969.67 307.5,-969.67 374.5,-969.67 374.5,-969.67 380.5,-969.67 386.5,-975.67 386.5,-981.67 386.5,-981.67 386.5,-993.67 386.5,-993.67 386.5,-999.67 380.5,-1005.67 374.5,-1005.67"/>
<text xml:space="preserve" text-anchor="middle" x="341" y="-982.24" font-family="Helvetica,sans-Serif" font-size="14.00">1: int i, j, k, l;</text>
</g>
<!-- N2 -->
<g id="node2" class="node">
<title>N2</title>
<path fill="none" stroke="black" d="M357.62,-932.67C357.62,-932.67 324.38,-932.67 324.38,-932.67 318.38,-932.67 312.38,-926.67 312.38,-920.67 312.38,-920.67 312.38,-908.67 312.38,-908.67 312.38,-902.67 318.38,-896.67 324.38,-896.67 324.38,-896.67 357.62,-896.67 357.62,-896.67 363.62,-896.67 369.62,-902.67 369.62,-908.67 369.62,-908.67 369.62,-920.67 369.62,-920.67 369.62,-926.67 363.62,-932.67 357.62,-932.67"/>
<text xml:space="preserve" text-anchor="middle" x="341" y="-909.24" font-family="Helvetica,sans-Serif" font-size="14.00">2: i = 0</text>
</g>
<!-- N1&#45;&gt;N2 -->
<g id="edge1" class="edge">
<title>N1&#45;&gt;N2</title>
<path fill="none" stroke="black" d="M341,-969.48C341,-961.89 341,-952.77 341,-944.21"/>
<polygon fill="black" stroke="black" points="344.5,-944.21 341,-934.21 337.5,-944.21 344.5,-944.21"/>
</g>
<!-- N3 -->
<g id="node3" class="node">
<title>N3</title>
<path fill="none" stroke="black" d="M367.38,-859.67C367.38,-859.67 314.62,-859.67 314.62,-859.67 308.62,-859.67 302.62,-853.67 302.62,-847.67 302.62,-847.67 302.62,-835.67 302.62,-835.67 302.62,-829.67 308.62,-823.67 314.62,-823.67 314.62,-823.67 367.38,-823.67 367.38,-823.67 373.38,-823.67 379.38,-829.67 379.38,-835.67 379.38,-835.67 379.38,-847.67 379.38,-847.67 379.38,-853.67 373.38,-859.67 367.38,-859.67"/>
<text xml:space="preserve" text-anchor="middle" x="341" y="-836.24" font-family="Helvetica,sans-Serif" font-size="14.00">3: if (i &lt; 5)</text>
</g>
<!-- N2&#45;&gt;N3 -->
<g id="edge2" class="edge">
<title>N2&#45;&gt;N3</title>
<path fill="none" stroke="black" d="M341,-896.48C341,-888.89 341,-879.77 341,-871.21"/>
<polygon fill="black" stroke="black" points="344.5,-871.21 341,-861.21 337.5,-871.21 344.5,-871.21"/>
</g>
<!-- N4 -->
<g id="node4" class="node">
<title>N4</title>
<path fill="none" stroke="black" d="M296.62,-771.17C296.62,-771.17 263.38,-771.17 263.38,-771.17 257.38,-771.17 251.38,-765.17 251.38,-759.17 251.38,-759.17 251.38,-747.17 251.38,-747.17 251.38,-741.17 257.38,-735.17 263.38,-735.17 263.38,-735.17 296.62,-735.17 296.62,-735.17 302.62,-735.17 308.62,-741.17 308.62,-747.17 308.62,-747.17 308.62,-759.17 308.62,-759.17 308.62,-765.17 302.62,-771.17 296.62,-771.17"/>
<text xml:space="preserve" text-anchor="middle" x="280" y="-747.74" font-family="Helvetica,sans-Serif" font-size="14.00">4: j = 0</text>
</g>
<!-- N3&#45;&gt;N4 -->
<g id="edge3" class="edge">
<title>N3&#45;&gt;N4</title>
<path fill="none" stroke="black" d="M321.66,-823.51C316.21,-818.12 310.53,-811.93 306,-805.67 300.75,-798.42 296,-789.95 292.04,-782"/>
<polygon fill="black" stroke="black" points="295.23,-780.57 287.79,-773.02 288.9,-783.55 295.23,-780.57"/>
<text xml:space="preserve" text-anchor="middle" x="316.5" y="-792.37" font-family="Times New Roman,serif" font-size="14.00">true</text>
</g>
<!-- N16 -->
<g id="node16" class="node">
<title>N16</title>
<path fill="none" stroke="black" d="M437.62,-717.17C437.62,-717.17 368.38,-717.17 368.38,-717.17 362.38,-717.17 356.38,-711.17 356.38,-705.17 356.38,-705.17 356.38,-693.17 356.38,-693.17 356.38,-687.17 362.38,-681.17 368.38,-681.17 368.38,-681.17 437.62,-681.17 437.62,-681.17 443.62,-681.17 449.62,-687.17 449.62,-693.17 449.62,-693.17 449.62,-705.17 449.62,-705.17 449.62,-711.17 443.62,-717.17 437.62,-717.17"/>
<text xml:space="preserve" text-anchor="middle" x="403" y="-693.74" font-family="Helvetica,sans-Serif" font-size="14.00">16: return &#45;1;</text>
</g>
<!-- N3&#45;&gt;N16 -->
<g id="edge4" class="edge">
<title>N3&#45;&gt;N16</title>
<path fill="none" stroke="black" d="M348.6,-823.44C359.11,-799.63 378.18,-756.41 390.72,-727.99"/>
<polygon fill="black" stroke="black" points="393.89,-729.48 394.72,-718.92 387.48,-726.66 393.89,-729.48"/>
<text xml:space="preserve" text-anchor="middle" x="375.57" y="-792.37" font-family="Times New Roman,serif" font-size="14.00">false</text>
</g>
<!-- N5 -->
<g id="node5" class="node">
<title>N5</title>
<path fill="none" stroke="black" d="M295.38,-663.17C295.38,-663.17 242.62,-663.17 242.62,-663.17 236.62,-663.17 230.62,-657.17 230.62,-651.17 230.62,-651.17 230.62,-639.17 230.62,-639.17 230.62,-633.17 236.62,-627.17 242.62,-627.17 242.62,-627.17 295.38,-627.17 295.38,-627.17 301.38,-627.17 307.38,-633.17 307.38,-639.17 307.38,-639.17 307.38,-651.17 307.38,-651.17 307.38,-657.17 301.38,-663.17 295.38,-663.17"/>
<text xml:space="preserve" text-anchor="middle" x="269" y="-639.74" font-family="Helvetica,sans-Serif" font-size="14.00">5: if (j &lt; 5)</text>
</g>
<!-- N4&#45;&gt;N5 -->
<g id="edge5" class="edge">
<title>N4&#45;&gt;N5</title>
<path fill="none" stroke="black" d="M278.23,-735.14C276.55,-718.93 273.99,-694.23 271.99,-674.96"/>
<polygon fill="black" stroke="black" points="275.47,-674.6 270.96,-665.01 268.51,-675.32 275.47,-674.6"/>
</g>
<!-- N6 -->
<g id="node6" class="node">
<title>N6</title>
<path fill="none" stroke="black" d="M222.5,-574.67C222.5,-574.67 185.5,-574.67 185.5,-574.67 179.5,-574.67 173.5,-568.67 173.5,-562.67 173.5,-562.67 173.5,-550.67 173.5,-550.67 173.5,-544.67 179.5,-538.67 185.5,-538.67 185.5,-538.67 222.5,-538.67 222.5,-538.67 228.5,-538.67 234.5,-544.67 234.5,-550.67 234.5,-550.67 234.5,-562.67 234.5,-562.67 234.5,-568.67 228.5,-574.67 222.5,-574.67"/>
<text xml:space="preserve" text-anchor="middle" x="204" y="-551.24" font-family="Helvetica,sans-Serif" font-size="14.00">6: k = 0</text>
</g>
<!-- N5&#45;&gt;N6 -->
<g id="edge6" class="edge">
<title>N5&#45;&gt;N6</title>
<path fill="none" stroke="black" d="M248.24,-626.7C242.6,-621.4 236.74,-615.34 232,-609.17 226.31,-601.76 221.1,-593.05 216.75,-584.92"/>
<polygon fill="black" stroke="black" points="219.91,-583.4 212.26,-576.07 213.67,-586.57 219.91,-583.4"/>
<text xml:space="preserve" text-anchor="middle" x="242.5" y="-595.87" font-family="Times New Roman,serif" font-size="14.00">true</text>
</g>
<!-- N15 -->
<g id="node15" class="node">
<title>N15</title>
<path fill="none" stroke="black" d="M350,-574.67C350,-574.67 316,-574.67 316,-574.67 310,-574.67 304,-568.67 304,-562.67 304,-562.67 304,-550.67 304,-550.67 304,-544.67 310,-538.67 316,-538.67 316,-538.67 350,-538.67 350,-538.67 356,-538.67 362,-544.67 362,-550.67 362,-550.67 362,-562.67 362,-562.67 362,-568.67 356,-574.67 350,-574.67"/>
<text xml:space="preserve" text-anchor="middle" x="333" y="-551.24" font-family="Helvetica,sans-Serif" font-size="14.00">15: i++</text>
</g>
<!-- N5&#45;&gt;N15 -->
<g id="edge7" class="edge">
<title>N5&#45;&gt;N15</title>
<path fill="none" stroke="black" d="M278.84,-626.99C284.95,-616.74 293.21,-603.63 301.5,-592.67 303.84,-589.58 306.39,-586.43 309,-583.35"/>
<polygon fill="black" stroke="black" points="311.4,-585.93 315.37,-576.11 306.14,-581.31 311.4,-585.93"/>
<text xml:space="preserve" text-anchor="middle" x="314.25" y="-595.87" font-family="Times New Roman,serif" font-size="14.00">false</text>
</g>
<!-- N7 -->
<g id="node7" class="node">
<title>N7</title>
<path fill="none" stroke="black" d="M223.25,-501.67C223.25,-501.67 166.75,-501.67 166.75,-501.67 160.75,-501.67 154.75,-495.67 154.75,-489.67 154.75,-489.67 154.75,-477.67 154.75,-477.67 154.75,-471.67 160.75,-465.67 166.75,-465.67 166.75,-465.67 223.25,-465.67 223.25,-465.67 229.25,-465.67 235.25,-471.67 235.25,-477.67 235.25,-477.67 235.25,-489.67 235.25,-489.67 235.25,-495.67 229.25,-501.67 223.25,-501.67"/>
<text xml:space="preserve" text-anchor="middle" x="195" y="-478.24" font-family="Helvetica,sans-Serif" font-size="14.00">7: if (k &lt; 5)</text>
</g>
<!-- N6&#45;&gt;N7 -->
<g id="edge8" class="edge">
<title>N6&#45;&gt;N7</title>
<path fill="none" stroke="black" d="M201.82,-538.48C200.85,-530.81 199.68,-521.56 198.58,-512.91"/>
<polygon fill="black" stroke="black" points="202.08,-512.68 197.35,-503.2 195.13,-513.56 202.08,-512.68"/>
</g>
<!-- N8 -->
<g id="node8" class="node">
<title>N8</title>
<path fill="none" stroke="black" d="M145.62,-413.17C145.62,-413.17 112.38,-413.17 112.38,-413.17 106.38,-413.17 100.38,-407.17 100.38,-401.17 100.38,-401.17 100.38,-389.17 100.38,-389.17 100.38,-383.17 106.38,-377.17 112.38,-377.17 112.38,-377.17 145.62,-377.17 145.62,-377.17 151.62,-377.17 157.62,-383.17 157.62,-389.17 157.62,-389.17 157.62,-401.17 157.62,-401.17 157.62,-407.17 151.62,-413.17 145.62,-413.17"/>
<text xml:space="preserve" text-anchor="middle" x="129" y="-389.74" font-family="Helvetica,sans-Serif" font-size="14.00">8: l = 0</text>
</g>
<!-- N7&#45;&gt;N8 -->
<g id="edge9" class="edge">
<title>N7&#45;&gt;N8</title>
<path fill="none" stroke="black" d="M174.68,-465.52C168.93,-460.13 162.9,-453.94 158,-447.67 152.14,-440.16 146.72,-431.33 142.18,-423.12"/>
<polygon fill="black" stroke="black" points="145.42,-421.75 137.66,-414.54 139.23,-425.01 145.42,-421.75"/>
<text xml:space="preserve" text-anchor="middle" x="168.5" y="-434.37" font-family="Times New Roman,serif" font-size="14.00">true</text>
</g>
<!-- N14 -->
<g id="node14" class="node">
<title>N14</title>
<path fill="none" stroke="black" d="M276,-413.17C276,-413.17 242,-413.17 242,-413.17 236,-413.17 230,-407.17 230,-401.17 230,-401.17 230,-389.17 230,-389.17 230,-383.17 236,-377.17 242,-377.17 242,-377.17 276,-377.17 276,-377.17 282,-377.17 288,-383.17 288,-389.17 288,-389.17 288,-401.17 288,-401.17 288,-407.17 282,-413.17 276,-413.17"/>
<text xml:space="preserve" text-anchor="middle" x="259" y="-389.74" font-family="Helvetica,sans-Serif" font-size="14.00">14: j++</text>
</g>
<!-- N7&#45;&gt;N14 -->
<g id="edge10" class="edge">
<title>N7&#45;&gt;N14</title>
<path fill="none" stroke="black" d="M204.84,-465.49C210.95,-455.24 219.21,-442.13 227.5,-431.17 229.84,-428.08 232.39,-424.93 235,-421.85"/>
<polygon fill="black" stroke="black" points="237.4,-424.43 241.37,-414.61 232.14,-419.81 237.4,-424.43"/>
<text xml:space="preserve" text-anchor="middle" x="240.25" y="-434.37" font-family="Times New Roman,serif" font-size="14.00">false</text>
</g>
<!-- N9 -->
<g id="node9" class="node">
<title>N9</title>
<path fill="none" stroke="black" d="M137.38,-340.17C137.38,-340.17 84.62,-340.17 84.62,-340.17 78.62,-340.17 72.62,-334.17 72.62,-328.17 72.62,-328.17 72.62,-316.17 72.62,-316.17 72.62,-310.17 78.62,-304.17 84.62,-304.17 84.62,-304.17 137.38,-304.17 137.38,-304.17 143.38,-304.17 149.38,-310.17 149.38,-316.17 149.38,-316.17 149.38,-328.17 149.38,-328.17 149.38,-334.17 143.38,-340.17 137.38,-340.17"/>
<text xml:space="preserve" text-anchor="middle" x="111" y="-316.74" font-family="Helvetica,sans-Serif" font-size="14.00">9: if (l &lt; 5)</text>
</g>
<!-- N8&#45;&gt;N9 -->
<g id="edge11" class="edge">
<title>N8&#45;&gt;N9</title>
<path fill="none" stroke="black" d="M124.64,-376.98C122.67,-369.22 120.3,-359.85 118.09,-351.12"/>
<polygon fill="black" stroke="black" points="121.54,-350.5 115.69,-341.66 114.75,-352.22 121.54,-350.5"/>
</g>
<!-- N10 -->
<g id="node10" class="node">
<title>N10</title>
<path fill="none" stroke="black" d="M177.12,-251.67C177.12,-251.67 38.88,-251.67 38.88,-251.67 32.88,-251.67 26.88,-245.67 26.88,-239.67 26.88,-239.67 26.88,-227.67 26.88,-227.67 26.88,-221.67 32.88,-215.67 38.88,-215.67 38.88,-215.67 177.12,-215.67 177.12,-215.67 183.12,-215.67 189.12,-221.67 189.12,-227.67 189.12,-227.67 189.12,-239.67 189.12,-239.67 189.12,-245.67 183.12,-251.67 177.12,-251.67"/>
<text xml:space="preserve" text-anchor="middle" x="108" y="-228.24" font-family="Helvetica,sans-Serif" font-size="14.00">10: if (keys[i][j][k][l] == x)</text>
</g>
<!-- N9&#45;&gt;N10 -->
<g id="edge12" class="edge">
<title>N9&#45;&gt;N10</title>
<path fill="none" stroke="black" d="M109.87,-303.73C109.55,-298.12 109.22,-291.88 109,-286.17 108.72,-278.75 108.51,-270.73 108.36,-263.28"/>
<polygon fill="black" stroke="black" points="111.86,-263.29 108.2,-253.35 104.87,-263.41 111.86,-263.29"/>
<text xml:space="preserve" text-anchor="middle" x="119.5" y="-272.87" font-family="Times New Roman,serif" font-size="14.00">true</text>
</g>
<!-- N13 -->
<g id="node13" class="node">
<title>N13</title>
<path fill="none" stroke="black" d="M256.88,-251.67C256.88,-251.67 219.12,-251.67 219.12,-251.67 213.12,-251.67 207.12,-245.67 207.12,-239.67 207.12,-239.67 207.12,-227.67 207.12,-227.67 207.12,-221.67 213.12,-215.67 219.12,-215.67 219.12,-215.67 256.88,-215.67 256.88,-215.67 262.88,-215.67 268.88,-221.67 268.88,-227.67 268.88,-227.67 268.88,-239.67 268.88,-239.67 268.88,-245.67 262.88,-251.67 256.88,-251.67"/>
<text xml:space="preserve" text-anchor="middle" x="238" y="-228.24" font-family="Helvetica,sans-Serif" font-size="14.00">13: k++</text>
</g>
<!-- N9&#45;&gt;N13 -->
<g id="edge13" class="edge">
<title>N9&#45;&gt;N13</title>
<path fill="none" stroke="black" d="M121.88,-303.97C129.59,-292.94 140.79,-278.99 153.5,-269.67 168.35,-258.78 176.04,-259.37 196.34,-252.05"/>
<polygon fill="black" stroke="black" points="197.55,-255.33 205.6,-248.45 195.01,-248.81 197.55,-255.33"/>
<text xml:space="preserve" text-anchor="middle" x="166.25" y="-272.87" font-family="Times New Roman,serif" font-size="14.00">false</text>
</g>
<!-- N11 -->
<g id="node11" class="node">
<title>N11</title>
<path fill="none" stroke="black" d="M334.5,-163.17C334.5,-163.17 99.5,-163.17 99.5,-163.17 93.5,-163.17 87.5,-157.17 87.5,-151.17 87.5,-151.17 87.5,-139.17 87.5,-139.17 87.5,-133.17 93.5,-127.17 99.5,-127.17 99.5,-127.17 334.5,-127.17 334.5,-127.17 340.5,-127.17 346.5,-133.17 346.5,-139.17 346.5,-139.17 346.5,-151.17 346.5,-151.17 346.5,-157.17 340.5,-163.17 334.5,-163.17"/>
<text xml:space="preserve" text-anchor="middle" x="217" y="-139.74" font-family="Helvetica,sans-Serif" font-size="14.00">11: return answer[i][j][k][l] + keys[i][j][k][l];</text>
</g>
<!-- N10&#45;&gt;N11 -->
<g id="edge14" class="edge">
<title>N10&#45;&gt;N11</title>
<path fill="none" stroke="black" d="M129.8,-215.37C145.98,-202.52 168.28,-184.83 186.28,-170.55"/>
<polygon fill="black" stroke="black" points="188.4,-173.33 194.06,-164.38 184.05,-167.85 188.4,-173.33"/>
<text xml:space="preserve" text-anchor="middle" x="182.76" y="-184.37" font-family="Times New Roman,serif" font-size="14.00">true</text>
</g>
<!-- N12 -->
<g id="node12" class="node">
<title>N12</title>
<path fill="none" stroke="black" d="M46,-163.17C46,-163.17 12,-163.17 12,-163.17 6,-163.17 0,-157.17 0,-151.17 0,-151.17 0,-139.17 0,-139.17 0,-133.17 6,-127.17 12,-127.17 12,-127.17 46,-127.17 46,-127.17 52,-127.17 58,-133.17 58,-139.17 58,-139.17 58,-151.17 58,-151.17 58,-157.17 52,-163.17 46,-163.17"/>
<text xml:space="preserve" text-anchor="middle" x="29" y="-139.74" font-family="Helvetica,sans-Serif" font-size="14.00">12: l++</text>
</g>
<!-- N10&#45;&gt;N12 -->
<g id="edge15" class="edge">
<title>N10&#45;&gt;N12</title>
<path fill="none" stroke="black" d="M92.39,-215.58C81,-203.1 65.35,-185.97 52.46,-171.85"/>
<polygon fill="black" stroke="black" points="55.19,-169.66 45.87,-164.64 50.03,-174.38 55.19,-169.66"/>
<text xml:space="preserve" text-anchor="middle" x="88.33" y="-184.37" font-family="Times New Roman,serif" font-size="14.00">false</text>
</g>
<!-- N17 -->
<g id="node17" class="node">
<title>N17</title>
<ellipse fill="none" stroke="black" cx="309" cy="-45.08" rx="41.08" ry="41.08"/>
<ellipse fill="none" stroke="black" cx="309" cy="-45.08" rx="45.08" ry="45.08"/>
<text xml:space="preserve" text-anchor="middle" x="309" y="-39.66" font-family="Helvetica,sans-Serif" font-size="14.00">17: Fim</text>
</g>
<!-- N11&#45;&gt;N17 -->
<g id="edge16" class="edge">
<title>N11&#45;&gt;N17</title>
<path fill="none" stroke="black" d="M233.03,-127.08C243.53,-115.89 257.72,-100.76 270.99,-86.6"/>
<polygon fill="black" stroke="black" points="273.34,-89.21 277.63,-79.53 268.24,-84.42 273.34,-89.21"/>
</g>
<!-- N12&#45;&gt;N9 -->
<g id="edge17" class="edge">
<title>N12&#45;&gt;N9</title>
<path fill="none" stroke="black" d="M21.64,-163.64C13.65,-185.46 3.81,-223.35 18,-251.67 27.75,-271.13 45.83,-286.54 63.47,-297.85"/>
<polygon fill="black" stroke="black" points="61.5,-300.76 71.87,-302.93 65.13,-294.77 61.5,-300.76"/>
</g>
<!-- N13&#45;&gt;N7 -->
<g id="edge18" class="edge">
<title>N13&#45;&gt;N7</title>
<path fill="none" stroke="black" d="M234.98,-252.09C227.67,-294.22 208.99,-401.99 199.99,-453.89"/>
<polygon fill="black" stroke="black" points="196.54,-453.29 198.28,-463.74 203.44,-454.48 196.54,-453.29"/>
</g>
<!-- N14&#45;&gt;N5 -->
<g id="edge19" class="edge">
<title>N14&#45;&gt;N5</title>
<path fill="none" stroke="black" d="M259.7,-413.59C261.4,-455.72 265.75,-563.49 267.84,-615.39"/>
<polygon fill="black" stroke="black" points="264.34,-615.37 268.24,-625.22 271.33,-615.08 264.34,-615.37"/>
</g>
<!-- N15&#45;&gt;N3 -->
<g id="edge20" class="edge">
<title>N15&#45;&gt;N3</title>
<path fill="none" stroke="black" d="M333.49,-575.08C334.83,-622.4 338.54,-753.76 340.19,-812.1"/>
<polygon fill="black" stroke="black" points="336.69,-811.98 340.47,-821.88 343.68,-811.78 336.69,-811.98"/>
</g>
<!-- N16&#45;&gt;N17 -->
<g id="edge21" class="edge">
<title>N16&#45;&gt;N17</title>
<path fill="none" stroke="black" d="M402.42,-680.78C401.83,-661.51 401,-629.5 401,-601.92 401,-601.92 401,-601.92 401,-144.17 401,-115.34 379.59,-91.5 357.43,-74.54"/>
<polygon fill="black" stroke="black" points="359.67,-71.84 349.51,-68.82 355.57,-77.51 359.67,-71.84"/>
</g>
</g>
</svg>
