<?xml version="1.0" encoding="UTF-8" standalone="no"?>
<!DOCTYPE svg PUBLIC "-//W3C//DTD SVG 1.1//EN"
 "http://www.w3.org/Graphics/SVG/1.1/DTD/svg11.dtd">
<!-- Generated by graphviz version 13.1.2 (20250808.2320)
 -->
<!-- Title: Initialize_DFG Pages: 1 -->
<svg width="262pt" height="188pt"
 viewBox="0.00 0.00 262.00 188.00" xmlns="http://www.w3.org/2000/svg" xmlns:xlink="http://www.w3.org/1999/xlink">
<g id="graph0" class="graph" transform="scale(1 1) rotate(0) translate(4 184)">
<title>Initialize_DFG</title>
<polygon fill="white" stroke="none" points="-4,4 -4,-184 258.2,-184 258.2,4 -4,4"/>
<!-- Seed -->
<g id="node1" class="node">
<title>Seed</title>
<ellipse fill="none" stroke="black" cx="127.1" cy="-162" rx="60.56" ry="18"/>
<text xml:space="preserve" text-anchor="middle" x="127.1" y="-156.95" font-family="Times New Roman,serif" font-size="14.00">Seed (global)</text>
</g>
<!-- op_random -->
<g id="node2" class="node">
<title>op_random</title>
<polygon fill="none" stroke="black" points="181.97,-108 72.22,-108 72.22,-72 181.97,-72 181.97,-108"/>
<text xml:space="preserve" text-anchor="middle" x="127.1" y="-84.95" font-family="Times New Roman,serif" font-size="14.00">RandomInteger()</text>
</g>
<!-- Seed&#45;&gt;op_random -->
<g id="edge1" class="edge">
<title>Seed&#45;&gt;op_random</title>
<path fill="none" stroke="black" d="M127.1,-143.7C127.1,-136.41 127.1,-127.73 127.1,-119.54"/>
<polygon fill="black" stroke="black" points="130.6,-119.62 127.1,-109.62 123.6,-119.62 130.6,-119.62"/>
</g>
<!-- Array -->
<g id="node3" class="node">
<title>Array</title>
<ellipse fill="none" stroke="black" cx="127.1" cy="-18" rx="127.1" ry="18"/>
<text xml:space="preserve" text-anchor="middle" x="127.1" y="-12.95" font-family="Times New Roman,serif" font-size="14.00">Array[OuterIndex][InnerIndex]</text>
</g>
<!-- op_random&#45;&gt;Array -->
<g id="edge2" class="edge">
<title>op_random&#45;&gt;Array</title>
<path fill="none" stroke="black" d="M127.1,-71.7C127.1,-64.41 127.1,-55.73 127.1,-47.54"/>
<polygon fill="black" stroke="black" points="130.6,-47.62 127.1,-37.62 123.6,-47.62 130.6,-47.62"/>
</g>
</g>
</svg>
