<?xml version="1.0" encoding="UTF-8" standalone="no"?>
<!DOCTYPE svg PUBLIC "-//W3C//DTD SVG 1.1//EN"
 "http://www.w3.org/Graphics/SVG/1.1/DTD/svg11.dtd">
<!-- Generated by graphviz version 13.1.2 (20250808.2320)
 -->
<!-- Title: RandomInteger_DFG Pages: 1 -->
<svg width="130pt" height="332pt"
 viewBox="0.00 0.00 130.00 332.00" xmlns="http://www.w3.org/2000/svg" xmlns:xlink="http://www.w3.org/1999/xlink">
<g id="graph0" class="graph" transform="scale(1 1) rotate(0) translate(4 328)">
<title>RandomInteger_DFG</title>
<polygon fill="white" stroke="none" points="-4,4 -4,-328 126.15,-328 126.15,4 -4,4"/>
<!-- OldSeed -->
<g id="node1" class="node">
<title>OldSeed</title>
<ellipse fill="none" stroke="black" cx="61.08" cy="-306" rx="56.47" ry="18"/>
<text xml:space="preserve" text-anchor="middle" x="61.08" y="-300.95" font-family="Times New Roman,serif" font-size="14.00">Seed (input)</text>
</g>
<!-- op_mul -->
<g id="node2" class="node">
<title>op_mul</title>
<polygon fill="none" stroke="black" points="88.08,-252 34.08,-252 34.08,-216 88.08,-216 88.08,-252"/>
<text xml:space="preserve" text-anchor="middle" x="61.08" y="-228.95" font-family="Times New Roman,serif" font-size="14.00">* 133</text>
</g>
<!-- OldSeed&#45;&gt;op_mul -->
<g id="edge1" class="edge">
<title>OldSeed&#45;&gt;op_mul</title>
<path fill="none" stroke="black" d="M61.08,-287.7C61.08,-280.41 61.08,-271.73 61.08,-263.54"/>
<polygon fill="black" stroke="black" points="64.58,-263.62 61.08,-253.62 57.58,-263.62 64.58,-263.62"/>
</g>
<!-- op_add -->
<g id="node3" class="node">
<title>op_add</title>
<polygon fill="none" stroke="black" points="88.08,-180 34.08,-180 34.08,-144 88.08,-144 88.08,-180"/>
<text xml:space="preserve" text-anchor="middle" x="61.08" y="-156.95" font-family="Times New Roman,serif" font-size="14.00">+ 81</text>
</g>
<!-- op_mul&#45;&gt;op_add -->
<g id="edge2" class="edge">
<title>op_mul&#45;&gt;op_add</title>
<path fill="none" stroke="black" d="M61.08,-215.7C61.08,-208.41 61.08,-199.73 61.08,-191.54"/>
<polygon fill="black" stroke="black" points="64.58,-191.62 61.08,-181.62 57.58,-191.62 64.58,-191.62"/>
</g>
<!-- op_mod -->
<g id="node4" class="node">
<title>op_mod</title>
<polygon fill="none" stroke="black" points="90.45,-108 31.7,-108 31.7,-72 90.45,-72 90.45,-108"/>
<text xml:space="preserve" text-anchor="middle" x="61.08" y="-84.95" font-family="Times New Roman,serif" font-size="14.00">% 8095</text>
</g>
<!-- op_add&#45;&gt;op_mod -->
<g id="edge3" class="edge">
<title>op_add&#45;&gt;op_mod</title>
<path fill="none" stroke="black" d="M61.08,-143.7C61.08,-136.41 61.08,-127.73 61.08,-119.54"/>
<polygon fill="black" stroke="black" points="64.58,-119.62 61.08,-109.62 57.58,-119.62 64.58,-119.62"/>
</g>
<!-- NewSeed -->
<g id="node5" class="node">
<title>NewSeed</title>
<ellipse fill="none" stroke="black" cx="61.08" cy="-18" rx="61.08" ry="18"/>
<text xml:space="preserve" text-anchor="middle" x="61.08" y="-12.95" font-family="Times New Roman,serif" font-size="14.00">Seed (output)</text>
</g>
<!-- op_mod&#45;&gt;NewSeed -->
<g id="edge4" class="edge">
<title>op_mod&#45;&gt;NewSeed</title>
<path fill="none" stroke="black" d="M61.08,-71.7C61.08,-64.41 61.08,-55.73 61.08,-47.54"/>
<polygon fill="black" stroke="black" points="64.58,-47.62 61.08,-37.62 57.58,-47.62 64.58,-47.62"/>
</g>
</g>
</svg>
