<?xml version="1.0" encoding="UTF-8" standalone="no"?>
<!DOCTYPE svg PUBLIC "-//W3C//DTD SVG 1.1//EN"
 "http://www.w3.org/Graphics/SVG/1.1/DTD/svg11.dtd">
<!-- Generated by graphviz version 13.1.2 (20250808.2320)
 -->
<!-- Title: Sum_DFG Pages: 1 -->
<svg width="326pt" height="279pt"
 viewBox="0.00 0.00 326.00 279.00" xmlns="http://www.w3.org/2000/svg" xmlns:xlink="http://www.w3.org/1999/xlink">
<g id="graph0" class="graph" transform="scale(1 1) rotate(0) translate(4 274.5)">
<title>Sum_DFG</title>
<polygon fill="white" stroke="none" points="-4,4 -4,-274.5 321.96,-274.5 321.96,4 -4,4"/>
<!-- Array_elem -->
<g id="node1" class="node">
<title>Array_elem</title>
<ellipse fill="none" stroke="black" cx="85.13" cy="-252.5" rx="85.13" ry="18"/>
<text xml:space="preserve" text-anchor="middle" x="85.13" y="-247.45" font-family="Times New Roman,serif" font-size="14.00">Array[Outer][Inner]</text>
</g>
<!-- cond -->
<g id="node2" class="node">
<title>cond</title>
<polygon fill="none" stroke="black" points="112.13,-197.5 58.13,-197.5 58.13,-161.5 112.13,-161.5 112.13,-197.5"/>
<text xml:space="preserve" text-anchor="middle" x="85.13" y="-174.45" font-family="Times New Roman,serif" font-size="14.00">&lt; 0?</text>
</g>
<!-- Array_elem&#45;&gt;cond -->
<g id="edge1" class="edge">
<title>Array_elem&#45;&gt;cond</title>
<path fill="none" stroke="black" d="M85.13,-234.31C85.13,-226.73 85.13,-217.6 85.13,-209.04"/>
<polygon fill="black" stroke="black" points="88.63,-209.04 85.13,-199.04 81.63,-209.04 88.63,-209.04"/>
</g>
<!-- add_Ptotal -->
<g id="node3" class="node">
<title>add_Ptotal</title>
<polygon fill="none" stroke="black" points="69.13,-109 15.13,-109 15.13,-73 69.13,-73 69.13,-109"/>
<text xml:space="preserve" text-anchor="middle" x="42.13" y="-85.95" font-family="Times New Roman,serif" font-size="14.00">+=</text>
</g>
<!-- Array_elem&#45;&gt;add_Ptotal -->
<g id="edge4" class="edge">
<title>Array_elem&#45;&gt;add_Ptotal</title>
<path fill="none" stroke="black" d="M70.61,-234.74C62.76,-224.66 53.76,-211.16 49.13,-197.5 40.66,-172.54 39.49,-142.38 40.1,-120.71"/>
<polygon fill="black" stroke="black" points="43.59,-120.99 40.53,-110.85 36.59,-120.69 43.59,-120.99"/>
</g>
<!-- add_Ntotal -->
<g id="node4" class="node">
<title>add_Ntotal</title>
<polygon fill="none" stroke="black" points="162.13,-109 108.13,-109 108.13,-73 162.13,-73 162.13,-109"/>
<text xml:space="preserve" text-anchor="middle" x="135.13" y="-85.95" font-family="Times New Roman,serif" font-size="14.00">+=</text>
</g>
<!-- Array_elem&#45;&gt;add_Ntotal -->
<g id="edge5" class="edge">
<title>Array_elem&#45;&gt;add_Ntotal</title>
<path fill="none" stroke="black" d="M99.15,-234.56C106.83,-224.41 115.83,-210.91 121.13,-197.5 130.89,-172.82 134.1,-142.63 135.05,-120.88"/>
<polygon fill="black" stroke="black" points="138.54,-121.06 135.33,-110.96 131.55,-120.86 138.54,-121.06"/>
</g>
<!-- cond&#45;&gt;add_Ptotal -->
<g id="edge2" class="edge">
<title>cond&#45;&gt;add_Ptotal</title>
<path fill="none" stroke="black" d="M71.39,-161.32C67.41,-155.83 63.29,-149.6 60.13,-143.5 56.32,-136.16 53.02,-127.83 50.32,-120.04"/>
<polygon fill="black" stroke="black" points="53.68,-119.07 47.27,-110.64 47.02,-121.23 53.68,-119.07"/>
<text xml:space="preserve" text-anchor="middle" x="70.63" y="-130.2" font-family="Times New Roman,serif" font-size="14.00">true</text>
</g>
<!-- cond&#45;&gt;add_Ntotal -->
<g id="edge3" class="edge">
<title>cond&#45;&gt;add_Ntotal</title>
<path fill="none" stroke="black" d="M90.01,-161.1C93.32,-150.78 98.25,-137.66 104.63,-127 106.44,-123.99 108.51,-120.98 110.71,-118.07"/>
<polygon fill="black" stroke="black" points="113.39,-120.33 117.03,-110.38 107.98,-115.89 113.39,-120.33"/>
<text xml:space="preserve" text-anchor="middle" x="117.38" y="-130.2" font-family="Times New Roman,serif" font-size="14.00">false</text>
</g>
<!-- Ptotal -->
<g id="node7" class="node">
<title>Ptotal</title>
<ellipse fill="none" stroke="black" cx="42.13" cy="-18" rx="32.41" ry="18"/>
<text xml:space="preserve" text-anchor="middle" x="42.13" y="-12.95" font-family="Times New Roman,serif" font-size="14.00">Ptotal</text>
</g>
<!-- add_Ptotal&#45;&gt;Ptotal -->
<g id="edge6" class="edge">
<title>add_Ptotal&#45;&gt;Ptotal</title>
<path fill="none" stroke="black" d="M42.13,-72.81C42.13,-65.23 42.13,-56.1 42.13,-47.54"/>
<polygon fill="black" stroke="black" points="45.63,-47.54 42.13,-37.54 38.63,-47.54 45.63,-47.54"/>
</g>
<!-- Ntotal -->
<g id="node8" class="node">
<title>Ntotal</title>
<ellipse fill="none" stroke="black" cx="135.13" cy="-18" rx="33.95" ry="18"/>
<text xml:space="preserve" text-anchor="middle" x="135.13" y="-12.95" font-family="Times New Roman,serif" font-size="14.00">Ntotal</text>
</g>
<!-- add_Ntotal&#45;&gt;Ntotal -->
<g id="edge7" class="edge">
<title>add_Ntotal&#45;&gt;Ntotal</title>
<path fill="none" stroke="black" d="M135.13,-72.81C135.13,-65.23 135.13,-56.1 135.13,-47.54"/>
<polygon fill="black" stroke="black" points="138.63,-47.54 135.13,-37.54 131.63,-47.54 138.63,-47.54"/>
</g>
<!-- inc_Pcnt -->
<g id="node5" class="node">
<title>inc_Pcnt</title>
<polygon fill="none" stroke="black" points="242.13,-270.5 188.13,-270.5 188.13,-234.5 242.13,-234.5 242.13,-270.5"/>
<text xml:space="preserve" text-anchor="middle" x="215.13" y="-247.45" font-family="Times New Roman,serif" font-size="14.00">++</text>
</g>
<!-- Pcnt -->
<g id="node9" class="node">
<title>Pcnt</title>
<ellipse fill="none" stroke="black" cx="215.13" cy="-179.5" rx="27.3" ry="18"/>
<text xml:space="preserve" text-anchor="middle" x="215.13" y="-174.45" font-family="Times New Roman,serif" font-size="14.00">Pcnt</text>
</g>
<!-- inc_Pcnt&#45;&gt;Pcnt -->
<g id="edge8" class="edge">
<title>inc_Pcnt&#45;&gt;Pcnt</title>
<path fill="none" stroke="black" d="M215.13,-234.31C215.13,-226.73 215.13,-217.6 215.13,-209.04"/>
<polygon fill="black" stroke="black" points="218.63,-209.04 215.13,-199.04 211.63,-209.04 218.63,-209.04"/>
</g>
<!-- inc_Ncnt -->
<g id="node6" class="node">
<title>inc_Ncnt</title>
<polygon fill="none" stroke="black" points="316.13,-270.5 262.13,-270.5 262.13,-234.5 316.13,-234.5 316.13,-270.5"/>
<text xml:space="preserve" text-anchor="middle" x="289.13" y="-247.45" font-family="Times New Roman,serif" font-size="14.00">++</text>
</g>
<!-- Ncnt -->
<g id="node10" class="node">
<title>Ncnt</title>
<ellipse fill="none" stroke="black" cx="289.13" cy="-179.5" rx="28.83" ry="18"/>
<text xml:space="preserve" text-anchor="middle" x="289.13" y="-174.45" font-family="Times New Roman,serif" font-size="14.00">Ncnt</text>
</g>
<!-- inc_Ncnt&#45;&gt;Ncnt -->
<g id="edge9" class="edge">
<title>inc_Ncnt&#45;&gt;Ncnt</title>
<path fill="none" stroke="black" d="M289.13,-234.31C289.13,-226.73 289.13,-217.6 289.13,-209.04"/>
<polygon fill="black" stroke="black" points="292.63,-209.04 289.13,-199.04 285.63,-209.04 292.63,-209.04"/>
</g>
</g>
</svg>
