<?xml version="1.0" encoding="UTF-8" standalone="no"?>
<!DOCTYPE svg PUBLIC "-//W3C//DTD SVG 1.1//EN"
 "http://www.w3.org/Graphics/SVG/1.1/DTD/svg11.dtd">
<!-- Generated by graphviz version 13.1.2 (20250808.2320)
 -->
<!-- Title: Initialize_CFG Pages: 1 -->
<svg width="514pt" height="440pt"
 viewBox="0.00 0.00 514.00 440.00" xmlns="http://www.w3.org/2000/svg" xmlns:xlink="http://www.w3.org/1999/xlink">
<g id="graph0" class="graph" transform="scale(1 1) rotate(0) translate(4 436)">
<title>Initialize_CFG</title>
<polygon fill="white" stroke="none" points="-4,4 -4,-436 510.25,-436 510.25,4 -4,4"/>
<!-- N1 -->
<g id="node1" class="node">
<title>N1</title>
<polygon fill="none" stroke="black" points="469.88,-432 369.88,-432 369.88,-396 469.88,-396 469.88,-432"/>
<text xml:space="preserve" text-anchor="middle" x="419.88" y="-408.95" font-family="Times New Roman,serif" font-size="14.00">OuterIndex = 0</text>
</g>
<!-- N2 -->
<g id="node2" class="node">
<title>N2</title>
<polygon fill="none" stroke="black" points="496.88,-359 342.88,-359 342.88,-323 496.88,-323 496.88,-359"/>
<text xml:space="preserve" text-anchor="middle" x="419.88" y="-335.95" font-family="Times New Roman,serif" font-size="14.00">OuterIndex &lt; MAXSIZE</text>
</g>
<!-- N1&#45;&gt;N2 -->
<g id="edge1" class="edge">
<title>N1&#45;&gt;N2</title>
<path fill="none" stroke="black" d="M419.88,-395.81C419.88,-388.23 419.88,-379.1 419.88,-370.54"/>
<polygon fill="black" stroke="black" points="423.38,-370.54 419.88,-360.54 416.38,-370.54 423.38,-370.54"/>
</g>
<!-- N3 -->
<g id="node3" class="node">
<title>N3</title>
<polygon fill="none" stroke="black" points="384.75,-270.5 287,-270.5 287,-234.5 384.75,-234.5 384.75,-270.5"/>
<text xml:space="preserve" text-anchor="middle" x="335.88" y="-247.45" font-family="Times New Roman,serif" font-size="14.00">InnerIndex = 0</text>
</g>
<!-- N2&#45;&gt;N3 -->
<g id="edge2" class="edge">
<title>N2&#45;&gt;N3</title>
<path fill="none" stroke="black" d="M402.34,-322.64C396.73,-317.04 390.52,-310.78 384.88,-305 376.69,-296.61 367.83,-287.35 359.93,-279.03"/>
<polygon fill="black" stroke="black" points="362.56,-276.72 353.14,-271.87 357.48,-281.53 362.56,-276.72"/>
<text xml:space="preserve" text-anchor="middle" x="395.38" y="-291.7" font-family="Times New Roman,serif" font-size="14.00">true</text>
</g>
<!-- N8 -->
<g id="node8" class="node">
<title>N8</title>
<polygon fill="none" stroke="black" points="506.25,-270.5 447.5,-270.5 447.5,-234.5 506.25,-234.5 506.25,-270.5"/>
<text xml:space="preserve" text-anchor="middle" x="476.88" y="-247.45" font-family="Times New Roman,serif" font-size="14.00">return 0</text>
</g>
<!-- N2&#45;&gt;N8 -->
<g id="edge3" class="edge">
<title>N2&#45;&gt;N8</title>
<path fill="none" stroke="black" d="M431.14,-322.91C439.13,-310.79 450.01,-294.27 459.16,-280.39"/>
<polygon fill="black" stroke="black" points="462.03,-282.39 464.61,-272.11 456.18,-278.54 462.03,-282.39"/>
<text xml:space="preserve" text-anchor="middle" x="466.23" y="-291.7" font-family="Times New Roman,serif" font-size="14.00">false</text>
</g>
<!-- N4 -->
<g id="node4" class="node">
<title>N4</title>
<polygon fill="none" stroke="black" points="391.75,-197.5 240,-197.5 240,-161.5 391.75,-161.5 391.75,-197.5"/>
<text xml:space="preserve" text-anchor="middle" x="315.88" y="-174.45" font-family="Times New Roman,serif" font-size="14.00">InnerIndex &lt; MAXSIZE</text>
</g>
<!-- N3&#45;&gt;N4 -->
<g id="edge4" class="edge">
<title>N3&#45;&gt;N4</title>
<path fill="none" stroke="black" d="M331.03,-234.31C328.85,-226.55 326.21,-217.18 323.75,-208.45"/>
<polygon fill="black" stroke="black" points="327.16,-207.66 321.08,-198.99 320.42,-209.56 327.16,-207.66"/>
</g>
<!-- N5 -->
<g id="node5" class="node">
<title>N5</title>
<polygon fill="none" stroke="black" points="295.75,-109 0,-109 0,-73 295.75,-73 295.75,-109"/>
<text xml:space="preserve" text-anchor="middle" x="147.88" y="-85.95" font-family="Times New Roman,serif" font-size="14.00">Array[OuterIndex][InnerIndex] = RandomInteger()</text>
</g>
<!-- N4&#45;&gt;N5 -->
<g id="edge5" class="edge">
<title>N4&#45;&gt;N5</title>
<path fill="none" stroke="black" d="M282.28,-161.2C256.27,-147.81 220.03,-129.15 191.73,-114.58"/>
<polygon fill="black" stroke="black" points="193.54,-111.57 183.04,-110.11 190.33,-117.8 193.54,-111.57"/>
<text xml:space="preserve" text-anchor="middle" x="257.42" y="-130.2" font-family="Times New Roman,serif" font-size="14.00">true</text>
</g>
<!-- N7 -->
<g id="node7" class="node">
<title>N7</title>
<polygon fill="none" stroke="black" points="459.88,-109 365.88,-109 365.88,-73 459.88,-73 459.88,-109"/>
<text xml:space="preserve" text-anchor="middle" x="412.88" y="-85.95" font-family="Times New Roman,serif" font-size="14.00">OuterIndex++</text>
</g>
<!-- N4&#45;&gt;N7 -->
<g id="edge6" class="edge">
<title>N4&#45;&gt;N7</title>
<path fill="none" stroke="black" d="M335.04,-161.41C349.29,-148.7 368.97,-131.16 384.97,-116.89"/>
<polygon fill="black" stroke="black" points="387.16,-119.63 392.29,-110.36 382.5,-114.4 387.16,-119.63"/>
<text xml:space="preserve" text-anchor="middle" x="385.81" y="-130.2" font-family="Times New Roman,serif" font-size="14.00">false</text>
</g>
<!-- N6 -->
<g id="node6" class="node">
<title>N6</title>
<polygon fill="none" stroke="black" points="281.75,-36 190,-36 190,0 281.75,0 281.75,-36"/>
<text xml:space="preserve" text-anchor="middle" x="235.88" y="-12.95" font-family="Times New Roman,serif" font-size="14.00">InnerIndex++</text>
</g>
<!-- N5&#45;&gt;N6 -->
<g id="edge7" class="edge">
<title>N5&#45;&gt;N6</title>
<path fill="none" stroke="black" d="M169.18,-72.81C180.12,-63.98 193.65,-53.07 205.65,-43.39"/>
<polygon fill="black" stroke="black" points="207.7,-46.23 213.29,-37.23 203.31,-40.78 207.7,-46.23"/>
</g>
<!-- N6&#45;&gt;N4 -->
<g id="edge8" class="edge">
<title>N6&#45;&gt;N4</title>
<path fill="none" stroke="black" d="M268.26,-36.41C281.88,-45.46 296.48,-57.83 304.88,-73 317.89,-96.52 319.64,-127.52 318.74,-149.82"/>
<polygon fill="black" stroke="black" points="315.25,-149.5 318.11,-159.7 322.24,-149.94 315.25,-149.5"/>
</g>
<!-- N7&#45;&gt;N2 -->
<g id="edge9" class="edge">
<title>N7&#45;&gt;N2</title>
<path fill="none" stroke="black" d="M413.37,-109.42C414.56,-151.55 417.6,-259.32 419.06,-311.22"/>
<polygon fill="black" stroke="black" points="415.56,-311.15 419.34,-321.05 422.56,-310.95 415.56,-311.15"/>
</g>
</g>
</svg>
