<?xml version="1.0" encoding="UTF-8" standalone="no"?>
<!DOCTYPE svg PUBLIC "-//W3C//DTD SVG 1.1//EN"
 "http://www.w3.org/Graphics/SVG/1.1/DTD/svg11.dtd">
<!-- Generated by graphviz version 13.1.2 (20250808.2320)
 -->
<!-- Title: Initialize_DFG Pages: 1 -->
<svg width="349pt" height="586pt"
 viewBox="0.00 0.00 349.00 586.00" xmlns="http://www.w3.org/2000/svg" xmlns:xlink="http://www.w3.org/1999/xlink">
<g id="graph0" class="graph" transform="scale(1 1) rotate(0) translate(4 582)">
<title>Initialize_DFG</title>
<polygon fill="white" stroke="none" points="-4,4 -4,-582 344.75,-582 344.75,4 -4,4"/>
<!-- Seed_global -->
<g id="node1" class="node">
<title>Seed_global</title>
<ellipse fill="lightblue" stroke="black" cx="166.88" cy="-560" rx="60.56" ry="18"/>
<text xml:space="preserve" text-anchor="middle" x="166.88" y="-554.95" font-family="Times New Roman,serif" font-size="14.00">Seed (global)</text>
</g>
<!-- op_call_RandomInteger -->
<g id="node7" class="node">
<title>op_call_RandomInteger</title>
<polygon fill="lightblue" stroke="black" points="221.75,-505 112,-505 112,-469 221.75,-469 221.75,-505"/>
<text xml:space="preserve" text-anchor="middle" x="166.88" y="-481.95" font-family="Times New Roman,serif" font-size="14.00">RandomInteger()</text>
</g>
<!-- Seed_global&#45;&gt;op_call_RandomInteger -->
<g id="edge1" class="edge">
<title>Seed_global&#45;&gt;op_call_RandomInteger</title>
<path fill="none" stroke="black" d="M166.88,-541.81C166.88,-534.23 166.88,-525.1 166.88,-516.54"/>
<polygon fill="black" stroke="black" points="170.38,-516.54 166.88,-506.54 163.38,-516.54 170.38,-516.54"/>
</g>
<!-- Array_global -->
<g id="node2" class="node">
<title>Array_global</title>
<ellipse fill="lightblue" stroke="black" cx="166.88" cy="-341" rx="64.15" ry="18"/>
<text xml:space="preserve" text-anchor="middle" x="166.88" y="-335.95" font-family="Times New Roman,serif" font-size="14.00">Array (global)</text>
</g>
<!-- op_assign_OuterIndex -->
<g id="node3" class="node">
<title>op_assign_OuterIndex</title>
<polygon fill="lightblue" stroke="black" points="299.88,-197.5 199.88,-197.5 199.88,-161.5 299.88,-161.5 299.88,-197.5"/>
<text xml:space="preserve" text-anchor="middle" x="249.88" y="-174.45" font-family="Times New Roman,serif" font-size="14.00">OuterIndex = 0</text>
</g>
<!-- op_condition_outer -->
<g id="node4" class="node">
<title>op_condition_outer</title>
<polygon fill="lightblue" stroke="black" points="241.88,-124.5 87.88,-124.5 87.88,-88.5 241.88,-88.5 241.88,-124.5"/>
<text xml:space="preserve" text-anchor="middle" x="164.88" y="-101.45" font-family="Times New Roman,serif" font-size="14.00">OuterIndex &lt; MAXSIZE</text>
</g>
<!-- op_assign_OuterIndex&#45;&gt;op_condition_outer -->
<g id="edge4" class="edge">
<title>op_assign_OuterIndex&#45;&gt;op_condition_outer</title>
<path fill="none" stroke="black" d="M229.3,-161.31C218.73,-152.48 205.66,-141.57 194.07,-131.89"/>
<polygon fill="black" stroke="black" points="196.64,-129.47 186.72,-125.75 192.15,-134.84 196.64,-129.47"/>
</g>
<!-- op_assign_InnerIndex -->
<g id="node5" class="node">
<title>op_assign_InnerIndex</title>
<polygon fill="lightblue" stroke="black" points="124.75,-36 27,-36 27,0 124.75,0 124.75,-36"/>
<text xml:space="preserve" text-anchor="middle" x="75.88" y="-12.95" font-family="Times New Roman,serif" font-size="14.00">InnerIndex = 0</text>
</g>
<!-- op_condition_outer&#45;&gt;op_assign_InnerIndex -->
<g id="edge5" class="edge">
<title>op_condition_outer&#45;&gt;op_assign_InnerIndex</title>
<path fill="none" stroke="black" d="M147.29,-88.41C134.33,-75.82 116.5,-58.48 101.89,-44.29"/>
<polygon fill="black" stroke="black" points="104.42,-41.86 94.81,-37.41 99.54,-46.88 104.42,-41.86"/>
<text xml:space="preserve" text-anchor="middle" x="138.85" y="-57.2" font-family="Times New Roman,serif" font-size="14.00">true</text>
</g>
<!-- op_condition_inner -->
<g id="node6" class="node">
<title>op_condition_inner</title>
<polygon fill="lightblue" stroke="black" points="151.75,-286 0,-286 0,-250 151.75,-250 151.75,-286"/>
<text xml:space="preserve" text-anchor="middle" x="75.88" y="-262.95" font-family="Times New Roman,serif" font-size="14.00">InnerIndex &lt; MAXSIZE</text>
</g>
<!-- op_assign_InnerIndex&#45;&gt;op_condition_inner -->
<g id="edge6" class="edge">
<title>op_assign_InnerIndex&#45;&gt;op_condition_inner</title>
<path fill="none" stroke="black" d="M75.88,-36.42C75.88,-78.55 75.88,-186.32 75.88,-238.22"/>
<polygon fill="black" stroke="black" points="72.38,-238.05 75.88,-248.05 79.38,-238.05 72.38,-238.05"/>
</g>
<!-- op_assign_array -->
<g id="node8" class="node">
<title>op_assign_array</title>
<polygon fill="lightblue" stroke="black" points="314.75,-432 19,-432 19,-396 314.75,-396 314.75,-432"/>
<text xml:space="preserve" text-anchor="middle" x="166.88" y="-408.95" font-family="Times New Roman,serif" font-size="14.00">Array[OuterIndex][InnerIndex] = RandomInteger()</text>
</g>
<!-- op_condition_inner&#45;&gt;op_assign_array -->
<g id="edge7" class="edge">
<title>op_condition_inner&#45;&gt;op_assign_array</title>
<path fill="none" stroke="black" d="M70.2,-286.22C65,-305.36 59.87,-336.54 72.88,-359 80.46,-372.11 92.57,-382.31 105.61,-390.14"/>
<polygon fill="black" stroke="black" points="103.92,-393.21 114.37,-394.95 107.28,-387.07 103.92,-393.21"/>
<text xml:space="preserve" text-anchor="middle" x="83.38" y="-335.95" font-family="Times New Roman,serif" font-size="14.00">true</text>
</g>
<!-- op_increment_OuterIndex -->
<g id="node10" class="node">
<title>op_increment_OuterIndex</title>
<polygon fill="lightblue" stroke="black" points="181.88,-197.5 87.88,-197.5 87.88,-161.5 181.88,-161.5 181.88,-197.5"/>
<text xml:space="preserve" text-anchor="middle" x="134.88" y="-174.45" font-family="Times New Roman,serif" font-size="14.00">OuterIndex++</text>
</g>
<!-- op_condition_inner&#45;&gt;op_increment_OuterIndex -->
<g id="edge10" class="edge">
<title>op_condition_inner&#45;&gt;op_increment_OuterIndex</title>
<path fill="none" stroke="black" d="M87.53,-249.91C95.88,-237.67 107.29,-220.95 116.81,-206.99"/>
<polygon fill="black" stroke="black" points="119.44,-209.33 122.19,-199.1 113.66,-205.39 119.44,-209.33"/>
<text xml:space="preserve" text-anchor="middle" x="123.41" y="-218.7" font-family="Times New Roman,serif" font-size="14.00">false</text>
</g>
<!-- op_call_RandomInteger&#45;&gt;op_assign_array -->
<g id="edge2" class="edge">
<title>op_call_RandomInteger&#45;&gt;op_assign_array</title>
<path fill="none" stroke="black" d="M166.88,-468.81C166.88,-461.23 166.88,-452.1 166.88,-443.54"/>
<polygon fill="black" stroke="black" points="170.38,-443.54 166.88,-433.54 163.38,-443.54 170.38,-443.54"/>
</g>
<!-- op_assign_array&#45;&gt;Array_global -->
<g id="edge3" class="edge">
<title>op_assign_array&#45;&gt;Array_global</title>
<path fill="none" stroke="black" d="M166.88,-395.81C166.88,-388.23 166.88,-379.1 166.88,-370.54"/>
<polygon fill="black" stroke="black" points="170.38,-370.54 166.88,-360.54 163.38,-370.54 170.38,-370.54"/>
</g>
<!-- op_increment_InnerIndex -->
<g id="node9" class="node">
<title>op_increment_InnerIndex</title>
<polygon fill="lightblue" stroke="black" points="340.75,-359 249,-359 249,-323 340.75,-323 340.75,-359"/>
<text xml:space="preserve" text-anchor="middle" x="294.88" y="-335.95" font-family="Times New Roman,serif" font-size="14.00">InnerIndex++</text>
</g>
<!-- op_assign_array&#45;&gt;op_increment_InnerIndex -->
<g id="edge8" class="edge">
<title>op_assign_array&#45;&gt;op_increment_InnerIndex</title>
<path fill="none" stroke="black" d="M198.19,-395.63C214.85,-386.39 235.54,-374.91 253.51,-364.95"/>
<polygon fill="black" stroke="black" points="255.07,-368.08 262.12,-360.17 251.68,-361.96 255.07,-368.08"/>
</g>
<!-- op_increment_InnerIndex&#45;&gt;op_condition_inner -->
<g id="edge9" class="edge">
<title>op_increment_InnerIndex&#45;&gt;op_condition_inner</title>
<path fill="none" stroke="black" d="M248.7,-325.03C217.2,-314.82 175.04,-301.15 140.25,-289.87"/>
<polygon fill="black" stroke="black" points="141.74,-286.67 131.15,-286.92 139.58,-293.33 141.74,-286.67"/>
</g>
<!-- op_increment_OuterIndex&#45;&gt;op_condition_outer -->
<g id="edge11" class="edge">
<title>op_increment_OuterIndex&#45;&gt;op_condition_outer</title>
<path fill="none" stroke="black" d="M142.14,-161.31C145.49,-153.38 149.55,-143.76 153.31,-134.86"/>
<polygon fill="black" stroke="black" points="156.42,-136.5 157.09,-125.92 149.97,-133.77 156.42,-136.5"/>
</g>
</g>
</svg>
