<?xml version="1.0" encoding="UTF-8" standalone="no"?>
<!DOCTYPE svg PUBLIC "-//W3C//DTD SVG 1.1//EN"
 "http://www.w3.org/Graphics/SVG/1.1/DTD/svg11.dtd">
<!-- Generated by graphviz version 13.1.2 (20250808.2320)
 -->
<!-- Title: main_DFG Pages: 1 -->
<svg width="224pt" height="116pt"
 viewBox="0.00 0.00 224.00 116.00" xmlns="http://www.w3.org/2000/svg" xmlns:xlink="http://www.w3.org/1999/xlink">
<g id="graph0" class="graph" transform="scale(1 1) rotate(0) translate(4 112)">
<title>main_DFG</title>
<polygon fill="white" stroke="none" points="-4,4 -4,-112 220.15,-112 220.15,4 -4,4"/>
<!-- Array_global -->
<g id="node1" class="node">
<title>Array_global</title>
<ellipse fill="lightblue" stroke="black" cx="64.15" cy="-90" rx="64.15" ry="18"/>
<text xml:space="preserve" text-anchor="middle" x="64.15" y="-84.95" font-family="Times New Roman,serif" font-size="14.00">Array (global)</text>
</g>
<!-- op_call_Test -->
<g id="node3" class="node">
<title>op_call_Test</title>
<polygon fill="lightblue" stroke="black" points="161.65,-36 82.65,-36 82.65,0 161.65,0 161.65,-36"/>
<text xml:space="preserve" text-anchor="middle" x="122.15" y="-12.95" font-family="Times New Roman,serif" font-size="14.00">Test(Array)</text>
</g>
<!-- Array_global&#45;&gt;op_call_Test -->
<g id="edge1" class="edge">
<title>Array_global&#45;&gt;op_call_Test</title>
<path fill="none" stroke="black" d="M78.19,-72.05C84.93,-63.92 93.15,-54 100.65,-44.94"/>
<polygon fill="black" stroke="black" points="103.18,-47.37 106.87,-37.44 97.79,-42.91 103.18,-47.37"/>
</g>
<!-- op_call_InitSeed -->
<g id="node2" class="node">
<title>op_call_InitSeed</title>
<polygon fill="lightblue" stroke="black" points="216.15,-108 146.15,-108 146.15,-72 216.15,-72 216.15,-108"/>
<text xml:space="preserve" text-anchor="middle" x="181.15" y="-84.95" font-family="Times New Roman,serif" font-size="14.00">InitSeed()</text>
</g>
<!-- op_call_InitSeed&#45;&gt;op_call_Test -->
<g id="edge2" class="edge">
<title>op_call_InitSeed&#45;&gt;op_call_Test</title>
<path fill="none" stroke="grey" stroke-dasharray="5,2" d="M166.56,-71.7C159.7,-63.56 151.38,-53.69 143.81,-44.7"/>
<polygon fill="grey" stroke="grey" points="146.66,-42.65 137.54,-37.26 141.31,-47.16 146.66,-42.65"/>
</g>
</g>
</svg>
