<?xml version="1.0" encoding="UTF-8" standalone="no"?>
<!DOCTYPE svg PUBLIC "-//W3C//DTD SVG 1.1//EN"
 "http://www.w3.org/Graphics/SVG/1.1/DTD/svg11.dtd">
<!-- Generated by graphviz version 13.1.2 (20250808.2320)
 -->
<!-- Title: RandomInteger_DFG Pages: 1 -->
<svg width="221pt" height="188pt"
 viewBox="0.00 0.00 221.00 188.00" xmlns="http://www.w3.org/2000/svg" xmlns:xlink="http://www.w3.org/1999/xlink">
<g id="graph0" class="graph" transform="scale(1 1) rotate(0) translate(4 184)">
<title>RandomInteger_DFG</title>
<polygon fill="white" stroke="none" points="-4,4 -4,-184 216.5,-184 216.5,4 -4,4"/>
<!-- Seed_in -->
<g id="node1" class="node">
<title>Seed_in</title>
<ellipse fill="lightblue" stroke="black" cx="106.25" cy="-162" rx="56.47" ry="18"/>
<text xml:space="preserve" text-anchor="middle" x="106.25" y="-156.95" font-family="Times New Roman,serif" font-size="14.00">Seed (input)</text>
</g>
<!-- op_calc -->
<g id="node2" class="node">
<title>op_calc</title>
<polygon fill="lightblue" stroke="black" points="212.5,-108 0,-108 0,-72 212.5,-72 212.5,-108"/>
<text xml:space="preserve" text-anchor="middle" x="106.25" y="-84.95" font-family="Times New Roman,serif" font-size="14.00">Seed = ((Seed * 133) + 81) % 8095</text>
</g>
<!-- Seed_in&#45;&gt;op_calc -->
<g id="edge1" class="edge">
<title>Seed_in&#45;&gt;op_calc</title>
<path fill="none" stroke="black" d="M106.25,-143.7C106.25,-136.41 106.25,-127.73 106.25,-119.54"/>
<polygon fill="black" stroke="black" points="109.75,-119.62 106.25,-109.62 102.75,-119.62 109.75,-119.62"/>
</g>
<!-- op_return -->
<g id="node3" class="node">
<title>op_return</title>
<polygon fill="lightblue" stroke="black" points="145.38,-36 67.12,-36 67.12,0 145.38,0 145.38,-36"/>
<text xml:space="preserve" text-anchor="middle" x="106.25" y="-12.95" font-family="Times New Roman,serif" font-size="14.00">return Seed</text>
</g>
<!-- op_calc&#45;&gt;op_return -->
<g id="edge2" class="edge">
<title>op_calc&#45;&gt;op_return</title>
<path fill="none" stroke="black" d="M106.25,-71.7C106.25,-64.41 106.25,-55.73 106.25,-47.54"/>
<polygon fill="black" stroke="black" points="109.75,-47.62 106.25,-37.62 102.75,-47.62 109.75,-47.62"/>
</g>
</g>
</svg>
