<?xml version="1.0" encoding="UTF-8" standalone="no"?>
<!DOCTYPE svg PUBLIC "-//W3C//DTD SVG 1.1//EN"
 "http://www.w3.org/Graphics/SVG/1.1/DTD/svg11.dtd">
<!-- Generated by graphviz version 13.1.2 (20250808.2320)
 -->
<!-- Title: Sum_DFG Pages: 1 -->
<svg width="616pt" height="617pt"
 viewBox="0.00 0.00 616.00 617.00" xmlns="http://www.w3.org/2000/svg" xmlns:xlink="http://www.w3.org/1999/xlink">
<g id="graph0" class="graph" transform="scale(1 1) rotate(0) translate(4 613)">
<title>Sum_DFG</title>
<polygon fill="white" stroke="none" points="-4,4 -4,-613 612.38,-613 612.38,4 -4,4"/>
<!-- Array_global -->
<g id="node1" class="node">
<title>Array_global</title>
<ellipse fill="lightblue" stroke="black" cx="169.62" cy="-591" rx="64.15" ry="18"/>
<text xml:space="preserve" text-anchor="middle" x="169.62" y="-585.95" font-family="Times New Roman,serif" font-size="14.00">Array (global)</text>
</g>
<!-- op_check_value -->
<g id="node7" class="node">
<title>op_check_value</title>
<polygon fill="lightblue" stroke="black" points="243.25,-536 96,-536 96,-500 243.25,-500 243.25,-536"/>
<text xml:space="preserve" text-anchor="middle" x="169.62" y="-512.95" font-family="Times New Roman,serif" font-size="14.00">Array[Outer][Inner] &lt; 0</text>
</g>
<!-- Array_global&#45;&gt;op_check_value -->
<g id="edge1" class="edge">
<title>Array_global&#45;&gt;op_check_value</title>
<path fill="none" stroke="black" d="M169.62,-572.81C169.62,-565.23 169.62,-556.1 169.62,-547.54"/>
<polygon fill="black" stroke="black" points="173.13,-547.54 169.63,-537.54 166.13,-547.54 173.13,-547.54"/>
</g>
<!-- op_update_positive -->
<g id="node8" class="node">
<title>op_update_positive</title>
<polygon fill="lightblue" stroke="black" points="608.38,-447.5 380.88,-447.5 380.88,-411.5 608.38,-411.5 608.38,-447.5"/>
<text xml:space="preserve" text-anchor="middle" x="494.62" y="-424.45" font-family="Times New Roman,serif" font-size="14.00">Ptotal += Array[Outer][Inner]; Pcnt++</text>
</g>
<!-- Array_global&#45;&gt;op_update_positive -->
<g id="edge2" class="edge">
<title>Array_global&#45;&gt;op_update_positive</title>
<path fill="none" stroke="black" d="M233.31,-587.95C315.37,-583.86 451.47,-571.75 484.62,-536 503.57,-515.57 503.6,-482.4 500.47,-458.71"/>
<polygon fill="black" stroke="black" points="503.97,-458.43 498.92,-449.11 497.06,-459.54 503.97,-458.43"/>
</g>
<!-- op_update_negative -->
<g id="node9" class="node">
<title>op_update_negative</title>
<polygon fill="lightblue" stroke="black" points="362.62,-447.5 130.62,-447.5 130.62,-411.5 362.62,-411.5 362.62,-447.5"/>
<text xml:space="preserve" text-anchor="middle" x="246.62" y="-424.45" font-family="Times New Roman,serif" font-size="14.00">Ntotal += Array[Outer][Inner]; Ncnt++</text>
</g>
<!-- Array_global&#45;&gt;op_update_negative -->
<g id="edge3" class="edge">
<title>Array_global&#45;&gt;op_update_negative</title>
<path fill="none" stroke="black" d="M133,-576.04C115.63,-567.35 96.54,-554.28 86.62,-536 79,-521.94 77.85,-513.38 86.62,-500 101.3,-477.62 124.92,-462.41 149.54,-452.08"/>
<polygon fill="black" stroke="black" points="150.68,-455.4 158.73,-448.5 148.14,-448.88 150.68,-455.4"/>
</g>
<!-- op_init_vars -->
<g id="node2" class="node">
<title>op_init_vars</title>
<polygon fill="lightblue" stroke="black" points="475.62,-536 261.62,-536 261.62,-500 475.62,-500 475.62,-536"/>
<text xml:space="preserve" text-anchor="middle" x="368.62" y="-512.95" font-family="Times New Roman,serif" font-size="14.00">Ptotal=0, Ntotal=0, Pcnt=0, Ncnt=0</text>
</g>
<!-- op_init_vars&#45;&gt;op_update_positive -->
<g id="edge4" class="edge">
<title>op_init_vars&#45;&gt;op_update_positive</title>
<path fill="none" stroke="black" d="M393.82,-499.7C412.88,-486.62 439.26,-468.51 460.25,-454.1"/>
<polygon fill="black" stroke="black" points="461.96,-457.17 468.23,-448.62 458,-451.4 461.96,-457.17"/>
</g>
<!-- op_init_vars&#45;&gt;op_update_negative -->
<g id="edge5" class="edge">
<title>op_init_vars&#45;&gt;op_update_negative</title>
<path fill="none" stroke="black" d="M344.23,-499.7C325.86,-486.68 300.46,-468.67 280.18,-454.29"/>
<polygon fill="black" stroke="black" points="282.39,-451.57 272.21,-448.64 278.35,-457.28 282.39,-451.57"/>
</g>
<!-- op_assign_Outer -->
<g id="node3" class="node">
<title>op_assign_Outer</title>
<polygon fill="lightblue" stroke="black" points="150.25,-197.5 81,-197.5 81,-161.5 150.25,-161.5 150.25,-197.5"/>
<text xml:space="preserve" text-anchor="middle" x="115.62" y="-174.45" font-family="Times New Roman,serif" font-size="14.00">Outer = 0</text>
</g>
<!-- op_condition_outer -->
<g id="node4" class="node">
<title>op_condition_outer</title>
<polygon fill="lightblue" stroke="black" points="150.25,-124.5 27,-124.5 27,-88.5 150.25,-88.5 150.25,-124.5"/>
<text xml:space="preserve" text-anchor="middle" x="88.62" y="-101.45" font-family="Times New Roman,serif" font-size="14.00">Outer &lt; MAXSIZE</text>
</g>
<!-- op_assign_Outer&#45;&gt;op_condition_outer -->
<g id="edge8" class="edge">
<title>op_assign_Outer&#45;&gt;op_condition_outer</title>
<path fill="none" stroke="black" d="M109.09,-161.31C106.1,-153.46 102.49,-143.97 99.14,-135.16"/>
<polygon fill="black" stroke="black" points="102.46,-134.05 95.64,-125.94 95.92,-136.53 102.46,-134.05"/>
</g>
<!-- op_assign_Inner -->
<g id="node5" class="node">
<title>op_assign_Inner</title>
<polygon fill="lightblue" stroke="black" points="167.12,-36 100.12,-36 100.12,0 167.12,0 167.12,-36"/>
<text xml:space="preserve" text-anchor="middle" x="133.62" y="-12.95" font-family="Times New Roman,serif" font-size="14.00">Inner = 0</text>
</g>
<!-- op_condition_outer&#45;&gt;op_assign_Inner -->
<g id="edge9" class="edge">
<title>op_condition_outer&#45;&gt;op_assign_Inner</title>
<path fill="none" stroke="black" d="M97.52,-88.41C103.76,-76.4 112.25,-60.09 119.43,-46.3"/>
<polygon fill="black" stroke="black" points="122.39,-48.18 123.9,-37.69 116.18,-44.95 122.39,-48.18"/>
<text xml:space="preserve" text-anchor="middle" x="125.66" y="-57.2" font-family="Times New Roman,serif" font-size="14.00">true</text>
</g>
<!-- op_condition_inner -->
<g id="node6" class="node">
<title>op_condition_inner</title>
<polygon fill="lightblue" stroke="black" points="165.12,-286 44.12,-286 44.12,-250 165.12,-250 165.12,-286"/>
<text xml:space="preserve" text-anchor="middle" x="104.62" y="-262.95" font-family="Times New Roman,serif" font-size="14.00">Inner &lt; MAXSIZE</text>
</g>
<!-- op_assign_Inner&#45;&gt;op_condition_inner -->
<g id="edge10" class="edge">
<title>op_assign_Inner&#45;&gt;op_condition_inner</title>
<path fill="none" stroke="black" d="M142.05,-36.22C148.29,-49.99 156.28,-69.99 159.62,-88.5 168.25,-136.17 175.54,-151.74 159.62,-197.5 153.93,-213.87 142.6,-229.29 131.69,-241.43"/>
<polygon fill="black" stroke="black" points="129.28,-238.89 124.95,-248.56 134.37,-243.7 129.28,-238.89"/>
</g>
<!-- op_condition_inner&#45;&gt;op_check_value -->
<g id="edge11" class="edge">
<title>op_condition_inner&#45;&gt;op_check_value</title>
<path fill="none" stroke="black" d="M103.35,-286.4C101.58,-319.11 100.66,-391.53 121.62,-447.5 127.45,-463.04 137.5,-478.42 146.91,-490.75"/>
<polygon fill="black" stroke="black" points="143.99,-492.7 152.95,-498.34 149.46,-488.34 143.99,-492.7"/>
<text xml:space="preserve" text-anchor="middle" x="118.37" y="-380.2" font-family="Times New Roman,serif" font-size="14.00">true</text>
</g>
<!-- op_increment_Outer -->
<g id="node11" class="node">
<title>op_increment_Outer</title>
<polygon fill="lightblue" stroke="black" points="63.25,-197.5 0,-197.5 0,-161.5 63.25,-161.5 63.25,-197.5"/>
<text xml:space="preserve" text-anchor="middle" x="31.62" y="-174.45" font-family="Times New Roman,serif" font-size="14.00">Outer++</text>
</g>
<!-- op_condition_inner&#45;&gt;op_increment_Outer -->
<g id="edge17" class="edge">
<title>op_condition_inner&#45;&gt;op_increment_Outer</title>
<path fill="none" stroke="black" d="M90.2,-249.91C79.77,-237.55 65.49,-220.63 53.64,-206.58"/>
<polygon fill="black" stroke="black" points="56.37,-204.39 47.24,-199.01 51.02,-208.91 56.37,-204.39"/>
<text xml:space="preserve" text-anchor="middle" x="87.41" y="-218.7" font-family="Times New Roman,serif" font-size="14.00">false</text>
</g>
<!-- op_check_value&#45;&gt;op_update_positive -->
<g id="edge12" class="edge">
<title>op_check_value&#45;&gt;op_update_positive</title>
<path fill="none" stroke="black" d="M235,-499.6C287.92,-485.52 362.54,-465.66 418.2,-450.84"/>
<polygon fill="black" stroke="black" points="418.85,-454.29 427.61,-448.34 417.05,-447.53 418.85,-454.29"/>
<text xml:space="preserve" text-anchor="middle" x="371.73" y="-468.7" font-family="Times New Roman,serif" font-size="14.00">true</text>
</g>
<!-- op_check_value&#45;&gt;op_update_negative -->
<g id="edge13" class="edge">
<title>op_check_value&#45;&gt;op_update_negative</title>
<path fill="none" stroke="black" d="M184.84,-499.91C195.94,-487.43 211.19,-470.3 223.76,-456.18"/>
<polygon fill="black" stroke="black" points="226.14,-458.78 230.17,-448.98 220.91,-454.12 226.14,-458.78"/>
<text xml:space="preserve" text-anchor="middle" x="227.77" y="-468.7" font-family="Times New Roman,serif" font-size="14.00">false</text>
</g>
<!-- op_increment_Inner -->
<g id="node10" class="node">
<title>op_increment_Inner</title>
<polygon fill="lightblue" stroke="black" points="582.12,-359 521.12,-359 521.12,-323 582.12,-323 582.12,-359"/>
<text xml:space="preserve" text-anchor="middle" x="551.62" y="-335.95" font-family="Times New Roman,serif" font-size="14.00">Inner++</text>
</g>
<!-- op_update_positive&#45;&gt;op_increment_Inner -->
<g id="edge14" class="edge">
<title>op_update_positive&#45;&gt;op_increment_Inner</title>
<path fill="none" stroke="black" d="M505.89,-411.41C513.88,-399.29 524.76,-382.77 533.91,-368.89"/>
<polygon fill="black" stroke="black" points="536.78,-370.89 539.36,-360.61 530.93,-367.04 536.78,-370.89"/>
</g>
<!-- op_assign_globals -->
<g id="node12" class="node">
<title>op_assign_globals</title>
<polygon fill="lightblue" stroke="black" points="502.62,-359 120.62,-359 120.62,-323 502.62,-323 502.62,-359"/>
<text xml:space="preserve" text-anchor="middle" x="311.62" y="-335.95" font-family="Times New Roman,serif" font-size="14.00">Postotal = Ptotal; Poscnt = Pcnt; Negtotal = Ntotal; Negcnt = Ncnt</text>
</g>
<!-- op_update_positive&#45;&gt;op_assign_globals -->
<g id="edge6" class="edge">
<title>op_update_positive&#45;&gt;op_assign_globals</title>
<path fill="none" stroke="black" d="M458.03,-411.2C429.45,-397.69 389.53,-378.82 358.59,-364.2"/>
<polygon fill="black" stroke="black" points="360.37,-361.17 349.84,-360.06 357.38,-367.5 360.37,-361.17"/>
</g>
<!-- op_update_negative&#45;&gt;op_increment_Inner -->
<g id="edge15" class="edge">
<title>op_update_negative&#45;&gt;op_increment_Inner</title>
<path fill="none" stroke="black" d="M325.2,-411.06C375.7,-399.13 442.74,-381.92 510,-359.31"/>
<polygon fill="black" stroke="black" points="511.02,-362.65 519.36,-356.12 508.76,-356.03 511.02,-362.65"/>
</g>
<!-- op_update_negative&#45;&gt;op_assign_globals -->
<g id="edge7" class="edge">
<title>op_update_negative&#45;&gt;op_assign_globals</title>
<path fill="none" stroke="black" d="M259.47,-411.41C268.67,-399.17 281.23,-382.45 291.72,-368.49"/>
<polygon fill="black" stroke="black" points="294.47,-370.66 297.68,-360.56 288.87,-366.45 294.47,-370.66"/>
</g>
<!-- op_increment_Inner&#45;&gt;op_condition_inner -->
<g id="edge16" class="edge">
<title>op_increment_Inner&#45;&gt;op_condition_inner</title>
<path fill="none" stroke="black" d="M520.91,-325.97C517.81,-324.85 514.68,-323.84 511.62,-323 396.99,-291.66 259.04,-278.24 176.76,-272.69"/>
<polygon fill="black" stroke="black" points="177,-269.19 166.8,-272.04 176.55,-276.18 177,-269.19"/>
</g>
<!-- op_increment_Outer&#45;&gt;op_condition_outer -->
<g id="edge18" class="edge">
<title>op_increment_Outer&#45;&gt;op_condition_outer</title>
<path fill="none" stroke="black" d="M45.42,-161.31C52.14,-152.94 60.37,-142.7 67.83,-133.4"/>
<polygon fill="black" stroke="black" points="70.48,-135.7 74.01,-125.71 65.02,-131.32 70.48,-135.7"/>
</g>
</g>
</svg>
