<?xml version="1.0" encoding="UTF-8" standalone="no"?>
<!DOCTYPE svg PUBLIC "-//W3C//DTD SVG 1.1//EN"
 "http://www.w3.org/Graphics/SVG/1.1/DTD/svg11.dtd">
<!-- Generated by graphviz version 13.1.2 (20250808.2320)
 -->
<!-- Title: Sum_CFG Pages: 1 -->
<svg width="1009pt" height="602pt"
 viewBox="0.00 0.00 1009.00 602.00" xmlns="http://www.w3.org/2000/svg" xmlns:xlink="http://www.w3.org/1999/xlink">
<g id="graph0" class="graph" transform="scale(1 1) rotate(0) translate(4 597.5)">
<title>Sum_CFG</title>
<polygon fill="white" stroke="none" points="-4,4 -4,-597.5 1004.75,-597.5 1004.75,4 -4,4"/>
<!-- N1 -->
<g id="node1" class="node">
<title>N1</title>
<polygon fill="none" stroke="black" points="712.75,-593.5 468.75,-593.5 468.75,-557.5 712.75,-557.5 712.75,-593.5"/>
<text xml:space="preserve" text-anchor="middle" x="590.75" y="-570.45" font-family="Times New Roman,serif" font-size="14.00">Ptotal = 0, Ntotal = 0, Pcnt = 0, Ncnt = 0</text>
</g>
<!-- N2 -->
<g id="node2" class="node">
<title>N2</title>
<polygon fill="none" stroke="black" points="625.38,-520.5 556.12,-520.5 556.12,-484.5 625.38,-484.5 625.38,-520.5"/>
<text xml:space="preserve" text-anchor="middle" x="590.75" y="-497.45" font-family="Times New Roman,serif" font-size="14.00">Outer = 0</text>
</g>
<!-- N1&#45;&gt;N2 -->
<g id="edge1" class="edge">
<title>N1&#45;&gt;N2</title>
<path fill="none" stroke="black" d="M590.75,-557.31C590.75,-549.73 590.75,-540.6 590.75,-532.04"/>
<polygon fill="black" stroke="black" points="594.25,-532.04 590.75,-522.04 587.25,-532.04 594.25,-532.04"/>
</g>
<!-- N3 -->
<g id="node3" class="node">
<title>N3</title>
<polygon fill="none" stroke="black" points="652.38,-447.5 529.12,-447.5 529.12,-411.5 652.38,-411.5 652.38,-447.5"/>
<text xml:space="preserve" text-anchor="middle" x="590.75" y="-424.45" font-family="Times New Roman,serif" font-size="14.00">Outer &lt; MAXSIZE</text>
</g>
<!-- N2&#45;&gt;N3 -->
<g id="edge2" class="edge">
<title>N2&#45;&gt;N3</title>
<path fill="none" stroke="black" d="M590.75,-484.31C590.75,-476.73 590.75,-467.6 590.75,-459.04"/>
<polygon fill="black" stroke="black" points="594.25,-459.04 590.75,-449.04 587.25,-459.04 594.25,-459.04"/>
</g>
<!-- N4 -->
<g id="node4" class="node">
<title>N4</title>
<polygon fill="none" stroke="black" points="555.25,-359 488.25,-359 488.25,-323 555.25,-323 555.25,-359"/>
<text xml:space="preserve" text-anchor="middle" x="521.75" y="-335.95" font-family="Times New Roman,serif" font-size="14.00">Inner = 0</text>
</g>
<!-- N3&#45;&gt;N4 -->
<g id="edge3" class="edge">
<title>N3&#45;&gt;N4</title>
<path fill="none" stroke="black" d="M572.22,-411.35C566.67,-405.87 560.75,-399.63 555.75,-393.5 549.49,-385.83 543.32,-376.98 537.99,-368.81"/>
<polygon fill="black" stroke="black" points="541.08,-367.15 532.76,-360.58 535.17,-370.9 541.08,-367.15"/>
<text xml:space="preserve" text-anchor="middle" x="566.25" y="-380.2" font-family="Times New Roman,serif" font-size="14.00">true</text>
</g>
<!-- N11 -->
<g id="node11" class="node">
<title>N11</title>
<polygon fill="none" stroke="black" points="1000.75,-359 618.75,-359 618.75,-323 1000.75,-323 1000.75,-359"/>
<text xml:space="preserve" text-anchor="middle" x="809.75" y="-335.95" font-family="Times New Roman,serif" font-size="14.00">Postotal = Ptotal; Poscnt = Pcnt; Negtotal = Ntotal; Negcnt = Ncnt</text>
</g>
<!-- N3&#45;&gt;N11 -->
<g id="edge4" class="edge">
<title>N3&#45;&gt;N11</title>
<path fill="none" stroke="black" d="M634.8,-411.1C669.48,-397.4 717.98,-378.25 755.12,-363.58"/>
<polygon fill="black" stroke="black" points="756.34,-366.86 764.36,-359.93 753.77,-360.35 756.34,-366.86"/>
<text xml:space="preserve" text-anchor="middle" x="732.62" y="-380.2" font-family="Times New Roman,serif" font-size="14.00">false</text>
</g>
<!-- N5 -->
<g id="node5" class="node">
<title>N5</title>
<polygon fill="none" stroke="black" points="562.25,-286 441.25,-286 441.25,-250 562.25,-250 562.25,-286"/>
<text xml:space="preserve" text-anchor="middle" x="501.75" y="-262.95" font-family="Times New Roman,serif" font-size="14.00">Inner &lt; MAXSIZE</text>
</g>
<!-- N4&#45;&gt;N5 -->
<g id="edge5" class="edge">
<title>N4&#45;&gt;N5</title>
<path fill="none" stroke="black" d="M516.91,-322.81C514.72,-315.05 512.08,-305.68 509.62,-296.95"/>
<polygon fill="black" stroke="black" points="513.04,-296.16 506.96,-287.49 506.3,-298.06 513.04,-296.16"/>
</g>
<!-- N6 -->
<g id="node6" class="node">
<title>N6</title>
<polygon fill="none" stroke="black" points="435.38,-197.5 288.12,-197.5 288.12,-161.5 435.38,-161.5 435.38,-197.5"/>
<text xml:space="preserve" text-anchor="middle" x="361.75" y="-174.45" font-family="Times New Roman,serif" font-size="14.00">Array[Outer][Inner] &lt; 0</text>
</g>
<!-- N5&#45;&gt;N6 -->
<g id="edge6" class="edge">
<title>N5&#45;&gt;N6</title>
<path fill="none" stroke="black" d="M473.76,-249.7C452.39,-236.5 422.74,-218.18 399.31,-203.71"/>
<polygon fill="black" stroke="black" points="401.33,-200.84 390.98,-198.56 397.65,-206.8 401.33,-200.84"/>
<text xml:space="preserve" text-anchor="middle" x="454.79" y="-218.7" font-family="Times New Roman,serif" font-size="14.00">true</text>
</g>
<!-- N10 -->
<g id="node10" class="node">
<title>N10</title>
<polygon fill="none" stroke="black" points="610.38,-197.5 547.12,-197.5 547.12,-161.5 610.38,-161.5 610.38,-197.5"/>
<text xml:space="preserve" text-anchor="middle" x="578.75" y="-174.45" font-family="Times New Roman,serif" font-size="14.00">Outer++</text>
</g>
<!-- N5&#45;&gt;N10 -->
<g id="edge7" class="edge">
<title>N5&#45;&gt;N10</title>
<path fill="none" stroke="black" d="M516.96,-249.91C528.07,-237.43 543.32,-220.3 555.89,-206.18"/>
<polygon fill="black" stroke="black" points="558.26,-208.78 562.3,-198.98 553.04,-204.12 558.26,-208.78"/>
<text xml:space="preserve" text-anchor="middle" x="559.9" y="-218.7" font-family="Times New Roman,serif" font-size="14.00">false</text>
</g>
<!-- N7 -->
<g id="node7" class="node">
<title>N7</title>
<polygon fill="none" stroke="black" points="227.5,-109 0,-109 0,-73 227.5,-73 227.5,-109"/>
<text xml:space="preserve" text-anchor="middle" x="113.75" y="-85.95" font-family="Times New Roman,serif" font-size="14.00">Ptotal += Array[Outer][Inner]; Pcnt++</text>
</g>
<!-- N6&#45;&gt;N7 -->
<g id="edge8" class="edge">
<title>N6&#45;&gt;N7</title>
<path fill="none" stroke="black" d="M311.86,-161.1C272.18,-147.26 216.49,-127.84 174.26,-113.11"/>
<polygon fill="black" stroke="black" points="175.58,-109.86 164.99,-109.87 173.28,-116.47 175.58,-109.86"/>
<text xml:space="preserve" text-anchor="middle" x="270.46" y="-130.2" font-family="Times New Roman,serif" font-size="14.00">true</text>
</g>
<!-- N8 -->
<g id="node8" class="node">
<title>N8</title>
<polygon fill="none" stroke="black" points="477.75,-109 245.75,-109 245.75,-73 477.75,-73 477.75,-109"/>
<text xml:space="preserve" text-anchor="middle" x="361.75" y="-85.95" font-family="Times New Roman,serif" font-size="14.00">Ntotal += Array[Outer][Inner]; Ncnt++</text>
</g>
<!-- N6&#45;&gt;N8 -->
<g id="edge9" class="edge">
<title>N6&#45;&gt;N8</title>
<path fill="none" stroke="black" d="M361.75,-161.41C361.75,-149.76 361.75,-134.05 361.75,-120.52"/>
<polygon fill="black" stroke="black" points="365.25,-120.86 361.75,-110.86 358.25,-120.86 365.25,-120.86"/>
<text xml:space="preserve" text-anchor="middle" x="374.5" y="-130.2" font-family="Times New Roman,serif" font-size="14.00">false</text>
</g>
<!-- N9 -->
<g id="node9" class="node">
<title>N9</title>
<polygon fill="none" stroke="black" points="392.25,-36 331.25,-36 331.25,0 392.25,0 392.25,-36"/>
<text xml:space="preserve" text-anchor="middle" x="361.75" y="-12.95" font-family="Times New Roman,serif" font-size="14.00">Inner++</text>
</g>
<!-- N7&#45;&gt;N9 -->
<g id="edge10" class="edge">
<title>N7&#45;&gt;N9</title>
<path fill="none" stroke="black" d="M174.74,-72.54C219.87,-59.62 280.16,-42.36 319.94,-30.97"/>
<polygon fill="black" stroke="black" points="320.73,-34.39 329.38,-28.27 318.8,-27.66 320.73,-34.39"/>
</g>
<!-- N8&#45;&gt;N9 -->
<g id="edge11" class="edge">
<title>N8&#45;&gt;N9</title>
<path fill="none" stroke="black" d="M361.75,-72.81C361.75,-65.23 361.75,-56.1 361.75,-47.54"/>
<polygon fill="black" stroke="black" points="365.25,-47.54 361.75,-37.54 358.25,-47.54 365.25,-47.54"/>
</g>
<!-- N9&#45;&gt;N5 -->
<g id="edge12" class="edge">
<title>N9&#45;&gt;N5</title>
<path fill="none" stroke="black" d="M392.58,-23.21C421.98,-28.99 464.91,-42.41 486.75,-73 521.96,-122.31 515.19,-197.76 507.99,-238.51"/>
<polygon fill="black" stroke="black" points="504.57,-237.78 506.12,-248.26 511.44,-239.1 504.57,-237.78"/>
</g>
<!-- N10&#45;&gt;N3 -->
<g id="edge13" class="edge">
<title>N10&#45;&gt;N3</title>
<path fill="none" stroke="black" d="M579.59,-197.92C581.63,-240.05 586.85,-347.82 589.36,-399.72"/>
<polygon fill="black" stroke="black" points="585.85,-399.73 589.83,-409.55 592.85,-399.39 585.85,-399.73"/>
</g>
</g>
</svg>
