<?xml version="1.0" encoding="UTF-8" standalone="no"?>
<!DOCTYPE svg PUBLIC "-//W3C//DTD SVG 1.1//EN"
 "http://www.w3.org/Graphics/SVG/1.1/DTD/svg11.dtd">
<!-- Generated by graphviz version 13.1.2 (20250808.2320)
 -->
<!-- Title: CFG_my_abs Pages: 1 -->
<svg width="170pt" height="352pt"
 viewBox="0.00 0.00 170.00 352.00" xmlns="http://www.w3.org/2000/svg" xmlns:xlink="http://www.w3.org/1999/xlink">
<g id="graph0" class="graph" transform="scale(1 1) rotate(0) translate(4 347.5)">
<title>CFG_my_abs</title>
<polygon fill="white" stroke="none" points="-4,4 -4,-347.5 165.5,-347.5 165.5,4 -4,4"/>
<!-- entry -->
<g id="node1" class="node">
<title>entry</title>
<polygon fill="none" stroke="black" points="161.5,-343.5 0,-343.5 0,-307.5 161.5,-307.5 161.5,-343.5"/>
<text xml:space="preserve" text-anchor="middle" x="80.75" y="-320.45" font-family="Times New Roman,serif" font-size="14.00">ENTRY: int my_abs(int n)</text>
</g>
<!-- cond -->
<g id="node2" class="node">
<title>cond</title>
<polygon fill="none" stroke="black" points="118,-270.5 43.5,-270.5 43.5,-234.5 118,-234.5 118,-270.5"/>
<text xml:space="preserve" text-anchor="middle" x="80.75" y="-247.45" font-family="Times New Roman,serif" font-size="14.00">if (n &gt;= 0)</text>
</g>
<!-- entry&#45;&gt;cond -->
<g id="edge1" class="edge">
<title>entry&#45;&gt;cond</title>
<path fill="none" stroke="black" d="M80.75,-307.31C80.75,-299.73 80.75,-290.6 80.75,-282.04"/>
<polygon fill="black" stroke="black" points="84.25,-282.04 80.75,-272.04 77.25,-282.04 84.25,-282.04"/>
</g>
<!-- true -->
<g id="node3" class="node">
<title>true</title>
<polygon fill="none" stroke="black" points="72.75,-182 18.75,-182 18.75,-146 72.75,-146 72.75,-182"/>
<text xml:space="preserve" text-anchor="middle" x="45.75" y="-158.95" font-family="Times New Roman,serif" font-size="14.00">m = n</text>
</g>
<!-- cond&#45;&gt;true -->
<g id="edge2" class="edge">
<title>cond&#45;&gt;true</title>
<path fill="none" stroke="black" d="M72.19,-234.2C69.53,-228.6 66.67,-222.33 64.25,-216.5 61.12,-208.95 58.01,-200.66 55.25,-192.98"/>
<polygon fill="black" stroke="black" points="58.63,-192.03 52.01,-183.75 52.02,-194.35 58.63,-192.03"/>
<text xml:space="preserve" text-anchor="middle" x="77" y="-203.2" font-family="Times New Roman,serif" font-size="14.00">True</text>
</g>
<!-- false -->
<g id="node4" class="node">
<title>false</title>
<polygon fill="none" stroke="black" points="144.88,-182 90.62,-182 90.62,-146 144.88,-146 144.88,-182"/>
<text xml:space="preserve" text-anchor="middle" x="117.75" y="-158.95" font-family="Times New Roman,serif" font-size="14.00">m = &#45;n</text>
</g>
<!-- cond&#45;&gt;false -->
<g id="edge3" class="edge">
<title>cond&#45;&gt;false</title>
<path fill="none" stroke="black" d="M88.06,-234.41C93.15,-222.52 100.04,-206.41 105.9,-192.7"/>
<polygon fill="black" stroke="black" points="109.02,-194.31 109.73,-183.74 102.58,-191.56 109.02,-194.31"/>
<text xml:space="preserve" text-anchor="middle" x="116.81" y="-203.2" font-family="Times New Roman,serif" font-size="14.00">False</text>
</g>
<!-- return -->
<g id="node5" class="node">
<title>return</title>
<polygon fill="none" stroke="black" points="112.38,-109 49.12,-109 49.12,-73 112.38,-73 112.38,-109"/>
<text xml:space="preserve" text-anchor="middle" x="80.75" y="-85.95" font-family="Times New Roman,serif" font-size="14.00">return m</text>
</g>
<!-- true&#45;&gt;return -->
<g id="edge4" class="edge">
<title>true&#45;&gt;return</title>
<path fill="none" stroke="black" d="M54.22,-145.81C58.18,-137.79 62.98,-128.05 67.41,-119.07"/>
<polygon fill="black" stroke="black" points="70.4,-120.9 71.69,-110.39 64.13,-117.81 70.4,-120.9"/>
</g>
<!-- false&#45;&gt;return -->
<g id="edge5" class="edge">
<title>false&#45;&gt;return</title>
<path fill="none" stroke="black" d="M108.79,-145.81C104.61,-137.79 99.54,-128.05 94.86,-119.07"/>
<polygon fill="black" stroke="black" points="98.05,-117.62 90.32,-110.37 91.84,-120.86 98.05,-117.62"/>
</g>
<!-- exit -->
<g id="node6" class="node">
<title>exit</title>
<polygon fill="none" stroke="black" points="107.75,-36 53.75,-36 53.75,0 107.75,0 107.75,-36"/>
<text xml:space="preserve" text-anchor="middle" x="80.75" y="-12.95" font-family="Times New Roman,serif" font-size="14.00">EXIT</text>
</g>
<!-- return&#45;&gt;exit -->
<g id="edge6" class="edge">
<title>return&#45;&gt;exit</title>
<path fill="none" stroke="black" d="M80.75,-72.81C80.75,-65.23 80.75,-56.1 80.75,-47.54"/>
<polygon fill="black" stroke="black" points="84.25,-47.54 80.75,-37.54 77.25,-47.54 84.25,-47.54"/>
</g>
</g>
</svg>
