<?xml version="1.0" encoding="UTF-8" standalone="no"?>
<!DOCTYPE svg PUBLIC "-//W3C//DTD SVG 1.1//EN"
 "http://www.w3.org/Graphics/SVG/1.1/DTD/svg11.dtd">
<!-- Generated by graphviz version 13.1.2 (20250808.2320)
 -->
<!-- Title: DFG_my_abs Pages: 1 -->
<svg width="168pt" height="279pt"
 viewBox="0.00 0.00 168.00 279.00" xmlns="http://www.w3.org/2000/svg" xmlns:xlink="http://www.w3.org/1999/xlink">
<g id="graph0" class="graph" transform="scale(1 1) rotate(0) translate(4 274.5)">
<title>DFG_my_abs</title>
<polygon fill="white" stroke="none" points="-4,4 -4,-274.5 163.97,-274.5 163.97,4 -4,4"/>
<!-- n -->
<g id="node1" class="node">
<title>n</title>
<ellipse fill="none" stroke="black" cx="78.95" cy="-252.5" rx="43.16" ry="18"/>
<text xml:space="preserve" text-anchor="middle" x="78.95" y="-247.45" font-family="Times New Roman,serif" font-size="14.00">n (input)</text>
</g>
<!-- cond -->
<g id="node3" class="node">
<title>cond</title>
<polygon fill="none" stroke="black" points="78.95,-197.5 27.32,-179.5 78.95,-161.5 130.58,-179.5 78.95,-197.5"/>
<text xml:space="preserve" text-anchor="middle" x="78.95" y="-174.45" font-family="Times New Roman,serif" font-size="14.00">n &gt;= 0</text>
</g>
<!-- n&#45;&gt;cond -->
<g id="edge1" class="edge">
<title>n&#45;&gt;cond</title>
<path fill="none" stroke="black" d="M78.95,-234.31C78.95,-226.84 78.95,-217.87 78.95,-209.42"/>
<polygon fill="black" stroke="black" points="82.45,-209.54 78.95,-199.54 75.45,-209.54 82.45,-209.54"/>
</g>
<!-- true_op -->
<g id="node4" class="node">
<title>true_op</title>
<ellipse fill="none" stroke="black" cx="33.95" cy="-91" rx="33.95" ry="18"/>
<text xml:space="preserve" text-anchor="middle" x="33.95" y="-85.95" font-family="Times New Roman,serif" font-size="14.00">m = n</text>
</g>
<!-- n&#45;&gt;true_op -->
<g id="edge2" class="edge">
<title>n&#45;&gt;true_op</title>
<path fill="none" stroke="black" d="M54.65,-237.32C41.11,-227.93 25.5,-214.27 17.95,-197.5 6.74,-172.61 13.73,-141.43 21.69,-119.44"/>
<polygon fill="black" stroke="black" points="24.89,-120.86 25.29,-110.27 18.38,-118.3 24.89,-120.86"/>
</g>
<!-- false_op -->
<g id="node5" class="node">
<title>false_op</title>
<ellipse fill="none" stroke="black" cx="122.95" cy="-91" rx="37.02" ry="18"/>
<text xml:space="preserve" text-anchor="middle" x="122.95" y="-85.95" font-family="Times New Roman,serif" font-size="14.00">m = &#45;n</text>
</g>
<!-- n&#45;&gt;false_op -->
<g id="edge3" class="edge">
<title>n&#45;&gt;false_op</title>
<path fill="none" stroke="black" d="M103.25,-237.32C116.79,-227.93 132.4,-214.27 139.95,-197.5 151.17,-172.58 143.85,-141.4 135.61,-119.42"/>
<polygon fill="black" stroke="black" points="138.89,-118.2 131.88,-110.25 132.4,-120.83 138.89,-118.2"/>
</g>
<!-- m -->
<g id="node2" class="node">
<title>m</title>
<ellipse fill="none" stroke="black" cx="77.95" cy="-18" rx="50.84" ry="18"/>
<text xml:space="preserve" text-anchor="middle" x="77.95" y="-12.95" font-family="Times New Roman,serif" font-size="14.00">m (output)</text>
</g>
<!-- cond&#45;&gt;true_op -->
<g id="edge4" class="edge">
<title>cond&#45;&gt;true_op</title>
<path fill="none" stroke="black" d="M71.32,-163.83C64.94,-151.57 55.68,-133.77 47.97,-118.96"/>
<polygon fill="black" stroke="black" points="51.12,-117.42 43.4,-110.17 44.91,-120.65 51.12,-117.42"/>
<text xml:space="preserve" text-anchor="middle" x="73.23" y="-130.2" font-family="Times New Roman,serif" font-size="14.00">True</text>
</g>
<!-- cond&#45;&gt;false_op -->
<g id="edge5" class="edge">
<title>cond&#45;&gt;false_op</title>
<path fill="none" stroke="black" d="M86.41,-163.83C92.65,-151.57 101.7,-133.77 109.24,-118.96"/>
<polygon fill="black" stroke="black" points="112.29,-120.67 113.71,-110.17 106.05,-117.5 112.29,-120.67"/>
<text xml:space="preserve" text-anchor="middle" x="119.14" y="-130.2" font-family="Times New Roman,serif" font-size="14.00">False</text>
</g>
<!-- true_op&#45;&gt;m -->
<g id="edge6" class="edge">
<title>true_op&#45;&gt;m</title>
<path fill="none" stroke="black" d="M44.16,-73.53C49.3,-65.23 55.67,-54.95 61.48,-45.57"/>
<polygon fill="black" stroke="black" points="64.4,-47.5 66.7,-37.16 58.45,-43.81 64.4,-47.5"/>
</g>
<!-- false_op&#45;&gt;m -->
<g id="edge7" class="edge">
<title>false_op&#45;&gt;m</title>
<path fill="none" stroke="black" d="M112.51,-73.53C107.25,-65.23 100.74,-54.95 94.79,-45.57"/>
<polygon fill="black" stroke="black" points="97.76,-43.72 89.45,-37.15 91.85,-47.47 97.76,-43.72"/>
</g>
</g>
</svg>
