<?xml version="1.0" encoding="UTF-8" standalone="no"?>
<!DOCTYPE svg PUBLIC "-//W3C//DTD SVG 1.1//EN"
 "http://www.w3.org/Graphics/SVG/1.1/DTD/svg11.dtd">
<!-- Generated by graphviz version 13.1.2 (20250808.2320)
 -->
<!-- Title: fib_CFG Pages: 1 -->
<svg width="496pt" height="521pt"
 viewBox="0.00 0.00 496.00 521.00" xmlns="http://www.w3.org/2000/svg" xmlns:xlink="http://www.w3.org/1999/xlink">
<g id="graph0" class="graph" transform="scale(1 1) rotate(0) translate(4 516.73)">
<title>fib_CFG</title>
<polygon fill="white" stroke="none" points="-4,4 -4,-516.73 491.5,-516.73 491.5,4 -4,4"/>
<!-- N1 -->
<g id="node1" class="node">
<title>N1</title>
<path fill="none" stroke="black" d="M440.25,-512.73C440.25,-512.73 267.5,-512.73 267.5,-512.73 261.5,-512.73 255.5,-506.73 255.5,-500.73 255.5,-500.73 255.5,-488.73 255.5,-488.73 255.5,-482.73 261.5,-476.73 267.5,-476.73 267.5,-476.73 440.25,-476.73 440.25,-476.73 446.25,-476.73 452.25,-482.73 452.25,-488.73 452.25,-488.73 452.25,-500.73 452.25,-500.73 452.25,-506.73 446.25,-512.73 440.25,-512.73"/>
<text xml:space="preserve" text-anchor="middle" x="353.88" y="-489.31" font-family="Helvetica,sans-Serif" font-size="14.00">1: int i, Fnew, Fold, temp, ans;</text>
</g>
<!-- N2 -->
<g id="node2" class="node">
<title>N2</title>
<path fill="none" stroke="black" d="M415.88,-439.73C415.88,-439.73 291.88,-439.73 291.88,-439.73 285.88,-439.73 279.88,-433.73 279.88,-427.73 279.88,-427.73 279.88,-415.73 279.88,-415.73 279.88,-409.73 285.88,-403.73 291.88,-403.73 291.88,-403.73 415.88,-403.73 415.88,-403.73 421.88,-403.73 427.88,-409.73 427.88,-415.73 427.88,-415.73 427.88,-427.73 427.88,-427.73 427.88,-433.73 421.88,-439.73 415.88,-439.73"/>
<text xml:space="preserve" text-anchor="middle" x="353.88" y="-416.31" font-family="Helvetica,sans-Serif" font-size="14.00">2: Fnew = 1; Fold = 0;</text>
</g>
<!-- N1&#45;&gt;N2 -->
<g id="edge1" class="edge">
<title>N1&#45;&gt;N2</title>
<path fill="none" stroke="black" d="M353.88,-476.54C353.88,-468.96 353.88,-459.83 353.88,-451.27"/>
<polygon fill="black" stroke="black" points="357.38,-451.27 353.88,-441.27 350.38,-451.27 357.38,-451.27"/>
</g>
<!-- N3 -->
<g id="node3" class="node">
<title>N3</title>
<path fill="none" stroke="black" d="M372.38,-366.73C372.38,-366.73 335.38,-366.73 335.38,-366.73 329.38,-366.73 323.38,-360.73 323.38,-354.73 323.38,-354.73 323.38,-342.73 323.38,-342.73 323.38,-336.73 329.38,-330.73 335.38,-330.73 335.38,-330.73 372.38,-330.73 372.38,-330.73 378.38,-330.73 384.38,-336.73 384.38,-342.73 384.38,-342.73 384.38,-354.73 384.38,-354.73 384.38,-360.73 378.38,-366.73 372.38,-366.73"/>
<text xml:space="preserve" text-anchor="middle" x="353.88" y="-343.31" font-family="Helvetica,sans-Serif" font-size="14.00">3: i = 2;</text>
</g>
<!-- N2&#45;&gt;N3 -->
<g id="edge2" class="edge">
<title>N2&#45;&gt;N3</title>
<path fill="none" stroke="black" d="M353.88,-403.54C353.88,-395.96 353.88,-386.83 353.88,-378.27"/>
<polygon fill="black" stroke="black" points="357.38,-378.27 353.88,-368.27 350.38,-378.27 357.38,-378.27"/>
</g>
<!-- N4 -->
<g id="node4" class="node">
<title>N4</title>
<path fill="none" stroke="black" d="M439.12,-293.73C439.12,-293.73 268.62,-293.73 268.62,-293.73 262.62,-293.73 256.62,-287.73 256.62,-281.73 256.62,-281.73 256.62,-269.73 256.62,-269.73 256.62,-263.73 262.62,-257.73 268.62,-257.73 268.62,-257.73 439.12,-257.73 439.12,-257.73 445.12,-257.73 451.12,-263.73 451.12,-269.73 451.12,-269.73 451.12,-281.73 451.12,-281.73 451.12,-287.73 445.12,-293.73 439.12,-293.73"/>
<text xml:space="preserve" text-anchor="middle" x="353.88" y="-270.31" font-family="Helvetica,sans-Serif" font-size="14.00">4: condition: i &lt;= 30 &amp;&amp; i &lt;= n</text>
</g>
<!-- N3&#45;&gt;N4 -->
<g id="edge3" class="edge">
<title>N3&#45;&gt;N4</title>
<path fill="none" stroke="black" d="M353.88,-330.54C353.88,-322.96 353.88,-313.83 353.88,-305.27"/>
<polygon fill="black" stroke="black" points="357.38,-305.27 353.88,-295.27 350.38,-305.27 357.38,-305.27"/>
</g>
<!-- N5 -->
<g id="node5" class="node">
<title>N5</title>
<path fill="none" stroke="black" d="M313.75,-205.23C313.75,-205.23 12,-205.23 12,-205.23 6,-205.23 0,-199.23 0,-193.23 0,-193.23 0,-181.23 0,-181.23 0,-175.23 6,-169.23 12,-169.23 12,-169.23 313.75,-169.23 313.75,-169.23 319.75,-169.23 325.75,-175.23 325.75,-181.23 325.75,-181.23 325.75,-193.23 325.75,-193.23 325.75,-199.23 319.75,-205.23 313.75,-205.23"/>
<text xml:space="preserve" text-anchor="middle" x="162.88" y="-181.81" font-family="Helvetica,sans-Serif" font-size="14.00">5: temp = Fnew; Fnew = Fnew + Fold; Fold = temp;</text>
</g>
<!-- N4&#45;&gt;N5 -->
<g id="edge4" class="edge">
<title>N4&#45;&gt;N5</title>
<path fill="none" stroke="black" d="M315.68,-257.43C285.72,-243.86 243.82,-224.89 211.47,-210.24"/>
<polygon fill="black" stroke="black" points="213.26,-207.21 202.71,-206.27 210.37,-213.58 213.26,-207.21"/>
<text xml:space="preserve" text-anchor="middle" x="285.98" y="-226.43" font-family="Times New Roman,serif" font-size="14.00">true</text>
</g>
<!-- N7 -->
<g id="node7" class="node">
<title>N7</title>
<path fill="none" stroke="black" d="M475.5,-205.23C475.5,-205.23 394.25,-205.23 394.25,-205.23 388.25,-205.23 382.25,-199.23 382.25,-193.23 382.25,-193.23 382.25,-181.23 382.25,-181.23 382.25,-175.23 388.25,-169.23 394.25,-169.23 394.25,-169.23 475.5,-169.23 475.5,-169.23 481.5,-169.23 487.5,-175.23 487.5,-181.23 487.5,-181.23 487.5,-193.23 487.5,-193.23 487.5,-199.23 481.5,-205.23 475.5,-205.23"/>
<text xml:space="preserve" text-anchor="middle" x="434.88" y="-181.81" font-family="Helvetica,sans-Serif" font-size="14.00">7: ans = Fnew;</text>
</g>
<!-- N4&#45;&gt;N7 -->
<g id="edge5" class="edge">
<title>N4&#45;&gt;N7</title>
<path fill="none" stroke="black" d="M369.88,-257.64C381.56,-245.16 397.6,-228.03 410.82,-213.91"/>
<polygon fill="black" stroke="black" points="413.31,-216.38 417.59,-206.69 408.2,-211.59 413.31,-216.38"/>
<text xml:space="preserve" text-anchor="middle" x="414.38" y="-226.43" font-family="Times New Roman,serif" font-size="14.00">false</text>
</g>
<!-- N6 -->
<g id="node6" class="node">
<title>N6</title>
<path fill="none" stroke="black" d="M308.88,-132.23C308.88,-132.23 278.88,-132.23 278.88,-132.23 272.88,-132.23 266.88,-126.23 266.88,-120.23 266.88,-120.23 266.88,-108.23 266.88,-108.23 266.88,-102.23 272.88,-96.23 278.88,-96.23 278.88,-96.23 308.88,-96.23 308.88,-96.23 314.88,-96.23 320.88,-102.23 320.88,-108.23 320.88,-108.23 320.88,-120.23 320.88,-120.23 320.88,-126.23 314.88,-132.23 308.88,-132.23"/>
<text xml:space="preserve" text-anchor="middle" x="293.88" y="-108.81" font-family="Helvetica,sans-Serif" font-size="14.00">6: i++</text>
</g>
<!-- N5&#45;&gt;N6 -->
<g id="edge6" class="edge">
<title>N5&#45;&gt;N6</title>
<path fill="none" stroke="black" d="M194.92,-168.86C213.54,-158.77 237.09,-146.01 256.55,-135.46"/>
<polygon fill="black" stroke="black" points="258.13,-138.58 265.26,-130.74 254.8,-132.43 258.13,-138.58"/>
</g>
<!-- N6&#45;&gt;N4 -->
<g id="edge7" class="edge">
<title>N6&#45;&gt;N4</title>
<path fill="none" stroke="black" d="M310.24,-132.36C318.89,-142.36 328.91,-155.65 334.88,-169.23 345.68,-193.84 350.34,-224.27 352.35,-246.12"/>
<polygon fill="black" stroke="black" points="348.86,-246.36 353.12,-256.07 355.84,-245.83 348.86,-246.36"/>
</g>
<!-- N8 -->
<g id="node8" class="node">
<title>N8</title>
<path fill="none" stroke="black" d="M470.62,-132.23C470.62,-132.23 399.12,-132.23 399.12,-132.23 393.12,-132.23 387.12,-126.23 387.12,-120.23 387.12,-120.23 387.12,-108.23 387.12,-108.23 387.12,-102.23 393.12,-96.23 399.12,-96.23 399.12,-96.23 470.62,-96.23 470.62,-96.23 476.62,-96.23 482.62,-102.23 482.62,-108.23 482.62,-108.23 482.62,-120.23 482.62,-120.23 482.62,-126.23 476.62,-132.23 470.62,-132.23"/>
<text xml:space="preserve" text-anchor="middle" x="434.88" y="-108.81" font-family="Helvetica,sans-Serif" font-size="14.00">8: return ans;</text>
</g>
<!-- N7&#45;&gt;N8 -->
<g id="edge8" class="edge">
<title>N7&#45;&gt;N8</title>
<path fill="none" stroke="black" d="M434.88,-169.04C434.88,-161.46 434.88,-152.33 434.88,-143.77"/>
<polygon fill="black" stroke="black" points="438.38,-143.77 434.88,-133.77 431.38,-143.77 438.38,-143.77"/>
</g>
<!-- N9 -->
<g id="node9" class="node">
<title>N9</title>
<ellipse fill="none" stroke="black" cx="434.88" cy="-29.62" rx="25.62" ry="25.62"/>
<ellipse fill="none" stroke="black" cx="434.88" cy="-29.62" rx="29.62" ry="29.62"/>
<text xml:space="preserve" text-anchor="middle" x="434.88" y="-24.19" font-family="Helvetica,sans-Serif" font-size="14.00">Exit</text>
</g>
<!-- N8&#45;&gt;N9 -->
<g id="edge9" class="edge">
<title>N8&#45;&gt;N9</title>
<path fill="none" stroke="black" d="M434.88,-96.11C434.88,-88.75 434.88,-79.81 434.88,-70.93"/>
<polygon fill="black" stroke="black" points="438.38,-70.94 434.88,-60.94 431.38,-70.94 438.38,-70.94"/>
</g>
</g>
</svg>
