<?xml version="1.0" encoding="UTF-8" standalone="no"?>
<!DOCTYPE svg PUBLIC "-//W3C//DTD SVG 1.1//EN"
 "http://www.w3.org/Graphics/SVG/1.1/DTD/svg11.dtd">
<!-- Generated by graphviz version 13.1.2 (20250808.2320)
 -->
<!-- Title: fib_DFG Pages: 1 -->
<svg width="512pt" height="548pt"
 viewBox="0.00 0.00 512.00 548.00" xmlns="http://www.w3.org/2000/svg" xmlns:xlink="http://www.w3.org/1999/xlink">
<g id="graph0" class="graph" transform="scale(1 1) rotate(0) translate(4 544)">
<title>fib_DFG</title>
<polygon fill="white" stroke="none" points="-4,4 -4,-544 508,-544 508,4 -4,4"/>
<!-- n -->
<g id="node1" class="node">
<title>n</title>
<ellipse fill="lightblue" stroke="black" cx="27" cy="-378" rx="27" ry="18"/>
<text xml:space="preserve" text-anchor="middle" x="27" y="-372.95" font-family="Times New Roman,serif" font-size="14.00">n</text>
</g>
<!-- op_ltn -->
<g id="node10" class="node">
<title>op_ltn</title>
<polygon fill="none" stroke="black" points="54,-324 0,-324 0,-288 54,-288 54,-324"/>
<text xml:space="preserve" text-anchor="middle" x="27" y="-300.95" font-family="Times New Roman,serif" font-size="14.00">&lt;=</text>
</g>
<!-- n&#45;&gt;op_ltn -->
<g id="edge11" class="edge">
<title>n&#45;&gt;op_ltn</title>
<path fill="none" stroke="black" d="M27,-359.7C27,-352.41 27,-343.73 27,-335.54"/>
<polygon fill="black" stroke="black" points="30.5,-335.62 27,-325.62 23.5,-335.62 30.5,-335.62"/>
</g>
<!-- const_1 -->
<g id="node2" class="node">
<title>const_1</title>
<ellipse fill="lightblue" stroke="black" cx="292" cy="-522" rx="27" ry="18"/>
<text xml:space="preserve" text-anchor="middle" x="292" y="-516.95" font-family="Times New Roman,serif" font-size="14.00">1</text>
</g>
<!-- op_init_fnew -->
<g id="node5" class="node">
<title>op_init_fnew</title>
<polygon fill="none" stroke="black" points="319,-468 265,-468 265,-432 319,-432 319,-468"/>
<text xml:space="preserve" text-anchor="middle" x="292" y="-444.95" font-family="Times New Roman,serif" font-size="14.00">=</text>
</g>
<!-- const_1&#45;&gt;op_init_fnew -->
<g id="edge1" class="edge">
<title>const_1&#45;&gt;op_init_fnew</title>
<path fill="none" stroke="black" d="M292,-503.7C292,-496.41 292,-487.73 292,-479.54"/>
<polygon fill="black" stroke="black" points="295.5,-479.62 292,-469.62 288.5,-479.62 295.5,-479.62"/>
</g>
<!-- const_0 -->
<g id="node3" class="node">
<title>const_0</title>
<ellipse fill="lightblue" stroke="black" cx="477" cy="-234" rx="27" ry="18"/>
<text xml:space="preserve" text-anchor="middle" x="477" y="-228.95" font-family="Times New Roman,serif" font-size="14.00">0</text>
</g>
<!-- op_init_fold -->
<g id="node6" class="node">
<title>op_init_fold</title>
<polygon fill="none" stroke="black" points="466,-180 412,-180 412,-144 466,-144 466,-180"/>
<text xml:space="preserve" text-anchor="middle" x="439" y="-156.95" font-family="Times New Roman,serif" font-size="14.00">=</text>
</g>
<!-- const_0&#45;&gt;op_init_fold -->
<g id="edge3" class="edge">
<title>const_0&#45;&gt;op_init_fold</title>
<path fill="none" stroke="black" d="M468.19,-216.76C463.9,-208.87 458.63,-199.16 453.76,-190.18"/>
<polygon fill="black" stroke="black" points="456.86,-188.57 449.02,-181.45 450.71,-191.91 456.86,-188.57"/>
</g>
<!-- const_2 -->
<g id="node4" class="node">
<title>const_2</title>
<ellipse fill="lightblue" stroke="black" cx="99" cy="-522" rx="27" ry="18"/>
<text xml:space="preserve" text-anchor="middle" x="99" y="-516.95" font-family="Times New Roman,serif" font-size="14.00">2</text>
</g>
<!-- op_init_i -->
<g id="node7" class="node">
<title>op_init_i</title>
<polygon fill="none" stroke="black" points="126,-468 72,-468 72,-432 126,-432 126,-468"/>
<text xml:space="preserve" text-anchor="middle" x="99" y="-444.95" font-family="Times New Roman,serif" font-size="14.00">=</text>
</g>
<!-- const_2&#45;&gt;op_init_i -->
<g id="edge5" class="edge">
<title>const_2&#45;&gt;op_init_i</title>
<path fill="none" stroke="black" d="M99,-503.7C99,-496.41 99,-487.73 99,-479.54"/>
<polygon fill="black" stroke="black" points="102.5,-479.62 99,-469.62 95.5,-479.62 102.5,-479.62"/>
</g>
<!-- Fnew -->
<g id="node17" class="node">
<title>Fnew</title>
<ellipse fill="lightgreen" stroke="black" cx="292" cy="-378" rx="31.39" ry="18"/>
<text xml:space="preserve" text-anchor="middle" x="292" y="-372.95" font-family="Times New Roman,serif" font-size="14.00">Fnew</text>
</g>
<!-- op_init_fnew&#45;&gt;Fnew -->
<g id="edge2" class="edge">
<title>op_init_fnew&#45;&gt;Fnew</title>
<path fill="none" stroke="black" d="M292,-431.7C292,-424.41 292,-415.73 292,-407.54"/>
<polygon fill="black" stroke="black" points="295.5,-407.62 292,-397.62 288.5,-407.62 295.5,-407.62"/>
</g>
<!-- Fold -->
<g id="node18" class="node">
<title>Fold</title>
<ellipse fill="lightgreen" stroke="black" cx="330" cy="-90" rx="27.81" ry="18"/>
<text xml:space="preserve" text-anchor="middle" x="330" y="-84.95" font-family="Times New Roman,serif" font-size="14.00">Fold</text>
</g>
<!-- op_init_fold&#45;&gt;Fold -->
<g id="edge4" class="edge">
<title>op_init_fold&#45;&gt;Fold</title>
<path fill="none" stroke="black" d="M411.78,-143.52C395.69,-133.19 375.34,-120.12 358.96,-109.6"/>
<polygon fill="black" stroke="black" points="360.93,-106.7 350.63,-104.25 357.15,-112.59 360.93,-106.7"/>
</g>
<!-- i -->
<g id="node19" class="node">
<title>i</title>
<ellipse fill="lightgreen" stroke="black" cx="99" cy="-378" rx="27" ry="18"/>
<text xml:space="preserve" text-anchor="middle" x="99" y="-372.95" font-family="Times New Roman,serif" font-size="14.00">i</text>
</g>
<!-- op_init_i&#45;&gt;i -->
<g id="edge6" class="edge">
<title>op_init_i&#45;&gt;i</title>
<path fill="none" stroke="black" d="M99,-431.7C99,-424.41 99,-415.73 99,-407.54"/>
<polygon fill="black" stroke="black" points="102.5,-407.62 99,-397.62 95.5,-407.62 102.5,-407.62"/>
</g>
<!-- op_cond -->
<g id="node8" class="node">
<title>op_cond</title>
<polygon fill="none" stroke="black" points="143,-252 89,-252 89,-216 143,-216 143,-252"/>
<text xml:space="preserve" text-anchor="middle" x="116" y="-228.95" font-family="Times New Roman,serif" font-size="14.00">&amp;&amp;</text>
</g>
<!-- loop_body -->
<g id="node21" class="node">
<title>loop_body</title>
<ellipse fill="lightgreen" stroke="black" cx="116" cy="-162" rx="50.33" ry="18"/>
<text xml:space="preserve" text-anchor="middle" x="116" y="-156.95" font-family="Times New Roman,serif" font-size="14.00">loop_body</text>
</g>
<!-- op_cond&#45;&gt;loop_body -->
<!-- op_lt30 -->
<g id="node9" class="node">
<title>op_lt30</title>
<polygon fill="none" stroke="black" points="198,-324 144,-324 144,-288 198,-288 198,-324"/>
<text xml:space="preserve" text-anchor="middle" x="171" y="-300.95" font-family="Times New Roman,serif" font-size="14.00">&lt;=</text>
</g>
<!-- op_lt30&#45;&gt;op_cond -->
<g id="edge9" class="edge">
<title>op_lt30&#45;&gt;op_cond</title>
<path fill="none" stroke="black" d="M157.4,-287.7C151.08,-279.64 143.42,-269.89 136.41,-260.98"/>
<polygon fill="black" stroke="black" points="139.3,-259 130.37,-253.29 133.8,-263.32 139.3,-259"/>
</g>
<!-- op_ltn&#45;&gt;op_cond -->
<g id="edge12" class="edge">
<title>op_ltn&#45;&gt;op_cond</title>
<path fill="none" stroke="black" d="M49,-287.7C59.91,-279.11 73.27,-268.61 85.18,-259.24"/>
<polygon fill="black" stroke="black" points="87.06,-262.22 92.75,-253.28 82.73,-256.71 87.06,-262.22"/>
</g>
<!-- op_temp -->
<g id="node11" class="node">
<title>op_temp</title>
<polygon fill="none" stroke="black" points="356,-324 302,-324 302,-288 356,-288 356,-324"/>
<text xml:space="preserve" text-anchor="middle" x="329" y="-300.95" font-family="Times New Roman,serif" font-size="14.00">=</text>
</g>
<!-- temp -->
<g id="node22" class="node">
<title>temp</title>
<ellipse fill="lightgreen" stroke="black" cx="330" cy="-234" rx="29.86" ry="18"/>
<text xml:space="preserve" text-anchor="middle" x="330" y="-228.95" font-family="Times New Roman,serif" font-size="14.00">temp</text>
</g>
<!-- op_temp&#45;&gt;temp -->
<g id="edge15" class="edge">
<title>op_temp&#45;&gt;temp</title>
<path fill="none" stroke="black" d="M329.25,-287.7C329.35,-280.41 329.48,-271.73 329.59,-263.54"/>
<polygon fill="black" stroke="black" points="333.09,-263.67 329.73,-253.62 326.09,-263.57 333.09,-263.67"/>
</g>
<!-- op_add -->
<g id="node12" class="node">
<title>op_add</title>
<polygon fill="none" stroke="black" points="290,-36 236,-36 236,0 290,0 290,-36"/>
<text xml:space="preserve" text-anchor="middle" x="263" y="-12.95" font-family="Times New Roman,serif" font-size="14.00">+</text>
</g>
<!-- op_add&#45;&gt;Fnew -->
<g id="edge18" class="edge">
<title>op_add&#45;&gt;Fnew</title>
<path fill="none" stroke="black" d="M268.77,-36.49C272,-63.29 272,-116.13 272,-161 272,-235 272,-235 272,-235 272,-275.07 283.22,-320.24 289.54,-348.65"/>
<polygon fill="black" stroke="black" points="286.08,-349.21 291.58,-358.26 292.92,-347.75 286.08,-349.21"/>
</g>
<!-- op_assign_fold -->
<g id="node13" class="node">
<title>op_assign_fold</title>
<polygon fill="none" stroke="black" points="357,-180 303,-180 303,-144 357,-144 357,-180"/>
<text xml:space="preserve" text-anchor="middle" x="330" y="-156.95" font-family="Times New Roman,serif" font-size="14.00">=</text>
</g>
<!-- op_assign_fold&#45;&gt;Fold -->
<g id="edge20" class="edge">
<title>op_assign_fold&#45;&gt;Fold</title>
<path fill="none" stroke="black" d="M330,-143.7C330,-136.41 330,-127.73 330,-119.54"/>
<polygon fill="black" stroke="black" points="333.5,-119.62 330,-109.62 326.5,-119.62 333.5,-119.62"/>
</g>
<!-- op_inc_i -->
<g id="node14" class="node">
<title>op_inc_i</title>
<polygon fill="none" stroke="black" points="126,-324 72,-324 72,-288 126,-288 126,-324"/>
<text xml:space="preserve" text-anchor="middle" x="99" y="-300.95" font-family="Times New Roman,serif" font-size="14.00">++</text>
</g>
<!-- op_inc_i&#45;&gt;i -->
<g id="edge22" class="edge">
<title>op_inc_i&#45;&gt;i</title>
<path fill="none" stroke="black" d="M104.91,-324.28C105.67,-331.6 105.91,-340.34 105.64,-348.57"/>
<polygon fill="black" stroke="black" points="102.15,-348.33 104.98,-358.54 109.14,-348.8 102.15,-348.33"/>
</g>
<!-- op_ans -->
<g id="node15" class="node">
<title>op_ans</title>
<polygon fill="none" stroke="black" points="431,-324 377,-324 377,-288 431,-288 431,-324"/>
<text xml:space="preserve" text-anchor="middle" x="404" y="-300.95" font-family="Times New Roman,serif" font-size="14.00">=</text>
</g>
<!-- ans_out -->
<g id="node16" class="node">
<title>ans_out</title>
<ellipse fill="lightgreen" stroke="black" cx="405" cy="-234" rx="27" ry="18"/>
<text xml:space="preserve" text-anchor="middle" x="405" y="-228.95" font-family="Times New Roman,serif" font-size="14.00">ans</text>
</g>
<!-- op_ans&#45;&gt;ans_out -->
<g id="edge24" class="edge">
<title>op_ans&#45;&gt;ans_out</title>
<path fill="none" stroke="black" d="M404.25,-287.7C404.35,-280.41 404.48,-271.73 404.59,-263.54"/>
<polygon fill="black" stroke="black" points="408.09,-263.67 404.73,-253.62 401.09,-263.57 408.09,-263.67"/>
</g>
<!-- Fnew&#45;&gt;op_temp -->
<g id="edge14" class="edge">
<title>Fnew&#45;&gt;op_temp</title>
<path fill="none" stroke="black" d="M300.77,-360.41C304.84,-352.71 309.79,-343.34 314.4,-334.62"/>
<polygon fill="black" stroke="black" points="317.49,-336.26 319.07,-325.78 311.3,-332.99 317.49,-336.26"/>
</g>
<!-- Fnew&#45;&gt;op_add -->
<g id="edge16" class="edge">
<title>Fnew&#45;&gt;op_add</title>
<path fill="none" stroke="black" d="M280.94,-361.03C269.14,-334.98 254,-281.55 254,-235 254,-235 254,-235 254,-161 254,-121.74 254,-76.38 256.17,-47.69"/>
<polygon fill="black" stroke="black" points="259.63,-48.28 257.09,-38 252.66,-47.62 259.63,-48.28"/>
</g>
<!-- Fnew&#45;&gt;op_ans -->
<g id="edge23" class="edge">
<title>Fnew&#45;&gt;op_ans</title>
<path fill="none" stroke="black" d="M312.8,-364C327.96,-354.52 348.91,-341.43 366.9,-330.19"/>
<polygon fill="black" stroke="black" points="368.63,-333.23 375.26,-324.96 364.92,-327.3 368.63,-333.23"/>
</g>
<!-- Fold&#45;&gt;op_add -->
<g id="edge17" class="edge">
<title>Fold&#45;&gt;op_add</title>
<path fill="none" stroke="black" d="M315.79,-74.15C307.51,-65.5 296.84,-54.35 287.26,-44.35"/>
<polygon fill="black" stroke="black" points="290.04,-42.19 280.6,-37.39 284.98,-47.03 290.04,-42.19"/>
</g>
<!-- i&#45;&gt;op_lt30 -->
<g id="edge7" class="edge">
<title>i&#45;&gt;op_lt30</title>
<path fill="none" stroke="black" d="M113.92,-362.5C122.89,-353.77 134.56,-342.43 145,-332.28"/>
<polygon fill="black" stroke="black" points="147.23,-334.99 151.96,-325.51 142.35,-329.97 147.23,-334.99"/>
</g>
<!-- i&#45;&gt;op_ltn -->
<g id="edge10" class="edge">
<title>i&#45;&gt;op_ltn</title>
<path fill="none" stroke="black" d="M84.08,-362.5C75.11,-353.77 63.44,-342.43 53,-332.28"/>
<polygon fill="black" stroke="black" points="55.65,-329.97 46.04,-325.51 50.77,-334.99 55.65,-329.97"/>
</g>
<!-- i&#45;&gt;op_inc_i -->
<g id="edge21" class="edge">
<title>i&#45;&gt;op_inc_i</title>
<path fill="none" stroke="black" d="M93.12,-360.05C92.34,-352.68 92.08,-343.84 92.35,-335.51"/>
<polygon fill="black" stroke="black" points="95.83,-335.99 92.99,-325.79 88.84,-335.54 95.83,-335.99"/>
</g>
<!-- const_30 -->
<g id="node20" class="node">
<title>const_30</title>
<ellipse fill="lightgreen" stroke="black" cx="188" cy="-378" rx="44.19" ry="18"/>
<text xml:space="preserve" text-anchor="middle" x="188" y="-372.95" font-family="Times New Roman,serif" font-size="14.00">const_30</text>
</g>
<!-- const_30&#45;&gt;op_lt30 -->
<g id="edge8" class="edge">
<title>const_30&#45;&gt;op_lt30</title>
<path fill="none" stroke="black" stroke-dasharray="1,5" d="M183.8,-359.7C182.01,-352.32 179.87,-343.52 177.86,-335.25"/>
<polygon fill="black" stroke="black" points="181.27,-334.47 175.51,-325.58 174.47,-336.12 181.27,-334.47"/>
</g>
<!-- temp&#45;&gt;op_assign_fold -->
<g id="edge19" class="edge">
<title>temp&#45;&gt;op_assign_fold</title>
<path fill="none" stroke="black" d="M330,-215.7C330,-208.41 330,-199.73 330,-191.54"/>
<polygon fill="black" stroke="black" points="333.5,-191.62 330,-181.62 326.5,-191.62 333.5,-191.62"/>
</g>
</g>
</svg>
