<?xml version="1.0" encoding="UTF-8" standalone="no"?>
<!DOCTYPE svg PUBLIC "-//W3C//DTD SVG 1.1//EN"
 "http://www.w3.org/Graphics/SVG/1.1/DTD/svg11.dtd">
<!-- Generated by graphviz version 13.1.2 (20250808.2320)
 -->
<!-- Title: main_DFG Pages: 1 -->
<svg width="134pt" height="332pt"
 viewBox="0.00 0.00 134.00 332.00" xmlns="http://www.w3.org/2000/svg" xmlns:xlink="http://www.w3.org/1999/xlink">
<g id="graph0" class="graph" transform="scale(1 1) rotate(0) translate(4 328)">
<title>main_DFG</title>
<polygon fill="white" stroke="none" points="-4,4 -4,-328 130,-328 130,4 -4,4"/>
<!-- const_30 -->
<g id="node1" class="node">
<title>const_30</title>
<ellipse fill="lightblue" stroke="black" cx="63" cy="-306" rx="27" ry="18"/>
<text xml:space="preserve" text-anchor="middle" x="63" y="-300.95" font-family="Times New Roman,serif" font-size="14.00">30</text>
</g>
<!-- op_assign_a -->
<g id="node2" class="node">
<title>op_assign_a</title>
<polygon fill="none" stroke="black" points="90,-252 36,-252 36,-216 90,-216 90,-252"/>
<text xml:space="preserve" text-anchor="middle" x="63" y="-228.95" font-family="Times New Roman,serif" font-size="14.00">=</text>
</g>
<!-- const_30&#45;&gt;op_assign_a -->
<g id="edge1" class="edge">
<title>const_30&#45;&gt;op_assign_a</title>
<path fill="none" stroke="black" d="M63,-287.7C63,-280.41 63,-271.73 63,-263.54"/>
<polygon fill="black" stroke="black" points="66.5,-263.62 63,-253.62 59.5,-263.62 66.5,-263.62"/>
</g>
<!-- a -->
<g id="node6" class="node">
<title>a</title>
<ellipse fill="lightgreen" stroke="black" cx="63" cy="-162" rx="27" ry="18"/>
<text xml:space="preserve" text-anchor="middle" x="63" y="-156.95" font-family="Times New Roman,serif" font-size="14.00">a</text>
</g>
<!-- op_assign_a&#45;&gt;a -->
<g id="edge2" class="edge">
<title>op_assign_a&#45;&gt;a</title>
<path fill="none" stroke="black" d="M63,-215.7C63,-208.41 63,-199.73 63,-191.54"/>
<polygon fill="black" stroke="black" points="66.5,-191.62 63,-181.62 59.5,-191.62 66.5,-191.62"/>
</g>
<!-- op_call_fib -->
<g id="node3" class="node">
<title>op_call_fib</title>
<polygon fill="none" stroke="black" points="54,-108 0,-108 0,-72 54,-72 54,-108"/>
<text xml:space="preserve" text-anchor="middle" x="27" y="-84.95" font-family="Times New Roman,serif" font-size="14.00">fib</text>
</g>
<!-- op_return -->
<g id="node4" class="node">
<title>op_return</title>
<polygon fill="none" stroke="black" points="126,-108 72,-108 72,-72 126,-72 126,-108"/>
<text xml:space="preserve" text-anchor="middle" x="99" y="-84.95" font-family="Times New Roman,serif" font-size="14.00">return</text>
</g>
<!-- return_val -->
<g id="node5" class="node">
<title>return_val</title>
<ellipse fill="lightgreen" stroke="black" cx="99" cy="-18" rx="27" ry="18"/>
<text xml:space="preserve" text-anchor="middle" x="99" y="-12.95" font-family="Times New Roman,serif" font-size="14.00">a</text>
</g>
<!-- op_return&#45;&gt;return_val -->
<g id="edge5" class="edge">
<title>op_return&#45;&gt;return_val</title>
<path fill="none" stroke="black" d="M99,-71.7C99,-64.41 99,-55.73 99,-47.54"/>
<polygon fill="black" stroke="black" points="102.5,-47.62 99,-37.62 95.5,-47.62 102.5,-47.62"/>
</g>
<!-- a&#45;&gt;op_call_fib -->
<g id="edge3" class="edge">
<title>a&#45;&gt;op_call_fib</title>
<path fill="none" stroke="black" d="M54.65,-144.76C50.59,-136.87 45.6,-127.16 40.98,-118.18"/>
<polygon fill="black" stroke="black" points="44.18,-116.76 36.5,-109.47 37.96,-119.96 44.18,-116.76"/>
</g>
<!-- a&#45;&gt;op_return -->
<g id="edge4" class="edge">
<title>a&#45;&gt;op_return</title>
<path fill="none" stroke="black" d="M71.35,-144.76C75.41,-136.87 80.4,-127.16 85.02,-118.18"/>
<polygon fill="black" stroke="black" points="88.04,-119.96 89.5,-109.47 81.82,-116.76 88.04,-119.96"/>
</g>
</g>
</svg>
