<?xml version="1.0" encoding="UTF-8" standalone="no"?>
<!DOCTYPE svg PUBLIC "-//W3C//DTD SVG 1.1//EN"
 "http://www.w3.org/Graphics/SVG/1.1/DTD/svg11.dtd">
<!-- Generated by graphviz version 13.1.2 (20250808.2320)
 -->
<!-- Title: main_CFG Pages: 1 -->
<svg width="89pt" height="355pt"
 viewBox="0.00 0.00 89.00 355.00" xmlns="http://www.w3.org/2000/svg" xmlns:xlink="http://www.w3.org/1999/xlink">
<g id="graph0" class="graph" transform="scale(1 1) rotate(0) translate(4 351.23)">
<title>main_CFG</title>
<polygon fill="white" stroke="none" points="-4,4 -4,-351.23 85.25,-351.23 85.25,4 -4,4"/>
<!-- N1 -->
<g id="node1" class="node">
<title>N1</title>
<path fill="none" stroke="black" d="M58.75,-347.23C58.75,-347.23 22.5,-347.23 22.5,-347.23 16.5,-347.23 10.5,-341.23 10.5,-335.23 10.5,-335.23 10.5,-323.23 10.5,-323.23 10.5,-317.23 16.5,-311.23 22.5,-311.23 22.5,-311.23 58.75,-311.23 58.75,-311.23 64.75,-311.23 70.75,-317.23 70.75,-323.23 70.75,-323.23 70.75,-335.23 70.75,-335.23 70.75,-341.23 64.75,-347.23 58.75,-347.23"/>
<text xml:space="preserve" text-anchor="middle" x="40.62" y="-323.81" font-family="Helvetica,sans-Serif" font-size="14.00">1: int a;</text>
</g>
<!-- N2 -->
<g id="node2" class="node">
<title>N2</title>
<path fill="none" stroke="black" d="M65.12,-275.23C65.12,-275.23 16.12,-275.23 16.12,-275.23 10.12,-275.23 4.12,-269.23 4.12,-263.23 4.12,-263.23 4.12,-251.23 4.12,-251.23 4.12,-245.23 10.12,-239.23 16.12,-239.23 16.12,-239.23 65.12,-239.23 65.12,-239.23 71.12,-239.23 77.12,-245.23 77.12,-251.23 77.12,-251.23 77.12,-263.23 77.12,-263.23 77.12,-269.23 71.12,-275.23 65.12,-275.23"/>
<text xml:space="preserve" text-anchor="middle" x="40.62" y="-251.81" font-family="Helvetica,sans-Serif" font-size="14.00">2: a = 30;</text>
</g>
<!-- N1&#45;&gt;N2 -->
<g id="edge1" class="edge">
<title>N1&#45;&gt;N2</title>
<path fill="none" stroke="black" d="M40.62,-310.93C40.62,-303.64 40.62,-294.96 40.62,-286.77"/>
<polygon fill="black" stroke="black" points="44.13,-286.85 40.63,-276.85 37.13,-286.85 44.13,-286.85"/>
</g>
<!-- N3 -->
<g id="node3" class="node">
<title>N3</title>
<path fill="none" stroke="black" d="M61.38,-203.23C61.38,-203.23 19.88,-203.23 19.88,-203.23 13.88,-203.23 7.88,-197.23 7.88,-191.23 7.88,-191.23 7.88,-179.23 7.88,-179.23 7.88,-173.23 13.88,-167.23 19.88,-167.23 19.88,-167.23 61.38,-167.23 61.38,-167.23 67.38,-167.23 73.38,-173.23 73.38,-179.23 73.38,-179.23 73.38,-191.23 73.38,-191.23 73.38,-197.23 67.38,-203.23 61.38,-203.23"/>
<text xml:space="preserve" text-anchor="middle" x="40.62" y="-179.81" font-family="Helvetica,sans-Serif" font-size="14.00">3: fib(a);</text>
</g>
<!-- N2&#45;&gt;N3 -->
<g id="edge2" class="edge">
<title>N2&#45;&gt;N3</title>
<path fill="none" stroke="black" d="M40.62,-238.93C40.62,-231.64 40.62,-222.96 40.62,-214.77"/>
<polygon fill="black" stroke="black" points="44.13,-214.85 40.63,-204.85 37.13,-214.85 44.13,-214.85"/>
</g>
<!-- N4 -->
<g id="node4" class="node">
<title>N4</title>
<path fill="none" stroke="black" d="M69.25,-131.23C69.25,-131.23 12,-131.23 12,-131.23 6,-131.23 0,-125.23 0,-119.23 0,-119.23 0,-107.23 0,-107.23 0,-101.23 6,-95.23 12,-95.23 12,-95.23 69.25,-95.23 69.25,-95.23 75.25,-95.23 81.25,-101.23 81.25,-107.23 81.25,-107.23 81.25,-119.23 81.25,-119.23 81.25,-125.23 75.25,-131.23 69.25,-131.23"/>
<text xml:space="preserve" text-anchor="middle" x="40.62" y="-107.81" font-family="Helvetica,sans-Serif" font-size="14.00">4: return a;</text>
</g>
<!-- N3&#45;&gt;N4 -->
<g id="edge3" class="edge">
<title>N3&#45;&gt;N4</title>
<path fill="none" stroke="black" d="M40.62,-166.93C40.62,-159.64 40.62,-150.96 40.62,-142.77"/>
<polygon fill="black" stroke="black" points="44.13,-142.85 40.63,-132.85 37.13,-142.85 44.13,-142.85"/>
</g>
<!-- N5 -->
<g id="node5" class="node">
<title>N5</title>
<ellipse fill="none" stroke="black" cx="40.62" cy="-29.62" rx="25.62" ry="25.62"/>
<ellipse fill="none" stroke="black" cx="40.62" cy="-29.62" rx="29.62" ry="29.62"/>
<text xml:space="preserve" text-anchor="middle" x="40.62" y="-24.19" font-family="Helvetica,sans-Serif" font-size="14.00">Exit</text>
</g>
<!-- N4&#45;&gt;N5 -->
<g id="edge4" class="edge">
<title>N4&#45;&gt;N5</title>
<path fill="none" stroke="black" d="M40.62,-94.92C40.62,-87.84 40.62,-79.34 40.62,-70.86"/>
<polygon fill="black" stroke="black" points="44.13,-70.97 40.63,-60.97 37.13,-70.97 44.13,-70.97"/>
</g>
</g>
</svg>
