<?xml version="1.0" encoding="UTF-8" standalone="no"?>
<!DOCTYPE svg PUBLIC "-//W3C//DTD SVG 1.1//EN"
 "http://www.w3.org/Graphics/SVG/1.1/DTD/svg11.dtd">
<!-- Generated by graphviz version 13.1.2 (20250808.2320)
 -->
<!-- Title: Main Pages: 1 -->
<svg width="160pt" height="287pt"
 viewBox="0.00 0.00 160.00 287.00" xmlns="http://www.w3.org/2000/svg" xmlns:xlink="http://www.w3.org/1999/xlink">
<g id="graph0" class="graph" transform="scale(1 1) rotate(0) translate(4 282.5)">
<title>Main</title>
<polygon fill="white" stroke="none" points="-4,4 -4,-282.5 156.09,-282.5 156.09,4 -4,4"/>
<!-- entry -->
<g id="node1" class="node">
<title>entry</title>
<ellipse fill="none" stroke="black" cx="84.88" cy="-260.5" rx="67.22" ry="18"/>
<text xml:space="preserve" text-anchor="middle" x="84.88" y="-255.45" font-family="Times New Roman,serif" font-size="14.00">Entrada main()</text>
</g>
<!-- block1 -->
<g id="node2" class="node">
<title>block1</title>
<polygon fill="none" stroke="black" points="127.75,-206.5 42,-206.5 42,-149 127.75,-149 127.75,-206.5"/>
<text xml:space="preserve" text-anchor="middle" x="84.88" y="-189.2" font-family="Times New Roman,serif" font-size="14.00">Bloco 1</text>
<text xml:space="preserve" text-anchor="middle" x="84.88" y="-172.7" font-family="Times New Roman,serif" font-size="14.00">a = 30</text>
<text xml:space="preserve" text-anchor="middle" x="84.88" y="-156.2" font-family="Times New Roman,serif" font-size="14.00">chama fib(a)</text>
<text xml:space="preserve" text-anchor="middle" x="21" y="-226.2" font-family="Times New Roman,serif" font-size="14.00">def: a</text>
<text xml:space="preserve" text-anchor="middle" x="21" y="-209.7" font-family="Times New Roman,serif" font-size="14.00">c&#45;use: a</text>
</g>
<!-- entry&#45;&gt;block1 -->
<g id="edge1" class="edge">
<title>entry&#45;&gt;block1</title>
<path fill="none" stroke="black" d="M84.88,-242.38C84.88,-235.31 84.88,-226.8 84.88,-218.34"/>
<polygon fill="black" stroke="black" points="88.38,-218.48 84.88,-208.48 81.38,-218.48 88.38,-218.48"/>
</g>
<!-- block2 -->
<g id="node3" class="node">
<title>block2</title>
<polygon fill="none" stroke="black" points="114.25,-113 55.5,-113 55.5,-72 114.25,-72 114.25,-113"/>
<text xml:space="preserve" text-anchor="middle" x="84.88" y="-95.7" font-family="Times New Roman,serif" font-size="14.00">Bloco 2</text>
<text xml:space="preserve" text-anchor="middle" x="84.88" y="-79.2" font-family="Times New Roman,serif" font-size="14.00">return a</text>
<text xml:space="preserve" text-anchor="middle" x="34.5" y="-116.2" font-family="Times New Roman,serif" font-size="14.00">c&#45;use: a</text>
</g>
<!-- block1&#45;&gt;block2 -->
<g id="edge2" class="edge">
<title>block1&#45;&gt;block2</title>
<path fill="none" stroke="black" d="M84.88,-148.57C84.88,-140.86 84.88,-132.47 84.88,-124.61"/>
<polygon fill="black" stroke="black" points="88.38,-124.76 84.88,-114.76 81.38,-124.76 88.38,-124.76"/>
</g>
<!-- exit -->
<g id="node4" class="node">
<title>exit</title>
<ellipse fill="none" stroke="black" cx="84.88" cy="-18" rx="31.39" ry="18"/>
<text xml:space="preserve" text-anchor="middle" x="84.88" y="-12.95" font-family="Times New Roman,serif" font-size="14.00">Saida</text>
</g>
<!-- block2&#45;&gt;exit -->
<g id="edge3" class="edge">
<title>block2&#45;&gt;exit</title>
<path fill="none" stroke="black" d="M84.88,-71.69C84.88,-64.25 84.88,-55.64 84.88,-47.57"/>
<polygon fill="black" stroke="black" points="88.38,-47.83 84.88,-37.83 81.38,-47.83 88.38,-47.83"/>
</g>
</g>
</svg>
