<?xml version="1.0" encoding="UTF-8" standalone="no"?>
<!DOCTYPE svg PUBLIC "-//W3C//DTD SVG 1.1//EN"
 "http://www.w3.org/Graphics/SVG/1.1/DTD/svg11.dtd">
<!-- Generated by graphviz version 13.1.2 (20250808.2320)
 -->
<!-- Title: DFG Pages: 1 -->
<svg width="498pt" height="188pt"
 viewBox="0.00 0.00 498.00 188.00" xmlns="http://www.w3.org/2000/svg" xmlns:xlink="http://www.w3.org/1999/xlink">
<g id="graph0" class="graph" transform="scale(1 1) rotate(0) translate(4 184)">
<title>DFG</title>
<polygon fill="white" stroke="none" points="-4,4 -4,-184 494,-184 494,4 -4,4"/>
<!-- arr_in -->
<g id="node1" class="node">
<title>arr_in</title>
<ellipse fill="lightblue" stroke="black" cx="91" cy="-162" rx="27" ry="18"/>
<text xml:space="preserve" text-anchor="middle" x="91" y="-156.95" font-family="Times New Roman,serif" font-size="14.00">arr</text>
</g>
<!-- op_swap1 -->
<g id="node5" class="node">
<title>op_swap1</title>
<polygon fill="none" stroke="black" points="54,-108 0,-108 0,-72 54,-72 54,-108"/>
<text xml:space="preserve" text-anchor="middle" x="27" y="-84.95" font-family="Times New Roman,serif" font-size="14.00">SWAP</text>
</g>
<!-- arr_in&#45;&gt;op_swap1 -->
<g id="edge1" class="edge">
<title>arr_in&#45;&gt;op_swap1</title>
<path fill="none" stroke="black" d="M77.43,-146.15C69.59,-137.59 59.53,-126.58 50.45,-116.65"/>
<polygon fill="black" stroke="black" points="53.16,-114.43 43.83,-109.41 48,-119.15 53.16,-114.43"/>
</g>
<!-- op_assign -->
<g id="node8" class="node">
<title>op_assign</title>
<polygon fill="none" stroke="black" points="137.75,-108 72.25,-108 72.25,-72 137.75,-72 137.75,-108"/>
<text xml:space="preserve" text-anchor="middle" x="105" y="-84.95" font-family="Times New Roman,serif" font-size="14.00">a = arr[j]</text>
</g>
<!-- arr_in&#45;&gt;op_assign -->
<g id="edge2" class="edge">
<title>arr_in&#45;&gt;op_assign</title>
<path fill="none" stroke="black" d="M94.46,-143.7C95.94,-136.32 97.7,-127.52 99.35,-119.25"/>
<polygon fill="black" stroke="black" points="102.75,-120.08 101.28,-109.59 95.89,-118.71 102.75,-120.08"/>
</g>
<!-- ir_in -->
<g id="node2" class="node">
<title>ir_in</title>
<ellipse fill="lightblue" stroke="black" cx="186" cy="-162" rx="27" ry="18"/>
<text xml:space="preserve" text-anchor="middle" x="186" y="-156.95" font-family="Times New Roman,serif" font-size="14.00">ir</text>
</g>
<!-- op_compare -->
<g id="node7" class="node">
<title>op_compare</title>
<polygon fill="none" stroke="black" points="307,-108 183,-108 183,-72 307,-72 307,-108"/>
<text xml:space="preserve" text-anchor="middle" x="245" y="-84.95" font-family="Times New Roman,serif" font-size="14.00">Compare (ir&#45;l &lt; M)</text>
</g>
<!-- ir_in&#45;&gt;op_compare -->
<g id="edge3" class="edge">
<title>ir_in&#45;&gt;op_compare</title>
<path fill="none" stroke="black" d="M198.8,-145.81C205.96,-137.31 215.08,-126.49 223.32,-116.72"/>
<polygon fill="black" stroke="black" points="225.82,-119.19 229.59,-109.28 220.47,-114.67 225.82,-119.19"/>
</g>
<!-- l_in -->
<g id="node3" class="node">
<title>l_in</title>
<ellipse fill="lightblue" stroke="black" cx="258" cy="-162" rx="27" ry="18"/>
<text xml:space="preserve" text-anchor="middle" x="258" y="-156.95" font-family="Times New Roman,serif" font-size="14.00">l</text>
</g>
<!-- l_in&#45;&gt;op_compare -->
<g id="edge4" class="edge">
<title>l_in&#45;&gt;op_compare</title>
<path fill="none" stroke="black" d="M254.79,-143.7C253.42,-136.32 251.78,-127.52 250.25,-119.25"/>
<polygon fill="black" stroke="black" points="253.72,-118.79 248.45,-109.59 246.84,-120.06 253.72,-118.79"/>
</g>
<!-- jstack_in -->
<g id="node4" class="node">
<title>jstack_in</title>
<ellipse fill="lightblue" stroke="black" cx="386" cy="-162" rx="32.41" ry="18"/>
<text xml:space="preserve" text-anchor="middle" x="386" y="-156.95" font-family="Times New Roman,serif" font-size="14.00">jstack</text>
</g>
<!-- op_push_pop -->
<g id="node13" class="node">
<title>op_push_pop</title>
<ellipse fill="lightgreen" stroke="black" cx="386" cy="-90" rx="60.56" ry="18"/>
<text xml:space="preserve" text-anchor="middle" x="386" y="-84.95" font-family="Times New Roman,serif" font-size="14.00">op_push_pop</text>
</g>
<!-- jstack_in&#45;&gt;op_push_pop -->
<g id="edge8" class="edge">
<title>jstack_in&#45;&gt;op_push_pop</title>
<path fill="none" stroke="black" d="M386,-143.7C386,-136.41 386,-127.73 386,-119.54"/>
<polygon fill="black" stroke="black" points="389.5,-119.62 386,-109.62 382.5,-119.62 389.5,-119.62"/>
</g>
<!-- arr_out -->
<g id="node9" class="node">
<title>arr_out</title>
<ellipse fill="lightgreen" stroke="black" cx="27" cy="-18" rx="27" ry="18"/>
<text xml:space="preserve" text-anchor="middle" x="27" y="-12.95" font-family="Times New Roman,serif" font-size="14.00">arr</text>
</g>
<!-- op_swap1&#45;&gt;arr_out -->
<g id="edge6" class="edge">
<title>op_swap1&#45;&gt;arr_out</title>
<path fill="none" stroke="black" d="M27,-71.7C27,-64.41 27,-55.73 27,-47.54"/>
<polygon fill="black" stroke="black" points="30.5,-47.62 27,-37.62 23.5,-47.62 30.5,-47.62"/>
</g>
<!-- op_swap2 -->
<g id="node6" class="node">
<title>op_swap2</title>
<polygon fill="none" stroke="black" points="490,-180 436,-180 436,-144 490,-144 490,-180"/>
<text xml:space="preserve" text-anchor="middle" x="463" y="-156.95" font-family="Times New Roman,serif" font-size="14.00">SWAP</text>
</g>
<!-- B3 -->
<g id="node11" class="node">
<title>B3</title>
<ellipse fill="lightgreen" stroke="black" cx="245" cy="-18" rx="27" ry="18"/>
<text xml:space="preserve" text-anchor="middle" x="245" y="-12.95" font-family="Times New Roman,serif" font-size="14.00">B3</text>
</g>
<!-- op_compare&#45;&gt;B3 -->
<g id="edge5" class="edge">
<title>op_compare&#45;&gt;B3</title>
<path fill="none" stroke="black" d="M245,-71.7C245,-64.41 245,-55.73 245,-47.54"/>
<polygon fill="black" stroke="black" points="248.5,-47.62 245,-37.62 241.5,-47.62 248.5,-47.62"/>
</g>
<!-- a_var -->
<g id="node12" class="node">
<title>a_var</title>
<ellipse fill="lightgreen" stroke="black" cx="105" cy="-18" rx="31.39" ry="18"/>
<text xml:space="preserve" text-anchor="middle" x="105" y="-12.95" font-family="Times New Roman,serif" font-size="14.00">a_var</text>
</g>
<!-- op_assign&#45;&gt;a_var -->
<g id="edge7" class="edge">
<title>op_assign&#45;&gt;a_var</title>
<path fill="none" stroke="black" d="M105,-71.7C105,-64.41 105,-55.73 105,-47.54"/>
<polygon fill="black" stroke="black" points="108.5,-47.62 105,-37.62 101.5,-47.62 108.5,-47.62"/>
</g>
<!-- jstack_out -->
<g id="node10" class="node">
<title>jstack_out</title>
<ellipse fill="lightgreen" stroke="black" cx="386" cy="-18" rx="32.41" ry="18"/>
<text xml:space="preserve" text-anchor="middle" x="386" y="-12.95" font-family="Times New Roman,serif" font-size="14.00">jstack</text>
</g>
<!-- op_push_pop&#45;&gt;jstack_out -->
<g id="edge9" class="edge">
<title>op_push_pop&#45;&gt;jstack_out</title>
<path fill="none" stroke="black" d="M386,-71.7C386,-64.41 386,-55.73 386,-47.54"/>
<polygon fill="black" stroke="black" points="389.5,-47.62 386,-37.62 382.5,-47.62 389.5,-47.62"/>
</g>
</g>
</svg>
