<?xml version="1.0" encoding="UTF-8" standalone="no"?>
<!DOCTYPE svg PUBLIC "-//W3C//DTD SVG 1.1//EN"
 "http://www.w3.org/Graphics/SVG/1.1/DTD/svg11.dtd">
<!-- Generated by graphviz version 13.1.2 (20250808.2320)
 -->
<!-- Title: sort_DFG Pages: 1 -->
<svg width="617pt" height="404pt"
 viewBox="0.00 0.00 617.00 404.00" xmlns="http://www.w3.org/2000/svg" xmlns:xlink="http://www.w3.org/1999/xlink">
<g id="graph0" class="graph" transform="scale(1 1) rotate(0) translate(4 400)">
<title>sort_DFG</title>
<polygon fill="white" stroke="none" points="-4,4 -4,-400 613.1,-400 613.1,4 -4,4"/>
<!-- arr_input -->
<g id="node1" class="node">
<title>arr_input</title>
<ellipse fill="lightblue" stroke="black" cx="265.11" cy="-378" rx="78.48" ry="18"/>
<text xml:space="preserve" text-anchor="middle" x="265.11" y="-372.95" font-family="Courier,monospace" font-size="14.00">arr (global)</text>
</g>
<!-- compute_k -->
<g id="node4" class="node">
<title>compute_k</title>
<polygon fill="none" stroke="black" points="150.73,-324 27.48,-324 27.48,-288 150.73,-288 150.73,-324"/>
<text xml:space="preserve" text-anchor="middle" x="89.11" y="-300.95" font-family="Courier,monospace" font-size="14.00">k = (l+ir)&gt;&gt;1</text>
</g>
<!-- arr_input&#45;&gt;compute_k -->
<g id="edge1" class="edge">
<title>arr_input&#45;&gt;compute_k</title>
<path fill="none" stroke="black" d="M226.92,-361.81C202.46,-352.08 170.36,-339.31 143.28,-328.55"/>
<polygon fill="black" stroke="black" points="144.79,-325.38 134.21,-324.94 142.2,-331.89 144.79,-325.38"/>
</g>
<!-- compare -->
<g id="node6" class="node">
<title>compare</title>
<polygon fill="none" stroke="black" points="349.61,-324 168.61,-324 168.61,-288 349.61,-288 349.61,-324"/>
<text xml:space="preserve" text-anchor="middle" x="259.11" y="-300.95" font-family="Courier,monospace" font-size="14.00">Compare arr elements</text>
</g>
<!-- arr_input&#45;&gt;compare -->
<g id="edge2" class="edge">
<title>arr_input&#45;&gt;compare</title>
<path fill="none" stroke="black" d="M263.62,-359.7C263,-352.41 262.26,-343.73 261.55,-335.54"/>
<polygon fill="black" stroke="black" points="265.04,-335.28 260.7,-325.61 258.07,-335.87 265.04,-335.28"/>
</g>
<!-- partition -->
<g id="node7" class="node">
<title>partition</title>
<polygon fill="none" stroke="black" points="387.98,-180 248.23,-180 248.23,-144 387.98,-144 387.98,-180"/>
<text xml:space="preserve" text-anchor="middle" x="318.11" y="-156.95" font-family="Courier,monospace" font-size="14.00">Partition logic</text>
</g>
<!-- arr_input&#45;&gt;partition -->
<g id="edge3" class="edge">
<title>arr_input&#45;&gt;partition</title>
<path fill="none" stroke="black" d="M310.34,-362.97C328.86,-354.75 348.43,-342.28 359.11,-324 384.16,-281.12 356.96,-223.08 336.47,-189.68"/>
<polygon fill="black" stroke="black" points="339.53,-187.98 331.2,-181.43 333.63,-191.74 339.53,-187.98"/>
</g>
<!-- istack_input -->
<g id="node2" class="node">
<title>istack_input</title>
<ellipse fill="lightblue" stroke="black" cx="501.11" cy="-162" rx="95.37" ry="18"/>
<text xml:space="preserve" text-anchor="middle" x="501.11" y="-156.95" font-family="Courier,monospace" font-size="14.00">istack (global)</text>
</g>
<!-- stack_push_pop -->
<g id="node8" class="node">
<title>stack_push_pop</title>
<polygon fill="none" stroke="black" points="474.86,-108 343.36,-108 343.36,-72 474.86,-72 474.86,-108"/>
<text xml:space="preserve" text-anchor="middle" x="409.11" y="-84.95" font-family="Courier,monospace" font-size="14.00">Stack push/pop</text>
</g>
<!-- istack_input&#45;&gt;stack_push_pop -->
<g id="edge5" class="edge">
<title>istack_input&#45;&gt;stack_push_pop</title>
<path fill="none" stroke="black" d="M478.84,-144.05C467.37,-135.33 453.19,-124.54 440.62,-114.98"/>
<polygon fill="black" stroke="black" points="443.09,-112.46 433.02,-109.19 438.86,-118.03 443.09,-112.46"/>
</g>
<!-- n_input -->
<g id="node3" class="node">
<title>n_input</title>
<ellipse fill="lightblue" stroke="black" cx="84.11" cy="-378" rx="84.11" ry="18"/>
<text xml:space="preserve" text-anchor="middle" x="84.11" y="-372.95" font-family="Courier,monospace" font-size="14.00">n (parameter)</text>
</g>
<!-- n_input&#45;&gt;compute_k -->
<g id="edge4" class="edge">
<title>n_input&#45;&gt;compute_k</title>
<path fill="none" stroke="black" d="M85.34,-359.7C85.86,-352.41 86.48,-343.73 87.07,-335.54"/>
<polygon fill="black" stroke="black" points="90.56,-335.84 87.78,-325.61 83.57,-335.34 90.56,-335.84"/>
</g>
<!-- swap_ops -->
<g id="node5" class="node">
<title>swap_ops</title>
<polygon fill="none" stroke="black" points="328.98,-252 189.23,-252 189.23,-216 328.98,-216 328.98,-252"/>
<text xml:space="preserve" text-anchor="middle" x="259.11" y="-228.95" font-family="Courier,monospace" font-size="14.00">SWAP operations</text>
</g>
<!-- compute_k&#45;&gt;swap_ops -->
<g id="edge6" class="edge">
<title>compute_k&#45;&gt;swap_ops</title>
<path fill="none" stroke="black" d="M131.57,-287.52C154.27,-278.17 182.43,-266.57 206.5,-256.66"/>
<polygon fill="black" stroke="black" points="207.58,-260 215.49,-252.96 204.92,-253.53 207.58,-260"/>
</g>
<!-- swap_ops&#45;&gt;partition -->
<g id="edge8" class="edge">
<title>swap_ops&#45;&gt;partition</title>
<path fill="none" stroke="black" d="M273.69,-215.7C280.55,-207.56 288.87,-197.69 296.44,-188.7"/>
<polygon fill="black" stroke="black" points="298.95,-191.16 302.72,-181.26 293.59,-186.65 298.95,-191.16"/>
</g>
<!-- compare&#45;&gt;swap_ops -->
<g id="edge7" class="edge">
<title>compare&#45;&gt;swap_ops</title>
<path fill="none" stroke="black" d="M259.11,-287.7C259.11,-280.41 259.11,-271.73 259.11,-263.54"/>
<polygon fill="black" stroke="black" points="262.61,-263.62 259.11,-253.62 255.61,-263.62 262.61,-263.62"/>
</g>
<!-- partition&#45;&gt;stack_push_pop -->
<g id="edge9" class="edge">
<title>partition&#45;&gt;stack_push_pop</title>
<path fill="none" stroke="black" d="M340.6,-143.7C351.76,-135.11 365.42,-124.61 377.6,-115.24"/>
<polygon fill="black" stroke="black" points="379.56,-118.14 385.36,-109.27 375.3,-112.59 379.56,-118.14"/>
</g>
<!-- arr_output -->
<g id="node9" class="node">
<title>arr_output</title>
<ellipse fill="lightgreen" stroke="black" cx="311.11" cy="-18" rx="78.48" ry="18"/>
<text xml:space="preserve" text-anchor="middle" x="311.11" y="-12.95" font-family="Courier,monospace" font-size="14.00">arr (sorted)</text>
</g>
<!-- stack_push_pop&#45;&gt;arr_output -->
<g id="edge10" class="edge">
<title>stack_push_pop&#45;&gt;arr_output</title>
<path fill="none" stroke="black" d="M384.63,-71.52C372.22,-62.65 356.99,-51.77 343.61,-42.21"/>
<polygon fill="black" stroke="black" points="345.67,-39.38 335.49,-36.42 341.6,-45.08 345.67,-39.38"/>
</g>
<!-- istack_output -->
<g id="node10" class="node">
<title>istack_output</title>
<ellipse fill="lightgreen" stroke="black" cx="508.11" cy="-18" rx="101" ry="18"/>
<text xml:space="preserve" text-anchor="middle" x="508.11" y="-12.95" font-family="Courier,monospace" font-size="14.00">istack (updated)</text>
</g>
<!-- stack_push_pop&#45;&gt;istack_output -->
<g id="edge11" class="edge">
<title>stack_push_pop&#45;&gt;istack_output</title>
<path fill="none" stroke="black" d="M433.83,-71.52C446.4,-62.63 461.83,-51.72 475.37,-42.15"/>
<polygon fill="black" stroke="black" points="477,-45.28 483.14,-36.65 472.96,-39.57 477,-45.28"/>
</g>
</g>
</svg>
