<?xml version="1.0" encoding="UTF-8" standalone="no"?>
<!DOCTYPE svg PUBLIC "-//W3C//DTD SVG 1.1//EN"
 "http://www.w3.org/Graphics/SVG/1.1/DTD/svg11.dtd">
<!-- Generated by graphviz version 13.1.2 (20250808.2320)
 -->
<!-- Title: sort_CFG Pages: 1 -->
<svg width="1182pt" height="1099pt"
 viewBox="0.00 0.00 1182.00 1099.00" xmlns="http://www.w3.org/2000/svg" xmlns:xlink="http://www.w3.org/1999/xlink">
<g id="graph0" class="graph" transform="scale(1 1) rotate(0) translate(4 1094.5)">
<title>sort_CFG</title>
<polygon fill="white" stroke="none" points="-4,4 -4,-1094.5 1177.75,-1094.5 1177.75,4 -4,4"/>
<!-- start -->
<g id="node1" class="node">
<title>start</title>
<ellipse fill="none" stroke="black" cx="862.5" cy="-1072.5" rx="72.85" ry="18"/>
<text xml:space="preserve" text-anchor="middle" x="862.5" y="-1067.45" font-family="Courier,monospace" font-size="14.00">sort: Entry</text>
</g>
<!-- B1 -->
<g id="node2" class="node">
<title>B1</title>
<polygon fill="none" stroke="black" points="973.62,-1017.5 751.38,-1017.5 751.38,-976.5 973.62,-976.5 973.62,-1017.5"/>
<text xml:space="preserve" text-anchor="middle" x="862.5" y="-1000.2" font-family="Courier,monospace" font-size="14.00">i, ir=n, j, k, l=1</text>
<text xml:space="preserve" text-anchor="middle" x="862.5" y="-983.7" font-family="Courier,monospace" font-size="14.00">jstack=0, flag=0, a, temp</text>
</g>
<!-- start&#45;&gt;B1 -->
<g id="edge1" class="edge">
<title>start&#45;&gt;B1</title>
<path fill="none" stroke="black" d="M862.5,-1054.08C862.5,-1046.7 862.5,-1037.85 862.5,-1029.4"/>
<polygon fill="black" stroke="black" points="866,-1029.4 862.5,-1019.4 859,-1029.4 866,-1029.4"/>
</g>
<!-- B2 -->
<g id="node3" class="node">
<title>B2</title>
<polygon fill="none" stroke="black" points="903.5,-939.5 821.5,-939.5 821.5,-903.5 903.5,-903.5 903.5,-939.5"/>
<text xml:space="preserve" text-anchor="middle" x="862.5" y="-916.45" font-family="Courier,monospace" font-size="14.00">for (;;)</text>
</g>
<!-- B1&#45;&gt;B2 -->
<g id="edge2" class="edge">
<title>B1&#45;&gt;B2</title>
<path fill="none" stroke="black" d="M862.5,-976.3C862.5,-968.56 862.5,-959.51 862.5,-951.07"/>
<polygon fill="black" stroke="black" points="866,-951.26 862.5,-941.26 859,-951.26 866,-951.26"/>
</g>
<!-- B3 -->
<g id="node4" class="node">
<title>B3</title>
<polygon fill="none" stroke="black" points="511.12,-866.5 387.88,-866.5 387.88,-830.5 511.12,-830.5 511.12,-866.5"/>
<text xml:space="preserve" text-anchor="middle" x="449.5" y="-843.45" font-family="Courier,monospace" font-size="14.00">if (ir&#45;l &lt; M)</text>
</g>
<!-- B2&#45;&gt;B3 -->
<g id="edge3" class="edge">
<title>B2&#45;&gt;B3</title>
<path fill="none" stroke="black" d="M821.01,-913.37C751.15,-901.36 609.18,-876.95 522.39,-862.03"/>
<polygon fill="black" stroke="black" points="523.25,-858.63 512.8,-860.38 522.06,-865.53 523.25,-858.63"/>
</g>
<!-- B4 -->
<g id="node5" class="node">
<title>B4</title>
<polygon fill="none" stroke="black" points="531.75,-778 367.25,-778 367.25,-720.5 531.75,-720.5 531.75,-778"/>
<text xml:space="preserve" text-anchor="middle" x="449.5" y="-760.7" font-family="Courier,monospace" font-size="14.00">j = l+1 to ir</text>
<text xml:space="preserve" text-anchor="middle" x="449.5" y="-744.2" font-family="Courier,monospace" font-size="14.00"> a = arr[j]</text>
<text xml:space="preserve" text-anchor="middle" x="449.5" y="-727.7" font-family="Courier,monospace" font-size="14.00"> i = j&#45;1 down to l</text>
</g>
<!-- B3&#45;&gt;B4 -->
<g id="edge4" class="edge">
<title>B3&#45;&gt;B4</title>
<path fill="none" stroke="black" d="M449.5,-830.11C449.5,-818.85 449.5,-803.7 449.5,-789.62"/>
<polygon fill="black" stroke="black" points="453,-789.67 449.5,-779.67 446,-789.67 453,-789.67"/>
<text xml:space="preserve" text-anchor="middle" x="466" y="-799.2" font-family="Courier,monospace" font-size="14.00">true</text>
</g>
<!-- B9 -->
<g id="node10" class="node">
<title>B9</title>
<polygon fill="none" stroke="black" points="317.25,-769.75 119.75,-769.75 119.75,-728.75 317.25,-728.75 317.25,-769.75"/>
<text xml:space="preserve" text-anchor="middle" x="218.5" y="-752.45" font-family="Courier,monospace" font-size="14.00">k = (l+ir)&gt;&gt;1</text>
<text xml:space="preserve" text-anchor="middle" x="218.5" y="-735.95" font-family="Courier,monospace" font-size="14.00">SWAP(arr[k], arr[l+1])</text>
</g>
<!-- B3&#45;&gt;B9 -->
<g id="edge5" class="edge">
<title>B3&#45;&gt;B9</title>
<path fill="none" stroke="black" d="M407.94,-830C371.13,-814.51 317.05,-791.74 276.08,-774.49"/>
<polygon fill="black" stroke="black" points="277.67,-771.36 267.1,-770.71 274.95,-777.81 277.67,-771.36"/>
<text xml:space="preserve" text-anchor="middle" x="382.11" y="-799.2" font-family="Courier,monospace" font-size="14.00">false</text>
</g>
<!-- B5 -->
<g id="node6" class="node">
<title>B5</title>
<polygon fill="none" stroke="black" points="548.25,-659.75 350.75,-659.75 350.75,-618.75 548.25,-618.75 548.25,-659.75"/>
<text xml:space="preserve" text-anchor="middle" x="449.5" y="-642.45" font-family="Courier,monospace" font-size="14.00">if (arr[i] &lt;= a) break</text>
<text xml:space="preserve" text-anchor="middle" x="449.5" y="-625.95" font-family="Courier,monospace" font-size="14.00"> else arr[i+1]=arr[i]</text>
</g>
<!-- B4&#45;&gt;B5 -->
<g id="edge6" class="edge">
<title>B4&#45;&gt;B5</title>
<path fill="none" stroke="black" d="M449.5,-720.16C449.5,-705.12 449.5,-686.56 449.5,-671.12"/>
<polygon fill="black" stroke="black" points="453,-671.54 449.5,-661.54 446,-671.54 453,-671.54"/>
</g>
<!-- B7 -->
<g id="node8" class="node">
<title>B7</title>
<polygon fill="none" stroke="black" points="815.25,-657.25 617.75,-657.25 617.75,-621.25 815.25,-621.25 815.25,-657.25"/>
<text xml:space="preserve" text-anchor="middle" x="716.5" y="-634.2" font-family="Courier,monospace" font-size="14.00">if (jstack == 0) break</text>
</g>
<!-- B4&#45;&gt;B7 -->
<g id="edge10" class="edge">
<title>B4&#45;&gt;B7</title>
<path fill="none" stroke="black" d="M519.3,-720.02C564.12,-701.89 621.45,-678.7 662.73,-662"/>
<polygon fill="black" stroke="black" points="664.03,-665.25 671.99,-658.25 661.41,-658.76 664.03,-665.25"/>
<text xml:space="preserve" text-anchor="middle" x="623.74" y="-689.2" font-family="Courier,monospace" font-size="14.00">j &gt; ir</text>
</g>
<!-- B5&#45;&gt;B5 -->
<g id="edge8" class="edge">
<title>B5&#45;&gt;B5</title>
<path fill="none" stroke="black" d="M548.73,-647.86C559.39,-646.2 566.25,-643.33 566.25,-639.25 566.25,-636.83 563.83,-634.83 559.63,-633.26"/>
<polygon fill="black" stroke="black" points="560.74,-629.93 550.2,-630.99 559.1,-636.73 560.74,-629.93"/>
<text xml:space="preserve" text-anchor="middle" x="582.75" y="-634.2" font-family="Courier,monospace" font-size="14.00">loop</text>
</g>
<!-- B6 -->
<g id="node7" class="node">
<title>B6</title>
<polygon fill="none" stroke="black" points="453.75,-555.5 355.25,-555.5 355.25,-519.5 453.75,-519.5 453.75,-555.5"/>
<text xml:space="preserve" text-anchor="middle" x="404.5" y="-532.45" font-family="Courier,monospace" font-size="14.00">arr[i+1]=a</text>
</g>
<!-- B5&#45;&gt;B6 -->
<g id="edge7" class="edge">
<title>B5&#45;&gt;B6</title>
<path fill="none" stroke="black" d="M440.61,-618.54C433.84,-603.55 424.45,-582.72 416.94,-566.07"/>
<polygon fill="black" stroke="black" points="420.24,-564.89 412.94,-557.21 413.86,-567.77 420.24,-564.89"/>
<text xml:space="preserve" text-anchor="middle" x="448.97" y="-579.2" font-family="Courier,monospace" font-size="14.00">break</text>
</g>
<!-- B6&#45;&gt;B4 -->
<g id="edge9" class="edge">
<title>B6&#45;&gt;B4</title>
<path fill="none" stroke="black" d="M356.91,-555.93C332.85,-567.45 305.86,-585.17 292,-610.5 279.73,-632.92 278.65,-646.21 292,-668 306.73,-692.03 331.16,-709.15 356.44,-721.22"/>
<polygon fill="black" stroke="black" points="354.98,-724.4 365.53,-725.31 357.85,-718.02 354.98,-724.4"/>
<text xml:space="preserve" text-anchor="middle" x="316.75" y="-634.2" font-family="Courier,monospace" font-size="14.00">next j</text>
</g>
<!-- B8 -->
<g id="node9" class="node">
<title>B8</title>
<polygon fill="none" stroke="black" points="853.12,-558 663.88,-558 663.88,-517 853.12,-517 853.12,-558"/>
<text xml:space="preserve" text-anchor="middle" x="758.5" y="-540.7" font-family="Courier,monospace" font-size="14.00">ir = istack[jstack&#45;&#45;]</text>
<text xml:space="preserve" text-anchor="middle" x="758.5" y="-524.2" font-family="Courier,monospace" font-size="14.00"> l = istack[jstack&#45;&#45;]</text>
</g>
<!-- B7&#45;&gt;B8 -->
<g id="edge12" class="edge">
<title>B7&#45;&gt;B8</title>
<path fill="none" stroke="black" d="M723.82,-620.87C729.83,-606.59 738.5,-586 745.67,-568.98"/>
<polygon fill="black" stroke="black" points="748.87,-570.39 749.53,-559.81 742.42,-567.67 748.87,-570.39"/>
<text xml:space="preserve" text-anchor="middle" x="763.12" y="-579.2" font-family="Courier,monospace" font-size="14.00">false</text>
</g>
<!-- end -->
<g id="node21" class="node">
<title>end</title>
<ellipse fill="none" stroke="black" cx="601.5" cy="-537.5" rx="44.7" ry="18"/>
<text xml:space="preserve" text-anchor="middle" x="601.5" y="-532.45" font-family="Courier,monospace" font-size="14.00">Return</text>
</g>
<!-- B7&#45;&gt;end -->
<g id="edge11" class="edge">
<title>B7&#45;&gt;end</title>
<path fill="none" stroke="black" d="M696.47,-620.87C677.63,-604.54 649.3,-579.96 628.48,-561.9"/>
<polygon fill="black" stroke="black" points="630.78,-559.26 620.93,-555.35 626.19,-564.55 630.78,-559.26"/>
<text xml:space="preserve" text-anchor="middle" x="678.95" y="-579.2" font-family="Courier,monospace" font-size="14.00">true</text>
</g>
<!-- B8&#45;&gt;B2 -->
<g id="edge13" class="edge">
<title>B8&#45;&gt;B2</title>
<path fill="none" stroke="black" d="M790.63,-558.44C814.71,-576.12 843.5,-604.35 843.5,-638.25 843.5,-849.5 843.5,-849.5 843.5,-849.5 843.5,-864.01 847.25,-879.63 851.41,-892.52"/>
<polygon fill="black" stroke="black" points="847.99,-893.34 854.6,-901.62 854.6,-891.02 847.99,-893.34"/>
</g>
<!-- B10 -->
<g id="node11" class="node">
<title>B10</title>
<polygon fill="none" stroke="black" points="247,-668 0,-668 0,-610.5 247,-610.5 247,-668"/>
<text xml:space="preserve" text-anchor="middle" x="123.5" y="-650.7" font-family="Courier,monospace" font-size="14.00">if (arr[l] &gt; arr[ir]) SWAP</text>
<text xml:space="preserve" text-anchor="middle" x="123.5" y="-634.2" font-family="Courier,monospace" font-size="14.00">if (arr[l+1] &gt; arr[ir]) SWAP</text>
<text xml:space="preserve" text-anchor="middle" x="123.5" y="-617.7" font-family="Courier,monospace" font-size="14.00">if (arr[l] &gt; arr[l+1]) SWAP</text>
</g>
<!-- B9&#45;&gt;B10 -->
<g id="edge14" class="edge">
<title>B9&#45;&gt;B10</title>
<path fill="none" stroke="black" d="M201.08,-728.44C188.37,-714 170.79,-694.01 155.57,-676.71"/>
<polygon fill="black" stroke="black" points="158.56,-674.81 149.33,-669.61 153.3,-679.43 158.56,-674.81"/>
</g>
<!-- B11 -->
<g id="node12" class="node">
<title>B11</title>
<polygon fill="none" stroke="black" points="276.38,-558 136.62,-558 136.62,-517 276.38,-517 276.38,-558"/>
<text xml:space="preserve" text-anchor="middle" x="206.5" y="-540.7" font-family="Courier,monospace" font-size="14.00">i = l+1, j = ir</text>
<text xml:space="preserve" text-anchor="middle" x="206.5" y="-524.2" font-family="Courier,monospace" font-size="14.00">a = arr[l+1]</text>
</g>
<!-- B10&#45;&gt;B11 -->
<g id="edge15" class="edge">
<title>B10&#45;&gt;B11</title>
<path fill="none" stroke="black" d="M146.84,-610.2C158.09,-596.68 171.56,-580.5 182.85,-566.93"/>
<polygon fill="black" stroke="black" points="185.23,-569.53 188.94,-559.61 179.85,-565.06 185.23,-569.53"/>
</g>
<!-- B12 -->
<g id="node13" class="node">
<title>B12</title>
<polygon fill="none" stroke="black" points="559.5,-480 477.5,-480 477.5,-444 559.5,-444 559.5,-480"/>
<text xml:space="preserve" text-anchor="middle" x="518.5" y="-456.95" font-family="Courier,monospace" font-size="14.00">for (;;)</text>
</g>
<!-- B11&#45;&gt;B12 -->
<g id="edge16" class="edge">
<title>B11&#45;&gt;B12</title>
<path fill="none" stroke="black" d="M276.52,-520.01C334.1,-506.44 414.4,-487.52 466.43,-475.27"/>
<polygon fill="black" stroke="black" points="467,-478.73 475.93,-473.03 465.39,-471.92 467,-478.73"/>
</g>
<!-- B13 -->
<g id="node14" class="node">
<title>B13</title>
<polygon fill="none" stroke="black" points="744.25,-407 546.75,-407 546.75,-366 744.25,-366 744.25,-407"/>
<text xml:space="preserve" text-anchor="middle" x="645.5" y="-389.7" font-family="Courier,monospace" font-size="14.00">i++ while (arr[i] &lt; a)</text>
<text xml:space="preserve" text-anchor="middle" x="645.5" y="-373.2" font-family="Courier,monospace" font-size="14.00">j&#45;&#45; while (arr[j] &gt; a)</text>
</g>
<!-- B12&#45;&gt;B13 -->
<g id="edge17" class="edge">
<title>B12&#45;&gt;B13</title>
<path fill="none" stroke="black" d="M548.6,-443.58C564.29,-434.5 583.8,-423.21 601.18,-413.15"/>
<polygon fill="black" stroke="black" points="602.92,-416.19 609.82,-408.15 599.41,-410.13 602.92,-416.19"/>
</g>
<!-- B14 -->
<g id="node15" class="node">
<title>B14</title>
<polygon fill="none" stroke="black" points="719.5,-329 571.5,-329 571.5,-293 719.5,-293 719.5,-329"/>
<text xml:space="preserve" text-anchor="middle" x="645.5" y="-305.95" font-family="Courier,monospace" font-size="14.00">if (j &lt; i) break</text>
</g>
<!-- B13&#45;&gt;B14 -->
<g id="edge18" class="edge">
<title>B13&#45;&gt;B14</title>
<path fill="none" stroke="black" d="M645.5,-365.8C645.5,-358.06 645.5,-349.01 645.5,-340.57"/>
<polygon fill="black" stroke="black" points="649,-340.76 645.5,-330.76 642,-340.76 649,-340.76"/>
</g>
<!-- B15 -->
<g id="node16" class="node">
<title>B15</title>
<polygon fill="none" stroke="black" points="641,-229.75 460,-229.75 460,-193.75 641,-193.75 641,-229.75"/>
<text xml:space="preserve" text-anchor="middle" x="550.5" y="-206.7" font-family="Courier,monospace" font-size="14.00">SWAP(arr[i], arr[j])</text>
</g>
<!-- B14&#45;&gt;B15 -->
<g id="edge20" class="edge">
<title>B14&#45;&gt;B15</title>
<path fill="none" stroke="black" d="M628.52,-292.61C613.66,-277.4 591.89,-255.12 575.12,-237.95"/>
<polygon fill="black" stroke="black" points="577.89,-235.78 568.39,-231.07 572.88,-240.67 577.89,-235.78"/>
<text xml:space="preserve" text-anchor="middle" x="629.93" y="-261.7" font-family="Courier,monospace" font-size="14.00">false</text>
</g>
<!-- B16 -->
<g id="node17" class="node">
<title>B16</title>
<polygon fill="none" stroke="black" points="1052.38,-240.5 912.62,-240.5 912.62,-183 1052.38,-183 1052.38,-240.5"/>
<text xml:space="preserve" text-anchor="middle" x="982.5" y="-223.2" font-family="Courier,monospace" font-size="14.00">arr[l+1]=arr[j]</text>
<text xml:space="preserve" text-anchor="middle" x="982.5" y="-206.7" font-family="Courier,monospace" font-size="14.00">arr[j]=a</text>
<text xml:space="preserve" text-anchor="middle" x="982.5" y="-190.2" font-family="Courier,monospace" font-size="14.00">jstack+=2</text>
</g>
<!-- B14&#45;&gt;B16 -->
<g id="edge19" class="edge">
<title>B14&#45;&gt;B16</title>
<path fill="none" stroke="black" d="M706.14,-292.5C760.64,-276.77 841.11,-253.55 901.18,-236.22"/>
<polygon fill="black" stroke="black" points="902.06,-239.61 910.69,-233.47 900.12,-232.88 902.06,-239.61"/>
<text xml:space="preserve" text-anchor="middle" x="830.5" y="-261.7" font-family="Courier,monospace" font-size="14.00">true</text>
</g>
<!-- B15&#45;&gt;B12 -->
<g id="edge21" class="edge">
<title>B15&#45;&gt;B12</title>
<path fill="none" stroke="black" d="M548.25,-230.19C542.82,-272.37 528.91,-380.24 522.21,-432.19"/>
<polygon fill="black" stroke="black" points="518.75,-431.68 520.94,-442.04 525.69,-432.57 518.75,-431.68"/>
</g>
<!-- B17 -->
<g id="node18" class="node">
<title>B17</title>
<polygon fill="none" stroke="black" points="1073.75,-146 909.25,-146 909.25,-110 1073.75,-110 1073.75,-146"/>
<text xml:space="preserve" text-anchor="middle" x="991.5" y="-122.95" font-family="Courier,monospace" font-size="14.00">if (ir&#45;i+1 &gt;= j&#45;l)</text>
</g>
<!-- B16&#45;&gt;B17 -->
<g id="edge22" class="edge">
<title>B16&#45;&gt;B17</title>
<path fill="none" stroke="black" d="M985.6,-182.62C986.49,-174.55 987.45,-165.74 988.35,-157.65"/>
<polygon fill="black" stroke="black" points="991.8,-158.28 989.41,-147.96 984.84,-157.51 991.8,-158.28"/>
</g>
<!-- B18 -->
<g id="node19" class="node">
<title>B18</title>
<polygon fill="none" stroke="black" points="981.75,-57.5 817.25,-57.5 817.25,0 981.75,0 981.75,-57.5"/>
<text xml:space="preserve" text-anchor="middle" x="899.5" y="-40.2" font-family="Courier,monospace" font-size="14.00">istack[jstack]=ir</text>
<text xml:space="preserve" text-anchor="middle" x="899.5" y="-23.7" font-family="Courier,monospace" font-size="14.00">istack[jstack&#45;1]=i</text>
<text xml:space="preserve" text-anchor="middle" x="899.5" y="-7.2" font-family="Courier,monospace" font-size="14.00">ir=j&#45;1</text>
</g>
<!-- B17&#45;&gt;B18 -->
<g id="edge23" class="edge">
<title>B17&#45;&gt;B18</title>
<path fill="none" stroke="black" d="M975.05,-109.61C963.54,-97.44 947.74,-80.75 933.57,-65.77"/>
<polygon fill="black" stroke="black" points="936.36,-63.62 926.94,-58.76 931.27,-68.43 936.36,-63.62"/>
<text xml:space="preserve" text-anchor="middle" x="972.95" y="-78.7" font-family="Courier,monospace" font-size="14.00">true</text>
</g>
<!-- B19 -->
<g id="node20" class="node">
<title>B19</title>
<polygon fill="none" stroke="black" points="1173.75,-57.5 1009.25,-57.5 1009.25,0 1173.75,0 1173.75,-57.5"/>
<text xml:space="preserve" text-anchor="middle" x="1091.5" y="-40.2" font-family="Courier,monospace" font-size="14.00">istack[jstack]=j&#45;1</text>
<text xml:space="preserve" text-anchor="middle" x="1091.5" y="-23.7" font-family="Courier,monospace" font-size="14.00">istack[jstack&#45;1]=l</text>
<text xml:space="preserve" text-anchor="middle" x="1091.5" y="-7.2" font-family="Courier,monospace" font-size="14.00">l=i</text>
</g>
<!-- B17&#45;&gt;B19 -->
<g id="edge24" class="edge">
<title>B17&#45;&gt;B19</title>
<path fill="none" stroke="black" d="M1009.38,-109.61C1022.01,-97.33 1039.38,-80.44 1054.89,-65.35"/>
<polygon fill="black" stroke="black" points="1056.99,-68.19 1061.72,-58.71 1052.11,-63.18 1056.99,-68.19"/>
<text xml:space="preserve" text-anchor="middle" x="1062.12" y="-78.7" font-family="Courier,monospace" font-size="14.00">false</text>
</g>
<!-- B18&#45;&gt;B2 -->
<g id="edge25" class="edge">
<title>B18&#45;&gt;B2</title>
<path fill="none" stroke="black" d="M891.55,-57.59C886.73,-76.9 881.5,-103.3 881.5,-127 881.5,-849.5 881.5,-849.5 881.5,-849.5 881.5,-864.01 877.75,-879.63 873.59,-892.52"/>
<polygon fill="black" stroke="black" points="870.4,-891.02 870.4,-901.62 877.01,-893.34 870.4,-891.02"/>
</g>
<!-- B19&#45;&gt;B2 -->
<g id="edge26" class="edge">
<title>B19&#45;&gt;B2</title>
<path fill="none" stroke="black" d="M1095.92,-57.76C1098.59,-77.15 1101.5,-103.58 1101.5,-127 1101.5,-849.5 1101.5,-849.5 1101.5,-849.5 1101.5,-888.09 985.53,-907.37 915.16,-915.52"/>
<polygon fill="black" stroke="black" points="914.91,-912.02 905.36,-916.61 915.69,-918.98 914.91,-912.02"/>
</g>
</g>
</svg>
