<?xml version="1.0" encoding="UTF-8" standalone="no"?>
<!DOCTYPE svg PUBLIC "-//W3C//DTD SVG 1.1//EN"
 "http://www.w3.org/Graphics/SVG/1.1/DTD/svg11.dtd">
<!-- Generated by graphviz version 13.1.2 (20250808.2320)
 -->
<!-- Title: CFG_main Pages: 1 -->
<svg width="72pt" height="332pt"
 viewBox="0.00 0.00 72.00 332.00" xmlns="http://www.w3.org/2000/svg" xmlns:xlink="http://www.w3.org/1999/xlink">
<g id="graph0" class="graph" transform="scale(1 1) rotate(0) translate(4 328)">
<title>CFG_main</title>
<polygon fill="white" stroke="none" points="-4,4 -4,-328 68,-328 68,4 -4,4"/>
<!-- entry -->
<g id="node1" class="node">
<title>entry</title>
<ellipse fill="none" stroke="black" cx="32" cy="-306" rx="28.15" ry="18"/>
<text xml:space="preserve" text-anchor="middle" x="32" y="-302.88" font-family="Courier,monospace" font-size="10.00">ENTRY</text>
</g>
<!-- M1 -->
<g id="node3" class="node">
<title>M1</title>
<polygon fill="none" stroke="black" points="59,-252 5,-252 5,-216 59,-216 59,-252"/>
<text xml:space="preserve" text-anchor="middle" x="32" y="-230.88" font-family="Courier,monospace" font-size="10.00">a = 30</text>
</g>
<!-- entry&#45;&gt;M1 -->
<g id="edge1" class="edge">
<title>entry&#45;&gt;M1</title>
<path fill="none" stroke="black" d="M32,-287.7C32,-280.41 32,-271.73 32,-263.54"/>
<polygon fill="black" stroke="black" points="35.5,-263.62 32,-253.62 28.5,-263.62 35.5,-263.62"/>
</g>
<!-- exit -->
<g id="node2" class="node">
<title>exit</title>
<ellipse fill="none" stroke="black" cx="32" cy="-18" rx="27" ry="18"/>
<text xml:space="preserve" text-anchor="middle" x="32" y="-14.88" font-family="Courier,monospace" font-size="10.00">EXIT</text>
</g>
<!-- M2 -->
<g id="node4" class="node">
<title>M2</title>
<polygon fill="none" stroke="black" points="59,-180 5,-180 5,-144 59,-144 59,-180"/>
<text xml:space="preserve" text-anchor="middle" x="32" y="-158.88" font-family="Courier,monospace" font-size="10.00">fib(a)</text>
</g>
<!-- M1&#45;&gt;M2 -->
<g id="edge2" class="edge">
<title>M1&#45;&gt;M2</title>
<path fill="none" stroke="black" d="M32,-215.7C32,-208.41 32,-199.73 32,-191.54"/>
<polygon fill="black" stroke="black" points="35.5,-191.62 32,-181.62 28.5,-191.62 35.5,-191.62"/>
</g>
<!-- M3 -->
<g id="node5" class="node">
<title>M3</title>
<polygon fill="none" stroke="black" points="64,-108 0,-108 0,-72 64,-72 64,-108"/>
<text xml:space="preserve" text-anchor="middle" x="32" y="-86.88" font-family="Courier,monospace" font-size="10.00">return a</text>
</g>
<!-- M2&#45;&gt;M3 -->
<g id="edge3" class="edge">
<title>M2&#45;&gt;M3</title>
<path fill="none" stroke="black" d="M32,-143.7C32,-136.41 32,-127.73 32,-119.54"/>
<polygon fill="black" stroke="black" points="35.5,-119.62 32,-109.62 28.5,-119.62 35.5,-119.62"/>
</g>
<!-- M3&#45;&gt;exit -->
<g id="edge4" class="edge">
<title>M3&#45;&gt;exit</title>
<path fill="none" stroke="black" d="M32,-71.7C32,-64.41 32,-55.73 32,-47.54"/>
<polygon fill="black" stroke="black" points="35.5,-47.62 32,-37.62 28.5,-47.62 35.5,-47.62"/>
</g>
</g>
</svg>
