<?xml version="1.0" encoding="UTF-8" standalone="no"?>
<!DOCTYPE svg PUBLIC "-//W3C//DTD SVG 1.1//EN"
 "http://www.w3.org/Graphics/SVG/1.1/DTD/svg11.dtd">
<!-- Generated by graphviz version 13.1.2 (20250808.2320)
 -->
<!-- Title: CFG_fib Pages: 1 -->
<svg width="226pt" height="381pt"
 viewBox="0.00 0.00 226.00 381.00" xmlns="http://www.w3.org/2000/svg" xmlns:xlink="http://www.w3.org/1999/xlink">
<g id="graph0" class="graph" transform="scale(1 1) rotate(0) translate(4 377)">
<title>CFG_fib</title>
<polygon fill="white" stroke="none" points="-4,4 -4,-377 222,-377 222,4 -4,4"/>
<!-- entry -->
<g id="node1" class="node">
<title>entry</title>
<ellipse fill="none" stroke="black" cx="101" cy="-355" rx="28.15" ry="18"/>
<text xml:space="preserve" text-anchor="middle" x="101" y="-351.88" font-family="Courier,monospace" font-size="10.00">ENTRY</text>
</g>
<!-- B1 -->
<g id="node3" class="node">
<title>B1</title>
<polygon fill="none" stroke="black" points="133,-300 69,-300 69,-253.75 133,-253.75 133,-300"/>
<text xml:space="preserve" text-anchor="middle" x="101" y="-286.5" font-family="Courier,monospace" font-size="10.00">Fnew = 1</text>
<text xml:space="preserve" text-anchor="middle" x="101" y="-273.75" font-family="Courier,monospace" font-size="10.00">Fold = 0</text>
<text xml:space="preserve" text-anchor="middle" x="101" y="-261" font-family="Courier,monospace" font-size="10.00">i = 2</text>
</g>
<!-- entry&#45;&gt;B1 -->
<g id="edge1" class="edge">
<title>entry&#45;&gt;B1</title>
<path fill="none" stroke="black" d="M101,-336.73C101,-329.31 101,-320.37 101,-311.72"/>
<polygon fill="black" stroke="black" points="104.5,-311.8 101,-301.8 97.5,-311.8 104.5,-311.8"/>
</g>
<!-- exit -->
<g id="node2" class="node">
<title>exit</title>
<ellipse fill="none" stroke="black" cx="180" cy="-18" rx="27" ry="18"/>
<text xml:space="preserve" text-anchor="middle" x="180" y="-14.88" font-family="Courier,monospace" font-size="10.00">EXIT</text>
</g>
<!-- B2 -->
<g id="node4" class="node">
<title>B2</title>
<polygon fill="none" stroke="black" points="160,-216.75 42,-216.75 42,-180.75 160,-180.75 160,-216.75"/>
<text xml:space="preserve" text-anchor="middle" x="101" y="-195.62" font-family="Courier,monospace" font-size="10.00">i &lt;= 30 &amp;&amp; i &lt;= n</text>
</g>
<!-- B1&#45;&gt;B2 -->
<g id="edge2" class="edge">
<title>B1&#45;&gt;B2</title>
<path fill="none" stroke="black" d="M101,-253.45C101,-245.67 101,-236.83 101,-228.61"/>
<polygon fill="black" stroke="black" points="104.5,-228.7 101,-218.7 97.5,-228.7 104.5,-228.7"/>
</g>
<!-- B3 -->
<g id="node5" class="node">
<title>B3</title>
<polygon fill="none" stroke="black" points="124,-132 0,-132 0,-73 124,-73 124,-132"/>
<text xml:space="preserve" text-anchor="middle" x="62" y="-118.5" font-family="Courier,monospace" font-size="10.00">temp = Fnew</text>
<text xml:space="preserve" text-anchor="middle" x="62" y="-105.75" font-family="Courier,monospace" font-size="10.00">Fnew = Fnew + Fold</text>
<text xml:space="preserve" text-anchor="middle" x="62" y="-93" font-family="Courier,monospace" font-size="10.00">Fold = temp</text>
<text xml:space="preserve" text-anchor="middle" x="62" y="-80.25" font-family="Courier,monospace" font-size="10.00">i++</text>
</g>
<!-- B2&#45;&gt;B3 -->
<g id="edge3" class="edge">
<title>B2&#45;&gt;B3</title>
<path fill="none" stroke="black" d="M76.37,-180.52C70.99,-175.46 66.01,-169.46 63,-162.75 60.3,-156.74 58.89,-150.02 58.29,-143.33"/>
<polygon fill="black" stroke="black" points="61.8,-143.64 58.01,-133.75 54.81,-143.84 61.8,-143.64"/>
<text xml:space="preserve" text-anchor="middle" x="75" y="-153.25" font-family="Courier,monospace" font-size="10.00">true</text>
</g>
<!-- B4 -->
<g id="node6" class="node">
<title>B4</title>
<polygon fill="none" stroke="black" points="218,-120.5 142,-120.5 142,-84.5 218,-84.5 218,-120.5"/>
<text xml:space="preserve" text-anchor="middle" x="180" y="-105.75" font-family="Courier,monospace" font-size="10.00">ans = Fnew</text>
<text xml:space="preserve" text-anchor="middle" x="180" y="-93" font-family="Courier,monospace" font-size="10.00">return ans</text>
</g>
<!-- B2&#45;&gt;B4 -->
<g id="edge4" class="edge">
<title>B2&#45;&gt;B4</title>
<path fill="none" stroke="black" d="M115.49,-180.46C127.44,-166.2 144.58,-145.75 158.19,-129.52"/>
<polygon fill="black" stroke="black" points="160.62,-132.07 164.36,-122.16 155.26,-127.57 160.62,-132.07"/>
<text xml:space="preserve" text-anchor="middle" x="155.5" y="-153.25" font-family="Courier,monospace" font-size="10.00">false</text>
</g>
<!-- B3&#45;&gt;B2 -->
<g id="edge5" class="edge">
<title>B3&#45;&gt;B2</title>
<path fill="none" stroke="black" d="M78.69,-132.32C81.68,-138.07 84.6,-144.15 87,-150 89.6,-156.35 91.94,-163.36 93.92,-170"/>
<polygon fill="black" stroke="black" points="90.43,-170.52 96.51,-179.2 97.17,-168.63 90.43,-170.52"/>
</g>
<!-- B4&#45;&gt;exit -->
<g id="edge6" class="edge">
<title>B4&#45;&gt;exit</title>
<path fill="none" stroke="black" d="M180,-84C180,-73.5 180,-59.89 180,-47.83"/>
<polygon fill="black" stroke="black" points="183.5,-47.98 180,-37.98 176.5,-47.98 183.5,-47.98"/>
</g>
</g>
</svg>
