<?xml version="1.0" encoding="UTF-8" standalone="no"?>
<!DOCTYPE svg PUBLIC "-//W3C//DTD SVG 1.1//EN"
 "http://www.w3.org/Graphics/SVG/1.1/DTD/svg11.dtd">
<!-- Generated by graphviz version 13.1.2 (20250808.2320)
 -->
<!-- Title: DFG_main Pages: 1 -->
<svg width="144pt" height="116pt"
 viewBox="0.00 0.00 144.00 116.00" xmlns="http://www.w3.org/2000/svg" xmlns:xlink="http://www.w3.org/1999/xlink">
<g id="graph0" class="graph" transform="scale(1 1) rotate(0) translate(4 112)">
<title>DFG_main</title>
<polygon fill="white" stroke="none" points="-4,4 -4,-112 140,-112 140,4 -4,4"/>
<!-- op1 -->
<g id="node1" class="node">
<title>op1</title>
<polygon fill="none" stroke="black" points="92,-108 38,-108 38,-72 92,-72 92,-108"/>
<text xml:space="preserve" text-anchor="middle" x="65" y="-86.88" font-family="Courier,monospace" font-size="10.00">a = 30</text>
</g>
<!-- op2 -->
<g id="node2" class="node">
<title>op2</title>
<polygon fill="none" stroke="black" points="54,-36 0,-36 0,0 54,0 54,-36"/>
<text xml:space="preserve" text-anchor="middle" x="27" y="-14.88" font-family="Courier,monospace" font-size="10.00">fib(a)</text>
</g>
<!-- op1&#45;&gt;op2 -->
<g id="edge1" class="edge">
<title>op1&#45;&gt;op2</title>
<path fill="none" stroke="black" d="M55.61,-71.7C51.42,-63.98 46.39,-54.71 41.72,-46.11"/>
<polygon fill="black" stroke="black" points="44.85,-44.55 37.01,-37.43 38.7,-47.89 44.85,-44.55"/>
</g>
<!-- op3 -->
<g id="node3" class="node">
<title>op3</title>
<polygon fill="none" stroke="black" points="136,-36 72,-36 72,0 136,0 136,-36"/>
<text xml:space="preserve" text-anchor="middle" x="104" y="-14.88" font-family="Courier,monospace" font-size="10.00">return a</text>
</g>
<!-- op1&#45;&gt;op3 -->
<g id="edge2" class="edge">
<title>op1&#45;&gt;op3</title>
<path fill="none" stroke="black" d="M74.64,-71.7C78.94,-63.98 84.1,-54.71 88.89,-46.11"/>
<polygon fill="black" stroke="black" points="91.92,-47.87 93.73,-37.43 85.81,-44.46 91.92,-47.87"/>
</g>
</g>
</svg>
