<?xml version="1.0" encoding="UTF-8" standalone="no"?>
<!DOCTYPE svg PUBLIC "-//W3C//DTD SVG 1.1//EN"
 "http://www.w3.org/Graphics/SVG/1.1/DTD/svg11.dtd">
<!-- Generated by graphviz version 13.1.2 (20250808.2320)
 -->
<!-- Title: DFG_fib Pages: 1 -->
<svg width="292pt" height="506pt"
 viewBox="0.00 0.00 292.00 506.00" xmlns="http://www.w3.org/2000/svg" xmlns:xlink="http://www.w3.org/1999/xlink">
<g id="graph0" class="graph" transform="scale(1 1) rotate(0) translate(4 501.5)">
<title>DFG_fib</title>
<polygon fill="white" stroke="none" points="-4,4 -4,-501.5 288,-501.5 288,4 -4,4"/>
<!-- op1 -->
<g id="node1" class="node">
<title>op1</title>
<polygon fill="none" stroke="black" points="64,-424.5 0,-424.5 0,-388.5 64,-388.5 64,-424.5"/>
<text xml:space="preserve" text-anchor="middle" x="32" y="-403.38" font-family="Courier,monospace" font-size="10.00">Fnew = 1</text>
</g>
<!-- op4 -->
<g id="node4" class="node">
<title>op4</title>
<polygon fill="none" stroke="black" points="146,-339.75 64,-339.75 64,-303.75 146,-303.75 146,-339.75"/>
<text xml:space="preserve" text-anchor="middle" x="105" y="-318.62" font-family="Courier,monospace" font-size="10.00">temp = Fnew</text>
</g>
<!-- op1&#45;&gt;op4 -->
<g id="edge1" class="edge">
<title>op1&#45;&gt;op4</title>
<path fill="none" stroke="black" d="M47.13,-388.35C57.24,-376.89 70.73,-361.6 82.14,-348.66"/>
<polygon fill="black" stroke="black" points="84.65,-351.11 88.64,-341.29 79.4,-346.48 84.65,-351.11"/>
</g>
<!-- op5 -->
<g id="node5" class="node">
<title>op5</title>
<polygon fill="none" stroke="black" points="181,-182 57,-182 57,-146 181,-146 181,-182"/>
<text xml:space="preserve" text-anchor="middle" x="119" y="-160.88" font-family="Courier,monospace" font-size="10.00">Fnew = Fnew + Fold</text>
</g>
<!-- op1&#45;&gt;op5 -->
<g id="edge2" class="edge">
<title>op1&#45;&gt;op5</title>
<path fill="none" stroke="black" d="M33.95,-388.19C38.68,-351.43 53.13,-263.72 89,-200 90.71,-196.96 92.71,-193.94 94.85,-191.02"/>
<polygon fill="black" stroke="black" points="97.49,-193.32 101.03,-183.33 92.04,-188.93 97.49,-193.32"/>
</g>
<!-- op2 -->
<g id="node2" class="node">
<title>op2</title>
<polygon fill="none" stroke="black" points="284,-266.75 220,-266.75 220,-230.75 284,-230.75 284,-266.75"/>
<text xml:space="preserve" text-anchor="middle" x="252" y="-245.62" font-family="Courier,monospace" font-size="10.00">Fold = 0</text>
</g>
<!-- op2&#45;&gt;op5 -->
<g id="edge3" class="edge">
<title>op2&#45;&gt;op5</title>
<path fill="none" stroke="black" d="M224.12,-230.4C204.52,-218.21 178.08,-201.76 156.62,-188.41"/>
<polygon fill="black" stroke="black" points="158.47,-185.43 148.13,-183.12 154.77,-191.38 158.47,-185.43"/>
</g>
<!-- op3 -->
<g id="node3" class="node">
<title>op3</title>
<polygon fill="none" stroke="black" points="136,-497.5 82,-497.5 82,-461.5 136,-461.5 136,-497.5"/>
<text xml:space="preserve" text-anchor="middle" x="109" y="-476.38" font-family="Courier,monospace" font-size="10.00">i = 2</text>
</g>
<!-- op7 -->
<g id="node7" class="node">
<title>op7</title>
<polygon fill="none" stroke="black" points="136,-424.5 82,-424.5 82,-388.5 136,-388.5 136,-424.5"/>
<text xml:space="preserve" text-anchor="middle" x="109" y="-403.38" font-family="Courier,monospace" font-size="10.00">i++</text>
</g>
<!-- op3&#45;&gt;op7 -->
<g id="edge8" class="edge">
<title>op3&#45;&gt;op7</title>
<path fill="none" stroke="black" d="M109,-461.31C109,-453.73 109,-444.6 109,-436.04"/>
<polygon fill="black" stroke="black" points="112.5,-436.04 109,-426.04 105.5,-436.04 112.5,-436.04"/>
</g>
<!-- op6 -->
<g id="node6" class="node">
<title>op6</title>
<polygon fill="none" stroke="black" points="202,-266.75 120,-266.75 120,-230.75 202,-230.75 202,-266.75"/>
<text xml:space="preserve" text-anchor="middle" x="161" y="-245.62" font-family="Courier,monospace" font-size="10.00">Fold = temp</text>
</g>
<!-- op4&#45;&gt;op6 -->
<g id="edge4" class="edge">
<title>op4&#45;&gt;op6</title>
<path fill="none" stroke="black" d="M118.56,-303.56C125.16,-295.19 133.24,-284.95 140.57,-275.65"/>
<polygon fill="black" stroke="black" points="143.19,-277.99 146.63,-267.97 137.69,-273.65 143.19,-277.99"/>
</g>
<!-- op5&#45;&gt;op4 -->
<g id="edge5" class="edge">
<title>op5&#45;&gt;op4</title>
<path fill="none" stroke="black" d="M107.86,-182.32C100.32,-195.13 91.02,-213.31 87,-230.75 82.25,-251.38 87.28,-274.85 93.22,-292.64"/>
<polygon fill="black" stroke="black" points="89.92,-293.82 96.64,-302.01 96.49,-291.42 89.92,-293.82"/>
<text xml:space="preserve" text-anchor="middle" x="99" y="-245.62" font-family="Courier,monospace" font-size="10.00">loop</text>
</g>
<!-- op5&#45;&gt;op5 -->
<g id="edge6" class="edge">
<title>op5&#45;&gt;op5</title>
<path fill="none" stroke="black" d="M181.39,-170.36C191.81,-169.47 199,-167.35 199,-164 199,-162.06 196.6,-160.54 192.56,-159.42"/>
<polygon fill="black" stroke="black" points="193.31,-156 182.88,-157.88 192.21,-162.91 193.31,-156"/>
<text xml:space="preserve" text-anchor="middle" x="211" y="-160.88" font-family="Courier,monospace" font-size="10.00">loop</text>
</g>
<!-- op8 -->
<g id="node8" class="node">
<title>op8</title>
<polygon fill="none" stroke="black" points="157,-109 81,-109 81,-73 157,-73 157,-109"/>
<text xml:space="preserve" text-anchor="middle" x="119" y="-87.88" font-family="Courier,monospace" font-size="10.00">ans = Fnew</text>
</g>
<!-- op5&#45;&gt;op8 -->
<g id="edge10" class="edge">
<title>op5&#45;&gt;op8</title>
<path fill="none" stroke="black" d="M119,-145.81C119,-138.23 119,-129.1 119,-120.54"/>
<polygon fill="black" stroke="black" points="122.5,-120.54 119,-110.54 115.5,-120.54 122.5,-120.54"/>
</g>
<!-- op6&#45;&gt;op5 -->
<g id="edge7" class="edge">
<title>op6&#45;&gt;op5</title>
<path fill="none" stroke="black" d="M152.3,-230.6C146.7,-219.58 139.31,-205.02 132.91,-192.42"/>
<polygon fill="black" stroke="black" points="136.17,-191.09 128.52,-183.76 129.93,-194.26 136.17,-191.09"/>
<text xml:space="preserve" text-anchor="middle" x="154.51" y="-203.25" font-family="Courier,monospace" font-size="10.00">loop</text>
</g>
<!-- op7&#45;&gt;op4 -->
<g id="edge9" class="edge">
<title>op7&#45;&gt;op4</title>
<path fill="none" stroke="black" d="M108.17,-388.35C107.65,-377.66 106.98,-363.64 106.38,-351.3"/>
<polygon fill="black" stroke="black" points="109.89,-351.49 105.91,-341.67 102.9,-351.83 109.89,-351.49"/>
<text xml:space="preserve" text-anchor="middle" x="167.24" y="-361" font-family="Courier,monospace" font-size="10.00">loop (via condition)</text>
</g>
<!-- op9 -->
<g id="node9" class="node">
<title>op9</title>
<polygon fill="none" stroke="black" points="157,-36 81,-36 81,0 157,0 157,-36"/>
<text xml:space="preserve" text-anchor="middle" x="119" y="-14.88" font-family="Courier,monospace" font-size="10.00">return ans</text>
</g>
<!-- op8&#45;&gt;op9 -->
<g id="edge11" class="edge">
<title>op8&#45;&gt;op9</title>
<path fill="none" stroke="black" d="M119,-72.81C119,-65.23 119,-56.1 119,-47.54"/>
<polygon fill="black" stroke="black" points="122.5,-47.54 119,-37.54 115.5,-47.54 122.5,-47.54"/>
</g>
</g>
</svg>
