<?xml version="1.0" encoding="UTF-8" standalone="no"?>
<!DOCTYPE svg PUBLIC "-//W3C//DTD SVG 1.1//EN"
 "http://www.w3.org/Graphics/SVG/1.1/DTD/svg11.dtd">
<!-- Generated by graphviz version 13.1.2 (20250808.2320)
 -->
<!-- Title: foo_CFG Pages: 1 -->
<svg width="428pt" height="956pt"
 viewBox="0.00 0.00 428.00 956.00" xmlns="http://www.w3.org/2000/svg" xmlns:xlink="http://www.w3.org/1999/xlink">
<g id="graph0" class="graph" transform="scale(1 1) rotate(0) translate(4 951.75)">
<title>foo_CFG</title>
<polygon fill="white" stroke="none" points="-4,4 -4,-951.75 424.38,-951.75 424.38,4 -4,4"/>
<!-- START -->
<g id="node1" class="node">
<title>START</title>
<ellipse fill="none" stroke="black" cx="335" cy="-929.75" rx="31.6" ry="18"/>
<text xml:space="preserve" text-anchor="middle" x="335" y="-924.33" font-family="Helvetica,sans-Serif" font-size="14.00">Inicio</text>
</g>
<!-- N1 -->
<g id="node3" class="node">
<title>N1</title>
<path fill="none" stroke="black" d="M350,-874.75C350,-874.75 320,-874.75 320,-874.75 314,-874.75 308,-868.75 308,-862.75 308,-862.75 308,-850.75 308,-850.75 308,-844.75 314,-838.75 320,-838.75 320,-838.75 350,-838.75 350,-838.75 356,-838.75 362,-844.75 362,-850.75 362,-850.75 362,-862.75 362,-862.75 362,-868.75 356,-874.75 350,-874.75"/>
<text xml:space="preserve" text-anchor="middle" x="335" y="-851.33" font-family="Helvetica,sans-Serif" font-size="14.00">i = 0</text>
</g>
<!-- START&#45;&gt;N1 -->
<g id="edge1" class="edge">
<title>START&#45;&gt;N1</title>
<path fill="none" stroke="black" d="M335,-911.56C335,-903.98 335,-894.85 335,-886.29"/>
<polygon fill="black" stroke="black" points="338.5,-886.29 335,-876.29 331.5,-886.29 338.5,-886.29"/>
</g>
<!-- END -->
<g id="node2" class="node">
<title>END</title>
<ellipse fill="none" stroke="black" cx="293" cy="-18" rx="27" ry="18"/>
<text xml:space="preserve" text-anchor="middle" x="293" y="-12.57" font-family="Helvetica,sans-Serif" font-size="14.00">Fim</text>
</g>
<!-- N2 -->
<g id="node4" class="node">
<title>N2</title>
<path fill="none" stroke="black" d="M350,-801.75C350,-801.75 320,-801.75 320,-801.75 314,-801.75 308,-795.75 308,-789.75 308,-789.75 308,-777.75 308,-777.75 308,-771.75 314,-765.75 320,-765.75 320,-765.75 350,-765.75 350,-765.75 356,-765.75 362,-771.75 362,-777.75 362,-777.75 362,-789.75 362,-789.75 362,-795.75 356,-801.75 350,-801.75"/>
<text xml:space="preserve" text-anchor="middle" x="335" y="-778.33" font-family="Helvetica,sans-Serif" font-size="14.00">i &lt; 5</text>
</g>
<!-- N1&#45;&gt;N2 -->
<g id="edge2" class="edge">
<title>N1&#45;&gt;N2</title>
<path fill="none" stroke="black" d="M335,-838.56C335,-830.98 335,-821.85 335,-813.29"/>
<polygon fill="black" stroke="black" points="338.5,-813.29 335,-803.29 331.5,-813.29 338.5,-813.29"/>
</g>
<!-- N3 -->
<g id="node5" class="node">
<title>N3</title>
<path fill="none" stroke="black" d="M290,-714C290,-714 260,-714 260,-714 254,-714 248,-708 248,-702 248,-702 248,-690 248,-690 248,-684 254,-678 260,-678 260,-678 290,-678 290,-678 296,-678 302,-684 302,-690 302,-690 302,-702 302,-702 302,-708 296,-714 290,-714"/>
<text xml:space="preserve" text-anchor="middle" x="275" y="-690.58" font-family="Helvetica,sans-Serif" font-size="14.00">j = 0</text>
</g>
<!-- N2&#45;&gt;N3 -->
<g id="edge3" class="edge">
<title>N2&#45;&gt;N3</title>
<path fill="none" stroke="black" d="M313.78,-765.53C308.1,-760.23 302.28,-754.11 297.75,-747.75 292.8,-740.8 288.56,-732.6 285.12,-724.85"/>
<polygon fill="black" stroke="black" points="288.42,-723.67 281.39,-715.75 281.95,-726.33 288.42,-723.67"/>
<text xml:space="preserve" text-anchor="middle" x="309.38" y="-734.45" font-family="Helvetica,sans-Serif" font-size="14.00">true</text>
</g>
<!-- N15 -->
<g id="node17" class="node">
<title>N15</title>
<path fill="none" stroke="black" d="M408.38,-660C408.38,-660 361.62,-660 361.62,-660 355.62,-660 349.62,-654 349.62,-648 349.62,-648 349.62,-636 349.62,-636 349.62,-630 355.62,-624 361.62,-624 361.62,-624 408.38,-624 408.38,-624 414.38,-624 420.38,-630 420.38,-636 420.38,-636 420.38,-648 420.38,-648 420.38,-654 414.38,-660 408.38,-660"/>
<text xml:space="preserve" text-anchor="middle" x="385" y="-636.58" font-family="Helvetica,sans-Serif" font-size="14.00">return &#45;1;</text>
</g>
<!-- N2&#45;&gt;N15 -->
<g id="edge4" class="edge">
<title>N2&#45;&gt;N15</title>
<path fill="none" stroke="black" d="M342.15,-765.37C344.4,-759.77 346.86,-753.52 349,-747.75 358.61,-721.89 368.75,-692.13 375.81,-670.95"/>
<polygon fill="black" stroke="black" points="379.09,-672.18 378.92,-661.58 372.45,-669.97 379.09,-672.18"/>
<text xml:space="preserve" text-anchor="middle" x="368.42" y="-734.45" font-family="Helvetica,sans-Serif" font-size="14.00">false</text>
</g>
<!-- N4 -->
<g id="node6" class="node">
<title>N4</title>
<path fill="none" stroke="black" d="M276,-606C276,-606 246,-606 246,-606 240,-606 234,-600 234,-594 234,-594 234,-582 234,-582 234,-576 240,-570 246,-570 246,-570 276,-570 276,-570 282,-570 288,-576 288,-582 288,-582 288,-594 288,-594 288,-600 282,-606 276,-606"/>
<text xml:space="preserve" text-anchor="middle" x="261" y="-582.58" font-family="Helvetica,sans-Serif" font-size="14.00">j &lt; 5</text>
</g>
<!-- N3&#45;&gt;N4 -->
<g id="edge5" class="edge">
<title>N3&#45;&gt;N4</title>
<path fill="none" stroke="black" d="M272.75,-677.97C270.6,-661.69 267.32,-636.82 264.77,-617.52"/>
<polygon fill="black" stroke="black" points="268.27,-617.3 263.49,-607.84 261.33,-618.21 268.27,-617.3"/>
</g>
<!-- N5 -->
<g id="node7" class="node">
<title>N5</title>
<path fill="none" stroke="black" d="M213,-518.25C213,-518.25 183,-518.25 183,-518.25 177,-518.25 171,-512.25 171,-506.25 171,-506.25 171,-494.25 171,-494.25 171,-488.25 177,-482.25 183,-482.25 183,-482.25 213,-482.25 213,-482.25 219,-482.25 225,-488.25 225,-494.25 225,-494.25 225,-506.25 225,-506.25 225,-512.25 219,-518.25 213,-518.25"/>
<text xml:space="preserve" text-anchor="middle" x="198" y="-494.82" font-family="Helvetica,sans-Serif" font-size="14.00">k = 0</text>
</g>
<!-- N4&#45;&gt;N5 -->
<g id="edge6" class="edge">
<title>N4&#45;&gt;N5</title>
<path fill="none" stroke="black" d="M237.6,-569.66C231.59,-564.44 225.49,-558.4 220.75,-552 215.67,-545.15 211.38,-536.98 207.95,-529.22"/>
<polygon fill="black" stroke="black" points="211.25,-528.05 204.24,-520.11 204.77,-530.69 211.25,-528.05"/>
<text xml:space="preserve" text-anchor="middle" x="232.38" y="-538.7" font-family="Helvetica,sans-Serif" font-size="14.00">true</text>
</g>
<!-- N14 -->
<g id="node16" class="node">
<title>N14</title>
<path fill="none" stroke="black" d="M333,-518.25C333,-518.25 303,-518.25 303,-518.25 297,-518.25 291,-512.25 291,-506.25 291,-506.25 291,-494.25 291,-494.25 291,-488.25 297,-482.25 303,-482.25 303,-482.25 333,-482.25 333,-482.25 339,-482.25 345,-488.25 345,-494.25 345,-494.25 345,-506.25 345,-506.25 345,-512.25 339,-518.25 333,-518.25"/>
<text xml:space="preserve" text-anchor="middle" x="318" y="-494.82" font-family="Helvetica,sans-Serif" font-size="14.00">i++</text>
</g>
<!-- N4&#45;&gt;N14 -->
<g id="edge7" class="edge">
<title>N4&#45;&gt;N14</title>
<path fill="none" stroke="black" d="M271.19,-569.88C277.21,-559.95 285.09,-547.26 292.5,-536.25 294.35,-533.5 296.32,-530.66 298.31,-527.85"/>
<polygon fill="black" stroke="black" points="301.14,-529.9 304.15,-519.74 295.46,-525.81 301.14,-529.9"/>
<text xml:space="preserve" text-anchor="middle" x="306.75" y="-538.7" font-family="Helvetica,sans-Serif" font-size="14.00">false</text>
</g>
<!-- N6 -->
<g id="node8" class="node">
<title>N6</title>
<path fill="none" stroke="black" d="M199,-445.25C199,-445.25 169,-445.25 169,-445.25 163,-445.25 157,-439.25 157,-433.25 157,-433.25 157,-421.25 157,-421.25 157,-415.25 163,-409.25 169,-409.25 169,-409.25 199,-409.25 199,-409.25 205,-409.25 211,-415.25 211,-421.25 211,-421.25 211,-433.25 211,-433.25 211,-439.25 205,-445.25 199,-445.25"/>
<text xml:space="preserve" text-anchor="middle" x="184" y="-421.82" font-family="Helvetica,sans-Serif" font-size="14.00">k &lt; 5</text>
</g>
<!-- N5&#45;&gt;N6 -->
<g id="edge8" class="edge">
<title>N5&#45;&gt;N6</title>
<path fill="none" stroke="black" d="M194.61,-482.06C193.1,-474.39 191.27,-465.14 189.57,-456.49"/>
<polygon fill="black" stroke="black" points="193.02,-455.9 187.65,-446.76 186.15,-457.25 193.02,-455.9"/>
</g>
<!-- N7 -->
<g id="node9" class="node">
<title>N7</title>
<path fill="none" stroke="black" d="M132,-357.5C132,-357.5 102,-357.5 102,-357.5 96,-357.5 90,-351.5 90,-345.5 90,-345.5 90,-333.5 90,-333.5 90,-327.5 96,-321.5 102,-321.5 102,-321.5 132,-321.5 132,-321.5 138,-321.5 144,-327.5 144,-333.5 144,-333.5 144,-345.5 144,-345.5 144,-351.5 138,-357.5 132,-357.5"/>
<text xml:space="preserve" text-anchor="middle" x="117" y="-334.07" font-family="Helvetica,sans-Serif" font-size="14.00">l = 0</text>
</g>
<!-- N6&#45;&gt;N7 -->
<g id="edge9" class="edge">
<title>N6&#45;&gt;N7</title>
<path fill="none" stroke="black" d="M161.29,-409.07C155.15,-403.77 148.81,-397.64 143.75,-391.25 138.22,-384.27 133.29,-375.98 129.22,-368.14"/>
<polygon fill="black" stroke="black" points="132.42,-366.71 124.88,-359.27 126.13,-369.79 132.42,-366.71"/>
<text xml:space="preserve" text-anchor="middle" x="155.38" y="-377.95" font-family="Helvetica,sans-Serif" font-size="14.00">true</text>
</g>
<!-- N13 -->
<g id="node15" class="node">
<title>N13</title>
<path fill="none" stroke="black" d="M262,-357.5C262,-357.5 232,-357.5 232,-357.5 226,-357.5 220,-351.5 220,-345.5 220,-345.5 220,-333.5 220,-333.5 220,-327.5 226,-321.5 232,-321.5 232,-321.5 262,-321.5 262,-321.5 268,-321.5 274,-327.5 274,-333.5 274,-333.5 274,-345.5 274,-345.5 274,-351.5 268,-357.5 262,-357.5"/>
<text xml:space="preserve" text-anchor="middle" x="247" y="-334.07" font-family="Helvetica,sans-Serif" font-size="14.00">j++</text>
</g>
<!-- N6&#45;&gt;N13 -->
<g id="edge10" class="edge">
<title>N6&#45;&gt;N13</title>
<path fill="none" stroke="black" d="M193.77,-408.84C199.65,-398.8 207.53,-386.11 215.5,-375.5 217.83,-372.4 220.38,-369.25 222.98,-366.17"/>
<polygon fill="black" stroke="black" points="225.37,-368.74 229.34,-358.92 220.11,-364.13 225.37,-368.74"/>
<text xml:space="preserve" text-anchor="middle" x="229.75" y="-377.95" font-family="Helvetica,sans-Serif" font-size="14.00">false</text>
</g>
<!-- N8 -->
<g id="node10" class="node">
<title>N8</title>
<path fill="none" stroke="black" d="M110,-284.5C110,-284.5 80,-284.5 80,-284.5 74,-284.5 68,-278.5 68,-272.5 68,-272.5 68,-260.5 68,-260.5 68,-254.5 74,-248.5 80,-248.5 80,-248.5 110,-248.5 110,-248.5 116,-248.5 122,-254.5 122,-260.5 122,-260.5 122,-272.5 122,-272.5 122,-278.5 116,-284.5 110,-284.5"/>
<text xml:space="preserve" text-anchor="middle" x="95" y="-261.07" font-family="Helvetica,sans-Serif" font-size="14.00">l &lt; 5</text>
</g>
<!-- N7&#45;&gt;N8 -->
<g id="edge11" class="edge">
<title>N7&#45;&gt;N8</title>
<path fill="none" stroke="black" d="M111.67,-321.31C109.27,-313.55 106.37,-304.18 103.66,-295.45"/>
<polygon fill="black" stroke="black" points="107.03,-294.49 100.72,-285.97 100.34,-296.56 107.03,-294.49"/>
</g>
<!-- N9 -->
<g id="node11" class="node">
<title>N9</title>
<path fill="none" stroke="black" d="M148.88,-196.75C148.88,-196.75 33.12,-196.75 33.12,-196.75 27.12,-196.75 21.12,-190.75 21.12,-184.75 21.12,-184.75 21.12,-172.75 21.12,-172.75 21.12,-166.75 27.12,-160.75 33.12,-160.75 33.12,-160.75 148.88,-160.75 148.88,-160.75 154.88,-160.75 160.88,-166.75 160.88,-172.75 160.88,-172.75 160.88,-184.75 160.88,-184.75 160.88,-190.75 154.88,-196.75 148.88,-196.75"/>
<text xml:space="preserve" text-anchor="middle" x="91" y="-173.32" font-family="Helvetica,sans-Serif" font-size="14.00">if (keys[i][j][k][l] == x)</text>
</g>
<!-- N8&#45;&gt;N9 -->
<g id="edge12" class="edge">
<title>N8&#45;&gt;N9</title>
<path fill="none" stroke="black" d="M93.11,-248.07C92.58,-242.47 92.06,-236.23 91.75,-230.5 91.37,-223.4 91.15,-215.73 91.04,-208.56"/>
<polygon fill="black" stroke="black" points="94.54,-208.62 90.94,-198.66 87.54,-208.69 94.54,-208.62"/>
<text xml:space="preserve" text-anchor="middle" x="103.38" y="-217.2" font-family="Helvetica,sans-Serif" font-size="14.00">true</text>
</g>
<!-- N12 -->
<g id="node14" class="node">
<title>N12</title>
<path fill="none" stroke="black" d="M221,-196.75C221,-196.75 191,-196.75 191,-196.75 185,-196.75 179,-190.75 179,-184.75 179,-184.75 179,-172.75 179,-172.75 179,-166.75 185,-160.75 191,-160.75 191,-160.75 221,-160.75 221,-160.75 227,-160.75 233,-166.75 233,-172.75 233,-172.75 233,-184.75 233,-184.75 233,-190.75 227,-196.75 221,-196.75"/>
<text xml:space="preserve" text-anchor="middle" x="206" y="-173.32" font-family="Helvetica,sans-Serif" font-size="14.00">k++</text>
</g>
<!-- N8&#45;&gt;N12 -->
<g id="edge13" class="edge">
<title>N8&#45;&gt;N12</title>
<path fill="none" stroke="black" d="M107.28,-248.01C115.31,-237.46 126.5,-224.27 138.5,-214.75 143.89,-210.48 156.06,-203.89 168.61,-197.58"/>
<polygon fill="black" stroke="black" points="169.87,-200.86 177.28,-193.29 166.76,-194.59 169.87,-200.86"/>
<text xml:space="preserve" text-anchor="middle" x="152.75" y="-217.2" font-family="Helvetica,sans-Serif" font-size="14.00">false</text>
</g>
<!-- N10 -->
<g id="node12" class="node">
<title>N10</title>
<path fill="none" stroke="black" d="M311.62,-109C311.62,-109 98.38,-109 98.38,-109 92.38,-109 86.38,-103 86.38,-97 86.38,-97 86.38,-85 86.38,-85 86.38,-79 92.38,-73 98.38,-73 98.38,-73 311.62,-73 311.62,-73 317.62,-73 323.62,-79 323.62,-85 323.62,-85 323.62,-97 323.62,-97 323.62,-103 317.62,-109 311.62,-109"/>
<text xml:space="preserve" text-anchor="middle" x="205" y="-85.58" font-family="Helvetica,sans-Serif" font-size="14.00">return answer[i][j][k][l] + keys[i][j][k][l];</text>
</g>
<!-- N9&#45;&gt;N10 -->
<g id="edge14" class="edge">
<title>N9&#45;&gt;N10</title>
<path fill="none" stroke="black" d="M114.07,-160.4C130.99,-147.67 154.18,-130.23 172.91,-116.14"/>
<polygon fill="black" stroke="black" points="174.87,-119.05 180.76,-110.24 170.66,-113.45 174.87,-119.05"/>
<text xml:space="preserve" text-anchor="middle" x="169.84" y="-129.45" font-family="Helvetica,sans-Serif" font-size="14.00">true</text>
</g>
<!-- N11 -->
<g id="node13" class="node">
<title>N11</title>
<path fill="none" stroke="black" d="M42,-109C42,-109 12,-109 12,-109 6,-109 0,-103 0,-97 0,-97 0,-85 0,-85 0,-79 6,-73 12,-73 12,-73 42,-73 42,-73 48,-73 54,-79 54,-85 54,-85 54,-97 54,-97 54,-103 48,-109 42,-109"/>
<text xml:space="preserve" text-anchor="middle" x="27" y="-85.58" font-family="Helvetica,sans-Serif" font-size="14.00">l++</text>
</g>
<!-- N9&#45;&gt;N11 -->
<g id="edge15" class="edge">
<title>N9&#45;&gt;N11</title>
<path fill="none" stroke="black" d="M72.81,-160.27C67.6,-154.88 62.1,-148.77 57.5,-142.75 51.86,-135.37 46.4,-126.87 41.7,-118.97"/>
<polygon fill="black" stroke="black" points="44.77,-117.3 36.75,-110.37 38.71,-120.79 44.77,-117.3"/>
<text xml:space="preserve" text-anchor="middle" x="71.75" y="-129.45" font-family="Helvetica,sans-Serif" font-size="14.00">false</text>
</g>
<!-- N10&#45;&gt;END -->
<g id="edge16" class="edge">
<title>N10&#45;&gt;END</title>
<path fill="none" stroke="black" d="M226.3,-72.81C238.66,-62.84 254.32,-50.21 267.35,-39.69"/>
<polygon fill="black" stroke="black" points="269.53,-42.43 275.12,-33.43 265.14,-36.98 269.53,-42.43"/>
</g>
<!-- N11&#45;&gt;N8 -->
<g id="edge17" class="edge">
<title>N11&#45;&gt;N8</title>
<path fill="none" stroke="black" d="M18.87,-109.2C9.95,-130.7 -1.45,-168.15 12,-196.75 21.67,-217.32 40.86,-233.85 58.35,-245.55"/>
<polygon fill="black" stroke="black" points="56.22,-248.34 66.54,-250.73 59.97,-242.42 56.22,-248.34"/>
</g>
<!-- N12&#45;&gt;N6 -->
<g id="edge18" class="edge">
<title>N12&#45;&gt;N6</title>
<path fill="none" stroke="black" d="M204.45,-197.06C200.72,-238.94 191.16,-346.06 186.55,-397.64"/>
<polygon fill="black" stroke="black" points="183.08,-397.14 185.68,-407.41 190.06,-397.76 183.08,-397.14"/>
</g>
<!-- N13&#45;&gt;N4 -->
<g id="edge19" class="edge">
<title>N13&#45;&gt;N4</title>
<path fill="none" stroke="black" d="M247.98,-357.81C250.36,-399.69 256.45,-506.81 259.38,-558.39"/>
<polygon fill="black" stroke="black" points="255.87,-558.37 259.93,-568.16 262.86,-557.97 255.87,-558.37"/>
</g>
<!-- N14&#45;&gt;N2 -->
<g id="edge20" class="edge">
<title>N14&#45;&gt;N2</title>
<path fill="none" stroke="black" d="M319.59,-518.69C320.08,-524.29 320.59,-530.53 321,-536.25 326.61,-614.97 331.39,-707.96 333.63,-753.98"/>
<polygon fill="black" stroke="black" points="330.14,-754.07 334.11,-763.89 337.13,-753.74 330.14,-754.07"/>
</g>
<!-- N15&#45;&gt;END -->
<g id="edge21" class="edge">
<title>N15&#45;&gt;END</title>
<path fill="none" stroke="black" d="M383.84,-623.69C382.66,-604.5 381,-572.61 381,-545.12 381,-545.12 381,-545.12 381,-90 381,-61.27 352.24,-42.19 327.61,-31.11"/>
<polygon fill="black" stroke="black" points="329.02,-27.91 318.44,-27.29 326.33,-34.37 329.02,-27.91"/>
</g>
</g>
</svg>
