<?xml version="1.0" encoding="UTF-8" standalone="no"?>
<!DOCTYPE svg PUBLIC "-//W3C//DTD SVG 1.1//EN"
 "http://www.w3.org/Graphics/SVG/1.1/DTD/svg11.dtd">
<!-- Generated by graphviz version 13.1.2 (20250808.2320)
 -->
<!-- Title: main_CFG Pages: 1 -->
<svg width="106pt" height="116pt"
 viewBox="0.00 0.00 106.00 116.00" xmlns="http://www.w3.org/2000/svg" xmlns:xlink="http://www.w3.org/1999/xlink">
<g id="graph0" class="graph" transform="scale(1 1) rotate(0) translate(4 112)">
<title>main_CFG</title>
<polygon fill="white" stroke="none" points="-4,4 -4,-112 101.75,-112 101.75,4 -4,4"/>
<!-- N1 -->
<g id="node1" class="node">
<title>N1</title>
<path fill="none" stroke="black" d="M85.75,-108C85.75,-108 12,-108 12,-108 6,-108 0,-102 0,-96 0,-96 0,-84 0,-84 0,-78 6,-72 12,-72 12,-72 85.75,-72 85.75,-72 91.75,-72 97.75,-78 97.75,-84 97.75,-84 97.75,-96 97.75,-96 97.75,-102 91.75,-108 85.75,-108"/>
<text xml:space="preserve" text-anchor="middle" x="48.88" y="-84.95" font-family="Times New Roman,serif" font-size="14.00">main: sort(20);</text>
</g>
<!-- N2 -->
<g id="node2" class="node">
<title>N2</title>
<path fill="none" stroke="black" d="M63.88,-36C63.88,-36 33.88,-36 33.88,-36 27.88,-36 21.88,-30 21.88,-24 21.88,-24 21.88,-12 21.88,-12 21.88,-6 27.88,0 33.88,0 33.88,0 63.88,0 63.88,0 69.88,0 75.88,-6 75.88,-12 75.88,-12 75.88,-24 75.88,-24 75.88,-30 69.88,-36 63.88,-36"/>
<text xml:space="preserve" text-anchor="middle" x="48.88" y="-12.95" font-family="Times New Roman,serif" font-size="14.00">return;</text>
</g>
<!-- N1&#45;&gt;N2 -->
<g id="edge1" class="edge">
<title>N1&#45;&gt;N2</title>
<path fill="none" stroke="black" d="M48.88,-71.7C48.88,-64.41 48.88,-55.73 48.88,-47.54"/>
<polygon fill="black" stroke="black" points="52.38,-47.62 48.88,-37.62 45.38,-47.62 52.38,-47.62"/>
</g>
</g>
</svg>
