<?xml version="1.0" encoding="UTF-8" standalone="no"?>
<!DOCTYPE svg PUBLIC "-//W3C//DTD SVG 1.1//EN"
 "http://www.w3.org/Graphics/SVG/1.1/DTD/svg11.dtd">
<!-- Generated by graphviz version 13.1.2 (20250808.2320)
 -->
<!-- Title: main_DFG Pages: 1 -->
<svg width="67pt" height="188pt"
 viewBox="0.00 0.00 67.00 188.00" xmlns="http://www.w3.org/2000/svg" xmlns:xlink="http://www.w3.org/1999/xlink">
<g id="graph0" class="graph" transform="scale(1 1) rotate(0) translate(4 184)">
<title>main_DFG</title>
<polygon fill="white" stroke="none" points="-4,4 -4,-184 62.75,-184 62.75,4 -4,4"/>
<!-- const_20 -->
<g id="node1" class="node">
<title>const_20</title>
<ellipse fill="none" stroke="black" cx="29.38" cy="-162" rx="27" ry="18"/>
<text xml:space="preserve" text-anchor="middle" x="29.38" y="-156.95" font-family="Times New Roman,serif" font-size="14.00">20</text>
</g>
<!-- call_sort -->
<g id="node2" class="node">
<title>call_sort</title>
<polygon fill="none" stroke="black" points="58.75,-108 0,-108 0,-72 58.75,-72 58.75,-108"/>
<text xml:space="preserve" text-anchor="middle" x="29.38" y="-84.95" font-family="Times New Roman,serif" font-size="14.00">sort(20)</text>
</g>
<!-- const_20&#45;&gt;call_sort -->
<g id="edge1" class="edge">
<title>const_20&#45;&gt;call_sort</title>
<path fill="none" stroke="black" d="M29.38,-143.7C29.38,-136.41 29.38,-127.73 29.38,-119.54"/>
<polygon fill="black" stroke="black" points="32.88,-119.62 29.38,-109.62 25.88,-119.62 32.88,-119.62"/>
</g>
<!-- result -->
<g id="node3" class="node">
<title>result</title>
<ellipse fill="none" stroke="black" cx="29.38" cy="-18" rx="27" ry="18"/>
<text xml:space="preserve" text-anchor="middle" x="29.38" y="-12.95" font-family="Times New Roman,serif" font-size="14.00">Exit</text>
</g>
<!-- call_sort&#45;&gt;result -->
<g id="edge2" class="edge">
<title>call_sort&#45;&gt;result</title>
<path fill="none" stroke="black" d="M29.38,-71.7C29.38,-64.41 29.38,-55.73 29.38,-47.54"/>
<polygon fill="black" stroke="black" points="32.88,-47.62 29.38,-37.62 25.88,-47.62 32.88,-47.62"/>
</g>
</g>
</svg>
