<?xml version="1.0" encoding="UTF-8" standalone="no"?>
<!DOCTYPE svg PUBLIC "-//W3C//DTD SVG 1.1//EN"
 "http://www.w3.org/Graphics/SVG/1.1/DTD/svg11.dtd">
<!-- Generated by graphviz version 13.1.2 (20250808.2320)
 -->
<!-- Title: sort_DFG Pages: 1 -->
<svg width="265pt" height="513pt"
 viewBox="0.00 0.00 265.00 513.00" xmlns="http://www.w3.org/2000/svg" xmlns:xlink="http://www.w3.org/1999/xlink">
<g id="graph0" class="graph" transform="scale(1 1) rotate(0) translate(4 509)">
<title>sort_DFG</title>
<polygon fill="white" stroke="none" points="-4,4 -4,-509 261.16,-509 261.16,4 -4,4"/>
<!-- n -->
<g id="node1" class="node">
<title>n</title>
<ellipse fill="lightblue" stroke="black" cx="59.75" cy="-487" rx="27" ry="18"/>
<text xml:space="preserve" text-anchor="middle" x="59.75" y="-481.95" font-family="Times New Roman,serif" font-size="14.00">n</text>
</g>
<!-- op_assign -->
<g id="node4" class="node">
<title>op_assign</title>
<polygon fill="lightblue" stroke="black" points="119.5,-432 0,-432 0,-396 119.5,-396 119.5,-432"/>
<text xml:space="preserve" text-anchor="middle" x="59.75" y="-408.95" font-family="Times New Roman,serif" font-size="14.00">l=1, ir=n, jstack=0</text>
</g>
<!-- n&#45;&gt;op_assign -->
<g id="edge1" class="edge">
<title>n&#45;&gt;op_assign</title>
<path fill="none" stroke="black" d="M59.75,-468.81C59.75,-461.23 59.75,-452.1 59.75,-443.54"/>
<polygon fill="black" stroke="black" points="63.25,-443.54 59.75,-433.54 56.25,-443.54 63.25,-443.54"/>
</g>
<!-- arr -->
<g id="node2" class="node">
<title>arr</title>
<ellipse fill="lightblue" stroke="black" cx="147.75" cy="-487" rx="27" ry="18"/>
<text xml:space="preserve" text-anchor="middle" x="147.75" y="-481.95" font-family="Times New Roman,serif" font-size="14.00">arr</text>
</g>
<!-- arr&#45;&gt;op_assign -->
<g id="edge2" class="edge">
<title>arr&#45;&gt;op_assign</title>
<path fill="none" stroke="black" d="M131.2,-472.65C119.6,-463.29 103.76,-450.51 89.95,-439.36"/>
<polygon fill="black" stroke="black" points="92.38,-436.83 82.4,-433.28 87.99,-442.28 92.38,-436.83"/>
</g>
<!-- op_swap -->
<g id="node6" class="node">
<title>op_swap</title>
<polygon fill="lightblue" stroke="black" points="167.88,-270.5 71.62,-270.5 71.62,-234.5 167.88,-234.5 167.88,-270.5"/>
<text xml:space="preserve" text-anchor="middle" x="119.75" y="-247.45" font-family="Times New Roman,serif" font-size="14.00">SWAP macros</text>
</g>
<!-- arr&#45;&gt;op_swap -->
<g id="edge3" class="edge">
<title>arr&#45;&gt;op_swap</title>
<path fill="none" stroke="black" d="M145.87,-468.54C142.13,-434.09 133.36,-354.91 124.75,-288.5 124.48,-286.44 124.2,-284.32 123.91,-282.18"/>
<polygon fill="black" stroke="black" points="127.4,-281.85 122.54,-272.43 120.46,-282.82 127.4,-281.85"/>
</g>
<!-- op_partition -->
<g id="node7" class="node">
<title>op_partition</title>
<polygon fill="lightblue" stroke="black" points="166.38,-182 73.12,-182 73.12,-146 166.38,-146 166.38,-182"/>
<text xml:space="preserve" text-anchor="middle" x="119.75" y="-158.95" font-family="Times New Roman,serif" font-size="14.00">Partition logic</text>
</g>
<!-- arr&#45;&gt;op_partition -->
<g id="edge4" class="edge">
<title>arr&#45;&gt;op_partition</title>
<path fill="none" stroke="black" d="M164.27,-472.34C178.15,-459.23 195.75,-438.06 195.75,-415 195.75,-415 195.75,-415 195.75,-251.5 195.75,-225.96 176.82,-204.37 157.85,-189.14"/>
<polygon fill="black" stroke="black" points="160.22,-186.54 150.12,-183.31 156,-192.13 160.22,-186.54"/>
</g>
<!-- istack -->
<g id="node3" class="node">
<title>istack</title>
<ellipse fill="lightblue" stroke="black" cx="224.75" cy="-487" rx="32.41" ry="18"/>
<text xml:space="preserve" text-anchor="middle" x="224.75" y="-481.95" font-family="Times New Roman,serif" font-size="14.00">istack</text>
</g>
<!-- op_compare -->
<g id="node5" class="node">
<title>op_compare</title>
<polygon fill="lightblue" stroke="black" points="90.25,-359 29.25,-359 29.25,-323 90.25,-323 90.25,-359"/>
<text xml:space="preserve" text-anchor="middle" x="59.75" y="-335.95" font-family="Times New Roman,serif" font-size="14.00">ir&#45;l &lt; M</text>
</g>
<!-- op_assign&#45;&gt;op_compare -->
<g id="edge5" class="edge">
<title>op_assign&#45;&gt;op_compare</title>
<path fill="none" stroke="black" d="M59.75,-395.81C59.75,-388.23 59.75,-379.1 59.75,-370.54"/>
<polygon fill="black" stroke="black" points="63.25,-370.54 59.75,-360.54 56.25,-370.54 63.25,-370.54"/>
</g>
<!-- op_compare&#45;&gt;op_swap -->
<g id="edge6" class="edge">
<title>op_compare&#45;&gt;op_swap</title>
<path fill="none" stroke="black" d="M71.6,-322.91C80.1,-310.67 91.69,-293.95 101.38,-279.99"/>
<polygon fill="black" stroke="black" points="104.03,-282.31 106.85,-272.09 98.28,-278.32 104.03,-282.31"/>
<text xml:space="preserve" text-anchor="middle" x="107.87" y="-291.7" font-family="Times New Roman,serif" font-size="14.00">false</text>
</g>
<!-- op_stack -->
<g id="node8" class="node">
<title>op_stack</title>
<polygon fill="lightblue" stroke="black" points="105.38,-109 6.12,-109 6.12,-73 105.38,-73 105.38,-109"/>
<text xml:space="preserve" text-anchor="middle" x="55.75" y="-85.95" font-family="Times New Roman,serif" font-size="14.00">Stack push/pop</text>
</g>
<!-- op_compare&#45;&gt;op_stack -->
<g id="edge7" class="edge">
<title>op_compare&#45;&gt;op_stack</title>
<path fill="none" stroke="black" d="M59.47,-322.56C58.79,-280.41 57.05,-172.63 56.21,-120.76"/>
<polygon fill="black" stroke="black" points="59.72,-120.88 56.06,-110.93 52.72,-120.99 59.72,-120.88"/>
<text xml:space="preserve" text-anchor="middle" x="68.25" y="-203.2" font-family="Times New Roman,serif" font-size="14.00">true</text>
</g>
<!-- op_swap&#45;&gt;op_partition -->
<g id="edge8" class="edge">
<title>op_swap&#45;&gt;op_partition</title>
<path fill="none" stroke="black" d="M119.75,-234.41C119.75,-222.76 119.75,-207.05 119.75,-193.52"/>
<polygon fill="black" stroke="black" points="123.25,-193.86 119.75,-183.86 116.25,-193.86 123.25,-193.86"/>
</g>
<!-- op_partition&#45;&gt;op_stack -->
<g id="edge9" class="edge">
<title>op_partition&#45;&gt;op_stack</title>
<path fill="none" stroke="black" d="M104.26,-145.81C96.55,-137.27 87.09,-126.77 78.58,-117.32"/>
<polygon fill="black" stroke="black" points="81.41,-115.24 72.11,-110.15 76.21,-119.92 81.41,-115.24"/>
</g>
<!-- result -->
<g id="node9" class="node">
<title>result</title>
<ellipse fill="lightgreen" stroke="black" cx="55.75" cy="-18" rx="47.77" ry="18"/>
<text xml:space="preserve" text-anchor="middle" x="55.75" y="-12.95" font-family="Times New Roman,serif" font-size="14.00">Sorted arr</text>
</g>
<!-- op_stack&#45;&gt;result -->
<g id="edge10" class="edge">
<title>op_stack&#45;&gt;result</title>
<path fill="none" stroke="black" d="M55.75,-72.81C55.75,-65.23 55.75,-56.1 55.75,-47.54"/>
<polygon fill="black" stroke="black" points="59.25,-47.54 55.75,-37.54 52.25,-47.54 59.25,-47.54"/>
</g>
</g>
</svg>
