<?xml version="1.0" encoding="UTF-8" standalone="no"?>
<!DOCTYPE svg PUBLIC "-//W3C//DTD SVG 1.1//EN"
 "http://www.w3.org/Graphics/SVG/1.1/DTD/svg11.dtd">
<!-- Generated by graphviz version 13.1.2 (20250808.2320)
 -->
<!-- Title: sort_CFG Pages: 1 -->
<svg width="1434pt" height="513pt"
 viewBox="0.00 0.00 1434.00 513.00" xmlns="http://www.w3.org/2000/svg" xmlns:xlink="http://www.w3.org/1999/xlink">
<g id="graph0" class="graph" transform="scale(1 1) rotate(0) translate(4 509)">
<title>sort_CFG</title>
<polygon fill="white" stroke="none" points="-4,4 -4,-509 1430.12,-509 1430.12,4 -4,4"/>
<!-- N1 -->
<g id="node1" class="node">
<title>N1</title>
<path fill="none" stroke="black" d="M855.5,-505C855.5,-505 618.25,-505 618.25,-505 612.25,-505 606.25,-499 606.25,-493 606.25,-493 606.25,-481 606.25,-481 606.25,-475 612.25,-469 618.25,-469 618.25,-469 855.5,-469 855.5,-469 861.5,-469 867.5,-475 867.5,-481 867.5,-481 867.5,-493 867.5,-493 867.5,-499 861.5,-505 855.5,-505"/>
<text xml:space="preserve" text-anchor="middle" x="736.88" y="-481.57" font-family="Helvetica,sans-Serif" font-size="14.00">B1: i, ir = n, j, k, l = 1; jstack = 0; flag = 0;</text>
</g>
<!-- N2 -->
<g id="node2" class="node">
<title>N2</title>
<path fill="none" stroke="black" d="M767,-432C767,-432 706.75,-432 706.75,-432 700.75,-432 694.75,-426 694.75,-420 694.75,-420 694.75,-408 694.75,-408 694.75,-402 700.75,-396 706.75,-396 706.75,-396 767,-396 767,-396 773,-396 779,-402 779,-408 779,-408 779,-420 779,-420 779,-426 773,-432 767,-432"/>
<text xml:space="preserve" text-anchor="middle" x="736.88" y="-408.57" font-family="Helvetica,sans-Serif" font-size="14.00">B2: for (;;) {</text>
</g>
<!-- N1&#45;&gt;N2 -->
<g id="edge1" class="edge">
<title>N1&#45;&gt;N2</title>
<path fill="none" stroke="black" d="M736.88,-468.81C736.88,-461.23 736.88,-452.1 736.88,-443.54"/>
<polygon fill="black" stroke="black" points="740.38,-443.54 736.88,-433.54 733.38,-443.54 740.38,-443.54"/>
</g>
<!-- N3 -->
<g id="node3" class="node">
<title>N3</title>
<path fill="none" stroke="black" d="M776,-359C776,-359 697.75,-359 697.75,-359 691.75,-359 685.75,-353 685.75,-347 685.75,-347 685.75,-335 685.75,-335 685.75,-329 691.75,-323 697.75,-323 697.75,-323 776,-323 776,-323 782,-323 788,-329 788,-335 788,-335 788,-347 788,-347 788,-353 782,-359 776,-359"/>
<text xml:space="preserve" text-anchor="middle" x="736.88" y="-335.57" font-family="Helvetica,sans-Serif" font-size="14.00">B3: if (ir&#45;l &lt; M)</text>
</g>
<!-- N2&#45;&gt;N3 -->
<g id="edge2" class="edge">
<title>N2&#45;&gt;N3</title>
<path fill="none" stroke="black" d="M736.88,-395.81C736.88,-388.23 736.88,-379.1 736.88,-370.54"/>
<polygon fill="black" stroke="black" points="740.38,-370.54 736.88,-360.54 733.38,-370.54 740.38,-370.54"/>
</g>
<!-- N4 -->
<g id="node4" class="node">
<title>N4</title>
<path fill="none" stroke="black" d="M812,-270.5C812,-270.5 217.75,-270.5 217.75,-270.5 211.75,-270.5 205.75,-264.5 205.75,-258.5 205.75,-258.5 205.75,-246.5 205.75,-246.5 205.75,-240.5 211.75,-234.5 217.75,-234.5 217.75,-234.5 812,-234.5 812,-234.5 818,-234.5 824,-240.5 824,-246.5 824,-246.5 824,-258.5 824,-258.5 824,-264.5 818,-270.5 812,-270.5"/>
<text xml:space="preserve" text-anchor="middle" x="514.88" y="-247.07" font-family="Helvetica,sans-Serif" font-size="14.00">B4: for (j=l+1; j&lt;=ir; j++) { a=arr[j]; for (i=j&#45;1; i&gt;=l; i&#45;&#45;) { if (arr[i]&lt;=a) break; arr[i+1]=arr[i]; } arr[i+1]=a; }</text>
</g>
<!-- N3&#45;&gt;N4 -->
<g id="edge3" class="edge">
<title>N3&#45;&gt;N4</title>
<path fill="none" stroke="black" d="M692.22,-322.6C656.92,-308.85 607.48,-289.58 569.77,-274.89"/>
<polygon fill="black" stroke="black" points="571.46,-271.79 560.87,-271.42 568.92,-278.31 571.46,-271.79"/>
<text xml:space="preserve" text-anchor="middle" x="656.26" y="-291.7" font-family="Times New Roman,serif" font-size="14.00">true</text>
</g>
<!-- N6 -->
<g id="node6" class="node">
<title>N6</title>
<path fill="none" stroke="black" d="M1414.12,-270.5C1414.12,-270.5 853.62,-270.5 853.62,-270.5 847.62,-270.5 841.62,-264.5 841.62,-258.5 841.62,-258.5 841.62,-246.5 841.62,-246.5 841.62,-240.5 847.62,-234.5 853.62,-234.5 853.62,-234.5 1414.12,-234.5 1414.12,-234.5 1420.12,-234.5 1426.12,-240.5 1426.12,-246.5 1426.12,-246.5 1426.12,-258.5 1426.12,-258.5 1426.12,-264.5 1420.12,-270.5 1414.12,-270.5"/>
<text xml:space="preserve" text-anchor="middle" x="1133.88" y="-247.07" font-family="Helvetica,sans-Serif" font-size="14.00">B6: else: k=(l+ir)&gt;&gt;1; SWAP; if&#45;else chains; partition code; jstack+=2; push to stack; update l/ir;</text>
</g>
<!-- N3&#45;&gt;N6 -->
<g id="edge4" class="edge">
<title>N3&#45;&gt;N6</title>
<path fill="none" stroke="black" d="M788.37,-328.78C852.69,-314.77 963.86,-290.54 1042.72,-273.36"/>
<polygon fill="black" stroke="black" points="1043.11,-276.86 1052.14,-271.31 1041.62,-270.02 1043.11,-276.86"/>
<text xml:space="preserve" text-anchor="middle" x="983.68" y="-291.7" font-family="Times New Roman,serif" font-size="14.00">false</text>
</g>
<!-- N5 -->
<g id="node5" class="node">
<title>N5</title>
<path fill="none" stroke="black" d="M367.75,-197.5C367.75,-197.5 12,-197.5 12,-197.5 6,-197.5 0,-191.5 0,-185.5 0,-185.5 0,-173.5 0,-173.5 0,-167.5 6,-161.5 12,-161.5 12,-161.5 367.75,-161.5 367.75,-161.5 373.75,-161.5 379.75,-167.5 379.75,-173.5 379.75,-173.5 379.75,-185.5 379.75,-185.5 379.75,-191.5 373.75,-197.5 367.75,-197.5"/>
<text xml:space="preserve" text-anchor="middle" x="189.88" y="-174.07" font-family="Helvetica,sans-Serif" font-size="14.00">B5: if (jstack == 0) break; ir=istack[jstack&#45;&#45;]; l=istack[jstack&#45;&#45;];</text>
</g>
<!-- N4&#45;&gt;N5 -->
<g id="edge5" class="edge">
<title>N4&#45;&gt;N5</title>
<path fill="none" stroke="black" d="M434.95,-234.04C388.31,-223.85 329.31,-210.96 280.88,-200.38"/>
<polygon fill="black" stroke="black" points="281.76,-196.99 271.25,-198.28 280.27,-203.83 281.76,-196.99"/>
</g>
<!-- N5&#45;&gt;N2 -->
<g id="edge7" class="edge">
<title>N5&#45;&gt;N2</title>
<path fill="none" stroke="black" d="M185.81,-197.93C182.27,-217.84 180.01,-250.28 196.88,-270.5 259.59,-345.68 559.39,-390.92 683.2,-406.68"/>
<polygon fill="black" stroke="black" points="682.41,-410.11 692.77,-407.88 683.28,-403.16 682.41,-410.11"/>
<text xml:space="preserve" text-anchor="middle" x="265.22" y="-291.7" font-family="Times New Roman,serif" font-size="14.00">continue</text>
</g>
<!-- N7 -->
<g id="node7" class="node">
<title>N7</title>
<path fill="none" stroke="black" d="M204.88,-109C204.88,-109 174.88,-109 174.88,-109 168.88,-109 162.88,-103 162.88,-97 162.88,-97 162.88,-85 162.88,-85 162.88,-79 168.88,-73 174.88,-73 174.88,-73 204.88,-73 204.88,-73 210.88,-73 216.88,-79 216.88,-85 216.88,-85 216.88,-97 216.88,-97 216.88,-103 210.88,-109 204.88,-109"/>
<text xml:space="preserve" text-anchor="middle" x="189.88" y="-85.58" font-family="Helvetica,sans-Serif" font-size="14.00">B7: }</text>
</g>
<!-- N5&#45;&gt;N7 -->
<g id="edge6" class="edge">
<title>N5&#45;&gt;N7</title>
<path fill="none" stroke="black" d="M189.88,-161.41C189.88,-149.76 189.88,-134.05 189.88,-120.52"/>
<polygon fill="black" stroke="black" points="193.38,-120.86 189.88,-110.86 186.38,-120.86 193.38,-120.86"/>
<text xml:space="preserve" text-anchor="middle" x="204.88" y="-130.2" font-family="Times New Roman,serif" font-size="14.00">break</text>
</g>
<!-- N6&#45;&gt;N2 -->
<g id="edge8" class="edge">
<title>N6&#45;&gt;N2</title>
<path fill="none" stroke="black" d="M1090.49,-270.93C1017.13,-300.4 868.84,-359.98 789.6,-391.82"/>
<polygon fill="black" stroke="black" points="788.74,-388.39 780.77,-395.37 791.35,-394.89 788.74,-388.39"/>
</g>
<!-- N8 -->
<g id="node8" class="node">
<title>N8</title>
<path fill="none" stroke="black" d="M217.38,-36C217.38,-36 162.38,-36 162.38,-36 156.38,-36 150.38,-30 150.38,-24 150.38,-24 150.38,-12 150.38,-12 150.38,-6 156.38,0 162.38,0 162.38,0 217.38,0 217.38,0 223.38,0 229.38,-6 229.38,-12 229.38,-12 229.38,-24 229.38,-24 229.38,-30 223.38,-36 217.38,-36"/>
<text xml:space="preserve" text-anchor="middle" x="189.88" y="-12.57" font-family="Helvetica,sans-Serif" font-size="14.00">B8: return;</text>
</g>
<!-- N7&#45;&gt;N8 -->
<g id="edge9" class="edge">
<title>N7&#45;&gt;N8</title>
<path fill="none" stroke="black" d="M189.88,-72.81C189.88,-65.23 189.88,-56.1 189.88,-47.54"/>
<polygon fill="black" stroke="black" points="193.38,-47.54 189.88,-37.54 186.38,-47.54 193.38,-47.54"/>
</g>
</g>
</svg>
