<?xml version="1.0" encoding="UTF-8" standalone="no"?>
<!DOCTYPE svg PUBLIC "-//W3C//DTD SVG 1.1//EN"
 "http://www.w3.org/Graphics/SVG/1.1/DTD/svg11.dtd">
<!-- Generated by graphviz version 13.1.2 (20250808.2320)
 -->
<!-- Title: CFG Pages: 1 -->
<svg width="384pt" height="1052pt"
 viewBox="0.00 0.00 384.00 1052.00" xmlns="http://www.w3.org/2000/svg" xmlns:xlink="http://www.w3.org/1999/xlink">
<g id="graph0" class="graph" transform="scale(1 1) rotate(0) translate(4 1047.77)">
<title>CFG</title>
<polygon fill="white" stroke="none" points="-4,4 -4,-1047.77 380.31,-1047.77 380.31,4 -4,4"/>
<!-- main_start -->
<g id="node1" class="node">
<title>main_start</title>
<path fill="none" stroke="black" d="M111.06,-1043.77C111.06,-1043.77 38.06,-1043.77 38.06,-1043.77 32.06,-1043.77 26.06,-1037.77 26.06,-1031.77 26.06,-1031.77 26.06,-1019.77 26.06,-1019.77 26.06,-1013.77 32.06,-1007.77 38.06,-1007.77 38.06,-1007.77 111.06,-1007.77 111.06,-1007.77 117.06,-1007.77 123.06,-1013.77 123.06,-1019.77 123.06,-1019.77 123.06,-1031.77 123.06,-1031.77 123.06,-1037.77 117.06,-1043.77 111.06,-1043.77"/>
<text xml:space="preserve" text-anchor="middle" x="74.56" y="-1020.34" font-family="Helvetica,sans-Serif" font-size="14.00">main: START</text>
</g>
<!-- main_decl -->
<g id="node2" class="node">
<title>main_decl</title>
<path fill="none" stroke="black" d="M89.56,-970.77C89.56,-970.77 59.56,-970.77 59.56,-970.77 53.56,-970.77 47.56,-964.77 47.56,-958.77 47.56,-958.77 47.56,-946.77 47.56,-946.77 47.56,-940.77 53.56,-934.77 59.56,-934.77 59.56,-934.77 89.56,-934.77 89.56,-934.77 95.56,-934.77 101.56,-940.77 101.56,-946.77 101.56,-946.77 101.56,-958.77 101.56,-958.77 101.56,-964.77 95.56,-970.77 89.56,-970.77"/>
<text xml:space="preserve" text-anchor="middle" x="74.56" y="-947.34" font-family="Helvetica,sans-Serif" font-size="14.00">int a;</text>
</g>
<!-- main_start&#45;&gt;main_decl -->
<g id="edge1" class="edge">
<title>main_start&#45;&gt;main_decl</title>
<path fill="none" stroke="black" d="M74.56,-1007.58C74.56,-1000 74.56,-990.87 74.56,-982.31"/>
<polygon fill="black" stroke="black" points="78.06,-982.31 74.56,-972.31 71.06,-982.31 78.06,-982.31"/>
</g>
<!-- main_assign -->
<g id="node3" class="node">
<title>main_assign</title>
<path fill="none" stroke="black" d="M91.56,-897.77C91.56,-897.77 57.56,-897.77 57.56,-897.77 51.56,-897.77 45.56,-891.77 45.56,-885.77 45.56,-885.77 45.56,-873.77 45.56,-873.77 45.56,-867.77 51.56,-861.77 57.56,-861.77 57.56,-861.77 91.56,-861.77 91.56,-861.77 97.56,-861.77 103.56,-867.77 103.56,-873.77 103.56,-873.77 103.56,-885.77 103.56,-885.77 103.56,-891.77 97.56,-897.77 91.56,-897.77"/>
<text xml:space="preserve" text-anchor="middle" x="74.56" y="-874.34" font-family="Helvetica,sans-Serif" font-size="14.00">a = 30;</text>
</g>
<!-- main_decl&#45;&gt;main_assign -->
<g id="edge2" class="edge">
<title>main_decl&#45;&gt;main_assign</title>
<path fill="none" stroke="black" d="M74.56,-934.58C74.56,-927 74.56,-917.87 74.56,-909.31"/>
<polygon fill="black" stroke="black" points="78.06,-909.31 74.56,-899.31 71.06,-909.31 78.06,-909.31"/>
</g>
<!-- main_call -->
<g id="node4" class="node">
<title>main_call</title>
<path fill="none" stroke="black" d="M89.56,-824.77C89.56,-824.77 59.56,-824.77 59.56,-824.77 53.56,-824.77 47.56,-818.77 47.56,-812.77 47.56,-812.77 47.56,-800.77 47.56,-800.77 47.56,-794.77 53.56,-788.77 59.56,-788.77 59.56,-788.77 89.56,-788.77 89.56,-788.77 95.56,-788.77 101.56,-794.77 101.56,-800.77 101.56,-800.77 101.56,-812.77 101.56,-812.77 101.56,-818.77 95.56,-824.77 89.56,-824.77"/>
<text xml:space="preserve" text-anchor="middle" x="74.56" y="-801.34" font-family="Helvetica,sans-Serif" font-size="14.00">fib(a);</text>
</g>
<!-- main_assign&#45;&gt;main_call -->
<g id="edge3" class="edge">
<title>main_assign&#45;&gt;main_call</title>
<path fill="none" stroke="black" d="M74.56,-861.58C74.56,-854 74.56,-844.87 74.56,-836.31"/>
<polygon fill="black" stroke="black" points="78.06,-836.31 74.56,-826.31 71.06,-836.31 78.06,-836.31"/>
</g>
<!-- main_return -->
<g id="node5" class="node">
<title>main_return</title>
<path fill="none" stroke="black" d="M79.68,-220.19C79.68,-220.19 37.43,-220.19 37.43,-220.19 31.43,-220.19 25.43,-214.19 25.43,-208.19 25.43,-208.19 25.43,-196.19 25.43,-196.19 25.43,-190.19 31.43,-184.19 37.43,-184.19 37.43,-184.19 79.68,-184.19 79.68,-184.19 85.68,-184.19 91.68,-190.19 91.68,-196.19 91.68,-196.19 91.68,-208.19 91.68,-208.19 91.68,-214.19 85.68,-220.19 79.68,-220.19"/>
<text xml:space="preserve" text-anchor="middle" x="58.56" y="-196.77" font-family="Helvetica,sans-Serif" font-size="14.00">return a;</text>
</g>
<!-- main_call&#45;&gt;main_return -->
<g id="edge4" class="edge">
<title>main_call&#45;&gt;main_return</title>
<path fill="none" stroke="black" d="M69.41,-788.54C64.73,-771.35 58.56,-744.1 58.56,-720.02 58.56,-720.02 58.56,-720.02 58.56,-319.02 58.56,-289.22 58.56,-255.12 58.56,-231.67"/>
<polygon fill="black" stroke="black" points="62.06,-231.97 58.56,-221.97 55.06,-231.97 62.06,-231.97"/>
</g>
<!-- fib_start -->
<g id="node7" class="node">
<title>fib_start</title>
<path fill="none" stroke="black" d="M181.18,-737.02C181.18,-737.02 123.93,-737.02 123.93,-737.02 117.93,-737.02 111.93,-731.02 111.93,-725.02 111.93,-725.02 111.93,-713.02 111.93,-713.02 111.93,-707.02 117.93,-701.02 123.93,-701.02 123.93,-701.02 181.18,-701.02 181.18,-701.02 187.18,-701.02 193.18,-707.02 193.18,-713.02 193.18,-713.02 193.18,-725.02 193.18,-725.02 193.18,-731.02 187.18,-737.02 181.18,-737.02"/>
<text xml:space="preserve" text-anchor="middle" x="152.56" y="-713.59" font-family="Helvetica,sans-Serif" font-size="14.00">fib: START</text>
</g>
<!-- main_call&#45;&gt;fib_start -->
<g id="edge15" class="edge">
<title>main_call&#45;&gt;fib_start</title>
<path fill="none" stroke="black" stroke-dasharray="5,2" d="M90.34,-788.42C101.55,-776.1 116.78,-759.36 129.36,-745.52"/>
<polygon fill="black" stroke="black" points="131.64,-748.22 135.78,-738.47 126.46,-743.51 131.64,-748.22"/>
<text xml:space="preserve" text-anchor="middle" x="130.67" y="-757.47" font-family="Helvetica,sans-Serif" font-size="14.00">call</text>
</g>
<!-- main_end -->
<g id="node6" class="node">
<title>main_end</title>
<ellipse fill="none" stroke="black" cx="58.56" cy="-58.56" rx="54.56" ry="54.56"/>
<ellipse fill="none" stroke="black" cx="58.56" cy="-58.56" rx="58.56" ry="58.56"/>
<text xml:space="preserve" text-anchor="middle" x="58.56" y="-53.13" font-family="Helvetica,sans-Serif" font-size="14.00">main: END</text>
</g>
<!-- main_return&#45;&gt;main_end -->
<g id="edge5" class="edge">
<title>main_return&#45;&gt;main_end</title>
<path fill="none" stroke="black" d="M58.56,-183.82C58.56,-169.86 58.56,-149.28 58.56,-128.86"/>
<polygon fill="black" stroke="black" points="62.06,-129.09 58.56,-119.09 55.06,-129.09 62.06,-129.09"/>
</g>
<!-- fib_decl -->
<g id="node8" class="node">
<title>fib_decl</title>
<path fill="none" stroke="black" d="M269.43,-664.02C269.43,-664.02 111.68,-664.02 111.68,-664.02 105.68,-664.02 99.68,-658.02 99.68,-652.02 99.68,-652.02 99.68,-640.02 99.68,-640.02 99.68,-634.02 105.68,-628.02 111.68,-628.02 111.68,-628.02 269.43,-628.02 269.43,-628.02 275.43,-628.02 281.43,-634.02 281.43,-640.02 281.43,-640.02 281.43,-652.02 281.43,-652.02 281.43,-658.02 275.43,-664.02 269.43,-664.02"/>
<text xml:space="preserve" text-anchor="middle" x="190.56" y="-640.59" font-family="Helvetica,sans-Serif" font-size="14.00">int i, Fnew, Fold, temp, ans;</text>
</g>
<!-- fib_start&#45;&gt;fib_decl -->
<g id="edge6" class="edge">
<title>fib_start&#45;&gt;fib_decl</title>
<path fill="none" stroke="black" d="M161.76,-700.83C166.05,-692.81 171.26,-683.07 176.07,-674.09"/>
<polygon fill="black" stroke="black" points="179.1,-675.85 180.73,-665.38 172.92,-672.55 179.1,-675.85"/>
</g>
<!-- fib_init -->
<g id="node9" class="node">
<title>fib_init</title>
<path fill="none" stroke="black" d="M271.93,-591.02C271.93,-591.02 129.18,-591.02 129.18,-591.02 123.18,-591.02 117.18,-585.02 117.18,-579.02 117.18,-579.02 117.18,-567.02 117.18,-567.02 117.18,-561.02 123.18,-555.02 129.18,-555.02 129.18,-555.02 271.93,-555.02 271.93,-555.02 277.93,-555.02 283.93,-561.02 283.93,-567.02 283.93,-567.02 283.93,-579.02 283.93,-579.02 283.93,-585.02 277.93,-591.02 271.93,-591.02"/>
<text xml:space="preserve" text-anchor="middle" x="200.56" y="-567.59" font-family="Helvetica,sans-Serif" font-size="14.00">Fnew = 1; Fold = 0; i = 2;</text>
</g>
<!-- fib_decl&#45;&gt;fib_init -->
<g id="edge7" class="edge">
<title>fib_decl&#45;&gt;fib_init</title>
<path fill="none" stroke="black" d="M192.98,-627.83C194.06,-620.16 195.36,-610.91 196.58,-602.26"/>
<polygon fill="black" stroke="black" points="200.02,-602.94 197.95,-592.55 193.09,-601.96 200.02,-602.94"/>
</g>
<!-- fib_cond -->
<g id="node10" class="node">
<title>fib_cond</title>
<path fill="none" stroke="black" d="M192.69,-516.21C192.69,-516.21 98.33,-501.83 98.33,-501.83 92.4,-500.92 92.4,-499.12 98.33,-498.21 98.33,-498.21 192.69,-483.83 192.69,-483.83 198.63,-482.92 210.49,-482.92 216.42,-483.83 216.42,-483.83 310.78,-498.21 310.78,-498.21 316.71,-499.12 316.71,-500.92 310.78,-501.83 310.78,-501.83 216.42,-516.21 216.42,-516.21 210.49,-517.12 198.63,-517.12 192.69,-516.21"/>
<text xml:space="preserve" text-anchor="middle" x="204.56" y="-494.59" font-family="Helvetica,sans-Serif" font-size="14.00">i &lt;= 30 &amp;&amp; i &lt;= n?</text>
</g>
<!-- fib_init&#45;&gt;fib_cond -->
<g id="edge8" class="edge">
<title>fib_init&#45;&gt;fib_cond</title>
<path fill="none" stroke="black" d="M201.53,-554.83C201.96,-547.16 202.48,-537.91 202.97,-529.26"/>
<polygon fill="black" stroke="black" points="206.44,-529.74 203.51,-519.56 199.46,-529.35 206.44,-529.74"/>
</g>
<!-- fib_loop -->
<g id="node11" class="node">
<title>fib_loop</title>
<path fill="none" stroke="black" d="M364.31,-430.27C364.31,-430.27 244.81,-430.27 244.81,-430.27 238.81,-430.27 232.81,-424.27 232.81,-418.27 232.81,-418.27 232.81,-387.02 232.81,-387.02 232.81,-381.02 238.81,-375.02 244.81,-375.02 244.81,-375.02 364.31,-375.02 364.31,-375.02 370.31,-375.02 376.31,-381.02 376.31,-387.02 376.31,-387.02 376.31,-418.27 376.31,-418.27 376.31,-424.27 370.31,-430.27 364.31,-430.27"/>
<text xml:space="preserve" text-anchor="middle" x="304.56" y="-412.97" font-family="Helvetica,sans-Serif" font-size="14.00">temp = Fnew;</text>
<text xml:space="preserve" text-anchor="middle" x="304.56" y="-397.22" font-family="Helvetica,sans-Serif" font-size="14.00">Fnew = Fnew + Fold;</text>
<text xml:space="preserve" text-anchor="middle" x="304.56" y="-381.47" font-family="Helvetica,sans-Serif" font-size="14.00">Fold = temp;</text>
</g>
<!-- fib_cond&#45;&gt;fib_loop -->
<g id="edge9" class="edge">
<title>fib_cond&#45;&gt;fib_loop</title>
<path fill="none" stroke="black" d="M220.18,-484.12C233.02,-471.87 251.72,-454.03 268.26,-438.26"/>
<polygon fill="black" stroke="black" points="270.25,-441.2 275.07,-431.76 265.42,-436.13 270.25,-441.2"/>
<text xml:space="preserve" text-anchor="middle" x="269.18" y="-450.72" font-family="Helvetica,sans-Serif" font-size="14.00">true</text>
</g>
<!-- fib_after_loop -->
<g id="node13" class="node">
<title>fib_after_loop</title>
<path fill="none" stroke="black" d="M164.68,-420.64C164.68,-420.64 98.43,-420.64 98.43,-420.64 92.43,-420.64 86.43,-414.64 86.43,-408.64 86.43,-408.64 86.43,-396.64 86.43,-396.64 86.43,-390.64 92.43,-384.64 98.43,-384.64 98.43,-384.64 164.68,-384.64 164.68,-384.64 170.68,-384.64 176.68,-390.64 176.68,-396.64 176.68,-396.64 176.68,-408.64 176.68,-408.64 176.68,-414.64 170.68,-420.64 164.68,-420.64"/>
<text xml:space="preserve" text-anchor="middle" x="131.56" y="-397.22" font-family="Helvetica,sans-Serif" font-size="14.00">ans = Fnew;</text>
</g>
<!-- fib_cond&#45;&gt;fib_after_loop -->
<g id="edge10" class="edge">
<title>fib_cond&#45;&gt;fib_after_loop</title>
<path fill="none" stroke="black" d="M183.97,-484.86C176.45,-479.01 168.27,-471.78 162.06,-464.02 154.19,-454.19 147.56,-441.99 142.51,-431.15"/>
<polygon fill="black" stroke="black" points="145.84,-430.02 138.61,-422.27 139.43,-432.83 145.84,-430.02"/>
<text xml:space="preserve" text-anchor="middle" x="176.31" y="-450.72" font-family="Helvetica,sans-Serif" font-size="14.00">false</text>
</g>
<!-- fib_inc -->
<g id="node12" class="node">
<title>fib_inc</title>
<path fill="none" stroke="black" d="M256.56,-338.02C256.56,-338.02 226.56,-338.02 226.56,-338.02 220.56,-338.02 214.56,-332.02 214.56,-326.02 214.56,-326.02 214.56,-314.02 214.56,-314.02 214.56,-308.02 220.56,-302.02 226.56,-302.02 226.56,-302.02 256.56,-302.02 256.56,-302.02 262.56,-302.02 268.56,-308.02 268.56,-314.02 268.56,-314.02 268.56,-326.02 268.56,-326.02 268.56,-332.02 262.56,-338.02 256.56,-338.02"/>
<text xml:space="preserve" text-anchor="middle" x="241.56" y="-314.59" font-family="Helvetica,sans-Serif" font-size="14.00">i++</text>
</g>
<!-- fib_loop&#45;&gt;fib_inc -->
<g id="edge11" class="edge">
<title>fib_loop&#45;&gt;fib_inc</title>
<path fill="none" stroke="black" d="M283.58,-374.8C276.57,-365.82 268.77,-355.84 261.81,-346.94"/>
<polygon fill="black" stroke="black" points="264.78,-345.05 255.86,-339.33 259.26,-349.36 264.78,-345.05"/>
</g>
<!-- fib_inc&#45;&gt;fib_cond -->
<g id="edge12" class="edge">
<title>fib_inc&#45;&gt;fib_cond</title>
<path fill="none" stroke="black" d="M234.96,-338.31C231.17,-348.8 226.57,-362.53 223.56,-375.02 215.74,-407.4 210.48,-445.36 207.51,-470.67"/>
<polygon fill="black" stroke="black" points="204.05,-470.16 206.41,-480.49 211,-470.94 204.05,-470.16"/>
</g>
<!-- fib_return -->
<g id="node14" class="node">
<title>fib_return</title>
<path fill="none" stroke="black" d="M159.81,-338.02C159.81,-338.02 103.31,-338.02 103.31,-338.02 97.31,-338.02 91.31,-332.02 91.31,-326.02 91.31,-326.02 91.31,-314.02 91.31,-314.02 91.31,-308.02 97.31,-302.02 103.31,-302.02 103.31,-302.02 159.81,-302.02 159.81,-302.02 165.81,-302.02 171.81,-308.02 171.81,-314.02 171.81,-314.02 171.81,-326.02 171.81,-326.02 171.81,-332.02 165.81,-338.02 159.81,-338.02"/>
<text xml:space="preserve" text-anchor="middle" x="131.56" y="-314.59" font-family="Helvetica,sans-Serif" font-size="14.00">return ans;</text>
</g>
<!-- fib_after_loop&#45;&gt;fib_return -->
<g id="edge13" class="edge">
<title>fib_after_loop&#45;&gt;fib_return</title>
<path fill="none" stroke="black" d="M131.56,-384.15C131.56,-374.11 131.56,-361.26 131.56,-349.78"/>
<polygon fill="black" stroke="black" points="135.06,-349.99 131.56,-339.99 128.06,-349.99 135.06,-349.99"/>
</g>
<!-- fib_return&#45;&gt;main_return -->
<g id="edge16" class="edge">
<title>fib_return&#45;&gt;main_return</title>
<path fill="none" stroke="black" stroke-dasharray="5,2" d="M114.42,-301.57C109.56,-296.18 104.46,-290.06 100.31,-284.02 88.81,-267.32 78.35,-247.04 70.77,-230.97"/>
<polygon fill="black" stroke="black" points="74,-229.62 66.64,-222 67.64,-232.54 74,-229.62"/>
<text xml:space="preserve" text-anchor="middle" x="117.93" y="-270.72" font-family="Helvetica,sans-Serif" font-size="14.00">return</text>
</g>
<!-- fib_end -->
<g id="node15" class="node">
<title>fib_end</title>
<ellipse fill="none" stroke="black" cx="157.56" cy="-202.19" rx="44.08" ry="44.08"/>
<ellipse fill="none" stroke="black" cx="157.56" cy="-202.19" rx="48.08" ry="48.08"/>
<text xml:space="preserve" text-anchor="middle" x="157.56" y="-196.77" font-family="Helvetica,sans-Serif" font-size="14.00">fib: END</text>
</g>
<!-- fib_return&#45;&gt;fib_end -->
<g id="edge14" class="edge">
<title>fib_return&#45;&gt;fib_end</title>
<path fill="none" stroke="black" d="M135.45,-301.68C137.95,-290.56 141.34,-275.42 144.72,-260.36"/>
<polygon fill="black" stroke="black" points="148.06,-261.46 146.84,-250.94 141.23,-259.93 148.06,-261.46"/>
</g>
</g>
</svg>
