<?xml version="1.0" encoding="UTF-8" standalone="no"?>
<!DOCTYPE svg PUBLIC "-//W3C//DTD SVG 1.1//EN"
 "http://www.w3.org/Graphics/SVG/1.1/DTD/svg11.dtd">
<!-- Generated by graphviz version 13.1.2 (20250808.2320)
 -->
<!-- Title: CFG_fib Pages: 1 -->
<svg width="542pt" height="352pt"
 viewBox="0.00 0.00 542.00 352.00" xmlns="http://www.w3.org/2000/svg" xmlns:xlink="http://www.w3.org/1999/xlink">
<g id="graph0" class="graph" transform="scale(1 1) rotate(0) translate(4 347.5)">
<title>CFG_fib</title>
<polygon fill="white" stroke="none" points="-4,4 -4,-347.5 537.77,-347.5 537.77,4 -4,4"/>
<!-- N1 -->
<g id="node1" class="node">
<title>N1</title>
<path fill="none" stroke="black" d="M492.88,-343.5C492.88,-343.5 368.88,-343.5 368.88,-343.5 362.88,-343.5 356.88,-337.5 356.88,-331.5 356.88,-331.5 356.88,-319.5 356.88,-319.5 356.88,-313.5 362.88,-307.5 368.88,-307.5 368.88,-307.5 492.88,-307.5 492.88,-307.5 498.88,-307.5 504.88,-313.5 504.88,-319.5 504.88,-319.5 504.88,-331.5 504.88,-331.5 504.88,-337.5 498.88,-343.5 492.88,-343.5"/>
<text xml:space="preserve" text-anchor="middle" x="430.88" y="-320.07" font-family="Helvetica,sans-Serif" font-size="14.00">1: Fnew = 1; Fold = 0;</text>
</g>
<!-- N2 -->
<g id="node2" class="node">
<title>N2</title>
<path fill="none" stroke="black" d="M449.38,-270.5C449.38,-270.5 412.38,-270.5 412.38,-270.5 406.38,-270.5 400.38,-264.5 400.38,-258.5 400.38,-258.5 400.38,-246.5 400.38,-246.5 400.38,-240.5 406.38,-234.5 412.38,-234.5 412.38,-234.5 449.38,-234.5 449.38,-234.5 455.38,-234.5 461.38,-240.5 461.38,-246.5 461.38,-246.5 461.38,-258.5 461.38,-258.5 461.38,-264.5 455.38,-270.5 449.38,-270.5"/>
<text xml:space="preserve" text-anchor="middle" x="430.88" y="-247.07" font-family="Helvetica,sans-Serif" font-size="14.00">2: i = 2;</text>
</g>
<!-- N1&#45;&gt;N2 -->
<g id="edge1" class="edge">
<title>N1&#45;&gt;N2</title>
<path fill="none" stroke="black" d="M430.88,-307.31C430.88,-299.73 430.88,-290.6 430.88,-282.04"/>
<polygon fill="black" stroke="black" points="434.38,-282.04 430.88,-272.04 427.38,-282.04 434.38,-282.04"/>
</g>
<!-- N3 -->
<g id="node3" class="node">
<title>N3</title>
<path fill="none" stroke="black" d="M495.12,-197.5C495.12,-197.5 366.62,-197.5 366.62,-197.5 360.62,-197.5 354.62,-191.5 354.62,-185.5 354.62,-185.5 354.62,-173.5 354.62,-173.5 354.62,-167.5 360.62,-161.5 366.62,-161.5 366.62,-161.5 495.12,-161.5 495.12,-161.5 501.12,-161.5 507.12,-167.5 507.12,-173.5 507.12,-173.5 507.12,-185.5 507.12,-185.5 507.12,-191.5 501.12,-197.5 495.12,-197.5"/>
<text xml:space="preserve" text-anchor="middle" x="430.88" y="-174.07" font-family="Helvetica,sans-Serif" font-size="14.00">3: if (i &lt;= 30 &amp;&amp; i &lt;= n)</text>
</g>
<!-- N2&#45;&gt;N3 -->
<g id="edge2" class="edge">
<title>N2&#45;&gt;N3</title>
<path fill="none" stroke="black" d="M430.88,-234.31C430.88,-226.73 430.88,-217.6 430.88,-209.04"/>
<polygon fill="black" stroke="black" points="434.38,-209.04 430.88,-199.04 427.38,-209.04 434.38,-209.04"/>
</g>
<!-- N4 -->
<g id="node4" class="node">
<title>N4</title>
<path fill="none" stroke="black" d="M313.75,-109C313.75,-109 12,-109 12,-109 6,-109 0,-103 0,-97 0,-97 0,-85 0,-85 0,-79 6,-73 12,-73 12,-73 313.75,-73 313.75,-73 319.75,-73 325.75,-79 325.75,-85 325.75,-85 325.75,-97 325.75,-97 325.75,-103 319.75,-109 313.75,-109"/>
<text xml:space="preserve" text-anchor="middle" x="162.88" y="-85.58" font-family="Helvetica,sans-Serif" font-size="14.00">4: temp = Fnew; Fnew = Fnew + Fold; Fold = temp;</text>
</g>
<!-- N3&#45;&gt;N4 -->
<g id="edge3" class="edge">
<title>N3&#45;&gt;N4</title>
<path fill="none" stroke="black" d="M376.96,-161.1C333.8,-147.17 273.14,-127.59 227.4,-112.82"/>
<polygon fill="black" stroke="black" points="228.73,-109.58 218.14,-109.84 226.58,-116.24 228.73,-109.58"/>
<text xml:space="preserve" text-anchor="middle" x="331.38" y="-130.2" font-family="Times New Roman,serif" font-size="14.00">true</text>
</g>
<!-- N6 -->
<g id="node6" class="node">
<title>N6</title>
<path fill="none" stroke="black" d="M505.62,-109C505.62,-109 356.12,-109 356.12,-109 350.12,-109 344.12,-103 344.12,-97 344.12,-97 344.12,-85 344.12,-85 344.12,-79 350.12,-73 356.12,-73 356.12,-73 505.62,-73 505.62,-73 511.62,-73 517.62,-79 517.62,-85 517.62,-85 517.62,-97 517.62,-97 517.62,-103 511.62,-109 505.62,-109"/>
<text xml:space="preserve" text-anchor="middle" x="430.88" y="-85.58" font-family="Helvetica,sans-Serif" font-size="14.00">6: ans = Fnew; return ans;</text>
</g>
<!-- N3&#45;&gt;N6 -->
<g id="edge4" class="edge">
<title>N3&#45;&gt;N6</title>
<path fill="none" stroke="black" d="M430.88,-161.41C430.88,-149.76 430.88,-134.05 430.88,-120.52"/>
<polygon fill="black" stroke="black" points="434.38,-120.86 430.88,-110.86 427.38,-120.86 434.38,-120.86"/>
<text xml:space="preserve" text-anchor="middle" x="443.62" y="-130.2" font-family="Times New Roman,serif" font-size="14.00">false</text>
</g>
<!-- N5 -->
<g id="node5" class="node">
<title>N5</title>
<path fill="none" stroke="black" d="M368.88,-36C368.88,-36 338.88,-36 338.88,-36 332.88,-36 326.88,-30 326.88,-24 326.88,-24 326.88,-12 326.88,-12 326.88,-6 332.88,0 338.88,0 338.88,0 368.88,0 368.88,0 374.88,0 380.88,-6 380.88,-12 380.88,-12 380.88,-24 380.88,-24 380.88,-30 374.88,-36 368.88,-36"/>
<text xml:space="preserve" text-anchor="middle" x="353.88" y="-12.57" font-family="Helvetica,sans-Serif" font-size="14.00">5: i++</text>
</g>
<!-- N4&#45;&gt;N5 -->
<g id="edge5" class="edge">
<title>N4&#45;&gt;N5</title>
<path fill="none" stroke="black" d="M209.6,-72.63C242.25,-60.49 285.31,-44.49 315.86,-33.13"/>
<polygon fill="black" stroke="black" points="316.94,-36.46 325.09,-29.7 314.5,-29.9 316.94,-36.46"/>
</g>
<!-- N5&#45;&gt;N3 -->
<g id="edge6" class="edge">
<title>N5&#45;&gt;N3</title>
<path fill="none" stroke="black" d="M381.36,-18.38C421.02,-19.17 493.23,-27.25 526.88,-73 549.2,-103.36 511.06,-134.91 476.44,-155.5"/>
<polygon fill="black" stroke="black" points="475.08,-152.25 468.14,-160.26 478.56,-158.33 475.08,-152.25"/>
</g>
</g>
</svg>
