<?xml version="1.0" encoding="UTF-8" standalone="no"?>
<!DOCTYPE svg PUBLIC "-//W3C//DTD SVG 1.1//EN"
 "http://www.w3.org/Graphics/SVG/1.1/DTD/svg11.dtd">
<!-- Generated by graphviz version 13.1.2 (20250808.2320)
 -->
<!-- Title: DFG_fib Pages: 1 -->
<svg width="438pt" height="476pt"
 viewBox="0.00 0.00 438.00 476.00" xmlns="http://www.w3.org/2000/svg" xmlns:xlink="http://www.w3.org/1999/xlink">
<g id="graph0" class="graph" transform="scale(1 1) rotate(0) translate(4 472)">
<title>DFG_fib</title>
<polygon fill="white" stroke="none" points="-4,4 -4,-472 433.62,-472 433.62,4 -4,4"/>
<!-- n_input -->
<g id="node1" class="node">
<title>n_input</title>
<ellipse fill="lightblue" stroke="black" cx="27" cy="-450" rx="27" ry="18"/>
<text xml:space="preserve" text-anchor="middle" x="27" y="-444.95" font-family="Times New Roman,serif" font-size="14.00">n</text>
</g>
<!-- op_init_i -->
<g id="node7" class="node">
<title>op_init_i</title>
<polygon fill="none" stroke="black" points="90,-396 36,-396 36,-360 90,-360 90,-396"/>
<text xml:space="preserve" text-anchor="middle" x="63" y="-372.95" font-family="Times New Roman,serif" font-size="14.00">i = 2</text>
</g>
<!-- n_input&#45;&gt;op_init_i -->
<!-- const_1 -->
<g id="node2" class="node">
<title>const_1</title>
<ellipse fill="lightblue" stroke="black" cx="225" cy="-450" rx="27" ry="18"/>
<text xml:space="preserve" text-anchor="middle" x="225" y="-444.95" font-family="Times New Roman,serif" font-size="14.00">1</text>
</g>
<!-- op_init_fnew -->
<g id="node5" class="node">
<title>op_init_fnew</title>
<polygon fill="none" stroke="black" points="259.25,-396 190.75,-396 190.75,-360 259.25,-360 259.25,-396"/>
<text xml:space="preserve" text-anchor="middle" x="225" y="-372.95" font-family="Times New Roman,serif" font-size="14.00">Fnew = 1</text>
</g>
<!-- const_1&#45;&gt;op_init_fnew -->
<g id="edge1" class="edge">
<title>const_1&#45;&gt;op_init_fnew</title>
<path fill="none" stroke="black" d="M225,-431.7C225,-424.41 225,-415.73 225,-407.54"/>
<polygon fill="black" stroke="black" points="228.5,-407.62 225,-397.62 221.5,-407.62 228.5,-407.62"/>
</g>
<!-- const_0 -->
<g id="node3" class="node">
<title>const_0</title>
<ellipse fill="lightblue" stroke="black" cx="398" cy="-234" rx="27" ry="18"/>
<text xml:space="preserve" text-anchor="middle" x="398" y="-228.95" font-family="Times New Roman,serif" font-size="14.00">0</text>
</g>
<!-- op_init_fold -->
<g id="node6" class="node">
<title>op_init_fold</title>
<polygon fill="none" stroke="black" points="429.62,-180 366.38,-180 366.38,-144 429.62,-144 429.62,-180"/>
<text xml:space="preserve" text-anchor="middle" x="398" y="-156.95" font-family="Times New Roman,serif" font-size="14.00">Fold = 0</text>
</g>
<!-- const_0&#45;&gt;op_init_fold -->
<g id="edge2" class="edge">
<title>const_0&#45;&gt;op_init_fold</title>
<path fill="none" stroke="black" d="M398,-215.7C398,-208.41 398,-199.73 398,-191.54"/>
<polygon fill="black" stroke="black" points="401.5,-191.62 398,-181.62 394.5,-191.62 401.5,-191.62"/>
</g>
<!-- const_2 -->
<g id="node4" class="node">
<title>const_2</title>
<ellipse fill="lightblue" stroke="black" cx="99" cy="-450" rx="27" ry="18"/>
<text xml:space="preserve" text-anchor="middle" x="99" y="-444.95" font-family="Times New Roman,serif" font-size="14.00">2</text>
</g>
<!-- const_2&#45;&gt;op_init_i -->
<g id="edge3" class="edge">
<title>const_2&#45;&gt;op_init_i</title>
<path fill="none" stroke="black" d="M90.65,-432.76C86.59,-424.87 81.6,-415.16 76.98,-406.18"/>
<polygon fill="black" stroke="black" points="80.18,-404.76 72.5,-397.47 73.96,-407.96 80.18,-404.76"/>
</g>
<!-- Fnew_out -->
<g id="node14" class="node">
<title>Fnew_out</title>
<ellipse fill="lightgreen" stroke="black" cx="225" cy="-306" rx="31.39" ry="18"/>
<text xml:space="preserve" text-anchor="middle" x="225" y="-300.95" font-family="Times New Roman,serif" font-size="14.00">Fnew</text>
</g>
<!-- op_init_fnew&#45;&gt;Fnew_out -->
<g id="edge4" class="edge">
<title>op_init_fnew&#45;&gt;Fnew_out</title>
<path fill="none" stroke="black" d="M225,-359.7C225,-352.41 225,-343.73 225,-335.54"/>
<polygon fill="black" stroke="black" points="228.5,-335.62 225,-325.62 221.5,-335.62 228.5,-335.62"/>
</g>
<!-- Fold_out -->
<g id="node15" class="node">
<title>Fold_out</title>
<ellipse fill="lightgreen" stroke="black" cx="306" cy="-90" rx="27.81" ry="18"/>
<text xml:space="preserve" text-anchor="middle" x="306" y="-84.95" font-family="Times New Roman,serif" font-size="14.00">Fold</text>
</g>
<!-- op_init_fold&#45;&gt;Fold_out -->
<g id="edge5" class="edge">
<title>op_init_fold&#45;&gt;Fold_out</title>
<path fill="none" stroke="black" d="M375.26,-143.7C362.29,-133.83 345.97,-121.41 332.43,-111.11"/>
<polygon fill="black" stroke="black" points="334.86,-108.56 324.78,-105.29 330.62,-114.13 334.86,-108.56"/>
</g>
<!-- i_out -->
<g id="node16" class="node">
<title>i_out</title>
<ellipse fill="lightgreen" stroke="black" cx="63" cy="-306" rx="27" ry="18"/>
<text xml:space="preserve" text-anchor="middle" x="63" y="-300.95" font-family="Times New Roman,serif" font-size="14.00">i</text>
</g>
<!-- op_init_i&#45;&gt;i_out -->
<g id="edge6" class="edge">
<title>op_init_i&#45;&gt;i_out</title>
<path fill="none" stroke="black" d="M63,-359.7C63,-352.41 63,-343.73 63,-335.54"/>
<polygon fill="black" stroke="black" points="66.5,-335.62 63,-325.62 59.5,-335.62 66.5,-335.62"/>
</g>
<!-- op_temp -->
<g id="node8" class="node">
<title>op_temp</title>
<polygon fill="none" stroke="black" points="351.75,-252 262.25,-252 262.25,-216 351.75,-216 351.75,-252"/>
<text xml:space="preserve" text-anchor="middle" x="307" y="-228.95" font-family="Times New Roman,serif" font-size="14.00">temp = Fnew</text>
</g>
<!-- op_update_fold -->
<g id="node10" class="node">
<title>op_update_fold</title>
<polygon fill="none" stroke="black" points="348.12,-180 263.88,-180 263.88,-144 348.12,-144 348.12,-180"/>
<text xml:space="preserve" text-anchor="middle" x="306" y="-156.95" font-family="Times New Roman,serif" font-size="14.00">Fold = temp</text>
</g>
<!-- op_temp&#45;&gt;op_update_fold -->
<g id="edge8" class="edge">
<title>op_temp&#45;&gt;op_update_fold</title>
<path fill="none" stroke="black" d="M306.75,-215.7C306.65,-208.41 306.52,-199.73 306.41,-191.54"/>
<polygon fill="black" stroke="black" points="309.91,-191.57 306.27,-181.62 302.91,-191.67 309.91,-191.57"/>
</g>
<!-- op_update_fnew -->
<g id="node9" class="node">
<title>op_update_fnew</title>
<polygon fill="none" stroke="black" points="291.12,-36 158.88,-36 158.88,0 291.12,0 291.12,-36"/>
<text xml:space="preserve" text-anchor="middle" x="225" y="-12.95" font-family="Times New Roman,serif" font-size="14.00">Fnew = Fnew + Fold</text>
</g>
<!-- op_update_fnew&#45;&gt;Fnew_out -->
<g id="edge11" class="edge">
<title>op_update_fnew&#45;&gt;Fnew_out</title>
<path fill="none" stroke="black" d="M228.44,-36.31C232.57,-84.01 232.84,-217.76 229.24,-276.6"/>
<polygon fill="black" stroke="black" points="225.76,-276.23 228.52,-286.46 232.74,-276.74 225.76,-276.23"/>
</g>
<!-- op_update_fold&#45;&gt;Fold_out -->
<g id="edge12" class="edge">
<title>op_update_fold&#45;&gt;Fold_out</title>
<path fill="none" stroke="black" d="M306,-143.7C306,-136.41 306,-127.73 306,-119.54"/>
<polygon fill="black" stroke="black" points="309.5,-119.62 306,-109.62 302.5,-119.62 309.5,-119.62"/>
</g>
<!-- op_inc_i -->
<g id="node11" class="node">
<title>op_inc_i</title>
<polygon fill="none" stroke="black" points="90,-252 36,-252 36,-216 90,-216 90,-252"/>
<text xml:space="preserve" text-anchor="middle" x="63" y="-228.95" font-family="Times New Roman,serif" font-size="14.00">i++</text>
</g>
<!-- op_inc_i&#45;&gt;i_out -->
<g id="edge14" class="edge">
<title>op_inc_i&#45;&gt;i_out</title>
<path fill="none" stroke="black" d="M68.91,-252.28C69.67,-259.6 69.91,-268.34 69.64,-276.57"/>
<polygon fill="black" stroke="black" points="66.15,-276.33 68.98,-286.54 73.14,-276.8 66.15,-276.33"/>
</g>
<!-- op_ans -->
<g id="node12" class="node">
<title>op_ans</title>
<polygon fill="none" stroke="black" points="187.88,-252 108.12,-252 108.12,-216 187.88,-216 187.88,-252"/>
<text xml:space="preserve" text-anchor="middle" x="148" y="-228.95" font-family="Times New Roman,serif" font-size="14.00">ans = Fnew</text>
</g>
<!-- ans_out -->
<g id="node17" class="node">
<title>ans_out</title>
<ellipse fill="lightgreen" stroke="black" cx="148" cy="-162" rx="27" ry="18"/>
<text xml:space="preserve" text-anchor="middle" x="148" y="-156.95" font-family="Times New Roman,serif" font-size="14.00">ans</text>
</g>
<!-- op_ans&#45;&gt;ans_out -->
<g id="edge16" class="edge">
<title>op_ans&#45;&gt;ans_out</title>
<path fill="none" stroke="black" d="M148,-215.7C148,-208.41 148,-199.73 148,-191.54"/>
<polygon fill="black" stroke="black" points="151.5,-191.62 148,-181.62 144.5,-191.62 151.5,-191.62"/>
</g>
<!-- op_return -->
<g id="node13" class="node">
<title>op_return</title>
<polygon fill="none" stroke="black" points="183,-108 113,-108 113,-72 183,-72 183,-108"/>
<text xml:space="preserve" text-anchor="middle" x="148" y="-84.95" font-family="Times New Roman,serif" font-size="14.00">return ans</text>
</g>
<!-- Fnew_out&#45;&gt;op_temp -->
<g id="edge7" class="edge">
<title>Fnew_out&#45;&gt;op_temp</title>
<path fill="none" stroke="black" d="M241.99,-290.5C252.41,-281.6 266.02,-269.98 278.1,-259.67"/>
<polygon fill="black" stroke="black" points="280.06,-262.6 285.4,-253.44 275.52,-257.27 280.06,-262.6"/>
</g>
<!-- Fnew_out&#45;&gt;op_update_fnew -->
<g id="edge9" class="edge">
<title>Fnew_out&#45;&gt;op_update_fnew</title>
<path fill="none" stroke="black" d="M221.59,-287.97C217.44,-240.59 217.16,-106.87 220.74,-47.73"/>
<polygon fill="black" stroke="black" points="224.23,-48.04 221.45,-37.82 217.25,-47.54 224.23,-48.04"/>
</g>
<!-- Fnew_out&#45;&gt;op_ans -->
<g id="edge15" class="edge">
<title>Fnew_out&#45;&gt;op_ans</title>
<path fill="none" stroke="black" d="M208.67,-290.15C198.96,-281.33 186.4,-269.91 175.22,-259.75"/>
<polygon fill="black" stroke="black" points="177.9,-257.45 168.14,-253.31 173.19,-262.63 177.9,-257.45"/>
</g>
<!-- Fold_out&#45;&gt;op_update_fnew -->
<g id="edge10" class="edge">
<title>Fold_out&#45;&gt;op_update_fnew</title>
<path fill="none" stroke="black" d="M290,-75.17C279.61,-66.19 265.78,-54.24 253.54,-43.67"/>
<polygon fill="black" stroke="black" points="255.99,-41.16 246.14,-37.26 251.41,-46.45 255.99,-41.16"/>
</g>
<!-- i_out&#45;&gt;op_inc_i -->
<g id="edge13" class="edge">
<title>i_out&#45;&gt;op_inc_i</title>
<path fill="none" stroke="black" d="M57.12,-288.05C56.34,-280.68 56.08,-271.84 56.35,-263.51"/>
<polygon fill="black" stroke="black" points="59.83,-263.99 56.99,-253.79 52.84,-263.54 59.83,-263.99"/>
</g>
<!-- ans_out&#45;&gt;op_return -->
<g id="edge17" class="edge">
<title>ans_out&#45;&gt;op_return</title>
<path fill="none" stroke="black" d="M148,-143.7C148,-136.41 148,-127.73 148,-119.54"/>
<polygon fill="black" stroke="black" points="151.5,-119.62 148,-109.62 144.5,-119.62 151.5,-119.62"/>
</g>
</g>
</svg>
