<?xml version="1.0" encoding="UTF-8" standalone="no"?>
<!DOCTYPE svg PUBLIC "-//W3C//DTD SVG 1.1//EN"
 "http://www.w3.org/Graphics/SVG/1.1/DTD/svg11.dtd">
<!-- Generated by graphviz version 13.1.2 (20250808.2320)
 -->
<!-- Title: DFG_main Pages: 1 -->
<svg width="138pt" height="260pt"
 viewBox="0.00 0.00 138.00 260.00" xmlns="http://www.w3.org/2000/svg" xmlns:xlink="http://www.w3.org/1999/xlink">
<g id="graph0" class="graph" transform="scale(1 1) rotate(0) translate(4 256)">
<title>DFG_main</title>
<polygon fill="white" stroke="none" points="-4,4 -4,-256 134,-256 134,4 -4,4"/>
<!-- const_30 -->
<g id="node1" class="node">
<title>const_30</title>
<ellipse fill="lightblue" stroke="black" cx="64" cy="-234" rx="27" ry="18"/>
<text xml:space="preserve" text-anchor="middle" x="64" y="-228.95" font-family="Times New Roman,serif" font-size="14.00">30</text>
</g>
<!-- op_assign_a -->
<g id="node2" class="node">
<title>op_assign_a</title>
<polygon fill="none" stroke="black" points="91,-180 37,-180 37,-144 91,-144 91,-180"/>
<text xml:space="preserve" text-anchor="middle" x="64" y="-156.95" font-family="Times New Roman,serif" font-size="14.00">a = 30</text>
</g>
<!-- const_30&#45;&gt;op_assign_a -->
<g id="edge1" class="edge">
<title>const_30&#45;&gt;op_assign_a</title>
<path fill="none" stroke="black" d="M64,-215.7C64,-208.41 64,-199.73 64,-191.54"/>
<polygon fill="black" stroke="black" points="67.5,-191.62 64,-181.62 60.5,-191.62 67.5,-191.62"/>
</g>
<!-- a_out -->
<g id="node5" class="node">
<title>a_out</title>
<ellipse fill="lightgreen" stroke="black" cx="64" cy="-90" rx="27" ry="18"/>
<text xml:space="preserve" text-anchor="middle" x="64" y="-84.95" font-family="Times New Roman,serif" font-size="14.00">a</text>
</g>
<!-- op_assign_a&#45;&gt;a_out -->
<g id="edge2" class="edge">
<title>op_assign_a&#45;&gt;a_out</title>
<path fill="none" stroke="black" d="M64,-143.7C64,-136.41 64,-127.73 64,-119.54"/>
<polygon fill="black" stroke="black" points="67.5,-119.62 64,-109.62 60.5,-119.62 67.5,-119.62"/>
</g>
<!-- op_call_fib -->
<g id="node3" class="node">
<title>op_call_fib</title>
<polygon fill="none" stroke="black" points="54,-36 0,-36 0,0 54,0 54,-36"/>
<text xml:space="preserve" text-anchor="middle" x="27" y="-12.95" font-family="Times New Roman,serif" font-size="14.00">fib(a)</text>
</g>
<!-- op_return -->
<g id="node4" class="node">
<title>op_return</title>
<polygon fill="none" stroke="black" points="130,-36 72,-36 72,0 130,0 130,-36"/>
<text xml:space="preserve" text-anchor="middle" x="101" y="-12.95" font-family="Times New Roman,serif" font-size="14.00">return a</text>
</g>
<!-- a_out&#45;&gt;op_call_fib -->
<g id="edge3" class="edge">
<title>a_out&#45;&gt;op_call_fib</title>
<path fill="none" stroke="black" d="M55.42,-72.76C51.24,-64.87 46.12,-55.16 41.37,-46.18"/>
<polygon fill="black" stroke="black" points="44.53,-44.67 36.76,-37.46 38.34,-47.94 44.53,-44.67"/>
</g>
<!-- a_out&#45;&gt;op_return -->
<g id="edge4" class="edge">
<title>a_out&#45;&gt;op_return</title>
<path fill="none" stroke="black" d="M72.58,-72.76C76.76,-64.87 81.88,-55.16 86.63,-46.18"/>
<polygon fill="black" stroke="black" points="89.66,-47.94 91.24,-37.46 83.47,-44.67 89.66,-47.94"/>
</g>
</g>
</svg>
