<?xml version="1.0" encoding="UTF-8" standalone="no"?>
<!DOCTYPE svg PUBLIC "-//W3C//DTD SVG 1.1//EN"
 "http://www.w3.org/Graphics/SVG/1.1/DTD/svg11.dtd">
<!-- Generated by graphviz version 13.1.2 (20250808.2320)
 -->
<!-- Title: Sum_CFG Pages: 1 -->
<svg width="662pt" height="638pt"
 viewBox="0.00 0.00 662.00 638.00" xmlns="http://www.w3.org/2000/svg" xmlns:xlink="http://www.w3.org/1999/xlink">
<g id="graph0" class="graph" transform="scale(1 1) rotate(0) translate(4 633.75)">
<title>Sum_CFG</title>
<polygon fill="white" stroke="none" points="-4,4 -4,-633.75 657.75,-633.75 657.75,4 -4,4"/>
<!-- N1 -->
<g id="node1" class="node">
<title>N1</title>
<path fill="none" stroke="black" d="M637.62,-629.75C637.62,-629.75 378.62,-629.75 378.62,-629.75 372.62,-629.75 366.62,-623.75 366.62,-617.75 366.62,-617.75 366.62,-605.75 366.62,-605.75 366.62,-599.75 372.62,-593.75 378.62,-593.75 378.62,-593.75 637.62,-593.75 637.62,-593.75 643.62,-593.75 649.62,-599.75 649.62,-605.75 649.62,-605.75 649.62,-617.75 649.62,-617.75 649.62,-623.75 643.62,-629.75 637.62,-629.75"/>
<text xml:space="preserve" text-anchor="middle" x="508.12" y="-606.33" font-family="Helvetica,sans-Serif" font-size="14.00">Inicio: int Ptotal=0, Ntotal=0, Pcnt=0, Ncnt=0</text>
</g>
<!-- N2 -->
<g id="node2" class="node">
<title>N2</title>
<path fill="none" stroke="black" d="M533,-556.75C533,-556.75 483.25,-556.75 483.25,-556.75 477.25,-556.75 471.25,-550.75 471.25,-544.75 471.25,-544.75 471.25,-532.75 471.25,-532.75 471.25,-526.75 477.25,-520.75 483.25,-520.75 483.25,-520.75 533,-520.75 533,-520.75 539,-520.75 545,-526.75 545,-532.75 545,-532.75 545,-544.75 545,-544.75 545,-550.75 539,-556.75 533,-556.75"/>
<text xml:space="preserve" text-anchor="middle" x="508.12" y="-533.33" font-family="Helvetica,sans-Serif" font-size="14.00">Outer = 0</text>
</g>
<!-- N1&#45;&gt;N2 -->
<g id="edge1" class="edge">
<title>N1&#45;&gt;N2</title>
<path fill="none" stroke="black" d="M508.12,-593.56C508.12,-585.98 508.12,-576.85 508.12,-568.29"/>
<polygon fill="black" stroke="black" points="511.63,-568.29 508.13,-558.29 504.63,-568.29 511.63,-568.29"/>
</g>
<!-- N3 -->
<g id="node3" class="node">
<title>N3</title>
<path fill="none" stroke="black" d="M563,-483.75C563,-483.75 453.25,-483.75 453.25,-483.75 447.25,-483.75 441.25,-477.75 441.25,-471.75 441.25,-471.75 441.25,-459.75 441.25,-459.75 441.25,-453.75 447.25,-447.75 453.25,-447.75 453.25,-447.75 563,-447.75 563,-447.75 569,-447.75 575,-453.75 575,-459.75 575,-459.75 575,-471.75 575,-471.75 575,-477.75 569,-483.75 563,-483.75"/>
<text xml:space="preserve" text-anchor="middle" x="508.12" y="-460.32" font-family="Helvetica,sans-Serif" font-size="14.00">Outer &lt; MAXSIZE?</text>
</g>
<!-- N2&#45;&gt;N3 -->
<g id="edge2" class="edge">
<title>N2&#45;&gt;N3</title>
<path fill="none" stroke="black" d="M508.12,-520.56C508.12,-512.98 508.12,-503.85 508.12,-495.29"/>
<polygon fill="black" stroke="black" points="511.63,-495.29 508.13,-485.29 504.63,-495.29 511.63,-495.29"/>
</g>
<!-- N4 -->
<g id="node4" class="node">
<title>N4</title>
<path fill="none" stroke="black" d="M461.12,-378.5C461.12,-378.5 415.12,-378.5 415.12,-378.5 409.12,-378.5 403.12,-372.5 403.12,-366.5 403.12,-366.5 403.12,-354.5 403.12,-354.5 403.12,-348.5 409.12,-342.5 415.12,-342.5 415.12,-342.5 461.12,-342.5 461.12,-342.5 467.12,-342.5 473.12,-348.5 473.12,-354.5 473.12,-354.5 473.12,-366.5 473.12,-366.5 473.12,-372.5 467.12,-378.5 461.12,-378.5"/>
<text xml:space="preserve" text-anchor="middle" x="438.12" y="-355.07" font-family="Helvetica,sans-Serif" font-size="14.00">Inner = 0</text>
</g>
<!-- N3&#45;&gt;N4 -->
<g id="edge3" class="edge">
<title>N3&#45;&gt;N4</title>
<path fill="none" stroke="black" d="M486.54,-447.54C480.74,-442.24 474.79,-436.12 470.12,-429.75 461.15,-417.5 453.74,-402.34 448.31,-389.42"/>
<polygon fill="black" stroke="black" points="451.59,-388.17 444.63,-380.18 445.08,-390.76 451.59,-388.17"/>
<text xml:space="preserve" text-anchor="middle" x="482.12" y="-416.45" font-family="Helvetica,sans-Serif" font-size="14.00">Sim</text>
</g>
<!-- N11 -->
<g id="node11" class="node">
<title>N11</title>
<path fill="none" stroke="black" d="M641.75,-396C641.75,-396 548.5,-396 548.5,-396 542.5,-396 536.5,-390 536.5,-384 536.5,-384 536.5,-337 536.5,-337 536.5,-331 542.5,-325 548.5,-325 548.5,-325 641.75,-325 641.75,-325 647.75,-325 653.75,-331 653.75,-337 653.75,-337 653.75,-384 653.75,-384 653.75,-390 647.75,-396 641.75,-396"/>
<text xml:space="preserve" text-anchor="middle" x="595.12" y="-378.7" font-family="Helvetica,sans-Serif" font-size="14.00">Postotal = Ptotal</text>
<text xml:space="preserve" text-anchor="middle" x="595.12" y="-362.95" font-family="Helvetica,sans-Serif" font-size="14.00">Poscnt = Pcnt</text>
<text xml:space="preserve" text-anchor="middle" x="595.12" y="-347.2" font-family="Helvetica,sans-Serif" font-size="14.00">Negtotal = Ntotal</text>
<text xml:space="preserve" text-anchor="middle" x="595.12" y="-331.45" font-family="Helvetica,sans-Serif" font-size="14.00">Negcnt = Ncnt</text>
</g>
<!-- N3&#45;&gt;N11 -->
<g id="edge4" class="edge">
<title>N3&#45;&gt;N11</title>
<path fill="none" stroke="black" d="M522.49,-447.7C532.34,-436.02 545.86,-419.96 558.58,-404.87"/>
<polygon fill="black" stroke="black" points="561.19,-407.2 564.96,-397.3 555.84,-402.69 561.19,-407.2"/>
<text xml:space="preserve" text-anchor="middle" x="561.39" y="-416.45" font-family="Helvetica,sans-Serif" font-size="14.00">Nao</text>
</g>
<!-- N5 -->
<g id="node5" class="node">
<title>N5</title>
<path fill="none" stroke="black" d="M468.12,-288C468.12,-288 362.12,-288 362.12,-288 356.12,-288 350.12,-282 350.12,-276 350.12,-276 350.12,-264 350.12,-264 350.12,-258 356.12,-252 362.12,-252 362.12,-252 468.12,-252 468.12,-252 474.12,-252 480.12,-258 480.12,-264 480.12,-264 480.12,-276 480.12,-276 480.12,-282 474.12,-288 468.12,-288"/>
<text xml:space="preserve" text-anchor="middle" x="415.12" y="-264.57" font-family="Helvetica,sans-Serif" font-size="14.00">Inner &lt; MAXSIZE?</text>
</g>
<!-- N4&#45;&gt;N5 -->
<g id="edge5" class="edge">
<title>N4&#45;&gt;N5</title>
<path fill="none" stroke="black" d="M433.58,-342.02C430.43,-329.89 426.17,-313.48 422.53,-299.49"/>
<polygon fill="black" stroke="black" points="425.94,-298.71 420.04,-289.91 419.17,-300.47 425.94,-298.71"/>
</g>
<!-- N6 -->
<g id="node6" class="node">
<title>N6</title>
<path fill="none" stroke="black" d="M365.75,-200.25C365.75,-200.25 230.5,-200.25 230.5,-200.25 224.5,-200.25 218.5,-194.25 218.5,-188.25 218.5,-188.25 218.5,-176.25 218.5,-176.25 218.5,-170.25 224.5,-164.25 230.5,-164.25 230.5,-164.25 365.75,-164.25 365.75,-164.25 371.75,-164.25 377.75,-170.25 377.75,-176.25 377.75,-176.25 377.75,-188.25 377.75,-188.25 377.75,-194.25 371.75,-200.25 365.75,-200.25"/>
<text xml:space="preserve" text-anchor="middle" x="298.12" y="-176.82" font-family="Helvetica,sans-Serif" font-size="14.00">Array[Outer][Inner] &lt; 0?</text>
</g>
<!-- N5&#45;&gt;N6 -->
<g id="edge6" class="edge">
<title>N5&#45;&gt;N6</title>
<path fill="none" stroke="black" d="M391.45,-251.65C374,-238.86 350.06,-221.32 330.8,-207.2"/>
<polygon fill="black" stroke="black" points="333.12,-204.56 322.99,-201.47 328.98,-210.21 333.12,-204.56"/>
<text xml:space="preserve" text-anchor="middle" x="379.1" y="-220.7" font-family="Helvetica,sans-Serif" font-size="14.00">Sim</text>
</g>
<!-- N10 -->
<g id="node10" class="node">
<title>N10</title>
<path fill="none" stroke="black" d="M516.62,-200.25C516.62,-200.25 473.62,-200.25 473.62,-200.25 467.62,-200.25 461.62,-194.25 461.62,-188.25 461.62,-188.25 461.62,-176.25 461.62,-176.25 461.62,-170.25 467.62,-164.25 473.62,-164.25 473.62,-164.25 516.62,-164.25 516.62,-164.25 522.62,-164.25 528.62,-170.25 528.62,-176.25 528.62,-176.25 528.62,-188.25 528.62,-188.25 528.62,-194.25 522.62,-200.25 516.62,-200.25"/>
<text xml:space="preserve" text-anchor="middle" x="495.12" y="-176.82" font-family="Helvetica,sans-Serif" font-size="14.00">Outer++</text>
</g>
<!-- N5&#45;&gt;N10 -->
<g id="edge7" class="edge">
<title>N5&#45;&gt;N10</title>
<path fill="none" stroke="black" d="M431.31,-251.65C442.81,-239.33 458.43,-222.59 471.33,-208.75"/>
<polygon fill="black" stroke="black" points="473.66,-211.38 477.93,-201.68 468.55,-206.61 473.66,-211.38"/>
<text xml:space="preserve" text-anchor="middle" x="474.67" y="-220.7" font-family="Helvetica,sans-Serif" font-size="14.00">Nao</text>
</g>
<!-- N7 -->
<g id="node7" class="node">
<title>N7</title>
<path fill="none" stroke="black" d="M174.25,-112.5C174.25,-112.5 12,-112.5 12,-112.5 6,-112.5 0,-106.5 0,-100.5 0,-100.5 0,-85 0,-85 0,-79 6,-73 12,-73 12,-73 174.25,-73 174.25,-73 180.25,-73 186.25,-79 186.25,-85 186.25,-85 186.25,-100.5 186.25,-100.5 186.25,-106.5 180.25,-112.5 174.25,-112.5"/>
<text xml:space="preserve" text-anchor="middle" x="93.12" y="-95.2" font-family="Helvetica,sans-Serif" font-size="14.00">Ptotal += Array[Outer][Inner]</text>
<text xml:space="preserve" text-anchor="middle" x="93.12" y="-79.45" font-family="Helvetica,sans-Serif" font-size="14.00">Pcnt++</text>
</g>
<!-- N6&#45;&gt;N7 -->
<g id="edge8" class="edge">
<title>N6&#45;&gt;N7</title>
<path fill="none" stroke="black" d="M245.29,-163.75C230.39,-158.47 214.25,-152.43 199.62,-146.25 179.53,-137.76 157.85,-127.32 139.33,-117.99"/>
<polygon fill="black" stroke="black" points="140.96,-114.89 130.46,-113.48 137.79,-121.13 140.96,-114.89"/>
<text xml:space="preserve" text-anchor="middle" x="246.88" y="-132.95" font-family="Helvetica,sans-Serif" font-size="14.00">Sim (Infeasible)</text>
</g>
<!-- N8 -->
<g id="node8" class="node">
<title>N8</title>
<path fill="none" stroke="black" d="M379.62,-112.5C379.62,-112.5 216.62,-112.5 216.62,-112.5 210.62,-112.5 204.62,-106.5 204.62,-100.5 204.62,-100.5 204.62,-85 204.62,-85 204.62,-79 210.62,-73 216.62,-73 216.62,-73 379.62,-73 379.62,-73 385.62,-73 391.62,-79 391.62,-85 391.62,-85 391.62,-100.5 391.62,-100.5 391.62,-106.5 385.62,-112.5 379.62,-112.5"/>
<text xml:space="preserve" text-anchor="middle" x="298.12" y="-95.2" font-family="Helvetica,sans-Serif" font-size="14.00">Ntotal += Array[Outer][Inner]</text>
<text xml:space="preserve" text-anchor="middle" x="298.12" y="-79.45" font-family="Helvetica,sans-Serif" font-size="14.00">Ncnt++</text>
</g>
<!-- N6&#45;&gt;N8 -->
<g id="edge9" class="edge">
<title>N6&#45;&gt;N8</title>
<path fill="none" stroke="black" d="M298.12,-163.96C298.12,-152.56 298.12,-137.32 298.12,-123.95"/>
<polygon fill="black" stroke="black" points="301.63,-124.34 298.13,-114.34 294.63,-124.34 301.63,-124.34"/>
<text xml:space="preserve" text-anchor="middle" x="310.5" y="-132.95" font-family="Helvetica,sans-Serif" font-size="14.00">Nao</text>
</g>
<!-- N9 -->
<g id="node9" class="node">
<title>N9</title>
<path fill="none" stroke="black" d="M317.75,-36C317.75,-36 278.5,-36 278.5,-36 272.5,-36 266.5,-30 266.5,-24 266.5,-24 266.5,-12 266.5,-12 266.5,-6 272.5,0 278.5,0 278.5,0 317.75,0 317.75,0 323.75,0 329.75,-6 329.75,-12 329.75,-12 329.75,-24 329.75,-24 329.75,-30 323.75,-36 317.75,-36"/>
<text xml:space="preserve" text-anchor="middle" x="298.12" y="-12.57" font-family="Helvetica,sans-Serif" font-size="14.00">Inner++</text>
</g>
<!-- N7&#45;&gt;N9 -->
<g id="edge10" class="edge">
<title>N7&#45;&gt;N9</title>
<path fill="none" stroke="black" d="M147.25,-72.54C181.1,-60.53 224.09,-45.27 255.51,-34.12"/>
<polygon fill="black" stroke="black" points="256.42,-37.51 264.68,-30.87 254.08,-30.92 256.42,-37.51"/>
</g>
<!-- N8&#45;&gt;N9 -->
<g id="edge11" class="edge">
<title>N8&#45;&gt;N9</title>
<path fill="none" stroke="black" d="M298.12,-72.64C298.12,-64.97 298.12,-55.97 298.12,-47.55"/>
<polygon fill="black" stroke="black" points="301.63,-47.76 298.13,-37.76 294.63,-47.76 301.63,-47.76"/>
</g>
<!-- N9&#45;&gt;N5 -->
<g id="edge12" class="edge">
<title>N9&#45;&gt;N5</title>
<path fill="none" stroke="black" d="M330.04,-26.95C353.59,-34.6 384.2,-48.7 400.12,-73 433.59,-124.07 427.61,-199.49 420.97,-240.28"/>
<polygon fill="black" stroke="black" points="417.54,-239.58 419.24,-250.04 424.43,-240.8 417.54,-239.58"/>
</g>
<!-- N10&#45;&gt;N3 -->
<g id="edge13" class="edge">
<title>N10&#45;&gt;N3</title>
<path fill="none" stroke="black" d="M495.92,-200.57C498.1,-247.64 504.13,-378.3 506.81,-436.34"/>
<polygon fill="black" stroke="black" points="503.3,-436.22 507.26,-446.05 510.3,-435.9 503.3,-436.22"/>
</g>
<!-- N12 -->
<g id="node12" class="node">
<title>N12</title>
<path fill="none" stroke="black" d="M615.12,-288C615.12,-288 575.12,-288 575.12,-288 569.12,-288 563.12,-282 563.12,-276 563.12,-276 563.12,-264 563.12,-264 563.12,-258 569.12,-252 575.12,-252 575.12,-252 615.12,-252 615.12,-252 621.12,-252 627.12,-258 627.12,-264 627.12,-264 627.12,-276 627.12,-276 627.12,-282 621.12,-288 615.12,-288"/>
<text xml:space="preserve" text-anchor="middle" x="595.12" y="-264.57" font-family="Helvetica,sans-Serif" font-size="14.00">Retorno</text>
</g>
<!-- N11&#45;&gt;N12 -->
<g id="edge14" class="edge">
<title>N11&#45;&gt;N12</title>
<path fill="none" stroke="black" d="M595.12,-324.52C595.12,-316.31 595.12,-307.65 595.12,-299.74"/>
<polygon fill="black" stroke="black" points="598.63,-300 595.13,-290 591.63,-300 598.63,-300"/>
</g>
</g>
</svg>
