<?xml version="1.0" encoding="UTF-8" standalone="no"?>
<!DOCTYPE svg PUBLIC "-//W3C//DTD SVG 1.1//EN"
 "http://www.w3.org/Graphics/SVG/1.1/DTD/svg11.dtd">
<!-- Generated by graphviz version 13.1.2 (20250808.2320)
 -->
<!-- Title: G Pages: 1 -->
<svg width="1826pt" height="371pt"
 viewBox="0.00 0.00 1826.00 371.00" xmlns="http://www.w3.org/2000/svg" xmlns:xlink="http://www.w3.org/1999/xlink">
<g id="graph0" class="graph" transform="scale(1 1) rotate(0) translate(4 367.39)">
<title>G</title>
<polygon fill="white" stroke="none" points="-4,4 -4,-367.39 1821.68,-367.39 1821.68,4 -4,4"/>
<!-- 1 -->
<g id="node1" class="node">
<title>1</title>
<ellipse fill="none" stroke="black" cx="99.88" cy="-263.51" rx="99.88" ry="99.88"/>
<text xml:space="preserve" text-anchor="middle" x="99.88" y="-266.71" font-family="Times New Roman,serif" font-size="14.00">1</text>
<text xml:space="preserve" text-anchor="middle" x="99.88" y="-250.21" font-family="Times New Roman,serif" font-size="14.00">definicao={s,valid_id}</text>
</g>
<!-- 2 -->
<g id="node2" class="node">
<title>2</title>
<ellipse fill="none" stroke="black" cx="396.11" cy="-190.51" rx="116.85" ry="116.85"/>
<text xml:space="preserve" text-anchor="middle" x="396.11" y="-201.96" font-family="Times New Roman,serif" font-size="14.00">2</text>
<text xml:space="preserve" text-anchor="middle" x="396.11" y="-185.46" font-family="Times New Roman,serif" font-size="14.00">definicao={valid_id,achar}</text>
<text xml:space="preserve" text-anchor="middle" x="396.11" y="-168.96" font-family="Times New Roman,serif" font-size="14.00">c&#45;uso=achar</text>
</g>
<!-- 1&#45;&gt;2 -->
<g id="edge1" class="edge">
<title>1&#45;&gt;2</title>
<path fill="none" stroke="black" d="M197.22,-239.61C220.87,-233.74 246.52,-227.38 271.26,-221.24"/>
<polygon fill="black" stroke="black" points="271.85,-224.7 280.71,-218.9 270.16,-217.91 271.85,-224.7"/>
<text xml:space="preserve" text-anchor="middle" x="239.51" y="-236.75" font-family="Times New Roman,serif" font-size="14.00">p&#45;uso=s</text>
</g>
<!-- 8 -->
<g id="node8" class="node">
<title>8</title>
<ellipse fill="none" stroke="black" cx="1053.23" cy="-289.51" rx="18" ry="18"/>
<text xml:space="preserve" text-anchor="middle" x="1053.23" y="-284.46" font-family="Times New Roman,serif" font-size="14.00">8</text>
</g>
<!-- 1&#45;&gt;8 -->
<g id="edge2" class="edge">
<title>1&#45;&gt;8</title>
<path fill="none" stroke="black" d="M193.88,-298.35C251.07,-316.73 326.35,-335.51 395.11,-335.51 395.11,-335.51 395.11,-335.51 866.32,-335.51 924.52,-335.51 990.06,-314.01 1025.68,-300.4"/>
<polygon fill="black" stroke="black" points="1026.7,-303.76 1034.74,-296.85 1024.15,-297.24 1026.7,-303.76"/>
<text xml:space="preserve" text-anchor="middle" x="680.14" y="-338.71" font-family="Times New Roman,serif" font-size="14.00">p&#45;uso=s</text>
</g>
<!-- 3 -->
<g id="node3" class="node">
<title>3</title>
<ellipse fill="none" stroke="black" cx="680.14" cy="-173.51" rx="87.68" ry="87.68"/>
<text xml:space="preserve" text-anchor="middle" x="680.14" y="-184.96" font-family="Times New Roman,serif" font-size="14.00">3</text>
<text xml:space="preserve" text-anchor="middle" x="680.14" y="-168.46" font-family="Times New Roman,serif" font-size="14.00">definicao={achar,i}</text>
<text xml:space="preserve" text-anchor="middle" x="680.14" y="-151.96" font-family="Times New Roman,serif" font-size="14.00">c&#45;uso=s</text>
</g>
<!-- 2&#45;&gt;3 -->
<g id="edge3" class="edge">
<title>2&#45;&gt;3</title>
<path fill="none" stroke="black" d="M513.04,-183.53C535.55,-182.17 558.95,-180.76 580.82,-179.44"/>
<polygon fill="black" stroke="black" points="580.83,-182.95 590.6,-178.85 580.41,-175.96 580.83,-182.95"/>
<text xml:space="preserve" text-anchor="middle" x="552.71" y="-185.21" font-family="Times New Roman,serif" font-size="14.00">p&#45;uso=s</text>
</g>
<!-- 2&#45;&gt;8 -->
<g id="edge4" class="edge">
<title>2&#45;&gt;8</title>
<path fill="none" stroke="black" d="M501.92,-241.23C530.64,-252.95 562.2,-263.91 592.46,-270.51 752.19,-305.4 950.38,-296.65 1023.44,-291.74"/>
<polygon fill="black" stroke="black" points="1023.6,-295.24 1033.33,-291.04 1023.1,-288.25 1023.6,-295.24"/>
<text xml:space="preserve" text-anchor="middle" x="807.57" y="-298.93" font-family="Times New Roman,serif" font-size="14.00">p&#45;uso=s</text>
</g>
<!-- 4 -->
<g id="node4" class="node">
<title>4</title>
<ellipse fill="none" stroke="black" cx="865.32" cy="-209.51" rx="18" ry="18"/>
<text xml:space="preserve" text-anchor="middle" x="865.32" y="-204.46" font-family="Times New Roman,serif" font-size="14.00">4</text>
</g>
<!-- 3&#45;&gt;4 -->
<g id="edge5" class="edge">
<title>3&#45;&gt;4</title>
<path fill="none" stroke="black" d="M766.56,-190.3C791.66,-195.23 817.37,-200.29 836.13,-203.97"/>
<polygon fill="black" stroke="black" points="835.4,-207.4 845.89,-205.89 836.75,-200.53 835.4,-207.4"/>
<text xml:space="preserve" text-anchor="middle" x="807.57" y="-205.83" font-family="Times New Roman,serif" font-size="14.00">p&#45;uso=s</text>
</g>
<!-- 5 -->
<g id="node5" class="node">
<title>5</title>
<ellipse fill="none" stroke="black" cx="1053.23" cy="-101.51" rx="82.91" ry="82.91"/>
<text xml:space="preserve" text-anchor="middle" x="1053.23" y="-112.96" font-family="Times New Roman,serif" font-size="14.00">5</text>
<text xml:space="preserve" text-anchor="middle" x="1053.23" y="-96.46" font-family="Times New Roman,serif" font-size="14.00">definicao={achar}</text>
<text xml:space="preserve" text-anchor="middle" x="1053.23" y="-79.96" font-family="Times New Roman,serif" font-size="14.00">c&#45;uso=s,i</text>
</g>
<!-- 4&#45;&gt;5 -->
<g id="edge6" class="edge">
<title>4&#45;&gt;5</title>
<path fill="none" stroke="black" d="M880.39,-199.16C886.69,-194.65 894.27,-189.41 901.32,-185.01 923.11,-171.41 947.25,-157.55 969.71,-145.12"/>
<polygon fill="black" stroke="black" points="971.16,-148.32 978.23,-140.44 967.78,-142.19 971.16,-148.32"/>
<text xml:space="preserve" text-anchor="middle" x="926.82" y="-188.21" font-family="Times New Roman,serif" font-size="14.00">p&#45;uso=s,i</text>
</g>
<!-- 4&#45;&gt;8 -->
<g id="edge7" class="edge">
<title>4&#45;&gt;8</title>
<path fill="none" stroke="black" d="M881.06,-218.55C887.22,-222.16 894.51,-226.24 901.32,-229.51 943.67,-249.91 994.85,-269.18 1025.41,-280.15"/>
<polygon fill="black" stroke="black" points="1024.03,-283.37 1034.62,-283.42 1026.37,-276.78 1024.03,-283.37"/>
<text xml:space="preserve" text-anchor="middle" x="926.82" y="-254.45" font-family="Times New Roman,serif" font-size="14.00">p&#45;uso=s,i</text>
</g>
<!-- 6 -->
<g id="node6" class="node">
<title>6</title>
<ellipse fill="none" stroke="black" cx="1348.15" cy="-93.51" rx="93.51" ry="93.51"/>
<text xml:space="preserve" text-anchor="middle" x="1348.15" y="-96.71" font-family="Times New Roman,serif" font-size="14.00">6</text>
<text xml:space="preserve" text-anchor="middle" x="1348.15" y="-80.21" font-family="Times New Roman,serif" font-size="14.00">definicao={valid_id}</text>
</g>
<!-- 5&#45;&gt;6 -->
<g id="edge8" class="edge">
<title>5&#45;&gt;6</title>
<path fill="none" stroke="black" d="M1136.6,-99.27C1169.66,-98.36 1208.14,-97.31 1243.1,-96.36"/>
<polygon fill="black" stroke="black" points="1242.9,-99.86 1252.8,-96.09 1242.71,-92.87 1242.9,-99.86"/>
<text xml:space="preserve" text-anchor="middle" x="1195.39" y="-101.9" font-family="Times New Roman,serif" font-size="14.00">p&#45;uso=achar</text>
</g>
<!-- 7 -->
<g id="node7" class="node">
<title>7</title>
<ellipse fill="none" stroke="black" cx="1625.04" cy="-114.51" rx="64.88" ry="64.88"/>
<text xml:space="preserve" text-anchor="middle" x="1625.04" y="-125.96" font-family="Times New Roman,serif" font-size="14.00">7</text>
<text xml:space="preserve" text-anchor="middle" x="1625.04" y="-109.46" font-family="Times New Roman,serif" font-size="14.00">definicao={i}</text>
<text xml:space="preserve" text-anchor="middle" x="1625.04" y="-92.96" font-family="Times New Roman,serif" font-size="14.00">c&#45;uso=i</text>
</g>
<!-- 6&#45;&gt;7 -->
<g id="edge9" class="edge">
<title>6&#45;&gt;7</title>
<path fill="none" stroke="black" d="M1441.83,-100.6C1476.55,-103.25 1515.55,-106.23 1548.53,-108.75"/>
<polygon fill="black" stroke="black" points="1548.18,-112.23 1558.41,-109.5 1548.71,-105.25 1548.18,-112.23"/>
<text xml:space="preserve" text-anchor="middle" x="1500.92" y="-110.92" font-family="Times New Roman,serif" font-size="14.00">p&#45;uso=valid_id</text>
</g>
<!-- 7&#45;&gt;4 -->
<g id="edge10" class="edge">
<title>7&#45;&gt;4</title>
<path fill="none" stroke="black" d="M1568.19,-146.68C1533.09,-165.08 1486.19,-186.44 1441.67,-196.51 1236.4,-242.97 979.4,-221.78 894.77,-212.81"/>
<polygon fill="black" stroke="black" points="895.39,-209.36 885.07,-211.75 894.63,-216.32 895.39,-209.36"/>
<text xml:space="preserve" text-anchor="middle" x="1195.39" y="-228.6" font-family="Times New Roman,serif" font-size="14.00">p&#45;uso=i</text>
</g>
<!-- 9 -->
<g id="node9" class="node">
<title>9</title>
<ellipse fill="none" stroke="black" cx="1348.15" cy="-286.51" rx="18" ry="18"/>
<text xml:space="preserve" text-anchor="middle" x="1348.15" y="-281.46" font-family="Times New Roman,serif" font-size="14.00">9</text>
</g>
<!-- 8&#45;&gt;9 -->
<g id="edge11" class="edge">
<title>8&#45;&gt;9</title>
<path fill="none" stroke="black" d="M1071.67,-289.34C1120.41,-288.84 1258.38,-287.42 1318.53,-286.81"/>
<polygon fill="black" stroke="black" points="1318.32,-290.31 1328.28,-286.71 1318.25,-283.31 1318.32,-290.31"/>
<text xml:space="preserve" text-anchor="middle" x="1195.39" y="-291.66" font-family="Times New Roman,serif" font-size="14.00">p&#45;uso=valid_id</text>
</g>
<!-- 12 -->
<g id="node12" class="node">
<title>12</title>
<ellipse fill="none" stroke="black" cx="1793.55" cy="-287.51" rx="20.13" ry="20.13"/>
<ellipse fill="none" stroke="black" cx="1793.55" cy="-287.51" rx="24.13" ry="24.13"/>
<text xml:space="preserve" text-anchor="middle" x="1793.55" y="-282.46" font-family="Times New Roman,serif" font-size="14.00">12</text>
</g>
<!-- 8&#45;&gt;12 -->
<g id="edge12" class="edge">
<title>8&#45;&gt;12</title>
<path fill="none" stroke="black" d="M1071.09,-293.46C1090.86,-297.91 1124.68,-305 1154.14,-308.51 1198.54,-313.82 1209.93,-312.4 1254.64,-313.51 1448.05,-318.32 1496.8,-319.25 1689.92,-307.51 1717.33,-305.85 1724.57,-307.31 1751.42,-301.51 1754.19,-300.92 1757.04,-300.19 1759.88,-299.39"/>
<polygon fill="black" stroke="black" points="1760.67,-302.81 1769.17,-296.48 1758.58,-296.13 1760.67,-302.81"/>
</g>
<!-- 10 -->
<g id="node10" class="node">
<title>10</title>
<ellipse fill="none" stroke="black" cx="1625.04" cy="-231.51" rx="20.13" ry="20.13"/>
<text xml:space="preserve" text-anchor="middle" x="1625.04" y="-226.46" font-family="Times New Roman,serif" font-size="14.00">10</text>
</g>
<!-- 9&#45;&gt;10 -->
<g id="edge13" class="edge">
<title>9&#45;&gt;10</title>
<path fill="none" stroke="black" d="M1365.87,-281.45C1387.4,-275.07 1426.05,-264.09 1459.67,-257.01 1505.98,-247.27 1560.35,-239.55 1593.49,-235.26"/>
<polygon fill="black" stroke="black" points="1593.71,-238.76 1603.19,-234.03 1592.83,-231.82 1593.71,-238.76"/>
<text xml:space="preserve" text-anchor="middle" x="1500.92" y="-260.21" font-family="Times New Roman,serif" font-size="14.00">p&#45;uso=valid_id</text>
</g>
<!-- 9&#45;&gt;12 -->
<g id="edge14" class="edge">
<title>9&#45;&gt;12</title>
<path fill="none" stroke="black" d="M1366.53,-286.55C1432.51,-286.7 1668.22,-287.23 1757.73,-287.44"/>
<polygon fill="black" stroke="black" points="1757.6,-290.94 1767.6,-287.46 1757.61,-283.94 1757.6,-290.94"/>
<text xml:space="preserve" text-anchor="middle" x="1625.04" y="-290.47" font-family="Times New Roman,serif" font-size="14.00">p&#45;uso=s</text>
</g>
<!-- 11 -->
<g id="node11" class="node">
<title>11</title>
<ellipse fill="none" stroke="black" cx="1793.55" cy="-215.51" rx="20.13" ry="20.13"/>
<ellipse fill="none" stroke="black" cx="1793.55" cy="-215.51" rx="24.13" ry="24.13"/>
<text xml:space="preserve" text-anchor="middle" x="1793.55" y="-210.46" font-family="Times New Roman,serif" font-size="14.00">11</text>
</g>
<!-- 10&#45;&gt;11 -->
<g id="edge16" class="edge">
<title>10&#45;&gt;11</title>
<path fill="none" stroke="black" d="M1645.12,-227.26C1661.63,-223.78 1686.22,-219.12 1707.92,-217.01 1724.35,-215.42 1742.67,-214.94 1758.04,-214.9"/>
<polygon fill="black" stroke="black" points="1757.62,-218.4 1767.63,-214.94 1757.64,-211.4 1757.62,-218.4"/>
<text xml:space="preserve" text-anchor="middle" x="1729.67" y="-220.21" font-family="Times New Roman,serif" font-size="14.00">p&#45;uso=s</text>
</g>
<!-- 10&#45;&gt;12 -->
<g id="edge15" class="edge">
<title>10&#45;&gt;12</title>
<path fill="none" stroke="black" d="M1645.53,-232.84C1670.88,-235.15 1716.12,-241.28 1751.42,-257.01 1756.34,-259.21 1761.23,-262.07 1765.83,-265.16"/>
<polygon fill="black" stroke="black" points="1763.43,-267.74 1773.57,-270.8 1767.55,-262.08 1763.43,-267.74"/>
<text xml:space="preserve" text-anchor="middle" x="1729.67" y="-260.21" font-family="Times New Roman,serif" font-size="14.00">p&#45;uso=s</text>
</g>
</g>
</svg>
