<?xml version="1.0" encoding="UTF-8" standalone="no"?>
<!DOCTYPE svg PUBLIC "-//W3C//DTD SVG 1.1//EN"
 "http://www.w3.org/Graphics/SVG/1.1/DTD/svg11.dtd">
<!-- Generated by graphviz version 13.1.2 (20250808.2320)
 -->
<!-- Title: Sum Pages: 1 -->
<svg width="875pt" height="634pt"
 viewBox="0.00 0.00 875.00 634.00" xmlns="http://www.w3.org/2000/svg" xmlns:xlink="http://www.w3.org/1999/xlink">
<g id="graph0" class="graph" transform="scale(1 1) rotate(0) translate(4 630)">
<title>Sum</title>
<polygon fill="white" stroke="none" points="-4,4 -4,-630 870.75,-630 870.75,4 -4,4"/>
<!-- Start -->
<g id="node1" class="node">
<title>Start</title>
<polygon fill="none" stroke="black" points="866.75,-626 482.5,-626 482.5,-585 866.75,-585 866.75,-626"/>
<text xml:space="preserve" text-anchor="middle" x="674.62" y="-608.7" font-family="Times New Roman,serif" font-size="14.00">Start</text>
<text xml:space="preserve" text-anchor="middle" x="674.62" y="-592.2" font-family="Times New Roman,serif" font-size="14.00">Definicoes: Outer=0, Inner=0, Ptotal=0, Ntotal=0, Pcnt=0, Ncnt=0</text>
</g>
<!-- LoopOuter -->
<g id="node2" class="node">
<title>LoopOuter</title>
<polygon fill="none" stroke="black" points="765.88,-548 583.38,-548 583.38,-490.5 765.88,-490.5 765.88,-548"/>
<text xml:space="preserve" text-anchor="middle" x="674.62" y="-530.7" font-family="Times New Roman,serif" font-size="14.00">LoopOuter</text>
<text xml:space="preserve" text-anchor="middle" x="674.62" y="-514.2" font-family="Times New Roman,serif" font-size="14.00">Condicao: Outer &lt; MAXSIZE</text>
<text xml:space="preserve" text-anchor="middle" x="674.62" y="-497.7" font-family="Times New Roman,serif" font-size="14.00">c&#45;uso: Outer</text>
</g>
<!-- Start&#45;&gt;LoopOuter -->
<g id="edge1" class="edge">
<title>Start&#45;&gt;LoopOuter</title>
<path fill="none" stroke="black" d="M674.62,-584.53C674.62,-577.11 674.62,-568.4 674.62,-559.83"/>
<polygon fill="black" stroke="black" points="678.13,-559.87 674.63,-549.87 671.13,-559.87 678.13,-559.87"/>
</g>
<!-- LoopInner -->
<g id="node3" class="node">
<title>LoopInner</title>
<polygon fill="none" stroke="black" points="613.75,-421.5 433.5,-421.5 433.5,-364 613.75,-364 613.75,-421.5"/>
<text xml:space="preserve" text-anchor="middle" x="523.62" y="-404.2" font-family="Times New Roman,serif" font-size="14.00">LoopInner</text>
<text xml:space="preserve" text-anchor="middle" x="523.62" y="-387.7" font-family="Times New Roman,serif" font-size="14.00">Condicao: Inner &lt; MAXSIZE</text>
<text xml:space="preserve" text-anchor="middle" x="523.62" y="-371.2" font-family="Times New Roman,serif" font-size="14.00">c&#45;uso: Inner</text>
</g>
<!-- LoopOuter&#45;&gt;LoopInner -->
<g id="edge2" class="edge">
<title>LoopOuter&#45;&gt;LoopInner</title>
<path fill="none" stroke="black" d="M583.03,-493.63C572.14,-487.96 561.89,-481.01 553.38,-472.5 542.61,-461.74 535.68,-446.7 531.25,-432.64"/>
<polygon fill="black" stroke="black" points="534.65,-431.84 528.6,-423.14 527.91,-433.71 534.65,-431.84"/>
<text xml:space="preserve" text-anchor="middle" x="607" y="-459.2" font-family="Times New Roman,serif" font-size="14.00">Outer &lt; MAXSIZE</text>
</g>
<!-- End -->
<g id="node9" class="node">
<title>End</title>
<polygon fill="none" stroke="black" points="814.62,-438 702.62,-438 702.62,-347.5 814.62,-347.5 814.62,-438"/>
<text xml:space="preserve" text-anchor="middle" x="758.62" y="-420.7" font-family="Times New Roman,serif" font-size="14.00">End</text>
<text xml:space="preserve" text-anchor="middle" x="758.62" y="-404.2" font-family="Times New Roman,serif" font-size="14.00">Postotal = Ptotal</text>
<text xml:space="preserve" text-anchor="middle" x="758.62" y="-387.7" font-family="Times New Roman,serif" font-size="14.00">Poscnt = Pcnt</text>
<text xml:space="preserve" text-anchor="middle" x="758.62" y="-371.2" font-family="Times New Roman,serif" font-size="14.00">Negtotal = Ntotal</text>
<text xml:space="preserve" text-anchor="middle" x="758.62" y="-354.7" font-family="Times New Roman,serif" font-size="14.00">Negcnt = Ncnt</text>
</g>
<!-- LoopOuter&#45;&gt;End -->
<g id="edge11" class="edge">
<title>LoopOuter&#45;&gt;End</title>
<path fill="none" stroke="black" d="M693.48,-490.31C701.97,-477.72 712.29,-462.42 722.2,-447.74"/>
<polygon fill="black" stroke="black" points="725.09,-449.71 727.78,-439.47 719.29,-445.8 725.09,-449.71"/>
<text xml:space="preserve" text-anchor="middle" x="774.38" y="-459.2" font-family="Times New Roman,serif" font-size="14.00">Outer &gt;= MAXSIZE</text>
</g>
<!-- Condition -->
<g id="node4" class="node">
<title>Condition</title>
<polygon fill="none" stroke="black" points="470.5,-286.75 264.75,-286.75 264.75,-229.25 470.5,-229.25 470.5,-286.75"/>
<text xml:space="preserve" text-anchor="middle" x="367.62" y="-269.45" font-family="Times New Roman,serif" font-size="14.00">Condition</text>
<text xml:space="preserve" text-anchor="middle" x="367.62" y="-252.95" font-family="Times New Roman,serif" font-size="14.00">Condicao: Array[Outer][Inner] &lt; 0</text>
<text xml:space="preserve" text-anchor="middle" x="367.62" y="-236.45" font-family="Times New Roman,serif" font-size="14.00">p&#45;uso: Array[Outer][Inner]</text>
</g>
<!-- LoopInner&#45;&gt;Condition -->
<g id="edge3" class="edge">
<title>LoopInner&#45;&gt;Condition</title>
<path fill="none" stroke="black" d="M441.29,-363.51C424.2,-354.7 407.5,-343.5 394.62,-329.5 386.51,-320.67 380.74,-309.15 376.69,-297.98"/>
<polygon fill="black" stroke="black" points="380.03,-296.94 373.64,-288.49 373.37,-299.08 380.03,-296.94"/>
<text xml:space="preserve" text-anchor="middle" x="447.12" y="-316.2" font-family="Times New Roman,serif" font-size="14.00">Inner &lt; MAXSIZE</text>
</g>
<!-- UpdateOuter -->
<g id="node8" class="node">
<title>UpdateOuter</title>
<polygon fill="none" stroke="black" points="718.62,-295 570.62,-295 570.62,-221 718.62,-221 718.62,-295"/>
<text xml:space="preserve" text-anchor="middle" x="644.62" y="-277.7" font-family="Times New Roman,serif" font-size="14.00">UpdateOuter</text>
<text xml:space="preserve" text-anchor="middle" x="644.62" y="-261.2" font-family="Times New Roman,serif" font-size="14.00">Outer++</text>
<text xml:space="preserve" text-anchor="middle" x="644.62" y="-244.7" font-family="Times New Roman,serif" font-size="14.00">Inner=0</text>
<text xml:space="preserve" text-anchor="middle" x="644.62" y="-228.2" font-family="Times New Roman,serif" font-size="14.00">Definicoes: Outer, Inner</text>
</g>
<!-- LoopInner&#45;&gt;UpdateOuter -->
<g id="edge9" class="edge">
<title>LoopInner&#45;&gt;UpdateOuter</title>
<path fill="none" stroke="black" d="M526.76,-363.8C529.78,-347.54 535.72,-327.45 547.38,-313 551.49,-307.89 556.22,-303.19 561.34,-298.88"/>
<polygon fill="black" stroke="black" points="563.3,-301.79 569.07,-292.91 559.02,-296.25 563.3,-301.79"/>
<text xml:space="preserve" text-anchor="middle" x="604" y="-316.2" font-family="Times New Roman,serif" font-size="14.00">Inner &gt;= MAXSIZE</text>
</g>
<!-- IfBlock -->
<g id="node5" class="node">
<title>IfBlock</title>
<polygon fill="none" stroke="black" points="231.25,-168.5 0,-168.5 0,-94.5 231.25,-94.5 231.25,-168.5"/>
<text xml:space="preserve" text-anchor="middle" x="115.62" y="-151.2" font-family="Times New Roman,serif" font-size="14.00">IfBlock</text>
<text xml:space="preserve" text-anchor="middle" x="115.62" y="-134.7" font-family="Times New Roman,serif" font-size="14.00">Ptotal += Array[Outer][Inner]</text>
<text xml:space="preserve" text-anchor="middle" x="115.62" y="-118.2" font-family="Times New Roman,serif" font-size="14.00">Pcnt++</text>
<text xml:space="preserve" text-anchor="middle" x="115.62" y="-101.7" font-family="Times New Roman,serif" font-size="14.00">c&#45;uso: Ptotal, Pcnt, Array[Outer][Inner]</text>
</g>
<!-- Condition&#45;&gt;IfBlock -->
<g id="edge4" class="edge">
<title>Condition&#45;&gt;IfBlock</title>
<path fill="none" stroke="black" d="M310.76,-228.9C277.85,-212.65 235.83,-191.89 199.22,-173.8"/>
<polygon fill="black" stroke="black" points="200.92,-170.74 190.41,-169.44 197.82,-177.01 200.92,-170.74"/>
<text xml:space="preserve" text-anchor="middle" x="269.46" y="-189.7" font-family="Times New Roman,serif" font-size="14.00">True</text>
</g>
<!-- ElseBlock -->
<g id="node6" class="node">
<title>ElseBlock</title>
<polygon fill="none" stroke="black" points="485.5,-168.5 249.75,-168.5 249.75,-94.5 485.5,-94.5 485.5,-168.5"/>
<text xml:space="preserve" text-anchor="middle" x="367.62" y="-151.2" font-family="Times New Roman,serif" font-size="14.00">ElseBlock</text>
<text xml:space="preserve" text-anchor="middle" x="367.62" y="-134.7" font-family="Times New Roman,serif" font-size="14.00">Ntotal += Array[Outer][Inner]</text>
<text xml:space="preserve" text-anchor="middle" x="367.62" y="-118.2" font-family="Times New Roman,serif" font-size="14.00">Ncnt++</text>
<text xml:space="preserve" text-anchor="middle" x="367.62" y="-101.7" font-family="Times New Roman,serif" font-size="14.00">c&#45;uso: Ntotal, Ncnt, Array[Outer][Inner]</text>
</g>
<!-- Condition&#45;&gt;ElseBlock -->
<g id="edge5" class="edge">
<title>Condition&#45;&gt;ElseBlock</title>
<path fill="none" stroke="black" d="M367.62,-229.06C367.62,-214.61 367.62,-196.58 367.62,-180.03"/>
<polygon fill="black" stroke="black" points="371.13,-180.37 367.63,-170.37 364.13,-180.37 371.13,-180.37"/>
<text xml:space="preserve" text-anchor="middle" x="381.88" y="-189.7" font-family="Times New Roman,serif" font-size="14.00">False</text>
</g>
<!-- UpdateInner -->
<g id="node7" class="node">
<title>UpdateInner</title>
<polygon fill="none" stroke="black" points="420.25,-57.5 315,-57.5 315,0 420.25,0 420.25,-57.5"/>
<text xml:space="preserve" text-anchor="middle" x="367.62" y="-40.2" font-family="Times New Roman,serif" font-size="14.00">UpdateInner</text>
<text xml:space="preserve" text-anchor="middle" x="367.62" y="-23.7" font-family="Times New Roman,serif" font-size="14.00">Inner++</text>
<text xml:space="preserve" text-anchor="middle" x="367.62" y="-7.2" font-family="Times New Roman,serif" font-size="14.00">Definicao: Inner</text>
</g>
<!-- IfBlock&#45;&gt;UpdateInner -->
<g id="edge6" class="edge">
<title>IfBlock&#45;&gt;UpdateInner</title>
<path fill="none" stroke="black" d="M206.6,-94.13C238.87,-81.23 274.47,-66.99 303.97,-55.2"/>
<polygon fill="black" stroke="black" points="305.16,-58.49 313.14,-51.53 302.56,-51.99 305.16,-58.49"/>
</g>
<!-- ElseBlock&#45;&gt;UpdateInner -->
<g id="edge7" class="edge">
<title>ElseBlock&#45;&gt;UpdateInner</title>
<path fill="none" stroke="black" d="M367.62,-94.13C367.62,-86.01 367.62,-77.36 367.62,-69.12"/>
<polygon fill="black" stroke="black" points="371.13,-69.36 367.63,-59.36 364.13,-69.36 371.13,-69.36"/>
</g>
<!-- UpdateInner&#45;&gt;LoopInner -->
<g id="edge8" class="edge">
<title>UpdateInner&#45;&gt;LoopInner</title>
<path fill="none" stroke="black" d="M420.64,-43.53C447.25,-53.29 477.41,-69.24 494.62,-94.5 522.63,-135.59 524.95,-282 524.35,-352.82"/>
<polygon fill="black" stroke="black" points="520.86,-352.36 524.25,-362.4 527.86,-352.44 520.86,-352.36"/>
</g>
<!-- UpdateOuter&#45;&gt;LoopOuter -->
<g id="edge10" class="edge">
<title>UpdateOuter&#45;&gt;LoopOuter</title>
<path fill="none" stroke="black" d="M656.57,-295.34C658.15,-301.19 659.59,-307.23 660.62,-313 670.9,-370.07 673.77,-437.31 674.5,-478.86"/>
<polygon fill="black" stroke="black" points="671,-478.66 674.63,-488.61 678,-478.56 671,-478.66"/>
</g>
</g>
</svg>
