<?xml version="1.0" encoding="UTF-8" standalone="no"?>
<!DOCTYPE svg PUBLIC "-//W3C//DTD SVG 1.1//EN"
 "http://www.w3.org/Graphics/SVG/1.1/DTD/svg11.dtd">
<!-- Generated by graphviz version 13.1.2 (20250808.2320)
 -->
<!-- Title: sort_DFG Pages: 1 -->
<svg width="483pt" height="692pt"
 viewBox="0.00 0.00 483.00 692.00" xmlns="http://www.w3.org/2000/svg" xmlns:xlink="http://www.w3.org/1999/xlink">
<g id="graph0" class="graph" transform="scale(1 1) rotate(0) translate(4 688)">
<title>sort_DFG</title>
<polygon fill="white" stroke="none" points="-4,4 -4,-688 478.66,-688 478.66,4 -4,4"/>
<!-- n -->
<g id="node1" class="node">
<title>n</title>
<ellipse fill="lightblue" stroke="black" cx="293.25" cy="-666" rx="27" ry="18"/>
<text xml:space="preserve" text-anchor="middle" x="293.25" y="-660.95" font-family="Times New Roman,serif" font-size="14.00">n</text>
</g>
<!-- op_init -->
<g id="node5" class="node">
<title>op_init</title>
<polygon fill="none" stroke="black" points="429.12,-611 229.38,-611 229.38,-570 429.12,-570 429.12,-611"/>
<text xml:space="preserve" text-anchor="middle" x="329.25" y="-593.7" font-family="Times New Roman,serif" font-size="14.00">Inicializacao</text>
<text xml:space="preserve" text-anchor="middle" x="329.25" y="-577.2" font-family="Times New Roman,serif" font-size="14.00">i, ir=n, j, k, l=1, jstack=0, flag=0</text>
</g>
<!-- n&#45;&gt;op_init -->
<g id="edge1" class="edge">
<title>n&#45;&gt;op_init</title>
<path fill="none" stroke="black" d="M301.24,-648.69C305.15,-640.7 309.99,-630.82 314.54,-621.53"/>
<polygon fill="black" stroke="black" points="317.57,-623.31 318.82,-612.79 311.28,-620.23 317.57,-623.31"/>
</g>
<!-- M_val -->
<g id="node2" class="node">
<title>M_val</title>
<ellipse fill="lightblue" stroke="black" cx="168.25" cy="-590.5" rx="32.93" ry="18"/>
<text xml:space="preserve" text-anchor="middle" x="168.25" y="-585.45" font-family="Times New Roman,serif" font-size="14.00">M (7)</text>
</g>
<!-- op_cond1 -->
<g id="node6" class="node">
<title>op_cond1</title>
<polygon fill="none" stroke="black" points="232.12,-533 104.38,-533 104.38,-497 232.12,-497 232.12,-533"/>
<text xml:space="preserve" text-anchor="middle" x="168.25" y="-509.95" font-family="Times New Roman,serif" font-size="14.00">Condicao: ir &#45; l &lt; M</text>
</g>
<!-- M_val&#45;&gt;op_cond1 -->
<g id="edge2" class="edge">
<title>M_val&#45;&gt;op_cond1</title>
<path fill="none" stroke="black" d="M168.25,-572.08C168.25,-563.93 168.25,-554.02 168.25,-544.8"/>
<polygon fill="black" stroke="black" points="171.75,-544.81 168.25,-534.81 164.75,-544.81 171.75,-544.81"/>
</g>
<!-- arr_in -->
<g id="node3" class="node">
<title>arr_in</title>
<ellipse fill="lightblue" stroke="black" cx="365.25" cy="-666" rx="27" ry="18"/>
<text xml:space="preserve" text-anchor="middle" x="365.25" y="-660.95" font-family="Times New Roman,serif" font-size="14.00">arr</text>
</g>
<!-- arr_in&#45;&gt;op_init -->
<g id="edge3" class="edge">
<title>arr_in&#45;&gt;op_init</title>
<path fill="none" stroke="black" d="M357.26,-648.69C353.35,-640.7 348.51,-630.82 343.96,-621.53"/>
<polygon fill="black" stroke="black" points="347.22,-620.23 339.68,-612.79 340.93,-623.31 347.22,-620.23"/>
</g>
<!-- istack_in -->
<g id="node4" class="node">
<title>istack_in</title>
<ellipse fill="lightblue" stroke="black" cx="442.25" cy="-666" rx="32.41" ry="18"/>
<text xml:space="preserve" text-anchor="middle" x="442.25" y="-660.95" font-family="Times New Roman,serif" font-size="14.00">istack</text>
</g>
<!-- op_init&#45;&gt;op_cond1 -->
<g id="edge4" class="edge">
<title>op_init&#45;&gt;op_cond1</title>
<path fill="none" stroke="black" d="M284.85,-569.52C272.36,-563.88 258.76,-557.71 246.25,-552 236.48,-547.54 226.04,-542.74 216.08,-538.15"/>
<polygon fill="black" stroke="black" points="217.83,-535.1 207.29,-534.09 214.9,-541.46 217.83,-535.1"/>
</g>
<!-- op_insortion -->
<g id="node7" class="node">
<title>op_insortion</title>
<polygon fill="none" stroke="black" points="231.75,-445.25 116.75,-445.25 116.75,-409.25 231.75,-409.25 231.75,-445.25"/>
<text xml:space="preserve" text-anchor="middle" x="174.25" y="-422.2" font-family="Times New Roman,serif" font-size="14.00">Insercao ordenada</text>
</g>
<!-- op_cond1&#45;&gt;op_insortion -->
<g id="edge5" class="edge">
<title>op_cond1&#45;&gt;op_insortion</title>
<path fill="none" stroke="black" d="M169.46,-496.65C170.26,-485.26 171.32,-470.09 172.24,-456.93"/>
<polygon fill="black" stroke="black" points="175.73,-457.31 172.93,-447.09 168.74,-456.82 175.73,-457.31"/>
<text xml:space="preserve" text-anchor="middle" x="183.41" y="-465.7" font-family="Helvetica,sans-Serif" font-size="14.00">true</text>
</g>
<!-- op_swap1 -->
<g id="node9" class="node">
<title>op_swap1</title>
<polygon fill="none" stroke="black" points="98.5,-445.25 0,-445.25 0,-409.25 98.5,-409.25 98.5,-445.25"/>
<text xml:space="preserve" text-anchor="middle" x="49.25" y="-422.2" font-family="Times New Roman,serif" font-size="14.00">SWAP (varios)</text>
</g>
<!-- op_cond1&#45;&gt;op_swap1 -->
<g id="edge6" class="edge">
<title>op_cond1&#45;&gt;op_swap1</title>
<path fill="none" stroke="black" d="M144.17,-496.65C126.43,-483.86 102.08,-466.32 82.48,-452.2"/>
<polygon fill="black" stroke="black" points="84.68,-449.47 74.52,-446.46 80.59,-455.15 84.68,-449.47"/>
<text xml:space="preserve" text-anchor="middle" x="133.66" y="-465.7" font-family="Helvetica,sans-Serif" font-size="14.00">false</text>
</g>
<!-- op_cond2 -->
<g id="node8" class="node">
<title>op_cond2</title>
<polygon fill="none" stroke="black" points="311,-372.25 173.5,-372.25 173.5,-336.25 311,-336.25 311,-372.25"/>
<text xml:space="preserve" text-anchor="middle" x="242.25" y="-349.2" font-family="Times New Roman,serif" font-size="14.00">Condicao: jstack == 0</text>
</g>
<!-- op_insortion&#45;&gt;op_cond2 -->
<g id="edge7" class="edge">
<title>op_insortion&#45;&gt;op_cond2</title>
<path fill="none" stroke="black" d="M190.71,-409.06C198.9,-400.52 208.95,-390.02 218,-380.57"/>
<polygon fill="black" stroke="black" points="220.5,-383.01 224.89,-373.37 215.45,-378.17 220.5,-383.01"/>
</g>
<!-- op_cond2&#45;&gt;op_init -->
<g id="edge9" class="edge">
<title>op_cond2&#45;&gt;op_init</title>
<path fill="none" stroke="black" d="M242.8,-372.6C244.06,-397.04 248.15,-442.67 261.5,-479 272.4,-508.67 291.74,-539.06 306.98,-560.43"/>
<polygon fill="black" stroke="black" points="304.03,-562.34 312.75,-568.36 309.69,-558.22 304.03,-562.34"/>
<text xml:space="preserve" text-anchor="middle" x="293.38" y="-465.7" font-family="Helvetica,sans-Serif" font-size="14.00">false (pop)</text>
</g>
<!-- arr_out -->
<g id="node17" class="node">
<title>arr_out</title>
<ellipse fill="lightgreen" stroke="black" cx="245.25" cy="-266.5" rx="64.15" ry="18"/>
<text xml:space="preserve" text-anchor="middle" x="245.25" y="-261.45" font-family="Times New Roman,serif" font-size="14.00">arr (ordenado)</text>
</g>
<!-- op_cond2&#45;&gt;arr_out -->
<g id="edge8" class="edge">
<title>op_cond2&#45;&gt;arr_out</title>
<path fill="none" stroke="black" d="M242.86,-335.9C243.26,-324.51 243.79,-309.34 244.25,-296.18"/>
<polygon fill="black" stroke="black" points="247.74,-296.46 244.59,-286.34 240.74,-296.21 247.74,-296.46"/>
<text xml:space="preserve" text-anchor="middle" x="278.89" y="-304.95" font-family="Helvetica,sans-Serif" font-size="14.00">true (break)</text>
</g>
<!-- op_partition -->
<g id="node10" class="node">
<title>op_partition</title>
<polygon fill="none" stroke="black" points="97.38,-372.25 1.12,-372.25 1.12,-336.25 97.38,-336.25 97.38,-372.25"/>
<text xml:space="preserve" text-anchor="middle" x="49.25" y="-349.2" font-family="Times New Roman,serif" font-size="14.00">Particao: i, j, a</text>
</g>
<!-- op_swap1&#45;&gt;op_partition -->
<g id="edge10" class="edge">
<title>op_swap1&#45;&gt;op_partition</title>
<path fill="none" stroke="black" d="M49.25,-409.06C49.25,-401.48 49.25,-392.35 49.25,-383.79"/>
<polygon fill="black" stroke="black" points="52.75,-383.79 49.25,-373.79 45.75,-383.79 52.75,-383.79"/>
</g>
<!-- op_cond3 -->
<g id="node11" class="node">
<title>op_cond3</title>
<polygon fill="none" stroke="black" points="163.5,-284.5 65,-284.5 65,-248.5 163.5,-248.5 163.5,-284.5"/>
<text xml:space="preserve" text-anchor="middle" x="114.25" y="-261.45" font-family="Times New Roman,serif" font-size="14.00">Condicao: j &lt; i</text>
</g>
<!-- op_partition&#45;&gt;op_cond3 -->
<g id="edge11" class="edge">
<title>op_partition&#45;&gt;op_cond3</title>
<path fill="none" stroke="black" d="M62.4,-335.9C71.57,-323.81 83.95,-307.47 94.32,-293.79"/>
<polygon fill="black" stroke="black" points="96.95,-296.12 100.2,-286.03 91.37,-291.89 96.95,-296.12"/>
</g>
<!-- op_swap2 -->
<g id="node12" class="node">
<title>op_swap2</title>
<polygon fill="none" stroke="black" points="126.62,-196.75 1.88,-196.75 1.88,-160.75 126.62,-160.75 126.62,-196.75"/>
<text xml:space="preserve" text-anchor="middle" x="64.25" y="-173.7" font-family="Times New Roman,serif" font-size="14.00">SWAP(arr[i], arr[j])</text>
</g>
<!-- op_cond3&#45;&gt;op_swap2 -->
<g id="edge12" class="edge">
<title>op_cond3&#45;&gt;op_swap2</title>
<path fill="none" stroke="black" d="M104.13,-248.15C97.22,-236.29 87.92,-220.34 80.04,-206.83"/>
<polygon fill="black" stroke="black" points="83.18,-205.26 75.12,-198.38 77.13,-208.79 83.18,-205.26"/>
<text xml:space="preserve" text-anchor="middle" x="107.98" y="-217.2" font-family="Helvetica,sans-Serif" font-size="14.00">false</text>
</g>
<!-- op_update -->
<g id="node13" class="node">
<title>op_update</title>
<polygon fill="none" stroke="black" points="289.88,-196.75 148.62,-196.75 148.62,-160.75 289.88,-160.75 289.88,-196.75"/>
<text xml:space="preserve" text-anchor="middle" x="219.25" y="-173.7" font-family="Times New Roman,serif" font-size="14.00">Atualizacao: arr, jstack</text>
</g>
<!-- op_cond3&#45;&gt;op_update -->
<g id="edge13" class="edge">
<title>op_cond3&#45;&gt;op_update</title>
<path fill="none" stroke="black" d="M135.5,-248.15C151.01,-235.48 172.25,-218.14 189.45,-204.08"/>
<polygon fill="black" stroke="black" points="191.33,-207.07 196.86,-198.03 186.9,-201.65 191.33,-207.07"/>
<text xml:space="preserve" text-anchor="middle" x="187.78" y="-217.2" font-family="Helvetica,sans-Serif" font-size="14.00">true</text>
</g>
<!-- op_swap2&#45;&gt;op_partition -->
<g id="edge14" class="edge">
<title>op_swap2&#45;&gt;op_partition</title>
<path fill="none" stroke="black" d="M61.97,-197.24C60.23,-211.12 57.85,-231.03 56.25,-248.5 53.9,-274.14 52.01,-303.38 50.79,-324.44"/>
<polygon fill="black" stroke="black" points="47.31,-324.11 50.24,-334.3 54.3,-324.51 47.31,-324.11"/>
</g>
<!-- op_cond4 -->
<g id="node14" class="node">
<title>op_cond4</title>
<polygon fill="none" stroke="black" points="310.88,-123.75 145.62,-123.75 145.62,-87.75 310.88,-87.75 310.88,-123.75"/>
<text xml:space="preserve" text-anchor="middle" x="228.25" y="-100.7" font-family="Times New Roman,serif" font-size="14.00">Condicao: ir &#45; i + 1 &gt;= j &#45; l</text>
</g>
<!-- op_update&#45;&gt;op_cond4 -->
<g id="edge15" class="edge">
<title>op_update&#45;&gt;op_cond4</title>
<path fill="none" stroke="black" d="M221.43,-160.56C222.4,-152.89 223.57,-143.64 224.67,-134.99"/>
<polygon fill="black" stroke="black" points="228.12,-135.64 225.9,-125.28 221.17,-134.76 228.12,-135.64"/>
</g>
<!-- op_push1 -->
<g id="node15" class="node">
<title>op_push1</title>
<polygon fill="none" stroke="black" points="332.5,-36 264,-36 264,0 332.5,0 332.5,-36"/>
<text xml:space="preserve" text-anchor="middle" x="298.25" y="-12.95" font-family="Times New Roman,serif" font-size="14.00">Push: ir, i</text>
</g>
<!-- op_cond4&#45;&gt;op_push1 -->
<g id="edge16" class="edge">
<title>op_cond4&#45;&gt;op_push1</title>
<path fill="none" stroke="black" d="M242.42,-87.4C252.38,-75.19 265.88,-58.65 277.11,-44.89"/>
<polygon fill="black" stroke="black" points="279.54,-47.46 283.15,-37.5 274.11,-43.03 279.54,-47.46"/>
<text xml:space="preserve" text-anchor="middle" x="281.14" y="-56.45" font-family="Helvetica,sans-Serif" font-size="14.00">true</text>
</g>
<!-- op_push2 -->
<g id="node16" class="node">
<title>op_push2</title>
<polygon fill="none" stroke="black" points="440.25,-36 364.25,-36 364.25,0 440.25,0 440.25,-36"/>
<text xml:space="preserve" text-anchor="middle" x="402.25" y="-12.95" font-family="Times New Roman,serif" font-size="14.00">Push: j&#45;1, l</text>
</g>
<!-- op_cond4&#45;&gt;op_push2 -->
<g id="edge17" class="edge">
<title>op_cond4&#45;&gt;op_push2</title>
<path fill="none" stroke="black" d="M263.46,-87.4C290.26,-74.19 327.36,-55.9 356.47,-41.56"/>
<polygon fill="black" stroke="black" points="358.01,-44.7 365.44,-37.14 354.92,-38.42 358.01,-44.7"/>
<text xml:space="preserve" text-anchor="middle" x="345.08" y="-56.45" font-family="Helvetica,sans-Serif" font-size="14.00">false</text>
</g>
<!-- op_push1&#45;&gt;op_init -->
<g id="edge18" class="edge">
<title>op_push1&#45;&gt;op_init</title>
<path fill="none" stroke="black" d="M312.13,-36.25C324.03,-52.8 339.25,-79.01 339.25,-104.75 339.25,-516 339.25,-516 339.25,-516 339.25,-530 337.45,-545.37 335.37,-558.41"/>
<polygon fill="black" stroke="black" points="331.94,-557.69 333.69,-568.14 338.84,-558.88 331.94,-557.69"/>
</g>
<!-- op_push2&#45;&gt;op_init -->
<g id="edge19" class="edge">
<title>op_push2&#45;&gt;op_init</title>
<path fill="none" stroke="black" d="M406.76,-36.27C410.85,-53.5 416.25,-80.77 416.25,-104.75 416.25,-516 416.25,-516 416.25,-516 416.25,-536.1 402.53,-551.83 385.98,-563.49"/>
<polygon fill="black" stroke="black" points="384.36,-560.37 377.84,-568.73 388.14,-566.26 384.36,-560.37"/>
</g>
</g>
</svg>
