<?xml version="1.0" encoding="UTF-8" standalone="no"?>
<!DOCTYPE svg PUBLIC "-//W3C//DTD SVG 1.1//EN"
 "http://www.w3.org/Graphics/SVG/1.1/DTD/svg11.dtd">
<!-- Generated by graphviz version 13.1.2 (20250808.2320)
 -->
<!-- Title: sort_CFG Pages: 1 -->
<svg width="825pt" height="1917pt"
 viewBox="0.00 0.00 825.00 1917.00" xmlns="http://www.w3.org/2000/svg" xmlns:xlink="http://www.w3.org/1999/xlink">
<g id="graph0" class="graph" transform="scale(1 1) rotate(0) translate(4 1913.5)">
<title>sort_CFG</title>
<polygon fill="white" stroke="none" points="-4,4 -4,-1913.5 820.62,-1913.5 820.62,4 -4,4"/>
<!-- N1 -->
<g id="node1" class="node">
<title>N1</title>
<path fill="none" stroke="black" d="M804.25,-1909.5C804.25,-1909.5 621,-1909.5 621,-1909.5 615,-1909.5 609,-1903.5 609,-1897.5 609,-1897.5 609,-1819 609,-1819 609,-1813 615,-1807 621,-1807 621,-1807 804.25,-1807 804.25,-1807 810.25,-1807 816.25,-1813 816.25,-1819 816.25,-1819 816.25,-1897.5 816.25,-1897.5 816.25,-1903.5 810.25,-1909.5 804.25,-1909.5"/>
<text xml:space="preserve" text-anchor="middle" x="712.62" y="-1892.2" font-family="Helvetica,sans-Serif" font-size="14.00">1: Inicio da funcao</text>
<text xml:space="preserve" text-anchor="middle" x="712.62" y="-1876.45" font-family="Helvetica,sans-Serif" font-size="14.00">unsigned long i, ir = n, j, k, l = 1;</text>
<text xml:space="preserve" text-anchor="middle" x="712.62" y="-1860.7" font-family="Helvetica,sans-Serif" font-size="14.00">int jstack = 0;</text>
<text xml:space="preserve" text-anchor="middle" x="712.62" y="-1844.95" font-family="Helvetica,sans-Serif" font-size="14.00">int flag;</text>
<text xml:space="preserve" text-anchor="middle" x="712.62" y="-1829.2" font-family="Helvetica,sans-Serif" font-size="14.00">float a, temp;</text>
<text xml:space="preserve" text-anchor="middle" x="712.62" y="-1813.45" font-family="Helvetica,sans-Serif" font-size="14.00">flag = 0;</text>
</g>
<!-- N2 -->
<g id="node2" class="node">
<title>N2</title>
<path fill="none" stroke="black" d="M779.88,-1770C779.88,-1770 645.38,-1770 645.38,-1770 639.38,-1770 633.38,-1764 633.38,-1758 633.38,-1758 633.38,-1746 633.38,-1746 633.38,-1740 639.38,-1734 645.38,-1734 645.38,-1734 779.88,-1734 779.88,-1734 785.88,-1734 791.88,-1740 791.88,-1746 791.88,-1746 791.88,-1758 791.88,-1758 791.88,-1764 785.88,-1770 779.88,-1770"/>
<text xml:space="preserve" text-anchor="middle" x="712.62" y="-1746.57" font-family="Helvetica,sans-Serif" font-size="14.00">2: Loop externo (for (;;))</text>
</g>
<!-- N1&#45;&gt;N2 -->
<g id="edge1" class="edge">
<title>N1&#45;&gt;N2</title>
<path fill="none" stroke="black" d="M712.62,-1806.65C712.62,-1798.07 712.62,-1789.44 712.62,-1781.68"/>
<polygon fill="black" stroke="black" points="716.13,-1781.85 712.63,-1771.85 709.13,-1781.85 716.13,-1781.85"/>
</g>
<!-- N3 -->
<g id="node3" class="node">
<title>N3</title>
<path fill="none" stroke="black" d="M554,-1697C554,-1697 477.25,-1697 477.25,-1697 471.25,-1697 465.25,-1691 465.25,-1685 465.25,-1685 465.25,-1673 465.25,-1673 465.25,-1667 471.25,-1661 477.25,-1661 477.25,-1661 554,-1661 554,-1661 560,-1661 566,-1667 566,-1673 566,-1673 566,-1685 566,-1685 566,-1691 560,-1697 554,-1697"/>
<text xml:space="preserve" text-anchor="middle" x="515.62" y="-1673.57" font-family="Helvetica,sans-Serif" font-size="14.00">3: if (ir &#45; l &lt; M)</text>
</g>
<!-- N2&#45;&gt;N3 -->
<g id="edge2" class="edge">
<title>N2&#45;&gt;N3</title>
<path fill="none" stroke="black" d="M664.18,-1733.54C637.11,-1723.78 603.16,-1711.55 574.56,-1701.24"/>
<polygon fill="black" stroke="black" points="575.9,-1698 565.31,-1697.9 573.53,-1704.59 575.9,-1698"/>
</g>
<!-- N4 -->
<g id="node4" class="node">
<title>N4</title>
<path fill="none" stroke="black" d="M582.88,-1609.25C582.88,-1609.25 448.38,-1609.25 448.38,-1609.25 442.38,-1609.25 436.38,-1603.25 436.38,-1597.25 436.38,-1597.25 436.38,-1581.75 436.38,-1581.75 436.38,-1575.75 442.38,-1569.75 448.38,-1569.75 448.38,-1569.75 582.88,-1569.75 582.88,-1569.75 588.88,-1569.75 594.88,-1575.75 594.88,-1581.75 594.88,-1581.75 594.88,-1597.25 594.88,-1597.25 594.88,-1603.25 588.88,-1609.25 582.88,-1609.25"/>
<text xml:space="preserve" text-anchor="middle" x="515.62" y="-1591.95" font-family="Helvetica,sans-Serif" font-size="14.00">4: Insercao ordenada</text>
<text xml:space="preserve" text-anchor="middle" x="515.62" y="-1576.2" font-family="Helvetica,sans-Serif" font-size="14.00">for (j = l + 1; j &lt;= ir; j++)</text>
</g>
<!-- N3&#45;&gt;N4 -->
<g id="edge3" class="edge">
<title>N3&#45;&gt;N4</title>
<path fill="none" stroke="black" d="M515.62,-1660.71C515.62,-1649.31 515.62,-1634.07 515.62,-1620.7"/>
<polygon fill="black" stroke="black" points="519.13,-1621.09 515.63,-1611.09 512.13,-1621.09 519.13,-1621.09"/>
<text xml:space="preserve" text-anchor="middle" x="527.25" y="-1629.7" font-family="Helvetica,sans-Serif" font-size="14.00">true</text>
</g>
<!-- N13 -->
<g id="node13" class="node">
<title>N13</title>
<path fill="none" stroke="black" d="M380.62,-1607.5C380.62,-1607.5 274.62,-1607.5 274.62,-1607.5 268.62,-1607.5 262.62,-1601.5 262.62,-1595.5 262.62,-1595.5 262.62,-1583.5 262.62,-1583.5 262.62,-1577.5 268.62,-1571.5 274.62,-1571.5 274.62,-1571.5 380.62,-1571.5 380.62,-1571.5 386.62,-1571.5 392.62,-1577.5 392.62,-1583.5 392.62,-1583.5 392.62,-1595.5 392.62,-1595.5 392.62,-1601.5 386.62,-1607.5 380.62,-1607.5"/>
<text xml:space="preserve" text-anchor="middle" x="327.62" y="-1584.07" font-family="Helvetica,sans-Serif" font-size="14.00">13: else (quicksort)</text>
</g>
<!-- N3&#45;&gt;N13 -->
<g id="edge4" class="edge">
<title>N3&#45;&gt;N13</title>
<path fill="none" stroke="black" d="M478.03,-1660.5C448.57,-1646.79 407.38,-1627.62 375.56,-1612.81"/>
<polygon fill="black" stroke="black" points="377.07,-1609.65 366.52,-1608.6 374.11,-1616 377.07,-1609.65"/>
<text xml:space="preserve" text-anchor="middle" x="452.71" y="-1629.7" font-family="Helvetica,sans-Serif" font-size="14.00">false</text>
</g>
<!-- N5 -->
<g id="node5" class="node">
<title>N5</title>
<path fill="none" stroke="black" d="M468,-1518C468,-1518 349.25,-1518 349.25,-1518 343.25,-1518 337.25,-1512 337.25,-1506 337.25,-1506 337.25,-1490.5 337.25,-1490.5 337.25,-1484.5 343.25,-1478.5 349.25,-1478.5 349.25,-1478.5 468,-1478.5 468,-1478.5 474,-1478.5 480,-1484.5 480,-1490.5 480,-1490.5 480,-1506 480,-1506 480,-1512 474,-1518 468,-1518"/>
<text xml:space="preserve" text-anchor="middle" x="408.62" y="-1500.7" font-family="Helvetica,sans-Serif" font-size="14.00">5: a = arr[j];</text>
<text xml:space="preserve" text-anchor="middle" x="408.62" y="-1484.95" font-family="Helvetica,sans-Serif" font-size="14.00">for (i = j &#45; 1; i &gt;= l; i&#45;&#45;)</text>
</g>
<!-- N4&#45;&gt;N5 -->
<g id="edge5" class="edge">
<title>N4&#45;&gt;N5</title>
<path fill="none" stroke="black" d="M489.64,-1569.44C482.27,-1563.86 474.3,-1557.67 467.12,-1551.75 457.31,-1543.65 446.89,-1534.49 437.6,-1526.12"/>
<polygon fill="black" stroke="black" points="439.98,-1523.54 430.22,-1519.4 435.27,-1528.72 439.98,-1523.54"/>
<text xml:space="preserve" text-anchor="middle" x="484.38" y="-1538.45" font-family="Helvetica,sans-Serif" font-size="14.00">j &lt;= ir</text>
</g>
<!-- N10 -->
<g id="node10" class="node">
<title>N10</title>
<path fill="none" stroke="black" d="M655.62,-1516.25C655.62,-1516.25 555.62,-1516.25 555.62,-1516.25 549.62,-1516.25 543.62,-1510.25 543.62,-1504.25 543.62,-1504.25 543.62,-1492.25 543.62,-1492.25 543.62,-1486.25 549.62,-1480.25 555.62,-1480.25 555.62,-1480.25 655.62,-1480.25 655.62,-1480.25 661.62,-1480.25 667.62,-1486.25 667.62,-1492.25 667.62,-1492.25 667.62,-1504.25 667.62,-1504.25 667.62,-1510.25 661.62,-1516.25 655.62,-1516.25"/>
<text xml:space="preserve" text-anchor="middle" x="605.62" y="-1492.82" font-family="Helvetica,sans-Serif" font-size="14.00">10: if (jstack == 0)</text>
</g>
<!-- N4&#45;&gt;N10 -->
<g id="edge6" class="edge">
<title>N4&#45;&gt;N10</title>
<path fill="none" stroke="black" d="M534.71,-1569.57C547.91,-1556.48 565.62,-1538.92 580.04,-1524.62"/>
<polygon fill="black" stroke="black" points="582.38,-1527.23 587.02,-1517.7 577.45,-1522.26 582.38,-1527.23"/>
<text xml:space="preserve" text-anchor="middle" x="579.14" y="-1538.45" font-family="Helvetica,sans-Serif" font-size="14.00">j &gt; ir</text>
</g>
<!-- N6 -->
<g id="node6" class="node">
<title>N6</title>
<path fill="none" stroke="black" d="M437.12,-1425C437.12,-1425 352.12,-1425 352.12,-1425 346.12,-1425 340.12,-1419 340.12,-1413 340.12,-1413 340.12,-1401 340.12,-1401 340.12,-1395 346.12,-1389 352.12,-1389 352.12,-1389 437.12,-1389 437.12,-1389 443.12,-1389 449.12,-1395 449.12,-1401 449.12,-1401 449.12,-1413 449.12,-1413 449.12,-1419 443.12,-1425 437.12,-1425"/>
<text xml:space="preserve" text-anchor="middle" x="394.62" y="-1401.57" font-family="Helvetica,sans-Serif" font-size="14.00">6: if (arr[i] &lt;= a)</text>
</g>
<!-- N5&#45;&gt;N6 -->
<g id="edge7" class="edge">
<title>N5&#45;&gt;N6</title>
<path fill="none" stroke="black" d="M405.66,-1478.32C403.76,-1466.21 401.26,-1450.27 399.12,-1436.63"/>
<polygon fill="black" stroke="black" points="402.59,-1436.22 397.59,-1426.88 395.68,-1437.3 402.59,-1436.22"/>
<text xml:space="preserve" text-anchor="middle" x="417.46" y="-1447.2" font-family="Helvetica,sans-Serif" font-size="14.00">i &gt;= l</text>
</g>
<!-- N9 -->
<g id="node9" class="node">
<title>N9</title>
<path fill="none" stroke="black" d="M519.75,-1124.5C519.75,-1124.5 435.5,-1124.5 435.5,-1124.5 429.5,-1124.5 423.5,-1118.5 423.5,-1112.5 423.5,-1112.5 423.5,-1100.5 423.5,-1100.5 423.5,-1094.5 429.5,-1088.5 435.5,-1088.5 435.5,-1088.5 519.75,-1088.5 519.75,-1088.5 525.75,-1088.5 531.75,-1094.5 531.75,-1100.5 531.75,-1100.5 531.75,-1112.5 531.75,-1112.5 531.75,-1118.5 525.75,-1124.5 519.75,-1124.5"/>
<text xml:space="preserve" text-anchor="middle" x="477.62" y="-1101.08" font-family="Helvetica,sans-Serif" font-size="14.00">9: arr[i + 1] = a;</text>
</g>
<!-- N5&#45;&gt;N9 -->
<g id="edge8" class="edge">
<title>N5&#45;&gt;N9</title>
<path fill="none" stroke="black" d="M427.07,-1478.07C438.52,-1464.82 452.23,-1446.13 458.62,-1426.75 492.49,-1324.08 485.83,-1192.9 480.7,-1135.98"/>
<polygon fill="black" stroke="black" points="484.2,-1135.81 479.76,-1126.19 477.23,-1136.48 484.2,-1135.81"/>
<text xml:space="preserve" text-anchor="middle" x="486.55" y="-1355.95" font-family="Helvetica,sans-Serif" font-size="14.00">i &lt; l</text>
</g>
<!-- N7 -->
<g id="node7" class="node">
<title>N7</title>
<path fill="none" stroke="black" d="M437.88,-1266.5C437.88,-1266.5 393.38,-1266.5 393.38,-1266.5 387.38,-1266.5 381.38,-1260.5 381.38,-1254.5 381.38,-1254.5 381.38,-1242.5 381.38,-1242.5 381.38,-1236.5 387.38,-1230.5 393.38,-1230.5 393.38,-1230.5 437.88,-1230.5 437.88,-1230.5 443.88,-1230.5 449.88,-1236.5 449.88,-1242.5 449.88,-1242.5 449.88,-1254.5 449.88,-1254.5 449.88,-1260.5 443.88,-1266.5 437.88,-1266.5"/>
<text xml:space="preserve" text-anchor="middle" x="415.62" y="-1243.07" font-family="Helvetica,sans-Serif" font-size="14.00">7: break;</text>
</g>
<!-- N6&#45;&gt;N7 -->
<g id="edge9" class="edge">
<title>N6&#45;&gt;N7</title>
<path fill="none" stroke="black" d="M396.95,-1388.65C400.53,-1361.98 407.43,-1310.59 411.76,-1278.28"/>
<polygon fill="black" stroke="black" points="415.22,-1278.8 413.09,-1268.42 408.29,-1277.87 415.22,-1278.8"/>
<text xml:space="preserve" text-anchor="middle" x="413.04" y="-1355.95" font-family="Helvetica,sans-Serif" font-size="14.00">true</text>
</g>
<!-- N8 -->
<g id="node8" class="node">
<title>N8</title>
<path fill="none" stroke="black" d="M351.5,-1266.5C351.5,-1266.5 247.75,-1266.5 247.75,-1266.5 241.75,-1266.5 235.75,-1260.5 235.75,-1254.5 235.75,-1254.5 235.75,-1242.5 235.75,-1242.5 235.75,-1236.5 241.75,-1230.5 247.75,-1230.5 247.75,-1230.5 351.5,-1230.5 351.5,-1230.5 357.5,-1230.5 363.5,-1236.5 363.5,-1242.5 363.5,-1242.5 363.5,-1254.5 363.5,-1254.5 363.5,-1260.5 357.5,-1266.5 351.5,-1266.5"/>
<text xml:space="preserve" text-anchor="middle" x="299.62" y="-1243.07" font-family="Helvetica,sans-Serif" font-size="14.00">8: arr[i + 1] = arr[i];</text>
</g>
<!-- N6&#45;&gt;N8 -->
<g id="edge10" class="edge">
<title>N6&#45;&gt;N8</title>
<path fill="none" stroke="black" d="M381,-1388.76C376.42,-1382.71 371.39,-1375.79 367.12,-1369.25 347.14,-1338.6 326.88,-1301.71 313.85,-1277.05"/>
<polygon fill="black" stroke="black" points="317.01,-1275.54 309.26,-1268.31 310.81,-1278.79 317.01,-1275.54"/>
<text xml:space="preserve" text-anchor="middle" x="381.38" y="-1355.95" font-family="Helvetica,sans-Serif" font-size="14.00">false</text>
</g>
<!-- N7&#45;&gt;N9 -->
<g id="edge11" class="edge">
<title>N7&#45;&gt;N9</title>
<path fill="none" stroke="black" d="M423.35,-1230.05C433.9,-1206.24 452.91,-1163.3 465.4,-1135.1"/>
<polygon fill="black" stroke="black" points="468.53,-1136.67 469.38,-1126.11 462.13,-1133.84 468.53,-1136.67"/>
</g>
<!-- N8&#45;&gt;N5 -->
<g id="edge12" class="edge">
<title>N8&#45;&gt;N5</title>
<path fill="none" stroke="black" d="M299.19,-1266.82C299.09,-1299.99 302.48,-1373.9 331.62,-1426.75 341.12,-1443.97 356.4,-1459.25 370.85,-1471.15"/>
<polygon fill="black" stroke="black" points="368.47,-1473.73 378.49,-1477.17 372.8,-1468.23 368.47,-1473.73"/>
</g>
<!-- N9&#45;&gt;N4 -->
<g id="edge13" class="edge">
<title>N9&#45;&gt;N4</title>
<path fill="none" stroke="black" d="M487.8,-1124.87C490.68,-1130.36 493.58,-1136.56 495.62,-1142.5 511.09,-1187.42 515.62,-1199.99 515.62,-1247.5 515.62,-1499.25 515.62,-1499.25 515.62,-1499.25 515.62,-1518.79 515.62,-1540.75 515.62,-1557.99"/>
<polygon fill="black" stroke="black" points="512.13,-1557.83 515.63,-1567.83 519.13,-1557.83 512.13,-1557.83"/>
</g>
<!-- N11 -->
<g id="node11" class="node">
<title>N11</title>
<path fill="none" stroke="black" d="M607.25,-1425C607.25,-1425 556,-1425 556,-1425 550,-1425 544,-1419 544,-1413 544,-1413 544,-1401 544,-1401 544,-1395 550,-1389 556,-1389 556,-1389 607.25,-1389 607.25,-1389 613.25,-1389 619.25,-1395 619.25,-1401 619.25,-1401 619.25,-1413 619.25,-1413 619.25,-1419 613.25,-1425 607.25,-1425"/>
<text xml:space="preserve" text-anchor="middle" x="581.62" y="-1401.57" font-family="Helvetica,sans-Serif" font-size="14.00">11: break;</text>
</g>
<!-- N10&#45;&gt;N11 -->
<g id="edge14" class="edge">
<title>N10&#45;&gt;N11</title>
<path fill="none" stroke="black" d="M601,-1480.04C597.67,-1467.65 593.1,-1450.66 589.23,-1436.28"/>
<polygon fill="black" stroke="black" points="592.69,-1435.67 586.71,-1426.92 585.93,-1437.49 592.69,-1435.67"/>
<text xml:space="preserve" text-anchor="middle" x="606.69" y="-1447.2" font-family="Helvetica,sans-Serif" font-size="14.00">true</text>
</g>
<!-- N12 -->
<g id="node12" class="node">
<title>N12</title>
<path fill="none" stroke="black" d="M776.12,-1426.75C776.12,-1426.75 649.12,-1426.75 649.12,-1426.75 643.12,-1426.75 637.12,-1420.75 637.12,-1414.75 637.12,-1414.75 637.12,-1399.25 637.12,-1399.25 637.12,-1393.25 643.12,-1387.25 649.12,-1387.25 649.12,-1387.25 776.12,-1387.25 776.12,-1387.25 782.12,-1387.25 788.12,-1393.25 788.12,-1399.25 788.12,-1399.25 788.12,-1414.75 788.12,-1414.75 788.12,-1420.75 782.12,-1426.75 776.12,-1426.75"/>
<text xml:space="preserve" text-anchor="middle" x="712.62" y="-1409.45" font-family="Helvetica,sans-Serif" font-size="14.00">12: ir = istack[jstack&#45;&#45;];</text>
<text xml:space="preserve" text-anchor="middle" x="712.62" y="-1393.7" font-family="Helvetica,sans-Serif" font-size="14.00">l = istack[jstack&#45;&#45;];</text>
</g>
<!-- N10&#45;&gt;N12 -->
<g id="edge15" class="edge">
<title>N10&#45;&gt;N12</title>
<path fill="none" stroke="black" d="M626.51,-1479.83C641.94,-1466.96 663.23,-1449.2 680.78,-1434.56"/>
<polygon fill="black" stroke="black" points="682.97,-1437.29 688.4,-1428.2 678.48,-1431.92 682.97,-1437.29"/>
<text xml:space="preserve" text-anchor="middle" x="679.78" y="-1447.2" font-family="Helvetica,sans-Serif" font-size="14.00">false</text>
</g>
<!-- N33 -->
<g id="node33" class="node">
<title>N33</title>
<ellipse fill="none" stroke="black" cx="630.62" cy="-1248.5" rx="83" ry="83"/>
<ellipse fill="none" stroke="black" cx="630.62" cy="-1248.5" rx="87" ry="87"/>
<text xml:space="preserve" text-anchor="middle" x="630.62" y="-1243.07" font-family="Helvetica,sans-Serif" font-size="14.00">33: Fim da funcao</text>
</g>
<!-- N11&#45;&gt;N33 -->
<g id="edge16" class="edge">
<title>N11&#45;&gt;N33</title>
<path fill="none" stroke="black" d="M587.06,-1388.65C590.76,-1376.81 596,-1360.1 601.55,-1342.35"/>
<polygon fill="black" stroke="black" points="604.75,-1343.84 604.4,-1333.25 598.07,-1341.75 604.75,-1343.84"/>
</g>
<!-- N12&#45;&gt;N2 -->
<g id="edge17" class="edge">
<title>N12&#45;&gt;N2</title>
<path fill="none" stroke="black" d="M712.62,-1427.15C712.62,-1445.22 712.62,-1473.08 712.62,-1497.25 712.62,-1680 712.62,-1680 712.62,-1680 712.62,-1693.92 712.62,-1709.37 712.62,-1722.3"/>
<polygon fill="black" stroke="black" points="709.13,-1722.27 712.63,-1732.27 716.13,-1722.27 709.13,-1722.27"/>
</g>
<!-- N14 -->
<g id="node14" class="node">
<title>N14</title>
<path fill="none" stroke="black" d="M292.25,-1518C292.25,-1518 163,-1518 163,-1518 157,-1518 151,-1512 151,-1506 151,-1506 151,-1490.5 151,-1490.5 151,-1484.5 157,-1478.5 163,-1478.5 163,-1478.5 292.25,-1478.5 292.25,-1478.5 298.25,-1478.5 304.25,-1484.5 304.25,-1490.5 304.25,-1490.5 304.25,-1506 304.25,-1506 304.25,-1512 298.25,-1518 292.25,-1518"/>
<text xml:space="preserve" text-anchor="middle" x="227.62" y="-1500.7" font-family="Helvetica,sans-Serif" font-size="14.00">14: k = (l + ir) &gt;&gt; 1;</text>
<text xml:space="preserve" text-anchor="middle" x="227.62" y="-1484.95" font-family="Helvetica,sans-Serif" font-size="14.00">SWAP(arr[k], arr[l + 1])</text>
</g>
<!-- N13&#45;&gt;N14 -->
<g id="edge18" class="edge">
<title>N13&#45;&gt;N14</title>
<path fill="none" stroke="black" d="M308.34,-1571.29C293.84,-1558.35 273.72,-1540.39 257.19,-1525.64"/>
<polygon fill="black" stroke="black" points="259.84,-1523.31 250.05,-1519.27 255.18,-1528.54 259.84,-1523.31"/>
</g>
<!-- N15 -->
<g id="node15" class="node">
<title>N15</title>
<path fill="none" stroke="black" d="M243.75,-1425C243.75,-1425 135.5,-1425 135.5,-1425 129.5,-1425 123.5,-1419 123.5,-1413 123.5,-1413 123.5,-1401 123.5,-1401 123.5,-1395 129.5,-1389 135.5,-1389 135.5,-1389 243.75,-1389 243.75,-1389 249.75,-1389 255.75,-1395 255.75,-1401 255.75,-1401 255.75,-1413 255.75,-1413 255.75,-1419 249.75,-1425 243.75,-1425"/>
<text xml:space="preserve" text-anchor="middle" x="189.62" y="-1401.57" font-family="Helvetica,sans-Serif" font-size="14.00">15: if (arr[l] &gt; arr[ir])</text>
</g>
<!-- N14&#45;&gt;N15 -->
<g id="edge19" class="edge">
<title>N14&#45;&gt;N15</title>
<path fill="none" stroke="black" d="M219.57,-1478.32C214.31,-1465.97 207.35,-1449.63 201.46,-1435.8"/>
<polygon fill="black" stroke="black" points="204.76,-1434.61 197.62,-1426.78 198.32,-1437.35 204.76,-1434.61"/>
</g>
<!-- N16 -->
<g id="node16" class="node">
<title>N16</title>
<path fill="none" stroke="black" d="M141.25,-1266.5C141.25,-1266.5 12,-1266.5 12,-1266.5 6,-1266.5 0,-1260.5 0,-1254.5 0,-1254.5 0,-1242.5 0,-1242.5 0,-1236.5 6,-1230.5 12,-1230.5 12,-1230.5 141.25,-1230.5 141.25,-1230.5 147.25,-1230.5 153.25,-1236.5 153.25,-1242.5 153.25,-1242.5 153.25,-1254.5 153.25,-1254.5 153.25,-1260.5 147.25,-1266.5 141.25,-1266.5"/>
<text xml:space="preserve" text-anchor="middle" x="76.62" y="-1243.07" font-family="Helvetica,sans-Serif" font-size="14.00">16: SWAP(arr[l], arr[ir])</text>
</g>
<!-- N15&#45;&gt;N16 -->
<g id="edge20" class="edge">
<title>N15&#45;&gt;N16</title>
<path fill="none" stroke="black" d="M170.57,-1388.84C164.45,-1382.91 157.85,-1376.04 152.38,-1369.25 128.47,-1339.58 105.77,-1301.98 91.56,-1276.9"/>
<polygon fill="black" stroke="black" points="94.69,-1275.33 86.75,-1268.31 88.58,-1278.74 94.69,-1275.33"/>
<text xml:space="preserve" text-anchor="middle" x="164" y="-1355.95" font-family="Helvetica,sans-Serif" font-size="14.00">true</text>
</g>
<!-- N17 -->
<g id="node17" class="node">
<title>N17</title>
<path fill="none" stroke="black" d="M255.38,-1124.5C255.38,-1124.5 123.88,-1124.5 123.88,-1124.5 117.88,-1124.5 111.88,-1118.5 111.88,-1112.5 111.88,-1112.5 111.88,-1100.5 111.88,-1100.5 111.88,-1094.5 117.88,-1088.5 123.88,-1088.5 123.88,-1088.5 255.38,-1088.5 255.38,-1088.5 261.38,-1088.5 267.38,-1094.5 267.38,-1100.5 267.38,-1100.5 267.38,-1112.5 267.38,-1112.5 267.38,-1118.5 261.38,-1124.5 255.38,-1124.5"/>
<text xml:space="preserve" text-anchor="middle" x="189.62" y="-1101.08" font-family="Helvetica,sans-Serif" font-size="14.00">17: if (arr[l + 1] &gt; arr[ir])</text>
</g>
<!-- N15&#45;&gt;N17 -->
<g id="edge21" class="edge">
<title>N15&#45;&gt;N17</title>
<path fill="none" stroke="black" d="M189.62,-1388.66C189.62,-1339.3 189.62,-1197.66 189.62,-1136.36"/>
<polygon fill="black" stroke="black" points="193.13,-1136.4 189.63,-1126.4 186.13,-1136.4 193.13,-1136.4"/>
<text xml:space="preserve" text-anchor="middle" x="203.88" y="-1243.07" font-family="Helvetica,sans-Serif" font-size="14.00">false</text>
</g>
<!-- N16&#45;&gt;N17 -->
<g id="edge22" class="edge">
<title>N16&#45;&gt;N17</title>
<path fill="none" stroke="black" d="M90.71,-1230.05C110.27,-1205.82 145.81,-1161.78 168.54,-1133.62"/>
<polygon fill="black" stroke="black" points="171.21,-1135.89 174.77,-1125.91 165.76,-1131.49 171.21,-1135.89"/>
</g>
<!-- N18 -->
<g id="node18" class="node">
<title>N18</title>
<path fill="none" stroke="black" d="M265.88,-1036.75C265.88,-1036.75 113.38,-1036.75 113.38,-1036.75 107.38,-1036.75 101.38,-1030.75 101.38,-1024.75 101.38,-1024.75 101.38,-1012.75 101.38,-1012.75 101.38,-1006.75 107.38,-1000.75 113.38,-1000.75 113.38,-1000.75 265.88,-1000.75 265.88,-1000.75 271.88,-1000.75 277.88,-1006.75 277.88,-1012.75 277.88,-1012.75 277.88,-1024.75 277.88,-1024.75 277.88,-1030.75 271.88,-1036.75 265.88,-1036.75"/>
<text xml:space="preserve" text-anchor="middle" x="189.62" y="-1013.33" font-family="Helvetica,sans-Serif" font-size="14.00">18: SWAP(arr[l + 1], arr[ir])</text>
</g>
<!-- N17&#45;&gt;N18 -->
<g id="edge23" class="edge">
<title>N17&#45;&gt;N18</title>
<path fill="none" stroke="black" d="M189.62,-1088.15C189.62,-1076.76 189.62,-1061.59 189.62,-1048.43"/>
<polygon fill="black" stroke="black" points="193.13,-1048.59 189.63,-1038.59 186.13,-1048.59 193.13,-1048.59"/>
<text xml:space="preserve" text-anchor="middle" x="201.25" y="-1057.2" font-family="Helvetica,sans-Serif" font-size="14.00">true</text>
</g>
<!-- N19 -->
<g id="node19" class="node">
<title>N19</title>
<path fill="none" stroke="black" d="M377.12,-963.75C377.12,-963.75 250.12,-963.75 250.12,-963.75 244.12,-963.75 238.12,-957.75 238.12,-951.75 238.12,-951.75 238.12,-939.75 238.12,-939.75 238.12,-933.75 244.12,-927.75 250.12,-927.75 250.12,-927.75 377.12,-927.75 377.12,-927.75 383.12,-927.75 389.12,-933.75 389.12,-939.75 389.12,-939.75 389.12,-951.75 389.12,-951.75 389.12,-957.75 383.12,-963.75 377.12,-963.75"/>
<text xml:space="preserve" text-anchor="middle" x="313.62" y="-940.33" font-family="Helvetica,sans-Serif" font-size="14.00">19: if (arr[l] &gt; arr[l + 1])</text>
</g>
<!-- N17&#45;&gt;N19 -->
<g id="edge24" class="edge">
<title>N17&#45;&gt;N19</title>
<path fill="none" stroke="black" d="M225.14,-1088.04C245.82,-1076.2 270.85,-1058.71 286.62,-1036.75 299.64,-1018.62 306.46,-994.16 309.98,-975.32"/>
<polygon fill="black" stroke="black" points="313.41,-976.07 311.57,-965.64 306.5,-974.94 313.41,-976.07"/>
<text xml:space="preserve" text-anchor="middle" x="317.88" y="-1013.33" font-family="Helvetica,sans-Serif" font-size="14.00">false</text>
</g>
<!-- N18&#45;&gt;N19 -->
<g id="edge25" class="edge">
<title>N18&#45;&gt;N19</title>
<path fill="none" stroke="black" d="M219.96,-1000.38C236.02,-991.18 255.96,-979.77 273.31,-969.83"/>
<polygon fill="black" stroke="black" points="274.92,-972.94 281.86,-964.94 271.44,-966.87 274.92,-972.94"/>
</g>
<!-- N20 -->
<g id="node20" class="node">
<title>N20</title>
<path fill="none" stroke="black" d="M387.62,-876C387.62,-876 239.62,-876 239.62,-876 233.62,-876 227.62,-870 227.62,-864 227.62,-864 227.62,-852 227.62,-852 227.62,-846 233.62,-840 239.62,-840 239.62,-840 387.62,-840 387.62,-840 393.62,-840 399.62,-846 399.62,-852 399.62,-852 399.62,-864 399.62,-864 399.62,-870 393.62,-876 387.62,-876"/>
<text xml:space="preserve" text-anchor="middle" x="313.62" y="-852.58" font-family="Helvetica,sans-Serif" font-size="14.00">20: SWAP(arr[l], arr[l + 1])</text>
</g>
<!-- N19&#45;&gt;N20 -->
<g id="edge26" class="edge">
<title>N19&#45;&gt;N20</title>
<path fill="none" stroke="black" d="M313.62,-927.4C313.62,-916.01 313.62,-900.84 313.62,-887.68"/>
<polygon fill="black" stroke="black" points="317.13,-887.84 313.63,-877.84 310.13,-887.84 317.13,-887.84"/>
<text xml:space="preserve" text-anchor="middle" x="325.25" y="-896.45" font-family="Helvetica,sans-Serif" font-size="14.00">true</text>
</g>
<!-- N21 -->
<g id="node21" class="node">
<title>N21</title>
<path fill="none" stroke="black" d="M470.25,-803C470.25,-803 401,-803 401,-803 395,-803 389,-797 389,-791 389,-791 389,-759.75 389,-759.75 389,-753.75 395,-747.75 401,-747.75 401,-747.75 470.25,-747.75 470.25,-747.75 476.25,-747.75 482.25,-753.75 482.25,-759.75 482.25,-759.75 482.25,-791 482.25,-791 482.25,-797 476.25,-803 470.25,-803"/>
<text xml:space="preserve" text-anchor="middle" x="435.62" y="-785.7" font-family="Helvetica,sans-Serif" font-size="14.00">21: i = l + 1;</text>
<text xml:space="preserve" text-anchor="middle" x="435.62" y="-769.95" font-family="Helvetica,sans-Serif" font-size="14.00">j = ir;</text>
<text xml:space="preserve" text-anchor="middle" x="435.62" y="-754.2" font-family="Helvetica,sans-Serif" font-size="14.00">a = arr[l + 1];</text>
</g>
<!-- N19&#45;&gt;N21 -->
<g id="edge27" class="edge">
<title>N19&#45;&gt;N21</title>
<path fill="none" stroke="black" d="M348.61,-927.28C368.95,-915.43 393.47,-897.94 408.62,-876 421.08,-857.97 427.8,-834.42 431.42,-814.75"/>
<polygon fill="black" stroke="black" points="434.87,-815.31 433.01,-804.88 427.96,-814.2 434.87,-815.31"/>
<text xml:space="preserve" text-anchor="middle" x="439.3" y="-852.58" font-family="Helvetica,sans-Serif" font-size="14.00">false</text>
</g>
<!-- N20&#45;&gt;N21 -->
<g id="edge28" class="edge">
<title>N20&#45;&gt;N21</title>
<path fill="none" stroke="black" d="M340.1,-839.51C353.33,-830.76 369.79,-819.88 385.31,-809.63"/>
<polygon fill="black" stroke="black" points="387.13,-812.62 393.54,-804.19 383.27,-806.78 387.13,-812.62"/>
</g>
<!-- N22 -->
<g id="node22" class="node">
<title>N22</title>
<path fill="none" stroke="black" d="M586.75,-710.75C586.75,-710.75 448.5,-710.75 448.5,-710.75 442.5,-710.75 436.5,-704.75 436.5,-698.75 436.5,-698.75 436.5,-686.75 436.5,-686.75 436.5,-680.75 442.5,-674.75 448.5,-674.75 448.5,-674.75 586.75,-674.75 586.75,-674.75 592.75,-674.75 598.75,-680.75 598.75,-686.75 598.75,-686.75 598.75,-698.75 598.75,-698.75 598.75,-704.75 592.75,-710.75 586.75,-710.75"/>
<text xml:space="preserve" text-anchor="middle" x="517.62" y="-687.33" font-family="Helvetica,sans-Serif" font-size="14.00">22: Loop interno (for (;;))</text>
</g>
<!-- N21&#45;&gt;N22 -->
<g id="edge29" class="edge">
<title>N21&#45;&gt;N22</title>
<path fill="none" stroke="black" d="M462.93,-747.53C472.35,-738.27 482.85,-727.94 492.12,-718.83"/>
<polygon fill="black" stroke="black" points="494.46,-721.43 499.14,-711.93 489.55,-716.44 494.46,-721.43"/>
</g>
<!-- N23 -->
<g id="node23" class="node">
<title>N23</title>
<path fill="none" stroke="black" d="M574,-637.75C574,-637.75 461.25,-637.75 461.25,-637.75 455.25,-637.75 449.25,-631.75 449.25,-625.75 449.25,-625.75 449.25,-610.25 449.25,-610.25 449.25,-604.25 455.25,-598.25 461.25,-598.25 461.25,-598.25 574,-598.25 574,-598.25 580,-598.25 586,-604.25 586,-610.25 586,-610.25 586,-625.75 586,-625.75 586,-631.75 580,-637.75 574,-637.75"/>
<text xml:space="preserve" text-anchor="middle" x="517.62" y="-620.45" font-family="Helvetica,sans-Serif" font-size="14.00">23: i++;</text>
<text xml:space="preserve" text-anchor="middle" x="517.62" y="-604.7" font-family="Helvetica,sans-Serif" font-size="14.00">while (arr[i] &lt; a) i++;</text>
</g>
<!-- N22&#45;&gt;N23 -->
<g id="edge30" class="edge">
<title>N22&#45;&gt;N23</title>
<path fill="none" stroke="black" d="M517.62,-674.51C517.62,-667 517.62,-657.97 517.62,-649.39"/>
<polygon fill="black" stroke="black" points="521.13,-649.68 517.63,-639.68 514.13,-649.68 521.13,-649.68"/>
</g>
<!-- N24 -->
<g id="node24" class="node">
<title>N24</title>
<path fill="none" stroke="black" d="M570.25,-561.25C570.25,-561.25 465,-561.25 465,-561.25 459,-561.25 453,-555.25 453,-549.25 453,-549.25 453,-533.75 453,-533.75 453,-527.75 459,-521.75 465,-521.75 465,-521.75 570.25,-521.75 570.25,-521.75 576.25,-521.75 582.25,-527.75 582.25,-533.75 582.25,-533.75 582.25,-549.25 582.25,-549.25 582.25,-555.25 576.25,-561.25 570.25,-561.25"/>
<text xml:space="preserve" text-anchor="middle" x="517.62" y="-543.95" font-family="Helvetica,sans-Serif" font-size="14.00">24: j&#45;&#45;;</text>
<text xml:space="preserve" text-anchor="middle" x="517.62" y="-528.2" font-family="Helvetica,sans-Serif" font-size="14.00">while (arr[j] &gt; a) j&#45;&#45;;</text>
</g>
<!-- N23&#45;&gt;N24 -->
<g id="edge31" class="edge">
<title>N23&#45;&gt;N24</title>
<path fill="none" stroke="black" d="M517.62,-597.81C517.62,-590.25 517.62,-581.38 517.62,-572.99"/>
<polygon fill="black" stroke="black" points="521.13,-573.13 517.63,-563.13 514.13,-573.13 521.13,-573.13"/>
</g>
<!-- N25 -->
<g id="node25" class="node">
<title>N25</title>
<path fill="none" stroke="black" d="M545.5,-484.75C545.5,-484.75 489.75,-484.75 489.75,-484.75 483.75,-484.75 477.75,-478.75 477.75,-472.75 477.75,-472.75 477.75,-460.75 477.75,-460.75 477.75,-454.75 483.75,-448.75 489.75,-448.75 489.75,-448.75 545.5,-448.75 545.5,-448.75 551.5,-448.75 557.5,-454.75 557.5,-460.75 557.5,-460.75 557.5,-472.75 557.5,-472.75 557.5,-478.75 551.5,-484.75 545.5,-484.75"/>
<text xml:space="preserve" text-anchor="middle" x="517.62" y="-461.32" font-family="Helvetica,sans-Serif" font-size="14.00">25: if (j &lt; i)</text>
</g>
<!-- N24&#45;&gt;N25 -->
<g id="edge32" class="edge">
<title>N24&#45;&gt;N25</title>
<path fill="none" stroke="black" d="M517.62,-521.39C517.62,-513.72 517.62,-504.72 517.62,-496.3"/>
<polygon fill="black" stroke="black" points="521.13,-496.51 517.63,-486.51 514.13,-496.51 521.13,-496.51"/>
</g>
<!-- N26 -->
<g id="node26" class="node">
<title>N26</title>
<path fill="none" stroke="black" d="M526.62,-397C526.62,-397 474.62,-397 474.62,-397 468.62,-397 462.62,-391 462.62,-385 462.62,-385 462.62,-373 462.62,-373 462.62,-367 468.62,-361 474.62,-361 474.62,-361 526.62,-361 526.62,-361 532.62,-361 538.62,-367 538.62,-373 538.62,-373 538.62,-385 538.62,-385 538.62,-391 532.62,-397 526.62,-397"/>
<text xml:space="preserve" text-anchor="middle" x="500.62" y="-373.57" font-family="Helvetica,sans-Serif" font-size="14.00">26: break;</text>
</g>
<!-- N25&#45;&gt;N26 -->
<g id="edge33" class="edge">
<title>N25&#45;&gt;N26</title>
<path fill="none" stroke="black" d="M514.18,-448.4C511.9,-436.89 508.86,-421.53 506.23,-408.28"/>
<polygon fill="black" stroke="black" points="509.73,-407.94 504.35,-398.81 502.87,-409.3 509.73,-407.94"/>
<text xml:space="preserve" text-anchor="middle" x="522.27" y="-417.45" font-family="Helvetica,sans-Serif" font-size="14.00">true</text>
</g>
<!-- N27 -->
<g id="node27" class="node">
<title>N27</title>
<path fill="none" stroke="black" d="M696.88,-397C696.88,-397 568.38,-397 568.38,-397 562.38,-397 556.38,-391 556.38,-385 556.38,-385 556.38,-373 556.38,-373 556.38,-367 562.38,-361 568.38,-361 568.38,-361 696.88,-361 696.88,-361 702.88,-361 708.88,-367 708.88,-373 708.88,-373 708.88,-385 708.88,-385 708.88,-391 702.88,-397 696.88,-397"/>
<text xml:space="preserve" text-anchor="middle" x="632.62" y="-373.57" font-family="Helvetica,sans-Serif" font-size="14.00">27: SWAP(arr[i], arr[j]);</text>
</g>
<!-- N25&#45;&gt;N27 -->
<g id="edge34" class="edge">
<title>N25&#45;&gt;N27</title>
<path fill="none" stroke="black" d="M533.94,-448.71C544.35,-438.33 558.41,-425.15 572.12,-415 577.69,-410.88 583.79,-406.85 589.9,-403.09"/>
<polygon fill="black" stroke="black" points="591.33,-406.31 598.13,-398.18 587.75,-400.29 591.33,-406.31"/>
<text xml:space="preserve" text-anchor="middle" x="586.38" y="-417.45" font-family="Helvetica,sans-Serif" font-size="14.00">false</text>
</g>
<!-- N28 -->
<g id="node28" class="node">
<title>N28</title>
<path fill="none" stroke="black" d="M603.25,-324C603.25,-324 492,-324 492,-324 486,-324 480,-318 480,-312 480,-312 480,-280.75 480,-280.75 480,-274.75 486,-268.75 492,-268.75 492,-268.75 603.25,-268.75 603.25,-268.75 609.25,-268.75 615.25,-274.75 615.25,-280.75 615.25,-280.75 615.25,-312 615.25,-312 615.25,-318 609.25,-324 603.25,-324"/>
<text xml:space="preserve" text-anchor="middle" x="547.62" y="-306.7" font-family="Helvetica,sans-Serif" font-size="14.00">28: arr[l + 1] = arr[j];</text>
<text xml:space="preserve" text-anchor="middle" x="547.62" y="-290.95" font-family="Helvetica,sans-Serif" font-size="14.00">arr[j] = a;</text>
<text xml:space="preserve" text-anchor="middle" x="547.62" y="-275.2" font-family="Helvetica,sans-Serif" font-size="14.00">jstack += 2;</text>
</g>
<!-- N26&#45;&gt;N28 -->
<g id="edge35" class="edge">
<title>N26&#45;&gt;N28</title>
<path fill="none" stroke="black" d="M510.82,-360.51C515.34,-352.75 520.84,-343.32 526.2,-334.13"/>
<polygon fill="black" stroke="black" points="529.12,-336.06 531.14,-325.66 523.08,-332.54 529.12,-336.06"/>
</g>
<!-- N27&#45;&gt;N22 -->
<g id="edge36" class="edge">
<title>N27&#45;&gt;N22</title>
<path fill="none" stroke="black" d="M626.83,-397.19C621.57,-414.34 614.62,-441.56 614.62,-465.75 614.62,-619 614.62,-619 614.62,-619 614.62,-641.24 598.1,-657.51 578.7,-668.96"/>
<polygon fill="black" stroke="black" points="577.16,-665.81 570.01,-673.63 580.48,-671.97 577.16,-665.81"/>
</g>
<!-- N29 -->
<g id="node29" class="node">
<title>N29</title>
<path fill="none" stroke="black" d="M620.5,-231.75C620.5,-231.75 498.75,-231.75 498.75,-231.75 492.75,-231.75 486.75,-225.75 486.75,-219.75 486.75,-219.75 486.75,-207.75 486.75,-207.75 486.75,-201.75 492.75,-195.75 498.75,-195.75 498.75,-195.75 620.5,-195.75 620.5,-195.75 626.5,-195.75 632.5,-201.75 632.5,-207.75 632.5,-207.75 632.5,-219.75 632.5,-219.75 632.5,-225.75 626.5,-231.75 620.5,-231.75"/>
<text xml:space="preserve" text-anchor="middle" x="559.62" y="-208.32" font-family="Helvetica,sans-Serif" font-size="14.00">29: if (ir &#45; i + 1 &gt;= j &#45; l)</text>
</g>
<!-- N28&#45;&gt;N29 -->
<g id="edge37" class="edge">
<title>N28&#45;&gt;N29</title>
<path fill="none" stroke="black" d="M551.62,-268.53C552.83,-260.4 554.16,-251.45 555.39,-243.23"/>
<polygon fill="black" stroke="black" points="558.84,-243.77 556.85,-233.36 551.92,-242.74 558.84,-243.77"/>
</g>
<!-- N30 -->
<g id="node30" class="node">
<title>N30</title>
<path fill="none" stroke="black" d="M774.62,-136.12C774.62,-136.12 656.62,-136.12 656.62,-136.12 650.62,-136.12 644.62,-130.12 644.62,-124.12 644.62,-124.12 644.62,-92.88 644.62,-92.88 644.62,-86.88 650.62,-80.88 656.62,-80.88 656.62,-80.88 774.62,-80.88 774.62,-80.88 780.62,-80.88 786.62,-86.88 786.62,-92.88 786.62,-92.88 786.62,-124.12 786.62,-124.12 786.62,-130.12 780.62,-136.12 774.62,-136.12"/>
<text xml:space="preserve" text-anchor="middle" x="715.62" y="-118.83" font-family="Helvetica,sans-Serif" font-size="14.00">30: istack[jstack] = ir;</text>
<text xml:space="preserve" text-anchor="middle" x="715.62" y="-103.08" font-family="Helvetica,sans-Serif" font-size="14.00">istack[jstack &#45; 1] = i;</text>
<text xml:space="preserve" text-anchor="middle" x="715.62" y="-87.33" font-family="Helvetica,sans-Serif" font-size="14.00">ir = j &#45; 1;</text>
</g>
<!-- N29&#45;&gt;N30 -->
<g id="edge38" class="edge">
<title>N29&#45;&gt;N30</title>
<path fill="none" stroke="black" d="M585.74,-195.47C607.37,-181.15 638.74,-160.39 665.23,-142.85"/>
<polygon fill="black" stroke="black" points="667.08,-145.83 673.48,-137.39 663.21,-139.99 667.08,-145.83"/>
<text xml:space="preserve" text-anchor="middle" x="644.57" y="-164.45" font-family="Helvetica,sans-Serif" font-size="14.00">true</text>
</g>
<!-- N31 -->
<g id="node31" class="node">
<title>N31</title>
<path fill="none" stroke="black" d="M614.88,-144C614.88,-144 504.38,-144 504.38,-144 498.38,-144 492.38,-138 492.38,-132 492.38,-132 492.38,-85 492.38,-85 492.38,-79 498.38,-73 504.38,-73 504.38,-73 614.88,-73 614.88,-73 620.88,-73 626.88,-79 626.88,-85 626.88,-85 626.88,-132 626.88,-132 626.88,-138 620.88,-144 614.88,-144"/>
<text xml:space="preserve" text-anchor="middle" x="559.62" y="-126.7" font-family="Helvetica,sans-Serif" font-size="14.00">31: else</text>
<text xml:space="preserve" text-anchor="middle" x="559.62" y="-110.95" font-family="Helvetica,sans-Serif" font-size="14.00">istack[jstack] = j &#45; 1;</text>
<text xml:space="preserve" text-anchor="middle" x="559.62" y="-95.2" font-family="Helvetica,sans-Serif" font-size="14.00">istack[jstack &#45; 1] = l;</text>
<text xml:space="preserve" text-anchor="middle" x="559.62" y="-79.45" font-family="Helvetica,sans-Serif" font-size="14.00">l = i;</text>
</g>
<!-- N29&#45;&gt;N31 -->
<g id="edge39" class="edge">
<title>N29&#45;&gt;N31</title>
<path fill="none" stroke="black" d="M559.62,-195.7C559.62,-184.67 559.62,-169.75 559.62,-155.42"/>
<polygon fill="black" stroke="black" points="563.13,-155.65 559.63,-145.65 556.13,-155.65 563.13,-155.65"/>
<text xml:space="preserve" text-anchor="middle" x="573.88" y="-164.45" font-family="Helvetica,sans-Serif" font-size="14.00">false</text>
</g>
<!-- N32 -->
<g id="node32" class="node">
<title>N32</title>
<path fill="none" stroke="black" d="M782.88,-36C782.88,-36 648.38,-36 648.38,-36 642.38,-36 636.38,-30 636.38,-24 636.38,-24 636.38,-12 636.38,-12 636.38,-6 642.38,0 648.38,0 648.38,0 782.88,0 782.88,0 788.88,0 794.88,-6 794.88,-12 794.88,-12 794.88,-24 794.88,-24 794.88,-30 788.88,-36 782.88,-36"/>
<text xml:space="preserve" text-anchor="middle" x="715.62" y="-12.57" font-family="Helvetica,sans-Serif" font-size="14.00">32: Fim do loop externo</text>
</g>
<!-- N30&#45;&gt;N32 -->
<g id="edge40" class="edge">
<title>N30&#45;&gt;N32</title>
<path fill="none" stroke="black" d="M715.62,-80.47C715.62,-70.05 715.62,-58.13 715.62,-47.57"/>
<polygon fill="black" stroke="black" points="719.13,-47.9 715.63,-37.9 712.13,-47.9 719.13,-47.9"/>
</g>
<!-- N31&#45;&gt;N32 -->
<g id="edge41" class="edge">
<title>N31&#45;&gt;N32</title>
<path fill="none" stroke="black" d="M621.28,-72.52C639.34,-62.28 658.61,-51.34 675.01,-42.04"/>
<polygon fill="black" stroke="black" points="676.52,-45.21 683.49,-37.23 673.06,-39.12 676.52,-45.21"/>
</g>
<!-- N32&#45;&gt;N2 -->
<g id="edge42" class="edge">
<title>N32&#45;&gt;N2</title>
<path fill="none" stroke="black" d="M758.17,-36.48C785.77,-50.95 816.62,-74.51 816.62,-107.5 816.62,-1680 816.62,-1680 816.62,-1680 816.62,-1701.88 800.73,-1717.51 781.36,-1728.42"/>
<polygon fill="black" stroke="black" points="779.97,-1725.2 772.66,-1732.87 783.16,-1731.43 779.97,-1725.2"/>
</g>
</g>
</svg>
