<?xml version="1.0" encoding="UTF-8" standalone="no"?>
<!DOCTYPE svg PUBLIC "-//W3C//DTD SVG 1.1//EN"
 "http://www.w3.org/Graphics/SVG/1.1/DTD/svg11.dtd">
<!-- Generated by graphviz version 13.1.2 (20250808.2320)
 -->
<!-- Title: fib_CFG Pages: 1 -->
<svg width="274pt" height="260pt"
 viewBox="0.00 0.00 274.00 260.00" xmlns="http://www.w3.org/2000/svg" xmlns:xlink="http://www.w3.org/1999/xlink">
<g id="graph0" class="graph" transform="scale(1 1) rotate(0) translate(4 255.75)">
<title>fib_CFG</title>
<polygon fill="white" stroke="none" points="-4,4 -4,-255.75 270.38,-255.75 270.38,4 -4,4"/>
<!-- N0 -->
<g id="node1" class="node">
<title>N0</title>
<path fill="none" stroke="black" d="M141.25,-251.75C141.25,-251.75 74.25,-251.75 74.25,-251.75 68.25,-251.75 62.25,-245.75 62.25,-239.75 62.25,-239.75 62.25,-208.5 62.25,-208.5 62.25,-202.5 68.25,-196.5 74.25,-196.5 74.25,-196.5 141.25,-196.5 141.25,-196.5 147.25,-196.5 153.25,-202.5 153.25,-208.5 153.25,-208.5 153.25,-239.75 153.25,-239.75 153.25,-245.75 147.25,-251.75 141.25,-251.75"/>
<text xml:space="preserve" text-anchor="middle" x="107.75" y="-234.45" font-family="Helvetica,sans-Serif" font-size="14.00">0: Fnew = 1;</text>
<text xml:space="preserve" text-anchor="middle" x="107.75" y="-218.7" font-family="Helvetica,sans-Serif" font-size="14.00">Fold = 0;</text>
<text xml:space="preserve" text-anchor="middle" x="107.75" y="-202.95" font-family="Helvetica,sans-Serif" font-size="14.00">i = 2;</text>
</g>
<!-- N1 -->
<g id="node2" class="node">
<title>N1</title>
<path fill="none" stroke="black" d="M172,-159.5C172,-159.5 43.5,-159.5 43.5,-159.5 37.5,-159.5 31.5,-153.5 31.5,-147.5 31.5,-147.5 31.5,-135.5 31.5,-135.5 31.5,-129.5 37.5,-123.5 43.5,-123.5 43.5,-123.5 172,-123.5 172,-123.5 178,-123.5 184,-129.5 184,-135.5 184,-135.5 184,-147.5 184,-147.5 184,-153.5 178,-159.5 172,-159.5"/>
<text xml:space="preserve" text-anchor="middle" x="107.75" y="-136.07" font-family="Helvetica,sans-Serif" font-size="14.00">1: if (i &lt;= 30 &amp;&amp; i &lt;= n)</text>
</g>
<!-- N0&#45;&gt;N1 -->
<g id="edge1" class="edge">
<title>N0&#45;&gt;N1</title>
<path fill="none" stroke="black" d="M107.75,-196.28C107.75,-188.15 107.75,-179.2 107.75,-170.98"/>
<polygon fill="black" stroke="black" points="111.25,-171.13 107.75,-161.13 104.25,-171.13 111.25,-171.13"/>
</g>
<!-- N2 -->
<g id="node3" class="node">
<title>N2</title>
<path fill="none" stroke="black" d="M131.5,-71C131.5,-71 12,-71 12,-71 6,-71 0,-65 0,-59 0,-59 0,-12 0,-12 0,-6 6,0 12,0 12,0 131.5,0 131.5,0 137.5,0 143.5,-6 143.5,-12 143.5,-12 143.5,-59 143.5,-59 143.5,-65 137.5,-71 131.5,-71"/>
<text xml:space="preserve" text-anchor="middle" x="71.75" y="-53.7" font-family="Helvetica,sans-Serif" font-size="14.00">2: temp = Fnew;</text>
<text xml:space="preserve" text-anchor="middle" x="71.75" y="-37.95" font-family="Helvetica,sans-Serif" font-size="14.00">Fnew = Fnew + Fold;</text>
<text xml:space="preserve" text-anchor="middle" x="71.75" y="-22.2" font-family="Helvetica,sans-Serif" font-size="14.00">Fold = temp;</text>
<text xml:space="preserve" text-anchor="middle" x="71.75" y="-6.45" font-family="Helvetica,sans-Serif" font-size="14.00">i++;</text>
</g>
<!-- N1&#45;&gt;N2 -->
<g id="edge2" class="edge">
<title>N1&#45;&gt;N2</title>
<path fill="none" stroke="black" d="M85.39,-123.34C80.3,-118.2 75.56,-112.15 72.75,-105.5 69.74,-98.38 68.19,-90.47 67.54,-82.62"/>
<polygon fill="black" stroke="black" points="71.04,-82.65 67.23,-72.77 64.05,-82.87 71.04,-82.65"/>
<text xml:space="preserve" text-anchor="middle" x="83.25" y="-92.2" font-family="Times New Roman,serif" font-size="14.00">true</text>
</g>
<!-- N3 -->
<g id="node4" class="node">
<title>N3</title>
<path fill="none" stroke="black" d="M254.38,-55.25C254.38,-55.25 173.12,-55.25 173.12,-55.25 167.12,-55.25 161.12,-49.25 161.12,-43.25 161.12,-43.25 161.12,-27.75 161.12,-27.75 161.12,-21.75 167.12,-15.75 173.12,-15.75 173.12,-15.75 254.38,-15.75 254.38,-15.75 260.38,-15.75 266.38,-21.75 266.38,-27.75 266.38,-27.75 266.38,-43.25 266.38,-43.25 266.38,-49.25 260.38,-55.25 254.38,-55.25"/>
<text xml:space="preserve" text-anchor="middle" x="213.75" y="-37.95" font-family="Helvetica,sans-Serif" font-size="14.00">3: ans = Fnew;</text>
<text xml:space="preserve" text-anchor="middle" x="213.75" y="-22.2" font-family="Helvetica,sans-Serif" font-size="14.00">return ans;</text>
</g>
<!-- N1&#45;&gt;N3 -->
<g id="edge3" class="edge">
<title>N1&#45;&gt;N3</title>
<path fill="none" stroke="black" d="M125.25,-123.33C141.85,-107.04 167.04,-82.33 186.31,-63.43"/>
<polygon fill="black" stroke="black" points="188.66,-66.02 193.34,-56.52 183.75,-61.03 188.66,-66.02"/>
<text xml:space="preserve" text-anchor="middle" x="170.32" y="-92.2" font-family="Times New Roman,serif" font-size="14.00">false</text>
</g>
<!-- N2&#45;&gt;N1 -->
<g id="edge4" class="edge">
<title>N2&#45;&gt;N1</title>
<path fill="none" stroke="black" d="M87.07,-71.27C89.44,-77.14 91.76,-83.21 93.75,-89 96.31,-96.45 98.71,-104.63 100.78,-112.23"/>
<polygon fill="black" stroke="black" points="97.34,-112.91 103.26,-121.7 104.11,-111.14 97.34,-112.91"/>
</g>
</g>
</svg>
