<?xml version="1.0" encoding="UTF-8" standalone="no"?>
<!DOCTYPE svg PUBLIC "-//W3C//DTD SVG 1.1//EN"
 "http://www.w3.org/Graphics/SVG/1.1/DTD/svg11.dtd">
<!-- Generated by graphviz version 13.1.2 (20250808.2320)
 -->
<!-- Title: fib_DFG Pages: 1 -->
<svg width="460pt" height="440pt"
 viewBox="0.00 0.00 460.00 440.00" xmlns="http://www.w3.org/2000/svg" xmlns:xlink="http://www.w3.org/1999/xlink">
<g id="graph0" class="graph" transform="scale(1 1) rotate(0) translate(4 436)">
<title>fib_DFG</title>
<polygon fill="white" stroke="none" points="-4,4 -4,-436 456.46,-436 456.46,4 -4,4"/>
<!-- n_param -->
<g id="node1" class="node">
<title>n_param</title>
<ellipse fill="lightblue" stroke="black" cx="61.59" cy="-268" rx="61.59" ry="18"/>
<text xml:space="preserve" text-anchor="middle" x="61.59" y="-262.95" font-family="Times New Roman,serif" font-size="14.00">n (parameter)</text>
</g>
<!-- condition -->
<g id="node8" class="node">
<title>condition</title>
<polygon fill="none" stroke="black" points="151.59,-197.5 48.57,-179.5 151.59,-161.5 254.61,-179.5 151.59,-197.5"/>
<text xml:space="preserve" text-anchor="middle" x="151.59" y="-174.45" font-family="Times New Roman,serif" font-size="14.00">i&lt;=30 &amp;&amp; i&lt;=n</text>
</g>
<!-- n_param&#45;&gt;condition -->
<g id="edge8" class="edge">
<title>n_param&#45;&gt;condition</title>
<path fill="none" stroke="black" d="M78.94,-250.32C92.99,-236.82 112.91,-217.67 128.34,-202.84"/>
<polygon fill="black" stroke="black" points="130.51,-205.61 135.29,-196.16 125.66,-200.57 130.51,-205.61"/>
</g>
<!-- const_1 -->
<g id="node2" class="node">
<title>const_1</title>
<ellipse fill="lightblue" stroke="black" cx="292.59" cy="-414" rx="27" ry="18"/>
<text xml:space="preserve" text-anchor="middle" x="292.59" y="-408.95" font-family="Times New Roman,serif" font-size="14.00">1</text>
</g>
<!-- assign_Fnew0 -->
<g id="node5" class="node">
<title>assign_Fnew0</title>
<polygon fill="none" stroke="black" points="326.84,-359 258.34,-359 258.34,-323 326.84,-323 326.84,-359"/>
<text xml:space="preserve" text-anchor="middle" x="292.59" y="-335.95" font-family="Times New Roman,serif" font-size="14.00">Fnew = 1</text>
</g>
<!-- const_1&#45;&gt;assign_Fnew0 -->
<g id="edge1" class="edge">
<title>const_1&#45;&gt;assign_Fnew0</title>
<path fill="none" stroke="black" d="M292.59,-395.81C292.59,-388.23 292.59,-379.1 292.59,-370.54"/>
<polygon fill="black" stroke="black" points="296.09,-370.54 292.59,-360.54 289.09,-370.54 296.09,-370.54"/>
</g>
<!-- const_0 -->
<g id="node3" class="node">
<title>const_0</title>
<ellipse fill="lightblue" stroke="black" cx="376.59" cy="-414" rx="27" ry="18"/>
<text xml:space="preserve" text-anchor="middle" x="376.59" y="-408.95" font-family="Times New Roman,serif" font-size="14.00">0</text>
</g>
<!-- assign_Fold0 -->
<g id="node6" class="node">
<title>assign_Fold0</title>
<polygon fill="none" stroke="black" points="408.21,-359 344.96,-359 344.96,-323 408.21,-323 408.21,-359"/>
<text xml:space="preserve" text-anchor="middle" x="376.59" y="-335.95" font-family="Times New Roman,serif" font-size="14.00">Fold = 0</text>
</g>
<!-- const_0&#45;&gt;assign_Fold0 -->
<g id="edge2" class="edge">
<title>const_0&#45;&gt;assign_Fold0</title>
<path fill="none" stroke="black" d="M376.59,-395.81C376.59,-388.23 376.59,-379.1 376.59,-370.54"/>
<polygon fill="black" stroke="black" points="380.09,-370.54 376.59,-360.54 373.09,-370.54 380.09,-370.54"/>
</g>
<!-- const_2 -->
<g id="node4" class="node">
<title>const_2</title>
<ellipse fill="lightblue" stroke="black" cx="187.59" cy="-414" rx="27" ry="18"/>
<text xml:space="preserve" text-anchor="middle" x="187.59" y="-408.95" font-family="Times New Roman,serif" font-size="14.00">2</text>
</g>
<!-- assign_i0 -->
<g id="node7" class="node">
<title>assign_i0</title>
<polygon fill="none" stroke="black" points="214.59,-359 160.59,-359 160.59,-323 214.59,-323 214.59,-359"/>
<text xml:space="preserve" text-anchor="middle" x="187.59" y="-335.95" font-family="Times New Roman,serif" font-size="14.00">i = 2</text>
</g>
<!-- const_2&#45;&gt;assign_i0 -->
<g id="edge3" class="edge">
<title>const_2&#45;&gt;assign_i0</title>
<path fill="none" stroke="black" d="M187.59,-395.81C187.59,-388.23 187.59,-379.1 187.59,-370.54"/>
<polygon fill="black" stroke="black" points="191.09,-370.54 187.59,-360.54 184.09,-370.54 191.09,-370.54"/>
</g>
<!-- assign_temp -->
<g id="node9" class="node">
<title>assign_temp</title>
<polygon fill="none" stroke="black" points="346.34,-109 256.84,-109 256.84,-73 346.34,-73 346.34,-109"/>
<text xml:space="preserve" text-anchor="middle" x="301.59" y="-85.95" font-family="Times New Roman,serif" font-size="14.00">temp = Fnew</text>
</g>
<!-- assign_Fnew0&#45;&gt;assign_temp -->
<g id="edge4" class="edge">
<title>assign_Fnew0&#45;&gt;assign_temp</title>
<path fill="none" stroke="black" d="M293.22,-322.56C294.75,-280.41 298.66,-172.63 300.54,-120.76"/>
<polygon fill="black" stroke="black" points="304.04,-121.05 300.9,-110.93 297.04,-120.8 304.04,-121.05"/>
</g>
<!-- add -->
<g id="node10" class="node">
<title>add</title>
<polygon fill="none" stroke="black" points="412.84,-286 326.34,-286 326.34,-250 412.84,-250 412.84,-286"/>
<text xml:space="preserve" text-anchor="middle" x="369.59" y="-262.95" font-family="Times New Roman,serif" font-size="14.00">Fnew + Fold</text>
</g>
<!-- assign_Fnew0&#45;&gt;add -->
<g id="edge5" class="edge">
<title>assign_Fnew0&#45;&gt;add</title>
<path fill="none" stroke="black" d="M311.23,-322.81C320.62,-314.16 332.17,-303.5 342.52,-293.96"/>
<polygon fill="black" stroke="black" points="344.76,-296.65 349.74,-287.3 340.02,-291.51 344.76,-296.65"/>
</g>
<!-- assign_Fold0&#45;&gt;add -->
<g id="edge6" class="edge">
<title>assign_Fold0&#45;&gt;add</title>
<path fill="none" stroke="black" d="M374.89,-322.81C374.14,-315.14 373.22,-305.89 372.37,-297.24"/>
<polygon fill="black" stroke="black" points="375.88,-297.14 371.41,-287.54 368.91,-297.83 375.88,-297.14"/>
</g>
<!-- assign_i0&#45;&gt;condition -->
<g id="edge7" class="edge">
<title>assign_i0&#45;&gt;condition</title>
<path fill="none" stroke="black" d="M181.51,-322.65C177.98,-312.14 173.64,-298.41 170.59,-286 164.19,-260.05 158.99,-230.01 155.66,-208.64"/>
<polygon fill="black" stroke="black" points="159.15,-208.31 154.19,-198.95 152.23,-209.36 159.15,-208.31"/>
</g>
<!-- increment_i -->
<g id="node13" class="node">
<title>increment_i</title>
<polygon fill="none" stroke="black" points="241.46,-286 179.71,-286 179.71,-250 241.46,-250 241.46,-286"/>
<text xml:space="preserve" text-anchor="middle" x="210.59" y="-262.95" font-family="Times New Roman,serif" font-size="14.00">i = i + 1</text>
</g>
<!-- assign_i0&#45;&gt;increment_i -->
<g id="edge9" class="edge">
<title>assign_i0&#45;&gt;increment_i</title>
<path fill="none" stroke="black" d="M193.16,-322.81C195.67,-315.05 198.7,-305.68 201.53,-296.95"/>
<polygon fill="black" stroke="black" points="204.85,-298.06 204.6,-287.47 198.19,-295.9 204.85,-298.06"/>
</g>
<!-- assign_Fold -->
<g id="node12" class="node">
<title>assign_Fold</title>
<polygon fill="none" stroke="black" points="343.71,-36 259.46,-36 259.46,0 343.71,0 343.71,-36"/>
<text xml:space="preserve" text-anchor="middle" x="301.59" y="-12.95" font-family="Times New Roman,serif" font-size="14.00">Fold = temp</text>
</g>
<!-- assign_temp&#45;&gt;assign_Fold -->
<g id="edge10" class="edge">
<title>assign_temp&#45;&gt;assign_Fold</title>
<path fill="none" stroke="black" d="M301.59,-72.81C301.59,-65.23 301.59,-56.1 301.59,-47.54"/>
<polygon fill="black" stroke="black" points="305.09,-47.54 301.59,-37.54 298.09,-47.54 305.09,-47.54"/>
</g>
<!-- assign_Fnew -->
<g id="node11" class="node">
<title>assign_Fnew</title>
<polygon fill="none" stroke="black" points="425.21,-197.5 343.96,-197.5 343.96,-161.5 425.21,-161.5 425.21,-197.5"/>
<text xml:space="preserve" text-anchor="middle" x="384.59" y="-174.45" font-family="Times New Roman,serif" font-size="14.00">Fnew = add</text>
</g>
<!-- add&#45;&gt;assign_Fnew -->
<g id="edge11" class="edge">
<title>add&#45;&gt;assign_Fnew</title>
<path fill="none" stroke="black" d="M366.06,-249.61C364.64,-239.52 363.89,-226.64 366.59,-215.5 367.19,-213.02 368,-210.51 368.94,-208.05"/>
<polygon fill="black" stroke="black" points="372.09,-209.59 373.08,-199.04 365.72,-206.67 372.09,-209.59"/>
</g>
<!-- assign_Fnew&#45;&gt;assign_temp -->
<g id="edge12" class="edge">
<title>assign_Fnew&#45;&gt;assign_temp</title>
<path fill="none" stroke="black" d="M344.62,-161.19C336.57,-156.34 328.71,-150.46 322.59,-143.5 316.71,-136.82 312.34,-128.28 309.16,-120.09"/>
<polygon fill="black" stroke="black" points="312.52,-119.11 306.01,-110.76 305.89,-121.35 312.52,-119.11"/>
<text xml:space="preserve" text-anchor="middle" x="358.59" y="-130.2" font-family="Times New Roman,serif" font-size="14.00">next iteration</text>
</g>
<!-- assign_Fnew&#45;&gt;add -->
<g id="edge13" class="edge">
<title>assign_Fnew&#45;&gt;add</title>
<path fill="none" stroke="black" d="M381.58,-197.85C379.55,-209.56 376.82,-225.29 374.48,-238.78"/>
<polygon fill="black" stroke="black" points="371.07,-237.97 372.81,-248.42 377.97,-239.16 371.07,-237.97"/>
<text xml:space="preserve" text-anchor="middle" x="414.43" y="-218.7" font-family="Times New Roman,serif" font-size="14.00">next iteration</text>
</g>
<!-- assign_ans -->
<g id="node14" class="node">
<title>assign_ans</title>
<polygon fill="none" stroke="black" points="452.46,-109 372.71,-109 372.71,-73 452.46,-73 452.46,-109"/>
<text xml:space="preserve" text-anchor="middle" x="412.59" y="-85.95" font-family="Times New Roman,serif" font-size="14.00">ans = Fnew</text>
</g>
<!-- assign_Fnew&#45;&gt;assign_ans -->
<g id="edge14" class="edge">
<title>assign_Fnew&#45;&gt;assign_ans</title>
<path fill="none" stroke="black" d="M391.97,-161.2C394.23,-155.6 396.64,-149.33 398.59,-143.5 401.09,-136.03 403.47,-127.85 405.54,-120.24"/>
<polygon fill="black" stroke="black" points="408.87,-121.34 408.03,-110.78 402.1,-119.56 408.87,-121.34"/>
</g>
<!-- increment_i&#45;&gt;condition -->
<g id="edge16" class="edge">
<title>increment_i&#45;&gt;condition</title>
<path fill="none" stroke="black" d="M198.93,-249.91C190.25,-237.19 178.28,-219.63 168.54,-205.36"/>
<polygon fill="black" stroke="black" points="171.61,-203.64 163.08,-197.35 165.82,-207.58 171.61,-203.64"/>
<text xml:space="preserve" text-anchor="middle" x="222.37" y="-218.7" font-family="Times New Roman,serif" font-size="14.00">next iteration</text>
</g>
<!-- return -->
<g id="node15" class="node">
<title>return</title>
<polygon fill="none" stroke="black" points="447.59,-36 377.59,-36 377.59,0 447.59,0 447.59,-36"/>
<text xml:space="preserve" text-anchor="middle" x="412.59" y="-12.95" font-family="Times New Roman,serif" font-size="14.00">return ans</text>
</g>
<!-- assign_ans&#45;&gt;return -->
<g id="edge15" class="edge">
<title>assign_ans&#45;&gt;return</title>
<path fill="none" stroke="black" d="M412.59,-72.81C412.59,-65.23 412.59,-56.1 412.59,-47.54"/>
<polygon fill="black" stroke="black" points="416.09,-47.54 412.59,-37.54 409.09,-47.54 416.09,-47.54"/>
</g>
</g>
</svg>
