<?xml version="1.0" encoding="UTF-8" standalone="no"?>
<!DOCTYPE svg PUBLIC "-//W3C//DTD SVG 1.1//EN"
 "http://www.w3.org/Graphics/SVG/1.1/DTD/svg11.dtd">
<!-- Generated by graphviz version 13.1.2 (20250808.2320)
 -->
<!-- Title: main_CFG Pages: 1 -->
<svg width="81pt" height="63pt"
 viewBox="0.00 0.00 81.00 63.00" xmlns="http://www.w3.org/2000/svg" xmlns:xlink="http://www.w3.org/1999/xlink">
<g id="graph0" class="graph" transform="scale(1 1) rotate(0) translate(4 59.25)">
<title>main_CFG</title>
<polygon fill="white" stroke="none" points="-4,4 -4,-59.25 77,-59.25 77,4 -4,4"/>
<!-- M0 -->
<g id="node1" class="node">
<title>M0</title>
<path fill="none" stroke="black" d="M61,-55.25C61,-55.25 12,-55.25 12,-55.25 6,-55.25 0,-49.25 0,-43.25 0,-43.25 0,-12 0,-12 0,-6 6,0 12,0 12,0 61,0 61,0 67,0 73,-6 73,-12 73,-12 73,-43.25 73,-43.25 73,-49.25 67,-55.25 61,-55.25"/>
<text xml:space="preserve" text-anchor="middle" x="36.5" y="-37.95" font-family="Helvetica,sans-Serif" font-size="14.00">0: a = 30;</text>
<text xml:space="preserve" text-anchor="middle" x="36.5" y="-22.2" font-family="Helvetica,sans-Serif" font-size="14.00">fib(a);</text>
<text xml:space="preserve" text-anchor="middle" x="36.5" y="-6.45" font-family="Helvetica,sans-Serif" font-size="14.00">return a;</text>
</g>
</g>
</svg>
