<?xml version="1.0" encoding="UTF-8" standalone="no"?>
<!DOCTYPE svg PUBLIC "-//W3C//DTD SVG 1.1//EN"
 "http://www.w3.org/Graphics/SVG/1.1/DTD/svg11.dtd">
<!-- Generated by graphviz version 13.1.2 (20250808.2320)
 -->
<!-- Title: CFG_foo Pages: 1 -->
<svg width="411pt" height="704pt"
 viewBox="0.00 0.00 411.00 704.00" xmlns="http://www.w3.org/2000/svg" xmlns:xlink="http://www.w3.org/1999/xlink">
<g id="graph0" class="graph" transform="scale(1 1) rotate(0) translate(4 700)">
<title>CFG_foo</title>
<polygon fill="white" stroke="none" points="-4,4 -4,-700 406.75,-700 406.75,4 -4,4"/>
<!-- START -->
<g id="node1" class="node">
<title>START</title>
<ellipse fill="none" stroke="black" cx="316" cy="-678" rx="32.41" ry="18"/>
<text xml:space="preserve" text-anchor="middle" x="316" y="-672.95" font-family="Times New Roman,serif" font-size="14.00">Inicio</text>
</g>
<!-- INIT -->
<g id="node3" class="node">
<title>INIT</title>
<polygon fill="none" stroke="black" points="376.12,-623 255.88,-623 255.88,-587 376.12,-587 376.12,-623"/>
<text xml:space="preserve" text-anchor="middle" x="316" y="-599.95" font-family="Times New Roman,serif" font-size="14.00">i=0; j=0; k=0; l=0;</text>
</g>
<!-- START&#45;&gt;INIT -->
<g id="edge1" class="edge">
<title>START&#45;&gt;INIT</title>
<path fill="none" stroke="black" d="M316,-659.81C316,-652.23 316,-643.1 316,-634.54"/>
<polygon fill="black" stroke="black" points="319.5,-634.54 316,-624.54 312.5,-634.54 319.5,-634.54"/>
</g>
<!-- END -->
<g id="node2" class="node">
<title>END</title>
<ellipse fill="none" stroke="black" cx="287" cy="-18" rx="27" ry="18"/>
<text xml:space="preserve" text-anchor="middle" x="287" y="-12.95" font-family="Times New Roman,serif" font-size="14.00">Fim</text>
</g>
<!-- LOOP_I -->
<g id="node4" class="node">
<title>LOOP_I</title>
<polygon fill="none" stroke="black" points="343,-550 289,-550 289,-514 343,-514 343,-550"/>
<text xml:space="preserve" text-anchor="middle" x="316" y="-526.95" font-family="Times New Roman,serif" font-size="14.00">i &lt; 5?</text>
</g>
<!-- INIT&#45;&gt;LOOP_I -->
<g id="edge2" class="edge">
<title>INIT&#45;&gt;LOOP_I</title>
<path fill="none" stroke="black" d="M316,-586.81C316,-579.23 316,-570.1 316,-561.54"/>
<polygon fill="black" stroke="black" points="319.5,-561.54 316,-551.54 312.5,-561.54 319.5,-561.54"/>
</g>
<!-- LOOP_J -->
<g id="node5" class="node">
<title>LOOP_J</title>
<polygon fill="none" stroke="black" points="283,-466.75 229,-466.75 229,-430.75 283,-430.75 283,-466.75"/>
<text xml:space="preserve" text-anchor="middle" x="256" y="-443.7" font-family="Times New Roman,serif" font-size="14.00">j &lt; 5?</text>
</g>
<!-- LOOP_I&#45;&gt;LOOP_J -->
<g id="edge3" class="edge">
<title>LOOP_I&#45;&gt;LOOP_J</title>
<path fill="none" stroke="black" d="M300.42,-513.55C295.72,-508.05 290.64,-501.88 286.25,-496 281.73,-489.95 277.12,-483.24 272.92,-476.86"/>
<polygon fill="black" stroke="black" points="275.89,-475.01 267.53,-468.5 270.01,-478.8 275.89,-475.01"/>
<text xml:space="preserve" text-anchor="middle" x="294.12" y="-486.5" font-family="Times New Roman,serif" font-size="10.00">Sim</text>
</g>
<!-- RETURN_END -->
<g id="node10" class="node">
<title>RETURN_END</title>
<polygon fill="none" stroke="black" points="402.75,-412.75 331.25,-412.75 331.25,-376.75 402.75,-376.75 402.75,-412.75"/>
<text xml:space="preserve" text-anchor="middle" x="367" y="-389.7" font-family="Times New Roman,serif" font-size="14.00">Return &#45;1;</text>
</g>
<!-- LOOP_I&#45;&gt;RETURN_END -->
<g id="edge4" class="edge">
<title>LOOP_I&#45;&gt;RETURN_END</title>
<path fill="none" stroke="black" d="M323.07,-513.59C325.32,-507.99 327.79,-501.74 330,-496 339.34,-471.71 349.55,-443.95 356.87,-423.8"/>
<polygon fill="black" stroke="black" points="360.09,-425.21 360.21,-414.61 353.51,-422.82 360.09,-425.21"/>
<text xml:space="preserve" text-anchor="middle" x="342.31" y="-486.5" font-family="Times New Roman,serif" font-size="10.00">Nao</text>
</g>
<!-- LOOP_K -->
<g id="node6" class="node">
<title>LOOP_K</title>
<polygon fill="none" stroke="black" points="218,-358.75 164,-358.75 164,-322.75 218,-322.75 218,-358.75"/>
<text xml:space="preserve" text-anchor="middle" x="191" y="-335.7" font-family="Times New Roman,serif" font-size="14.00">k &lt; 5?</text>
</g>
<!-- LOOP_J&#45;&gt;LOOP_K -->
<g id="edge5" class="edge">
<title>LOOP_J&#45;&gt;LOOP_K</title>
<path fill="none" stroke="black" d="M236.18,-430.39C230.88,-425.09 225.46,-419 221.25,-412.75 212.37,-399.55 205.22,-383.32 200.1,-369.71"/>
<polygon fill="black" stroke="black" points="203.45,-368.69 196.8,-360.44 196.86,-371.04 203.45,-368.69"/>
<text xml:space="preserve" text-anchor="middle" x="229.12" y="-390.88" font-family="Times New Roman,serif" font-size="10.00">Sim</text>
</g>
<!-- INC_I -->
<g id="node14" class="node">
<title>INC_I</title>
<polygon fill="none" stroke="black" points="335,-358.75 281,-358.75 281,-322.75 335,-322.75 335,-358.75"/>
<text xml:space="preserve" text-anchor="middle" x="308" y="-335.7" font-family="Times New Roman,serif" font-size="14.00">i++</text>
</g>
<!-- LOOP_J&#45;&gt;INC_I -->
<g id="edge6" class="edge">
<title>LOOP_J&#45;&gt;INC_I</title>
<path fill="none" stroke="black" d="M261.92,-430.39C267.17,-415.74 275.44,-394.39 284.75,-376.75 286.17,-374.06 287.74,-371.32 289.38,-368.61"/>
<polygon fill="black" stroke="black" points="292.19,-370.71 294.64,-360.4 286.3,-366.94 292.19,-370.71"/>
<text xml:space="preserve" text-anchor="middle" x="293.38" y="-390.88" font-family="Times New Roman,serif" font-size="10.00">Nao</text>
</g>
<!-- LOOP_L -->
<g id="node7" class="node">
<title>LOOP_L</title>
<polygon fill="none" stroke="black" points="150,-275.5 96,-275.5 96,-239.5 150,-239.5 150,-275.5"/>
<text xml:space="preserve" text-anchor="middle" x="123" y="-252.45" font-family="Times New Roman,serif" font-size="14.00">l &lt; 5?</text>
</g>
<!-- LOOP_K&#45;&gt;LOOP_L -->
<g id="edge7" class="edge">
<title>LOOP_K&#45;&gt;LOOP_L</title>
<path fill="none" stroke="black" d="M172.76,-322.46C167.26,-316.97 161.34,-310.76 156.25,-304.75 151.01,-298.56 145.72,-291.6 140.94,-284.98"/>
<polygon fill="black" stroke="black" points="143.88,-283.07 135.26,-276.92 138.16,-287.11 143.88,-283.07"/>
<text xml:space="preserve" text-anchor="middle" x="164.12" y="-295.25" font-family="Times New Roman,serif" font-size="10.00">Sim</text>
</g>
<!-- INC_J -->
<g id="node13" class="node">
<title>INC_J</title>
<polygon fill="none" stroke="black" points="273,-275.5 219,-275.5 219,-239.5 273,-239.5 273,-275.5"/>
<text xml:space="preserve" text-anchor="middle" x="246" y="-252.45" font-family="Times New Roman,serif" font-size="14.00">j++</text>
</g>
<!-- LOOP_K&#45;&gt;INC_J -->
<g id="edge8" class="edge">
<title>LOOP_K&#45;&gt;INC_J</title>
<path fill="none" stroke="black" d="M201.3,-322.39C206.63,-313.61 213.35,-302.86 219.75,-293.5 221.7,-290.65 223.79,-287.7 225.9,-284.78"/>
<polygon fill="black" stroke="black" points="228.57,-287.06 231.71,-276.94 222.95,-282.9 228.57,-287.06"/>
<text xml:space="preserve" text-anchor="middle" x="228.38" y="-295.25" font-family="Times New Roman,serif" font-size="10.00">Nao</text>
</g>
<!-- COND -->
<g id="node8" class="node">
<title>COND</title>
<polygon fill="none" stroke="black" points="180.75,-192.25 49.25,-192.25 49.25,-156.25 180.75,-156.25 180.75,-192.25"/>
<text xml:space="preserve" text-anchor="middle" x="115" y="-169.2" font-family="Times New Roman,serif" font-size="14.00">keys[i][j][k][l] == x?</text>
</g>
<!-- LOOP_L&#45;&gt;COND -->
<g id="edge9" class="edge">
<title>LOOP_L&#45;&gt;COND</title>
<path fill="none" stroke="black" d="M119.07,-239.14C117.96,-233.54 116.88,-227.28 116.25,-221.5 115.63,-215.81 115.26,-209.71 115.04,-203.86"/>
<polygon fill="black" stroke="black" points="118.54,-203.86 114.83,-193.94 111.55,-204.01 118.54,-203.86"/>
<text xml:space="preserve" text-anchor="middle" x="124.12" y="-212" font-family="Times New Roman,serif" font-size="10.00">Sim</text>
</g>
<!-- INC_K -->
<g id="node12" class="node">
<title>INC_K</title>
<polygon fill="none" stroke="black" points="253,-192.25 199,-192.25 199,-156.25 253,-156.25 253,-192.25"/>
<text xml:space="preserve" text-anchor="middle" x="226" y="-169.2" font-family="Times New Roman,serif" font-size="14.00">k++</text>
</g>
<!-- LOOP_L&#45;&gt;INC_K -->
<g id="edge10" class="edge">
<title>LOOP_L&#45;&gt;INC_K</title>
<path fill="none" stroke="black" d="M132.07,-239.04C137.63,-229.61 145.47,-218.28 154.75,-210.25 156.33,-208.89 172.31,-201.01 188.73,-193.07"/>
<polygon fill="black" stroke="black" points="190.04,-196.32 197.53,-188.83 187,-190.01 190.04,-196.32"/>
<text xml:space="preserve" text-anchor="middle" x="163.38" y="-212" font-family="Times New Roman,serif" font-size="10.00">Nao</text>
</g>
<!-- RETURN_INNER -->
<g id="node9" class="node">
<title>RETURN_INNER</title>
<polygon fill="none" stroke="black" points="331.5,-109 84.5,-109 84.5,-73 331.5,-73 331.5,-109"/>
<text xml:space="preserve" text-anchor="middle" x="208" y="-85.95" font-family="Times New Roman,serif" font-size="14.00">Return answer[i][j][k][l] + keys[i][j][k][l];</text>
</g>
<!-- COND&#45;&gt;RETURN_INNER -->
<g id="edge11" class="edge">
<title>COND&#45;&gt;RETURN_INNER</title>
<path fill="none" stroke="black" d="M134.72,-156.02C147.7,-144.68 164.91,-129.65 179.39,-117"/>
<polygon fill="black" stroke="black" points="181.62,-119.7 186.85,-110.48 177.01,-114.43 181.62,-119.7"/>
<text xml:space="preserve" text-anchor="middle" x="174.94" y="-128.75" font-family="Times New Roman,serif" font-size="10.00">Sim</text>
</g>
<!-- INC_L -->
<g id="node11" class="node">
<title>INC_L</title>
<polygon fill="none" stroke="black" points="54,-109 0,-109 0,-73 54,-73 54,-109"/>
<text xml:space="preserve" text-anchor="middle" x="27" y="-85.95" font-family="Times New Roman,serif" font-size="14.00">l++</text>
</g>
<!-- COND&#45;&gt;INC_L -->
<g id="edge12" class="edge">
<title>COND&#45;&gt;INC_L</title>
<path fill="none" stroke="black" d="M96.34,-156.02C84.05,-144.68 67.77,-129.65 54.08,-117"/>
<polygon fill="black" stroke="black" points="56.77,-114.73 47.05,-110.51 52.02,-119.87 56.77,-114.73"/>
<text xml:space="preserve" text-anchor="middle" x="84.89" y="-128.75" font-family="Times New Roman,serif" font-size="10.00">Nao</text>
</g>
<!-- RETURN_INNER&#45;&gt;END -->
<g id="edge17" class="edge">
<title>RETURN_INNER&#45;&gt;END</title>
<path fill="none" stroke="black" d="M227.12,-72.81C237.97,-63.07 251.63,-50.79 263.17,-40.42"/>
<polygon fill="black" stroke="black" points="265.27,-43.23 270.37,-33.95 260.59,-38.03 265.27,-43.23"/>
</g>
<!-- RETURN_END&#45;&gt;END -->
<g id="edge18" class="edge">
<title>RETURN_END&#45;&gt;END</title>
<path fill="none" stroke="black" d="M366.71,-376.49C366.41,-357.71 366,-326.78 366,-300.12 366,-300.12 366,-300.12 366,-90 366,-63.73 341.54,-44.72 319.84,-33.01"/>
<polygon fill="black" stroke="black" points="321.71,-30.03 311.2,-28.68 318.57,-36.29 321.71,-30.03"/>
</g>
<!-- INC_L&#45;&gt;LOOP_L -->
<g id="edge13" class="edge">
<title>INC_L&#45;&gt;LOOP_L</title>
<path fill="none" stroke="black" d="M25.41,-109.21C24.29,-130.23 25.08,-166.21 40,-192.25 50.68,-210.88 69.12,-225.98 85.91,-236.84"/>
<polygon fill="black" stroke="black" points="83.89,-239.71 94.25,-241.96 87.55,-233.74 83.89,-239.71"/>
</g>
<!-- INC_K&#45;&gt;LOOP_K -->
<g id="edge14" class="edge">
<title>INC_K&#45;&gt;LOOP_K</title>
<path fill="none" stroke="black" d="M221.39,-192.64C218.03,-205.53 213.49,-223.56 210,-239.5 204.73,-263.54 199.59,-291.02 195.98,-311.12"/>
<polygon fill="black" stroke="black" points="192.56,-310.36 194.26,-320.81 199.45,-311.58 192.56,-310.36"/>
</g>
<!-- INC_J&#45;&gt;LOOP_J -->
<g id="edge15" class="edge">
<title>INC_J&#45;&gt;LOOP_J</title>
<path fill="none" stroke="black" d="M246.92,-275.92C248.65,-308.56 252.38,-379.21 254.48,-419"/>
<polygon fill="black" stroke="black" points="250.97,-418.97 255,-428.77 257.96,-418.6 250.97,-418.97"/>
</g>
<!-- INC_I&#45;&gt;LOOP_I -->
<g id="edge16" class="edge">
<title>INC_I&#45;&gt;LOOP_I</title>
<path fill="none" stroke="black" d="M308.74,-359.17C310.12,-391.81 313.1,-462.46 314.78,-502.25"/>
<polygon fill="black" stroke="black" points="311.28,-502.18 315.2,-512.02 318.27,-501.88 311.28,-502.18"/>
</g>
</g>
</svg>
