<?xml version="1.0" encoding="UTF-8" standalone="no"?>
<!DOCTYPE svg PUBLIC "-//W3C//DTD SVG 1.1//EN"
 "http://www.w3.org/Graphics/SVG/1.1/DTD/svg11.dtd">
<!-- Generated by graphviz version 13.1.2 (20250808.2320)
 -->
<!-- Title: DFG_foo Pages: 1 -->
<svg width="796pt" height="200pt"
 viewBox="0.00 0.00 796.00 200.00" xmlns="http://www.w3.org/2000/svg" xmlns:xlink="http://www.w3.org/1999/xlink">
<g id="graph0" class="graph" transform="scale(1 1) rotate(0) translate(4 196.25)">
<title>DFG_foo</title>
<polygon fill="white" stroke="none" points="-4,4 -4,-196.25 791.88,-196.25 791.88,4 -4,4"/>
<!-- x -->
<g id="node1" class="node">
<title>x</title>
<ellipse fill="none" stroke="black" cx="242.04" cy="-174.25" rx="62.1" ry="18"/>
<text xml:space="preserve" text-anchor="middle" x="242.04" y="-169.2" font-family="Times New Roman,serif" font-size="14.00">x (parametro)</text>
</g>
<!-- cond -->
<g id="node8" class="node">
<title>cond</title>
<polygon fill="none" stroke="black" points="486.04,-119.25 307.74,-101.25 486.04,-83.25 664.33,-101.25 486.04,-119.25"/>
<text xml:space="preserve" text-anchor="middle" x="486.04" y="-96.2" font-family="Times New Roman,serif" font-size="14.00">Condicao: keys[i][j][k][l] == x</text>
</g>
<!-- x&#45;&gt;cond -->
<g id="edge1" class="edge">
<title>x&#45;&gt;cond</title>
<path fill="none" stroke="black" d="M284.82,-160.8C325.39,-149 386.55,-131.2 430.79,-118.32"/>
<polygon fill="black" stroke="black" points="431.58,-121.74 440.2,-115.59 429.62,-115.02 431.58,-121.74"/>
</g>
<!-- keys -->
<g id="node2" class="node">
<title>keys</title>
<ellipse fill="none" stroke="black" cx="81.04" cy="-174.25" rx="81.04" ry="18"/>
<text xml:space="preserve" text-anchor="middle" x="81.04" y="-169.2" font-family="Times New Roman,serif" font-size="14.00">keys (array global)</text>
</g>
<!-- keys&#45;&gt;cond -->
<g id="edge2" class="edge">
<title>keys&#45;&gt;cond</title>
<path fill="none" stroke="black" d="M141.04,-161.77C151.05,-159.9 161.33,-158 171.04,-156.25 252.43,-141.59 345.82,-125.69 409.66,-114.97"/>
<polygon fill="black" stroke="black" points="410.05,-118.46 419.33,-113.35 408.89,-111.55 410.05,-118.46"/>
</g>
<!-- return_inner -->
<g id="node9" class="node">
<title>return_inner</title>
<ellipse fill="none" stroke="black" cx="199.04" cy="-18" rx="164.97" ry="18"/>
<text xml:space="preserve" text-anchor="middle" x="199.04" y="-12.95" font-family="Times New Roman,serif" font-size="14.00">Soma: answer[i][j][k][l] + keys[i][j][k][l]</text>
</g>
<!-- keys&#45;&gt;return_inner -->
<g id="edge3" class="edge">
<title>keys&#45;&gt;return_inner</title>
<path fill="none" stroke="black" d="M80.87,-155.8C81.5,-136.46 85.03,-105.11 100.04,-83.25 112.17,-65.58 130.92,-51.62 148.85,-41.29"/>
<polygon fill="black" stroke="black" points="150.26,-44.51 157.36,-36.65 146.9,-38.37 150.26,-44.51"/>
</g>
<!-- answer -->
<g id="node3" class="node">
<title>answer</title>
<ellipse fill="none" stroke="black" cx="199.04" cy="-101.25" rx="90.25" ry="18"/>
<text xml:space="preserve" text-anchor="middle" x="199.04" y="-96.2" font-family="Times New Roman,serif" font-size="14.00">answer (array global)</text>
</g>
<!-- answer&#45;&gt;return_inner -->
<g id="edge4" class="edge">
<title>answer&#45;&gt;return_inner</title>
<path fill="none" stroke="black" d="M199.04,-83.02C199.04,-72.75 199.04,-59.45 199.04,-47.64"/>
<polygon fill="black" stroke="black" points="202.54,-48 199.04,-38 195.54,-48 202.54,-48"/>
</g>
<!-- i -->
<g id="node4" class="node">
<title>i</title>
<ellipse fill="none" stroke="black" cx="373.04" cy="-174.25" rx="50.84" ry="18"/>
<text xml:space="preserve" text-anchor="middle" x="373.04" y="-169.2" font-family="Times New Roman,serif" font-size="14.00">i (iterador)</text>
</g>
<!-- i&#45;&gt;cond -->
<g id="edge5" class="edge">
<title>i&#45;&gt;cond</title>
<path fill="none" stroke="black" d="M397.28,-158.02C413.47,-147.84 434.99,-134.32 452.78,-123.15"/>
<polygon fill="black" stroke="black" points="454.34,-126.3 460.94,-118.02 450.61,-120.37 454.34,-126.3"/>
</g>
<!-- j -->
<g id="node5" class="node">
<title>j</title>
<ellipse fill="none" stroke="black" cx="493.04" cy="-174.25" rx="50.84" ry="18"/>
<text xml:space="preserve" text-anchor="middle" x="493.04" y="-169.2" font-family="Times New Roman,serif" font-size="14.00">j (iterador)</text>
</g>
<!-- j&#45;&gt;cond -->
<g id="edge6" class="edge">
<title>j&#45;&gt;cond</title>
<path fill="none" stroke="black" d="M491.34,-156.06C490.59,-148.39 489.67,-139.14 488.82,-130.49"/>
<polygon fill="black" stroke="black" points="492.33,-130.39 487.86,-120.79 485.36,-131.08 492.33,-130.39"/>
</g>
<!-- k -->
<g id="node6" class="node">
<title>k</title>
<ellipse fill="none" stroke="black" cx="615.04" cy="-174.25" rx="52.89" ry="18"/>
<text xml:space="preserve" text-anchor="middle" x="615.04" y="-169.2" font-family="Times New Roman,serif" font-size="14.00">k (iterador)</text>
</g>
<!-- k&#45;&gt;cond -->
<g id="edge7" class="edge">
<title>k&#45;&gt;cond</title>
<path fill="none" stroke="black" d="M587.99,-158.37C569.03,-147.93 543.46,-133.86 522.67,-122.41"/>
<polygon fill="black" stroke="black" points="524.38,-119.36 513.93,-117.6 521,-125.49 524.38,-119.36"/>
</g>
<!-- l -->
<g id="node7" class="node">
<title>l</title>
<ellipse fill="none" stroke="black" cx="737.04" cy="-174.25" rx="50.84" ry="18"/>
<text xml:space="preserve" text-anchor="middle" x="737.04" y="-169.2" font-family="Times New Roman,serif" font-size="14.00">l (iterador)</text>
</g>
<!-- l&#45;&gt;cond -->
<g id="edge8" class="edge">
<title>l&#45;&gt;cond</title>
<path fill="none" stroke="black" d="M698.31,-162.27C691.23,-160.27 683.91,-158.2 677.04,-156.25 631.77,-143.44 580.46,-128.93 542.43,-118.19"/>
<polygon fill="black" stroke="black" points="543.61,-114.88 533.03,-115.53 541.7,-121.62 543.61,-114.88"/>
</g>
<!-- cond&#45;&gt;return_inner -->
<g id="edge9" class="edge">
<title>cond&#45;&gt;return_inner</title>
<path fill="none" stroke="black" d="M440.56,-87.38C393.98,-74.19 321.01,-53.53 267.45,-38.37"/>
<polygon fill="black" stroke="black" points="268.71,-35.09 258.13,-35.73 266.8,-41.82 268.71,-35.09"/>
<text xml:space="preserve" text-anchor="middle" x="381.84" y="-55.75" font-family="Times New Roman,serif" font-size="10.00">Verdadeiro</text>
</g>
<!-- return_end -->
<g id="node10" class="node">
<title>return_end</title>
<ellipse fill="none" stroke="black" cx="486.04" cy="-18" rx="61.08" ry="18"/>
<text xml:space="preserve" text-anchor="middle" x="486.04" y="-12.95" font-family="Times New Roman,serif" font-size="14.00">Valor fixo: &#45;1</text>
</g>
<!-- cond&#45;&gt;return_end -->
<g id="edge10" class="edge">
<title>cond&#45;&gt;return_end</title>
<path fill="none" stroke="black" d="M486.04,-83.02C486.04,-72.75 486.04,-59.45 486.04,-47.64"/>
<polygon fill="black" stroke="black" points="489.54,-48 486.04,-38 482.54,-48 489.54,-48"/>
<text xml:space="preserve" text-anchor="middle" x="522.79" y="-55.75" font-family="Times New Roman,serif" font-size="10.00">Falso (apos loops)</text>
</g>
</g>
</svg>
