<?xml version="1.0" encoding="UTF-8" standalone="no"?>
<!DOCTYPE svg PUBLIC "-//W3C//DTD SVG 1.1//EN"
 "http://www.w3.org/Graphics/SVG/1.1/DTD/svg11.dtd">
<!-- Generated by graphviz version 13.1.2 (20250808.2320)
 -->
<!-- Title: foo_CFG Pages: 1 -->
<svg width="658pt" height="852pt"
 viewBox="0.00 0.00 658.00 852.00" xmlns="http://www.w3.org/2000/svg" xmlns:xlink="http://www.w3.org/1999/xlink">
<g id="graph0" class="graph" transform="scale(1 1) rotate(0) translate(4 847.5)">
<title>foo_CFG</title>
<polygon fill="white" stroke="none" points="-4,4 -4,-847.5 654.12,-847.5 654.12,4 -4,4"/>
<!-- N1 -->
<g id="node1" class="node">
<title>N1</title>
<path fill="none" stroke="black" d="M556.38,-843.5C556.38,-843.5 500.62,-843.5 500.62,-843.5 494.62,-843.5 488.62,-837.5 488.62,-831.5 488.62,-831.5 488.62,-819.5 488.62,-819.5 488.62,-813.5 494.62,-807.5 500.62,-807.5 500.62,-807.5 556.38,-807.5 556.38,-807.5 562.38,-807.5 568.38,-813.5 568.38,-819.5 568.38,-819.5 568.38,-831.5 568.38,-831.5 568.38,-837.5 562.38,-843.5 556.38,-843.5"/>
<text xml:space="preserve" text-anchor="middle" x="528.5" y="-820.08" font-family="Helvetica,sans-Serif" font-size="14.00">1: int i,j,k,l;</text>
</g>
<!-- N2 -->
<g id="node2" class="node">
<title>N2</title>
<path fill="none" stroke="black" d="M543.5,-770.5C543.5,-770.5 513.5,-770.5 513.5,-770.5 507.5,-770.5 501.5,-764.5 501.5,-758.5 501.5,-758.5 501.5,-746.5 501.5,-746.5 501.5,-740.5 507.5,-734.5 513.5,-734.5 513.5,-734.5 543.5,-734.5 543.5,-734.5 549.5,-734.5 555.5,-740.5 555.5,-746.5 555.5,-746.5 555.5,-758.5 555.5,-758.5 555.5,-764.5 549.5,-770.5 543.5,-770.5"/>
<text xml:space="preserve" text-anchor="middle" x="528.5" y="-747.08" font-family="Helvetica,sans-Serif" font-size="14.00">2: i=0</text>
</g>
<!-- N1&#45;&gt;N2 -->
<g id="edge1" class="edge">
<title>N1&#45;&gt;N2</title>
<path fill="none" stroke="black" d="M528.5,-807.31C528.5,-799.73 528.5,-790.6 528.5,-782.04"/>
<polygon fill="black" stroke="black" points="532,-782.04 528.5,-772.04 525,-782.04 532,-782.04"/>
</g>
<!-- N3 -->
<g id="node3" class="node">
<title>N3</title>
<path fill="none" stroke="black" d="M543.5,-697.5C543.5,-697.5 513.5,-697.5 513.5,-697.5 507.5,-697.5 501.5,-691.5 501.5,-685.5 501.5,-685.5 501.5,-673.5 501.5,-673.5 501.5,-667.5 507.5,-661.5 513.5,-661.5 513.5,-661.5 543.5,-661.5 543.5,-661.5 549.5,-661.5 555.5,-667.5 555.5,-673.5 555.5,-673.5 555.5,-685.5 555.5,-685.5 555.5,-691.5 549.5,-697.5 543.5,-697.5"/>
<text xml:space="preserve" text-anchor="middle" x="528.5" y="-674.08" font-family="Helvetica,sans-Serif" font-size="14.00">3: i&lt;5</text>
</g>
<!-- N2&#45;&gt;N3 -->
<g id="edge2" class="edge">
<title>N2&#45;&gt;N3</title>
<path fill="none" stroke="black" d="M528.5,-734.31C528.5,-726.73 528.5,-717.6 528.5,-709.04"/>
<polygon fill="black" stroke="black" points="532,-709.04 528.5,-699.04 525,-709.04 532,-709.04"/>
</g>
<!-- N4 -->
<g id="node4" class="node">
<title>N4</title>
<path fill="none" stroke="black" d="M488.5,-609C488.5,-609 458.5,-609 458.5,-609 452.5,-609 446.5,-603 446.5,-597 446.5,-597 446.5,-585 446.5,-585 446.5,-579 452.5,-573 458.5,-573 458.5,-573 488.5,-573 488.5,-573 494.5,-573 500.5,-579 500.5,-585 500.5,-585 500.5,-597 500.5,-597 500.5,-603 494.5,-609 488.5,-609"/>
<text xml:space="preserve" text-anchor="middle" x="473.5" y="-585.58" font-family="Helvetica,sans-Serif" font-size="14.00">4: j=0</text>
</g>
<!-- N3&#45;&gt;N4 -->
<g id="edge3" class="edge">
<title>N3&#45;&gt;N4</title>
<path fill="none" stroke="black" d="M508.4,-661.25C503.06,-655.95 497.63,-649.83 493.5,-643.5 488.8,-636.29 484.94,-627.81 481.9,-619.83"/>
<polygon fill="black" stroke="black" points="485.25,-618.8 478.66,-610.51 478.64,-621.1 485.25,-618.8"/>
<text xml:space="preserve" text-anchor="middle" x="504" y="-630.2" font-family="Times New Roman,serif" font-size="14.00">true</text>
</g>
<!-- N16 -->
<g id="node16" class="node">
<title>N16</title>
<path fill="none" stroke="black" d="M638.12,-609C638.12,-609 568.88,-609 568.88,-609 562.88,-609 556.88,-603 556.88,-597 556.88,-597 556.88,-585 556.88,-585 556.88,-579 562.88,-573 568.88,-573 568.88,-573 638.12,-573 638.12,-573 644.12,-573 650.12,-579 650.12,-585 650.12,-585 650.12,-597 650.12,-597 650.12,-603 644.12,-609 638.12,-609"/>
<text xml:space="preserve" text-anchor="middle" x="603.5" y="-585.58" font-family="Helvetica,sans-Serif" font-size="14.00">16: return &#45;1;</text>
</g>
<!-- N3&#45;&gt;N16 -->
<g id="edge4" class="edge">
<title>N3&#45;&gt;N16</title>
<path fill="none" stroke="black" d="M543.32,-661.41C554.14,-648.93 568.99,-631.8 581.23,-617.68"/>
<polygon fill="black" stroke="black" points="583.56,-620.34 587.46,-610.49 578.27,-615.76 583.56,-620.34"/>
<text xml:space="preserve" text-anchor="middle" x="585.47" y="-630.2" font-family="Times New Roman,serif" font-size="14.00">false</text>
</g>
<!-- N5 -->
<g id="node5" class="node">
<title>N5</title>
<path fill="none" stroke="black" d="M479.5,-536C479.5,-536 449.5,-536 449.5,-536 443.5,-536 437.5,-530 437.5,-524 437.5,-524 437.5,-512 437.5,-512 437.5,-506 443.5,-500 449.5,-500 449.5,-500 479.5,-500 479.5,-500 485.5,-500 491.5,-506 491.5,-512 491.5,-512 491.5,-524 491.5,-524 491.5,-530 485.5,-536 479.5,-536"/>
<text xml:space="preserve" text-anchor="middle" x="464.5" y="-512.58" font-family="Helvetica,sans-Serif" font-size="14.00">5: j&lt;5</text>
</g>
<!-- N4&#45;&gt;N5 -->
<g id="edge5" class="edge">
<title>N4&#45;&gt;N5</title>
<path fill="none" stroke="black" d="M471.32,-572.81C470.35,-565.14 469.18,-555.89 468.08,-547.24"/>
<polygon fill="black" stroke="black" points="471.58,-547.01 466.85,-537.53 464.63,-547.89 471.58,-547.01"/>
</g>
<!-- N6 -->
<g id="node6" class="node">
<title>N6</title>
<path fill="none" stroke="black" d="M414.5,-447.5C414.5,-447.5 384.5,-447.5 384.5,-447.5 378.5,-447.5 372.5,-441.5 372.5,-435.5 372.5,-435.5 372.5,-423.5 372.5,-423.5 372.5,-417.5 378.5,-411.5 384.5,-411.5 384.5,-411.5 414.5,-411.5 414.5,-411.5 420.5,-411.5 426.5,-417.5 426.5,-423.5 426.5,-423.5 426.5,-435.5 426.5,-435.5 426.5,-441.5 420.5,-447.5 414.5,-447.5"/>
<text xml:space="preserve" text-anchor="middle" x="399.5" y="-424.07" font-family="Helvetica,sans-Serif" font-size="14.00">6: k=0</text>
</g>
<!-- N5&#45;&gt;N6 -->
<g id="edge6" class="edge">
<title>N5&#45;&gt;N6</title>
<path fill="none" stroke="black" d="M437.58,-499.86C431.02,-494.73 424.47,-488.67 419.5,-482 414.36,-475.1 410.37,-466.71 407.35,-458.72"/>
<polygon fill="black" stroke="black" points="410.69,-457.69 404.19,-449.33 404.06,-459.92 410.69,-457.69"/>
<text xml:space="preserve" text-anchor="middle" x="430" y="-468.7" font-family="Times New Roman,serif" font-size="14.00">true</text>
</g>
<!-- N15 -->
<g id="node15" class="node">
<title>N15</title>
<path fill="none" stroke="black" d="M537.5,-447.5C537.5,-447.5 503.5,-447.5 503.5,-447.5 497.5,-447.5 491.5,-441.5 491.5,-435.5 491.5,-435.5 491.5,-423.5 491.5,-423.5 491.5,-417.5 497.5,-411.5 503.5,-411.5 503.5,-411.5 537.5,-411.5 537.5,-411.5 543.5,-411.5 549.5,-417.5 549.5,-423.5 549.5,-423.5 549.5,-435.5 549.5,-435.5 549.5,-441.5 543.5,-447.5 537.5,-447.5"/>
<text xml:space="preserve" text-anchor="middle" x="520.5" y="-424.07" font-family="Helvetica,sans-Serif" font-size="14.00">15: i++</text>
</g>
<!-- N5&#45;&gt;N15 -->
<g id="edge7" class="edge">
<title>N5&#45;&gt;N15</title>
<path fill="none" stroke="black" d="M471.27,-499.63C475.65,-489.32 481.86,-476.21 489,-465.5 491.04,-462.44 493.34,-459.37 495.74,-456.4"/>
<polygon fill="black" stroke="black" points="498.24,-458.86 502.11,-448.99 492.93,-454.29 498.24,-458.86"/>
<text xml:space="preserve" text-anchor="middle" x="501.75" y="-468.7" font-family="Times New Roman,serif" font-size="14.00">false</text>
</g>
<!-- N7 -->
<g id="node7" class="node">
<title>N7</title>
<path fill="none" stroke="black" d="M405.5,-374.5C405.5,-374.5 375.5,-374.5 375.5,-374.5 369.5,-374.5 363.5,-368.5 363.5,-362.5 363.5,-362.5 363.5,-350.5 363.5,-350.5 363.5,-344.5 369.5,-338.5 375.5,-338.5 375.5,-338.5 405.5,-338.5 405.5,-338.5 411.5,-338.5 417.5,-344.5 417.5,-350.5 417.5,-350.5 417.5,-362.5 417.5,-362.5 417.5,-368.5 411.5,-374.5 405.5,-374.5"/>
<text xml:space="preserve" text-anchor="middle" x="390.5" y="-351.07" font-family="Helvetica,sans-Serif" font-size="14.00">7: k&lt;5</text>
</g>
<!-- N6&#45;&gt;N7 -->
<g id="edge8" class="edge">
<title>N6&#45;&gt;N7</title>
<path fill="none" stroke="black" d="M397.32,-411.31C396.35,-403.64 395.18,-394.39 394.08,-385.74"/>
<polygon fill="black" stroke="black" points="397.58,-385.51 392.85,-376.03 390.63,-386.39 397.58,-385.51"/>
</g>
<!-- N8 -->
<g id="node8" class="node">
<title>N8</title>
<path fill="none" stroke="black" d="M335.5,-286C335.5,-286 305.5,-286 305.5,-286 299.5,-286 293.5,-280 293.5,-274 293.5,-274 293.5,-262 293.5,-262 293.5,-256 299.5,-250 305.5,-250 305.5,-250 335.5,-250 335.5,-250 341.5,-250 347.5,-256 347.5,-262 347.5,-262 347.5,-274 347.5,-274 347.5,-280 341.5,-286 335.5,-286"/>
<text xml:space="preserve" text-anchor="middle" x="320.5" y="-262.57" font-family="Helvetica,sans-Serif" font-size="14.00">8: l=0</text>
</g>
<!-- N7&#45;&gt;N8 -->
<g id="edge9" class="edge">
<title>N7&#45;&gt;N8</title>
<path fill="none" stroke="black" d="M363.94,-338.08C357.38,-332.95 350.73,-326.96 345.5,-320.5 339.82,-313.49 335.03,-304.98 331.21,-296.91"/>
<polygon fill="black" stroke="black" points="334.42,-295.52 327.21,-287.76 328,-298.32 334.42,-295.52"/>
<text xml:space="preserve" text-anchor="middle" x="356" y="-307.2" font-family="Times New Roman,serif" font-size="14.00">true</text>
</g>
<!-- N14 -->
<g id="node14" class="node">
<title>N14</title>
<path fill="none" stroke="black" d="M463.5,-286C463.5,-286 429.5,-286 429.5,-286 423.5,-286 417.5,-280 417.5,-274 417.5,-274 417.5,-262 417.5,-262 417.5,-256 423.5,-250 429.5,-250 429.5,-250 463.5,-250 463.5,-250 469.5,-250 475.5,-256 475.5,-262 475.5,-262 475.5,-274 475.5,-274 475.5,-280 469.5,-286 463.5,-286"/>
<text xml:space="preserve" text-anchor="middle" x="446.5" y="-262.57" font-family="Helvetica,sans-Serif" font-size="14.00">14: j++</text>
</g>
<!-- N7&#45;&gt;N14 -->
<g id="edge10" class="edge">
<title>N7&#45;&gt;N14</title>
<path fill="none" stroke="black" d="M397.27,-338.13C401.65,-327.82 407.86,-314.71 415,-304 417.04,-300.94 419.34,-297.87 421.74,-294.9"/>
<polygon fill="black" stroke="black" points="424.24,-297.36 428.11,-287.49 418.93,-292.79 424.24,-297.36"/>
<text xml:space="preserve" text-anchor="middle" x="427.75" y="-307.2" font-family="Times New Roman,serif" font-size="14.00">false</text>
</g>
<!-- N9 -->
<g id="node9" class="node">
<title>N9</title>
<path fill="none" stroke="black" d="M323.5,-213C323.5,-213 293.5,-213 293.5,-213 287.5,-213 281.5,-207 281.5,-201 281.5,-201 281.5,-189 281.5,-189 281.5,-183 287.5,-177 293.5,-177 293.5,-177 323.5,-177 323.5,-177 329.5,-177 335.5,-183 335.5,-189 335.5,-189 335.5,-201 335.5,-201 335.5,-207 329.5,-213 323.5,-213"/>
<text xml:space="preserve" text-anchor="middle" x="308.5" y="-189.57" font-family="Helvetica,sans-Serif" font-size="14.00">9: l&lt;5</text>
</g>
<!-- N8&#45;&gt;N9 -->
<g id="edge11" class="edge">
<title>N8&#45;&gt;N9</title>
<path fill="none" stroke="black" d="M317.6,-249.81C316.3,-242.14 314.74,-232.89 313.27,-224.24"/>
<polygon fill="black" stroke="black" points="316.75,-223.8 311.63,-214.52 309.85,-224.96 316.75,-223.8"/>
</g>
<!-- N10 -->
<g id="node10" class="node">
<title>N10</title>
<path fill="none" stroke="black" d="M266.62,-124.5C266.62,-124.5 128.38,-124.5 128.38,-124.5 122.38,-124.5 116.38,-118.5 116.38,-112.5 116.38,-112.5 116.38,-100.5 116.38,-100.5 116.38,-94.5 122.38,-88.5 128.38,-88.5 128.38,-88.5 266.62,-88.5 266.62,-88.5 272.62,-88.5 278.62,-94.5 278.62,-100.5 278.62,-100.5 278.62,-112.5 278.62,-112.5 278.62,-118.5 272.62,-124.5 266.62,-124.5"/>
<text xml:space="preserve" text-anchor="middle" x="197.5" y="-101.08" font-family="Helvetica,sans-Serif" font-size="14.00">10: if (keys[i][j][k][l] == x)</text>
</g>
<!-- N9&#45;&gt;N10 -->
<g id="edge12" class="edge">
<title>N9&#45;&gt;N10</title>
<path fill="none" stroke="black" d="M286.3,-176.7C269.74,-163.8 246.9,-146 228.53,-131.68"/>
<polygon fill="black" stroke="black" points="230.89,-129.08 220.85,-125.7 226.59,-134.6 230.89,-129.08"/>
<text xml:space="preserve" text-anchor="middle" x="273.44" y="-145.7" font-family="Times New Roman,serif" font-size="14.00">true</text>
</g>
<!-- N13 -->
<g id="node13" class="node">
<title>N13</title>
<path fill="none" stroke="black" d="M392.38,-124.5C392.38,-124.5 354.62,-124.5 354.62,-124.5 348.62,-124.5 342.62,-118.5 342.62,-112.5 342.62,-112.5 342.62,-100.5 342.62,-100.5 342.62,-94.5 348.62,-88.5 354.62,-88.5 354.62,-88.5 392.38,-88.5 392.38,-88.5 398.38,-88.5 404.38,-94.5 404.38,-100.5 404.38,-100.5 404.38,-112.5 404.38,-112.5 404.38,-118.5 398.38,-124.5 392.38,-124.5"/>
<text xml:space="preserve" text-anchor="middle" x="373.5" y="-101.08" font-family="Helvetica,sans-Serif" font-size="14.00">13: k++</text>
</g>
<!-- N9&#45;&gt;N13 -->
<g id="edge13" class="edge">
<title>N9&#45;&gt;N13</title>
<path fill="none" stroke="black" d="M318.28,-176.77C324.37,-166.5 332.62,-153.39 341,-142.5 343.4,-139.38 346.02,-136.22 348.71,-133.13"/>
<polygon fill="black" stroke="black" points="351.17,-135.63 355.29,-125.87 345.98,-130.93 351.17,-135.63"/>
<text xml:space="preserve" text-anchor="middle" x="353.75" y="-145.7" font-family="Times New Roman,serif" font-size="14.00">false</text>
</g>
<!-- N11 -->
<g id="node11" class="node">
<title>N11</title>
<path fill="none" stroke="black" d="M247,-36C247,-36 12,-36 12,-36 6,-36 0,-30 0,-24 0,-24 0,-12 0,-12 0,-6 6,0 12,0 12,0 247,0 247,0 253,0 259,-6 259,-12 259,-12 259,-24 259,-24 259,-30 253,-36 247,-36"/>
<text xml:space="preserve" text-anchor="middle" x="129.5" y="-12.57" font-family="Helvetica,sans-Serif" font-size="14.00">11: return answer[i][j][k][l] + keys[i][j][k][l];</text>
</g>
<!-- N10&#45;&gt;N11 -->
<g id="edge14" class="edge">
<title>N10&#45;&gt;N11</title>
<path fill="none" stroke="black" d="M184.07,-88.41C174.35,-76.05 161.05,-59.13 150.01,-45.08"/>
<polygon fill="black" stroke="black" points="153.01,-43.24 144.07,-37.54 147.5,-47.56 153.01,-43.24"/>
<text xml:space="preserve" text-anchor="middle" x="180.09" y="-57.2" font-family="Times New Roman,serif" font-size="14.00">true</text>
</g>
<!-- N12 -->
<g id="node12" class="node">
<title>N12</title>
<path fill="none" stroke="black" d="M323.5,-36C323.5,-36 289.5,-36 289.5,-36 283.5,-36 277.5,-30 277.5,-24 277.5,-24 277.5,-12 277.5,-12 277.5,-6 283.5,0 289.5,0 289.5,0 323.5,0 323.5,0 329.5,0 335.5,-6 335.5,-12 335.5,-12 335.5,-24 335.5,-24 335.5,-30 329.5,-36 323.5,-36"/>
<text xml:space="preserve" text-anchor="middle" x="306.5" y="-12.57" font-family="Helvetica,sans-Serif" font-size="14.00">12: l++</text>
</g>
<!-- N10&#45;&gt;N12 -->
<g id="edge15" class="edge">
<title>N10&#45;&gt;N12</title>
<path fill="none" stroke="black" d="M219.3,-88.2C235.48,-75.36 257.78,-57.66 275.78,-43.38"/>
<polygon fill="black" stroke="black" points="277.9,-46.17 283.56,-37.21 273.55,-40.68 277.9,-46.17"/>
<text xml:space="preserve" text-anchor="middle" x="274.51" y="-57.2" font-family="Times New Roman,serif" font-size="14.00">false</text>
</g>
<!-- N12&#45;&gt;N9 -->
<g id="edge16" class="edge">
<title>N12&#45;&gt;N9</title>
<path fill="none" stroke="black" d="M306.7,-36.35C307.04,-66.44 307.75,-128.58 308.17,-165.22"/>
<polygon fill="black" stroke="black" points="304.67,-165.11 308.28,-175.07 311.67,-165.03 304.67,-165.11"/>
</g>
<!-- N13&#45;&gt;N7 -->
<g id="edge17" class="edge">
<title>N13&#45;&gt;N7</title>
<path fill="none" stroke="black" d="M374.69,-124.92C377.58,-167.05 384.97,-274.82 388.53,-326.72"/>
<polygon fill="black" stroke="black" points="385.03,-326.81 389.2,-336.55 392.01,-326.34 385.03,-326.81"/>
</g>
<!-- N14&#45;&gt;N5 -->
<g id="edge18" class="edge">
<title>N14&#45;&gt;N5</title>
<path fill="none" stroke="black" d="M447.76,-286.42C450.82,-328.55 458.64,-436.32 462.41,-488.22"/>
<polygon fill="black" stroke="black" points="458.91,-488.33 463.12,-498.05 465.89,-487.82 458.91,-488.33"/>
</g>
<!-- N15&#45;&gt;N3 -->
<g id="edge19" class="edge">
<title>N15&#45;&gt;N3</title>
<path fill="none" stroke="black" d="M521.06,-447.92C522.42,-490.05 525.9,-597.82 527.57,-649.72"/>
<polygon fill="black" stroke="black" points="524.07,-649.67 527.89,-659.55 531.06,-649.44 524.07,-649.67"/>
</g>
</g>
</svg>
