<?xml version="1.0" encoding="UTF-8" standalone="no"?>
<!DOCTYPE svg PUBLIC "-//W3C//DTD SVG 1.1//EN"
 "http://www.w3.org/Graphics/SVG/1.1/DTD/svg11.dtd">
<!-- Generated by graphviz version 13.1.2 (20250808.2320)
 -->
<!-- Title: foo_DFG Pages: 1 -->
<svg width="642pt" height="260pt"
 viewBox="0.00 0.00 642.00 260.00" xmlns="http://www.w3.org/2000/svg" xmlns:xlink="http://www.w3.org/1999/xlink">
<g id="graph0" class="graph" transform="scale(1 1) rotate(0) translate(4 256)">
<title>foo_DFG</title>
<polygon fill="white" stroke="none" points="-4,4 -4,-256 638,-256 638,4 -4,4"/>
<!-- i_init -->
<g id="node1" class="node">
<title>i_init</title>
<ellipse fill="lightblue" stroke="black" cx="239" cy="-234" rx="27" ry="18"/>
<text xml:space="preserve" text-anchor="middle" x="239" y="-228.95" font-family="Times New Roman,serif" font-size="14.00">i=0</text>
</g>
<!-- cmp_i -->
<g id="node10" class="node">
<title>cmp_i</title>
<polygon fill="none" stroke="black" points="54,-180 0,-180 0,-144 54,-144 54,-180"/>
<text xml:space="preserve" text-anchor="middle" x="27" y="-156.95" font-family="Times New Roman,serif" font-size="14.00">i&lt;5</text>
</g>
<!-- i_init&#45;&gt;cmp_i -->
<g id="edge1" class="edge">
<title>i_init&#45;&gt;cmp_i</title>
<path fill="none" stroke="black" d="M213.83,-226.69C181.27,-218.25 122.7,-202.16 64.76,-180.4"/>
<polygon fill="black" stroke="black" points="66.34,-177.26 55.75,-176.96 63.84,-183.8 66.34,-177.26"/>
</g>
<!-- array_index -->
<g id="node14" class="node">
<title>array_index</title>
<polygon fill="none" stroke="black" points="361.38,-180 266.62,-180 266.62,-144 361.38,-144 361.38,-180"/>
<text xml:space="preserve" text-anchor="middle" x="314" y="-156.95" font-family="Times New Roman,serif" font-size="14.00">keys[i][j][k][l]</text>
</g>
<!-- i_init&#45;&gt;array_index -->
<g id="edge2" class="edge">
<title>i_init&#45;&gt;array_index</title>
<path fill="none" stroke="black" d="M254.18,-218.83C263.66,-209.98 276.14,-198.34 287.24,-187.98"/>
<polygon fill="black" stroke="black" points="289.36,-190.78 294.28,-181.4 284.59,-185.67 289.36,-190.78"/>
</g>
<!-- return_val -->
<g id="node16" class="node">
<title>return_val</title>
<polygon fill="none" stroke="black" points="490.38,-108 287.62,-108 287.62,-72 490.38,-72 490.38,-108"/>
<text xml:space="preserve" text-anchor="middle" x="389" y="-84.95" font-family="Times New Roman,serif" font-size="14.00">answer[i][j][k][l] + keys[i][j][k][l]</text>
</g>
<!-- i_init&#45;&gt;return_val -->
<g id="edge3" class="edge">
<title>i_init&#45;&gt;return_val</title>
<path fill="none" stroke="black" d="M238.14,-215.54C238.12,-195.93 241.04,-164.21 258,-144 269.36,-130.46 284.71,-120.35 300.89,-112.8"/>
<polygon fill="black" stroke="black" points="301.86,-116.19 309.66,-109.02 299.09,-109.76 301.86,-116.19"/>
</g>
<!-- j_init -->
<g id="node2" class="node">
<title>j_init</title>
<ellipse fill="lightblue" stroke="black" cx="314" cy="-234" rx="27" ry="18"/>
<text xml:space="preserve" text-anchor="middle" x="314" y="-228.95" font-family="Times New Roman,serif" font-size="14.00">j=0</text>
</g>
<!-- cmp_j -->
<g id="node11" class="node">
<title>cmp_j</title>
<polygon fill="none" stroke="black" points="126,-180 72,-180 72,-144 126,-144 126,-180"/>
<text xml:space="preserve" text-anchor="middle" x="99" y="-156.95" font-family="Times New Roman,serif" font-size="14.00">j&lt;5</text>
</g>
<!-- j_init&#45;&gt;cmp_j -->
<g id="edge6" class="edge">
<title>j_init&#45;&gt;cmp_j</title>
<path fill="none" stroke="black" d="M292.34,-222.94C286.75,-220.52 280.7,-218.04 275,-216 219.76,-196.23 203.96,-197.62 148,-180 144.48,-178.89 140.83,-177.7 137.18,-176.49"/>
<polygon fill="black" stroke="black" points="138.41,-173.2 127.81,-173.3 136.15,-179.83 138.41,-173.2"/>
</g>
<!-- j_init&#45;&gt;array_index -->
<g id="edge7" class="edge">
<title>j_init&#45;&gt;array_index</title>
<path fill="none" stroke="black" d="M314,-215.7C314,-208.41 314,-199.73 314,-191.54"/>
<polygon fill="black" stroke="black" points="317.5,-191.62 314,-181.62 310.5,-191.62 317.5,-191.62"/>
</g>
<!-- j_init&#45;&gt;return_val -->
<g id="edge8" class="edge">
<title>j_init&#45;&gt;return_val</title>
<path fill="none" stroke="black" d="M332.42,-220.28C344.94,-210.66 360.82,-196.34 370,-180 380.36,-161.55 385.08,-138.06 387.22,-119.84"/>
<polygon fill="black" stroke="black" points="390.7,-120.26 388.17,-109.97 383.73,-119.59 390.7,-120.26"/>
</g>
<!-- k_init -->
<g id="node3" class="node">
<title>k_init</title>
<ellipse fill="lightblue" stroke="black" cx="414" cy="-234" rx="27" ry="18"/>
<text xml:space="preserve" text-anchor="middle" x="414" y="-228.95" font-family="Times New Roman,serif" font-size="14.00">k=0</text>
</g>
<!-- cmp_k -->
<g id="node12" class="node">
<title>cmp_k</title>
<polygon fill="none" stroke="black" points="562,-180 508,-180 508,-144 562,-144 562,-180"/>
<text xml:space="preserve" text-anchor="middle" x="535" y="-156.95" font-family="Times New Roman,serif" font-size="14.00">k&lt;5</text>
</g>
<!-- k_init&#45;&gt;cmp_k -->
<g id="edge11" class="edge">
<title>k_init&#45;&gt;cmp_k</title>
<path fill="none" stroke="black" d="M433.98,-221.44C451.29,-211.43 476.78,-196.68 497.82,-184.51"/>
<polygon fill="black" stroke="black" points="499.53,-187.56 506.43,-179.53 496.02,-181.51 499.53,-187.56"/>
</g>
<!-- k_init&#45;&gt;array_index -->
<g id="edge12" class="edge">
<title>k_init&#45;&gt;array_index</title>
<path fill="none" stroke="black" d="M396.12,-220.49C382.78,-211.15 364.16,-198.11 348.02,-186.81"/>
<polygon fill="black" stroke="black" points="350.3,-184.14 340.1,-181.27 346.28,-189.87 350.3,-184.14"/>
</g>
<!-- k_init&#45;&gt;return_val -->
<g id="edge13" class="edge">
<title>k_init&#45;&gt;return_val</title>
<path fill="none" stroke="black" d="M412.57,-215.83C410.91,-197.83 407.78,-168.76 403,-144 401.43,-135.84 399.3,-127.08 397.17,-119.07"/>
<polygon fill="black" stroke="black" points="400.57,-118.22 394.53,-109.51 393.82,-120.08 400.57,-118.22"/>
</g>
<!-- l_init -->
<g id="node4" class="node">
<title>l_init</title>
<ellipse fill="lightblue" stroke="black" cx="486" cy="-234" rx="27" ry="18"/>
<text xml:space="preserve" text-anchor="middle" x="486" y="-228.95" font-family="Times New Roman,serif" font-size="14.00">l=0</text>
</g>
<!-- cmp_l -->
<g id="node13" class="node">
<title>cmp_l</title>
<polygon fill="none" stroke="black" points="634,-180 580,-180 580,-144 634,-144 634,-180"/>
<text xml:space="preserve" text-anchor="middle" x="607" y="-156.95" font-family="Times New Roman,serif" font-size="14.00">l&lt;5</text>
</g>
<!-- l_init&#45;&gt;cmp_l -->
<g id="edge16" class="edge">
<title>l_init&#45;&gt;cmp_l</title>
<path fill="none" stroke="black" d="M505.98,-221.44C523.29,-211.43 548.78,-196.68 569.82,-184.51"/>
<polygon fill="black" stroke="black" points="571.53,-187.56 578.43,-179.53 568.02,-181.51 571.53,-187.56"/>
</g>
<!-- l_init&#45;&gt;array_index -->
<g id="edge17" class="edge">
<title>l_init&#45;&gt;array_index</title>
<path fill="none" stroke="black" d="M464.79,-222.69C459.96,-220.42 454.83,-218.08 450,-216 424.55,-205.05 396.04,-193.79 371.72,-184.47"/>
<polygon fill="black" stroke="black" points="373.22,-181.3 362.63,-181.01 370.73,-187.84 373.22,-181.3"/>
</g>
<!-- l_init&#45;&gt;return_val -->
<g id="edge18" class="edge">
<title>l_init&#45;&gt;return_val</title>
<path fill="none" stroke="black" d="M475.25,-217.26C458.76,-193.13 427.05,-146.7 407.01,-117.37"/>
<polygon fill="black" stroke="black" points="410.09,-115.67 401.56,-109.38 404.31,-119.61 410.09,-115.67"/>
</g>
<!-- x_in -->
<g id="node5" class="node">
<title>x_in</title>
<ellipse fill="lightblue" stroke="black" cx="184" cy="-162" rx="27" ry="18"/>
<text xml:space="preserve" text-anchor="middle" x="184" y="-156.95" font-family="Times New Roman,serif" font-size="14.00">x</text>
</g>
<!-- condition -->
<g id="node15" class="node">
<title>condition</title>
<polygon fill="none" stroke="black" points="269.75,-108 144.25,-108 144.25,-72 269.75,-72 269.75,-108"/>
<text xml:space="preserve" text-anchor="middle" x="207" y="-84.95" font-family="Times New Roman,serif" font-size="14.00">keys[i][j][k][l] == x</text>
</g>
<!-- x_in&#45;&gt;condition -->
<g id="edge21" class="edge">
<title>x_in&#45;&gt;condition</title>
<path fill="none" stroke="black" d="M189.57,-144.05C192.05,-136.52 195.03,-127.44 197.82,-118.94"/>
<polygon fill="black" stroke="black" points="201.05,-120.31 200.85,-109.71 194.4,-118.12 201.05,-120.31"/>
</g>
<!-- add_i -->
<g id="node6" class="node">
<title>add_i</title>
<polygon fill="none" stroke="black" points="54,-108 0,-108 0,-72 54,-72 54,-108"/>
<text xml:space="preserve" text-anchor="middle" x="27" y="-84.95" font-family="Times New Roman,serif" font-size="14.00">i++</text>
</g>
<!-- add_i&#45;&gt;cmp_i -->
<g id="edge4" class="edge">
<title>add_i&#45;&gt;cmp_i</title>
<path fill="none" stroke="black" d="M32.9,-108.1C33.66,-115.37 33.91,-124.04 33.65,-132.24"/>
<polygon fill="black" stroke="black" points="30.16,-131.98 33.01,-142.19 37.15,-132.43 30.16,-131.98"/>
</g>
<!-- add_j -->
<g id="node7" class="node">
<title>add_j</title>
<polygon fill="none" stroke="black" points="126,-108 72,-108 72,-72 126,-72 126,-108"/>
<text xml:space="preserve" text-anchor="middle" x="99" y="-84.95" font-family="Times New Roman,serif" font-size="14.00">j++</text>
</g>
<!-- add_j&#45;&gt;cmp_j -->
<g id="edge9" class="edge">
<title>add_j&#45;&gt;cmp_j</title>
<path fill="none" stroke="black" d="M104.9,-108.1C105.66,-115.37 105.91,-124.04 105.65,-132.24"/>
<polygon fill="black" stroke="black" points="102.16,-131.98 105.01,-142.19 109.15,-132.43 102.16,-131.98"/>
</g>
<!-- add_k -->
<g id="node8" class="node">
<title>add_k</title>
<polygon fill="none" stroke="black" points="562,-108 508,-108 508,-72 562,-72 562,-108"/>
<text xml:space="preserve" text-anchor="middle" x="535" y="-84.95" font-family="Times New Roman,serif" font-size="14.00">k++</text>
</g>
<!-- add_k&#45;&gt;cmp_k -->
<g id="edge14" class="edge">
<title>add_k&#45;&gt;cmp_k</title>
<path fill="none" stroke="black" d="M540.9,-108.1C541.66,-115.37 541.91,-124.04 541.65,-132.24"/>
<polygon fill="black" stroke="black" points="538.16,-131.98 541.01,-142.19 545.15,-132.43 538.16,-131.98"/>
</g>
<!-- add_l -->
<g id="node9" class="node">
<title>add_l</title>
<polygon fill="none" stroke="black" points="634,-108 580,-108 580,-72 634,-72 634,-108"/>
<text xml:space="preserve" text-anchor="middle" x="607" y="-84.95" font-family="Times New Roman,serif" font-size="14.00">l++</text>
</g>
<!-- add_l&#45;&gt;cmp_l -->
<g id="edge19" class="edge">
<title>add_l&#45;&gt;cmp_l</title>
<path fill="none" stroke="black" d="M612.9,-108.1C613.66,-115.37 613.91,-124.04 613.65,-132.24"/>
<polygon fill="black" stroke="black" points="610.16,-131.98 613.01,-142.19 617.15,-132.43 610.16,-131.98"/>
</g>
<!-- cmp_i&#45;&gt;add_i -->
<g id="edge5" class="edge">
<title>cmp_i&#45;&gt;add_i</title>
<path fill="none" stroke="black" d="M21.08,-143.7C20.33,-136.41 20.09,-127.73 20.35,-119.54"/>
<polygon fill="black" stroke="black" points="23.84,-119.82 21.01,-109.61 16.86,-119.36 23.84,-119.82"/>
</g>
<!-- cmp_j&#45;&gt;add_j -->
<g id="edge10" class="edge">
<title>cmp_j&#45;&gt;add_j</title>
<path fill="none" stroke="black" d="M93.08,-143.7C92.33,-136.41 92.09,-127.73 92.35,-119.54"/>
<polygon fill="black" stroke="black" points="95.84,-119.82 93.01,-109.61 88.86,-119.36 95.84,-119.82"/>
</g>
<!-- cmp_k&#45;&gt;add_k -->
<g id="edge15" class="edge">
<title>cmp_k&#45;&gt;add_k</title>
<path fill="none" stroke="black" d="M529.08,-143.7C528.33,-136.41 528.09,-127.73 528.35,-119.54"/>
<polygon fill="black" stroke="black" points="531.84,-119.82 529.01,-109.61 524.86,-119.36 531.84,-119.82"/>
</g>
<!-- cmp_l&#45;&gt;add_l -->
<g id="edge20" class="edge">
<title>cmp_l&#45;&gt;add_l</title>
<path fill="none" stroke="black" d="M601.08,-143.7C600.33,-136.41 600.09,-127.73 600.35,-119.54"/>
<polygon fill="black" stroke="black" points="603.84,-119.82 601.01,-109.61 596.86,-119.36 603.84,-119.82"/>
</g>
<!-- array_index&#45;&gt;condition -->
<g id="edge22" class="edge">
<title>array_index&#45;&gt;condition</title>
<path fill="none" stroke="black" d="M287.28,-143.52C273.77,-134.68 257.19,-123.84 242.62,-114.3"/>
<polygon fill="black" stroke="black" points="244.94,-111.63 234.65,-109.09 241.1,-117.49 244.94,-111.63"/>
</g>
<!-- array_index&#45;&gt;return_val -->
<g id="edge23" class="edge">
<title>array_index&#45;&gt;return_val</title>
<path fill="none" stroke="black" d="M332.54,-143.7C341.46,-135.37 352.33,-125.22 362.14,-116.07"/>
<polygon fill="black" stroke="black" points="364.39,-118.76 369.31,-109.38 359.61,-113.64 364.39,-118.76"/>
</g>
<!-- return_stmt -->
<g id="node17" class="node">
<title>return_stmt</title>
<ellipse fill="lightgreen" stroke="black" cx="298" cy="-18" rx="32.93" ry="18"/>
<text xml:space="preserve" text-anchor="middle" x="298" y="-12.95" font-family="Times New Roman,serif" font-size="14.00">return</text>
</g>
<!-- condition&#45;&gt;return_stmt -->
<g id="edge24" class="edge">
<title>condition&#45;&gt;return_stmt</title>
<path fill="none" stroke="black" d="M229.49,-71.7C241.86,-62.18 257.31,-50.3 270.4,-40.23"/>
<polygon fill="black" stroke="black" points="272.45,-43.07 278.24,-34.2 268.18,-37.52 272.45,-43.07"/>
</g>
<!-- return_val&#45;&gt;return_stmt -->
<g id="edge25" class="edge">
<title>return_val&#45;&gt;return_stmt</title>
<path fill="none" stroke="black" d="M366.51,-71.7C354.14,-62.18 338.69,-50.3 325.6,-40.23"/>
<polygon fill="black" stroke="black" points="327.82,-37.52 317.76,-34.2 323.55,-43.07 327.82,-37.52"/>
</g>
</g>
</svg>
