<?xml version="1.0" encoding="UTF-8" standalone="no"?>
<!DOCTYPE svg PUBLIC "-//W3C//DTD SVG 1.1//EN"
 "http://www.w3.org/Graphics/SVG/1.1/DTD/svg11.dtd">
<!-- Generated by graphviz version 13.1.2 (20250808.2320)
 -->
<!-- Title: main_DFG Pages: 1 -->
<svg width="77pt" height="260pt"
 viewBox="0.00 0.00 77.00 260.00" xmlns="http://www.w3.org/2000/svg" xmlns:xlink="http://www.w3.org/1999/xlink">
<g id="graph0" class="graph" transform="scale(1 1) rotate(0) translate(4 256)">
<title>main_DFG</title>
<polygon fill="white" stroke="none" points="-4,4 -4,-256 72.92,-256 72.92,4 -4,4"/>
<!-- constant_400 -->
<g id="node1" class="node">
<title>constant_400</title>
<ellipse fill="lightblue" stroke="black" cx="34.46" cy="-234" rx="27" ry="18"/>
<text xml:space="preserve" text-anchor="middle" x="34.46" y="-228.95" font-family="Times New Roman,serif" font-size="14.00">400</text>
</g>
<!-- call_foo -->
<g id="node2" class="node">
<title>call_foo</title>
<polygon fill="none" stroke="black" points="66.09,-180 2.84,-180 2.84,-144 66.09,-144 66.09,-180"/>
<text xml:space="preserve" text-anchor="middle" x="34.46" y="-156.95" font-family="Times New Roman,serif" font-size="14.00">foo(400)</text>
</g>
<!-- constant_400&#45;&gt;call_foo -->
<g id="edge1" class="edge">
<title>constant_400&#45;&gt;call_foo</title>
<path fill="none" stroke="black" d="M34.46,-215.7C34.46,-208.41 34.46,-199.73 34.46,-191.54"/>
<polygon fill="black" stroke="black" points="37.96,-191.62 34.46,-181.62 30.96,-191.62 37.96,-191.62"/>
</g>
<!-- printf -->
<g id="node3" class="node">
<title>printf</title>
<polygon fill="none" stroke="black" points="61.46,-108 7.46,-108 7.46,-72 61.46,-72 61.46,-108"/>
<text xml:space="preserve" text-anchor="middle" x="34.46" y="-84.95" font-family="Times New Roman,serif" font-size="14.00">printf</text>
</g>
<!-- call_foo&#45;&gt;printf -->
<g id="edge2" class="edge">
<title>call_foo&#45;&gt;printf</title>
<path fill="none" stroke="black" d="M34.46,-143.7C34.46,-136.41 34.46,-127.73 34.46,-119.54"/>
<polygon fill="black" stroke="black" points="37.96,-119.62 34.46,-109.62 30.96,-119.62 37.96,-119.62"/>
</g>
<!-- output -->
<g id="node4" class="node">
<title>output</title>
<ellipse fill="lightgreen" stroke="black" cx="34.46" cy="-18" rx="34.46" ry="18"/>
<text xml:space="preserve" text-anchor="middle" x="34.46" y="-12.95" font-family="Times New Roman,serif" font-size="14.00">output</text>
</g>
<!-- printf&#45;&gt;output -->
<g id="edge3" class="edge">
<title>printf&#45;&gt;output</title>
<path fill="none" stroke="black" d="M34.46,-71.7C34.46,-64.41 34.46,-55.73 34.46,-47.54"/>
<polygon fill="black" stroke="black" points="37.96,-47.62 34.46,-37.62 30.96,-47.62 37.96,-47.62"/>
</g>
</g>
</svg>
