<?xml version="1.0" encoding="UTF-8" standalone="no"?>
<!DOCTYPE svg PUBLIC "-//W3C//DTD SVG 1.1//EN"
 "http://www.w3.org/Graphics/SVG/1.1/DTD/svg11.dtd">
<!-- Generated by graphviz version 13.1.2 (20250808.2320)
 -->
<!-- Title: main_CFG Pages: 1 -->
<svg width="223pt" height="116pt"
 viewBox="0.00 0.00 223.00 116.00" xmlns="http://www.w3.org/2000/svg" xmlns:xlink="http://www.w3.org/1999/xlink">
<g id="graph0" class="graph" transform="scale(1 1) rotate(0) translate(4 112)">
<title>main_CFG</title>
<polygon fill="white" stroke="none" points="-4,4 -4,-112 218.75,-112 218.75,4 -4,4"/>
<!-- N1 -->
<g id="node1" class="node">
<title>N1</title>
<path fill="none" stroke="black" d="M202.75,-108C202.75,-108 12,-108 12,-108 6,-108 0,-102 0,-96 0,-96 0,-84 0,-84 0,-78 6,-72 12,-72 12,-72 202.75,-72 202.75,-72 208.75,-72 214.75,-78 214.75,-84 214.75,-84 214.75,-96 214.75,-96 214.75,-102 208.75,-108 202.75,-108"/>
<text xml:space="preserve" text-anchor="middle" x="107.38" y="-84.58" font-family="Helvetica,sans-Serif" font-size="14.00">1: printf(&quot;result=%d\n&quot;, foo(400));</text>
</g>
<!-- N2 -->
<g id="node2" class="node">
<title>N2</title>
<path fill="none" stroke="black" d="M122.88,-36C122.88,-36 91.88,-36 91.88,-36 85.88,-36 79.88,-30 79.88,-24 79.88,-24 79.88,-12 79.88,-12 79.88,-6 85.88,0 91.88,0 91.88,0 122.88,0 122.88,0 128.88,0 134.88,-6 134.88,-12 134.88,-12 134.88,-24 134.88,-24 134.88,-30 128.88,-36 122.88,-36"/>
<text xml:space="preserve" text-anchor="middle" x="107.38" y="-12.57" font-family="Helvetica,sans-Serif" font-size="14.00">2: End</text>
</g>
<!-- N1&#45;&gt;N2 -->
<g id="edge1" class="edge">
<title>N1&#45;&gt;N2</title>
<path fill="none" stroke="black" d="M107.38,-71.7C107.38,-64.41 107.38,-55.73 107.38,-47.54"/>
<polygon fill="black" stroke="black" points="110.88,-47.62 107.38,-37.62 103.88,-47.62 110.88,-47.62"/>
</g>
</g>
</svg>
