<?xml version="1.0" encoding="UTF-8" standalone="no"?>
<!DOCTYPE svg PUBLIC "-//W3C//DTD SVG 1.1//EN"
 "http://www.w3.org/Graphics/SVG/1.1/DTD/svg11.dtd">
<!-- Generated by graphviz version 13.1.2 (20250808.2320)
 -->
<!-- Title: DFG Pages: 1 -->
<svg width="288pt" height="863pt"
 viewBox="0.00 0.00 288.00 863.00" xmlns="http://www.w3.org/2000/svg" xmlns:xlink="http://www.w3.org/1999/xlink">
<g id="graph0" class="graph" transform="scale(1 1) rotate(0) translate(4 858.5)">
<title>DFG</title>
<polygon fill="white" stroke="none" points="-4,4 -4,-858.5 283.81,-858.5 283.81,4 -4,4"/>
<!-- n_input -->
<g id="node1" class="node">
<title>n_input</title>
<ellipse fill="lightblue" stroke="black" cx="71.81" cy="-690.5" rx="64.15" ry="18"/>
<text xml:space="preserve" text-anchor="middle" x="71.81" y="-685.45" font-family="Times New Roman,serif" font-size="14.00">n (from main)</text>
</g>
<!-- op_cond -->
<g id="node8" class="node">
<title>op_cond</title>
<polygon fill="none" stroke="black" points="110.81,-635.5 56.81,-635.5 56.81,-599.5 110.81,-599.5 110.81,-635.5"/>
<text xml:space="preserve" text-anchor="middle" x="83.81" y="-612.45" font-family="Times New Roman,serif" font-size="14.00">&amp;&amp;</text>
</g>
<!-- n_input&#45;&gt;op_cond -->
<g id="edge1" class="edge">
<title>n_input&#45;&gt;op_cond</title>
<path fill="none" stroke="black" d="M74.71,-672.31C76.01,-664.64 77.57,-655.39 79.03,-646.74"/>
<polygon fill="black" stroke="black" points="82.46,-647.46 80.68,-637.02 75.56,-646.3 82.46,-647.46"/>
</g>
<!-- constant_1 -->
<g id="node2" class="node">
<title>constant_1</title>
<ellipse fill="lightblue" stroke="black" cx="99.81" cy="-310" rx="27" ry="18"/>
<text xml:space="preserve" text-anchor="middle" x="99.81" y="-304.95" font-family="Times New Roman,serif" font-size="14.00">1</text>
</g>
<!-- op_assign_fnew -->
<g id="node5" class="node">
<title>op_assign_fnew</title>
<polygon fill="none" stroke="black" points="126.81,-255 72.81,-255 72.81,-219 126.81,-219 126.81,-255"/>
<text xml:space="preserve" text-anchor="middle" x="99.81" y="-231.95" font-family="Times New Roman,serif" font-size="14.00">=</text>
</g>
<!-- constant_1&#45;&gt;op_assign_fnew -->
<g id="edge2" class="edge">
<title>constant_1&#45;&gt;op_assign_fnew</title>
<path fill="none" stroke="black" d="M99.81,-291.81C99.81,-284.23 99.81,-275.1 99.81,-266.54"/>
<polygon fill="black" stroke="black" points="103.31,-266.54 99.81,-256.54 96.31,-266.54 103.31,-266.54"/>
</g>
<!-- constant_0 -->
<g id="node3" class="node">
<title>constant_0</title>
<ellipse fill="lightblue" stroke="black" cx="252.81" cy="-836.5" rx="27" ry="18"/>
<text xml:space="preserve" text-anchor="middle" x="252.81" y="-831.45" font-family="Times New Roman,serif" font-size="14.00">0</text>
</g>
<!-- op_assign_fold -->
<g id="node6" class="node">
<title>op_assign_fold</title>
<polygon fill="none" stroke="black" points="279.81,-781.5 225.81,-781.5 225.81,-745.5 279.81,-745.5 279.81,-781.5"/>
<text xml:space="preserve" text-anchor="middle" x="252.81" y="-758.45" font-family="Times New Roman,serif" font-size="14.00">=</text>
</g>
<!-- constant_0&#45;&gt;op_assign_fold -->
<g id="edge3" class="edge">
<title>constant_0&#45;&gt;op_assign_fold</title>
<path fill="none" stroke="black" d="M252.81,-818.31C252.81,-810.73 252.81,-801.6 252.81,-793.04"/>
<polygon fill="black" stroke="black" points="256.31,-793.04 252.81,-783.04 249.31,-793.04 256.31,-793.04"/>
</g>
<!-- constant_2 -->
<g id="node4" class="node">
<title>constant_2</title>
<ellipse fill="lightblue" stroke="black" cx="180.81" cy="-836.5" rx="27" ry="18"/>
<text xml:space="preserve" text-anchor="middle" x="180.81" y="-831.45" font-family="Times New Roman,serif" font-size="14.00">2</text>
</g>
<!-- op_assign_i -->
<g id="node7" class="node">
<title>op_assign_i</title>
<polygon fill="none" stroke="black" points="207.81,-781.5 153.81,-781.5 153.81,-745.5 207.81,-745.5 207.81,-781.5"/>
<text xml:space="preserve" text-anchor="middle" x="180.81" y="-758.45" font-family="Times New Roman,serif" font-size="14.00">=</text>
</g>
<!-- constant_2&#45;&gt;op_assign_i -->
<g id="edge4" class="edge">
<title>constant_2&#45;&gt;op_assign_i</title>
<path fill="none" stroke="black" d="M180.81,-818.31C180.81,-810.73 180.81,-801.6 180.81,-793.04"/>
<polygon fill="black" stroke="black" points="184.31,-793.04 180.81,-783.04 177.31,-793.04 184.31,-793.04"/>
</g>
<!-- fnew_out -->
<g id="node13" class="node">
<title>fnew_out</title>
<ellipse fill="lightgreen" stroke="black" cx="126.81" cy="-164" rx="31.39" ry="18"/>
<text xml:space="preserve" text-anchor="middle" x="126.81" y="-158.95" font-family="Times New Roman,serif" font-size="14.00">Fnew</text>
</g>
<!-- op_assign_fnew&#45;&gt;fnew_out -->
<g id="edge8" class="edge">
<title>op_assign_fnew&#45;&gt;fnew_out</title>
<path fill="none" stroke="black" d="M106.34,-218.81C109.33,-210.96 112.94,-201.47 116.29,-192.66"/>
<polygon fill="black" stroke="black" points="119.51,-194.03 119.79,-183.44 112.97,-191.55 119.51,-194.03"/>
</g>
<!-- i_out -->
<g id="node15" class="node">
<title>i_out</title>
<ellipse fill="lightgreen" stroke="black" cx="180.81" cy="-690.5" rx="27" ry="18"/>
<text xml:space="preserve" text-anchor="middle" x="180.81" y="-685.45" font-family="Times New Roman,serif" font-size="14.00">i</text>
</g>
<!-- op_assign_i&#45;&gt;i_out -->
<g id="edge5" class="edge">
<title>op_assign_i&#45;&gt;i_out</title>
<path fill="none" stroke="black" d="M180.81,-745.31C180.81,-737.73 180.81,-728.6 180.81,-720.04"/>
<polygon fill="black" stroke="black" points="184.31,-720.04 180.81,-710.04 177.31,-720.04 184.31,-720.04"/>
</g>
<!-- op_assign_temp -->
<g id="node9" class="node">
<title>op_assign_temp</title>
<polygon fill="none" stroke="black" points="110.81,-547 56.81,-547 56.81,-511 110.81,-511 110.81,-547"/>
<text xml:space="preserve" text-anchor="middle" x="83.81" y="-523.95" font-family="Times New Roman,serif" font-size="14.00">=</text>
</g>
<!-- op_cond&#45;&gt;op_assign_temp -->
<g id="edge7" class="edge">
<title>op_cond&#45;&gt;op_assign_temp</title>
<path fill="none" stroke="black" d="M83.81,-599.41C83.81,-587.76 83.81,-572.05 83.81,-558.52"/>
<polygon fill="black" stroke="black" points="87.31,-558.86 83.81,-548.86 80.31,-558.86 87.31,-558.86"/>
<text xml:space="preserve" text-anchor="middle" x="121.68" y="-568.2" font-family="Times New Roman,serif" font-size="14.00">condition true</text>
</g>
<!-- op_add -->
<g id="node10" class="node">
<title>op_add</title>
<polygon fill="none" stroke="black" points="54.81,-328 0.81,-328 0.81,-292 54.81,-292 54.81,-328"/>
<text xml:space="preserve" text-anchor="middle" x="27.81" y="-304.95" font-family="Times New Roman,serif" font-size="14.00">+</text>
</g>
<!-- op_assign_temp&#45;&gt;op_add -->
<g id="edge10" class="edge">
<title>op_assign_temp&#45;&gt;op_add</title>
<path fill="none" stroke="black" d="M84.47,-510.71C85.05,-480.24 83.7,-415.43 64.81,-365 61.2,-355.36 55.51,-345.78 49.67,-337.43"/>
<polygon fill="black" stroke="black" points="52.53,-335.41 43.76,-329.47 46.91,-339.59 52.53,-335.41"/>
</g>
<!-- op_assign_fold_next -->
<g id="node11" class="node">
<title>op_assign_fold_next</title>
<polygon fill="none" stroke="black" points="55.81,-474 1.81,-474 1.81,-438 55.81,-438 55.81,-474"/>
<text xml:space="preserve" text-anchor="middle" x="28.81" y="-450.95" font-family="Times New Roman,serif" font-size="14.00">=</text>
</g>
<!-- op_assign_temp&#45;&gt;op_assign_fold_next -->
<g id="edge13" class="edge">
<title>op_assign_temp&#45;&gt;op_assign_fold_next</title>
<path fill="none" stroke="black" d="M70.49,-510.81C64.01,-502.44 56.07,-492.2 48.87,-482.9"/>
<polygon fill="black" stroke="black" points="51.82,-480.99 42.93,-475.23 46.28,-485.27 51.82,-480.99"/>
</g>
<!-- op_add&#45;&gt;op_assign_fnew -->
<g id="edge12" class="edge">
<title>op_add&#45;&gt;op_assign_fnew</title>
<path fill="none" stroke="black" d="M45.24,-291.81C53.93,-283.24 64.61,-272.71 74.21,-263.24"/>
<polygon fill="black" stroke="black" points="76.55,-265.85 81.21,-256.34 71.63,-260.87 76.55,-265.85"/>
</g>
<!-- fold_out -->
<g id="node14" class="node">
<title>fold_out</title>
<ellipse fill="lightgreen" stroke="black" cx="27.81" cy="-383" rx="27.81" ry="18"/>
<text xml:space="preserve" text-anchor="middle" x="27.81" y="-377.95" font-family="Times New Roman,serif" font-size="14.00">Fold</text>
</g>
<!-- op_assign_fold_next&#45;&gt;fold_out -->
<g id="edge14" class="edge">
<title>op_assign_fold_next&#45;&gt;fold_out</title>
<path fill="none" stroke="black" d="M28.57,-437.81C28.46,-430.23 28.33,-421.1 28.21,-412.54"/>
<polygon fill="black" stroke="black" points="31.71,-412.49 28.07,-402.54 24.71,-412.59 31.71,-412.49"/>
</g>
<!-- op_assign_ans -->
<g id="node12" class="node">
<title>op_assign_ans</title>
<polygon fill="none" stroke="black" points="153.81,-109 99.81,-109 99.81,-73 153.81,-73 153.81,-109"/>
<text xml:space="preserve" text-anchor="middle" x="126.81" y="-85.95" font-family="Times New Roman,serif" font-size="14.00">=</text>
</g>
<!-- ans_out -->
<g id="node16" class="node">
<title>ans_out</title>
<ellipse fill="lightgreen" stroke="black" cx="126.81" cy="-18" rx="27" ry="18"/>
<text xml:space="preserve" text-anchor="middle" x="126.81" y="-12.95" font-family="Times New Roman,serif" font-size="14.00">ans</text>
</g>
<!-- op_assign_ans&#45;&gt;ans_out -->
<g id="edge16" class="edge">
<title>op_assign_ans&#45;&gt;ans_out</title>
<path fill="none" stroke="black" d="M126.81,-72.81C126.81,-65.23 126.81,-56.1 126.81,-47.54"/>
<polygon fill="black" stroke="black" points="130.31,-47.54 126.81,-37.54 123.31,-47.54 130.31,-47.54"/>
</g>
<!-- fnew_out&#45;&gt;op_assign_temp -->
<g id="edge9" class="edge">
<title>fnew_out&#45;&gt;op_assign_temp</title>
<path fill="none" stroke="black" d="M137.23,-181.21C145.2,-195.16 154.81,-216.12 154.81,-236 154.81,-457 154.81,-457 154.81,-457 154.81,-478.77 137.91,-496.19 120.61,-508.33"/>
<polygon fill="black" stroke="black" points="118.81,-505.33 112.33,-513.7 122.62,-511.2 118.81,-505.33"/>
</g>
<!-- fnew_out&#45;&gt;op_assign_ans -->
<g id="edge15" class="edge">
<title>fnew_out&#45;&gt;op_assign_ans</title>
<path fill="none" stroke="black" d="M126.81,-145.81C126.81,-138.23 126.81,-129.1 126.81,-120.54"/>
<polygon fill="black" stroke="black" points="130.31,-120.54 126.81,-110.54 123.31,-120.54 130.31,-120.54"/>
</g>
<!-- fold_out&#45;&gt;op_add -->
<g id="edge11" class="edge">
<title>fold_out&#45;&gt;op_add</title>
<path fill="none" stroke="black" d="M27.81,-364.81C27.81,-357.23 27.81,-348.1 27.81,-339.54"/>
<polygon fill="black" stroke="black" points="31.31,-339.54 27.81,-329.54 24.31,-339.54 31.31,-339.54"/>
</g>
<!-- i_out&#45;&gt;op_cond -->
<g id="edge6" class="edge">
<title>i_out&#45;&gt;op_cond</title>
<path fill="none" stroke="black" d="M163.02,-676.48C150.15,-667.06 132.39,-654.06 116.95,-642.76"/>
<polygon fill="black" stroke="black" points="119.06,-639.96 108.92,-636.88 114.92,-645.61 119.06,-639.96"/>
</g>
</g>
</svg>
