<?xml version="1.0" encoding="UTF-8" standalone="no"?>
<!DOCTYPE svg PUBLIC "-//W3C//DTD SVG 1.1//EN"
 "http://www.w3.org/Graphics/SVG/1.1/DTD/svg11.dtd">
<!-- Generated by graphviz version 13.1.2 (20250808.2320)
 -->
<!-- Title: javascript Pages: 1 -->
<svg width="319pt" height="513pt"
 viewBox="0.00 0.00 319.00 513.00" xmlns="http://www.w3.org/2000/svg" xmlns:xlink="http://www.w3.org/1999/xlink">
<g id="graph0" class="graph" transform="scale(1 1) rotate(0) translate(4 509)">
<title>javascript</title>
<polygon fill="white" stroke="none" points="-4,4 -4,-509 315.38,-509 315.38,4 -4,4"/>
<!-- start -->
<g id="node1" class="node">
<title>start</title>
<ellipse fill="none" stroke="black" cx="223.88" cy="-487" rx="32.41" ry="18"/>
<text xml:space="preserve" text-anchor="middle" x="223.88" y="-481.95" font-family="Times New Roman,serif" font-size="14.00">Inicio</text>
</g>
<!-- node1 -->
<g id="node3" class="node">
<title>node1</title>
<polygon fill="none" stroke="black" points="311.38,-432 136.38,-432 136.38,-396 311.38,-396 311.38,-432"/>
<text xml:space="preserve" text-anchor="middle" x="223.88" y="-408.95" font-family="Times New Roman,serif" font-size="14.00">n = parseInt(process.argv[2])</text>
<text xml:space="preserve" text-anchor="middle" x="120.62" y="-435.2" font-family="Times New Roman,serif" font-size="14.00">def: n</text>
</g>
<!-- start&#45;&gt;node1 -->
<g id="edge1" class="edge">
<title>start&#45;&gt;node1</title>
<path fill="none" stroke="black" d="M223.88,-468.81C223.88,-461.23 223.88,-452.1 223.88,-443.54"/>
<polygon fill="black" stroke="black" points="227.38,-443.54 223.88,-433.54 220.38,-443.54 227.38,-443.54"/>
</g>
<!-- end -->
<g id="node2" class="node">
<title>end</title>
<ellipse fill="none" stroke="black" cx="135.88" cy="-179.5" rx="27" ry="18"/>
<text xml:space="preserve" text-anchor="middle" x="135.88" y="-174.45" font-family="Times New Roman,serif" font-size="14.00">Fim</text>
</g>
<!-- node2 -->
<g id="node4" class="node">
<title>node2</title>
<polygon fill="none" stroke="black" points="250.88,-359 196.88,-359 196.88,-323 250.88,-323 250.88,-359"/>
<text xml:space="preserve" text-anchor="middle" x="223.88" y="-335.95" font-family="Times New Roman,serif" font-size="14.00">i = 0</text>
<text xml:space="preserve" text-anchor="middle" x="182.62" y="-362.2" font-family="Times New Roman,serif" font-size="14.00">def: i</text>
</g>
<!-- node1&#45;&gt;node2 -->
<g id="edge2" class="edge">
<title>node1&#45;&gt;node2</title>
<path fill="none" stroke="black" d="M223.88,-395.81C223.88,-388.23 223.88,-379.1 223.88,-370.54"/>
<polygon fill="black" stroke="black" points="227.38,-370.54 223.88,-360.54 220.38,-370.54 227.38,-370.54"/>
</g>
<!-- node3 -->
<g id="node5" class="node">
<title>node3</title>
<polygon fill="none" stroke="black" points="250.88,-286 196.88,-286 196.88,-250 250.88,-250 250.88,-286"/>
<text xml:space="preserve" text-anchor="middle" x="223.88" y="-262.95" font-family="Times New Roman,serif" font-size="14.00">i &lt; n</text>
<text xml:space="preserve" text-anchor="middle" x="169.5" y="-305.7" font-family="Times New Roman,serif" font-size="14.00">c&#45;use: i, n</text>
<text xml:space="preserve" text-anchor="middle" x="169.5" y="-289.2" font-family="Times New Roman,serif" font-size="14.00">p&#45;use: i, n</text>
</g>
<!-- node2&#45;&gt;node3 -->
<g id="edge3" class="edge">
<title>node2&#45;&gt;node3</title>
<path fill="none" stroke="black" d="M223.88,-322.81C223.88,-315.23 223.88,-306.1 223.88,-297.54"/>
<polygon fill="black" stroke="black" points="227.38,-297.54 223.88,-287.54 220.38,-297.54 227.38,-297.54"/>
</g>
<!-- node3&#45;&gt;end -->
<g id="edge5" class="edge">
<title>node3&#45;&gt;end</title>
<path fill="none" stroke="black" d="M206.49,-249.91C192.71,-236.37 173.36,-217.34 158.39,-202.64"/>
<polygon fill="black" stroke="black" points="161.26,-200.55 151.68,-196.03 156.35,-205.54 161.26,-200.55"/>
<text xml:space="preserve" text-anchor="middle" x="202.01" y="-218.7" font-family="Times New Roman,serif" font-size="14.00">False</text>
</g>
<!-- node4 -->
<g id="node6" class="node">
<title>node4</title>
<polygon fill="none" stroke="black" points="266.38,-197.5 181.38,-197.5 181.38,-161.5 266.38,-161.5 266.38,-197.5"/>
<text xml:space="preserve" text-anchor="middle" x="223.88" y="-174.45" font-family="Times New Roman,serif" font-size="14.00">i % 2 === 0</text>
<text xml:space="preserve" text-anchor="middle" x="161.12" y="-217.2" font-family="Times New Roman,serif" font-size="14.00">c&#45;use: i</text>
<text xml:space="preserve" text-anchor="middle" x="161.12" y="-200.7" font-family="Times New Roman,serif" font-size="14.00">p&#45;use: i</text>
</g>
<!-- node3&#45;&gt;node4 -->
<g id="edge4" class="edge">
<title>node3&#45;&gt;node4</title>
<path fill="none" stroke="black" d="M223.88,-249.91C223.88,-238.26 223.88,-222.55 223.88,-209.02"/>
<polygon fill="black" stroke="black" points="227.38,-209.36 223.88,-199.36 220.38,-209.36 227.38,-209.36"/>
<text xml:space="preserve" text-anchor="middle" x="236.62" y="-218.7" font-family="Times New Roman,serif" font-size="14.00">True</text>
</g>
<!-- node5 -->
<g id="node7" class="node">
<title>node5</title>
<polygon fill="none" stroke="black" points="202,-109 39.75,-109 39.75,-73 202,-73 202,-109"/>
<text xml:space="preserve" text-anchor="middle" x="120.88" y="-85.95" font-family="Times New Roman,serif" font-size="14.00">console.log(`${i} is even`)</text>
<text xml:space="preserve" text-anchor="middle" x="19.88" y="-112.2" font-family="Times New Roman,serif" font-size="14.00">c&#45;use: i</text>
</g>
<!-- node4&#45;&gt;node5 -->
<g id="edge6" class="edge">
<title>node4&#45;&gt;node5</title>
<path fill="none" stroke="black" d="M203.53,-161.41C188.25,-148.58 167.11,-130.83 150.04,-116.49"/>
<polygon fill="black" stroke="black" points="152.6,-114.07 142.69,-110.32 148.1,-119.43 152.6,-114.07"/>
<text xml:space="preserve" text-anchor="middle" x="194.35" y="-130.2" font-family="Times New Roman,serif" font-size="14.00">True</text>
</g>
<!-- node6 -->
<g id="node8" class="node">
<title>node6</title>
<polygon fill="none" stroke="black" points="264.88,-36 210.88,-36 210.88,0 264.88,0 264.88,-36"/>
<text xml:space="preserve" text-anchor="middle" x="237.88" y="-12.95" font-family="Times New Roman,serif" font-size="14.00">i++</text>
<text xml:space="preserve" text-anchor="middle" x="196.62" y="-39.2" font-family="Times New Roman,serif" font-size="14.00">def: i</text>
</g>
<!-- node4&#45;&gt;node6 -->
<g id="edge7" class="edge">
<title>node4&#45;&gt;node6</title>
<path fill="none" stroke="black" d="M225.4,-161.13C227.8,-133.8 232.48,-80.5 235.37,-47.5"/>
<polygon fill="black" stroke="black" points="238.83,-48.13 236.22,-37.86 231.86,-47.51 238.83,-48.13"/>
<text xml:space="preserve" text-anchor="middle" x="247.31" y="-85.95" font-family="Times New Roman,serif" font-size="14.00">False</text>
</g>
<!-- node5&#45;&gt;node6 -->
<g id="edge8" class="edge">
<title>node5&#45;&gt;node6</title>
<path fill="none" stroke="black" d="M149.5,-72.63C165.1,-63.16 184.59,-51.33 201.29,-41.2"/>
<polygon fill="black" stroke="black" points="202.73,-44.42 209.46,-36.24 199.1,-38.44 202.73,-44.42"/>
</g>
<!-- node6&#45;&gt;node3 -->
<g id="edge9" class="edge">
<title>node6&#45;&gt;node3</title>
<path fill="none" stroke="black" d="M248.92,-36.3C254.94,-46.57 261.94,-60.07 265.88,-73 270.48,-88.13 283.85,-170.15 275.88,-197.5 271.12,-213.8 260.48,-229.21 250.06,-241.36"/>
<polygon fill="black" stroke="black" points="247.73,-238.72 243.61,-248.48 252.92,-243.42 247.73,-238.72"/>
</g>
</g>
</svg>
