<?xml version="1.0" encoding="UTF-8" standalone="no"?>
<!DOCTYPE svg PUBLIC "-//W3C//DTD SVG 1.1//EN"
 "http://www.w3.org/Graphics/SVG/1.1/DTD/svg11.dtd">
<!-- Generated by graphviz version 13.1.2 (20250808.2320)
 -->
<!-- Title: main Pages: 1 -->
<svg width="452pt" height="772pt"
 viewBox="0.00 0.00 452.00 772.00" xmlns="http://www.w3.org/2000/svg" xmlns:xlink="http://www.w3.org/1999/xlink">
<g id="graph0" class="graph" transform="scale(1 1) rotate(0) translate(4 768)">
<title>main</title>
<polygon fill="white" stroke="none" points="-4,4 -4,-768 447.5,-768 447.5,4 -4,4"/>
<!-- start -->
<g id="node1" class="node">
<title>start</title>
<ellipse fill="none" stroke="black" cx="94.5" cy="-746" rx="29.86" ry="18"/>
<text xml:space="preserve" text-anchor="middle" x="94.5" y="-740.95" font-family="Times New Roman,serif" font-size="14.00">main</text>
</g>
<!-- node1 -->
<g id="node3" class="node">
<title>node1</title>
<polygon fill="none" stroke="black" points="143,-691 46,-691 46,-655 143,-655 143,-691"/>
<text xml:space="preserve" text-anchor="middle" x="94.5" y="-667.95" font-family="Times New Roman,serif" font-size="14.00">1: if (argc &lt; 3)</text>
</g>
<!-- start&#45;&gt;node1 -->
<g id="edge1" class="edge">
<title>start&#45;&gt;node1</title>
<path fill="none" stroke="black" d="M94.5,-727.81C94.5,-720.23 94.5,-711.1 94.5,-702.54"/>
<polygon fill="black" stroke="black" points="98,-702.54 94.5,-692.54 91,-702.54 98,-702.54"/>
</g>
<!-- end -->
<g id="node2" class="node">
<title>end</title>
<ellipse fill="none" stroke="black" cx="38.5" cy="-18" rx="27" ry="18"/>
<text xml:space="preserve" text-anchor="middle" x="38.5" y="-12.95" font-family="Times New Roman,serif" font-size="14.00">End</text>
</g>
<!-- node2 -->
<g id="node4" class="node">
<title>node2</title>
<polygon fill="none" stroke="black" points="73,-527 0,-527 0,-491 73,-491 73,-527"/>
<text xml:space="preserve" text-anchor="middle" x="36.5" y="-503.95" font-family="Times New Roman,serif" font-size="14.00">2: return 1</text>
</g>
<!-- node1&#45;&gt;node2 -->
<g id="edge2" class="edge">
<title>node1&#45;&gt;node2</title>
<path fill="none" stroke="black" d="M58.03,-654.66C51.46,-649.87 45.45,-644.01 41.5,-637 24.42,-606.69 26.48,-565.54 30.59,-538.4"/>
<polygon fill="black" stroke="black" points="33.98,-539.3 32.23,-528.85 27.08,-538.11 33.98,-539.3"/>
<text xml:space="preserve" text-anchor="middle" x="83.5" y="-623.7" font-family="Times New Roman,serif" font-size="14.00">True (argc &lt; 3)</text>
</g>
<!-- node3 -->
<g id="node5" class="node">
<title>node3</title>
<polygon fill="none" stroke="blue" points="212,-602.5 91,-602.5 91,-545 212,-545 212,-602.5"/>
<text xml:space="preserve" text-anchor="middle" x="151.5" y="-585.2" font-family="Times New Roman,serif" font-size="14.00" fill="blue">3: a = atoi(argv[1])</text>
<text xml:space="preserve" text-anchor="middle" x="151.5" y="-568.7" font-family="Times New Roman,serif" font-size="14.00" fill="blue"> b = atoi(argv[2])</text>
<text xml:space="preserve" text-anchor="middle" x="151.5" y="-552.2" font-family="Times New Roman,serif" font-size="14.00" fill="blue"> def={a, b}</text>
</g>
<!-- node1&#45;&gt;node3 -->
<g id="edge3" class="edge">
<title>node1&#45;&gt;node3</title>
<path fill="none" stroke="black" d="M114.73,-654.83C120.07,-649.53 125.47,-643.4 129.5,-637 134,-629.87 137.73,-621.69 140.76,-613.67"/>
<polygon fill="black" stroke="black" points="144.02,-614.95 143.97,-604.35 137.4,-612.66 144.02,-614.95"/>
<text xml:space="preserve" text-anchor="middle" x="185.42" y="-623.7" font-family="Times New Roman,serif" font-size="14.00">False (argc &gt;= 3)</text>
</g>
<!-- node2&#45;&gt;end -->
<g id="edge11" class="edge">
<title>node2&#45;&gt;end</title>
<path fill="none" stroke="black" d="M33.77,-490.85C30.81,-470.76 26.5,-436.42 26.5,-406.75 26.5,-406.75 26.5,-406.75 26.5,-90 26.5,-75.74 28.88,-60.09 31.52,-47.12"/>
<polygon fill="black" stroke="black" points="34.9,-48.08 33.64,-37.56 28.06,-46.57 34.9,-48.08"/>
</g>
<!-- node4 -->
<g id="node6" class="node">
<title>node4</title>
<polygon fill="none" stroke="blue" points="198.38,-473 106.62,-473 106.62,-432 198.38,-432 198.38,-473"/>
<text xml:space="preserve" text-anchor="middle" x="152.5" y="-455.7" font-family="Times New Roman,serif" font-size="14.00" fill="blue">4: if (a &gt; b)</text>
<text xml:space="preserve" text-anchor="middle" x="152.5" y="-439.2" font-family="Times New Roman,serif" font-size="14.00" fill="blue"> p&#45;uso={a, b}</text>
</g>
<!-- node3&#45;&gt;node4 -->
<g id="edge4" class="edge">
<title>node3&#45;&gt;node4</title>
<path fill="none" stroke="black" d="M151.73,-544.79C151.89,-526.83 152.08,-503.48 152.24,-484.88"/>
<polygon fill="black" stroke="black" points="155.74,-485 152.32,-474.97 148.74,-484.94 155.74,-485"/>
</g>
<!-- node5 -->
<g id="node7" class="node">
<title>node5</title>
<polygon fill="none" stroke="black" points="264.12,-379.5 74.88,-379.5 74.88,-343.5 264.12,-343.5 264.12,-379.5"/>
<text xml:space="preserve" text-anchor="middle" x="169.5" y="-356.45" font-family="Times New Roman,serif" font-size="14.00">5: printf(&quot;a is greater than b\n&quot;)</text>
</g>
<!-- node4&#45;&gt;node5 -->
<g id="edge5" class="edge">
<title>node4&#45;&gt;node5</title>
<path fill="none" stroke="black" d="M132.63,-431.6C124.96,-421.45 119.21,-408.87 124.75,-397.5 126.49,-393.93 128.78,-390.62 131.42,-387.58"/>
<polygon fill="black" stroke="black" points="133.72,-390.22 138.48,-380.75 128.86,-385.19 133.72,-390.22"/>
<text xml:space="preserve" text-anchor="middle" x="158.12" y="-400.7" font-family="Times New Roman,serif" font-size="14.00">True (a &gt; b)</text>
</g>
<!-- node4&#45;&gt;node5 -->
<g id="edge13" class="edge">
<title>node4&#45;&gt;node5</title>
<path fill="none" stroke="green" d="M179.08,-431.69C184.13,-426.54 188.7,-420.57 191.5,-414 194.89,-406.04 193.26,-397.39 189.7,-389.49"/>
<polygon fill="green" stroke="green" points="192.86,-387.97 184.9,-380.98 186.76,-391.41 192.86,-387.97"/>
<text xml:space="preserve" text-anchor="middle" x="237.61" y="-400.7" font-family="Times New Roman,serif" font-size="14.00">Caminho Viavel</text>
</g>
<!-- node8 -->
<g id="node10" class="node">
<title>node8</title>
<polygon fill="none" stroke="black" points="191,-109 118,-109 118,-73 191,-73 191,-109"/>
<text xml:space="preserve" text-anchor="middle" x="154.5" y="-85.95" font-family="Times New Roman,serif" font-size="14.00">8: return 0</text>
</g>
<!-- node4&#45;&gt;node8 -->
<g id="edge6" class="edge">
<title>node4&#45;&gt;node8</title>
<path fill="none" stroke="black" d="M198.72,-451.66C261.36,-449.17 365.5,-434.24 365.5,-362.5 365.5,-362.5 365.5,-362.5 365.5,-178.5 365.5,-108.43 264.65,-93.9 202.4,-91.61"/>
<polygon fill="black" stroke="black" points="202.86,-88.12 192.77,-91.35 202.67,-95.12 202.86,-88.12"/>
<text xml:space="preserve" text-anchor="middle" x="404.5" y="-265.45" font-family="Times New Roman,serif" font-size="14.00">False (a &lt;= b)</text>
</g>
<!-- node6 -->
<g id="node8" class="node">
<title>node6</title>
<polygon fill="none" stroke="blue" points="197,-291 112,-291 112,-250 197,-250 197,-291"/>
<text xml:space="preserve" text-anchor="middle" x="154.5" y="-273.7" font-family="Times New Roman,serif" font-size="14.00" fill="blue">6: if (b != 0)</text>
<text xml:space="preserve" text-anchor="middle" x="154.5" y="-257.2" font-family="Times New Roman,serif" font-size="14.00" fill="blue"> p&#45;uso={b}</text>
</g>
<!-- node5&#45;&gt;node6 -->
<g id="edge7" class="edge">
<title>node5&#45;&gt;node6</title>
<path fill="none" stroke="black" d="M158.62,-343.33C155.72,-337.85 152.98,-331.61 151.5,-325.5 149.73,-318.19 149.36,-310.18 149.69,-302.61"/>
<polygon fill="black" stroke="black" points="153.17,-303.02 150.55,-292.75 146.19,-302.41 153.17,-303.02"/>
</g>
<!-- node5&#45;&gt;node6 -->
<g id="edge14" class="edge">
<title>node5&#45;&gt;node6</title>
<path fill="none" stroke="green" d="M166.61,-343.34C164.65,-331.74 162.01,-316.09 159.7,-302.36"/>
<polygon fill="green" stroke="green" points="163.22,-302.18 158.11,-292.9 156.32,-303.34 163.22,-302.18"/>
<text xml:space="preserve" text-anchor="middle" x="207.59" y="-312.2" font-family="Times New Roman,serif" font-size="14.00">Caminho Viavel</text>
</g>
<!-- node7 -->
<g id="node9" class="node">
<title>node7</title>
<polygon fill="none" stroke="black" points="218.12,-197.5 58.88,-197.5 58.88,-161.5 218.12,-161.5 218.12,-197.5"/>
<text xml:space="preserve" text-anchor="middle" x="138.5" y="-174.45" font-family="Times New Roman,serif" font-size="14.00">7: printf(&quot;b is not zero\n&quot;)</text>
</g>
<!-- node6&#45;&gt;node7 -->
<g id="edge8" class="edge">
<title>node6&#45;&gt;node7</title>
<path fill="none" stroke="black" d="M111.66,-263.39C92.66,-258.31 72.03,-249.02 60.5,-232 52.74,-220.55 58.8,-211.01 70.34,-203.38"/>
<polygon fill="black" stroke="black" points="71.75,-206.6 78.77,-198.66 68.33,-200.49 71.75,-206.6"/>
<text xml:space="preserve" text-anchor="middle" x="96.5" y="-218.7" font-family="Times New Roman,serif" font-size="14.00">True (b != 0)</text>
</g>
<!-- node6&#45;&gt;node7 -->
<g id="edge15" class="edge">
<title>node6&#45;&gt;node7</title>
<path fill="none" stroke="green" d="M150.95,-249.75C148.78,-237.71 145.98,-222.12 143.59,-208.79"/>
<polygon fill="green" stroke="green" points="147.09,-208.5 141.88,-199.28 140.2,-209.74 147.09,-208.5"/>
<text xml:space="preserve" text-anchor="middle" x="191.71" y="-218.7" font-family="Times New Roman,serif" font-size="14.00">Caminho Viavel</text>
</g>
<!-- node6&#45;&gt;node8 -->
<g id="edge9" class="edge">
<title>node6&#45;&gt;node8</title>
<path fill="none" stroke="black" d="M197.26,-260.97C213.28,-255.49 229.91,-246.54 239.5,-232 265.2,-193.05 266.55,-165.72 240.5,-127 231.67,-113.87 216.96,-105.66 202.19,-100.53"/>
<polygon fill="black" stroke="black" points="203.53,-97.28 192.95,-97.75 201.52,-103.99 203.53,-97.28"/>
<text xml:space="preserve" text-anchor="middle" x="298.79" y="-174.45" font-family="Times New Roman,serif" font-size="14.00">False (b == 0)</text>
</g>
<!-- node7&#45;&gt;node8 -->
<g id="edge10" class="edge">
<title>node7&#45;&gt;node8</title>
<path fill="none" stroke="black" d="M134.88,-161.08C133.43,-150.99 132.68,-138.11 135.5,-127 136.12,-124.55 136.95,-122.09 137.92,-119.66"/>
<polygon fill="black" stroke="black" points="141,-121.35 142.17,-110.82 134.69,-118.32 141,-121.35"/>
</g>
<!-- node7&#45;&gt;node8 -->
<g id="edge16" class="edge">
<title>node7&#45;&gt;node8</title>
<path fill="none" stroke="green" d="M141.66,-161.41C143.82,-149.76 146.72,-134.05 149.22,-120.52"/>
<polygon fill="green" stroke="green" points="152.64,-121.31 151.02,-110.84 145.75,-120.04 152.64,-121.31"/>
<text xml:space="preserve" text-anchor="middle" x="192.18" y="-130.2" font-family="Times New Roman,serif" font-size="14.00">Caminho Viavel</text>
</g>
<!-- node8&#45;&gt;end -->
<g id="edge12" class="edge">
<title>node8&#45;&gt;end</title>
<path fill="none" stroke="black" d="M126.12,-72.63C108.32,-61.74 85.43,-47.73 67.51,-36.76"/>
<polygon fill="black" stroke="black" points="69.52,-33.88 59.16,-31.65 65.87,-39.85 69.52,-33.88"/>
</g>
</g>
</svg>
