<?xml version="1.0" encoding="UTF-8" standalone="no"?>
<!DOCTYPE svg PUBLIC "-//W3C//DTD SVG 1.1//EN"
 "http://www.w3.org/Graphics/SVG/1.1/DTD/svg11.dtd">
<!-- Generated by graphviz version 13.1.2 (20250808.2320)
 -->
<!-- Title: order Pages: 1 -->
<svg width="747pt" height="821pt"
 viewBox="0.00 0.00 747.00 821.00" xmlns="http://www.w3.org/2000/svg" xmlns:xlink="http://www.w3.org/1999/xlink">
<g id="graph0" class="graph" transform="scale(1 1) rotate(0) translate(4 816.5)">
<title>order</title>
<polygon fill="white" stroke="none" points="-4,4 -4,-816.5 743.3,-816.5 743.3,4 -4,4"/>
<!-- start -->
<g id="node1" class="node">
<title>start</title>
<ellipse fill="none" stroke="black" cx="237.65" cy="-794.5" rx="28.32" ry="18"/>
<text xml:space="preserve" text-anchor="middle" x="237.65" y="-789.45" font-family="Times New Roman,serif" font-size="14.00">Start</text>
</g>
<!-- assign1 -->
<g id="node3" class="node">
<title>assign1</title>
<polygon fill="none" stroke="black" points="368.27,-739.5 107.02,-739.5 107.02,-703.5 368.27,-703.5 368.27,-739.5"/>
<text xml:space="preserve" text-anchor="middle" x="237.65" y="-716.45" font-family="Times New Roman,serif" font-size="14.00">isPremium = customer.isPremiumMember()</text>
</g>
<!-- start&#45;&gt;assign1 -->
<g id="edge1" class="edge">
<title>start&#45;&gt;assign1</title>
<path fill="none" stroke="black" d="M237.65,-776.31C237.65,-768.73 237.65,-759.6 237.65,-751.04"/>
<polygon fill="black" stroke="black" points="241.15,-751.04 237.65,-741.04 234.15,-751.04 241.15,-751.04"/>
</g>
<!-- end -->
<g id="node2" class="node">
<title>end</title>
<ellipse fill="none" stroke="black" cx="263.65" cy="-18" rx="27" ry="18"/>
<text xml:space="preserve" text-anchor="middle" x="263.65" y="-12.95" font-family="Times New Roman,serif" font-size="14.00">End</text>
</g>
<!-- assign2 -->
<g id="node4" class="node">
<title>assign2</title>
<polygon fill="none" stroke="black" points="388.9,-666.5 86.4,-666.5 86.4,-630.5 388.9,-630.5 388.9,-666.5"/>
<text xml:space="preserve" text-anchor="middle" x="237.65" y="-643.45" font-family="Times New Roman,serif" font-size="14.00">isEligibleForDiscount = product.getPrice() &gt; 100.00</text>
</g>
<!-- assign1&#45;&gt;assign2 -->
<g id="edge2" class="edge">
<title>assign1&#45;&gt;assign2</title>
<path fill="none" stroke="black" d="M237.65,-703.31C237.65,-695.73 237.65,-686.6 237.65,-678.04"/>
<polygon fill="black" stroke="black" points="241.15,-678.04 237.65,-668.04 234.15,-678.04 241.15,-678.04"/>
</g>
<!-- assign3 -->
<g id="node5" class="node">
<title>assign3</title>
<polygon fill="none" stroke="black" points="360.02,-593.5 115.27,-593.5 115.27,-557.5 360.02,-557.5 360.02,-593.5"/>
<text xml:space="preserve" text-anchor="middle" x="237.65" y="-570.45" font-family="Times New Roman,serif" font-size="14.00">isOnClearance = product.isOnClearance()</text>
</g>
<!-- assign2&#45;&gt;assign3 -->
<g id="edge3" class="edge">
<title>assign2&#45;&gt;assign3</title>
<path fill="none" stroke="black" d="M237.65,-630.31C237.65,-622.73 237.65,-613.6 237.65,-605.04"/>
<polygon fill="black" stroke="black" points="241.15,-605.04 237.65,-595.04 234.15,-605.04 241.15,-605.04"/>
</g>
<!-- cond1 -->
<g id="node6" class="node">
<title>cond1</title>
<polygon fill="none" stroke="black" points="237.65,-520.5 0,-502.5 237.65,-484.5 475.3,-502.5 237.65,-520.5"/>
<text xml:space="preserve" text-anchor="middle" x="237.65" y="-497.45" font-family="Times New Roman,serif" font-size="14.00">if (isPremium &amp;&amp; isEligibleForDiscount)</text>
</g>
<!-- assign3&#45;&gt;cond1 -->
<g id="edge4" class="edge">
<title>assign3&#45;&gt;cond1</title>
<path fill="none" stroke="black" d="M237.65,-557.31C237.65,-549.73 237.65,-540.6 237.65,-532.04"/>
<polygon fill="black" stroke="black" points="241.15,-532.04 237.65,-522.04 234.15,-532.04 241.15,-532.04"/>
</g>
<!-- cond2 -->
<g id="node7" class="node">
<title>cond2</title>
<polygon fill="none" stroke="black" points="233.65,-359 121.22,-341 233.65,-323 346.08,-341 233.65,-359"/>
<text xml:space="preserve" text-anchor="middle" x="233.65" y="-335.95" font-family="Times New Roman,serif" font-size="14.00">if (isOnClearance)</text>
</g>
<!-- cond1&#45;&gt;cond2 -->
<g id="edge6" class="edge">
<title>cond1&#45;&gt;cond2</title>
<path fill="none" stroke="black" d="M235.29,-484.4C233.47,-470.36 231.11,-449.94 230.15,-432 229.29,-416.02 229.63,-411.99 230.15,-396 230.42,-387.67 230.92,-378.63 231.46,-370.38"/>
<polygon fill="black" stroke="black" points="234.95,-370.74 232.16,-360.52 227.96,-370.25 234.95,-370.74"/>
<text xml:space="preserve" text-anchor="middle" x="244.4" y="-408.95" font-family="Times New Roman,serif" font-size="14.00">False</text>
</g>
<!-- action1 -->
<g id="node9" class="node">
<title>action1</title>
<polygon fill="none" stroke="black" points="565.27,-432 268.02,-432 268.02,-396 565.27,-396 565.27,-432"/>
<text xml:space="preserve" text-anchor="middle" x="416.65" y="-408.95" font-family="Times New Roman,serif" font-size="14.00">System.out.println(&quot;Desconto Premium aplicado.&quot;)</text>
</g>
<!-- cond1&#45;&gt;action1 -->
<g id="edge5" class="edge">
<title>cond1&#45;&gt;action1</title>
<path fill="none" stroke="black" d="M268.83,-486.43C296.94,-472.85 338.64,-452.7 370.59,-437.26"/>
<polygon fill="black" stroke="black" points="371.75,-440.58 379.23,-433.08 368.71,-434.28 371.75,-440.58"/>
<text xml:space="preserve" text-anchor="middle" x="355.93" y="-453.2" font-family="Times New Roman,serif" font-size="14.00">True</text>
</g>
<!-- cond2&#45;&gt;end -->
<g id="edge9" class="edge">
<title>cond2&#45;&gt;end</title>
<path fill="none" stroke="black" d="M228.76,-323.58C224.06,-306.31 217.65,-278.24 217.65,-253.5 217.65,-253.5 217.65,-253.5 217.65,-90 217.65,-71.5 228.78,-54.02 240.09,-41.03"/>
<polygon fill="black" stroke="black" points="242.49,-43.59 246.78,-33.91 237.39,-38.8 242.49,-43.59"/>
<text xml:space="preserve" text-anchor="middle" x="231.9" y="-174.45" font-family="Times New Roman,serif" font-size="14.00">False</text>
</g>
<!-- action2 -->
<g id="node10" class="node">
<title>action2</title>
<polygon fill="none" stroke="black" points="559.9,-270.5 311.4,-270.5 311.4,-234.5 559.9,-234.5 559.9,-270.5"/>
<text xml:space="preserve" text-anchor="middle" x="435.65" y="-247.45" font-family="Times New Roman,serif" font-size="14.00">System.out.println(&quot;Item em liquidacao.&quot;)</text>
</g>
<!-- cond2&#45;&gt;action2 -->
<g id="edge8" class="edge">
<title>cond2&#45;&gt;action2</title>
<path fill="none" stroke="black" d="M263.02,-327.42C294.83,-313.8 346.16,-291.82 384.59,-275.36"/>
<polygon fill="black" stroke="black" points="385.86,-278.63 393.67,-271.47 383.1,-272.19 385.86,-278.63"/>
<text xml:space="preserve" text-anchor="middle" x="365.49" y="-291.7" font-family="Times New Roman,serif" font-size="14.00">True</text>
</g>
<!-- cond3 -->
<g id="node8" class="node">
<title>cond3</title>
<polygon fill="none" stroke="red" points="501.65,-197.5 264,-179.5 501.65,-161.5 739.3,-179.5 501.65,-197.5"/>
<text xml:space="preserve" text-anchor="middle" x="501.65" y="-174.45" font-family="Times New Roman,serif" font-size="14.00" fill="red">if (isPremium &amp;&amp; isEligibleForDiscount)</text>
</g>
<!-- cond3&#45;&gt;end -->
<g id="edge12" class="edge">
<title>cond3&#45;&gt;end</title>
<path fill="none" stroke="black" d="M386.77,-169.72C344.92,-160.54 301.07,-142.81 273.15,-109 259.15,-92.05 257.62,-66.73 259.1,-47.26"/>
<polygon fill="black" stroke="black" points="262.56,-47.85 260.17,-37.53 255.6,-47.09 262.56,-47.85"/>
<text xml:space="preserve" text-anchor="middle" x="287.4" y="-85.95" font-family="Times New Roman,serif" font-size="14.00">False</text>
</g>
<!-- action3 -->
<g id="node11" class="node">
<title>action3</title>
<polygon fill="none" stroke="red" points="706.77,-109 310.52,-109 310.52,-73 706.77,-73 706.77,-109"/>
<text xml:space="preserve" text-anchor="middle" x="508.65" y="-85.95" font-family="Times New Roman,serif" font-size="14.00" fill="red">System.out.println(&quot;Super Desconto para Premium em Liquidacao!&quot;)</text>
</g>
<!-- cond3&#45;&gt;action3 -->
<g id="edge11" class="edge">
<title>cond3&#45;&gt;action3</title>
<path fill="none" stroke="red" d="M503.03,-161.41C503.98,-149.76 505.25,-134.05 506.34,-120.52"/>
<polygon fill="red" stroke="red" points="509.81,-121.11 507.12,-110.86 502.83,-120.54 509.81,-121.11"/>
<text xml:space="preserve" text-anchor="middle" x="551.53" y="-130.2" font-family="Times New Roman,serif" font-size="14.00" fill="red">True (Infeasible)</text>
</g>
<!-- action1&#45;&gt;cond2 -->
<g id="edge7" class="edge">
<title>action1&#45;&gt;cond2</title>
<path fill="none" stroke="black" d="M371.88,-395.63C342.61,-384.27 304.61,-369.53 275.86,-358.38"/>
<polygon fill="black" stroke="black" points="277.34,-355.2 266.75,-354.84 274.8,-361.72 277.34,-355.2"/>
</g>
<!-- action2&#45;&gt;cond3 -->
<g id="edge10" class="edge">
<title>action2&#45;&gt;cond3</title>
<path fill="none" stroke="black" d="M451.63,-234.31C459.89,-225.43 470.11,-214.43 479.16,-204.7"/>
<polygon fill="black" stroke="black" points="481.45,-207.37 485.69,-197.66 476.32,-202.61 481.45,-207.37"/>
</g>
<!-- action3&#45;&gt;end -->
<g id="edge13" class="edge">
<title>action3&#45;&gt;end</title>
<path fill="none" stroke="red" d="M448.4,-72.54C401.56,-58.97 338.19,-40.6 299.16,-29.29"/>
<polygon fill="red" stroke="red" points="300.14,-25.93 289.56,-26.51 298.19,-32.65 300.14,-25.93"/>
</g>
</g>
</svg>
