<?xml version="1.0" encoding="UTF-8" standalone="no"?>
<!DOCTYPE svg PUBLIC "-//W3C//DTD SVG 1.1//EN"
 "http://www.w3.org/Graphics/SVG/1.1/DTD/svg11.dtd">
<!-- Generated by graphviz version 13.1.2 (20250808.2320)
 -->
<!-- Title: trick_loop Pages: 1 -->
<svg width="605pt" height="788pt"
 viewBox="0.00 0.00 605.00 788.00" xmlns="http://www.w3.org/2000/svg" xmlns:xlink="http://www.w3.org/1999/xlink">
<g id="graph0" class="graph" transform="scale(1 1) rotate(0) translate(4 783.5)">
<title>trick_loop</title>
<polygon fill="white" stroke="none" points="-4,4 -4,-783.5 601.25,-783.5 601.25,4 -4,4"/>
<!-- start -->
<g id="node1" class="node">
<title>start</title>
<ellipse fill="none" stroke="black" cx="184" cy="-761.5" rx="28.32" ry="18"/>
<text xml:space="preserve" text-anchor="middle" x="184" y="-756.45" font-family="Times New Roman,serif" font-size="14.00">Start</text>
</g>
<!-- block1 -->
<g id="node3" class="node">
<title>block1</title>
<polygon fill="none" stroke="black" points="216.75,-706.5 151.25,-706.5 151.25,-649 216.75,-649 216.75,-706.5"/>
<text xml:space="preserve" text-anchor="middle" x="184" y="-689.2" font-family="Times New Roman,serif" font-size="14.00">B1</text>
<text xml:space="preserve" text-anchor="middle" x="184" y="-672.7" font-family="Times New Roman,serif" font-size="14.00">i := 0</text>
<text xml:space="preserve" text-anchor="middle" x="184" y="-656.2" font-family="Times New Roman,serif" font-size="14.00">sum := 0</text>
<text xml:space="preserve" text-anchor="middle" x="121.62" y="-709.7" font-family="Times New Roman,serif" font-size="14.00">def: i, sum</text>
</g>
<!-- start&#45;&gt;block1 -->
<g id="edge1" class="edge">
<title>start&#45;&gt;block1</title>
<path fill="none" stroke="black" d="M184,-743.16C184,-735.86 184,-727.04 184,-718.31"/>
<polygon fill="black" stroke="black" points="187.5,-718.51 184,-708.51 180.5,-718.51 187.5,-718.51"/>
</g>
<!-- end -->
<g id="node2" class="node">
<title>end</title>
<ellipse fill="none" stroke="black" cx="226" cy="-18" rx="27" ry="18"/>
<text xml:space="preserve" text-anchor="middle" x="226" y="-12.95" font-family="Times New Roman,serif" font-size="14.00">End</text>
</g>
<!-- block2 -->
<g id="node4" class="node">
<title>block2</title>
<polygon fill="none" stroke="black" points="184,-612 129.75,-571 184,-530 238.25,-571 184,-612"/>
<text xml:space="preserve" text-anchor="middle" x="184" y="-574.2" font-family="Times New Roman,serif" font-size="14.00">B2</text>
<text xml:space="preserve" text-anchor="middle" x="184" y="-557.7" font-family="Times New Roman,serif" font-size="14.00">if i &lt; n</text>
<text xml:space="preserve" text-anchor="middle" x="102.38" y="-615.2" font-family="Times New Roman,serif" font-size="14.00">p&#45;use: i, n</text>
</g>
<!-- block1&#45;&gt;block2 -->
<g id="edge2" class="edge">
<title>block1&#45;&gt;block2</title>
<path fill="none" stroke="black" d="M184,-648.68C184,-640.93 184,-632.26 184,-623.62"/>
<polygon fill="black" stroke="black" points="187.5,-623.87 184,-613.87 180.5,-623.87 187.5,-623.87"/>
</g>
<!-- block3 -->
<g id="node5" class="node">
<title>block3</title>
<polygon fill="none" stroke="black" points="137.5,-465.25 70.5,-465.25 70.5,-407.75 137.5,-407.75 137.5,-465.25"/>
<text xml:space="preserve" text-anchor="middle" x="104" y="-447.95" font-family="Times New Roman,serif" font-size="14.00">B3</text>
<text xml:space="preserve" text-anchor="middle" x="104" y="-431.45" font-family="Times New Roman,serif" font-size="14.00">sum += i</text>
<text xml:space="preserve" text-anchor="middle" x="104" y="-414.95" font-family="Times New Roman,serif" font-size="14.00">i++</text>
<text xml:space="preserve" text-anchor="middle" x="35.25" y="-484.95" font-family="Times New Roman,serif" font-size="14.00">c&#45;use: i, sum</text>
<text xml:space="preserve" text-anchor="middle" x="35.25" y="-468.45" font-family="Times New Roman,serif" font-size="14.00">def: i, sum</text>
</g>
<!-- block2&#45;&gt;block3 -->
<g id="edge3" class="edge">
<title>block2&#45;&gt;block3</title>
<path fill="none" stroke="black" d="M151.01,-554.76C134.17,-545.08 115.23,-530.81 105.5,-512 100.02,-501.4 98.29,-488.77 98.33,-476.94"/>
<polygon fill="black" stroke="black" points="101.82,-477.15 98.8,-467 94.83,-476.82 101.82,-477.15"/>
<text xml:space="preserve" text-anchor="middle" x="137.75" y="-498.7" font-family="Times New Roman,serif" font-size="14.00">True (i &lt; n)</text>
</g>
<!-- block4 -->
<g id="node6" class="node">
<title>block4</title>
<polygon fill="none" stroke="black" points="221,-477.5 155.5,-436.5 221,-395.5 286.5,-436.5 221,-477.5"/>
<text xml:space="preserve" text-anchor="middle" x="221" y="-439.7" font-family="Times New Roman,serif" font-size="14.00">B4</text>
<text xml:space="preserve" text-anchor="middle" x="221" y="-423.2" font-family="Times New Roman,serif" font-size="14.00">if n &lt;= 0</text>
<text xml:space="preserve" text-anchor="middle" x="133.75" y="-480.7" font-family="Times New Roman,serif" font-size="14.00">p&#45;use: n</text>
</g>
<!-- block2&#45;&gt;block4 -->
<g id="edge4" class="edge">
<title>block2&#45;&gt;block4</title>
<path fill="none" stroke="black" d="M193.34,-536.56C197.89,-520.26 203.43,-500.41 208.36,-482.78"/>
<polygon fill="black" stroke="black" points="211.68,-483.88 211,-473.31 204.94,-482 211.68,-483.88"/>
<text xml:space="preserve" text-anchor="middle" x="242.59" y="-498.7" font-family="Times New Roman,serif" font-size="14.00">False (i &gt;= n)</text>
</g>
<!-- block3&#45;&gt;block2 -->
<g id="edge5" class="edge">
<title>block3&#45;&gt;block2</title>
<path fill="none" stroke="black" d="M132.51,-465.5C136.95,-469.61 141.54,-473.73 146,-477.5 156.18,-486.11 162.96,-484.18 170,-495.5 174.54,-502.8 177.68,-511.23 179.83,-519.74"/>
<polygon fill="black" stroke="black" points="176.37,-520.31 181.82,-529.39 183.23,-518.89 176.37,-520.31"/>
</g>
<!-- block4&#45;&gt;end -->
<g id="edge7" class="edge">
<title>block4&#45;&gt;end</title>
<path fill="none" stroke="black" d="M203.85,-406.14C192.61,-384.15 180,-352.9 180,-323.5 180,-323.5 180,-323.5 180,-92.5 180,-73.24 191.49,-54.87 202.99,-41.31"/>
<polygon fill="black" stroke="black" points="205.27,-44.01 209.41,-34.25 200.09,-39.3 205.27,-44.01"/>
<text xml:space="preserve" text-anchor="middle" x="215.25" y="-218.95" font-family="Times New Roman,serif" font-size="14.00">False (n &gt; 0)</text>
</g>
<!-- block5 -->
<g id="node7" class="node">
<title>block5</title>
<polygon fill="none" stroke="red" points="431.5,-343 226.5,-343 226.5,-302 431.5,-302 431.5,-343"/>
<text xml:space="preserve" text-anchor="middle" x="329" y="-325.7" font-family="Times New Roman,serif" font-size="14.00" fill="red">B5</text>
<text xml:space="preserve" text-anchor="middle" x="329" y="-309.2" font-family="Times New Roman,serif" font-size="14.00" fill="red">fmt.Println(&quot;Loop nao executou.&quot;)</text>
</g>
<!-- block4&#45;&gt;block5 -->
<g id="edge6" class="edge">
<title>block4&#45;&gt;block5</title>
<path fill="none" stroke="red" d="M245.24,-410.37C262.17,-392.8 284.79,-369.35 302.25,-351.24"/>
<polygon fill="red" stroke="red" points="304.4,-354.06 308.82,-344.43 299.36,-349.2 304.4,-354.06"/>
<text xml:space="preserve" text-anchor="middle" x="328.86" y="-364.2" font-family="Times New Roman,serif" font-size="14.00" fill="red">True (n &lt;= 0)</text>
</g>
<!-- block6 -->
<g id="node8" class="node">
<title>block6</title>
<polygon fill="none" stroke="red" points="347,-265 268.75,-224 347,-183 425.25,-224 347,-265"/>
<text xml:space="preserve" text-anchor="middle" x="347" y="-227.2" font-family="Times New Roman,serif" font-size="14.00" fill="red">B6</text>
<text xml:space="preserve" text-anchor="middle" x="347" y="-210.7" font-family="Times New Roman,serif" font-size="14.00" fill="red">if sum != 0</text>
<text xml:space="preserve" text-anchor="middle" x="238.75" y="-268.2" font-family="Times New Roman,serif" font-size="14.00" fill="red">p&#45;use: sum</text>
</g>
<!-- block5&#45;&gt;block6 -->
<g id="edge8" class="edge">
<title>block5&#45;&gt;block6</title>
<path fill="none" stroke="red" d="M332.73,-301.51C334.29,-293.16 336.17,-283.08 338.04,-273.01"/>
<polygon fill="red" stroke="red" points="341.48,-273.7 339.87,-263.23 334.59,-272.42 341.48,-273.7"/>
</g>
<!-- block6&#45;&gt;end -->
<g id="edge10" class="edge">
<title>block6&#45;&gt;end</title>
<path fill="none" stroke="red" d="M313.01,-200.31C286.84,-180.78 252.29,-150.09 235,-114 225.1,-93.34 223.27,-67.27 223.68,-47.68"/>
<polygon fill="red" stroke="red" points="227.17,-48.07 224.11,-37.93 220.17,-47.77 227.17,-48.07"/>
<text xml:space="preserve" text-anchor="middle" x="278.5" y="-88.45" font-family="Times New Roman,serif" font-size="14.00" fill="red">False (sum = 0)</text>
</g>
<!-- block7 -->
<g id="node9" class="node">
<title>block7</title>
<polygon fill="none" stroke="red" points="597.25,-114 330.75,-114 330.75,-73 597.25,-73 597.25,-114"/>
<text xml:space="preserve" text-anchor="middle" x="464" y="-96.7" font-family="Times New Roman,serif" font-size="14.00" fill="red">B7</text>
<text xml:space="preserve" text-anchor="middle" x="464" y="-80.2" font-family="Times New Roman,serif" font-size="14.00" fill="red">fmt.Println(&quot;Erro: soma nao zero sem loop!&quot;)</text>
</g>
<!-- block6&#45;&gt;block7 -->
<g id="edge9" class="edge">
<title>block6&#45;&gt;block7</title>
<path fill="none" stroke="red" d="M371.81,-195.75C391.39,-174.25 418.59,-144.37 438.37,-122.65"/>
<polygon fill="red" stroke="red" points="440.92,-125.04 445.07,-115.29 435.75,-120.33 440.92,-125.04"/>
<text xml:space="preserve" text-anchor="middle" x="471.43" y="-151.7" font-family="Times New Roman,serif" font-size="14.00" fill="red">True (sum = 0)</text>
<text xml:space="preserve" text-anchor="middle" x="471.43" y="-135.2" font-family="Times New Roman,serif" font-size="14.00" fill="red">[INVIAVEL]</text>
</g>
<!-- block7&#45;&gt;end -->
<g id="edge11" class="edge">
<title>block7&#45;&gt;end</title>
<path fill="none" stroke="red" d="M399.28,-72.51C354.81,-58.78 297.48,-41.07 261.22,-29.88"/>
<polygon fill="red" stroke="red" points="262.26,-26.53 251.67,-26.93 260.19,-33.22 262.26,-26.53"/>
</g>
</g>
</svg>
