<?xml version="1.0" encoding="UTF-8" standalone="no"?>
<!DOCTYPE svg PUBLIC "-//W3C//DTD SVG 1.1//EN"
 "http://www.w3.org/Graphics/SVG/1.1/DTD/svg11.dtd">
<!-- Generated by graphviz version 13.1.2 (20250808.2320)
 -->
<!-- Title: foo_CFG Pages: 1 -->
<svg width="560pt" height="981pt"
 viewBox="0.00 0.00 560.00 981.00" xmlns="http://www.w3.org/2000/svg" xmlns:xlink="http://www.w3.org/1999/xlink">
<g id="graph0" class="graph" transform="scale(1 1) rotate(0) translate(4 976.97)">
<title>foo_CFG</title>
<polygon fill="white" stroke="none" points="-4,4 -4,-976.97 555.74,-976.97 555.74,4 -4,4"/>
<!-- entry -->
<g id="node1" class="node">
<title>entry</title>
<polygon fill="none" stroke="black" points="487.74,-972.97 433.74,-972.97 433.74,-936.97 487.74,-936.97 487.74,-972.97"/>
<text xml:space="preserve" text-anchor="middle" x="460.74" y="-949.92" font-family="Times New Roman,serif" font-size="14.00">entry</text>
</g>
<!-- node0 -->
<g id="node2" class="node">
<title>node0</title>
<polygon fill="none" stroke="black" points="487.74,-899.97 433.74,-899.97 433.74,-863.97 487.74,-863.97 487.74,-899.97"/>
<text xml:space="preserve" text-anchor="middle" x="460.74" y="-876.92" font-family="Times New Roman,serif" font-size="14.00">i=0</text>
</g>
<!-- entry&#45;&gt;node0 -->
<g id="edge1" class="edge">
<title>entry&#45;&gt;node0</title>
<path fill="none" stroke="black" d="M460.74,-936.79C460.74,-929.2 460.74,-920.08 460.74,-911.51"/>
<polygon fill="black" stroke="black" points="464.24,-911.52 460.74,-901.52 457.24,-911.52 464.24,-911.52"/>
</g>
<!-- node1 -->
<g id="node3" class="node">
<title>node1</title>
<polygon fill="none" stroke="black" points="487.74,-826.97 433.74,-826.97 433.74,-790.97 487.74,-790.97 487.74,-826.97"/>
<text xml:space="preserve" text-anchor="middle" x="460.74" y="-803.92" font-family="Times New Roman,serif" font-size="14.00">i&lt;5?</text>
</g>
<!-- node0&#45;&gt;node1 -->
<g id="edge2" class="edge">
<title>node0&#45;&gt;node1</title>
<path fill="none" stroke="black" d="M460.74,-863.79C460.74,-856.2 460.74,-847.08 460.74,-838.51"/>
<polygon fill="black" stroke="black" points="464.24,-838.52 460.74,-828.52 457.24,-838.52 464.24,-838.52"/>
</g>
<!-- node2 -->
<g id="node4" class="node">
<title>node2</title>
<polygon fill="none" stroke="black" points="487.74,-738.47 433.74,-738.47 433.74,-702.47 487.74,-702.47 487.74,-738.47"/>
<text xml:space="preserve" text-anchor="middle" x="460.74" y="-715.42" font-family="Times New Roman,serif" font-size="14.00">j=0</text>
</g>
<!-- node1&#45;&gt;node2 -->
<g id="edge3" class="edge">
<title>node1&#45;&gt;node2</title>
<path fill="none" stroke="black" d="M460.74,-790.89C460.74,-779.23 460.74,-763.52 460.74,-749.99"/>
<polygon fill="black" stroke="black" points="464.24,-750.34 460.74,-740.34 457.24,-750.34 464.24,-750.34"/>
<text xml:space="preserve" text-anchor="middle" x="471.24" y="-759.67" font-family="Times New Roman,serif" font-size="14.00">true</text>
</g>
<!-- node14 -->
<g id="node5" class="node">
<title>node14</title>
<polygon fill="none" stroke="black" points="216.24,-684.47 149.24,-684.47 149.24,-648.47 216.24,-648.47 216.24,-684.47"/>
<text xml:space="preserve" text-anchor="middle" x="182.74" y="-661.42" font-family="Times New Roman,serif" font-size="14.00">return &#45;1;</text>
</g>
<!-- node1&#45;&gt;node14 -->
<g id="edge4" class="edge">
<title>node1&#45;&gt;node14</title>
<path fill="none" stroke="black" d="M433.32,-794.12C384.99,-769.69 284.28,-718.79 226.33,-689.5"/>
<polygon fill="black" stroke="black" points="228.23,-686.54 217.72,-685.16 225.07,-692.79 228.23,-686.54"/>
<text xml:space="preserve" text-anchor="middle" x="403.17" y="-759.67" font-family="Times New Roman,serif" font-size="14.00">false</text>
</g>
<!-- node3 -->
<g id="node6" class="node">
<title>node3</title>
<polygon fill="none" stroke="black" points="487.74,-630.47 433.74,-630.47 433.74,-594.47 487.74,-594.47 487.74,-630.47"/>
<text xml:space="preserve" text-anchor="middle" x="460.74" y="-607.42" font-family="Times New Roman,serif" font-size="14.00">j&lt;5?</text>
</g>
<!-- node2&#45;&gt;node3 -->
<g id="edge5" class="edge">
<title>node2&#45;&gt;node3</title>
<path fill="none" stroke="black" d="M460.74,-702.44C460.74,-686.24 460.74,-661.53 460.74,-642.27"/>
<polygon fill="black" stroke="black" points="464.24,-642.33 460.74,-632.33 457.24,-642.33 464.24,-642.33"/>
</g>
<!-- exit -->
<g id="node17" class="node">
<title>exit</title>
<ellipse fill="none" stroke="black" cx="28.74" cy="-28.74" rx="24.74" ry="24.74"/>
<ellipse fill="none" stroke="black" cx="28.74" cy="-28.74" rx="28.74" ry="28.74"/>
<text xml:space="preserve" text-anchor="middle" x="28.74" y="-23.69" font-family="Times New Roman,serif" font-size="14.00">exit</text>
</g>
<!-- node14&#45;&gt;exit -->
<g id="edge21" class="edge">
<title>node14&#45;&gt;exit</title>
<path fill="none" stroke="black" d="M148.74,-661.13C100.18,-652.8 16.74,-629.69 16.74,-569.22 16.74,-569.22 16.74,-569.22 16.74,-111.47 16.74,-97.24 18.54,-81.77 20.75,-68.15"/>
<polygon fill="black" stroke="black" points="24.12,-69.15 22.41,-58.7 17.23,-67.94 24.12,-69.15"/>
</g>
<!-- node4 -->
<g id="node7" class="node">
<title>node4</title>
<polygon fill="none" stroke="black" points="428.74,-541.97 374.74,-541.97 374.74,-505.97 428.74,-505.97 428.74,-541.97"/>
<text xml:space="preserve" text-anchor="middle" x="401.74" y="-518.92" font-family="Times New Roman,serif" font-size="14.00">k=0</text>
</g>
<!-- node3&#45;&gt;node4 -->
<g id="edge6" class="edge">
<title>node3&#45;&gt;node4</title>
<path fill="none" stroke="black" d="M440.9,-594.04C435.57,-588.74 430.07,-582.67 425.74,-576.47 420.6,-569.14 416.09,-560.54 412.41,-552.48"/>
<polygon fill="black" stroke="black" points="415.67,-551.21 408.52,-543.4 409.24,-553.97 415.67,-551.21"/>
<text xml:space="preserve" text-anchor="middle" x="436.24" y="-563.17" font-family="Times New Roman,serif" font-size="14.00">true</text>
</g>
<!-- node13 -->
<g id="node8" class="node">
<title>node13</title>
<polygon fill="none" stroke="black" points="551.74,-541.97 497.74,-541.97 497.74,-505.97 551.74,-505.97 551.74,-541.97"/>
<text xml:space="preserve" text-anchor="middle" x="524.74" y="-518.92" font-family="Times New Roman,serif" font-size="14.00">i++</text>
</g>
<!-- node3&#45;&gt;node13 -->
<g id="edge7" class="edge">
<title>node3&#45;&gt;node13</title>
<path fill="none" stroke="black" d="M471.77,-593.98C478.33,-583.86 486.95,-570.98 495.24,-559.97 497.44,-557.05 499.8,-554.05 502.19,-551.09"/>
<polygon fill="black" stroke="black" points="504.69,-553.57 508.38,-543.64 499.3,-549.1 504.69,-553.57"/>
<text xml:space="preserve" text-anchor="middle" x="507.99" y="-563.17" font-family="Times New Roman,serif" font-size="14.00">false</text>
</g>
<!-- node5 -->
<g id="node9" class="node">
<title>node5</title>
<polygon fill="none" stroke="black" points="423.74,-468.97 369.74,-468.97 369.74,-432.97 423.74,-432.97 423.74,-468.97"/>
<text xml:space="preserve" text-anchor="middle" x="396.74" y="-445.92" font-family="Times New Roman,serif" font-size="14.00">k&lt;5?</text>
</g>
<!-- node4&#45;&gt;node5 -->
<g id="edge8" class="edge">
<title>node4&#45;&gt;node5</title>
<path fill="none" stroke="black" d="M400.53,-505.79C399.99,-498.11 399.34,-488.87 398.73,-480.22"/>
<polygon fill="black" stroke="black" points="402.24,-480.24 398.04,-470.51 395.25,-480.73 402.24,-480.24"/>
</g>
<!-- node13&#45;&gt;node1 -->
<g id="edge20" class="edge">
<title>node13&#45;&gt;node1</title>
<path fill="none" stroke="black" d="M523.61,-542.34C520.99,-578.98 513.37,-666.73 496.74,-738.47 493.1,-754.15 492.95,-758.59 485.74,-772.97 484.37,-775.7 482.81,-778.44 481.14,-781.13"/>
<polygon fill="black" stroke="black" points="478.37,-778.98 475.69,-789.23 484.18,-782.89 478.37,-778.98"/>
</g>
<!-- node6 -->
<g id="node10" class="node">
<title>node6</title>
<polygon fill="none" stroke="black" points="354.74,-380.47 300.74,-380.47 300.74,-344.47 354.74,-344.47 354.74,-380.47"/>
<text xml:space="preserve" text-anchor="middle" x="327.74" y="-357.42" font-family="Times New Roman,serif" font-size="14.00">l=0</text>
</g>
<!-- node5&#45;&gt;node6 -->
<g id="edge9" class="edge">
<title>node5&#45;&gt;node6</title>
<path fill="none" stroke="black" d="M370.11,-432.61C363.55,-427.48 356.92,-421.48 351.74,-414.97 346.16,-407.97 341.52,-399.47 337.85,-391.4"/>
<polygon fill="black" stroke="black" points="341.12,-390.14 334.04,-382.25 334.66,-392.83 341.12,-390.14"/>
<text xml:space="preserve" text-anchor="middle" x="362.24" y="-401.67" font-family="Times New Roman,serif" font-size="14.00">true</text>
</g>
<!-- node12 -->
<g id="node11" class="node">
<title>node12</title>
<polygon fill="none" stroke="black" points="477.74,-380.47 423.74,-380.47 423.74,-344.47 477.74,-344.47 477.74,-380.47"/>
<text xml:space="preserve" text-anchor="middle" x="450.74" y="-357.42" font-family="Times New Roman,serif" font-size="14.00">j++</text>
</g>
<!-- node5&#45;&gt;node12 -->
<g id="edge10" class="edge">
<title>node5&#45;&gt;node12</title>
<path fill="none" stroke="black" d="M403.64,-432.69C408.06,-422.41 414.27,-409.3 421.24,-398.47 423.11,-395.56 425.21,-392.63 427.39,-389.76"/>
<polygon fill="black" stroke="black" points="429.99,-392.11 433.55,-382.13 424.54,-387.71 429.99,-392.11"/>
<text xml:space="preserve" text-anchor="middle" x="433.99" y="-401.67" font-family="Times New Roman,serif" font-size="14.00">false</text>
</g>
<!-- node7 -->
<g id="node12" class="node">
<title>node7</title>
<polygon fill="none" stroke="black" points="349.74,-307.47 295.74,-307.47 295.74,-271.47 349.74,-271.47 349.74,-307.47"/>
<text xml:space="preserve" text-anchor="middle" x="322.74" y="-284.42" font-family="Times New Roman,serif" font-size="14.00">l&lt;5?</text>
</g>
<!-- node6&#45;&gt;node7 -->
<g id="edge11" class="edge">
<title>node6&#45;&gt;node7</title>
<path fill="none" stroke="black" d="M326.53,-344.29C325.99,-336.61 325.34,-327.37 324.73,-318.72"/>
<polygon fill="black" stroke="black" points="328.24,-318.74 324.04,-309.01 321.25,-319.23 328.24,-318.74"/>
</g>
<!-- node12&#45;&gt;node3 -->
<g id="edge19" class="edge">
<title>node12&#45;&gt;node3</title>
<path fill="none" stroke="black" d="M451.44,-380.89C453.14,-423.03 457.48,-530.8 459.58,-582.69"/>
<polygon fill="black" stroke="black" points="456.07,-582.67 459.97,-592.52 463.07,-582.39 456.07,-582.67"/>
</g>
<!-- node8 -->
<g id="node13" class="node">
<title>node8</title>
<polygon fill="none" stroke="black" points="284.49,-218.97 158.99,-218.97 158.99,-182.97 284.49,-182.97 284.49,-218.97"/>
<text xml:space="preserve" text-anchor="middle" x="221.74" y="-195.92" font-family="Times New Roman,serif" font-size="14.00">keys[i][j][k][l] == x</text>
</g>
<!-- node7&#45;&gt;node8 -->
<g id="edge12" class="edge">
<title>node7&#45;&gt;node8</title>
<path fill="none" stroke="black" d="M299.55,-271.03C292.45,-265.53 284.69,-259.36 277.74,-253.47 267.8,-245.07 257.22,-235.51 247.96,-226.92"/>
<polygon fill="black" stroke="black" points="250.36,-224.37 240.66,-220.09 245.58,-229.48 250.36,-224.37"/>
<text xml:space="preserve" text-anchor="middle" x="288.24" y="-240.17" font-family="Times New Roman,serif" font-size="14.00">true</text>
</g>
<!-- node11 -->
<g id="node14" class="node">
<title>node11</title>
<polygon fill="none" stroke="black" points="403.74,-218.97 349.74,-218.97 349.74,-182.97 403.74,-182.97 403.74,-218.97"/>
<text xml:space="preserve" text-anchor="middle" x="376.74" y="-195.92" font-family="Times New Roman,serif" font-size="14.00">k++</text>
</g>
<!-- node7&#45;&gt;node11 -->
<g id="edge13" class="edge">
<title>node7&#45;&gt;node11</title>
<path fill="none" stroke="black" d="M329.64,-271.19C334.06,-260.91 340.27,-247.8 347.24,-236.97 349.11,-234.06 351.21,-231.13 353.39,-228.26"/>
<polygon fill="black" stroke="black" points="355.99,-230.61 359.55,-220.63 350.54,-226.21 355.99,-230.61"/>
<text xml:space="preserve" text-anchor="middle" x="359.99" y="-240.17" font-family="Times New Roman,serif" font-size="14.00">false</text>
</g>
<!-- node9 -->
<g id="node15" class="node">
<title>node9</title>
<polygon fill="none" stroke="black" points="286.99,-130.47 44.49,-130.47 44.49,-94.47 286.99,-94.47 286.99,-130.47"/>
<text xml:space="preserve" text-anchor="middle" x="165.74" y="-107.42" font-family="Times New Roman,serif" font-size="14.00">return answer[i][j][k][l] + keys[i][j][k][l];</text>
</g>
<!-- node8&#45;&gt;node9 -->
<g id="edge14" class="edge">
<title>node8&#45;&gt;node9</title>
<path fill="none" stroke="black" d="M210.67,-182.89C202.82,-170.76 192.13,-154.25 183.15,-140.37"/>
<polygon fill="black" stroke="black" points="186.17,-138.59 177.79,-132.1 180.29,-142.39 186.17,-138.59"/>
<text xml:space="preserve" text-anchor="middle" x="209.25" y="-151.67" font-family="Times New Roman,serif" font-size="14.00">true</text>
</g>
<!-- node10 -->
<g id="node16" class="node">
<title>node10</title>
<polygon fill="none" stroke="black" points="358.74,-130.47 304.74,-130.47 304.74,-94.47 358.74,-94.47 358.74,-130.47"/>
<text xml:space="preserve" text-anchor="middle" x="331.74" y="-107.42" font-family="Times New Roman,serif" font-size="14.00">l++</text>
</g>
<!-- node8&#45;&gt;node10 -->
<g id="edge15" class="edge">
<title>node8&#45;&gt;node10</title>
<path fill="none" stroke="black" d="M237.02,-182.66C246.79,-172.11 260.08,-158.74 273.24,-148.47 279.85,-143.32 287.28,-138.34 294.56,-133.83"/>
<polygon fill="black" stroke="black" points="296.24,-136.91 303.03,-128.78 292.65,-130.9 296.24,-136.91"/>
<text xml:space="preserve" text-anchor="middle" x="285.99" y="-151.67" font-family="Times New Roman,serif" font-size="14.00">false</text>
</g>
<!-- node11&#45;&gt;node5 -->
<g id="edge18" class="edge">
<title>node11&#45;&gt;node5</title>
<path fill="none" stroke="black" d="M378.14,-219.39C381.54,-261.53 390.23,-369.3 394.42,-421.19"/>
<polygon fill="black" stroke="black" points="390.92,-421.34 395.21,-431.03 397.89,-420.78 390.92,-421.34"/>
</g>
<!-- node9&#45;&gt;exit -->
<g id="edge16" class="edge">
<title>node9&#45;&gt;exit</title>
<path fill="none" stroke="black" d="M136.68,-94.14C115.06,-81.24 85.49,-63.6 62.76,-50.04"/>
<polygon fill="black" stroke="black" points="64.85,-47.21 54.47,-45.09 61.27,-53.22 64.85,-47.21"/>
</g>
<!-- node10&#45;&gt;node7 -->
<g id="edge17" class="edge">
<title>node10&#45;&gt;node7</title>
<path fill="none" stroke="black" d="M330.85,-130.82C329.3,-160.91 326.1,-223.05 324.22,-259.69"/>
<polygon fill="black" stroke="black" points="320.73,-259.38 323.71,-269.54 327.72,-259.74 320.73,-259.38"/>
</g>
</g>
</svg>
