<?xml version="1.0" encoding="UTF-8" standalone="no"?>
<!DOCTYPE svg PUBLIC "-//W3C//DTD SVG 1.1//EN"
 "http://www.w3.org/Graphics/SVG/1.1/DTD/svg11.dtd">
<!-- Generated by graphviz version 13.1.2 (20250808.2320)
 -->
<!-- Title: foo_DFG Pages: 1 -->
<svg width="317pt" height="260pt"
 viewBox="0.00 0.00 317.00 260.00" xmlns="http://www.w3.org/2000/svg" xmlns:xlink="http://www.w3.org/1999/xlink">
<g id="graph0" class="graph" transform="scale(1 1) rotate(0) translate(4 256)">
<title>foo_DFG</title>
<polygon fill="white" stroke="none" points="-4,4 -4,-256 313.12,-256 313.12,4 -4,4"/>
<!-- i -->
<g id="node1" class="node">
<title>i</title>
<ellipse fill="none" stroke="black" cx="27" cy="-234" rx="27" ry="18"/>
<text xml:space="preserve" text-anchor="middle" x="27" y="-228.95" font-family="Times New Roman,serif" font-size="14.00">i</text>
</g>
<!-- keys_access -->
<g id="node6" class="node">
<title>keys_access</title>
<polygon fill="none" stroke="black" points="182.38,-180 87.62,-180 87.62,-144 182.38,-144 182.38,-180"/>
<text xml:space="preserve" text-anchor="middle" x="135" y="-156.95" font-family="Times New Roman,serif" font-size="14.00">keys[i][j][k][l]</text>
</g>
<!-- i&#45;&gt;keys_access -->
<g id="edge1" class="edge">
<title>i&#45;&gt;keys_access</title>
<path fill="none" stroke="black" d="M45.81,-220.81C60.4,-211.35 81.04,-197.97 98.8,-186.46"/>
<polygon fill="black" stroke="black" points="100.55,-189.5 107.04,-181.12 96.75,-183.62 100.55,-189.5"/>
</g>
<!-- j -->
<g id="node2" class="node">
<title>j</title>
<ellipse fill="none" stroke="black" cx="99" cy="-234" rx="27" ry="18"/>
<text xml:space="preserve" text-anchor="middle" x="99" y="-228.95" font-family="Times New Roman,serif" font-size="14.00">j</text>
</g>
<!-- j&#45;&gt;keys_access -->
<g id="edge2" class="edge">
<title>j&#45;&gt;keys_access</title>
<path fill="none" stroke="black" d="M107.35,-216.76C111.41,-208.87 116.4,-199.16 121.02,-190.18"/>
<polygon fill="black" stroke="black" points="124.04,-191.96 125.5,-181.47 117.82,-188.76 124.04,-191.96"/>
</g>
<!-- k -->
<g id="node3" class="node">
<title>k</title>
<ellipse fill="none" stroke="black" cx="171" cy="-234" rx="27" ry="18"/>
<text xml:space="preserve" text-anchor="middle" x="171" y="-228.95" font-family="Times New Roman,serif" font-size="14.00">k</text>
</g>
<!-- k&#45;&gt;keys_access -->
<g id="edge3" class="edge">
<title>k&#45;&gt;keys_access</title>
<path fill="none" stroke="black" d="M162.65,-216.76C158.59,-208.87 153.6,-199.16 148.98,-190.18"/>
<polygon fill="black" stroke="black" points="152.18,-188.76 144.5,-181.47 145.96,-191.96 152.18,-188.76"/>
</g>
<!-- l -->
<g id="node4" class="node">
<title>l</title>
<ellipse fill="none" stroke="black" cx="243" cy="-234" rx="27" ry="18"/>
<text xml:space="preserve" text-anchor="middle" x="243" y="-228.95" font-family="Times New Roman,serif" font-size="14.00">l</text>
</g>
<!-- l&#45;&gt;keys_access -->
<g id="edge4" class="edge">
<title>l&#45;&gt;keys_access</title>
<path fill="none" stroke="black" d="M224.19,-220.81C209.6,-211.35 188.96,-197.97 171.2,-186.46"/>
<polygon fill="black" stroke="black" points="173.25,-183.62 162.96,-181.12 169.45,-189.5 173.25,-183.62"/>
</g>
<!-- x -->
<g id="node5" class="node">
<title>x</title>
<ellipse fill="none" stroke="black" cx="43" cy="-162" rx="27" ry="18"/>
<text xml:space="preserve" text-anchor="middle" x="43" y="-156.95" font-family="Times New Roman,serif" font-size="14.00">x</text>
</g>
<!-- cond -->
<g id="node8" class="node">
<title>cond</title>
<polygon fill="none" stroke="black" points="121,-108 67,-108 67,-72 121,-72 121,-108"/>
<text xml:space="preserve" text-anchor="middle" x="94" y="-84.95" font-family="Times New Roman,serif" font-size="14.00">==</text>
</g>
<!-- x&#45;&gt;cond -->
<g id="edge6" class="edge">
<title>x&#45;&gt;cond</title>
<path fill="none" stroke="black" d="M54.32,-145.46C60.31,-137.25 67.82,-126.93 74.7,-117.5"/>
<polygon fill="black" stroke="black" points="77.33,-119.83 80.39,-109.68 71.67,-115.71 77.33,-119.83"/>
</g>
<!-- keys_access&#45;&gt;cond -->
<g id="edge5" class="edge">
<title>keys_access&#45;&gt;cond</title>
<path fill="none" stroke="black" d="M124.87,-143.7C120.3,-135.9 114.8,-126.51 109.71,-117.83"/>
<polygon fill="black" stroke="black" points="112.86,-116.27 104.78,-109.41 106.82,-119.81 112.86,-116.27"/>
</g>
<!-- add -->
<g id="node9" class="node">
<title>add</title>
<polygon fill="none" stroke="black" points="203,-108 149,-108 149,-72 203,-72 203,-108"/>
<text xml:space="preserve" text-anchor="middle" x="176" y="-84.95" font-family="Times New Roman,serif" font-size="14.00">+</text>
</g>
<!-- keys_access&#45;&gt;add -->
<g id="edge7" class="edge">
<title>keys_access&#45;&gt;add</title>
<path fill="none" stroke="black" d="M145.13,-143.7C149.7,-135.9 155.2,-126.51 160.29,-117.83"/>
<polygon fill="black" stroke="black" points="163.18,-119.81 165.22,-109.41 157.14,-116.27 163.18,-119.81"/>
</g>
<!-- answer_access -->
<g id="node7" class="node">
<title>answer_access</title>
<polygon fill="none" stroke="black" points="309.12,-180 200.88,-180 200.88,-144 309.12,-144 309.12,-180"/>
<text xml:space="preserve" text-anchor="middle" x="255" y="-156.95" font-family="Times New Roman,serif" font-size="14.00">answer[i][j][k][l]</text>
</g>
<!-- answer_access&#45;&gt;add -->
<g id="edge8" class="edge">
<title>answer_access&#45;&gt;add</title>
<path fill="none" stroke="black" d="M235.47,-143.7C225.98,-135.28 214.39,-125.02 203.98,-115.79"/>
<polygon fill="black" stroke="black" points="206.52,-113.36 196.71,-109.35 201.87,-118.6 206.52,-113.36"/>
</g>
<!-- return_val -->
<g id="node10" class="node">
<title>return_val</title>
<ellipse fill="none" stroke="black" cx="176" cy="-18" rx="55.45" ry="18"/>
<text xml:space="preserve" text-anchor="middle" x="176" y="-12.95" font-family="Times New Roman,serif" font-size="14.00">return value</text>
</g>
<!-- add&#45;&gt;return_val -->
<g id="edge9" class="edge">
<title>add&#45;&gt;return_val</title>
<path fill="none" stroke="black" d="M176,-71.7C176,-64.41 176,-55.73 176,-47.54"/>
<polygon fill="black" stroke="black" points="179.5,-47.62 176,-37.62 172.5,-47.62 179.5,-47.62"/>
</g>
</g>
</svg>
