<?xml version="1.0" encoding="UTF-8" standalone="no"?>
<!DOCTYPE svg PUBLIC "-//W3C//DTD SVG 1.1//EN"
 "http://www.w3.org/Graphics/SVG/1.1/DTD/svg11.dtd">
<!-- Generated by graphviz version 13.1.2 (20250808.2320)
 -->
<!-- Title: main_DFG Pages: 1 -->
<svg width="71pt" height="188pt"
 viewBox="0.00 0.00 71.00 188.00" xmlns="http://www.w3.org/2000/svg" xmlns:xlink="http://www.w3.org/1999/xlink">
<g id="graph0" class="graph" transform="scale(1 1) rotate(0) translate(4 184)">
<title>main_DFG</title>
<polygon fill="white" stroke="none" points="-4,4 -4,-184 67.25,-184 67.25,4 -4,4"/>
<!-- constant_400 -->
<g id="node1" class="node">
<title>constant_400</title>
<ellipse fill="none" stroke="black" cx="31.62" cy="-162" rx="27" ry="18"/>
<text xml:space="preserve" text-anchor="middle" x="31.62" y="-156.95" font-family="Times New Roman,serif" font-size="14.00">400</text>
</g>
<!-- foo_call -->
<g id="node2" class="node">
<title>foo_call</title>
<polygon fill="none" stroke="black" points="63.25,-108 0,-108 0,-72 63.25,-72 63.25,-108"/>
<text xml:space="preserve" text-anchor="middle" x="31.62" y="-84.95" font-family="Times New Roman,serif" font-size="14.00">foo(400)</text>
</g>
<!-- constant_400&#45;&gt;foo_call -->
<g id="edge1" class="edge">
<title>constant_400&#45;&gt;foo_call</title>
<path fill="none" stroke="black" d="M31.62,-143.7C31.62,-136.41 31.62,-127.73 31.62,-119.54"/>
<polygon fill="black" stroke="black" points="35.13,-119.62 31.63,-109.62 28.13,-119.62 35.13,-119.62"/>
</g>
<!-- printf_call -->
<g id="node3" class="node">
<title>printf_call</title>
<polygon fill="none" stroke="black" points="58.62,-36 4.62,-36 4.62,0 58.62,0 58.62,-36"/>
<text xml:space="preserve" text-anchor="middle" x="31.62" y="-12.95" font-family="Times New Roman,serif" font-size="14.00">printf</text>
</g>
<!-- foo_call&#45;&gt;printf_call -->
<g id="edge2" class="edge">
<title>foo_call&#45;&gt;printf_call</title>
<path fill="none" stroke="black" d="M31.62,-71.7C31.62,-64.41 31.62,-55.73 31.62,-47.54"/>
<polygon fill="black" stroke="black" points="35.13,-47.62 31.63,-37.62 28.13,-47.62 35.13,-47.62"/>
</g>
</g>
</svg>
