<?xml version="1.0" encoding="UTF-8" standalone="no"?>
<!DOCTYPE svg PUBLIC "-//W3C//DTD SVG 1.1//EN"
 "http://www.w3.org/Graphics/SVG/1.1/DTD/svg11.dtd">
<!-- Generated by graphviz version 13.1.2 (20250808.2320)
 -->
<!-- Title: main_CFG Pages: 1 -->
<svg width="155pt" height="281pt"
 viewBox="0.00 0.00 155.00 281.00" xmlns="http://www.w3.org/2000/svg" xmlns:xlink="http://www.w3.org/1999/xlink">
<g id="graph0" class="graph" transform="scale(1 1) rotate(0) translate(4 277.47)">
<title>main_CFG</title>
<polygon fill="white" stroke="none" points="-4,4 -4,-277.47 150.5,-277.47 150.5,4 -4,4"/>
<!-- entry -->
<g id="node1" class="node">
<title>entry</title>
<polygon fill="none" stroke="black" points="100.25,-273.47 46.25,-273.47 46.25,-237.47 100.25,-237.47 100.25,-273.47"/>
<text xml:space="preserve" text-anchor="middle" x="73.25" y="-250.42" font-family="Times New Roman,serif" font-size="14.00">entry</text>
</g>
<!-- node0 -->
<g id="node2" class="node">
<title>node0</title>
<polygon fill="none" stroke="black" points="104.88,-201.47 41.62,-201.47 41.62,-165.47 104.88,-165.47 104.88,-201.47"/>
<text xml:space="preserve" text-anchor="middle" x="73.25" y="-178.42" font-family="Times New Roman,serif" font-size="14.00">foo(400)</text>
</g>
<!-- entry&#45;&gt;node0 -->
<g id="edge1" class="edge">
<title>entry&#45;&gt;node0</title>
<path fill="none" stroke="black" d="M73.25,-237.17C73.25,-229.88 73.25,-221.2 73.25,-213.01"/>
<polygon fill="black" stroke="black" points="76.75,-213.09 73.25,-203.09 69.75,-213.09 76.75,-213.09"/>
</g>
<!-- node1 -->
<g id="node3" class="node">
<title>node1</title>
<polygon fill="none" stroke="black" points="146.5,-129.47 0,-129.47 0,-93.47 146.5,-93.47 146.5,-129.47"/>
<text xml:space="preserve" text-anchor="middle" x="73.25" y="-106.42" font-family="Times New Roman,serif" font-size="14.00">printf (if TEST defined)</text>
</g>
<!-- node0&#45;&gt;node1 -->
<g id="edge2" class="edge">
<title>node0&#45;&gt;node1</title>
<path fill="none" stroke="black" d="M73.25,-165.17C73.25,-157.88 73.25,-149.2 73.25,-141.01"/>
<polygon fill="black" stroke="black" points="76.75,-141.09 73.25,-131.09 69.75,-141.09 76.75,-141.09"/>
</g>
<!-- exit -->
<g id="node4" class="node">
<title>exit</title>
<ellipse fill="none" stroke="black" cx="73.25" cy="-28.74" rx="24.74" ry="24.74"/>
<ellipse fill="none" stroke="black" cx="73.25" cy="-28.74" rx="28.74" ry="28.74"/>
<text xml:space="preserve" text-anchor="middle" x="73.25" y="-23.69" font-family="Times New Roman,serif" font-size="14.00">exit</text>
</g>
<!-- node1&#45;&gt;exit -->
<g id="edge3" class="edge">
<title>node1&#45;&gt;exit</title>
<path fill="none" stroke="black" d="M73.25,-93.35C73.25,-86.29 73.25,-77.78 73.25,-69.32"/>
<polygon fill="black" stroke="black" points="76.75,-69.47 73.25,-59.47 69.75,-69.47 76.75,-69.47"/>
</g>
</g>
</svg>
