<?xml version="1.0" encoding="UTF-8" standalone="no"?>
<!DOCTYPE svg PUBLIC "-//W3C//DTD SVG 1.1//EN"
 "http://www.w3.org/Graphics/SVG/1.1/DTD/svg11.dtd">
<!-- Generated by graphviz version 13.1.2 (20250808.2320)
 -->
<!-- Title: Initialize Pages: 1 -->
<svg width="529pt" height="513pt"
 viewBox="0.00 0.00 529.00 513.00" xmlns="http://www.w3.org/2000/svg" xmlns:xlink="http://www.w3.org/1999/xlink">
<g id="graph0" class="graph" transform="scale(1 1) rotate(0) translate(4 509)">
<title>Initialize</title>
<polygon fill="white" stroke="none" points="-4,4 -4,-509 525.38,-509 525.38,4 -4,4"/>
<!-- start -->
<g id="node1" class="node">
<title>start</title>
<ellipse fill="none" stroke="black" cx="424.88" cy="-487" rx="28.32" ry="18"/>
<text xml:space="preserve" text-anchor="middle" x="424.88" y="-481.95" font-family="Times New Roman,serif" font-size="14.00">Start</text>
</g>
<!-- outer_loop -->
<g id="node3" class="node">
<title>outer_loop</title>
<polygon fill="none" stroke="black" points="424.88,-432 328.37,-414 424.87,-396 521.38,-414 424.88,-432"/>
<text xml:space="preserve" text-anchor="middle" x="424.88" y="-408.95" font-family="Times New Roman,serif" font-size="14.00">OuterIndex = 0</text>
</g>
<!-- start&#45;&gt;outer_loop -->
<g id="edge1" class="edge">
<title>start&#45;&gt;outer_loop</title>
<path fill="none" stroke="black" d="M424.88,-468.81C424.88,-461.23 424.88,-452.1 424.88,-443.54"/>
<polygon fill="black" stroke="black" points="428.38,-443.54 424.88,-433.54 421.38,-443.54 428.38,-443.54"/>
</g>
<!-- end -->
<g id="node2" class="node">
<title>end</title>
<ellipse fill="none" stroke="black" cx="481.88" cy="-179.5" rx="27" ry="18"/>
<text xml:space="preserve" text-anchor="middle" x="481.88" y="-174.45" font-family="Times New Roman,serif" font-size="14.00">End</text>
</g>
<!-- outer_cond -->
<g id="node4" class="node">
<title>outer_cond</title>
<polygon fill="none" stroke="black" points="501.88,-359 347.88,-359 347.88,-323 501.88,-323 501.88,-359"/>
<text xml:space="preserve" text-anchor="middle" x="424.88" y="-335.95" font-family="Times New Roman,serif" font-size="14.00">OuterIndex &lt; MAXSIZE</text>
</g>
<!-- outer_loop&#45;&gt;outer_cond -->
<g id="edge2" class="edge">
<title>outer_loop&#45;&gt;outer_cond</title>
<path fill="none" stroke="black" d="M424.88,-395.81C424.88,-388.23 424.88,-379.1 424.88,-370.54"/>
<polygon fill="black" stroke="black" points="428.38,-370.54 424.88,-360.54 421.38,-370.54 428.38,-370.54"/>
</g>
<!-- inner_loop -->
<g id="node5" class="node">
<title>inner_loop</title>
<polygon fill="none" stroke="black" points="302.88,-270.5 208.54,-252.5 302.87,-234.5 397.21,-252.5 302.88,-270.5"/>
<text xml:space="preserve" text-anchor="middle" x="302.88" y="-247.45" font-family="Times New Roman,serif" font-size="14.00">InnerIndex = 0</text>
</g>
<!-- outer_cond&#45;&gt;inner_loop -->
<g id="edge3" class="edge">
<title>outer_cond&#45;&gt;inner_loop</title>
<path fill="none" stroke="black" d="M400.48,-322.7C380.55,-308.57 352.35,-288.58 331.38,-273.71"/>
<polygon fill="black" stroke="black" points="333.44,-270.88 323.26,-267.95 329.39,-276.59 333.44,-270.88"/>
<text xml:space="preserve" text-anchor="middle" x="387.55" y="-291.7" font-family="Times New Roman,serif" font-size="14.00">True</text>
</g>
<!-- return -->
<g id="node10" class="node">
<title>return</title>
<polygon fill="none" stroke="black" points="511.25,-270.5 452.5,-270.5 452.5,-234.5 511.25,-234.5 511.25,-270.5"/>
<text xml:space="preserve" text-anchor="middle" x="481.88" y="-247.45" font-family="Times New Roman,serif" font-size="14.00">return 0</text>
</g>
<!-- outer_cond&#45;&gt;return -->
<g id="edge4" class="edge">
<title>outer_cond&#45;&gt;return</title>
<path fill="none" stroke="black" d="M436.14,-322.91C444.13,-310.79 455.01,-294.27 464.16,-280.39"/>
<polygon fill="black" stroke="black" points="467.03,-282.39 469.61,-272.11 461.18,-278.54 467.03,-282.39"/>
<text xml:space="preserve" text-anchor="middle" x="472.73" y="-291.7" font-family="Times New Roman,serif" font-size="14.00">False</text>
</g>
<!-- inner_cond -->
<g id="node6" class="node">
<title>inner_cond</title>
<polygon fill="none" stroke="black" points="391.75,-197.5 240,-197.5 240,-161.5 391.75,-161.5 391.75,-197.5"/>
<text xml:space="preserve" text-anchor="middle" x="315.88" y="-174.45" font-family="Times New Roman,serif" font-size="14.00">InnerIndex &lt; MAXSIZE</text>
</g>
<!-- inner_loop&#45;&gt;inner_cond -->
<g id="edge5" class="edge">
<title>inner_loop&#45;&gt;inner_cond</title>
<path fill="none" stroke="black" d="M305.96,-234.67C307.35,-227.06 309.04,-217.85 310.62,-209.2"/>
<polygon fill="black" stroke="black" points="314.05,-209.9 312.41,-199.44 307.16,-208.64 314.05,-209.9"/>
</g>
<!-- assign -->
<g id="node7" class="node">
<title>assign</title>
<polygon fill="none" stroke="black" points="295.75,-109 0,-109 0,-73 295.75,-73 295.75,-109"/>
<text xml:space="preserve" text-anchor="middle" x="147.88" y="-85.95" font-family="Times New Roman,serif" font-size="14.00">Array[OuterIndex][InnerIndex] = RandomInteger()</text>
</g>
<!-- inner_cond&#45;&gt;assign -->
<g id="edge6" class="edge">
<title>inner_cond&#45;&gt;assign</title>
<path fill="none" stroke="black" d="M282.28,-161.2C256.27,-147.81 220.03,-129.15 191.73,-114.58"/>
<polygon fill="black" stroke="black" points="193.54,-111.57 183.04,-110.11 190.33,-117.8 193.54,-111.57"/>
<text xml:space="preserve" text-anchor="middle" x="259.67" y="-130.2" font-family="Times New Roman,serif" font-size="14.00">True</text>
</g>
<!-- inc_outer -->
<g id="node9" class="node">
<title>inc_outer</title>
<polygon fill="none" stroke="black" points="458.88,-109 364.88,-109 364.88,-73 458.88,-73 458.88,-109"/>
<text xml:space="preserve" text-anchor="middle" x="411.88" y="-85.95" font-family="Times New Roman,serif" font-size="14.00">OuterIndex++</text>
</g>
<!-- inner_cond&#45;&gt;inc_outer -->
<g id="edge7" class="edge">
<title>inner_cond&#45;&gt;inc_outer</title>
<path fill="none" stroke="black" d="M334.84,-161.41C348.95,-148.7 368.42,-131.16 384.25,-116.89"/>
<polygon fill="black" stroke="black" points="386.41,-119.66 391.49,-110.36 381.72,-114.46 386.41,-119.66"/>
<text xml:space="preserve" text-anchor="middle" x="386.72" y="-130.2" font-family="Times New Roman,serif" font-size="14.00">False</text>
</g>
<!-- inc_inner -->
<g id="node8" class="node">
<title>inc_inner</title>
<polygon fill="none" stroke="black" points="281.75,-36 190,-36 190,0 281.75,0 281.75,-36"/>
<text xml:space="preserve" text-anchor="middle" x="235.88" y="-12.95" font-family="Times New Roman,serif" font-size="14.00">InnerIndex++</text>
</g>
<!-- assign&#45;&gt;inc_inner -->
<g id="edge8" class="edge">
<title>assign&#45;&gt;inc_inner</title>
<path fill="none" stroke="black" d="M169.18,-72.81C180.12,-63.98 193.65,-53.07 205.65,-43.39"/>
<polygon fill="black" stroke="black" points="207.7,-46.23 213.29,-37.23 203.31,-40.78 207.7,-46.23"/>
</g>
<!-- inc_inner&#45;&gt;inner_cond -->
<g id="edge9" class="edge">
<title>inc_inner&#45;&gt;inner_cond</title>
<path fill="none" stroke="black" d="M268.26,-36.41C281.88,-45.46 296.48,-57.83 304.88,-73 317.89,-96.52 319.64,-127.52 318.74,-149.82"/>
<polygon fill="black" stroke="black" points="315.25,-149.5 318.11,-159.7 322.24,-149.94 315.25,-149.5"/>
</g>
<!-- inc_outer&#45;&gt;outer_cond -->
<g id="edge10" class="edge">
<title>inc_outer&#45;&gt;outer_cond</title>
<path fill="none" stroke="black" d="M412.79,-109.42C415,-151.55 420.65,-259.32 423.37,-311.22"/>
<polygon fill="black" stroke="black" points="419.86,-311.25 423.88,-321.05 426.85,-310.88 419.86,-311.25"/>
</g>
<!-- return&#45;&gt;end -->
<g id="edge11" class="edge">
<title>return&#45;&gt;end</title>
<path fill="none" stroke="black" d="M481.88,-234.31C481.88,-226.73 481.88,-217.6 481.88,-209.04"/>
<polygon fill="black" stroke="black" points="485.38,-209.04 481.88,-199.04 478.38,-209.04 485.38,-209.04"/>
</g>
</g>
</svg>
