<?xml version="1.0" encoding="UTF-8" standalone="no"?>
<!DOCTYPE svg PUBLIC "-//W3C//DTD SVG 1.1//EN"
 "http://www.w3.org/Graphics/SVG/1.1/DTD/svg11.dtd">
<!-- Generated by graphviz version 13.1.2 (20250808.2320)
 -->
<!-- Title: CFG_main Pages: 1 -->
<svg width="93pt" height="260pt"
 viewBox="0.00 0.00 93.00 260.00" xmlns="http://www.w3.org/2000/svg" xmlns:xlink="http://www.w3.org/1999/xlink">
<g id="graph0" class="graph" transform="scale(1 1) rotate(0) translate(4 256)">
<title>CFG_main</title>
<polygon fill="white" stroke="none" points="-4,4 -4,-256 89.3,-256 89.3,4 -4,4"/>
<!-- start -->
<g id="node1" class="node">
<title>start</title>
<ellipse fill="none" stroke="black" cx="42.65" cy="-234" rx="32.41" ry="18"/>
<text xml:space="preserve" text-anchor="middle" x="42.65" y="-228.95" font-family="Times New Roman,serif" font-size="14.00">Inicio</text>
</g>
<!-- n1 -->
<g id="node2" class="node">
<title>n1</title>
<polygon fill="none" stroke="black" points="77.65,-180 7.65,-180 7.65,-144 77.65,-144 77.65,-180"/>
<text xml:space="preserve" text-anchor="middle" x="42.65" y="-156.95" font-family="Times New Roman,serif" font-size="14.00">InitSeed()</text>
</g>
<!-- start&#45;&gt;n1 -->
<g id="edge1" class="edge">
<title>start&#45;&gt;n1</title>
<path fill="none" stroke="black" d="M42.65,-215.7C42.65,-208.41 42.65,-199.73 42.65,-191.54"/>
<polygon fill="black" stroke="black" points="46.15,-191.62 42.65,-181.62 39.15,-191.62 46.15,-191.62"/>
</g>
<!-- n2 -->
<g id="node3" class="node">
<title>n2</title>
<polygon fill="none" stroke="black" points="82.15,-108 3.15,-108 3.15,-72 82.15,-72 82.15,-108"/>
<text xml:space="preserve" text-anchor="middle" x="42.65" y="-84.95" font-family="Times New Roman,serif" font-size="14.00">Test(Array)</text>
</g>
<!-- n1&#45;&gt;n2 -->
<g id="edge2" class="edge">
<title>n1&#45;&gt;n2</title>
<path fill="none" stroke="black" d="M42.65,-143.7C42.65,-136.41 42.65,-127.73 42.65,-119.54"/>
<polygon fill="black" stroke="black" points="46.15,-119.62 42.65,-109.62 39.15,-119.62 46.15,-119.62"/>
</g>
<!-- end -->
<g id="node4" class="node">
<title>end</title>
<ellipse fill="none" stroke="black" cx="42.65" cy="-18" rx="42.65" ry="18"/>
<text xml:space="preserve" text-anchor="middle" x="42.65" y="-12.95" font-family="Times New Roman,serif" font-size="14.00">return 1;</text>
</g>
<!-- n2&#45;&gt;end -->
<g id="edge3" class="edge">
<title>n2&#45;&gt;end</title>
<path fill="none" stroke="black" d="M42.65,-71.7C42.65,-64.41 42.65,-55.73 42.65,-47.54"/>
<polygon fill="black" stroke="black" points="46.15,-47.62 42.65,-37.62 39.15,-47.62 46.15,-47.62"/>
</g>
</g>
</svg>
