<?xml version="1.0" encoding="UTF-8" standalone="no"?>
<!DOCTYPE svg PUBLIC "-//W3C//DTD SVG 1.1//EN"
 "http://www.w3.org/Graphics/SVG/1.1/DTD/svg11.dtd">
<!-- Generated by graphviz version 13.1.2 (20250808.2320)
 -->
<!-- Title: CFG_Sum Pages: 1 -->
<svg width="1010pt" height="675pt"
 viewBox="0.00 0.00 1010.00 675.00" xmlns="http://www.w3.org/2000/svg" xmlns:xlink="http://www.w3.org/1999/xlink">
<g id="graph0" class="graph" transform="scale(1 1) rotate(0) translate(4 670.5)">
<title>CFG_Sum</title>
<polygon fill="white" stroke="none" points="-4,4 -4,-670.5 1005.75,-670.5 1005.75,4 -4,4"/>
<!-- start -->
<g id="node1" class="node">
<title>start</title>
<ellipse fill="none" stroke="black" cx="591.75" cy="-648.5" rx="32.41" ry="18"/>
<text xml:space="preserve" text-anchor="middle" x="591.75" y="-643.45" font-family="Times New Roman,serif" font-size="14.00">Inicio</text>
</g>
<!-- n1 -->
<g id="node2" class="node">
<title>n1</title>
<polygon fill="none" stroke="black" points="713.75,-593.5 469.75,-593.5 469.75,-557.5 713.75,-557.5 713.75,-593.5"/>
<text xml:space="preserve" text-anchor="middle" x="591.75" y="-570.45" font-family="Times New Roman,serif" font-size="14.00">Ptotal = 0, Ntotal = 0, Pcnt = 0, Ncnt = 0</text>
</g>
<!-- start&#45;&gt;n1 -->
<g id="edge1" class="edge">
<title>start&#45;&gt;n1</title>
<path fill="none" stroke="black" d="M591.75,-630.31C591.75,-622.73 591.75,-613.6 591.75,-605.04"/>
<polygon fill="black" stroke="black" points="595.25,-605.04 591.75,-595.04 588.25,-605.04 595.25,-605.04"/>
</g>
<!-- n2 -->
<g id="node3" class="node">
<title>n2</title>
<polygon fill="none" stroke="black" points="626.38,-520.5 557.12,-520.5 557.12,-484.5 626.38,-484.5 626.38,-520.5"/>
<text xml:space="preserve" text-anchor="middle" x="591.75" y="-497.45" font-family="Times New Roman,serif" font-size="14.00">Outer = 0</text>
</g>
<!-- n1&#45;&gt;n2 -->
<g id="edge2" class="edge">
<title>n1&#45;&gt;n2</title>
<path fill="none" stroke="black" d="M591.75,-557.31C591.75,-549.73 591.75,-540.6 591.75,-532.04"/>
<polygon fill="black" stroke="black" points="595.25,-532.04 591.75,-522.04 588.25,-532.04 595.25,-532.04"/>
</g>
<!-- n3 -->
<g id="node4" class="node">
<title>n3</title>
<polygon fill="none" stroke="black" points="656.38,-447.5 527.12,-447.5 527.12,-411.5 656.38,-411.5 656.38,-447.5"/>
<text xml:space="preserve" text-anchor="middle" x="591.75" y="-424.45" font-family="Times New Roman,serif" font-size="14.00">Outer &lt; MAXSIZE?</text>
</g>
<!-- n2&#45;&gt;n3 -->
<g id="edge3" class="edge">
<title>n2&#45;&gt;n3</title>
<path fill="none" stroke="black" d="M591.75,-484.31C591.75,-476.73 591.75,-467.6 591.75,-459.04"/>
<polygon fill="black" stroke="black" points="595.25,-459.04 591.75,-449.04 588.25,-459.04 595.25,-459.04"/>
</g>
<!-- n4 -->
<g id="node5" class="node">
<title>n4</title>
<polygon fill="none" stroke="black" points="556.25,-359 489.25,-359 489.25,-323 556.25,-323 556.25,-359"/>
<text xml:space="preserve" text-anchor="middle" x="522.75" y="-335.95" font-family="Times New Roman,serif" font-size="14.00">Inner = 0</text>
</g>
<!-- n3&#45;&gt;n4 -->
<g id="edge4" class="edge">
<title>n3&#45;&gt;n4</title>
<path fill="none" stroke="black" d="M571.92,-411.16C566.24,-405.76 560.25,-399.62 555.25,-393.5 549.14,-386.01 543.25,-377.31 538.2,-369.21"/>
<polygon fill="black" stroke="black" points="541.24,-367.47 533.08,-360.71 535.24,-371.08 541.24,-367.47"/>
<text xml:space="preserve" text-anchor="middle" x="566.5" y="-380.2" font-family="Times New Roman,serif" font-size="14.00">Sim</text>
</g>
<!-- n11 -->
<g id="node12" class="node">
<title>n11</title>
<polygon fill="none" stroke="black" points="1001.75,-359 619.75,-359 619.75,-323 1001.75,-323 1001.75,-359"/>
<text xml:space="preserve" text-anchor="middle" x="810.75" y="-335.95" font-family="Times New Roman,serif" font-size="14.00">Postotal = Ptotal, Poscnt = Pcnt, Negtotal = Ntotal, Negcnt = Ncnt</text>
</g>
<!-- n3&#45;&gt;n11 -->
<g id="edge5" class="edge">
<title>n3&#45;&gt;n11</title>
<path fill="none" stroke="black" d="M635.8,-411.1C670.48,-397.4 718.98,-378.25 756.12,-363.58"/>
<polygon fill="black" stroke="black" points="757.34,-366.86 765.36,-359.93 754.77,-360.35 757.34,-366.86"/>
<text xml:space="preserve" text-anchor="middle" x="732.12" y="-380.2" font-family="Times New Roman,serif" font-size="14.00">Nao</text>
</g>
<!-- n5 -->
<g id="node6" class="node">
<title>n5</title>
<polygon fill="none" stroke="black" points="563.25,-286 436.25,-286 436.25,-250 563.25,-250 563.25,-286"/>
<text xml:space="preserve" text-anchor="middle" x="499.75" y="-262.95" font-family="Times New Roman,serif" font-size="14.00">Inner &lt; MAXSIZE?</text>
</g>
<!-- n4&#45;&gt;n5 -->
<g id="edge6" class="edge">
<title>n4&#45;&gt;n5</title>
<path fill="none" stroke="black" d="M517.18,-322.81C514.67,-315.05 511.63,-305.68 508.8,-296.95"/>
<polygon fill="black" stroke="black" points="512.14,-295.9 505.73,-287.47 505.49,-298.06 512.14,-295.9"/>
</g>
<!-- n6 -->
<g id="node7" class="node">
<title>n6</title>
<polygon fill="none" stroke="black" points="438.38,-197.5 285.12,-197.5 285.12,-161.5 438.38,-161.5 438.38,-197.5"/>
<text xml:space="preserve" text-anchor="middle" x="361.75" y="-174.45" font-family="Times New Roman,serif" font-size="14.00">Array[Outer][Inner] &lt; 0?</text>
</g>
<!-- n5&#45;&gt;n6 -->
<g id="edge7" class="edge">
<title>n5&#45;&gt;n6</title>
<path fill="none" stroke="black" d="M472.16,-249.7C451.1,-236.5 421.87,-218.18 398.78,-203.71"/>
<polygon fill="black" stroke="black" points="400.91,-200.92 390.58,-198.57 397.19,-206.85 400.91,-200.92"/>
<text xml:space="preserve" text-anchor="middle" x="454.36" y="-218.7" font-family="Times New Roman,serif" font-size="14.00">Sim</text>
</g>
<!-- n10 -->
<g id="node11" class="node">
<title>n10</title>
<polygon fill="none" stroke="black" points="610.38,-197.5 547.12,-197.5 547.12,-161.5 610.38,-161.5 610.38,-197.5"/>
<text xml:space="preserve" text-anchor="middle" x="578.75" y="-174.45" font-family="Times New Roman,serif" font-size="14.00">Outer++</text>
</g>
<!-- n5&#45;&gt;n10 -->
<g id="edge8" class="edge">
<title>n5&#45;&gt;n10</title>
<path fill="none" stroke="black" d="M515.36,-249.91C526.75,-237.43 542.4,-220.3 555.29,-206.18"/>
<polygon fill="black" stroke="black" points="557.72,-208.71 561.88,-198.97 552.56,-203.99 557.72,-208.71"/>
<text xml:space="preserve" text-anchor="middle" x="557.58" y="-218.7" font-family="Times New Roman,serif" font-size="14.00">Nao</text>
</g>
<!-- n7 -->
<g id="node8" class="node">
<title>n7</title>
<polygon fill="none" stroke="black" points="227.5,-109 0,-109 0,-73 227.5,-73 227.5,-109"/>
<text xml:space="preserve" text-anchor="middle" x="113.75" y="-85.95" font-family="Times New Roman,serif" font-size="14.00">Ptotal += Array[Outer][Inner]; Pcnt++</text>
</g>
<!-- n6&#45;&gt;n7 -->
<g id="edge9" class="edge">
<title>n6&#45;&gt;n7</title>
<path fill="none" stroke="black" d="M311.86,-161.1C272.18,-147.26 216.49,-127.84 174.26,-113.11"/>
<polygon fill="black" stroke="black" points="175.58,-109.86 164.99,-109.87 173.28,-116.47 175.58,-109.86"/>
<text xml:space="preserve" text-anchor="middle" x="271.21" y="-130.2" font-family="Times New Roman,serif" font-size="14.00">Sim</text>
</g>
<!-- n8 -->
<g id="node9" class="node">
<title>n8</title>
<polygon fill="none" stroke="black" points="477.75,-109 245.75,-109 245.75,-73 477.75,-73 477.75,-109"/>
<text xml:space="preserve" text-anchor="middle" x="361.75" y="-85.95" font-family="Times New Roman,serif" font-size="14.00">Ntotal += Array[Outer][Inner]; Ncnt++</text>
</g>
<!-- n6&#45;&gt;n8 -->
<g id="edge10" class="edge">
<title>n6&#45;&gt;n8</title>
<path fill="none" stroke="black" d="M361.75,-161.41C361.75,-149.76 361.75,-134.05 361.75,-120.52"/>
<polygon fill="black" stroke="black" points="365.25,-120.86 361.75,-110.86 358.25,-120.86 365.25,-120.86"/>
<text xml:space="preserve" text-anchor="middle" x="373" y="-130.2" font-family="Times New Roman,serif" font-size="14.00">Nao</text>
</g>
<!-- n9 -->
<g id="node10" class="node">
<title>n9</title>
<polygon fill="none" stroke="black" points="392.25,-36 331.25,-36 331.25,0 392.25,0 392.25,-36"/>
<text xml:space="preserve" text-anchor="middle" x="361.75" y="-12.95" font-family="Times New Roman,serif" font-size="14.00">Inner++</text>
</g>
<!-- n7&#45;&gt;n9 -->
<g id="edge11" class="edge">
<title>n7&#45;&gt;n9</title>
<path fill="none" stroke="black" d="M174.74,-72.54C219.87,-59.62 280.16,-42.36 319.94,-30.97"/>
<polygon fill="black" stroke="black" points="320.73,-34.39 329.38,-28.27 318.8,-27.66 320.73,-34.39"/>
</g>
<!-- n8&#45;&gt;n9 -->
<g id="edge12" class="edge">
<title>n8&#45;&gt;n9</title>
<path fill="none" stroke="black" d="M361.75,-72.81C361.75,-65.23 361.75,-56.1 361.75,-47.54"/>
<polygon fill="black" stroke="black" points="365.25,-47.54 361.75,-37.54 358.25,-47.54 365.25,-47.54"/>
</g>
<!-- n9&#45;&gt;n5 -->
<g id="edge13" class="edge">
<title>n9&#45;&gt;n5</title>
<path fill="none" stroke="black" d="M392.65,-23.16C422.1,-28.9 465.06,-42.3 486.75,-73 521.68,-122.46 514.04,-197.85 506.34,-238.55"/>
<polygon fill="black" stroke="black" points="502.93,-237.79 504.35,-248.29 509.78,-239.19 502.93,-237.79"/>
</g>
<!-- n10&#45;&gt;n3 -->
<g id="edge14" class="edge">
<title>n10&#45;&gt;n3</title>
<path fill="none" stroke="black" d="M579.66,-197.92C581.87,-240.05 587.52,-347.82 590.24,-399.72"/>
<polygon fill="black" stroke="black" points="586.74,-399.75 590.76,-409.55 593.73,-399.38 586.74,-399.75"/>
</g>
<!-- end -->
<g id="node13" class="node">
<title>end</title>
<ellipse fill="none" stroke="black" cx="810.75" cy="-268" rx="27" ry="18"/>
<text xml:space="preserve" text-anchor="middle" x="810.75" y="-262.95" font-family="Times New Roman,serif" font-size="14.00">Fim</text>
</g>
<!-- n11&#45;&gt;end -->
<g id="edge15" class="edge">
<title>n11&#45;&gt;end</title>
<path fill="none" stroke="black" d="M810.75,-322.81C810.75,-315.23 810.75,-306.1 810.75,-297.54"/>
<polygon fill="black" stroke="black" points="814.25,-297.54 810.75,-287.54 807.25,-297.54 814.25,-297.54"/>
</g>
</g>
</svg>
