<?xml version="1.0" encoding="UTF-8" standalone="no"?>
<!DOCTYPE svg PUBLIC "-//W3C//DTD SVG 1.1//EN"
 "http://www.w3.org/Graphics/SVG/1.1/DTD/svg11.dtd">
<!-- Generated by graphviz version 13.1.2 (20250808.2320)
 -->
<!-- Title: CFG_Initialize Pages: 1 -->
<svg width="545pt" height="513pt"
 viewBox="0.00 0.00 545.00 513.00" xmlns="http://www.w3.org/2000/svg" xmlns:xlink="http://www.w3.org/1999/xlink">
<g id="graph0" class="graph" transform="scale(1 1) rotate(0) translate(4 509)">
<title>CFG_Initialize</title>
<polygon fill="white" stroke="none" points="-4,4 -4,-509 540.53,-509 540.53,4 -4,4"/>
<!-- start -->
<g id="node1" class="node">
<title>start</title>
<ellipse fill="none" stroke="black" cx="422.88" cy="-487" rx="32.41" ry="18"/>
<text xml:space="preserve" text-anchor="middle" x="422.88" y="-481.95" font-family="Times New Roman,serif" font-size="14.00">Inicio</text>
</g>
<!-- n1 -->
<g id="node2" class="node">
<title>n1</title>
<polygon fill="none" stroke="black" points="472.88,-432 372.88,-432 372.88,-396 472.88,-396 472.88,-432"/>
<text xml:space="preserve" text-anchor="middle" x="422.88" y="-408.95" font-family="Times New Roman,serif" font-size="14.00">OuterIndex = 0</text>
</g>
<!-- start&#45;&gt;n1 -->
<g id="edge1" class="edge">
<title>start&#45;&gt;n1</title>
<path fill="none" stroke="black" d="M422.88,-468.81C422.88,-461.23 422.88,-452.1 422.88,-443.54"/>
<polygon fill="black" stroke="black" points="426.38,-443.54 422.88,-433.54 419.38,-443.54 426.38,-443.54"/>
</g>
<!-- n2 -->
<g id="node3" class="node">
<title>n2</title>
<polygon fill="none" stroke="black" points="502.88,-359 342.88,-359 342.88,-323 502.88,-323 502.88,-359"/>
<text xml:space="preserve" text-anchor="middle" x="422.88" y="-335.95" font-family="Times New Roman,serif" font-size="14.00">OuterIndex &lt; MAXSIZE?</text>
</g>
<!-- n1&#45;&gt;n2 -->
<g id="edge2" class="edge">
<title>n1&#45;&gt;n2</title>
<path fill="none" stroke="black" d="M422.88,-395.81C422.88,-388.23 422.88,-379.1 422.88,-370.54"/>
<polygon fill="black" stroke="black" points="426.38,-370.54 422.88,-360.54 419.38,-370.54 426.38,-370.54"/>
</g>
<!-- n3 -->
<g id="node4" class="node">
<title>n3</title>
<polygon fill="none" stroke="black" points="387.75,-270.5 290,-270.5 290,-234.5 387.75,-234.5 387.75,-270.5"/>
<text xml:space="preserve" text-anchor="middle" x="338.88" y="-247.45" font-family="Times New Roman,serif" font-size="14.00">InnerIndex = 0</text>
</g>
<!-- n2&#45;&gt;n3 -->
<g id="edge3" class="edge">
<title>n2&#45;&gt;n3</title>
<path fill="none" stroke="black" d="M404.47,-322.77C398.61,-317.18 392.15,-310.89 386.38,-305 378.28,-296.75 369.66,-287.53 362.01,-279.2"/>
<polygon fill="black" stroke="black" points="364.79,-277.06 355.47,-272.03 359.62,-281.78 364.79,-277.06"/>
<text xml:space="preserve" text-anchor="middle" x="397.62" y="-291.7" font-family="Times New Roman,serif" font-size="14.00">Sim</text>
</g>
<!-- end -->
<g id="node9" class="node">
<title>end</title>
<ellipse fill="none" stroke="black" cx="493.88" cy="-252.5" rx="42.65" ry="18"/>
<text xml:space="preserve" text-anchor="middle" x="493.88" y="-247.45" font-family="Times New Roman,serif" font-size="14.00">return 0;</text>
</g>
<!-- n2&#45;&gt;end -->
<g id="edge4" class="edge">
<title>n2&#45;&gt;end</title>
<path fill="none" stroke="black" d="M436.9,-322.91C447.25,-310.31 461.48,-292.96 473.14,-278.76"/>
<polygon fill="black" stroke="black" points="475.76,-281.09 479.4,-271.14 470.35,-276.65 475.76,-281.09"/>
<text xml:space="preserve" text-anchor="middle" x="475.98" y="-291.7" font-family="Times New Roman,serif" font-size="14.00">Nao</text>
</g>
<!-- n4 -->
<g id="node5" class="node">
<title>n4</title>
<polygon fill="none" stroke="black" points="394.75,-197.5 237,-197.5 237,-161.5 394.75,-161.5 394.75,-197.5"/>
<text xml:space="preserve" text-anchor="middle" x="315.88" y="-174.45" font-family="Times New Roman,serif" font-size="14.00">InnerIndex &lt; MAXSIZE?</text>
</g>
<!-- n3&#45;&gt;n4 -->
<g id="edge5" class="edge">
<title>n3&#45;&gt;n4</title>
<path fill="none" stroke="black" d="M333.31,-234.31C330.79,-226.55 327.76,-217.18 324.93,-208.45"/>
<polygon fill="black" stroke="black" points="328.27,-207.4 321.86,-198.97 321.61,-209.56 328.27,-207.4"/>
</g>
<!-- n5 -->
<g id="node6" class="node">
<title>n5</title>
<polygon fill="none" stroke="black" points="295.75,-109 0,-109 0,-73 295.75,-73 295.75,-109"/>
<text xml:space="preserve" text-anchor="middle" x="147.88" y="-85.95" font-family="Times New Roman,serif" font-size="14.00">Array[OuterIndex][InnerIndex] = RandomInteger()</text>
</g>
<!-- n4&#45;&gt;n5 -->
<g id="edge6" class="edge">
<title>n4&#45;&gt;n5</title>
<path fill="none" stroke="black" d="M282.28,-161.2C256.27,-147.81 220.03,-129.15 191.73,-114.58"/>
<polygon fill="black" stroke="black" points="193.54,-111.57 183.04,-110.11 190.33,-117.8 193.54,-111.57"/>
<text xml:space="preserve" text-anchor="middle" x="258.17" y="-130.2" font-family="Times New Roman,serif" font-size="14.00">Sim</text>
</g>
<!-- n7 -->
<g id="node8" class="node">
<title>n7</title>
<polygon fill="none" stroke="black" points="461.88,-109 367.88,-109 367.88,-73 461.88,-73 461.88,-109"/>
<text xml:space="preserve" text-anchor="middle" x="414.88" y="-85.95" font-family="Times New Roman,serif" font-size="14.00">OuterIndex++</text>
</g>
<!-- n4&#45;&gt;n7 -->
<g id="edge7" class="edge">
<title>n4&#45;&gt;n7</title>
<path fill="none" stroke="black" d="M335.43,-161.41C349.98,-148.7 370.06,-131.16 386.39,-116.89"/>
<polygon fill="black" stroke="black" points="388.65,-119.56 393.88,-110.35 384.04,-114.29 388.65,-119.56"/>
<text xml:space="preserve" text-anchor="middle" x="385.49" y="-130.2" font-family="Times New Roman,serif" font-size="14.00">Nao</text>
</g>
<!-- n6 -->
<g id="node7" class="node">
<title>n6</title>
<polygon fill="none" stroke="black" points="281.75,-36 190,-36 190,0 281.75,0 281.75,-36"/>
<text xml:space="preserve" text-anchor="middle" x="235.88" y="-12.95" font-family="Times New Roman,serif" font-size="14.00">InnerIndex++</text>
</g>
<!-- n5&#45;&gt;n6 -->
<g id="edge8" class="edge">
<title>n5&#45;&gt;n6</title>
<path fill="none" stroke="black" d="M169.18,-72.81C180.12,-63.98 193.65,-53.07 205.65,-43.39"/>
<polygon fill="black" stroke="black" points="207.7,-46.23 213.29,-37.23 203.31,-40.78 207.7,-46.23"/>
</g>
<!-- n6&#45;&gt;n4 -->
<g id="edge9" class="edge">
<title>n6&#45;&gt;n4</title>
<path fill="none" stroke="black" d="M268.26,-36.41C281.88,-45.46 296.48,-57.83 304.88,-73 317.89,-96.52 319.64,-127.52 318.74,-149.82"/>
<polygon fill="black" stroke="black" points="315.25,-149.5 318.11,-159.7 322.24,-149.94 315.25,-149.5"/>
</g>
<!-- n7&#45;&gt;n2 -->
<g id="edge10" class="edge">
<title>n7&#45;&gt;n2</title>
<path fill="none" stroke="black" d="M415.44,-109.42C416.8,-151.55 420.27,-259.32 421.95,-311.22"/>
<polygon fill="black" stroke="black" points="418.44,-311.17 422.26,-321.05 425.44,-310.94 418.44,-311.17"/>
</g>
</g>
</svg>
