<?xml version="1.0" encoding="UTF-8" standalone="no"?>
<!DOCTYPE svg PUBLIC "-//W3C//DTD SVG 1.1//EN"
 "http://www.w3.org/Graphics/SVG/1.1/DTD/svg11.dtd">
<!-- Generated by graphviz version 13.1.2 (20250808.2320)
 -->
<!-- Title: DFG_Sum Pages: 1 -->
<svg width="407pt" height="206pt"
 viewBox="0.00 0.00 407.00 206.00" xmlns="http://www.w3.org/2000/svg" xmlns:xlink="http://www.w3.org/1999/xlink">
<g id="graph0" class="graph" transform="scale(1 1) rotate(0) translate(4 201.5)">
<title>DFG_Sum</title>
<polygon fill="white" stroke="none" points="-4,4 -4,-201.5 402.96,-201.5 402.96,4 -4,4"/>
<!-- n1 -->
<g id="node1" class="node">
<title>n1</title>
<polygon fill="none" stroke="black" points="232.38,-197.5 107.62,-197.5 107.62,-161.5 232.38,-161.5 232.38,-197.5"/>
<text xml:space="preserve" text-anchor="middle" x="170" y="-174.45" font-family="Times New Roman,serif" font-size="14.00">Array[Outer][Inner]</text>
</g>
<!-- n2 -->
<g id="node2" class="node">
<title>n2</title>
<polygon fill="none" stroke="black" points="272.88,-124.5 67.12,-124.5 67.12,-88.5 272.88,-88.5 272.88,-124.5"/>
<text xml:space="preserve" text-anchor="middle" x="170" y="-101.45" font-family="Times New Roman,serif" font-size="14.00">Condicao: Array[Outer][Inner] &lt; 0</text>
</g>
<!-- n1&#45;&gt;n2 -->
<g id="edge1" class="edge">
<title>n1&#45;&gt;n2</title>
<path fill="none" stroke="black" d="M170,-161.31C170,-153.73 170,-144.6 170,-136.04"/>
<polygon fill="black" stroke="black" points="173.5,-136.04 170,-126.04 166.5,-136.04 173.5,-136.04"/>
</g>
<!-- n3 -->
<g id="node3" class="node">
<title>n3</title>
<polygon fill="none" stroke="black" points="160,-36 0,-36 0,0 160,0 160,-36"/>
<text xml:space="preserve" text-anchor="middle" x="80" y="-12.95" font-family="Times New Roman,serif" font-size="14.00">Atualizacao de Ptotal/Pcnt</text>
</g>
<!-- n2&#45;&gt;n3 -->
<g id="edge2" class="edge">
<title>n2&#45;&gt;n3</title>
<path fill="none" stroke="black" d="M152.22,-88.41C139.11,-75.82 121.08,-58.48 106.31,-44.29"/>
<polygon fill="black" stroke="black" points="108.78,-41.81 99.14,-37.4 103.93,-46.85 108.78,-41.81"/>
<text xml:space="preserve" text-anchor="middle" x="181.81" y="-57.2" font-family="Times New Roman,serif" font-size="14.00">Caminho inviavel</text>
</g>
<!-- n4 -->
<g id="node4" class="node">
<title>n4</title>
<polygon fill="none" stroke="black" points="342.25,-36 177.75,-36 177.75,0 342.25,0 342.25,-36"/>
<text xml:space="preserve" text-anchor="middle" x="260" y="-12.95" font-family="Times New Roman,serif" font-size="14.00">Atualizacao de Ntotal/Ncnt</text>
</g>
<!-- n2&#45;&gt;n4 -->
<g id="edge3" class="edge">
<title>n2&#45;&gt;n4</title>
<path fill="none" stroke="black" d="M211.55,-88.16C220.01,-83.32 228.35,-77.44 235,-70.5 241.41,-63.82 246.46,-55.18 250.3,-46.89"/>
<polygon fill="black" stroke="black" points="253.48,-48.37 254.08,-37.79 247.01,-45.68 253.48,-48.37"/>
<text xml:space="preserve" text-anchor="middle" x="322.84" y="-57.2" font-family="Times New Roman,serif" font-size="14.00">Caminho sempre executado</text>
</g>
</g>
</svg>
