<?xml version="1.0" encoding="UTF-8" standalone="no"?>
<!DOCTYPE svg PUBLIC "-//W3C//DTD SVG 1.1//EN"
 "http://www.w3.org/Graphics/SVG/1.1/DTD/svg11.dtd">
<!-- Generated by graphviz version 13.1.2 (20250808.2320)
 -->
<!-- Title: DFG_RandomInteger Pages: 1 -->
<svg width="224pt" height="188pt"
 viewBox="0.00 0.00 224.00 188.00" xmlns="http://www.w3.org/2000/svg" xmlns:xlink="http://www.w3.org/1999/xlink">
<g id="graph0" class="graph" transform="scale(1 1) rotate(0) translate(4 184)">
<title>DFG_RandomInteger</title>
<polygon fill="white" stroke="none" points="-4,4 -4,-184 219.5,-184 219.5,4 -4,4"/>
<!-- n1 -->
<g id="node1" class="node">
<title>n1</title>
<polygon fill="none" stroke="black" points="155.12,-180 60.38,-180 60.38,-144 155.12,-144 155.12,-180"/>
<text xml:space="preserve" text-anchor="middle" x="107.75" y="-156.95" font-family="Times New Roman,serif" font-size="14.00">Seed (entrada)</text>
</g>
<!-- n2 -->
<g id="node2" class="node">
<title>n2</title>
<polygon fill="none" stroke="black" points="215.5,-108 0,-108 0,-72 215.5,-72 215.5,-108"/>
<text xml:space="preserve" text-anchor="middle" x="107.75" y="-84.95" font-family="Times New Roman,serif" font-size="14.00">Calculo: (Seed * 133) + 81) % 8095</text>
</g>
<!-- n1&#45;&gt;n2 -->
<g id="edge1" class="edge">
<title>n1&#45;&gt;n2</title>
<path fill="none" stroke="black" d="M107.75,-143.7C107.75,-136.41 107.75,-127.73 107.75,-119.54"/>
<polygon fill="black" stroke="black" points="111.25,-119.62 107.75,-109.62 104.25,-119.62 111.25,-119.62"/>
</g>
<!-- n3 -->
<g id="node3" class="node">
<title>n3</title>
<polygon fill="none" stroke="black" points="149.12,-36 66.38,-36 66.38,0 149.12,0 149.12,-36"/>
<text xml:space="preserve" text-anchor="middle" x="107.75" y="-12.95" font-family="Times New Roman,serif" font-size="14.00">Seed (saida)</text>
</g>
<!-- n2&#45;&gt;n3 -->
<g id="edge2" class="edge">
<title>n2&#45;&gt;n3</title>
<path fill="none" stroke="black" d="M107.75,-71.7C107.75,-64.41 107.75,-55.73 107.75,-47.54"/>
<polygon fill="black" stroke="black" points="111.25,-47.62 107.75,-37.62 104.25,-47.62 111.25,-47.62"/>
</g>
</g>
</svg>
