<?xml version="1.0" encoding="UTF-8" standalone="no"?>
<!DOCTYPE svg PUBLIC "-//W3C//DTD SVG 1.1//EN"
 "http://www.w3.org/Graphics/SVG/1.1/DTD/svg11.dtd">
<!-- Generated by graphviz version 13.1.2 (20250808.2320)
 -->
<!-- Title: DCFG_foo Pages: 1 -->
<svg width="514pt" height="969pt"
 viewBox="0.00 0.00 514.00 969.00" xmlns="http://www.w3.org/2000/svg" xmlns:xlink="http://www.w3.org/1999/xlink">
<g id="graph0" class="graph" transform="scale(1 1) rotate(0) translate(4 964.91)">
<title>DCFG_foo</title>
<polygon fill="white" stroke="none" points="-4,4 -4,-964.91 509.72,-964.91 509.72,4 -4,4"/>
<!-- start -->
<g id="node1" class="node">
<title>start</title>
<polygon fill="none" stroke="black" points="448.25,-960.91 307.75,-960.91 307.75,-903.41 448.25,-903.41 448.25,-960.91"/>
<text xml:space="preserve" text-anchor="middle" x="378" y="-943.61" font-family="Times New Roman,serif" font-size="14.00">Inicio da funcao</text>
<text xml:space="preserve" text-anchor="middle" x="378" y="-927.11" font-family="Times New Roman,serif" font-size="14.00">int i, j, k, l;</text>
<text xml:space="preserve" text-anchor="middle" x="378" y="-910.61" font-family="Times New Roman,serif" font-size="14.00">#ifdef TEST: int c = 0;</text>
</g>
<!-- loop_i -->
<g id="node2" class="node">
<title>loop_i</title>
<polygon fill="none" stroke="black" points="431,-866.41 325,-866.41 325,-830.41 431,-830.41 431,-866.41"/>
<text xml:space="preserve" text-anchor="middle" x="378" y="-843.36" font-family="Times New Roman,serif" font-size="14.00">Loop i: i = 0 a 4</text>
</g>
<!-- start&#45;&gt;loop_i -->
<g id="edge1" class="edge">
<title>start&#45;&gt;loop_i</title>
<path fill="none" stroke="black" d="M378,-903.03C378,-895.05 378,-886.36 378,-878.34"/>
<polygon fill="black" stroke="black" points="381.5,-878.38 378,-868.38 374.5,-878.38 381.5,-878.38"/>
</g>
<!-- loop_j -->
<g id="node3" class="node">
<title>loop_j</title>
<polygon fill="none" stroke="black" points="345,-746.19 239,-746.19 239,-710.19 345,-710.19 345,-746.19"/>
<text xml:space="preserve" text-anchor="middle" x="292" y="-723.14" font-family="Times New Roman,serif" font-size="14.00">Loop j: j = 0 a 4</text>
</g>
<!-- loop_i&#45;&gt;loop_j -->
<g id="edge2" class="edge">
<title>loop_i&#45;&gt;loop_j</title>
<path fill="none" stroke="black" d="M355.36,-830.17C349.22,-824.87 342.87,-818.75 337.75,-812.41 324.08,-795.46 312.34,-773.85 304.17,-756.9"/>
<polygon fill="black" stroke="black" points="307.37,-755.49 299.98,-747.9 301.03,-758.45 307.37,-755.49"/>
<text xml:space="preserve" text-anchor="middle" x="350.88" y="-799.11" font-family="Times New Roman,serif" font-size="14.00">i &lt; 5</text>
</g>
<!-- body -->
<g id="node6" class="node">
<title>body</title>
<polygon fill="none" stroke="black" points="274.25,-448.97 127.75,-448.97 127.75,-391.47 274.25,-391.47 274.25,-448.97"/>
<text xml:space="preserve" text-anchor="middle" x="201" y="-431.67" font-family="Times New Roman,serif" font-size="14.00">Corpo do loop l:</text>
<text xml:space="preserve" text-anchor="middle" x="201" y="-415.17" font-family="Times New Roman,serif" font-size="14.00">#ifdef TEST: c++;</text>
<text xml:space="preserve" text-anchor="middle" x="201" y="-398.67" font-family="Times New Roman,serif" font-size="14.00">if (keys[i][j][k][l] == x)</text>
</g>
<!-- loop_i&#45;&gt;body -->
<g id="edge13" class="edge">
<title>loop_i&#45;&gt;body</title>
<path fill="none" stroke="green" stroke-dasharray="5,2" d="M378,-830.18C378,-807.17 378,-765.11 378,-729.19 378,-729.19 378,-729.19 378,-518.47 378,-472.21 331,-447.81 285.43,-435.01"/>
<polygon fill="green" stroke="green" points="286.55,-431.69 275.99,-432.54 284.78,-438.46 286.55,-431.69"/>
<text xml:space="preserve" text-anchor="middle" x="392.25" y="-602.92" font-family="Times New Roman,serif" font-size="14.00">def: i</text>
</g>
<!-- return_not_found -->
<g id="node8" class="node">
<title>return_not_found</title>
<ellipse fill="none" stroke="black" cx="456" cy="-728.19" rx="45.72" ry="45.72"/>
<ellipse fill="none" stroke="black" cx="456" cy="-728.19" rx="49.72" ry="49.72"/>
<text xml:space="preserve" text-anchor="middle" x="456" y="-723.14" font-family="Times New Roman,serif" font-size="14.00">return &#45;1;</text>
</g>
<!-- loop_i&#45;&gt;return_not_found -->
<g id="edge3" class="edge">
<title>loop_i&#45;&gt;return_not_found</title>
<path fill="none" stroke="black" d="M389.51,-829.97C398.31,-816.62 410.92,-797.51 422.8,-779.51"/>
<polygon fill="black" stroke="black" points="425.5,-781.78 428.08,-771.5 419.66,-777.92 425.5,-781.78"/>
<text xml:space="preserve" text-anchor="middle" x="427.26" y="-799.11" font-family="Times New Roman,serif" font-size="14.00">i &gt;= 5</text>
</g>
<!-- loop_j&#45;&gt;loop_i -->
<g id="edge5" class="edge">
<title>loop_j&#45;&gt;loop_i</title>
<path fill="none" stroke="black" d="M327.09,-746.56C347.31,-756.29 373.34,-768.35 397,-777.91 419.68,-787.07 434.81,-775.99 449,-795.91 456.88,-806.98 450.64,-816.59 439.16,-824.42"/>
<polygon fill="black" stroke="black" points="437.69,-821.22 430.82,-829.28 441.22,-827.27 437.69,-821.22"/>
<text xml:space="preserve" text-anchor="middle" x="469.76" y="-799.11" font-family="Times New Roman,serif" font-size="14.00">j &gt;= 5</text>
</g>
<!-- loop_k -->
<g id="node4" class="node">
<title>loop_k</title>
<polygon fill="none" stroke="black" points="257,-625.97 145,-625.97 145,-589.97 257,-589.97 257,-625.97"/>
<text xml:space="preserve" text-anchor="middle" x="201" y="-602.92" font-family="Times New Roman,serif" font-size="14.00">Loop k: k = 0 a 4</text>
</g>
<!-- loop_j&#45;&gt;loop_k -->
<g id="edge4" class="edge">
<title>loop_j&#45;&gt;loop_k</title>
<path fill="none" stroke="black" d="M278.57,-709.75C263.43,-690.08 238.65,-657.88 221.18,-635.18"/>
<polygon fill="black" stroke="black" points="223.98,-633.09 215.11,-627.3 218.44,-637.36 223.98,-633.09"/>
<text xml:space="preserve" text-anchor="middle" x="251.47" y="-647.17" font-family="Times New Roman,serif" font-size="14.00">j &lt; 5</text>
</g>
<!-- loop_j&#45;&gt;body -->
<g id="edge14" class="edge">
<title>loop_j&#45;&gt;body</title>
<path fill="none" stroke="green" stroke-dasharray="5,2" d="M289.55,-710.12C285.63,-684 277.22,-632.65 266,-589.97 255.44,-549.8 250.98,-540.2 236,-501.47 230.64,-487.6 224.26,-472.61 218.43,-459.38"/>
<polygon fill="green" stroke="green" points="221.78,-458.3 214.51,-450.59 215.38,-461.15 221.78,-458.3"/>
<text xml:space="preserve" text-anchor="middle" x="275.33" y="-558.67" font-family="Times New Roman,serif" font-size="14.00">def: j</text>
</g>
<!-- loop_k&#45;&gt;loop_j -->
<g id="edge7" class="edge">
<title>loop_k&#45;&gt;loop_j</title>
<path fill="none" stroke="black" d="M247.59,-626.33C255.62,-631.04 263.22,-636.86 269,-643.97 281.52,-659.37 287.24,-681.11 289.85,-698.51"/>
<polygon fill="black" stroke="black" points="286.35,-698.72 291.02,-708.23 293.3,-697.88 286.35,-698.72"/>
<text xml:space="preserve" text-anchor="middle" x="297.53" y="-647.17" font-family="Times New Roman,serif" font-size="14.00">k &gt;= 5</text>
</g>
<!-- loop_l -->
<g id="node5" class="node">
<title>loop_l</title>
<polygon fill="none" stroke="black" points="106,-537.47 0,-537.47 0,-501.47 106,-501.47 106,-537.47"/>
<text xml:space="preserve" text-anchor="middle" x="53" y="-514.42" font-family="Times New Roman,serif" font-size="14.00">Loop l: l = 0 a 4</text>
</g>
<!-- loop_k&#45;&gt;loop_l -->
<g id="edge6" class="edge">
<title>loop_k&#45;&gt;loop_l</title>
<path fill="none" stroke="black" d="M171.41,-589.67C148.79,-576.46 117.4,-558.11 92.62,-543.63"/>
<polygon fill="black" stroke="black" points="94.5,-540.67 84.1,-538.65 90.97,-546.72 94.5,-540.67"/>
<text xml:space="preserve" text-anchor="middle" x="154.88" y="-558.67" font-family="Times New Roman,serif" font-size="14.00">k &lt; 5</text>
</g>
<!-- loop_k&#45;&gt;body -->
<g id="edge15" class="edge">
<title>loop_k&#45;&gt;body</title>
<path fill="none" stroke="green" stroke-dasharray="5,2" d="M201,-589.49C201,-560.21 201,-500.54 201,-460.7"/>
<polygon fill="green" stroke="green" points="204.5,-460.8 201,-450.8 197.5,-460.8 204.5,-460.8"/>
<text xml:space="preserve" text-anchor="middle" x="216.75" y="-514.42" font-family="Times New Roman,serif" font-size="14.00">def: k</text>
</g>
<!-- loop_l&#45;&gt;loop_k -->
<g id="edge9" class="edge">
<title>loop_l&#45;&gt;loop_k</title>
<path fill="none" stroke="black" d="M106.47,-526.47C129.27,-531.27 154.94,-539.91 174,-555.47 181.67,-561.73 187.43,-570.76 191.61,-579.51"/>
<polygon fill="black" stroke="black" points="188.27,-580.59 195.37,-588.45 194.72,-577.88 188.27,-580.59"/>
<text xml:space="preserve" text-anchor="middle" x="204.33" y="-558.67" font-family="Times New Roman,serif" font-size="14.00">l &gt;= 5</text>
</g>
<!-- loop_l&#45;&gt;body -->
<g id="edge8" class="edge">
<title>loop_l&#45;&gt;body</title>
<path fill="none" stroke="black" d="M20.21,-501C6.33,-491.32 -4.69,-478.87 4.75,-466.97 18.94,-449.09 69.65,-437.55 115.97,-430.53"/>
<polygon fill="black" stroke="black" points="116.42,-434.01 125.82,-429.11 115.42,-427.08 116.42,-434.01"/>
<text xml:space="preserve" text-anchor="middle" x="17.88" y="-470.17" font-family="Times New Roman,serif" font-size="14.00">l &lt; 5</text>
</g>
<!-- loop_l&#45;&gt;body -->
<g id="edge16" class="edge">
<title>loop_l&#45;&gt;body</title>
<path fill="none" stroke="green" stroke-dasharray="5,2" d="M48.76,-501.04C47.19,-490.18 47.26,-476.52 54.5,-466.97 69.44,-447.27 92.79,-435.84 116.5,-429.27"/>
<polygon fill="green" stroke="green" points="117.05,-432.74 125.92,-426.95 115.37,-425.94 117.05,-432.74"/>
<text xml:space="preserve" text-anchor="middle" x="68.75" y="-470.17" font-family="Times New Roman,serif" font-size="14.00">def: l</text>
</g>
<!-- body&#45;&gt;loop_l -->
<g id="edge11" class="edge">
<title>body&#45;&gt;loop_l</title>
<path fill="none" stroke="black" d="M135.29,-449.41C125.17,-454.72 115.08,-460.63 106,-466.97 95.32,-474.43 84.77,-484.08 75.94,-493"/>
<polygon fill="black" stroke="black" points="73.48,-490.51 69.08,-500.15 78.53,-495.35 73.48,-490.51"/>
<text xml:space="preserve" text-anchor="middle" x="146.5" y="-470.17" font-family="Times New Roman,serif" font-size="14.00">Condicao falsa</text>
</g>
<!-- return_found -->
<g id="node7" class="node">
<title>return_found</title>
<ellipse fill="none" stroke="black" cx="201" cy="-169.48" rx="165.48" ry="165.48"/>
<ellipse fill="none" stroke="black" cx="201" cy="-169.48" rx="169.48" ry="169.48"/>
<text xml:space="preserve" text-anchor="middle" x="201" y="-164.43" font-family="Times New Roman,serif" font-size="14.00">return answer[i][j][k][l] + keys[i][j][k][l];</text>
</g>
<!-- body&#45;&gt;return_found -->
<g id="edge10" class="edge">
<title>body&#45;&gt;return_found</title>
<path fill="none" stroke="black" d="M148.71,-391.23C143.02,-386.07 138.02,-380.17 134.5,-373.47 131.09,-366.98 133.25,-364.2 134.5,-356.97 135.53,-351.04 136.72,-345.05 138.06,-339.04"/>
<polygon fill="black" stroke="black" points="141.38,-340.21 140.27,-329.67 134.57,-338.6 141.38,-340.21"/>
<text xml:space="preserve" text-anchor="middle" x="190.75" y="-360.17" font-family="Times New Roman,serif" font-size="14.00">Condicao verdadeira</text>
</g>
<!-- body&#45;&gt;return_found -->
<g id="edge12" class="edge">
<title>body&#45;&gt;return_found</title>
<path fill="none" stroke="blue" stroke-dasharray="5,2" d="M235.82,-391.07C240.37,-385.73 244.36,-379.81 247,-373.47 251.25,-363.25 253.82,-352.58 255.06,-341.7"/>
<polygon fill="blue" stroke="blue" points="258.55,-342.04 255.77,-331.81 251.56,-341.53 258.55,-342.04"/>
<text xml:space="preserve" text-anchor="middle" x="329.05" y="-360.17" font-family="Times New Roman,serif" font-size="14.00">c&#45;use: keys, answer, i, j, k, l</text>
</g>
</g>
</svg>
