<?xml version="1.0" encoding="UTF-8" standalone="no"?>
<!DOCTYPE svg PUBLIC "-//W3C//DTD SVG 1.1//EN"
 "http://www.w3.org/Graphics/SVG/1.1/DTD/svg11.dtd">
<!-- Generated by graphviz version 13.1.2 (20250808.2320)
 -->
<!-- Title: main_CFG Pages: 1 -->
<svg width="132pt" height="156pt"
 viewBox="0.00 0.00 132.00 156.00" xmlns="http://www.w3.org/2000/svg" xmlns:xlink="http://www.w3.org/1999/xlink">
<g id="graph0" class="graph" transform="scale(1 1) rotate(0) translate(4 152.2)">
<title>main_CFG</title>
<polygon fill="white" stroke="none" points="-4,4 -4,-152.2 128,-152.2 128,4 -4,4"/>
<!-- N1 -->
<g id="node1" class="node">
<title>N1</title>
<path fill="none" stroke="black" d="M112,-148.2C112,-148.2 12,-148.2 12,-148.2 6,-148.2 0,-142.2 0,-136.2 0,-136.2 0,-124.2 0,-124.2 0,-118.2 6,-112.2 12,-112.2 12,-112.2 112,-112.2 112,-112.2 118,-112.2 124,-118.2 124,-124.2 124,-124.2 124,-136.2 124,-136.2 124,-142.2 118,-148.2 112,-148.2"/>
<text xml:space="preserve" text-anchor="middle" x="62" y="-124.77" font-family="Helvetica,sans-Serif" font-size="14.00">main: call sort(20)</text>
</g>
<!-- N2 -->
<g id="node2" class="node">
<title>N2</title>
<ellipse fill="none" stroke="black" cx="62" cy="-38.1" rx="34.1" ry="34.1"/>
<ellipse fill="none" stroke="black" cx="62" cy="-38.1" rx="38.1" ry="38.1"/>
<text xml:space="preserve" text-anchor="middle" x="62" y="-32.67" font-family="Helvetica,sans-Serif" font-size="14.00">return</text>
</g>
<!-- N1&#45;&gt;N2 -->
<g id="edge1" class="edge">
<title>N1&#45;&gt;N2</title>
<path fill="none" stroke="black" d="M62,-111.82C62,-104.86 62,-96.44 62,-87.85"/>
<polygon fill="black" stroke="black" points="65.5,-88.07 62,-78.07 58.5,-88.07 65.5,-88.07"/>
</g>
</g>
</svg>
