<?xml version="1.0" encoding="UTF-8" standalone="no"?>
<!DOCTYPE svg PUBLIC "-//W3C//DTD SVG 1.1//EN"
 "http://www.w3.org/Graphics/SVG/1.1/DTD/svg11.dtd">
<!-- Generated by graphviz version 13.1.2 (20250808.2320)
 -->
<!-- Title: main_DFG Pages: 1 -->
<svg width="71pt" height="188pt"
 viewBox="0.00 0.00 71.00 188.00" xmlns="http://www.w3.org/2000/svg" xmlns:xlink="http://www.w3.org/1999/xlink">
<g id="graph0" class="graph" transform="scale(1 1) rotate(0) translate(4 184)">
<title>main_DFG</title>
<polygon fill="white" stroke="none" points="-4,4 -4,-184 66.78,-184 66.78,4 -4,4"/>
<!-- const_20 -->
<g id="node1" class="node">
<title>const_20</title>
<ellipse fill="lightblue" stroke="black" cx="31.39" cy="-162" rx="27" ry="18"/>
<text xml:space="preserve" text-anchor="middle" x="31.39" y="-156.95" font-family="Times New Roman,serif" font-size="14.00">20</text>
</g>
<!-- call_sort -->
<g id="node2" class="node">
<title>call_sort</title>
<polygon fill="none" stroke="black" points="61.14,-108 1.64,-108 1.64,-72 61.14,-72 61.14,-108"/>
<text xml:space="preserve" text-anchor="middle" x="31.39" y="-84.95" font-family="Times New Roman,serif" font-size="14.00">call sort</text>
</g>
<!-- const_20&#45;&gt;call_sort -->
<g id="edge1" class="edge">
<title>const_20&#45;&gt;call_sort</title>
<path fill="none" stroke="black" d="M31.39,-143.7C31.39,-136.41 31.39,-127.73 31.39,-119.54"/>
<polygon fill="black" stroke="black" points="34.89,-119.62 31.39,-109.62 27.89,-119.62 34.89,-119.62"/>
</g>
<!-- result -->
<g id="node3" class="node">
<title>result</title>
<ellipse fill="lightgreen" stroke="black" cx="31.39" cy="-18" rx="31.39" ry="18"/>
<text xml:space="preserve" text-anchor="middle" x="31.39" y="-12.95" font-family="Times New Roman,serif" font-size="14.00">result</text>
</g>
<!-- call_sort&#45;&gt;result -->
<g id="edge2" class="edge">
<title>call_sort&#45;&gt;result</title>
<path fill="none" stroke="black" d="M31.39,-71.7C31.39,-64.41 31.39,-55.73 31.39,-47.54"/>
<polygon fill="black" stroke="black" points="34.89,-47.62 31.39,-37.62 27.89,-47.62 34.89,-47.62"/>
</g>
</g>
</svg>
