<?xml version="1.0" encoding="UTF-8" standalone="no"?>
<!DOCTYPE svg PUBLIC "-//W3C//DTD SVG 1.1//EN"
 "http://www.w3.org/Graphics/SVG/1.1/DTD/svg11.dtd">
<!-- Generated by graphviz version 13.1.2 (20250808.2320)
 -->
<!-- Title: sort_DFG Pages: 1 -->
<svg width="411pt" height="332pt"
 viewBox="0.00 0.00 411.00 332.00" xmlns="http://www.w3.org/2000/svg" xmlns:xlink="http://www.w3.org/1999/xlink">
<g id="graph0" class="graph" transform="scale(1 1) rotate(0) translate(4 328)">
<title>sort_DFG</title>
<polygon fill="white" stroke="none" points="-4,4 -4,-328 407,-328 407,4 -4,4"/>
<!-- n -->
<g id="node1" class="node">
<title>n</title>
<ellipse fill="lightblue" stroke="black" cx="73.75" cy="-306" rx="27" ry="18"/>
<text xml:space="preserve" text-anchor="middle" x="73.75" y="-300.95" font-family="Times New Roman,serif" font-size="14.00">n</text>
</g>
<!-- op_assign -->
<g id="node4" class="node">
<title>op_assign</title>
<polygon fill="none" stroke="black" points="177.88,-252 45.62,-252 45.62,-216 177.88,-216 177.88,-252"/>
<text xml:space="preserve" text-anchor="middle" x="111.75" y="-228.95" font-family="Times New Roman,serif" font-size="14.00">l=1, jstack=0, flag=0</text>
</g>
<!-- n&#45;&gt;op_assign -->
<g id="edge1" class="edge">
<title>n&#45;&gt;op_assign</title>
<path fill="none" stroke="black" d="M82.56,-288.76C86.85,-280.87 92.12,-271.16 96.99,-262.18"/>
<polygon fill="black" stroke="black" points="100.04,-263.91 101.73,-253.45 93.89,-260.57 100.04,-263.91"/>
</g>
<!-- arr -->
<g id="node2" class="node">
<title>arr</title>
<ellipse fill="lightblue" stroke="black" cx="223.75" cy="-162" rx="27" ry="18"/>
<text xml:space="preserve" text-anchor="middle" x="223.75" y="-156.95" font-family="Times New Roman,serif" font-size="14.00">arr</text>
</g>
<!-- op_swap -->
<g id="node6" class="node">
<title>op_swap</title>
<polygon fill="none" stroke="black" points="280.12,-108 167.38,-108 167.38,-72 280.12,-72 280.12,-108"/>
<text xml:space="preserve" text-anchor="middle" x="223.75" y="-84.95" font-family="Times New Roman,serif" font-size="14.00">SWAP operations</text>
</g>
<!-- arr&#45;&gt;op_swap -->
<g id="edge2" class="edge">
<title>arr&#45;&gt;op_swap</title>
<path fill="none" stroke="black" d="M223.75,-143.7C223.75,-136.41 223.75,-127.73 223.75,-119.54"/>
<polygon fill="black" stroke="black" points="227.25,-119.62 223.75,-109.62 220.25,-119.62 227.25,-119.62"/>
</g>
<!-- op_index -->
<g id="node7" class="node">
<title>op_index</title>
<polygon fill="none" stroke="black" points="149.5,-108 0,-108 0,-72 149.5,-72 149.5,-108"/>
<text xml:space="preserve" text-anchor="middle" x="74.75" y="-84.95" font-family="Times New Roman,serif" font-size="14.00">Array index calculations</text>
</g>
<!-- arr&#45;&gt;op_index -->
<g id="edge3" class="edge">
<title>arr&#45;&gt;op_index</title>
<path fill="none" stroke="black" d="M202.08,-150.82C181.21,-141.01 148.92,-125.85 122.09,-113.24"/>
<polygon fill="black" stroke="black" points="123.64,-110.1 113.1,-109.02 120.66,-116.44 123.64,-110.1"/>
</g>
<!-- op_loop -->
<g id="node8" class="node">
<title>op_loop</title>
<polygon fill="none" stroke="black" points="403,-108 298.5,-108 298.5,-72 403,-72 403,-108"/>
<text xml:space="preserve" text-anchor="middle" x="350.75" y="-84.95" font-family="Times New Roman,serif" font-size="14.00">Loop conditions</text>
</g>
<!-- arr&#45;&gt;op_loop -->
<g id="edge4" class="edge">
<title>arr&#45;&gt;op_loop</title>
<path fill="none" stroke="black" d="M244.15,-149.75C261.71,-140.08 287.58,-125.82 309.44,-113.77"/>
<polygon fill="black" stroke="black" points="311.08,-116.86 318.15,-108.97 307.7,-110.73 311.08,-116.86"/>
</g>
<!-- istack -->
<g id="node3" class="node">
<title>istack</title>
<ellipse fill="lightblue" stroke="black" cx="150.75" cy="-306" rx="32.41" ry="18"/>
<text xml:space="preserve" text-anchor="middle" x="150.75" y="-300.95" font-family="Times New Roman,serif" font-size="14.00">istack</text>
</g>
<!-- istack&#45;&gt;op_assign -->
<g id="edge5" class="edge">
<title>istack&#45;&gt;op_assign</title>
<path fill="none" stroke="black" d="M141.51,-288.41C137.17,-280.62 131.88,-271.14 126.98,-262.33"/>
<polygon fill="black" stroke="black" points="130.13,-260.8 122.21,-253.77 124.02,-264.21 130.13,-260.8"/>
</g>
<!-- op_compare -->
<g id="node5" class="node">
<title>op_compare</title>
<polygon fill="none" stroke="black" points="142.25,-180 81.25,-180 81.25,-144 142.25,-144 142.25,-180"/>
<text xml:space="preserve" text-anchor="middle" x="111.75" y="-156.95" font-family="Times New Roman,serif" font-size="14.00">ir&#45;l &lt; M</text>
</g>
<!-- op_assign&#45;&gt;op_compare -->
<g id="edge6" class="edge">
<title>op_assign&#45;&gt;op_compare</title>
<path fill="none" stroke="black" d="M111.75,-215.7C111.75,-208.41 111.75,-199.73 111.75,-191.54"/>
<polygon fill="black" stroke="black" points="115.25,-191.62 111.75,-181.62 108.25,-191.62 115.25,-191.62"/>
</g>
<!-- op_compare&#45;&gt;op_swap -->
<g id="edge7" class="edge">
<title>op_compare&#45;&gt;op_swap</title>
<path fill="none" stroke="black" d="M139.72,-143.52C153.86,-134.68 171.21,-123.84 186.47,-114.3"/>
<polygon fill="black" stroke="black" points="188.22,-117.33 194.85,-109.06 184.51,-111.39 188.22,-117.33"/>
</g>
<!-- op_compare&#45;&gt;op_index -->
<g id="edge8" class="edge">
<title>op_compare&#45;&gt;op_index</title>
<path fill="none" stroke="black" d="M102.6,-143.7C98.53,-135.98 93.63,-126.71 89.08,-118.11"/>
<polygon fill="black" stroke="black" points="92.27,-116.65 84.5,-109.44 86.08,-119.92 92.27,-116.65"/>
</g>
<!-- result_arr -->
<g id="node9" class="node">
<title>result_arr</title>
<ellipse fill="lightgreen" stroke="black" cx="223.75" cy="-18" rx="52.38" ry="18"/>
<text xml:space="preserve" text-anchor="middle" x="223.75" y="-12.95" font-family="Times New Roman,serif" font-size="14.00">arr (sorted)</text>
</g>
<!-- op_swap&#45;&gt;result_arr -->
<g id="edge9" class="edge">
<title>op_swap&#45;&gt;result_arr</title>
<path fill="none" stroke="black" d="M223.75,-71.7C223.75,-64.41 223.75,-55.73 223.75,-47.54"/>
<polygon fill="black" stroke="black" points="227.25,-47.62 223.75,-37.62 220.25,-47.62 227.25,-47.62"/>
</g>
<!-- op_index&#45;&gt;result_arr -->
<g id="edge10" class="edge">
<title>op_index&#45;&gt;result_arr</title>
<path fill="none" stroke="black" d="M111.96,-71.52C133.84,-61.24 161.5,-48.25 183.83,-37.75"/>
<polygon fill="black" stroke="black" points="185.06,-41.04 192.62,-33.62 182.08,-34.71 185.06,-41.04"/>
</g>
<!-- op_loop&#45;&gt;result_arr -->
<g id="edge11" class="edge">
<title>op_loop&#45;&gt;result_arr</title>
<path fill="none" stroke="black" d="M319.03,-71.52C301.3,-61.74 279.12,-49.52 260.62,-39.32"/>
<polygon fill="black" stroke="black" points="262.54,-36.39 252.1,-34.62 259.17,-42.52 262.54,-36.39"/>
</g>
</g>
</svg>
