<?xml version="1.0" encoding="UTF-8" standalone="no"?>
<!DOCTYPE svg PUBLIC "-//W3C//DTD SVG 1.1//EN"
 "http://www.w3.org/Graphics/SVG/1.1/DTD/svg11.dtd">
<!-- Generated by graphviz version 13.1.2 (20250808.2320)
 -->
<!-- Title: sort_CFG Pages: 1 -->
<svg width="571pt" height="887pt"
 viewBox="0.00 0.00 571.00 887.00" xmlns="http://www.w3.org/2000/svg" xmlns:xlink="http://www.w3.org/1999/xlink">
<g id="graph0" class="graph" transform="scale(1 1) rotate(0) translate(4 882.75)">
<title>sort_CFG</title>
<polygon fill="white" stroke="none" points="-4,4 -4,-882.75 567.12,-882.75 567.12,4 -4,4"/>
<!-- S0 -->
<g id="node1" class="node">
<title>S0</title>
<path fill="none" stroke="black" d="M551.12,-878.75C551.12,-878.75 382.88,-878.75 382.88,-878.75 376.88,-878.75 370.88,-872.75 370.88,-866.75 370.88,-866.75 370.88,-788.25 370.88,-788.25 370.88,-782.25 376.88,-776.25 382.88,-776.25 382.88,-776.25 551.12,-776.25 551.12,-776.25 557.12,-776.25 563.12,-782.25 563.12,-788.25 563.12,-788.25 563.12,-866.75 563.12,-866.75 563.12,-872.75 557.12,-878.75 551.12,-878.75"/>
<text xml:space="preserve" text-anchor="middle" x="467" y="-861.45" font-family="Helvetica,sans-Serif" font-size="14.00">S0: Entry</text>
<text xml:space="preserve" text-anchor="middle" x="467" y="-845.7" font-family="Helvetica,sans-Serif" font-size="14.00">unsigned long i, ir=n, j, k, l=1;</text>
<text xml:space="preserve" text-anchor="middle" x="467" y="-829.95" font-family="Helvetica,sans-Serif" font-size="14.00">int jstack=0;</text>
<text xml:space="preserve" text-anchor="middle" x="467" y="-814.2" font-family="Helvetica,sans-Serif" font-size="14.00">int flag;</text>
<text xml:space="preserve" text-anchor="middle" x="467" y="-798.45" font-family="Helvetica,sans-Serif" font-size="14.00">float a, temp;</text>
<text xml:space="preserve" text-anchor="middle" x="467" y="-782.7" font-family="Helvetica,sans-Serif" font-size="14.00">flag = 0;</text>
</g>
<!-- S1 -->
<g id="node2" class="node">
<title>S1</title>
<path fill="none" stroke="black" d="M493,-739.25C493,-739.25 441,-739.25 441,-739.25 435,-739.25 429,-733.25 429,-727.25 429,-727.25 429,-715.25 429,-715.25 429,-709.25 435,-703.25 441,-703.25 441,-703.25 493,-703.25 493,-703.25 499,-703.25 505,-709.25 505,-715.25 505,-715.25 505,-727.25 505,-727.25 505,-733.25 499,-739.25 493,-739.25"/>
<text xml:space="preserve" text-anchor="middle" x="467" y="-715.83" font-family="Helvetica,sans-Serif" font-size="14.00">S1: for (;;)</text>
</g>
<!-- S0&#45;&gt;S1 -->
<g id="edge1" class="edge">
<title>S0&#45;&gt;S1</title>
<path fill="none" stroke="black" d="M467,-775.9C467,-767.32 467,-758.69 467,-750.93"/>
<polygon fill="black" stroke="black" points="470.5,-751.1 467,-741.1 463.5,-751.1 470.5,-751.1"/>
</g>
<!-- S2 -->
<g id="node3" class="node">
<title>S2</title>
<path fill="none" stroke="black" d="M425.12,-666.25C425.12,-666.25 346.88,-666.25 346.88,-666.25 340.88,-666.25 334.88,-660.25 334.88,-654.25 334.88,-654.25 334.88,-642.25 334.88,-642.25 334.88,-636.25 340.88,-630.25 346.88,-630.25 346.88,-630.25 425.12,-630.25 425.12,-630.25 431.12,-630.25 437.12,-636.25 437.12,-642.25 437.12,-642.25 437.12,-654.25 437.12,-654.25 437.12,-660.25 431.12,-666.25 425.12,-666.25"/>
<text xml:space="preserve" text-anchor="middle" x="386" y="-642.83" font-family="Helvetica,sans-Serif" font-size="14.00">S2: if (ir&#45;l &lt; M)</text>
</g>
<!-- S1&#45;&gt;S2 -->
<g id="edge2" class="edge">
<title>S1&#45;&gt;S2</title>
<path fill="none" stroke="black" d="M447.39,-703.06C437.42,-694.32 425.11,-683.53 414.15,-673.92"/>
<polygon fill="black" stroke="black" points="416.67,-671.48 406.85,-667.52 412.06,-676.75 416.67,-671.48"/>
</g>
<!-- S3 -->
<g id="node4" class="node">
<title>S3</title>
<path fill="none" stroke="black" d="M454,-562C454,-562 318,-562 318,-562 312,-562 306,-556 306,-550 306,-550 306,-471.5 306,-471.5 306,-465.5 312,-459.5 318,-459.5 318,-459.5 454,-459.5 454,-459.5 460,-459.5 466,-465.5 466,-471.5 466,-471.5 466,-550 466,-550 466,-556 460,-562 454,-562"/>
<text xml:space="preserve" text-anchor="middle" x="386" y="-544.7" font-family="Helvetica,sans-Serif" font-size="14.00">S3: for (j=l+1; j&lt;=ir; j++)</text>
<text xml:space="preserve" text-anchor="middle" x="386" y="-528.95" font-family="Helvetica,sans-Serif" font-size="14.00"> a=arr[j];</text>
<text xml:space="preserve" text-anchor="middle" x="386" y="-513.2" font-family="Helvetica,sans-Serif" font-size="14.00"> for (i=j&#45;1; i&gt;=l; i&#45;&#45;)</text>
<text xml:space="preserve" text-anchor="middle" x="386" y="-497.45" font-family="Helvetica,sans-Serif" font-size="14.00"> &#160;if (arr[i] &lt;= a) break;</text>
<text xml:space="preserve" text-anchor="middle" x="386" y="-481.7" font-family="Helvetica,sans-Serif" font-size="14.00"> &#160;else arr[i+1]=arr[i];</text>
<text xml:space="preserve" text-anchor="middle" x="386" y="-465.95" font-family="Helvetica,sans-Serif" font-size="14.00"> arr[i+1]=a;</text>
</g>
<!-- S2&#45;&gt;S3 -->
<g id="edge3" class="edge">
<title>S2&#45;&gt;S3</title>
<path fill="none" stroke="black" d="M386,-629.81C386,-615.46 386,-594.2 386,-573.67"/>
<polygon fill="black" stroke="black" points="389.5,-573.89 386,-563.89 382.5,-573.89 389.5,-573.89"/>
<text xml:space="preserve" text-anchor="middle" x="396.5" y="-598.95" font-family="Times New Roman,serif" font-size="14.00">true</text>
</g>
<!-- S7 -->
<g id="node8" class="node">
<title>S7</title>
<path fill="none" stroke="black" d="M275.88,-577.75C275.88,-577.75 40.12,-577.75 40.12,-577.75 34.12,-577.75 28.12,-571.75 28.12,-565.75 28.12,-565.75 28.12,-455.75 28.12,-455.75 28.12,-449.75 34.12,-443.75 40.12,-443.75 40.12,-443.75 275.88,-443.75 275.88,-443.75 281.88,-443.75 287.88,-449.75 287.88,-455.75 287.88,-455.75 287.88,-565.75 287.88,-565.75 287.88,-571.75 281.88,-577.75 275.88,-577.75"/>
<text xml:space="preserve" text-anchor="middle" x="158" y="-560.45" font-family="Helvetica,sans-Serif" font-size="14.00">S7: k=(l+ir)&gt;&gt;1;</text>
<text xml:space="preserve" text-anchor="middle" x="158" y="-544.7" font-family="Helvetica,sans-Serif" font-size="14.00">SWAP(arr[k],arr[l+1]);</text>
<text xml:space="preserve" text-anchor="middle" x="158" y="-528.95" font-family="Helvetica,sans-Serif" font-size="14.00">if (arr[l] &gt; arr[ir]) SWAP(arr[l],arr[ir]);</text>
<text xml:space="preserve" text-anchor="middle" x="158" y="-513.2" font-family="Helvetica,sans-Serif" font-size="14.00">if (arr[l+1] &gt; arr[ir]) SWAP(arr[l+1],arr[ir]);</text>
<text xml:space="preserve" text-anchor="middle" x="158" y="-497.45" font-family="Helvetica,sans-Serif" font-size="14.00">if (arr[l] &gt; arr[l+1]) SWAP(arr[l],arr[l+1]);</text>
<text xml:space="preserve" text-anchor="middle" x="158" y="-481.7" font-family="Helvetica,sans-Serif" font-size="14.00">i=l+1;</text>
<text xml:space="preserve" text-anchor="middle" x="158" y="-465.95" font-family="Helvetica,sans-Serif" font-size="14.00">j=ir;</text>
<text xml:space="preserve" text-anchor="middle" x="158" y="-450.2" font-family="Helvetica,sans-Serif" font-size="14.00">a=arr[l+1];</text>
</g>
<!-- S2&#45;&gt;S7 -->
<g id="edge4" class="edge">
<title>S2&#45;&gt;S7</title>
<path fill="none" stroke="black" d="M356.66,-629.81C336.56,-617.87 308.42,-601.14 279.63,-584.03"/>
<polygon fill="black" stroke="black" points="281.53,-581.09 271.15,-578.99 277.96,-587.11 281.53,-581.09"/>
<text xml:space="preserve" text-anchor="middle" x="337.6" y="-598.95" font-family="Times New Roman,serif" font-size="14.00">false</text>
</g>
<!-- S4 -->
<g id="node5" class="node">
<title>S4</title>
<path fill="none" stroke="black" d="M436.75,-365.62C436.75,-365.62 335.25,-365.62 335.25,-365.62 329.25,-365.62 323.25,-359.62 323.25,-353.62 323.25,-353.62 323.25,-341.62 323.25,-341.62 323.25,-335.62 329.25,-329.62 335.25,-329.62 335.25,-329.62 436.75,-329.62 436.75,-329.62 442.75,-329.62 448.75,-335.62 448.75,-341.62 448.75,-341.62 448.75,-353.62 448.75,-353.62 448.75,-359.62 442.75,-365.62 436.75,-365.62"/>
<text xml:space="preserve" text-anchor="middle" x="386" y="-342.2" font-family="Helvetica,sans-Serif" font-size="14.00">S4: if (jstack == 0)</text>
</g>
<!-- S3&#45;&gt;S4 -->
<g id="edge5" class="edge">
<title>S3&#45;&gt;S4</title>
<path fill="none" stroke="black" d="M386,-459.21C386,-432.14 386,-399.8 386,-377.1"/>
<polygon fill="black" stroke="black" points="389.5,-377.4 386,-367.4 382.5,-377.4 389.5,-377.4"/>
</g>
<!-- S5 -->
<g id="node6" class="node">
<title>S5</title>
<path fill="none" stroke="black" d="M328.75,-226.38C328.75,-226.38 275.25,-226.38 275.25,-226.38 269.25,-226.38 263.25,-220.38 263.25,-214.38 263.25,-214.38 263.25,-202.38 263.25,-202.38 263.25,-196.38 269.25,-190.38 275.25,-190.38 275.25,-190.38 328.75,-190.38 328.75,-190.38 334.75,-190.38 340.75,-196.38 340.75,-202.38 340.75,-202.38 340.75,-214.38 340.75,-214.38 340.75,-220.38 334.75,-226.38 328.75,-226.38"/>
<text xml:space="preserve" text-anchor="middle" x="302" y="-202.95" font-family="Helvetica,sans-Serif" font-size="14.00">S5: break;</text>
</g>
<!-- S4&#45;&gt;S5 -->
<g id="edge6" class="edge">
<title>S4&#45;&gt;S5</title>
<path fill="none" stroke="black" d="M375.36,-329.24C361.03,-305.83 335.39,-263.94 318.54,-236.4"/>
<polygon fill="black" stroke="black" points="321.55,-234.61 313.34,-227.91 315.58,-238.26 321.55,-234.61"/>
<text xml:space="preserve" text-anchor="middle" x="349.47" y="-257.2" font-family="Times New Roman,serif" font-size="14.00">true</text>
</g>
<!-- S6 -->
<g id="node7" class="node">
<title>S6</title>
<path fill="none" stroke="black" d="M491.5,-228.12C491.5,-228.12 370.5,-228.12 370.5,-228.12 364.5,-228.12 358.5,-222.12 358.5,-216.12 358.5,-216.12 358.5,-200.62 358.5,-200.62 358.5,-194.62 364.5,-188.62 370.5,-188.62 370.5,-188.62 491.5,-188.62 491.5,-188.62 497.5,-188.62 503.5,-194.62 503.5,-200.62 503.5,-200.62 503.5,-216.12 503.5,-216.12 503.5,-222.12 497.5,-228.12 491.5,-228.12"/>
<text xml:space="preserve" text-anchor="middle" x="431" y="-210.82" font-family="Helvetica,sans-Serif" font-size="14.00">S6: ir=istack[jstack&#45;&#45;];</text>
<text xml:space="preserve" text-anchor="middle" x="431" y="-195.07" font-family="Helvetica,sans-Serif" font-size="14.00">l=istack[jstack&#45;&#45;];</text>
</g>
<!-- S4&#45;&gt;S6 -->
<g id="edge7" class="edge">
<title>S4&#45;&gt;S6</title>
<path fill="none" stroke="black" d="M391.7,-329.24C399.14,-306.55 412.28,-266.48 421.3,-238.96"/>
<polygon fill="black" stroke="black" points="424.51,-240.41 424.3,-229.81 417.86,-238.23 424.51,-240.41"/>
<text xml:space="preserve" text-anchor="middle" x="427.91" y="-257.2" font-family="Times New Roman,serif" font-size="14.00">false</text>
</g>
<!-- S13 -->
<g id="node14" class="node">
<title>S13</title>
<path fill="none" stroke="black" d="M331.38,-143.75C331.38,-143.75 272.62,-143.75 272.62,-143.75 266.62,-143.75 260.62,-137.75 260.62,-131.75 260.62,-131.75 260.62,-119.75 260.62,-119.75 260.62,-113.75 266.62,-107.75 272.62,-107.75 272.62,-107.75 331.38,-107.75 331.38,-107.75 337.38,-107.75 343.38,-113.75 343.38,-119.75 343.38,-119.75 343.38,-131.75 343.38,-131.75 343.38,-137.75 337.38,-143.75 331.38,-143.75"/>
<text xml:space="preserve" text-anchor="middle" x="302" y="-120.33" font-family="Helvetica,sans-Serif" font-size="14.00">S13: return</text>
</g>
<!-- S5&#45;&gt;S13 -->
<g id="edge8" class="edge">
<title>S5&#45;&gt;S13</title>
<path fill="none" stroke="black" d="M302,-189.88C302,-179.84 302,-166.99 302,-155.51"/>
<polygon fill="black" stroke="black" points="305.5,-155.72 302,-145.72 298.5,-155.72 305.5,-155.72"/>
</g>
<!-- S6&#45;&gt;S1 -->
<g id="edge9" class="edge">
<title>S6&#45;&gt;S1</title>
<path fill="none" stroke="black" d="M446.25,-228.56C464.9,-253.99 494,-301 494,-346.62 494,-649.25 494,-649.25 494,-649.25 494,-664.29 488.64,-680.02 482.7,-692.85"/>
<polygon fill="black" stroke="black" points="479.71,-690.99 478.35,-701.5 485.97,-694.14 479.71,-690.99"/>
</g>
<!-- S8 -->
<g id="node9" class="node">
<title>S8</title>
<path fill="none" stroke="black" d="M216.25,-406.75C216.25,-406.75 99.75,-406.75 99.75,-406.75 93.75,-406.75 87.75,-400.75 87.75,-394.75 87.75,-394.75 87.75,-300.5 87.75,-300.5 87.75,-294.5 93.75,-288.5 99.75,-288.5 99.75,-288.5 216.25,-288.5 216.25,-288.5 222.25,-288.5 228.25,-294.5 228.25,-300.5 228.25,-300.5 228.25,-394.75 228.25,-394.75 228.25,-400.75 222.25,-406.75 216.25,-406.75"/>
<text xml:space="preserve" text-anchor="middle" x="158" y="-389.45" font-family="Helvetica,sans-Serif" font-size="14.00">S8: for (;;)</text>
<text xml:space="preserve" text-anchor="middle" x="158" y="-373.7" font-family="Helvetica,sans-Serif" font-size="14.00"> i++;</text>
<text xml:space="preserve" text-anchor="middle" x="158" y="-357.95" font-family="Helvetica,sans-Serif" font-size="14.00"> while (arr[i] &lt; a) i++;</text>
<text xml:space="preserve" text-anchor="middle" x="158" y="-342.2" font-family="Helvetica,sans-Serif" font-size="14.00"> j&#45;&#45;;</text>
<text xml:space="preserve" text-anchor="middle" x="158" y="-326.45" font-family="Helvetica,sans-Serif" font-size="14.00"> while (arr[j] &gt; a) j&#45;&#45;;</text>
<text xml:space="preserve" text-anchor="middle" x="158" y="-310.7" font-family="Helvetica,sans-Serif" font-size="14.00"> if (j &lt; i) break;</text>
<text xml:space="preserve" text-anchor="middle" x="158" y="-294.95" font-family="Helvetica,sans-Serif" font-size="14.00"> SWAP(arr[i],arr[j]);</text>
</g>
<!-- S7&#45;&gt;S8 -->
<g id="edge10" class="edge">
<title>S7&#45;&gt;S8</title>
<path fill="none" stroke="black" d="M158,-443.28C158,-435.15 158,-426.82 158,-418.64"/>
<polygon fill="black" stroke="black" points="161.5,-418.72 158,-408.72 154.5,-418.72 161.5,-418.72"/>
</g>
<!-- S9 -->
<g id="node10" class="node">
<title>S9</title>
<path fill="none" stroke="black" d="M206.88,-236C206.88,-236 109.12,-236 109.12,-236 103.12,-236 97.12,-230 97.12,-224 97.12,-224 97.12,-192.75 97.12,-192.75 97.12,-186.75 103.12,-180.75 109.12,-180.75 109.12,-180.75 206.88,-180.75 206.88,-180.75 212.88,-180.75 218.88,-186.75 218.88,-192.75 218.88,-192.75 218.88,-224 218.88,-224 218.88,-230 212.88,-236 206.88,-236"/>
<text xml:space="preserve" text-anchor="middle" x="158" y="-218.7" font-family="Helvetica,sans-Serif" font-size="14.00">S9: arr[l+1]=arr[j];</text>
<text xml:space="preserve" text-anchor="middle" x="158" y="-202.95" font-family="Helvetica,sans-Serif" font-size="14.00">arr[j]=a;</text>
<text xml:space="preserve" text-anchor="middle" x="158" y="-187.2" font-family="Helvetica,sans-Serif" font-size="14.00">jstack += 2;</text>
</g>
<!-- S8&#45;&gt;S9 -->
<g id="edge11" class="edge">
<title>S8&#45;&gt;S9</title>
<path fill="none" stroke="black" d="M158,-288.02C158,-274.44 158,-260.32 158,-247.86"/>
<polygon fill="black" stroke="black" points="161.5,-248 158,-238 154.5,-248 161.5,-248"/>
</g>
<!-- S10 -->
<g id="node11" class="node">
<title>S10</title>
<path fill="none" stroke="black" d="M212.12,-143.75C212.12,-143.75 103.88,-143.75 103.88,-143.75 97.88,-143.75 91.88,-137.75 91.88,-131.75 91.88,-131.75 91.88,-119.75 91.88,-119.75 91.88,-113.75 97.88,-107.75 103.88,-107.75 103.88,-107.75 212.12,-107.75 212.12,-107.75 218.12,-107.75 224.12,-113.75 224.12,-119.75 224.12,-119.75 224.12,-131.75 224.12,-131.75 224.12,-137.75 218.12,-143.75 212.12,-143.75"/>
<text xml:space="preserve" text-anchor="middle" x="158" y="-120.33" font-family="Helvetica,sans-Serif" font-size="14.00">S10: if (ir&#45;i+1 &gt;= j&#45;l)</text>
</g>
<!-- S9&#45;&gt;S10 -->
<g id="edge12" class="edge">
<title>S9&#45;&gt;S10</title>
<path fill="none" stroke="black" d="M158,-180.53C158,-172.4 158,-163.45 158,-155.23"/>
<polygon fill="black" stroke="black" points="161.5,-155.38 158,-145.38 154.5,-155.38 161.5,-155.38"/>
</g>
<!-- S11 -->
<g id="node12" class="node">
<title>S11</title>
<path fill="none" stroke="black" d="M138.38,-55.25C138.38,-55.25 19.62,-55.25 19.62,-55.25 13.62,-55.25 7.62,-49.25 7.62,-43.25 7.62,-43.25 7.62,-12 7.62,-12 7.62,-6 13.62,0 19.62,0 19.62,0 138.38,0 138.38,0 144.38,0 150.38,-6 150.38,-12 150.38,-12 150.38,-43.25 150.38,-43.25 150.38,-49.25 144.38,-55.25 138.38,-55.25"/>
<text xml:space="preserve" text-anchor="middle" x="79" y="-37.95" font-family="Helvetica,sans-Serif" font-size="14.00">S11: istack[jstack]=ir;</text>
<text xml:space="preserve" text-anchor="middle" x="79" y="-22.2" font-family="Helvetica,sans-Serif" font-size="14.00">istack[jstack&#45;1]=i;</text>
<text xml:space="preserve" text-anchor="middle" x="79" y="-6.45" font-family="Helvetica,sans-Serif" font-size="14.00">ir=j&#45;1;</text>
</g>
<!-- S10&#45;&gt;S11 -->
<g id="edge13" class="edge">
<title>S10&#45;&gt;S11</title>
<path fill="none" stroke="black" d="M143.88,-107.56C133.93,-95.47 120.27,-78.84 108.05,-63.97"/>
<polygon fill="black" stroke="black" points="111.07,-62.13 102.02,-56.63 105.66,-66.58 111.07,-62.13"/>
<text xml:space="preserve" text-anchor="middle" x="138.4" y="-76.45" font-family="Times New Roman,serif" font-size="14.00">true</text>
</g>
<!-- S12 -->
<g id="node13" class="node">
<title>S12</title>
<path fill="none" stroke="black" d="M451.5,-55.25C451.5,-55.25 324.5,-55.25 324.5,-55.25 318.5,-55.25 312.5,-49.25 312.5,-43.25 312.5,-43.25 312.5,-12 312.5,-12 312.5,-6 318.5,0 324.5,0 324.5,0 451.5,0 451.5,0 457.5,0 463.5,-6 463.5,-12 463.5,-12 463.5,-43.25 463.5,-43.25 463.5,-49.25 457.5,-55.25 451.5,-55.25"/>
<text xml:space="preserve" text-anchor="middle" x="388" y="-37.95" font-family="Helvetica,sans-Serif" font-size="14.00">S12: istack[jstack]=j&#45;1;</text>
<text xml:space="preserve" text-anchor="middle" x="388" y="-22.2" font-family="Helvetica,sans-Serif" font-size="14.00">istack[jstack&#45;1]=l;</text>
<text xml:space="preserve" text-anchor="middle" x="388" y="-6.45" font-family="Helvetica,sans-Serif" font-size="14.00">l=i;</text>
</g>
<!-- S10&#45;&gt;S12 -->
<g id="edge14" class="edge">
<title>S10&#45;&gt;S12</title>
<path fill="none" stroke="black" d="M199.65,-107.34C231.13,-94.19 275.18,-75.78 312.77,-60.06"/>
<polygon fill="black" stroke="black" points="313.91,-63.38 321.79,-56.3 311.22,-56.92 313.91,-63.38"/>
<text xml:space="preserve" text-anchor="middle" x="292.65" y="-76.45" font-family="Times New Roman,serif" font-size="14.00">false</text>
</g>
<!-- S11&#45;&gt;S1 -->
<g id="edge15" class="edge">
<title>S11&#45;&gt;S1</title>
<path fill="none" stroke="black" d="M39.96,-55.55C20.06,-72.69 0,-96.88 0,-124.75 0,-649.25 0,-649.25 0,-649.25 0,-691.12 297.13,-711.37 417.38,-717.85"/>
<polygon fill="black" stroke="black" points="417.1,-721.34 427.27,-718.37 417.47,-714.35 417.1,-721.34"/>
</g>
<!-- S12&#45;&gt;S1 -->
<g id="edge16" class="edge">
<title>S12&#45;&gt;S1</title>
<path fill="none" stroke="black" d="M463.8,-49.39C498.49,-63.95 532,-87.63 532,-124.75 532,-649.25 532,-649.25 532,-649.25 532,-667.93 519.6,-683.84 505.64,-695.83"/>
<polygon fill="black" stroke="black" points="503.7,-692.9 498.02,-701.84 508.04,-698.39 503.7,-692.9"/>
</g>
</g>
</svg>
