<?xml version="1.0" encoding="UTF-8" standalone="no"?>
<!DOCTYPE svg PUBLIC "-//W3C//DTD SVG 1.1//EN"
 "http://www.w3.org/Graphics/SVG/1.1/DTD/svg11.dtd">
<!-- Generated by graphviz version 13.1.2 (20250808.2320)
 -->
<!-- Title: DFG_Critical Pages: 1 -->
<svg width="419pt" height="352pt"
 viewBox="0.00 0.00 419.00 352.00" xmlns="http://www.w3.org/2000/svg" xmlns:xlink="http://www.w3.org/1999/xlink">
<g id="graph0" class="graph" transform="scale(1 1) rotate(0) translate(4 347.5)">
<title>DFG_Critical</title>
<polygon fill="white" stroke="none" points="-4,4 -4,-347.5 415.28,-347.5 415.28,4 -4,4"/>
<!-- Seed -->
<g id="node1" class="node">
<title>Seed</title>
<ellipse fill="lightblue" stroke="black" cx="167.62" cy="-325.5" rx="42.14" ry="18"/>
<text xml:space="preserve" text-anchor="middle" x="167.62" y="-320.45" font-family="Times New Roman,serif" font-size="14.00">Seed (0)</text>
</g>
<!-- RandomInteger -->
<g id="node2" class="node">
<title>RandomInteger</title>
<ellipse fill="lightblue" stroke="black" cx="167.62" cy="-252.5" rx="74.89" ry="18"/>
<text xml:space="preserve" text-anchor="middle" x="167.62" y="-247.45" font-family="Times New Roman,serif" font-size="14.00">RandomInteger()</text>
</g>
<!-- Seed&#45;&gt;RandomInteger -->
<g id="edge1" class="edge">
<title>Seed&#45;&gt;RandomInteger</title>
<path fill="none" stroke="black" d="M167.62,-307.31C167.62,-299.73 167.62,-290.6 167.62,-282.04"/>
<polygon fill="black" stroke="black" points="171.13,-282.04 167.63,-272.04 164.13,-282.04 171.13,-282.04"/>
</g>
<!-- Array_values -->
<g id="node3" class="node">
<title>Array_values</title>
<ellipse fill="lightblue" stroke="black" cx="167.62" cy="-179.5" rx="108.16" ry="18"/>
<text xml:space="preserve" text-anchor="middle" x="167.62" y="-174.45" font-family="Times New Roman,serif" font-size="14.00">Array[][]] (nao&#45;negativos)</text>
</g>
<!-- RandomInteger&#45;&gt;Array_values -->
<g id="edge2" class="edge">
<title>RandomInteger&#45;&gt;Array_values</title>
<path fill="none" stroke="black" d="M167.62,-234.31C167.62,-226.73 167.62,-217.6 167.62,-209.04"/>
<polygon fill="black" stroke="black" points="171.13,-209.04 167.63,-199.04 164.13,-209.04 171.13,-209.04"/>
</g>
<!-- Condition -->
<g id="node4" class="node">
<title>Condition</title>
<polygon fill="lightyellow" stroke="black" points="167.62,-124.5 43.61,-106.5 167.62,-88.5 291.64,-106.5 167.62,-124.5"/>
<text xml:space="preserve" text-anchor="middle" x="167.62" y="-101.45" font-family="Times New Roman,serif" font-size="14.00">Cond: Array[][]] &lt; 0</text>
</g>
<!-- Array_values&#45;&gt;Condition -->
<g id="edge3" class="edge">
<title>Array_values&#45;&gt;Condition</title>
<path fill="none" stroke="black" d="M167.62,-161.31C167.62,-153.73 167.62,-144.6 167.62,-136.04"/>
<polygon fill="black" stroke="black" points="171.13,-136.04 167.63,-126.04 164.13,-136.04 171.13,-136.04"/>
</g>
<!-- ThenBranch -->
<g id="node5" class="node">
<title>ThenBranch</title>
<polygon fill="lightgreen" stroke="black" points="159.25,-36 0,-36 0,0 159.25,0 159.25,-36"/>
<text xml:space="preserve" text-anchor="middle" x="79.62" y="-12.95" font-family="Times New Roman,serif" font-size="14.00">Then&#45;Branch (Ptotal/Pcnt)</text>
</g>
<!-- Condition&#45;&gt;ThenBranch -->
<g id="edge4" class="edge">
<title>Condition&#45;&gt;ThenBranch</title>
<path fill="none" stroke="black" d="M152.3,-90.43C139.33,-77.69 120.49,-59.17 105.24,-44.18"/>
<polygon fill="black" stroke="black" points="107.86,-41.85 98.27,-37.33 102.95,-46.84 107.86,-41.85"/>
<text xml:space="preserve" text-anchor="middle" x="178.76" y="-57.2" font-family="Times New Roman,serif" font-size="14.00">Falso (infeasible)</text>
</g>
<!-- ElseBranch -->
<g id="node6" class="node">
<title>ElseBranch</title>
<polygon fill="lightgreen" stroke="black" points="336.25,-36 177,-36 177,0 336.25,0 336.25,-36"/>
<text xml:space="preserve" text-anchor="middle" x="256.62" y="-12.95" font-family="Times New Roman,serif" font-size="14.00">Else&#45;Branch (Ntotal/Ncnt)</text>
</g>
<!-- Condition&#45;&gt;ElseBranch -->
<g id="edge5" class="edge">
<title>Condition&#45;&gt;ElseBranch</title>
<path fill="none" stroke="black" d="M198.41,-92.57C209.22,-86.95 220.85,-79.55 229.62,-70.5 236.25,-63.67 241.65,-54.89 245.84,-46.52"/>
<polygon fill="black" stroke="black" points="248.9,-48.25 249.86,-37.7 242.53,-45.35 248.9,-48.25"/>
<text xml:space="preserve" text-anchor="middle" x="326.15" y="-57.2" font-family="Times New Roman,serif" font-size="14.00">Verdadeiro (sempre executado)</text>
</g>
</g>
</svg>
