<?xml version="1.0" encoding="UTF-8" standalone="no"?>
<!DOCTYPE svg PUBLIC "-//W3C//DTD SVG 1.1//EN"
 "http://www.w3.org/Graphics/SVG/1.1/DTD/svg11.dtd">
<!-- Generated by graphviz version 13.1.2 (20250808.2320)
 -->
<!-- Title: DFG Pages: 1 -->
<svg width="1032pt" height="188pt"
 viewBox="0.00 0.00 1032.00 188.00" xmlns="http://www.w3.org/2000/svg" xmlns:xlink="http://www.w3.org/1999/xlink">
<g id="graph0" class="graph" transform="scale(1 1) rotate(0) translate(4 184)">
<title>DFG</title>
<polygon fill="white" stroke="none" points="-4,4 -4,-184 1027.67,-184 1027.67,4 -4,4"/>
<!-- n -->
<g id="node1" class="node">
<title>n</title>
<ellipse fill="none" stroke="black" cx="79.34" cy="-162" rx="43.58" ry="18"/>
<text xml:space="preserve" text-anchor="middle" x="79.34" y="-156.57" font-family="Helvetica,sans-Serif" font-size="14.00">n (input)</text>
</g>
<!-- ir -->
<g id="node2" class="node">
<title>ir</title>
<ellipse fill="none" stroke="black" cx="79.34" cy="-90" rx="27" ry="18"/>
<text xml:space="preserve" text-anchor="middle" x="79.34" y="-84.58" font-family="Helvetica,sans-Serif" font-size="14.00">ir</text>
</g>
<!-- n&#45;&gt;ir -->
<g id="edge1" class="edge">
<title>n&#45;&gt;ir</title>
<path fill="none" stroke="black" d="M79.34,-143.7C79.34,-136.41 79.34,-127.73 79.34,-119.54"/>
<polygon fill="black" stroke="black" points="82.84,-119.62 79.34,-109.62 75.84,-119.62 82.84,-119.62"/>
</g>
<!-- op_cond1 -->
<g id="node9" class="node">
<title>op_cond1</title>
<polygon fill="none" stroke="black" points="62.34,-36 0,-18 62.34,0 124.67,-18 62.34,-36"/>
<text xml:space="preserve" text-anchor="middle" x="62.34" y="-12.58" font-family="Helvetica,sans-Serif" font-size="14.00">ir &#45; l &lt; M</text>
</g>
<!-- ir&#45;&gt;op_cond1 -->
<g id="edge2" class="edge">
<title>ir&#45;&gt;op_cond1</title>
<path fill="none" stroke="black" d="M75.22,-72.05C73.36,-64.38 71.1,-55.1 69.01,-46.47"/>
<polygon fill="black" stroke="black" points="72.41,-45.67 66.65,-36.78 65.61,-47.32 72.41,-45.67"/>
</g>
<!-- op_cond7 -->
<g id="node16" class="node">
<title>op_cond7</title>
<polygon fill="none" stroke="black" points="240.34,-36 142.72,-18 240.34,0 337.96,-18 240.34,-36"/>
<text xml:space="preserve" text-anchor="middle" x="240.34" y="-12.58" font-family="Helvetica,sans-Serif" font-size="14.00">ir &#45; i + 1 &gt;= j &#45; l</text>
</g>
<!-- ir&#45;&gt;op_cond7 -->
<g id="edge13" class="edge">
<title>ir&#45;&gt;op_cond7</title>
<path fill="none" stroke="black" d="M101.72,-79.27C127.54,-68.04 170.42,-49.4 201.67,-35.81"/>
<polygon fill="black" stroke="black" points="203.02,-39.04 210.8,-31.84 200.23,-32.62 203.02,-39.04"/>
</g>
<!-- l -->
<g id="node3" class="node">
<title>l</title>
<ellipse fill="none" stroke="black" cx="159.34" cy="-90" rx="27" ry="18"/>
<text xml:space="preserve" text-anchor="middle" x="159.34" y="-84.58" font-family="Helvetica,sans-Serif" font-size="14.00">l</text>
</g>
<!-- l&#45;&gt;op_cond1 -->
<g id="edge3" class="edge">
<title>l&#45;&gt;op_cond1</title>
<path fill="none" stroke="black" d="M141.54,-76.16C126.73,-65.47 105.42,-50.1 88.64,-37.98"/>
<polygon fill="black" stroke="black" points="90.75,-35.19 80.59,-32.17 86.65,-40.86 90.75,-35.19"/>
</g>
<!-- l&#45;&gt;op_cond7 -->
<g id="edge16" class="edge">
<title>l&#45;&gt;op_cond7</title>
<path fill="none" stroke="black" d="M175.34,-75.17C186.73,-65.33 202.25,-51.91 215.28,-40.66"/>
<polygon fill="black" stroke="black" points="217.39,-43.46 222.66,-34.27 212.81,-38.16 217.39,-43.46"/>
</g>
<!-- jstack -->
<g id="node4" class="node">
<title>jstack</title>
<ellipse fill="none" stroke="black" cx="429.34" cy="-162" rx="33.6" ry="18"/>
<text xml:space="preserve" text-anchor="middle" x="429.34" y="-156.57" font-family="Helvetica,sans-Serif" font-size="14.00">jstack</text>
</g>
<!-- op_cond3 -->
<g id="node12" class="node">
<title>op_cond3</title>
<polygon fill="none" stroke="black" points="429.34,-108 352.18,-90 429.34,-72 506.49,-90 429.34,-108"/>
<text xml:space="preserve" text-anchor="middle" x="429.34" y="-84.58" font-family="Helvetica,sans-Serif" font-size="14.00">jstack == 0</text>
</g>
<!-- jstack&#45;&gt;op_cond3 -->
<g id="edge8" class="edge">
<title>jstack&#45;&gt;op_cond3</title>
<path fill="none" stroke="black" d="M429.34,-143.7C429.34,-136.41 429.34,-127.73 429.34,-119.54"/>
<polygon fill="black" stroke="black" points="432.84,-119.62 429.34,-109.62 425.84,-119.62 432.84,-119.62"/>
</g>
<!-- arr -->
<g id="node5" class="node">
<title>arr</title>
<ellipse fill="none" stroke="black" cx="707.34" cy="-162" rx="27" ry="18"/>
<text xml:space="preserve" text-anchor="middle" x="707.34" y="-156.57" font-family="Helvetica,sans-Serif" font-size="14.00">arr</text>
</g>
<!-- op_swap -->
<g id="node10" class="node">
<title>op_swap</title>
<polygon fill="none" stroke="black" points="580.21,-108 524.46,-108 524.46,-72 580.21,-72 580.21,-108"/>
<text xml:space="preserve" text-anchor="middle" x="552.34" y="-84.58" font-family="Helvetica,sans-Serif" font-size="14.00">SWAP</text>
</g>
<!-- arr&#45;&gt;op_swap -->
<g id="edge4" class="edge">
<title>arr&#45;&gt;op_swap</title>
<path fill="none" stroke="black" d="M685.13,-151.09C663.34,-141.36 628.92,-125.94 590.88,-108.69"/>
<polygon fill="black" stroke="black" points="592.54,-105.59 581.98,-104.65 589.64,-111.97 592.54,-105.59"/>
</g>
<!-- op_cond2 -->
<g id="node11" class="node">
<title>op_cond2</title>
<polygon fill="none" stroke="black" points="668.34,-108 598.24,-90 668.34,-72 738.43,-90 668.34,-108"/>
<text xml:space="preserve" text-anchor="middle" x="668.34" y="-84.58" font-family="Helvetica,sans-Serif" font-size="14.00">arr[i] &lt;= a</text>
</g>
<!-- arr&#45;&gt;op_cond2 -->
<g id="edge6" class="edge">
<title>arr&#45;&gt;op_cond2</title>
<path fill="none" stroke="black" d="M698.29,-144.76C693.53,-136.22 687.59,-125.56 682.26,-115.99"/>
<polygon fill="black" stroke="black" points="685.46,-114.54 677.53,-107.51 679.34,-117.95 685.46,-114.54"/>
</g>
<!-- op_cond4 -->
<g id="node13" class="node">
<title>op_cond4</title>
<polygon fill="none" stroke="black" points="818.34,-108 756,-90 818.34,-72 880.67,-90 818.34,-108"/>
<text xml:space="preserve" text-anchor="middle" x="818.34" y="-84.58" font-family="Helvetica,sans-Serif" font-size="14.00">arr[i] &lt; a</text>
</g>
<!-- arr&#45;&gt;op_cond4 -->
<g id="edge9" class="edge">
<title>arr&#45;&gt;op_cond4</title>
<path fill="none" stroke="black" d="M726.42,-148.97C743.92,-137.93 770.06,-121.44 790,-108.87"/>
<polygon fill="black" stroke="black" points="791.63,-111.98 798.22,-103.68 787.9,-106.06 791.63,-111.98"/>
</g>
<!-- op_cond5 -->
<g id="node14" class="node">
<title>op_cond5</title>
<polygon fill="none" stroke="black" points="961.34,-108 899,-90 961.34,-72 1023.67,-90 961.34,-108"/>
<text xml:space="preserve" text-anchor="middle" x="961.34" y="-84.58" font-family="Helvetica,sans-Serif" font-size="14.00">arr[j] &gt; a</text>
</g>
<!-- arr&#45;&gt;op_cond5 -->
<g id="edge11" class="edge">
<title>arr&#45;&gt;op_cond5</title>
<path fill="none" stroke="black" d="M732.15,-154.16C775.74,-142.15 866.46,-117.15 919.76,-102.46"/>
<polygon fill="black" stroke="black" points="920.37,-105.92 929.08,-99.89 918.51,-99.17 920.37,-105.92"/>
</g>
<!-- istack -->
<g id="node6" class="node">
<title>istack</title>
<ellipse fill="none" stroke="black" cx="897.34" cy="-162" rx="33.6" ry="18"/>
<text xml:space="preserve" text-anchor="middle" x="897.34" y="-156.57" font-family="Helvetica,sans-Serif" font-size="14.00">istack</text>
</g>
<!-- temp -->
<g id="node7" class="node">
<title>temp</title>
<ellipse fill="none" stroke="black" cx="552.34" cy="-162" rx="31.1" ry="18"/>
<text xml:space="preserve" text-anchor="middle" x="552.34" y="-156.57" font-family="Helvetica,sans-Serif" font-size="14.00">temp</text>
</g>
<!-- temp&#45;&gt;op_swap -->
<g id="edge5" class="edge">
<title>temp&#45;&gt;op_swap</title>
<path fill="none" stroke="black" d="M552.34,-143.7C552.34,-136.41 552.34,-127.73 552.34,-119.54"/>
<polygon fill="black" stroke="black" points="555.84,-119.62 552.34,-109.62 548.84,-119.62 555.84,-119.62"/>
</g>
<!-- a -->
<g id="node8" class="node">
<title>a</title>
<ellipse fill="none" stroke="black" cx="818.34" cy="-162" rx="27" ry="18"/>
<text xml:space="preserve" text-anchor="middle" x="818.34" y="-156.57" font-family="Helvetica,sans-Serif" font-size="14.00">a</text>
</g>
<!-- a&#45;&gt;op_cond2 -->
<g id="edge7" class="edge">
<title>a&#45;&gt;op_cond2</title>
<path fill="none" stroke="black" d="M796.52,-150.82C771.85,-139.31 731.34,-120.4 702.47,-106.93"/>
<polygon fill="black" stroke="black" points="704.32,-103.93 693.78,-102.87 701.36,-110.27 704.32,-103.93"/>
</g>
<!-- a&#45;&gt;op_cond4 -->
<g id="edge10" class="edge">
<title>a&#45;&gt;op_cond4</title>
<path fill="none" stroke="black" d="M818.34,-143.7C818.34,-136.41 818.34,-127.73 818.34,-119.54"/>
<polygon fill="black" stroke="black" points="821.84,-119.62 818.34,-109.62 814.84,-119.62 821.84,-119.62"/>
</g>
<!-- a&#45;&gt;op_cond5 -->
<g id="edge12" class="edge">
<title>a&#45;&gt;op_cond5</title>
<path fill="none" stroke="black" d="M839.74,-150.52C863.27,-139.01 901.33,-120.37 928.6,-107.02"/>
<polygon fill="black" stroke="black" points="930.03,-110.22 937.48,-102.68 926.96,-103.93 930.03,-110.22"/>
</g>
<!-- op_cond6 -->
<g id="node15" class="node">
<title>op_cond6</title>
<polygon fill="none" stroke="black" points="984.34,-180 948.82,-162 984.34,-144 1019.86,-162 984.34,-180"/>
<text xml:space="preserve" text-anchor="middle" x="984.34" y="-156.57" font-family="Helvetica,sans-Serif" font-size="14.00">j &lt; i</text>
</g>
<!-- i -->
<g id="node17" class="node">
<title>i</title>
<ellipse fill="none" stroke="black" cx="235.34" cy="-90" rx="27" ry="18"/>
<text xml:space="preserve" text-anchor="middle" x="235.34" y="-84.58" font-family="Helvetica,sans-Serif" font-size="14.00">i</text>
</g>
<!-- i&#45;&gt;op_cond7 -->
<g id="edge14" class="edge">
<title>i&#45;&gt;op_cond7</title>
<path fill="none" stroke="black" d="M236.57,-71.7C237.09,-64.41 237.71,-55.73 238.3,-47.54"/>
<polygon fill="black" stroke="black" points="241.78,-47.84 239.01,-37.61 234.8,-47.34 241.78,-47.84"/>
</g>
<!-- j -->
<g id="node18" class="node">
<title>j</title>
<ellipse fill="none" stroke="black" cx="307.34" cy="-90" rx="27" ry="18"/>
<text xml:space="preserve" text-anchor="middle" x="307.34" y="-84.58" font-family="Helvetica,sans-Serif" font-size="14.00">j</text>
</g>
<!-- j&#45;&gt;op_cond7 -->
<g id="edge15" class="edge">
<title>j&#45;&gt;op_cond7</title>
<path fill="none" stroke="black" d="M293.45,-74.5C284.38,-65.02 272.34,-52.44 262.02,-41.66"/>
<polygon fill="black" stroke="black" points="264.69,-39.38 255.25,-34.58 259.63,-44.22 264.69,-39.38"/>
</g>
</g>
</svg>
