<?xml version="1.0" encoding="UTF-8" standalone="no"?>
<!DOCTYPE svg PUBLIC "-//W3C//DTD SVG 1.1//EN"
 "http://www.w3.org/Graphics/SVG/1.1/DTD/svg11.dtd">
<!-- Generated by graphviz version 13.1.2 (20250808.2320)
 -->
<!-- Title: sort_CFG Pages: 1 -->
<svg width="452pt" height="761pt"
 viewBox="0.00 0.00 452.00 761.00" xmlns="http://www.w3.org/2000/svg" xmlns:xlink="http://www.w3.org/1999/xlink">
<g id="graph0" class="graph" transform="scale(1 1) rotate(0) translate(4 757.25)">
<title>sort_CFG</title>
<polygon fill="white" stroke="none" points="-4,4 -4,-757.25 448.25,-757.25 448.25,4 -4,4"/>
<!-- N1 -->
<g id="node1" class="node">
<title>N1</title>
<path fill="none" stroke="black" d="M308,-753.25C308,-753.25 124.75,-753.25 124.75,-753.25 118.75,-753.25 112.75,-747.25 112.75,-741.25 112.75,-741.25 112.75,-662.75 112.75,-662.75 112.75,-656.75 118.75,-650.75 124.75,-650.75 124.75,-650.75 308,-650.75 308,-650.75 314,-650.75 320,-656.75 320,-662.75 320,-662.75 320,-741.25 320,-741.25 320,-747.25 314,-753.25 308,-753.25"/>
<text xml:space="preserve" text-anchor="middle" x="216.38" y="-735.95" font-family="Helvetica,sans-Serif" font-size="14.00">1: Initialization</text>
<text xml:space="preserve" text-anchor="middle" x="216.38" y="-720.2" font-family="Helvetica,sans-Serif" font-size="14.00">unsigned long i, ir = n, j, k, l = 1;</text>
<text xml:space="preserve" text-anchor="middle" x="216.38" y="-704.45" font-family="Helvetica,sans-Serif" font-size="14.00">int jstack = 0;</text>
<text xml:space="preserve" text-anchor="middle" x="216.38" y="-688.7" font-family="Helvetica,sans-Serif" font-size="14.00">int flag;</text>
<text xml:space="preserve" text-anchor="middle" x="216.38" y="-672.95" font-family="Helvetica,sans-Serif" font-size="14.00">float a, temp;</text>
<text xml:space="preserve" text-anchor="middle" x="216.38" y="-657.2" font-family="Helvetica,sans-Serif" font-size="14.00">flag = 0;</text>
</g>
<!-- N2 -->
<g id="node2" class="node">
<title>N2</title>
<path fill="none" stroke="black" d="M247.25,-613.75C247.25,-613.75 185.5,-613.75 185.5,-613.75 179.5,-613.75 173.5,-607.75 173.5,-601.75 173.5,-601.75 173.5,-586.25 173.5,-586.25 173.5,-580.25 179.5,-574.25 185.5,-574.25 185.5,-574.25 247.25,-574.25 247.25,-574.25 253.25,-574.25 259.25,-580.25 259.25,-586.25 259.25,-586.25 259.25,-601.75 259.25,-601.75 259.25,-607.75 253.25,-613.75 247.25,-613.75"/>
<text xml:space="preserve" text-anchor="middle" x="216.38" y="-596.45" font-family="Helvetica,sans-Serif" font-size="14.00">2: for (;;)</text>
<text xml:space="preserve" text-anchor="middle" x="216.38" y="-580.7" font-family="Helvetica,sans-Serif" font-size="14.00">if (ir &#45; l &lt; M)</text>
</g>
<!-- N1&#45;&gt;N2 -->
<g id="edge1" class="edge">
<title>N1&#45;&gt;N2</title>
<path fill="none" stroke="black" d="M216.38,-650.48C216.38,-642.02 216.38,-633.46 216.38,-625.69"/>
<polygon fill="black" stroke="black" points="219.88,-625.76 216.38,-615.76 212.88,-625.76 219.88,-625.76"/>
</g>
<!-- N3 -->
<g id="node3" class="node">
<title>N3</title>
<path fill="none" stroke="black" d="M154.75,-403.62C154.75,-403.62 12,-403.62 12,-403.62 6,-403.62 0,-397.62 0,-391.62 0,-391.62 0,-218.62 0,-218.62 0,-212.62 6,-206.62 12,-206.62 12,-206.62 154.75,-206.62 154.75,-206.62 160.75,-206.62 166.75,-212.62 166.75,-218.62 166.75,-218.62 166.75,-391.62 166.75,-391.62 166.75,-397.62 160.75,-403.62 154.75,-403.62"/>
<text xml:space="preserve" text-anchor="middle" x="83.38" y="-386.32" font-family="Helvetica,sans-Serif" font-size="14.00">3: Insertion sort block</text>
<text xml:space="preserve" text-anchor="middle" x="83.38" y="-370.57" font-family="Helvetica,sans-Serif" font-size="14.00">for (j = l + 1; j &lt;= ir; j++) {</text>
<text xml:space="preserve" text-anchor="middle" x="83.38" y="-354.82" font-family="Helvetica,sans-Serif" font-size="14.00"> a = arr[j];</text>
<text xml:space="preserve" text-anchor="middle" x="83.38" y="-339.07" font-family="Helvetica,sans-Serif" font-size="14.00"> for (i = j &#45; 1; i &gt;= l; i&#45;&#45;) {</text>
<text xml:space="preserve" text-anchor="middle" x="83.38" y="-323.32" font-family="Helvetica,sans-Serif" font-size="14.00"> &#160;if (arr[i] &lt;= a) break;</text>
<text xml:space="preserve" text-anchor="middle" x="83.38" y="-307.57" font-family="Helvetica,sans-Serif" font-size="14.00"> &#160;arr[i+1] = arr[i];</text>
<text xml:space="preserve" text-anchor="middle" x="83.38" y="-291.82" font-family="Helvetica,sans-Serif" font-size="14.00"> }</text>
<text xml:space="preserve" text-anchor="middle" x="83.38" y="-276.07" font-family="Helvetica,sans-Serif" font-size="14.00"> arr[i+1] = a;</text>
<text xml:space="preserve" text-anchor="middle" x="83.38" y="-260.32" font-family="Helvetica,sans-Serif" font-size="14.00">}</text>
<text xml:space="preserve" text-anchor="middle" x="83.38" y="-244.57" font-family="Helvetica,sans-Serif" font-size="14.00">if (jstack == 0) break;</text>
<text xml:space="preserve" text-anchor="middle" x="83.38" y="-228.82" font-family="Helvetica,sans-Serif" font-size="14.00">ir = istack[jstack&#45;&#45;];</text>
<text xml:space="preserve" text-anchor="middle" x="83.38" y="-213.07" font-family="Helvetica,sans-Serif" font-size="14.00">l = istack[jstack&#45;&#45;];</text>
</g>
<!-- N2&#45;&gt;N3 -->
<g id="edge2" class="edge">
<title>N2&#45;&gt;N3</title>
<path fill="none" stroke="black" d="M173.22,-583.02C158.23,-577.49 142.63,-569.04 132.38,-556.25 100.79,-516.86 87.62,-462.89 82.74,-415.17"/>
<polygon fill="black" stroke="black" points="86.23,-414.98 81.85,-405.33 79.26,-415.6 86.23,-414.98"/>
<text xml:space="preserve" text-anchor="middle" x="142.88" y="-542.95" font-family="Times New Roman,serif" font-size="14.00">true</text>
</g>
<!-- N4 -->
<g id="node4" class="node">
<title>N4</title>
<path fill="none" stroke="black" d="M432.25,-521.75C432.25,-521.75 196.5,-521.75 196.5,-521.75 190.5,-521.75 184.5,-515.75 184.5,-509.75 184.5,-509.75 184.5,-100.5 184.5,-100.5 184.5,-94.5 190.5,-88.5 196.5,-88.5 196.5,-88.5 432.25,-88.5 432.25,-88.5 438.25,-88.5 444.25,-94.5 444.25,-100.5 444.25,-100.5 444.25,-509.75 444.25,-509.75 444.25,-515.75 438.25,-521.75 432.25,-521.75"/>
<text xml:space="preserve" text-anchor="middle" x="314.38" y="-504.45" font-family="Helvetica,sans-Serif" font-size="14.00">4: Partitioning block</text>
<text xml:space="preserve" text-anchor="middle" x="314.38" y="-488.7" font-family="Helvetica,sans-Serif" font-size="14.00">k = (l + ir) &gt;&gt; 1;</text>
<text xml:space="preserve" text-anchor="middle" x="314.38" y="-472.95" font-family="Helvetica,sans-Serif" font-size="14.00">SWAP(arr[k], arr[l+1])</text>
<text xml:space="preserve" text-anchor="middle" x="314.38" y="-457.2" font-family="Helvetica,sans-Serif" font-size="14.00">if (arr[l] &gt; arr[ir]) SWAP(arr[l], arr[ir])</text>
<text xml:space="preserve" text-anchor="middle" x="314.38" y="-441.45" font-family="Helvetica,sans-Serif" font-size="14.00">if (arr[l+1] &gt; arr[ir]) SWAP(arr[l+1], arr[ir])</text>
<text xml:space="preserve" text-anchor="middle" x="314.38" y="-425.7" font-family="Helvetica,sans-Serif" font-size="14.00">if (arr[l] &gt; arr[l+1]) SWAP(arr[l], arr[l+1])</text>
<text xml:space="preserve" text-anchor="middle" x="314.38" y="-409.95" font-family="Helvetica,sans-Serif" font-size="14.00">i = l + 1;</text>
<text xml:space="preserve" text-anchor="middle" x="314.38" y="-394.2" font-family="Helvetica,sans-Serif" font-size="14.00">j = ir;</text>
<text xml:space="preserve" text-anchor="middle" x="314.38" y="-378.45" font-family="Helvetica,sans-Serif" font-size="14.00">a = arr[l+1];</text>
<text xml:space="preserve" text-anchor="middle" x="314.38" y="-362.7" font-family="Helvetica,sans-Serif" font-size="14.00">for (;;) {</text>
<text xml:space="preserve" text-anchor="middle" x="314.38" y="-346.95" font-family="Helvetica,sans-Serif" font-size="14.00"> i++; while (arr[i] &lt; a) i++;</text>
<text xml:space="preserve" text-anchor="middle" x="314.38" y="-331.2" font-family="Helvetica,sans-Serif" font-size="14.00"> j&#45;&#45;; while (arr[j] &gt; a) j&#45;&#45;;</text>
<text xml:space="preserve" text-anchor="middle" x="314.38" y="-315.45" font-family="Helvetica,sans-Serif" font-size="14.00"> if (j &lt; i) break;</text>
<text xml:space="preserve" text-anchor="middle" x="314.38" y="-299.7" font-family="Helvetica,sans-Serif" font-size="14.00"> SWAP(arr[i], arr[j]);</text>
<text xml:space="preserve" text-anchor="middle" x="314.38" y="-283.95" font-family="Helvetica,sans-Serif" font-size="14.00">}</text>
<text xml:space="preserve" text-anchor="middle" x="314.38" y="-268.2" font-family="Helvetica,sans-Serif" font-size="14.00">arr[l+1] = arr[j];</text>
<text xml:space="preserve" text-anchor="middle" x="314.38" y="-252.45" font-family="Helvetica,sans-Serif" font-size="14.00">arr[j] = a;</text>
<text xml:space="preserve" text-anchor="middle" x="314.38" y="-236.7" font-family="Helvetica,sans-Serif" font-size="14.00">jstack += 2;</text>
<text xml:space="preserve" text-anchor="middle" x="314.38" y="-220.95" font-family="Helvetica,sans-Serif" font-size="14.00">if (ir &#45; i + 1 &gt;= j &#45; l) {</text>
<text xml:space="preserve" text-anchor="middle" x="314.38" y="-205.2" font-family="Helvetica,sans-Serif" font-size="14.00"> istack[jstack] = ir;</text>
<text xml:space="preserve" text-anchor="middle" x="314.38" y="-189.45" font-family="Helvetica,sans-Serif" font-size="14.00"> istack[jstack&#45;1] = i;</text>
<text xml:space="preserve" text-anchor="middle" x="314.38" y="-173.7" font-family="Helvetica,sans-Serif" font-size="14.00"> ir = j &#45; 1;</text>
<text xml:space="preserve" text-anchor="middle" x="314.38" y="-157.95" font-family="Helvetica,sans-Serif" font-size="14.00">} else {</text>
<text xml:space="preserve" text-anchor="middle" x="314.38" y="-142.2" font-family="Helvetica,sans-Serif" font-size="14.00"> istack[jstack] = j &#45; 1;</text>
<text xml:space="preserve" text-anchor="middle" x="314.38" y="-126.45" font-family="Helvetica,sans-Serif" font-size="14.00"> istack[jstack&#45;1] = l;</text>
<text xml:space="preserve" text-anchor="middle" x="314.38" y="-110.7" font-family="Helvetica,sans-Serif" font-size="14.00"> l = i;</text>
<text xml:space="preserve" text-anchor="middle" x="314.38" y="-94.95" font-family="Helvetica,sans-Serif" font-size="14.00">}</text>
</g>
<!-- N2&#45;&gt;N4 -->
<g id="edge3" class="edge">
<title>N2&#45;&gt;N4</title>
<path fill="none" stroke="black" d="M228.94,-574.02C232.3,-568.44 235.72,-562.23 238.38,-556.25 241.8,-548.53 245.12,-540.62 248.34,-532.57"/>
<polygon fill="black" stroke="black" points="251.57,-533.92 251.97,-523.33 245.06,-531.36 251.57,-533.92"/>
<text xml:space="preserve" text-anchor="middle" x="256.69" y="-542.95" font-family="Times New Roman,serif" font-size="14.00">false</text>
</g>
<!-- N3&#45;&gt;N2 -->
<g id="edge4" class="edge">
<title>N3&#45;&gt;N2</title>
<path fill="none" stroke="black" d="M107.63,-403.92C122.51,-452.37 144.78,-510.21 175.88,-556.25 178.19,-559.68 180.89,-563 183.78,-566.16"/>
<polygon fill="black" stroke="black" points="181.1,-568.43 190.65,-573.02 186.04,-563.48 181.1,-568.43"/>
<text xml:space="preserve" text-anchor="middle" x="205.12" y="-542.95" font-family="Times New Roman,serif" font-size="14.00">jstack != 0</text>
</g>
<!-- N5 -->
<g id="node5" class="node">
<title>N5</title>
<path fill="none" stroke="black" d="M98.38,-36C98.38,-36 68.38,-36 68.38,-36 62.38,-36 56.38,-30 56.38,-24 56.38,-24 56.38,-12 56.38,-12 56.38,-6 62.38,0 68.38,0 68.38,0 98.38,0 98.38,0 104.38,0 110.38,-6 110.38,-12 110.38,-12 110.38,-24 110.38,-24 110.38,-30 104.38,-36 98.38,-36"/>
<text xml:space="preserve" text-anchor="middle" x="83.38" y="-12.57" font-family="Helvetica,sans-Serif" font-size="14.00">5: Exit</text>
</g>
<!-- N3&#45;&gt;N5 -->
<g id="edge5" class="edge">
<title>N3&#45;&gt;N5</title>
<path fill="none" stroke="black" d="M83.38,-206.4C83.38,-150.64 83.38,-84.69 83.38,-47.77"/>
<polygon fill="black" stroke="black" points="86.88,-47.93 83.38,-37.93 79.88,-47.93 86.88,-47.93"/>
<text xml:space="preserve" text-anchor="middle" x="114.5" y="-57.2" font-family="Times New Roman,serif" font-size="14.00">jstack == 0</text>
</g>
<!-- N4&#45;&gt;N2 -->
<g id="edge6" class="edge">
<title>N4&#45;&gt;N2</title>
<path fill="none" stroke="black" d="M291.34,-522.17C286.31,-534.11 280.37,-545.58 273.38,-556.25 270.9,-560.02 267.9,-563.48 264.57,-566.65"/>
<polygon fill="black" stroke="black" points="262.42,-563.88 256.93,-572.94 266.87,-569.28 262.42,-563.88"/>
</g>
</g>
</svg>
