<?xml version="1.0" encoding="UTF-8" standalone="no"?>
<!DOCTYPE svg PUBLIC "-//W3C//DTD SVG 1.1//EN"
 "http://www.w3.org/Graphics/SVG/1.1/DTD/svg11.dtd">
<!-- Generated by graphviz version 13.1.2 (20250808.2320)
 -->
<!-- Title: fib Pages: 1 -->
<svg width="334pt" height="662pt"
 viewBox="0.00 0.00 334.00 662.00" xmlns="http://www.w3.org/2000/svg" xmlns:xlink="http://www.w3.org/1999/xlink">
<g id="graph0" class="graph" transform="scale(1 1) rotate(0) translate(4 658)">
<title>fib</title>
<polygon fill="white" stroke="none" points="-4,4 -4,-658 330.4,-658 330.4,4 -4,4"/>
<!-- start -->
<g id="node1" class="node">
<title>start</title>
<ellipse fill="none" stroke="black" cx="176.88" cy="-636" rx="52.56" ry="18"/>
<text xml:space="preserve" text-anchor="middle" x="176.88" y="-630.58" font-family="Arial" font-size="14.00">Start fib(n)</text>
</g>
<!-- decl -->
<g id="node3" class="node">
<title>decl</title>
<polygon fill="none" stroke="black" points="265.88,-581 87.88,-581 87.88,-545 265.88,-545 265.88,-581"/>
<text xml:space="preserve" text-anchor="middle" x="176.88" y="-557.58" font-family="Arial" font-size="14.00">int i, Fnew, Fold, temp, ans</text>
</g>
<!-- start&#45;&gt;decl -->
<g id="edge1" class="edge">
<title>start&#45;&gt;decl</title>
<path fill="none" stroke="black" d="M176.88,-617.81C176.88,-610.23 176.88,-601.1 176.88,-592.54"/>
<polygon fill="black" stroke="black" points="180.38,-592.54 176.88,-582.54 173.38,-592.54 180.38,-592.54"/>
</g>
<!-- end -->
<g id="node2" class="node">
<title>end</title>
<ellipse fill="none" stroke="black" cx="256.88" cy="-18" rx="69.53" ry="18"/>
<text xml:space="preserve" text-anchor="middle" x="256.88" y="-12.57" font-family="Arial" font-size="14.00">End return ans</text>
</g>
<!-- init1 -->
<g id="node4" class="node">
<title>init1</title>
<polygon fill="none" stroke="black" points="213,-508 140.75,-508 140.75,-472 213,-472 213,-508"/>
<text xml:space="preserve" text-anchor="middle" x="176.88" y="-484.57" font-family="Arial" font-size="14.00">Fnew = 1</text>
</g>
<!-- decl&#45;&gt;init1 -->
<g id="edge2" class="edge">
<title>decl&#45;&gt;init1</title>
<path fill="none" stroke="black" d="M176.88,-544.81C176.88,-537.23 176.88,-528.1 176.88,-519.54"/>
<polygon fill="black" stroke="black" points="180.38,-519.54 176.88,-509.54 173.38,-519.54 180.38,-519.54"/>
</g>
<!-- init2 -->
<g id="node5" class="node">
<title>init2</title>
<polygon fill="none" stroke="black" points="209.62,-435 144.12,-435 144.12,-399 209.62,-399 209.62,-435"/>
<text xml:space="preserve" text-anchor="middle" x="176.88" y="-411.57" font-family="Arial" font-size="14.00">Fold = 0</text>
</g>
<!-- init1&#45;&gt;init2 -->
<g id="edge3" class="edge">
<title>init1&#45;&gt;init2</title>
<path fill="none" stroke="black" d="M176.88,-471.81C176.88,-464.23 176.88,-455.1 176.88,-446.54"/>
<polygon fill="black" stroke="black" points="180.38,-446.54 176.88,-436.54 173.38,-446.54 180.38,-446.54"/>
</g>
<!-- for_init -->
<g id="node6" class="node">
<title>for_init</title>
<polygon fill="none" stroke="black" points="203.88,-362 149.88,-362 149.88,-326 203.88,-326 203.88,-362"/>
<text xml:space="preserve" text-anchor="middle" x="176.88" y="-338.57" font-family="Arial" font-size="14.00">i = 2</text>
</g>
<!-- init2&#45;&gt;for_init -->
<g id="edge4" class="edge">
<title>init2&#45;&gt;for_init</title>
<path fill="none" stroke="black" d="M176.88,-398.81C176.88,-391.23 176.88,-382.1 176.88,-373.54"/>
<polygon fill="black" stroke="black" points="180.38,-373.54 176.88,-363.54 173.38,-373.54 180.38,-373.54"/>
</g>
<!-- for_cond -->
<g id="node7" class="node">
<title>for_cond</title>
<polygon fill="none" stroke="black" points="176.88,-289 65.85,-271 176.87,-253 287.9,-271 176.88,-289"/>
<text xml:space="preserve" text-anchor="middle" x="176.88" y="-265.57" font-family="Arial" font-size="14.00">i &lt;= 30 &amp;&amp; i &lt;= n</text>
</g>
<!-- for_init&#45;&gt;for_cond -->
<g id="edge5" class="edge">
<title>for_init&#45;&gt;for_cond</title>
<path fill="none" stroke="black" d="M176.88,-325.81C176.88,-318.23 176.88,-309.1 176.88,-300.54"/>
<polygon fill="black" stroke="black" points="180.38,-300.54 176.88,-290.54 173.38,-300.54 180.38,-300.54"/>
</g>
<!-- loop_body -->
<g id="node8" class="node">
<title>loop_body</title>
<polygon fill="none" stroke="black" points="139.75,-201.25 0,-201.25 0,-146 139.75,-146 139.75,-201.25"/>
<text xml:space="preserve" text-anchor="middle" x="69.88" y="-183.95" font-family="Arial" font-size="14.00">temp = Fnew</text>
<text xml:space="preserve" text-anchor="middle" x="69.88" y="-168.2" font-family="Arial" font-size="14.00">Fnew = Fnew + Fold</text>
<text xml:space="preserve" text-anchor="middle" x="69.88" y="-152.45" font-family="Arial" font-size="14.00">Fold = temp</text>
</g>
<!-- for_cond&#45;&gt;loop_body -->
<g id="edge6" class="edge">
<title>for_cond&#45;&gt;loop_body</title>
<path fill="none" stroke="black" d="M117.42,-262.22C100.95,-257.12 84.71,-248.73 74.12,-235 69.3,-228.74 66.94,-220.94 66.02,-213.05"/>
<polygon fill="black" stroke="black" points="69.52,-212.96 65.64,-203.11 62.53,-213.23 69.52,-212.96"/>
<text xml:space="preserve" text-anchor="middle" x="88" y="-221.7" font-family="Arial" font-size="14.00">True</text>
</g>
<!-- for_cond&#45;&gt;loop_body -->
<g id="edge12" class="edge">
<title>for_cond&#45;&gt;loop_body</title>
<path fill="none" stroke="red" d="M154.63,-256.17C145.47,-250.1 134.96,-242.62 126.12,-235 117.34,-227.42 108.49,-218.59 100.48,-210.06"/>
<polygon fill="red" stroke="red" points="103.16,-207.8 93.82,-202.81 98.01,-212.54 103.16,-207.8"/>
<text xml:space="preserve" text-anchor="middle" x="140" y="-221.7" font-family="Arial" font-size="14.00" fill="red">True</text>
</g>
<!-- assign_ans -->
<g id="node10" class="node">
<title>assign_ans</title>
<polygon fill="none" stroke="black" points="300.12,-191.62 213.62,-191.62 213.62,-155.62 300.12,-155.62 300.12,-191.62"/>
<text xml:space="preserve" text-anchor="middle" x="256.88" y="-168.2" font-family="Arial" font-size="14.00">ans = Fnew</text>
</g>
<!-- for_cond&#45;&gt;assign_ans -->
<g id="edge7" class="edge">
<title>for_cond&#45;&gt;assign_ans</title>
<path fill="none" stroke="black" d="M189.73,-254.68C201.99,-240.06 220.7,-217.76 235.25,-200.4"/>
<polygon fill="black" stroke="black" points="237.71,-202.92 241.46,-193.01 232.35,-198.42 237.71,-202.92"/>
<text xml:space="preserve" text-anchor="middle" x="235.77" y="-221.7" font-family="Arial" font-size="14.00">False</text>
</g>
<!-- incr -->
<g id="node9" class="node">
<title>incr</title>
<polygon fill="none" stroke="black" points="180.88,-109 126.88,-109 126.88,-73 180.88,-73 180.88,-109"/>
<text xml:space="preserve" text-anchor="middle" x="153.88" y="-85.58" font-family="Arial" font-size="14.00">i++</text>
</g>
<!-- loop_body&#45;&gt;incr -->
<g id="edge8" class="edge">
<title>loop_body&#45;&gt;incr</title>
<path fill="none" stroke="black" d="M91.44,-145.78C100.62,-136.5 111.45,-126.14 121.52,-117.01"/>
<polygon fill="black" stroke="black" points="123.85,-119.63 128.99,-110.37 119.19,-114.39 123.85,-119.63"/>
</g>
<!-- loop_body&#45;&gt;incr -->
<g id="edge13" class="edge">
<title>loop_body&#45;&gt;incr</title>
<path fill="none" stroke="red" d="M104.25,-145.78C114.29,-136.61 124.9,-126.4 133.78,-117.36"/>
<polygon fill="red" stroke="red" points="136.24,-119.85 140.63,-110.21 131.18,-115 136.24,-119.85"/>
</g>
<!-- incr&#45;&gt;for_cond -->
<g id="edge9" class="edge">
<title>incr&#45;&gt;for_cond</title>
<path fill="none" stroke="black" d="M151.91,-109.43C152.84,-140.47 160.98,-205.53 168.3,-242.6"/>
<polygon fill="black" stroke="black" points="164.82,-243.04 170.32,-252.09 171.66,-241.58 164.82,-243.04"/>
</g>
<!-- incr&#45;&gt;for_cond -->
<g id="edge14" class="edge">
<title>incr&#45;&gt;for_cond</title>
<path fill="none" stroke="red" d="M160.31,-109.28C167.36,-140.05 176,-204.62 178.32,-241.88"/>
<polygon fill="red" stroke="red" points="174.81,-241.6 178.78,-251.42 181.8,-241.27 174.81,-241.6"/>
</g>
<!-- return -->
<g id="node11" class="node">
<title>return</title>
<polygon fill="none" stroke="black" points="295.25,-109 218.5,-109 218.5,-73 295.25,-73 295.25,-109"/>
<text xml:space="preserve" text-anchor="middle" x="256.88" y="-85.58" font-family="Arial" font-size="14.00">return ans</text>
</g>
<!-- assign_ans&#45;&gt;return -->
<g id="edge10" class="edge">
<title>assign_ans&#45;&gt;return</title>
<path fill="none" stroke="black" d="M256.88,-155.13C256.88,-145.09 256.88,-132.24 256.88,-120.76"/>
<polygon fill="black" stroke="black" points="260.38,-120.97 256.88,-110.97 253.38,-120.97 260.38,-120.97"/>
</g>
<!-- return&#45;&gt;end -->
<g id="edge11" class="edge">
<title>return&#45;&gt;end</title>
<path fill="none" stroke="black" d="M256.88,-72.81C256.88,-65.23 256.88,-56.1 256.88,-47.54"/>
<polygon fill="black" stroke="black" points="260.38,-47.54 256.88,-37.54 253.38,-47.54 260.38,-47.54"/>
</g>
</g>
</svg>
