<?xml version="1.0" encoding="UTF-8" standalone="no"?>
<!DOCTYPE svg PUBLIC "-//W3C//DTD SVG 1.1//EN"
 "http://www.w3.org/Graphics/SVG/1.1/DTD/svg11.dtd">
<!-- Generated by graphviz version 13.1.2 (20250808.2320)
 -->
<!-- Title: main Pages: 1 -->
<svg width="455pt" height="1118pt"
 viewBox="0.00 0.00 455.00 1118.00" xmlns="http://www.w3.org/2000/svg" xmlns:xlink="http://www.w3.org/1999/xlink">
<g id="graph0" class="graph" transform="scale(1 1) rotate(0) translate(4 1114.25)">
<title>main</title>
<polygon fill="white" stroke="none" points="-4,4 -4,-1114.25 451.06,-1114.25 451.06,4 -4,4"/>
<!-- start -->
<g id="node1" class="node">
<title>start</title>
<ellipse fill="none" stroke="black" cx="252.06" cy="-1092.25" rx="58.05" ry="18"/>
<text xml:space="preserve" text-anchor="middle" x="252.06" y="-1086.83" font-family="Arial" font-size="14.00">main() Start</text>
</g>
<!-- node1 -->
<g id="node3" class="node">
<title>node1</title>
<polygon fill="none" stroke="black" points="279.06,-1037.25 225.06,-1037.25 225.06,-1001.25 279.06,-1001.25 279.06,-1037.25"/>
<text xml:space="preserve" text-anchor="middle" x="252.06" y="-1013.83" font-family="Arial" font-size="14.00">int a;</text>
</g>
<!-- start&#45;&gt;node1 -->
<g id="edge1" class="edge">
<title>start&#45;&gt;node1</title>
<path fill="none" stroke="black" d="M252.06,-1074.06C252.06,-1066.48 252.06,-1057.35 252.06,-1048.79"/>
<polygon fill="black" stroke="black" points="255.56,-1048.79 252.06,-1038.79 248.56,-1048.79 255.56,-1048.79"/>
</g>
<!-- end -->
<g id="node2" class="node">
<title>end</title>
<ellipse fill="none" stroke="black" cx="55.06" cy="-18" rx="55.06" ry="18"/>
<text xml:space="preserve" text-anchor="middle" x="55.06" y="-12.57" font-family="Arial" font-size="14.00">main() End</text>
</g>
<!-- node2 -->
<g id="node4" class="node">
<title>node2</title>
<polygon fill="none" stroke="black" points="281.06,-964.25 223.06,-964.25 223.06,-928.25 281.06,-928.25 281.06,-964.25"/>
<text xml:space="preserve" text-anchor="middle" x="252.06" y="-940.83" font-family="Arial" font-size="14.00">a = 30;</text>
</g>
<!-- node1&#45;&gt;node2 -->
<g id="edge2" class="edge">
<title>node1&#45;&gt;node2</title>
<path fill="none" stroke="black" d="M252.06,-1001.06C252.06,-993.48 252.06,-984.35 252.06,-975.79"/>
<polygon fill="black" stroke="black" points="255.56,-975.79 252.06,-965.79 248.56,-975.79 255.56,-975.79"/>
</g>
<!-- fib_call -->
<g id="node17" class="node">
<title>fib_call</title>
<polygon fill="none" stroke="black" points="287.43,-891.25 216.68,-891.25 216.68,-855.25 287.43,-855.25 287.43,-891.25"/>
<text xml:space="preserve" text-anchor="middle" x="252.06" y="-867.83" font-family="Arial" font-size="14.00">fib(a) call</text>
</g>
<!-- node2&#45;&gt;fib_call -->
<g id="edge3" class="edge">
<title>node2&#45;&gt;fib_call</title>
<path fill="none" stroke="black" d="M252.06,-928.06C252.06,-920.48 252.06,-911.35 252.06,-902.79"/>
<polygon fill="black" stroke="black" points="255.56,-902.79 252.06,-892.79 248.56,-902.79 255.56,-902.79"/>
</g>
<!-- node3 -->
<g id="node5" class="node">
<title>node3</title>
<polygon fill="none" stroke="black" points="82.06,-182 28.06,-182 28.06,-146 82.06,-146 82.06,-182"/>
<text xml:space="preserve" text-anchor="middle" x="55.06" y="-158.57" font-family="Arial" font-size="14.00">fib(a);</text>
</g>
<!-- node4 -->
<g id="node6" class="node">
<title>node4</title>
<polygon fill="none" stroke="black" points="88.18,-109 21.93,-109 21.93,-73 88.18,-73 88.18,-109"/>
<text xml:space="preserve" text-anchor="middle" x="55.06" y="-85.58" font-family="Arial" font-size="14.00">return a;</text>
</g>
<!-- node3&#45;&gt;node4 -->
<g id="edge17" class="edge">
<title>node3&#45;&gt;node4</title>
<path fill="none" stroke="black" d="M55.06,-145.81C55.06,-138.23 55.06,-129.1 55.06,-120.54"/>
<polygon fill="black" stroke="black" points="58.56,-120.54 55.06,-110.54 51.56,-120.54 58.56,-120.54"/>
</g>
<!-- node4&#45;&gt;end -->
<g id="edge18" class="edge">
<title>node4&#45;&gt;end</title>
<path fill="none" stroke="black" d="M55.06,-72.81C55.06,-65.23 55.06,-56.1 55.06,-47.54"/>
<polygon fill="black" stroke="black" points="58.56,-47.54 55.06,-37.54 51.56,-47.54 58.56,-47.54"/>
</g>
<!-- cond1 -->
<g id="node7" class="node">
<title>cond1</title>
<polygon fill="none" stroke="black" points="252.06,-668.75 57.05,-650.75 252.06,-632.75 447.06,-650.75 252.06,-668.75"/>
<text xml:space="preserve" text-anchor="middle" x="252.06" y="-645.33" font-family="Arial" font-size="14.00">for (i = 2; i &lt;= 30 &amp;&amp; i &lt;= n; i++)</text>
</g>
<!-- cond2 -->
<g id="node8" class="node">
<title>cond2</title>
<polygon fill="none" stroke="black" points="206.06,-595.75 151.48,-577.75 206.06,-559.75 260.63,-577.75 206.06,-595.75"/>
<text xml:space="preserve" text-anchor="middle" x="206.06" y="-572.33" font-family="Arial" font-size="14.00">i &lt;= 30</text>
</g>
<!-- cond1&#45;&gt;cond2 -->
<g id="edge7" class="edge">
<title>cond1&#45;&gt;cond2</title>
<path fill="none" stroke="black" d="M236.13,-633.99C229.45,-625.26 222.01,-614.19 216.08,-604.26"/>
<polygon fill="black" stroke="black" points="219.25,-602.75 211.27,-595.78 213.16,-606.2 219.25,-602.75"/>
</g>
<!-- cond1&#45;&gt;cond2 -->
<g id="edge20" class="edge">
<title>cond1&#45;&gt;cond2</title>
<path fill="none" stroke="red" d="M246.99,-632.92C241.77,-623.25 233.98,-611 226.49,-600.59"/>
<polygon fill="red" stroke="red" points="229.51,-598.78 220.7,-592.89 223.91,-602.99 229.51,-598.78"/>
</g>
<!-- cond3 -->
<g id="node9" class="node">
<title>cond3</title>
<polygon fill="none" stroke="black" points="155.06,-508 107.54,-490 155.06,-472 202.57,-490 155.06,-508"/>
<text xml:space="preserve" text-anchor="middle" x="155.06" y="-484.57" font-family="Arial" font-size="14.00">i &lt;= n</text>
</g>
<!-- cond2&#45;&gt;cond3 -->
<g id="edge8" class="edge">
<title>cond2&#45;&gt;cond3</title>
<path fill="none" stroke="black" d="M200.59,-561.09C196.67,-550.76 190.89,-537.13 184.06,-526 181.16,-521.29 177.68,-516.53 174.15,-512.11"/>
<polygon fill="black" stroke="black" points="177.1,-510.18 167.98,-504.79 171.75,-514.69 177.1,-510.18"/>
<text xml:space="preserve" text-anchor="middle" x="205.82" y="-528.45" font-family="Arial" font-size="14.00">True</text>
</g>
<!-- cond2&#45;&gt;cond3 -->
<g id="edge21" class="edge">
<title>cond2&#45;&gt;cond3</title>
<path fill="none" stroke="red" d="M181.78,-567.42C170.68,-561.78 158.62,-553.4 152.31,-541.75 148.41,-534.56 147.69,-525.92 148.37,-517.82"/>
<polygon fill="red" stroke="red" points="151.8,-518.5 149.91,-508.08 144.89,-517.41 151.8,-518.5"/>
<text xml:space="preserve" text-anchor="middle" x="166.18" y="-528.45" font-family="Arial" font-size="14.00" fill="red">True</text>
</g>
<!-- node7 -->
<g id="node12" class="node">
<title>node7</title>
<polygon fill="none" stroke="black" points="100.18,-410.62 9.93,-410.62 9.93,-374.62 100.18,-374.62 100.18,-410.62"/>
<text xml:space="preserve" text-anchor="middle" x="55.06" y="-387.2" font-family="Arial" font-size="14.00">ans = Fnew;</text>
</g>
<!-- cond2&#45;&gt;node7 -->
<g id="edge9" class="edge">
<title>cond2&#45;&gt;node7</title>
<path fill="none" stroke="black" d="M172.48,-570.3C139.26,-562.01 89.89,-544.13 65.06,-508 47.79,-482.87 47.58,-446.94 50.22,-422.08"/>
<polygon fill="black" stroke="black" points="53.66,-422.73 51.48,-412.37 46.72,-421.83 53.66,-422.73"/>
<text xml:space="preserve" text-anchor="middle" x="81.56" y="-484.57" font-family="Arial" font-size="14.00">False</text>
</g>
<!-- node5 -->
<g id="node10" class="node">
<title>node5</title>
<polygon fill="none" stroke="black" points="261.81,-420.25 118.31,-420.25 118.31,-365 261.81,-365 261.81,-420.25"/>
<text xml:space="preserve" text-anchor="middle" x="190.06" y="-402.95" font-family="Arial" font-size="14.00">temp = Fnew;</text>
<text xml:space="preserve" text-anchor="middle" x="190.06" y="-387.2" font-family="Arial" font-size="14.00">Fnew = Fnew + Fold;</text>
<text xml:space="preserve" text-anchor="middle" x="190.06" y="-371.45" font-family="Arial" font-size="14.00">Fold = temp;</text>
</g>
<!-- cond3&#45;&gt;node5 -->
<g id="edge10" class="edge">
<title>cond3&#45;&gt;node5</title>
<path fill="none" stroke="black" d="M150.58,-473.42C148.42,-463.13 147.1,-449.51 151.31,-438.25 152.38,-435.38 153.73,-432.56 155.28,-429.84"/>
<polygon fill="black" stroke="black" points="158.11,-431.91 160.78,-421.65 152.3,-428.01 158.11,-431.91"/>
<text xml:space="preserve" text-anchor="middle" x="165.18" y="-440.7" font-family="Arial" font-size="14.00">True</text>
</g>
<!-- cond3&#45;&gt;node5 -->
<g id="edge19" class="edge">
<title>cond3&#45;&gt;node5</title>
<path fill="none" stroke="red" d="M166.06,-475.81C170.75,-469.56 175.86,-461.77 179.06,-454 181.94,-447 184.07,-439.23 185.64,-431.67"/>
<polygon fill="red" stroke="red" points="189.06,-432.41 187.36,-421.95 182.17,-431.19 189.06,-432.41"/>
<text xml:space="preserve" text-anchor="middle" x="197.64" y="-440.7" font-family="Arial" font-size="14.00" fill="red">True</text>
</g>
<!-- cond3&#45;&gt;node7 -->
<g id="edge11" class="edge">
<title>cond3&#45;&gt;node7</title>
<path fill="none" stroke="black" d="M139.93,-477.48C131.5,-470.86 120.94,-462.26 112.06,-454 100.39,-443.16 88.18,-430.43 78.06,-419.47"/>
<polygon fill="black" stroke="black" points="80.8,-417.27 71.47,-412.24 75.62,-421.98 80.8,-417.27"/>
<text xml:space="preserve" text-anchor="middle" x="128.56" y="-440.7" font-family="Arial" font-size="14.00">False</text>
</g>
<!-- node6 -->
<g id="node11" class="node">
<title>node6</title>
<polygon fill="none" stroke="black" points="288.06,-328 234.06,-328 234.06,-292 288.06,-292 288.06,-328"/>
<text xml:space="preserve" text-anchor="middle" x="261.06" y="-304.57" font-family="Arial" font-size="14.00">i++</text>
</g>
<!-- node5&#45;&gt;node6 -->
<g id="edge12" class="edge">
<title>node5&#45;&gt;node6</title>
<path fill="none" stroke="black" d="M207.29,-364.78C214.88,-355.61 223.9,-345.4 232.41,-336.36"/>
<polygon fill="black" stroke="black" points="234.88,-338.84 239.29,-329.21 229.84,-333.98 234.88,-338.84"/>
</g>
<!-- node5&#45;&gt;node6 -->
<g id="edge22" class="edge">
<title>node5&#45;&gt;node6</title>
<path fill="none" stroke="red" d="M220.1,-364.78C228.48,-355.8 237.26,-345.82 244.58,-336.92"/>
<polygon fill="red" stroke="red" points="247.16,-339.3 250.68,-329.3 241.7,-334.92 247.16,-339.3"/>
</g>
<!-- node6&#45;&gt;cond1 -->
<g id="edge13" class="edge">
<title>node6&#45;&gt;cond1</title>
<path fill="none" stroke="black" d="M267.66,-328.46C276.66,-344.09 290.06,-368.1 290.06,-391.62 290.06,-578.75 290.06,-578.75 290.06,-578.75 290.06,-595.83 280.48,-611.96 270.8,-624.51"/>
<polygon fill="black" stroke="black" points="268.13,-622.25 264.5,-632.2 273.54,-626.69 268.13,-622.25"/>
</g>
<!-- node6&#45;&gt;cond1 -->
<g id="edge23" class="edge">
<title>node6&#45;&gt;cond1</title>
<path fill="none" stroke="red" d="M281.89,-328.46C294.66,-344.09 308.06,-368.1 308.06,-391.62 308.06,-578.75 308.06,-578.75 308.06,-578.75 308.06,-596.94 297.2,-614.05 284.92,-626.91"/>
<polygon fill="red" stroke="red" points="282.65,-624.23 277.84,-633.67 287.49,-629.29 282.65,-624.23"/>
</g>
<!-- node8 -->
<g id="node13" class="node">
<title>node8</title>
<polygon fill="none" stroke="black" points="95.31,-328 14.81,-328 14.81,-292 95.31,-292 95.31,-328"/>
<text xml:space="preserve" text-anchor="middle" x="55.06" y="-304.57" font-family="Arial" font-size="14.00">return ans;</text>
</g>
<!-- node7&#45;&gt;node8 -->
<g id="edge14" class="edge">
<title>node7&#45;&gt;node8</title>
<path fill="none" stroke="black" d="M55.06,-374.13C55.06,-364.09 55.06,-351.24 55.06,-339.76"/>
<polygon fill="black" stroke="black" points="58.56,-339.97 55.06,-329.97 51.56,-339.97 58.56,-339.97"/>
</g>
<!-- fib_end -->
<g id="node15" class="node">
<title>fib_end</title>
<ellipse fill="none" stroke="black" cx="55.06" cy="-237" rx="44.58" ry="18"/>
<text xml:space="preserve" text-anchor="middle" x="55.06" y="-231.57" font-family="Arial" font-size="14.00">fib() End</text>
</g>
<!-- node8&#45;&gt;fib_end -->
<g id="edge15" class="edge">
<title>node8&#45;&gt;fib_end</title>
<path fill="none" stroke="black" d="M55.06,-291.81C55.06,-284.23 55.06,-275.1 55.06,-266.54"/>
<polygon fill="black" stroke="black" points="58.56,-266.54 55.06,-256.54 51.56,-266.54 58.56,-266.54"/>
</g>
<!-- fib_start -->
<g id="node14" class="node">
<title>fib_start</title>
<ellipse fill="none" stroke="black" cx="252.06" cy="-800.25" rx="47.57" ry="18"/>
<text xml:space="preserve" text-anchor="middle" x="252.06" y="-794.83" font-family="Arial" font-size="14.00">fib() Start</text>
</g>
<!-- fib_init -->
<g id="node16" class="node">
<title>fib_init</title>
<polygon fill="none" stroke="black" points="290.06,-745.25 214.06,-745.25 214.06,-705.75 290.06,-705.75 290.06,-745.25"/>
<text xml:space="preserve" text-anchor="middle" x="252.06" y="-727.95" font-family="Arial" font-size="14.00">Fnew = 1;</text>
<text xml:space="preserve" text-anchor="middle" x="252.06" y="-712.2" font-family="Arial" font-size="14.00">Fold = 0;</text>
</g>
<!-- fib_start&#45;&gt;fib_init -->
<g id="edge5" class="edge">
<title>fib_start&#45;&gt;fib_init</title>
<path fill="none" stroke="black" d="M252.06,-782.01C252.06,-774.5 252.06,-765.47 252.06,-756.89"/>
<polygon fill="black" stroke="black" points="255.56,-757.18 252.06,-747.18 248.56,-757.18 255.56,-757.18"/>
</g>
<!-- fib_end&#45;&gt;node3 -->
<g id="edge16" class="edge">
<title>fib_end&#45;&gt;node3</title>
<path fill="none" stroke="black" d="M55.06,-218.81C55.06,-211.23 55.06,-202.1 55.06,-193.54"/>
<polygon fill="black" stroke="black" points="58.56,-193.54 55.06,-183.54 51.56,-193.54 58.56,-193.54"/>
</g>
<!-- fib_init&#45;&gt;cond1 -->
<g id="edge6" class="edge">
<title>fib_init&#45;&gt;cond1</title>
<path fill="none" stroke="black" d="M252.06,-705.39C252.06,-697.72 252.06,-688.72 252.06,-680.3"/>
<polygon fill="black" stroke="black" points="255.56,-680.51 252.06,-670.51 248.56,-680.51 255.56,-680.51"/>
</g>
<!-- fib_call&#45;&gt;fib_start -->
<g id="edge4" class="edge">
<title>fib_call&#45;&gt;fib_start</title>
<path fill="none" stroke="black" d="M252.06,-855.06C252.06,-847.48 252.06,-838.35 252.06,-829.79"/>
<polygon fill="black" stroke="black" points="255.56,-829.79 252.06,-819.79 248.56,-829.79 255.56,-829.79"/>
</g>
</g>
</svg>
