<?xml version="1.0" encoding="UTF-8" standalone="no"?>
<!DOCTYPE svg PUBLIC "-//W3C//DTD SVG 1.1//EN"
 "http://www.w3.org/Graphics/SVG/1.1/DTD/svg11.dtd">
<!-- Generated by graphviz version 13.1.2 (20250808.2320)
 -->
<!-- Title: main Pages: 1 -->
<svg width="124pt" height="404pt"
 viewBox="0.00 0.00 124.00 404.00" xmlns="http://www.w3.org/2000/svg" xmlns:xlink="http://www.w3.org/1999/xlink">
<g id="graph0" class="graph" transform="scale(1 1) rotate(0) translate(4 400)">
<title>main</title>
<polygon fill="white" stroke="none" points="-4,4 -4,-400 120.1,-400 120.1,4 -4,4"/>
<!-- start -->
<g id="node1" class="node">
<title>start</title>
<ellipse fill="none" stroke="black" cx="58.05" cy="-378" rx="58.05" ry="18"/>
<text xml:space="preserve" text-anchor="middle" x="58.05" y="-372.57" font-family="Arial" font-size="14.00">main() Start</text>
</g>
<!-- node1 -->
<g id="node3" class="node">
<title>node1</title>
<polygon fill="none" stroke="black" points="85.05,-324 31.05,-324 31.05,-288 85.05,-288 85.05,-324"/>
<text xml:space="preserve" text-anchor="middle" x="58.05" y="-300.57" font-family="Arial" font-size="14.00">int a;</text>
</g>
<!-- start&#45;&gt;node1 -->
<g id="edge1" class="edge">
<title>start&#45;&gt;node1</title>
<path fill="none" stroke="black" d="M58.05,-359.7C58.05,-352.41 58.05,-343.73 58.05,-335.54"/>
<polygon fill="black" stroke="black" points="61.55,-335.62 58.05,-325.62 54.55,-335.62 61.55,-335.62"/>
</g>
<!-- end -->
<g id="node2" class="node">
<title>end</title>
<ellipse fill="none" stroke="black" cx="58.05" cy="-18" rx="55.06" ry="18"/>
<text xml:space="preserve" text-anchor="middle" x="58.05" y="-12.57" font-family="Arial" font-size="14.00">main() End</text>
</g>
<!-- node2 -->
<g id="node4" class="node">
<title>node2</title>
<polygon fill="none" stroke="black" points="87.05,-252 29.05,-252 29.05,-216 87.05,-216 87.05,-252"/>
<text xml:space="preserve" text-anchor="middle" x="58.05" y="-228.57" font-family="Arial" font-size="14.00">a = 30;</text>
</g>
<!-- node1&#45;&gt;node2 -->
<g id="edge2" class="edge">
<title>node1&#45;&gt;node2</title>
<path fill="none" stroke="black" d="M58.05,-287.7C58.05,-280.41 58.05,-271.73 58.05,-263.54"/>
<polygon fill="black" stroke="black" points="61.55,-263.62 58.05,-253.62 54.55,-263.62 61.55,-263.62"/>
</g>
<!-- node3 -->
<g id="node5" class="node">
<title>node3</title>
<polygon fill="none" stroke="black" points="85.05,-180 31.05,-180 31.05,-144 85.05,-144 85.05,-180"/>
<text xml:space="preserve" text-anchor="middle" x="58.05" y="-156.57" font-family="Arial" font-size="14.00">fib(a);</text>
</g>
<!-- node2&#45;&gt;node3 -->
<g id="edge3" class="edge">
<title>node2&#45;&gt;node3</title>
<path fill="none" stroke="black" d="M58.05,-215.7C58.05,-208.41 58.05,-199.73 58.05,-191.54"/>
<polygon fill="black" stroke="black" points="61.55,-191.62 58.05,-181.62 54.55,-191.62 61.55,-191.62"/>
</g>
<!-- node4 -->
<g id="node6" class="node">
<title>node4</title>
<polygon fill="none" stroke="black" points="91.17,-108 24.92,-108 24.92,-72 91.17,-72 91.17,-108"/>
<text xml:space="preserve" text-anchor="middle" x="58.05" y="-84.58" font-family="Arial" font-size="14.00">return a;</text>
</g>
<!-- node3&#45;&gt;node4 -->
<g id="edge4" class="edge">
<title>node3&#45;&gt;node4</title>
<path fill="none" stroke="black" d="M58.05,-143.7C58.05,-136.41 58.05,-127.73 58.05,-119.54"/>
<polygon fill="black" stroke="black" points="61.55,-119.62 58.05,-109.62 54.55,-119.62 61.55,-119.62"/>
</g>
<!-- node4&#45;&gt;end -->
<g id="edge5" class="edge">
<title>node4&#45;&gt;end</title>
<path fill="none" stroke="black" d="M58.05,-71.7C58.05,-64.41 58.05,-55.73 58.05,-47.54"/>
<polygon fill="black" stroke="black" points="61.55,-47.62 58.05,-37.62 54.55,-47.62 61.55,-47.62"/>
</g>
</g>
</svg>
