<?xml version="1.0" encoding="UTF-8" standalone="no"?>
<!DOCTYPE svg PUBLIC "-//W3C//DTD SVG 1.1//EN"
 "http://www.w3.org/Graphics/SVG/1.1/DTD/svg11.dtd">
<!-- Generated by graphviz version 13.1.2 (20250808.2320)
 -->
<!-- Title: compress Pages: 1 -->
<svg width="1278pt" height="1729pt"
 viewBox="0.00 0.00 1278.00 1729.00" xmlns="http://www.w3.org/2000/svg" xmlns:xlink="http://www.w3.org/1999/xlink">
<g id="graph0" class="graph" transform="scale(1 1) rotate(0) translate(4 1724.5)">
<title>compress</title>
<polygon fill="white" stroke="none" points="-4,4 -4,-1724.5 1273.5,-1724.5 1273.5,4 -4,4"/>
<!-- start -->
<g id="node1" class="node">
<title>start</title>
<ellipse fill="none" stroke="black" cx="916.5" cy="-1702.5" rx="28.32" ry="18"/>
<text xml:space="preserve" text-anchor="middle" x="916.5" y="-1697.45" font-family="Times New Roman,serif" font-size="14.00">Start</text>
</g>
<!-- B1 -->
<g id="node3" class="node">
<title>B1</title>
<polygon fill="none" stroke="black" points="994.25,-1647.5 838.75,-1647.5 838.75,-1590 994.25,-1590 994.25,-1647.5"/>
<text xml:space="preserve" text-anchor="middle" x="916.5" y="-1630.2" font-family="Times New Roman,serif" font-size="14.00">B1</text>
<text xml:space="preserve" text-anchor="middle" x="916.5" y="-1613.7" font-family="Times New Roman,serif" font-size="14.00">Inicializacoes</text>
<text xml:space="preserve" text-anchor="middle" x="916.5" y="-1597.2" font-family="Times New Roman,serif" font-size="14.00">offset=0, bytes_out=3, ...</text>
<text xml:space="preserve" text-anchor="middle" x="579.25" y="-1650.7" font-family="Times New Roman,serif" font-size="14.00">def: offset, bytes_out, out_count, clear_flg, ratio, in_count, checkpoint, maxcode, free_ent, ent</text>
</g>
<!-- start&#45;&gt;B1 -->
<g id="edge1" class="edge">
<title>start&#45;&gt;B1</title>
<path fill="none" stroke="black" d="M916.5,-1684.16C916.5,-1676.86 916.5,-1668.04 916.5,-1659.31"/>
<polygon fill="black" stroke="black" points="920,-1659.51 916.5,-1649.51 913,-1659.51 920,-1659.51"/>
</g>
<!-- end -->
<g id="node2" class="node">
<title>end</title>
<ellipse fill="none" stroke="black" cx="551.5" cy="-1262.25" rx="27" ry="18"/>
<text xml:space="preserve" text-anchor="middle" x="551.5" y="-1257.2" font-family="Times New Roman,serif" font-size="14.00">End</text>
</g>
<!-- B2 -->
<g id="node4" class="node">
<title>B2</title>
<polygon fill="none" stroke="black" points="975.5,-1553 857.5,-1553 857.5,-1479 975.5,-1479 975.5,-1553"/>
<text xml:space="preserve" text-anchor="middle" x="916.5" y="-1535.7" font-family="Times New Roman,serif" font-size="14.00">B2</text>
<text xml:space="preserve" text-anchor="middle" x="916.5" y="-1519.2" font-family="Times New Roman,serif" font-size="14.00">hshift = 0</text>
<text xml:space="preserve" text-anchor="middle" x="916.5" y="-1502.7" font-family="Times New Roman,serif" font-size="14.00">hsize_reg = hsize</text>
<text xml:space="preserve" text-anchor="middle" x="916.5" y="-1486.2" font-family="Times New Roman,serif" font-size="14.00">cl_hash(hsize_reg)</text>
<text xml:space="preserve" text-anchor="middle" x="800.12" y="-1556.2" font-family="Times New Roman,serif" font-size="14.00">def: hshift, hsize_reg</text>
</g>
<!-- B1&#45;&gt;B2 -->
<g id="edge2" class="edge">
<title>B1&#45;&gt;B2</title>
<path fill="none" stroke="black" d="M916.5,-1589.69C916.5,-1581.92 916.5,-1573.27 916.5,-1564.72"/>
<polygon fill="black" stroke="black" points="920,-1564.73 916.5,-1554.73 913,-1564.73 920,-1564.73"/>
</g>
<!-- B3 -->
<g id="node5" class="node">
<title>B3</title>
<polygon fill="none" stroke="black" points="916.5,-1442 826.25,-1401 916.5,-1360 1006.75,-1401 916.5,-1442"/>
<text xml:space="preserve" text-anchor="middle" x="916.5" y="-1404.2" font-family="Times New Roman,serif" font-size="14.00">B3</text>
<text xml:space="preserve" text-anchor="middle" x="916.5" y="-1387.7" font-family="Times New Roman,serif" font-size="14.00">if (InCnt &gt; 0)</text>
</g>
<!-- B2&#45;&gt;B3 -->
<g id="edge3" class="edge">
<title>B2&#45;&gt;B3</title>
<path fill="none" stroke="black" d="M916.5,-1478.62C916.5,-1470.64 916.5,-1462.04 916.5,-1453.59"/>
<polygon fill="black" stroke="black" points="920,-1453.74 916.5,-1443.74 913,-1453.74 920,-1453.74"/>
</g>
<!-- B3&#45;&gt;end -->
<g id="edge5" class="edge">
<title>B3&#45;&gt;end</title>
<path fill="none" stroke="black" d="M833.61,-1397.27C741.48,-1392.42 600.79,-1379 564,-1342 551.2,-1329.12 548.23,-1308.77 548.39,-1291.98"/>
<polygon fill="black" stroke="black" points="551.88,-1292.22 548.88,-1282.05 544.89,-1291.87 551.88,-1292.22"/>
<text xml:space="preserve" text-anchor="middle" x="578.25" y="-1328.7" font-family="Times New Roman,serif" font-size="14.00">False</text>
</g>
<!-- B4 -->
<g id="node6" class="node">
<title>B4</title>
<polygon fill="none" stroke="black" points="878.75,-1307.5 702.25,-1307.5 702.25,-1217 878.75,-1217 878.75,-1307.5"/>
<text xml:space="preserve" text-anchor="middle" x="790.5" y="-1290.2" font-family="Times New Roman,serif" font-size="14.00">B4</text>
<text xml:space="preserve" text-anchor="middle" x="790.5" y="-1273.7" font-family="Times New Roman,serif" font-size="14.00">c = getbyte()</text>
<text xml:space="preserve" text-anchor="middle" x="790.5" y="-1257.2" font-family="Times New Roman,serif" font-size="14.00">in_count++</text>
<text xml:space="preserve" text-anchor="middle" x="790.5" y="-1240.7" font-family="Times New Roman,serif" font-size="14.00">fcode = (c &lt;&lt; maxbits) + ent</text>
<text xml:space="preserve" text-anchor="middle" x="790.5" y="-1224.2" font-family="Times New Roman,serif" font-size="14.00">i = (c &lt;&lt; hshift) ^ ent</text>
<text xml:space="preserve" text-anchor="middle" x="631.38" y="-1203.7" font-family="Times New Roman,serif" font-size="14.00">def: c, in_count, fcode, i</text>
<text xml:space="preserve" text-anchor="middle" x="631.38" y="-1187.2" font-family="Times New Roman,serif" font-size="14.00">c&#45;use: ent, maxbits, hshift</text>
</g>
<!-- B3&#45;&gt;B4 -->
<g id="edge4" class="edge">
<title>B3&#45;&gt;B4</title>
<path fill="none" stroke="black" d="M890.39,-1371.67C875.64,-1355.65 856.71,-1335.11 839.31,-1316.23"/>
<polygon fill="black" stroke="black" points="842.08,-1314.07 832.73,-1309.08 836.93,-1318.81 842.08,-1314.07"/>
<text xml:space="preserve" text-anchor="middle" x="873.79" y="-1328.7" font-family="Times New Roman,serif" font-size="14.00">True</text>
</g>
<!-- B5 -->
<g id="node7" class="node">
<title>B5</title>
<polygon fill="none" stroke="black" points="761.5,-1180 634.5,-1139 761.5,-1098 888.5,-1139 761.5,-1180"/>
<text xml:space="preserve" text-anchor="middle" x="761.5" y="-1142.2" font-family="Times New Roman,serif" font-size="14.00">B5</text>
<text xml:space="preserve" text-anchor="middle" x="761.5" y="-1125.7" font-family="Times New Roman,serif" font-size="14.00">if (htab[i] == fcode)</text>
<text xml:space="preserve" text-anchor="middle" x="579.38" y="-1101.2" font-family="Times New Roman,serif" font-size="14.00">p&#45;use: htab[i], fcode</text>
</g>
<!-- B4&#45;&gt;B5 -->
<g id="edge6" class="edge">
<title>B4&#45;&gt;B5</title>
<path fill="none" stroke="black" d="M779.87,-1216.79C777.66,-1207.56 775.32,-1197.8 773.09,-1188.44"/>
<polygon fill="black" stroke="black" points="776.5,-1187.67 770.77,-1178.76 769.69,-1189.3 776.5,-1187.67"/>
</g>
<!-- B6 -->
<g id="node8" class="node">
<title>B6</title>
<polygon fill="none" stroke="black" points="623,-1025 520,-1025 520,-984 623,-984 623,-1025"/>
<text xml:space="preserve" text-anchor="middle" x="571.5" y="-1007.7" font-family="Times New Roman,serif" font-size="14.00">B6</text>
<text xml:space="preserve" text-anchor="middle" x="571.5" y="-991.2" font-family="Times New Roman,serif" font-size="14.00">ent = codetab[i]</text>
<text xml:space="preserve" text-anchor="middle" x="474.62" y="-1044.7" font-family="Times New Roman,serif" font-size="14.00">def: ent</text>
<text xml:space="preserve" text-anchor="middle" x="474.62" y="-1028.2" font-family="Times New Roman,serif" font-size="14.00">c&#45;use: codetab[i]</text>
</g>
<!-- B5&#45;&gt;B6 -->
<g id="edge7" class="edge">
<title>B5&#45;&gt;B6</title>
<path fill="none" stroke="black" d="M722.13,-1110.55C688.99,-1087.43 641.9,-1054.6 609.23,-1031.81"/>
<polygon fill="black" stroke="black" points="611.45,-1029.09 601.25,-1026.24 607.45,-1034.83 611.45,-1029.09"/>
<text xml:space="preserve" text-anchor="middle" x="690.63" y="-1066.7" font-family="Times New Roman,serif" font-size="14.00">True</text>
</g>
<!-- B7 -->
<g id="node9" class="node">
<title>B7</title>
<polygon fill="none" stroke="black" points="761.5,-1045.5 641.25,-1004.5 761.5,-963.5 881.75,-1004.5 761.5,-1045.5"/>
<text xml:space="preserve" text-anchor="middle" x="761.5" y="-1007.7" font-family="Times New Roman,serif" font-size="14.00">B7</text>
<text xml:space="preserve" text-anchor="middle" x="761.5" y="-991.2" font-family="Times New Roman,serif" font-size="14.00">else if (htab[i] &lt; 0)</text>
</g>
<!-- B5&#45;&gt;B7 -->
<g id="edge8" class="edge">
<title>B5&#45;&gt;B7</title>
<path fill="none" stroke="black" d="M761.5,-1097.53C761.5,-1084.81 761.5,-1070.6 761.5,-1057.21"/>
<polygon fill="black" stroke="black" points="765,-1057.24 761.5,-1047.24 758,-1057.24 765,-1057.24"/>
<text xml:space="preserve" text-anchor="middle" x="775.75" y="-1066.7" font-family="Times New Roman,serif" font-size="14.00">False</text>
</g>
<!-- B6&#45;&gt;B3 -->
<g id="edge9" class="edge">
<title>B6&#45;&gt;B3</title>
<path fill="none" stroke="black" d="M573.62,-1025.42C580.43,-1079.21 606.62,-1228.64 693.5,-1307.5 736.4,-1346.44 797.99,-1370.3 845.58,-1384.01"/>
<polygon fill="black" stroke="black" points="844.4,-1387.31 854.97,-1386.62 846.28,-1380.57 844.4,-1387.31"/>
</g>
<!-- B8 -->
<g id="node10" class="node">
<title>B8</title>
<polygon fill="none" stroke="black" points="818.38,-911 696.62,-911 696.62,-853.5 818.38,-853.5 818.38,-911"/>
<text xml:space="preserve" text-anchor="middle" x="757.5" y="-893.7" font-family="Times New Roman,serif" font-size="14.00">B8</text>
<text xml:space="preserve" text-anchor="middle" x="757.5" y="-877.2" font-family="Times New Roman,serif" font-size="14.00">disp = hsize_reg &#45; i</text>
<text xml:space="preserve" text-anchor="middle" x="757.5" y="-860.7" font-family="Times New Roman,serif" font-size="14.00">if (i == 0) disp = 1</text>
<text xml:space="preserve" text-anchor="middle" x="647.12" y="-930.7" font-family="Times New Roman,serif" font-size="14.00">def: disp</text>
<text xml:space="preserve" text-anchor="middle" x="647.12" y="-914.2" font-family="Times New Roman,serif" font-size="14.00">c&#45;use: i, hsize_reg</text>
</g>
<!-- B7&#45;&gt;B8 -->
<g id="edge11" class="edge">
<title>B7&#45;&gt;B8</title>
<path fill="none" stroke="black" d="M760.17,-963.46C759.73,-950.38 759.25,-935.87 758.82,-922.83"/>
<polygon fill="black" stroke="black" points="762.32,-922.74 758.48,-912.86 755.32,-922.97 762.32,-922.74"/>
<text xml:space="preserve" text-anchor="middle" x="773.75" y="-932.2" font-family="Times New Roman,serif" font-size="14.00">False</text>
</g>
<!-- B13 -->
<g id="node15" class="node">
<title>B13</title>
<polygon fill="none" stroke="black" points="570.75,-421 484.25,-421 484.25,-347 570.75,-347 570.75,-421"/>
<text xml:space="preserve" text-anchor="middle" x="527.5" y="-403.7" font-family="Times New Roman,serif" font-size="14.00">B13</text>
<text xml:space="preserve" text-anchor="middle" x="527.5" y="-387.2" font-family="Times New Roman,serif" font-size="14.00">nomatch:</text>
<text xml:space="preserve" text-anchor="middle" x="527.5" y="-370.7" font-family="Times New Roman,serif" font-size="14.00">out_count++</text>
<text xml:space="preserve" text-anchor="middle" x="527.5" y="-354.2" font-family="Times New Roman,serif" font-size="14.00">ent = c</text>
<text xml:space="preserve" text-anchor="middle" x="432.88" y="-440.7" font-family="Times New Roman,serif" font-size="14.00">def: out_count, ent</text>
<text xml:space="preserve" text-anchor="middle" x="432.88" y="-424.2" font-family="Times New Roman,serif" font-size="14.00">c&#45;use: c</text>
</g>
<!-- B7&#45;&gt;B13 -->
<g id="edge10" class="edge">
<title>B7&#45;&gt;B13</title>
<path fill="none" stroke="black" d="M701.71,-983.53C679.78,-976.63 654.66,-969.2 631.5,-963.5 536.9,-940.22 200.5,-980.67 200.5,-883.25 200.5,-883.25 200.5,-883.25 200.5,-513.5 200.5,-493.82 204.49,-486.23 219.5,-473.5 292.29,-411.74 405.86,-393.01 472.85,-387.38"/>
<polygon fill="black" stroke="black" points="472.78,-390.89 482.48,-386.64 472.24,-383.91 472.78,-390.89"/>
<text xml:space="preserve" text-anchor="middle" x="213.25" y="-711.2" font-family="Times New Roman,serif" font-size="14.00">True</text>
</g>
<!-- B9 -->
<g id="node11" class="node">
<title>B9</title>
<polygon fill="none" stroke="black" points="772.75,-816.5 626.25,-816.5 626.25,-742.5 772.75,-742.5 772.75,-816.5"/>
<text xml:space="preserve" text-anchor="middle" x="699.5" y="-799.2" font-family="Times New Roman,serif" font-size="14.00">B9</text>
<text xml:space="preserve" text-anchor="middle" x="699.5" y="-782.7" font-family="Times New Roman,serif" font-size="14.00">probe:</text>
<text xml:space="preserve" text-anchor="middle" x="699.5" y="-766.2" font-family="Times New Roman,serif" font-size="14.00">i &#45;= disp</text>
<text xml:space="preserve" text-anchor="middle" x="699.5" y="-749.7" font-family="Times New Roman,serif" font-size="14.00">if (i &lt; 0) i += hsize_reg</text>
<text xml:space="preserve" text-anchor="middle" x="567.38" y="-836.2" font-family="Times New Roman,serif" font-size="14.00">def: i</text>
<text xml:space="preserve" text-anchor="middle" x="567.38" y="-819.7" font-family="Times New Roman,serif" font-size="14.00">c&#45;use: disp, hsize_reg</text>
</g>
<!-- B8&#45;&gt;B9 -->
<g id="edge12" class="edge">
<title>B8&#45;&gt;B9</title>
<path fill="none" stroke="black" d="M741.34,-853.19C736.57,-844.89 731.21,-835.58 725.96,-826.47"/>
<polygon fill="black" stroke="black" points="729.13,-824.95 721.1,-818.03 723.06,-828.44 729.13,-824.95"/>
</g>
<!-- B10 -->
<g id="node12" class="node">
<title>B10</title>
<polygon fill="none" stroke="black" points="536.5,-690 409.5,-649 536.5,-608 663.5,-649 536.5,-690"/>
<text xml:space="preserve" text-anchor="middle" x="536.5" y="-652.2" font-family="Times New Roman,serif" font-size="14.00">B10</text>
<text xml:space="preserve" text-anchor="middle" x="536.5" y="-635.7" font-family="Times New Roman,serif" font-size="14.00">if (htab[i] == fcode)</text>
<text xml:space="preserve" text-anchor="middle" x="354.38" y="-693.2" font-family="Times New Roman,serif" font-size="14.00">p&#45;use: htab[i], fcode</text>
</g>
<!-- B9&#45;&gt;B10 -->
<g id="edge13" class="edge">
<title>B9&#45;&gt;B10</title>
<path fill="none" stroke="black" d="M653.23,-742.02C630.81,-724.35 603.99,-703.2 581.71,-685.64"/>
<polygon fill="black" stroke="black" points="583.99,-682.99 573.97,-679.54 579.66,-688.48 583.99,-682.99"/>
</g>
<!-- B11 -->
<g id="node13" class="node">
<title>B11</title>
<polygon fill="none" stroke="black" points="947,-535 844,-535 844,-494 947,-494 947,-535"/>
<text xml:space="preserve" text-anchor="middle" x="895.5" y="-517.7" font-family="Times New Roman,serif" font-size="14.00">B11</text>
<text xml:space="preserve" text-anchor="middle" x="895.5" y="-501.2" font-family="Times New Roman,serif" font-size="14.00">ent = codetab[i]</text>
<text xml:space="preserve" text-anchor="middle" x="889.38" y="-554.7" font-family="Times New Roman,serif" font-size="14.00">def: ent</text>
<text xml:space="preserve" text-anchor="middle" x="889.38" y="-538.2" font-family="Times New Roman,serif" font-size="14.00">c&#45;use: codetab[i]</text>
</g>
<!-- B10&#45;&gt;B11 -->
<g id="edge14" class="edge">
<title>B10&#45;&gt;B11</title>
<path fill="none" stroke="black" d="M602.31,-628.73C683.7,-604.74 814.16,-565.65 835.5,-555.5 843.69,-551.61 852.04,-546.71 859.82,-541.7"/>
<polygon fill="black" stroke="black" points="861.68,-544.66 868.04,-536.19 857.79,-538.85 861.68,-544.66"/>
<text xml:space="preserve" text-anchor="middle" x="791.79" y="-576.7" font-family="Times New Roman,serif" font-size="14.00">True</text>
</g>
<!-- B12 -->
<g id="node14" class="node">
<title>B12</title>
<polygon fill="none" stroke="black" points="527.5,-555.5 228.75,-514.5 527.5,-473.5 826.25,-514.5 527.5,-555.5"/>
<text xml:space="preserve" text-anchor="middle" x="527.5" y="-517.7" font-family="Times New Roman,serif" font-size="14.00">B12</text>
<text xml:space="preserve" text-anchor="middle" x="527.5" y="-501.2" font-family="Times New Roman,serif" font-size="14.00">if (htab[i] &gt; 0 &amp;&amp; apsim_bound111++ &lt; in_count)</text>
<text xml:space="preserve" text-anchor="middle" x="114.38" y="-558.7" font-family="Times New Roman,serif" font-size="14.00">p&#45;use: htab[i], apsim_bound111, in_count</text>
</g>
<!-- B10&#45;&gt;B12 -->
<g id="edge15" class="edge">
<title>B10&#45;&gt;B12</title>
<path fill="none" stroke="black" d="M533.82,-608.6C532.93,-595.49 531.93,-580.69 530.99,-566.81"/>
<polygon fill="black" stroke="black" points="534.48,-566.68 530.31,-556.94 527.5,-567.16 534.48,-566.68"/>
<text xml:space="preserve" text-anchor="middle" x="546.79" y="-576.7" font-family="Times New Roman,serif" font-size="14.00">False</text>
</g>
<!-- B11&#45;&gt;B3 -->
<g id="edge16" class="edge">
<title>B11&#45;&gt;B3</title>
<path fill="none" stroke="black" d="M900.58,-535.1C906.8,-560.83 916.5,-607.47 916.5,-648 916.5,-1263.25 916.5,-1263.25 916.5,-1263.25 916.5,-1291.35 916.5,-1322.7 916.5,-1348.29"/>
<polygon fill="black" stroke="black" points="913,-1348.1 916.5,-1358.1 920,-1348.1 913,-1348.1"/>
</g>
<!-- B12&#45;&gt;B9 -->
<g id="edge17" class="edge">
<title>B12&#45;&gt;B9</title>
<path fill="none" stroke="black" d="M643.46,-539.97C659.76,-548.13 674.63,-559.01 685.5,-573.5 719.27,-618.52 716.74,-685.91 709.82,-731"/>
<polygon fill="black" stroke="black" points="706.38,-730.3 708.18,-740.74 713.29,-731.46 706.38,-730.3"/>
<text xml:space="preserve" text-anchor="middle" x="726.85" y="-643.95" font-family="Times New Roman,serif" font-size="14.00">True</text>
</g>
<!-- B12&#45;&gt;B13 -->
<g id="edge18" class="edge">
<title>B12&#45;&gt;B13</title>
<path fill="none" stroke="black" d="M527.5,-473.19C527.5,-460.33 527.5,-445.97 527.5,-432.63"/>
<polygon fill="black" stroke="black" points="531,-432.76 527.5,-422.76 524,-432.76 531,-432.76"/>
<text xml:space="preserve" text-anchor="middle" x="541.75" y="-442.2" font-family="Times New Roman,serif" font-size="14.00">False</text>
</g>
<!-- B14 -->
<g id="node16" class="node">
<title>B14</title>
<polygon fill="none" stroke="black" points="528.5,-310 358,-269 528.5,-228 699,-269 528.5,-310"/>
<text xml:space="preserve" text-anchor="middle" x="528.5" y="-272.2" font-family="Times New Roman,serif" font-size="14.00">B14</text>
<text xml:space="preserve" text-anchor="middle" x="528.5" y="-255.7" font-family="Times New Roman,serif" font-size="14.00">if (free_ent &lt; maxmaxcode)</text>
<text xml:space="preserve" text-anchor="middle" x="277" y="-313.2" font-family="Times New Roman,serif" font-size="14.00">p&#45;use: free_ent, maxmaxcode</text>
</g>
<!-- B13&#45;&gt;B14 -->
<g id="edge19" class="edge">
<title>B13&#45;&gt;B14</title>
<path fill="none" stroke="black" d="M527.82,-346.62C527.89,-338.64 527.97,-330.04 528.04,-321.59"/>
<polygon fill="black" stroke="black" points="531.54,-321.77 528.13,-311.74 524.54,-321.7 531.54,-321.77"/>
</g>
<!-- B15 -->
<g id="node17" class="node">
<title>B15</title>
<polygon fill="none" stroke="black" points="602.12,-163.25 454.88,-163.25 454.88,-105.75 602.12,-105.75 602.12,-163.25"/>
<text xml:space="preserve" text-anchor="middle" x="528.5" y="-145.95" font-family="Times New Roman,serif" font-size="14.00">B15</text>
<text xml:space="preserve" text-anchor="middle" x="528.5" y="-129.45" font-family="Times New Roman,serif" font-size="14.00">codetab[i] = free_ent++</text>
<text xml:space="preserve" text-anchor="middle" x="528.5" y="-112.95" font-family="Times New Roman,serif" font-size="14.00">htab[i] = fcode</text>
<text xml:space="preserve" text-anchor="middle" x="367.5" y="-182.95" font-family="Times New Roman,serif" font-size="14.00">def: free_ent, codetab[i], htab[i]</text>
<text xml:space="preserve" text-anchor="middle" x="367.5" y="-166.45" font-family="Times New Roman,serif" font-size="14.00">c&#45;use: fcode</text>
</g>
<!-- B14&#45;&gt;B15 -->
<g id="edge20" class="edge">
<title>B14&#45;&gt;B15</title>
<path fill="none" stroke="black" d="M528.5,-227.53C528.5,-210.87 528.5,-191.63 528.5,-175.07"/>
<polygon fill="black" stroke="black" points="532,-175.07 528.5,-165.07 525,-175.07 532,-175.07"/>
<text xml:space="preserve" text-anchor="middle" x="541.25" y="-196.7" font-family="Times New Roman,serif" font-size="14.00">True</text>
</g>
<!-- B16 -->
<g id="node18" class="node">
<title>B16</title>
<polygon fill="none" stroke="black" points="930.5,-175.5 619.75,-134.5 930.5,-93.5 1241.25,-134.5 930.5,-175.5"/>
<text xml:space="preserve" text-anchor="middle" x="930.5" y="-137.7" font-family="Times New Roman,serif" font-size="14.00">B16</text>
<text xml:space="preserve" text-anchor="middle" x="930.5" y="-121.2" font-family="Times New Roman,serif" font-size="14.00">else if (in_count &gt;= checkpoint &amp;&amp; block_compress)</text>
<text xml:space="preserve" text-anchor="middle" x="496.38" y="-80.2" font-family="Times New Roman,serif" font-size="14.00">p&#45;use: in_count, checkpoint, block_compress</text>
</g>
<!-- B14&#45;&gt;B16 -->
<g id="edge21" class="edge">
<title>B14&#45;&gt;B16</title>
<path fill="none" stroke="black" d="M599.44,-244.62C664.08,-223.31 760.17,-191.64 832.2,-167.9"/>
<polygon fill="black" stroke="black" points="833.26,-171.24 841.66,-164.78 831.07,-164.59 833.26,-171.24"/>
<text xml:space="preserve" text-anchor="middle" x="767.82" y="-196.7" font-family="Times New Roman,serif" font-size="14.00">False</text>
</g>
<!-- B15&#45;&gt;B3 -->
<g id="edge22" class="edge">
<title>B15&#45;&gt;B3</title>
<path fill="none" stroke="black" d="M579.02,-163.55C589.19,-168.21 599.99,-172.5 610.5,-175.5 771.43,-221.41 975.5,-100.65 975.5,-268 975.5,-1263.25 975.5,-1263.25 975.5,-1263.25 975.5,-1297.87 959.36,-1333.69 943.96,-1359.97"/>
<polygon fill="black" stroke="black" points="941.13,-1357.9 938.92,-1368.27 947.11,-1361.54 941.13,-1357.9"/>
</g>
<!-- B16&#45;&gt;B3 -->
<g id="edge24" class="edge">
<title>B16&#45;&gt;B3</title>
<path fill="none" stroke="black" d="M971.74,-170.53C995.82,-195.02 1021.5,-230.05 1021.5,-268 1021.5,-1263.25 1021.5,-1263.25 1021.5,-1263.25 1021.5,-1301.03 1012.14,-1311.76 989.5,-1342 982,-1352.02 972.37,-1361.28 962.58,-1369.32"/>
<polygon fill="black" stroke="black" points="960.51,-1366.5 954.79,-1375.42 964.82,-1372.01 960.51,-1366.5"/>
<text xml:space="preserve" text-anchor="middle" x="1035.75" y="-774.45" font-family="Times New Roman,serif" font-size="14.00">False</text>
</g>
<!-- B17 -->
<g id="node19" class="node">
<title>B17</title>
<polygon fill="none" stroke="black" points="1135.25,-41 1063.75,-41 1063.75,0 1135.25,0 1135.25,-41"/>
<text xml:space="preserve" text-anchor="middle" x="1099.5" y="-23.7" font-family="Times New Roman,serif" font-size="14.00">B17</text>
<text xml:space="preserve" text-anchor="middle" x="1099.5" y="-7.2" font-family="Times New Roman,serif" font-size="14.00">cl_block()</text>
<text xml:space="preserve" text-anchor="middle" x="974.5" y="-44.2" font-family="Times New Roman,serif" font-size="14.00">c&#45;use: in_count, bytes_out, hsize</text>
</g>
<!-- B16&#45;&gt;B17 -->
<g id="edge23" class="edge">
<title>B16&#45;&gt;B17</title>
<path fill="none" stroke="black" d="M981.21,-99.9C1006.5,-83.13 1036.63,-63.16 1060.15,-47.58"/>
<polygon fill="black" stroke="black" points="1061.8,-50.68 1068.21,-42.24 1057.94,-44.85 1061.8,-50.68"/>
<text xml:space="preserve" text-anchor="middle" x="1052.76" y="-62.2" font-family="Times New Roman,serif" font-size="14.00">True</text>
</g>
<!-- B17&#45;&gt;B3 -->
<g id="edge25" class="edge">
<title>B17&#45;&gt;B3</title>
<path fill="none" stroke="black" d="M1135.55,-28.43C1185.45,-40.36 1269.5,-69.88 1269.5,-133.5 1269.5,-1263.25 1269.5,-1263.25 1269.5,-1263.25 1269.5,-1322.3 1095.56,-1365.83 991.88,-1386.54"/>
<polygon fill="black" stroke="black" points="991.46,-1383.05 982.32,-1388.42 992.81,-1389.92 991.46,-1383.05"/>
</g>
</g>
</svg>
