<?xml version="1.0" encoding="UTF-8" standalone="no"?>
<!DOCTYPE svg PUBLIC "-//W3C//DTD SVG 1.1//EN"
 "http://www.w3.org/Graphics/SVG/1.1/DTD/svg11.dtd">
<!-- Generated by graphviz version 13.1.2 (20250808.2320)
 -->
<!-- Title: Sum Pages: 1 -->
<svg width="1158pt" height="1136pt"
 viewBox="0.00 0.00 1158.00 1136.00" xmlns="http://www.w3.org/2000/svg" xmlns:xlink="http://www.w3.org/1999/xlink">
<g id="graph0" class="graph" transform="scale(1 1) rotate(0) translate(4 1131.65)">
<title>Sum</title>
<polygon fill="white" stroke="none" points="-4,4 -4,-1131.65 1154.08,-1131.65 1154.08,4 -4,4"/>
<!-- start -->
<g id="node1" class="node">
<title>start</title>
<polygon fill="none" stroke="black" points="805.12,-1127.65 467.38,-1127.65 467.38,-1086.65 805.12,-1086.65 805.12,-1127.65"/>
<text xml:space="preserve" text-anchor="middle" x="636.25" y="-1110.35" font-family="Courier,monospace" font-size="14.00">Inicio Sum</text>
<text xml:space="preserve" text-anchor="middle" x="636.25" y="-1093.85" font-family="Courier,monospace" font-size="14.00">Def: Ptotal=0, Ntotal=0, Pcnt=0, Ncnt=0</text>
</g>
<!-- loop_outer_start -->
<g id="node2" class="node">
<title>loop_outer_start</title>
<polygon fill="none" stroke="black" points="693.75,-1049.65 578.75,-1049.65 578.75,-1008.65 693.75,-1008.65 693.75,-1049.65"/>
<text xml:space="preserve" text-anchor="middle" x="636.25" y="-1032.35" font-family="Courier,monospace" font-size="14.00">Loop Outer</text>
<text xml:space="preserve" text-anchor="middle" x="636.25" y="-1015.85" font-family="Courier,monospace" font-size="14.00">Def: Outer=0</text>
</g>
<!-- start&#45;&gt;loop_outer_start -->
<g id="edge1" class="edge">
<title>start&#45;&gt;loop_outer_start</title>
<path fill="none" stroke="black" d="M636.25,-1086.18C636.25,-1078.59 636.25,-1069.75 636.25,-1061.36"/>
<polygon fill="black" stroke="black" points="639.75,-1061.5 636.25,-1051.5 632.75,-1061.5 639.75,-1061.5"/>
</g>
<!-- loop_outer_cond -->
<g id="node3" class="node">
<title>loop_outer_cond</title>
<polygon fill="none" stroke="black" points="747.38,-971.65 525.12,-971.65 525.12,-930.65 747.38,-930.65 747.38,-971.65"/>
<text xml:space="preserve" text-anchor="middle" x="636.25" y="-954.35" font-family="Courier,monospace" font-size="14.00">Condicao Outer &lt; MAXSIZE?</text>
<text xml:space="preserve" text-anchor="middle" x="636.25" y="-937.85" font-family="Courier,monospace" font-size="14.00">P&#45;Use: Outer</text>
</g>
<!-- loop_outer_start&#45;&gt;loop_outer_cond -->
<g id="edge2" class="edge">
<title>loop_outer_start&#45;&gt;loop_outer_cond</title>
<path fill="none" stroke="black" d="M636.25,-1008.18C636.25,-1000.59 636.25,-991.75 636.25,-983.36"/>
<polygon fill="black" stroke="black" points="639.75,-983.5 636.25,-973.5 632.75,-983.5 639.75,-983.5"/>
</g>
<!-- loop_inner_start -->
<g id="node4" class="node">
<title>loop_inner_start</title>
<polygon fill="none" stroke="black" points="594.75,-655.83 479.75,-655.83 479.75,-614.83 594.75,-614.83 594.75,-655.83"/>
<text xml:space="preserve" text-anchor="middle" x="537.25" y="-638.53" font-family="Courier,monospace" font-size="14.00">Loop Inner</text>
<text xml:space="preserve" text-anchor="middle" x="537.25" y="-622.03" font-family="Courier,monospace" font-size="14.00">Def: Inner=0</text>
</g>
<!-- loop_outer_cond&#45;&gt;loop_inner_start -->
<g id="edge3" class="edge">
<title>loop_outer_cond&#45;&gt;loop_inner_start</title>
<path fill="none" stroke="black" d="M581.64,-930.35C574.38,-925.58 567.81,-919.75 563,-912.65 511.78,-837.02 522.3,-721.86 531.21,-667.2"/>
<polygon fill="black" stroke="black" points="534.6,-668.12 532.86,-657.67 527.7,-666.93 534.6,-668.12"/>
<text xml:space="preserve" text-anchor="middle" x="592.62" y="-899.35" font-family="Times New Roman,serif" font-size="14.00">Verdadeiro</text>
</g>
<!-- end -->
<g id="node11" class="node">
<title>end</title>
<ellipse fill="none" stroke="black" cx="907.25" cy="-635.33" rx="238.83" ry="238.83"/>
<ellipse fill="none" stroke="black" cx="907.25" cy="-635.33" rx="242.83" ry="242.83"/>
<text xml:space="preserve" text-anchor="middle" x="907.25" y="-646.78" font-family="Courier,monospace" font-size="14.00">Atribui a Globais</text>
<text xml:space="preserve" text-anchor="middle" x="907.25" y="-630.28" font-family="Courier,monospace" font-size="14.00">Def: Postotal, Poscnt, Negtotal, Negcnt</text>
<text xml:space="preserve" text-anchor="middle" x="907.25" y="-613.78" font-family="Courier,monospace" font-size="14.00">C&#45;Use: Ptotal, Pcnt, Ntotal, Ncnt</text>
</g>
<!-- loop_outer_cond&#45;&gt;end -->
<g id="edge4" class="edge">
<title>loop_outer_cond&#45;&gt;end</title>
<path fill="none" stroke="black" d="M653.2,-930.52C672.28,-908.42 705.36,-870.11 741.47,-828.3"/>
<polygon fill="black" stroke="black" points="744.1,-830.62 747.98,-820.76 738.8,-826.04 744.1,-830.62"/>
<text xml:space="preserve" text-anchor="middle" x="696.31" y="-899.35" font-family="Times New Roman,serif" font-size="14.00">Falso</text>
</g>
<!-- loop_inner_cond -->
<g id="node5" class="node">
<title>loop_inner_cond</title>
<polygon fill="none" stroke="black" points="608.38,-355.5 386.12,-355.5 386.12,-314.5 608.38,-314.5 608.38,-355.5"/>
<text xml:space="preserve" text-anchor="middle" x="497.25" y="-338.2" font-family="Courier,monospace" font-size="14.00">Condicao Inner &lt; MAXSIZE?</text>
<text xml:space="preserve" text-anchor="middle" x="497.25" y="-321.7" font-family="Courier,monospace" font-size="14.00">P&#45;Use: Inner</text>
</g>
<!-- loop_inner_start&#45;&gt;loop_inner_cond -->
<g id="edge5" class="edge">
<title>loop_inner_start&#45;&gt;loop_inner_cond</title>
<path fill="none" stroke="black" d="M534.63,-614.75C527.83,-564.08 509.62,-428.27 501.39,-366.88"/>
<polygon fill="black" stroke="black" points="504.88,-366.59 500.09,-357.15 497.95,-367.52 504.88,-366.59"/>
</g>
<!-- condition -->
<g id="node6" class="node">
<title>condition</title>
<polygon fill="none" stroke="black" points="479.5,-262 249,-262 249,-204.5 479.5,-204.5 479.5,-262"/>
<text xml:space="preserve" text-anchor="middle" x="364.25" y="-244.7" font-family="Courier,monospace" font-size="14.00">Array[Outer][Inner] &lt; 0?</text>
<text xml:space="preserve" text-anchor="middle" x="364.25" y="-228.2" font-family="Courier,monospace" font-size="14.00">C&#45;Use: Array, Outer, Inner</text>
<text xml:space="preserve" text-anchor="middle" x="364.25" y="-211.7" font-family="Courier,monospace" font-size="14.00">P&#45;Use: Array</text>
</g>
<!-- loop_inner_cond&#45;&gt;condition -->
<g id="edge6" class="edge">
<title>loop_inner_cond&#45;&gt;condition</title>
<path fill="none" stroke="black" d="M461.02,-314.15C451.97,-308.75 442.45,-302.68 434,-296.5 422.95,-288.41 411.61,-278.89 401.36,-269.76"/>
<polygon fill="black" stroke="black" points="403.93,-267.37 394.17,-263.24 399.23,-272.55 403.93,-267.37"/>
<text xml:space="preserve" text-anchor="middle" x="463.62" y="-283.2" font-family="Times New Roman,serif" font-size="14.00">Verdadeiro</text>
</g>
<!-- outer_inc -->
<g id="node10" class="node">
<title>outer_inc</title>
<polygon fill="none" stroke="black" points="701.25,-262 553.25,-262 553.25,-204.5 701.25,-204.5 701.25,-262"/>
<text xml:space="preserve" text-anchor="middle" x="627.25" y="-244.7" font-family="Courier,monospace" font-size="14.00">Incrementa Outer</text>
<text xml:space="preserve" text-anchor="middle" x="627.25" y="-228.2" font-family="Courier,monospace" font-size="14.00">Def: Outer</text>
<text xml:space="preserve" text-anchor="middle" x="627.25" y="-211.7" font-family="Courier,monospace" font-size="14.00">C&#45;Use: Outer</text>
</g>
<!-- loop_inner_cond&#45;&gt;outer_inc -->
<g id="edge7" class="edge">
<title>loop_inner_cond&#45;&gt;outer_inc</title>
<path fill="none" stroke="black" d="M523.24,-314.05C539.88,-301.29 561.91,-284.38 581.42,-269.42"/>
<polygon fill="black" stroke="black" points="583.46,-272.26 589.27,-263.4 579.2,-266.71 583.46,-272.26"/>
<text xml:space="preserve" text-anchor="middle" x="580.77" y="-283.2" font-family="Times New Roman,serif" font-size="14.00">Falso</text>
</g>
<!-- if_block -->
<g id="node7" class="node">
<title>if_block</title>
<polygon fill="none" stroke="black" points="230.5,-152 0,-152 0,-94.5 230.5,-94.5 230.5,-152"/>
<text xml:space="preserve" text-anchor="middle" x="115.25" y="-134.7" font-family="Courier,monospace" font-size="14.00">Bloco IF</text>
<text xml:space="preserve" text-anchor="middle" x="115.25" y="-118.2" font-family="Courier,monospace" font-size="14.00">Def: Ptotal, Pcnt</text>
<text xml:space="preserve" text-anchor="middle" x="115.25" y="-101.7" font-family="Courier,monospace" font-size="14.00">C&#45;Use: Array, Ptotal, Pcnt</text>
</g>
<!-- condition&#45;&gt;if_block -->
<g id="edge8" class="edge">
<title>condition&#45;&gt;if_block</title>
<path fill="none" stroke="black" d="M299.15,-204.02C265.85,-189.57 225.15,-171.92 190.51,-156.89"/>
<polygon fill="black" stroke="black" points="191.92,-153.69 181.36,-152.92 189.14,-160.11 191.92,-153.69"/>
<text xml:space="preserve" text-anchor="middle" x="284.28" y="-173.2" font-family="Times New Roman,serif" font-size="14.00">Verdadeiro</text>
</g>
<!-- else_block -->
<g id="node8" class="node">
<title>else_block</title>
<polygon fill="none" stroke="black" points="479.5,-152 249,-152 249,-94.5 479.5,-94.5 479.5,-152"/>
<text xml:space="preserve" text-anchor="middle" x="364.25" y="-134.7" font-family="Courier,monospace" font-size="14.00">Bloco ELSE</text>
<text xml:space="preserve" text-anchor="middle" x="364.25" y="-118.2" font-family="Courier,monospace" font-size="14.00">Def: Ntotal, Ncnt</text>
<text xml:space="preserve" text-anchor="middle" x="364.25" y="-101.7" font-family="Courier,monospace" font-size="14.00">C&#45;Use: Array, Ntotal, Ncnt</text>
</g>
<!-- condition&#45;&gt;else_block -->
<g id="edge9" class="edge">
<title>condition&#45;&gt;else_block</title>
<path fill="none" stroke="black" d="M364.25,-204.16C364.25,-191.78 364.25,-177.03 364.25,-163.59"/>
<polygon fill="black" stroke="black" points="367.75,-163.72 364.25,-153.72 360.75,-163.72 367.75,-163.72"/>
<text xml:space="preserve" text-anchor="middle" x="378.88" y="-173.2" font-family="Times New Roman,serif" font-size="14.00">Falso</text>
</g>
<!-- inner_inc -->
<g id="node9" class="node">
<title>inner_inc</title>
<polygon fill="none" stroke="black" points="438.25,-57.5 290.25,-57.5 290.25,0 438.25,0 438.25,-57.5"/>
<text xml:space="preserve" text-anchor="middle" x="364.25" y="-40.2" font-family="Courier,monospace" font-size="14.00">Incrementa Inner</text>
<text xml:space="preserve" text-anchor="middle" x="364.25" y="-23.7" font-family="Courier,monospace" font-size="14.00">Def: Inner</text>
<text xml:space="preserve" text-anchor="middle" x="364.25" y="-7.2" font-family="Courier,monospace" font-size="14.00">C&#45;Use: Inner</text>
</g>
<!-- if_block&#45;&gt;inner_inc -->
<g id="edge10" class="edge">
<title>if_block&#45;&gt;inner_inc</title>
<path fill="none" stroke="black" d="M190.97,-94.12C219.01,-83.71 250.96,-71.84 279.73,-61.15"/>
<polygon fill="black" stroke="black" points="280.6,-64.56 288.75,-57.8 278.16,-58 280.6,-64.56"/>
</g>
<!-- else_block&#45;&gt;inner_inc -->
<g id="edge11" class="edge">
<title>else_block&#45;&gt;inner_inc</title>
<path fill="none" stroke="black" d="M364.25,-94.25C364.25,-86.44 364.25,-77.81 364.25,-69.46"/>
<polygon fill="black" stroke="black" points="367.75,-69.49 364.25,-59.49 360.75,-69.49 367.75,-69.49"/>
</g>
<!-- inner_inc&#45;&gt;loop_inner_cond -->
<g id="edge12" class="edge">
<title>inner_inc&#45;&gt;loop_inner_cond</title>
<path fill="none" stroke="black" d="M438.64,-52.97C457.99,-62.68 476.64,-76.13 488.25,-94.5 529.11,-159.17 515.93,-254.47 505.25,-303.06"/>
<polygon fill="black" stroke="black" points="501.88,-302.07 503.03,-312.6 508.7,-303.65 501.88,-302.07"/>
</g>
<!-- outer_inc&#45;&gt;loop_outer_cond -->
<g id="edge13" class="edge">
<title>outer_inc&#45;&gt;loop_outer_cond</title>
<path fill="none" stroke="black" d="M627.6,-262.12C629.02,-375.2 634.36,-799.46 635.86,-918.76"/>
<polygon fill="black" stroke="black" points="632.36,-918.79 635.98,-928.74 639.35,-918.7 632.36,-918.79"/>
</g>
</g>
</svg>
