<?xml version="1.0" encoding="UTF-8" standalone="no"?>
<!DOCTYPE svg PUBLIC "-//W3C//DTD SVG 1.1//EN"
 "http://www.w3.org/Graphics/SVG/1.1/DTD/svg11.dtd">
<!-- Generated by graphviz version 13.1.2 (20250808.2320)
 -->
<!-- Title: sort Pages: 1 -->
<svg width="594pt" height="1635pt"
 viewBox="0.00 0.00 594.00 1635.00" xmlns="http://www.w3.org/2000/svg" xmlns:xlink="http://www.w3.org/1999/xlink">
<g id="graph0" class="graph" transform="scale(1 1) rotate(0) translate(4 1631.21)">
<title>sort</title>
<polygon fill="white" stroke="none" points="-4,4 -4,-1631.21 589.95,-1631.21 589.95,4 -4,4"/>
<!-- start -->
<g id="node1" class="node">
<title>start</title>
<ellipse fill="none" stroke="black" cx="463.27" cy="-1554.73" rx="122.68" ry="72.48"/>
<text xml:space="preserve" text-anchor="middle" x="463.27" y="-1588.68" font-family="Arial" font-size="14.00">Start</text>
<text xml:space="preserve" text-anchor="middle" x="463.27" y="-1572.93" font-family="Arial" font-size="14.00">unsigned long i,ir=n,j,k,l=1</text>
<text xml:space="preserve" text-anchor="middle" x="463.27" y="-1557.18" font-family="Arial" font-size="14.00">int jstack=0</text>
<text xml:space="preserve" text-anchor="middle" x="463.27" y="-1541.43" font-family="Arial" font-size="14.00">int flag</text>
<text xml:space="preserve" text-anchor="middle" x="463.27" y="-1525.68" font-family="Arial" font-size="14.00">float a,temp</text>
<text xml:space="preserve" text-anchor="middle" x="463.27" y="-1509.93" font-family="Arial" font-size="14.00">flag=0</text>
</g>
<!-- cond1 -->
<g id="node3" class="node">
<title>cond1</title>
<polygon fill="none" stroke="black" points="463.27,-1445.25 414.34,-1427.25 463.27,-1409.25 512.19,-1427.25 463.27,-1445.25"/>
<text xml:space="preserve" text-anchor="middle" x="463.27" y="-1421.83" font-family="Arial" font-size="14.00">for (;;)</text>
</g>
<!-- start&#45;&gt;cond1 -->
<g id="edge1" class="edge">
<title>start&#45;&gt;cond1</title>
<path fill="none" stroke="black" d="M463.27,-1481.83C463.27,-1473.02 463.27,-1464.46 463.27,-1456.86"/>
<polygon fill="black" stroke="black" points="466.77,-1456.98 463.27,-1446.98 459.77,-1456.98 466.77,-1456.98"/>
</g>
<!-- end -->
<g id="node2" class="node">
<title>end</title>
<ellipse fill="none" stroke="black" cx="291.27" cy="-974.5" rx="27" ry="18"/>
<text xml:space="preserve" text-anchor="middle" x="291.27" y="-969.08" font-family="Arial" font-size="14.00">End</text>
</g>
<!-- cond2 -->
<g id="node4" class="node">
<title>cond2</title>
<polygon fill="none" stroke="black" points="320.27,-1372.25 246.64,-1354.25 320.27,-1336.25 393.89,-1354.25 320.27,-1372.25"/>
<text xml:space="preserve" text-anchor="middle" x="320.27" y="-1348.83" font-family="Arial" font-size="14.00">if (ir&#45;l &lt; M)</text>
</g>
<!-- cond1&#45;&gt;cond2 -->
<g id="edge2" class="edge">
<title>cond1&#45;&gt;cond2</title>
<path fill="none" stroke="black" d="M443.08,-1416.23C419.87,-1404.7 381.41,-1385.61 353.71,-1371.85"/>
<polygon fill="black" stroke="black" points="355.54,-1368.86 345.03,-1367.54 352.43,-1375.13 355.54,-1368.86"/>
</g>
<!-- block1 -->
<g id="node5" class="node">
<title>block1</title>
<polygon fill="none" stroke="black" points="386.02,-1284.5 254.52,-1284.5 254.52,-1119 386.02,-1119 386.02,-1284.5"/>
<text xml:space="preserve" text-anchor="middle" x="320.27" y="-1267.2" font-family="Arial" font-size="14.00">j=l+1</text>
<text xml:space="preserve" text-anchor="middle" x="320.27" y="-1251.45" font-family="Arial" font-size="14.00">j&lt;=ir?</text>
<text xml:space="preserve" text-anchor="middle" x="320.27" y="-1235.7" font-family="Arial" font-size="14.00">a=arr[j]</text>
<text xml:space="preserve" text-anchor="middle" x="320.27" y="-1219.95" font-family="Arial" font-size="14.00">i=j&#45;1</text>
<text xml:space="preserve" text-anchor="middle" x="320.27" y="-1204.2" font-family="Arial" font-size="14.00">i&gt;=l?</text>
<text xml:space="preserve" text-anchor="middle" x="320.27" y="-1188.45" font-family="Arial" font-size="14.00">if (arr[i] &lt;= a) break</text>
<text xml:space="preserve" text-anchor="middle" x="320.27" y="-1172.7" font-family="Arial" font-size="14.00">arr[i+1]=arr[i]</text>
<text xml:space="preserve" text-anchor="middle" x="320.27" y="-1156.95" font-family="Arial" font-size="14.00">i&#45;&#45;</text>
<text xml:space="preserve" text-anchor="middle" x="320.27" y="-1141.2" font-family="Arial" font-size="14.00">arr[i+1]=a</text>
<text xml:space="preserve" text-anchor="middle" x="320.27" y="-1125.45" font-family="Arial" font-size="14.00">j++</text>
</g>
<!-- cond2&#45;&gt;block1 -->
<g id="edge3" class="edge">
<title>cond2&#45;&gt;block1</title>
<path fill="none" stroke="black" d="M320.27,-1335.99C320.27,-1325.55 320.27,-1311.33 320.27,-1296.06"/>
<polygon fill="black" stroke="black" points="323.77,-1296.31 320.27,-1286.31 316.77,-1296.31 323.77,-1296.31"/>
<text xml:space="preserve" text-anchor="middle" x="334.14" y="-1304.95" font-family="Arial" font-size="14.00">True</text>
</g>
<!-- block3 -->
<g id="node8" class="node">
<title>block3</title>
<polygon fill="none" stroke="black" points="221.27,-1221.5 79.27,-1221.5 79.27,-1182 221.27,-1182 221.27,-1221.5"/>
<text xml:space="preserve" text-anchor="middle" x="150.27" y="-1204.2" font-family="Arial" font-size="14.00">k=(l+ir) &gt;&gt; 1</text>
<text xml:space="preserve" text-anchor="middle" x="150.27" y="-1188.45" font-family="Arial" font-size="14.00">SWAP(arr[k],arr[l+1])</text>
</g>
<!-- cond2&#45;&gt;block3 -->
<g id="edge4" class="edge">
<title>cond2&#45;&gt;block3</title>
<path fill="none" stroke="black" d="M304.88,-1339.63C276.73,-1314.71 216.5,-1261.38 180.08,-1229.14"/>
<polygon fill="black" stroke="black" points="182.74,-1226.83 172.94,-1222.82 178.1,-1232.07 182.74,-1226.83"/>
<text xml:space="preserve" text-anchor="middle" x="295.68" y="-1304.95" font-family="Arial" font-size="14.00">False</text>
</g>
<!-- cond3 -->
<g id="node6" class="node">
<title>cond3</title>
<polygon fill="none" stroke="black" points="320.27,-1082 224.76,-1064 320.27,-1046 415.77,-1064 320.27,-1082"/>
<text xml:space="preserve" text-anchor="middle" x="320.27" y="-1058.58" font-family="Arial" font-size="14.00">if (jstack == 0)</text>
</g>
<!-- block1&#45;&gt;cond3 -->
<g id="edge5" class="edge">
<title>block1&#45;&gt;cond3</title>
<path fill="none" stroke="black" d="M320.27,-1118.65C320.27,-1109.67 320.27,-1101.04 320.27,-1093.42"/>
<polygon fill="black" stroke="black" points="323.77,-1093.55 320.27,-1083.55 316.77,-1093.55 323.77,-1093.55"/>
</g>
<!-- cond3&#45;&gt;end -->
<g id="edge6" class="edge">
<title>cond3&#45;&gt;end</title>
<path fill="none" stroke="black" d="M314.81,-1046.54C310.77,-1034.35 305.17,-1017.46 300.45,-1003.21"/>
<polygon fill="black" stroke="black" points="303.84,-1002.31 297.37,-993.92 297.19,-1004.51 303.84,-1002.31"/>
<text xml:space="preserve" text-anchor="middle" x="322.24" y="-1014.7" font-family="Arial" font-size="14.00">True</text>
</g>
<!-- block2 -->
<g id="node7" class="node">
<title>block2</title>
<polygon fill="none" stroke="black" points="453.89,-994.25 336.64,-994.25 336.64,-954.75 453.89,-954.75 453.89,-994.25"/>
<text xml:space="preserve" text-anchor="middle" x="395.27" y="-976.95" font-family="Arial" font-size="14.00">ir=istack[jstack&#45;&#45;]</text>
<text xml:space="preserve" text-anchor="middle" x="395.27" y="-961.2" font-family="Arial" font-size="14.00">l=istack[jstack&#45;&#45;]</text>
</g>
<!-- cond3&#45;&gt;block2 -->
<g id="edge7" class="edge">
<title>cond3&#45;&gt;block2</title>
<path fill="none" stroke="black" d="M332.99,-1048.16C343.54,-1035.85 358.83,-1018.01 371.61,-1003.09"/>
<polygon fill="black" stroke="black" points="373.96,-1005.73 377.81,-995.86 368.65,-1001.17 373.96,-1005.73"/>
<text xml:space="preserve" text-anchor="middle" x="378.76" y="-1014.7" font-family="Arial" font-size="14.00">False</text>
</g>
<!-- block2&#45;&gt;cond1 -->
<g id="edge8" class="edge">
<title>block2&#45;&gt;cond1</title>
<path fill="none" stroke="black" d="M413.51,-994.65C427.44,-1011.33 444.27,-1036.88 444.27,-1063 444.27,-1355.25 444.27,-1355.25 444.27,-1355.25 444.27,-1370.65 448.49,-1387.3 452.95,-1400.61"/>
<polygon fill="black" stroke="black" points="449.62,-1401.69 456.32,-1409.9 456.2,-1399.31 449.62,-1401.69"/>
</g>
<!-- cond4 -->
<g id="node9" class="node">
<title>cond4</title>
<polygon fill="none" stroke="black" points="103.27,-1082 0,-1064 103.27,-1046 206.53,-1064 103.27,-1082"/>
<text xml:space="preserve" text-anchor="middle" x="103.27" y="-1058.58" font-family="Arial" font-size="14.00">if (arr[l] &gt; arr[ir])</text>
</g>
<!-- block3&#45;&gt;cond4 -->
<g id="edge9" class="edge">
<title>block3&#45;&gt;cond4</title>
<path fill="none" stroke="black" d="M143.63,-1181.59C135.56,-1158.29 121.89,-1118.8 112.72,-1092.32"/>
<polygon fill="black" stroke="black" points="116.06,-1091.24 109.48,-1082.94 109.44,-1093.53 116.06,-1091.24"/>
</g>
<!-- block4 -->
<g id="node10" class="node">
<title>block4</title>
<polygon fill="none" stroke="black" points="217.77,-992.5 90.77,-992.5 90.77,-956.5 217.77,-956.5 217.77,-992.5"/>
<text xml:space="preserve" text-anchor="middle" x="154.27" y="-969.08" font-family="Arial" font-size="14.00">SWAP(arr[l],arr[ir])</text>
</g>
<!-- cond4&#45;&gt;block4 -->
<g id="edge10" class="edge">
<title>cond4&#45;&gt;block4</title>
<path fill="none" stroke="black" d="M100.08,-1046.08C98.98,-1035.74 99.15,-1022.57 104.52,-1012.25 106.75,-1007.96 109.73,-1004.05 113.13,-1000.51"/>
<polygon fill="black" stroke="black" points="115.39,-1003.18 120.54,-993.92 110.74,-997.95 115.39,-1003.18"/>
<text xml:space="preserve" text-anchor="middle" x="118.39" y="-1014.7" font-family="Arial" font-size="14.00">True</text>
</g>
<!-- cond4&#45;&gt;block4 -->
<g id="edge30" class="edge">
<title>cond4&#45;&gt;block4</title>
<path fill="none" stroke="red" d="M117.3,-1048.06C122.43,-1042.11 128.02,-1035.02 132.27,-1028 136.91,-1020.33 141.03,-1011.5 144.41,-1003.29"/>
<polygon fill="red" stroke="red" points="147.63,-1004.66 147.99,-994.08 141.1,-1002.13 147.63,-1004.66"/>
<text xml:space="preserve" text-anchor="middle" x="154.13" y="-1014.7" font-family="Arial" font-size="14.00" fill="red">True</text>
</g>
<!-- cond5 -->
<g id="node11" class="node">
<title>cond5</title>
<polygon fill="none" stroke="black" points="143.27,-917.75 25.18,-899.75 143.27,-881.75 261.35,-899.75 143.27,-917.75"/>
<text xml:space="preserve" text-anchor="middle" x="143.27" y="-894.33" font-family="Arial" font-size="14.00">if (arr[l+1] &gt; arr[ir])</text>
</g>
<!-- cond4&#45;&gt;cond5 -->
<g id="edge11" class="edge">
<title>cond4&#45;&gt;cond5</title>
<path fill="none" stroke="black" d="M86.56,-1048.71C64.13,-1027.74 29.18,-987.55 48.27,-954.75 58.39,-937.34 76.46,-925.08 94.14,-916.7"/>
<polygon fill="black" stroke="black" points="95.29,-920.02 103.05,-912.81 92.49,-913.6 95.29,-920.02"/>
<text xml:space="preserve" text-anchor="middle" x="64.77" y="-969.08" font-family="Arial" font-size="14.00">False</text>
</g>
<!-- block4&#45;&gt;cond5 -->
<g id="edge12" class="edge">
<title>block4&#45;&gt;cond5</title>
<path fill="none" stroke="black" d="M151.66,-956.26C150.42,-948.05 148.9,-938.01 147.5,-928.75"/>
<polygon fill="black" stroke="black" points="151,-928.48 146.04,-919.11 144.08,-929.52 151,-928.48"/>
</g>
<!-- block5 -->
<g id="node12" class="node">
<title>block5</title>
<polygon fill="none" stroke="black" points="265.64,-830 122.89,-830 122.89,-794 265.64,-794 265.64,-830"/>
<text xml:space="preserve" text-anchor="middle" x="194.27" y="-806.58" font-family="Arial" font-size="14.00">SWAP(arr[l+1],arr[ir])</text>
</g>
<!-- cond5&#45;&gt;block5 -->
<g id="edge13" class="edge">
<title>cond5&#45;&gt;block5</title>
<path fill="none" stroke="black" d="M157.55,-883.44C162.6,-877.56 168.06,-870.61 172.27,-863.75 176.7,-856.52 180.7,-848.23 184.03,-840.48"/>
<polygon fill="black" stroke="black" points="187.18,-842.03 187.7,-831.45 180.69,-839.4 187.18,-842.03"/>
<text xml:space="preserve" text-anchor="middle" x="194.03" y="-850.45" font-family="Arial" font-size="14.00">True</text>
</g>
<!-- cond5&#45;&gt;block5 -->
<g id="edge31" class="edge">
<title>cond5&#45;&gt;block5</title>
<path fill="none" stroke="red" d="M138.15,-882.24C135.9,-871.81 134.88,-858.39 140.52,-848 142.55,-844.26 145.17,-840.85 148.16,-837.76"/>
<polygon fill="red" stroke="red" points="150.36,-840.49 155.65,-831.32 145.79,-835.19 150.36,-840.49"/>
<text xml:space="preserve" text-anchor="middle" x="154.39" y="-850.45" font-family="Arial" font-size="14.00" fill="red">True</text>
</g>
<!-- cond6 -->
<g id="node13" class="node">
<title>cond6</title>
<polygon fill="none" stroke="black" points="170.27,-757 56.41,-739 170.27,-721 284.12,-739 170.27,-757"/>
<text xml:space="preserve" text-anchor="middle" x="170.27" y="-733.58" font-family="Arial" font-size="14.00">if (arr[l] &gt; arr[l+1])</text>
</g>
<!-- cond5&#45;&gt;cond6 -->
<g id="edge14" class="edge">
<title>cond5&#45;&gt;cond6</title>
<path fill="none" stroke="black" d="M123.95,-884.29C99.58,-864.19 62.92,-826.59 81.27,-794 90.74,-777.18 107.8,-764.99 124.47,-756.5"/>
<polygon fill="black" stroke="black" points="125.8,-759.75 133.36,-752.33 122.82,-753.41 125.8,-759.75"/>
<text xml:space="preserve" text-anchor="middle" x="97.77" y="-806.58" font-family="Arial" font-size="14.00">False</text>
</g>
<!-- block5&#45;&gt;cond6 -->
<g id="edge15" class="edge">
<title>block5&#45;&gt;cond6</title>
<path fill="none" stroke="black" d="M188.46,-793.81C185.76,-785.85 182.5,-776.19 179.48,-767.27"/>
<polygon fill="black" stroke="black" points="182.86,-766.33 176.34,-757.97 176.23,-768.57 182.86,-766.33"/>
</g>
<!-- block6 -->
<g id="node14" class="node">
<title>block6</title>
<polygon fill="none" stroke="black" points="290.39,-669.25 152.14,-669.25 152.14,-633.25 290.39,-633.25 290.39,-669.25"/>
<text xml:space="preserve" text-anchor="middle" x="221.27" y="-645.83" font-family="Arial" font-size="14.00">SWAP(arr[l],arr[l+1])</text>
</g>
<!-- cond6&#45;&gt;block6 -->
<g id="edge16" class="edge">
<title>cond6&#45;&gt;block6</title>
<path fill="none" stroke="black" d="M184.26,-723.03C189.38,-717.08 194.97,-709.99 199.27,-703 203.7,-695.77 207.7,-687.48 211.03,-679.73"/>
<polygon fill="black" stroke="black" points="214.18,-681.28 214.7,-670.7 207.69,-678.65 214.18,-681.28"/>
<text xml:space="preserve" text-anchor="middle" x="221.03" y="-689.7" font-family="Arial" font-size="14.00">True</text>
</g>
<!-- cond6&#45;&gt;block6 -->
<g id="edge32" class="edge">
<title>cond6&#45;&gt;block6</title>
<path fill="none" stroke="red" d="M165.15,-721.49C162.9,-711.06 161.88,-697.64 167.52,-687.25 169.55,-683.51 172.17,-680.1 175.16,-677.01"/>
<polygon fill="red" stroke="red" points="177.36,-679.74 182.65,-670.57 172.79,-674.44 177.36,-679.74"/>
<text xml:space="preserve" text-anchor="middle" x="181.39" y="-689.7" font-family="Arial" font-size="14.00" fill="red">True</text>
</g>
<!-- block7 -->
<g id="node15" class="node">
<title>block7</title>
<polygon fill="none" stroke="black" points="243.52,-596.25 169.02,-596.25 169.02,-541 243.52,-541 243.52,-596.25"/>
<text xml:space="preserve" text-anchor="middle" x="206.27" y="-578.95" font-family="Arial" font-size="14.00">i=l+1</text>
<text xml:space="preserve" text-anchor="middle" x="206.27" y="-563.2" font-family="Arial" font-size="14.00">j=ir</text>
<text xml:space="preserve" text-anchor="middle" x="206.27" y="-547.45" font-family="Arial" font-size="14.00">a=arr[l+1]</text>
</g>
<!-- cond6&#45;&gt;block7 -->
<g id="edge17" class="edge">
<title>cond6&#45;&gt;block7</title>
<path fill="none" stroke="black" d="M151.64,-723.57C128.12,-703.5 92.72,-665.93 110.27,-633.25 120.72,-613.78 140.04,-599.26 158.63,-589.05"/>
<polygon fill="black" stroke="black" points="160.17,-592.19 167.47,-584.51 156.97,-585.96 160.17,-592.19"/>
<text xml:space="preserve" text-anchor="middle" x="126.77" y="-645.83" font-family="Arial" font-size="14.00">False</text>
</g>
<!-- block6&#45;&gt;block7 -->
<g id="edge18" class="edge">
<title>block6&#45;&gt;block7</title>
<path fill="none" stroke="black" d="M218.01,-632.76C216.64,-625.41 215,-616.57 213.38,-607.85"/>
<polygon fill="black" stroke="black" points="216.83,-607.28 211.56,-598.09 209.95,-608.56 216.83,-607.28"/>
</g>
<!-- cond7 -->
<g id="node16" class="node">
<title>cond7</title>
<polygon fill="none" stroke="black" points="206.27,-504 157.34,-486 206.27,-468 255.19,-486 206.27,-504"/>
<text xml:space="preserve" text-anchor="middle" x="206.27" y="-480.57" font-family="Arial" font-size="14.00">for (;;)</text>
</g>
<!-- block7&#45;&gt;cond7 -->
<g id="edge19" class="edge">
<title>block7&#45;&gt;cond7</title>
<path fill="none" stroke="black" d="M206.27,-540.78C206.27,-532.65 206.27,-523.7 206.27,-515.48"/>
<polygon fill="black" stroke="black" points="209.77,-515.63 206.27,-505.63 202.77,-515.63 209.77,-515.63"/>
</g>
<!-- block8 -->
<g id="node17" class="node">
<title>block8</title>
<polygon fill="none" stroke="black" points="362.77,-431 229.77,-431 229.77,-360 362.77,-360 362.77,-431"/>
<text xml:space="preserve" text-anchor="middle" x="296.27" y="-413.7" font-family="Arial" font-size="14.00">i++</text>
<text xml:space="preserve" text-anchor="middle" x="296.27" y="-397.95" font-family="Arial" font-size="14.00">while (arr[i] &lt; a) i++</text>
<text xml:space="preserve" text-anchor="middle" x="296.27" y="-382.2" font-family="Arial" font-size="14.00">j&#45;&#45;</text>
<text xml:space="preserve" text-anchor="middle" x="296.27" y="-366.45" font-family="Arial" font-size="14.00">while (arr[j] &gt; a) j&#45;&#45;</text>
</g>
<!-- cond7&#45;&gt;block8 -->
<g id="edge20" class="edge">
<title>cond7&#45;&gt;block8</title>
<path fill="none" stroke="black" d="M219.16,-472.32C228.09,-463.54 240.54,-451.29 252.84,-439.2"/>
<polygon fill="black" stroke="black" points="255.1,-441.89 259.78,-432.38 250.19,-436.9 255.1,-441.89"/>
</g>
<!-- cond8 -->
<g id="node18" class="node">
<title>cond8</title>
<polygon fill="none" stroke="black" points="294.27,-323 240.4,-305 294.27,-287 348.13,-305 294.27,-323"/>
<text xml:space="preserve" text-anchor="middle" x="294.27" y="-299.57" font-family="Arial" font-size="14.00">if (j &lt; i)</text>
</g>
<!-- block8&#45;&gt;cond8 -->
<g id="edge21" class="edge">
<title>block8&#45;&gt;cond8</title>
<path fill="none" stroke="black" d="M295.47,-359.52C295.29,-351.18 295.09,-342.38 294.91,-334.37"/>
<polygon fill="black" stroke="black" points="298.41,-334.44 294.68,-324.52 291.41,-334.59 298.41,-334.44"/>
</g>
<!-- block9 -->
<g id="node19" class="node">
<title>block9</title>
<polygon fill="none" stroke="black" points="294.52,-225.62 172.02,-225.62 172.02,-189.62 294.52,-189.62 294.52,-225.62"/>
<text xml:space="preserve" text-anchor="middle" x="233.27" y="-202.2" font-family="Arial" font-size="14.00">SWAP(arr[i],arr[j])</text>
</g>
<!-- cond8&#45;&gt;block9 -->
<g id="edge22" class="edge">
<title>cond8&#45;&gt;block9</title>
<path fill="none" stroke="black" d="M288.89,-288.28C285.02,-277.92 279.24,-264.29 272.27,-253.25 268.13,-246.71 263.05,-240.15 257.95,-234.16"/>
<polygon fill="black" stroke="black" points="260.83,-232.13 251.56,-226.98 255.6,-236.78 260.83,-232.13"/>
<text xml:space="preserve" text-anchor="middle" x="296.77" y="-255.7" font-family="Arial" font-size="14.00">False</text>
</g>
<!-- cond8&#45;&gt;block9 -->
<g id="edge33" class="edge">
<title>cond8&#45;&gt;block9</title>
<path fill="none" stroke="red" d="M268.16,-295.28C255.96,-289.76 242.54,-281.3 235.27,-269 229.72,-259.62 228.34,-247.91 228.67,-237.31"/>
<polygon fill="red" stroke="red" points="232.14,-237.75 229.5,-227.49 225.17,-237.16 232.14,-237.75"/>
<text xml:space="preserve" text-anchor="middle" x="251.77" y="-255.7" font-family="Arial" font-size="14.00" fill="red">False</text>
</g>
<!-- block10 -->
<g id="node20" class="node">
<title>block10</title>
<polygon fill="none" stroke="black" points="406.27,-235.25 312.27,-235.25 312.27,-180 406.27,-180 406.27,-235.25"/>
<text xml:space="preserve" text-anchor="middle" x="359.27" y="-217.95" font-family="Arial" font-size="14.00">arr[l+1]=arr[j]</text>
<text xml:space="preserve" text-anchor="middle" x="359.27" y="-202.2" font-family="Arial" font-size="14.00">arr[j]=a</text>
<text xml:space="preserve" text-anchor="middle" x="359.27" y="-186.45" font-family="Arial" font-size="14.00">jstack += 2</text>
</g>
<!-- cond8&#45;&gt;block10 -->
<g id="edge23" class="edge">
<title>cond8&#45;&gt;block10</title>
<path fill="none" stroke="black" d="M303.86,-289.93C311.93,-278.08 323.84,-260.61 334.54,-244.9"/>
<polygon fill="black" stroke="black" points="337.42,-246.89 340.16,-236.66 331.64,-242.95 337.42,-246.89"/>
<text xml:space="preserve" text-anchor="middle" x="342.59" y="-255.7" font-family="Arial" font-size="14.00">True</text>
</g>
<!-- block9&#45;&gt;cond7 -->
<g id="edge24" class="edge">
<title>block9&#45;&gt;cond7</title>
<path fill="none" stroke="black" d="M230.26,-225.96C228.9,-234.21 227.36,-244.22 226.27,-253.25 217.38,-326.38 211.01,-412.97 208.07,-456.7"/>
<polygon fill="black" stroke="black" points="204.59,-456.37 207.42,-466.58 211.57,-456.83 204.59,-456.37"/>
</g>
<!-- cond9 -->
<g id="node21" class="node">
<title>cond9</title>
<polygon fill="none" stroke="black" points="359.27,-143 264.47,-125 359.27,-107 454.06,-125 359.27,-143"/>
<text xml:space="preserve" text-anchor="middle" x="359.27" y="-119.58" font-family="Arial" font-size="14.00">if (ir&#45;i+1 &gt;= j&#45;l)</text>
</g>
<!-- block10&#45;&gt;cond9 -->
<g id="edge25" class="edge">
<title>block10&#45;&gt;cond9</title>
<path fill="none" stroke="black" d="M359.27,-179.78C359.27,-171.65 359.27,-162.7 359.27,-154.48"/>
<polygon fill="black" stroke="black" points="362.77,-154.63 359.27,-144.63 355.77,-154.63 362.77,-154.63"/>
</g>
<!-- block11 -->
<g id="node22" class="node">
<title>block11</title>
<polygon fill="none" stroke="black" points="441.14,-55.25 325.39,-55.25 325.39,0 441.14,0 441.14,-55.25"/>
<text xml:space="preserve" text-anchor="middle" x="383.27" y="-37.95" font-family="Arial" font-size="14.00">istack[jstack]=ir</text>
<text xml:space="preserve" text-anchor="middle" x="383.27" y="-22.2" font-family="Arial" font-size="14.00">istack[jstack&#45;1]=i</text>
<text xml:space="preserve" text-anchor="middle" x="383.27" y="-6.45" font-family="Arial" font-size="14.00">ir=j&#45;1</text>
</g>
<!-- cond9&#45;&gt;block11 -->
<g id="edge26" class="edge">
<title>cond9&#45;&gt;block11</title>
<path fill="none" stroke="black" d="M344.35,-109.53C335.87,-99.48 327.96,-85.7 333.52,-73.25 334.87,-70.22 336.54,-67.31 338.44,-64.53"/>
<polygon fill="black" stroke="black" points="341.14,-66.76 344.71,-56.78 335.7,-62.35 341.14,-66.76"/>
<text xml:space="preserve" text-anchor="middle" x="347.39" y="-75.7" font-family="Arial" font-size="14.00">True</text>
</g>
<!-- cond9&#45;&gt;block11 -->
<g id="edge34" class="edge">
<title>cond9&#45;&gt;block11</title>
<path fill="none" stroke="red" d="M363.45,-107.39C366.29,-96.1 370.16,-80.7 373.73,-66.51"/>
<polygon fill="red" stroke="red" points="377.09,-67.51 376.13,-56.96 370.3,-65.81 377.09,-67.51"/>
<text xml:space="preserve" text-anchor="middle" x="385.86" y="-75.7" font-family="Arial" font-size="14.00" fill="red">True</text>
</g>
<!-- block12 -->
<g id="node23" class="node">
<title>block12</title>
<polygon fill="none" stroke="black" points="576.14,-55.25 460.39,-55.25 460.39,0 576.14,0 576.14,-55.25"/>
<text xml:space="preserve" text-anchor="middle" x="518.27" y="-37.95" font-family="Arial" font-size="14.00">istack[jstack]=j&#45;1</text>
<text xml:space="preserve" text-anchor="middle" x="518.27" y="-22.2" font-family="Arial" font-size="14.00">istack[jstack&#45;1]=l</text>
<text xml:space="preserve" text-anchor="middle" x="518.27" y="-6.45" font-family="Arial" font-size="14.00">l=i</text>
</g>
<!-- cond9&#45;&gt;block12 -->
<g id="edge27" class="edge">
<title>cond9&#45;&gt;block12</title>
<path fill="none" stroke="black" d="M381.37,-110.74C402.52,-98.06 435.26,-78.42 463.42,-61.52"/>
<polygon fill="black" stroke="black" points="465.09,-64.6 471.86,-56.46 461.49,-58.6 465.09,-64.6"/>
<text xml:space="preserve" text-anchor="middle" x="460.03" y="-75.7" font-family="Arial" font-size="14.00">False</text>
</g>
<!-- block11&#45;&gt;cond1 -->
<g id="edge28" class="edge">
<title>block11&#45;&gt;cond1</title>
<path fill="none" stroke="black" d="M441.52,-50.94C451.55,-56.93 461.05,-64.3 468.27,-73.25 482.95,-91.47 482.27,-100.6 482.27,-124 482.27,-1355.25 482.27,-1355.25 482.27,-1355.25 482.27,-1370.65 478.04,-1387.3 473.58,-1400.61"/>
<polygon fill="black" stroke="black" points="470.33,-1399.31 470.21,-1409.9 476.91,-1401.69 470.33,-1399.31"/>
</g>
<!-- block12&#45;&gt;cond1 -->
<g id="edge29" class="edge">
<title>block12&#45;&gt;cond1</title>
<path fill="none" stroke="black" d="M519.13,-55.34C519.67,-74.46 520.27,-100.81 520.27,-124 520.27,-1355.25 520.27,-1355.25 520.27,-1355.25 520.27,-1376.79 504.12,-1395.51 489.01,-1408.32"/>
<polygon fill="black" stroke="black" points="487.23,-1405.26 481.55,-1414.21 491.57,-1410.76 487.23,-1405.26"/>
</g>
</g>
</svg>
