<?xml version="1.0" encoding="UTF-8" standalone="no"?>
<!DOCTYPE svg PUBLIC "-//W3C//DTD SVG 1.1//EN"
 "http://www.w3.org/Graphics/SVG/1.1/DTD/svg11.dtd">
<!-- Generated by graphviz version 13.1.2 (20250808.2320)
 -->
<!-- Title: CFG Pages: 1 -->
<svg width="593pt" height="822pt"
 viewBox="0.00 0.00 593.00 822.00" xmlns="http://www.w3.org/2000/svg" xmlns:xlink="http://www.w3.org/1999/xlink">
<g id="graph0" class="graph" transform="scale(1 1) rotate(0) translate(4 817.75)">
<title>CFG</title>
<polygon fill="white" stroke="none" points="-4,4 -4,-817.75 589.25,-817.75 589.25,4 -4,4"/>
<!-- B1 -->
<g id="node1" class="node">
<title>B1</title>
<path fill="none" stroke="black" d="M524.12,-813.75C524.12,-813.75 335.62,-813.75 335.62,-813.75 329.62,-813.75 323.62,-807.75 323.62,-801.75 323.62,-801.75 323.62,-786.25 323.62,-786.25 323.62,-780.25 329.62,-774.25 335.62,-774.25 335.62,-774.25 524.12,-774.25 524.12,-774.25 530.12,-774.25 536.12,-780.25 536.12,-786.25 536.12,-786.25 536.12,-801.75 536.12,-801.75 536.12,-807.75 530.12,-813.75 524.12,-813.75"/>
<text xml:space="preserve" text-anchor="middle" x="429.88" y="-796.45" font-family="Helvetica,sans-Serif" font-size="14.00">B1: Inicializacao</text>
<text xml:space="preserve" text-anchor="middle" x="429.88" y="-780.7" font-family="Helvetica,sans-Serif" font-size="14.00">(i, ir=n, j, k, l=1, jstack=0, flag=0)</text>
</g>
<!-- B2 -->
<g id="node2" class="node">
<title>B2</title>
<path fill="none" stroke="black" d="M480.62,-737.25C480.62,-737.25 379.12,-737.25 379.12,-737.25 373.12,-737.25 367.12,-731.25 367.12,-725.25 367.12,-725.25 367.12,-709.75 367.12,-709.75 367.12,-703.75 373.12,-697.75 379.12,-697.75 379.12,-697.75 480.62,-697.75 480.62,-697.75 486.62,-697.75 492.62,-703.75 492.62,-709.75 492.62,-709.75 492.62,-725.25 492.62,-725.25 492.62,-731.25 486.62,-737.25 480.62,-737.25"/>
<text xml:space="preserve" text-anchor="middle" x="429.88" y="-719.95" font-family="Helvetica,sans-Serif" font-size="14.00">B2: Loop Principal</text>
<text xml:space="preserve" text-anchor="middle" x="429.88" y="-704.2" font-family="Helvetica,sans-Serif" font-size="14.00">for (;;)</text>
</g>
<!-- B1&#45;&gt;B2 -->
<g id="edge1" class="edge">
<title>B1&#45;&gt;B2</title>
<path fill="none" stroke="black" d="M429.88,-773.81C429.88,-766.25 429.88,-757.38 429.88,-748.99"/>
<polygon fill="black" stroke="black" points="433.38,-749.13 429.88,-739.13 426.38,-749.13 433.38,-749.13"/>
</g>
<!-- B3 -->
<g id="node3" class="node">
<title>B3</title>
<path fill="none" stroke="black" d="M342.75,-660.75C342.75,-660.75 257,-660.75 257,-660.75 251,-660.75 245,-654.75 245,-648.75 245,-648.75 245,-636.75 245,-636.75 245,-630.75 251,-624.75 257,-624.75 257,-624.75 342.75,-624.75 342.75,-624.75 348.75,-624.75 354.75,-630.75 354.75,-636.75 354.75,-636.75 354.75,-648.75 354.75,-648.75 354.75,-654.75 348.75,-660.75 342.75,-660.75"/>
<text xml:space="preserve" text-anchor="middle" x="299.88" y="-637.33" font-family="Helvetica,sans-Serif" font-size="14.00">B3: if (ir &#45; l &lt; M)</text>
</g>
<!-- B2&#45;&gt;B3 -->
<g id="edge2" class="edge">
<title>B2&#45;&gt;B3</title>
<path fill="none" stroke="black" d="M395.72,-697.39C378.99,-688.02 358.72,-676.68 341.13,-666.84"/>
<polygon fill="black" stroke="black" points="342.89,-663.81 332.45,-661.98 339.47,-669.92 342.89,-663.81"/>
</g>
<!-- B4 -->
<g id="node4" class="node">
<title>B4</title>
<path fill="none" stroke="black" d="M363.38,-565.12C363.38,-565.12 236.38,-565.12 236.38,-565.12 230.38,-565.12 224.38,-559.12 224.38,-553.12 224.38,-553.12 224.38,-521.88 224.38,-521.88 224.38,-515.88 230.38,-509.88 236.38,-509.88 236.38,-509.88 363.38,-509.88 363.38,-509.88 369.38,-509.88 375.38,-515.88 375.38,-521.88 375.38,-521.88 375.38,-553.12 375.38,-553.12 375.38,-559.12 369.38,-565.12 363.38,-565.12"/>
<text xml:space="preserve" text-anchor="middle" x="299.88" y="-547.83" font-family="Helvetica,sans-Serif" font-size="14.00">B4: Insertion Sort</text>
<text xml:space="preserve" text-anchor="middle" x="299.88" y="-532.08" font-family="Helvetica,sans-Serif" font-size="14.00">for (j = l+1; j &lt;= ir; j++)</text>
<text xml:space="preserve" text-anchor="middle" x="299.88" y="-516.33" font-family="Helvetica,sans-Serif" font-size="14.00">...</text>
</g>
<!-- B3&#45;&gt;B4 -->
<g id="edge3" class="edge">
<title>B3&#45;&gt;B4</title>
<path fill="none" stroke="black" d="M299.88,-624.7C299.88,-611.58 299.88,-592.94 299.88,-576.34"/>
<polygon fill="black" stroke="black" points="303.38,-576.79 299.88,-566.79 296.38,-576.79 303.38,-576.79"/>
<text xml:space="preserve" text-anchor="middle" x="313.75" y="-593.45" font-family="Helvetica,sans-Serif" font-size="14.00">True</text>
</g>
<!-- B7 -->
<g id="node7" class="node">
<title>B7</title>
<path fill="none" stroke="black" d="M193.62,-573C193.62,-573 116.12,-573 116.12,-573 110.12,-573 104.12,-567 104.12,-561 104.12,-561 104.12,-514 104.12,-514 104.12,-508 110.12,-502 116.12,-502 116.12,-502 193.62,-502 193.62,-502 199.62,-502 205.62,-508 205.62,-514 205.62,-514 205.62,-561 205.62,-561 205.62,-567 199.62,-573 193.62,-573"/>
<text xml:space="preserve" text-anchor="middle" x="154.88" y="-555.7" font-family="Helvetica,sans-Serif" font-size="14.00">B7: Particao</text>
<text xml:space="preserve" text-anchor="middle" x="154.88" y="-539.95" font-family="Helvetica,sans-Serif" font-size="14.00">k = (l+ir) &gt;&gt; 1;</text>
<text xml:space="preserve" text-anchor="middle" x="154.88" y="-524.2" font-family="Helvetica,sans-Serif" font-size="14.00">SWAP(...);</text>
<text xml:space="preserve" text-anchor="middle" x="154.88" y="-508.45" font-family="Helvetica,sans-Serif" font-size="14.00">...</text>
</g>
<!-- B3&#45;&gt;B7 -->
<g id="edge4" class="edge">
<title>B3&#45;&gt;B7</title>
<path fill="none" stroke="black" d="M275.61,-624.47C258.53,-612.31 234.93,-595.51 213.12,-579.98"/>
<polygon fill="black" stroke="black" points="215.32,-577.24 205.14,-574.29 211.26,-582.95 215.32,-577.24"/>
<text xml:space="preserve" text-anchor="middle" x="265.34" y="-593.45" font-family="Helvetica,sans-Serif" font-size="14.00">False</text>
</g>
<!-- B5 -->
<g id="node5" class="node">
<title>B5</title>
<path fill="none" stroke="black" d="M350.62,-455.38C350.62,-455.38 249.12,-455.38 249.12,-455.38 243.12,-455.38 237.12,-449.38 237.12,-443.38 237.12,-443.38 237.12,-431.38 237.12,-431.38 237.12,-425.38 243.12,-419.38 249.12,-419.38 249.12,-419.38 350.62,-419.38 350.62,-419.38 356.62,-419.38 362.62,-425.38 362.62,-431.38 362.62,-431.38 362.62,-443.38 362.62,-443.38 362.62,-449.38 356.62,-455.38 350.62,-455.38"/>
<text xml:space="preserve" text-anchor="middle" x="299.88" y="-431.95" font-family="Helvetica,sans-Serif" font-size="14.00">B5: if (jstack == 0)</text>
</g>
<!-- B4&#45;&gt;B5 -->
<g id="edge5" class="edge">
<title>B4&#45;&gt;B5</title>
<path fill="none" stroke="black" d="M299.88,-509.43C299.88,-496.31 299.88,-480.55 299.88,-467.21"/>
<polygon fill="black" stroke="black" points="303.38,-467.3 299.88,-457.3 296.38,-467.3 303.38,-467.3"/>
</g>
<!-- B6 -->
<g id="node6" class="node">
<title>B6</title>
<path fill="none" stroke="black" d="M409.12,-358C409.12,-358 304.62,-358 304.62,-358 298.62,-358 292.62,-352 292.62,-346 292.62,-346 292.62,-314.75 292.62,-314.75 292.62,-308.75 298.62,-302.75 304.62,-302.75 304.62,-302.75 409.12,-302.75 409.12,-302.75 415.12,-302.75 421.12,-308.75 421.12,-314.75 421.12,-314.75 421.12,-346 421.12,-346 421.12,-352 415.12,-358 409.12,-358"/>
<text xml:space="preserve" text-anchor="middle" x="356.88" y="-340.7" font-family="Helvetica,sans-Serif" font-size="14.00">B6: Pop Stack</text>
<text xml:space="preserve" text-anchor="middle" x="356.88" y="-324.95" font-family="Helvetica,sans-Serif" font-size="14.00">ir = istack[jstack&#45;&#45;];</text>
<text xml:space="preserve" text-anchor="middle" x="356.88" y="-309.2" font-family="Helvetica,sans-Serif" font-size="14.00">l = istack[jstack&#45;&#45;];</text>
</g>
<!-- B5&#45;&gt;B6 -->
<g id="edge7" class="edge">
<title>B5&#45;&gt;B6</title>
<path fill="none" stroke="black" d="M309.29,-419.04C316.79,-405.21 327.57,-385.36 336.97,-368.04"/>
<polygon fill="black" stroke="black" points="339.89,-369.99 341.59,-359.53 333.74,-366.65 339.89,-369.99"/>
<text xml:space="preserve" text-anchor="middle" x="348.29" y="-378.45" font-family="Helvetica,sans-Serif" font-size="14.00">False</text>
</g>
<!-- B15 -->
<g id="node15" class="node">
<title>B15</title>
<path fill="none" stroke="black" d="M262.25,-348.38C262.25,-348.38 215.5,-348.38 215.5,-348.38 209.5,-348.38 203.5,-342.38 203.5,-336.38 203.5,-336.38 203.5,-324.38 203.5,-324.38 203.5,-318.38 209.5,-312.38 215.5,-312.38 215.5,-312.38 262.25,-312.38 262.25,-312.38 268.25,-312.38 274.25,-318.38 274.25,-324.38 274.25,-324.38 274.25,-336.38 274.25,-336.38 274.25,-342.38 268.25,-348.38 262.25,-348.38"/>
<text xml:space="preserve" text-anchor="middle" x="238.88" y="-324.95" font-family="Helvetica,sans-Serif" font-size="14.00">B15: Fim</text>
</g>
<!-- B5&#45;&gt;B15 -->
<g id="edge6" class="edge">
<title>B5&#45;&gt;B15</title>
<path fill="none" stroke="black" d="M270.15,-418.88C260.58,-411.71 250.95,-402.54 245.12,-391.75 239.96,-382.18 237.94,-370.52 237.38,-360.01"/>
<polygon fill="black" stroke="black" points="240.88,-360.27 237.28,-350.31 233.88,-360.35 240.88,-360.27"/>
<text xml:space="preserve" text-anchor="middle" x="283" y="-378.45" font-family="Helvetica,sans-Serif" font-size="14.00">True (Break)</text>
</g>
<!-- B6&#45;&gt;B2 -->
<g id="edge8" class="edge">
<title>B6&#45;&gt;B2</title>
<path fill="none" stroke="black" d="M376.95,-358.36C390.11,-378.72 404.88,-407.91 404.88,-436.38 404.88,-643.75 404.88,-643.75 404.88,-643.75 404.88,-658.57 409.57,-674.2 414.89,-687.17"/>
<polygon fill="black" stroke="black" points="411.54,-688.25 418.8,-695.97 417.94,-685.41 411.54,-688.25"/>
</g>
<!-- B8 -->
<g id="node8" class="node">
<title>B8</title>
<path fill="none" stroke="black" d="M185.12,-465C185.12,-465 104.62,-465 104.62,-465 98.62,-465 92.62,-459 92.62,-453 92.62,-453 92.62,-421.75 92.62,-421.75 92.62,-415.75 98.62,-409.75 104.62,-409.75 104.62,-409.75 185.12,-409.75 185.12,-409.75 191.12,-409.75 197.12,-415.75 197.12,-421.75 197.12,-421.75 197.12,-453 197.12,-453 197.12,-459 191.12,-465 185.12,-465"/>
<text xml:space="preserve" text-anchor="middle" x="144.88" y="-447.7" font-family="Helvetica,sans-Serif" font-size="14.00">B8: Inner Loop</text>
<text xml:space="preserve" text-anchor="middle" x="144.88" y="-431.95" font-family="Helvetica,sans-Serif" font-size="14.00">for (;;)</text>
<text xml:space="preserve" text-anchor="middle" x="144.88" y="-416.2" font-family="Helvetica,sans-Serif" font-size="14.00">i++; j&#45;&#45;;</text>
</g>
<!-- B7&#45;&gt;B8 -->
<g id="edge9" class="edge">
<title>B7&#45;&gt;B8</title>
<path fill="none" stroke="black" d="M151.32,-501.63C150.5,-493.54 149.62,-484.89 148.78,-476.67"/>
<polygon fill="black" stroke="black" points="152.28,-476.52 147.78,-466.93 145.32,-477.23 152.28,-476.52"/>
</g>
<!-- B9 -->
<g id="node9" class="node">
<title>B9</title>
<path fill="none" stroke="black" d="M173.5,-348.38C173.5,-348.38 116.25,-348.38 116.25,-348.38 110.25,-348.38 104.25,-342.38 104.25,-336.38 104.25,-336.38 104.25,-324.38 104.25,-324.38 104.25,-318.38 110.25,-312.38 116.25,-312.38 116.25,-312.38 173.5,-312.38 173.5,-312.38 179.5,-312.38 185.5,-318.38 185.5,-324.38 185.5,-324.38 185.5,-336.38 185.5,-336.38 185.5,-342.38 179.5,-348.38 173.5,-348.38"/>
<text xml:space="preserve" text-anchor="middle" x="144.88" y="-324.95" font-family="Helvetica,sans-Serif" font-size="14.00">B9: if (j &lt; i)</text>
</g>
<!-- B8&#45;&gt;B9 -->
<g id="edge10" class="edge">
<title>B8&#45;&gt;B9</title>
<path fill="none" stroke="black" d="M144.88,-409.33C144.88,-394.28 144.88,-375.54 144.88,-360.21"/>
<polygon fill="black" stroke="black" points="148.38,-360.29 144.88,-350.29 141.38,-360.29 148.38,-360.29"/>
</g>
<!-- B10 -->
<g id="node10" class="node">
<title>B10</title>
<path fill="none" stroke="black" d="M145.75,-233.5C145.75,-233.5 12,-233.5 12,-233.5 6,-233.5 0,-227.5 0,-221.5 0,-221.5 0,-209.5 0,-209.5 0,-203.5 6,-197.5 12,-197.5 12,-197.5 145.75,-197.5 145.75,-197.5 151.75,-197.5 157.75,-203.5 157.75,-209.5 157.75,-209.5 157.75,-221.5 157.75,-221.5 157.75,-227.5 151.75,-233.5 145.75,-233.5"/>
<text xml:space="preserve" text-anchor="middle" x="78.88" y="-210.07" font-family="Helvetica,sans-Serif" font-size="14.00">B10: SWAP(arr[i], arr[j])</text>
</g>
<!-- B9&#45;&gt;B10 -->
<g id="edge12" class="edge">
<title>B9&#45;&gt;B10</title>
<path fill="none" stroke="black" d="M134.85,-312.23C124.19,-294 107.18,-264.91 94.7,-243.57"/>
<polygon fill="black" stroke="black" points="97.83,-241.98 89.76,-235.11 91.78,-245.51 97.83,-241.98"/>
<text xml:space="preserve" text-anchor="middle" x="134.29" y="-271.45" font-family="Helvetica,sans-Serif" font-size="14.00">False</text>
</g>
<!-- B11 -->
<g id="node11" class="node">
<title>B11</title>
<path fill="none" stroke="black" d="M329,-251C329,-251 190.75,-251 190.75,-251 184.75,-251 178.75,-245 178.75,-239 178.75,-239 178.75,-192 178.75,-192 178.75,-186 184.75,-180 190.75,-180 190.75,-180 329,-180 329,-180 335,-180 341,-186 341,-192 341,-192 341,-239 341,-239 341,-245 335,-251 329,-251"/>
<text xml:space="preserve" text-anchor="middle" x="259.88" y="-233.7" font-family="Helvetica,sans-Serif" font-size="14.00">B11: Atualizacoes Finais</text>
<text xml:space="preserve" text-anchor="middle" x="259.88" y="-217.95" font-family="Helvetica,sans-Serif" font-size="14.00">arr[l+1]=arr[j];</text>
<text xml:space="preserve" text-anchor="middle" x="259.88" y="-202.2" font-family="Helvetica,sans-Serif" font-size="14.00">arr[j]=a;</text>
<text xml:space="preserve" text-anchor="middle" x="259.88" y="-186.45" font-family="Helvetica,sans-Serif" font-size="14.00">jstack+=2;</text>
</g>
<!-- B9&#45;&gt;B11 -->
<g id="edge11" class="edge">
<title>B9&#45;&gt;B11</title>
<path fill="none" stroke="black" d="M162.34,-312.23C176.68,-298.16 197.62,-277.61 216.42,-259.15"/>
<polygon fill="black" stroke="black" points="218.83,-261.69 223.52,-252.19 213.93,-256.69 218.83,-261.69"/>
<text xml:space="preserve" text-anchor="middle" x="243.7" y="-271.45" font-family="Helvetica,sans-Serif" font-size="14.00">True (Break)</text>
</g>
<!-- B10&#45;&gt;B8 -->
<g id="edge13" class="edge">
<title>B10&#45;&gt;B8</title>
<path fill="none" stroke="black" d="M78.36,-233.61C78.07,-260.78 79.7,-315.12 94.88,-358 100.07,-372.67 108.44,-387.41 116.87,-400.08"/>
<polygon fill="black" stroke="black" points="113.84,-401.86 122.4,-408.09 119.59,-397.87 113.84,-401.86"/>
</g>
<!-- B12 -->
<g id="node12" class="node">
<title>B12</title>
<path fill="none" stroke="black" d="M329,-143C329,-143 220.75,-143 220.75,-143 214.75,-143 208.75,-137 208.75,-131 208.75,-131 208.75,-119 208.75,-119 208.75,-113 214.75,-107 220.75,-107 220.75,-107 329,-107 329,-107 335,-107 341,-113 341,-119 341,-119 341,-131 341,-131 341,-137 335,-143 329,-143"/>
<text xml:space="preserve" text-anchor="middle" x="274.88" y="-119.58" font-family="Helvetica,sans-Serif" font-size="14.00">B12: if (ir&#45;i+1 &gt;= j&#45;l)</text>
</g>
<!-- B11&#45;&gt;B12 -->
<g id="edge14" class="edge">
<title>B11&#45;&gt;B12</title>
<path fill="none" stroke="black" d="M265.8,-179.52C267.2,-171.31 268.66,-162.65 270,-154.74"/>
<polygon fill="black" stroke="black" points="273.44,-155.42 271.66,-144.98 266.54,-154.25 273.44,-155.42"/>
</g>
<!-- B13 -->
<g id="node13" class="node">
<title>B13</title>
<path fill="none" stroke="black" d="M358.62,-55.25C358.62,-55.25 191.12,-55.25 191.12,-55.25 185.12,-55.25 179.12,-49.25 179.12,-43.25 179.12,-43.25 179.12,-12 179.12,-12 179.12,-6 185.12,0 191.12,0 191.12,0 358.62,0 358.62,0 364.62,0 370.62,-6 370.62,-12 370.62,-12 370.62,-43.25 370.62,-43.25 370.62,-49.25 364.62,-55.25 358.62,-55.25"/>
<text xml:space="preserve" text-anchor="middle" x="274.88" y="-37.95" font-family="Helvetica,sans-Serif" font-size="14.00">B13: Push Stack (Caso True)</text>
<text xml:space="preserve" text-anchor="middle" x="274.88" y="-22.2" font-family="Helvetica,sans-Serif" font-size="14.00">istack[jstack]=ir;</text>
<text xml:space="preserve" text-anchor="middle" x="274.88" y="-6.45" font-family="Helvetica,sans-Serif" font-size="14.00">...</text>
</g>
<!-- B12&#45;&gt;B13 -->
<g id="edge15" class="edge">
<title>B12&#45;&gt;B13</title>
<path fill="none" stroke="black" d="M274.88,-106.51C274.88,-95.42 274.88,-80.62 274.88,-66.91"/>
<polygon fill="black" stroke="black" points="278.38,-67.26 274.88,-57.26 271.38,-67.26 278.38,-67.26"/>
<text xml:space="preserve" text-anchor="middle" x="288.75" y="-75.7" font-family="Helvetica,sans-Serif" font-size="14.00">True</text>
</g>
<!-- B14 -->
<g id="node14" class="node">
<title>B14</title>
<path fill="none" stroke="black" d="M573.25,-55.25C573.25,-55.25 400.5,-55.25 400.5,-55.25 394.5,-55.25 388.5,-49.25 388.5,-43.25 388.5,-43.25 388.5,-12 388.5,-12 388.5,-6 394.5,0 400.5,0 400.5,0 573.25,0 573.25,0 579.25,0 585.25,-6 585.25,-12 585.25,-12 585.25,-43.25 585.25,-43.25 585.25,-49.25 579.25,-55.25 573.25,-55.25"/>
<text xml:space="preserve" text-anchor="middle" x="486.88" y="-37.95" font-family="Helvetica,sans-Serif" font-size="14.00">B14: Push Stack (Caso False)</text>
<text xml:space="preserve" text-anchor="middle" x="486.88" y="-22.2" font-family="Helvetica,sans-Serif" font-size="14.00">istack[jstack]=j&#45;1;</text>
<text xml:space="preserve" text-anchor="middle" x="486.88" y="-6.45" font-family="Helvetica,sans-Serif" font-size="14.00">...</text>
</g>
<!-- B12&#45;&gt;B14 -->
<g id="edge16" class="edge">
<title>B12&#45;&gt;B14</title>
<path fill="none" stroke="black" d="M313.76,-106.51C342.36,-93.64 382.03,-75.79 416.18,-60.43"/>
<polygon fill="black" stroke="black" points="417.52,-63.66 425.2,-56.37 414.65,-57.28 417.52,-63.66"/>
<text xml:space="preserve" text-anchor="middle" x="403.73" y="-75.7" font-family="Helvetica,sans-Serif" font-size="14.00">False</text>
</g>
<!-- B13&#45;&gt;B2 -->
<g id="edge17" class="edge">
<title>B13&#45;&gt;B2</title>
<path fill="none" stroke="black" d="M370.93,-54.23C396.74,-61.74 418.93,-69.06 423.88,-73.25 443.07,-89.49 448.88,-98.86 448.88,-124 448.88,-643.75 448.88,-643.75 448.88,-643.75 448.88,-658.19 445.33,-673.73 441.3,-686.73"/>
<polygon fill="black" stroke="black" points="438.06,-685.37 438.19,-695.97 444.7,-687.6 438.06,-685.37"/>
</g>
<!-- B14&#45;&gt;B2 -->
<g id="edge18" class="edge">
<title>B14&#45;&gt;B2</title>
<path fill="none" stroke="black" d="M486.88,-55.35C486.88,-74.47 486.88,-100.82 486.88,-124 486.88,-643.75 486.88,-643.75 486.88,-643.75 486.88,-661.39 476.37,-677.29 464.37,-689.7"/>
<polygon fill="black" stroke="black" points="462.29,-686.85 457.47,-696.29 467.12,-691.92 462.29,-686.85"/>
</g>
</g>
</svg>
