<?xml version="1.0" encoding="UTF-8" standalone="no"?>
<!DOCTYPE svg PUBLIC "-//W3C//DTD SVG 1.1//EN"
 "http://www.w3.org/Graphics/SVG/1.1/DTD/svg11.dtd">
<!-- Generated by graphviz version 13.1.2 (20250808.2320)
 -->
<!-- Title: foo_DFG Pages: 1 -->
<svg width="444pt" height="260pt"
 viewBox="0.00 0.00 444.00 260.00" xmlns="http://www.w3.org/2000/svg" xmlns:xlink="http://www.w3.org/1999/xlink">
<g id="graph0" class="graph" transform="scale(1 1) rotate(0) translate(4 256)">
<title>foo_DFG</title>
<polygon fill="white" stroke="none" points="-4,4 -4,-256 439.83,-256 439.83,4 -4,4"/>
<!-- x -->
<g id="node1" class="node">
<title>x</title>
<ellipse fill="lightblue" stroke="black" cx="56.81" cy="-162" rx="27" ry="18"/>
<text xml:space="preserve" text-anchor="middle" x="56.81" y="-156.95" font-family="Times New Roman,serif" font-size="14.00">x</text>
</g>
<!-- compare -->
<g id="node10" class="node">
<title>compare</title>
<polygon fill="none" stroke="black" points="117.81,-108 63.81,-108 63.81,-72 117.81,-72 117.81,-108"/>
<text xml:space="preserve" text-anchor="middle" x="90.81" y="-84.95" font-family="Times New Roman,serif" font-size="14.00">==</text>
</g>
<!-- x&#45;&gt;compare -->
<g id="edge1" class="edge">
<title>x&#45;&gt;compare</title>
<path fill="none" stroke="black" d="M64.87,-144.41C68.61,-136.71 73.16,-127.34 77.39,-118.62"/>
<polygon fill="black" stroke="black" points="80.45,-120.33 81.67,-109.81 74.16,-117.27 80.45,-120.33"/>
</g>
<!-- keys_array -->
<g id="node2" class="node">
<title>keys_array</title>
<ellipse fill="lightblue" stroke="black" cx="27.81" cy="-234" rx="27.81" ry="18"/>
<text xml:space="preserve" text-anchor="middle" x="27.81" y="-228.95" font-family="Times New Roman,serif" font-size="14.00">keys</text>
</g>
<!-- access_keys -->
<g id="node8" class="node">
<title>access_keys</title>
<polygon fill="none" stroke="black" points="196.18,-180 101.43,-180 101.43,-144 196.18,-144 196.18,-180"/>
<text xml:space="preserve" text-anchor="middle" x="148.81" y="-156.95" font-family="Times New Roman,serif" font-size="14.00">keys[i][j][k][l]</text>
</g>
<!-- keys_array&#45;&gt;access_keys -->
<g id="edge2" class="edge">
<title>keys_array&#45;&gt;access_keys</title>
<path fill="none" stroke="black" d="M48.06,-221.28C64.71,-211.65 88.81,-197.71 109.26,-185.88"/>
<polygon fill="black" stroke="black" points="110.74,-189.06 117.65,-181.03 107.24,-183.01 110.74,-189.06"/>
</g>
<!-- answer_array -->
<g id="node3" class="node">
<title>answer_array</title>
<ellipse fill="lightblue" stroke="black" cx="398.81" cy="-234" rx="37.02" ry="18"/>
<text xml:space="preserve" text-anchor="middle" x="398.81" y="-228.95" font-family="Times New Roman,serif" font-size="14.00">answer</text>
</g>
<!-- access_answer -->
<g id="node9" class="node">
<title>access_answer</title>
<polygon fill="none" stroke="black" points="322.93,-180 214.68,-180 214.68,-144 322.93,-144 322.93,-180"/>
<text xml:space="preserve" text-anchor="middle" x="268.81" y="-156.95" font-family="Times New Roman,serif" font-size="14.00">answer[i][j][k][l]</text>
</g>
<!-- answer_array&#45;&gt;access_answer -->
<g id="edge10" class="edge">
<title>answer_array&#45;&gt;access_answer</title>
<path fill="none" stroke="black" d="M374.66,-220C356.87,-210.42 332.2,-197.13 311.16,-185.8"/>
<polygon fill="black" stroke="black" points="312.96,-182.8 302.5,-181.14 309.64,-188.96 312.96,-182.8"/>
</g>
<!-- i -->
<g id="node4" class="node">
<title>i</title>
<ellipse fill="lightblue" stroke="black" cx="100.81" cy="-234" rx="27" ry="18"/>
<text xml:space="preserve" text-anchor="middle" x="100.81" y="-228.95" font-family="Times New Roman,serif" font-size="14.00">i</text>
</g>
<!-- i&#45;&gt;access_keys -->
<g id="edge3" class="edge">
<title>i&#45;&gt;access_keys</title>
<path fill="none" stroke="black" d="M111.7,-217.12C117.28,-208.97 124.23,-198.84 130.6,-189.55"/>
<polygon fill="black" stroke="black" points="133.33,-191.77 136.09,-181.54 127.55,-187.81 133.33,-191.77"/>
</g>
<!-- i&#45;&gt;access_answer -->
<g id="edge11" class="edge">
<title>i&#45;&gt;access_answer</title>
<path fill="none" stroke="black" d="M122.03,-222.72C126.87,-220.45 131.99,-218.1 136.81,-216 161.54,-205.21 189.21,-193.97 212.8,-184.64"/>
<polygon fill="black" stroke="black" points="213.89,-187.97 221.92,-181.05 211.33,-181.46 213.89,-187.97"/>
</g>
<!-- j -->
<g id="node5" class="node">
<title>j</title>
<ellipse fill="lightblue" stroke="black" cx="172.81" cy="-234" rx="27" ry="18"/>
<text xml:space="preserve" text-anchor="middle" x="172.81" y="-228.95" font-family="Times New Roman,serif" font-size="14.00">j</text>
</g>
<!-- j&#45;&gt;access_keys -->
<g id="edge4" class="edge">
<title>j&#45;&gt;access_keys</title>
<path fill="none" stroke="black" d="M167,-216.05C164.41,-208.52 161.3,-199.44 158.39,-190.94"/>
<polygon fill="black" stroke="black" points="161.78,-190.03 155.22,-181.71 155.15,-192.3 161.78,-190.03"/>
</g>
<!-- j&#45;&gt;access_answer -->
<g id="edge12" class="edge">
<title>j&#45;&gt;access_answer</title>
<path fill="none" stroke="black" d="M190.42,-220.16C203.15,-210.88 220.72,-198.06 236.01,-186.92"/>
<polygon fill="black" stroke="black" points="237.92,-189.85 243.94,-181.13 233.8,-184.2 237.92,-189.85"/>
</g>
<!-- k -->
<g id="node6" class="node">
<title>k</title>
<ellipse fill="lightblue" stroke="black" cx="244.81" cy="-234" rx="27" ry="18"/>
<text xml:space="preserve" text-anchor="middle" x="244.81" y="-228.95" font-family="Times New Roman,serif" font-size="14.00">k</text>
</g>
<!-- k&#45;&gt;access_keys -->
<g id="edge5" class="edge">
<title>k&#45;&gt;access_keys</title>
<path fill="none" stroke="black" d="M227.2,-220.16C214.47,-210.88 196.89,-198.06 181.61,-186.92"/>
<polygon fill="black" stroke="black" points="183.82,-184.2 173.68,-181.13 179.69,-189.85 183.82,-184.2"/>
</g>
<!-- k&#45;&gt;access_answer -->
<g id="edge13" class="edge">
<title>k&#45;&gt;access_answer</title>
<path fill="none" stroke="black" d="M250.62,-216.05C253.2,-208.52 256.32,-199.44 259.23,-190.94"/>
<polygon fill="black" stroke="black" points="262.46,-192.3 262.39,-181.71 255.84,-190.03 262.46,-192.3"/>
</g>
<!-- l -->
<g id="node7" class="node">
<title>l</title>
<ellipse fill="lightblue" stroke="black" cx="316.81" cy="-234" rx="27" ry="18"/>
<text xml:space="preserve" text-anchor="middle" x="316.81" y="-228.95" font-family="Times New Roman,serif" font-size="14.00">l</text>
</g>
<!-- l&#45;&gt;access_keys -->
<g id="edge6" class="edge">
<title>l&#45;&gt;access_keys</title>
<path fill="none" stroke="black" d="M295.58,-222.72C290.75,-220.45 285.62,-218.1 280.81,-216 256.08,-205.21 228.41,-193.97 204.82,-184.64"/>
<polygon fill="black" stroke="black" points="206.29,-181.46 195.7,-181.05 203.72,-187.97 206.29,-181.46"/>
</g>
<!-- l&#45;&gt;access_answer -->
<g id="edge14" class="edge">
<title>l&#45;&gt;access_answer</title>
<path fill="none" stroke="black" d="M305.92,-217.12C300.33,-208.97 293.38,-198.84 287.01,-189.55"/>
<polygon fill="black" stroke="black" points="290.06,-187.81 281.52,-181.54 284.29,-191.77 290.06,-187.81"/>
</g>
<!-- access_keys&#45;&gt;compare -->
<g id="edge7" class="edge">
<title>access_keys&#45;&gt;compare</title>
<path fill="none" stroke="black" d="M134.47,-143.7C127.73,-135.56 119.55,-125.69 112.1,-116.7"/>
<polygon fill="black" stroke="black" points="115.02,-114.74 105.95,-109.27 109.63,-119.2 115.02,-114.74"/>
</g>
<!-- add -->
<g id="node11" class="node">
<title>add</title>
<polygon fill="none" stroke="black" points="278.81,-108 224.81,-108 224.81,-72 278.81,-72 278.81,-108"/>
<text xml:space="preserve" text-anchor="middle" x="251.81" y="-84.95" font-family="Times New Roman,serif" font-size="14.00">+</text>
</g>
<!-- access_keys&#45;&gt;add -->
<g id="edge9" class="edge">
<title>access_keys&#45;&gt;add</title>
<path fill="none" stroke="black" d="M174.53,-143.52C187.41,-134.76 203.19,-124.04 217.12,-114.58"/>
<polygon fill="black" stroke="black" points="218.86,-117.63 225.16,-109.11 214.92,-111.84 218.86,-117.63"/>
</g>
<!-- access_answer&#45;&gt;add -->
<g id="edge15" class="edge">
<title>access_answer&#45;&gt;add</title>
<path fill="none" stroke="black" d="M264.61,-143.7C262.81,-136.32 260.68,-127.52 258.67,-119.25"/>
<polygon fill="black" stroke="black" points="262.08,-118.47 256.32,-109.58 255.28,-120.12 262.08,-118.47"/>
</g>
<!-- condition -->
<g id="node12" class="node">
<title>condition</title>
<polygon fill="none" stroke="black" points="90.81,-36 23.25,-18 90.81,0 158.36,-18 90.81,-36"/>
<text xml:space="preserve" text-anchor="middle" x="90.81" y="-12.95" font-family="Times New Roman,serif" font-size="14.00">Condition</text>
</g>
<!-- compare&#45;&gt;condition -->
<g id="edge8" class="edge">
<title>compare&#45;&gt;condition</title>
<path fill="none" stroke="black" d="M90.81,-71.7C90.81,-64.41 90.81,-55.73 90.81,-47.54"/>
<polygon fill="black" stroke="black" points="94.31,-47.62 90.81,-37.62 87.31,-47.62 94.31,-47.62"/>
</g>
<!-- return_val -->
<g id="node13" class="node">
<title>return_val</title>
<ellipse fill="lightgreen" stroke="black" cx="251.81" cy="-18" rx="58.52" ry="18"/>
<text xml:space="preserve" text-anchor="middle" x="251.81" y="-12.95" font-family="Times New Roman,serif" font-size="14.00">Return value</text>
</g>
<!-- add&#45;&gt;return_val -->
<g id="edge16" class="edge">
<title>add&#45;&gt;return_val</title>
<path fill="none" stroke="black" d="M251.81,-71.7C251.81,-64.41 251.81,-55.73 251.81,-47.54"/>
<polygon fill="black" stroke="black" points="255.31,-47.62 251.81,-37.62 248.31,-47.62 255.31,-47.62"/>
</g>
</g>
</svg>
