<?xml version="1.0" encoding="UTF-8" standalone="no"?>
<!DOCTYPE svg PUBLIC "-//W3C//DTD SVG 1.1//EN"
 "http://www.w3.org/Graphics/SVG/1.1/DTD/svg11.dtd">
<!-- Generated by graphviz version 13.1.2 (20250808.2320)
 -->
<!-- Title: CFG Pages: 1 -->
<svg width="811pt" height="940pt"
 viewBox="0.00 0.00 811.00 940.00" xmlns="http://www.w3.org/2000/svg" xmlns:xlink="http://www.w3.org/1999/xlink">
<g id="graph0" class="graph" transform="scale(1 1) rotate(0) translate(4 936)">
<title>CFG</title>
<polygon fill="white" stroke="none" points="-4,4 -4,-936 807.12,-936 807.12,4 -4,4"/>
<!-- entry -->
<g id="node1" class="node">
<title>entry</title>
<polygon fill="none" stroke="black" points="688.75,-932 587.25,-932 587.25,-896 688.75,-896 688.75,-932"/>
<text xml:space="preserve" text-anchor="middle" x="638" y="-908.95" font-family="Times New Roman,serif" font-size="14.00">Entrada: sort(n)</text>
</g>
<!-- BB0 -->
<g id="node3" class="node">
<title>BB0</title>
<polygon fill="none" stroke="black" points="803.12,-859 472.88,-859 472.88,-823 803.12,-823 803.12,-859"/>
<text xml:space="preserve" text-anchor="middle" x="638" y="-835.95" font-family="Times New Roman,serif" font-size="14.00">Inicializacoes: i, ir=n, j, k, l=1, jstack=0, flag=0, a, temp</text>
</g>
<!-- entry&#45;&gt;BB0 -->
<g id="edge1" class="edge">
<title>entry&#45;&gt;BB0</title>
<path fill="none" stroke="black" d="M638,-895.81C638,-888.23 638,-879.1 638,-870.54"/>
<polygon fill="black" stroke="black" points="641.5,-870.54 638,-860.54 634.5,-870.54 641.5,-870.54"/>
</g>
<!-- exit -->
<g id="node2" class="node">
<title>exit</title>
<polygon fill="none" stroke="black" points="414,-124.5 360,-124.5 360,-88.5 414,-88.5 414,-124.5"/>
<text xml:space="preserve" text-anchor="middle" x="387" y="-101.45" font-family="Times New Roman,serif" font-size="14.00">Saida</text>
</g>
<!-- BB1 -->
<g id="node4" class="node">
<title>BB1</title>
<polygon fill="none" stroke="black" points="707.88,-786 568.12,-786 568.12,-750 707.88,-750 707.88,-786"/>
<text xml:space="preserve" text-anchor="middle" x="638" y="-762.95" font-family="Times New Roman,serif" font-size="14.00">Loop principal: for (;;)</text>
</g>
<!-- BB0&#45;&gt;BB1 -->
<g id="edge2" class="edge">
<title>BB0&#45;&gt;BB1</title>
<path fill="none" stroke="black" d="M638,-822.81C638,-815.23 638,-806.1 638,-797.54"/>
<polygon fill="black" stroke="black" points="641.5,-797.54 638,-787.54 634.5,-797.54 641.5,-797.54"/>
</g>
<!-- BB2 -->
<g id="node5" class="node">
<title>BB2</title>
<polygon fill="none" stroke="black" points="591.75,-713 502.25,-713 502.25,-677 591.75,-677 591.75,-713"/>
<text xml:space="preserve" text-anchor="middle" x="547" y="-689.95" font-family="Times New Roman,serif" font-size="14.00">if (ir &#45; l &lt; M)</text>
</g>
<!-- BB1&#45;&gt;BB2 -->
<g id="edge3" class="edge">
<title>BB1&#45;&gt;BB2</title>
<path fill="none" stroke="black" d="M615.97,-749.81C604.54,-740.9 590.39,-729.86 577.89,-720.1"/>
<polygon fill="black" stroke="black" points="580.37,-717.6 570.33,-714.21 576.07,-723.12 580.37,-717.6"/>
</g>
<!-- BB3 -->
<g id="node6" class="node">
<title>BB3</title>
<polygon fill="none" stroke="black" points="627,-624.5 467,-624.5 467,-588.5 627,-588.5 627,-624.5"/>
<text xml:space="preserve" text-anchor="middle" x="547" y="-601.45" font-family="Times New Roman,serif" font-size="14.00">Insertion sort: j = l+1 to ir</text>
</g>
<!-- BB2&#45;&gt;BB3 -->
<g id="edge4" class="edge">
<title>BB2&#45;&gt;BB3</title>
<path fill="none" stroke="black" d="M547,-676.91C547,-665.26 547,-649.55 547,-636.02"/>
<polygon fill="black" stroke="black" points="550.5,-636.36 547,-626.36 543.5,-636.36 550.5,-636.36"/>
<text xml:space="preserve" text-anchor="middle" x="576.62" y="-645.7" font-family="Times New Roman,serif" font-size="14.00">Verdadeiro</text>
</g>
<!-- BB11 -->
<g id="node14" class="node">
<title>BB11</title>
<polygon fill="none" stroke="black" points="440.88,-624.5 109.12,-624.5 109.12,-588.5 440.88,-588.5 440.88,-624.5"/>
<text xml:space="preserve" text-anchor="middle" x="275" y="-601.45" font-family="Times New Roman,serif" font-size="14.00">Quicksort: k = (l+ir)&gt;&gt;1; SWAPs; i=l+1; j=ir; a=arr[l+1]</text>
</g>
<!-- BB2&#45;&gt;BB11 -->
<g id="edge5" class="edge">
<title>BB2&#45;&gt;BB11</title>
<path fill="none" stroke="black" d="M501.78,-679.62C457.73,-665.61 390.29,-644.17 340.4,-628.3"/>
<polygon fill="black" stroke="black" points="341.75,-625.05 331.16,-625.36 339.63,-631.73 341.75,-625.05"/>
<text xml:space="preserve" text-anchor="middle" x="449.99" y="-645.7" font-family="Times New Roman,serif" font-size="14.00">Falso</text>
</g>
<!-- BB4 -->
<g id="node7" class="node">
<title>BB4</title>
<polygon fill="none" stroke="black" points="532.75,-551.5 425.25,-551.5 425.25,-515.5 532.75,-515.5 532.75,-551.5"/>
<text xml:space="preserve" text-anchor="middle" x="479" y="-528.45" font-family="Times New Roman,serif" font-size="14.00">a = arr[j]; i = j&#45;1</text>
</g>
<!-- BB3&#45;&gt;BB4 -->
<g id="edge6" class="edge">
<title>BB3&#45;&gt;BB4</title>
<path fill="none" stroke="black" d="M530.54,-588.31C522.35,-579.77 512.3,-569.27 503.25,-559.82"/>
<polygon fill="black" stroke="black" points="505.8,-557.42 496.36,-552.62 500.75,-562.26 505.8,-557.42"/>
</g>
<!-- BB5 -->
<g id="node8" class="node">
<title>BB5</title>
<polygon fill="none" stroke="black" points="526.75,-478.5 401.25,-478.5 401.25,-442.5 526.75,-442.5 526.75,-478.5"/>
<text xml:space="preserve" text-anchor="middle" x="464" y="-455.45" font-family="Times New Roman,serif" font-size="14.00">Loop interno: i &gt;= l</text>
</g>
<!-- BB4&#45;&gt;BB5 -->
<g id="edge7" class="edge">
<title>BB4&#45;&gt;BB5</title>
<path fill="none" stroke="black" d="M475.37,-515.31C473.75,-507.64 471.79,-498.39 469.97,-489.74"/>
<polygon fill="black" stroke="black" points="473.4,-489.07 467.91,-480.01 466.55,-490.52 473.4,-489.07"/>
</g>
<!-- BB6 -->
<g id="node9" class="node">
<title>BB6</title>
<polygon fill="none" stroke="black" points="501.25,-390 372.75,-390 372.75,-354 501.25,-354 501.25,-390"/>
<text xml:space="preserve" text-anchor="middle" x="437" y="-366.95" font-family="Times New Roman,serif" font-size="14.00">if (arr[i] &lt;= a) break</text>
</g>
<!-- BB5&#45;&gt;BB6 -->
<g id="edge8" class="edge">
<title>BB5&#45;&gt;BB6</title>
<path fill="none" stroke="black" d="M458.67,-442.41C454.99,-430.64 450.03,-414.73 445.77,-401.11"/>
<polygon fill="black" stroke="black" points="449.19,-400.3 442.87,-391.79 442.51,-402.38 449.19,-400.3"/>
<text xml:space="preserve" text-anchor="middle" x="464.92" y="-411.2" font-family="Times New Roman,serif" font-size="14.00">i&gt;=l</text>
</g>
<!-- BB8 -->
<g id="node11" class="node">
<title>BB8</title>
<polygon fill="none" stroke="black" points="591.12,-301.5 482.88,-301.5 482.88,-265.5 591.12,-265.5 591.12,-301.5"/>
<text xml:space="preserve" text-anchor="middle" x="537" y="-278.45" font-family="Times New Roman,serif" font-size="14.00">arr[i+1] = a; j++</text>
</g>
<!-- BB5&#45;&gt;BB8 -->
<g id="edge9" class="edge">
<title>BB5&#45;&gt;BB8</title>
<path fill="none" stroke="black" d="M477.86,-442.17C488.05,-428.65 501.55,-409.05 510,-390 521.06,-365.07 528.23,-334.73 532.38,-312.99"/>
<polygon fill="black" stroke="black" points="535.79,-313.85 534.11,-303.38 528.9,-312.61 535.79,-313.85"/>
<text xml:space="preserve" text-anchor="middle" x="530.6" y="-366.95" font-family="Times New Roman,serif" font-size="14.00">i&lt;l</text>
</g>
<!-- BB7 -->
<g id="node10" class="node">
<title>BB7</title>
<polygon fill="none" stroke="black" points="435.25,-301.5 312.75,-301.5 312.75,-265.5 435.25,-265.5 435.25,-301.5"/>
<text xml:space="preserve" text-anchor="middle" x="374" y="-278.45" font-family="Times New Roman,serif" font-size="14.00">arr[i+1] = arr[i]; i&#45;&#45;</text>
</g>
<!-- BB6&#45;&gt;BB7 -->
<g id="edge10" class="edge">
<title>BB6&#45;&gt;BB7</title>
<path fill="none" stroke="black" d="M415.3,-353.78C409.47,-348.48 403.47,-342.36 398.75,-336 393.38,-328.77 388.71,-320.2 384.91,-312.14"/>
<polygon fill="black" stroke="black" points="388.14,-310.78 380.91,-303.03 381.73,-313.59 388.14,-310.78"/>
<text xml:space="preserve" text-anchor="middle" x="413.38" y="-322.7" font-family="Times New Roman,serif" font-size="14.00">Falso</text>
</g>
<!-- BB6&#45;&gt;BB8 -->
<g id="edge11" class="edge">
<title>BB6&#45;&gt;BB8</title>
<path fill="none" stroke="black" d="M442.63,-353.94C446.97,-342.97 453.9,-329.03 463.75,-319.5 468.42,-314.98 473.79,-310.95 479.45,-307.39"/>
<polygon fill="black" stroke="black" points="480.92,-310.58 487.86,-302.57 477.45,-304.5 480.92,-310.58"/>
<text xml:space="preserve" text-anchor="middle" x="493.38" y="-322.7" font-family="Times New Roman,serif" font-size="14.00">Verdadeiro</text>
</g>
<!-- BB7&#45;&gt;BB5 -->
<g id="edge12" class="edge">
<title>BB7&#45;&gt;BB5</title>
<path fill="none" stroke="black" d="M366.88,-301.68C359,-323.53 349.25,-361.79 364,-390 374.42,-409.93 393.45,-425.3 412.13,-436.45"/>
<polygon fill="black" stroke="black" points="410.37,-439.48 420.8,-441.32 413.79,-433.37 410.37,-439.48"/>
</g>
<!-- BB8&#45;&gt;BB3 -->
<g id="edge13" class="edge">
<title>BB8&#45;&gt;BB3</title>
<path fill="none" stroke="black" d="M551.9,-301.75C564.66,-318.35 581,-344.72 581,-371 581,-534.5 581,-534.5 581,-534.5 581,-550.14 574.21,-565.98 566.7,-578.72"/>
<polygon fill="black" stroke="black" points="563.88,-576.62 561.45,-586.93 569.78,-580.39 563.88,-576.62"/>
<text xml:space="preserve" text-anchor="middle" x="608.38" y="-455.45" font-family="Times New Roman,serif" font-size="14.00">Proximo j</text>
</g>
<!-- BB9 -->
<g id="node12" class="node">
<title>BB9</title>
<polygon fill="none" stroke="black" points="605.38,-213 468.62,-213 468.62,-177 605.38,-177 605.38,-213"/>
<text xml:space="preserve" text-anchor="middle" x="537" y="-189.95" font-family="Times New Roman,serif" font-size="14.00">if (jstack == 0) break;</text>
</g>
<!-- BB8&#45;&gt;BB9 -->
<g id="edge14" class="edge">
<title>BB8&#45;&gt;BB9</title>
<path fill="none" stroke="black" d="M537,-265.41C537,-253.76 537,-238.05 537,-224.52"/>
<polygon fill="black" stroke="black" points="540.5,-224.86 537,-214.86 533.5,-224.86 540.5,-224.86"/>
<text xml:space="preserve" text-anchor="middle" x="574.5" y="-234.2" font-family="Times New Roman,serif" font-size="14.00">Fim do loop j</text>
</g>
<!-- BB9&#45;&gt;exit -->
<g id="edge15" class="edge">
<title>BB9&#45;&gt;exit</title>
<path fill="none" stroke="black" d="M507.01,-176.7C483.16,-162.95 449.67,-143.64 424.13,-128.91"/>
<polygon fill="black" stroke="black" points="426.14,-126.03 415.73,-124.07 422.64,-132.09 426.14,-126.03"/>
<text xml:space="preserve" text-anchor="middle" x="505.06" y="-145.7" font-family="Times New Roman,serif" font-size="14.00">Verdadeiro</text>
</g>
<!-- BB10 -->
<g id="node13" class="node">
<title>BB10</title>
<polygon fill="none" stroke="black" points="689.75,-124.5 432.25,-124.5 432.25,-88.5 689.75,-88.5 689.75,-124.5"/>
<text xml:space="preserve" text-anchor="middle" x="561" y="-101.45" font-family="Times New Roman,serif" font-size="14.00">Pop: ir = istack[jstack&#45;&#45;]; l = istack[jstack&#45;&#45;]</text>
</g>
<!-- BB9&#45;&gt;BB10 -->
<g id="edge16" class="edge">
<title>BB9&#45;&gt;BB10</title>
<path fill="none" stroke="black" d="M541.74,-176.91C545.01,-165.14 549.42,-149.23 553.2,-135.61"/>
<polygon fill="black" stroke="black" points="556.48,-136.88 555.78,-126.31 549.74,-135.01 556.48,-136.88"/>
<text xml:space="preserve" text-anchor="middle" x="565.77" y="-145.7" font-family="Times New Roman,serif" font-size="14.00">Falso</text>
</g>
<!-- BB10&#45;&gt;BB1 -->
<g id="edge17" class="edge">
<title>BB10&#45;&gt;BB1</title>
<path fill="none" stroke="black" d="M605.88,-124.85C633.63,-138.83 664,-161.54 664,-194 664,-696 664,-696 664,-696 664,-710.97 658.84,-726.7 653.11,-739.53"/>
<polygon fill="black" stroke="black" points="650.13,-737.66 648.93,-748.19 656.43,-740.71 650.13,-737.66"/>
</g>
<!-- BB12 -->
<g id="node15" class="node">
<title>BB12</title>
<polygon fill="none" stroke="black" points="316,-551.5 186,-551.5 186,-515.5 316,-515.5 316,-551.5"/>
<text xml:space="preserve" text-anchor="middle" x="251" y="-528.45" font-family="Times New Roman,serif" font-size="14.00">Loop interno: for (;;)</text>
</g>
<!-- BB11&#45;&gt;BB12 -->
<g id="edge18" class="edge">
<title>BB11&#45;&gt;BB12</title>
<path fill="none" stroke="black" d="M269.19,-588.31C266.54,-580.46 263.33,-570.97 260.35,-562.16"/>
<polygon fill="black" stroke="black" points="263.76,-561.32 257.24,-552.96 257.13,-563.56 263.76,-561.32"/>
</g>
<!-- BB13 -->
<g id="node16" class="node">
<title>BB13</title>
<polygon fill="none" stroke="black" points="331,-478.5 171,-478.5 171,-442.5 331,-442.5 331,-478.5"/>
<text xml:space="preserve" text-anchor="middle" x="251" y="-455.45" font-family="Times New Roman,serif" font-size="14.00">i++; while (arr[i] &lt; a) i++</text>
</g>
<!-- BB12&#45;&gt;BB13 -->
<g id="edge19" class="edge">
<title>BB12&#45;&gt;BB13</title>
<path fill="none" stroke="black" d="M251,-515.31C251,-507.73 251,-498.6 251,-490.04"/>
<polygon fill="black" stroke="black" points="254.5,-490.04 251,-480.04 247.5,-490.04 254.5,-490.04"/>
</g>
<!-- BB14 -->
<g id="node17" class="node">
<title>BB14</title>
<polygon fill="none" stroke="black" points="316.5,-390 171.5,-390 171.5,-354 316.5,-354 316.5,-390"/>
<text xml:space="preserve" text-anchor="middle" x="244" y="-366.95" font-family="Times New Roman,serif" font-size="14.00">j&#45;&#45;; while (arr[j] &gt; a) j&#45;&#45;</text>
</g>
<!-- BB13&#45;&gt;BB14 -->
<g id="edge20" class="edge">
<title>BB13&#45;&gt;BB14</title>
<path fill="none" stroke="black" d="M249.62,-442.41C248.67,-430.76 247.4,-415.05 246.31,-401.52"/>
<polygon fill="black" stroke="black" points="249.82,-401.54 245.53,-391.86 242.84,-402.11 249.82,-401.54"/>
</g>
<!-- BB15 -->
<g id="node18" class="node">
<title>BB15</title>
<polygon fill="none" stroke="black" points="291,-301.5 197,-301.5 197,-265.5 291,-265.5 291,-301.5"/>
<text xml:space="preserve" text-anchor="middle" x="244" y="-278.45" font-family="Times New Roman,serif" font-size="14.00">if (j &lt; i) break</text>
</g>
<!-- BB14&#45;&gt;BB15 -->
<g id="edge21" class="edge">
<title>BB14&#45;&gt;BB15</title>
<path fill="none" stroke="black" d="M244,-353.91C244,-342.26 244,-326.55 244,-313.02"/>
<polygon fill="black" stroke="black" points="247.5,-313.36 244,-303.36 240.5,-313.36 247.5,-313.36"/>
</g>
<!-- BB16 -->
<g id="node19" class="node">
<title>BB16</title>
<polygon fill="none" stroke="black" points="217.38,-213 92.62,-213 92.62,-177 217.38,-177 217.38,-213"/>
<text xml:space="preserve" text-anchor="middle" x="155" y="-189.95" font-family="Times New Roman,serif" font-size="14.00">SWAP(arr[i], arr[j])</text>
</g>
<!-- BB15&#45;&gt;BB16 -->
<g id="edge23" class="edge">
<title>BB15&#45;&gt;BB16</title>
<path fill="none" stroke="black" d="M226.42,-265.41C213.46,-252.82 195.62,-235.48 181.02,-221.29"/>
<polygon fill="black" stroke="black" points="183.55,-218.86 173.94,-214.41 178.67,-223.88 183.55,-218.86"/>
<text xml:space="preserve" text-anchor="middle" x="222.1" y="-234.2" font-family="Times New Roman,serif" font-size="14.00">Falso</text>
</g>
<!-- BB17 -->
<g id="node20" class="node">
<title>BB17</title>
<polygon fill="none" stroke="black" points="442.25,-213 235.75,-213 235.75,-177 442.25,-177 442.25,-213"/>
<text xml:space="preserve" text-anchor="middle" x="339" y="-189.95" font-family="Times New Roman,serif" font-size="14.00">arr[l+1]=arr[j]; arr[j]=a; jstack+=2</text>
</g>
<!-- BB15&#45;&gt;BB17 -->
<g id="edge22" class="edge">
<title>BB15&#45;&gt;BB17</title>
<path fill="none" stroke="black" d="M262.77,-265.41C276.73,-252.7 296,-235.16 311.67,-220.89"/>
<polygon fill="black" stroke="black" points="313.79,-223.69 318.83,-214.37 309.08,-218.51 313.79,-223.69"/>
<text xml:space="preserve" text-anchor="middle" x="329.63" y="-234.2" font-family="Times New Roman,serif" font-size="14.00">Verdadeiro</text>
</g>
<!-- BB16&#45;&gt;BB12 -->
<g id="edge24" class="edge">
<title>BB16&#45;&gt;BB12</title>
<path fill="none" stroke="black" d="M151.14,-213.46C147.63,-230.86 143,-258.39 143,-282.5 143,-461.5 143,-461.5 143,-461.5 143,-483.58 158.95,-499.17 178.59,-510"/>
<polygon fill="black" stroke="black" points="176.94,-513.09 187.45,-514.42 180.06,-506.82 176.94,-513.09"/>
</g>
<!-- BB18 -->
<g id="node21" class="node">
<title>BB18</title>
<polygon fill="none" stroke="black" points="342.25,-124.5 237.75,-124.5 237.75,-88.5 342.25,-88.5 342.25,-124.5"/>
<text xml:space="preserve" text-anchor="middle" x="290" y="-101.45" font-family="Times New Roman,serif" font-size="14.00">if (ir&#45;i+1 &gt;= j&#45;l)</text>
</g>
<!-- BB17&#45;&gt;BB18 -->
<g id="edge25" class="edge">
<title>BB17&#45;&gt;BB18</title>
<path fill="none" stroke="black" d="M329.32,-176.91C322.52,-164.9 313.28,-148.59 305.46,-134.8"/>
<polygon fill="black" stroke="black" points="308.55,-133.14 300.57,-126.17 302.46,-136.59 308.55,-133.14"/>
</g>
<!-- BB19 -->
<g id="node22" class="node">
<title>BB19</title>
<polygon fill="none" stroke="black" points="280,-36 0,-36 0,0 280,0 280,-36"/>
<text xml:space="preserve" text-anchor="middle" x="140" y="-12.95" font-family="Times New Roman,serif" font-size="14.00">Push: istack[jstack]=ir; istack[jstack&#45;1]=i; ir=j&#45;1</text>
</g>
<!-- BB18&#45;&gt;BB19 -->
<g id="edge26" class="edge">
<title>BB18&#45;&gt;BB19</title>
<path fill="none" stroke="black" d="M260.01,-88.2C237.09,-74.99 205.27,-56.64 180.16,-42.16"/>
<polygon fill="black" stroke="black" points="181.92,-39.13 171.51,-37.17 178.42,-45.2 181.92,-39.13"/>
<text xml:space="preserve" text-anchor="middle" x="258.06" y="-57.2" font-family="Times New Roman,serif" font-size="14.00">Verdadeiro</text>
</g>
<!-- BB20 -->
<g id="node23" class="node">
<title>BB20</title>
<polygon fill="none" stroke="black" points="771.5,-36 500.5,-36 500.5,0 771.5,0 771.5,-36"/>
<text xml:space="preserve" text-anchor="middle" x="636" y="-12.95" font-family="Times New Roman,serif" font-size="14.00">Push: istack[jstack]=j&#45;1; istack[jstack&#45;1]=l; l=i</text>
</g>
<!-- BB18&#45;&gt;BB20 -->
<g id="edge27" class="edge">
<title>BB18&#45;&gt;BB20</title>
<path fill="none" stroke="black" d="M342.54,-90.74C345.4,-89.97 348.23,-89.22 351,-88.5 417.75,-71.06 493.67,-52.62 550.35,-39.12"/>
<polygon fill="black" stroke="black" points="551.03,-42.55 559.95,-36.83 549.41,-35.74 551.03,-42.55"/>
<text xml:space="preserve" text-anchor="middle" x="498.11" y="-57.2" font-family="Times New Roman,serif" font-size="14.00">Falso</text>
</g>
<!-- BB19&#45;&gt;BB1 -->
<g id="edge28" class="edge">
<title>BB19&#45;&gt;BB1</title>
<path fill="none" stroke="black" d="M111.22,-36.49C90.07,-51.77 65,-76.08 65,-105.5 65,-696 65,-696 65,-696 65,-744.95 398.53,-760.53 556.66,-765.17"/>
<polygon fill="black" stroke="black" points="556.13,-768.66 566.23,-765.45 556.33,-761.66 556.13,-768.66"/>
</g>
<!-- BB20&#45;&gt;BB1 -->
<g id="edge29" class="edge">
<title>BB20&#45;&gt;BB1</title>
<path fill="none" stroke="black" d="M668.41,-36.45C691.33,-51.4 718,-75.29 718,-105.5 718,-696 718,-696 718,-696 718,-716.21 703.54,-732.07 686.91,-743.63"/>
<polygon fill="black" stroke="black" points="685.36,-740.46 678.81,-748.79 689.12,-746.37 685.36,-740.46"/>
</g>
</g>
</svg>
