<?xml version="1.0" encoding="UTF-8" standalone="no"?>
<!DOCTYPE svg PUBLIC "-//W3C//DTD SVG 1.1//EN"
 "http://www.w3.org/Graphics/SVG/1.1/DTD/svg11.dtd">
<!-- Generated by graphviz version 13.1.2 (20250808.2320)
 -->
<!-- Title: DFG Pages: 1 -->
<svg width="945pt" height="188pt"
 viewBox="0.00 0.00 945.00 188.00" xmlns="http://www.w3.org/2000/svg" xmlns:xlink="http://www.w3.org/1999/xlink">
<g id="graph0" class="graph" transform="scale(1 1) rotate(0) translate(4 184)">
<title>DFG</title>
<polygon fill="white" stroke="none" points="-4,4 -4,-184 940.5,-184 940.5,4 -4,4"/>
<!-- n -->
<g id="node1" class="node">
<title>n</title>
<polygon fill="none" stroke="black" points="91,-180 0,-180 0,-144 91,-144 91,-180"/>
<text xml:space="preserve" text-anchor="middle" x="45.5" y="-156.95" font-family="Times New Roman,serif" font-size="14.00">n (parametro)</text>
</g>
<!-- ir -->
<g id="node2" class="node">
<title>ir</title>
<polygon fill="none" stroke="black" points="72.5,-108 18.5,-108 18.5,-72 72.5,-72 72.5,-108"/>
<text xml:space="preserve" text-anchor="middle" x="45.5" y="-84.95" font-family="Times New Roman,serif" font-size="14.00">ir = n</text>
</g>
<!-- n&#45;&gt;ir -->
<g id="edge1" class="edge">
<title>n&#45;&gt;ir</title>
<path fill="none" stroke="black" d="M45.5,-143.7C45.5,-136.41 45.5,-127.73 45.5,-119.54"/>
<polygon fill="black" stroke="black" points="49,-119.62 45.5,-109.62 42,-119.62 49,-119.62"/>
</g>
<!-- BB2 -->
<g id="node7" class="node">
<title>BB2</title>
<polygon fill="none" stroke="black" points="108.5,-36 54.5,-36 54.5,0 108.5,0 108.5,-36"/>
<text xml:space="preserve" text-anchor="middle" x="81.5" y="-12.95" font-family="Times New Roman,serif" font-size="14.00">BB2</text>
</g>
<!-- ir&#45;&gt;BB2 -->
<g id="edge2" class="edge">
<title>ir&#45;&gt;BB2</title>
<path fill="none" stroke="black" d="M54.4,-71.7C58.37,-63.98 63.13,-54.71 67.56,-46.11"/>
<polygon fill="black" stroke="black" points="70.55,-47.94 72.01,-37.45 64.33,-44.74 70.55,-47.94"/>
</g>
<!-- l -->
<g id="node3" class="node">
<title>l</title>
<polygon fill="none" stroke="black" points="144.5,-108 90.5,-108 90.5,-72 144.5,-72 144.5,-108"/>
<text xml:space="preserve" text-anchor="middle" x="117.5" y="-84.95" font-family="Times New Roman,serif" font-size="14.00">l = 1</text>
</g>
<!-- l&#45;&gt;BB2 -->
<g id="edge3" class="edge">
<title>l&#45;&gt;BB2</title>
<path fill="none" stroke="black" d="M108.6,-71.7C104.63,-63.98 99.87,-54.71 95.44,-46.11"/>
<polygon fill="black" stroke="black" points="98.67,-44.74 90.99,-37.45 92.45,-47.94 98.67,-44.74"/>
</g>
<!-- jstack -->
<g id="node4" class="node">
<title>jstack</title>
<polygon fill="none" stroke="black" points="296.5,-180 226.5,-180 226.5,-144 296.5,-144 296.5,-180"/>
<text xml:space="preserve" text-anchor="middle" x="261.5" y="-156.95" font-family="Times New Roman,serif" font-size="14.00">jstack = 0</text>
</g>
<!-- BB9 -->
<g id="node14" class="node">
<title>BB9</title>
<polygon fill="none" stroke="black" points="216.5,-108 162.5,-108 162.5,-72 216.5,-72 216.5,-108"/>
<text xml:space="preserve" text-anchor="middle" x="189.5" y="-84.95" font-family="Times New Roman,serif" font-size="14.00">BB9</text>
</g>
<!-- jstack&#45;&gt;BB9 -->
<g id="edge10" class="edge">
<title>jstack&#45;&gt;BB9</title>
<path fill="none" stroke="black" d="M243.7,-143.7C235.22,-135.45 224.91,-125.43 215.57,-116.35"/>
<polygon fill="black" stroke="black" points="218.04,-113.86 208.43,-109.4 213.16,-118.88 218.04,-113.86"/>
</g>
<!-- BB10 -->
<g id="node15" class="node">
<title>BB10</title>
<polygon fill="none" stroke="black" points="360.5,-108 306.5,-108 306.5,-72 360.5,-72 360.5,-108"/>
<text xml:space="preserve" text-anchor="middle" x="333.5" y="-84.95" font-family="Times New Roman,serif" font-size="14.00">BB10</text>
</g>
<!-- jstack&#45;&gt;BB10 -->
<g id="edge11" class="edge">
<title>jstack&#45;&gt;BB10</title>
<path fill="none" stroke="black" d="M279.3,-143.7C287.78,-135.45 298.09,-125.43 307.43,-116.35"/>
<polygon fill="black" stroke="black" points="309.84,-118.88 314.57,-109.4 304.96,-113.86 309.84,-118.88"/>
</g>
<!-- BB17 -->
<g id="node16" class="node">
<title>BB17</title>
<polygon fill="none" stroke="black" points="288.5,-108 234.5,-108 234.5,-72 288.5,-72 288.5,-108"/>
<text xml:space="preserve" text-anchor="middle" x="261.5" y="-84.95" font-family="Times New Roman,serif" font-size="14.00">BB17</text>
</g>
<!-- jstack&#45;&gt;BB17 -->
<g id="edge12" class="edge">
<title>jstack&#45;&gt;BB17</title>
<path fill="none" stroke="black" d="M261.5,-143.7C261.5,-136.41 261.5,-127.73 261.5,-119.54"/>
<polygon fill="black" stroke="black" points="265,-119.62 261.5,-109.62 258,-119.62 265,-119.62"/>
</g>
<!-- arr -->
<g id="node5" class="node">
<title>arr</title>
<polygon fill="none" stroke="black" points="779.5,-180 679.5,-180 679.5,-144 779.5,-144 779.5,-180"/>
<text xml:space="preserve" text-anchor="middle" x="729.5" y="-156.95" font-family="Times New Roman,serif" font-size="14.00">arr[20] (global)</text>
</g>
<!-- BB4 -->
<g id="node8" class="node">
<title>BB4</title>
<polygon fill="none" stroke="black" points="576.5,-108 522.5,-108 522.5,-72 576.5,-72 576.5,-108"/>
<text xml:space="preserve" text-anchor="middle" x="549.5" y="-84.95" font-family="Times New Roman,serif" font-size="14.00">BB4</text>
</g>
<!-- arr&#45;&gt;BB4 -->
<g id="edge4" class="edge">
<title>arr&#45;&gt;BB4</title>
<path fill="none" stroke="black" d="M679.09,-143.68C653.76,-134.7 622.45,-123.17 587.39,-108.64"/>
<polygon fill="black" stroke="black" points="588.88,-105.47 578.3,-104.83 586.17,-111.92 588.88,-105.47"/>
</g>
<!-- BB6 -->
<g id="node9" class="node">
<title>BB6</title>
<polygon fill="none" stroke="black" points="648.5,-108 594.5,-108 594.5,-72 648.5,-72 648.5,-108"/>
<text xml:space="preserve" text-anchor="middle" x="621.5" y="-84.95" font-family="Times New Roman,serif" font-size="14.00">BB6</text>
</g>
<!-- arr&#45;&gt;BB6 -->
<g id="edge5" class="edge">
<title>arr&#45;&gt;BB6</title>
<path fill="none" stroke="black" d="M702.53,-143.52C688.89,-134.68 672.16,-123.84 657.45,-114.3"/>
<polygon fill="black" stroke="black" points="659.7,-111.59 649.4,-109.08 655.89,-117.46 659.7,-111.59"/>
</g>
<!-- BB11 -->
<g id="node10" class="node">
<title>BB11</title>
<polygon fill="none" stroke="black" points="720.5,-108 666.5,-108 666.5,-72 720.5,-72 720.5,-108"/>
<text xml:space="preserve" text-anchor="middle" x="693.5" y="-84.95" font-family="Times New Roman,serif" font-size="14.00">BB11</text>
</g>
<!-- arr&#45;&gt;BB11 -->
<g id="edge6" class="edge">
<title>arr&#45;&gt;BB11</title>
<path fill="none" stroke="black" d="M720.6,-143.7C716.63,-135.98 711.87,-126.71 707.44,-118.11"/>
<polygon fill="black" stroke="black" points="710.67,-116.74 702.99,-109.45 704.45,-119.94 710.67,-116.74"/>
</g>
<!-- BB13 -->
<g id="node11" class="node">
<title>BB13</title>
<polygon fill="none" stroke="black" points="792.5,-108 738.5,-108 738.5,-72 792.5,-72 792.5,-108"/>
<text xml:space="preserve" text-anchor="middle" x="765.5" y="-84.95" font-family="Times New Roman,serif" font-size="14.00">BB13</text>
</g>
<!-- arr&#45;&gt;BB13 -->
<g id="edge7" class="edge">
<title>arr&#45;&gt;BB13</title>
<path fill="none" stroke="black" d="M738.4,-143.7C742.37,-135.98 747.13,-126.71 751.56,-118.11"/>
<polygon fill="black" stroke="black" points="754.55,-119.94 756.01,-109.45 748.33,-116.74 754.55,-119.94"/>
</g>
<!-- BB14 -->
<g id="node12" class="node">
<title>BB14</title>
<polygon fill="none" stroke="black" points="864.5,-108 810.5,-108 810.5,-72 864.5,-72 864.5,-108"/>
<text xml:space="preserve" text-anchor="middle" x="837.5" y="-84.95" font-family="Times New Roman,serif" font-size="14.00">BB14</text>
</g>
<!-- arr&#45;&gt;BB14 -->
<g id="edge8" class="edge">
<title>arr&#45;&gt;BB14</title>
<path fill="none" stroke="black" d="M756.47,-143.52C770.11,-134.68 786.84,-123.84 801.55,-114.3"/>
<polygon fill="black" stroke="black" points="803.11,-117.46 809.6,-109.08 799.3,-111.59 803.11,-117.46"/>
</g>
<!-- BB16 -->
<g id="node13" class="node">
<title>BB16</title>
<polygon fill="none" stroke="black" points="936.5,-108 882.5,-108 882.5,-72 936.5,-72 936.5,-108"/>
<text xml:space="preserve" text-anchor="middle" x="909.5" y="-84.95" font-family="Times New Roman,serif" font-size="14.00">BB16</text>
</g>
<!-- arr&#45;&gt;BB16 -->
<g id="edge9" class="edge">
<title>arr&#45;&gt;BB16</title>
<path fill="none" stroke="black" d="M779.91,-143.68C805.24,-134.7 836.55,-123.17 871.61,-108.64"/>
<polygon fill="black" stroke="black" points="872.83,-111.92 880.7,-104.83 870.12,-105.47 872.83,-111.92"/>
</g>
<!-- istack -->
<g id="node6" class="node">
<title>istack</title>
<polygon fill="none" stroke="black" points="467.12,-180 343.88,-180 343.88,-144 467.12,-144 467.12,-180"/>
<text xml:space="preserve" text-anchor="middle" x="405.5" y="-156.95" font-family="Times New Roman,serif" font-size="14.00">istack[100] (global)</text>
</g>
<!-- istack&#45;&gt;BB10 -->
<g id="edge13" class="edge">
<title>istack&#45;&gt;BB10</title>
<path fill="none" stroke="black" d="M387.7,-143.7C379.22,-135.45 368.91,-125.43 359.57,-116.35"/>
<polygon fill="black" stroke="black" points="362.04,-113.86 352.43,-109.4 357.16,-118.88 362.04,-113.86"/>
</g>
<!-- BB19 -->
<g id="node17" class="node">
<title>BB19</title>
<polygon fill="none" stroke="black" points="432.5,-108 378.5,-108 378.5,-72 432.5,-72 432.5,-108"/>
<text xml:space="preserve" text-anchor="middle" x="405.5" y="-84.95" font-family="Times New Roman,serif" font-size="14.00">BB19</text>
</g>
<!-- istack&#45;&gt;BB19 -->
<g id="edge14" class="edge">
<title>istack&#45;&gt;BB19</title>
<path fill="none" stroke="black" d="M405.5,-143.7C405.5,-136.41 405.5,-127.73 405.5,-119.54"/>
<polygon fill="black" stroke="black" points="409,-119.62 405.5,-109.62 402,-119.62 409,-119.62"/>
</g>
<!-- BB20 -->
<g id="node18" class="node">
<title>BB20</title>
<polygon fill="none" stroke="black" points="504.5,-108 450.5,-108 450.5,-72 504.5,-72 504.5,-108"/>
<text xml:space="preserve" text-anchor="middle" x="477.5" y="-84.95" font-family="Times New Roman,serif" font-size="14.00">BB20</text>
</g>
<!-- istack&#45;&gt;BB20 -->
<g id="edge15" class="edge">
<title>istack&#45;&gt;BB20</title>
<path fill="none" stroke="black" d="M423.3,-143.7C431.78,-135.45 442.09,-125.43 451.43,-116.35"/>
<polygon fill="black" stroke="black" points="453.84,-118.88 458.57,-109.4 448.96,-113.86 453.84,-118.88"/>
</g>
</g>
</svg>
