<?xml version="1.0" encoding="UTF-8" standalone="no"?>
<!DOCTYPE svg PUBLIC "-//W3C//DTD SVG 1.1//EN"
 "http://www.w3.org/Graphics/SVG/1.1/DTD/svg11.dtd">
<!-- Generated by graphviz version 13.1.2 (20250808.2320)
 -->
<!-- Title: foo Pages: 1 -->
<svg width="634pt" height="1006pt"
 viewBox="0.00 0.00 634.00 1006.00" xmlns="http://www.w3.org/2000/svg" xmlns:xlink="http://www.w3.org/1999/xlink">
<g id="graph0" class="graph" transform="scale(1 1) rotate(0) translate(4 1001.5)">
<title>foo</title>
<polygon fill="white" stroke="none" points="-4,4 -4,-1001.5 629.88,-1001.5 629.88,4 -4,4"/>
<!-- start -->
<g id="node1" class="node">
<title>start</title>
<ellipse fill="none" stroke="black" cx="517.25" cy="-979.5" rx="47.26" ry="18"/>
<text xml:space="preserve" text-anchor="middle" x="517.25" y="-974.45" font-family="Times New Roman,serif" font-size="14.00">Inicio foo</text>
</g>
<!-- block1 -->
<g id="node3" class="node">
<title>block1</title>
<polygon fill="none" stroke="black" points="550,-924.5 484.5,-924.5 484.5,-888.5 550,-888.5 550,-924.5"/>
<text xml:space="preserve" text-anchor="middle" x="517.25" y="-901.45" font-family="Times New Roman,serif" font-size="14.00">B1: i = 0</text>
<text xml:space="preserve" text-anchor="middle" x="470.25" y="-927.7" font-family="Times New Roman,serif" font-size="14.00">def: i</text>
</g>
<!-- start&#45;&gt;block1 -->
<g id="edge1" class="edge">
<title>start&#45;&gt;block1</title>
<path fill="none" stroke="black" d="M517.25,-961.31C517.25,-953.73 517.25,-944.6 517.25,-936.04"/>
<polygon fill="black" stroke="black" points="520.75,-936.04 517.25,-926.04 513.75,-936.04 520.75,-936.04"/>
</g>
<!-- end -->
<g id="node2" class="node">
<title>end</title>
<ellipse fill="none" stroke="black" cx="469.25" cy="-18" rx="41.12" ry="18"/>
<text xml:space="preserve" text-anchor="middle" x="469.25" y="-12.95" font-family="Times New Roman,serif" font-size="14.00">Fim foo</text>
</g>
<!-- block2 -->
<g id="node4" class="node">
<title>block2</title>
<polygon fill="none" stroke="black" points="517.25,-851.5 454.04,-833.5 517.25,-815.5 580.46,-833.5 517.25,-851.5"/>
<text xml:space="preserve" text-anchor="middle" x="517.25" y="-828.45" font-family="Times New Roman,serif" font-size="14.00">B2: i &lt; 5</text>
<text xml:space="preserve" text-anchor="middle" x="433.79" y="-854.7" font-family="Times New Roman,serif" font-size="14.00">p&#45;use: i</text>
</g>
<!-- block1&#45;&gt;block2 -->
<g id="edge2" class="edge">
<title>block1&#45;&gt;block2</title>
<path fill="none" stroke="black" d="M517.25,-888.31C517.25,-880.73 517.25,-871.6 517.25,-863.04"/>
<polygon fill="black" stroke="black" points="520.75,-863.04 517.25,-853.04 513.75,-863.04 520.75,-863.04"/>
</g>
<!-- block3 -->
<g id="node5" class="node">
<title>block3</title>
<polygon fill="none" stroke="black" points="481,-763 415.5,-763 415.5,-727 481,-727 481,-763"/>
<text xml:space="preserve" text-anchor="middle" x="448.25" y="-739.95" font-family="Times New Roman,serif" font-size="14.00">B3: j = 0</text>
<text xml:space="preserve" text-anchor="middle" x="401.25" y="-766.2" font-family="Times New Roman,serif" font-size="14.00">def: j</text>
</g>
<!-- block2&#45;&gt;block3 -->
<g id="edge3" class="edge">
<title>block2&#45;&gt;block3</title>
<path fill="none" stroke="black" d="M500.75,-819.94C493.2,-813.7 484.46,-805.74 477.75,-797.5 471.71,-790.08 466.18,-781.27 461.57,-773.06"/>
<polygon fill="black" stroke="black" points="464.78,-771.63 456.98,-764.45 458.6,-774.92 464.78,-771.63"/>
<text xml:space="preserve" text-anchor="middle" x="490.5" y="-784.2" font-family="Times New Roman,serif" font-size="14.00">True</text>
</g>
<!-- block15 -->
<g id="node17" class="node">
<title>block15</title>
<polygon fill="none" stroke="black" points="625.88,-709 532.62,-709 532.62,-673 625.88,-673 625.88,-709"/>
<text xml:space="preserve" text-anchor="middle" x="579.25" y="-685.95" font-family="Times New Roman,serif" font-size="14.00">B15: return &#45;1</text>
</g>
<!-- block2&#45;&gt;block15 -->
<g id="edge4" class="edge">
<title>block2&#45;&gt;block15</title>
<path fill="none" stroke="black" d="M524,-817.2C534.3,-793.86 554.09,-749.03 566.97,-719.82"/>
<polygon fill="black" stroke="black" points="570.09,-721.42 570.93,-710.86 563.69,-718.6 570.09,-721.42"/>
<text xml:space="preserve" text-anchor="middle" x="553.32" y="-784.2" font-family="Times New Roman,serif" font-size="14.00">False</text>
</g>
<!-- block4 -->
<g id="node6" class="node">
<title>block4</title>
<polygon fill="none" stroke="black" points="426.25,-655 363.04,-637 426.25,-619 489.46,-637 426.25,-655"/>
<text xml:space="preserve" text-anchor="middle" x="426.25" y="-631.95" font-family="Times New Roman,serif" font-size="14.00">B4: j &lt; 5</text>
<text xml:space="preserve" text-anchor="middle" x="342.79" y="-658.2" font-family="Times New Roman,serif" font-size="14.00">p&#45;use: j</text>
</g>
<!-- block3&#45;&gt;block4 -->
<g id="edge5" class="edge">
<title>block3&#45;&gt;block4</title>
<path fill="none" stroke="black" d="M444.72,-726.97C441.28,-710.39 435.99,-684.93 431.96,-665.49"/>
<polygon fill="black" stroke="black" points="435.4,-664.85 429.94,-655.77 428.54,-666.28 435.4,-664.85"/>
</g>
<!-- block5 -->
<g id="node7" class="node">
<title>block5</title>
<polygon fill="none" stroke="black" points="404.5,-566.5 336,-566.5 336,-530.5 404.5,-530.5 404.5,-566.5"/>
<text xml:space="preserve" text-anchor="middle" x="370.25" y="-543.45" font-family="Times New Roman,serif" font-size="14.00">B5: k = 0</text>
<text xml:space="preserve" text-anchor="middle" x="320.25" y="-569.7" font-family="Times New Roman,serif" font-size="14.00">def: k</text>
</g>
<!-- block4&#45;&gt;block5 -->
<g id="edge6" class="edge">
<title>block4&#45;&gt;block5</title>
<path fill="none" stroke="black" d="M415.52,-621.91C410.84,-615.61 405.38,-608.03 400.75,-601 395.66,-593.28 390.43,-584.7 385.76,-576.79"/>
<polygon fill="black" stroke="black" points="388.83,-575.11 380.78,-568.23 382.78,-578.63 388.83,-575.11"/>
<text xml:space="preserve" text-anchor="middle" x="413.5" y="-587.7" font-family="Times New Roman,serif" font-size="14.00">True</text>
</g>
<!-- block14 -->
<g id="node16" class="node">
<title>block14</title>
<polygon fill="none" stroke="black" points="538.38,-566.5 472.12,-566.5 472.12,-530.5 538.38,-530.5 538.38,-566.5"/>
<text xml:space="preserve" text-anchor="middle" x="505.25" y="-543.45" font-family="Times New Roman,serif" font-size="14.00">B14: i++</text>
<text xml:space="preserve" text-anchor="middle" x="457.88" y="-569.7" font-family="Times New Roman,serif" font-size="14.00">def: i</text>
</g>
<!-- block4&#45;&gt;block14 -->
<g id="edge7" class="edge">
<title>block4&#45;&gt;block14</title>
<path fill="none" stroke="black" d="M438.94,-622.1C450.5,-609.45 467.85,-590.45 481.9,-575.06"/>
<polygon fill="black" stroke="black" points="484.14,-577.81 488.29,-568.07 478.97,-573.09 484.14,-577.81"/>
<text xml:space="preserve" text-anchor="middle" x="487.08" y="-587.7" font-family="Times New Roman,serif" font-size="14.00">False</text>
</g>
<!-- block6 -->
<g id="node8" class="node">
<title>block6</title>
<polygon fill="none" stroke="black" points="346.25,-493.5 280.14,-475.5 346.25,-457.5 412.36,-475.5 346.25,-493.5"/>
<text xml:space="preserve" text-anchor="middle" x="346.25" y="-470.45" font-family="Times New Roman,serif" font-size="14.00">B6: k &lt; 5</text>
<text xml:space="preserve" text-anchor="middle" x="258.39" y="-496.7" font-family="Times New Roman,serif" font-size="14.00">p&#45;use: k</text>
</g>
<!-- block5&#45;&gt;block6 -->
<g id="edge8" class="edge">
<title>block5&#45;&gt;block6</title>
<path fill="none" stroke="black" d="M364.44,-530.31C361.64,-522.03 358.22,-511.91 355.1,-502.69"/>
<polygon fill="black" stroke="black" points="358.52,-501.86 352,-493.51 351.89,-504.1 358.52,-501.86"/>
</g>
<!-- block7 -->
<g id="node9" class="node">
<title>block7</title>
<polygon fill="none" stroke="black" points="328,-405 262.5,-405 262.5,-369 328,-369 328,-405"/>
<text xml:space="preserve" text-anchor="middle" x="295.25" y="-381.95" font-family="Times New Roman,serif" font-size="14.00">B7: l = 0</text>
<text xml:space="preserve" text-anchor="middle" x="248.25" y="-408.2" font-family="Times New Roman,serif" font-size="14.00">def: l</text>
</g>
<!-- block6&#45;&gt;block7 -->
<g id="edge9" class="edge">
<title>block6&#45;&gt;block7</title>
<path fill="none" stroke="black" d="M336.62,-459.99C332.55,-453.74 327.82,-446.32 323.75,-439.5 319.09,-431.69 314.22,-423.09 309.86,-415.19"/>
<polygon fill="black" stroke="black" points="313.06,-413.75 305.2,-406.66 306.92,-417.11 313.06,-413.75"/>
<text xml:space="preserve" text-anchor="middle" x="336.5" y="-426.2" font-family="Times New Roman,serif" font-size="14.00">True</text>
</g>
<!-- block13 -->
<g id="node15" class="node">
<title>block13</title>
<polygon fill="none" stroke="black" points="465.38,-405 399.12,-405 399.12,-369 465.38,-369 465.38,-405"/>
<text xml:space="preserve" text-anchor="middle" x="432.25" y="-381.95" font-family="Times New Roman,serif" font-size="14.00">B13: j++</text>
<text xml:space="preserve" text-anchor="middle" x="384.88" y="-408.2" font-family="Times New Roman,serif" font-size="14.00">def: j</text>
</g>
<!-- block6&#45;&gt;block13 -->
<g id="edge10" class="edge">
<title>block6&#45;&gt;block13</title>
<path fill="none" stroke="black" d="M359.69,-460.98C372.4,-448.2 391.79,-428.69 407.33,-413.06"/>
<polygon fill="black" stroke="black" points="409.42,-415.93 413.99,-406.37 404.45,-410.99 409.42,-415.93"/>
<text xml:space="preserve" text-anchor="middle" x="411.2" y="-426.2" font-family="Times New Roman,serif" font-size="14.00">False</text>
</g>
<!-- block8 -->
<g id="node10" class="node">
<title>block8</title>
<polygon fill="none" stroke="black" points="271.25,-332 208.04,-314 271.25,-296 334.46,-314 271.25,-332"/>
<text xml:space="preserve" text-anchor="middle" x="271.25" y="-308.95" font-family="Times New Roman,serif" font-size="14.00">B8: l &lt; 5</text>
<text xml:space="preserve" text-anchor="middle" x="187.79" y="-335.2" font-family="Times New Roman,serif" font-size="14.00">p&#45;use: l</text>
</g>
<!-- block7&#45;&gt;block8 -->
<g id="edge11" class="edge">
<title>block7&#45;&gt;block8</title>
<path fill="none" stroke="black" d="M289.44,-368.81C286.64,-360.53 283.22,-350.41 280.1,-341.19"/>
<polygon fill="black" stroke="black" points="283.52,-340.36 277,-332.01 276.89,-342.6 283.52,-340.36"/>
</g>
<!-- block9 -->
<g id="node11" class="node">
<title>block9</title>
<polygon fill="none" stroke="black" points="270.25,-243.5 123.75,-202.5 270.25,-161.5 416.75,-202.5 270.25,-243.5"/>
<text xml:space="preserve" text-anchor="middle" x="270.25" y="-205.7" font-family="Times New Roman,serif" font-size="14.00">B9: c++ (se TEST)</text>
<text xml:space="preserve" text-anchor="middle" x="270.25" y="-189.2" font-family="Times New Roman,serif" font-size="14.00">if (keys[i][j][k][l] == x)</text>
<text xml:space="preserve" text-anchor="middle" x="61.88" y="-263.2" font-family="Times New Roman,serif" font-size="14.00">c&#45;use: keys, i, j, k, l, x</text>
<text xml:space="preserve" text-anchor="middle" x="61.88" y="-246.7" font-family="Times New Roman,serif" font-size="14.00">p&#45;use: keys, i, j, k, l, x</text>
</g>
<!-- block8&#45;&gt;block9 -->
<g id="edge12" class="edge">
<title>block8&#45;&gt;block9</title>
<path fill="none" stroke="black" d="M271.09,-295.89C270.99,-284.77 270.85,-269.63 270.72,-254.83"/>
<polygon fill="black" stroke="black" points="274.22,-255.13 270.63,-245.17 267.22,-255.2 274.22,-255.13"/>
<text xml:space="preserve" text-anchor="middle" x="283.68" y="-264.7" font-family="Times New Roman,serif" font-size="14.00">True</text>
</g>
<!-- block12 -->
<g id="node14" class="node">
<title>block12</title>
<polygon fill="none" stroke="black" points="503.88,-220.5 434.62,-220.5 434.62,-184.5 503.88,-184.5 503.88,-220.5"/>
<text xml:space="preserve" text-anchor="middle" x="469.25" y="-197.45" font-family="Times New Roman,serif" font-size="14.00">B12: k++</text>
<text xml:space="preserve" text-anchor="middle" x="450.38" y="-223.7" font-family="Times New Roman,serif" font-size="14.00">def: k</text>
</g>
<!-- block8&#45;&gt;block12 -->
<g id="edge13" class="edge">
<title>block8&#45;&gt;block12</title>
<path fill="none" stroke="black" d="M280.88,-298.78C289.77,-286.84 304.1,-270.34 320.75,-261.5 362.38,-239.41 382.9,-264.18 425.25,-243.5 432.9,-239.76 440.19,-234.28 446.56,-228.57"/>
<polygon fill="black" stroke="black" points="448.78,-231.29 453.53,-221.82 443.91,-226.26 448.78,-231.29"/>
<text xml:space="preserve" text-anchor="middle" x="335" y="-264.7" font-family="Times New Roman,serif" font-size="14.00">False</text>
</g>
<!-- block10 -->
<g id="node12" class="node">
<title>block10</title>
<polygon fill="none" stroke="black" points="465.88,-109 264.62,-109 264.62,-73 465.88,-73 465.88,-109"/>
<text xml:space="preserve" text-anchor="middle" x="365.25" y="-85.95" font-family="Times New Roman,serif" font-size="14.00">B10: return answer[...] + keys[...]</text>
<text xml:space="preserve" text-anchor="middle" x="187.75" y="-112.2" font-family="Times New Roman,serif" font-size="14.00">c&#45;use: answer, keys, i, j, k, l</text>
</g>
<!-- block9&#45;&gt;block10 -->
<g id="edge14" class="edge">
<title>block9&#45;&gt;block10</title>
<path fill="none" stroke="black" d="M298.5,-168.94C312.67,-152.61 329.6,-133.1 342.86,-117.81"/>
<polygon fill="black" stroke="black" points="345.29,-120.34 349.2,-110.5 340.01,-115.76 345.29,-120.34"/>
<text xml:space="preserve" text-anchor="middle" x="347.27" y="-130.2" font-family="Times New Roman,serif" font-size="14.00">True</text>
</g>
<!-- block11 -->
<g id="node13" class="node">
<title>block11</title>
<polygon fill="none" stroke="black" points="165.38,-109 99.12,-109 99.12,-73 165.38,-73 165.38,-109"/>
<text xml:space="preserve" text-anchor="middle" x="132.25" y="-85.95" font-family="Times New Roman,serif" font-size="14.00">B11: l++</text>
<text xml:space="preserve" text-anchor="middle" x="84.88" y="-112.2" font-family="Times New Roman,serif" font-size="14.00">def: l</text>
</g>
<!-- block9&#45;&gt;block11 -->
<g id="edge15" class="edge">
<title>block9&#45;&gt;block11</title>
<path fill="none" stroke="black" d="M232.54,-171.58C210.67,-154.23 183.48,-132.65 162.93,-116.35"/>
<polygon fill="black" stroke="black" points="165.2,-113.67 155.19,-110.2 160.85,-119.16 165.2,-113.67"/>
<text xml:space="preserve" text-anchor="middle" x="211.36" y="-130.2" font-family="Times New Roman,serif" font-size="14.00">False</text>
</g>
<!-- block10&#45;&gt;end -->
<g id="edge16" class="edge">
<title>block10&#45;&gt;end</title>
<path fill="none" stroke="black" d="M390.69,-72.63C405,-62.87 422.97,-50.6 438.11,-40.26"/>
<polygon fill="black" stroke="black" points="440.05,-43.17 446.34,-34.64 436.1,-37.39 440.05,-43.17"/>
</g>
<!-- block11&#45;&gt;block8 -->
<g id="edge17" class="edge">
<title>block11&#45;&gt;block8</title>
<path fill="none" stroke="black" d="M123.58,-109.08C109.77,-138.96 86.94,-201.54 114.25,-243.5 137.24,-278.82 182.72,-296.32 218.84,-304.92"/>
<polygon fill="black" stroke="black" points="217.71,-308.26 228.23,-306.99 219.22,-301.42 217.71,-308.26"/>
</g>
<!-- block12&#45;&gt;block6 -->
<g id="edge18" class="edge">
<title>block12&#45;&gt;block6</title>
<path fill="none" stroke="black" d="M460.66,-220.76C445.83,-250.71 414.67,-314.35 390.25,-369 378.24,-395.88 365.37,-427.03 356.68,-448.48"/>
<polygon fill="black" stroke="black" points="353.49,-447.03 352.99,-457.62 359.98,-449.65 353.49,-447.03"/>
</g>
<!-- block13&#45;&gt;block4 -->
<g id="edge19" class="edge">
<title>block13&#45;&gt;block4</title>
<path fill="none" stroke="black" d="M431.83,-405.5C430.8,-447.81 428.19,-555.99 426.94,-607.68"/>
<polygon fill="black" stroke="black" points="423.44,-607.36 426.7,-617.44 430.44,-607.53 423.44,-607.36"/>
</g>
<!-- block14&#45;&gt;block2 -->
<g id="edge20" class="edge">
<title>block14&#45;&gt;block2</title>
<path fill="none" stroke="black" d="M505.99,-566.91C508,-614.24 513.56,-745.59 516.04,-803.94"/>
<polygon fill="black" stroke="black" points="512.53,-803.87 516.45,-813.71 519.53,-803.57 512.53,-803.87"/>
</g>
<!-- block15&#45;&gt;end -->
<g id="edge21" class="edge">
<title>block15&#45;&gt;end</title>
<path fill="none" stroke="black" d="M577.8,-672.63C576.33,-653.36 574.25,-621.36 574.25,-593.75 574.25,-593.75 574.25,-593.75 574.25,-90 574.25,-59.56 543.59,-41.29 515.41,-30.92"/>
<polygon fill="black" stroke="black" points="516.83,-27.7 506.23,-27.81 514.58,-34.33 516.83,-27.7"/>
</g>
</g>
</svg>
