<?xml version="1.0" encoding="UTF-8" standalone="no"?>
<!DOCTYPE svg PUBLIC "-//W3C//DTD SVG 1.1//EN"
 "http://www.w3.org/Graphics/SVG/1.1/DTD/svg11.dtd">
<!-- Generated by graphviz version 13.1.2 (20250808.2320)
 -->
<!-- Title: foo_CFG Pages: 1 -->
<svg width="419pt" height="1033pt"
 viewBox="0.00 0.00 419.00 1033.00" xmlns="http://www.w3.org/2000/svg" xmlns:xlink="http://www.w3.org/1999/xlink">
<g id="graph0" class="graph" transform="scale(1 1) rotate(0) translate(4 1028.5)">
<title>foo_CFG</title>
<polygon fill="white" stroke="none" points="-4,4 -4,-1028.5 415.38,-1028.5 415.38,4 -4,4"/>
<!-- entry -->
<g id="node1" class="node">
<title>entry</title>
<ellipse fill="none" stroke="black" cx="326" cy="-1006.5" rx="31.6" ry="18"/>
<text xml:space="preserve" text-anchor="middle" x="326" y="-1001.08" font-family="Helvetica,sans-Serif" font-size="14.00">Entry</text>
</g>
<!-- B1 -->
<g id="node3" class="node">
<title>B1</title>
<path fill="none" stroke="black" d="M366.25,-951.5C366.25,-951.5 285.75,-951.5 285.75,-951.5 279.75,-951.5 273.75,-945.5 273.75,-939.5 273.75,-939.5 273.75,-927.5 273.75,-927.5 273.75,-921.5 279.75,-915.5 285.75,-915.5 285.75,-915.5 366.25,-915.5 366.25,-915.5 372.25,-915.5 378.25,-921.5 378.25,-927.5 378.25,-927.5 378.25,-939.5 378.25,-939.5 378.25,-945.5 372.25,-951.5 366.25,-951.5"/>
<text xml:space="preserve" text-anchor="middle" x="326" y="-928.08" font-family="Helvetica,sans-Serif" font-size="14.00">Declare i, j, k, l</text>
</g>
<!-- entry&#45;&gt;B1 -->
<g id="edge1" class="edge">
<title>entry&#45;&gt;B1</title>
<path fill="none" stroke="black" d="M326,-988.31C326,-980.73 326,-971.6 326,-963.04"/>
<polygon fill="black" stroke="black" points="329.5,-963.04 326,-953.04 322.5,-963.04 329.5,-963.04"/>
</g>
<!-- exit -->
<g id="node2" class="node">
<title>exit</title>
<ellipse fill="none" stroke="black" cx="288" cy="-18" rx="27" ry="18"/>
<text xml:space="preserve" text-anchor="middle" x="288" y="-12.57" font-family="Helvetica,sans-Serif" font-size="14.00">Exit</text>
</g>
<!-- B2 -->
<g id="node4" class="node">
<title>B2</title>
<path fill="none" stroke="black" d="M341,-878.5C341,-878.5 311,-878.5 311,-878.5 305,-878.5 299,-872.5 299,-866.5 299,-866.5 299,-854.5 299,-854.5 299,-848.5 305,-842.5 311,-842.5 311,-842.5 341,-842.5 341,-842.5 347,-842.5 353,-848.5 353,-854.5 353,-854.5 353,-866.5 353,-866.5 353,-872.5 347,-878.5 341,-878.5"/>
<text xml:space="preserve" text-anchor="middle" x="326" y="-855.08" font-family="Helvetica,sans-Serif" font-size="14.00">i = 0</text>
</g>
<!-- B1&#45;&gt;B2 -->
<g id="edge2" class="edge">
<title>B1&#45;&gt;B2</title>
<path fill="none" stroke="black" d="M326,-915.31C326,-907.73 326,-898.6 326,-890.04"/>
<polygon fill="black" stroke="black" points="329.5,-890.04 326,-880.04 322.5,-890.04 329.5,-890.04"/>
</g>
<!-- B3 -->
<g id="node5" class="node">
<title>B3</title>
<path fill="none" stroke="black" d="M341,-805.5C341,-805.5 311,-805.5 311,-805.5 305,-805.5 299,-799.5 299,-793.5 299,-793.5 299,-781.5 299,-781.5 299,-775.5 305,-769.5 311,-769.5 311,-769.5 341,-769.5 341,-769.5 347,-769.5 353,-775.5 353,-781.5 353,-781.5 353,-793.5 353,-793.5 353,-799.5 347,-805.5 341,-805.5"/>
<text xml:space="preserve" text-anchor="middle" x="326" y="-782.08" font-family="Helvetica,sans-Serif" font-size="14.00">i &lt; 5?</text>
</g>
<!-- B2&#45;&gt;B3 -->
<g id="edge3" class="edge">
<title>B2&#45;&gt;B3</title>
<path fill="none" stroke="black" d="M326,-842.31C326,-834.73 326,-825.6 326,-817.04"/>
<polygon fill="black" stroke="black" points="329.5,-817.04 326,-807.04 322.5,-817.04 329.5,-817.04"/>
</g>
<!-- B4 -->
<g id="node6" class="node">
<title>B4</title>
<path fill="none" stroke="black" d="M281,-717C281,-717 251,-717 251,-717 245,-717 239,-711 239,-705 239,-705 239,-693 239,-693 239,-687 245,-681 251,-681 251,-681 281,-681 281,-681 287,-681 293,-687 293,-693 293,-693 293,-705 293,-705 293,-711 287,-717 281,-717"/>
<text xml:space="preserve" text-anchor="middle" x="266" y="-693.58" font-family="Helvetica,sans-Serif" font-size="14.00">j = 0</text>
</g>
<!-- B3&#45;&gt;B4 -->
<g id="edge4" class="edge">
<title>B3&#45;&gt;B4</title>
<path fill="none" stroke="black" d="M306.23,-769.02C300.89,-763.72 295.39,-757.66 291,-751.5 285.85,-744.26 281.25,-735.8 277.44,-727.85"/>
<polygon fill="black" stroke="black" points="280.69,-726.55 273.38,-718.88 274.31,-729.43 280.69,-726.55"/>
<text xml:space="preserve" text-anchor="middle" x="301.5" y="-738.2" font-family="Times New Roman,serif" font-size="14.00">true</text>
</g>
<!-- B16 -->
<g id="node18" class="node">
<title>B16</title>
<path fill="none" stroke="black" d="M399.38,-663C399.38,-663 352.62,-663 352.62,-663 346.62,-663 340.62,-657 340.62,-651 340.62,-651 340.62,-639 340.62,-639 340.62,-633 346.62,-627 352.62,-627 352.62,-627 399.38,-627 399.38,-627 405.38,-627 411.38,-633 411.38,-639 411.38,-639 411.38,-651 411.38,-651 411.38,-657 405.38,-663 399.38,-663"/>
<text xml:space="preserve" text-anchor="middle" x="376" y="-639.58" font-family="Helvetica,sans-Serif" font-size="14.00">return &#45;1;</text>
</g>
<!-- B3&#45;&gt;B16 -->
<g id="edge5" class="edge">
<title>B3&#45;&gt;B16</title>
<path fill="none" stroke="black" d="M333.16,-769.12C335.41,-763.52 337.86,-757.27 340,-751.5 349.64,-725.47 359.78,-695.49 366.83,-674.15"/>
<polygon fill="black" stroke="black" points="370.14,-675.3 369.94,-664.71 363.49,-673.12 370.14,-675.3"/>
<text xml:space="preserve" text-anchor="middle" x="358.68" y="-738.2" font-family="Times New Roman,serif" font-size="14.00">false</text>
</g>
<!-- B5 -->
<g id="node7" class="node">
<title>B5</title>
<path fill="none" stroke="black" d="M269,-609C269,-609 239,-609 239,-609 233,-609 227,-603 227,-597 227,-597 227,-585 227,-585 227,-579 233,-573 239,-573 239,-573 269,-573 269,-573 275,-573 281,-579 281,-585 281,-585 281,-597 281,-597 281,-603 275,-609 269,-609"/>
<text xml:space="preserve" text-anchor="middle" x="254" y="-585.58" font-family="Helvetica,sans-Serif" font-size="14.00">j &lt; 5?</text>
</g>
<!-- B4&#45;&gt;B5 -->
<g id="edge6" class="edge">
<title>B4&#45;&gt;B5</title>
<path fill="none" stroke="black" d="M264.07,-680.97C262.23,-664.69 259.41,-639.82 257.23,-620.52"/>
<polygon fill="black" stroke="black" points="260.74,-620.39 256.13,-610.84 253.78,-621.17 260.74,-620.39"/>
</g>
<!-- B6 -->
<g id="node8" class="node">
<title>B6</title>
<path fill="none" stroke="black" d="M207,-520.5C207,-520.5 177,-520.5 177,-520.5 171,-520.5 165,-514.5 165,-508.5 165,-508.5 165,-496.5 165,-496.5 165,-490.5 171,-484.5 177,-484.5 177,-484.5 207,-484.5 207,-484.5 213,-484.5 219,-490.5 219,-496.5 219,-496.5 219,-508.5 219,-508.5 219,-514.5 213,-520.5 207,-520.5"/>
<text xml:space="preserve" text-anchor="middle" x="192" y="-497.07" font-family="Helvetica,sans-Serif" font-size="14.00">k = 0</text>
</g>
<!-- B5&#45;&gt;B6 -->
<g id="edge7" class="edge">
<title>B5&#45;&gt;B6</title>
<path fill="none" stroke="black" d="M233.05,-572.67C227.41,-567.37 221.6,-561.28 217,-555 211.67,-547.73 206.97,-539.14 203.14,-531.08"/>
<polygon fill="black" stroke="black" points="206.35,-529.68 199.07,-521.98 199.95,-532.54 206.35,-529.68"/>
<text xml:space="preserve" text-anchor="middle" x="227.5" y="-541.7" font-family="Times New Roman,serif" font-size="14.00">true</text>
</g>
<!-- B15 -->
<g id="node17" class="node">
<title>B15</title>
<path fill="none" stroke="black" d="M326,-520.5C326,-520.5 296,-520.5 296,-520.5 290,-520.5 284,-514.5 284,-508.5 284,-508.5 284,-496.5 284,-496.5 284,-490.5 290,-484.5 296,-484.5 296,-484.5 326,-484.5 326,-484.5 332,-484.5 338,-490.5 338,-496.5 338,-496.5 338,-508.5 338,-508.5 338,-514.5 332,-520.5 326,-520.5"/>
<text xml:space="preserve" text-anchor="middle" x="311" y="-497.07" font-family="Helvetica,sans-Serif" font-size="14.00">i++</text>
</g>
<!-- B5&#45;&gt;B15 -->
<g id="edge8" class="edge">
<title>B5&#45;&gt;B15</title>
<path fill="none" stroke="black" d="M264.63,-572.7C270.88,-562.64 279.01,-549.77 286.5,-538.5 288.31,-535.78 290.22,-532.96 292.15,-530.15"/>
<polygon fill="black" stroke="black" points="294.93,-532.29 297.76,-522.08 289.18,-528.29 294.93,-532.29"/>
<text xml:space="preserve" text-anchor="middle" x="299.25" y="-541.7" font-family="Times New Roman,serif" font-size="14.00">false</text>
</g>
<!-- B7 -->
<g id="node9" class="node">
<title>B7</title>
<path fill="none" stroke="black" d="M195,-447.5C195,-447.5 165,-447.5 165,-447.5 159,-447.5 153,-441.5 153,-435.5 153,-435.5 153,-423.5 153,-423.5 153,-417.5 159,-411.5 165,-411.5 165,-411.5 195,-411.5 195,-411.5 201,-411.5 207,-417.5 207,-423.5 207,-423.5 207,-435.5 207,-435.5 207,-441.5 201,-447.5 195,-447.5"/>
<text xml:space="preserve" text-anchor="middle" x="180" y="-424.07" font-family="Helvetica,sans-Serif" font-size="14.00">k &lt; 5?</text>
</g>
<!-- B6&#45;&gt;B7 -->
<g id="edge9" class="edge">
<title>B6&#45;&gt;B7</title>
<path fill="none" stroke="black" d="M189.1,-484.31C187.8,-476.64 186.24,-467.39 184.77,-458.74"/>
<polygon fill="black" stroke="black" points="188.25,-458.3 183.13,-449.02 181.35,-459.46 188.25,-458.3"/>
</g>
<!-- B8 -->
<g id="node10" class="node">
<title>B8</title>
<path fill="none" stroke="black" d="M131,-359C131,-359 101,-359 101,-359 95,-359 89,-353 89,-347 89,-347 89,-335 89,-335 89,-329 95,-323 101,-323 101,-323 131,-323 131,-323 137,-323 143,-329 143,-335 143,-335 143,-347 143,-347 143,-353 137,-359 131,-359"/>
<text xml:space="preserve" text-anchor="middle" x="116" y="-335.57" font-family="Helvetica,sans-Serif" font-size="14.00">l = 0</text>
</g>
<!-- B7&#45;&gt;B8 -->
<g id="edge10" class="edge">
<title>B7&#45;&gt;B8</title>
<path fill="none" stroke="black" d="M159.18,-411.08C153.54,-405.78 147.7,-399.7 143,-393.5 137.41,-386.11 132.35,-377.4 128.17,-369.27"/>
<polygon fill="black" stroke="black" points="131.39,-367.89 123.87,-360.43 125.1,-370.95 131.39,-367.89"/>
<text xml:space="preserve" text-anchor="middle" x="153.5" y="-380.2" font-family="Times New Roman,serif" font-size="14.00">true</text>
</g>
<!-- B14 -->
<g id="node16" class="node">
<title>B14</title>
<path fill="none" stroke="black" d="M257,-359C257,-359 227,-359 227,-359 221,-359 215,-353 215,-347 215,-347 215,-335 215,-335 215,-329 221,-323 227,-323 227,-323 257,-323 257,-323 263,-323 269,-329 269,-335 269,-335 269,-347 269,-347 269,-353 263,-359 257,-359"/>
<text xml:space="preserve" text-anchor="middle" x="242" y="-335.57" font-family="Helvetica,sans-Serif" font-size="14.00">j++</text>
</g>
<!-- B7&#45;&gt;B14 -->
<g id="edge11" class="edge">
<title>B7&#45;&gt;B14</title>
<path fill="none" stroke="black" d="M189.97,-411.41C196.13,-401.2 204.38,-388.09 212.5,-377 214.66,-374.05 216.99,-371.03 219.37,-368.06"/>
<polygon fill="black" stroke="black" points="221.87,-370.53 225.54,-360.59 216.48,-366.07 221.87,-370.53"/>
<text xml:space="preserve" text-anchor="middle" x="225.25" y="-380.2" font-family="Times New Roman,serif" font-size="14.00">false</text>
</g>
<!-- B9 -->
<g id="node11" class="node">
<title>B9</title>
<path fill="none" stroke="black" d="M112,-286C112,-286 82,-286 82,-286 76,-286 70,-280 70,-274 70,-274 70,-262 70,-262 70,-256 76,-250 82,-250 82,-250 112,-250 112,-250 118,-250 124,-256 124,-262 124,-262 124,-274 124,-274 124,-280 118,-286 112,-286"/>
<text xml:space="preserve" text-anchor="middle" x="97" y="-262.57" font-family="Helvetica,sans-Serif" font-size="14.00">l &lt; 5?</text>
</g>
<!-- B8&#45;&gt;B9 -->
<g id="edge12" class="edge">
<title>B8&#45;&gt;B9</title>
<path fill="none" stroke="black" d="M111.4,-322.81C109.32,-315.05 106.82,-305.68 104.48,-296.95"/>
<polygon fill="black" stroke="black" points="107.91,-296.25 101.95,-287.49 101.15,-298.06 107.91,-296.25"/>
</g>
<!-- B10 -->
<g id="node12" class="node">
<title>B10</title>
<path fill="none" stroke="black" d="M150.88,-197.5C150.88,-197.5 35.12,-197.5 35.12,-197.5 29.12,-197.5 23.12,-191.5 23.12,-185.5 23.12,-185.5 23.12,-173.5 23.12,-173.5 23.12,-167.5 29.12,-161.5 35.12,-161.5 35.12,-161.5 150.88,-161.5 150.88,-161.5 156.88,-161.5 162.88,-167.5 162.88,-173.5 162.88,-173.5 162.88,-185.5 162.88,-185.5 162.88,-191.5 156.88,-197.5 150.88,-197.5"/>
<text xml:space="preserve" text-anchor="middle" x="93" y="-174.07" font-family="Helvetica,sans-Serif" font-size="14.00">if (keys[i][j][k][l] == x)</text>
</g>
<!-- B9&#45;&gt;B10 -->
<g id="edge13" class="edge">
<title>B9&#45;&gt;B10</title>
<path fill="none" stroke="black" d="M95.28,-249.57C94.78,-243.96 94.3,-237.72 94,-232 93.61,-224.59 93.37,-216.57 93.22,-209.11"/>
<polygon fill="black" stroke="black" points="96.72,-209.14 93.07,-199.19 89.72,-209.24 96.72,-209.14"/>
<text xml:space="preserve" text-anchor="middle" x="104.5" y="-218.7" font-family="Times New Roman,serif" font-size="14.00">true</text>
</g>
<!-- B13 -->
<g id="node15" class="node">
<title>B13</title>
<path fill="none" stroke="black" d="M223,-197.5C223,-197.5 193,-197.5 193,-197.5 187,-197.5 181,-191.5 181,-185.5 181,-185.5 181,-173.5 181,-173.5 181,-167.5 187,-161.5 193,-161.5 193,-161.5 223,-161.5 223,-161.5 229,-161.5 235,-167.5 235,-173.5 235,-173.5 235,-185.5 235,-185.5 235,-191.5 229,-197.5 223,-197.5"/>
<text xml:space="preserve" text-anchor="middle" x="208" y="-174.07" font-family="Helvetica,sans-Serif" font-size="14.00">k++</text>
</g>
<!-- B9&#45;&gt;B13 -->
<g id="edge14" class="edge">
<title>B9&#45;&gt;B13</title>
<path fill="none" stroke="black" d="M108.14,-249.65C115.72,-238.83 126.53,-225.17 138.5,-215.5 141.51,-213.07 155.74,-205.8 170.55,-198.52"/>
<polygon fill="black" stroke="black" points="171.96,-201.73 179.41,-194.2 168.89,-195.44 171.96,-201.73"/>
<text xml:space="preserve" text-anchor="middle" x="151.25" y="-218.7" font-family="Times New Roman,serif" font-size="14.00">false</text>
</g>
<!-- B11 -->
<g id="node13" class="node">
<title>B11</title>
<path fill="none" stroke="black" d="M310.62,-109C310.62,-109 97.38,-109 97.38,-109 91.38,-109 85.38,-103 85.38,-97 85.38,-97 85.38,-85 85.38,-85 85.38,-79 91.38,-73 97.38,-73 97.38,-73 310.62,-73 310.62,-73 316.62,-73 322.62,-79 322.62,-85 322.62,-85 322.62,-97 322.62,-97 322.62,-103 316.62,-109 310.62,-109"/>
<text xml:space="preserve" text-anchor="middle" x="204" y="-85.58" font-family="Helvetica,sans-Serif" font-size="14.00">return answer[i][j][k][l] + keys[i][j][k][l];</text>
</g>
<!-- B10&#45;&gt;B11 -->
<g id="edge15" class="edge">
<title>B10&#45;&gt;B11</title>
<path fill="none" stroke="black" d="M115.2,-161.2C131.76,-148.3 154.6,-130.5 172.97,-116.18"/>
<polygon fill="black" stroke="black" points="174.91,-119.1 180.65,-110.2 170.61,-113.58 174.91,-119.1"/>
<text xml:space="preserve" text-anchor="middle" x="168.94" y="-130.2" font-family="Times New Roman,serif" font-size="14.00">true</text>
</g>
<!-- B12 -->
<g id="node14" class="node">
<title>B12</title>
<path fill="none" stroke="black" d="M42,-109C42,-109 12,-109 12,-109 6,-109 0,-103 0,-97 0,-97 0,-85 0,-85 0,-79 6,-73 12,-73 12,-73 42,-73 42,-73 48,-73 54,-79 54,-85 54,-85 54,-97 54,-97 54,-103 48,-109 42,-109"/>
<text xml:space="preserve" text-anchor="middle" x="27" y="-85.58" font-family="Helvetica,sans-Serif" font-size="14.00">l++</text>
</g>
<!-- B10&#45;&gt;B12 -->
<g id="edge16" class="edge">
<title>B10&#45;&gt;B12</title>
<path fill="none" stroke="black" d="M75.85,-161.22C70.71,-155.73 65.19,-149.51 60.5,-143.5 54.44,-135.73 48.38,-126.86 43.13,-118.69"/>
<polygon fill="black" stroke="black" points="46.25,-117.08 37.96,-110.48 40.33,-120.81 46.25,-117.08"/>
<text xml:space="preserve" text-anchor="middle" x="73.25" y="-130.2" font-family="Times New Roman,serif" font-size="14.00">false</text>
</g>
<!-- B11&#45;&gt;exit -->
<g id="edge21" class="edge">
<title>B11&#45;&gt;exit</title>
<path fill="none" stroke="black" d="M224.33,-72.81C236.06,-62.91 250.88,-50.38 263.27,-39.9"/>
<polygon fill="black" stroke="black" points="265.25,-42.81 270.63,-33.68 260.73,-37.46 265.25,-42.81"/>
</g>
<!-- B12&#45;&gt;B9 -->
<g id="edge17" class="edge">
<title>B12&#45;&gt;B9</title>
<path fill="none" stroke="black" d="M19.38,-109.33C11.06,-131 0.57,-168.74 14,-197.5 23.66,-218.19 42.85,-234.9 60.34,-246.74"/>
<polygon fill="black" stroke="black" points="58.23,-249.55 68.54,-252 62.01,-243.65 58.23,-249.55"/>
</g>
<!-- B13&#45;&gt;B7 -->
<g id="edge18" class="edge">
<title>B13&#45;&gt;B7</title>
<path fill="none" stroke="black" d="M206.03,-197.92C201.28,-240.05 189.11,-347.82 183.25,-399.72"/>
<polygon fill="black" stroke="black" points="179.78,-399.23 182.14,-409.56 186.74,-400.01 179.78,-399.23"/>
</g>
<!-- B14&#45;&gt;B5 -->
<g id="edge19" class="edge">
<title>B14&#45;&gt;B5</title>
<path fill="none" stroke="black" d="M242.84,-359.42C244.88,-401.55 250.1,-509.32 252.61,-561.22"/>
<polygon fill="black" stroke="black" points="249.1,-561.23 253.08,-571.05 256.1,-560.89 249.1,-561.23"/>
</g>
<!-- B15&#45;&gt;B3 -->
<g id="edge20" class="edge">
<title>B15&#45;&gt;B3</title>
<path fill="none" stroke="black" d="M311.92,-520.91C314.43,-568.24 321.39,-699.59 324.49,-757.94"/>
<polygon fill="black" stroke="black" points="320.98,-757.91 325,-767.71 327.97,-757.54 320.98,-757.91"/>
</g>
<!-- B16&#45;&gt;exit -->
<g id="edge22" class="edge">
<title>B16&#45;&gt;exit</title>
<path fill="none" stroke="black" d="M375.13,-626.62C374.25,-607.35 373,-575.34 373,-547.75 373,-547.75 373,-547.75 373,-90 373,-62.15 345.8,-43.09 322.17,-31.79"/>
<polygon fill="black" stroke="black" points="323.62,-28.6 313.06,-27.75 320.78,-35 323.62,-28.6"/>
</g>
</g>
</svg>
