<?xml version="1.0" encoding="UTF-8" standalone="no"?>
<!DOCTYPE svg PUBLIC "-//W3C//DTD SVG 1.1//EN"
 "http://www.w3.org/Graphics/SVG/1.1/DTD/svg11.dtd">
<!-- Generated by graphviz version 13.1.2 (20250808.2320)
 -->
<!-- Title: main Pages: 1 -->
<svg width="585pt" height="85pt"
 viewBox="0.00 0.00 585.00 85.00" xmlns="http://www.w3.org/2000/svg" xmlns:xlink="http://www.w3.org/1999/xlink">
<g id="graph0" class="graph" transform="scale(1 1) rotate(0) translate(4 80.93)">
<title>main</title>
<polygon fill="white" stroke="none" points="-4,4 -4,-80.93 581.11,-80.93 581.11,4 -4,4"/>
<!-- start -->
<g id="node1" class="node">
<title>start</title>
<ellipse fill="none" stroke="black" cx="53.91" cy="-45" rx="53.91" ry="18"/>
<text xml:space="preserve" text-anchor="middle" x="53.91" y="-39.95" font-family="Times New Roman,serif" font-size="14.00">Inicio main</text>
</g>
<!-- block1 -->
<g id="node3" class="node">
<title>block1</title>
<polygon fill="none" stroke="black" points="231.32,-63 144.82,-63 144.82,-27 231.32,-27 231.32,-63"/>
<text xml:space="preserve" text-anchor="middle" x="188.07" y="-39.95" font-family="Times New Roman,serif" font-size="14.00">B1: foo(400)</text>
</g>
<!-- start&#45;&gt;block1 -->
<g id="edge1" class="edge">
<title>start&#45;&gt;block1</title>
<path fill="none" stroke="black" d="M108.28,-45C116.46,-45 124.91,-45 133.11,-45"/>
<polygon fill="black" stroke="black" points="132.95,-48.5 142.95,-45 132.95,-41.5 132.95,-48.5"/>
</g>
<!-- end -->
<g id="node2" class="node">
<title>end</title>
<ellipse fill="none" stroke="black" cx="529.34" cy="-45" rx="47.77" ry="18"/>
<text xml:space="preserve" text-anchor="middle" x="529.34" y="-39.95" font-family="Times New Roman,serif" font-size="14.00">Fim main</text>
</g>
<!-- block1&#45;&gt;end -->
<g id="edge3" class="edge">
<title>block1&#45;&gt;end</title>
<path fill="none" stroke="black" d="M231.7,-54.57C237.59,-55.57 243.59,-56.43 249.32,-57 326.51,-64.61 416.19,-58.02 472.6,-52.01"/>
<polygon fill="black" stroke="black" points="472.71,-55.52 482.27,-50.95 471.95,-48.56 472.71,-55.52"/>
<text xml:space="preserve" text-anchor="middle" x="380.32" y="-63.63" font-family="Times New Roman,serif" font-size="14.00">Se nao TEST</text>
</g>
<!-- block2 -->
<g id="node4" class="node">
<title>block2</title>
<polygon fill="none" stroke="black" points="444.57,-36 316.07,-36 316.07,0 444.57,0 444.57,-36"/>
<text xml:space="preserve" text-anchor="middle" x="380.32" y="-12.95" font-family="Times New Roman,serif" font-size="14.00">B2: printf (se TEST)</text>
</g>
<!-- block1&#45;&gt;block2 -->
<g id="edge2" class="edge">
<title>block1&#45;&gt;block2</title>
<path fill="none" stroke="black" d="M231.77,-38.94C253.24,-35.89 279.89,-32.11 304.61,-28.6"/>
<polygon fill="black" stroke="black" points="304.9,-32.1 314.31,-27.23 303.92,-25.17 304.9,-32.1"/>
<text xml:space="preserve" text-anchor="middle" x="273.7" y="-39.47" font-family="Times New Roman,serif" font-size="14.00">Se TEST</text>
</g>
<!-- block2&#45;&gt;end -->
<g id="edge4" class="edge">
<title>block2&#45;&gt;end</title>
<path fill="none" stroke="black" d="M444.95,-29.69C454.88,-31.51 465.05,-33.38 474.73,-35.15"/>
<polygon fill="black" stroke="black" points="473.86,-38.55 484.33,-36.92 475.12,-31.67 473.86,-38.55"/>
</g>
</g>
</svg>
