<?xml version="1.0" encoding="UTF-8" standalone="no"?>
<!DOCTYPE svg PUBLIC "-//W3C//DTD SVG 1.1//EN"
 "http://www.w3.org/Graphics/SVG/1.1/DTD/svg11.dtd">
<!-- Generated by graphviz version 13.1.2 (20250808.2320)
 -->
<!-- Title: sort_DFG Pages: 1 -->
<svg width="229pt" height="260pt"
 viewBox="0.00 0.00 229.00 260.00" xmlns="http://www.w3.org/2000/svg" xmlns:xlink="http://www.w3.org/1999/xlink">
<g id="graph0" class="graph" transform="scale(1 1) rotate(0) translate(4 256)">
<title>sort_DFG</title>
<polygon fill="white" stroke="none" points="-4,4 -4,-256 225.41,-256 225.41,4 -4,4"/>
<!-- arr_in -->
<g id="node1" class="node">
<title>arr_in</title>
<ellipse fill="lightblue" stroke="black" cx="66" cy="-234" rx="27" ry="18"/>
<text xml:space="preserve" text-anchor="middle" x="66" y="-228.95" font-family="Times New Roman,serif" font-size="14.00">arr</text>
</g>
<!-- op_swap -->
<g id="node3" class="node">
<title>op_swap</title>
<polygon fill="none" stroke="black" points="54,-180 0,-180 0,-144 54,-144 54,-180"/>
<text xml:space="preserve" text-anchor="middle" x="27" y="-156.95" font-family="Times New Roman,serif" font-size="14.00">SWAP</text>
</g>
<!-- arr_in&#45;&gt;op_swap -->
<g id="edge1" class="edge">
<title>arr_in&#45;&gt;op_swap</title>
<path fill="none" stroke="black" d="M56.95,-216.76C52.51,-208.78 47.03,-198.95 41.98,-189.89"/>
<polygon fill="black" stroke="black" points="45.2,-188.48 37.28,-181.45 39.09,-191.89 45.2,-188.48"/>
</g>
<!-- op_compare -->
<g id="node4" class="node">
<title>op_compare</title>
<polygon fill="none" stroke="black" points="138.12,-180 71.88,-180 71.88,-144 138.12,-144 138.12,-180"/>
<text xml:space="preserve" text-anchor="middle" x="105" y="-156.95" font-family="Times New Roman,serif" font-size="14.00">Compare</text>
</g>
<!-- arr_in&#45;&gt;op_compare -->
<g id="edge2" class="edge">
<title>arr_in&#45;&gt;op_compare</title>
<path fill="none" stroke="black" d="M75.05,-216.76C79.49,-208.78 84.97,-198.95 90.02,-189.89"/>
<polygon fill="black" stroke="black" points="92.91,-191.89 94.72,-181.45 86.8,-188.48 92.91,-191.89"/>
</g>
<!-- istack_in -->
<g id="node2" class="node">
<title>istack_in</title>
<ellipse fill="lightblue" stroke="black" cx="189" cy="-162" rx="32.41" ry="18"/>
<text xml:space="preserve" text-anchor="middle" x="189" y="-156.95" font-family="Times New Roman,serif" font-size="14.00">istack</text>
</g>
<!-- op_assign -->
<g id="node5" class="node">
<title>op_assign</title>
<polygon fill="none" stroke="black" points="174,-108 120,-108 120,-72 174,-72 174,-108"/>
<text xml:space="preserve" text-anchor="middle" x="147" y="-84.95" font-family="Times New Roman,serif" font-size="14.00">Assign</text>
</g>
<!-- istack_in&#45;&gt;op_assign -->
<g id="edge5" class="edge">
<title>istack_in&#45;&gt;op_assign</title>
<path fill="none" stroke="black" d="M179.05,-144.41C174.32,-136.54 168.56,-126.93 163.23,-118.04"/>
<polygon fill="black" stroke="black" points="166.39,-116.52 158.25,-109.74 160.39,-120.12 166.39,-116.52"/>
</g>
<!-- arr_out -->
<g id="node6" class="node">
<title>arr_out</title>
<ellipse fill="lightgreen" stroke="black" cx="27" cy="-90" rx="27" ry="18"/>
<text xml:space="preserve" text-anchor="middle" x="27" y="-84.95" font-family="Times New Roman,serif" font-size="14.00">arr</text>
</g>
<!-- op_swap&#45;&gt;arr_out -->
<g id="edge3" class="edge">
<title>op_swap&#45;&gt;arr_out</title>
<path fill="none" stroke="black" d="M27,-143.7C27,-136.41 27,-127.73 27,-119.54"/>
<polygon fill="black" stroke="black" points="30.5,-119.62 27,-109.62 23.5,-119.62 30.5,-119.62"/>
</g>
<!-- op_compare&#45;&gt;op_assign -->
<g id="edge4" class="edge">
<title>op_compare&#45;&gt;op_assign</title>
<path fill="none" stroke="black" d="M115.38,-143.7C120.06,-135.9 125.69,-126.51 130.9,-117.83"/>
<polygon fill="black" stroke="black" points="133.81,-119.78 135.96,-109.4 127.81,-116.18 133.81,-119.78"/>
</g>
<!-- istack_out -->
<g id="node7" class="node">
<title>istack_out</title>
<ellipse fill="lightgreen" stroke="black" cx="147" cy="-18" rx="32.41" ry="18"/>
<text xml:space="preserve" text-anchor="middle" x="147" y="-12.95" font-family="Times New Roman,serif" font-size="14.00">istack</text>
</g>
<!-- op_assign&#45;&gt;istack_out -->
<g id="edge6" class="edge">
<title>op_assign&#45;&gt;istack_out</title>
<path fill="none" stroke="black" d="M147,-71.7C147,-64.41 147,-55.73 147,-47.54"/>
<polygon fill="black" stroke="black" points="150.5,-47.62 147,-37.62 143.5,-47.62 150.5,-47.62"/>
</g>
</g>
</svg>
