<?xml version="1.0" encoding="UTF-8" standalone="no"?>
<!DOCTYPE svg PUBLIC "-//W3C//DTD SVG 1.1//EN"
 "http://www.w3.org/Graphics/SVG/1.1/DTD/svg11.dtd">
<!-- Generated by graphviz version 13.1.2 (20250808.2320)
 -->
<!-- Title: sort_CFG Pages: 1 -->
<svg width="951pt" height="1196pt"
 viewBox="0.00 0.00 951.00 1196.00" xmlns="http://www.w3.org/2000/svg" xmlns:xlink="http://www.w3.org/1999/xlink">
<g id="graph0" class="graph" transform="scale(1 1) rotate(0) translate(4 1191.77)">
<title>sort_CFG</title>
<polygon fill="white" stroke="none" points="-4,4 -4,-1191.77 946.88,-1191.77 946.88,4 -4,4"/>
<!-- N1 -->
<g id="node1" class="node">
<title>N1</title>
<path fill="none" stroke="black" d="M930.88,-1187.77C930.88,-1187.77 617.12,-1187.77 617.12,-1187.77 611.12,-1187.77 605.12,-1181.77 605.12,-1175.77 605.12,-1175.77 605.12,-1163.77 605.12,-1163.77 605.12,-1157.77 611.12,-1151.77 617.12,-1151.77 617.12,-1151.77 930.88,-1151.77 930.88,-1151.77 936.88,-1151.77 942.88,-1157.77 942.88,-1163.77 942.88,-1163.77 942.88,-1175.77 942.88,-1175.77 942.88,-1181.77 936.88,-1187.77 930.88,-1187.77"/>
<text xml:space="preserve" text-anchor="middle" x="774" y="-1164.72" font-family="Courier,monospace" font-size="14.00">1: i, ir=n, j, k, l=1, jstack=0, flag=0</text>
</g>
<!-- N2 -->
<g id="node2" class="node">
<title>N2</title>
<path fill="none" stroke="black" d="M815.38,-1114.77C815.38,-1114.77 732.62,-1114.77 732.62,-1114.77 726.62,-1114.77 720.62,-1108.77 720.62,-1102.77 720.62,-1102.77 720.62,-1090.77 720.62,-1090.77 720.62,-1084.77 726.62,-1078.77 732.62,-1078.77 732.62,-1078.77 815.38,-1078.77 815.38,-1078.77 821.38,-1078.77 827.38,-1084.77 827.38,-1090.77 827.38,-1090.77 827.38,-1102.77 827.38,-1102.77 827.38,-1108.77 821.38,-1114.77 815.38,-1114.77"/>
<text xml:space="preserve" text-anchor="middle" x="774" y="-1091.72" font-family="Courier,monospace" font-size="14.00">2: for (;;)</text>
</g>
<!-- N1&#45;&gt;N2 -->
<g id="edge1" class="edge">
<title>N1&#45;&gt;N2</title>
<path fill="none" stroke="black" d="M774,-1151.59C774,-1144 774,-1134.87 774,-1126.31"/>
<polygon fill="black" stroke="black" points="777.5,-1126.32 774,-1116.32 770.5,-1126.32 777.5,-1126.32"/>
</g>
<!-- N3 -->
<g id="node3" class="node">
<title>N3</title>
<path fill="none" stroke="black" d="M653,-1041.77C653,-1041.77 529,-1041.77 529,-1041.77 523,-1041.77 517,-1035.77 517,-1029.77 517,-1029.77 517,-1017.77 517,-1017.77 517,-1011.77 523,-1005.77 529,-1005.77 529,-1005.77 653,-1005.77 653,-1005.77 659,-1005.77 665,-1011.77 665,-1017.77 665,-1017.77 665,-1029.77 665,-1029.77 665,-1035.77 659,-1041.77 653,-1041.77"/>
<text xml:space="preserve" text-anchor="middle" x="591" y="-1018.72" font-family="Courier,monospace" font-size="14.00">3: if (ir&#45;l &lt; M)</text>
</g>
<!-- N2&#45;&gt;N3 -->
<g id="edge2" class="edge">
<title>N2&#45;&gt;N3</title>
<path fill="none" stroke="black" d="M729.23,-1078.4C704.31,-1068.73 673.06,-1056.61 646.58,-1046.34"/>
<polygon fill="black" stroke="black" points="647.94,-1043.11 637.35,-1042.76 645.41,-1049.64 647.94,-1043.11"/>
</g>
<!-- N4 -->
<g id="node4" class="node">
<title>N4</title>
<path fill="none" stroke="black" d="M714.88,-945.02C714.88,-945.02 467.12,-945.02 467.12,-945.02 461.12,-945.02 455.12,-939.02 455.12,-933.02 455.12,-933.02 455.12,-850.02 455.12,-850.02 455.12,-844.02 461.12,-838.02 467.12,-838.02 467.12,-838.02 714.88,-838.02 714.88,-838.02 720.88,-838.02 726.88,-844.02 726.88,-850.02 726.88,-850.02 726.88,-933.02 726.88,-933.02 726.88,-939.02 720.88,-945.02 714.88,-945.02"/>
<text xml:space="preserve" text-anchor="start" x="463.12" y="-927.72" font-family="Courier,monospace" font-size="14.00">4: for (j=l+1; j&lt;=ir; j++)</text>
<text xml:space="preserve" text-anchor="start" x="463.12" y="-911.22" font-family="Courier,monospace" font-size="14.00"> &#160;&#160;&#160;a=arr[j];</text>
<text xml:space="preserve" text-anchor="start" x="463.12" y="-894.72" font-family="Courier,monospace" font-size="14.00"> &#160;&#160;&#160;for (i=j&#45;1; i&gt;=l; i&#45;&#45;)</text>
<text xml:space="preserve" text-anchor="start" x="463.12" y="-878.22" font-family="Courier,monospace" font-size="14.00"> &#160;&#160;&#160;&#160;&#160;&#160;&#160;if (arr[i] &lt;= a) break;</text>
<text xml:space="preserve" text-anchor="start" x="463.12" y="-861.72" font-family="Courier,monospace" font-size="14.00"> &#160;&#160;&#160;&#160;&#160;&#160;&#160;arr[i+1]=arr[i];</text>
<text xml:space="preserve" text-anchor="middle" x="591" y="-845.22" font-family="Courier,monospace" font-size="14.00"> &#160;&#160;&#160;arr[i+1]=a;</text>
</g>
<!-- N3&#45;&gt;N4 -->
<g id="edge3" class="edge">
<title>N3&#45;&gt;N4</title>
<path fill="none" stroke="black" d="M591,-1005.48C591,-992.81 591,-974.78 591,-956.82"/>
<polygon fill="black" stroke="black" points="594.5,-956.91 591,-946.91 587.5,-956.91 594.5,-956.91"/>
<text xml:space="preserve" text-anchor="middle" x="601.5" y="-974.47" font-family="Times New Roman,serif" font-size="14.00">true</text>
</g>
<!-- N8 -->
<g id="node8" class="node">
<title>N8</title>
<path fill="none" stroke="black" d="M425.38,-953.27C425.38,-953.27 12.62,-953.27 12.62,-953.27 6.62,-953.27 0.62,-947.27 0.62,-941.27 0.62,-941.27 0.62,-841.77 0.62,-841.77 0.62,-835.77 6.62,-829.77 12.62,-829.77 12.62,-829.77 425.38,-829.77 425.38,-829.77 431.38,-829.77 437.38,-835.77 437.38,-841.77 437.38,-841.77 437.38,-941.27 437.38,-941.27 437.38,-947.27 431.38,-953.27 425.38,-953.27"/>
<text xml:space="preserve" text-anchor="start" x="8.62" y="-935.97" font-family="Courier,monospace" font-size="14.00">8: else</text>
<text xml:space="preserve" text-anchor="start" x="8.62" y="-919.47" font-family="Courier,monospace" font-size="14.00"> &#160;&#160;&#160;k=(l+ir)&gt;&gt;1;</text>
<text xml:space="preserve" text-anchor="start" x="8.62" y="-902.97" font-family="Courier,monospace" font-size="14.00"> &#160;&#160;&#160;SWAP(arr[k],arr[l+1]);</text>
<text xml:space="preserve" text-anchor="start" x="8.62" y="-886.47" font-family="Courier,monospace" font-size="14.00"> &#160;&#160;&#160;if (arr[l] &gt; arr[ir]) SWAP(arr[l],arr[ir]);</text>
<text xml:space="preserve" text-anchor="start" x="8.62" y="-869.97" font-family="Courier,monospace" font-size="14.00"> &#160;&#160;&#160;if (arr[l+1] &gt; arr[ir]) SWAP(arr[l+1],arr[ir]);</text>
<text xml:space="preserve" text-anchor="start" x="8.62" y="-853.47" font-family="Courier,monospace" font-size="14.00"> &#160;&#160;&#160;if (arr[l] &gt; arr[l+1]) SWAP(arr[l],arr[l+1]);</text>
<text xml:space="preserve" text-anchor="middle" x="219" y="-836.97" font-family="Courier,monospace" font-size="14.00"> &#160;&#160;&#160;i=l+1; j=ir; a=arr[l+1];</text>
</g>
<!-- N3&#45;&gt;N8 -->
<g id="edge4" class="edge">
<title>N3&#45;&gt;N8</title>
<path fill="none" stroke="black" d="M541.22,-1005.34C505.54,-992.85 455.07,-975.18 404.64,-957.52"/>
<polygon fill="black" stroke="black" points="405.9,-954.26 395.31,-954.25 403.59,-960.86 405.9,-954.26"/>
<text xml:space="preserve" text-anchor="middle" x="493.83" y="-974.47" font-family="Times New Roman,serif" font-size="14.00">false</text>
</g>
<!-- N5 -->
<g id="node5" class="node">
<title>N5</title>
<path fill="none" stroke="black" d="M665.38,-792.77C665.38,-792.77 516.62,-792.77 516.62,-792.77 510.62,-792.77 504.62,-786.77 504.62,-780.77 504.62,-780.77 504.62,-768.77 504.62,-768.77 504.62,-762.77 510.62,-756.77 516.62,-756.77 516.62,-756.77 665.38,-756.77 665.38,-756.77 671.38,-756.77 677.38,-762.77 677.38,-768.77 677.38,-768.77 677.38,-780.77 677.38,-780.77 677.38,-786.77 671.38,-792.77 665.38,-792.77"/>
<text xml:space="preserve" text-anchor="middle" x="591" y="-769.72" font-family="Courier,monospace" font-size="14.00">5: if (jstack == 0)</text>
</g>
<!-- N4&#45;&gt;N5 -->
<g id="edge5" class="edge">
<title>N4&#45;&gt;N5</title>
<path fill="none" stroke="black" d="M591,-837.85C591,-826.37 591,-814.64 591,-804.51"/>
<polygon fill="black" stroke="black" points="594.5,-804.59 591,-794.59 587.5,-804.59 594.5,-804.59"/>
</g>
<!-- N6 -->
<g id="node6" class="node">
<title>N6</title>
<path fill="none" stroke="black" d="M529.12,-701.77C529.12,-701.77 462.88,-701.77 462.88,-701.77 456.88,-701.77 450.88,-695.77 450.88,-689.77 450.88,-689.77 450.88,-677.77 450.88,-677.77 450.88,-671.77 456.88,-665.77 462.88,-665.77 462.88,-665.77 529.12,-665.77 529.12,-665.77 535.12,-665.77 541.12,-671.77 541.12,-677.77 541.12,-677.77 541.12,-689.77 541.12,-689.77 541.12,-695.77 535.12,-701.77 529.12,-701.77"/>
<text xml:space="preserve" text-anchor="middle" x="496" y="-678.72" font-family="Courier,monospace" font-size="14.00">6: break;</text>
</g>
<!-- N5&#45;&gt;N6 -->
<g id="edge6" class="edge">
<title>N5&#45;&gt;N6</title>
<path fill="none" stroke="black" d="M572.68,-756.61C558.58,-743.4 538.87,-724.94 522.97,-710.04"/>
<polygon fill="black" stroke="black" points="525.38,-707.5 515.69,-703.22 520.59,-712.61 525.38,-707.5"/>
<text xml:space="preserve" text-anchor="middle" x="562.51" y="-725.47" font-family="Times New Roman,serif" font-size="14.00">true</text>
</g>
<!-- N7 -->
<g id="node7" class="node">
<title>N7</title>
<path fill="none" stroke="black" d="M752.88,-704.27C752.88,-704.27 571.12,-704.27 571.12,-704.27 565.12,-704.27 559.12,-698.27 559.12,-692.27 559.12,-692.27 559.12,-675.27 559.12,-675.27 559.12,-669.27 565.12,-663.27 571.12,-663.27 571.12,-663.27 752.88,-663.27 752.88,-663.27 758.88,-663.27 764.88,-669.27 764.88,-675.27 764.88,-675.27 764.88,-692.27 764.88,-692.27 764.88,-698.27 758.88,-704.27 752.88,-704.27"/>
<text xml:space="preserve" text-anchor="start" x="567.12" y="-686.97" font-family="Courier,monospace" font-size="14.00">7: ir=istack[jstack&#45;&#45;];</text>
<text xml:space="preserve" text-anchor="middle" x="662" y="-670.47" font-family="Courier,monospace" font-size="14.00"> &#160;&#160;&#160;l=istack[jstack&#45;&#45;];</text>
</g>
<!-- N5&#45;&gt;N7 -->
<g id="edge7" class="edge">
<title>N5&#45;&gt;N7</title>
<path fill="none" stroke="black" d="M604.69,-756.61C614.41,-744.43 627.69,-727.79 639.02,-713.58"/>
<polygon fill="black" stroke="black" points="641.68,-715.86 645.18,-705.86 636.21,-711.49 641.68,-715.86"/>
<text xml:space="preserve" text-anchor="middle" x="643.5" y="-725.47" font-family="Times New Roman,serif" font-size="14.00">false</text>
</g>
<!-- N18 -->
<g id="node18" class="node">
<title>N18</title>
<ellipse fill="none" stroke="black" cx="555" cy="-504.39" rx="117.89" ry="117.89"/>
<ellipse fill="none" stroke="black" cx="555" cy="-504.39" rx="121.89" ry="121.89"/>
<text xml:space="preserve" text-anchor="middle" x="555" y="-499.34" font-family="Courier,monospace" font-size="14.00">18: End of function</text>
</g>
<!-- N6&#45;&gt;N18 -->
<g id="edge8" class="edge">
<title>N6&#45;&gt;N18</title>
<path fill="none" stroke="black" d="M501.76,-665.44C504.76,-656.43 508.72,-644.53 513.13,-631.28"/>
<polygon fill="black" stroke="black" points="516.43,-632.43 516.27,-621.83 509.79,-630.22 516.43,-632.43"/>
</g>
<!-- N7&#45;&gt;N2 -->
<g id="edge9" class="edge">
<title>N7&#45;&gt;N2</title>
<path fill="none" stroke="black" d="M703.6,-704.74C728.37,-719.82 755,-743.16 755,-773.77 755,-1024.77 755,-1024.77 755,-1024.77 755,-1039.28 758.75,-1054.91 762.91,-1067.8"/>
<polygon fill="black" stroke="black" points="759.49,-1068.61 766.1,-1076.89 766.1,-1066.3 759.49,-1068.61"/>
</g>
<!-- N9 -->
<g id="node9" class="node">
<title>N9</title>
<path fill="none" stroke="black" d="M260.38,-792.77C260.38,-792.77 177.62,-792.77 177.62,-792.77 171.62,-792.77 165.62,-786.77 165.62,-780.77 165.62,-780.77 165.62,-768.77 165.62,-768.77 165.62,-762.77 171.62,-756.77 177.62,-756.77 177.62,-756.77 260.38,-756.77 260.38,-756.77 266.38,-756.77 272.38,-762.77 272.38,-768.77 272.38,-768.77 272.38,-780.77 272.38,-780.77 272.38,-786.77 266.38,-792.77 260.38,-792.77"/>
<text xml:space="preserve" text-anchor="middle" x="219" y="-769.72" font-family="Courier,monospace" font-size="14.00">9: for (;;)</text>
</g>
<!-- N8&#45;&gt;N9 -->
<g id="edge10" class="edge">
<title>N8&#45;&gt;N9</title>
<path fill="none" stroke="black" d="M219,-829.45C219,-820.6 219,-811.87 219,-804.1"/>
<polygon fill="black" stroke="black" points="222.5,-804.32 219,-794.32 215.5,-804.32 222.5,-804.32"/>
</g>
<!-- N10 -->
<g id="node10" class="node">
<title>N10</title>
<path fill="none" stroke="black" d="M403,-701.77C403,-701.77 147,-701.77 147,-701.77 141,-701.77 135,-695.77 135,-689.77 135,-689.77 135,-677.77 135,-677.77 135,-671.77 141,-665.77 147,-665.77 147,-665.77 403,-665.77 403,-665.77 409,-665.77 415,-671.77 415,-677.77 415,-677.77 415,-689.77 415,-689.77 415,-695.77 409,-701.77 403,-701.77"/>
<text xml:space="preserve" text-anchor="middle" x="275" y="-678.72" font-family="Courier,monospace" font-size="14.00">10: i++; while (arr[i] &lt; a) i++;</text>
</g>
<!-- N9&#45;&gt;N10 -->
<g id="edge11" class="edge">
<title>N9&#45;&gt;N10</title>
<path fill="none" stroke="black" d="M229.8,-756.61C237.8,-743.89 248.87,-726.3 258.05,-711.71"/>
<polygon fill="black" stroke="black" points="260.88,-713.79 263.24,-703.47 254.95,-710.07 260.88,-713.79"/>
</g>
<!-- N11 -->
<g id="node11" class="node">
<title>N11</title>
<path fill="none" stroke="black" d="M403,-522.39C403,-522.39 147,-522.39 147,-522.39 141,-522.39 135,-516.39 135,-510.39 135,-510.39 135,-498.39 135,-498.39 135,-492.39 141,-486.39 147,-486.39 147,-486.39 403,-486.39 403,-486.39 409,-486.39 415,-492.39 415,-498.39 415,-498.39 415,-510.39 415,-510.39 415,-516.39 409,-522.39 403,-522.39"/>
<text xml:space="preserve" text-anchor="middle" x="275" y="-499.34" font-family="Courier,monospace" font-size="14.00">11: j&#45;&#45;; while (arr[j] &gt; a) j&#45;&#45;;</text>
</g>
<!-- N10&#45;&gt;N11 -->
<g id="edge12" class="edge">
<title>N10&#45;&gt;N11</title>
<path fill="none" stroke="black" d="M275,-665.44C275,-634.84 275,-570.97 275,-533.83"/>
<polygon fill="black" stroke="black" points="278.5,-534.3 275,-524.3 271.5,-534.3 278.5,-534.3"/>
</g>
<!-- N12 -->
<g id="node12" class="node">
<title>N12</title>
<path fill="none" stroke="black" d="M357.62,-345.5C357.62,-345.5 192.38,-345.5 192.38,-345.5 186.38,-345.5 180.38,-339.5 180.38,-333.5 180.38,-333.5 180.38,-321.5 180.38,-321.5 180.38,-315.5 186.38,-309.5 192.38,-309.5 192.38,-309.5 357.62,-309.5 357.62,-309.5 363.62,-309.5 369.62,-315.5 369.62,-321.5 369.62,-321.5 369.62,-333.5 369.62,-333.5 369.62,-339.5 363.62,-345.5 357.62,-345.5"/>
<text xml:space="preserve" text-anchor="middle" x="275" y="-322.45" font-family="Courier,monospace" font-size="14.00">12: if (j &lt; i) break;</text>
</g>
<!-- N11&#45;&gt;N12 -->
<g id="edge13" class="edge">
<title>N11&#45;&gt;N12</title>
<path fill="none" stroke="black" d="M275,-485.98C275,-455.86 275,-393.75 275,-357.18"/>
<polygon fill="black" stroke="black" points="278.5,-357.35 275,-347.35 271.5,-357.35 278.5,-357.35"/>
</g>
<!-- N13 -->
<g id="node13" class="node">
<title>N13</title>
<path fill="none" stroke="black" d="M202,-246.25C202,-246.25 12,-246.25 12,-246.25 6,-246.25 0,-240.25 0,-234.25 0,-234.25 0,-222.25 0,-222.25 0,-216.25 6,-210.25 12,-210.25 12,-210.25 202,-210.25 202,-210.25 208,-210.25 214,-216.25 214,-222.25 214,-222.25 214,-234.25 214,-234.25 214,-240.25 208,-246.25 202,-246.25"/>
<text xml:space="preserve" text-anchor="middle" x="107" y="-223.2" font-family="Courier,monospace" font-size="14.00">13: SWAP(arr[i],arr[j]);</text>
</g>
<!-- N12&#45;&gt;N13 -->
<g id="edge14" class="edge">
<title>N12&#45;&gt;N13</title>
<path fill="none" stroke="black" d="M244.96,-309.11C217.58,-293.26 176.91,-269.72 146.82,-252.3"/>
<polygon fill="black" stroke="black" points="148.78,-249.39 138.37,-247.41 145.27,-255.45 148.78,-249.39"/>
<text xml:space="preserve" text-anchor="middle" x="223.74" y="-278.2" font-family="Times New Roman,serif" font-size="14.00">false</text>
</g>
<!-- N14 -->
<g id="node14" class="node">
<title>N14</title>
<path fill="none" stroke="black" d="M401.5,-257C401.5,-257 244.5,-257 244.5,-257 238.5,-257 232.5,-251 232.5,-245 232.5,-245 232.5,-211.5 232.5,-211.5 232.5,-205.5 238.5,-199.5 244.5,-199.5 244.5,-199.5 401.5,-199.5 401.5,-199.5 407.5,-199.5 413.5,-205.5 413.5,-211.5 413.5,-211.5 413.5,-245 413.5,-245 413.5,-251 407.5,-257 401.5,-257"/>
<text xml:space="preserve" text-anchor="start" x="240.5" y="-239.7" font-family="Courier,monospace" font-size="14.00">14: arr[l+1]=arr[j];</text>
<text xml:space="preserve" text-anchor="start" x="240.5" y="-223.2" font-family="Courier,monospace" font-size="14.00"> &#160;&#160;&#160;&#160;arr[j]=a;</text>
<text xml:space="preserve" text-anchor="middle" x="323" y="-206.7" font-family="Courier,monospace" font-size="14.00"> &#160;&#160;&#160;&#160;jstack += 2;</text>
</g>
<!-- N12&#45;&gt;N14 -->
<g id="edge15" class="edge">
<title>N12&#45;&gt;N14</title>
<path fill="none" stroke="black" d="M283.58,-309.11C289.31,-297.51 297.07,-281.78 304.19,-267.36"/>
<polygon fill="black" stroke="black" points="307.27,-269.03 308.56,-258.52 300.99,-265.93 307.27,-269.03"/>
<text xml:space="preserve" text-anchor="middle" x="309.5" y="-278.2" font-family="Times New Roman,serif" font-size="14.00">true</text>
</g>
<!-- N13&#45;&gt;N9 -->
<g id="edge16" class="edge">
<title>N13&#45;&gt;N9</title>
<path fill="none" stroke="black" d="M107,-246.47C107,-265.9 107,-298.47 107,-326.5 107,-684.77 107,-684.77 107,-684.77 107,-715.16 132.59,-736.84 159.31,-751.18"/>
<polygon fill="black" stroke="black" points="157.69,-754.29 168.2,-755.64 160.83,-748.03 157.69,-754.29"/>
</g>
<!-- N15 -->
<g id="node15" class="node">
<title>N15</title>
<path fill="none" stroke="black" d="M685.75,-162.5C685.75,-162.5 512.25,-162.5 512.25,-162.5 506.25,-162.5 500.25,-156.5 500.25,-150.5 500.25,-150.5 500.25,-138.5 500.25,-138.5 500.25,-132.5 506.25,-126.5 512.25,-126.5 512.25,-126.5 685.75,-126.5 685.75,-126.5 691.75,-126.5 697.75,-132.5 697.75,-138.5 697.75,-138.5 697.75,-150.5 697.75,-150.5 697.75,-156.5 691.75,-162.5 685.75,-162.5"/>
<text xml:space="preserve" text-anchor="middle" x="599" y="-139.45" font-family="Courier,monospace" font-size="14.00">15: if (ir&#45;i+1 &gt;= j&#45;l)</text>
</g>
<!-- N14&#45;&gt;N15 -->
<g id="edge17" class="edge">
<title>N14&#45;&gt;N15</title>
<path fill="none" stroke="black" d="M413.75,-200.37C451.49,-189.19 494.58,-176.43 529.7,-166.03"/>
<polygon fill="black" stroke="black" points="530.28,-169.5 538.88,-163.31 528.3,-162.79 530.28,-169.5"/>
</g>
<!-- N16 -->
<g id="node16" class="node">
<title>N16</title>
<path fill="none" stroke="black" d="M694,-65.75C694,-65.75 504,-65.75 504,-65.75 498,-65.75 492,-59.75 492,-53.75 492,-53.75 492,-20.25 492,-20.25 492,-14.25 498,-8.25 504,-8.25 504,-8.25 694,-8.25 694,-8.25 700,-8.25 706,-14.25 706,-20.25 706,-20.25 706,-53.75 706,-53.75 706,-59.75 700,-65.75 694,-65.75"/>
<text xml:space="preserve" text-anchor="start" x="500" y="-48.45" font-family="Courier,monospace" font-size="14.00">16: istack[jstack]=ir;</text>
<text xml:space="preserve" text-anchor="start" x="500" y="-31.95" font-family="Courier,monospace" font-size="14.00"> &#160;&#160;&#160;&#160;istack[jstack&#45;1]=i;</text>
<text xml:space="preserve" text-anchor="middle" x="599" y="-15.45" font-family="Courier,monospace" font-size="14.00"> &#160;&#160;&#160;&#160;ir=j&#45;1;</text>
</g>
<!-- N15&#45;&gt;N16 -->
<g id="edge18" class="edge">
<title>N15&#45;&gt;N16</title>
<path fill="none" stroke="black" d="M599,-126.08C599,-112.86 599,-94.16 599,-77.39"/>
<polygon fill="black" stroke="black" points="602.5,-77.69 599,-67.69 595.5,-77.69 602.5,-77.69"/>
<text xml:space="preserve" text-anchor="middle" x="609.5" y="-95.2" font-family="Times New Roman,serif" font-size="14.00">true</text>
</g>
<!-- N17 -->
<g id="node17" class="node">
<title>N17</title>
<path fill="none" stroke="black" d="M926,-74C926,-74 736,-74 736,-74 730,-74 724,-68 724,-62 724,-62 724,-12 724,-12 724,-6 730,0 736,0 736,0 926,0 926,0 932,0 938,-6 938,-12 938,-12 938,-62 938,-62 938,-68 932,-74 926,-74"/>
<text xml:space="preserve" text-anchor="start" x="732" y="-56.7" font-family="Courier,monospace" font-size="14.00">17: else</text>
<text xml:space="preserve" text-anchor="start" x="732" y="-40.2" font-family="Courier,monospace" font-size="14.00"> &#160;&#160;&#160;&#160;istack[jstack]=j&#45;1;</text>
<text xml:space="preserve" text-anchor="start" x="732" y="-23.7" font-family="Courier,monospace" font-size="14.00"> &#160;&#160;&#160;&#160;istack[jstack&#45;1]=l;</text>
<text xml:space="preserve" text-anchor="middle" x="831" y="-7.2" font-family="Courier,monospace" font-size="14.00"> &#160;&#160;&#160;&#160;l=i;</text>
</g>
<!-- N15&#45;&gt;N17 -->
<g id="edge19" class="edge">
<title>N15&#45;&gt;N17</title>
<path fill="none" stroke="black" d="M637.31,-126.08C665.43,-113.29 704.81,-95.38 740.73,-79.05"/>
<polygon fill="black" stroke="black" points="741.73,-82.44 749.38,-75.12 738.83,-76.07 741.73,-82.44"/>
<text xml:space="preserve" text-anchor="middle" x="720.79" y="-95.2" font-family="Times New Roman,serif" font-size="14.00">false</text>
</g>
<!-- N16&#45;&gt;N2 -->
<g id="edge20" class="edge">
<title>N16&#45;&gt;N2</title>
<path fill="none" stroke="black" d="M680.71,-66.16C733.73,-87 793,-116.38 793,-143.5 793,-1024.77 793,-1024.77 793,-1024.77 793,-1039.28 789.25,-1054.91 785.09,-1067.8"/>
<polygon fill="black" stroke="black" points="781.9,-1066.3 781.9,-1076.89 788.51,-1068.61 781.9,-1066.3"/>
</g>
<!-- N17&#45;&gt;N2 -->
<g id="edge21" class="edge">
<title>N17&#45;&gt;N2</title>
<path fill="none" stroke="black" d="M831,-74.13C831,-94.5 831,-120.42 831,-143.5 831,-1024.77 831,-1024.77 831,-1024.77 831,-1042.67 819.85,-1058.62 807.42,-1070.85"/>
<polygon fill="black" stroke="black" points="805.35,-1068 800.29,-1077.31 810.05,-1073.19 805.35,-1068"/>
</g>
</g>
</svg>
