<?xml version="1.0" encoding="UTF-8" standalone="no"?>
<!DOCTYPE svg PUBLIC "-//W3C//DTD SVG 1.1//EN"
 "http://www.w3.org/Graphics/SVG/1.1/DTD/svg11.dtd">
<!-- Generated by graphviz version 13.1.2 (20250808.2320)
 -->
<!-- Title: ADPCM_CFG Pages: 1 -->
<svg width="500pt" height="439pt"
 viewBox="0.00 0.00 500.00 439.00" xmlns="http://www.w3.org/2000/svg" xmlns:xlink="http://www.w3.org/1999/xlink">
<g id="graph0" class="graph" transform="scale(1 1) rotate(0) translate(4 434.5)">
<title>ADPCM_CFG</title>
<polygon fill="white" stroke="none" points="-4,4 -4,-434.5 496.12,-434.5 496.12,4 -4,4"/>
<!-- N1 -->
<g id="node1" class="node">
<title>N1</title>
<path fill="none" stroke="black" d="M236.38,-430.5C236.38,-430.5 175.38,-430.5 175.38,-430.5 169.38,-430.5 163.38,-424.5 163.38,-418.5 163.38,-418.5 163.38,-406.5 163.38,-406.5 163.38,-400.5 169.38,-394.5 175.38,-394.5 175.38,-394.5 236.38,-394.5 236.38,-394.5 242.38,-394.5 248.38,-400.5 248.38,-406.5 248.38,-406.5 248.38,-418.5 248.38,-418.5 248.38,-424.5 242.38,-430.5 236.38,-430.5"/>
<text xml:space="preserve" text-anchor="middle" x="205.88" y="-407.07" font-family="Helvetica,sans-Serif" font-size="14.00">main: Inicio</text>
</g>
<!-- N2 -->
<g id="node2" class="node">
<title>N2</title>
<path fill="none" stroke="black" d="M275,-357.5C275,-357.5 136.75,-357.5 136.75,-357.5 130.75,-357.5 124.75,-351.5 124.75,-345.5 124.75,-345.5 124.75,-333.5 124.75,-333.5 124.75,-327.5 130.75,-321.5 136.75,-321.5 136.75,-321.5 275,-321.5 275,-321.5 281,-321.5 287,-327.5 287,-333.5 287,-333.5 287,-345.5 287,-345.5 287,-351.5 281,-357.5 275,-357.5"/>
<text xml:space="preserve" text-anchor="middle" x="205.88" y="-334.07" font-family="Helvetica,sans-Serif" font-size="14.00">reset: Inicializa variaveis</text>
</g>
<!-- N1&#45;&gt;N2 -->
<g id="edge1" class="edge">
<title>N1&#45;&gt;N2</title>
<path fill="none" stroke="black" d="M205.88,-394.31C205.88,-386.73 205.88,-377.6 205.88,-369.04"/>
<polygon fill="black" stroke="black" points="209.38,-369.04 205.88,-359.04 202.38,-369.04 209.38,-369.04"/>
</g>
<!-- N3 -->
<g id="node3" class="node">
<title>N3</title>
<path fill="none" stroke="black" d="M274.62,-284.5C274.62,-284.5 137.12,-284.5 137.12,-284.5 131.12,-284.5 125.12,-278.5 125.12,-272.5 125.12,-272.5 125.12,-260.5 125.12,-260.5 125.12,-254.5 131.12,-248.5 137.12,-248.5 137.12,-248.5 274.62,-248.5 274.62,-248.5 280.62,-248.5 286.62,-254.5 286.62,-260.5 286.62,-260.5 286.62,-272.5 286.62,-272.5 286.62,-278.5 280.62,-284.5 274.62,-284.5"/>
<text xml:space="preserve" text-anchor="middle" x="205.88" y="-261.07" font-family="Helvetica,sans-Serif" font-size="14.00">Loop principal (i &lt; SIZE)</text>
</g>
<!-- N2&#45;&gt;N3 -->
<g id="edge2" class="edge">
<title>N2&#45;&gt;N3</title>
<path fill="none" stroke="black" d="M205.88,-321.31C205.88,-313.73 205.88,-304.6 205.88,-296.04"/>
<polygon fill="black" stroke="black" points="209.38,-296.04 205.88,-286.04 202.38,-296.04 209.38,-296.04"/>
</g>
<!-- N4 -->
<g id="node4" class="node">
<title>N4</title>
<path fill="none" stroke="black" d="M157.75,-196.75C157.75,-196.75 12,-196.75 12,-196.75 6,-196.75 0,-190.75 0,-184.75 0,-184.75 0,-172.75 0,-172.75 0,-166.75 6,-160.75 12,-160.75 12,-160.75 157.75,-160.75 157.75,-160.75 163.75,-160.75 169.75,-166.75 169.75,-172.75 169.75,-172.75 169.75,-184.75 169.75,-184.75 169.75,-190.75 163.75,-196.75 157.75,-196.75"/>
<text xml:space="preserve" text-anchor="middle" x="84.88" y="-173.32" font-family="Helvetica,sans-Serif" font-size="14.00">my_cos: Calcula cosseno</text>
</g>
<!-- N3&#45;&gt;N4 -->
<g id="edge3" class="edge">
<title>N3&#45;&gt;N4</title>
<path fill="none" stroke="black" d="M124.89,-248.35C115.52,-243.75 106.77,-237.91 99.62,-230.5 93.73,-224.4 90.18,-216.09 88.03,-207.95"/>
<polygon fill="black" stroke="black" points="91.5,-207.45 86.14,-198.32 84.63,-208.8 91.5,-207.45"/>
<text xml:space="preserve" text-anchor="middle" x="145.75" y="-217.2" font-family="Helvetica,sans-Serif" font-size="14.00">chama my_cos</text>
</g>
<!-- N6 -->
<g id="node6" class="node">
<title>N6</title>
<path fill="none" stroke="black" d="M469.38,-196.75C469.38,-196.75 336.38,-196.75 336.38,-196.75 330.38,-196.75 324.38,-190.75 324.38,-184.75 324.38,-184.75 324.38,-172.75 324.38,-172.75 324.38,-166.75 330.38,-160.75 336.38,-160.75 336.38,-160.75 469.38,-160.75 469.38,-160.75 475.38,-160.75 481.38,-166.75 481.38,-172.75 481.38,-172.75 481.38,-184.75 481.38,-184.75 481.38,-190.75 475.38,-196.75 469.38,-196.75"/>
<text xml:space="preserve" text-anchor="middle" x="402.88" y="-173.32" font-family="Helvetica,sans-Serif" font-size="14.00">encode: Codifica dados</text>
</g>
<!-- N3&#45;&gt;N6 -->
<g id="edge6" class="edge">
<title>N3&#45;&gt;N6</title>
<path fill="none" stroke="black" d="M245.74,-248.15C276.48,-234.77 319.2,-216.17 352.34,-201.75"/>
<polygon fill="black" stroke="black" points="353.57,-205.03 361.34,-197.83 350.78,-198.61 353.57,-205.03"/>
<text xml:space="preserve" text-anchor="middle" x="366.64" y="-217.2" font-family="Helvetica,sans-Serif" font-size="14.00">chama encode</text>
</g>
<!-- N5 -->
<g id="node5" class="node">
<title>N5</title>
<path fill="none" stroke="black" d="M206.38,-109C206.38,-109 85.38,-109 85.38,-109 79.38,-109 73.38,-103 73.38,-97 73.38,-97 73.38,-85 73.38,-85 73.38,-79 79.38,-73 85.38,-73 85.38,-73 206.38,-73 206.38,-73 212.38,-73 218.38,-79 218.38,-85 218.38,-85 218.38,-97 218.38,-97 218.38,-103 212.38,-109 206.38,-109"/>
<text xml:space="preserve" text-anchor="middle" x="145.88" y="-85.58" font-family="Helvetica,sans-Serif" font-size="14.00">my_sin: Calcula seno</text>
</g>
<!-- N4&#45;&gt;N5 -->
<g id="edge4" class="edge">
<title>N4&#45;&gt;N5</title>
<path fill="none" stroke="black" d="M88.66,-160.68C91.53,-150.28 96.23,-137.11 103.38,-127 105.91,-123.42 108.91,-119.99 112.11,-116.78"/>
<polygon fill="black" stroke="black" points="114.2,-119.62 119.26,-110.31 109.5,-114.43 114.2,-119.62"/>
<text xml:space="preserve" text-anchor="middle" x="147.62" y="-129.45" font-family="Helvetica,sans-Serif" font-size="14.00">chama my_sin</text>
</g>
<!-- N5&#45;&gt;N3 -->
<g id="edge5" class="edge">
<title>N5&#45;&gt;N3</title>
<path fill="none" stroke="black" d="M176.12,-109.33C182.29,-114.25 188.05,-120.17 191.88,-127 210.97,-161.1 211.53,-207.39 209.35,-236.86"/>
<polygon fill="black" stroke="black" points="205.89,-236.22 208.47,-246.5 212.86,-236.85 205.89,-236.22"/>
<text xml:space="preserve" text-anchor="middle" x="259.88" y="-173.32" font-family="Helvetica,sans-Serif" font-size="14.00">proxima iteracao</text>
</g>
<!-- N7 -->
<g id="node7" class="node">
<title>N7</title>
<path fill="none" stroke="black" d="M476.5,-109C476.5,-109 329.25,-109 329.25,-109 323.25,-109 317.25,-103 317.25,-97 317.25,-97 317.25,-85 317.25,-85 317.25,-79 323.25,-73 329.25,-73 329.25,-73 476.5,-73 476.5,-73 482.5,-73 488.5,-79 488.5,-85 488.5,-85 488.5,-97 488.5,-97 488.5,-103 482.5,-109 476.5,-109"/>
<text xml:space="preserve" text-anchor="middle" x="402.88" y="-85.58" font-family="Helvetica,sans-Serif" font-size="14.00">decode: Decodifica dados</text>
</g>
<!-- N6&#45;&gt;N7 -->
<g id="edge7" class="edge">
<title>N6&#45;&gt;N7</title>
<path fill="none" stroke="black" d="M402.88,-160.4C402.88,-149.01 402.88,-133.84 402.88,-120.68"/>
<polygon fill="black" stroke="black" points="406.38,-120.84 402.88,-110.84 399.38,-120.84 406.38,-120.84"/>
<text xml:space="preserve" text-anchor="middle" x="447.5" y="-129.45" font-family="Helvetica,sans-Serif" font-size="14.00">chama decode</text>
</g>
<!-- N8 -->
<g id="node8" class="node">
<title>N8</title>
<path fill="none" stroke="black" d="M451,-36C451,-36 354.75,-36 354.75,-36 348.75,-36 342.75,-30 342.75,-24 342.75,-24 342.75,-12 342.75,-12 342.75,-6 348.75,0 354.75,0 354.75,0 451,0 451,0 457,0 463,-6 463,-12 463,-12 463,-24 463,-24 463,-30 457,-36 451,-36"/>
<text xml:space="preserve" text-anchor="middle" x="402.88" y="-12.57" font-family="Helvetica,sans-Serif" font-size="14.00">Fim do programa</text>
</g>
<!-- N7&#45;&gt;N8 -->
<g id="edge8" class="edge">
<title>N7&#45;&gt;N8</title>
<path fill="none" stroke="black" d="M402.88,-72.81C402.88,-65.23 402.88,-56.1 402.88,-47.54"/>
<polygon fill="black" stroke="black" points="406.38,-47.54 402.88,-37.54 399.38,-47.54 406.38,-47.54"/>
</g>
</g>
</svg>
