<?xml version="1.0" encoding="UTF-8" standalone="no"?>
<!DOCTYPE svg PUBLIC "-//W3C//DTD SVG 1.1//EN"
 "http://www.w3.org/Graphics/SVG/1.1/DTD/svg11.dtd">
<!-- Generated by graphviz version 13.1.2 (20250808.2320)
 -->
<!-- Title: ADPCM_DFG Pages: 1 -->
<svg width="378pt" height="279pt"
 viewBox="0.00 0.00 378.00 279.00" xmlns="http://www.w3.org/2000/svg" xmlns:xlink="http://www.w3.org/1999/xlink">
<g id="graph0" class="graph" transform="scale(1 1) rotate(0) translate(4 274.5)">
<title>ADPCM_DFG</title>
<polygon fill="white" stroke="none" points="-4,4 -4,-274.5 374.17,-274.5 374.17,4 -4,4"/>
<!-- global_vars -->
<g id="node1" class="node">
<title>global_vars</title>
<ellipse fill="lightblue" stroke="black" cx="182" cy="-252.5" rx="155.25" ry="18"/>
<text xml:space="preserve" text-anchor="middle" x="182" y="-247.45" font-family="Times New Roman,serif" font-size="14.00">Variaveis Globais (detl, deth, nbl, etc.)</text>
</g>
<!-- encode -->
<g id="node2" class="node">
<title>encode</title>
<polygon fill="none" stroke="black" points="116.12,-197.5 61.88,-197.5 61.88,-161.5 116.12,-161.5 116.12,-197.5"/>
<text xml:space="preserve" text-anchor="middle" x="89" y="-174.45" font-family="Times New Roman,serif" font-size="14.00">encode</text>
</g>
<!-- global_vars&#45;&gt;encode -->
<g id="edge1" class="edge">
<title>global_vars&#45;&gt;encode</title>
<path fill="none" stroke="black" d="M159.49,-234.31C147.81,-225.4 133.35,-214.36 120.57,-204.6"/>
<polygon fill="black" stroke="black" points="122.9,-201.98 112.83,-198.69 118.66,-207.54 122.9,-201.98"/>
</g>
<!-- decode -->
<g id="node3" class="node">
<title>decode</title>
<polygon fill="none" stroke="black" points="209.12,-197.5 154.88,-197.5 154.88,-161.5 209.12,-161.5 209.12,-197.5"/>
<text xml:space="preserve" text-anchor="middle" x="182" y="-174.45" font-family="Times New Roman,serif" font-size="14.00">decode</text>
</g>
<!-- global_vars&#45;&gt;decode -->
<g id="edge2" class="edge">
<title>global_vars&#45;&gt;decode</title>
<path fill="none" stroke="black" d="M182,-234.31C182,-226.73 182,-217.6 182,-209.04"/>
<polygon fill="black" stroke="black" points="185.5,-209.04 182,-199.04 178.5,-209.04 185.5,-209.04"/>
</g>
<!-- quantl -->
<g id="node4" class="node">
<title>quantl</title>
<polygon fill="none" stroke="black" points="54,-109 0,-109 0,-73 54,-73 54,-109"/>
<text xml:space="preserve" text-anchor="middle" x="27" y="-85.95" font-family="Times New Roman,serif" font-size="14.00">quantl</text>
</g>
<!-- encode&#45;&gt;quantl -->
<g id="edge3" class="edge">
<title>encode&#45;&gt;quantl</title>
<path fill="none" stroke="black" d="M76.75,-161.41C67.98,-149.17 55.99,-132.45 45.98,-118.49"/>
<polygon fill="black" stroke="black" points="48.99,-116.67 40.32,-110.58 43.3,-120.75 48.99,-116.67"/>
</g>
<!-- output -->
<g id="node6" class="node">
<title>output</title>
<ellipse fill="lightgreen" stroke="black" cx="182" cy="-91" rx="109.7" ry="18"/>
<text xml:space="preserve" text-anchor="middle" x="182" y="-85.95" font-family="Times New Roman,serif" font-size="14.00">Saida (compressed, result)</text>
</g>
<!-- decode&#45;&gt;output -->
<g id="edge6" class="edge">
<title>decode&#45;&gt;output</title>
<path fill="none" stroke="black" d="M182,-161.41C182,-149.76 182,-134.05 182,-120.52"/>
<polygon fill="black" stroke="black" points="185.5,-120.86 182,-110.86 178.5,-120.86 185.5,-120.86"/>
</g>
<!-- logscl -->
<g id="node5" class="node">
<title>logscl</title>
<polygon fill="none" stroke="black" points="200,-36 146,-36 146,0 200,0 200,-36"/>
<text xml:space="preserve" text-anchor="middle" x="173" y="-12.95" font-family="Times New Roman,serif" font-size="14.00">logscl</text>
</g>
<!-- quantl&#45;&gt;logscl -->
<g id="edge4" class="edge">
<title>quantl&#45;&gt;logscl</title>
<path fill="none" stroke="black" d="M54.46,-76.65C77.3,-65.54 110.04,-49.62 135.33,-37.32"/>
<polygon fill="black" stroke="black" points="136.84,-40.48 144.3,-32.96 133.78,-34.18 136.84,-40.48"/>
</g>
<!-- logscl&#45;&gt;global_vars -->
<g id="edge5" class="edge">
<title>logscl&#45;&gt;global_vars</title>
<path fill="none" stroke="black" d="M200.31,-21.83C230.76,-26.61 278.67,-39.34 301,-73 337.79,-128.46 265.24,-193.46 218.07,-227.67"/>
<polygon fill="black" stroke="black" points="216.1,-224.78 209.96,-233.41 220.14,-230.49 216.1,-224.78"/>
<text xml:space="preserve" text-anchor="middle" x="338.67" y="-130.2" font-family="Times New Roman,serif" font-size="14.00">atualiza nbl</text>
</g>
</g>
</svg>
