<?xml version="1.0" encoding="UTF-8" standalone="no"?>
<!DOCTYPE svg PUBLIC "-//W3C//DTD SVG 1.1//EN"
 "http://www.w3.org/Graphics/SVG/1.1/DTD/svg11.dtd">
<!-- Generated by graphviz version 13.1.2 (20250808.2320)
 -->
<!-- Title: CFG_Sum Pages: 1 -->
<svg width="676pt" height="691pt"
 viewBox="0.00 0.00 676.00 691.00" xmlns="http://www.w3.org/2000/svg" xmlns:xlink="http://www.w3.org/1999/xlink">
<g id="graph0" class="graph" transform="scale(1 1) rotate(0) translate(4 686.75)">
<title>CFG_Sum</title>
<polygon fill="white" stroke="none" points="-4,4 -4,-686.75 671.5,-686.75 671.5,4 -4,4"/>
<!-- entry -->
<g id="node1" class="node">
<title>entry</title>
<ellipse fill="none" stroke="black" cx="518" cy="-664.75" rx="31.6" ry="18"/>
<text xml:space="preserve" text-anchor="middle" x="518" y="-659.33" font-family="Helvetica,sans-Serif" font-size="14.00">Entry</text>
</g>
<!-- BB1 -->
<g id="node3" class="node">
<title>BB1</title>
<path fill="none" stroke="black" d="M545.12,-609.75C545.12,-609.75 490.88,-609.75 490.88,-609.75 484.88,-609.75 478.88,-603.75 478.88,-597.75 478.88,-597.75 478.88,-535 478.88,-535 478.88,-529 484.88,-523 490.88,-523 490.88,-523 545.12,-523 545.12,-523 551.12,-523 557.12,-529 557.12,-535 557.12,-535 557.12,-597.75 557.12,-597.75 557.12,-603.75 551.12,-609.75 545.12,-609.75"/>
<text xml:space="preserve" text-anchor="middle" x="518" y="-592.45" font-family="Helvetica,sans-Serif" font-size="14.00">Ptotal = 0;</text>
<text xml:space="preserve" text-anchor="middle" x="518" y="-576.7" font-family="Helvetica,sans-Serif" font-size="14.00">Ntotal = 0;</text>
<text xml:space="preserve" text-anchor="middle" x="518" y="-560.95" font-family="Helvetica,sans-Serif" font-size="14.00">Pcnt = 0;</text>
<text xml:space="preserve" text-anchor="middle" x="518" y="-545.2" font-family="Helvetica,sans-Serif" font-size="14.00">Ncnt = 0;</text>
<text xml:space="preserve" text-anchor="middle" x="518" y="-529.45" font-family="Helvetica,sans-Serif" font-size="14.00">Outer = 0;</text>
</g>
<!-- entry&#45;&gt;BB1 -->
<g id="edge1" class="edge">
<title>entry&#45;&gt;BB1</title>
<path fill="none" stroke="black" d="M518,-646.52C518,-639.36 518,-630.63 518,-621.6"/>
<polygon fill="black" stroke="black" points="521.5,-621.63 518,-611.63 514.5,-621.63 521.5,-621.63"/>
</g>
<!-- exit -->
<g id="node2" class="node">
<title>exit</title>
<ellipse fill="none" stroke="black" cx="607" cy="-271.5" rx="27" ry="18"/>
<text xml:space="preserve" text-anchor="middle" x="607" y="-266.07" font-family="Helvetica,sans-Serif" font-size="14.00">Exit</text>
</g>
<!-- BB2 -->
<g id="node4" class="node">
<title>BB2</title>
<path fill="none" stroke="black" d="M578.88,-486C578.88,-486 457.12,-486 457.12,-486 451.12,-486 445.12,-480 445.12,-474 445.12,-474 445.12,-462 445.12,-462 445.12,-456 451.12,-450 457.12,-450 457.12,-450 578.88,-450 578.88,-450 584.88,-450 590.88,-456 590.88,-462 590.88,-462 590.88,-474 590.88,-474 590.88,-480 584.88,-486 578.88,-486"/>
<text xml:space="preserve" text-anchor="middle" x="518" y="-462.57" font-family="Helvetica,sans-Serif" font-size="14.00">if (Outer &lt; MAXSIZE)</text>
</g>
<!-- BB1&#45;&gt;BB2 -->
<g id="edge2" class="edge">
<title>BB1&#45;&gt;BB2</title>
<path fill="none" stroke="black" d="M518,-522.54C518,-514.1 518,-505.43 518,-497.59"/>
<polygon fill="black" stroke="black" points="521.5,-497.63 518,-487.63 514.5,-497.63 521.5,-497.63"/>
</g>
<!-- BB3 -->
<g id="node5" class="node">
<title>BB3</title>
<path fill="none" stroke="black" d="M469.88,-380C469.88,-380 420.12,-380 420.12,-380 414.12,-380 408.12,-374 408.12,-368 408.12,-368 408.12,-356 408.12,-356 408.12,-350 414.12,-344 420.12,-344 420.12,-344 469.88,-344 469.88,-344 475.88,-344 481.88,-350 481.88,-356 481.88,-356 481.88,-368 481.88,-368 481.88,-374 475.88,-380 469.88,-380"/>
<text xml:space="preserve" text-anchor="middle" x="445" y="-356.57" font-family="Helvetica,sans-Serif" font-size="14.00">Inner = 0;</text>
</g>
<!-- BB2&#45;&gt;BB3 -->
<g id="edge3" class="edge">
<title>BB2&#45;&gt;BB3</title>
<path fill="none" stroke="black" d="M498.8,-449.74C493.35,-444.34 487.65,-438.18 483,-432 473.37,-419.19 464.6,-403.65 457.91,-390.56"/>
<polygon fill="black" stroke="black" points="461.06,-389.02 453.48,-381.61 454.78,-392.13 461.06,-389.02"/>
<text xml:space="preserve" text-anchor="middle" x="493.5" y="-418.7" font-family="Times New Roman,serif" font-size="14.00">true</text>
</g>
<!-- BB8 -->
<g id="node12" class="node">
<title>BB8</title>
<path fill="none" stroke="black" d="M655.5,-397.5C655.5,-397.5 558.5,-397.5 558.5,-397.5 552.5,-397.5 546.5,-391.5 546.5,-385.5 546.5,-385.5 546.5,-338.5 546.5,-338.5 546.5,-332.5 552.5,-326.5 558.5,-326.5 558.5,-326.5 655.5,-326.5 655.5,-326.5 661.5,-326.5 667.5,-332.5 667.5,-338.5 667.5,-338.5 667.5,-385.5 667.5,-385.5 667.5,-391.5 661.5,-397.5 655.5,-397.5"/>
<text xml:space="preserve" text-anchor="middle" x="607" y="-380.2" font-family="Helvetica,sans-Serif" font-size="14.00">Postotal = Ptotal;</text>
<text xml:space="preserve" text-anchor="middle" x="607" y="-364.45" font-family="Helvetica,sans-Serif" font-size="14.00">Poscnt = Pcnt;</text>
<text xml:space="preserve" text-anchor="middle" x="607" y="-348.7" font-family="Helvetica,sans-Serif" font-size="14.00">Negtotal = Ntotal;</text>
<text xml:space="preserve" text-anchor="middle" x="607" y="-332.95" font-family="Helvetica,sans-Serif" font-size="14.00">Negcnt = Ncnt;</text>
</g>
<!-- BB2&#45;&gt;BB8 -->
<g id="edge4" class="edge">
<title>BB2&#45;&gt;BB8</title>
<path fill="none" stroke="black" d="M532.7,-449.83C542.86,-437.95 556.86,-421.58 569.98,-406.26"/>
<polygon fill="black" stroke="black" points="572.31,-408.92 576.16,-399.04 566.99,-404.36 572.31,-408.92"/>
<text xml:space="preserve" text-anchor="middle" x="572.58" y="-418.7" font-family="Times New Roman,serif" font-size="14.00">false</text>
</g>
<!-- BB4 -->
<g id="node6" class="node">
<title>BB4</title>
<path fill="none" stroke="black" d="M478,-289.5C478,-289.5 360,-289.5 360,-289.5 354,-289.5 348,-283.5 348,-277.5 348,-277.5 348,-265.5 348,-265.5 348,-259.5 354,-253.5 360,-253.5 360,-253.5 478,-253.5 478,-253.5 484,-253.5 490,-259.5 490,-265.5 490,-265.5 490,-277.5 490,-277.5 490,-283.5 484,-289.5 478,-289.5"/>
<text xml:space="preserve" text-anchor="middle" x="419" y="-266.07" font-family="Helvetica,sans-Serif" font-size="14.00">if (Inner &lt; MAXSIZE)</text>
</g>
<!-- BB3&#45;&gt;BB4 -->
<g id="edge5" class="edge">
<title>BB3&#45;&gt;BB4</title>
<path fill="none" stroke="black" d="M439.86,-343.52C436.3,-331.39 431.48,-314.98 427.37,-300.99"/>
<polygon fill="black" stroke="black" points="430.73,-300.01 424.55,-291.4 424.01,-301.98 430.73,-300.01"/>
</g>
<!-- BB5 -->
<g id="node7" class="node">
<title>BB5</title>
<path fill="none" stroke="black" d="M376.62,-201C376.62,-201 229.38,-201 229.38,-201 223.38,-201 217.38,-195 217.38,-189 217.38,-189 217.38,-177 217.38,-177 217.38,-171 223.38,-165 229.38,-165 229.38,-165 376.62,-165 376.62,-165 382.62,-165 388.62,-171 388.62,-177 388.62,-177 388.62,-189 388.62,-189 388.62,-195 382.62,-201 376.62,-201"/>
<text xml:space="preserve" text-anchor="middle" x="303" y="-177.57" font-family="Helvetica,sans-Serif" font-size="14.00">if (Array[Outer][Inner] &lt; 0)</text>
</g>
<!-- BB4&#45;&gt;BB5 -->
<g id="edge6" class="edge">
<title>BB4&#45;&gt;BB5</title>
<path fill="none" stroke="black" d="M395.8,-253.2C378.42,-240.24 354.41,-222.34 335.17,-207.99"/>
<polygon fill="black" stroke="black" points="337.48,-205.34 327.37,-202.17 333.29,-210.96 337.48,-205.34"/>
<text xml:space="preserve" text-anchor="middle" x="381.89" y="-222.2" font-family="Times New Roman,serif" font-size="14.00">true</text>
</g>
<!-- BB7 -->
<g id="node11" class="node">
<title>BB7</title>
<path fill="none" stroke="black" d="M527.38,-201C527.38,-201 480.62,-201 480.62,-201 474.62,-201 468.62,-195 468.62,-189 468.62,-189 468.62,-177 468.62,-177 468.62,-171 474.62,-165 480.62,-165 480.62,-165 527.38,-165 527.38,-165 533.38,-165 539.38,-171 539.38,-177 539.38,-177 539.38,-189 539.38,-189 539.38,-195 533.38,-201 527.38,-201"/>
<text xml:space="preserve" text-anchor="middle" x="504" y="-177.57" font-family="Helvetica,sans-Serif" font-size="14.00">Outer++;</text>
</g>
<!-- BB4&#45;&gt;BB7 -->
<g id="edge7" class="edge">
<title>BB4&#45;&gt;BB7</title>
<path fill="none" stroke="black" d="M435.79,-253.41C448.17,-240.82 465.2,-223.48 479.15,-209.29"/>
<polygon fill="black" stroke="black" points="481.38,-212.02 485.89,-202.43 476.38,-207.11 481.38,-212.02"/>
<text xml:space="preserve" text-anchor="middle" x="481.86" y="-222.2" font-family="Times New Roman,serif" font-size="14.00">false</text>
</g>
<!-- BB6 -->
<g id="node8" class="node">
<title>BB6</title>
<path fill="none" stroke="black" d="M178,-112.5C178,-112.5 12,-112.5 12,-112.5 6,-112.5 0,-106.5 0,-100.5 0,-100.5 0,-85 0,-85 0,-79 6,-73 12,-73 12,-73 178,-73 178,-73 184,-73 190,-79 190,-85 190,-85 190,-100.5 190,-100.5 190,-106.5 184,-112.5 178,-112.5"/>
<text xml:space="preserve" text-anchor="middle" x="95" y="-95.2" font-family="Helvetica,sans-Serif" font-size="14.00">Ptotal += Array[Outer][Inner];</text>
<text xml:space="preserve" text-anchor="middle" x="95" y="-79.45" font-family="Helvetica,sans-Serif" font-size="14.00">Pcnt++;</text>
</g>
<!-- BB5&#45;&gt;BB6 -->
<g id="edge8" class="edge">
<title>BB5&#45;&gt;BB6</title>
<path fill="none" stroke="black" d="M256.89,-164.68C242.67,-159.19 227.01,-152.98 212.75,-147 190.82,-137.8 166.85,-127.08 146.31,-117.69"/>
<polygon fill="black" stroke="black" points="147.82,-114.53 137.28,-113.54 144.9,-120.9 147.82,-114.53"/>
<text xml:space="preserve" text-anchor="middle" x="255.88" y="-133.7" font-family="Times New Roman,serif" font-size="14.00">true (infeasible)</text>
</g>
<!-- BB9 -->
<g id="node9" class="node">
<title>BB9</title>
<path fill="none" stroke="black" d="M386.38,-112.5C386.38,-112.5 219.62,-112.5 219.62,-112.5 213.62,-112.5 207.62,-106.5 207.62,-100.5 207.62,-100.5 207.62,-85 207.62,-85 207.62,-79 213.62,-73 219.62,-73 219.62,-73 386.38,-73 386.38,-73 392.38,-73 398.38,-79 398.38,-85 398.38,-85 398.38,-100.5 398.38,-100.5 398.38,-106.5 392.38,-112.5 386.38,-112.5"/>
<text xml:space="preserve" text-anchor="middle" x="303" y="-95.2" font-family="Helvetica,sans-Serif" font-size="14.00">Ntotal += Array[Outer][Inner];</text>
<text xml:space="preserve" text-anchor="middle" x="303" y="-79.45" font-family="Helvetica,sans-Serif" font-size="14.00">Ncnt++;</text>
</g>
<!-- BB5&#45;&gt;BB9 -->
<g id="edge9" class="edge">
<title>BB5&#45;&gt;BB9</title>
<path fill="none" stroke="black" d="M303,-164.56C303,-153.06 303,-137.69 303,-124.21"/>
<polygon fill="black" stroke="black" points="306.5,-124.5 303,-114.5 299.5,-124.5 306.5,-124.5"/>
<text xml:space="preserve" text-anchor="middle" x="343.12" y="-133.7" font-family="Times New Roman,serif" font-size="14.00">false (feasible)</text>
</g>
<!-- BB10 -->
<g id="node10" class="node">
<title>BB10</title>
<path fill="none" stroke="black" d="M324.5,-36C324.5,-36 281.5,-36 281.5,-36 275.5,-36 269.5,-30 269.5,-24 269.5,-24 269.5,-12 269.5,-12 269.5,-6 275.5,0 281.5,0 281.5,0 324.5,0 324.5,0 330.5,0 336.5,-6 336.5,-12 336.5,-12 336.5,-24 336.5,-24 336.5,-30 330.5,-36 324.5,-36"/>
<text xml:space="preserve" text-anchor="middle" x="303" y="-12.57" font-family="Helvetica,sans-Serif" font-size="14.00">Inner++;</text>
</g>
<!-- BB6&#45;&gt;BB10 -->
<g id="edge10" class="edge">
<title>BB6&#45;&gt;BB10</title>
<path fill="none" stroke="black" d="M149.92,-72.54C183.84,-60.68 226.79,-45.66 258.55,-34.55"/>
<polygon fill="black" stroke="black" points="259.58,-37.9 267.86,-31.29 257.27,-31.29 259.58,-37.9"/>
</g>
<!-- BB9&#45;&gt;BB10 -->
<g id="edge11" class="edge">
<title>BB9&#45;&gt;BB10</title>
<path fill="none" stroke="black" d="M303,-72.64C303,-64.97 303,-55.97 303,-47.55"/>
<polygon fill="black" stroke="black" points="306.5,-47.76 303,-37.76 299.5,-47.76 306.5,-47.76"/>
</g>
<!-- BB10&#45;&gt;BB4 -->
<g id="edge12" class="edge">
<title>BB10&#45;&gt;BB4</title>
<path fill="none" stroke="black" d="M336.89,-27.1C360.77,-34.71 391.2,-48.69 407,-73 440.58,-124.66 432.99,-200.89 425.44,-241.89"/>
<polygon fill="black" stroke="black" points="422.01,-241.21 423.49,-251.7 428.88,-242.58 422.01,-241.21"/>
</g>
<!-- BB7&#45;&gt;BB2 -->
<g id="edge13" class="edge">
<title>BB7&#45;&gt;BB2</title>
<path fill="none" stroke="black" d="M504.86,-201.41C507.2,-248.74 513.7,-380.09 516.59,-438.44"/>
<polygon fill="black" stroke="black" points="513.08,-438.4 517.07,-448.21 520.07,-438.05 513.08,-438.4"/>
</g>
<!-- BB8&#45;&gt;exit -->
<g id="edge14" class="edge">
<title>BB8&#45;&gt;exit</title>
<path fill="none" stroke="black" d="M607,-326.02C607,-317.81 607,-309.15 607,-301.24"/>
<polygon fill="black" stroke="black" points="610.5,-301.5 607,-291.5 603.5,-301.5 610.5,-301.5"/>
</g>
</g>
</svg>
