<?xml version="1.0" encoding="UTF-8" standalone="no"?>
<!DOCTYPE svg PUBLIC "-//W3C//DTD SVG 1.1//EN"
 "http://www.w3.org/Graphics/SVG/1.1/DTD/svg11.dtd">
<!-- Generated by graphviz version 13.1.2 (20250808.2320)
 -->
<!-- Title: DFG_Sum Pages: 1 -->
<svg width="383pt" height="190pt"
 viewBox="0.00 0.00 383.00 190.00" xmlns="http://www.w3.org/2000/svg" xmlns:xlink="http://www.w3.org/1999/xlink">
<g id="graph0" class="graph" transform="scale(1 1) rotate(0) translate(4 186)">
<title>DFG_Sum</title>
<polygon fill="white" stroke="none" points="-4,4 -4,-186 379.13,-186 379.13,4 -4,4"/>
<!-- Array_input -->
<g id="node1" class="node">
<title>Array_input</title>
<ellipse fill="lightblue" stroke="black" cx="85.13" cy="-164" rx="85.13" ry="18"/>
<text xml:space="preserve" text-anchor="middle" x="85.13" y="-158.95" font-family="Times New Roman,serif" font-size="14.00">Array[Outer][Inner]</text>
</g>
<!-- op_add_Ntotal -->
<g id="node4" class="node">
<title>op_add_Ntotal</title>
<polygon fill="none" stroke="black" points="126.13,-109 72.13,-109 72.13,-73 126.13,-73 126.13,-109"/>
<text xml:space="preserve" text-anchor="middle" x="99.13" y="-85.95" font-family="Times New Roman,serif" font-size="14.00">+</text>
</g>
<!-- Array_input&#45;&gt;op_add_Ntotal -->
<g id="edge2" class="edge">
<title>Array_input&#45;&gt;op_add_Ntotal</title>
<path fill="none" stroke="black" d="M88.52,-145.81C90.03,-138.14 91.86,-128.89 93.56,-120.24"/>
<polygon fill="black" stroke="black" points="96.98,-121 95.48,-110.51 90.11,-119.65 96.98,-121"/>
</g>
<!-- const_0 -->
<g id="node2" class="node">
<title>const_0</title>
<ellipse fill="lightblue" stroke="black" cx="215.13" cy="-164" rx="27" ry="18"/>
<text xml:space="preserve" text-anchor="middle" x="215.13" y="-158.95" font-family="Times New Roman,serif" font-size="14.00">0</text>
</g>
<!-- const_0&#45;&gt;op_add_Ntotal -->
<g id="edge1" class="edge">
<title>const_0&#45;&gt;op_add_Ntotal</title>
<path fill="none" stroke="black" d="M195.71,-151.12C179.49,-141.19 155.9,-126.75 136.1,-114.63"/>
<polygon fill="black" stroke="black" points="138.08,-111.74 127.73,-109.5 134.43,-117.71 138.08,-111.74"/>
</g>
<!-- op_inc_Ncnt -->
<g id="node5" class="node">
<title>op_inc_Ncnt</title>
<polygon fill="none" stroke="black" points="300.13,-109 246.13,-109 246.13,-73 300.13,-73 300.13,-109"/>
<text xml:space="preserve" text-anchor="middle" x="273.13" y="-85.95" font-family="Times New Roman,serif" font-size="14.00">++</text>
</g>
<!-- const_0&#45;&gt;op_inc_Ncnt -->
<g id="edge4" class="edge">
<title>const_0&#45;&gt;op_inc_Ncnt</title>
<path fill="none" stroke="black" d="M227.72,-147.59C234.76,-138.98 243.72,-128 251.82,-118.08"/>
<polygon fill="black" stroke="black" points="254.37,-120.5 257.98,-110.54 248.95,-116.07 254.37,-120.5"/>
</g>
<!-- const_1 -->
<g id="node3" class="node">
<title>const_1</title>
<ellipse fill="lightblue" stroke="black" cx="287.13" cy="-164" rx="27" ry="18"/>
<text xml:space="preserve" text-anchor="middle" x="287.13" y="-158.95" font-family="Times New Roman,serif" font-size="14.00">1</text>
</g>
<!-- const_1&#45;&gt;op_inc_Ncnt -->
<g id="edge5" class="edge">
<title>const_1&#45;&gt;op_inc_Ncnt</title>
<path fill="none" stroke="black" d="M283.74,-145.81C282.23,-138.14 280.41,-128.89 278.7,-120.24"/>
<polygon fill="black" stroke="black" points="282.15,-119.65 276.78,-110.51 275.28,-121 282.15,-119.65"/>
</g>
<!-- op_add_Ntotal&#45;&gt;op_add_Ntotal -->
<g id="edge3" class="edge">
<title>op_add_Ntotal&#45;&gt;op_add_Ntotal</title>
<path fill="none" stroke="black" d="M126.37,-97.84C136.15,-97.98 144.13,-95.71 144.13,-91 144.13,-88.35 141.61,-86.47 137.66,-85.36"/>
<polygon fill="black" stroke="black" points="138.19,-81.9 127.88,-84.32 137.45,-88.86 138.19,-81.9"/>
<text xml:space="preserve" text-anchor="middle" x="172.63" y="-85.95" font-family="Times New Roman,serif" font-size="14.00">recurrence</text>
</g>
<!-- final_Ntotal -->
<g id="node6" class="node">
<title>final_Ntotal</title>
<ellipse fill="lightgreen" stroke="black" cx="99.13" cy="-18" rx="33.95" ry="18"/>
<text xml:space="preserve" text-anchor="middle" x="99.13" y="-12.95" font-family="Times New Roman,serif" font-size="14.00">Ntotal</text>
</g>
<!-- op_add_Ntotal&#45;&gt;final_Ntotal -->
<g id="edge7" class="edge">
<title>op_add_Ntotal&#45;&gt;final_Ntotal</title>
<path fill="none" stroke="black" d="M99.13,-72.81C99.13,-65.23 99.13,-56.1 99.13,-47.54"/>
<polygon fill="black" stroke="black" points="102.63,-47.54 99.13,-37.54 95.63,-47.54 102.63,-47.54"/>
</g>
<!-- op_inc_Ncnt&#45;&gt;op_inc_Ncnt -->
<g id="edge6" class="edge">
<title>op_inc_Ncnt&#45;&gt;op_inc_Ncnt</title>
<path fill="none" stroke="black" d="M300.37,-97.84C310.15,-97.98 318.13,-95.71 318.13,-91 318.13,-88.35 315.61,-86.47 311.66,-85.36"/>
<polygon fill="black" stroke="black" points="312.19,-81.9 301.88,-84.32 311.45,-88.86 312.19,-81.9"/>
<text xml:space="preserve" text-anchor="middle" x="346.63" y="-85.95" font-family="Times New Roman,serif" font-size="14.00">recurrence</text>
</g>
<!-- final_Ncnt -->
<g id="node7" class="node">
<title>final_Ncnt</title>
<ellipse fill="lightgreen" stroke="black" cx="273.13" cy="-18" rx="28.83" ry="18"/>
<text xml:space="preserve" text-anchor="middle" x="273.13" y="-12.95" font-family="Times New Roman,serif" font-size="14.00">Ncnt</text>
</g>
<!-- op_inc_Ncnt&#45;&gt;final_Ncnt -->
<g id="edge8" class="edge">
<title>op_inc_Ncnt&#45;&gt;final_Ncnt</title>
<path fill="none" stroke="black" d="M273.13,-72.81C273.13,-65.23 273.13,-56.1 273.13,-47.54"/>
<polygon fill="black" stroke="black" points="276.63,-47.54 273.13,-37.54 269.63,-47.54 276.63,-47.54"/>
</g>
</g>
</svg>
