<?xml version="1.0" encoding="UTF-8" standalone="no"?>
<!DOCTYPE svg PUBLIC "-//W3C//DTD SVG 1.1//EN"
 "http://www.w3.org/Graphics/SVG/1.1/DTD/svg11.dtd">
<!-- Generated by graphviz version 13.1.2 (20250808.2320)
 -->
<!-- Title: CFG Pages: 1 -->
<svg width="304pt" height="949pt"
 viewBox="0.00 0.00 304.00 949.00" xmlns="http://www.w3.org/2000/svg" xmlns:xlink="http://www.w3.org/1999/xlink">
<g id="graph0" class="graph" transform="scale(1 1) rotate(0) translate(4 944.83)">
<title>CFG</title>
<polygon fill="white" stroke="none" points="-4,4 -4,-944.83 299.82,-944.83 299.82,4 -4,4"/>
<!-- main_ENTRY -->
<g id="node1" class="node">
<title>main_ENTRY</title>
<path fill="none" stroke="black" d="M201.12,-940.83C201.12,-940.83 142.38,-940.83 142.38,-940.83 136.38,-940.83 130.38,-934.83 130.38,-928.83 130.38,-928.83 130.38,-916.83 130.38,-916.83 130.38,-910.83 136.38,-904.83 142.38,-904.83 142.38,-904.83 201.12,-904.83 201.12,-904.83 207.12,-904.83 213.12,-910.83 213.12,-916.83 213.12,-916.83 213.12,-928.83 213.12,-928.83 213.12,-934.83 207.12,-940.83 201.12,-940.83"/>
<text xml:space="preserve" text-anchor="middle" x="171.75" y="-917.4" font-family="Helvetica,sans-Serif" font-size="14.00">main: int a;</text>
</g>
<!-- main_ASSIGN -->
<g id="node2" class="node">
<title>main_ASSIGN</title>
<path fill="none" stroke="black" d="M188.75,-867.83C188.75,-867.83 154.75,-867.83 154.75,-867.83 148.75,-867.83 142.75,-861.83 142.75,-855.83 142.75,-855.83 142.75,-843.83 142.75,-843.83 142.75,-837.83 148.75,-831.83 154.75,-831.83 154.75,-831.83 188.75,-831.83 188.75,-831.83 194.75,-831.83 200.75,-837.83 200.75,-843.83 200.75,-843.83 200.75,-855.83 200.75,-855.83 200.75,-861.83 194.75,-867.83 188.75,-867.83"/>
<text xml:space="preserve" text-anchor="middle" x="171.75" y="-844.4" font-family="Helvetica,sans-Serif" font-size="14.00">a = 30;</text>
</g>
<!-- main_ENTRY&#45;&gt;main_ASSIGN -->
<g id="edge1" class="edge">
<title>main_ENTRY&#45;&gt;main_ASSIGN</title>
<path fill="none" stroke="black" d="M171.75,-904.64C171.75,-897.06 171.75,-887.93 171.75,-879.37"/>
<polygon fill="black" stroke="black" points="175.25,-879.37 171.75,-869.37 168.25,-879.37 175.25,-879.37"/>
</g>
<!-- main_CALL -->
<g id="node3" class="node">
<title>main_CALL</title>
<path fill="none" stroke="black" d="M186.75,-794.83C186.75,-794.83 156.75,-794.83 156.75,-794.83 150.75,-794.83 144.75,-788.83 144.75,-782.83 144.75,-782.83 144.75,-770.83 144.75,-770.83 144.75,-764.83 150.75,-758.83 156.75,-758.83 156.75,-758.83 186.75,-758.83 186.75,-758.83 192.75,-758.83 198.75,-764.83 198.75,-770.83 198.75,-770.83 198.75,-782.83 198.75,-782.83 198.75,-788.83 192.75,-794.83 186.75,-794.83"/>
<text xml:space="preserve" text-anchor="middle" x="171.75" y="-771.4" font-family="Helvetica,sans-Serif" font-size="14.00">fib(a);</text>
</g>
<!-- main_ASSIGN&#45;&gt;main_CALL -->
<g id="edge2" class="edge">
<title>main_ASSIGN&#45;&gt;main_CALL</title>
<path fill="none" stroke="black" d="M171.75,-831.64C171.75,-824.06 171.75,-814.93 171.75,-806.37"/>
<polygon fill="black" stroke="black" points="175.25,-806.37 171.75,-796.37 168.25,-806.37 175.25,-806.37"/>
</g>
<!-- fib_ENTRY -->
<g id="node6" class="node">
<title>fib_ENTRY</title>
<path fill="none" stroke="black" d="M261.5,-707.08C261.5,-707.08 82,-707.08 82,-707.08 76,-707.08 70,-701.08 70,-695.08 70,-695.08 70,-683.08 70,-683.08 70,-677.08 76,-671.08 82,-671.08 82,-671.08 261.5,-671.08 261.5,-671.08 267.5,-671.08 273.5,-677.08 273.5,-683.08 273.5,-683.08 273.5,-695.08 273.5,-695.08 273.5,-701.08 267.5,-707.08 261.5,-707.08"/>
<text xml:space="preserve" text-anchor="middle" x="171.75" y="-683.65" font-family="Helvetica,sans-Serif" font-size="14.00">fib: int i, Fnew, Fold, temp, ans;</text>
</g>
<!-- main_CALL&#45;&gt;fib_ENTRY -->
<g id="edge3" class="edge">
<title>main_CALL&#45;&gt;fib_ENTRY</title>
<path fill="none" stroke="black" d="M171.75,-758.48C171.75,-747.09 171.75,-731.92 171.75,-718.76"/>
<polygon fill="black" stroke="black" points="175.25,-718.92 171.75,-708.92 168.25,-718.92 175.25,-718.92"/>
<text xml:space="preserve" text-anchor="middle" x="181.88" y="-727.53" font-family="Helvetica,sans-Serif" font-size="14.00">call</text>
</g>
<!-- main_RETURN -->
<g id="node4" class="node">
<title>main_RETURN</title>
<path fill="none" stroke="black" d="M265.88,-175.14C265.88,-175.14 223.62,-175.14 223.62,-175.14 217.62,-175.14 211.62,-169.14 211.62,-163.14 211.62,-163.14 211.62,-151.14 211.62,-151.14 211.62,-145.14 217.62,-139.14 223.62,-139.14 223.62,-139.14 265.88,-139.14 265.88,-139.14 271.88,-139.14 277.88,-145.14 277.88,-151.14 277.88,-151.14 277.88,-163.14 277.88,-163.14 277.88,-169.14 271.88,-175.14 265.88,-175.14"/>
<text xml:space="preserve" text-anchor="middle" x="244.75" y="-151.72" font-family="Helvetica,sans-Serif" font-size="14.00">return a;</text>
</g>
<!-- main_EXIT -->
<g id="node5" class="node">
<title>main_EXIT</title>
<ellipse fill="none" stroke="black" cx="244.75" cy="-51.07" rx="47.07" ry="47.07"/>
<ellipse fill="none" stroke="black" cx="244.75" cy="-51.07" rx="51.07" ry="51.07"/>
<text xml:space="preserve" text-anchor="middle" x="244.75" y="-45.65" font-family="Helvetica,sans-Serif" font-size="14.00">main exit</text>
</g>
<!-- main_RETURN&#45;&gt;main_EXIT -->
<g id="edge5" class="edge">
<title>main_RETURN&#45;&gt;main_EXIT</title>
<path fill="none" stroke="black" d="M244.75,-138.96C244.75,-131.82 244.75,-123.05 244.75,-113.87"/>
<polygon fill="black" stroke="black" points="248.25,-114.05 244.75,-104.05 241.25,-114.05 248.25,-114.05"/>
</g>
<!-- fib_INIT -->
<g id="node7" class="node">
<title>fib_INIT</title>
<path fill="none" stroke="black" d="M226.25,-634.08C226.25,-634.08 117.25,-634.08 117.25,-634.08 111.25,-634.08 105.25,-628.08 105.25,-622.08 105.25,-622.08 105.25,-610.08 105.25,-610.08 105.25,-604.08 111.25,-598.08 117.25,-598.08 117.25,-598.08 226.25,-598.08 226.25,-598.08 232.25,-598.08 238.25,-604.08 238.25,-610.08 238.25,-610.08 238.25,-622.08 238.25,-622.08 238.25,-628.08 232.25,-634.08 226.25,-634.08"/>
<text xml:space="preserve" text-anchor="middle" x="171.75" y="-610.65" font-family="Helvetica,sans-Serif" font-size="14.00">Fnew = 1; Fold = 0;</text>
</g>
<!-- fib_ENTRY&#45;&gt;fib_INIT -->
<g id="edge6" class="edge">
<title>fib_ENTRY&#45;&gt;fib_INIT</title>
<path fill="none" stroke="black" d="M171.75,-670.89C171.75,-663.31 171.75,-654.18 171.75,-645.62"/>
<polygon fill="black" stroke="black" points="175.25,-645.62 171.75,-635.62 168.25,-645.62 175.25,-645.62"/>
</g>
<!-- fib_LOOP_INIT -->
<g id="node8" class="node">
<title>fib_LOOP_INIT</title>
<path fill="none" stroke="black" d="M186.75,-561.08C186.75,-561.08 156.75,-561.08 156.75,-561.08 150.75,-561.08 144.75,-555.08 144.75,-549.08 144.75,-549.08 144.75,-537.08 144.75,-537.08 144.75,-531.08 150.75,-525.08 156.75,-525.08 156.75,-525.08 186.75,-525.08 186.75,-525.08 192.75,-525.08 198.75,-531.08 198.75,-537.08 198.75,-537.08 198.75,-549.08 198.75,-549.08 198.75,-555.08 192.75,-561.08 186.75,-561.08"/>
<text xml:space="preserve" text-anchor="middle" x="171.75" y="-537.65" font-family="Helvetica,sans-Serif" font-size="14.00">i = 2;</text>
</g>
<!-- fib_INIT&#45;&gt;fib_LOOP_INIT -->
<g id="edge7" class="edge">
<title>fib_INIT&#45;&gt;fib_LOOP_INIT</title>
<path fill="none" stroke="black" d="M171.75,-597.89C171.75,-590.31 171.75,-581.18 171.75,-572.62"/>
<polygon fill="black" stroke="black" points="175.25,-572.62 171.75,-562.62 168.25,-572.62 175.25,-572.62"/>
</g>
<!-- fib_COND -->
<g id="node9" class="node">
<title>fib_COND</title>
<path fill="none" stroke="black" d="M218.75,-488.08C218.75,-488.08 124.75,-488.08 124.75,-488.08 118.75,-488.08 112.75,-482.08 112.75,-476.08 112.75,-476.08 112.75,-464.08 112.75,-464.08 112.75,-458.08 118.75,-452.08 124.75,-452.08 124.75,-452.08 218.75,-452.08 218.75,-452.08 224.75,-452.08 230.75,-458.08 230.75,-464.08 230.75,-464.08 230.75,-476.08 230.75,-476.08 230.75,-482.08 224.75,-488.08 218.75,-488.08"/>
<text xml:space="preserve" text-anchor="middle" x="171.75" y="-464.65" font-family="Helvetica,sans-Serif" font-size="14.00">i &lt;= 30 &amp;&amp; i &lt;= n</text>
</g>
<!-- fib_LOOP_INIT&#45;&gt;fib_COND -->
<g id="edge8" class="edge">
<title>fib_LOOP_INIT&#45;&gt;fib_COND</title>
<path fill="none" stroke="black" d="M171.75,-524.89C171.75,-517.31 171.75,-508.18 171.75,-499.62"/>
<polygon fill="black" stroke="black" points="175.25,-499.62 171.75,-489.62 168.25,-499.62 175.25,-499.62"/>
</g>
<!-- fib_BODY -->
<g id="node10" class="node">
<title>fib_BODY</title>
<path fill="none" stroke="black" d="M131.5,-400.33C131.5,-400.33 12,-400.33 12,-400.33 6,-400.33 0,-394.33 0,-388.33 0,-388.33 0,-357.08 0,-357.08 0,-351.08 6,-345.08 12,-345.08 12,-345.08 131.5,-345.08 131.5,-345.08 137.5,-345.08 143.5,-351.08 143.5,-357.08 143.5,-357.08 143.5,-388.33 143.5,-388.33 143.5,-394.33 137.5,-400.33 131.5,-400.33"/>
<text xml:space="preserve" text-anchor="middle" x="71.75" y="-383.03" font-family="Helvetica,sans-Serif" font-size="14.00">temp = Fnew;</text>
<text xml:space="preserve" text-anchor="middle" x="71.75" y="-367.28" font-family="Helvetica,sans-Serif" font-size="14.00">Fnew = Fnew + Fold;</text>
<text xml:space="preserve" text-anchor="middle" x="71.75" y="-351.53" font-family="Helvetica,sans-Serif" font-size="14.00">Fold = temp;</text>
</g>
<!-- fib_COND&#45;&gt;fib_BODY -->
<g id="edge9" class="edge">
<title>fib_COND&#45;&gt;fib_BODY</title>
<path fill="none" stroke="black" d="M153.14,-451.68C147.17,-446.07 140.55,-439.83 134.5,-434.08 125.87,-425.87 116.6,-416.99 107.91,-408.64"/>
<polygon fill="black" stroke="black" points="110.52,-406.29 100.89,-401.87 105.66,-411.33 110.52,-406.29"/>
<text xml:space="preserve" text-anchor="middle" x="146.12" y="-420.78" font-family="Helvetica,sans-Serif" font-size="14.00">true</text>
</g>
<!-- fib_AFTER_LOOP -->
<g id="node12" class="node">
<title>fib_AFTER_LOOP</title>
<path fill="none" stroke="black" d="M277.88,-392.45C277.88,-392.45 211.62,-392.45 211.62,-392.45 205.62,-392.45 199.62,-386.45 199.62,-380.45 199.62,-380.45 199.62,-364.95 199.62,-364.95 199.62,-358.95 205.62,-352.95 211.62,-352.95 211.62,-352.95 277.88,-352.95 277.88,-352.95 283.88,-352.95 289.88,-358.95 289.88,-364.95 289.88,-364.95 289.88,-380.45 289.88,-380.45 289.88,-386.45 283.88,-392.45 277.88,-392.45"/>
<text xml:space="preserve" text-anchor="middle" x="244.75" y="-375.15" font-family="Helvetica,sans-Serif" font-size="14.00">ans = Fnew;</text>
<text xml:space="preserve" text-anchor="middle" x="244.75" y="-359.4" font-family="Helvetica,sans-Serif" font-size="14.00">return ans;</text>
</g>
<!-- fib_COND&#45;&gt;fib_AFTER_LOOP -->
<g id="edge10" class="edge">
<title>fib_COND&#45;&gt;fib_AFTER_LOOP</title>
<path fill="none" stroke="black" d="M185.14,-451.59C195.81,-437.65 210.95,-417.87 223.3,-401.73"/>
<polygon fill="black" stroke="black" points="225.98,-403.99 229.27,-393.92 220.42,-399.74 225.98,-403.99"/>
<text xml:space="preserve" text-anchor="middle" x="224.69" y="-420.78" font-family="Helvetica,sans-Serif" font-size="14.00">false</text>
</g>
<!-- fib_INCREMENT -->
<g id="node11" class="node">
<title>fib_INCREMENT</title>
<path fill="none" stroke="black" d="M148.75,-285.49C148.75,-285.49 118.75,-285.49 118.75,-285.49 112.75,-285.49 106.75,-279.49 106.75,-273.49 106.75,-273.49 106.75,-261.49 106.75,-261.49 106.75,-255.49 112.75,-249.49 118.75,-249.49 118.75,-249.49 148.75,-249.49 148.75,-249.49 154.75,-249.49 160.75,-255.49 160.75,-261.49 160.75,-261.49 160.75,-273.49 160.75,-273.49 160.75,-279.49 154.75,-285.49 148.75,-285.49"/>
<text xml:space="preserve" text-anchor="middle" x="133.75" y="-262.06" font-family="Helvetica,sans-Serif" font-size="14.00">i++</text>
</g>
<!-- fib_BODY&#45;&gt;fib_INCREMENT -->
<g id="edge11" class="edge">
<title>fib_BODY&#45;&gt;fib_INCREMENT</title>
<path fill="none" stroke="black" d="M88.04,-344.59C97.13,-329.44 108.43,-310.64 117.52,-295.51"/>
<polygon fill="black" stroke="black" points="120.47,-297.39 122.62,-287.02 114.47,-293.79 120.47,-297.39"/>
</g>
<!-- fib_INCREMENT&#45;&gt;fib_COND -->
<g id="edge12" class="edge">
<title>fib_INCREMENT&#45;&gt;fib_COND</title>
<path fill="none" stroke="black" d="M138.5,-285.72C142.65,-301.18 148.63,-324.53 152.75,-345.08 159.25,-377.56 164.74,-415.22 168.12,-440.44"/>
<polygon fill="black" stroke="black" points="164.63,-440.78 169.4,-450.24 171.57,-439.87 164.63,-440.78"/>
</g>
<!-- fib_EXIT -->
<g id="node13" class="node">
<title>fib_EXIT</title>
<ellipse fill="none" stroke="black" cx="244.75" cy="-267.49" rx="36.59" ry="36.59"/>
<ellipse fill="none" stroke="black" cx="244.75" cy="-267.49" rx="40.59" ry="40.59"/>
<text xml:space="preserve" text-anchor="middle" x="244.75" y="-262.06" font-family="Helvetica,sans-Serif" font-size="14.00">fib exit</text>
</g>
<!-- fib_AFTER_LOOP&#45;&gt;fib_EXIT -->
<g id="edge13" class="edge">
<title>fib_AFTER_LOOP&#45;&gt;fib_EXIT</title>
<path fill="none" stroke="black" d="M244.75,-352.77C244.75,-343.33 244.75,-331.42 244.75,-319.54"/>
<polygon fill="black" stroke="black" points="248.25,-319.76 244.75,-309.76 241.25,-319.76 248.25,-319.76"/>
</g>
<!-- fib_EXIT&#45;&gt;main_RETURN -->
<g id="edge4" class="edge">
<title>fib_EXIT&#45;&gt;main_RETURN</title>
<path fill="none" stroke="black" d="M244.75,-226.45C244.75,-213.25 244.75,-198.85 244.75,-186.68"/>
<polygon fill="black" stroke="black" points="248.25,-186.91 244.75,-176.91 241.25,-186.91 248.25,-186.91"/>
<text xml:space="preserve" text-anchor="middle" x="262.38" y="-195.59" font-family="Helvetica,sans-Serif" font-size="14.00">return</text>
</g>
</g>
</svg>
