<?xml version="1.0" encoding="UTF-8" standalone="no"?>
<!DOCTYPE svg PUBLIC "-//W3C//DTD SVG 1.1//EN"
 "http://www.w3.org/Graphics/SVG/1.1/DTD/svg11.dtd">
<!-- Generated by graphviz version 13.1.2 (20250808.2320)
 -->
<!-- Title: cl_block Pages: 1 -->
<svg width="366pt" height="589pt"
 viewBox="0.00 0.00 366.00 589.00" xmlns="http://www.w3.org/2000/svg" xmlns:xlink="http://www.w3.org/1999/xlink">
<g id="graph0" class="graph" transform="scale(1 1) rotate(0) translate(4 585)">
<title>cl_block</title>
<polygon fill="white" stroke="none" points="-4,4 -4,-585 362.12,-585 362.12,4 -4,4"/>
<!-- start -->
<g id="node1" class="node">
<title>start</title>
<ellipse fill="none" stroke="black" cx="120.75" cy="-563" rx="66.71" ry="18"/>
<text xml:space="preserve" text-anchor="middle" x="120.75" y="-557.95" font-family="Times New Roman,serif" font-size="14.00">Inicio cl_block</text>
</g>
<!-- node1 -->
<g id="node3" class="node">
<title>node1</title>
<polygon fill="none" stroke="black" points="237.5,-508 4,-508 4,-472 237.5,-472 237.5,-508"/>
<text xml:space="preserve" text-anchor="middle" x="120.75" y="-484.95" font-family="Times New Roman,serif" font-size="14.00">checkpoint = in_count + CHECK_GAP</text>
</g>
<!-- start&#45;&gt;node1 -->
<g id="edge1" class="edge">
<title>start&#45;&gt;node1</title>
<path fill="none" stroke="black" d="M120.75,-544.81C120.75,-537.23 120.75,-528.1 120.75,-519.54"/>
<polygon fill="black" stroke="black" points="124.25,-519.54 120.75,-509.54 117.25,-519.54 124.25,-519.54"/>
</g>
<!-- end -->
<g id="node2" class="node">
<title>end</title>
<ellipse fill="none" stroke="black" cx="164.75" cy="-18" rx="60.56" ry="18"/>
<text xml:space="preserve" text-anchor="middle" x="164.75" y="-12.95" font-family="Times New Roman,serif" font-size="14.00">Fim cl_block</text>
</g>
<!-- node2 -->
<g id="node4" class="node">
<title>node2</title>
<polygon fill="none" stroke="red" points="198.88,-435 42.62,-435 42.62,-399 198.88,-399 198.88,-435"/>
<text xml:space="preserve" text-anchor="middle" x="120.75" y="-411.95" font-family="Times New Roman,serif" font-size="14.00" fill="red">if (in_count &gt; 0x007fffff)</text>
</g>
<!-- node1&#45;&gt;node2 -->
<g id="edge2" class="edge">
<title>node1&#45;&gt;node2</title>
<path fill="none" stroke="black" d="M120.75,-471.81C120.75,-464.23 120.75,-455.1 120.75,-446.54"/>
<polygon fill="black" stroke="black" points="124.25,-446.54 120.75,-436.54 117.25,-446.54 124.25,-446.54"/>
</g>
<!-- node3 -->
<g id="node5" class="node">
<title>node3</title>
<polygon fill="none" stroke="red" points="143.5,-346.5 0,-346.5 0,-289 143.5,-289 143.5,-346.5"/>
<text xml:space="preserve" text-anchor="middle" x="71.75" y="-329.2" font-family="Times New Roman,serif" font-size="14.00" fill="red">rat = bytes_out &gt;&gt; 8</text>
<text xml:space="preserve" text-anchor="middle" x="71.75" y="-312.7" font-family="Times New Roman,serif" font-size="14.00" fill="red">if (rat==0) rat=0x7fffff</text>
<text xml:space="preserve" text-anchor="middle" x="71.75" y="-296.2" font-family="Times New Roman,serif" font-size="14.00" fill="red">else rat=in_count/rat</text>
</g>
<!-- node2&#45;&gt;node3 -->
<g id="edge3" class="edge">
<title>node2&#45;&gt;node3</title>
<path fill="none" stroke="red" d="M88.65,-398.66C82.49,-393.8 76.84,-387.91 73.25,-381 69.63,-374.04 67.94,-366.03 67.38,-358.11"/>
<polygon fill="red" stroke="red" points="70.88,-358.21 67.28,-348.24 63.88,-358.27 70.88,-358.21"/>
<text xml:space="preserve" text-anchor="middle" x="86" y="-367.7" font-family="Times New Roman,serif" font-size="14.00" fill="red">True</text>
</g>
<!-- node2&#45;&gt;node3 -->
<g id="edge11" class="edge">
<title>node2&#45;&gt;node3</title>
<path fill="none" stroke="red" d="M113.96,-398.58C109.87,-388.48 104.37,-375.6 98.75,-364.5 97.47,-361.98 96.12,-359.41 94.72,-356.83"/>
<polygon fill="red" stroke="red" points="97.88,-355.31 89.92,-348.31 91.77,-358.74 97.88,-355.31"/>
<text xml:space="preserve" text-anchor="middle" x="137.49" y="-367.7" font-family="Times New Roman,serif" font-size="14.00" fill="red">INVIAVEL</text>
</g>
<!-- node4 -->
<g id="node6" class="node">
<title>node4</title>
<polygon fill="none" stroke="black" points="358.12,-335.75 161.38,-335.75 161.38,-299.75 358.12,-299.75 358.12,-335.75"/>
<text xml:space="preserve" text-anchor="middle" x="259.75" y="-312.7" font-family="Times New Roman,serif" font-size="14.00">rat = (in_count &lt;&lt; 8) / bytes_out</text>
</g>
<!-- node2&#45;&gt;node4 -->
<g id="edge4" class="edge">
<title>node2&#45;&gt;node4</title>
<path fill="none" stroke="black" d="M147.04,-398.52C155.3,-392.97 164.44,-386.77 172.75,-381 190.73,-368.52 210.6,-354.33 226.8,-342.66"/>
<polygon fill="black" stroke="black" points="228.59,-345.69 234.65,-337 224.49,-340.01 228.59,-345.69"/>
<text xml:space="preserve" text-anchor="middle" x="208.62" y="-367.7" font-family="Times New Roman,serif" font-size="14.00">False</text>
</g>
<!-- node5 -->
<g id="node7" class="node">
<title>node5</title>
<polygon fill="none" stroke="black" points="210.62,-252 118.88,-252 118.88,-216 210.62,-216 210.62,-252"/>
<text xml:space="preserve" text-anchor="middle" x="164.75" y="-228.95" font-family="Times New Roman,serif" font-size="14.00">if (rat &gt; ratio)</text>
</g>
<!-- node3&#45;&gt;node5 -->
<g id="edge5" class="edge">
<title>node3&#45;&gt;node5</title>
<path fill="none" stroke="red" d="M103.76,-288.62C114.32,-279.33 126,-269.07 136.28,-260.03"/>
<polygon fill="red" stroke="red" points="138.56,-262.68 143.76,-253.45 133.94,-257.43 138.56,-262.68"/>
</g>
<!-- node4&#45;&gt;node5 -->
<g id="edge6" class="edge">
<title>node4&#45;&gt;node5</title>
<path fill="none" stroke="black" d="M239.6,-299.41C226.13,-287.82 208.19,-272.38 193.26,-259.53"/>
<polygon fill="black" stroke="black" points="195.88,-257.17 186.02,-253.3 191.31,-262.48 195.88,-257.17"/>
</g>
<!-- node6 -->
<g id="node8" class="node">
<title>node6</title>
<polygon fill="none" stroke="black" points="146.12,-136.25 75.38,-136.25 75.38,-100.25 146.12,-100.25 146.12,-136.25"/>
<text xml:space="preserve" text-anchor="middle" x="110.75" y="-113.2" font-family="Times New Roman,serif" font-size="14.00">ratio = rat</text>
</g>
<!-- node5&#45;&gt;node6 -->
<g id="edge7" class="edge">
<title>node5&#45;&gt;node6</title>
<path fill="none" stroke="black" d="M156.55,-215.72C147.87,-197.43 134.03,-168.3 123.84,-146.83"/>
<polygon fill="black" stroke="black" points="127.13,-145.59 119.68,-138.06 120.8,-148.59 127.13,-145.59"/>
<text xml:space="preserve" text-anchor="middle" x="160.03" y="-184.7" font-family="Times New Roman,serif" font-size="14.00">True</text>
</g>
<!-- node7 -->
<g id="node9" class="node">
<title>node7</title>
<polygon fill="none" stroke="black" points="277.12,-163.5 164.38,-163.5 164.38,-73 277.12,-73 277.12,-163.5"/>
<text xml:space="preserve" text-anchor="middle" x="220.75" y="-146.2" font-family="Times New Roman,serif" font-size="14.00">ratio = 0</text>
<text xml:space="preserve" text-anchor="middle" x="220.75" y="-129.7" font-family="Times New Roman,serif" font-size="14.00">cl_hash(hsize)</text>
<text xml:space="preserve" text-anchor="middle" x="220.75" y="-113.2" font-family="Times New Roman,serif" font-size="14.00">free_ent = FIRST</text>
<text xml:space="preserve" text-anchor="middle" x="220.75" y="-96.7" font-family="Times New Roman,serif" font-size="14.00">clear_flg = 1</text>
<text xml:space="preserve" text-anchor="middle" x="220.75" y="-80.2" font-family="Times New Roman,serif" font-size="14.00">output(CLEAR)</text>
</g>
<!-- node5&#45;&gt;node7 -->
<g id="edge8" class="edge">
<title>node5&#45;&gt;node7</title>
<path fill="none" stroke="black" d="M173.26,-215.72C178.83,-204.41 186.44,-188.93 193.95,-173.7"/>
<polygon fill="black" stroke="black" points="196.89,-175.64 198.17,-165.12 190.61,-172.54 196.89,-175.64"/>
<text xml:space="preserve" text-anchor="middle" x="203.65" y="-184.7" font-family="Times New Roman,serif" font-size="14.00">False</text>
</g>
<!-- node6&#45;&gt;end -->
<g id="edge9" class="edge">
<title>node6&#45;&gt;end</title>
<path fill="none" stroke="black" d="M120.16,-100.14C128.31,-85.29 140.27,-63.55 149.75,-46.3"/>
<polygon fill="black" stroke="black" points="152.79,-48.02 154.54,-37.57 146.66,-44.65 152.79,-48.02"/>
</g>
<!-- node7&#45;&gt;end -->
<g id="edge10" class="edge">
<title>node7&#45;&gt;end</title>
<path fill="none" stroke="black" d="M195.37,-72.72C190.16,-63.59 184.83,-54.23 180.11,-45.94"/>
<polygon fill="black" stroke="black" points="183.25,-44.38 175.25,-37.43 177.17,-47.85 183.25,-44.38"/>
</g>
</g>
</svg>
