<?xml version="1.0" encoding="UTF-8" standalone="no"?>
<!DOCTYPE svg PUBLIC "-//W3C//DTD SVG 1.1//EN"
 "http://www.w3.org/Graphics/SVG/1.1/DTD/svg11.dtd">
<!-- Generated by graphviz version 13.1.2 (20250808.2320)
 -->
<!-- Title: compress Pages: 1 -->
<svg width="484pt" height="1767pt"
 viewBox="0.00 0.00 484.00 1767.00" xmlns="http://www.w3.org/2000/svg" xmlns:xlink="http://www.w3.org/1999/xlink">
<g id="graph0" class="graph" transform="scale(1 1) rotate(0) translate(4 1762.5)">
<title>compress</title>
<polygon fill="white" stroke="none" points="-4,4 -4,-1762.5 480,-1762.5 480,4 -4,4"/>
<!-- start -->
<g id="node1" class="node">
<title>start</title>
<ellipse fill="none" stroke="black" cx="357.38" cy="-1740.5" rx="70.29" ry="18"/>
<text xml:space="preserve" text-anchor="middle" x="357.38" y="-1735.45" font-family="Times New Roman,serif" font-size="14.00">Inicio compress</text>
</g>
<!-- node1 -->
<g id="node3" class="node">
<title>node1</title>
<polygon fill="none" stroke="black" points="476,-1685.5 238.75,-1685.5 238.75,-1649.5 476,-1649.5 476,-1685.5"/>
<text xml:space="preserve" text-anchor="middle" x="357.38" y="-1662.45" font-family="Times New Roman,serif" font-size="14.00">Inicializacoes: offset=0, bytes_out=3, ...</text>
</g>
<!-- start&#45;&gt;node1 -->
<g id="edge1" class="edge">
<title>start&#45;&gt;node1</title>
<path fill="none" stroke="black" d="M357.38,-1722.31C357.38,-1714.73 357.38,-1705.6 357.38,-1697.04"/>
<polygon fill="black" stroke="black" points="360.88,-1697.04 357.38,-1687.04 353.88,-1697.04 360.88,-1697.04"/>
</g>
<!-- end -->
<g id="node2" class="node">
<title>end</title>
<ellipse fill="none" stroke="black" cx="253.38" cy="-1193.5" rx="64.15" ry="18"/>
<text xml:space="preserve" text-anchor="middle" x="253.38" y="-1188.45" font-family="Times New Roman,serif" font-size="14.00">Fim compress</text>
</g>
<!-- node2 -->
<g id="node4" class="node">
<title>node2</title>
<polygon fill="none" stroke="black" points="405.88,-1612.5 308.88,-1612.5 308.88,-1576.5 405.88,-1576.5 405.88,-1612.5"/>
<text xml:space="preserve" text-anchor="middle" x="357.38" y="-1589.45" font-family="Times New Roman,serif" font-size="14.00">ent = getbyte()</text>
</g>
<!-- node1&#45;&gt;node2 -->
<g id="edge2" class="edge">
<title>node1&#45;&gt;node2</title>
<path fill="none" stroke="black" d="M357.38,-1649.31C357.38,-1641.73 357.38,-1632.6 357.38,-1624.04"/>
<polygon fill="black" stroke="black" points="360.88,-1624.04 357.38,-1614.04 353.88,-1624.04 360.88,-1624.04"/>
</g>
<!-- node3 -->
<g id="node5" class="node">
<title>node3</title>
<polygon fill="none" stroke="black" points="403.25,-1539.5 311.5,-1539.5 311.5,-1503.5 403.25,-1503.5 403.25,-1539.5"/>
<text xml:space="preserve" text-anchor="middle" x="357.38" y="-1516.45" font-family="Times New Roman,serif" font-size="14.00">Calcula hshift</text>
</g>
<!-- node2&#45;&gt;node3 -->
<g id="edge3" class="edge">
<title>node2&#45;&gt;node3</title>
<path fill="none" stroke="black" d="M357.38,-1576.31C357.38,-1568.73 357.38,-1559.6 357.38,-1551.04"/>
<polygon fill="black" stroke="black" points="360.88,-1551.04 357.38,-1541.04 353.88,-1551.04 360.88,-1551.04"/>
</g>
<!-- node4 -->
<g id="node6" class="node">
<title>node4</title>
<polygon fill="none" stroke="black" points="416.38,-1466.5 298.38,-1466.5 298.38,-1430.5 416.38,-1430.5 416.38,-1466.5"/>
<text xml:space="preserve" text-anchor="middle" x="357.38" y="-1443.45" font-family="Times New Roman,serif" font-size="14.00">cl_hash(hsize_reg)</text>
</g>
<!-- node3&#45;&gt;node4 -->
<g id="edge4" class="edge">
<title>node3&#45;&gt;node4</title>
<path fill="none" stroke="black" d="M357.38,-1503.31C357.38,-1495.73 357.38,-1486.6 357.38,-1478.04"/>
<polygon fill="black" stroke="black" points="360.88,-1478.04 357.38,-1468.04 353.88,-1478.04 360.88,-1478.04"/>
</g>
<!-- node5 -->
<g id="node7" class="node">
<title>node5</title>
<polygon fill="none" stroke="black" points="413.38,-1393.5 301.38,-1393.5 301.38,-1357.5 413.38,-1357.5 413.38,-1393.5"/>
<text xml:space="preserve" text-anchor="middle" x="357.38" y="-1370.45" font-family="Times New Roman,serif" font-size="14.00">while (InCnt &gt; 0)</text>
</g>
<!-- node4&#45;&gt;node5 -->
<g id="edge5" class="edge">
<title>node4&#45;&gt;node5</title>
<path fill="none" stroke="black" d="M357.38,-1430.31C357.38,-1422.73 357.38,-1413.6 357.38,-1405.04"/>
<polygon fill="black" stroke="black" points="360.88,-1405.04 357.38,-1395.04 353.88,-1405.04 360.88,-1405.04"/>
</g>
<!-- node6 -->
<g id="node8" class="node">
<title>node6</title>
<polygon fill="none" stroke="black" points="158.62,-1305 72.12,-1305 72.12,-1264 158.62,-1264 158.62,-1305"/>
<text xml:space="preserve" text-anchor="middle" x="115.38" y="-1287.7" font-family="Times New Roman,serif" font-size="14.00">c = getbyte()</text>
<text xml:space="preserve" text-anchor="middle" x="115.38" y="-1271.2" font-family="Times New Roman,serif" font-size="14.00">in_count++</text>
</g>
<!-- node5&#45;&gt;node6 -->
<g id="edge6" class="edge">
<title>node5&#45;&gt;node6</title>
<path fill="none" stroke="black" d="M301.11,-1364.67C273.72,-1358.95 240.63,-1350.65 212.12,-1339.5 192.66,-1331.89 172.28,-1321.01 155.28,-1311"/>
<polygon fill="black" stroke="black" points="157.36,-1308.17 146.99,-1306.03 153.76,-1314.18 157.36,-1308.17"/>
<text xml:space="preserve" text-anchor="middle" x="238.75" y="-1326.2" font-family="Times New Roman,serif" font-size="14.00">InCnt &gt; 0</text>
</g>
<!-- node23 -->
<g id="node25" class="node">
<title>node23</title>
<polygon fill="none" stroke="black" points="329.62,-1305 177.12,-1305 177.12,-1264 329.62,-1264 329.62,-1305"/>
<text xml:space="preserve" text-anchor="middle" x="253.38" y="-1287.7" font-family="Times New Roman,serif" font-size="14.00">if (bytes_out &gt; in_count)</text>
<text xml:space="preserve" text-anchor="middle" x="253.38" y="-1271.2" font-family="Times New Roman,serif" font-size="14.00">exit_stat = 2</text>
</g>
<!-- node5&#45;&gt;node23 -->
<g id="edge7" class="edge">
<title>node5&#45;&gt;node23</title>
<path fill="none" stroke="black" d="M307.73,-1357.15C298.43,-1352.4 289.31,-1346.56 281.88,-1339.5 274.96,-1332.93 269.38,-1324.31 265.06,-1315.88"/>
<polygon fill="black" stroke="black" points="268.26,-1314.47 260.88,-1306.87 261.91,-1317.41 268.26,-1314.47"/>
<text xml:space="preserve" text-anchor="middle" x="312.62" y="-1326.2" font-family="Times New Roman,serif" font-size="14.00">InCnt &lt;= 0</text>
</g>
<!-- node7 -->
<g id="node9" class="node">
<title>node7</title>
<polygon fill="none" stroke="black" points="169.5,-1211.5 67.25,-1211.5 67.25,-1175.5 169.5,-1175.5 169.5,-1211.5"/>
<text xml:space="preserve" text-anchor="middle" x="118.38" y="-1188.45" font-family="Times New Roman,serif" font-size="14.00">Calcula fcode, i</text>
</g>
<!-- node6&#45;&gt;node7 -->
<g id="edge8" class="edge">
<title>node6&#45;&gt;node7</title>
<path fill="none" stroke="black" d="M116.04,-1263.75C116.44,-1251.83 116.96,-1236.44 117.41,-1223.19"/>
<polygon fill="black" stroke="black" points="120.9,-1223.42 117.74,-1213.3 113.91,-1223.18 120.9,-1223.42"/>
</g>
<!-- node8 -->
<g id="node10" class="node">
<title>node8</title>
<polygon fill="none" stroke="black" points="234.5,-1138.5 96.25,-1138.5 96.25,-1102.5 234.5,-1102.5 234.5,-1138.5"/>
<text xml:space="preserve" text-anchor="middle" x="165.38" y="-1115.45" font-family="Times New Roman,serif" font-size="14.00">if (htabof(i) == fcode)</text>
</g>
<!-- node7&#45;&gt;node8 -->
<g id="edge9" class="edge">
<title>node7&#45;&gt;node8</title>
<path fill="none" stroke="black" d="M129.75,-1175.31C135.18,-1167.12 141.79,-1157.12 147.84,-1147.98"/>
<polygon fill="black" stroke="black" points="150.67,-1150.06 153.27,-1139.79 144.83,-1146.2 150.67,-1150.06"/>
</g>
<!-- node8&#45;&gt;node5 -->
<g id="edge10" class="edge">
<title>node8&#45;&gt;node5</title>
<path fill="none" stroke="black" d="M234.91,-1128.31C267.37,-1135.13 303.75,-1148.69 326.38,-1175.5 367.21,-1223.9 365.78,-1303.43 361.45,-1345.81"/>
<polygon fill="black" stroke="black" points="357.98,-1345.36 360.3,-1355.7 364.93,-1346.18 357.98,-1345.36"/>
<text xml:space="preserve" text-anchor="middle" x="370.45" y="-1232.7" font-family="Times New Roman,serif" font-size="14.00">True</text>
</g>
<!-- node9 -->
<g id="node11" class="node">
<title>node9</title>
<polygon fill="none" stroke="black" points="231.12,-1050 99.62,-1050 99.62,-1014 231.12,-1014 231.12,-1050"/>
<text xml:space="preserve" text-anchor="middle" x="165.38" y="-1026.95" font-family="Times New Roman,serif" font-size="14.00">else if (htabof(i) &lt; 0)</text>
</g>
<!-- node8&#45;&gt;node9 -->
<g id="edge11" class="edge">
<title>node8&#45;&gt;node9</title>
<path fill="none" stroke="black" d="M165.38,-1102.41C165.38,-1090.76 165.38,-1075.05 165.38,-1061.52"/>
<polygon fill="black" stroke="black" points="168.88,-1061.86 165.38,-1051.86 161.88,-1061.86 168.88,-1061.86"/>
<text xml:space="preserve" text-anchor="middle" x="179.62" y="-1071.2" font-family="Times New Roman,serif" font-size="14.00">False</text>
</g>
<!-- node10 -->
<g id="node12" class="node">
<title>node10</title>
<polygon fill="none" stroke="black" points="233.25,-961.5 111.5,-961.5 111.5,-925.5 233.25,-925.5 233.25,-961.5"/>
<text xml:space="preserve" text-anchor="middle" x="172.38" y="-938.45" font-family="Times New Roman,serif" font-size="14.00">disp = hsize_reg &#45; i</text>
</g>
<!-- node9&#45;&gt;node10 -->
<g id="edge13" class="edge">
<title>node9&#45;&gt;node10</title>
<path fill="none" stroke="black" d="M166.76,-1013.91C167.7,-1002.26 168.97,-986.55 170.07,-973.02"/>
<polygon fill="black" stroke="black" points="173.53,-973.61 170.85,-963.36 166.55,-973.04 173.53,-973.61"/>
<text xml:space="preserve" text-anchor="middle" x="183.75" y="-982.7" font-family="Times New Roman,serif" font-size="14.00">False</text>
</g>
<!-- node16 -->
<g id="node18" class="node">
<title>node16</title>
<polygon fill="none" stroke="black" points="274.88,-461.5 207.88,-461.5 207.88,-425.5 274.88,-425.5 274.88,-461.5"/>
<text xml:space="preserve" text-anchor="middle" x="241.38" y="-438.45" font-family="Times New Roman,serif" font-size="14.00">nomatch:</text>
</g>
<!-- node9&#45;&gt;node16 -->
<g id="edge12" class="edge">
<title>node9&#45;&gt;node16</title>
<path fill="none" stroke="black" d="M132.97,-1013.55C110.05,-998.6 83.38,-974.71 83.38,-944.5 83.38,-944.5 83.38,-944.5 83.38,-531 83.38,-479.14 149.67,-458.17 196.38,-449.83"/>
<polygon fill="black" stroke="black" points="196.68,-453.33 205.99,-448.26 195.55,-446.42 196.68,-453.33"/>
<text xml:space="preserve" text-anchor="middle" x="96.12" y="-748.2" font-family="Times New Roman,serif" font-size="14.00">True</text>
</g>
<!-- node11 -->
<g id="node13" class="node">
<title>node11</title>
<polygon fill="none" stroke="black" points="232.5,-888.5 112.25,-888.5 112.25,-852.5 232.5,-852.5 232.5,-888.5"/>
<text xml:space="preserve" text-anchor="middle" x="172.38" y="-865.45" font-family="Times New Roman,serif" font-size="14.00">if (i == 0) disp = 1</text>
</g>
<!-- node10&#45;&gt;node11 -->
<g id="edge14" class="edge">
<title>node10&#45;&gt;node11</title>
<path fill="none" stroke="black" d="M172.38,-925.31C172.38,-917.73 172.38,-908.6 172.38,-900.04"/>
<polygon fill="black" stroke="black" points="175.88,-900.04 172.38,-890.04 168.88,-900.04 175.88,-900.04"/>
</g>
<!-- node12 -->
<g id="node14" class="node">
<title>node12</title>
<polygon fill="none" stroke="black" points="199.38,-815.5 145.38,-815.5 145.38,-779.5 199.38,-779.5 199.38,-815.5"/>
<text xml:space="preserve" text-anchor="middle" x="172.38" y="-792.45" font-family="Times New Roman,serif" font-size="14.00">probe:</text>
</g>
<!-- node11&#45;&gt;node12 -->
<g id="edge15" class="edge">
<title>node11&#45;&gt;node12</title>
<path fill="none" stroke="black" d="M172.38,-852.31C172.38,-844.73 172.38,-835.6 172.38,-827.04"/>
<polygon fill="black" stroke="black" points="175.88,-827.04 172.38,-817.04 168.88,-827.04 175.88,-827.04"/>
</g>
<!-- node13 -->
<g id="node15" class="node">
<title>node13</title>
<polygon fill="none" stroke="black" points="370.75,-727 180,-727 180,-691 370.75,-691 370.75,-727"/>
<text xml:space="preserve" text-anchor="middle" x="275.38" y="-703.95" font-family="Times New Roman,serif" font-size="14.00">i &#45;= disp; se i&lt;0, i += hsize_reg</text>
</g>
<!-- node12&#45;&gt;node13 -->
<g id="edge16" class="edge">
<title>node12&#45;&gt;node13</title>
<path fill="none" stroke="black" d="M192.72,-779.41C208,-766.58 229.14,-748.83 246.21,-734.49"/>
<polygon fill="black" stroke="black" points="248.15,-737.43 253.56,-728.32 243.65,-732.07 248.15,-737.43"/>
</g>
<!-- node14 -->
<g id="node16" class="node">
<title>node14</title>
<polygon fill="none" stroke="black" points="344.5,-638.5 206.25,-638.5 206.25,-602.5 344.5,-602.5 344.5,-638.5"/>
<text xml:space="preserve" text-anchor="middle" x="275.38" y="-615.45" font-family="Times New Roman,serif" font-size="14.00">if (htabof(i) == fcode)</text>
</g>
<!-- node13&#45;&gt;node14 -->
<g id="edge17" class="edge">
<title>node13&#45;&gt;node14</title>
<path fill="none" stroke="black" d="M275.38,-690.91C275.38,-679.26 275.38,-663.55 275.38,-650.02"/>
<polygon fill="black" stroke="black" points="278.88,-650.36 275.38,-640.36 271.88,-650.36 278.88,-650.36"/>
</g>
<!-- node14&#45;&gt;node5 -->
<g id="edge18" class="edge">
<title>node14&#45;&gt;node5</title>
<path fill="none" stroke="black" d="M335.07,-638.92C366.41,-652.12 398.38,-673.93 398.38,-708 398.38,-1285.5 398.38,-1285.5 398.38,-1285.5 398.38,-1307.97 387.46,-1330.94 376.9,-1347.92"/>
<polygon fill="black" stroke="black" points="374.21,-1345.63 371.63,-1355.91 380.06,-1349.49 374.21,-1345.63"/>
<text xml:space="preserve" text-anchor="middle" x="411.12" y="-982.7" font-family="Times New Roman,serif" font-size="14.00">True</text>
</g>
<!-- node15 -->
<g id="node17" class="node">
<title>node15</title>
<polygon fill="none" stroke="black" points="405.12,-550 111.62,-550 111.62,-514 405.12,-514 405.12,-550"/>
<text xml:space="preserve" text-anchor="middle" x="258.38" y="-526.95" font-family="Times New Roman,serif" font-size="14.00">if (htabof(i) &gt; 0 &amp;&amp; apsim_bound111 &lt; in_count)</text>
</g>
<!-- node14&#45;&gt;node15 -->
<g id="edge19" class="edge">
<title>node14&#45;&gt;node15</title>
<path fill="none" stroke="black" d="M272.02,-602.41C269.73,-590.76 266.64,-575.05 263.98,-561.52"/>
<polygon fill="black" stroke="black" points="267.44,-560.97 262.08,-551.84 260.57,-562.32 267.44,-560.97"/>
<text xml:space="preserve" text-anchor="middle" x="282.65" y="-571.2" font-family="Times New Roman,serif" font-size="14.00">False</text>
</g>
<!-- node15&#45;&gt;node12 -->
<g id="edge20" class="edge">
<title>node15&#45;&gt;node12</title>
<path fill="none" stroke="black" d="M239.11,-550.47C225.68,-563.6 208.29,-582.67 197.38,-602.5 177.61,-638.42 177.21,-650.42 171.38,-691 169.1,-706.84 171.26,-711 171.38,-727 171.47,-740.44 171.67,-755.35 171.87,-767.89"/>
<polygon fill="black" stroke="black" points="168.37,-767.62 172.03,-777.56 175.36,-767.51 168.37,-767.62"/>
<text xml:space="preserve" text-anchor="middle" x="189.26" y="-659.7" font-family="Times New Roman,serif" font-size="14.00">True</text>
</g>
<!-- node15&#45;&gt;node16 -->
<g id="edge21" class="edge">
<title>node15&#45;&gt;node16</title>
<path fill="none" stroke="black" d="M255.02,-513.91C252.73,-502.26 249.64,-486.55 246.98,-473.02"/>
<polygon fill="black" stroke="black" points="250.44,-472.47 245.08,-463.34 243.57,-473.82 250.44,-472.47"/>
<text xml:space="preserve" text-anchor="middle" x="265.65" y="-482.7" font-family="Times New Roman,serif" font-size="14.00">False</text>
</g>
<!-- node17 -->
<g id="node19" class="node">
<title>node17</title>
<polygon fill="none" stroke="black" points="284.62,-388.5 198.12,-388.5 198.12,-347.5 284.62,-347.5 284.62,-388.5"/>
<text xml:space="preserve" text-anchor="middle" x="241.38" y="-371.2" font-family="Times New Roman,serif" font-size="14.00">out_count++</text>
<text xml:space="preserve" text-anchor="middle" x="241.38" y="-354.7" font-family="Times New Roman,serif" font-size="14.00">ent = c</text>
</g>
<!-- node16&#45;&gt;node17 -->
<g id="edge22" class="edge">
<title>node16&#45;&gt;node17</title>
<path fill="none" stroke="black" d="M241.38,-425.08C241.38,-417.7 241.38,-408.85 241.38,-400.4"/>
<polygon fill="black" stroke="black" points="244.88,-400.4 241.38,-390.4 237.88,-400.4 244.88,-400.4"/>
</g>
<!-- node18 -->
<g id="node20" class="node">
<title>node18</title>
<polygon fill="none" stroke="black" points="326.62,-310.5 156.12,-310.5 156.12,-274.5 326.62,-274.5 326.62,-310.5"/>
<text xml:space="preserve" text-anchor="middle" x="241.38" y="-287.45" font-family="Times New Roman,serif" font-size="14.00">if (free_ent &lt; maxmaxcode)</text>
</g>
<!-- node17&#45;&gt;node18 -->
<g id="edge23" class="edge">
<title>node17&#45;&gt;node18</title>
<path fill="none" stroke="black" d="M241.38,-347.3C241.38,-339.56 241.38,-330.51 241.38,-322.07"/>
<polygon fill="black" stroke="black" points="244.88,-322.26 241.38,-312.26 237.88,-322.26 244.88,-322.26"/>
</g>
<!-- node19 -->
<g id="node21" class="node">
<title>node19</title>
<polygon fill="none" stroke="black" points="424.62,-168 266.12,-168 266.12,-127 424.62,-127 424.62,-168"/>
<text xml:space="preserve" text-anchor="middle" x="345.38" y="-150.7" font-family="Times New Roman,serif" font-size="14.00">codetabof(i) = free_ent++</text>
<text xml:space="preserve" text-anchor="middle" x="345.38" y="-134.2" font-family="Times New Roman,serif" font-size="14.00">htabof(i) = fcode</text>
</g>
<!-- node18&#45;&gt;node19 -->
<g id="edge24" class="edge">
<title>node18&#45;&gt;node19</title>
<path fill="none" stroke="black" d="M266.92,-274.06C283.84,-261.35 305.42,-242.78 319.38,-222 327.98,-209.18 334.08,-193.2 338.2,-179.41"/>
<polygon fill="black" stroke="black" points="341.53,-180.49 340.8,-169.92 334.78,-178.64 341.53,-180.49"/>
<text xml:space="preserve" text-anchor="middle" x="316.89" y="-243.2" font-family="Times New Roman,serif" font-size="14.00">True</text>
</g>
<!-- node20 -->
<g id="node22" class="node">
<title>node20</title>
<polygon fill="none" stroke="red" points="310.75,-222 0,-222 0,-186 310.75,-186 310.75,-222"/>
<text xml:space="preserve" text-anchor="middle" x="155.38" y="-198.95" font-family="Times New Roman,serif" font-size="14.00" fill="red">else if (in_count &gt;= checkpoint &amp;&amp; block_compress)</text>
</g>
<!-- node18&#45;&gt;node20 -->
<g id="edge25" class="edge">
<title>node18&#45;&gt;node20</title>
<path fill="none" stroke="black" d="M224.38,-274.41C211.86,-261.82 194.63,-244.48 180.51,-230.29"/>
<polygon fill="black" stroke="black" points="183.22,-228.05 173.69,-223.42 178.26,-232.98 183.22,-228.05"/>
<text xml:space="preserve" text-anchor="middle" x="220.33" y="-243.2" font-family="Times New Roman,serif" font-size="14.00">False</text>
</g>
<!-- node22 -->
<g id="node24" class="node">
<title>node22</title>
<polygon fill="none" stroke="black" points="331.12,-36 247.62,-36 247.62,0 331.12,0 331.12,-36"/>
<text xml:space="preserve" text-anchor="middle" x="289.38" y="-12.95" font-family="Times New Roman,serif" font-size="14.00">Fim do loop</text>
</g>
<!-- node19&#45;&gt;node22 -->
<g id="edge26" class="edge">
<title>node19&#45;&gt;node22</title>
<path fill="none" stroke="black" d="M336.62,-126.58C327.18,-105.08 312.08,-70.69 301.49,-46.59"/>
<polygon fill="black" stroke="black" points="304.82,-45.46 297.59,-37.71 298.41,-48.28 304.82,-45.46"/>
</g>
<!-- node21 -->
<g id="node23" class="node">
<title>node21</title>
<polygon fill="none" stroke="red" points="234.12,-109 162.62,-109 162.62,-73 234.12,-73 234.12,-109"/>
<text xml:space="preserve" text-anchor="middle" x="198.38" y="-85.95" font-family="Times New Roman,serif" font-size="14.00" fill="red">cl_block()</text>
</g>
<!-- node20&#45;&gt;node21 -->
<g id="edge27" class="edge">
<title>node20&#45;&gt;node21</title>
<path fill="none" stroke="red" d="M149.59,-185.69C145.28,-169.6 141.58,-145.4 150.88,-127 152.69,-123.42 155.05,-120.11 157.77,-117.08"/>
<polygon fill="red" stroke="red" points="160.11,-119.68 165.05,-110.3 155.34,-114.56 160.11,-119.68"/>
<text xml:space="preserve" text-anchor="middle" x="163.62" y="-142.45" font-family="Times New Roman,serif" font-size="14.00" fill="red">True</text>
</g>
<!-- node20&#45;&gt;node21 -->
<g id="edge32" class="edge">
<title>node20&#45;&gt;node21</title>
<path fill="none" stroke="red" d="M166.98,-185.67C170.32,-180.18 173.77,-173.98 176.38,-168 183.05,-152.7 188.34,-134.8 192.06,-120.22"/>
<polygon fill="red" stroke="red" points="195.39,-121.36 194.35,-110.82 188.58,-119.71 195.39,-121.36"/>
<text xml:space="preserve" text-anchor="middle" x="221.69" y="-142.45" font-family="Times New Roman,serif" font-size="14.00" fill="red">INVIAVEL</text>
</g>
<!-- node20&#45;&gt;node22 -->
<g id="edge28" class="edge">
<title>node20&#45;&gt;node22</title>
<path fill="none" stroke="black" d="M143.28,-185.7C126.27,-159.03 99.99,-107.36 124.88,-73 150.04,-38.25 198.28,-25.47 236.04,-20.95"/>
<polygon fill="black" stroke="black" points="236.29,-24.45 245.88,-19.95 235.58,-17.48 236.29,-24.45"/>
<text xml:space="preserve" text-anchor="middle" x="139.12" y="-85.95" font-family="Times New Roman,serif" font-size="14.00">False</text>
</g>
<!-- node21&#45;&gt;node22 -->
<g id="edge29" class="edge">
<title>node21&#45;&gt;node22</title>
<path fill="none" stroke="red" d="M220.4,-72.81C231.83,-63.9 245.98,-52.86 258.48,-43.1"/>
<polygon fill="red" stroke="red" points="260.31,-46.12 266.04,-37.21 256,-40.6 260.31,-46.12"/>
</g>
<!-- node22&#45;&gt;node5 -->
<g id="edge30" class="edge">
<title>node22&#45;&gt;node5</title>
<path fill="none" stroke="black" d="M331.56,-21.38C375.92,-26.42 439.38,-42.03 439.38,-90 439.38,-1285.5 439.38,-1285.5 439.38,-1285.5 439.38,-1312.77 418.3,-1335.26 397.51,-1350.82"/>
<polygon fill="black" stroke="black" points="395.77,-1347.77 389.61,-1356.39 399.8,-1353.49 395.77,-1347.77"/>
</g>
<!-- node23&#45;&gt;end -->
<g id="edge31" class="edge">
<title>node23&#45;&gt;end</title>
<path fill="none" stroke="black" d="M253.38,-1263.75C253.38,-1251.83 253.38,-1236.44 253.38,-1223.19"/>
<polygon fill="black" stroke="black" points="256.88,-1223.31 253.38,-1213.31 249.88,-1223.31 256.88,-1223.31"/>
</g>
</g>
</svg>
