<?xml version="1.0" encoding="UTF-8" standalone="no"?>
<!DOCTYPE svg PUBLIC "-//W3C//DTD SVG 1.1//EN"
 "http://www.w3.org/Graphics/SVG/1.1/DTD/svg11.dtd">
<!-- Generated by graphviz version 13.1.2 (20250808.2320)
 -->
<!-- Title: output Pages: 1 -->
<svg width="415pt" height="783pt"
 viewBox="0.00 0.00 415.00 783.00" xmlns="http://www.w3.org/2000/svg" xmlns:xlink="http://www.w3.org/1999/xlink">
<g id="graph0" class="graph" transform="scale(1 1) rotate(0) translate(4 778.5)">
<title>output</title>
<polygon fill="white" stroke="none" points="-4,4 -4,-778.5 411.38,-778.5 411.38,4 -4,4"/>
<!-- start -->
<g id="node1" class="node">
<title>start</title>
<ellipse fill="none" stroke="black" cx="257.25" cy="-756.5" rx="58.52" ry="18"/>
<text xml:space="preserve" text-anchor="middle" x="257.25" y="-751.45" font-family="Times New Roman,serif" font-size="14.00">Inicio output</text>
</g>
<!-- node1 -->
<g id="node3" class="node">
<title>node1</title>
<polygon fill="none" stroke="black" points="343.62,-701.5 170.88,-701.5 170.88,-665.5 343.62,-665.5 343.62,-701.5"/>
<text xml:space="preserve" text-anchor="middle" x="257.25" y="-678.45" font-family="Times New Roman,serif" font-size="14.00">Registradores: r_off, bits, bp</text>
</g>
<!-- start&#45;&gt;node1 -->
<g id="edge1" class="edge">
<title>start&#45;&gt;node1</title>
<path fill="none" stroke="black" d="M257.25,-738.31C257.25,-730.73 257.25,-721.6 257.25,-713.04"/>
<polygon fill="black" stroke="black" points="260.75,-713.04 257.25,-703.04 253.75,-713.04 260.75,-713.04"/>
</g>
<!-- end -->
<g id="node2" class="node">
<title>end</title>
<ellipse fill="none" stroke="black" cx="164.25" cy="-18" rx="52.38" ry="18"/>
<text xml:space="preserve" text-anchor="middle" x="164.25" y="-12.95" font-family="Times New Roman,serif" font-size="14.00">Fim output</text>
</g>
<!-- node2 -->
<g id="node4" class="node">
<title>node2</title>
<polygon fill="none" stroke="black" points="303.88,-628.5 210.62,-628.5 210.62,-592.5 303.88,-592.5 303.88,-628.5"/>
<text xml:space="preserve" text-anchor="middle" x="257.25" y="-605.45" font-family="Times New Roman,serif" font-size="14.00">if (code &gt;= 0)</text>
</g>
<!-- node1&#45;&gt;node2 -->
<g id="edge2" class="edge">
<title>node1&#45;&gt;node2</title>
<path fill="none" stroke="black" d="M257.25,-665.31C257.25,-657.73 257.25,-648.6 257.25,-640.04"/>
<polygon fill="black" stroke="black" points="260.75,-640.04 257.25,-630.04 253.75,-640.04 260.75,-640.04"/>
</g>
<!-- node3 -->
<g id="node5" class="node">
<title>node3</title>
<polygon fill="none" stroke="black" points="278.75,-540 127.75,-540 127.75,-504 278.75,-504 278.75,-540"/>
<text xml:space="preserve" text-anchor="middle" x="203.25" y="-516.95" font-family="Times New Roman,serif" font-size="14.00">Processa codigo positivo</text>
</g>
<!-- node2&#45;&gt;node3 -->
<g id="edge3" class="edge">
<title>node2&#45;&gt;node3</title>
<path fill="none" stroke="black" d="M246.58,-592.41C239.01,-580.29 228.7,-563.77 220.04,-549.89"/>
<polygon fill="black" stroke="black" points="223.15,-548.26 214.88,-541.63 217.21,-551.97 223.15,-548.26"/>
<text xml:space="preserve" text-anchor="middle" x="247.84" y="-561.2" font-family="Times New Roman,serif" font-size="14.00">True</text>
</g>
<!-- node9 -->
<g id="node11" class="node">
<title>node9</title>
<polygon fill="none" stroke="black" points="407.38,-486 215.12,-486 215.12,-450 407.38,-450 407.38,-486"/>
<text xml:space="preserve" text-anchor="middle" x="311.25" y="-462.95" font-family="Times New Roman,serif" font-size="14.00">Processa codigo negativo (EOF)</text>
</g>
<!-- node2&#45;&gt;node9 -->
<g id="edge4" class="edge">
<title>node2&#45;&gt;node9</title>
<path fill="none" stroke="black" d="M265.67,-592.01C272.23,-578.08 281.34,-558.01 288.25,-540 293.6,-526.06 298.79,-510.28 302.89,-497.15"/>
<polygon fill="black" stroke="black" points="306.16,-498.43 305.74,-487.84 299.46,-496.38 306.16,-498.43"/>
<text xml:space="preserve" text-anchor="middle" x="294.62" y="-561.2" font-family="Times New Roman,serif" font-size="14.00">False</text>
</g>
<!-- node4 -->
<g id="node6" class="node">
<title>node4</title>
<polygon fill="none" stroke="black" points="252.12,-432 148.38,-432 148.38,-396 252.12,-396 252.12,-432"/>
<text xml:space="preserve" text-anchor="middle" x="200.25" y="-408.95" font-family="Times New Roman,serif" font-size="14.00">offset += n_bits</text>
</g>
<!-- node3&#45;&gt;node4 -->
<g id="edge5" class="edge">
<title>node3&#45;&gt;node4</title>
<path fill="none" stroke="black" d="M202.77,-503.97C202.31,-487.76 201.61,-463.06 201.06,-443.79"/>
<polygon fill="black" stroke="black" points="204.57,-443.75 200.78,-433.85 197.57,-443.95 204.57,-443.75"/>
</g>
<!-- node5 -->
<g id="node7" class="node">
<title>node5</title>
<polygon fill="none" stroke="black" points="278,-359 122.5,-359 122.5,-323 278,-323 278,-359"/>
<text xml:space="preserve" text-anchor="middle" x="200.25" y="-335.95" font-family="Times New Roman,serif" font-size="14.00">if (offset == n_bits &lt;&lt; 3)</text>
</g>
<!-- node4&#45;&gt;node5 -->
<g id="edge6" class="edge">
<title>node4&#45;&gt;node5</title>
<path fill="none" stroke="black" d="M200.25,-395.81C200.25,-388.23 200.25,-379.1 200.25,-370.54"/>
<polygon fill="black" stroke="black" points="203.75,-370.54 200.25,-360.54 196.75,-370.54 203.75,-370.54"/>
</g>
<!-- node6 -->
<g id="node8" class="node">
<title>node6</title>
<polygon fill="none" stroke="black" points="171.38,-270.5 21.12,-270.5 21.12,-234.5 171.38,-234.5 171.38,-270.5"/>
<text xml:space="preserve" text-anchor="middle" x="96.25" y="-247.45" font-family="Times New Roman,serif" font-size="14.00">Escreve buffer completo</text>
</g>
<!-- node5&#45;&gt;node6 -->
<g id="edge7" class="edge">
<title>node5&#45;&gt;node6</title>
<path fill="none" stroke="black" d="M179.7,-322.91C164.28,-310.08 142.94,-292.33 125.7,-277.99"/>
<polygon fill="black" stroke="black" points="128.2,-275.52 118.27,-271.82 123.72,-280.9 128.2,-275.52"/>
<text xml:space="preserve" text-anchor="middle" x="170.32" y="-291.7" font-family="Times New Roman,serif" font-size="14.00">True</text>
</g>
<!-- node7 -->
<g id="node9" class="node">
<title>node7</title>
<polygon fill="none" stroke="red" points="230.5,-197.5 0,-197.5 0,-161.5 230.5,-161.5 230.5,-197.5"/>
<text xml:space="preserve" text-anchor="middle" x="115.25" y="-174.45" font-family="Times New Roman,serif" font-size="14.00" fill="red">if (free_ent &gt; maxcode || clear_flg &gt; 0)</text>
</g>
<!-- node5&#45;&gt;node7 -->
<g id="edge8" class="edge">
<title>node5&#45;&gt;node7</title>
<path fill="none" stroke="black" d="M200.47,-322.68C200,-300.7 196.62,-262.29 180.25,-234.5 173.51,-223.06 163.41,-212.96 153.18,-204.69"/>
<polygon fill="black" stroke="black" points="155.51,-202.06 145.43,-198.81 151.28,-207.64 155.51,-202.06"/>
<text xml:space="preserve" text-anchor="middle" x="208.04" y="-247.45" font-family="Times New Roman,serif" font-size="14.00">False</text>
</g>
<!-- node6&#45;&gt;node7 -->
<g id="edge9" class="edge">
<title>node6&#45;&gt;node7</title>
<path fill="none" stroke="black" d="M100.85,-234.31C102.93,-226.55 105.43,-217.18 107.77,-208.45"/>
<polygon fill="black" stroke="black" points="111.1,-209.56 110.3,-198.99 104.34,-207.75 111.1,-209.56"/>
</g>
<!-- node7&#45;&gt;end -->
<g id="edge11" class="edge">
<title>node7&#45;&gt;end</title>
<path fill="none" stroke="black" d="M74.3,-161.13C34.29,-141.6 -17.22,-108.03 7.75,-73 29.03,-43.14 67.97,-29.63 101.68,-23.59"/>
<polygon fill="black" stroke="black" points="102.06,-27.08 111.39,-22.05 100.96,-20.16 102.06,-27.08"/>
<text xml:space="preserve" text-anchor="middle" x="22" y="-85.95" font-family="Times New Roman,serif" font-size="14.00">False</text>
</g>
<!-- node8 -->
<g id="node10" class="node">
<title>node8</title>
<polygon fill="none" stroke="red" points="283.25,-109 45.25,-109 45.25,-73 283.25,-73 283.25,-109"/>
<text xml:space="preserve" text-anchor="middle" x="164.25" y="-85.95" font-family="Times New Roman,serif" font-size="14.00" fill="red">Escreve buffer, reset offset, ajusta n_bits</text>
</g>
<!-- node7&#45;&gt;node8 -->
<g id="edge10" class="edge">
<title>node7&#45;&gt;node8</title>
<path fill="none" stroke="red" d="M112.11,-161.32C111.04,-150.82 111.27,-137.46 116.75,-127 118.61,-123.44 121.02,-120.16 123.76,-117.14"/>
<polygon fill="red" stroke="red" points="126.1,-119.74 131.07,-110.38 121.35,-114.6 126.1,-119.74"/>
<text xml:space="preserve" text-anchor="middle" x="129.5" y="-130.2" font-family="Times New Roman,serif" font-size="14.00" fill="red">True</text>
</g>
<!-- node7&#45;&gt;node8 -->
<g id="edge14" class="edge">
<title>node7&#45;&gt;node8</title>
<path fill="none" stroke="red" d="M129.9,-161.31C134.19,-155.82 138.68,-149.59 142.25,-143.5 146.6,-136.09 150.56,-127.66 153.89,-119.8"/>
<polygon fill="red" stroke="red" points="157.1,-121.21 157.59,-110.63 150.61,-118.59 157.1,-121.21"/>
<text xml:space="preserve" text-anchor="middle" x="182.18" y="-130.2" font-family="Times New Roman,serif" font-size="14.00" fill="red">INVIAVEL</text>
</g>
<!-- node8&#45;&gt;end -->
<g id="edge12" class="edge">
<title>node8&#45;&gt;end</title>
<path fill="none" stroke="red" d="M164.25,-72.81C164.25,-65.23 164.25,-56.1 164.25,-47.54"/>
<polygon fill="red" stroke="red" points="167.75,-47.54 164.25,-37.54 160.75,-47.54 167.75,-47.54"/>
</g>
<!-- node9&#45;&gt;end -->
<g id="edge13" class="edge">
<title>node9&#45;&gt;end</title>
<path fill="none" stroke="black" d="M311.25,-449.61C311.25,-431.66 311.25,-402.88 311.25,-378 311.25,-378 311.25,-378 311.25,-90 311.25,-49.85 266.23,-32.39 226.01,-24.81"/>
<polygon fill="black" stroke="black" points="226.77,-21.39 216.33,-23.17 225.61,-28.29 226.77,-21.39"/>
</g>
</g>
</svg>
