<?xml version="1.0" encoding="UTF-8" standalone="no"?>
<!DOCTYPE svg PUBLIC "-//W3C//DTD SVG 1.1//EN"
 "http://www.w3.org/Graphics/SVG/1.1/DTD/svg11.dtd">
<!-- Generated by graphviz version 13.1.2 (20250808.2320)
 -->
<!-- Title: DCFG Pages: 1 -->
<svg width="1422pt" height="441pt"
 viewBox="0.00 0.00 1422.00 441.00" xmlns="http://www.w3.org/2000/svg" xmlns:xlink="http://www.w3.org/1999/xlink">
<g id="graph0" class="graph" transform="scale(1 1) rotate(0) translate(4 436.5)">
<title>DCFG</title>
<polygon fill="white" stroke="none" points="-4,4 -4,-436.5 1418.12,-436.5 1418.12,4 -4,4"/>
<!-- B1 -->
<g id="node1" class="node">
<title>B1</title>
<polygon fill="none" stroke="black" points="969.25,-432.5 557.25,-432.5 557.25,-391.5 969.25,-391.5 969.25,-432.5"/>
<text xml:space="preserve" text-anchor="middle" x="763.25" y="-415.2" font-family="Courier,monospace" font-size="14.00">B1: Inicio</text>
<text xml:space="preserve" text-anchor="middle" x="763.25" y="-398.7" font-family="Courier,monospace" font-size="14.00">Def: i, ir, j, k, l=1, jstack=0, flag=0, a, temp</text>
</g>
<!-- B2 -->
<g id="node2" class="node">
<title>B2</title>
<polygon fill="none" stroke="black" points="841.38,-354.5 685.12,-354.5 685.12,-313.5 841.38,-313.5 841.38,-354.5"/>
<text xml:space="preserve" text-anchor="middle" x="763.25" y="-337.2" font-family="Courier,monospace" font-size="14.00">B2: if (ir&#45;l &lt; M)</text>
<text xml:space="preserve" text-anchor="middle" x="763.25" y="-320.7" font-family="Courier,monospace" font-size="14.00">P&#45;Use: ir, l</text>
</g>
<!-- B1&#45;&gt;B2 -->
<g id="edge1" class="edge">
<title>B1&#45;&gt;B2</title>
<path fill="none" stroke="black" d="M763.25,-391.03C763.25,-383.44 763.25,-374.6 763.25,-366.21"/>
<polygon fill="black" stroke="black" points="766.75,-366.35 763.25,-356.35 759.75,-366.35 766.75,-366.35"/>
</g>
<!-- B2&#45;&gt;B2 -->
<g id="edge13" class="edge">
<title>B2&#45;&gt;B2</title>
<path fill="none" stroke="blue" stroke-dasharray="5,2" d="M841.7,-340.49C852.31,-339.4 859.38,-337.24 859.38,-334 859.38,-332.13 857.01,-330.62 852.97,-329.46"/>
<polygon fill="blue" stroke="blue" points="853.64,-326.03 843.19,-327.77 852.45,-332.92 853.64,-326.03"/>
<text xml:space="preserve" text-anchor="middle" x="877.38" y="-328.95" font-family="Times New Roman,serif" font-size="14.00">D: ir, l</text>
</g>
<!-- B3 -->
<g id="node3" class="node">
<title>B3</title>
<polygon fill="none" stroke="black" points="487.62,-261 314.88,-261 314.88,-203.5 487.62,-203.5 487.62,-261"/>
<text xml:space="preserve" text-anchor="middle" x="401.25" y="-243.7" font-family="Courier,monospace" font-size="14.00">B3: Insertion Sort</text>
<text xml:space="preserve" text-anchor="middle" x="401.25" y="-227.2" font-family="Courier,monospace" font-size="14.00">Def: j, a, i, arr[]</text>
<text xml:space="preserve" text-anchor="middle" x="401.25" y="-210.7" font-family="Courier,monospace" font-size="14.00">C&#45;Use: l, ir, arr[]</text>
</g>
<!-- B2&#45;&gt;B3 -->
<g id="edge2" class="edge">
<title>B2&#45;&gt;B3</title>
<path fill="none" stroke="black" d="M684.74,-328.67C634.24,-324.11 567.81,-314.73 511.75,-295.5 491.45,-288.54 470.6,-277.85 452.55,-267.29"/>
<polygon fill="black" stroke="black" points="454.5,-264.38 444.13,-262.24 450.9,-270.39 454.5,-264.38"/>
<text xml:space="preserve" text-anchor="middle" x="524.5" y="-282.2" font-family="Times New Roman,serif" font-size="14.00">True</text>
</g>
<!-- B6 -->
<g id="node6" class="node">
<title>B6</title>
<polygon fill="none" stroke="black" points="1074,-261 810.5,-261 810.5,-203.5 1074,-203.5 1074,-261"/>
<text xml:space="preserve" text-anchor="middle" x="942.25" y="-243.7" font-family="Courier,monospace" font-size="14.00">B6: Particao QuickSort</text>
<text xml:space="preserve" text-anchor="middle" x="942.25" y="-227.2" font-family="Courier,monospace" font-size="14.00">Def: k, arr[], i, j, a, jstack</text>
<text xml:space="preserve" text-anchor="middle" x="942.25" y="-210.7" font-family="Courier,monospace" font-size="14.00">C&#45;Use: l, ir, arr[]</text>
</g>
<!-- B2&#45;&gt;B6 -->
<g id="edge3" class="edge">
<title>B2&#45;&gt;B6</title>
<path fill="none" stroke="black" d="M799.04,-313.05C822.67,-299.89 854.22,-282.31 881.69,-267"/>
<polygon fill="black" stroke="black" points="883.25,-270.14 890.28,-262.21 879.84,-264.02 883.25,-270.14"/>
<text xml:space="preserve" text-anchor="middle" x="872.37" y="-282.2" font-family="Times New Roman,serif" font-size="14.00">False</text>
</g>
<!-- B4 -->
<g id="node4" class="node">
<title>B4</title>
<polygon fill="none" stroke="black" points="458.75,-151 277.75,-151 277.75,-110 458.75,-110 458.75,-151"/>
<text xml:space="preserve" text-anchor="middle" x="368.25" y="-133.7" font-family="Courier,monospace" font-size="14.00">B4: if (jstack == 0)</text>
<text xml:space="preserve" text-anchor="middle" x="368.25" y="-117.2" font-family="Courier,monospace" font-size="14.00">P&#45;Use: jstack</text>
</g>
<!-- B3&#45;&gt;B4 -->
<g id="edge4" class="edge">
<title>B3&#45;&gt;B4</title>
<path fill="none" stroke="black" d="M388.97,-203.42C386.58,-197.56 384.22,-191.37 382.25,-185.5 379.78,-178.12 377.47,-170.06 375.48,-162.46"/>
<polygon fill="black" stroke="black" points="378.92,-161.76 373.08,-152.91 372.13,-163.46 378.92,-161.76"/>
</g>
<!-- B3&#45;&gt;B4 -->
<g id="edge14" class="edge">
<title>B3&#45;&gt;B4</title>
<path fill="none" stroke="blue" stroke-dasharray="5,2" d="M391.97,-203.2C387.75,-190.45 382.75,-175.34 378.43,-162.28"/>
<polygon fill="blue" stroke="blue" points="381.79,-161.27 375.32,-152.88 375.14,-163.47 381.79,-161.27"/>
<text xml:space="preserve" text-anchor="middle" x="410.11" y="-172.2" font-family="Times New Roman,serif" font-size="14.00">D: jstack</text>
</g>
<!-- B5 -->
<g id="node5" class="node">
<title>B5</title>
<polygon fill="none" stroke="black" points="553.62,-57.5 182.88,-57.5 182.88,0 553.62,0 553.62,-57.5"/>
<text xml:space="preserve" text-anchor="middle" x="368.25" y="-40.2" font-family="Courier,monospace" font-size="14.00">B5: ir=istack[jstack&#45;&#45;]; l=istack[jstack&#45;&#45;]</text>
<text xml:space="preserve" text-anchor="middle" x="368.25" y="-23.7" font-family="Courier,monospace" font-size="14.00">Def: ir, l, jstack</text>
<text xml:space="preserve" text-anchor="middle" x="368.25" y="-7.2" font-family="Courier,monospace" font-size="14.00">C&#45;Use: jstack, istack</text>
</g>
<!-- B4&#45;&gt;B5 -->
<g id="edge6" class="edge">
<title>B4&#45;&gt;B5</title>
<path fill="none" stroke="black" d="M368.25,-109.79C368.25,-98.17 368.25,-83.05 368.25,-69.08"/>
<polygon fill="black" stroke="black" points="371.75,-69.24 368.25,-59.24 364.75,-69.24 371.75,-69.24"/>
<text xml:space="preserve" text-anchor="middle" x="382.5" y="-78.7" font-family="Times New Roman,serif" font-size="14.00">False</text>
</g>
<!-- B10 -->
<g id="node10" class="node">
<title>B10</title>
<polygon fill="none" stroke="black" points="164.5,-46.75 0,-46.75 0,-10.75 164.5,-10.75 164.5,-46.75"/>
<text xml:space="preserve" text-anchor="middle" x="82.25" y="-23.7" font-family="Courier,monospace" font-size="14.00">B10: Fim da funcao</text>
</g>
<!-- B4&#45;&gt;B10 -->
<g id="edge5" class="edge">
<title>B4&#45;&gt;B10</title>
<path fill="none" stroke="black" d="M311.06,-109.55C262.31,-92.55 192.45,-68.18 142.77,-50.86"/>
<polygon fill="black" stroke="black" points="144.2,-47.65 133.6,-47.66 141.89,-54.26 144.2,-47.65"/>
<text xml:space="preserve" text-anchor="middle" x="293.4" y="-78.7" font-family="Times New Roman,serif" font-size="14.00">True (break)</text>
</g>
<!-- B5&#45;&gt;B2 -->
<g id="edge7" class="edge">
<title>B5&#45;&gt;B2</title>
<path fill="none" stroke="black" d="M531.11,-57.89C543.08,-62.84 554.62,-68.66 565.25,-75.5 655.95,-133.86 721.64,-248.74 749.06,-303.11"/>
<polygon fill="black" stroke="black" points="745.79,-304.38 753.36,-311.79 752.06,-301.28 745.79,-304.38"/>
</g>
<!-- B5&#45;&gt;B2 -->
<g id="edge15" class="edge">
<title>B5&#45;&gt;B2</title>
<path fill="none" stroke="blue" stroke-dasharray="5,2" d="M404.83,-57.84C480.65,-116.04 654.01,-249.14 728.35,-306.21"/>
<polygon fill="blue" stroke="blue" points="726.07,-308.87 736.13,-312.18 730.33,-303.32 726.07,-308.87"/>
<text xml:space="preserve" text-anchor="middle" x="607.81" y="-172.2" font-family="Times New Roman,serif" font-size="14.00">D: ir, l, jstack</text>
</g>
<!-- B7 -->
<g id="node7" class="node">
<title>B7</title>
<polygon fill="none" stroke="black" points="1024,-151 826.5,-151 826.5,-110 1024,-110 1024,-151"/>
<text xml:space="preserve" text-anchor="middle" x="925.25" y="-133.7" font-family="Courier,monospace" font-size="14.00">B7: if (ir&#45;i+1 &gt;= j&#45;l)</text>
<text xml:space="preserve" text-anchor="middle" x="925.25" y="-117.2" font-family="Courier,monospace" font-size="14.00">P&#45;Use: ir, i, j, l</text>
</g>
<!-- B6&#45;&gt;B7 -->
<g id="edge8" class="edge">
<title>B6&#45;&gt;B7</title>
<path fill="none" stroke="black" d="M937.47,-203.2C935.32,-190.58 932.77,-175.64 930.56,-162.67"/>
<polygon fill="black" stroke="black" points="934.03,-162.21 928.9,-152.94 927.13,-163.38 934.03,-162.21"/>
</g>
<!-- B6&#45;&gt;B7 -->
<g id="edge16" class="edge">
<title>B6&#45;&gt;B7</title>
<path fill="none" stroke="blue" stroke-dasharray="5,2" d="M940.68,-203.2C939.78,-192.44 938.39,-180.09 936.25,-169 935.83,-166.8 935.33,-164.55 934.78,-162.29"/>
<polygon fill="blue" stroke="blue" points="938.16,-161.38 932.18,-152.64 931.41,-163.21 938.16,-161.38"/>
<text xml:space="preserve" text-anchor="middle" x="974.3" y="-172.2" font-family="Times New Roman,serif" font-size="14.00">D: i, j, jstack</text>
</g>
<!-- B8 -->
<g id="node8" class="node">
<title>B8</title>
<polygon fill="none" stroke="black" points="992.38,-57.5 572.12,-57.5 572.12,0 992.38,0 992.38,-57.5"/>
<text xml:space="preserve" text-anchor="middle" x="782.25" y="-40.2" font-family="Courier,monospace" font-size="14.00">B8: istack[jstack]=ir; istack[jstack&#45;1]=i; ir=j&#45;1</text>
<text xml:space="preserve" text-anchor="middle" x="782.25" y="-23.7" font-family="Courier,monospace" font-size="14.00">Def: istack, ir</text>
<text xml:space="preserve" text-anchor="middle" x="782.25" y="-7.2" font-family="Courier,monospace" font-size="14.00">C&#45;Use: ir, i, jstack</text>
</g>
<!-- B7&#45;&gt;B8 -->
<g id="edge9" class="edge">
<title>B7&#45;&gt;B8</title>
<path fill="none" stroke="black" d="M896.66,-109.55C878.2,-96.68 853.68,-79.58 832.08,-64.51"/>
<polygon fill="black" stroke="black" points="834.16,-61.69 823.95,-58.84 830.15,-67.43 834.16,-61.69"/>
<text xml:space="preserve" text-anchor="middle" x="883.51" y="-78.7" font-family="Times New Roman,serif" font-size="14.00">True</text>
</g>
<!-- B9 -->
<g id="node9" class="node">
<title>B9</title>
<polygon fill="none" stroke="black" points="1414.12,-57.5 1010.38,-57.5 1010.38,0 1414.12,0 1414.12,-57.5"/>
<text xml:space="preserve" text-anchor="middle" x="1212.25" y="-40.2" font-family="Courier,monospace" font-size="14.00">B9: istack[jstack]=j&#45;1; istack[jstack&#45;1]=l; l=i</text>
<text xml:space="preserve" text-anchor="middle" x="1212.25" y="-23.7" font-family="Courier,monospace" font-size="14.00">Def: istack, l</text>
<text xml:space="preserve" text-anchor="middle" x="1212.25" y="-7.2" font-family="Courier,monospace" font-size="14.00">C&#45;Use: j, l, i, jstack</text>
</g>
<!-- B7&#45;&gt;B9 -->
<g id="edge10" class="edge">
<title>B7&#45;&gt;B9</title>
<path fill="none" stroke="black" d="M982.64,-109.55C1022.01,-95.87 1075.11,-77.41 1120.33,-61.7"/>
<polygon fill="black" stroke="black" points="1121.32,-65.06 1129.61,-58.47 1119.02,-58.45 1121.32,-65.06"/>
<text xml:space="preserve" text-anchor="middle" x="1091.61" y="-78.7" font-family="Times New Roman,serif" font-size="14.00">False</text>
</g>
<!-- B8&#45;&gt;B2 -->
<g id="edge11" class="edge">
<title>B8&#45;&gt;B2</title>
<path fill="none" stroke="black" d="M772.71,-57.58C770.99,-63.44 769.39,-69.63 768.25,-75.5 752.7,-155.83 756.83,-252.89 760.44,-301.72"/>
<polygon fill="black" stroke="black" points="756.94,-301.85 761.22,-311.54 763.92,-301.3 756.94,-301.85"/>
</g>
<!-- B8&#45;&gt;B2 -->
<g id="edge17" class="edge">
<title>B8&#45;&gt;B2</title>
<path fill="none" stroke="blue" stroke-dasharray="5,2" d="M781.51,-57.73C780.07,-106.23 776.28,-209.01 768.25,-295.5 768.06,-297.57 767.84,-299.7 767.6,-301.84"/>
<polygon fill="blue" stroke="blue" points="764.13,-301.33 766.38,-311.68 771.08,-302.19 764.13,-301.33"/>
<text xml:space="preserve" text-anchor="middle" x="808.85" y="-172.2" font-family="Times New Roman,serif" font-size="14.00">D: ir, jstack</text>
</g>
<!-- B9&#45;&gt;B2 -->
<g id="edge12" class="edge">
<title>B9&#45;&gt;B2</title>
<path fill="none" stroke="black" d="M1191.7,-57.93C1187.76,-63.65 1183.77,-69.7 1180.25,-75.5 1131.93,-155.01 1157.02,-204.32 1083.25,-261 1047.67,-288.34 934.64,-309.3 852.99,-321.38"/>
<polygon fill="black" stroke="black" points="852.58,-317.9 843.18,-322.81 853.58,-324.83 852.58,-317.9"/>
</g>
<!-- B9&#45;&gt;B2 -->
<g id="edge18" class="edge">
<title>B9&#45;&gt;B2</title>
<path fill="none" stroke="blue" stroke-dasharray="5,2" d="M1208.89,-57.81C1201.66,-106.06 1180.16,-204.93 1121.25,-261 1083.45,-296.98 946.21,-316.46 853.06,-325.78"/>
<polygon fill="blue" stroke="blue" points="852.76,-322.29 843.15,-326.75 853.44,-329.26 852.76,-322.29"/>
<text xml:space="preserve" text-anchor="middle" x="1209.14" y="-172.2" font-family="Times New Roman,serif" font-size="14.00">D: l, jstack</text>
</g>
</g>
</svg>
