<?xml version="1.0" encoding="UTF-8" standalone="no"?>
<!DOCTYPE svg PUBLIC "-//W3C//DTD SVG 1.1//EN"
 "http://www.w3.org/Graphics/SVG/1.1/DTD/svg11.dtd">
<!-- Generated by graphviz version 13.1.2 (20250808.2320)
 -->
<!-- Title: Initialize Pages: 1 -->
<svg width="508pt" height="513pt"
 viewBox="0.00 0.00 508.00 513.00" xmlns="http://www.w3.org/2000/svg" xmlns:xlink="http://www.w3.org/1999/xlink">
<g id="graph0" class="graph" transform="scale(1 1) rotate(0) translate(4 509)">
<title>Initialize</title>
<polygon fill="white" stroke="none" points="-4,4 -4,-509 504.29,-509 504.29,4 -4,4"/>
<!-- start -->
<g id="node1" class="node">
<title>start</title>
<ellipse fill="none" stroke="black" cx="345.88" cy="-487" rx="66.19" ry="18"/>
<text xml:space="preserve" text-anchor="middle" x="345.88" y="-481.95" font-family="Times New Roman,serif" font-size="14.00">Initialize: Start</text>
</g>
<!-- n1 -->
<g id="node3" class="node">
<title>n1</title>
<polygon fill="none" stroke="black" points="395.88,-432 295.88,-432 295.88,-396 395.88,-396 395.88,-432"/>
<text xml:space="preserve" text-anchor="middle" x="345.88" y="-408.95" font-family="Times New Roman,serif" font-size="14.00">OuterIndex = 0</text>
</g>
<!-- start&#45;&gt;n1 -->
<g id="edge1" class="edge">
<title>start&#45;&gt;n1</title>
<path fill="none" stroke="black" d="M345.88,-468.81C345.88,-461.23 345.88,-452.1 345.88,-443.54"/>
<polygon fill="black" stroke="black" points="349.38,-443.54 345.88,-433.54 342.38,-443.54 349.38,-443.54"/>
</g>
<!-- end -->
<g id="node2" class="node">
<title>end</title>
<ellipse fill="none" stroke="black" cx="214.88" cy="-252.5" rx="63.63" ry="18"/>
<text xml:space="preserve" text-anchor="middle" x="214.88" y="-247.45" font-family="Times New Roman,serif" font-size="14.00">Initialize: End</text>
</g>
<!-- n2 -->
<g id="node4" class="node">
<title>n2</title>
<polygon fill="none" stroke="black" points="345.88,-359 191.46,-341 345.87,-323 500.29,-341 345.88,-359"/>
<text xml:space="preserve" text-anchor="middle" x="345.88" y="-335.95" font-family="Times New Roman,serif" font-size="14.00">OuterIndex &lt; MAXSIZE?</text>
</g>
<!-- n1&#45;&gt;n2 -->
<g id="edge2" class="edge">
<title>n1&#45;&gt;n2</title>
<path fill="none" stroke="black" d="M345.88,-395.81C345.88,-388.23 345.88,-379.1 345.88,-370.54"/>
<polygon fill="black" stroke="black" points="349.38,-370.54 345.88,-360.54 342.38,-370.54 349.38,-370.54"/>
</g>
<!-- n2&#45;&gt;end -->
<g id="edge4" class="edge">
<title>n2&#45;&gt;end</title>
<path fill="none" stroke="black" d="M323.36,-325.13C302.74,-311.52 271.97,-291.2 248.45,-275.67"/>
<polygon fill="black" stroke="black" points="250.41,-272.77 240.14,-270.18 246.55,-278.61 250.41,-272.77"/>
<text xml:space="preserve" text-anchor="middle" x="306.36" y="-291.7" font-family="Times New Roman,serif" font-size="14.00">False</text>
</g>
<!-- n3 -->
<g id="node5" class="node">
<title>n3</title>
<polygon fill="none" stroke="black" points="394.75,-270.5 297,-270.5 297,-234.5 394.75,-234.5 394.75,-270.5"/>
<text xml:space="preserve" text-anchor="middle" x="345.88" y="-247.45" font-family="Times New Roman,serif" font-size="14.00">InnerIndex = 0</text>
</g>
<!-- n2&#45;&gt;n3 -->
<g id="edge3" class="edge">
<title>n2&#45;&gt;n3</title>
<path fill="none" stroke="black" d="M345.88,-322.91C345.88,-311.26 345.88,-295.55 345.88,-282.02"/>
<polygon fill="black" stroke="black" points="349.38,-282.36 345.88,-272.36 342.38,-282.36 349.38,-282.36"/>
<text xml:space="preserve" text-anchor="middle" x="358.62" y="-291.7" font-family="Times New Roman,serif" font-size="14.00">True</text>
</g>
<!-- n4 -->
<g id="node6" class="node">
<title>n4</title>
<polygon fill="none" stroke="black" points="293.88,-197.5 141.63,-179.5 293.87,-161.5 446.12,-179.5 293.88,-197.5"/>
<text xml:space="preserve" text-anchor="middle" x="293.88" y="-174.45" font-family="Times New Roman,serif" font-size="14.00">InnerIndex &lt; MAXSIZE?</text>
</g>
<!-- n3&#45;&gt;n4 -->
<g id="edge5" class="edge">
<title>n3&#45;&gt;n4</title>
<path fill="none" stroke="black" d="M333.29,-234.31C326.98,-225.69 319.21,-215.09 312.25,-205.59"/>
<polygon fill="black" stroke="black" points="315.26,-203.78 306.53,-197.78 309.61,-207.91 315.26,-203.78"/>
</g>
<!-- n5 -->
<g id="node7" class="node">
<title>n5</title>
<polygon fill="none" stroke="black" points="295.75,-109 0,-109 0,-73 295.75,-73 295.75,-109"/>
<text xml:space="preserve" text-anchor="middle" x="147.88" y="-85.95" font-family="Times New Roman,serif" font-size="14.00">Array[OuterIndex][InnerIndex] = RandomInteger()</text>
</g>
<!-- n4&#45;&gt;n5 -->
<g id="edge6" class="edge">
<title>n4&#45;&gt;n5</title>
<path fill="none" stroke="black" d="M269.44,-164.02C246.91,-150.67 213.08,-130.63 186.83,-115.08"/>
<polygon fill="black" stroke="black" points="188.87,-112.22 178.48,-110.13 185.3,-118.24 188.87,-112.22"/>
<text xml:space="preserve" text-anchor="middle" x="246.7" y="-130.2" font-family="Times New Roman,serif" font-size="14.00">True</text>
</g>
<!-- n7 -->
<g id="node9" class="node">
<title>n7</title>
<polygon fill="none" stroke="black" points="486.88,-109 392.88,-109 392.88,-73 486.88,-73 486.88,-109"/>
<text xml:space="preserve" text-anchor="middle" x="439.88" y="-85.95" font-family="Times New Roman,serif" font-size="14.00">OuterIndex++</text>
</g>
<!-- n4&#45;&gt;n7 -->
<g id="edge7" class="edge">
<title>n4&#45;&gt;n7</title>
<path fill="none" stroke="black" d="M318.31,-164.02C340.84,-150.67 374.67,-130.63 400.92,-115.08"/>
<polygon fill="black" stroke="black" points="402.45,-118.24 409.27,-110.13 398.88,-112.22 402.45,-118.24"/>
<text xml:space="preserve" text-anchor="middle" x="394.2" y="-130.2" font-family="Times New Roman,serif" font-size="14.00">False</text>
</g>
<!-- n6 -->
<g id="node8" class="node">
<title>n6</title>
<polygon fill="none" stroke="black" points="281.75,-36 190,-36 190,0 281.75,0 281.75,-36"/>
<text xml:space="preserve" text-anchor="middle" x="235.88" y="-12.95" font-family="Times New Roman,serif" font-size="14.00">InnerIndex++</text>
</g>
<!-- n5&#45;&gt;n6 -->
<g id="edge8" class="edge">
<title>n5&#45;&gt;n6</title>
<path fill="none" stroke="black" d="M169.18,-72.81C180.12,-63.98 193.65,-53.07 205.65,-43.39"/>
<polygon fill="black" stroke="black" points="207.7,-46.23 213.29,-37.23 203.31,-40.78 207.7,-46.23"/>
</g>
<!-- n6&#45;&gt;n4 -->
<g id="edge9" class="edge">
<title>n6&#45;&gt;n4</title>
<path fill="none" stroke="black" d="M269.73,-36.5C283.27,-45.43 297.41,-57.68 304.88,-73 316.83,-97.53 311.26,-129.01 304.45,-151.17"/>
<polygon fill="black" stroke="black" points="301.22,-149.8 301.34,-160.39 307.85,-152.03 301.22,-149.8"/>
</g>
<!-- n7&#45;&gt;n2 -->
<g id="edge10" class="edge">
<title>n7&#45;&gt;n2</title>
<path fill="none" stroke="black" d="M446.88,-109.19C454.49,-130.39 464.37,-167.32 454.88,-197.5 439.52,-246.29 399.01,-291.13 371.94,-317"/>
<polygon fill="black" stroke="black" points="369.7,-314.3 364.77,-323.69 374.47,-319.42 369.7,-314.3"/>
</g>
</g>
</svg>
