<?xml version="1.0" encoding="UTF-8" standalone="no"?>
<!DOCTYPE svg PUBLIC "-//W3C//DTD SVG 1.1//EN"
 "http://www.w3.org/Graphics/SVG/1.1/DTD/svg11.dtd">
<!-- Generated by graphviz version 13.1.2 (20250808.2320)
 -->
<!-- Title: RandomInteger Pages: 1 -->
<svg width="221pt" height="260pt"
 viewBox="0.00 0.00 221.00 260.00" xmlns="http://www.w3.org/2000/svg" xmlns:xlink="http://www.w3.org/1999/xlink">
<g id="graph0" class="graph" transform="scale(1 1) rotate(0) translate(4 256)">
<title>RandomInteger</title>
<polygon fill="white" stroke="none" points="-4,4 -4,-256 216.5,-256 216.5,4 -4,4"/>
<!-- start -->
<g id="node1" class="node">
<title>start</title>
<ellipse fill="none" stroke="black" cx="106.25" cy="-234" rx="91.27" ry="18"/>
<text xml:space="preserve" text-anchor="middle" x="106.25" y="-228.95" font-family="Times New Roman,serif" font-size="14.00">RandomInteger: Start</text>
</g>
<!-- n1 -->
<g id="node3" class="node">
<title>n1</title>
<polygon fill="none" stroke="black" points="212.5,-180 0,-180 0,-144 212.5,-144 212.5,-180"/>
<text xml:space="preserve" text-anchor="middle" x="106.25" y="-156.95" font-family="Times New Roman,serif" font-size="14.00">Seed = ((Seed * 133) + 81) % 8095</text>
</g>
<!-- start&#45;&gt;n1 -->
<g id="edge1" class="edge">
<title>start&#45;&gt;n1</title>
<path fill="none" stroke="black" d="M106.25,-215.7C106.25,-208.41 106.25,-199.73 106.25,-191.54"/>
<polygon fill="black" stroke="black" points="109.75,-191.62 106.25,-181.62 102.75,-191.62 109.75,-191.62"/>
</g>
<!-- end -->
<g id="node2" class="node">
<title>end</title>
<ellipse fill="none" stroke="black" cx="106.25" cy="-18" rx="88.71" ry="18"/>
<text xml:space="preserve" text-anchor="middle" x="106.25" y="-12.95" font-family="Times New Roman,serif" font-size="14.00">RandomInteger: End</text>
</g>
<!-- n2 -->
<g id="node4" class="node">
<title>n2</title>
<polygon fill="none" stroke="black" points="145.38,-108 67.12,-108 67.12,-72 145.38,-72 145.38,-108"/>
<text xml:space="preserve" text-anchor="middle" x="106.25" y="-84.95" font-family="Times New Roman,serif" font-size="14.00">return Seed</text>
</g>
<!-- n1&#45;&gt;n2 -->
<g id="edge2" class="edge">
<title>n1&#45;&gt;n2</title>
<path fill="none" stroke="black" d="M106.25,-143.7C106.25,-136.41 106.25,-127.73 106.25,-119.54"/>
<polygon fill="black" stroke="black" points="109.75,-119.62 106.25,-109.62 102.75,-119.62 109.75,-119.62"/>
</g>
<!-- n2&#45;&gt;end -->
<g id="edge3" class="edge">
<title>n2&#45;&gt;end</title>
<path fill="none" stroke="black" d="M106.25,-71.7C106.25,-64.41 106.25,-55.73 106.25,-47.54"/>
<polygon fill="black" stroke="black" points="109.75,-47.62 106.25,-37.62 102.75,-47.62 109.75,-47.62"/>
</g>
</g>
</svg>
