<?xml version="1.0" encoding="UTF-8" standalone="no"?>
<!DOCTYPE svg PUBLIC "-//W3C//DTD SVG 1.1//EN"
 "http://www.w3.org/Graphics/SVG/1.1/DTD/svg11.dtd">
<!-- Generated by graphviz version 13.1.2 (20250808.2320)
 -->
<!-- Title: Sum Pages: 1 -->
<svg width="688pt" height="756pt"
 viewBox="0.00 0.00 688.00 756.00" xmlns="http://www.w3.org/2000/svg" xmlns:xlink="http://www.w3.org/1999/xlink">
<g id="graph0" class="graph" transform="scale(1 1) rotate(0) translate(4 751.5)">
<title>Sum</title>
<polygon fill="white" stroke="none" points="-4,4 -4,-751.5 683.75,-751.5 683.75,4 -4,4"/>
<!-- start -->
<g id="node1" class="node">
<title>start</title>
<ellipse fill="none" stroke="black" cx="539.75" cy="-729.5" rx="50.84" ry="18"/>
<text xml:space="preserve" text-anchor="middle" x="539.75" y="-724.45" font-family="Times New Roman,serif" font-size="14.00">Sum: Start</text>
</g>
<!-- n1 -->
<g id="node3" class="node">
<title>n1</title>
<polygon fill="none" stroke="black" points="575.88,-674.5 503.62,-674.5 503.62,-600.5 575.88,-600.5 575.88,-674.5"/>
<text xml:space="preserve" text-anchor="middle" x="539.75" y="-657.2" font-family="Times New Roman,serif" font-size="14.00">Ptotal = 0</text>
<text xml:space="preserve" text-anchor="middle" x="539.75" y="-640.7" font-family="Times New Roman,serif" font-size="14.00">Ntotal = 0</text>
<text xml:space="preserve" text-anchor="middle" x="539.75" y="-624.2" font-family="Times New Roman,serif" font-size="14.00">Pcnt = 0</text>
<text xml:space="preserve" text-anchor="middle" x="539.75" y="-607.7" font-family="Times New Roman,serif" font-size="14.00">Ncnt = 0</text>
</g>
<!-- start&#45;&gt;n1 -->
<g id="edge1" class="edge">
<title>start&#45;&gt;n1</title>
<path fill="none" stroke="black" d="M539.75,-711.15C539.75,-703.89 539.75,-695.07 539.75,-686.11"/>
<polygon fill="black" stroke="black" points="543.25,-686.31 539.75,-676.31 536.25,-686.31 543.25,-686.31"/>
</g>
<!-- end -->
<g id="node2" class="node">
<title>end</title>
<ellipse fill="none" stroke="black" cx="623.75" cy="-273" rx="48.28" ry="18"/>
<text xml:space="preserve" text-anchor="middle" x="623.75" y="-267.95" font-family="Times New Roman,serif" font-size="14.00">Sum: End</text>
</g>
<!-- n2 -->
<g id="node4" class="node">
<title>n2</title>
<polygon fill="none" stroke="black" points="574.38,-563.5 505.12,-563.5 505.12,-527.5 574.38,-527.5 574.38,-563.5"/>
<text xml:space="preserve" text-anchor="middle" x="539.75" y="-540.45" font-family="Times New Roman,serif" font-size="14.00">Outer = 0</text>
</g>
<!-- n1&#45;&gt;n2 -->
<g id="edge2" class="edge">
<title>n1&#45;&gt;n2</title>
<path fill="none" stroke="black" d="M539.75,-600.15C539.75,-591.86 539.75,-583.16 539.75,-575.23"/>
<polygon fill="black" stroke="black" points="543.25,-575.47 539.75,-565.47 536.25,-575.47 543.25,-575.47"/>
</g>
<!-- n3 -->
<g id="node5" class="node">
<title>n3</title>
<polygon fill="none" stroke="black" points="539.75,-490.5 415.01,-472.5 539.75,-454.5 664.49,-472.5 539.75,-490.5"/>
<text xml:space="preserve" text-anchor="middle" x="539.75" y="-467.45" font-family="Times New Roman,serif" font-size="14.00">Outer &lt; MAXSIZE?</text>
</g>
<!-- n2&#45;&gt;n3 -->
<g id="edge3" class="edge">
<title>n2&#45;&gt;n3</title>
<path fill="none" stroke="black" d="M539.75,-527.31C539.75,-519.73 539.75,-510.6 539.75,-502.04"/>
<polygon fill="black" stroke="black" points="543.25,-502.04 539.75,-492.04 536.25,-502.04 543.25,-502.04"/>
</g>
<!-- n4 -->
<g id="node6" class="node">
<title>n4</title>
<polygon fill="none" stroke="black" points="489.25,-383 422.25,-383 422.25,-347 489.25,-347 489.25,-383"/>
<text xml:space="preserve" text-anchor="middle" x="455.75" y="-359.95" font-family="Times New Roman,serif" font-size="14.00">Inner = 0</text>
</g>
<!-- n3&#45;&gt;n4 -->
<g id="edge4" class="edge">
<title>n3&#45;&gt;n4</title>
<path fill="none" stroke="black" d="M521.04,-456.82C514.1,-450.9 506.42,-443.76 500.25,-436.5 488.97,-423.23 478.46,-406.86 470.5,-393.23"/>
<polygon fill="black" stroke="black" points="473.66,-391.72 465.67,-384.76 467.58,-395.18 473.66,-391.72"/>
<text xml:space="preserve" text-anchor="middle" x="513" y="-423.2" font-family="Times New Roman,serif" font-size="14.00">True</text>
</g>
<!-- n11 -->
<g id="node13" class="node">
<title>n11</title>
<polygon fill="none" stroke="black" points="679.75,-402 567.75,-402 567.75,-328 679.75,-328 679.75,-402"/>
<text xml:space="preserve" text-anchor="middle" x="623.75" y="-384.7" font-family="Times New Roman,serif" font-size="14.00">Postotal = Ptotal</text>
<text xml:space="preserve" text-anchor="middle" x="623.75" y="-368.2" font-family="Times New Roman,serif" font-size="14.00">Poscnt = Pcnt</text>
<text xml:space="preserve" text-anchor="middle" x="623.75" y="-351.7" font-family="Times New Roman,serif" font-size="14.00">Negtotal = Ntotal</text>
<text xml:space="preserve" text-anchor="middle" x="623.75" y="-335.2" font-family="Times New Roman,serif" font-size="14.00">Negcnt = Ncnt</text>
</g>
<!-- n3&#45;&gt;n11 -->
<g id="edge5" class="edge">
<title>n3&#45;&gt;n11</title>
<path fill="none" stroke="black" d="M552.14,-455.93C561.62,-444.04 575.18,-427.01 587.95,-410.96"/>
<polygon fill="black" stroke="black" points="590.51,-413.37 594,-403.37 585.03,-409.01 590.51,-413.37"/>
<text xml:space="preserve" text-anchor="middle" x="593.48" y="-423.2" font-family="Times New Roman,serif" font-size="14.00">False</text>
</g>
<!-- n5 -->
<g id="node7" class="node">
<title>n5</title>
<polygon fill="none" stroke="black" points="388.75,-291 266.19,-273 388.75,-255 511.31,-273 388.75,-291"/>
<text xml:space="preserve" text-anchor="middle" x="388.75" y="-267.95" font-family="Times New Roman,serif" font-size="14.00">Inner &lt; MAXSIZE?</text>
</g>
<!-- n4&#45;&gt;n5 -->
<g id="edge6" class="edge">
<title>n4&#45;&gt;n5</title>
<path fill="none" stroke="black" d="M442.83,-346.65C432.63,-332.94 418.27,-313.65 406.91,-298.39"/>
<polygon fill="black" stroke="black" points="409.97,-296.64 401.19,-290.71 404.35,-300.82 409.97,-296.64"/>
</g>
<!-- n6 -->
<g id="node8" class="node">
<title>n6</title>
<polygon fill="none" stroke="black" points="231.75,-202.5 83.85,-184.5 231.75,-166.5 379.65,-184.5 231.75,-202.5"/>
<text xml:space="preserve" text-anchor="middle" x="231.75" y="-179.45" font-family="Times New Roman,serif" font-size="14.00">Array[Outer][Inner] &lt; 0?</text>
</g>
<!-- n5&#45;&gt;n6 -->
<g id="edge7" class="edge">
<title>n5&#45;&gt;n6</title>
<path fill="none" stroke="black" d="M363.87,-258.29C337.88,-243.98 296.88,-221.38 267.44,-205.16"/>
<polygon fill="black" stroke="black" points="269.33,-202.21 258.88,-200.45 265.95,-208.34 269.33,-202.21"/>
<text xml:space="preserve" text-anchor="middle" x="337.06" y="-223.7" font-family="Times New Roman,serif" font-size="14.00">True</text>
</g>
<!-- n10 -->
<g id="node12" class="node">
<title>n10</title>
<polygon fill="none" stroke="black" points="540.38,-202.5 477.12,-202.5 477.12,-166.5 540.38,-166.5 540.38,-202.5"/>
<text xml:space="preserve" text-anchor="middle" x="508.75" y="-179.45" font-family="Times New Roman,serif" font-size="14.00">Outer++</text>
</g>
<!-- n5&#45;&gt;n10 -->
<g id="edge8" class="edge">
<title>n5&#45;&gt;n10</title>
<path fill="none" stroke="black" d="M408.84,-257.52C427.09,-244.37 454.35,-224.71 475.79,-209.26"/>
<polygon fill="black" stroke="black" points="477.59,-212.28 483.65,-203.59 473.49,-206.6 477.59,-212.28"/>
<text xml:space="preserve" text-anchor="middle" x="473.75" y="-223.7" font-family="Times New Roman,serif" font-size="14.00">False</text>
</g>
<!-- n7 -->
<g id="node9" class="node">
<title>n7</title>
<polygon fill="none" stroke="black" points="179.5,-114 0,-114 0,-73 179.5,-73 179.5,-114"/>
<text xml:space="preserve" text-anchor="middle" x="89.75" y="-96.7" font-family="Times New Roman,serif" font-size="14.00">Ptotal += Array[Outer][Inner]</text>
<text xml:space="preserve" text-anchor="middle" x="89.75" y="-80.2" font-family="Times New Roman,serif" font-size="14.00">Pcnt++</text>
</g>
<!-- n6&#45;&gt;n7 -->
<g id="edge9" class="edge">
<title>n6&#45;&gt;n7</title>
<path fill="none" stroke="black" d="M208.62,-169C187.74,-155.91 156.51,-136.34 131.3,-120.54"/>
<polygon fill="black" stroke="black" points="133.24,-117.63 122.9,-115.28 129.52,-123.56 133.24,-117.63"/>
<text xml:space="preserve" text-anchor="middle" x="186.22" y="-135.2" font-family="Times New Roman,serif" font-size="14.00">True</text>
</g>
<!-- n8 -->
<g id="node10" class="node">
<title>n8</title>
<polygon fill="none" stroke="black" points="379.62,-114 197.88,-114 197.88,-73 379.62,-73 379.62,-114"/>
<text xml:space="preserve" text-anchor="middle" x="288.75" y="-96.7" font-family="Times New Roman,serif" font-size="14.00">Ntotal += Array[Outer][Inner]</text>
<text xml:space="preserve" text-anchor="middle" x="288.75" y="-80.2" font-family="Times New Roman,serif" font-size="14.00">Ncnt++</text>
</g>
<!-- n6&#45;&gt;n8 -->
<g id="edge10" class="edge">
<title>n6&#45;&gt;n8</title>
<path fill="none" stroke="black" d="M241.94,-167.59C249.69,-155.48 260.58,-138.48 269.91,-123.92"/>
<polygon fill="black" stroke="black" points="272.79,-125.91 275.24,-115.6 266.9,-122.13 272.79,-125.91"/>
<text xml:space="preserve" text-anchor="middle" x="277.91" y="-135.2" font-family="Times New Roman,serif" font-size="14.00">False</text>
</g>
<!-- n9 -->
<g id="node11" class="node">
<title>n9</title>
<polygon fill="none" stroke="black" points="319.25,-36 258.25,-36 258.25,0 319.25,0 319.25,-36"/>
<text xml:space="preserve" text-anchor="middle" x="288.75" y="-12.95" font-family="Times New Roman,serif" font-size="14.00">Inner++</text>
</g>
<!-- n7&#45;&gt;n9 -->
<g id="edge11" class="edge">
<title>n7&#45;&gt;n9</title>
<path fill="none" stroke="black" d="M143.86,-72.51C176.46,-60.47 217.33,-45.38 247.34,-34.29"/>
<polygon fill="black" stroke="black" points="248.29,-37.68 256.45,-30.93 245.86,-31.11 248.29,-37.68"/>
</g>
<!-- n8&#45;&gt;n9 -->
<g id="edge12" class="edge">
<title>n8&#45;&gt;n9</title>
<path fill="none" stroke="black" d="M288.75,-72.8C288.75,-65.06 288.75,-56.01 288.75,-47.57"/>
<polygon fill="black" stroke="black" points="292.25,-47.76 288.75,-37.76 285.25,-47.76 292.25,-47.76"/>
</g>
<!-- n9&#45;&gt;n5 -->
<g id="edge13" class="edge">
<title>n9&#45;&gt;n5</title>
<path fill="none" stroke="black" d="M319.62,-26.49C343.12,-33.98 373.89,-48.09 388.75,-73 420.72,-126.61 407.57,-203.66 397.06,-244.37"/>
<polygon fill="black" stroke="black" points="393.73,-243.28 394.47,-253.85 400.48,-245.12 393.73,-243.28"/>
</g>
<!-- n10&#45;&gt;n3 -->
<g id="edge14" class="edge">
<title>n10&#45;&gt;n3</title>
<path fill="none" stroke="black" d="M512.16,-202.86C514.82,-216.88 518.43,-237.15 520.75,-255 529.47,-322.11 535.3,-401.47 538.01,-442.96"/>
<polygon fill="black" stroke="black" points="534.51,-443.06 538.64,-452.82 541.49,-442.61 534.51,-443.06"/>
</g>
<!-- n11&#45;&gt;end -->
<g id="edge15" class="edge">
<title>n11&#45;&gt;end</title>
<path fill="none" stroke="black" d="M623.75,-327.65C623.75,-319.36 623.75,-310.66 623.75,-302.73"/>
<polygon fill="black" stroke="black" points="627.25,-302.97 623.75,-292.97 620.25,-302.97 627.25,-302.97"/>
</g>
</g>
</svg>
