<?xml version="1.0" encoding="UTF-8" standalone="no"?>
<!DOCTYPE svg PUBLIC "-//W3C//DTD SVG 1.1//EN"
 "http://www.w3.org/Graphics/SVG/1.1/DTD/svg11.dtd">
<!-- Generated by graphviz version 13.1.2 (20250808.2320)
 -->
<!-- Title: Sum_CFG Pages: 1 -->
<svg width="736pt" height="691pt"
 viewBox="0.00 0.00 736.00 691.00" xmlns="http://www.w3.org/2000/svg" xmlns:xlink="http://www.w3.org/1999/xlink">
<g id="graph0" class="graph" transform="scale(1 1) rotate(0) translate(4 686.75)">
<title>Sum_CFG</title>
<polygon fill="white" stroke="none" points="-4,4 -4,-686.75 731.5,-686.75 731.5,4 -4,4"/>
<!-- N1 -->
<g id="node1" class="node">
<title>N1</title>
<path fill="none" stroke="black" d="M640.38,-682.75C640.38,-682.75 490.88,-682.75 490.88,-682.75 484.88,-682.75 478.88,-676.75 478.88,-670.75 478.88,-670.75 478.88,-608 478.88,-608 478.88,-602 484.88,-596 490.88,-596 490.88,-596 640.38,-596 640.38,-596 646.38,-596 652.38,-602 652.38,-608 652.38,-608 652.38,-670.75 652.38,-670.75 652.38,-676.75 646.38,-682.75 640.38,-682.75"/>
<text xml:space="preserve" text-anchor="middle" x="565.62" y="-665.45" font-family="Helvetica,sans-Serif" font-size="14.00">1: register int Outer, Inner;</text>
<text xml:space="preserve" text-anchor="middle" x="565.62" y="-649.7" font-family="Helvetica,sans-Serif" font-size="14.00">int Ptotal = 0;</text>
<text xml:space="preserve" text-anchor="middle" x="565.62" y="-633.95" font-family="Helvetica,sans-Serif" font-size="14.00">int Ntotal = 0;</text>
<text xml:space="preserve" text-anchor="middle" x="565.62" y="-618.2" font-family="Helvetica,sans-Serif" font-size="14.00">int Pcnt = 0;</text>
<text xml:space="preserve" text-anchor="middle" x="565.62" y="-602.45" font-family="Helvetica,sans-Serif" font-size="14.00">int Ncnt = 0;</text>
</g>
<!-- N2 -->
<g id="node2" class="node">
<title>N2</title>
<path fill="none" stroke="black" d="M598,-559C598,-559 533.25,-559 533.25,-559 527.25,-559 521.25,-553 521.25,-547 521.25,-547 521.25,-535 521.25,-535 521.25,-529 527.25,-523 533.25,-523 533.25,-523 598,-523 598,-523 604,-523 610,-529 610,-535 610,-535 610,-547 610,-547 610,-553 604,-559 598,-559"/>
<text xml:space="preserve" text-anchor="middle" x="565.62" y="-535.58" font-family="Helvetica,sans-Serif" font-size="14.00">2: Outer = 0</text>
</g>
<!-- N1&#45;&gt;N2 -->
<g id="edge1" class="edge">
<title>N1&#45;&gt;N2</title>
<path fill="none" stroke="black" d="M565.62,-595.54C565.62,-587.1 565.62,-578.43 565.62,-570.59"/>
<polygon fill="black" stroke="black" points="569.13,-570.63 565.63,-560.63 562.13,-570.63 569.13,-570.63"/>
</g>
<!-- N3 -->
<g id="node3" class="node">
<title>N3</title>
<path fill="none" stroke="black" d="M628,-486C628,-486 503.25,-486 503.25,-486 497.25,-486 491.25,-480 491.25,-474 491.25,-474 491.25,-462 491.25,-462 491.25,-456 497.25,-450 503.25,-450 503.25,-450 628,-450 628,-450 634,-450 640,-456 640,-462 640,-462 640,-474 640,-474 640,-480 634,-486 628,-486"/>
<text xml:space="preserve" text-anchor="middle" x="565.62" y="-462.57" font-family="Helvetica,sans-Serif" font-size="14.00">3: Outer &lt; MAXSIZE?</text>
</g>
<!-- N2&#45;&gt;N3 -->
<g id="edge2" class="edge">
<title>N2&#45;&gt;N3</title>
<path fill="none" stroke="black" d="M565.62,-522.81C565.62,-515.23 565.62,-506.1 565.62,-497.54"/>
<polygon fill="black" stroke="black" points="569.13,-497.54 565.63,-487.54 562.13,-497.54 569.13,-497.54"/>
</g>
<!-- N4 -->
<g id="node4" class="node">
<title>N4</title>
<path fill="none" stroke="black" d="M518.12,-380C518.12,-380 457.12,-380 457.12,-380 451.12,-380 445.12,-374 445.12,-368 445.12,-368 445.12,-356 445.12,-356 445.12,-350 451.12,-344 457.12,-344 457.12,-344 518.12,-344 518.12,-344 524.12,-344 530.12,-350 530.12,-356 530.12,-356 530.12,-368 530.12,-368 530.12,-374 524.12,-380 518.12,-380"/>
<text xml:space="preserve" text-anchor="middle" x="487.62" y="-356.57" font-family="Helvetica,sans-Serif" font-size="14.00">4: Inner = 0</text>
</g>
<!-- N3&#45;&gt;N4 -->
<g id="edge3" class="edge">
<title>N3&#45;&gt;N4</title>
<path fill="none" stroke="black" d="M546.63,-449.57C541.19,-444.18 535.44,-438.06 530.62,-432 520.3,-419.01 510.39,-403.39 502.69,-390.31"/>
<polygon fill="black" stroke="black" points="505.8,-388.69 497.78,-381.77 499.73,-392.18 505.8,-388.69"/>
<text xml:space="preserve" text-anchor="middle" x="541.12" y="-418.7" font-family="Times New Roman,serif" font-size="14.00">true</text>
</g>
<!-- N9 -->
<g id="node11" class="node">
<title>N9</title>
<path fill="none" stroke="black" d="M715.5,-397.5C715.5,-397.5 605.75,-397.5 605.75,-397.5 599.75,-397.5 593.75,-391.5 593.75,-385.5 593.75,-385.5 593.75,-338.5 593.75,-338.5 593.75,-332.5 599.75,-326.5 605.75,-326.5 605.75,-326.5 715.5,-326.5 715.5,-326.5 721.5,-326.5 727.5,-332.5 727.5,-338.5 727.5,-338.5 727.5,-385.5 727.5,-385.5 727.5,-391.5 721.5,-397.5 715.5,-397.5"/>
<text xml:space="preserve" text-anchor="middle" x="660.62" y="-380.2" font-family="Helvetica,sans-Serif" font-size="14.00">9: Postotal = Ptotal;</text>
<text xml:space="preserve" text-anchor="middle" x="660.62" y="-364.45" font-family="Helvetica,sans-Serif" font-size="14.00">Poscnt = Pcnt;</text>
<text xml:space="preserve" text-anchor="middle" x="660.62" y="-348.7" font-family="Helvetica,sans-Serif" font-size="14.00">Negtotal = Ntotal;</text>
<text xml:space="preserve" text-anchor="middle" x="660.62" y="-332.95" font-family="Helvetica,sans-Serif" font-size="14.00">Negcnt = Ncnt;</text>
</g>
<!-- N3&#45;&gt;N9 -->
<g id="edge4" class="edge">
<title>N3&#45;&gt;N9</title>
<path fill="none" stroke="black" d="M581.31,-449.83C592.16,-437.95 607.11,-421.58 621.11,-406.26"/>
<polygon fill="black" stroke="black" points="623.57,-408.75 627.73,-399.01 618.4,-404.03 623.57,-408.75"/>
<text xml:space="preserve" text-anchor="middle" x="623.03" y="-418.7" font-family="Times New Roman,serif" font-size="14.00">false</text>
</g>
<!-- N5 -->
<g id="node5" class="node">
<title>N5</title>
<path fill="none" stroke="black" d="M525.12,-289.5C525.12,-289.5 404.12,-289.5 404.12,-289.5 398.12,-289.5 392.12,-283.5 392.12,-277.5 392.12,-277.5 392.12,-265.5 392.12,-265.5 392.12,-259.5 398.12,-253.5 404.12,-253.5 404.12,-253.5 525.12,-253.5 525.12,-253.5 531.12,-253.5 537.12,-259.5 537.12,-265.5 537.12,-265.5 537.12,-277.5 537.12,-277.5 537.12,-283.5 531.12,-289.5 525.12,-289.5"/>
<text xml:space="preserve" text-anchor="middle" x="464.62" y="-266.07" font-family="Helvetica,sans-Serif" font-size="14.00">5: Inner &lt; MAXSIZE?</text>
</g>
<!-- N4&#45;&gt;N5 -->
<g id="edge5" class="edge">
<title>N4&#45;&gt;N5</title>
<path fill="none" stroke="black" d="M483.08,-343.52C479.93,-331.39 475.67,-314.98 472.03,-300.99"/>
<polygon fill="black" stroke="black" points="475.44,-300.21 469.54,-291.41 468.67,-301.97 475.44,-300.21"/>
</g>
<!-- N6 -->
<g id="node6" class="node">
<title>N6</title>
<path fill="none" stroke="black" d="M412.38,-201C412.38,-201 262.88,-201 262.88,-201 256.88,-201 250.88,-195 250.88,-189 250.88,-189 250.88,-177 250.88,-177 250.88,-171 256.88,-165 262.88,-165 262.88,-165 412.38,-165 412.38,-165 418.38,-165 424.38,-171 424.38,-177 424.38,-177 424.38,-189 424.38,-189 424.38,-195 418.38,-201 412.38,-201"/>
<text xml:space="preserve" text-anchor="middle" x="337.62" y="-177.57" font-family="Helvetica,sans-Serif" font-size="14.00">6: Array[Outer][Inner] &lt; 0?</text>
</g>
<!-- N5&#45;&gt;N6 -->
<g id="edge6" class="edge">
<title>N5&#45;&gt;N6</title>
<path fill="none" stroke="black" d="M439.23,-253.2C420.02,-240.12 393.43,-222.01 372.27,-207.6"/>
<polygon fill="black" stroke="black" points="374.46,-204.86 364.23,-202.12 370.52,-210.64 374.46,-204.86"/>
<text xml:space="preserve" text-anchor="middle" x="423" y="-222.2" font-family="Times New Roman,serif" font-size="14.00">true</text>
</g>
<!-- N8 -->
<g id="node10" class="node">
<title>N8</title>
<path fill="none" stroke="black" d="M582.62,-201C582.62,-201 524.62,-201 524.62,-201 518.62,-201 512.62,-195 512.62,-189 512.62,-189 512.62,-177 512.62,-177 512.62,-171 518.62,-165 524.62,-165 524.62,-165 582.62,-165 582.62,-165 588.62,-165 594.62,-171 594.62,-177 594.62,-177 594.62,-189 594.62,-189 594.62,-195 588.62,-201 582.62,-201"/>
<text xml:space="preserve" text-anchor="middle" x="553.62" y="-177.57" font-family="Helvetica,sans-Serif" font-size="14.00">8: Outer++</text>
</g>
<!-- N5&#45;&gt;N8 -->
<g id="edge7" class="edge">
<title>N5&#45;&gt;N8</title>
<path fill="none" stroke="black" d="M482.21,-253.41C495.17,-240.82 513,-223.48 527.61,-209.29"/>
<polygon fill="black" stroke="black" points="529.96,-211.88 534.69,-202.41 525.08,-206.86 529.96,-211.88"/>
<text xml:space="preserve" text-anchor="middle" x="529.85" y="-222.2" font-family="Times New Roman,serif" font-size="14.00">false</text>
</g>
<!-- N6_true -->
<g id="node7" class="node">
<title>N6_true</title>
<path fill="none" stroke="black" d="M201.25,-112.5C201.25,-112.5 12,-112.5 12,-112.5 6,-112.5 0,-106.5 0,-100.5 0,-100.5 0,-85 0,-85 0,-79 6,-73 12,-73 12,-73 201.25,-73 201.25,-73 207.25,-73 213.25,-79 213.25,-85 213.25,-85 213.25,-100.5 213.25,-100.5 213.25,-106.5 207.25,-112.5 201.25,-112.5"/>
<text xml:space="preserve" text-anchor="middle" x="106.62" y="-95.2" font-family="Helvetica,sans-Serif" font-size="14.00">6a: Ntotal += Array[Outer][Inner];</text>
<text xml:space="preserve" text-anchor="middle" x="106.62" y="-79.45" font-family="Helvetica,sans-Serif" font-size="14.00">Ncnt++;</text>
</g>
<!-- N6&#45;&gt;N6_true -->
<g id="edge8" class="edge">
<title>N6&#45;&gt;N6_true</title>
<path fill="none" stroke="black" d="M291.99,-164.56C256.41,-150.97 206.67,-131.97 167.67,-117.07"/>
<polygon fill="black" stroke="black" points="168.98,-113.83 158.39,-113.53 166.49,-120.37 168.98,-113.83"/>
<text xml:space="preserve" text-anchor="middle" x="253.32" y="-133.7" font-family="Times New Roman,serif" font-size="14.00">true</text>
</g>
<!-- N6_false -->
<g id="node8" class="node">
<title>N6_false</title>
<path fill="none" stroke="black" d="M431.88,-112.5C431.88,-112.5 243.38,-112.5 243.38,-112.5 237.38,-112.5 231.38,-106.5 231.38,-100.5 231.38,-100.5 231.38,-85 231.38,-85 231.38,-79 237.38,-73 243.38,-73 243.38,-73 431.88,-73 431.88,-73 437.88,-73 443.88,-79 443.88,-85 443.88,-85 443.88,-100.5 443.88,-100.5 443.88,-106.5 437.88,-112.5 431.88,-112.5"/>
<text xml:space="preserve" text-anchor="middle" x="337.62" y="-95.2" font-family="Helvetica,sans-Serif" font-size="14.00">6b: Ptotal += Array[Outer][Inner];</text>
<text xml:space="preserve" text-anchor="middle" x="337.62" y="-79.45" font-family="Helvetica,sans-Serif" font-size="14.00">Pcnt++;</text>
</g>
<!-- N6&#45;&gt;N6_false -->
<g id="edge9" class="edge">
<title>N6&#45;&gt;N6_false</title>
<path fill="none" stroke="black" d="M337.62,-164.56C337.62,-153.06 337.62,-137.69 337.62,-124.21"/>
<polygon fill="black" stroke="black" points="341.13,-124.5 337.63,-114.5 334.13,-124.5 341.13,-124.5"/>
<text xml:space="preserve" text-anchor="middle" x="350.38" y="-133.7" font-family="Times New Roman,serif" font-size="14.00">false</text>
</g>
<!-- N7 -->
<g id="node9" class="node">
<title>N7</title>
<path fill="none" stroke="black" d="M364.75,-36C364.75,-36 310.5,-36 310.5,-36 304.5,-36 298.5,-30 298.5,-24 298.5,-24 298.5,-12 298.5,-12 298.5,-6 304.5,0 310.5,0 310.5,0 364.75,0 364.75,0 370.75,0 376.75,-6 376.75,-12 376.75,-12 376.75,-24 376.75,-24 376.75,-30 370.75,-36 364.75,-36"/>
<text xml:space="preserve" text-anchor="middle" x="337.62" y="-12.57" font-family="Helvetica,sans-Serif" font-size="14.00">7: Inner++</text>
</g>
<!-- N6_true&#45;&gt;N7 -->
<g id="edge10" class="edge">
<title>N6_true&#45;&gt;N7</title>
<path fill="none" stroke="black" d="M167.62,-72.54C204.89,-60.8 251.98,-45.97 287.15,-34.9"/>
<polygon fill="black" stroke="black" points="288.19,-38.24 296.68,-31.9 286.09,-31.56 288.19,-38.24"/>
</g>
<!-- N6_false&#45;&gt;N7 -->
<g id="edge11" class="edge">
<title>N6_false&#45;&gt;N7</title>
<path fill="none" stroke="black" d="M337.62,-72.64C337.62,-64.97 337.62,-55.97 337.62,-47.55"/>
<polygon fill="black" stroke="black" points="341.13,-47.76 337.63,-37.76 334.13,-47.76 341.13,-47.76"/>
</g>
<!-- N7&#45;&gt;N5 -->
<g id="edge12" class="edge">
<title>N7&#45;&gt;N5</title>
<path fill="none" stroke="black" d="M377.22,-26.71C403.22,-33.99 435.47,-47.72 452.62,-73 487.3,-124.09 479.2,-200.81 471.29,-241.98"/>
<polygon fill="black" stroke="black" points="467.9,-241.08 469.31,-251.59 474.76,-242.5 467.9,-241.08"/>
</g>
<!-- N8&#45;&gt;N3 -->
<g id="edge13" class="edge">
<title>N8&#45;&gt;N3</title>
<path fill="none" stroke="black" d="M554.36,-201.41C556.37,-248.74 561.94,-380.09 564.41,-438.44"/>
<polygon fill="black" stroke="black" points="560.91,-438.37 564.83,-448.21 567.9,-438.07 560.91,-438.37"/>
</g>
</g>
</svg>
