<?xml version="1.0" encoding="UTF-8" standalone="no"?>
<!DOCTYPE svg PUBLIC "-//W3C//DTD SVG 1.1//EN"
 "http://www.w3.org/Graphics/SVG/1.1/DTD/svg11.dtd">
<!-- Generated by graphviz version 13.1.2 (20250808.2320)
 -->
<!-- Title: my_abs_CFG Pages: 1 -->
<svg width="170pt" height="279pt"
 viewBox="0.00 0.00 170.00 279.00" xmlns="http://www.w3.org/2000/svg" xmlns:xlink="http://www.w3.org/1999/xlink">
<g id="graph0" class="graph" transform="scale(1 1) rotate(0) translate(4 274.5)">
<title>my_abs_CFG</title>
<polygon fill="white" stroke="none" points="-4,4 -4,-274.5 166.25,-274.5 166.25,4 -4,4"/>
<!-- N1 -->
<g id="node1" class="node">
<title>N1</title>
<path fill="none" stroke="black" d="M99.38,-270.5C99.38,-270.5 58.62,-270.5 58.62,-270.5 52.62,-270.5 46.62,-264.5 46.62,-258.5 46.62,-258.5 46.62,-246.5 46.62,-246.5 46.62,-240.5 52.62,-234.5 58.62,-234.5 58.62,-234.5 99.38,-234.5 99.38,-234.5 105.38,-234.5 111.38,-240.5 111.38,-246.5 111.38,-246.5 111.38,-258.5 111.38,-258.5 111.38,-264.5 105.38,-270.5 99.38,-270.5"/>
<text xml:space="preserve" text-anchor="middle" x="79" y="-247.07" font-family="Helvetica,sans-Serif" font-size="14.00">1: int m;</text>
</g>
<!-- N2 -->
<g id="node2" class="node">
<title>N2</title>
<path fill="none" stroke="black" d="M111.75,-197.5C111.75,-197.5 46.25,-197.5 46.25,-197.5 40.25,-197.5 34.25,-191.5 34.25,-185.5 34.25,-185.5 34.25,-173.5 34.25,-173.5 34.25,-167.5 40.25,-161.5 46.25,-161.5 46.25,-161.5 111.75,-161.5 111.75,-161.5 117.75,-161.5 123.75,-167.5 123.75,-173.5 123.75,-173.5 123.75,-185.5 123.75,-185.5 123.75,-191.5 117.75,-197.5 111.75,-197.5"/>
<text xml:space="preserve" text-anchor="middle" x="79" y="-174.07" font-family="Helvetica,sans-Serif" font-size="14.00">2: if (n &gt;= 0)</text>
</g>
<!-- N1&#45;&gt;N2 -->
<g id="edge1" class="edge">
<title>N1&#45;&gt;N2</title>
<path fill="none" stroke="black" d="M79,-234.31C79,-226.73 79,-217.6 79,-209.04"/>
<polygon fill="black" stroke="black" points="82.5,-209.04 79,-199.04 75.5,-209.04 82.5,-209.04"/>
</g>
<!-- N3 -->
<g id="node3" class="node">
<title>N3</title>
<path fill="none" stroke="black" d="M58,-109C58,-109 12,-109 12,-109 6,-109 0,-103 0,-97 0,-97 0,-85 0,-85 0,-79 6,-73 12,-73 12,-73 58,-73 58,-73 64,-73 70,-79 70,-85 70,-85 70,-97 70,-97 70,-103 64,-109 58,-109"/>
<text xml:space="preserve" text-anchor="middle" x="35" y="-85.58" font-family="Helvetica,sans-Serif" font-size="14.00">3: m = n;</text>
</g>
<!-- N2&#45;&gt;N3 -->
<g id="edge2" class="edge">
<title>N2&#45;&gt;N3</title>
<path fill="none" stroke="black" d="M70.31,-161.41C64.2,-149.4 55.9,-133.09 48.88,-119.3"/>
<polygon fill="black" stroke="black" points="52.17,-118.03 44.51,-110.7 45.93,-121.2 52.17,-118.03"/>
<text xml:space="preserve" text-anchor="middle" x="71.44" y="-130.2" font-family="Times New Roman,serif" font-size="14.00">true</text>
</g>
<!-- N4 -->
<g id="node4" class="node">
<title>N4</title>
<path fill="none" stroke="black" d="M150.25,-109C150.25,-109 99.75,-109 99.75,-109 93.75,-109 87.75,-103 87.75,-97 87.75,-97 87.75,-85 87.75,-85 87.75,-79 93.75,-73 99.75,-73 99.75,-73 150.25,-73 150.25,-73 156.25,-73 162.25,-79 162.25,-85 162.25,-85 162.25,-97 162.25,-97 162.25,-103 156.25,-109 150.25,-109"/>
<text xml:space="preserve" text-anchor="middle" x="125" y="-85.58" font-family="Helvetica,sans-Serif" font-size="14.00">4: m = &#45;n;</text>
</g>
<!-- N2&#45;&gt;N4 -->
<g id="edge3" class="edge">
<title>N2&#45;&gt;N4</title>
<path fill="none" stroke="black" d="M88.09,-161.41C94.47,-149.4 103.15,-133.09 110.48,-119.3"/>
<polygon fill="black" stroke="black" points="113.46,-121.16 115.06,-110.69 107.28,-117.87 113.46,-121.16"/>
<text xml:space="preserve" text-anchor="middle" x="118.87" y="-130.2" font-family="Times New Roman,serif" font-size="14.00">false</text>
</g>
<!-- N5 -->
<g id="node5" class="node">
<title>N5</title>
<path fill="none" stroke="black" d="M109.88,-36C109.88,-36 48.12,-36 48.12,-36 42.12,-36 36.12,-30 36.12,-24 36.12,-24 36.12,-12 36.12,-12 36.12,-6 42.12,0 48.12,0 48.12,0 109.88,0 109.88,0 115.88,0 121.88,-6 121.88,-12 121.88,-12 121.88,-24 121.88,-24 121.88,-30 115.88,-36 109.88,-36"/>
<text xml:space="preserve" text-anchor="middle" x="79" y="-12.57" font-family="Helvetica,sans-Serif" font-size="14.00">5: return m;</text>
</g>
<!-- N3&#45;&gt;N5 -->
<g id="edge4" class="edge">
<title>N3&#45;&gt;N5</title>
<path fill="none" stroke="black" d="M45.65,-72.81C50.68,-64.7 56.79,-54.84 62.41,-45.78"/>
<polygon fill="black" stroke="black" points="65.36,-47.66 67.65,-37.32 59.41,-43.97 65.36,-47.66"/>
</g>
<!-- N4&#45;&gt;N5 -->
<g id="edge5" class="edge">
<title>N4&#45;&gt;N5</title>
<path fill="none" stroke="black" d="M113.86,-72.81C108.55,-64.62 102.08,-54.62 96.16,-45.48"/>
<polygon fill="black" stroke="black" points="99.23,-43.79 90.86,-37.3 93.36,-47.59 99.23,-43.79"/>
</g>
</g>
</svg>
