<?xml version="1.0" encoding="UTF-8" standalone="no"?>
<!DOCTYPE svg PUBLIC "-//W3C//DTD SVG 1.1//EN"
 "http://www.w3.org/Graphics/SVG/1.1/DTD/svg11.dtd">
<!-- Generated by graphviz version 13.1.2 (20250808.2320)
 -->
<!-- Title: my_abs_DFG Pages: 1 -->
<svg width="134pt" height="279pt"
 viewBox="0.00 0.00 134.00 279.00" xmlns="http://www.w3.org/2000/svg" xmlns:xlink="http://www.w3.org/1999/xlink">
<g id="graph0" class="graph" transform="scale(1 1) rotate(0) translate(4 274.5)">
<title>my_abs_DFG</title>
<polygon fill="white" stroke="none" points="-4,4 -4,-274.5 130.12,-274.5 130.12,4 -4,4"/>
<!-- n -->
<g id="node1" class="node">
<title>n</title>
<ellipse fill="lightblue" stroke="black" cx="67" cy="-252.5" rx="27" ry="18"/>
<text xml:space="preserve" text-anchor="middle" x="67" y="-247.45" font-family="Times New Roman,serif" font-size="14.00">n</text>
</g>
<!-- op_cond -->
<g id="node2" class="node">
<title>op_cond</title>
<polygon fill="none" stroke="black" points="94,-197.5 40,-197.5 40,-161.5 94,-161.5 94,-197.5"/>
<text xml:space="preserve" text-anchor="middle" x="67" y="-174.45" font-family="Times New Roman,serif" font-size="14.00">&gt;=0</text>
</g>
<!-- n&#45;&gt;op_cond -->
<g id="edge1" class="edge">
<title>n&#45;&gt;op_cond</title>
<path fill="none" stroke="black" d="M67,-234.31C67,-226.73 67,-217.6 67,-209.04"/>
<polygon fill="black" stroke="black" points="70.5,-209.04 67,-199.04 63.5,-209.04 70.5,-209.04"/>
</g>
<!-- op_assign1 -->
<g id="node3" class="node">
<title>op_assign1</title>
<polygon fill="none" stroke="black" points="54,-109 0,-109 0,-73 54,-73 54,-109"/>
<text xml:space="preserve" text-anchor="middle" x="27" y="-85.95" font-family="Times New Roman,serif" font-size="14.00">m = n</text>
</g>
<!-- n&#45;&gt;op_assign1 -->
<g id="edge2" class="edge">
<title>n&#45;&gt;op_assign1</title>
<path fill="none" stroke="black" d="M53.8,-236.64C45.58,-226.41 35.72,-212.08 31,-197.5 22.9,-172.46 22.63,-142.31 23.95,-120.67"/>
<polygon fill="black" stroke="black" points="27.43,-121.06 24.72,-110.82 20.45,-120.51 27.43,-121.06"/>
</g>
<!-- op_assign2 -->
<g id="node4" class="node">
<title>op_assign2</title>
<polygon fill="none" stroke="black" points="126.12,-109 71.88,-109 71.88,-73 126.12,-73 126.12,-109"/>
<text xml:space="preserve" text-anchor="middle" x="99" y="-85.95" font-family="Times New Roman,serif" font-size="14.00">m = &#45;n</text>
</g>
<!-- n&#45;&gt;op_assign2 -->
<g id="edge3" class="edge">
<title>n&#45;&gt;op_assign2</title>
<path fill="none" stroke="black" d="M79.6,-236.42C87.56,-226.1 97.36,-211.75 103,-197.5 114.62,-168.13 117.59,-158.09 112,-127 111.6,-124.8 111.08,-122.56 110.47,-120.32"/>
<polygon fill="black" stroke="black" points="113.81,-119.29 107.35,-110.9 107.17,-121.49 113.81,-119.29"/>
</g>
<!-- op_cond&#45;&gt;op_assign1 -->
<g id="edge4" class="edge">
<title>op_cond&#45;&gt;op_assign1</title>
<path fill="none" stroke="black" d="M59.1,-161.41C53.6,-149.52 46.15,-133.41 39.81,-119.7"/>
<polygon fill="black" stroke="black" points="43.03,-118.33 35.66,-110.72 36.68,-121.27 43.03,-118.33"/>
<text xml:space="preserve" text-anchor="middle" x="61.08" y="-130.2" font-family="Times New Roman,serif" font-size="14.00">true</text>
</g>
<!-- op_cond&#45;&gt;op_assign2 -->
<g id="edge5" class="edge">
<title>op_cond&#45;&gt;op_assign2</title>
<path fill="none" stroke="black" d="M73.32,-161.41C77.68,-149.64 83.56,-133.73 88.6,-120.11"/>
<polygon fill="black" stroke="black" points="91.87,-121.36 92.06,-110.77 85.3,-118.93 91.87,-121.36"/>
<text xml:space="preserve" text-anchor="middle" x="98.62" y="-130.2" font-family="Times New Roman,serif" font-size="14.00">false</text>
</g>
<!-- m_out -->
<g id="node5" class="node">
<title>m_out</title>
<ellipse fill="lightgreen" stroke="black" cx="62" cy="-18" rx="27" ry="18"/>
<text xml:space="preserve" text-anchor="middle" x="62" y="-12.95" font-family="Times New Roman,serif" font-size="14.00">m</text>
</g>
<!-- op_assign1&#45;&gt;m_out -->
<g id="edge6" class="edge">
<title>op_assign1&#45;&gt;m_out</title>
<path fill="none" stroke="black" d="M35.47,-72.81C39.49,-64.67 44.37,-54.76 48.85,-45.67"/>
<polygon fill="black" stroke="black" points="51.89,-47.41 53.18,-36.9 45.62,-44.32 51.89,-47.41"/>
</g>
<!-- op_assign2&#45;&gt;m_out -->
<g id="edge7" class="edge">
<title>op_assign2&#45;&gt;m_out</title>
<path fill="none" stroke="black" d="M90.04,-72.81C85.8,-64.67 80.64,-54.76 75.9,-45.67"/>
<polygon fill="black" stroke="black" points="79.04,-44.13 71.32,-36.88 72.84,-47.37 79.04,-44.13"/>
</g>
</g>
</svg>
