<?xml version="1.0" encoding="UTF-8" standalone="no"?>
<!DOCTYPE svg PUBLIC "-//W3C//DTD SVG 1.1//EN"
 "http://www.w3.org/Graphics/SVG/1.1/DTD/svg11.dtd">
<!-- Generated by graphviz version 13.1.2 (20250808.2320)
 -->
<!-- Title: compress_DFG Pages: 1 -->
<svg width="341pt" height="279pt"
 viewBox="0.00 0.00 341.00 279.00" xmlns="http://www.w3.org/2000/svg" xmlns:xlink="http://www.w3.org/1999/xlink">
<g id="graph0" class="graph" transform="scale(1 1) rotate(0) translate(4 274.5)">
<title>compress_DFG</title>
<polygon fill="white" stroke="none" points="-4,4 -4,-274.5 337.41,-274.5 337.41,4 -4,4"/>
<!-- in_count_init -->
<g id="node1" class="node">
<title>in_count_init</title>
<ellipse fill="lightblue" stroke="black" cx="53.4" cy="-252.5" rx="53.4" ry="18"/>
<text xml:space="preserve" text-anchor="middle" x="53.4" y="-247.45" font-family="Times New Roman,serif" font-size="14.00">in_count=1</text>
</g>
<!-- op_inc -->
<g id="node4" class="node">
<title>op_inc</title>
<polygon fill="none" stroke="black" points="155.4,-182 101.4,-182 101.4,-146 155.4,-146 155.4,-182"/>
<text xml:space="preserve" text-anchor="middle" x="128.4" y="-158.95" font-family="Times New Roman,serif" font-size="14.00">++</text>
</g>
<!-- in_count_init&#45;&gt;op_inc -->
<g id="edge1" class="edge">
<title>in_count_init&#45;&gt;op_inc</title>
<path fill="none" stroke="black" d="M67.86,-234.82C78.72,-222.3 93.78,-204.93 106.17,-190.64"/>
<polygon fill="black" stroke="black" points="108.57,-193.21 112.48,-183.36 103.28,-188.63 108.57,-193.21"/>
</g>
<!-- checkpoint_init -->
<g id="node2" class="node">
<title>checkpoint_init</title>
<ellipse fill="lightblue" stroke="black" cx="253.4" cy="-164" rx="80.01" ry="18"/>
<text xml:space="preserve" text-anchor="middle" x="253.4" y="-158.95" font-family="Times New Roman,serif" font-size="14.00">checkpoint=10000</text>
</g>
<!-- op_cmp -->
<g id="node5" class="node">
<title>op_cmp</title>
<polygon fill="none" stroke="black" points="217.4,-109 163.4,-109 163.4,-73 217.4,-73 217.4,-109"/>
<text xml:space="preserve" text-anchor="middle" x="190.4" y="-85.95" font-family="Times New Roman,serif" font-size="14.00">&gt;=</text>
</g>
<!-- checkpoint_init&#45;&gt;op_cmp -->
<g id="edge3" class="edge">
<title>checkpoint_init&#45;&gt;op_cmp</title>
<path fill="none" stroke="black" d="M238.47,-146.17C230.95,-137.7 221.66,-127.23 213.27,-117.77"/>
<polygon fill="black" stroke="black" points="216.14,-115.74 206.88,-110.58 210.9,-120.38 216.14,-115.74"/>
</g>
<!-- BUFFERSIZE -->
<g id="node3" class="node">
<title>BUFFERSIZE</title>
<ellipse fill="lightblue" stroke="black" cx="204.4" cy="-252.5" rx="80.01" ry="18"/>
<text xml:space="preserve" text-anchor="middle" x="204.4" y="-247.45" font-family="Times New Roman,serif" font-size="14.00">BUFFERSIZE=50</text>
</g>
<!-- BUFFERSIZE&#45;&gt;op_inc -->
<g id="edge4" class="edge">
<title>BUFFERSIZE&#45;&gt;op_inc</title>
<path fill="none" stroke="black" d="M189.38,-234.41C178.42,-221.93 163.37,-204.8 150.97,-190.68"/>
<polygon fill="black" stroke="black" points="153.87,-188.69 144.64,-183.49 148.61,-193.31 153.87,-188.69"/>
<text xml:space="preserve" text-anchor="middle" x="212.21" y="-203.2" font-family="Times New Roman,serif" font-size="14.00">max iterations</text>
</g>
<!-- op_inc&#45;&gt;op_cmp -->
<g id="edge2" class="edge">
<title>op_inc&#45;&gt;op_cmp</title>
<path fill="none" stroke="black" d="M143.41,-145.81C150.79,-137.35 159.85,-126.98 168.03,-117.61"/>
<polygon fill="black" stroke="black" points="170.59,-120 174.53,-110.17 165.32,-115.4 170.59,-120"/>
</g>
<!-- condition -->
<g id="node6" class="node">
<title>condition</title>
<ellipse fill="lightgreen" stroke="black" cx="190.4" cy="-18" rx="134.78" ry="18"/>
<text xml:space="preserve" text-anchor="middle" x="190.4" y="-12.95" font-family="Times New Roman,serif" font-size="14.00">condition: in_count&gt;=checkpoint</text>
</g>
<!-- op_cmp&#45;&gt;condition -->
<g id="edge5" class="edge">
<title>op_cmp&#45;&gt;condition</title>
<path fill="none" stroke="black" d="M190.4,-72.81C190.4,-65.23 190.4,-56.1 190.4,-47.54"/>
<polygon fill="black" stroke="black" points="193.9,-47.54 190.4,-37.54 186.9,-47.54 193.9,-47.54"/>
</g>
</g>
</svg>
