<?xml version="1.0" encoding="UTF-8" standalone="no"?>
<!DOCTYPE svg PUBLIC "-//W3C//DTD SVG 1.1//EN"
 "http://www.w3.org/Graphics/SVG/1.1/DTD/svg11.dtd">
<!-- Generated by graphviz version 13.1.2 (20250808.2320)
 -->
<!-- Title: fib Pages: 1 -->
<svg width="859pt" height="224pt"
 viewBox="0.00 0.00 859.00 224.00" xmlns="http://www.w3.org/2000/svg" xmlns:xlink="http://www.w3.org/1999/xlink">
<g id="graph0" class="graph" transform="scale(1 1) rotate(0) translate(4 219.75)">
<title>fib</title>
<polygon fill="white" stroke="none" points="-4,4 -4,-219.75 855,-219.75 855,4 -4,4"/>
<!-- 1 -->
<g id="node1" class="node">
<title>1</title>
<polygon fill="none" stroke="black" points="160.75,-166.25 0,-166.25 0,-75.75 160.75,-75.75 160.75,-166.25"/>
<text xml:space="preserve" text-anchor="middle" x="80.38" y="-148.95" font-family="Times New Roman,serif" font-size="14.00">1</text>
<text xml:space="preserve" text-anchor="middle" x="80.38" y="-132.45" font-family="Times New Roman,serif" font-size="14.00">Fnew = 1</text>
<text xml:space="preserve" text-anchor="middle" x="80.38" y="-115.95" font-family="Times New Roman,serif" font-size="14.00">Fold = 0</text>
<text xml:space="preserve" text-anchor="middle" x="80.38" y="-99.45" font-family="Times New Roman,serif" font-size="14.00">i = 2</text>
<text xml:space="preserve" text-anchor="middle" x="80.38" y="-82.95" font-family="Times New Roman,serif" font-size="14.00">definicao={Fnew, Fold, i}</text>
</g>
<!-- 2 -->
<g id="node2" class="node">
<title>2</title>
<polygon fill="none" stroke="black" points="378.75,-178.5 197.75,-121 378.75,-63.5 559.75,-121 378.75,-178.5"/>
<text xml:space="preserve" text-anchor="middle" x="378.75" y="-132.45" font-family="Times New Roman,serif" font-size="14.00">2</text>
<text xml:space="preserve" text-anchor="middle" x="378.75" y="-115.95" font-family="Times New Roman,serif" font-size="14.00">Condicao: i &lt;= 30 &amp;&amp; i &lt;= n</text>
<text xml:space="preserve" text-anchor="middle" x="378.75" y="-99.45" font-family="Times New Roman,serif" font-size="14.00">p&#45;uso={i, n}</text>
</g>
<!-- 1&#45;&gt;2 -->
<g id="edge1" class="edge">
<title>1&#45;&gt;2</title>
<path fill="none" stroke="black" d="M161.19,-121C168.85,-121 176.82,-121 185,-121"/>
<polygon fill="black" stroke="black" points="184.74,-124.5 194.74,-121 184.74,-117.5 184.74,-124.5"/>
</g>
<!-- 3 -->
<g id="node3" class="node">
<title>3</title>
<polygon fill="none" stroke="black" points="851,-215.75 655,-215.75 655,-92.25 851,-92.25 851,-215.75"/>
<text xml:space="preserve" text-anchor="middle" x="753" y="-198.45" font-family="Times New Roman,serif" font-size="14.00">3</text>
<text xml:space="preserve" text-anchor="middle" x="753" y="-181.95" font-family="Times New Roman,serif" font-size="14.00">temp = Fnew</text>
<text xml:space="preserve" text-anchor="middle" x="753" y="-165.45" font-family="Times New Roman,serif" font-size="14.00">Fnew = Fnew + Fold</text>
<text xml:space="preserve" text-anchor="middle" x="753" y="-148.95" font-family="Times New Roman,serif" font-size="14.00">Fold = temp</text>
<text xml:space="preserve" text-anchor="middle" x="753" y="-132.45" font-family="Times New Roman,serif" font-size="14.00">i++</text>
<text xml:space="preserve" text-anchor="middle" x="753" y="-115.95" font-family="Times New Roman,serif" font-size="14.00">definicao={temp, Fnew, Fold, i}</text>
<text xml:space="preserve" text-anchor="middle" x="753" y="-99.45" font-family="Times New Roman,serif" font-size="14.00">c&#45;uso={Fnew, Fold}</text>
</g>
<!-- 2&#45;&gt;3 -->
<g id="edge2" class="edge">
<title>2&#45;&gt;3</title>
<path fill="none" stroke="black" d="M521.54,-133.57C562.03,-137.16 605.49,-141.01 643.63,-144.39"/>
<polygon fill="black" stroke="black" points="642.99,-147.85 653.26,-145.25 643.61,-140.88 642.99,-147.85"/>
<text xml:space="preserve" text-anchor="middle" x="607.38" y="-146.53" font-family="Times New Roman,serif" font-size="14.00">Verdadeiro</text>
</g>
<!-- 4 -->
<g id="node4" class="node">
<title>4</title>
<polygon fill="none" stroke="black" points="801.5,-74 704.5,-74 704.5,0 801.5,0 801.5,-74"/>
<text xml:space="preserve" text-anchor="middle" x="753" y="-56.7" font-family="Times New Roman,serif" font-size="14.00">4</text>
<text xml:space="preserve" text-anchor="middle" x="753" y="-40.2" font-family="Times New Roman,serif" font-size="14.00">ans = Fnew</text>
<text xml:space="preserve" text-anchor="middle" x="753" y="-23.7" font-family="Times New Roman,serif" font-size="14.00">return ans</text>
<text xml:space="preserve" text-anchor="middle" x="753" y="-7.2" font-family="Times New Roman,serif" font-size="14.00">c&#45;uso={Fnew}</text>
</g>
<!-- 2&#45;&gt;4 -->
<g id="edge3" class="edge">
<title>2&#45;&gt;4</title>
<path fill="none" stroke="black" d="M485.92,-97.04C553.27,-81.84 637.87,-62.75 693.36,-50.23"/>
<polygon fill="black" stroke="black" points="693.94,-53.69 702.92,-48.07 692.4,-46.86 693.94,-53.69"/>
<text xml:space="preserve" text-anchor="middle" x="607.38" y="-77.17" font-family="Times New Roman,serif" font-size="14.00">Falso</text>
</g>
<!-- 3&#45;&gt;2 -->
<g id="edge4" class="edge">
<title>3&#45;&gt;2</title>
<path fill="none" stroke="black" d="M654.54,-137.14C648.61,-136.35 642.73,-135.63 637,-135 609.92,-132.03 581.16,-129.69 553.05,-127.83"/>
<polygon fill="black" stroke="black" points="553.61,-124.36 543.41,-127.22 553.17,-131.35 553.61,-124.36"/>
</g>
</g>
</svg>
