<?xml version="1.0" encoding="UTF-8" standalone="no"?>
<!DOCTYPE svg PUBLIC "-//W3C//DTD SVG 1.1//EN"
 "http://www.w3.org/Graphics/SVG/1.1/DTD/svg11.dtd">
<!-- Generated by graphviz version 13.1.2 (20250808.2320)
 -->
<!-- Title: foo_DCFG Pages: 1 -->
<svg width="509pt" height="783pt"
 viewBox="0.00 0.00 509.00 783.00" xmlns="http://www.w3.org/2000/svg" xmlns:xlink="http://www.w3.org/1999/xlink">
<g id="graph0" class="graph" transform="scale(1 1) rotate(0) translate(4 779)">
<title>foo_DCFG</title>
<polygon fill="white" stroke="none" points="-4,4 -4,-779 504.88,-779 504.88,4 -4,4"/>
<!-- entry -->
<g id="node1" class="node">
<title>entry</title>
<polygon fill="none" stroke="black" points="367.88,-775 300.12,-775 300.12,-734 367.88,-734 367.88,-775"/>
<text xml:space="preserve" text-anchor="middle" x="334" y="-757.7" font-family="Times New Roman,serif" font-size="14.00">ENTRY</text>
<text xml:space="preserve" text-anchor="middle" x="334" y="-741.2" font-family="Times New Roman,serif" font-size="14.00">foo(int x)</text>
</g>
<!-- init -->
<g id="node2" class="node">
<title>init</title>
<polygon fill="none" stroke="black" points="392.25,-697 275.75,-697 275.75,-656 392.25,-656 392.25,-697"/>
<text xml:space="preserve" text-anchor="middle" x="334" y="-679.7" font-family="Times New Roman,serif" font-size="14.00">i=0, j=0, k=0, l=0</text>
<text xml:space="preserve" text-anchor="middle" x="334" y="-663.2" font-family="Times New Roman,serif" font-size="14.00">#ifdef TEST: c=0</text>
</g>
<!-- entry&#45;&gt;init -->
<g id="edge1" class="edge">
<title>entry&#45;&gt;init</title>
<path fill="none" stroke="black" d="M334,-733.53C334,-725.94 334,-717.1 334,-708.71"/>
<polygon fill="black" stroke="black" points="337.5,-708.85 334,-698.85 330.5,-708.85 337.5,-708.85"/>
</g>
<!-- cond_i -->
<g id="node3" class="node">
<title>cond_i</title>
<polygon fill="none" stroke="black" points="361,-619 307,-619 307,-583 361,-583 361,-619"/>
<text xml:space="preserve" text-anchor="middle" x="334" y="-595.95" font-family="Times New Roman,serif" font-size="14.00">i &lt; 5?</text>
</g>
<!-- init&#45;&gt;cond_i -->
<g id="edge2" class="edge">
<title>init&#45;&gt;cond_i</title>
<path fill="none" stroke="black" d="M334,-655.8C334,-648.06 334,-639.01 334,-630.57"/>
<polygon fill="black" stroke="black" points="337.5,-630.76 334,-620.76 330.5,-630.76 337.5,-630.76"/>
</g>
<!-- cond_j -->
<g id="node4" class="node">
<title>cond_j</title>
<polygon fill="none" stroke="black" points="297,-530.5 243,-530.5 243,-494.5 297,-494.5 297,-530.5"/>
<text xml:space="preserve" text-anchor="middle" x="270" y="-507.45" font-family="Times New Roman,serif" font-size="14.00">j &lt; 5?</text>
</g>
<!-- cond_i&#45;&gt;cond_j -->
<g id="edge3" class="edge">
<title>cond_i&#45;&gt;cond_j</title>
<path fill="none" stroke="black" d="M314.83,-582.71C309.39,-577.32 303.68,-571.16 299,-565 293.39,-557.61 288.13,-549.02 283.67,-541"/>
<polygon fill="black" stroke="black" points="286.8,-539.44 279.01,-532.26 280.63,-542.73 286.8,-539.44"/>
<text xml:space="preserve" text-anchor="middle" x="309.5" y="-551.7" font-family="Times New Roman,serif" font-size="14.00">true</text>
</g>
<!-- return_not_found -->
<g id="node13" class="node">
<title>return_not_found</title>
<polygon fill="none" stroke="black" points="500.88,-476.5 349.12,-476.5 349.12,-435.5 500.88,-435.5 500.88,-476.5"/>
<text xml:space="preserve" text-anchor="middle" x="425" y="-459.2" font-family="Times New Roman,serif" font-size="14.00">RETURN NOT FOUND</text>
<text xml:space="preserve" text-anchor="middle" x="425" y="-442.7" font-family="Times New Roman,serif" font-size="14.00">return &#45;1</text>
</g>
<!-- cond_i&#45;&gt;return_not_found -->
<g id="edge4" class="edge">
<title>cond_i&#45;&gt;return_not_found</title>
<path fill="none" stroke="black" d="M344.98,-582.75C360.2,-558.83 387.93,-515.25 406.41,-486.21"/>
<polygon fill="black" stroke="black" points="409.3,-488.19 411.72,-477.87 403.39,-484.43 409.3,-488.19"/>
<text xml:space="preserve" text-anchor="middle" x="378.78" y="-551.7" font-family="Times New Roman,serif" font-size="14.00">false</text>
</g>
<!-- cond_k -->
<g id="node5" class="node">
<title>cond_k</title>
<polygon fill="none" stroke="black" points="223,-417.5 169,-417.5 169,-381.5 223,-381.5 223,-417.5"/>
<text xml:space="preserve" text-anchor="middle" x="196" y="-394.45" font-family="Times New Roman,serif" font-size="14.00">k &lt; 5?</text>
</g>
<!-- cond_j&#45;&gt;cond_k -->
<g id="edge5" class="edge">
<title>cond_j&#45;&gt;cond_k</title>
<path fill="none" stroke="black" d="M242.58,-494.01C236.18,-488.96 229.83,-483.02 225,-476.5 214.49,-462.3 207.33,-443.83 202.75,-428.65"/>
<polygon fill="black" stroke="black" points="206.19,-427.97 200.14,-419.27 199.45,-429.84 206.19,-427.97"/>
<text xml:space="preserve" text-anchor="middle" x="235.5" y="-450.95" font-family="Times New Roman,serif" font-size="14.00">true</text>
</g>
<!-- inc_i -->
<g id="node12" class="node">
<title>inc_i</title>
<polygon fill="none" stroke="black" points="351,-417.5 297,-417.5 297,-381.5 351,-381.5 351,-417.5"/>
<text xml:space="preserve" text-anchor="middle" x="324" y="-394.45" font-family="Times New Roman,serif" font-size="14.00">i++</text>
</g>
<!-- cond_j&#45;&gt;inc_i -->
<g id="edge6" class="edge">
<title>cond_j&#45;&gt;inc_i</title>
<path fill="none" stroke="black" d="M273.57,-494.12C277.3,-478.19 284.08,-454.29 294.5,-435.5 296.18,-432.47 298.14,-429.46 300.24,-426.54"/>
<polygon fill="black" stroke="black" points="302.86,-428.88 306.31,-418.86 297.37,-424.54 302.86,-428.88"/>
<text xml:space="preserve" text-anchor="middle" x="307.25" y="-450.95" font-family="Times New Roman,serif" font-size="14.00">false</text>
</g>
<!-- cond_l -->
<g id="node6" class="node">
<title>cond_l</title>
<polygon fill="none" stroke="black" points="143,-329 89,-329 89,-293 143,-293 143,-329"/>
<text xml:space="preserve" text-anchor="middle" x="116" y="-305.95" font-family="Times New Roman,serif" font-size="14.00">l &lt; 5?</text>
</g>
<!-- cond_k&#45;&gt;cond_l -->
<g id="edge7" class="edge">
<title>cond_k&#45;&gt;cond_l</title>
<path fill="none" stroke="black" d="M170.99,-381.27C164.14,-375.97 156.96,-369.85 151,-363.5 144.06,-356.1 137.51,-347.21 131.99,-338.91"/>
<polygon fill="black" stroke="black" points="134.95,-337.04 126.62,-330.49 129.05,-340.81 134.95,-337.04"/>
<text xml:space="preserve" text-anchor="middle" x="161.5" y="-350.2" font-family="Times New Roman,serif" font-size="14.00">true</text>
</g>
<!-- inc_j -->
<g id="node11" class="node">
<title>inc_j</title>
<polygon fill="none" stroke="black" points="278,-329 224,-329 224,-293 278,-293 278,-329"/>
<text xml:space="preserve" text-anchor="middle" x="251" y="-305.95" font-family="Times New Roman,serif" font-size="14.00">j++</text>
</g>
<!-- cond_k&#45;&gt;inc_j -->
<g id="edge8" class="edge">
<title>cond_k&#45;&gt;inc_j</title>
<path fill="none" stroke="black" d="M202.83,-381.18C207.23,-370.88 213.44,-357.76 220.5,-347 222.43,-344.06 224.58,-341.11 226.83,-338.23"/>
<polygon fill="black" stroke="black" points="229.5,-340.5 233.21,-330.58 224.12,-336.02 229.5,-340.5"/>
<text xml:space="preserve" text-anchor="middle" x="233.25" y="-350.2" font-family="Times New Roman,serif" font-size="14.00">false</text>
</g>
<!-- inner -->
<g id="node7" class="node">
<title>inner</title>
<polygon fill="none" stroke="black" points="172.38,-240.5 29.62,-240.5 29.62,-183 172.38,-183 172.38,-240.5"/>
<text xml:space="preserve" text-anchor="middle" x="101" y="-223.2" font-family="Times New Roman,serif" font-size="14.00">INNER LOOP</text>
<text xml:space="preserve" text-anchor="middle" x="101" y="-206.7" font-family="Times New Roman,serif" font-size="14.00">#ifdef TEST: c++</text>
<text xml:space="preserve" text-anchor="middle" x="101" y="-190.2" font-family="Times New Roman,serif" font-size="14.00">if(keys[i][j][k][l] == x)</text>
</g>
<!-- cond_l&#45;&gt;inner -->
<g id="edge9" class="edge">
<title>cond_l&#45;&gt;inner</title>
<path fill="none" stroke="black" d="M107.59,-292.58C105.33,-287.08 103.19,-280.9 102,-275 100.53,-267.68 99.78,-259.78 99.47,-252.15"/>
<polygon fill="black" stroke="black" points="102.97,-252.33 99.32,-242.38 95.97,-252.44 102.97,-252.33"/>
<text xml:space="preserve" text-anchor="middle" x="112.5" y="-261.7" font-family="Times New Roman,serif" font-size="14.00">true</text>
</g>
<!-- inc_k -->
<g id="node10" class="node">
<title>inc_k</title>
<polygon fill="none" stroke="black" points="244,-229.75 190,-229.75 190,-193.75 244,-193.75 244,-229.75"/>
<text xml:space="preserve" text-anchor="middle" x="217" y="-206.7" font-family="Times New Roman,serif" font-size="14.00">k++</text>
</g>
<!-- cond_l&#45;&gt;inc_k -->
<g id="edge10" class="edge">
<title>cond_l&#45;&gt;inc_k</title>
<path fill="none" stroke="black" d="M123.29,-292.58C128.51,-281.74 136.39,-268.08 146.5,-258.5 159.05,-246.6 166.43,-249.82 181,-240.5 182.85,-239.32 184.71,-238.07 186.58,-236.78"/>
<polygon fill="black" stroke="black" points="188.49,-239.72 194.52,-231.01 184.37,-234.05 188.49,-239.72"/>
<text xml:space="preserve" text-anchor="middle" x="159.25" y="-261.7" font-family="Times New Roman,serif" font-size="14.00">false</text>
</g>
<!-- return_found -->
<g id="node8" class="node">
<title>return_found</title>
<polygon fill="none" stroke="black" points="360.38,-114 121.62,-114 121.62,-73 360.38,-73 360.38,-114"/>
<text xml:space="preserve" text-anchor="middle" x="241" y="-96.7" font-family="Times New Roman,serif" font-size="14.00">RETURN FOUND</text>
<text xml:space="preserve" text-anchor="middle" x="241" y="-80.2" font-family="Times New Roman,serif" font-size="14.00">return answer[i][j][k][l] + keys[i][j][k][l]</text>
</g>
<!-- inner&#45;&gt;return_found -->
<g id="edge11" class="edge">
<title>inner&#45;&gt;return_found</title>
<path fill="none" stroke="black" d="M172.5,-185.84C175.37,-184.87 178.21,-183.92 181,-183 206.22,-174.65 221.84,-186.09 238,-165 246.41,-154.02 247.99,-139.01 247.12,-125.66"/>
<polygon fill="black" stroke="black" points="250.63,-125.54 246.01,-116 243.67,-126.34 250.63,-125.54"/>
<text xml:space="preserve" text-anchor="middle" x="257.82" y="-143.45" font-family="Times New Roman,serif" font-size="14.00">true</text>
</g>
<!-- inner&#45;&gt;return_found -->
<g id="edge19" class="edge">
<title>inner&#45;&gt;return_found</title>
<path fill="none" stroke="blue" stroke-dasharray="5,2" d="M91.39,-182.53C87.7,-166.17 86.63,-146.08 97.5,-132 101.5,-126.83 109.55,-122.23 119.9,-118.18"/>
<polygon fill="blue" stroke="blue" points="120.76,-121.59 129.04,-114.98 118.44,-114.99 120.76,-121.59"/>
<text xml:space="preserve" text-anchor="middle" x="155.25" y="-151.7" font-family="Times New Roman,serif" font-size="14.00">c&#45;use: x, i, j, k, l</text>
<text xml:space="preserve" text-anchor="middle" x="155.25" y="-135.2" font-family="Times New Roman,serif" font-size="14.00">p&#45;use: keys[i][j][k][l]</text>
</g>
<!-- inner&#45;&gt;return_found -->
<g id="edge20" class="edge">
<title>inner&#45;&gt;return_found</title>
<path fill="none" stroke="red" stroke-width="2" d="M172.8,-183.92C192.47,-176.06 209.42,-168.62 213,-165 223.22,-154.68 229.83,-140.18 234.04,-127"/>
<polygon fill="red" stroke="red" stroke-width="2" points="237.41,-127.97 236.7,-117.4 230.66,-126.1 237.41,-127.97"/>
</g>
<!-- inc_l -->
<g id="node9" class="node">
<title>inc_l</title>
<polygon fill="none" stroke="black" points="54,-111.5 0,-111.5 0,-75.5 54,-75.5 54,-111.5"/>
<text xml:space="preserve" text-anchor="middle" x="27" y="-88.45" font-family="Times New Roman,serif" font-size="14.00">l++</text>
</g>
<!-- inner&#45;&gt;inc_l -->
<g id="edge12" class="edge">
<title>inner&#45;&gt;inc_l</title>
<path fill="none" stroke="black" d="M63.27,-182.59C57.76,-177.22 52.58,-171.29 48.5,-165 40.32,-152.38 35.12,-136.48 31.88,-122.98"/>
<polygon fill="black" stroke="black" points="35.34,-122.41 29.84,-113.35 28.49,-123.86 35.34,-122.41"/>
<text xml:space="preserve" text-anchor="middle" x="61.25" y="-143.45" font-family="Times New Roman,serif" font-size="14.00">false</text>
</g>
<!-- exit -->
<g id="node14" class="node">
<title>exit</title>
<polygon fill="none" stroke="black" points="341,-36 287,-36 287,0 341,0 341,-36"/>
<text xml:space="preserve" text-anchor="middle" x="314" y="-12.95" font-family="Times New Roman,serif" font-size="14.00">EXIT</text>
</g>
<!-- return_found&#45;&gt;exit -->
<g id="edge17" class="edge">
<title>return_found&#45;&gt;exit</title>
<path fill="none" stroke="black" d="M260.56,-72.8C269.23,-64.08 279.53,-53.71 288.77,-44.41"/>
<polygon fill="black" stroke="black" points="291.24,-46.88 295.8,-37.32 286.27,-41.95 291.24,-46.88"/>
</g>
<!-- inc_l&#45;&gt;cond_l -->
<g id="edge13" class="edge">
<title>inc_l&#45;&gt;cond_l</title>
<path fill="none" stroke="black" d="M21.11,-111.84C12.49,-140.42 -0.35,-198.42 21,-240.5 33.08,-264.3 57.57,-281.91 78.65,-293.45"/>
<polygon fill="black" stroke="black" points="76.83,-296.44 87.32,-297.93 80.04,-290.23 76.83,-296.44"/>
</g>
<!-- inc_k&#45;&gt;cond_k -->
<g id="edge14" class="edge">
<title>inc_k&#45;&gt;cond_k</title>
<path fill="none" stroke="black" d="M215.04,-230.04C211.43,-262 203.68,-330.6 199.26,-369.69"/>
<polygon fill="black" stroke="black" points="195.79,-369.19 198.15,-379.52 202.75,-369.98 195.79,-369.19"/>
</g>
<!-- inc_j&#45;&gt;cond_j -->
<g id="edge15" class="edge">
<title>inc_j&#45;&gt;cond_j</title>
<path fill="none" stroke="black" d="M252.66,-329.46C255.94,-363.88 263.27,-440.81 267.27,-482.8"/>
<polygon fill="black" stroke="black" points="263.77,-483.01 268.2,-492.64 270.74,-482.35 263.77,-483.01"/>
</g>
<!-- inc_i&#45;&gt;cond_i -->
<g id="edge16" class="edge">
<title>inc_i&#45;&gt;cond_i</title>
<path fill="none" stroke="black" d="M324.88,-417.96C326.6,-452.38 330.46,-529.31 332.56,-571.3"/>
<polygon fill="black" stroke="black" points="329.06,-571.32 333.05,-581.13 336.05,-570.97 329.06,-571.32"/>
</g>
<!-- return_not_found&#45;&gt;exit -->
<g id="edge18" class="edge">
<title>return_not_found&#45;&gt;exit</title>
<path fill="none" stroke="black" d="M417.6,-435.27C410.87,-415.55 402,-384.24 402,-356.25 402,-356.25 402,-356.25 402,-92.5 402,-64.58 375.59,-45.19 351.7,-33.37"/>
<polygon fill="black" stroke="black" points="353.28,-30.24 342.74,-29.25 350.36,-36.6 353.28,-30.24"/>
</g>
</g>
</svg>
