<?xml version="1.0" encoding="UTF-8" standalone="no"?>
<!DOCTYPE svg PUBLIC "-//W3C//DTD SVG 1.1//EN"
 "http://www.w3.org/Graphics/SVG/1.1/DTD/svg11.dtd">
<!-- Generated by graphviz version 13.1.2 (20250808.2320)
 -->
<!-- Title: main_DCFG Pages: 1 -->
<svg width="292pt" height="357pt"
 viewBox="0.00 0.00 292.00 357.00" xmlns="http://www.w3.org/2000/svg" xmlns:xlink="http://www.w3.org/1999/xlink">
<g id="graph0" class="graph" transform="scale(1 1) rotate(0) translate(4 352.5)">
<title>main_DCFG</title>
<polygon fill="white" stroke="none" points="-4,4 -4,-352.5 287.62,-352.5 287.62,4 -4,4"/>
<!-- entry -->
<g id="node1" class="node">
<title>entry</title>
<polygon fill="none" stroke="black" points="188.38,-348.5 111.62,-348.5 111.62,-307.5 188.38,-307.5 188.38,-348.5"/>
<text xml:space="preserve" text-anchor="middle" x="150" y="-331.2" font-family="Times New Roman,serif" font-size="14.00">ENTRY</text>
<text xml:space="preserve" text-anchor="middle" x="150" y="-314.7" font-family="Times New Roman,serif" font-size="14.00">main(void)</text>
</g>
<!-- call_foo -->
<g id="node2" class="node">
<title>call_foo</title>
<polygon fill="none" stroke="black" points="181.62,-270.5 118.38,-270.5 118.38,-234.5 181.62,-234.5 181.62,-270.5"/>
<text xml:space="preserve" text-anchor="middle" x="150" y="-247.45" font-family="Times New Roman,serif" font-size="14.00">foo(400)</text>
</g>
<!-- entry&#45;&gt;call_foo -->
<g id="edge1" class="edge">
<title>entry&#45;&gt;call_foo</title>
<path fill="none" stroke="black" d="M150,-307.3C150,-299.56 150,-290.51 150,-282.07"/>
<polygon fill="black" stroke="black" points="153.5,-282.26 150,-272.26 146.5,-282.26 153.5,-282.26"/>
</g>
<!-- cond_test -->
<g id="node3" class="node">
<title>cond_test</title>
<polygon fill="none" stroke="black" points="152.75,-197.5 69.25,-197.5 69.25,-161.5 152.75,-161.5 152.75,-197.5"/>
<text xml:space="preserve" text-anchor="middle" x="111" y="-174.45" font-family="Times New Roman,serif" font-size="14.00">#ifdef TEST</text>
</g>
<!-- call_foo&#45;&gt;cond_test -->
<g id="edge2" class="edge">
<title>call_foo&#45;&gt;cond_test</title>
<path fill="none" stroke="black" d="M140.56,-234.31C136.15,-226.29 130.8,-216.55 125.87,-207.57"/>
<polygon fill="black" stroke="black" points="128.96,-205.94 121.08,-198.86 122.83,-209.31 128.96,-205.94"/>
</g>
<!-- print -->
<g id="node4" class="node">
<title>print</title>
<polygon fill="none" stroke="black" points="283.62,-109 94.38,-109 94.38,-73 283.62,-73 283.62,-109"/>
<text xml:space="preserve" text-anchor="middle" x="189" y="-85.95" font-family="Times New Roman,serif" font-size="14.00">printf(&quot;result=%d\n&quot;, foo(400))</text>
</g>
<!-- call_foo&#45;&gt;print -->
<g id="edge6" class="edge">
<title>call_foo&#45;&gt;print</title>
<path fill="none" stroke="blue" stroke-dasharray="5,2" d="M154.25,-234.13C160.93,-206.8 173.96,-153.5 182.03,-120.5"/>
<polygon fill="blue" stroke="blue" points="185.42,-121.37 184.4,-110.82 178.62,-119.7 185.42,-121.37"/>
<text xml:space="preserve" text-anchor="middle" x="222.4" y="-174.45" font-family="Times New Roman,serif" font-size="14.00">c&#45;use: return value</text>
</g>
<!-- cond_test&#45;&gt;print -->
<g id="edge3" class="edge">
<title>cond_test&#45;&gt;print</title>
<path fill="none" stroke="black" d="M116.05,-161.34C119.84,-150.6 125.88,-136.95 134.5,-127 137.86,-123.12 141.76,-119.51 145.9,-116.2"/>
<polygon fill="black" stroke="black" points="147.95,-119.03 153.99,-110.32 143.84,-113.36 147.95,-119.03"/>
<text xml:space="preserve" text-anchor="middle" x="154.75" y="-130.2" font-family="Times New Roman,serif" font-size="14.00">defined</text>
</g>
<!-- exit -->
<g id="node5" class="node">
<title>exit</title>
<polygon fill="none" stroke="black" points="54,-36 0,-36 0,0 54,0 54,-36"/>
<text xml:space="preserve" text-anchor="middle" x="27" y="-12.95" font-family="Times New Roman,serif" font-size="14.00">EXIT</text>
</g>
<!-- cond_test&#45;&gt;exit -->
<g id="edge4" class="edge">
<title>cond_test&#45;&gt;exit</title>
<path fill="none" stroke="black" d="M76.24,-161.07C56.86,-149.28 34.46,-131.71 23.5,-109 14.3,-89.94 15.81,-65.88 19.27,-47.43"/>
<polygon fill="black" stroke="black" points="22.68,-48.22 21.41,-37.7 15.84,-46.72 22.68,-48.22"/>
<text xml:space="preserve" text-anchor="middle" x="54.25" y="-85.95" font-family="Times New Roman,serif" font-size="14.00">not defined</text>
</g>
<!-- print&#45;&gt;exit -->
<g id="edge5" class="edge">
<title>print&#45;&gt;exit</title>
<path fill="none" stroke="black" d="M149.37,-72.63C123.47,-61.28 89.86,-46.55 64.41,-35.4"/>
<polygon fill="black" stroke="black" points="66.01,-32.27 55.44,-31.47 63.2,-38.68 66.01,-32.27"/>
</g>
</g>
</svg>
