<?xml version="1.0" encoding="UTF-8" standalone="no"?>
<!DOCTYPE svg PUBLIC "-//W3C//DTD SVG 1.1//EN"
 "http://www.w3.org/Graphics/SVG/1.1/DTD/svg11.dtd">
<!-- Generated by graphviz version 13.1.2 (20250808.2320)
 -->
<!-- Title: my_abs_CFG Pages: 1 -->
<svg width="191pt" height="279pt"
 viewBox="0.00 0.00 191.00 279.00" xmlns="http://www.w3.org/2000/svg" xmlns:xlink="http://www.w3.org/1999/xlink">
<g id="graph0" class="graph" transform="scale(1 1) rotate(0) translate(4 274.5)">
<title>my_abs_CFG</title>
<polygon fill="white" stroke="none" points="-4,4 -4,-274.5 186.5,-274.5 186.5,4 -4,4"/>
<!-- N1 -->
<g id="node1" class="node">
<title>N1</title>
<path fill="none" stroke="black" d="M170.5,-270.5C170.5,-270.5 12,-270.5 12,-270.5 6,-270.5 0,-264.5 0,-258.5 0,-258.5 0,-246.5 0,-246.5 0,-240.5 6,-234.5 12,-234.5 12,-234.5 170.5,-234.5 170.5,-234.5 176.5,-234.5 182.5,-240.5 182.5,-246.5 182.5,-246.5 182.5,-258.5 182.5,-258.5 182.5,-264.5 176.5,-270.5 170.5,-270.5"/>
<text xml:space="preserve" text-anchor="middle" x="91.25" y="-247.45" font-family="Times New Roman,serif" font-size="14.00">ENTRADA: int my_abs(int n)</text>
</g>
<!-- N2 -->
<g id="node2" class="node">
<title>N2</title>
<path fill="none" stroke="black" d="M116.5,-197.5C116.5,-197.5 66,-197.5 66,-197.5 60,-197.5 54,-191.5 54,-185.5 54,-185.5 54,-173.5 54,-173.5 54,-167.5 60,-161.5 66,-161.5 66,-161.5 116.5,-161.5 116.5,-161.5 122.5,-161.5 128.5,-167.5 128.5,-173.5 128.5,-173.5 128.5,-185.5 128.5,-185.5 128.5,-191.5 122.5,-197.5 116.5,-197.5"/>
<text xml:space="preserve" text-anchor="middle" x="91.25" y="-174.45" font-family="Times New Roman,serif" font-size="14.00">if (n &gt;= 0)</text>
</g>
<!-- N1&#45;&gt;N2 -->
<g id="edge1" class="edge">
<title>N1&#45;&gt;N2</title>
<path fill="none" stroke="black" d="M91.25,-234.31C91.25,-226.73 91.25,-217.6 91.25,-209.04"/>
<polygon fill="black" stroke="black" points="94.75,-209.04 91.25,-199.04 87.75,-209.04 94.75,-209.04"/>
</g>
<!-- N3 -->
<g id="node3" class="node">
<title>N3</title>
<path fill="none" stroke="black" d="M70.25,-109C70.25,-109 40.25,-109 40.25,-109 34.25,-109 28.25,-103 28.25,-97 28.25,-97 28.25,-85 28.25,-85 28.25,-79 34.25,-73 40.25,-73 40.25,-73 70.25,-73 70.25,-73 76.25,-73 82.25,-79 82.25,-85 82.25,-85 82.25,-97 82.25,-97 82.25,-103 76.25,-109 70.25,-109"/>
<text xml:space="preserve" text-anchor="middle" x="55.25" y="-85.95" font-family="Times New Roman,serif" font-size="14.00">m = n</text>
</g>
<!-- N2&#45;&gt;N3 -->
<g id="edge2" class="edge">
<title>N2&#45;&gt;N3</title>
<path fill="none" stroke="black" d="M84.14,-161.41C79.19,-149.52 72.48,-133.41 66.78,-119.7"/>
<polygon fill="black" stroke="black" points="70.13,-118.64 63.05,-110.75 63.66,-121.32 70.13,-118.64"/>
<text xml:space="preserve" text-anchor="middle" x="86.97" y="-130.2" font-family="Times New Roman,serif" font-size="14.00">true</text>
</g>
<!-- N4 -->
<g id="node4" class="node">
<title>N4</title>
<path fill="none" stroke="black" d="M142.38,-109C142.38,-109 112.12,-109 112.12,-109 106.12,-109 100.12,-103 100.12,-97 100.12,-97 100.12,-85 100.12,-85 100.12,-79 106.12,-73 112.12,-73 112.12,-73 142.38,-73 142.38,-73 148.38,-73 154.38,-79 154.38,-85 154.38,-85 154.38,-97 154.38,-97 154.38,-103 148.38,-109 142.38,-109"/>
<text xml:space="preserve" text-anchor="middle" x="127.25" y="-85.95" font-family="Times New Roman,serif" font-size="14.00">m = &#45;n</text>
</g>
<!-- N2&#45;&gt;N4 -->
<g id="edge3" class="edge">
<title>N2&#45;&gt;N4</title>
<path fill="none" stroke="black" d="M98.36,-161.41C103.31,-149.52 110.02,-133.41 115.72,-119.7"/>
<polygon fill="black" stroke="black" points="118.84,-121.32 119.45,-110.75 112.37,-118.64 118.84,-121.32"/>
<text xml:space="preserve" text-anchor="middle" x="125.22" y="-130.2" font-family="Times New Roman,serif" font-size="14.00">false</text>
</g>
<!-- N5 -->
<g id="node5" class="node">
<title>N5</title>
<path fill="none" stroke="black" d="M109.88,-36C109.88,-36 70.62,-36 70.62,-36 64.62,-36 58.62,-30 58.62,-24 58.62,-24 58.62,-12 58.62,-12 58.62,-6 64.62,0 70.62,0 70.62,0 109.88,0 109.88,0 115.88,0 121.88,-6 121.88,-12 121.88,-12 121.88,-24 121.88,-24 121.88,-30 115.88,-36 109.88,-36"/>
<text xml:space="preserve" text-anchor="middle" x="90.25" y="-12.95" font-family="Times New Roman,serif" font-size="14.00">return m</text>
</g>
<!-- N3&#45;&gt;N5 -->
<g id="edge4" class="edge">
<title>N3&#45;&gt;N5</title>
<path fill="none" stroke="black" d="M63.72,-72.81C67.68,-64.79 72.48,-55.05 76.91,-46.07"/>
<polygon fill="black" stroke="black" points="79.9,-47.9 81.19,-37.39 73.63,-44.81 79.9,-47.9"/>
</g>
<!-- N4&#45;&gt;N5 -->
<g id="edge5" class="edge">
<title>N4&#45;&gt;N5</title>
<path fill="none" stroke="black" d="M118.29,-72.81C114.11,-64.79 109.04,-55.05 104.36,-46.07"/>
<polygon fill="black" stroke="black" points="107.55,-44.62 99.82,-37.37 101.34,-47.86 107.55,-44.62"/>
</g>
</g>
</svg>
