<?xml version="1.0" encoding="UTF-8" standalone="no"?>
<!DOCTYPE svg PUBLIC "-//W3C//DTD SVG 1.1//EN"
 "http://www.w3.org/Graphics/SVG/1.1/DTD/svg11.dtd">
<!-- Generated by graphviz version 13.1.2 (20250808.2320)
 -->
<!-- Title: my_abs_DFG Pages: 1 -->
<svg width="210pt" height="279pt"
 viewBox="0.00 0.00 210.00 279.00" xmlns="http://www.w3.org/2000/svg" xmlns:xlink="http://www.w3.org/1999/xlink">
<g id="graph0" class="graph" transform="scale(1 1) rotate(0) translate(4 274.5)">
<title>my_abs_DFG</title>
<polygon fill="white" stroke="none" points="-4,4 -4,-274.5 205.52,-274.5 205.52,4 -4,4"/>
<!-- n -->
<g id="node1" class="node">
<title>n</title>
<ellipse fill="lightblue" stroke="black" cx="102" cy="-252.5" rx="51.35" ry="18"/>
<text xml:space="preserve" text-anchor="middle" x="102" y="-247.45" font-family="Times New Roman,serif" font-size="14.00">n (entrada)</text>
</g>
<!-- op_ge -->
<g id="node3" class="node">
<title>op_ge</title>
<polygon fill="lightblue" stroke="black" points="54,-182 0,-182 0,-146 54,-146 54,-182"/>
<text xml:space="preserve" text-anchor="middle" x="27" y="-158.95" font-family="Times New Roman,serif" font-size="14.00">&gt;=</text>
</g>
<!-- n&#45;&gt;op_ge -->
<g id="edge1" class="edge">
<title>n&#45;&gt;op_ge</title>
<path fill="none" stroke="black" d="M87.54,-234.82C76.68,-222.3 61.62,-204.93 49.23,-190.64"/>
<polygon fill="black" stroke="black" points="52.12,-188.63 42.92,-183.36 46.83,-193.21 52.12,-188.63"/>
</g>
<!-- op_neg -->
<g id="node4" class="node">
<title>op_neg</title>
<polygon fill="lightblue" stroke="black" points="132.12,-182 71.88,-182 71.88,-146 132.12,-146 132.12,-182"/>
<text xml:space="preserve" text-anchor="middle" x="102" y="-158.95" font-family="Times New Roman,serif" font-size="14.00">negacao</text>
</g>
<!-- n&#45;&gt;op_neg -->
<g id="edge3" class="edge">
<title>n&#45;&gt;op_neg</title>
<path fill="none" stroke="black" d="M102,-234.41C102,-222.76 102,-207.05 102,-193.52"/>
<polygon fill="black" stroke="black" points="105.5,-193.86 102,-183.86 98.5,-193.86 105.5,-193.86"/>
<text xml:space="preserve" text-anchor="middle" x="124.88" y="-203.2" font-family="Times New Roman,serif" font-size="14.00">via false</text>
</g>
<!-- op_assign -->
<g id="node5" class="node">
<title>op_assign</title>
<polygon fill="lightblue" stroke="black" points="170,-109 100,-109 100,-73 170,-73 170,-109"/>
<text xml:space="preserve" text-anchor="middle" x="135" y="-85.95" font-family="Times New Roman,serif" font-size="14.00">atribuicao</text>
</g>
<!-- n&#45;&gt;op_assign -->
<g id="edge2" class="edge">
<title>n&#45;&gt;op_assign</title>
<path fill="none" stroke="black" d="M131.73,-237.46C139.77,-232.1 147.5,-225.15 152,-216.5 167.87,-186.02 157.78,-145.92 147.66,-119.58"/>
<polygon fill="black" stroke="black" points="151.01,-118.52 143.97,-110.59 144.53,-121.17 151.01,-118.52"/>
<text xml:space="preserve" text-anchor="middle" x="180.89" y="-158.95" font-family="Times New Roman,serif" font-size="14.00">via true</text>
</g>
<!-- m -->
<g id="node2" class="node">
<title>m</title>
<ellipse fill="lightblue" stroke="black" cx="135" cy="-18" rx="46.23" ry="18"/>
<text xml:space="preserve" text-anchor="middle" x="135" y="-12.95" font-family="Times New Roman,serif" font-size="14.00">m (saida)</text>
</g>
<!-- op_neg&#45;&gt;op_assign -->
<g id="edge4" class="edge">
<title>op_neg&#45;&gt;op_assign</title>
<path fill="none" stroke="black" d="M109.99,-145.81C113.68,-137.88 118.15,-128.26 122.28,-119.36"/>
<polygon fill="black" stroke="black" points="125.41,-120.94 126.45,-110.4 119.06,-117.99 125.41,-120.94"/>
</g>
<!-- op_assign&#45;&gt;m -->
<g id="edge5" class="edge">
<title>op_assign&#45;&gt;m</title>
<path fill="none" stroke="black" d="M135,-72.81C135,-65.23 135,-56.1 135,-47.54"/>
<polygon fill="black" stroke="black" points="138.5,-47.54 135,-37.54 131.5,-47.54 138.5,-47.54"/>
</g>
</g>
</svg>
