<?xml version="1.0" encoding="UTF-8" standalone="no"?>
<!DOCTYPE svg PUBLIC "-//W3C//DTD SVG 1.1//EN"
 "http://www.w3.org/Graphics/SVG/1.1/DTD/svg11.dtd">
<!-- Generated by graphviz version 13.1.2 (20250808.2320)
 -->
<!-- Title: CFG_foo Pages: 1 -->
<svg width="383pt" height="960pt"
 viewBox="0.00 0.00 383.00 960.00" xmlns="http://www.w3.org/2000/svg" xmlns:xlink="http://www.w3.org/1999/xlink">
<g id="graph0" class="graph" transform="scale(1 1) rotate(0) translate(4 955.5)">
<title>CFG_foo</title>
<polygon fill="white" stroke="none" points="-4,4 -4,-955.5 378.5,-955.5 378.5,4 -4,4"/>
<!-- entry -->
<g id="node1" class="node">
<title>entry</title>
<ellipse fill="none" stroke="black" cx="289" cy="-933.5" rx="31.39" ry="18"/>
<text xml:space="preserve" text-anchor="middle" x="289" y="-928.45" font-family="Times New Roman,serif" font-size="14.00">Entry</text>
</g>
<!-- BB0 -->
<g id="node3" class="node">
<title>BB0</title>
<polygon fill="none" stroke="black" points="316,-878.5 262,-878.5 262,-842.5 316,-842.5 316,-878.5"/>
<text xml:space="preserve" text-anchor="middle" x="289" y="-855.45" font-family="Times New Roman,serif" font-size="14.00">i = 0</text>
</g>
<!-- entry&#45;&gt;BB0 -->
<g id="edge1" class="edge">
<title>entry&#45;&gt;BB0</title>
<path fill="none" stroke="black" d="M289,-915.31C289,-907.73 289,-898.6 289,-890.04"/>
<polygon fill="black" stroke="black" points="292.5,-890.04 289,-880.04 285.5,-890.04 292.5,-890.04"/>
</g>
<!-- exit -->
<g id="node2" class="node">
<title>exit</title>
<ellipse fill="none" stroke="black" cx="267" cy="-18" rx="27" ry="18"/>
<text xml:space="preserve" text-anchor="middle" x="267" y="-12.95" font-family="Times New Roman,serif" font-size="14.00">Exit</text>
</g>
<!-- BB1 -->
<g id="node4" class="node">
<title>BB1</title>
<polygon fill="none" stroke="black" points="320.62,-805.5 257.38,-805.5 257.38,-769.5 320.62,-769.5 320.62,-805.5"/>
<text xml:space="preserve" text-anchor="middle" x="289" y="-782.45" font-family="Times New Roman,serif" font-size="14.00">if (i &lt; 5)</text>
</g>
<!-- BB0&#45;&gt;BB1 -->
<g id="edge2" class="edge">
<title>BB0&#45;&gt;BB1</title>
<path fill="none" stroke="black" d="M289,-842.31C289,-834.73 289,-825.6 289,-817.04"/>
<polygon fill="black" stroke="black" points="292.5,-817.04 289,-807.04 285.5,-817.04 292.5,-817.04"/>
</g>
<!-- BB2 -->
<g id="node5" class="node">
<title>BB2</title>
<polygon fill="none" stroke="black" points="254,-717 200,-717 200,-681 254,-681 254,-717"/>
<text xml:space="preserve" text-anchor="middle" x="227" y="-693.95" font-family="Times New Roman,serif" font-size="14.00">j = 0</text>
</g>
<!-- BB1&#45;&gt;BB2 -->
<g id="edge3" class="edge">
<title>BB1&#45;&gt;BB2</title>
<path fill="none" stroke="black" d="M269.72,-769.3C264.27,-763.91 258.58,-757.73 254,-751.5 248.59,-744.15 243.64,-735.57 239.49,-727.54"/>
<polygon fill="black" stroke="black" points="242.76,-726.25 235.2,-718.82 236.47,-729.34 242.76,-726.25"/>
<text xml:space="preserve" text-anchor="middle" x="264.5" y="-738.2" font-family="Times New Roman,serif" font-size="14.00">true</text>
</g>
<!-- BB13 -->
<g id="node16" class="node">
<title>BB13</title>
<polygon fill="none" stroke="black" points="374.5,-663 307.5,-663 307.5,-627 374.5,-627 374.5,-663"/>
<text xml:space="preserve" text-anchor="middle" x="341" y="-639.95" font-family="Times New Roman,serif" font-size="14.00">return &#45;1;</text>
</g>
<!-- BB1&#45;&gt;BB13 -->
<g id="edge4" class="edge">
<title>BB1&#45;&gt;BB13</title>
<path fill="none" stroke="black" d="M296.1,-769.1C298.35,-763.5 300.81,-757.25 303,-751.5 312.96,-725.28 323.75,-695.15 331.28,-673.82"/>
<polygon fill="black" stroke="black" points="334.48,-675.27 334.49,-664.67 327.87,-672.95 334.48,-675.27"/>
<text xml:space="preserve" text-anchor="middle" x="321.89" y="-738.2" font-family="Times New Roman,serif" font-size="14.00">false</text>
</g>
<!-- BB3 -->
<g id="node6" class="node">
<title>BB3</title>
<polygon fill="none" stroke="black" points="239.62,-609 176.38,-609 176.38,-573 239.62,-573 239.62,-609"/>
<text xml:space="preserve" text-anchor="middle" x="208" y="-585.95" font-family="Times New Roman,serif" font-size="14.00">if (j &lt; 5)</text>
</g>
<!-- BB2&#45;&gt;BB3 -->
<g id="edge5" class="edge">
<title>BB2&#45;&gt;BB3</title>
<path fill="none" stroke="black" d="M223.95,-680.97C221.03,-664.69 216.57,-639.82 213.11,-620.52"/>
<polygon fill="black" stroke="black" points="216.58,-620.06 211.38,-610.83 209.69,-621.29 216.58,-620.06"/>
</g>
<!-- BB4 -->
<g id="node7" class="node">
<title>BB4</title>
<polygon fill="none" stroke="black" points="231,-520.5 177,-520.5 177,-484.5 231,-484.5 231,-520.5"/>
<text xml:space="preserve" text-anchor="middle" x="204" y="-497.45" font-family="Times New Roman,serif" font-size="14.00">k = 0</text>
</g>
<!-- BB3&#45;&gt;BB4 -->
<g id="edge6" class="edge">
<title>BB3&#45;&gt;BB4</title>
<path fill="none" stroke="black" d="M206.28,-572.57C205.78,-566.96 205.3,-560.72 205,-555 204.61,-547.59 204.37,-539.57 204.22,-532.11"/>
<polygon fill="black" stroke="black" points="207.72,-532.14 204.07,-522.19 200.72,-532.24 207.72,-532.14"/>
<text xml:space="preserve" text-anchor="middle" x="215.5" y="-541.7" font-family="Times New Roman,serif" font-size="14.00">true</text>
</g>
<!-- BB12 -->
<g id="node15" class="node">
<title>BB12</title>
<polygon fill="none" stroke="black" points="309,-520.5 255,-520.5 255,-484.5 309,-484.5 309,-520.5"/>
<text xml:space="preserve" text-anchor="middle" x="282" y="-497.45" font-family="Times New Roman,serif" font-size="14.00">i++</text>
</g>
<!-- BB3&#45;&gt;BB12 -->
<g id="edge7" class="edge">
<title>BB3&#45;&gt;BB12</title>
<path fill="none" stroke="black" d="M221.54,-572.59C229.51,-562.49 239.88,-549.61 249.5,-538.5 252.21,-535.37 255.1,-532.13 257.99,-528.94"/>
<polygon fill="black" stroke="black" points="260.33,-531.57 264.53,-521.84 255.18,-526.83 260.33,-531.57"/>
<text xml:space="preserve" text-anchor="middle" x="262.25" y="-541.7" font-family="Times New Roman,serif" font-size="14.00">false</text>
</g>
<!-- BB5 -->
<g id="node8" class="node">
<title>BB5</title>
<polygon fill="none" stroke="black" points="237.12,-447.5 170.88,-447.5 170.88,-411.5 237.12,-411.5 237.12,-447.5"/>
<text xml:space="preserve" text-anchor="middle" x="204" y="-424.45" font-family="Times New Roman,serif" font-size="14.00">if (k &lt; 5)</text>
</g>
<!-- BB4&#45;&gt;BB5 -->
<g id="edge8" class="edge">
<title>BB4&#45;&gt;BB5</title>
<path fill="none" stroke="black" d="M204,-484.31C204,-476.73 204,-467.6 204,-459.04"/>
<polygon fill="black" stroke="black" points="207.5,-459.04 204,-449.04 200.5,-459.04 207.5,-459.04"/>
</g>
<!-- BB6 -->
<g id="node9" class="node">
<title>BB6</title>
<polygon fill="none" stroke="black" points="221,-359 167,-359 167,-323 221,-323 221,-359"/>
<text xml:space="preserve" text-anchor="middle" x="194" y="-335.95" font-family="Times New Roman,serif" font-size="14.00">l = 0</text>
</g>
<!-- BB5&#45;&gt;BB6 -->
<g id="edge9" class="edge">
<title>BB5&#45;&gt;BB6</title>
<path fill="none" stroke="black" d="M202.02,-411.41C200.68,-399.76 198.86,-384.05 197.3,-370.52"/>
<polygon fill="black" stroke="black" points="200.8,-370.39 196.18,-360.85 193.85,-371.19 200.8,-370.39"/>
<text xml:space="preserve" text-anchor="middle" x="210.4" y="-380.2" font-family="Times New Roman,serif" font-size="14.00">true</text>
</g>
<!-- BB11 -->
<g id="node14" class="node">
<title>BB11</title>
<polygon fill="none" stroke="black" points="149,-359 95,-359 95,-323 149,-323 149,-359"/>
<text xml:space="preserve" text-anchor="middle" x="122" y="-335.95" font-family="Times New Roman,serif" font-size="14.00">j++</text>
</g>
<!-- BB5&#45;&gt;BB11 -->
<g id="edge10" class="edge">
<title>BB5&#45;&gt;BB11</title>
<path fill="none" stroke="black" d="M186.1,-411.25C180.41,-405.66 174.13,-399.38 168.5,-393.5 160.67,-385.32 152.32,-376.2 144.89,-367.94"/>
<polygon fill="black" stroke="black" points="147.54,-365.65 138.26,-360.52 142.32,-370.31 147.54,-365.65"/>
<text xml:space="preserve" text-anchor="middle" x="181.25" y="-380.2" font-family="Times New Roman,serif" font-size="14.00">false</text>
</g>
<!-- BB7 -->
<g id="node10" class="node">
<title>BB7</title>
<polygon fill="none" stroke="black" points="178.62,-286 115.38,-286 115.38,-250 178.62,-250 178.62,-286"/>
<text xml:space="preserve" text-anchor="middle" x="147" y="-262.95" font-family="Times New Roman,serif" font-size="14.00">if (l &lt; 5)</text>
</g>
<!-- BB6&#45;&gt;BB7 -->
<g id="edge11" class="edge">
<title>BB6&#45;&gt;BB7</title>
<path fill="none" stroke="black" d="M182.62,-322.81C177.2,-314.62 170.58,-304.62 164.53,-295.48"/>
<polygon fill="black" stroke="black" points="167.55,-293.7 159.11,-287.29 161.71,-297.56 167.55,-293.7"/>
</g>
<!-- BB8 -->
<g id="node11" class="node">
<title>BB8</title>
<polygon fill="none" stroke="black" points="204.25,-197.5 57.75,-197.5 57.75,-161.5 204.25,-161.5 204.25,-197.5"/>
<text xml:space="preserve" text-anchor="middle" x="131" y="-174.45" font-family="Times New Roman,serif" font-size="14.00">if (keys[i][j][k][l] == x)</text>
</g>
<!-- BB7&#45;&gt;BB8 -->
<g id="edge12" class="edge">
<title>BB7&#45;&gt;BB8</title>
<path fill="none" stroke="black" d="M143.84,-249.91C141.68,-238.26 138.78,-222.55 136.28,-209.02"/>
<polygon fill="black" stroke="black" points="139.75,-208.54 134.48,-199.34 132.86,-209.81 139.75,-208.54"/>
<text xml:space="preserve" text-anchor="middle" x="150.93" y="-218.7" font-family="Times New Roman,serif" font-size="14.00">true</text>
</g>
<!-- BB10 -->
<g id="node13" class="node">
<title>BB10</title>
<polygon fill="none" stroke="black" points="276,-197.5 222,-197.5 222,-161.5 276,-161.5 276,-197.5"/>
<text xml:space="preserve" text-anchor="middle" x="249" y="-174.45" font-family="Times New Roman,serif" font-size="14.00">k++</text>
</g>
<!-- BB7&#45;&gt;BB10 -->
<g id="edge13" class="edge">
<title>BB7&#45;&gt;BB10</title>
<path fill="none" stroke="black" d="M167.15,-249.91C182.28,-237.08 203.21,-219.33 220.12,-204.99"/>
<polygon fill="black" stroke="black" points="222.02,-207.97 227.39,-198.83 217.5,-202.63 222.02,-207.97"/>
<text xml:space="preserve" text-anchor="middle" x="219.89" y="-218.7" font-family="Times New Roman,serif" font-size="14.00">false</text>
</g>
<!-- BB9 -->
<g id="node12" class="node">
<title>BB9</title>
<polygon fill="none" stroke="black" points="54,-109 0,-109 0,-73 54,-73 54,-109"/>
<text xml:space="preserve" text-anchor="middle" x="27" y="-85.95" font-family="Times New Roman,serif" font-size="14.00">l++</text>
</g>
<!-- BB8&#45;&gt;BB9 -->
<g id="edge15" class="edge">
<title>BB8&#45;&gt;BB9</title>
<path fill="none" stroke="black" d="M110.45,-161.41C95.03,-148.58 73.69,-130.83 56.45,-116.49"/>
<polygon fill="black" stroke="black" points="58.95,-114.02 49.02,-110.32 54.47,-119.4 58.95,-114.02"/>
<text xml:space="preserve" text-anchor="middle" x="101.07" y="-130.2" font-family="Times New Roman,serif" font-size="14.00">false</text>
</g>
<!-- BB14 -->
<g id="node17" class="node">
<title>BB14</title>
<polygon fill="none" stroke="black" points="314.25,-109 71.75,-109 71.75,-73 314.25,-73 314.25,-109"/>
<text xml:space="preserve" text-anchor="middle" x="193" y="-85.95" font-family="Times New Roman,serif" font-size="14.00">return answer[i][j][k][l] + keys[i][j][k][l];</text>
</g>
<!-- BB8&#45;&gt;BB14 -->
<g id="edge14" class="edge">
<title>BB8&#45;&gt;BB14</title>
<path fill="none" stroke="black" d="M143.25,-161.41C152.02,-149.17 164.01,-132.45 174.02,-118.49"/>
<polygon fill="black" stroke="black" points="176.7,-120.75 179.68,-110.58 171.01,-116.67 176.7,-120.75"/>
<text xml:space="preserve" text-anchor="middle" x="178.05" y="-130.2" font-family="Times New Roman,serif" font-size="14.00">true</text>
</g>
<!-- BB9&#45;&gt;BB7 -->
<g id="edge16" class="edge">
<title>BB9&#45;&gt;BB7</title>
<path fill="none" stroke="black" d="M26.84,-109.16C27.41,-131.31 31.17,-170.26 49,-197.5 62.78,-218.55 85.33,-235.19 105.33,-246.91"/>
<polygon fill="black" stroke="black" points="103.44,-249.86 113.87,-251.68 106.85,-243.75 103.44,-249.86"/>
</g>
<!-- BB10&#45;&gt;BB5 -->
<g id="edge17" class="edge">
<title>BB10&#45;&gt;BB5</title>
<path fill="none" stroke="black" d="M249.68,-197.94C250.56,-235.08 249.66,-324.26 225,-393.5 224.1,-396.03 223,-398.59 221.79,-401.1"/>
<polygon fill="black" stroke="black" points="218.81,-399.24 217.07,-409.69 224.95,-402.61 218.81,-399.24"/>
</g>
<!-- BB11&#45;&gt;BB3 -->
<g id="edge18" class="edge">
<title>BB11&#45;&gt;BB3</title>
<path fill="none" stroke="black" d="M124.88,-359.48C130.6,-392.02 144.86,-463.75 168,-520.5 174.01,-535.25 182.64,-550.7 190.35,-563.27"/>
<polygon fill="black" stroke="black" points="187.17,-564.79 195.45,-571.39 193.09,-561.06 187.17,-564.79"/>
</g>
<!-- BB12&#45;&gt;BB1 -->
<g id="edge19" class="edge">
<title>BB12&#45;&gt;BB1</title>
<path fill="none" stroke="black" d="M282.43,-520.91C283.6,-568.24 286.85,-699.59 288.29,-757.94"/>
<polygon fill="black" stroke="black" points="284.79,-757.8 288.54,-767.71 291.79,-757.63 284.79,-757.8"/>
</g>
<!-- BB13&#45;&gt;exit -->
<g id="edge20" class="edge">
<title>BB13&#45;&gt;exit</title>
<path fill="none" stroke="black" d="M341.29,-626.61C341.58,-607.34 342,-575.32 342,-547.75 342,-547.75 342,-547.75 342,-90 342,-64.84 319.47,-45.94 299.11,-33.98"/>
<polygon fill="black" stroke="black" points="300.88,-30.96 290.43,-29.25 297.53,-37.11 300.88,-30.96"/>
</g>
<!-- BB14&#45;&gt;exit -->
<g id="edge21" class="edge">
<title>BB14&#45;&gt;exit</title>
<path fill="none" stroke="black" d="M210.91,-72.81C220.9,-63.23 233.45,-51.19 244.14,-40.93"/>
<polygon fill="black" stroke="black" points="246.35,-43.66 251.14,-34.21 241.5,-38.61 246.35,-43.66"/>
</g>
</g>
</svg>
