<?xml version="1.0" encoding="UTF-8" standalone="no"?>
<!DOCTYPE svg PUBLIC "-//W3C//DTD SVG 1.1//EN"
 "http://www.w3.org/Graphics/SVG/1.1/DTD/svg11.dtd">
<!-- Generated by graphviz version 13.1.2 (20250808.2320)
 -->
<!-- Title: DFG_foo Pages: 1 -->
<svg width="895pt" height="279pt"
 viewBox="0.00 0.00 895.00 279.00" xmlns="http://www.w3.org/2000/svg" xmlns:xlink="http://www.w3.org/1999/xlink">
<g id="graph0" class="graph" transform="scale(1 1) rotate(0) translate(4 274.5)">
<title>DFG_foo</title>
<polygon fill="white" stroke="none" points="-4,4 -4,-274.5 891,-274.5 891,4 -4,4"/>
<!-- x -->
<g id="node1" class="node">
<title>x</title>
<polygon fill="none" stroke="black" points="204.12,-197.5 113.88,-197.5 113.88,-161.5 204.12,-161.5 204.12,-197.5"/>
<text xml:space="preserve" text-anchor="middle" x="159" y="-174.45" font-family="Times New Roman,serif" font-size="14.00">x (parameter)</text>
</g>
<!-- cond -->
<g id="node14" class="node">
<title>cond</title>
<polygon fill="none" stroke="black" points="261.75,-124.5 136.25,-124.5 136.25,-88.5 261.75,-88.5 261.75,-124.5"/>
<text xml:space="preserve" text-anchor="middle" x="199" y="-101.45" font-family="Times New Roman,serif" font-size="14.00">keys[i][j][k][l] == x</text>
</g>
<!-- x&#45;&gt;cond -->
<g id="edge12" class="edge">
<title>x&#45;&gt;cond</title>
<path fill="none" stroke="black" d="M168.68,-161.31C173.25,-153.2 178.81,-143.34 183.91,-134.28"/>
<polygon fill="black" stroke="black" points="186.8,-136.28 188.66,-125.85 180.71,-132.84 186.8,-136.28"/>
</g>
<!-- keys -->
<g id="node2" class="node">
<title>keys</title>
<polygon fill="none" stroke="black" points="552.62,-270.5 465.38,-270.5 465.38,-234.5 552.62,-234.5 552.62,-270.5"/>
<text xml:space="preserve" text-anchor="middle" x="509" y="-247.45" font-family="Times New Roman,serif" font-size="14.00">keys (global)</text>
</g>
<!-- answer -->
<g id="node3" class="node">
<title>answer</title>
<polygon fill="none" stroke="black" points="671.38,-270.5 570.62,-270.5 570.62,-234.5 671.38,-234.5 671.38,-270.5"/>
<text xml:space="preserve" text-anchor="middle" x="621" y="-247.45" font-family="Times New Roman,serif" font-size="14.00">answer (global)</text>
</g>
<!-- i0 -->
<g id="node4" class="node">
<title>i0</title>
<polygon fill="none" stroke="black" points="231,-270.5 177,-270.5 177,-234.5 231,-234.5 231,-270.5"/>
<text xml:space="preserve" text-anchor="middle" x="204" y="-247.45" font-family="Times New Roman,serif" font-size="14.00">i = 0</text>
</g>
<!-- i_inc -->
<g id="node8" class="node">
<title>i_inc</title>
<polygon fill="none" stroke="black" points="54,-197.5 0,-197.5 0,-161.5 54,-161.5 54,-197.5"/>
<text xml:space="preserve" text-anchor="middle" x="27" y="-174.45" font-family="Times New Roman,serif" font-size="14.00">i++</text>
</g>
<!-- i0&#45;&gt;i_inc -->
<g id="edge1" class="edge">
<title>i0&#45;&gt;i_inc</title>
<path fill="none" stroke="black" d="M176.73,-240.56C146.72,-228.52 98.28,-209.09 64.65,-195.6"/>
<polygon fill="black" stroke="black" points="66.29,-192.49 55.7,-192.01 63.68,-198.99 66.29,-192.49"/>
</g>
<!-- access_keys -->
<g id="node12" class="node">
<title>access_keys</title>
<polygon fill="none" stroke="black" points="317.38,-197.5 222.62,-197.5 222.62,-161.5 317.38,-161.5 317.38,-197.5"/>
<text xml:space="preserve" text-anchor="middle" x="270" y="-174.45" font-family="Times New Roman,serif" font-size="14.00">keys[i][j][k][l]</text>
</g>
<!-- i0&#45;&gt;access_keys -->
<g id="edge3" class="edge">
<title>i0&#45;&gt;access_keys</title>
<path fill="none" stroke="black" d="M219.98,-234.31C227.92,-225.77 237.68,-215.27 246.46,-205.82"/>
<polygon fill="black" stroke="black" points="248.89,-208.34 253.14,-198.64 243.77,-203.58 248.89,-208.34"/>
</g>
<!-- access_answer -->
<g id="node13" class="node">
<title>access_answer</title>
<polygon fill="none" stroke="black" points="444.12,-197.5 335.88,-197.5 335.88,-161.5 444.12,-161.5 444.12,-197.5"/>
<text xml:space="preserve" text-anchor="middle" x="390" y="-174.45" font-family="Times New Roman,serif" font-size="14.00">answer[i][j][k][l]</text>
</g>
<!-- i0&#45;&gt;access_answer -->
<g id="edge4" class="edge">
<title>i0&#45;&gt;access_answer</title>
<path fill="none" stroke="black" d="M231.4,-238.23C234.28,-236.93 237.19,-235.67 240,-234.5 268.2,-222.8 299.94,-211.16 326.95,-201.69"/>
<polygon fill="black" stroke="black" points="328.09,-205 336.38,-198.41 325.79,-198.39 328.09,-205"/>
</g>
<!-- j0 -->
<g id="node5" class="node">
<title>j0</title>
<polygon fill="none" stroke="black" points="303,-270.5 249,-270.5 249,-234.5 303,-234.5 303,-270.5"/>
<text xml:space="preserve" text-anchor="middle" x="276" y="-247.45" font-family="Times New Roman,serif" font-size="14.00">j = 0</text>
</g>
<!-- j0&#45;&gt;access_keys -->
<g id="edge5" class="edge">
<title>j0&#45;&gt;access_keys</title>
<path fill="none" stroke="black" d="M274.55,-234.31C273.9,-226.64 273.12,-217.39 272.39,-208.74"/>
<polygon fill="black" stroke="black" points="275.9,-208.71 271.57,-199.04 268.92,-209.3 275.9,-208.71"/>
</g>
<!-- j0&#45;&gt;access_answer -->
<g id="edge6" class="edge">
<title>j0&#45;&gt;access_answer</title>
<path fill="none" stroke="black" d="M303.31,-234.49C318.03,-225.32 336.43,-213.86 352.49,-203.86"/>
<polygon fill="black" stroke="black" points="354.2,-206.92 360.84,-198.66 350.5,-200.98 354.2,-206.92"/>
</g>
<!-- k0 -->
<g id="node6" class="node">
<title>k0</title>
<polygon fill="none" stroke="black" points="447,-270.5 393,-270.5 393,-234.5 447,-234.5 447,-270.5"/>
<text xml:space="preserve" text-anchor="middle" x="420" y="-247.45" font-family="Times New Roman,serif" font-size="14.00">k = 0</text>
</g>
<!-- k0&#45;&gt;access_keys -->
<g id="edge7" class="edge">
<title>k0&#45;&gt;access_keys</title>
<path fill="none" stroke="black" d="M392.84,-238.64C371.78,-228.68 342.1,-214.63 317.18,-202.83"/>
<polygon fill="black" stroke="black" points="318.74,-199.7 308.21,-198.58 315.75,-206.03 318.74,-199.7"/>
</g>
<!-- k0&#45;&gt;access_answer -->
<g id="edge8" class="edge">
<title>k0&#45;&gt;access_answer</title>
<path fill="none" stroke="black" d="M413.51,-234.21C411.21,-228.25 408.56,-221.55 406,-215.5 405.01,-213.15 403.95,-210.72 402.88,-208.29"/>
<polygon fill="black" stroke="black" points="406.1,-206.92 398.8,-199.24 399.72,-209.79 406.1,-206.92"/>
</g>
<!-- l0 -->
<g id="node7" class="node">
<title>l0</title>
<polygon fill="none" stroke="black" points="375,-270.5 321,-270.5 321,-234.5 375,-234.5 375,-270.5"/>
<text xml:space="preserve" text-anchor="middle" x="348" y="-247.45" font-family="Times New Roman,serif" font-size="14.00">l = 0</text>
</g>
<!-- l0&#45;&gt;access_keys -->
<g id="edge9" class="edge">
<title>l0&#45;&gt;access_keys</title>
<path fill="none" stroke="black" d="M329.12,-234.31C319.61,-225.66 307.9,-215 297.42,-205.46"/>
<polygon fill="black" stroke="black" points="299.85,-202.94 290.1,-198.79 295.14,-208.11 299.85,-202.94"/>
</g>
<!-- l0&#45;&gt;access_answer -->
<g id="edge10" class="edge">
<title>l0&#45;&gt;access_answer</title>
<path fill="none" stroke="black" d="M358.17,-234.31C362.96,-226.2 368.8,-216.34 374.16,-207.28"/>
<polygon fill="black" stroke="black" points="377.08,-209.22 379.16,-198.83 371.05,-205.66 377.08,-209.22"/>
</g>
<!-- i_inc&#45;&gt;i_inc -->
<g id="edge2" class="edge">
<title>i_inc&#45;&gt;i_inc</title>
<path fill="none" stroke="black" d="M54.24,-186.34C64.02,-186.48 72,-184.21 72,-179.5 72,-176.85 69.48,-174.97 65.53,-173.86"/>
<polygon fill="black" stroke="black" points="66.06,-170.4 55.75,-172.82 65.32,-177.36 66.06,-170.4"/>
<text xml:space="preserve" text-anchor="middle" x="84" y="-174.45" font-family="Times New Roman,serif" font-size="14.00">loop</text>
</g>
<!-- j_inc -->
<g id="node9" class="node">
<title>j_inc</title>
<polygon fill="none" stroke="black" points="743,-270.5 689,-270.5 689,-234.5 743,-234.5 743,-270.5"/>
<text xml:space="preserve" text-anchor="middle" x="716" y="-247.45" font-family="Times New Roman,serif" font-size="14.00">j++</text>
</g>
<!-- k_inc -->
<g id="node10" class="node">
<title>k_inc</title>
<polygon fill="none" stroke="black" points="815,-270.5 761,-270.5 761,-234.5 815,-234.5 815,-270.5"/>
<text xml:space="preserve" text-anchor="middle" x="788" y="-247.45" font-family="Times New Roman,serif" font-size="14.00">k++</text>
</g>
<!-- l_inc -->
<g id="node11" class="node">
<title>l_inc</title>
<polygon fill="none" stroke="black" points="887,-270.5 833,-270.5 833,-234.5 887,-234.5 887,-270.5"/>
<text xml:space="preserve" text-anchor="middle" x="860" y="-247.45" font-family="Times New Roman,serif" font-size="14.00">l++</text>
</g>
<!-- access_keys&#45;&gt;cond -->
<g id="edge11" class="edge">
<title>access_keys&#45;&gt;cond</title>
<path fill="none" stroke="black" d="M252.81,-161.31C244.18,-152.68 233.56,-142.06 224.03,-132.53"/>
<polygon fill="black" stroke="black" points="226.65,-130.2 217.1,-125.6 221.7,-135.15 226.65,-130.2"/>
</g>
<!-- return_val -->
<g id="node15" class="node">
<title>return_val</title>
<polygon fill="none" stroke="black" points="391.38,-36 188.62,-36 188.62,0 391.38,0 391.38,-36"/>
<text xml:space="preserve" text-anchor="middle" x="290" y="-12.95" font-family="Times New Roman,serif" font-size="14.00">answer[i][j][k][l] + keys[i][j][k][l]</text>
</g>
<!-- access_keys&#45;&gt;return_val -->
<g id="edge14" class="edge">
<title>access_keys&#45;&gt;return_val</title>
<path fill="none" stroke="black" d="M272.18,-161.13C275.6,-133.8 282.29,-80.5 286.43,-47.5"/>
<polygon fill="black" stroke="black" points="289.86,-48.21 287.64,-37.85 282.92,-47.34 289.86,-48.21"/>
</g>
<!-- access_answer&#45;&gt;return_val -->
<g id="edge15" class="edge">
<title>access_answer&#45;&gt;return_val</title>
<path fill="none" stroke="black" d="M379.11,-161.13C361.68,-133.32 327.38,-78.62 306.79,-45.79"/>
<polygon fill="black" stroke="black" points="309.96,-44.25 301.68,-37.63 304.03,-47.97 309.96,-44.25"/>
</g>
<!-- cond&#45;&gt;return_val -->
<g id="edge13" class="edge">
<title>cond&#45;&gt;return_val</title>
<path fill="none" stroke="black" d="M194.89,-88.24C193.35,-77.46 193.37,-63.81 200.25,-54 203.19,-49.8 206.72,-46.11 210.64,-42.86"/>
<polygon fill="black" stroke="black" points="212.39,-45.91 218.56,-37.3 208.36,-40.18 212.39,-45.91"/>
<text xml:space="preserve" text-anchor="middle" x="238.12" y="-57.2" font-family="Times New Roman,serif" font-size="14.00">condition true</text>
</g>
</g>
</svg>
