<?xml version="1.0" encoding="UTF-8" standalone="no"?>
<!DOCTYPE svg PUBLIC "-//W3C//DTD SVG 1.1//EN"
 "http://www.w3.org/Graphics/SVG/1.1/DTD/svg11.dtd">
<!-- Generated by graphviz version 13.1.2 (20250808.2320)
 -->
<!-- Title: compress_cdfg Pages: 1 -->
<svg width="827pt" height="860pt"
 viewBox="0.00 0.00 827.00 860.00" xmlns="http://www.w3.org/2000/svg" xmlns:xlink="http://www.w3.org/1999/xlink">
<g id="graph0" class="graph" transform="scale(1 1) rotate(0) translate(4 855.5)">
<title>compress_cdfg</title>
<polygon fill="white" stroke="none" points="-4,4 -4,-855.5 822.75,-855.5 822.75,4 -4,4"/>
<!-- B1 -->
<g id="node1" class="node">
<title>B1</title>
<polygon fill="none" stroke="black" points="818.75,-851.5 145.75,-851.5 145.75,-794 818.75,-794 818.75,-851.5"/>
<text xml:space="preserve" text-anchor="middle" x="482.25" y="-834.2" font-family="Times New Roman,serif" font-size="14.00">B1: Inicializacao</text>
<text xml:space="preserve" text-anchor="middle" x="482.25" y="-817.7" font-family="Times New Roman,serif" font-size="14.00">def: offset, bytes_out, out_count, clear_flg, ratio, in_count, checkpoint, n_bits, maxcode, free_ent, ent, hshift, hsize_reg</text>
<text xml:space="preserve" text-anchor="middle" x="482.25" y="-801.2" font-family="Times New Roman,serif" font-size="14.00">use: hsize, block_compress, FIRST, getbyte, cl_hash</text>
</g>
<!-- B2 -->
<g id="node2" class="node">
<title>B2</title>
<polygon fill="none" stroke="black" points="549.88,-757 414.62,-757 414.62,-716 549.88,-716 549.88,-757"/>
<text xml:space="preserve" text-anchor="middle" x="482.25" y="-739.7" font-family="Times New Roman,serif" font-size="14.00">B2: while (InCnt &gt; 0)</text>
<text xml:space="preserve" text-anchor="middle" x="482.25" y="-723.2" font-family="Times New Roman,serif" font-size="14.00">use: InCnt</text>
</g>
<!-- B1&#45;&gt;B2 -->
<g id="edge1" class="edge">
<title>B1&#45;&gt;B2</title>
<path fill="none" stroke="black" d="M482.25,-793.7C482.25,-785.72 482.25,-776.98 482.25,-768.83"/>
<polygon fill="black" stroke="black" points="485.75,-768.96 482.25,-758.96 478.75,-768.96 485.75,-768.96"/>
</g>
<!-- B3 -->
<g id="node3" class="node">
<title>B3</title>
<polygon fill="none" stroke="black" points="176.5,-663.5 0,-663.5 0,-556.5 176.5,-556.5 176.5,-663.5"/>
<text xml:space="preserve" text-anchor="middle" x="88.25" y="-646.2" font-family="Times New Roman,serif" font-size="14.00">B3: c = getbyte()</text>
<text xml:space="preserve" text-anchor="middle" x="88.25" y="-629.7" font-family="Times New Roman,serif" font-size="14.00">in_count++</text>
<text xml:space="preserve" text-anchor="middle" x="88.25" y="-613.2" font-family="Times New Roman,serif" font-size="14.00">fcode = (c &lt;&lt; maxbits) + ent</text>
<text xml:space="preserve" text-anchor="middle" x="88.25" y="-596.7" font-family="Times New Roman,serif" font-size="14.00">i = (c &lt;&lt; hshift) ^ ent</text>
<text xml:space="preserve" text-anchor="middle" x="88.25" y="-580.2" font-family="Times New Roman,serif" font-size="14.00">def: c, in_count, fcode, i</text>
<text xml:space="preserve" text-anchor="middle" x="88.25" y="-563.7" font-family="Times New Roman,serif" font-size="14.00">use: maxbits, ent, hshift</text>
</g>
<!-- B2&#45;&gt;B3 -->
<g id="edge2" class="edge">
<title>B2&#45;&gt;B3</title>
<path fill="none" stroke="black" d="M414.4,-724.22C355.71,-713.32 268.87,-694.4 187.32,-664.08"/>
<polygon fill="black" stroke="black" points="188.9,-660.93 178.31,-660.66 186.42,-667.48 188.9,-660.93"/>
<text xml:space="preserve" text-anchor="middle" x="315.82" y="-684.7" font-family="Times New Roman,serif" font-size="14.00">InCnt &gt; 0</text>
</g>
<!-- B8 -->
<g id="node8" class="node">
<title>B8</title>
<polygon fill="none" stroke="black" points="446,-638.75 194.5,-638.75 194.5,-581.25 446,-581.25 446,-638.75"/>
<text xml:space="preserve" text-anchor="middle" x="320.25" y="-621.45" font-family="Times New Roman,serif" font-size="14.00">B8: if (bytes_out &gt; in_count): exit_stat = 2</text>
<text xml:space="preserve" text-anchor="middle" x="320.25" y="-604.95" font-family="Times New Roman,serif" font-size="14.00">return</text>
<text xml:space="preserve" text-anchor="middle" x="320.25" y="-588.45" font-family="Times New Roman,serif" font-size="14.00">use: bytes_out, in_count</text>
</g>
<!-- B2&#45;&gt;B8 -->
<g id="edge3" class="edge">
<title>B2&#45;&gt;B8</title>
<path fill="none" stroke="black" d="M436.14,-715.6C426.09,-710.45 415.77,-704.5 406.75,-698 386.59,-683.47 366.84,-664.11 351.32,-647.35"/>
<polygon fill="black" stroke="black" points="353.93,-645.03 344.62,-639.98 348.75,-649.73 353.93,-645.03"/>
<text xml:space="preserve" text-anchor="middle" x="437.5" y="-684.7" font-family="Times New Roman,serif" font-size="14.00">InCnt &lt;= 0</text>
</g>
<!-- B4 -->
<g id="node4" class="node">
<title>B4</title>
<polygon fill="none" stroke="black" points="194.75,-519.5 31.75,-519.5 31.75,-462 194.75,-462 194.75,-519.5"/>
<text xml:space="preserve" text-anchor="middle" x="113.25" y="-502.2" font-family="Times New Roman,serif" font-size="14.00">B4: if (htab[i] == fcode)</text>
<text xml:space="preserve" text-anchor="middle" x="113.25" y="-485.7" font-family="Times New Roman,serif" font-size="14.00">use: htab, i, fcode, codetab</text>
<text xml:space="preserve" text-anchor="middle" x="113.25" y="-469.2" font-family="Times New Roman,serif" font-size="14.00">p&#45;uso: fcode, ent</text>
</g>
<!-- B3&#45;&gt;B4 -->
<g id="edge4" class="edge">
<title>B3&#45;&gt;B4</title>
<path fill="none" stroke="black" d="M99.51,-556.21C101.32,-547.7 103.17,-539.02 104.9,-530.9"/>
<polygon fill="black" stroke="black" points="108.27,-531.87 106.94,-521.36 101.43,-530.41 108.27,-531.87"/>
</g>
<!-- B4&#45;&gt;B2 -->
<g id="edge5" class="edge">
<title>B4&#45;&gt;B2</title>
<path fill="none" stroke="black" d="M195.02,-496.55C284.56,-503.58 420.14,-520.05 455.25,-556.5 493.19,-595.88 492.03,-664.42 487.39,-704.29"/>
<polygon fill="black" stroke="black" points="483.93,-703.81 486.08,-714.18 490.86,-704.73 483.93,-703.81"/>
<text xml:space="preserve" text-anchor="middle" x="535.42" y="-613.2" font-family="Times New Roman,serif" font-size="14.00">htab[i] == fcode</text>
<text xml:space="preserve" text-anchor="middle" x="535.42" y="-596.7" font-family="Times New Roman,serif" font-size="14.00">p&#45;uso: fcode, ent</text>
</g>
<!-- B5 -->
<g id="node5" class="node">
<title>B5</title>
<polygon fill="none" stroke="black" points="245.75,-409.5 100.75,-409.5 100.75,-335.5 245.75,-335.5 245.75,-409.5"/>
<text xml:space="preserve" text-anchor="middle" x="173.25" y="-392.2" font-family="Times New Roman,serif" font-size="14.00">B5: disp = hsize_reg &#45; i</text>
<text xml:space="preserve" text-anchor="middle" x="173.25" y="-375.7" font-family="Times New Roman,serif" font-size="14.00">if i==0: disp=1</text>
<text xml:space="preserve" text-anchor="middle" x="173.25" y="-359.2" font-family="Times New Roman,serif" font-size="14.00">def: disp</text>
<text xml:space="preserve" text-anchor="middle" x="173.25" y="-342.7" font-family="Times New Roman,serif" font-size="14.00">use: hsize_reg, i</text>
</g>
<!-- B4&#45;&gt;B5 -->
<g id="edge6" class="edge">
<title>B4&#45;&gt;B5</title>
<path fill="none" stroke="black" d="M127.77,-461.61C134.25,-449.06 142.05,-433.95 149.34,-419.82"/>
<polygon fill="black" stroke="black" points="152.37,-421.58 153.85,-411.09 146.15,-418.37 152.37,-421.58"/>
<text xml:space="preserve" text-anchor="middle" x="236.55" y="-430.7" font-family="Times New Roman,serif" font-size="14.00">htab[i] != fcode &amp;&amp; htab[i] &gt;= 0</text>
</g>
<!-- B7 -->
<g id="node7" class="node">
<title>B7</title>
<polygon fill="none" stroke="black" points="426.5,-123.5 28,-123.5 28,0 426.5,0 426.5,-123.5"/>
<text xml:space="preserve" text-anchor="middle" x="227.25" y="-106.2" font-family="Times New Roman,serif" font-size="14.00">B7: nomatch:</text>
<text xml:space="preserve" text-anchor="middle" x="227.25" y="-89.7" font-family="Times New Roman,serif" font-size="14.00">out_count++</text>
<text xml:space="preserve" text-anchor="middle" x="227.25" y="-73.2" font-family="Times New Roman,serif" font-size="14.00">ent = c</text>
<text xml:space="preserve" text-anchor="middle" x="227.25" y="-56.7" font-family="Times New Roman,serif" font-size="14.00">if (free_ent &lt; maxmaxcode): codetab[i] = free_ent++; htab[i] = fcode</text>
<text xml:space="preserve" text-anchor="middle" x="227.25" y="-40.2" font-family="Times New Roman,serif" font-size="14.00">else if (in_count &gt;= checkpoint &amp;&amp; block_compress): cl_block()</text>
<text xml:space="preserve" text-anchor="middle" x="227.25" y="-23.7" font-family="Times New Roman,serif" font-size="14.00">def: out_count, ent, free_ent, codetab, htab</text>
<text xml:space="preserve" text-anchor="middle" x="227.25" y="-7.2" font-family="Times New Roman,serif" font-size="14.00">use: c, free_ent, maxmaxcode, in_count, checkpoint, block_compress</text>
</g>
<!-- B4&#45;&gt;B7 -->
<g id="edge7" class="edge">
<title>B4&#45;&gt;B7</title>
<path fill="none" stroke="black" d="M93.58,-461.87C55.88,-404.69 -18.16,-271.52 36.25,-176 46.15,-158.62 59.89,-143.63 75.49,-130.78"/>
<polygon fill="black" stroke="black" points="77.43,-133.71 83.15,-124.79 73.12,-128.19 77.43,-133.71"/>
<text xml:space="preserve" text-anchor="middle" x="54.41" y="-304.2" font-family="Times New Roman,serif" font-size="14.00">htab[i] &lt; 0</text>
</g>
<!-- B6 -->
<g id="node6" class="node">
<title>B6</title>
<polygon fill="none" stroke="black" points="409.62,-283 44.88,-283 44.88,-176 409.62,-176 409.62,-283"/>
<text xml:space="preserve" text-anchor="middle" x="227.25" y="-265.7" font-family="Times New Roman,serif" font-size="14.00">B6: i &#45;= disp</text>
<text xml:space="preserve" text-anchor="middle" x="227.25" y="-249.2" font-family="Times New Roman,serif" font-size="14.00">if i&lt;0: i += hsize_reg</text>
<text xml:space="preserve" text-anchor="middle" x="227.25" y="-232.7" font-family="Times New Roman,serif" font-size="14.00">if (htab[i] == fcode): ent = codetab[i]; continue</text>
<text xml:space="preserve" text-anchor="middle" x="227.25" y="-216.2" font-family="Times New Roman,serif" font-size="14.00">if (htab[i] &gt; 0 &amp;&amp; apsim_bound111++ &lt; in_count): goto probe</text>
<text xml:space="preserve" text-anchor="middle" x="227.25" y="-199.7" font-family="Times New Roman,serif" font-size="14.00">def: i, apsim_bound111</text>
<text xml:space="preserve" text-anchor="middle" x="227.25" y="-183.2" font-family="Times New Roman,serif" font-size="14.00">use: disp, hsize_reg, htab, fcode, codetab, ent, in_count</text>
</g>
<!-- B5&#45;&gt;B6 -->
<g id="edge8" class="edge">
<title>B5&#45;&gt;B6</title>
<path fill="none" stroke="black" d="M187.16,-335.19C191.96,-322.64 197.5,-308.18 202.89,-294.1"/>
<polygon fill="black" stroke="black" points="206.13,-295.44 206.43,-284.85 199.59,-292.94 206.13,-295.44"/>
</g>
<!-- B6&#45;&gt;B2 -->
<g id="edge9" class="edge">
<title>B6&#45;&gt;B2</title>
<path fill="none" stroke="black" d="M410.08,-266.42C505.36,-290.57 602.25,-326.25 602.25,-371.5 602.25,-611 602.25,-611 602.25,-611 602.25,-635.53 599.84,-643.78 585.25,-663.5 571.38,-682.24 551.14,-697.89 532.27,-709.75"/>
<polygon fill="black" stroke="black" points="530.61,-706.66 523.86,-714.82 534.23,-712.65 530.61,-706.66"/>
<text xml:space="preserve" text-anchor="middle" x="648" y="-493.95" font-family="Times New Roman,serif" font-size="14.00">htab[i] == fcode</text>
<text xml:space="preserve" text-anchor="middle" x="648" y="-477.45" font-family="Times New Roman,serif" font-size="14.00">p&#45;uso: fcode, ent</text>
</g>
<!-- B6&#45;&gt;B6 -->
<g id="edge10" class="edge">
<title>B6&#45;&gt;B6</title>
<path fill="none" stroke="black" d="M409.97,-239.85C421,-237.39 427.62,-233.94 427.62,-229.5 427.62,-226.79 425.17,-224.46 420.75,-222.49"/>
<polygon fill="black" stroke="black" points="422,-219.21 411.42,-219.6 419.93,-225.9 422,-219.21"/>
<text xml:space="preserve" text-anchor="middle" x="608.38" y="-224.45" font-family="Times New Roman,serif" font-size="14.00">htab[i] != fcode &amp;&amp; htab[i] &gt; 0 &amp;&amp; apsim_bound111 &lt; in_count</text>
</g>
<!-- B6&#45;&gt;B7 -->
<g id="edge11" class="edge">
<title>B6&#45;&gt;B7</title>
<path fill="none" stroke="black" d="M227.25,-175.6C227.25,-162.72 227.25,-148.73 227.25,-135.12"/>
<polygon fill="black" stroke="black" points="230.75,-135.32 227.25,-125.32 223.75,-135.32 230.75,-135.32"/>
<text xml:space="preserve" text-anchor="middle" x="349.88" y="-144.7" font-family="Times New Roman,serif" font-size="14.00">htab[i] &lt;= 0 || apsim_bound111 &gt;= in_count</text>
</g>
<!-- B7&#45;&gt;B2 -->
<g id="edge12" class="edge">
<title>B7&#45;&gt;B2</title>
<path fill="none" stroke="black" d="M426.7,-81.45C568.38,-98.52 742.91,-128.46 798.25,-176 817.07,-192.17 817.25,-203.69 817.25,-228.5 817.25,-611 817.25,-611 817.25,-611 817.25,-665.37 660.26,-703.64 561.22,-722.38"/>
<polygon fill="black" stroke="black" points="560.72,-718.91 551.53,-724.18 562,-725.79 560.72,-718.91"/>
</g>
</g>
</svg>
