<?xml version="1.0" encoding="UTF-8" standalone="no"?>
<!DOCTYPE svg PUBLIC "-//W3C//DTD SVG 1.1//EN"
 "http://www.w3.org/Graphics/SVG/1.1/DTD/svg11.dtd">
<!-- Generated by graphviz version 13.1.2 (20250808.2320)
 -->
<!-- Title: compress_CFG Pages: 1 -->
<svg width="535pt" height="848pt"
 viewBox="0.00 0.00 535.00 848.00" xmlns="http://www.w3.org/2000/svg" xmlns:xlink="http://www.w3.org/1999/xlink">
<g id="graph0" class="graph" transform="scale(1 1) rotate(0) translate(4 843.75)">
<title>compress_CFG</title>
<polygon fill="white" stroke="none" points="-4,4 -4,-843.75 531.38,-843.75 531.38,4 -4,4"/>
<!-- BB0 -->
<g id="node1" class="node">
<title>BB0</title>
<path fill="none" stroke="black" d="M436.25,-839.75C436.25,-839.75 200.5,-839.75 200.5,-839.75 194.5,-839.75 188.5,-833.75 188.5,-827.75 188.5,-827.75 188.5,-607.5 188.5,-607.5 188.5,-601.5 194.5,-595.5 200.5,-595.5 200.5,-595.5 436.25,-595.5 436.25,-595.5 442.25,-595.5 448.25,-601.5 448.25,-607.5 448.25,-607.5 448.25,-827.75 448.25,-827.75 448.25,-833.75 442.25,-839.75 436.25,-839.75"/>
<text xml:space="preserve" text-anchor="middle" x="318.38" y="-822.45" font-family="Helvetica,sans-Serif" font-size="14.00">BB0: Entry</text>
<text xml:space="preserve" text-anchor="middle" x="318.38" y="-806.7" font-family="Helvetica,sans-Serif" font-size="14.00">offset=0</text>
<text xml:space="preserve" text-anchor="middle" x="318.38" y="-790.95" font-family="Helvetica,sans-Serif" font-size="14.00">bytes_out=3</text>
<text xml:space="preserve" text-anchor="middle" x="318.38" y="-775.2" font-family="Helvetica,sans-Serif" font-size="14.00">out_count=0</text>
<text xml:space="preserve" text-anchor="middle" x="318.38" y="-759.45" font-family="Helvetica,sans-Serif" font-size="14.00">clear_flg=0</text>
<text xml:space="preserve" text-anchor="middle" x="318.38" y="-743.7" font-family="Helvetica,sans-Serif" font-size="14.00">ratio=0</text>
<text xml:space="preserve" text-anchor="middle" x="318.38" y="-727.95" font-family="Helvetica,sans-Serif" font-size="14.00">in_count=1</text>
<text xml:space="preserve" text-anchor="middle" x="318.38" y="-712.2" font-family="Helvetica,sans-Serif" font-size="14.00">checkpoint=CHECK_GAP</text>
<text xml:space="preserve" text-anchor="middle" x="318.38" y="-696.45" font-family="Helvetica,sans-Serif" font-size="14.00">n_bits=INIT_BITS</text>
<text xml:space="preserve" text-anchor="middle" x="318.38" y="-680.7" font-family="Helvetica,sans-Serif" font-size="14.00">maxcode=MAXCODE(n_bits)</text>
<text xml:space="preserve" text-anchor="middle" x="318.38" y="-664.95" font-family="Helvetica,sans-Serif" font-size="14.00">free_ent = (block_compress)?FIRST:256</text>
<text xml:space="preserve" text-anchor="middle" x="318.38" y="-649.2" font-family="Helvetica,sans-Serif" font-size="14.00">ent=getbyte()</text>
<text xml:space="preserve" text-anchor="middle" x="318.38" y="-633.45" font-family="Helvetica,sans-Serif" font-size="14.00">compute hshift</text>
<text xml:space="preserve" text-anchor="middle" x="318.38" y="-617.7" font-family="Helvetica,sans-Serif" font-size="14.00">hsize_reg=hsize</text>
<text xml:space="preserve" text-anchor="middle" x="318.38" y="-601.95" font-family="Helvetica,sans-Serif" font-size="14.00">cl_hash(hsize_reg)</text>
</g>
<!-- BB1 -->
<g id="node2" class="node">
<title>BB1</title>
<path fill="none" stroke="black" d="M380.38,-558.5C380.38,-558.5 256.38,-558.5 256.38,-558.5 250.38,-558.5 244.38,-552.5 244.38,-546.5 244.38,-546.5 244.38,-534.5 244.38,-534.5 244.38,-528.5 250.38,-522.5 256.38,-522.5 256.38,-522.5 380.38,-522.5 380.38,-522.5 386.38,-522.5 392.38,-528.5 392.38,-534.5 392.38,-534.5 392.38,-546.5 392.38,-546.5 392.38,-552.5 386.38,-558.5 380.38,-558.5"/>
<text xml:space="preserve" text-anchor="middle" x="318.38" y="-535.08" font-family="Helvetica,sans-Serif" font-size="14.00">BB1: while (InCnt &gt; 0)</text>
</g>
<!-- BB0&#45;&gt;BB1 -->
<g id="edge1" class="edge">
<title>BB0&#45;&gt;BB1</title>
<path fill="none" stroke="black" d="M318.38,-595.47C318.38,-586.17 318.38,-577.46 318.38,-569.87"/>
<polygon fill="black" stroke="black" points="321.88,-570.1 318.38,-560.1 314.88,-570.1 321.88,-570.1"/>
</g>
<!-- BB2 -->
<g id="node3" class="node">
<title>BB2</title>
<path fill="none" stroke="black" d="M160.75,-470.75C160.75,-470.75 12,-470.75 12,-470.75 6,-470.75 0,-464.75 0,-458.75 0,-458.75 0,-364.5 0,-364.5 0,-358.5 6,-352.5 12,-352.5 12,-352.5 160.75,-352.5 160.75,-352.5 166.75,-352.5 172.75,-358.5 172.75,-364.5 172.75,-364.5 172.75,-458.75 172.75,-458.75 172.75,-464.75 166.75,-470.75 160.75,-470.75"/>
<text xml:space="preserve" text-anchor="middle" x="86.38" y="-453.45" font-family="Helvetica,sans-Serif" font-size="14.00">BB2: c=getbyte()</text>
<text xml:space="preserve" text-anchor="middle" x="86.38" y="-437.7" font-family="Helvetica,sans-Serif" font-size="14.00">in_count++</text>
<text xml:space="preserve" text-anchor="middle" x="86.38" y="-421.95" font-family="Helvetica,sans-Serif" font-size="14.00">fcode=((c&lt;&lt;maxbits)+ent)</text>
<text xml:space="preserve" text-anchor="middle" x="86.38" y="-406.2" font-family="Helvetica,sans-Serif" font-size="14.00">i=((c&lt;&lt;hshift)^ent)</text>
<text xml:space="preserve" text-anchor="middle" x="86.38" y="-390.45" font-family="Helvetica,sans-Serif" font-size="14.00">if (htab[i]==fcode) &#45;&gt; BB1</text>
<text xml:space="preserve" text-anchor="middle" x="86.38" y="-374.7" font-family="Helvetica,sans-Serif" font-size="14.00">else if (htab[i]&lt;0) &#45;&gt; BB5</text>
<text xml:space="preserve" text-anchor="middle" x="86.38" y="-358.95" font-family="Helvetica,sans-Serif" font-size="14.00">else &#45;&gt; BB3</text>
</g>
<!-- BB1&#45;&gt;BB2 -->
<g id="edge2" class="edge">
<title>BB1&#45;&gt;BB2</title>
<path fill="none" stroke="black" d="M281.6,-522.08C255.94,-509.7 220.78,-492.28 182.87,-471.49"/>
<polygon fill="black" stroke="black" points="184.95,-468.64 174.5,-466.87 181.56,-474.77 184.95,-468.64"/>
<text xml:space="preserve" text-anchor="middle" x="256.2" y="-491.2" font-family="Helvetica,sans-Serif" font-size="14.00">true</text>
</g>
<!-- BB6 -->
<g id="node7" class="node">
<title>BB6</title>
<path fill="none" stroke="black" d="M434.38,-431.38C434.38,-431.38 202.38,-431.38 202.38,-431.38 196.38,-431.38 190.38,-425.38 190.38,-419.38 190.38,-419.38 190.38,-403.88 190.38,-403.88 190.38,-397.88 196.38,-391.88 202.38,-391.88 202.38,-391.88 434.38,-391.88 434.38,-391.88 440.38,-391.88 446.38,-397.88 446.38,-403.88 446.38,-403.88 446.38,-419.38 446.38,-419.38 446.38,-425.38 440.38,-431.38 434.38,-431.38"/>
<text xml:space="preserve" text-anchor="middle" x="318.38" y="-414.07" font-family="Helvetica,sans-Serif" font-size="14.00">BB6: if (bytes_out&gt;in_count) exit_stat=2</text>
<text xml:space="preserve" text-anchor="middle" x="318.38" y="-398.32" font-family="Helvetica,sans-Serif" font-size="14.00">return</text>
</g>
<!-- BB1&#45;&gt;BB6 -->
<g id="edge3" class="edge">
<title>BB1&#45;&gt;BB6</title>
<path fill="none" stroke="black" d="M318.38,-522.12C318.38,-501.83 318.38,-467.88 318.38,-443.16"/>
<polygon fill="black" stroke="black" points="321.88,-443.38 318.38,-433.38 314.88,-443.38 321.88,-443.38"/>
<text xml:space="preserve" text-anchor="middle" x="332.62" y="-491.2" font-family="Helvetica,sans-Serif" font-size="14.00">false</text>
</g>
<!-- BB2&#45;&gt;BB1 -->
<g id="edge4" class="edge">
<title>BB2&#45;&gt;BB1</title>
<path fill="none" stroke="black" d="M134.3,-471.1C147,-483.65 161.51,-495.75 176.88,-504.5 194.05,-514.28 213.92,-521.35 233.23,-526.46"/>
<polygon fill="black" stroke="black" points="232.19,-529.8 242.73,-528.8 233.86,-523.01 232.19,-529.8"/>
<text xml:space="preserve" text-anchor="middle" x="195.62" y="-491.2" font-family="Helvetica,sans-Serif" font-size="14.00">match</text>
</g>
<!-- BB3 -->
<g id="node4" class="node">
<title>BB3</title>
<path fill="none" stroke="black" d="M285.88,-300.75C285.88,-300.75 146.88,-300.75 146.88,-300.75 140.88,-300.75 134.88,-294.75 134.88,-288.75 134.88,-288.75 134.88,-273.25 134.88,-273.25 134.88,-267.25 140.88,-261.25 146.88,-261.25 146.88,-261.25 285.88,-261.25 285.88,-261.25 291.88,-261.25 297.88,-267.25 297.88,-273.25 297.88,-273.25 297.88,-288.75 297.88,-288.75 297.88,-294.75 291.88,-300.75 285.88,-300.75"/>
<text xml:space="preserve" text-anchor="middle" x="216.38" y="-283.45" font-family="Helvetica,sans-Serif" font-size="14.00">BB3: disp = hsize_reg &#45; i</text>
<text xml:space="preserve" text-anchor="middle" x="216.38" y="-267.7" font-family="Helvetica,sans-Serif" font-size="14.00">if (i==0) disp=1</text>
</g>
<!-- BB2&#45;&gt;BB3 -->
<g id="edge6" class="edge">
<title>BB2&#45;&gt;BB3</title>
<path fill="none" stroke="black" d="M145.29,-352.33C160.61,-337.18 176.38,-321.57 189.17,-308.92"/>
<polygon fill="black" stroke="black" points="191.38,-311.65 196.03,-302.13 186.46,-306.68 191.38,-311.65"/>
<text xml:space="preserve" text-anchor="middle" x="206.09" y="-321.2" font-family="Helvetica,sans-Serif" font-size="14.00">no match</text>
</g>
<!-- BB5 -->
<g id="node6" class="node">
<title>BB5</title>
<path fill="none" stroke="black" d="M443,-71C443,-71 85.75,-71 85.75,-71 79.75,-71 73.75,-65 73.75,-59 73.75,-59 73.75,-12 73.75,-12 73.75,-6 79.75,0 85.75,0 85.75,0 443,0 443,0 449,0 455,-6 455,-12 455,-12 455,-59 455,-59 455,-65 449,-71 443,-71"/>
<text xml:space="preserve" text-anchor="middle" x="264.38" y="-53.7" font-family="Helvetica,sans-Serif" font-size="14.00">BB5: out_count++</text>
<text xml:space="preserve" text-anchor="middle" x="264.38" y="-37.95" font-family="Helvetica,sans-Serif" font-size="14.00">ent=c</text>
<text xml:space="preserve" text-anchor="middle" x="264.38" y="-22.2" font-family="Helvetica,sans-Serif" font-size="14.00">if (free_ent &lt; maxmaxcode) update tables</text>
<text xml:space="preserve" text-anchor="middle" x="264.38" y="-6.45" font-family="Helvetica,sans-Serif" font-size="14.00">else if (in_count&gt;=checkpoint &amp;&amp; block_compress) cl_block()</text>
</g>
<!-- BB2&#45;&gt;BB5 -->
<g id="edge5" class="edge">
<title>BB2&#45;&gt;BB5</title>
<path fill="none" stroke="black" d="M76.98,-352.05C70.22,-290.02 68.9,-191.73 113.38,-122.75 125.34,-104.19 142.8,-89.2 161.63,-77.24"/>
<polygon fill="black" stroke="black" points="163.21,-80.38 169.97,-72.22 159.6,-74.38 163.21,-80.38"/>
<text xml:space="preserve" text-anchor="middle" x="108.34" y="-229.95" font-family="Helvetica,sans-Serif" font-size="14.00">empty slot</text>
</g>
<!-- BB4 -->
<g id="node5" class="node">
<title>BB4</title>
<path fill="none" stroke="black" d="M394.62,-209.5C394.62,-209.5 134.12,-209.5 134.12,-209.5 128.12,-209.5 122.12,-203.5 122.12,-197.5 122.12,-197.5 122.12,-134.75 122.12,-134.75 122.12,-128.75 128.12,-122.75 134.12,-122.75 134.12,-122.75 394.62,-122.75 394.62,-122.75 400.62,-122.75 406.62,-128.75 406.62,-134.75 406.62,-134.75 406.62,-197.5 406.62,-197.5 406.62,-203.5 400.62,-209.5 394.62,-209.5"/>
<text xml:space="preserve" text-anchor="middle" x="264.38" y="-192.2" font-family="Helvetica,sans-Serif" font-size="14.00">BB4: i &#45;= disp</text>
<text xml:space="preserve" text-anchor="middle" x="264.38" y="-176.45" font-family="Helvetica,sans-Serif" font-size="14.00">if (i&lt;0) i+=hsize_reg</text>
<text xml:space="preserve" text-anchor="middle" x="264.38" y="-160.7" font-family="Helvetica,sans-Serif" font-size="14.00">if (htab[i]==fcode) &#45;&gt; BB1</text>
<text xml:space="preserve" text-anchor="middle" x="264.38" y="-144.95" font-family="Helvetica,sans-Serif" font-size="14.00">else if (htab[i]&gt;0 &amp;&amp; bound&lt;in_count) &#45;&gt; BB4</text>
<text xml:space="preserve" text-anchor="middle" x="264.38" y="-129.2" font-family="Helvetica,sans-Serif" font-size="14.00">else &#45;&gt; BB5</text>
</g>
<!-- BB3&#45;&gt;BB4 -->
<g id="edge7" class="edge">
<title>BB3&#45;&gt;BB4</title>
<path fill="none" stroke="black" d="M224.52,-260.85C229.3,-249.62 235.59,-234.81 241.76,-220.29"/>
<polygon fill="black" stroke="black" points="244.93,-221.8 245.62,-211.22 238.49,-219.06 244.93,-221.8"/>
</g>
<!-- BB4&#45;&gt;BB1 -->
<g id="edge8" class="edge">
<title>BB4&#45;&gt;BB1</title>
<path fill="none" stroke="black" d="M330.48,-209.76C375.02,-242.71 430.08,-292.7 455.38,-352.5 475.85,-400.9 482.97,-426.02 455.38,-470.75 442.11,-492.26 419.83,-507.27 397.06,-517.64"/>
<polygon fill="black" stroke="black" points="395.82,-514.36 387.98,-521.5 398.55,-520.81 395.82,-514.36"/>
<text xml:space="preserve" text-anchor="middle" x="464.55" y="-321.2" font-family="Helvetica,sans-Serif" font-size="14.00">match</text>
</g>
<!-- BB4&#45;&gt;BB4 -->
<g id="edge9" class="edge">
<title>BB4&#45;&gt;BB4</title>
<path fill="none" stroke="black" d="M407.1,-175.86C417.95,-173.7 424.62,-170.45 424.62,-166.12 424.62,-163.56 422.27,-161.37 418.09,-159.56"/>
<polygon fill="black" stroke="black" points="419.13,-156.22 408.55,-156.81 417.19,-162.94 419.13,-156.22"/>
<text xml:space="preserve" text-anchor="middle" x="460.25" y="-160.7" font-family="Helvetica,sans-Serif" font-size="14.00">probe again</text>
</g>
<!-- BB4&#45;&gt;BB5 -->
<g id="edge10" class="edge">
<title>BB4&#45;&gt;BB5</title>
<path fill="none" stroke="black" d="M264.38,-122.29C264.38,-109.65 264.38,-95.75 264.38,-82.89"/>
<polygon fill="black" stroke="black" points="267.88,-82.96 264.38,-72.96 260.88,-82.96 267.88,-82.96"/>
<text xml:space="preserve" text-anchor="middle" x="292.5" y="-91.45" font-family="Helvetica,sans-Serif" font-size="14.00">no match</text>
</g>
<!-- BB5&#45;&gt;BB1 -->
<g id="edge11" class="edge">
<title>BB5&#45;&gt;BB1</title>
<path fill="none" stroke="black" d="M453.77,-71.38C495.41,-90.39 527.38,-119.76 527.38,-165.12 527.38,-412.62 527.38,-412.62 527.38,-412.62 527.38,-473.64 461.49,-506.13 403.7,-522.9"/>
<polygon fill="black" stroke="black" points="402.82,-519.51 394.11,-525.55 404.68,-526.26 402.82,-519.51"/>
</g>
</g>
</svg>
