<?xml version="1.0" encoding="UTF-8" standalone="no"?>
<!DOCTYPE svg PUBLIC "-//W3C//DTD SVG 1.1//EN"
 "http://www.w3.org/Graphics/SVG/1.1/DTD/svg11.dtd">
<!-- Generated by graphviz version 13.1.2 (20250808.2320)
 -->
<!-- Title: CFG_Sum Pages: 1 -->
<svg width="634pt" height="645pt"
 viewBox="0.00 0.00 634.00 645.00" xmlns="http://www.w3.org/2000/svg" xmlns:xlink="http://www.w3.org/1999/xlink">
<g id="graph0" class="graph" transform="scale(1 1) rotate(0) translate(4 640.5)">
<title>CFG_Sum</title>
<polygon fill="white" stroke="none" points="-4,4 -4,-640.5 630,-640.5 630,4 -4,4"/>
<!-- entry -->
<g id="node1" class="node">
<title>entry</title>
<ellipse fill="none" stroke="black" cx="493.75" cy="-618.5" rx="31.39" ry="18"/>
<text xml:space="preserve" text-anchor="middle" x="493.75" y="-613.45" font-family="Times New Roman,serif" font-size="14.00">Entry</text>
</g>
<!-- B1 -->
<g id="node3" class="node">
<title>B1</title>
<polygon fill="none" stroke="black" points="524.62,-563.5 462.88,-563.5 462.88,-527.5 524.62,-527.5 524.62,-563.5"/>
<text xml:space="preserve" text-anchor="middle" x="493.75" y="-540.45" font-family="Times New Roman,serif" font-size="14.00">Outer=0</text>
</g>
<!-- entry&#45;&gt;B1 -->
<g id="edge1" class="edge">
<title>entry&#45;&gt;B1</title>
<path fill="none" stroke="black" d="M493.75,-600.31C493.75,-592.73 493.75,-583.6 493.75,-575.04"/>
<polygon fill="black" stroke="black" points="497.25,-575.04 493.75,-565.04 490.25,-575.04 497.25,-575.04"/>
</g>
<!-- exit -->
<g id="node2" class="node">
<title>exit</title>
<ellipse fill="none" stroke="black" cx="573.75" cy="-273" rx="27" ry="18"/>
<text xml:space="preserve" text-anchor="middle" x="573.75" y="-267.95" font-family="Times New Roman,serif" font-size="14.00">Exit</text>
</g>
<!-- B2 -->
<g id="node4" class="node">
<title>B2</title>
<polygon fill="none" stroke="black" points="558.38,-490.5 429.12,-490.5 429.12,-454.5 558.38,-454.5 558.38,-490.5"/>
<text xml:space="preserve" text-anchor="middle" x="493.75" y="-467.45" font-family="Times New Roman,serif" font-size="14.00">Outer &lt; MAXSIZE?</text>
</g>
<!-- B1&#45;&gt;B2 -->
<g id="edge2" class="edge">
<title>B1&#45;&gt;B2</title>
<path fill="none" stroke="black" d="M493.75,-527.31C493.75,-519.73 493.75,-510.6 493.75,-502.04"/>
<polygon fill="black" stroke="black" points="497.25,-502.04 493.75,-492.04 490.25,-502.04 497.25,-502.04"/>
</g>
<!-- B3 -->
<g id="node5" class="node">
<title>B3</title>
<polygon fill="none" stroke="black" points="457.5,-383 398,-383 398,-347 457.5,-347 457.5,-383"/>
<text xml:space="preserve" text-anchor="middle" x="427.75" y="-359.95" font-family="Times New Roman,serif" font-size="14.00">Inner=0</text>
</g>
<!-- B2&#45;&gt;B3 -->
<g id="edge3" class="edge">
<title>B2&#45;&gt;B3</title>
<path fill="none" stroke="black" d="M472.87,-454.29C467.3,-449 461.62,-442.87 457.25,-436.5 448.34,-423.51 441.34,-407.4 436.41,-393.86"/>
<polygon fill="black" stroke="black" points="439.8,-392.97 433.24,-384.65 433.18,-395.24 439.8,-392.97"/>
<text xml:space="preserve" text-anchor="middle" x="468.5" y="-423.2" font-family="Times New Roman,serif" font-size="14.00">Sim</text>
</g>
<!-- B10 -->
<g id="node12" class="node">
<title>B10</title>
<polygon fill="none" stroke="black" points="626,-402 521.5,-402 521.5,-328 626,-328 626,-402"/>
<text xml:space="preserve" text-anchor="middle" x="573.75" y="-384.7" font-family="Times New Roman,serif" font-size="14.00">Postotal=Ptotal</text>
<text xml:space="preserve" text-anchor="middle" x="573.75" y="-368.2" font-family="Times New Roman,serif" font-size="14.00">Poscnt=Pcnt</text>
<text xml:space="preserve" text-anchor="middle" x="573.75" y="-351.7" font-family="Times New Roman,serif" font-size="14.00">Negtotal=Ntotal</text>
<text xml:space="preserve" text-anchor="middle" x="573.75" y="-335.2" font-family="Times New Roman,serif" font-size="14.00">Negcnt=Ncnt</text>
</g>
<!-- B2&#45;&gt;B10 -->
<g id="edge4" class="edge">
<title>B2&#45;&gt;B10</title>
<path fill="none" stroke="black" d="M506.96,-454.08C515.86,-442.34 528.04,-426.27 539.57,-411.08"/>
<polygon fill="black" stroke="black" points="542.08,-413.56 545.33,-403.48 536.5,-409.33 542.08,-413.56"/>
<text xml:space="preserve" text-anchor="middle" x="542.6" y="-423.2" font-family="Times New Roman,serif" font-size="14.00">Nao</text>
</g>
<!-- B4 -->
<g id="node6" class="node">
<title>B4</title>
<polygon fill="none" stroke="black" points="465.25,-291 338.25,-291 338.25,-255 465.25,-255 465.25,-291"/>
<text xml:space="preserve" text-anchor="middle" x="401.75" y="-267.95" font-family="Times New Roman,serif" font-size="14.00">Inner &lt; MAXSIZE?</text>
</g>
<!-- B3&#45;&gt;B4 -->
<g id="edge5" class="edge">
<title>B3&#45;&gt;B4</title>
<path fill="none" stroke="black" d="M422.74,-346.65C419.1,-334.07 414.11,-316.79 409.91,-302.24"/>
<polygon fill="black" stroke="black" points="413.31,-301.39 407.17,-292.75 406.58,-303.33 413.31,-301.39"/>
</g>
<!-- B5 -->
<g id="node7" class="node">
<title>B5</title>
<polygon fill="none" stroke="black" points="365.38,-202.5 212.12,-202.5 212.12,-166.5 365.38,-166.5 365.38,-202.5"/>
<text xml:space="preserve" text-anchor="middle" x="288.75" y="-179.45" font-family="Times New Roman,serif" font-size="14.00">Array[Outer][Inner] &lt; 0?</text>
</g>
<!-- B4&#45;&gt;B5 -->
<g id="edge6" class="edge">
<title>B4&#45;&gt;B5</title>
<path fill="none" stroke="black" d="M379.15,-254.7C362.29,-241.8 339.04,-224 320.34,-209.68"/>
<polygon fill="black" stroke="black" points="322.58,-206.99 312.51,-203.69 318.32,-212.54 322.58,-206.99"/>
<text xml:space="preserve" text-anchor="middle" x="366.62" y="-223.7" font-family="Times New Roman,serif" font-size="14.00">Sim</text>
</g>
<!-- B9 -->
<g id="node11" class="node">
<title>B9</title>
<polygon fill="none" stroke="black" points="512.38,-202.5 449.12,-202.5 449.12,-166.5 512.38,-166.5 512.38,-202.5"/>
<text xml:space="preserve" text-anchor="middle" x="480.75" y="-179.45" font-family="Times New Roman,serif" font-size="14.00">Outer++</text>
</g>
<!-- B4&#45;&gt;B9 -->
<g id="edge7" class="edge">
<title>B4&#45;&gt;B9</title>
<path fill="none" stroke="black" d="M417.36,-254.91C428.75,-242.43 444.4,-225.3 457.29,-211.18"/>
<polygon fill="black" stroke="black" points="459.72,-213.71 463.88,-203.97 454.56,-208.99 459.72,-213.71"/>
<text xml:space="preserve" text-anchor="middle" x="459.58" y="-223.7" font-family="Times New Roman,serif" font-size="14.00">Nao</text>
</g>
<!-- B6 -->
<g id="node8" class="node">
<title>B6</title>
<polygon fill="none" stroke="black" points="179.5,-114 0,-114 0,-73 179.5,-73 179.5,-114"/>
<text xml:space="preserve" text-anchor="middle" x="89.75" y="-96.7" font-family="Times New Roman,serif" font-size="14.00">Ptotal += Array[Outer][Inner]</text>
<text xml:space="preserve" text-anchor="middle" x="89.75" y="-80.2" font-family="Times New Roman,serif" font-size="14.00">Pcnt++</text>
</g>
<!-- B5&#45;&gt;B6 -->
<g id="edge8" class="edge">
<title>B5&#45;&gt;B6</title>
<path fill="none" stroke="black" d="M249.91,-166.13C219.87,-152.7 177.92,-133.93 144.48,-118.98"/>
<polygon fill="black" stroke="black" points="146.34,-115.97 135.78,-115.09 143.48,-122.36 146.34,-115.97"/>
<text xml:space="preserve" text-anchor="middle" x="218.32" y="-135.2" font-family="Times New Roman,serif" font-size="14.00">Sim</text>
</g>
<!-- B7 -->
<g id="node9" class="node">
<title>B7</title>
<polygon fill="none" stroke="black" points="379.62,-114 197.88,-114 197.88,-73 379.62,-73 379.62,-114"/>
<text xml:space="preserve" text-anchor="middle" x="288.75" y="-96.7" font-family="Times New Roman,serif" font-size="14.00">Ntotal += Array[Outer][Inner]</text>
<text xml:space="preserve" text-anchor="middle" x="288.75" y="-80.2" font-family="Times New Roman,serif" font-size="14.00">Ncnt++</text>
</g>
<!-- B5&#45;&gt;B7 -->
<g id="edge9" class="edge">
<title>B5&#45;&gt;B7</title>
<path fill="none" stroke="black" d="M288.75,-166.34C288.75,-154.85 288.75,-139.4 288.75,-125.77"/>
<polygon fill="black" stroke="black" points="292.25,-125.92 288.75,-115.92 285.25,-125.92 292.25,-125.92"/>
<text xml:space="preserve" text-anchor="middle" x="300" y="-135.2" font-family="Times New Roman,serif" font-size="14.00">Nao</text>
</g>
<!-- B8 -->
<g id="node10" class="node">
<title>B8</title>
<polygon fill="none" stroke="black" points="319.25,-36 258.25,-36 258.25,0 319.25,0 319.25,-36"/>
<text xml:space="preserve" text-anchor="middle" x="288.75" y="-12.95" font-family="Times New Roman,serif" font-size="14.00">Inner++</text>
</g>
<!-- B6&#45;&gt;B8 -->
<g id="edge10" class="edge">
<title>B6&#45;&gt;B8</title>
<path fill="none" stroke="black" d="M143.86,-72.51C176.46,-60.47 217.33,-45.38 247.34,-34.29"/>
<polygon fill="black" stroke="black" points="248.29,-37.68 256.45,-30.93 245.86,-31.11 248.29,-37.68"/>
</g>
<!-- B7&#45;&gt;B8 -->
<g id="edge11" class="edge">
<title>B7&#45;&gt;B8</title>
<path fill="none" stroke="black" d="M288.75,-72.8C288.75,-65.06 288.75,-56.01 288.75,-47.57"/>
<polygon fill="black" stroke="black" points="292.25,-47.76 288.75,-37.76 285.25,-47.76 292.25,-47.76"/>
</g>
<!-- B8&#45;&gt;B4 -->
<g id="edge12" class="edge">
<title>B8&#45;&gt;B4</title>
<path fill="none" stroke="black" d="M319.66,-26.91C342.86,-34.6 373.19,-48.75 388.75,-73 422.36,-125.38 415.18,-202.32 407.92,-243.5"/>
<polygon fill="black" stroke="black" points="404.52,-242.63 406.09,-253.1 411.4,-243.93 404.52,-242.63"/>
</g>
<!-- B9&#45;&gt;B2 -->
<g id="edge13" class="edge">
<title>B9&#45;&gt;B2</title>
<path fill="none" stroke="black" d="M481.53,-202.73C483.69,-250.24 489.75,-383.47 492.44,-442.6"/>
<polygon fill="black" stroke="black" points="488.94,-442.7 492.89,-452.53 495.93,-442.38 488.94,-442.7"/>
</g>
<!-- B10&#45;&gt;exit -->
<g id="edge14" class="edge">
<title>B10&#45;&gt;exit</title>
<path fill="none" stroke="black" d="M573.75,-327.65C573.75,-319.36 573.75,-310.66 573.75,-302.73"/>
<polygon fill="black" stroke="black" points="577.25,-302.97 573.75,-292.97 570.25,-302.97 577.25,-302.97"/>
</g>
</g>
</svg>
