<?xml version="1.0" encoding="UTF-8" standalone="no"?>
<!DOCTYPE svg PUBLIC "-//W3C//DTD SVG 1.1//EN"
 "http://www.w3.org/Graphics/SVG/1.1/DTD/svg11.dtd">
<!-- Generated by graphviz version 13.1.2 (20250808.2320)
 -->
<!-- Title: DFG_Sum Pages: 1 -->
<svg width="672pt" height="337pt"
 viewBox="0.00 0.00 672.00 337.00" xmlns="http://www.w3.org/2000/svg" xmlns:xlink="http://www.w3.org/1999/xlink">
<g id="graph0" class="graph" transform="scale(1 1) rotate(0) translate(4 333)">
<title>DFG_Sum</title>
<polygon fill="white" stroke="none" points="-4,4 -4,-333 668.38,-333 668.38,4 -4,4"/>
<!-- Array_input -->
<g id="node1" class="node">
<title>Array_input</title>
<ellipse fill="lightblue" stroke="black" cx="294.62" cy="-311" rx="32.41" ry="18"/>
<text xml:space="preserve" text-anchor="middle" x="294.62" y="-305.95" font-family="Times New Roman,serif" font-size="14.00">Array</text>
</g>
<!-- Check_Neg -->
<g id="node6" class="node">
<title>Check_Neg</title>
<polygon fill="none" stroke="black" points="371.25,-256 218,-256 218,-220 371.25,-220 371.25,-256"/>
<text xml:space="preserve" text-anchor="middle" x="294.62" y="-232.95" font-family="Times New Roman,serif" font-size="14.00">Array[Outer][Inner] &lt; 0?</text>
</g>
<!-- Array_input&#45;&gt;Check_Neg -->
<g id="edge4" class="edge">
<title>Array_input&#45;&gt;Check_Neg</title>
<path fill="none" stroke="black" d="M294.62,-292.81C294.62,-285.23 294.62,-276.1 294.62,-267.54"/>
<polygon fill="black" stroke="black" points="298.13,-267.54 294.63,-257.54 291.13,-267.54 298.13,-267.54"/>
</g>
<!-- Zero -->
<g id="node2" class="node">
<title>Zero</title>
<ellipse fill="lightblue" stroke="black" cx="85.62" cy="-311" rx="27" ry="18"/>
<text xml:space="preserve" text-anchor="middle" x="85.62" y="-305.95" font-family="Times New Roman,serif" font-size="14.00">0</text>
</g>
<!-- Init -->
<g id="node3" class="node">
<title>Init</title>
<polygon fill="none" stroke="black" points="171.25,-256 0,-256 0,-220 171.25,-220 171.25,-256"/>
<text xml:space="preserve" text-anchor="middle" x="85.62" y="-232.95" font-family="Times New Roman,serif" font-size="14.00">Ptotal=Ntotal=Pcnt=Ncnt=0</text>
</g>
<!-- Zero&#45;&gt;Init -->
<g id="edge1" class="edge">
<title>Zero&#45;&gt;Init</title>
<path fill="none" stroke="black" d="M85.62,-292.81C85.62,-285.23 85.62,-276.1 85.62,-267.54"/>
<polygon fill="black" stroke="black" points="89.13,-267.54 85.63,-257.54 82.13,-267.54 89.13,-267.54"/>
</g>
<!-- Update_P -->
<g id="node7" class="node">
<title>Update_P</title>
<polygon fill="none" stroke="black" points="188.38,-167.5 8.88,-167.5 8.88,-126.5 188.38,-126.5 188.38,-167.5"/>
<text xml:space="preserve" text-anchor="middle" x="98.62" y="-150.2" font-family="Times New Roman,serif" font-size="14.00">Ptotal += Array[Outer][Inner]</text>
<text xml:space="preserve" text-anchor="middle" x="98.62" y="-133.7" font-family="Times New Roman,serif" font-size="14.00">Pcnt++</text>
</g>
<!-- Init&#45;&gt;Update_P -->
<g id="edge2" class="edge">
<title>Init&#45;&gt;Update_P</title>
<path fill="none" stroke="black" d="M85.24,-219.73C85.28,-209.68 85.78,-196.8 87.62,-185.5 87.99,-183.29 88.44,-181.03 88.95,-178.76"/>
<polygon fill="black" stroke="black" points="92.33,-179.67 91.49,-169.1 85.56,-177.88 92.33,-179.67"/>
</g>
<!-- Update_N -->
<g id="node8" class="node">
<title>Update_N</title>
<polygon fill="none" stroke="black" points="388.5,-167.5 206.75,-167.5 206.75,-126.5 388.5,-126.5 388.5,-167.5"/>
<text xml:space="preserve" text-anchor="middle" x="297.62" y="-150.2" font-family="Times New Roman,serif" font-size="14.00">Ntotal += Array[Outer][Inner]</text>
<text xml:space="preserve" text-anchor="middle" x="297.62" y="-133.7" font-family="Times New Roman,serif" font-size="14.00">Ncnt++</text>
</g>
<!-- Init&#45;&gt;Update_N -->
<g id="edge3" class="edge">
<title>Init&#45;&gt;Update_N</title>
<path fill="none" stroke="black" d="M90.44,-219.59C94.51,-208.18 101.48,-193.86 112.62,-185.5 113.59,-184.77 153.11,-176.72 195.37,-168.27"/>
<polygon fill="black" stroke="black" points="195.85,-171.74 204.97,-166.35 194.47,-164.88 195.85,-171.74"/>
</g>
<!-- Outer_loop -->
<g id="node4" class="node">
<title>Outer_loop</title>
<polygon fill="none" stroke="black" points="496.5,-329 344.75,-329 344.75,-293 496.5,-293 496.5,-329"/>
<text xml:space="preserve" text-anchor="middle" x="420.62" y="-305.95" font-family="Times New Roman,serif" font-size="14.00">Outer=0 to MAXSIZE&#45;1</text>
</g>
<!-- Inner_loop -->
<g id="node5" class="node">
<title>Inner_loop</title>
<polygon fill="none" stroke="black" points="664.38,-329 514.88,-329 514.88,-293 664.38,-293 664.38,-329"/>
<text xml:space="preserve" text-anchor="middle" x="589.62" y="-305.95" font-family="Times New Roman,serif" font-size="14.00">Inner=0 to MAXSIZE&#45;1</text>
</g>
<!-- Check_Neg&#45;&gt;Update_P -->
<g id="edge5" class="edge">
<title>Check_Neg&#45;&gt;Update_P</title>
<path fill="none" stroke="black" d="M217.81,-227.01C181.65,-221.08 143.33,-212.63 128.88,-202 120.66,-195.96 114.38,-186.98 109.73,-178.07"/>
<polygon fill="black" stroke="black" points="113,-176.81 105.63,-169.19 106.65,-179.74 113,-176.81"/>
<text xml:space="preserve" text-anchor="middle" x="213.25" y="-188.7" font-family="Times New Roman,serif" font-size="14.00">Condicao verdadeira (inviavel)</text>
</g>
<!-- Check_Neg&#45;&gt;Update_N -->
<g id="edge6" class="edge">
<title>Check_Neg&#45;&gt;Update_N</title>
<path fill="none" stroke="black" d="M298.8,-219.66C299.95,-214.06 301.05,-207.8 301.62,-202 302.36,-194.57 302.25,-186.56 301.76,-179.03"/>
<polygon fill="black" stroke="black" points="305.26,-178.91 300.86,-169.28 298.29,-179.55 305.26,-178.91"/>
<text xml:space="preserve" text-anchor="middle" x="397.78" y="-188.7" font-family="Times New Roman,serif" font-size="14.00">Condicao falsa (sempre executada)</text>
</g>
<!-- Assign -->
<g id="node9" class="node">
<title>Assign</title>
<polygon fill="none" stroke="black" points="249.88,-74 145.38,-74 145.38,0 249.88,0 249.88,-74"/>
<text xml:space="preserve" text-anchor="middle" x="197.62" y="-56.7" font-family="Times New Roman,serif" font-size="14.00">Postotal=Ptotal</text>
<text xml:space="preserve" text-anchor="middle" x="197.62" y="-40.2" font-family="Times New Roman,serif" font-size="14.00">Poscnt=Pcnt</text>
<text xml:space="preserve" text-anchor="middle" x="197.62" y="-23.7" font-family="Times New Roman,serif" font-size="14.00">Negtotal=Ntotal</text>
<text xml:space="preserve" text-anchor="middle" x="197.62" y="-7.2" font-family="Times New Roman,serif" font-size="14.00">Negcnt=Ncnt</text>
</g>
<!-- Update_P&#45;&gt;Assign -->
<g id="edge7" class="edge">
<title>Update_P&#45;&gt;Assign</title>
<path fill="none" stroke="black" d="M110.85,-126.17C117.77,-115.58 126.93,-102.58 136.38,-92 139.32,-88.7 142.45,-85.41 145.69,-82.17"/>
<polygon fill="black" stroke="black" points="148.05,-84.76 152.8,-75.29 143.18,-79.73 148.05,-84.76"/>
<text xml:space="preserve" text-anchor="middle" x="203.5" y="-95.2" font-family="Times New Roman,serif" font-size="14.00">Dados nunca produzidos</text>
</g>
<!-- Update_N&#45;&gt;Assign -->
<g id="edge8" class="edge">
<title>Update_N&#45;&gt;Assign</title>
<path fill="none" stroke="black" d="M290.38,-126.19C285.79,-115.35 279.12,-102.11 270.62,-92 266.98,-87.66 262.92,-83.47 258.63,-79.49"/>
<polygon fill="black" stroke="black" points="261.12,-77.01 251.29,-73.06 256.51,-82.28 261.12,-77.01"/>
</g>
</g>
</svg>
