<?xml version="1.0" encoding="UTF-8" standalone="no"?>
<!DOCTYPE svg PUBLIC "-//W3C//DTD SVG 1.1//EN"
 "http://www.w3.org/Graphics/SVG/1.1/DTD/svg11.dtd">
<!-- Generated by graphviz version 13.1.2 (20250808.2320)
 -->
<!-- Title: decode Pages: 1 -->
<svg width="532pt" height="4089pt"
 viewBox="0.00 0.00 532.00 4089.00" xmlns="http://www.w3.org/2000/svg" xmlns:xlink="http://www.w3.org/1999/xlink">
<g id="graph0" class="graph" transform="scale(1 1) rotate(0) translate(4 4084.5)">
<title>decode</title>
<polygon fill="white" stroke="none" points="-4,4 -4,-4084.5 528.12,-4084.5 528.12,4 -4,4"/>
<!-- start -->
<g id="node1" class="node">
<title>start</title>
<ellipse fill="none" stroke="black" cx="267.75" cy="-4062.5" rx="29.61" ry="18"/>
<text xml:space="preserve" text-anchor="middle" x="267.75" y="-4057.07" font-family="Arial" font-size="14.00">Start</text>
</g>
<!-- node1 -->
<g id="node3" class="node">
<title>node1</title>
<polygon fill="none" stroke="black" points="324.5,-4007.5 211,-4007.5 211,-3971.5 324.5,-3971.5 324.5,-4007.5"/>
<text xml:space="preserve" text-anchor="middle" x="267.75" y="-3984.07" font-family="Arial" font-size="14.00">ilr = input &amp; 0x3f</text>
</g>
<!-- start&#45;&gt;node1 -->
<g id="edge1" class="edge">
<title>start&#45;&gt;node1</title>
<path fill="none" stroke="black" d="M267.75,-4044.31C267.75,-4036.73 267.75,-4027.6 267.75,-4019.04"/>
<polygon fill="black" stroke="black" points="271.25,-4019.04 267.75,-4009.04 264.25,-4019.04 271.25,-4019.04"/>
</g>
<!-- end -->
<g id="node2" class="node">
<title>end</title>
<ellipse fill="none" stroke="black" cx="479.75" cy="-18" rx="27" ry="18"/>
<text xml:space="preserve" text-anchor="middle" x="479.75" y="-12.57" font-family="Arial" font-size="14.00">End</text>
</g>
<!-- node2 -->
<g id="node4" class="node">
<title>node2</title>
<polygon fill="none" stroke="black" points="319.25,-3934.5 216.25,-3934.5 216.25,-3898.5 319.25,-3898.5 319.25,-3934.5"/>
<text xml:space="preserve" text-anchor="middle" x="267.75" y="-3911.07" font-family="Arial" font-size="14.00">ih = input &gt;&gt; 6</text>
</g>
<!-- node1&#45;&gt;node2 -->
<g id="edge2" class="edge">
<title>node1&#45;&gt;node2</title>
<path fill="none" stroke="black" d="M267.75,-3971.31C267.75,-3963.73 267.75,-3954.6 267.75,-3946.04"/>
<polygon fill="black" stroke="black" points="271.25,-3946.04 267.75,-3936.04 264.25,-3946.04 271.25,-3946.04"/>
</g>
<!-- node3 -->
<g id="node5" class="node">
<title>node3</title>
<polygon fill="none" stroke="black" points="401,-3861.5 134.5,-3861.5 134.5,-3825.5 401,-3825.5 401,-3861.5"/>
<text xml:space="preserve" text-anchor="middle" x="267.75" y="-3838.07" font-family="Arial" font-size="14.00">dec_szl = filtez(dec_del_bpl,dec_del_dltx)</text>
</g>
<!-- node2&#45;&gt;node3 -->
<g id="edge3" class="edge">
<title>node2&#45;&gt;node3</title>
<path fill="none" stroke="black" d="M267.75,-3898.31C267.75,-3890.73 267.75,-3881.6 267.75,-3873.04"/>
<polygon fill="black" stroke="black" points="271.25,-3873.04 267.75,-3863.04 264.25,-3873.04 271.25,-3873.04"/>
</g>
<!-- node4 -->
<g id="node6" class="node">
<title>node4</title>
<polygon fill="none" stroke="black" points="426.5,-3788.5 109,-3788.5 109,-3752.5 426.5,-3752.5 426.5,-3788.5"/>
<text xml:space="preserve" text-anchor="middle" x="267.75" y="-3765.07" font-family="Arial" font-size="14.00">dec_spl = filtep(dec_rlt1,dec_al1,dec_rlt2,dec_al2)</text>
</g>
<!-- node3&#45;&gt;node4 -->
<g id="edge4" class="edge">
<title>node3&#45;&gt;node4</title>
<path fill="none" stroke="black" d="M267.75,-3825.31C267.75,-3817.73 267.75,-3808.6 267.75,-3800.04"/>
<polygon fill="black" stroke="black" points="271.25,-3800.04 267.75,-3790.04 264.25,-3800.04 271.25,-3800.04"/>
</g>
<!-- node5 -->
<g id="node7" class="node">
<title>node5</title>
<polygon fill="none" stroke="black" points="357.12,-3715.5 178.38,-3715.5 178.38,-3679.5 357.12,-3679.5 357.12,-3715.5"/>
<text xml:space="preserve" text-anchor="middle" x="267.75" y="-3692.07" font-family="Arial" font-size="14.00">dec_sl = dec_spl + dec_szl</text>
</g>
<!-- node4&#45;&gt;node5 -->
<g id="edge5" class="edge">
<title>node4&#45;&gt;node5</title>
<path fill="none" stroke="black" d="M267.75,-3752.31C267.75,-3744.73 267.75,-3735.6 267.75,-3727.04"/>
<polygon fill="black" stroke="black" points="271.25,-3727.04 267.75,-3717.04 264.25,-3727.04 271.25,-3727.04"/>
</g>
<!-- node6 -->
<g id="node8" class="node">
<title>node6</title>
<polygon fill="none" stroke="black" points="451.25,-3642.5 84.25,-3642.5 84.25,-3606.5 451.25,-3606.5 451.25,-3642.5"/>
<text xml:space="preserve" text-anchor="middle" x="267.75" y="-3619.07" font-family="Arial" font-size="14.00">dec_dlt = ((long)dec_detl*qq4_code4_table[ilr &gt;&gt; 2]) &gt;&gt; 15</text>
</g>
<!-- node5&#45;&gt;node6 -->
<g id="edge6" class="edge">
<title>node5&#45;&gt;node6</title>
<path fill="none" stroke="black" d="M267.75,-3679.31C267.75,-3671.73 267.75,-3662.6 267.75,-3654.04"/>
<polygon fill="black" stroke="black" points="271.25,-3654.04 267.75,-3644.04 264.25,-3654.04 271.25,-3654.04"/>
</g>
<!-- node7 -->
<g id="node9" class="node">
<title>node7</title>
<polygon fill="none" stroke="red" points="416.75,-3569.5 118.75,-3569.5 118.75,-3533.5 416.75,-3533.5 416.75,-3569.5"/>
<text xml:space="preserve" text-anchor="middle" x="267.75" y="-3546.07" font-family="Arial" font-size="14.00" fill="red">dl = ((long)dec_detl*qq6_code6_table[il]) &gt;&gt; 15</text>
</g>
<!-- node6&#45;&gt;node7 -->
<g id="edge7" class="edge">
<title>node6&#45;&gt;node7</title>
<path fill="none" stroke="black" d="M267.75,-3606.31C267.75,-3598.73 267.75,-3589.6 267.75,-3581.04"/>
<polygon fill="black" stroke="black" points="271.25,-3581.04 267.75,-3571.04 264.25,-3581.04 271.25,-3581.04"/>
</g>
<!-- node8 -->
<g id="node10" class="node">
<title>node8</title>
<polygon fill="none" stroke="black" points="320,-3496.5 215.5,-3496.5 215.5,-3460.5 320,-3460.5 320,-3496.5"/>
<text xml:space="preserve" text-anchor="middle" x="267.75" y="-3473.07" font-family="Arial" font-size="14.00">rl = dl + dec_sl</text>
</g>
<!-- node7&#45;&gt;node8 -->
<g id="edge8" class="edge">
<title>node7&#45;&gt;node8</title>
<path fill="none" stroke="black" d="M261.87,-3533.31C261.07,-3525.64 260.82,-3516.39 261.13,-3507.74"/>
<polygon fill="black" stroke="black" points="264.6,-3508.25 261.79,-3498.04 257.62,-3507.78 264.6,-3508.25"/>
</g>
<!-- node7&#45;&gt;node8 -->
<g id="edge64" class="edge">
<title>node7&#45;&gt;node8</title>
<path fill="none" stroke="red" d="M273.63,-3533.31C274.43,-3525.64 274.68,-3516.39 274.37,-3507.74"/>
<polygon fill="red" stroke="red" points="277.88,-3507.78 273.71,-3498.04 270.9,-3508.25 277.88,-3507.78"/>
</g>
<!-- node9 -->
<g id="node11" class="node">
<title>node9</title>
<polygon fill="none" stroke="black" points="359.38,-3423.5 176.12,-3423.5 176.12,-3387.5 359.38,-3387.5 359.38,-3423.5"/>
<text xml:space="preserve" text-anchor="middle" x="267.75" y="-3400.07" font-family="Arial" font-size="14.00">dec_nbl = logscl(ilr,dec_nbl)</text>
</g>
<!-- node8&#45;&gt;node9 -->
<g id="edge9" class="edge">
<title>node8&#45;&gt;node9</title>
<path fill="none" stroke="black" d="M267.75,-3460.31C267.75,-3452.73 267.75,-3443.6 267.75,-3435.04"/>
<polygon fill="black" stroke="black" points="271.25,-3435.04 267.75,-3425.04 264.25,-3435.04 271.25,-3435.04"/>
</g>
<!-- node10 -->
<g id="node12" class="node">
<title>node10</title>
<polygon fill="none" stroke="black" points="360.12,-3350.5 175.38,-3350.5 175.38,-3314.5 360.12,-3314.5 360.12,-3350.5"/>
<text xml:space="preserve" text-anchor="middle" x="267.75" y="-3327.07" font-family="Arial" font-size="14.00">dec_detl = scalel(dec_nbl,8)</text>
</g>
<!-- node9&#45;&gt;node10 -->
<g id="edge10" class="edge">
<title>node9&#45;&gt;node10</title>
<path fill="none" stroke="black" d="M267.75,-3387.31C267.75,-3379.73 267.75,-3370.6 267.75,-3362.04"/>
<polygon fill="black" stroke="black" points="271.25,-3362.04 267.75,-3352.04 264.25,-3362.04 271.25,-3362.04"/>
</g>
<!-- node11 -->
<g id="node13" class="node">
<title>node11</title>
<polygon fill="none" stroke="black" points="357.88,-3277.5 177.62,-3277.5 177.62,-3241.5 357.88,-3241.5 357.88,-3277.5"/>
<text xml:space="preserve" text-anchor="middle" x="267.75" y="-3254.07" font-family="Arial" font-size="14.00">dec_plt = dec_dlt + dec_szl</text>
</g>
<!-- node10&#45;&gt;node11 -->
<g id="edge11" class="edge">
<title>node10&#45;&gt;node11</title>
<path fill="none" stroke="black" d="M267.75,-3314.31C267.75,-3306.73 267.75,-3297.6 267.75,-3289.04"/>
<polygon fill="black" stroke="black" points="271.25,-3289.04 267.75,-3279.04 264.25,-3289.04 271.25,-3289.04"/>
</g>
<!-- node12 -->
<g id="node14" class="node">
<title>node12</title>
<polygon fill="none" stroke="black" points="400.62,-3204.5 134.88,-3204.5 134.88,-3168.5 400.62,-3168.5 400.62,-3204.5"/>
<text xml:space="preserve" text-anchor="middle" x="267.75" y="-3181.07" font-family="Arial" font-size="14.00">upzero(dec_dlt,dec_del_dltx,dec_del_bpl)</text>
</g>
<!-- node11&#45;&gt;node12 -->
<g id="edge12" class="edge">
<title>node11&#45;&gt;node12</title>
<path fill="none" stroke="black" d="M267.75,-3241.31C267.75,-3233.73 267.75,-3224.6 267.75,-3216.04"/>
<polygon fill="black" stroke="black" points="271.25,-3216.04 267.75,-3206.04 264.25,-3216.04 271.25,-3216.04"/>
</g>
<!-- node13 -->
<g id="node15" class="node">
<title>node13</title>
<polygon fill="none" stroke="black" points="459.5,-3131.5 76,-3131.5 76,-3095.5 459.5,-3095.5 459.5,-3131.5"/>
<text xml:space="preserve" text-anchor="middle" x="267.75" y="-3108.07" font-family="Arial" font-size="14.00">dec_al2 = uppol2(dec_al1,dec_al2,dec_plt,dec_plt1,dec_plt2)</text>
</g>
<!-- node12&#45;&gt;node13 -->
<g id="edge13" class="edge">
<title>node12&#45;&gt;node13</title>
<path fill="none" stroke="black" d="M267.75,-3168.31C267.75,-3160.73 267.75,-3151.6 267.75,-3143.04"/>
<polygon fill="black" stroke="black" points="271.25,-3143.04 267.75,-3133.04 264.25,-3143.04 271.25,-3143.04"/>
</g>
<!-- node14 -->
<g id="node16" class="node">
<title>node14</title>
<polygon fill="none" stroke="black" points="432.12,-3058.5 103.38,-3058.5 103.38,-3022.5 432.12,-3022.5 432.12,-3058.5"/>
<text xml:space="preserve" text-anchor="middle" x="267.75" y="-3035.07" font-family="Arial" font-size="14.00">dec_al1 = uppol1(dec_al1,dec_al2,dec_plt,dec_plt1)</text>
</g>
<!-- node13&#45;&gt;node14 -->
<g id="edge14" class="edge">
<title>node13&#45;&gt;node14</title>
<path fill="none" stroke="black" d="M267.75,-3095.31C267.75,-3087.73 267.75,-3078.6 267.75,-3070.04"/>
<polygon fill="black" stroke="black" points="271.25,-3070.04 267.75,-3060.04 264.25,-3070.04 271.25,-3070.04"/>
</g>
<!-- node15 -->
<g id="node17" class="node">
<title>node15</title>
<polygon fill="none" stroke="black" points="353,-2985.5 182.5,-2985.5 182.5,-2949.5 353,-2949.5 353,-2985.5"/>
<text xml:space="preserve" text-anchor="middle" x="267.75" y="-2962.07" font-family="Arial" font-size="14.00">dec_rlt = dec_sl + dec_dlt</text>
</g>
<!-- node14&#45;&gt;node15 -->
<g id="edge15" class="edge">
<title>node14&#45;&gt;node15</title>
<path fill="none" stroke="black" d="M267.75,-3022.31C267.75,-3014.73 267.75,-3005.6 267.75,-2997.04"/>
<polygon fill="black" stroke="black" points="271.25,-2997.04 267.75,-2987.04 264.25,-2997.04 271.25,-2997.04"/>
</g>
<!-- node16 -->
<g id="node18" class="node">
<title>node16</title>
<polygon fill="none" stroke="black" points="331.62,-2912.5 203.88,-2912.5 203.88,-2876.5 331.62,-2876.5 331.62,-2912.5"/>
<text xml:space="preserve" text-anchor="middle" x="267.75" y="-2889.07" font-family="Arial" font-size="14.00">dec_rlt2 = dec_rlt1</text>
</g>
<!-- node15&#45;&gt;node16 -->
<g id="edge16" class="edge">
<title>node15&#45;&gt;node16</title>
<path fill="none" stroke="black" d="M267.75,-2949.31C267.75,-2941.73 267.75,-2932.6 267.75,-2924.04"/>
<polygon fill="black" stroke="black" points="271.25,-2924.04 267.75,-2914.04 264.25,-2924.04 271.25,-2924.04"/>
</g>
<!-- node17 -->
<g id="node19" class="node">
<title>node17</title>
<polygon fill="none" stroke="black" points="327.88,-2839.5 207.62,-2839.5 207.62,-2803.5 327.88,-2803.5 327.88,-2839.5"/>
<text xml:space="preserve" text-anchor="middle" x="267.75" y="-2816.07" font-family="Arial" font-size="14.00">dec_rlt1 = dec_rlt</text>
</g>
<!-- node16&#45;&gt;node17 -->
<g id="edge17" class="edge">
<title>node16&#45;&gt;node17</title>
<path fill="none" stroke="black" d="M267.75,-2876.31C267.75,-2868.73 267.75,-2859.6 267.75,-2851.04"/>
<polygon fill="black" stroke="black" points="271.25,-2851.04 267.75,-2841.04 264.25,-2851.04 271.25,-2851.04"/>
</g>
<!-- node18 -->
<g id="node20" class="node">
<title>node18</title>
<polygon fill="none" stroke="black" points="334.62,-2766.5 200.88,-2766.5 200.88,-2730.5 334.62,-2730.5 334.62,-2766.5"/>
<text xml:space="preserve" text-anchor="middle" x="267.75" y="-2743.07" font-family="Arial" font-size="14.00">dec_plt2 = dec_plt1</text>
</g>
<!-- node17&#45;&gt;node18 -->
<g id="edge18" class="edge">
<title>node17&#45;&gt;node18</title>
<path fill="none" stroke="black" d="M267.75,-2803.31C267.75,-2795.73 267.75,-2786.6 267.75,-2778.04"/>
<polygon fill="black" stroke="black" points="271.25,-2778.04 267.75,-2768.04 264.25,-2778.04 271.25,-2778.04"/>
</g>
<!-- node19 -->
<g id="node21" class="node">
<title>node19</title>
<polygon fill="none" stroke="black" points="330.88,-2693.5 204.62,-2693.5 204.62,-2657.5 330.88,-2657.5 330.88,-2693.5"/>
<text xml:space="preserve" text-anchor="middle" x="267.75" y="-2670.07" font-family="Arial" font-size="14.00">dec_plt1 = dec_plt</text>
</g>
<!-- node18&#45;&gt;node19 -->
<g id="edge19" class="edge">
<title>node18&#45;&gt;node19</title>
<path fill="none" stroke="black" d="M267.75,-2730.31C267.75,-2722.73 267.75,-2713.6 267.75,-2705.04"/>
<polygon fill="black" stroke="black" points="271.25,-2705.04 267.75,-2695.04 264.25,-2705.04 271.25,-2705.04"/>
</g>
<!-- node20 -->
<g id="node22" class="node">
<title>node20</title>
<polygon fill="none" stroke="black" points="405.88,-2620.5 129.62,-2620.5 129.62,-2584.5 405.88,-2584.5 405.88,-2620.5"/>
<text xml:space="preserve" text-anchor="middle" x="267.75" y="-2597.07" font-family="Arial" font-size="14.00">dec_szh = filtez(dec_del_bph,dec_del_dhx)</text>
</g>
<!-- node19&#45;&gt;node20 -->
<g id="edge20" class="edge">
<title>node19&#45;&gt;node20</title>
<path fill="none" stroke="black" d="M267.75,-2657.31C267.75,-2649.73 267.75,-2640.6 267.75,-2632.04"/>
<polygon fill="black" stroke="black" points="271.25,-2632.04 267.75,-2622.04 264.25,-2632.04 271.25,-2632.04"/>
</g>
<!-- node21 -->
<g id="node23" class="node">
<title>node21</title>
<polygon fill="none" stroke="black" points="434,-2547.5 101.5,-2547.5 101.5,-2511.5 434,-2511.5 434,-2547.5"/>
<text xml:space="preserve" text-anchor="middle" x="267.75" y="-2524.07" font-family="Arial" font-size="14.00">dec_sph = filtep(dec_rh1,dec_ah1,dec_rh2,dec_ah2)</text>
</g>
<!-- node20&#45;&gt;node21 -->
<g id="edge21" class="edge">
<title>node20&#45;&gt;node21</title>
<path fill="none" stroke="black" d="M267.75,-2584.31C267.75,-2576.73 267.75,-2567.6 267.75,-2559.04"/>
<polygon fill="black" stroke="black" points="271.25,-2559.04 267.75,-2549.04 264.25,-2559.04 271.25,-2559.04"/>
</g>
<!-- node22 -->
<g id="node24" class="node">
<title>node22</title>
<polygon fill="none" stroke="black" points="363.88,-2474.5 171.62,-2474.5 171.62,-2438.5 363.88,-2438.5 363.88,-2474.5"/>
<text xml:space="preserve" text-anchor="middle" x="267.75" y="-2451.07" font-family="Arial" font-size="14.00">dec_sh = dec_sph + dec_szh</text>
</g>
<!-- node21&#45;&gt;node22 -->
<g id="edge22" class="edge">
<title>node21&#45;&gt;node22</title>
<path fill="none" stroke="black" d="M267.75,-2511.31C267.75,-2503.73 267.75,-2494.6 267.75,-2486.04"/>
<polygon fill="black" stroke="black" points="271.25,-2486.04 267.75,-2476.04 264.25,-2486.04 271.25,-2486.04"/>
</g>
<!-- node23 -->
<g id="node25" class="node">
<title>node23</title>
<polygon fill="none" stroke="black" points="441.88,-2401.5 93.62,-2401.5 93.62,-2365.5 441.88,-2365.5 441.88,-2401.5"/>
<text xml:space="preserve" text-anchor="middle" x="267.75" y="-2378.07" font-family="Arial" font-size="14.00">dec_dh = ((long)dec_deth*qq2_code2_table[ih]) &gt;&gt; 15L</text>
</g>
<!-- node22&#45;&gt;node23 -->
<g id="edge23" class="edge">
<title>node22&#45;&gt;node23</title>
<path fill="none" stroke="black" d="M267.75,-2438.31C267.75,-2430.73 267.75,-2421.6 267.75,-2413.04"/>
<polygon fill="black" stroke="black" points="271.25,-2413.04 267.75,-2403.04 264.25,-2413.04 271.25,-2413.04"/>
</g>
<!-- node24 -->
<g id="node26" class="node">
<title>node24</title>
<polygon fill="none" stroke="black" points="366.5,-2328.5 169,-2328.5 169,-2292.5 366.5,-2292.5 366.5,-2328.5"/>
<text xml:space="preserve" text-anchor="middle" x="267.75" y="-2305.07" font-family="Arial" font-size="14.00">dec_nbh = logsch(ih,dec_nbh)</text>
</g>
<!-- node23&#45;&gt;node24 -->
<g id="edge24" class="edge">
<title>node23&#45;&gt;node24</title>
<path fill="none" stroke="black" d="M267.75,-2365.31C267.75,-2357.73 267.75,-2348.6 267.75,-2340.04"/>
<polygon fill="black" stroke="black" points="271.25,-2340.04 267.75,-2330.04 264.25,-2340.04 271.25,-2340.04"/>
</g>
<!-- node25 -->
<g id="node27" class="node">
<title>node25</title>
<polygon fill="none" stroke="black" points="368.38,-2255.5 167.12,-2255.5 167.12,-2219.5 368.38,-2219.5 368.38,-2255.5"/>
<text xml:space="preserve" text-anchor="middle" x="267.75" y="-2232.07" font-family="Arial" font-size="14.00">dec_deth = scalel(dec_nbh,10)</text>
</g>
<!-- node24&#45;&gt;node25 -->
<g id="edge25" class="edge">
<title>node24&#45;&gt;node25</title>
<path fill="none" stroke="black" d="M267.75,-2292.31C267.75,-2284.73 267.75,-2275.6 267.75,-2267.04"/>
<polygon fill="black" stroke="black" points="271.25,-2267.04 267.75,-2257.04 264.25,-2267.04 271.25,-2267.04"/>
</g>
<!-- node26 -->
<g id="node28" class="node">
<title>node26</title>
<polygon fill="none" stroke="black" points="360.88,-2182.5 174.62,-2182.5 174.62,-2146.5 360.88,-2146.5 360.88,-2182.5"/>
<text xml:space="preserve" text-anchor="middle" x="267.75" y="-2159.07" font-family="Arial" font-size="14.00">dec_ph = dec_dh + dec_szh</text>
</g>
<!-- node25&#45;&gt;node26 -->
<g id="edge26" class="edge">
<title>node25&#45;&gt;node26</title>
<path fill="none" stroke="black" d="M267.75,-2219.31C267.75,-2211.73 267.75,-2202.6 267.75,-2194.04"/>
<polygon fill="black" stroke="black" points="271.25,-2194.04 267.75,-2184.04 264.25,-2194.04 271.25,-2194.04"/>
</g>
<!-- node27 -->
<g id="node29" class="node">
<title>node27</title>
<polygon fill="none" stroke="black" points="403.62,-2109.5 131.88,-2109.5 131.88,-2073.5 403.62,-2073.5 403.62,-2109.5"/>
<text xml:space="preserve" text-anchor="middle" x="267.75" y="-2086.07" font-family="Arial" font-size="14.00">upzero(dec_dh,dec_del_dhx,dec_del_bph)</text>
</g>
<!-- node26&#45;&gt;node27 -->
<g id="edge27" class="edge">
<title>node26&#45;&gt;node27</title>
<path fill="none" stroke="black" d="M267.75,-2146.31C267.75,-2138.73 267.75,-2129.6 267.75,-2121.04"/>
<polygon fill="black" stroke="black" points="271.25,-2121.04 267.75,-2111.04 264.25,-2121.04 271.25,-2121.04"/>
</g>
<!-- node28 -->
<g id="node30" class="node">
<title>node28</title>
<polygon fill="none" stroke="black" points="467.38,-2036.5 68.12,-2036.5 68.12,-2000.5 467.38,-2000.5 467.38,-2036.5"/>
<text xml:space="preserve" text-anchor="middle" x="267.75" y="-2013.08" font-family="Arial" font-size="14.00">dec_ah2 = uppol2(dec_ah1,dec_ah2,dec_ph,dec_ph1,dec_ph2)</text>
</g>
<!-- node27&#45;&gt;node28 -->
<g id="edge28" class="edge">
<title>node27&#45;&gt;node28</title>
<path fill="none" stroke="black" d="M267.75,-2073.31C267.75,-2065.73 267.75,-2056.6 267.75,-2048.04"/>
<polygon fill="black" stroke="black" points="271.25,-2048.04 267.75,-2038.04 264.25,-2048.04 271.25,-2048.04"/>
</g>
<!-- node29 -->
<g id="node31" class="node">
<title>node29</title>
<polygon fill="none" stroke="black" points="439.62,-1963.5 95.88,-1963.5 95.88,-1927.5 439.62,-1927.5 439.62,-1963.5"/>
<text xml:space="preserve" text-anchor="middle" x="267.75" y="-1940.08" font-family="Arial" font-size="14.00">dec_ah1 = uppol1(dec_ah1,dec_ah2,dec_ph,dec_ph1)</text>
</g>
<!-- node28&#45;&gt;node29 -->
<g id="edge29" class="edge">
<title>node28&#45;&gt;node29</title>
<path fill="none" stroke="black" d="M267.75,-2000.31C267.75,-1992.73 267.75,-1983.6 267.75,-1975.04"/>
<polygon fill="black" stroke="black" points="271.25,-1975.04 267.75,-1965.04 264.25,-1975.04 271.25,-1975.04"/>
</g>
<!-- node30 -->
<g id="node32" class="node">
<title>node30</title>
<polygon fill="none" stroke="black" points="341.38,-1890.5 194.12,-1890.5 194.12,-1854.5 341.38,-1854.5 341.38,-1890.5"/>
<text xml:space="preserve" text-anchor="middle" x="267.75" y="-1867.08" font-family="Arial" font-size="14.00">rh = dec_sh + dec_dh</text>
</g>
<!-- node29&#45;&gt;node30 -->
<g id="edge30" class="edge">
<title>node29&#45;&gt;node30</title>
<path fill="none" stroke="black" d="M267.75,-1927.31C267.75,-1919.73 267.75,-1910.6 267.75,-1902.04"/>
<polygon fill="black" stroke="black" points="271.25,-1902.04 267.75,-1892.04 264.25,-1902.04 271.25,-1902.04"/>
</g>
<!-- node31 -->
<g id="node33" class="node">
<title>node31</title>
<polygon fill="none" stroke="black" points="332.38,-1817.5 203.12,-1817.5 203.12,-1781.5 332.38,-1781.5 332.38,-1817.5"/>
<text xml:space="preserve" text-anchor="middle" x="267.75" y="-1794.08" font-family="Arial" font-size="14.00">dec_rh2 = dec_rh1</text>
</g>
<!-- node30&#45;&gt;node31 -->
<g id="edge31" class="edge">
<title>node30&#45;&gt;node31</title>
<path fill="none" stroke="black" d="M267.75,-1854.31C267.75,-1846.73 267.75,-1837.6 267.75,-1829.04"/>
<polygon fill="black" stroke="black" points="271.25,-1829.04 267.75,-1819.04 264.25,-1829.04 271.25,-1829.04"/>
</g>
<!-- node32 -->
<g id="node34" class="node">
<title>node32</title>
<polygon fill="none" stroke="black" points="314,-1744.5 221.5,-1744.5 221.5,-1708.5 314,-1708.5 314,-1744.5"/>
<text xml:space="preserve" text-anchor="middle" x="267.75" y="-1721.08" font-family="Arial" font-size="14.00">dec_rh1 = rh</text>
</g>
<!-- node31&#45;&gt;node32 -->
<g id="edge32" class="edge">
<title>node31&#45;&gt;node32</title>
<path fill="none" stroke="black" d="M267.75,-1781.31C267.75,-1773.73 267.75,-1764.6 267.75,-1756.04"/>
<polygon fill="black" stroke="black" points="271.25,-1756.04 267.75,-1746.04 264.25,-1756.04 271.25,-1756.04"/>
</g>
<!-- node33 -->
<g id="node35" class="node">
<title>node33</title>
<polygon fill="none" stroke="black" points="335.38,-1671.5 200.12,-1671.5 200.12,-1635.5 335.38,-1635.5 335.38,-1671.5"/>
<text xml:space="preserve" text-anchor="middle" x="267.75" y="-1648.08" font-family="Arial" font-size="14.00">dec_ph2 = dec_ph1</text>
</g>
<!-- node32&#45;&gt;node33 -->
<g id="edge33" class="edge">
<title>node32&#45;&gt;node33</title>
<path fill="none" stroke="black" d="M267.75,-1708.31C267.75,-1700.73 267.75,-1691.6 267.75,-1683.04"/>
<polygon fill="black" stroke="black" points="271.25,-1683.04 267.75,-1673.04 264.25,-1683.04 271.25,-1683.04"/>
</g>
<!-- node34 -->
<g id="node36" class="node">
<title>node34</title>
<polygon fill="none" stroke="black" points="331.62,-1598.5 203.88,-1598.5 203.88,-1562.5 331.62,-1562.5 331.62,-1598.5"/>
<text xml:space="preserve" text-anchor="middle" x="267.75" y="-1575.08" font-family="Arial" font-size="14.00">dec_ph1 = dec_ph</text>
</g>
<!-- node33&#45;&gt;node34 -->
<g id="edge34" class="edge">
<title>node33&#45;&gt;node34</title>
<path fill="none" stroke="black" d="M267.75,-1635.31C267.75,-1627.73 267.75,-1618.6 267.75,-1610.04"/>
<polygon fill="black" stroke="black" points="271.25,-1610.04 267.75,-1600.04 264.25,-1610.04 271.25,-1610.04"/>
</g>
<!-- node35 -->
<g id="node37" class="node">
<title>node35</title>
<polygon fill="none" stroke="black" points="306.5,-1525.5 229,-1525.5 229,-1489.5 306.5,-1489.5 306.5,-1525.5"/>
<text xml:space="preserve" text-anchor="middle" x="267.75" y="-1502.08" font-family="Arial" font-size="14.00">xd = rl &#45; rh</text>
</g>
<!-- node34&#45;&gt;node35 -->
<g id="edge35" class="edge">
<title>node34&#45;&gt;node35</title>
<path fill="none" stroke="black" d="M267.75,-1562.31C267.75,-1554.73 267.75,-1545.6 267.75,-1537.04"/>
<polygon fill="black" stroke="black" points="271.25,-1537.04 267.75,-1527.04 264.25,-1537.04 271.25,-1537.04"/>
</g>
<!-- node36 -->
<g id="node38" class="node">
<title>node36</title>
<polygon fill="none" stroke="black" points="308,-1452.5 227.5,-1452.5 227.5,-1416.5 308,-1416.5 308,-1452.5"/>
<text xml:space="preserve" text-anchor="middle" x="267.75" y="-1429.08" font-family="Arial" font-size="14.00">xs = rl + rh</text>
</g>
<!-- node35&#45;&gt;node36 -->
<g id="edge36" class="edge">
<title>node35&#45;&gt;node36</title>
<path fill="none" stroke="black" d="M267.75,-1489.31C267.75,-1481.73 267.75,-1472.6 267.75,-1464.04"/>
<polygon fill="black" stroke="black" points="271.25,-1464.04 267.75,-1454.04 264.25,-1464.04 271.25,-1464.04"/>
</g>
<!-- node37 -->
<g id="node39" class="node">
<title>node37</title>
<polygon fill="none" stroke="black" points="302.75,-1379.5 232.75,-1379.5 232.75,-1343.5 302.75,-1343.5 302.75,-1379.5"/>
<text xml:space="preserve" text-anchor="middle" x="267.75" y="-1356.08" font-family="Arial" font-size="14.00">h_ptr = h</text>
</g>
<!-- node36&#45;&gt;node37 -->
<g id="edge37" class="edge">
<title>node36&#45;&gt;node37</title>
<path fill="none" stroke="black" d="M267.75,-1416.31C267.75,-1408.73 267.75,-1399.6 267.75,-1391.04"/>
<polygon fill="black" stroke="black" points="271.25,-1391.04 267.75,-1381.04 264.25,-1391.04 271.25,-1391.04"/>
</g>
<!-- node38 -->
<g id="node40" class="node">
<title>node38</title>
<polygon fill="none" stroke="black" points="326,-1306.5 209.5,-1306.5 209.5,-1270.5 326,-1270.5 326,-1306.5"/>
<text xml:space="preserve" text-anchor="middle" x="267.75" y="-1283.08" font-family="Arial" font-size="14.00">ac_ptr = accumc</text>
</g>
<!-- node37&#45;&gt;node38 -->
<g id="edge38" class="edge">
<title>node37&#45;&gt;node38</title>
<path fill="none" stroke="black" d="M267.75,-1343.31C267.75,-1335.73 267.75,-1326.6 267.75,-1318.04"/>
<polygon fill="black" stroke="black" points="271.25,-1318.04 267.75,-1308.04 264.25,-1318.04 271.25,-1318.04"/>
</g>
<!-- node39 -->
<g id="node41" class="node">
<title>node39</title>
<polygon fill="none" stroke="black" points="326.75,-1233.5 208.75,-1233.5 208.75,-1197.5 326.75,-1197.5 326.75,-1233.5"/>
<text xml:space="preserve" text-anchor="middle" x="267.75" y="-1210.08" font-family="Arial" font-size="14.00">ad_ptr = accumd</text>
</g>
<!-- node38&#45;&gt;node39 -->
<g id="edge39" class="edge">
<title>node38&#45;&gt;node39</title>
<path fill="none" stroke="black" d="M267.75,-1270.31C267.75,-1262.73 267.75,-1253.6 267.75,-1245.04"/>
<polygon fill="black" stroke="black" points="271.25,-1245.04 267.75,-1235.04 264.25,-1245.04 271.25,-1245.04"/>
</g>
<!-- node40 -->
<g id="node42" class="node">
<title>node40</title>
<polygon fill="none" stroke="black" points="356,-1160.5 179.5,-1160.5 179.5,-1124.5 356,-1124.5 356,-1160.5"/>
<text xml:space="preserve" text-anchor="middle" x="267.75" y="-1137.08" font-family="Arial" font-size="14.00">xa1 = (long)xd * (*h_ptr++)</text>
</g>
<!-- node39&#45;&gt;node40 -->
<g id="edge40" class="edge">
<title>node39&#45;&gt;node40</title>
<path fill="none" stroke="black" d="M267.75,-1197.31C267.75,-1189.73 267.75,-1180.6 267.75,-1172.04"/>
<polygon fill="black" stroke="black" points="271.25,-1172.04 267.75,-1162.04 264.25,-1172.04 271.25,-1172.04"/>
</g>
<!-- node41 -->
<g id="node43" class="node">
<title>node41</title>
<polygon fill="none" stroke="black" points="355.62,-1087.5 179.88,-1087.5 179.88,-1051.5 355.62,-1051.5 355.62,-1087.5"/>
<text xml:space="preserve" text-anchor="middle" x="267.75" y="-1064.08" font-family="Arial" font-size="14.00">xa2 = (long)xs * (*h_ptr++)</text>
</g>
<!-- node40&#45;&gt;node41 -->
<g id="edge41" class="edge">
<title>node40&#45;&gt;node41</title>
<path fill="none" stroke="black" d="M267.75,-1124.31C267.75,-1116.73 267.75,-1107.6 267.75,-1099.04"/>
<polygon fill="black" stroke="black" points="271.25,-1099.04 267.75,-1089.04 264.25,-1099.04 271.25,-1099.04"/>
</g>
<!-- node42 -->
<g id="node44" class="node">
<title>node42</title>
<polygon fill="none" stroke="black" points="294.75,-1014.5 240.75,-1014.5 240.75,-978.5 294.75,-978.5 294.75,-1014.5"/>
<text xml:space="preserve" text-anchor="middle" x="267.75" y="-991.08" font-family="Arial" font-size="14.00">i = 0</text>
</g>
<!-- node41&#45;&gt;node42 -->
<g id="edge42" class="edge">
<title>node41&#45;&gt;node42</title>
<path fill="none" stroke="black" d="M267.75,-1051.31C267.75,-1043.73 267.75,-1034.6 267.75,-1026.04"/>
<polygon fill="black" stroke="black" points="271.25,-1026.04 267.75,-1016.04 264.25,-1026.04 271.25,-1026.04"/>
</g>
<!-- node43 -->
<g id="node45" class="node">
<title>node43</title>
<polygon fill="none" stroke="black" points="294.75,-941.5 240.75,-941.5 240.75,-905.5 294.75,-905.5 294.75,-941.5"/>
<text xml:space="preserve" text-anchor="middle" x="267.75" y="-918.08" font-family="Arial" font-size="14.00">i &lt; 10</text>
</g>
<!-- node42&#45;&gt;node43 -->
<g id="edge43" class="edge">
<title>node42&#45;&gt;node43</title>
<path fill="none" stroke="black" d="M267.75,-978.31C267.75,-970.73 267.75,-961.6 267.75,-953.04"/>
<polygon fill="black" stroke="black" points="271.25,-953.04 267.75,-943.04 264.25,-953.04 271.25,-953.04"/>
</g>
<!-- node44 -->
<g id="node46" class="node">
<title>node44</title>
<polygon fill="none" stroke="black" points="240.12,-853.75 1.37,-853.75 1.37,-817.75 240.12,-817.75 240.12,-853.75"/>
<text xml:space="preserve" text-anchor="middle" x="120.75" y="-830.33" font-family="Arial" font-size="14.00">xa1 += (long)(*ac_ptr++) * (*h_ptr++)</text>
</g>
<!-- node43&#45;&gt;node44 -->
<g id="edge44" class="edge">
<title>node43&#45;&gt;node44</title>
<path fill="none" stroke="black" d="M240.44,-906.57C217.94,-893.45 185.72,-874.65 160.38,-859.87"/>
<polygon fill="black" stroke="black" points="162.4,-856.99 152,-854.98 158.87,-863.04 162.4,-856.99"/>
<text xml:space="preserve" text-anchor="middle" x="221.29" y="-874.2" font-family="Arial" font-size="14.00">True</text>
</g>
<!-- node47 -->
<g id="node49" class="node">
<title>node47</title>
<polygon fill="none" stroke="black" points="517.88,-853.75 295.62,-853.75 295.62,-817.75 517.88,-817.75 517.88,-853.75"/>
<text xml:space="preserve" text-anchor="middle" x="406.75" y="-830.33" font-family="Arial" font-size="14.00">xa1 += (long)(*ac_ptr) * (*h_ptr++)</text>
</g>
<!-- node43&#45;&gt;node47 -->
<g id="edge48" class="edge">
<title>node43&#45;&gt;node47</title>
<path fill="none" stroke="black" d="M295.21,-905.56C316.26,-892.58 345.54,-874.51 368.82,-860.15"/>
<polygon fill="black" stroke="black" points="370.43,-863.27 377.1,-855.04 366.75,-857.31 370.43,-863.27"/>
<text xml:space="preserve" text-anchor="middle" x="366.2" y="-874.2" font-family="Arial" font-size="14.00">False</text>
</g>
<!-- node45 -->
<g id="node47" class="node">
<title>node45</title>
<polygon fill="none" stroke="black" points="239.5,-780.75 0,-780.75 0,-744.75 239.5,-744.75 239.5,-780.75"/>
<text xml:space="preserve" text-anchor="middle" x="119.75" y="-757.33" font-family="Arial" font-size="14.00">xa2 += (long)(*ad_ptr++) * (*h_ptr++)</text>
</g>
<!-- node44&#45;&gt;node45 -->
<g id="edge45" class="edge">
<title>node44&#45;&gt;node45</title>
<path fill="none" stroke="black" d="M120.51,-817.56C120.4,-809.98 120.27,-800.85 120.15,-792.29"/>
<polygon fill="black" stroke="black" points="123.65,-792.24 120.01,-782.29 116.65,-792.34 123.65,-792.24"/>
</g>
<!-- node46 -->
<g id="node48" class="node">
<title>node46</title>
<polygon fill="none" stroke="black" points="251.75,-707.75 197.75,-707.75 197.75,-671.75 251.75,-671.75 251.75,-707.75"/>
<text xml:space="preserve" text-anchor="middle" x="224.75" y="-684.33" font-family="Arial" font-size="14.00">i++</text>
</g>
<!-- node45&#45;&gt;node46 -->
<g id="edge46" class="edge">
<title>node45&#45;&gt;node46</title>
<path fill="none" stroke="black" d="M145.44,-744.38C158.78,-735.36 175.29,-724.19 189.79,-714.39"/>
<polygon fill="black" stroke="black" points="191.39,-717.53 197.71,-709.03 187.47,-711.74 191.39,-717.53"/>
</g>
<!-- node46&#45;&gt;node43 -->
<g id="edge47" class="edge">
<title>node46&#45;&gt;node43</title>
<path fill="none" stroke="black" d="M234.2,-708.24C239.34,-718.57 245.34,-732.07 248.75,-744.75 262.5,-795.96 266.36,-857.99 267.41,-893.59"/>
<polygon fill="black" stroke="black" points="263.91,-893.58 267.64,-903.5 270.9,-893.42 263.91,-893.58"/>
</g>
<!-- node48 -->
<g id="node50" class="node">
<title>node48</title>
<polygon fill="none" stroke="black" points="519.25,-780.75 296.25,-780.75 296.25,-744.75 519.25,-744.75 519.25,-780.75"/>
<text xml:space="preserve" text-anchor="middle" x="407.75" y="-757.33" font-family="Arial" font-size="14.00">xa2 += (long)(*ad_ptr) * (*h_ptr++)</text>
</g>
<!-- node47&#45;&gt;node48 -->
<g id="edge49" class="edge">
<title>node47&#45;&gt;node48</title>
<path fill="none" stroke="black" d="M406.99,-817.56C407.1,-809.98 407.23,-800.85 407.35,-792.29"/>
<polygon fill="black" stroke="black" points="410.85,-792.34 407.49,-782.29 403.85,-792.24 410.85,-792.34"/>
</g>
<!-- node49 -->
<g id="node51" class="node">
<title>node49</title>
<polygon fill="none" stroke="black" points="470.5,-707.75 345,-707.75 345,-671.75 470.5,-671.75 470.5,-707.75"/>
<text xml:space="preserve" text-anchor="middle" x="407.75" y="-684.33" font-family="Arial" font-size="14.00">xout1 = xa1 &gt;&gt; 14</text>
</g>
<!-- node48&#45;&gt;node49 -->
<g id="edge50" class="edge">
<title>node48&#45;&gt;node49</title>
<path fill="none" stroke="black" d="M407.75,-744.56C407.75,-736.98 407.75,-727.85 407.75,-719.29"/>
<polygon fill="black" stroke="black" points="411.25,-719.29 407.75,-709.29 404.25,-719.29 411.25,-719.29"/>
</g>
<!-- node50 -->
<g id="node52" class="node">
<title>node50</title>
<polygon fill="none" stroke="black" points="470.5,-634.75 345,-634.75 345,-598.75 470.5,-598.75 470.5,-634.75"/>
<text xml:space="preserve" text-anchor="middle" x="407.75" y="-611.33" font-family="Arial" font-size="14.00">xout2 = xa2 &gt;&gt; 14</text>
</g>
<!-- node49&#45;&gt;node50 -->
<g id="edge51" class="edge">
<title>node49&#45;&gt;node50</title>
<path fill="none" stroke="black" d="M407.75,-671.56C407.75,-663.98 407.75,-654.85 407.75,-646.29"/>
<polygon fill="black" stroke="black" points="411.25,-646.29 407.75,-636.29 404.25,-646.29 411.25,-646.29"/>
</g>
<!-- node51 -->
<g id="node53" class="node">
<title>node51</title>
<polygon fill="none" stroke="black" points="474.62,-561.75 340.88,-561.75 340.88,-525.75 474.62,-525.75 474.62,-561.75"/>
<text xml:space="preserve" text-anchor="middle" x="407.75" y="-538.33" font-family="Arial" font-size="14.00">ac_ptr1 = ac_ptr &#45; 1</text>
</g>
<!-- node50&#45;&gt;node51 -->
<g id="edge52" class="edge">
<title>node50&#45;&gt;node51</title>
<path fill="none" stroke="black" d="M407.75,-598.56C407.75,-590.98 407.75,-581.85 407.75,-573.29"/>
<polygon fill="black" stroke="black" points="411.25,-573.29 407.75,-563.29 404.25,-573.29 411.25,-573.29"/>
</g>
<!-- node52 -->
<g id="node54" class="node">
<title>node52</title>
<polygon fill="none" stroke="black" points="475.38,-488.75 340.12,-488.75 340.12,-452.75 475.38,-452.75 475.38,-488.75"/>
<text xml:space="preserve" text-anchor="middle" x="407.75" y="-465.32" font-family="Arial" font-size="14.00">ad_ptr1 = ad_ptr &#45; 1</text>
</g>
<!-- node51&#45;&gt;node52 -->
<g id="edge53" class="edge">
<title>node51&#45;&gt;node52</title>
<path fill="none" stroke="black" d="M407.75,-525.56C407.75,-517.98 407.75,-508.85 407.75,-500.29"/>
<polygon fill="black" stroke="black" points="411.25,-500.29 407.75,-490.29 404.25,-500.29 411.25,-500.29"/>
</g>
<!-- node53 -->
<g id="node55" class="node">
<title>node53</title>
<polygon fill="none" stroke="black" points="434.75,-415.75 380.75,-415.75 380.75,-379.75 434.75,-379.75 434.75,-415.75"/>
<text xml:space="preserve" text-anchor="middle" x="407.75" y="-392.32" font-family="Arial" font-size="14.00">i = 0</text>
</g>
<!-- node52&#45;&gt;node53 -->
<g id="edge54" class="edge">
<title>node52&#45;&gt;node53</title>
<path fill="none" stroke="black" d="M407.75,-452.56C407.75,-444.98 407.75,-435.85 407.75,-427.29"/>
<polygon fill="black" stroke="black" points="411.25,-427.29 407.75,-417.29 404.25,-427.29 411.25,-427.29"/>
</g>
<!-- node54 -->
<g id="node56" class="node">
<title>node54</title>
<polygon fill="none" stroke="black" points="434.75,-342.75 380.75,-342.75 380.75,-306.75 434.75,-306.75 434.75,-342.75"/>
<text xml:space="preserve" text-anchor="middle" x="407.75" y="-319.32" font-family="Arial" font-size="14.00">i &lt; 10</text>
</g>
<!-- node53&#45;&gt;node54 -->
<g id="edge55" class="edge">
<title>node53&#45;&gt;node54</title>
<path fill="none" stroke="black" d="M407.75,-379.56C407.75,-371.98 407.75,-362.85 407.75,-354.29"/>
<polygon fill="black" stroke="black" points="411.25,-354.29 407.75,-344.29 404.25,-354.29 411.25,-354.29"/>
</g>
<!-- node55 -->
<g id="node57" class="node">
<title>node55</title>
<polygon fill="none" stroke="black" points="380.12,-255 237.38,-255 237.38,-219 380.12,-219 380.12,-255"/>
<text xml:space="preserve" text-anchor="middle" x="308.75" y="-231.57" font-family="Arial" font-size="14.00">*ac_ptr&#45;&#45; = *ac_ptr1&#45;&#45;</text>
</g>
<!-- node54&#45;&gt;node55 -->
<g id="edge56" class="edge">
<title>node54&#45;&gt;node55</title>
<path fill="none" stroke="black" d="M386.84,-306.42C380.15,-300.82 372.73,-294.56 366,-288.75 356.32,-280.4 345.82,-271.16 336.5,-262.87"/>
<polygon fill="black" stroke="black" points="338.9,-260.33 329.11,-256.29 334.25,-265.55 338.9,-260.33"/>
<text xml:space="preserve" text-anchor="middle" x="379.88" y="-275.45" font-family="Arial" font-size="14.00">True</text>
</g>
<!-- node58 -->
<g id="node60" class="node">
<title>node58</title>
<polygon fill="none" stroke="black" points="524.12,-255 435.38,-255 435.38,-219 524.12,-219 524.12,-255"/>
<text xml:space="preserve" text-anchor="middle" x="479.75" y="-231.57" font-family="Arial" font-size="14.00">*ac_ptr = xd</text>
</g>
<!-- node54&#45;&gt;node58 -->
<g id="edge60" class="edge">
<title>node54&#45;&gt;node58</title>
<path fill="none" stroke="black" d="M422.32,-306.4C432.57,-294.19 446.46,-277.65 458.01,-263.89"/>
<polygon fill="black" stroke="black" points="460.48,-266.4 464.23,-256.49 455.12,-261.89 460.48,-266.4"/>
<text xml:space="preserve" text-anchor="middle" x="466.7" y="-275.45" font-family="Arial" font-size="14.00">False</text>
</g>
<!-- node56 -->
<g id="node58" class="node">
<title>node56</title>
<polygon fill="none" stroke="black" points="379.88,-182 235.62,-182 235.62,-146 379.88,-146 379.88,-182"/>
<text xml:space="preserve" text-anchor="middle" x="307.75" y="-158.57" font-family="Arial" font-size="14.00">*ad_ptr&#45;&#45; = *ad_ptr1&#45;&#45;</text>
</g>
<!-- node55&#45;&gt;node56 -->
<g id="edge57" class="edge">
<title>node55&#45;&gt;node56</title>
<path fill="none" stroke="black" d="M308.51,-218.81C308.4,-211.23 308.27,-202.1 308.15,-193.54"/>
<polygon fill="black" stroke="black" points="311.65,-193.49 308.01,-183.54 304.65,-193.59 311.65,-193.49"/>
</g>
<!-- node57 -->
<g id="node59" class="node">
<title>node57</title>
<polygon fill="none" stroke="black" points="403.75,-109 349.75,-109 349.75,-73 403.75,-73 403.75,-109"/>
<text xml:space="preserve" text-anchor="middle" x="376.75" y="-85.58" font-family="Arial" font-size="14.00">i++</text>
</g>
<!-- node56&#45;&gt;node57 -->
<g id="edge58" class="edge">
<title>node56&#45;&gt;node57</title>
<path fill="none" stroke="black" d="M324.45,-145.81C332.84,-137.18 343.17,-126.56 352.42,-117.03"/>
<polygon fill="black" stroke="black" points="354.69,-119.72 359.15,-110.11 349.67,-114.85 354.69,-119.72"/>
</g>
<!-- node57&#45;&gt;node54 -->
<g id="edge59" class="edge">
<title>node57&#45;&gt;node54</title>
<path fill="none" stroke="black" d="M381.14,-109.41C383.67,-119.95 386.73,-133.68 388.75,-146 397.31,-198.19 402.89,-259.66 405.67,-294.93"/>
<polygon fill="black" stroke="black" points="402.17,-295.04 406.42,-304.74 409.15,-294.51 402.17,-295.04"/>
</g>
<!-- node59 -->
<g id="node61" class="node">
<title>node59</title>
<polygon fill="none" stroke="black" points="524.12,-182 435.38,-182 435.38,-146 524.12,-146 524.12,-182"/>
<text xml:space="preserve" text-anchor="middle" x="479.75" y="-158.57" font-family="Arial" font-size="14.00">*ad_ptr = xs</text>
</g>
<!-- node58&#45;&gt;node59 -->
<g id="edge61" class="edge">
<title>node58&#45;&gt;node59</title>
<path fill="none" stroke="black" d="M479.75,-218.81C479.75,-211.23 479.75,-202.1 479.75,-193.54"/>
<polygon fill="black" stroke="black" points="483.25,-193.54 479.75,-183.54 476.25,-193.54 483.25,-193.54"/>
</g>
<!-- node60 -->
<g id="node62" class="node">
<title>node60</title>
<polygon fill="none" stroke="black" points="506.75,-109 452.75,-109 452.75,-73 506.75,-73 506.75,-109"/>
<text xml:space="preserve" text-anchor="middle" x="479.75" y="-85.58" font-family="Arial" font-size="14.00">return</text>
</g>
<!-- node59&#45;&gt;node60 -->
<g id="edge62" class="edge">
<title>node59&#45;&gt;node60</title>
<path fill="none" stroke="black" d="M479.75,-145.81C479.75,-138.23 479.75,-129.1 479.75,-120.54"/>
<polygon fill="black" stroke="black" points="483.25,-120.54 479.75,-110.54 476.25,-120.54 483.25,-120.54"/>
</g>
<!-- node60&#45;&gt;end -->
<g id="edge63" class="edge">
<title>node60&#45;&gt;end</title>
<path fill="none" stroke="black" d="M479.75,-72.81C479.75,-65.23 479.75,-56.1 479.75,-47.54"/>
<polygon fill="black" stroke="black" points="483.25,-47.54 479.75,-37.54 476.25,-47.54 483.25,-47.54"/>
</g>
</g>
</svg>
