<?xml version="1.0" encoding="UTF-8" standalone="no"?>
<!DOCTYPE svg PUBLIC "-//W3C//DTD SVG 1.1//EN"
 "http://www.w3.org/Graphics/SVG/1.1/DTD/svg11.dtd">
<!-- Generated by graphviz version 13.1.2 (20250808.2320)
 -->
<!-- Title: fft Pages: 1 -->
<svg width="203pt" height="332pt"
 viewBox="0.00 0.00 203.00 332.00" xmlns="http://www.w3.org/2000/svg" xmlns:xlink="http://www.w3.org/1999/xlink">
<g id="graph0" class="graph" transform="scale(1 1) rotate(0) translate(4 328)">
<title>fft</title>
<polygon fill="white" stroke="none" points="-4,4 -4,-328 199.25,-328 199.25,4 -4,4"/>
<!-- start -->
<g id="node1" class="node">
<title>start</title>
<ellipse fill="none" stroke="black" cx="97.62" cy="-306" rx="39.59" ry="18"/>
<text xml:space="preserve" text-anchor="middle" x="97.62" y="-300.57" font-family="Arial" font-size="14.00">fft Start</text>
</g>
<!-- node_1 -->
<g id="node3" class="node">
<title>node_1</title>
<polygon fill="none" stroke="black" points="154.75,-252 40.5,-252 40.5,-216 154.75,-216 154.75,-252"/>
<text xml:space="preserve" text-anchor="middle" x="97.62" y="-228.57" font-family="Arial" font-size="14.00">COMPLEX *; int</text>
</g>
<!-- start&#45;&gt;node_1 -->
<g id="edge1" class="edge">
<title>start&#45;&gt;node_1</title>
<path fill="none" stroke="black" d="M97.62,-287.7C97.62,-280.41 97.62,-271.73 97.62,-263.54"/>
<polygon fill="black" stroke="black" points="101.13,-263.62 97.63,-253.62 94.13,-263.62 101.13,-263.62"/>
</g>
<!-- end -->
<g id="node2" class="node">
<title>end</title>
<ellipse fill="none" stroke="black" cx="97.62" cy="-18" rx="36.59" ry="18"/>
<text xml:space="preserve" text-anchor="middle" x="97.62" y="-12.57" font-family="Arial" font-size="14.00">fft End</text>
</g>
<!-- node_2 -->
<g id="node4" class="node">
<title>node_2</title>
<polygon fill="none" stroke="black" points="195.25,-180 0,-180 0,-144 195.25,-144 195.25,-180"/>
<text xml:space="preserve" text-anchor="middle" x="97.62" y="-156.57" font-family="Arial" font-size="14.00">Function parameters received</text>
</g>
<!-- node_1&#45;&gt;node_2 -->
<g id="edge2" class="edge">
<title>node_1&#45;&gt;node_2</title>
<path fill="none" stroke="black" d="M97.62,-215.7C97.62,-208.41 97.62,-199.73 97.62,-191.54"/>
<polygon fill="black" stroke="black" points="101.13,-191.62 97.63,-181.62 94.13,-191.62 101.13,-191.62"/>
</g>
<!-- node_3 -->
<g id="node5" class="node">
<title>node_3</title>
<polygon fill="none" stroke="red" points="167.12,-108 28.12,-108 28.12,-72 167.12,-72 167.12,-108"/>
<text xml:space="preserve" text-anchor="middle" x="97.62" y="-84.58" font-family="Arial" font-size="14.00" fill="red">Empty function body</text>
</g>
<!-- node_2&#45;&gt;node_3 -->
<g id="edge3" class="edge">
<title>node_2&#45;&gt;node_3</title>
<path fill="none" stroke="red" d="M97.62,-143.7C97.62,-136.41 97.62,-127.73 97.62,-119.54"/>
<polygon fill="red" stroke="red" points="101.13,-119.62 97.63,-109.62 94.13,-119.62 101.13,-119.62"/>
</g>
<!-- node_3&#45;&gt;end -->
<g id="edge4" class="edge">
<title>node_3&#45;&gt;end</title>
<path fill="none" stroke="red" d="M97.62,-71.7C97.62,-64.41 97.62,-55.73 97.62,-47.54"/>
<polygon fill="red" stroke="red" points="101.13,-47.62 97.63,-37.62 94.13,-47.62 101.13,-47.62"/>
</g>
</g>
</svg>
