<?xml version="1.0" encoding="UTF-8" standalone="no"?>
<!DOCTYPE svg PUBLIC "-//W3C//DTD SVG 1.1//EN"
 "http://www.w3.org/Graphics/SVG/1.1/DTD/svg11.dtd">
<!-- Generated by graphviz version 13.1.2 (20250808.2320)
 -->
<!-- Title: filtep Pages: 1 -->
<svg width="250pt" height="476pt"
 viewBox="0.00 0.00 250.00 476.00" xmlns="http://www.w3.org/2000/svg" xmlns:xlink="http://www.w3.org/1999/xlink">
<g id="graph0" class="graph" transform="scale(1 1) rotate(0) translate(4 472)">
<title>filtep</title>
<polygon fill="white" stroke="none" points="-4,4 -4,-472 245.85,-472 245.85,4 -4,4"/>
<!-- start -->
<g id="node1" class="node">
<title>start</title>
<ellipse fill="none" stroke="black" cx="120.92" cy="-450" rx="120.92" ry="18"/>
<text xml:space="preserve" text-anchor="middle" x="120.92" y="-444.57" font-family="Arial" font-size="14.00">Start filtep(rlt1, al1, rlt2, al2)</text>
</g>
<!-- node1 -->
<g id="node3" class="node">
<title>node1</title>
<polygon fill="none" stroke="black" points="161.55,-396 80.3,-396 80.3,-360 161.55,-360 161.55,-396"/>
<text xml:space="preserve" text-anchor="middle" x="120.92" y="-372.57" font-family="Arial" font-size="14.00">pl = 2 * rlt1</text>
</g>
<!-- start&#45;&gt;node1 -->
<g id="edge1" class="edge">
<title>start&#45;&gt;node1</title>
<path fill="none" stroke="black" d="M120.92,-431.7C120.92,-424.41 120.92,-415.73 120.92,-407.54"/>
<polygon fill="black" stroke="black" points="124.42,-407.62 120.92,-397.62 117.42,-407.62 124.42,-407.62"/>
</g>
<!-- end -->
<g id="node2" class="node">
<title>end</title>
<ellipse fill="none" stroke="black" cx="120.92" cy="-18" rx="47.07" ry="18"/>
<text xml:space="preserve" text-anchor="middle" x="120.92" y="-12.57" font-family="Arial" font-size="14.00">Return pl</text>
</g>
<!-- node2 -->
<g id="node4" class="node">
<title>node2</title>
<polygon fill="none" stroke="black" points="162.67,-324 79.17,-324 79.17,-288 162.67,-288 162.67,-324"/>
<text xml:space="preserve" text-anchor="middle" x="120.92" y="-300.57" font-family="Arial" font-size="14.00">pl = al1 * pl</text>
</g>
<!-- node1&#45;&gt;node2 -->
<g id="edge2" class="edge">
<title>node1&#45;&gt;node2</title>
<path fill="none" stroke="black" d="M120.92,-359.7C120.92,-352.41 120.92,-343.73 120.92,-335.54"/>
<polygon fill="black" stroke="black" points="124.42,-335.62 120.92,-325.62 117.42,-335.62 124.42,-335.62"/>
</g>
<!-- node3 -->
<g id="node5" class="node">
<title>node3</title>
<polygon fill="none" stroke="black" points="165.3,-252 76.55,-252 76.55,-216 165.3,-216 165.3,-252"/>
<text xml:space="preserve" text-anchor="middle" x="120.92" y="-228.57" font-family="Arial" font-size="14.00">pl2 = 2 * rlt2</text>
</g>
<!-- node2&#45;&gt;node3 -->
<g id="edge3" class="edge">
<title>node2&#45;&gt;node3</title>
<path fill="none" stroke="black" d="M120.92,-287.7C120.92,-280.41 120.92,-271.73 120.92,-263.54"/>
<polygon fill="black" stroke="black" points="124.42,-263.62 120.92,-253.62 117.42,-263.62 124.42,-263.62"/>
</g>
<!-- node4 -->
<g id="node6" class="node">
<title>node4</title>
<polygon fill="none" stroke="black" points="170.55,-180 71.3,-180 71.3,-144 170.55,-144 170.55,-180"/>
<text xml:space="preserve" text-anchor="middle" x="120.92" y="-156.57" font-family="Arial" font-size="14.00">pl += al2 * pl2</text>
</g>
<!-- node3&#45;&gt;node4 -->
<g id="edge4" class="edge">
<title>node3&#45;&gt;node4</title>
<path fill="none" stroke="black" d="M120.92,-215.7C120.92,-208.41 120.92,-199.73 120.92,-191.54"/>
<polygon fill="black" stroke="black" points="124.42,-191.62 120.92,-181.62 117.42,-191.62 124.42,-191.62"/>
</g>
<!-- node5 -->
<g id="node7" class="node">
<title>node5</title>
<polygon fill="none" stroke="black" points="189.3,-108 52.55,-108 52.55,-72 189.3,-72 189.3,-108"/>
<text xml:space="preserve" text-anchor="middle" x="120.92" y="-84.58" font-family="Arial" font-size="14.00">return (int)(pl &gt;&gt; 15)</text>
</g>
<!-- node4&#45;&gt;node5 -->
<g id="edge5" class="edge">
<title>node4&#45;&gt;node5</title>
<path fill="none" stroke="black" d="M120.92,-143.7C120.92,-136.41 120.92,-127.73 120.92,-119.54"/>
<polygon fill="black" stroke="black" points="124.42,-119.62 120.92,-109.62 117.42,-119.62 124.42,-119.62"/>
</g>
<!-- node5&#45;&gt;end -->
<g id="edge6" class="edge">
<title>node5&#45;&gt;end</title>
<path fill="none" stroke="black" d="M120.92,-71.7C120.92,-64.41 120.92,-55.73 120.92,-47.54"/>
<polygon fill="black" stroke="black" points="124.42,-47.62 120.92,-37.62 117.42,-47.62 124.42,-47.62"/>
</g>
</g>
</svg>
