<?xml version="1.0" encoding="UTF-8" standalone="no"?>
<!DOCTYPE svg PUBLIC "-//W3C//DTD SVG 1.1//EN"
 "http://www.w3.org/Graphics/SVG/1.1/DTD/svg11.dtd">
<!-- Generated by graphviz version 13.1.2 (20250808.2320)
 -->
<!-- Title: getinput Pages: 1 -->
<svg width="188pt" height="188pt"
 viewBox="0.00 0.00 188.00 188.00" xmlns="http://www.w3.org/2000/svg" xmlns:xlink="http://www.w3.org/1999/xlink">
<g id="graph0" class="graph" transform="scale(1 1) rotate(0) translate(4 184)">
<title>getinput</title>
<polygon fill="white" stroke="none" points="-4,4 -4,-184 183.5,-184 183.5,4 -4,4"/>
<!-- start -->
<g id="node1" class="node">
<title>start</title>
<ellipse fill="none" stroke="black" cx="89.75" cy="-162" rx="64.04" ry="18"/>
<text xml:space="preserve" text-anchor="middle" x="89.75" y="-156.57" font-family="Arial" font-size="14.00">getinput Start</text>
</g>
<!-- error_node -->
<g id="node3" class="node">
<title>error_node</title>
<polygon fill="none" stroke="red" points="179.5,-108 0,-108 0,-72 179.5,-72 179.5,-108"/>
<text xml:space="preserve" text-anchor="middle" x="89.75" y="-84.58" font-family="Arial" font-size="14.00" fill="red">Function getinput not found</text>
</g>
<!-- start&#45;&gt;error_node -->
<g id="edge1" class="edge">
<title>start&#45;&gt;error_node</title>
<path fill="none" stroke="black" d="M89.75,-143.7C89.75,-136.41 89.75,-127.73 89.75,-119.54"/>
<polygon fill="black" stroke="black" points="93.25,-119.62 89.75,-109.62 86.25,-119.62 93.25,-119.62"/>
</g>
<!-- end -->
<g id="node2" class="node">
<title>end</title>
<ellipse fill="none" stroke="black" cx="89.75" cy="-18" rx="61.04" ry="18"/>
<text xml:space="preserve" text-anchor="middle" x="89.75" y="-12.57" font-family="Arial" font-size="14.00">getinput End</text>
</g>
<!-- error_node&#45;&gt;end -->
<g id="edge2" class="edge">
<title>error_node&#45;&gt;end</title>
<path fill="none" stroke="black" d="M89.75,-71.7C89.75,-64.41 89.75,-55.73 89.75,-47.54"/>
<polygon fill="black" stroke="black" points="93.25,-47.62 89.75,-37.62 86.25,-47.62 93.25,-47.62"/>
</g>
</g>
</svg>
