<?xml version="1.0" encoding="UTF-8" standalone="no"?>
<!DOCTYPE svg PUBLIC "-//W3C//DTD SVG 1.1//EN"
 "http://www.w3.org/Graphics/SVG/1.1/DTD/svg11.dtd">
<!-- Generated by graphviz version 13.1.2 (20250808.2320)
 -->
<!-- Title: int_disable Pages: 1 -->
<svg width="129pt" height="188pt"
 viewBox="0.00 0.00 129.00 188.00" xmlns="http://www.w3.org/2000/svg" xmlns:xlink="http://www.w3.org/1999/xlink">
<g id="graph0" class="graph" transform="scale(1 1) rotate(0) translate(4 184)">
<title>int_disable</title>
<polygon fill="white" stroke="none" points="-4,4 -4,-184 125,-184 125,4 -4,4"/>
<!-- start -->
<g id="node1" class="node">
<title>start</title>
<ellipse fill="none" stroke="black" cx="60.5" cy="-162" rx="29.61" ry="18"/>
<text xml:space="preserve" text-anchor="middle" x="60.5" y="-156.57" font-family="Arial" font-size="14.00">Start</text>
</g>
<!-- disable_int -->
<g id="node3" class="node">
<title>disable_int</title>
<polygon fill="none" stroke="black" points="121,-108 0,-108 0,-72 121,-72 121,-108"/>
<text xml:space="preserve" text-anchor="middle" x="60.5" y="-84.58" font-family="Arial" font-size="14.00">Disable interrupts</text>
</g>
<!-- start&#45;&gt;disable_int -->
<g id="edge1" class="edge">
<title>start&#45;&gt;disable_int</title>
<path fill="none" stroke="black" d="M60.5,-143.7C60.5,-136.41 60.5,-127.73 60.5,-119.54"/>
<polygon fill="black" stroke="black" points="64,-119.62 60.5,-109.62 57,-119.62 64,-119.62"/>
</g>
<!-- end -->
<g id="node2" class="node">
<title>end</title>
<ellipse fill="none" stroke="black" cx="60.5" cy="-18" rx="27" ry="18"/>
<text xml:space="preserve" text-anchor="middle" x="60.5" y="-12.57" font-family="Arial" font-size="14.00">End</text>
</g>
<!-- disable_int&#45;&gt;end -->
<g id="edge2" class="edge">
<title>disable_int&#45;&gt;end</title>
<path fill="none" stroke="black" d="M60.5,-71.7C60.5,-64.41 60.5,-55.73 60.5,-47.54"/>
<polygon fill="black" stroke="black" points="64,-47.62 60.5,-37.62 57,-47.62 64,-47.62"/>
</g>
</g>
</svg>
