<?xml version="1.0" encoding="UTF-8" standalone="no"?>
<!DOCTYPE svg PUBLIC "-//W3C//DTD SVG 1.1//EN"
 "http://www.w3.org/Graphics/SVG/1.1/DTD/svg11.dtd">
<!-- Generated by graphviz version 13.1.2 (20250808.2320)
 -->
<!-- Title: logsch Pages: 1 -->
<svg width="272pt" height="811pt"
 viewBox="0.00 0.00 272.00 811.00" xmlns="http://www.w3.org/2000/svg" xmlns:xlink="http://www.w3.org/1999/xlink">
<g id="graph0" class="graph" transform="scale(1 1) rotate(0) translate(4 806.5)">
<title>logsch</title>
<polygon fill="white" stroke="none" points="-4,4 -4,-806.5 267.62,-806.5 267.62,4 -4,4"/>
<!-- start -->
<g id="node1" class="node">
<title>start</title>
<ellipse fill="none" stroke="black" cx="127.88" cy="-784.5" rx="58.05" ry="18"/>
<text xml:space="preserve" text-anchor="middle" x="127.88" y="-779.08" font-family="Arial" font-size="14.00">logsch Start</text>
</g>
<!-- node_def_nbh -->
<g id="node3" class="node">
<title>node_def_nbh</title>
<polygon fill="none" stroke="black" points="161.75,-729.5 94,-729.5 94,-690 161.75,-690 161.75,-729.5"/>
<text xml:space="preserve" text-anchor="middle" x="127.88" y="-712.2" font-family="Arial" font-size="14.00">def: nbh</text>
<text xml:space="preserve" text-anchor="middle" x="127.88" y="-696.45" font-family="Arial" font-size="14.00">use: nbh</text>
</g>
<!-- start&#45;&gt;node_def_nbh -->
<g id="edge1" class="edge">
<title>start&#45;&gt;node_def_nbh</title>
<path fill="none" stroke="black" d="M127.88,-766.26C127.88,-758.75 127.88,-749.72 127.88,-741.14"/>
<polygon fill="black" stroke="black" points="131.38,-741.43 127.88,-731.43 124.38,-741.43 131.38,-741.43"/>
</g>
<!-- end -->
<g id="node2" class="node">
<title>end</title>
<ellipse fill="none" stroke="black" cx="127.88" cy="-18" rx="55.06" ry="18"/>
<text xml:space="preserve" text-anchor="middle" x="127.88" y="-12.57" font-family="Arial" font-size="14.00">logsch End</text>
</g>
<!-- node_def_ih -->
<g id="node4" class="node">
<title>node_def_ih</title>
<polygon fill="none" stroke="black" points="155.75,-653 100,-653 100,-613.5 155.75,-613.5 155.75,-653"/>
<text xml:space="preserve" text-anchor="middle" x="127.88" y="-635.7" font-family="Arial" font-size="14.00">def: ih</text>
<text xml:space="preserve" text-anchor="middle" x="127.88" y="-619.95" font-family="Arial" font-size="14.00">use: ih</text>
</g>
<!-- node_def_nbh&#45;&gt;node_def_ih -->
<g id="edge2" class="edge">
<title>node_def_nbh&#45;&gt;node_def_ih</title>
<path fill="none" stroke="black" d="M127.88,-689.56C127.88,-682 127.88,-673.13 127.88,-664.74"/>
<polygon fill="black" stroke="black" points="131.38,-664.88 127.88,-654.88 124.38,-664.88 131.38,-664.88"/>
</g>
<!-- calc_wd -->
<g id="node6" class="node">
<title>calc_wd</title>
<polygon fill="none" stroke="black" points="226.25,-576.5 29.5,-576.5 29.5,-540.5 226.25,-540.5 226.25,-576.5"/>
<text xml:space="preserve" text-anchor="middle" x="127.88" y="-553.08" font-family="Arial" font-size="14.00">wd = ((long)nbh * 127L) &gt;&gt; 7L</text>
</g>
<!-- node_def_ih&#45;&gt;calc_wd -->
<g id="edge3" class="edge">
<title>node_def_ih&#45;&gt;calc_wd</title>
<path fill="none" stroke="black" d="M127.88,-613.14C127.88,-605.47 127.88,-596.47 127.88,-588.05"/>
<polygon fill="black" stroke="black" points="131.38,-588.26 127.88,-578.26 124.38,-588.26 131.38,-588.26"/>
</g>
<!-- node_def_wd -->
<g id="node5" class="node">
<title>node_def_wd</title>
<polygon fill="none" stroke="black" points="263.62,-802.5 204.12,-802.5 204.12,-766.5 263.62,-766.5 263.62,-802.5"/>
<text xml:space="preserve" text-anchor="middle" x="233.88" y="-779.08" font-family="Arial" font-size="14.00">def: wd</text>
</g>
<!-- calc_nbh -->
<g id="node7" class="node">
<title>calc_nbh</title>
<polygon fill="none" stroke="black" points="225.88,-503.5 29.88,-503.5 29.88,-467.5 225.88,-467.5 225.88,-503.5"/>
<text xml:space="preserve" text-anchor="middle" x="127.88" y="-480.07" font-family="Arial" font-size="14.00">nbh = wd + wh_code_table[ih]</text>
</g>
<!-- calc_wd&#45;&gt;calc_nbh -->
<g id="edge4" class="edge">
<title>calc_wd&#45;&gt;calc_nbh</title>
<path fill="none" stroke="black" d="M127.88,-540.31C127.88,-532.73 127.88,-523.6 127.88,-515.04"/>
<polygon fill="black" stroke="black" points="131.38,-515.04 127.88,-505.04 124.38,-515.04 131.38,-515.04"/>
</g>
<!-- cond_nbh_lt0 -->
<g id="node8" class="node">
<title>cond_nbh_lt0</title>
<polygon fill="none" stroke="black" points="127.88,-430.5 51.43,-412.5 127.87,-394.5 204.32,-412.5 127.88,-430.5"/>
<text xml:space="preserve" text-anchor="middle" x="127.88" y="-407.07" font-family="Arial" font-size="14.00">if (nbh &lt; 0)</text>
</g>
<!-- calc_nbh&#45;&gt;cond_nbh_lt0 -->
<g id="edge5" class="edge">
<title>calc_nbh&#45;&gt;cond_nbh_lt0</title>
<path fill="none" stroke="black" d="M127.88,-467.31C127.88,-459.73 127.88,-450.6 127.88,-442.04"/>
<polygon fill="black" stroke="black" points="131.38,-442.04 127.88,-432.04 124.38,-442.04 131.38,-442.04"/>
</g>
<!-- cond_nbh_gt22528 -->
<g id="node9" class="node">
<title>cond_nbh_gt22528</title>
<polygon fill="none" stroke="black" points="127.88,-269.75 23.2,-251.75 127.87,-233.75 232.55,-251.75 127.88,-269.75"/>
<text xml:space="preserve" text-anchor="middle" x="127.88" y="-246.32" font-family="Arial" font-size="14.00">if (nbh &gt; 22528)</text>
</g>
<!-- cond_nbh_lt0&#45;&gt;cond_nbh_gt22528 -->
<g id="edge7" class="edge">
<title>cond_nbh_lt0&#45;&gt;cond_nbh_gt22528</title>
<path fill="none" stroke="black" d="M112.09,-397.78C98.75,-385.06 80.62,-364.82 72.88,-342.75 67.58,-327.65 66.68,-321.5 72.88,-306.75 78.24,-293.96 88.28,-282.68 98.32,-273.77"/>
<polygon fill="black" stroke="black" points="100.38,-276.61 105.87,-267.55 95.93,-271.21 100.38,-276.61"/>
<text xml:space="preserve" text-anchor="middle" x="89.38" y="-319.32" font-family="Arial" font-size="14.00">False</text>
</g>
<!-- cond_nbh_lt0&#45;&gt;cond_nbh_gt22528 -->
<g id="edge13" class="edge">
<title>cond_nbh_lt0&#45;&gt;cond_nbh_gt22528</title>
<path fill="none" stroke="red" d="M127.88,-394.21C127.88,-367.01 127.88,-313.96 127.88,-281.12"/>
<polygon fill="red" stroke="red" points="131.38,-281.53 127.88,-271.53 124.38,-281.53 131.38,-281.53"/>
<text xml:space="preserve" text-anchor="middle" x="144.38" y="-319.32" font-family="Arial" font-size="14.00" fill="red">False</text>
</g>
<!-- set_nbh_0 -->
<g id="node10" class="node">
<title>set_nbh_0</title>
<polygon fill="none" stroke="black" points="240.75,-342.75 179,-342.75 179,-306.75 240.75,-306.75 240.75,-342.75"/>
<text xml:space="preserve" text-anchor="middle" x="209.88" y="-319.32" font-family="Arial" font-size="14.00">nbh = 0</text>
</g>
<!-- cond_nbh_lt0&#45;&gt;set_nbh_0 -->
<g id="edge6" class="edge">
<title>cond_nbh_lt0&#45;&gt;set_nbh_0</title>
<path fill="none" stroke="black" d="M141.42,-397.34C153.39,-384.82 171.15,-366.25 185.58,-351.16"/>
<polygon fill="black" stroke="black" points="187.77,-353.93 192.15,-344.29 182.71,-349.1 187.77,-353.93"/>
<text xml:space="preserve" text-anchor="middle" x="190.09" y="-363.2" font-family="Arial" font-size="14.00">True</text>
</g>
<!-- set_nbh_22528 -->
<g id="node11" class="node">
<title>set_nbh_22528</title>
<polygon fill="none" stroke="black" points="91.75,-182 0,-182 0,-146 91.75,-146 91.75,-182"/>
<text xml:space="preserve" text-anchor="middle" x="45.88" y="-158.57" font-family="Arial" font-size="14.00">nbh = 22528</text>
</g>
<!-- cond_nbh_gt22528&#45;&gt;set_nbh_22528 -->
<g id="edge9" class="edge">
<title>cond_nbh_gt22528&#45;&gt;set_nbh_22528</title>
<path fill="none" stroke="black" d="M109.29,-236.52C101.79,-230.44 93.25,-223.07 86.12,-215.75 78.8,-208.22 71.46,-199.43 65.09,-191.29"/>
<polygon fill="black" stroke="black" points="67.89,-189.19 59.04,-183.37 62.32,-193.44 67.89,-189.19"/>
<text xml:space="preserve" text-anchor="middle" x="100" y="-202.45" font-family="Arial" font-size="14.00">True</text>
</g>
<!-- return_nbh -->
<g id="node12" class="node">
<title>return_nbh</title>
<polygon fill="none" stroke="black" points="166.62,-109 89.12,-109 89.12,-73 166.62,-73 166.62,-109"/>
<text xml:space="preserve" text-anchor="middle" x="127.88" y="-85.58" font-family="Arial" font-size="14.00">return nbh</text>
</g>
<!-- cond_nbh_gt22528&#45;&gt;return_nbh -->
<g id="edge10" class="edge">
<title>cond_nbh_gt22528&#45;&gt;return_nbh</title>
<path fill="none" stroke="black" d="M127.88,-233.46C127.88,-206.26 127.88,-153.21 127.88,-120.37"/>
<polygon fill="black" stroke="black" points="131.38,-120.78 127.88,-110.78 124.38,-120.78 131.38,-120.78"/>
<text xml:space="preserve" text-anchor="middle" x="144.38" y="-158.57" font-family="Arial" font-size="14.00">False</text>
</g>
<!-- cond_nbh_gt22528&#45;&gt;return_nbh -->
<g id="edge14" class="edge">
<title>cond_nbh_gt22528&#45;&gt;return_nbh</title>
<path fill="none" stroke="red" d="M139.64,-235.61C153.9,-215.35 174.86,-178.24 164.88,-146 161.83,-136.17 156.31,-126.54 150.44,-118.19"/>
<polygon fill="red" stroke="red" points="153.27,-116.12 144.44,-110.26 147.69,-120.34 153.27,-116.12"/>
<text xml:space="preserve" text-anchor="middle" x="183.98" y="-158.57" font-family="Arial" font-size="14.00" fill="red">False</text>
</g>
<!-- set_nbh_0&#45;&gt;cond_nbh_gt22528 -->
<g id="edge8" class="edge">
<title>set_nbh_0&#45;&gt;cond_nbh_gt22528</title>
<path fill="none" stroke="black" d="M190.03,-306.56C178.92,-296.95 164.97,-284.86 153.09,-274.59"/>
<polygon fill="black" stroke="black" points="155.5,-272.04 145.65,-268.14 150.92,-277.33 155.5,-272.04"/>
</g>
<!-- set_nbh_22528&#45;&gt;return_nbh -->
<g id="edge11" class="edge">
<title>set_nbh_22528&#45;&gt;return_nbh</title>
<path fill="none" stroke="black" d="M65.72,-145.81C75.82,-137.07 88.28,-126.28 99.38,-116.67"/>
<polygon fill="black" stroke="black" points="101.51,-119.46 106.78,-110.27 96.93,-114.17 101.51,-119.46"/>
</g>
<!-- return_nbh&#45;&gt;end -->
<g id="edge12" class="edge">
<title>return_nbh&#45;&gt;end</title>
<path fill="none" stroke="black" d="M127.88,-72.81C127.88,-65.23 127.88,-56.1 127.88,-47.54"/>
<polygon fill="black" stroke="black" points="131.38,-47.54 127.88,-37.54 124.38,-47.54 131.38,-47.54"/>
</g>
</g>
</svg>
