<?xml version="1.0" encoding="UTF-8" standalone="no"?>
<!DOCTYPE svg PUBLIC "-//W3C//DTD SVG 1.1//EN"
 "http://www.w3.org/Graphics/SVG/1.1/DTD/svg11.dtd">
<!-- Generated by graphviz version 13.1.2 (20250808.2320)
 -->
<!-- Title: my_abs Pages: 1 -->
<svg width="148pt" height="351pt"
 viewBox="0.00 0.00 148.00 351.00" xmlns="http://www.w3.org/2000/svg" xmlns:xlink="http://www.w3.org/1999/xlink">
<g id="graph0" class="graph" transform="scale(1 1) rotate(0) translate(4 346.75)">
<title>my_abs</title>
<polygon fill="white" stroke="none" points="-4,4 -4,-346.75 144.2,-346.75 144.2,4 -4,4"/>
<!-- start -->
<g id="node1" class="node">
<title>start</title>
<ellipse fill="none" stroke="black" cx="70.1" cy="-324.75" rx="29.61" ry="18"/>
<text xml:space="preserve" text-anchor="middle" x="70.1" y="-319.32" font-family="Arial" font-size="14.00">Start</text>
</g>
<!-- cond -->
<g id="node3" class="node">
<title>cond</title>
<polygon fill="none" stroke="black" points="70.1,-269.75 0,-251.75 70.1,-233.75 140.2,-251.75 70.1,-269.75"/>
<text xml:space="preserve" text-anchor="middle" x="70.1" y="-246.32" font-family="Arial" font-size="14.00">if (n &gt;= 0)</text>
</g>
<!-- start&#45;&gt;cond -->
<g id="edge1" class="edge">
<title>start&#45;&gt;cond</title>
<path fill="none" stroke="black" d="M70.1,-306.56C70.1,-298.98 70.1,-289.85 70.1,-281.29"/>
<polygon fill="black" stroke="black" points="73.6,-281.29 70.1,-271.29 66.6,-281.29 73.6,-281.29"/>
</g>
<!-- end -->
<g id="node2" class="node">
<title>end</title>
<ellipse fill="none" stroke="black" cx="70.1" cy="-18" rx="27" ry="18"/>
<text xml:space="preserve" text-anchor="middle" x="70.1" y="-12.57" font-family="Arial" font-size="14.00">End</text>
</g>
<!-- assign_pos -->
<g id="node4" class="node">
<title>assign_pos</title>
<polygon fill="none" stroke="black" points="61.1,-182 7.1,-182 7.1,-146 61.1,-146 61.1,-182"/>
<text xml:space="preserve" text-anchor="middle" x="34.1" y="-158.57" font-family="Arial" font-size="14.00">m = n</text>
</g>
<!-- cond&#45;&gt;assign_pos -->
<g id="edge2" class="edge">
<title>cond&#45;&gt;assign_pos</title>
<path fill="none" stroke="black" d="M61.33,-235.69C57.97,-229.6 54.26,-222.45 51.35,-215.75 48.2,-208.49 45.24,-200.46 42.69,-192.97"/>
<polygon fill="black" stroke="black" points="46.07,-192.04 39.63,-183.62 39.41,-194.21 46.07,-192.04"/>
<text xml:space="preserve" text-anchor="middle" x="65.22" y="-202.45" font-family="Arial" font-size="14.00">True</text>
</g>
<!-- assign_neg -->
<g id="node5" class="node">
<title>assign_neg</title>
<polygon fill="none" stroke="black" points="134.97,-182 79.22,-182 79.22,-146 134.97,-146 134.97,-182"/>
<text xml:space="preserve" text-anchor="middle" x="107.1" y="-158.57" font-family="Arial" font-size="14.00">m = &#45;n</text>
</g>
<!-- cond&#45;&gt;assign_neg -->
<g id="edge3" class="edge">
<title>cond&#45;&gt;assign_neg</title>
<path fill="none" stroke="black" d="M76.88,-235.02C81.95,-223.27 89.02,-206.9 95.04,-192.94"/>
<polygon fill="black" stroke="black" points="98.24,-194.36 98.99,-183.79 91.82,-191.58 98.24,-194.36"/>
<text xml:space="preserve" text-anchor="middle" x="108.41" y="-202.45" font-family="Arial" font-size="14.00">False</text>
</g>
<!-- return_stmt -->
<g id="node6" class="node">
<title>return_stmt</title>
<polygon fill="none" stroke="black" points="103.6,-109 36.6,-109 36.6,-73 103.6,-73 103.6,-109"/>
<text xml:space="preserve" text-anchor="middle" x="70.1" y="-85.58" font-family="Arial" font-size="14.00">return m</text>
</g>
<!-- assign_pos&#45;&gt;return_stmt -->
<g id="edge4" class="edge">
<title>assign_pos&#45;&gt;return_stmt</title>
<path fill="none" stroke="black" d="M42.81,-145.81C46.88,-137.79 51.82,-128.05 56.37,-119.07"/>
<polygon fill="black" stroke="black" points="59.38,-120.88 60.78,-110.38 53.14,-117.71 59.38,-120.88"/>
</g>
<!-- assign_neg&#45;&gt;return_stmt -->
<g id="edge5" class="edge">
<title>assign_neg&#45;&gt;return_stmt</title>
<path fill="none" stroke="black" d="M98.14,-145.81C93.96,-137.79 88.88,-128.05 84.2,-119.07"/>
<polygon fill="black" stroke="black" points="87.4,-117.62 79.67,-110.37 81.19,-120.86 87.4,-117.62"/>
</g>
<!-- return_stmt&#45;&gt;end -->
<g id="edge6" class="edge">
<title>return_stmt&#45;&gt;end</title>
<path fill="none" stroke="black" d="M70.1,-72.81C70.1,-65.23 70.1,-56.1 70.1,-47.54"/>
<polygon fill="black" stroke="black" points="73.6,-47.54 70.1,-37.54 66.6,-47.54 73.6,-47.54"/>
</g>
</g>
</svg>
