<?xml version="1.0" encoding="UTF-8" standalone="no"?>
<!DOCTYPE svg PUBLIC "-//W3C//DTD SVG 1.1//EN"
 "http://www.w3.org/Graphics/SVG/1.1/DTD/svg11.dtd">
<!-- Generated by graphviz version 13.1.2 (20250808.2320)
 -->
<!-- Title: my_sin Pages: 1 -->
<svg width="500pt" height="782pt"
 viewBox="0.00 0.00 500.00 782.00" xmlns="http://www.w3.org/2000/svg" xmlns:xlink="http://www.w3.org/1999/xlink">
<g id="graph0" class="graph" transform="scale(1 1) rotate(0) translate(4 778)">
<title>my_sin</title>
<polygon fill="white" stroke="none" points="-4,4 -4,-778 496.25,-778 496.25,4 -4,4"/>
<!-- start -->
<g id="node1" class="node">
<title>start</title>
<ellipse fill="none" stroke="black" cx="337.62" cy="-756" rx="29.61" ry="18"/>
<text xml:space="preserve" text-anchor="middle" x="337.62" y="-750.58" font-family="Arial" font-size="14.00">Start</text>
</g>
<!-- node1 -->
<g id="node3" class="node">
<title>node1</title>
<polygon fill="none" stroke="black" points="376.75,-701 298.5,-701 298.5,-645.75 376.75,-645.75 376.75,-701"/>
<text xml:space="preserve" text-anchor="middle" x="337.62" y="-683.7" font-family="Arial" font-size="14.00">int diff;</text>
<text xml:space="preserve" text-anchor="middle" x="337.62" y="-667.95" font-family="Arial" font-size="14.00">int app=0;</text>
<text xml:space="preserve" text-anchor="middle" x="337.62" y="-652.2" font-family="Arial" font-size="14.00">int inc = 1;</text>
</g>
<!-- start&#45;&gt;node1 -->
<g id="edge1" class="edge">
<title>start&#45;&gt;node1</title>
<path fill="none" stroke="black" d="M337.62,-737.51C337.62,-730.16 337.62,-721.32 337.62,-712.6"/>
<polygon fill="black" stroke="black" points="341.13,-712.87 337.63,-702.87 334.13,-712.87 341.13,-712.87"/>
</g>
<!-- end -->
<g id="node2" class="node">
<title>end</title>
<ellipse fill="none" stroke="black" cx="406.62" cy="-19.75" rx="27" ry="18"/>
<text xml:space="preserve" text-anchor="middle" x="406.62" y="-14.32" font-family="Arial" font-size="14.00">End</text>
</g>
<!-- node2 -->
<g id="node4" class="node">
<title>node2</title>
<polygon fill="none" stroke="black" points="397.75,-608.75 277.5,-608.75 277.5,-569.25 397.75,-569.25 397.75,-608.75"/>
<text xml:space="preserve" text-anchor="middle" x="337.62" y="-591.45" font-family="Arial" font-size="14.00">while (rad &gt; 2*PI)</text>
<text xml:space="preserve" text-anchor="middle" x="337.62" y="-575.7" font-family="Arial" font-size="14.00">rad &#45;= 2*PI;</text>
</g>
<!-- node1&#45;&gt;node2 -->
<g id="edge2" class="edge">
<title>node1&#45;&gt;node2</title>
<path fill="none" stroke="black" d="M337.62,-645.4C337.62,-637.46 337.62,-628.71 337.62,-620.56"/>
<polygon fill="black" stroke="black" points="341.13,-620.72 337.63,-610.72 334.13,-620.72 341.13,-620.72"/>
</g>
<!-- node2&#45;&gt;node2 -->
<g id="edge4" class="edge">
<title>node2&#45;&gt;node2</title>
<path fill="none" stroke="black" d="M398.23,-595.7C408.58,-594.78 415.75,-592.55 415.75,-589 415.75,-586.95 413.35,-585.34 409.33,-584.17"/>
<polygon fill="black" stroke="black" points="410.16,-580.76 399.72,-582.55 409,-587.66 410.16,-580.76"/>
<text xml:space="preserve" text-anchor="middle" x="429.62" y="-583.58" font-family="Arial" font-size="14.00">True</text>
</g>
<!-- node3 -->
<g id="node5" class="node">
<title>node3</title>
<polygon fill="none" stroke="black" points="400,-517.5 275.25,-517.5 275.25,-478 400,-478 400,-517.5"/>
<text xml:space="preserve" text-anchor="middle" x="337.62" y="-500.2" font-family="Arial" font-size="14.00">while (rad &lt; &#45;2*PI)</text>
<text xml:space="preserve" text-anchor="middle" x="337.62" y="-484.45" font-family="Arial" font-size="14.00">rad += 2*PI;</text>
</g>
<!-- node2&#45;&gt;node3 -->
<g id="edge3" class="edge">
<title>node2&#45;&gt;node3</title>
<path fill="none" stroke="black" d="M337.62,-569.07C337.62,-557.55 337.62,-542.57 337.62,-529.4"/>
<polygon fill="black" stroke="black" points="341.13,-529.47 337.63,-519.47 334.13,-529.47 341.13,-529.47"/>
<text xml:space="preserve" text-anchor="middle" x="354.12" y="-537.95" font-family="Arial" font-size="14.00">False</text>
</g>
<!-- node3&#45;&gt;node3 -->
<g id="edge6" class="edge">
<title>node3&#45;&gt;node3</title>
<path fill="none" stroke="black" d="M400.31,-505.7C410.78,-504.59 418,-501.94 418,-497.75 418,-495.33 415.59,-493.42 411.53,-492.03"/>
<polygon fill="black" stroke="black" points="412.28,-488.61 401.79,-490.09 410.92,-495.48 412.28,-488.61"/>
<text xml:space="preserve" text-anchor="middle" x="431.88" y="-492.32" font-family="Arial" font-size="14.00">True</text>
</g>
<!-- node4 -->
<g id="node6" class="node">
<title>node4</title>
<polygon fill="none" stroke="black" points="375.62,-426.25 299.62,-426.25 299.62,-386.75 375.62,-386.75 375.62,-426.25"/>
<text xml:space="preserve" text-anchor="middle" x="337.62" y="-408.95" font-family="Arial" font-size="14.00">diff = rad;</text>
<text xml:space="preserve" text-anchor="middle" x="337.62" y="-393.2" font-family="Arial" font-size="14.00">app = diff;</text>
</g>
<!-- node3&#45;&gt;node4 -->
<g id="edge5" class="edge">
<title>node3&#45;&gt;node4</title>
<path fill="none" stroke="black" d="M337.62,-477.82C337.62,-466.3 337.62,-451.32 337.62,-438.15"/>
<polygon fill="black" stroke="black" points="341.13,-438.22 337.63,-428.22 334.13,-438.22 341.13,-438.22"/>
<text xml:space="preserve" text-anchor="middle" x="354.12" y="-446.7" font-family="Arial" font-size="14.00">False</text>
</g>
<!-- node5 -->
<g id="node7" class="node">
<title>node5</title>
<polygon fill="none" stroke="black" points="492.25,-349.75 183,-349.75 183,-313.75 492.25,-313.75 492.25,-349.75"/>
<text xml:space="preserve" text-anchor="middle" x="337.62" y="-326.32" font-family="Arial" font-size="14.00">diff = (diff * (&#45;(rad*rad))) / ((2 * inc) * (2 * inc + 1));</text>
</g>
<!-- node4&#45;&gt;node5 -->
<g id="edge7" class="edge">
<title>node4&#45;&gt;node5</title>
<path fill="none" stroke="black" d="M337.62,-386.39C337.62,-378.72 337.62,-369.72 337.62,-361.3"/>
<polygon fill="black" stroke="black" points="341.13,-361.51 337.63,-351.51 334.13,-361.51 341.13,-361.51"/>
</g>
<!-- node6 -->
<g id="node8" class="node">
<title>node6</title>
<polygon fill="none" stroke="black" points="394.75,-276.75 280.5,-276.75 280.5,-237.25 394.75,-237.25 394.75,-276.75"/>
<text xml:space="preserve" text-anchor="middle" x="337.62" y="-259.45" font-family="Arial" font-size="14.00">app = app + diff;</text>
<text xml:space="preserve" text-anchor="middle" x="337.62" y="-243.7" font-family="Arial" font-size="14.00">inc++;</text>
</g>
<!-- node5&#45;&gt;node6 -->
<g id="edge8" class="edge">
<title>node5&#45;&gt;node6</title>
<path fill="none" stroke="black" d="M337.62,-313.51C337.62,-306 337.62,-296.97 337.62,-288.39"/>
<polygon fill="black" stroke="black" points="341.13,-288.68 337.63,-278.68 334.13,-288.68 341.13,-288.68"/>
</g>
<!-- node7 -->
<g id="node9" class="node">
<title>node7</title>
<polygon fill="none" stroke="black" points="420.62,-200.25 254.62,-200.25 254.62,-164.25 420.62,-164.25 420.62,-200.25"/>
<text xml:space="preserve" text-anchor="middle" x="337.62" y="-176.82" font-family="Arial" font-size="14.00">while(my_fabs(diff) &gt;= 1)</text>
</g>
<!-- node6&#45;&gt;node7 -->
<g id="edge9" class="edge">
<title>node6&#45;&gt;node7</title>
<path fill="none" stroke="black" d="M337.62,-236.89C337.62,-229.22 337.62,-220.22 337.62,-211.8"/>
<polygon fill="black" stroke="black" points="341.13,-212.01 337.63,-202.01 334.13,-212.01 341.13,-212.01"/>
</g>
<!-- node8 -->
<g id="node10" class="node">
<title>node8</title>
<polygon fill="none" stroke="black" points="309.25,-112.5 0,-112.5 0,-76.5 309.25,-76.5 309.25,-112.5"/>
<text xml:space="preserve" text-anchor="middle" x="154.62" y="-89.08" font-family="Arial" font-size="14.00">diff = (diff * (&#45;(rad*rad))) / ((2 * inc) * (2 * inc + 1));</text>
</g>
<!-- node7&#45;&gt;node8 -->
<g id="edge10" class="edge">
<title>node7&#45;&gt;node8</title>
<path fill="none" stroke="black" d="M300.59,-163.9C272.16,-150.57 232.7,-132.08 201.97,-117.69"/>
<polygon fill="black" stroke="black" points="203.83,-114.69 193.29,-113.62 200.86,-121.03 203.83,-114.69"/>
<text xml:space="preserve" text-anchor="middle" x="276.39" y="-132.95" font-family="Arial" font-size="14.00">True</text>
</g>
<!-- node10 -->
<g id="node12" class="node">
<title>node10</title>
<polygon fill="none" stroke="black" points="447.25,-112.5 366,-112.5 366,-76.5 447.25,-76.5 447.25,-112.5"/>
<text xml:space="preserve" text-anchor="middle" x="406.62" y="-89.08" font-family="Arial" font-size="14.00">return app;</text>
</g>
<!-- node7&#45;&gt;node10 -->
<g id="edge11" class="edge">
<title>node7&#45;&gt;node10</title>
<path fill="none" stroke="black" d="M351.59,-163.9C361.31,-151.81 374.47,-135.47 385.47,-121.79"/>
<polygon fill="black" stroke="black" points="388.19,-123.99 391.73,-114.01 382.74,-119.6 388.19,-123.99"/>
<text xml:space="preserve" text-anchor="middle" x="394.81" y="-132.95" font-family="Arial" font-size="14.00">False</text>
</g>
<!-- node9 -->
<g id="node11" class="node">
<title>node9</title>
<polygon fill="none" stroke="black" points="324.75,-39.5 210.5,-39.5 210.5,0 324.75,0 324.75,-39.5"/>
<text xml:space="preserve" text-anchor="middle" x="267.62" y="-22.2" font-family="Arial" font-size="14.00">app = app + diff;</text>
<text xml:space="preserve" text-anchor="middle" x="267.62" y="-6.45" font-family="Arial" font-size="14.00">inc++;</text>
</g>
<!-- node8&#45;&gt;node9 -->
<g id="edge12" class="edge">
<title>node8&#45;&gt;node9</title>
<path fill="none" stroke="black" d="M181.69,-76.07C195.75,-67.02 213.18,-55.8 228.66,-45.83"/>
<polygon fill="black" stroke="black" points="230.22,-49 236.73,-40.64 226.43,-43.11 230.22,-49"/>
</g>
<!-- node9&#45;&gt;node7 -->
<g id="edge13" class="edge">
<title>node9&#45;&gt;node7</title>
<path fill="none" stroke="black" d="M290.11,-39.79C300.38,-49.7 311.75,-62.63 318.62,-76.5 330.48,-100.42 335.01,-130.7 336.7,-152.54"/>
<polygon fill="black" stroke="black" points="333.21,-152.73 337.3,-162.51 340.19,-152.31 333.21,-152.73"/>
</g>
<!-- node10&#45;&gt;end -->
<g id="edge14" class="edge">
<title>node10&#45;&gt;end</title>
<path fill="none" stroke="black" d="M406.62,-76.26C406.62,-68.25 406.62,-58.52 406.62,-49.45"/>
<polygon fill="black" stroke="black" points="410.13,-49.63 406.63,-39.63 403.13,-49.63 410.13,-49.63"/>
</g>
</g>
</svg>
