<?xml version="1.0" encoding="UTF-8" standalone="no"?>
<!DOCTYPE svg PUBLIC "-//W3C//DTD SVG 1.1//EN"
 "http://www.w3.org/Graphics/SVG/1.1/DTD/svg11.dtd">
<!-- Generated by graphviz version 13.1.2 (20250808.2320)
 -->
<!-- Title: scalel Pages: 1 -->
<svg width="323pt" height="404pt"
 viewBox="0.00 0.00 323.00 404.00" xmlns="http://www.w3.org/2000/svg" xmlns:xlink="http://www.w3.org/1999/xlink">
<g id="graph0" class="graph" transform="scale(1 1) rotate(0) translate(4 400)">
<title>scalel</title>
<polygon fill="white" stroke="none" points="-4,4 -4,-400 319.25,-400 319.25,4 -4,4"/>
<!-- start -->
<g id="node1" class="node">
<title>start</title>
<ellipse fill="none" stroke="black" cx="157.62" cy="-378" rx="135.89" ry="18"/>
<text xml:space="preserve" text-anchor="middle" x="157.62" y="-372.57" font-family="Arial" font-size="14.00">scalel(int nbl, int shift_constant)</text>
</g>
<!-- compute_wd1 -->
<g id="node3" class="node">
<title>compute_wd1</title>
<polygon fill="none" stroke="black" points="230.88,-324 84.38,-324 84.38,-288 230.88,-288 230.88,-324"/>
<text xml:space="preserve" text-anchor="middle" x="157.62" y="-300.57" font-family="Arial" font-size="14.00">wd1 = (nbl &gt;&gt; 6) &amp; 31</text>
</g>
<!-- start&#45;&gt;compute_wd1 -->
<g id="edge1" class="edge">
<title>start&#45;&gt;compute_wd1</title>
<path fill="none" stroke="black" d="M157.62,-359.7C157.62,-352.41 157.62,-343.73 157.62,-335.54"/>
<polygon fill="black" stroke="black" points="161.13,-335.62 157.63,-325.62 154.13,-335.62 161.13,-335.62"/>
</g>
<!-- end -->
<g id="node2" class="node">
<title>end</title>
<ellipse fill="none" stroke="black" cx="157.62" cy="-18" rx="74.02" ry="18"/>
<text xml:space="preserve" text-anchor="middle" x="157.62" y="-12.57" font-family="Arial" font-size="14.00">return wd3 &lt;&lt; 3</text>
</g>
<!-- compute_wd2 -->
<g id="node4" class="node">
<title>compute_wd2</title>
<polygon fill="none" stroke="black" points="214,-252 101.25,-252 101.25,-216 214,-216 214,-252"/>
<text xml:space="preserve" text-anchor="middle" x="157.62" y="-228.57" font-family="Arial" font-size="14.00">wd2 = nbl &gt;&gt; 11</text>
</g>
<!-- compute_wd1&#45;&gt;compute_wd2 -->
<g id="edge2" class="edge">
<title>compute_wd1&#45;&gt;compute_wd2</title>
<path fill="none" stroke="black" d="M157.62,-287.7C157.62,-280.41 157.62,-271.73 157.62,-263.54"/>
<polygon fill="black" stroke="black" points="161.13,-263.62 157.63,-253.62 154.13,-263.62 161.13,-263.62"/>
</g>
<!-- lookup_ilb -->
<g id="node5" class="node">
<title>lookup_ilb</title>
<polygon fill="none" stroke="black" points="315.25,-180 0,-180 0,-144 315.25,-144 315.25,-180"/>
<text xml:space="preserve" text-anchor="middle" x="157.62" y="-156.57" font-family="Arial" font-size="14.00">wd3 = ilb_table[wd1] &gt;&gt; (shift_constant + 1 &#45; wd2)</text>
</g>
<!-- compute_wd2&#45;&gt;lookup_ilb -->
<g id="edge3" class="edge">
<title>compute_wd2&#45;&gt;lookup_ilb</title>
<path fill="none" stroke="black" d="M157.62,-215.7C157.62,-208.41 157.62,-199.73 157.62,-191.54"/>
<polygon fill="black" stroke="black" points="161.13,-191.62 157.63,-181.62 154.13,-191.62 161.13,-191.62"/>
</g>
<!-- shift_result -->
<g id="node6" class="node">
<title>shift_result</title>
<polygon fill="none" stroke="black" points="213.25,-108 102,-108 102,-72 213.25,-72 213.25,-108"/>
<text xml:space="preserve" text-anchor="middle" x="157.62" y="-84.58" font-family="Arial" font-size="14.00">return wd3 &lt;&lt; 3</text>
</g>
<!-- lookup_ilb&#45;&gt;shift_result -->
<g id="edge4" class="edge">
<title>lookup_ilb&#45;&gt;shift_result</title>
<path fill="none" stroke="black" d="M157.62,-143.7C157.62,-136.41 157.62,-127.73 157.62,-119.54"/>
<polygon fill="black" stroke="black" points="161.13,-119.62 157.63,-109.62 154.13,-119.62 161.13,-119.62"/>
</g>
<!-- shift_result&#45;&gt;end -->
<g id="edge5" class="edge">
<title>shift_result&#45;&gt;end</title>
<path fill="none" stroke="black" d="M157.62,-71.7C157.62,-64.41 157.62,-55.73 157.62,-47.54"/>
<polygon fill="black" stroke="black" points="161.13,-47.62 157.63,-37.62 154.13,-47.62 161.13,-47.62"/>
</g>
</g>
</svg>
