<?xml version="1.0" encoding="UTF-8" standalone="no"?>
<!DOCTYPE svg PUBLIC "-//W3C//DTD SVG 1.1//EN"
 "http://www.w3.org/Graphics/SVG/1.1/DTD/svg11.dtd">
<!-- Generated by graphviz version 13.1.2 (20250808.2320)
 -->
<!-- Title: uppol2 Pages: 1 -->
<svg width="262pt" height="1417pt"
 viewBox="0.00 0.00 262.00 1417.00" xmlns="http://www.w3.org/2000/svg" xmlns:xlink="http://www.w3.org/1999/xlink">
<g id="graph0" class="graph" transform="scale(1 1) rotate(0) translate(4 1413)">
<title>uppol2</title>
<polygon fill="white" stroke="none" points="-4,4 -4,-1413 257.62,-1413 257.62,4 -4,4"/>
<!-- start -->
<g id="node1" class="node">
<title>start</title>
<ellipse fill="none" stroke="black" cx="126.75" cy="-1391" rx="59.05" ry="18"/>
<text xml:space="preserve" text-anchor="middle" x="126.75" y="-1385.58" font-family="Arial" font-size="14.00">Start uppol2</text>
</g>
<!-- def_al1 -->
<g id="node3" class="node">
<title>def_al1</title>
<polygon fill="none" stroke="black" points="155,-1336 98.5,-1336 98.5,-1300 155,-1300 155,-1336"/>
<text xml:space="preserve" text-anchor="middle" x="126.75" y="-1312.58" font-family="Arial" font-size="14.00">def al1</text>
</g>
<!-- start&#45;&gt;def_al1 -->
<g id="edge1" class="edge">
<title>start&#45;&gt;def_al1</title>
<path fill="none" stroke="black" d="M126.75,-1372.81C126.75,-1365.23 126.75,-1356.1 126.75,-1347.54"/>
<polygon fill="black" stroke="black" points="130.25,-1347.54 126.75,-1337.54 123.25,-1347.54 130.25,-1347.54"/>
</g>
<!-- end -->
<g id="node2" class="node">
<title>end</title>
<ellipse fill="none" stroke="black" cx="126.75" cy="-18" rx="27" ry="18"/>
<text xml:space="preserve" text-anchor="middle" x="126.75" y="-12.57" font-family="Arial" font-size="14.00">End</text>
</g>
<!-- def_al2 -->
<g id="node4" class="node">
<title>def_al2</title>
<polygon fill="none" stroke="black" points="155,-1263 98.5,-1263 98.5,-1227 155,-1227 155,-1263"/>
<text xml:space="preserve" text-anchor="middle" x="126.75" y="-1239.58" font-family="Arial" font-size="14.00">def al2</text>
</g>
<!-- def_al1&#45;&gt;def_al2 -->
<g id="edge2" class="edge">
<title>def_al1&#45;&gt;def_al2</title>
<path fill="none" stroke="black" d="M126.75,-1299.81C126.75,-1292.23 126.75,-1283.1 126.75,-1274.54"/>
<polygon fill="black" stroke="black" points="130.25,-1274.54 126.75,-1264.54 123.25,-1274.54 130.25,-1274.54"/>
</g>
<!-- def_plt -->
<g id="node5" class="node">
<title>def_plt</title>
<polygon fill="none" stroke="black" points="153.75,-1190 99.75,-1190 99.75,-1154 153.75,-1154 153.75,-1190"/>
<text xml:space="preserve" text-anchor="middle" x="126.75" y="-1166.58" font-family="Arial" font-size="14.00">def plt</text>
</g>
<!-- def_al2&#45;&gt;def_plt -->
<g id="edge3" class="edge">
<title>def_al2&#45;&gt;def_plt</title>
<path fill="none" stroke="black" d="M126.75,-1226.81C126.75,-1219.23 126.75,-1210.1 126.75,-1201.54"/>
<polygon fill="black" stroke="black" points="130.25,-1201.54 126.75,-1191.54 123.25,-1201.54 130.25,-1201.54"/>
</g>
<!-- def_plt1 -->
<g id="node6" class="node">
<title>def_plt1</title>
<polygon fill="none" stroke="black" points="156.88,-1117 96.62,-1117 96.62,-1081 156.88,-1081 156.88,-1117"/>
<text xml:space="preserve" text-anchor="middle" x="126.75" y="-1093.58" font-family="Arial" font-size="14.00">def plt1</text>
</g>
<!-- def_plt&#45;&gt;def_plt1 -->
<g id="edge4" class="edge">
<title>def_plt&#45;&gt;def_plt1</title>
<path fill="none" stroke="black" d="M126.75,-1153.81C126.75,-1146.23 126.75,-1137.1 126.75,-1128.54"/>
<polygon fill="black" stroke="black" points="130.25,-1128.54 126.75,-1118.54 123.25,-1128.54 130.25,-1128.54"/>
</g>
<!-- def_plt2 -->
<g id="node7" class="node">
<title>def_plt2</title>
<polygon fill="none" stroke="black" points="156.88,-1044 96.62,-1044 96.62,-1008 156.88,-1008 156.88,-1044"/>
<text xml:space="preserve" text-anchor="middle" x="126.75" y="-1020.58" font-family="Arial" font-size="14.00">def plt2</text>
</g>
<!-- def_plt1&#45;&gt;def_plt2 -->
<g id="edge5" class="edge">
<title>def_plt1&#45;&gt;def_plt2</title>
<path fill="none" stroke="black" d="M126.75,-1080.81C126.75,-1073.23 126.75,-1064.1 126.75,-1055.54"/>
<polygon fill="black" stroke="black" points="130.25,-1055.54 126.75,-1045.54 123.25,-1055.54 130.25,-1055.54"/>
</g>
<!-- calc_wd2 -->
<g id="node8" class="node">
<title>calc_wd2</title>
<polygon fill="none" stroke="black" points="191.38,-971 62.12,-971 62.12,-935 191.38,-935 191.38,-971"/>
<text xml:space="preserve" text-anchor="middle" x="126.75" y="-947.58" font-family="Arial" font-size="14.00">wd2 = 4L*(long)al1</text>
</g>
<!-- def_plt2&#45;&gt;calc_wd2 -->
<g id="edge6" class="edge">
<title>def_plt2&#45;&gt;calc_wd2</title>
<path fill="none" stroke="black" d="M126.75,-1007.81C126.75,-1000.23 126.75,-991.1 126.75,-982.54"/>
<polygon fill="black" stroke="black" points="130.25,-982.54 126.75,-972.54 123.25,-982.54 130.25,-982.54"/>
</g>
<!-- cond1 -->
<g id="node9" class="node">
<title>cond1</title>
<polygon fill="none" stroke="black" points="126.75,-898 24.9,-880 126.75,-862 228.6,-880 126.75,-898"/>
<text xml:space="preserve" text-anchor="middle" x="126.75" y="-874.58" font-family="Arial" font-size="14.00">if (plt*plt1 &gt;= 0)</text>
</g>
<!-- calc_wd2&#45;&gt;cond1 -->
<g id="edge7" class="edge">
<title>calc_wd2&#45;&gt;cond1</title>
<path fill="none" stroke="black" d="M126.75,-934.81C126.75,-927.23 126.75,-918.1 126.75,-909.54"/>
<polygon fill="black" stroke="black" points="130.25,-909.54 126.75,-899.54 123.25,-909.54 130.25,-909.54"/>
</g>
<!-- neg_wd2 -->
<g id="node10" class="node">
<title>neg_wd2</title>
<polygon fill="none" stroke="black" points="130.62,-810.25 44.88,-810.25 44.88,-774.25 130.62,-774.25 130.62,-810.25"/>
<text xml:space="preserve" text-anchor="middle" x="87.75" y="-786.83" font-family="Arial" font-size="14.00">wd2 = &#45;wd2</text>
</g>
<!-- cond1&#45;&gt;neg_wd2 -->
<g id="edge8" class="edge">
<title>cond1&#45;&gt;neg_wd2</title>
<path fill="none" stroke="black" d="M119.41,-862.87C114.05,-851.08 106.65,-834.8 100.34,-820.94"/>
<polygon fill="black" stroke="black" points="103.54,-819.52 96.21,-811.86 97.17,-822.41 103.54,-819.52"/>
<text xml:space="preserve" text-anchor="middle" x="124.62" y="-830.7" font-family="Arial" font-size="14.00">True</text>
</g>
<!-- shift_wd2 -->
<g id="node11" class="node">
<title>shift_wd2</title>
<polygon fill="none" stroke="black" points="183.12,-737.25 70.38,-737.25 70.38,-701.25 183.12,-701.25 183.12,-737.25"/>
<text xml:space="preserve" text-anchor="middle" x="126.75" y="-713.83" font-family="Arial" font-size="14.00">wd2 = wd2 &gt;&gt; 7</text>
</g>
<!-- cond1&#45;&gt;shift_wd2 -->
<g id="edge9" class="edge">
<title>cond1&#45;&gt;shift_wd2</title>
<path fill="none" stroke="black" d="M135.75,-863.12C138.58,-857.3 141.33,-850.53 142.75,-844 149.79,-811.66 142.73,-773.84 135.89,-748.6"/>
<polygon fill="black" stroke="black" points="139.27,-747.71 133.13,-739.08 132.55,-749.66 139.27,-747.71"/>
<text xml:space="preserve" text-anchor="middle" x="162.06" y="-786.83" font-family="Arial" font-size="14.00">False</text>
</g>
<!-- neg_wd2&#45;&gt;shift_wd2 -->
<g id="edge10" class="edge">
<title>neg_wd2&#45;&gt;shift_wd2</title>
<path fill="none" stroke="black" d="M97.19,-774.06C101.6,-766.04 106.95,-756.3 111.88,-747.32"/>
<polygon fill="black" stroke="black" points="114.92,-749.06 116.67,-738.61 108.79,-745.69 114.92,-749.06"/>
</g>
<!-- cond2 -->
<g id="node12" class="node">
<title>cond2</title>
<polygon fill="none" stroke="black" points="126.75,-664.25 24.9,-646.25 126.75,-628.25 228.6,-646.25 126.75,-664.25"/>
<text xml:space="preserve" text-anchor="middle" x="126.75" y="-640.83" font-family="Arial" font-size="14.00">if (plt*plt2 &gt;= 0)</text>
</g>
<!-- shift_wd2&#45;&gt;cond2 -->
<g id="edge11" class="edge">
<title>shift_wd2&#45;&gt;cond2</title>
<path fill="none" stroke="black" d="M126.75,-701.06C126.75,-693.48 126.75,-684.35 126.75,-675.79"/>
<polygon fill="black" stroke="black" points="130.25,-675.79 126.75,-665.79 123.25,-675.79 130.25,-675.79"/>
</g>
<!-- add_128 -->
<g id="node13" class="node">
<title>add_128</title>
<polygon fill="none" stroke="black" points="119.5,-576.5 0,-576.5 0,-540.5 119.5,-540.5 119.5,-576.5"/>
<text xml:space="preserve" text-anchor="middle" x="59.75" y="-553.08" font-family="Arial" font-size="14.00">wd4 = wd2 + 128</text>
</g>
<!-- cond2&#45;&gt;add_128 -->
<g id="edge12" class="edge">
<title>cond2&#45;&gt;add_128</title>
<path fill="none" stroke="black" d="M114.77,-629.92C105.2,-617.67 91.56,-600.22 80.26,-585.75"/>
<polygon fill="black" stroke="black" points="83.08,-583.68 74.17,-577.95 77.57,-587.99 83.08,-583.68"/>
<text xml:space="preserve" text-anchor="middle" x="113.13" y="-596.95" font-family="Arial" font-size="14.00">True</text>
</g>
<!-- sub_128 -->
<g id="node14" class="node">
<title>sub_128</title>
<polygon fill="none" stroke="black" points="253.62,-576.5 137.88,-576.5 137.88,-540.5 253.62,-540.5 253.62,-576.5"/>
<text xml:space="preserve" text-anchor="middle" x="195.75" y="-553.08" font-family="Arial" font-size="14.00">wd4 = wd2 &#45; 128</text>
</g>
<!-- cond2&#45;&gt;sub_128 -->
<g id="edge13" class="edge">
<title>cond2&#45;&gt;sub_128</title>
<path fill="none" stroke="black" d="M138.77,-630.31C148.68,-618 162.98,-600.23 174.77,-585.57"/>
<polygon fill="black" stroke="black" points="177.24,-588.09 180.78,-578.1 171.78,-583.7 177.24,-588.09"/>
<text xml:space="preserve" text-anchor="middle" x="183.93" y="-596.95" font-family="Arial" font-size="14.00">False</text>
</g>
<!-- calc_apl2 -->
<g id="node15" class="node">
<title>calc_apl2</title>
<polygon fill="none" stroke="black" points="243.5,-503.5 10,-503.5 10,-467.5 243.5,-467.5 243.5,-503.5"/>
<text xml:space="preserve" text-anchor="middle" x="126.75" y="-480.07" font-family="Arial" font-size="14.00">apl2 = wd4 + (127L*(long)al2 &gt;&gt; 7L)</text>
</g>
<!-- add_128&#45;&gt;calc_apl2 -->
<g id="edge14" class="edge">
<title>add_128&#45;&gt;calc_apl2</title>
<path fill="none" stroke="black" d="M75.97,-540.31C84.03,-531.77 93.94,-521.27 102.85,-511.82"/>
<polygon fill="black" stroke="black" points="105.32,-514.3 109.64,-504.63 100.23,-509.5 105.32,-514.3"/>
</g>
<!-- sub_128&#45;&gt;calc_apl2 -->
<g id="edge15" class="edge">
<title>sub_128&#45;&gt;calc_apl2</title>
<path fill="none" stroke="black" d="M179.05,-540.31C170.66,-531.68 160.33,-521.06 151.08,-511.53"/>
<polygon fill="black" stroke="black" points="153.83,-509.35 144.35,-504.61 148.81,-514.22 153.83,-509.35"/>
</g>
<!-- cond3 -->
<g id="node16" class="node">
<title>cond3</title>
<polygon fill="none" stroke="black" points="126.75,-430.5 19.25,-412.5 126.75,-394.5 234.25,-412.5 126.75,-430.5"/>
<text xml:space="preserve" text-anchor="middle" x="126.75" y="-407.07" font-family="Arial" font-size="14.00">if (apl2 &gt; 12288)</text>
</g>
<!-- calc_apl2&#45;&gt;cond3 -->
<g id="edge16" class="edge">
<title>calc_apl2&#45;&gt;cond3</title>
<path fill="none" stroke="black" d="M126.75,-467.31C126.75,-459.73 126.75,-450.6 126.75,-442.04"/>
<polygon fill="black" stroke="black" points="130.25,-442.04 126.75,-432.04 123.25,-442.04 130.25,-442.04"/>
</g>
<!-- set_max -->
<g id="node17" class="node">
<title>set_max</title>
<polygon fill="none" stroke="black" points="133.12,-342.75 38.38,-342.75 38.38,-306.75 133.12,-306.75 133.12,-342.75"/>
<text xml:space="preserve" text-anchor="middle" x="85.75" y="-319.32" font-family="Arial" font-size="14.00">apl2 = 12288</text>
</g>
<!-- cond3&#45;&gt;set_max -->
<g id="edge17" class="edge">
<title>cond3&#45;&gt;set_max</title>
<path fill="none" stroke="black" d="M119.04,-395.37C113.34,-383.46 105.46,-366.97 98.79,-353.03"/>
<polygon fill="black" stroke="black" points="102.11,-351.86 94.64,-344.35 95.8,-354.88 102.11,-351.86"/>
<text xml:space="preserve" text-anchor="middle" x="123.8" y="-363.2" font-family="Arial" font-size="14.00">True</text>
</g>
<!-- cond4 -->
<g id="node18" class="node">
<title>cond4</title>
<polygon fill="none" stroke="black" points="126.75,-269.75 15.02,-251.75 126.75,-233.75 238.48,-251.75 126.75,-269.75"/>
<text xml:space="preserve" text-anchor="middle" x="126.75" y="-246.32" font-family="Arial" font-size="14.00">if (apl2 &lt; &#45;12288)</text>
</g>
<!-- cond3&#45;&gt;cond4 -->
<g id="edge18" class="edge">
<title>cond3&#45;&gt;cond4</title>
<path fill="none" stroke="black" d="M135.19,-395.56C137.84,-389.73 140.42,-382.98 141.75,-376.5 147.98,-346.13 145.94,-337.47 141.75,-306.75 140.54,-297.87 138.26,-288.39 135.83,-279.89"/>
<polygon fill="black" stroke="black" points="139.23,-279.04 132.97,-270.5 132.54,-281.08 139.23,-279.04"/>
<text xml:space="preserve" text-anchor="middle" x="162.17" y="-319.32" font-family="Arial" font-size="14.00">False</text>
</g>
<!-- set_max&#45;&gt;cond4 -->
<g id="edge19" class="edge">
<title>set_max&#45;&gt;cond4</title>
<path fill="none" stroke="black" d="M95.67,-306.56C100.62,-298 106.69,-287.49 112.15,-278.03"/>
<polygon fill="black" stroke="black" points="115.03,-280.05 117,-269.64 108.97,-276.55 115.03,-280.05"/>
</g>
<!-- set_min -->
<g id="node19" class="node">
<title>set_min</title>
<polygon fill="none" stroke="black" points="133.38,-182 34.12,-182 34.12,-146 133.38,-146 133.38,-182"/>
<text xml:space="preserve" text-anchor="middle" x="83.75" y="-158.57" font-family="Arial" font-size="14.00">apl2 = &#45;12288</text>
</g>
<!-- cond4&#45;&gt;set_min -->
<g id="edge20" class="edge">
<title>cond4&#45;&gt;set_min</title>
<path fill="none" stroke="black" d="M118.66,-234.62C112.69,-222.71 104.42,-206.22 97.43,-192.28"/>
<polygon fill="black" stroke="black" points="100.68,-190.96 93.07,-183.59 94.42,-194.09 100.68,-190.96"/>
<text xml:space="preserve" text-anchor="middle" x="122.98" y="-202.45" font-family="Arial" font-size="14.00">True</text>
</g>
<!-- return_apl2 -->
<g id="node20" class="node">
<title>return_apl2</title>
<polygon fill="none" stroke="black" points="167,-109 86.5,-109 86.5,-73 167,-73 167,-109"/>
<text xml:space="preserve" text-anchor="middle" x="126.75" y="-85.58" font-family="Arial" font-size="14.00">return apl2</text>
</g>
<!-- cond4&#45;&gt;return_apl2 -->
<g id="edge21" class="edge">
<title>cond4&#45;&gt;return_apl2</title>
<path fill="none" stroke="black" d="M134.42,-234.71C136.87,-228.87 139.32,-222.14 140.75,-215.75 147.51,-185.48 147.2,-176.69 142.75,-146 141.51,-137.45 139.22,-128.37 136.75,-120.14"/>
<polygon fill="black" stroke="black" points="140.1,-119.11 133.7,-110.67 133.43,-121.26 140.1,-119.11"/>
<text xml:space="preserve" text-anchor="middle" x="162.48" y="-158.57" font-family="Arial" font-size="14.00">False</text>
</g>
<!-- set_min&#45;&gt;return_apl2 -->
<g id="edge22" class="edge">
<title>set_min&#45;&gt;return_apl2</title>
<path fill="none" stroke="black" d="M94.16,-145.81C99.07,-137.7 105.05,-127.84 110.53,-118.78"/>
<polygon fill="black" stroke="black" points="113.47,-120.69 115.65,-110.32 107.48,-117.06 113.47,-120.69"/>
</g>
<!-- return_apl2&#45;&gt;end -->
<g id="edge23" class="edge">
<title>return_apl2&#45;&gt;end</title>
<path fill="none" stroke="black" d="M126.75,-72.81C126.75,-65.23 126.75,-56.1 126.75,-47.54"/>
<polygon fill="black" stroke="black" points="130.25,-47.54 126.75,-37.54 123.25,-47.54 130.25,-47.54"/>
</g>
</g>
</svg>
