<?xml version="1.0" encoding="UTF-8" standalone="no"?>
<!DOCTYPE svg PUBLIC "-//W3C//DTD SVG 1.1//EN"
 "http://www.w3.org/Graphics/SVG/1.1/DTD/svg11.dtd">
<!-- Generated by graphviz version 13.1.2 (20250808.2320)
 -->
<!-- Title: encode_CFG Pages: 1 -->
<svg width="256pt" height="2938pt"
 viewBox="0.00 0.00 256.00 2938.00" xmlns="http://www.w3.org/2000/svg" xmlns:xlink="http://www.w3.org/1999/xlink">
<g id="graph0" class="graph" transform="scale(1 1) rotate(0) translate(4 2933.5)">
<title>encode_CFG</title>
<polygon fill="white" stroke="none" points="-4,4 -4,-2933.5 252.25,-2933.5 252.25,4 -4,4"/>
<!-- N1 -->
<g id="node1" class="node">
<title>N1</title>
<path fill="none" stroke="black" d="M145.12,-2929.5C145.12,-2929.5 106.62,-2929.5 106.62,-2929.5 100.62,-2929.5 94.62,-2923.5 94.62,-2917.5 94.62,-2917.5 94.62,-2905.5 94.62,-2905.5 94.62,-2899.5 100.62,-2893.5 106.62,-2893.5 106.62,-2893.5 145.12,-2893.5 145.12,-2893.5 151.12,-2893.5 157.12,-2899.5 157.12,-2905.5 157.12,-2905.5 157.12,-2917.5 157.12,-2917.5 157.12,-2923.5 151.12,-2929.5 145.12,-2929.5"/>
<text xml:space="preserve" text-anchor="middle" x="125.88" y="-2906.07" font-family="Helvetica,sans-Serif" font-size="14.00">1: Inicio</text>
</g>
<!-- N2 -->
<g id="node2" class="node">
<title>N2</title>
<path fill="none" stroke="black" d="M219,-2856.5C219,-2856.5 32.75,-2856.5 32.75,-2856.5 26.75,-2856.5 20.75,-2850.5 20.75,-2844.5 20.75,-2844.5 20.75,-2832.5 20.75,-2832.5 20.75,-2826.5 26.75,-2820.5 32.75,-2820.5 32.75,-2820.5 219,-2820.5 219,-2820.5 225,-2820.5 231,-2826.5 231,-2832.5 231,-2832.5 231,-2844.5 231,-2844.5 231,-2850.5 225,-2856.5 219,-2856.5"/>
<text xml:space="preserve" text-anchor="middle" x="125.88" y="-2833.07" font-family="Helvetica,sans-Serif" font-size="14.00">2: Inicializa ponteiros e variaveis</text>
</g>
<!-- N1&#45;&gt;N2 -->
<g id="edge1" class="edge">
<title>N1&#45;&gt;N2</title>
<path fill="none" stroke="black" d="M125.88,-2893.31C125.88,-2885.73 125.88,-2876.6 125.88,-2868.04"/>
<polygon fill="black" stroke="black" points="129.38,-2868.04 125.88,-2858.04 122.38,-2868.04 129.38,-2868.04"/>
</g>
<!-- N3 -->
<g id="node3" class="node">
<title>N3</title>
<path fill="none" stroke="black" d="M181.88,-2783.5C181.88,-2783.5 69.88,-2783.5 69.88,-2783.5 63.88,-2783.5 57.88,-2777.5 57.88,-2771.5 57.88,-2771.5 57.88,-2759.5 57.88,-2759.5 57.88,-2753.5 63.88,-2747.5 69.88,-2747.5 69.88,-2747.5 181.88,-2747.5 181.88,-2747.5 187.88,-2747.5 193.88,-2753.5 193.88,-2759.5 193.88,-2759.5 193.88,-2771.5 193.88,-2771.5 193.88,-2777.5 187.88,-2783.5 181.88,-2783.5"/>
<text xml:space="preserve" text-anchor="middle" x="125.88" y="-2760.07" font-family="Helvetica,sans-Serif" font-size="14.00">3: Loop: i = 0 ate 10</text>
</g>
<!-- N2&#45;&gt;N3 -->
<g id="edge2" class="edge">
<title>N2&#45;&gt;N3</title>
<path fill="none" stroke="black" d="M125.88,-2820.31C125.88,-2812.73 125.88,-2803.6 125.88,-2795.04"/>
<polygon fill="black" stroke="black" points="129.38,-2795.04 125.88,-2785.04 122.38,-2795.04 129.38,-2795.04"/>
</g>
<!-- N4 -->
<g id="node4" class="node">
<title>N4</title>
<path fill="none" stroke="black" d="M127.62,-2710.5C127.62,-2710.5 26.12,-2710.5 26.12,-2710.5 20.12,-2710.5 14.12,-2704.5 14.12,-2698.5 14.12,-2698.5 14.12,-2686.5 14.12,-2686.5 14.12,-2680.5 20.12,-2674.5 26.12,-2674.5 26.12,-2674.5 127.62,-2674.5 127.62,-2674.5 133.62,-2674.5 139.62,-2680.5 139.62,-2686.5 139.62,-2686.5 139.62,-2698.5 139.62,-2698.5 139.62,-2704.5 133.62,-2710.5 127.62,-2710.5"/>
<text xml:space="preserve" text-anchor="middle" x="76.88" y="-2687.07" font-family="Helvetica,sans-Serif" font-size="14.00">4: Atualiza xa e xb</text>
</g>
<!-- N3&#45;&gt;N4 -->
<g id="edge3" class="edge">
<title>N3&#45;&gt;N4</title>
<path fill="none" stroke="black" d="M114.01,-2747.31C108.36,-2739.12 101.46,-2729.12 95.15,-2719.98"/>
<polygon fill="black" stroke="black" points="98.05,-2718.02 89.49,-2711.77 92.29,-2721.99 98.05,-2718.02"/>
</g>
<!-- N5 -->
<g id="node5" class="node">
<title>N5</title>
<path fill="none" stroke="black" d="M168,-2637.5C168,-2637.5 83.75,-2637.5 83.75,-2637.5 77.75,-2637.5 71.75,-2631.5 71.75,-2625.5 71.75,-2625.5 71.75,-2613.5 71.75,-2613.5 71.75,-2607.5 77.75,-2601.5 83.75,-2601.5 83.75,-2601.5 168,-2601.5 168,-2601.5 174,-2601.5 180,-2607.5 180,-2613.5 180,-2613.5 180,-2625.5 180,-2625.5 180,-2631.5 174,-2637.5 168,-2637.5"/>
<text xml:space="preserve" text-anchor="middle" x="125.88" y="-2614.07" font-family="Helvetica,sans-Serif" font-size="14.00">5: Final do loop</text>
</g>
<!-- N4&#45;&gt;N5 -->
<g id="edge4" class="edge">
<title>N4&#45;&gt;N5</title>
<path fill="none" stroke="black" d="M88.74,-2674.31C94.39,-2666.12 101.29,-2656.12 107.6,-2646.98"/>
<polygon fill="black" stroke="black" points="110.46,-2648.99 113.26,-2638.77 104.7,-2645.02 110.46,-2648.99"/>
</g>
<!-- N5&#45;&gt;N3 -->
<g id="edge5" class="edge">
<title>N5&#45;&gt;N3</title>
<path fill="none" stroke="black" d="M135.42,-2637.92C140.52,-2648.22 146.27,-2661.72 148.88,-2674.5 152.07,-2690.18 152.07,-2694.82 148.88,-2710.5 147.06,-2719.39 143.73,-2728.62 140.15,-2736.89"/>
<polygon fill="black" stroke="black" points="137.09,-2735.17 136.06,-2745.71 143.44,-2738.12 137.09,-2735.17"/>
<text xml:space="preserve" text-anchor="middle" x="167.77" y="-2687.45" font-family="Times New Roman,serif" font-size="14.00">i &lt; 10</text>
</g>
<!-- N6 -->
<g id="node6" class="node">
<title>N6</title>
<path fill="none" stroke="black" d="M198.75,-2549C198.75,-2549 53,-2549 53,-2549 47,-2549 41,-2543 41,-2537 41,-2537 41,-2525 41,-2525 41,-2519 47,-2513 53,-2513 53,-2513 198.75,-2513 198.75,-2513 204.75,-2513 210.75,-2519 210.75,-2525 210.75,-2525 210.75,-2537 210.75,-2537 210.75,-2543 204.75,-2549 198.75,-2549"/>
<text xml:space="preserve" text-anchor="middle" x="125.88" y="-2525.57" font-family="Helvetica,sans-Serif" font-size="14.00">6: Atualiza delay line tqmf</text>
</g>
<!-- N5&#45;&gt;N6 -->
<g id="edge6" class="edge">
<title>N5&#45;&gt;N6</title>
<path fill="none" stroke="black" d="M125.88,-2601.41C125.88,-2589.76 125.88,-2574.05 125.88,-2560.52"/>
<polygon fill="black" stroke="black" points="129.38,-2560.86 125.88,-2550.86 122.38,-2560.86 129.38,-2560.86"/>
<text xml:space="preserve" text-anchor="middle" x="146.5" y="-2570.2" font-family="Times New Roman,serif" font-size="14.00">i &gt;= 10</text>
</g>
<!-- N7 -->
<g id="node7" class="node">
<title>N7</title>
<path fill="none" stroke="black" d="M173.25,-2476C173.25,-2476 78.5,-2476 78.5,-2476 72.5,-2476 66.5,-2470 66.5,-2464 66.5,-2464 66.5,-2452 66.5,-2452 66.5,-2446 72.5,-2440 78.5,-2440 78.5,-2440 173.25,-2440 173.25,-2440 179.25,-2440 185.25,-2446 185.25,-2452 185.25,-2452 185.25,-2464 185.25,-2464 185.25,-2470 179.25,-2476 173.25,-2476"/>
<text xml:space="preserve" text-anchor="middle" x="125.88" y="-2452.57" font-family="Helvetica,sans-Serif" font-size="14.00">7: Calcula xl e xh</text>
</g>
<!-- N6&#45;&gt;N7 -->
<g id="edge7" class="edge">
<title>N6&#45;&gt;N7</title>
<path fill="none" stroke="black" d="M125.88,-2512.81C125.88,-2505.23 125.88,-2496.1 125.88,-2487.54"/>
<polygon fill="black" stroke="black" points="129.38,-2487.54 125.88,-2477.54 122.38,-2487.54 129.38,-2487.54"/>
</g>
<!-- N8 -->
<g id="node8" class="node">
<title>N8</title>
<path fill="none" stroke="black" d="M193.88,-2403C193.88,-2403 57.88,-2403 57.88,-2403 51.88,-2403 45.88,-2397 45.88,-2391 45.88,-2391 45.88,-2379 45.88,-2379 45.88,-2373 51.88,-2367 57.88,-2367 57.88,-2367 193.88,-2367 193.88,-2367 199.88,-2367 205.88,-2373 205.88,-2379 205.88,-2379 205.88,-2391 205.88,-2391 205.88,-2397 199.88,-2403 193.88,-2403"/>
<text xml:space="preserve" text-anchor="middle" x="125.88" y="-2379.57" font-family="Helvetica,sans-Serif" font-size="14.00">8: Calcula szl = filtez(...)</text>
</g>
<!-- N7&#45;&gt;N8 -->
<g id="edge8" class="edge">
<title>N7&#45;&gt;N8</title>
<path fill="none" stroke="black" d="M125.88,-2439.81C125.88,-2432.23 125.88,-2423.1 125.88,-2414.54"/>
<polygon fill="black" stroke="black" points="129.38,-2414.54 125.88,-2404.54 122.38,-2414.54 129.38,-2414.54"/>
</g>
<!-- N9 -->
<g id="node9" class="node">
<title>N9</title>
<path fill="none" stroke="black" d="M194.62,-2330C194.62,-2330 57.12,-2330 57.12,-2330 51.12,-2330 45.12,-2324 45.12,-2318 45.12,-2318 45.12,-2306 45.12,-2306 45.12,-2300 51.12,-2294 57.12,-2294 57.12,-2294 194.62,-2294 194.62,-2294 200.62,-2294 206.62,-2300 206.62,-2306 206.62,-2306 206.62,-2318 206.62,-2318 206.62,-2324 200.62,-2330 194.62,-2330"/>
<text xml:space="preserve" text-anchor="middle" x="125.88" y="-2306.57" font-family="Helvetica,sans-Serif" font-size="14.00">9: Calcula spl = filtep(...)</text>
</g>
<!-- N8&#45;&gt;N9 -->
<g id="edge9" class="edge">
<title>N8&#45;&gt;N9</title>
<path fill="none" stroke="black" d="M125.88,-2366.81C125.88,-2359.23 125.88,-2350.1 125.88,-2341.54"/>
<polygon fill="black" stroke="black" points="129.38,-2341.54 125.88,-2331.54 122.38,-2341.54 129.38,-2341.54"/>
</g>
<!-- N10 -->
<g id="node10" class="node">
<title>N10</title>
<path fill="none" stroke="black" d="M195,-2257C195,-2257 56.75,-2257 56.75,-2257 50.75,-2257 44.75,-2251 44.75,-2245 44.75,-2245 44.75,-2233 44.75,-2233 44.75,-2227 50.75,-2221 56.75,-2221 56.75,-2221 195,-2221 195,-2221 201,-2221 207,-2227 207,-2233 207,-2233 207,-2245 207,-2245 207,-2251 201,-2257 195,-2257"/>
<text xml:space="preserve" text-anchor="middle" x="125.88" y="-2233.57" font-family="Helvetica,sans-Serif" font-size="14.00">10: Calcula sl = szl + spl</text>
</g>
<!-- N9&#45;&gt;N10 -->
<g id="edge10" class="edge">
<title>N9&#45;&gt;N10</title>
<path fill="none" stroke="black" d="M125.88,-2293.81C125.88,-2286.23 125.88,-2277.1 125.88,-2268.54"/>
<polygon fill="black" stroke="black" points="129.38,-2268.54 125.88,-2258.54 122.38,-2268.54 129.38,-2268.54"/>
</g>
<!-- N11 -->
<g id="node11" class="node">
<title>N11</title>
<path fill="none" stroke="black" d="M186,-2184C186,-2184 65.75,-2184 65.75,-2184 59.75,-2184 53.75,-2178 53.75,-2172 53.75,-2172 53.75,-2160 53.75,-2160 53.75,-2154 59.75,-2148 65.75,-2148 65.75,-2148 186,-2148 186,-2148 192,-2148 198,-2154 198,-2160 198,-2160 198,-2172 198,-2172 198,-2178 192,-2184 186,-2184"/>
<text xml:space="preserve" text-anchor="middle" x="125.88" y="-2160.57" font-family="Helvetica,sans-Serif" font-size="14.00">11: Calcula el = xl &#45; sl</text>
</g>
<!-- N10&#45;&gt;N11 -->
<g id="edge11" class="edge">
<title>N10&#45;&gt;N11</title>
<path fill="none" stroke="black" d="M125.88,-2220.81C125.88,-2213.23 125.88,-2204.1 125.88,-2195.54"/>
<polygon fill="black" stroke="black" points="129.38,-2195.54 125.88,-2185.54 122.38,-2195.54 129.38,-2195.54"/>
</g>
<!-- N12 -->
<g id="node12" class="node">
<title>N12</title>
<path fill="none" stroke="black" d="M211.12,-2111C211.12,-2111 40.62,-2111 40.62,-2111 34.62,-2111 28.62,-2105 28.62,-2099 28.62,-2099 28.62,-2087 28.62,-2087 28.62,-2081 34.62,-2075 40.62,-2075 40.62,-2075 211.12,-2075 211.12,-2075 217.12,-2075 223.12,-2081 223.12,-2087 223.12,-2087 223.12,-2099 223.12,-2099 223.12,-2105 217.12,-2111 211.12,-2111"/>
<text xml:space="preserve" text-anchor="middle" x="125.88" y="-2087.57" font-family="Helvetica,sans-Serif" font-size="14.00">12: Calcula il = quantl(el, detl)</text>
</g>
<!-- N11&#45;&gt;N12 -->
<g id="edge12" class="edge">
<title>N11&#45;&gt;N12</title>
<path fill="none" stroke="black" d="M125.88,-2147.81C125.88,-2140.23 125.88,-2131.1 125.88,-2122.54"/>
<polygon fill="black" stroke="black" points="129.38,-2122.54 125.88,-2112.54 122.38,-2122.54 129.38,-2122.54"/>
</g>
<!-- N13 -->
<g id="node13" class="node">
<title>N13</title>
<path fill="none" stroke="black" d="M164.62,-2038C164.62,-2038 87.12,-2038 87.12,-2038 81.12,-2038 75.12,-2032 75.12,-2026 75.12,-2026 75.12,-2014 75.12,-2014 75.12,-2008 81.12,-2002 87.12,-2002 87.12,-2002 164.62,-2002 164.62,-2002 170.62,-2002 176.62,-2008 176.62,-2014 176.62,-2014 176.62,-2026 176.62,-2026 176.62,-2032 170.62,-2038 164.62,-2038"/>
<text xml:space="preserve" text-anchor="middle" x="125.88" y="-2014.58" font-family="Helvetica,sans-Serif" font-size="14.00">13: Calcula dlt</text>
</g>
<!-- N12&#45;&gt;N13 -->
<g id="edge13" class="edge">
<title>N12&#45;&gt;N13</title>
<path fill="none" stroke="black" d="M125.88,-2074.81C125.88,-2067.23 125.88,-2058.1 125.88,-2049.54"/>
<polygon fill="black" stroke="black" points="129.38,-2049.54 125.88,-2039.54 122.38,-2049.54 129.38,-2049.54"/>
</g>
<!-- N14 -->
<g id="node14" class="node">
<title>N14</title>
<path fill="none" stroke="black" d="M213,-1965C213,-1965 38.75,-1965 38.75,-1965 32.75,-1965 26.75,-1959 26.75,-1953 26.75,-1953 26.75,-1941 26.75,-1941 26.75,-1935 32.75,-1929 38.75,-1929 38.75,-1929 213,-1929 213,-1929 219,-1929 225,-1935 225,-1941 225,-1941 225,-1953 225,-1953 225,-1959 219,-1965 213,-1965"/>
<text xml:space="preserve" text-anchor="middle" x="125.88" y="-1941.58" font-family="Helvetica,sans-Serif" font-size="14.00">14: Atualiza nbl = logscl(il, nbl)</text>
</g>
<!-- N13&#45;&gt;N14 -->
<g id="edge14" class="edge">
<title>N13&#45;&gt;N14</title>
<path fill="none" stroke="black" d="M125.88,-2001.81C125.88,-1994.23 125.88,-1985.1 125.88,-1976.54"/>
<polygon fill="black" stroke="black" points="129.38,-1976.54 125.88,-1966.54 122.38,-1976.54 129.38,-1976.54"/>
</g>
<!-- N15 -->
<g id="node15" class="node">
<title>N15</title>
<path fill="none" stroke="black" d="M215.62,-1892C215.62,-1892 36.12,-1892 36.12,-1892 30.12,-1892 24.13,-1886 24.13,-1880 24.13,-1880 24.13,-1868 24.13,-1868 24.13,-1862 30.13,-1856 36.13,-1856 36.13,-1856 215.62,-1856 215.62,-1856 221.62,-1856 227.62,-1862 227.62,-1868 227.62,-1868 227.62,-1880 227.62,-1880 227.62,-1886 221.62,-1892 215.62,-1892"/>
<text xml:space="preserve" text-anchor="middle" x="125.88" y="-1868.58" font-family="Helvetica,sans-Serif" font-size="14.00">15: Atualiza detl = scalel(nbl, 8)</text>
</g>
<!-- N14&#45;&gt;N15 -->
<g id="edge15" class="edge">
<title>N14&#45;&gt;N15</title>
<path fill="none" stroke="black" d="M125.88,-1928.81C125.88,-1921.23 125.88,-1912.1 125.88,-1903.54"/>
<polygon fill="black" stroke="black" points="129.38,-1903.54 125.88,-1893.54 122.38,-1903.54 129.38,-1903.54"/>
</g>
<!-- N16 -->
<g id="node16" class="node">
<title>N16</title>
<path fill="none" stroke="black" d="M195.75,-1819C195.75,-1819 56,-1819 56,-1819 50,-1819 44,-1813 44,-1807 44,-1807 44,-1795 44,-1795 44,-1789 50,-1783 56,-1783 56,-1783 195.75,-1783 195.75,-1783 201.75,-1783 207.75,-1789 207.75,-1795 207.75,-1795 207.75,-1807 207.75,-1807 207.75,-1813 201.75,-1819 195.75,-1819"/>
<text xml:space="preserve" text-anchor="middle" x="125.88" y="-1795.58" font-family="Helvetica,sans-Serif" font-size="14.00">16: Calcula plt = dlt + szl</text>
</g>
<!-- N15&#45;&gt;N16 -->
<g id="edge16" class="edge">
<title>N15&#45;&gt;N16</title>
<path fill="none" stroke="black" d="M125.88,-1855.81C125.88,-1848.23 125.88,-1839.1 125.88,-1830.54"/>
<polygon fill="black" stroke="black" points="129.38,-1830.54 125.88,-1820.54 122.38,-1830.54 129.38,-1830.54"/>
</g>
<!-- N17 -->
<g id="node17" class="node">
<title>N17</title>
<path fill="none" stroke="black" d="M232.12,-1746C232.12,-1746 19.62,-1746 19.62,-1746 13.62,-1746 7.62,-1740 7.62,-1734 7.62,-1734 7.62,-1722 7.62,-1722 7.62,-1716 13.62,-1710 19.62,-1710 19.62,-1710 232.12,-1710 232.12,-1710 238.12,-1710 244.12,-1716 244.12,-1722 244.12,-1722 244.12,-1734 244.12,-1734 244.12,-1740 238.12,-1746 232.12,-1746"/>
<text xml:space="preserve" text-anchor="middle" x="125.88" y="-1722.58" font-family="Helvetica,sans-Serif" font-size="14.00">17: upzero(dlt, delay_dltx, delay_bpl)</text>
</g>
<!-- N16&#45;&gt;N17 -->
<g id="edge17" class="edge">
<title>N16&#45;&gt;N17</title>
<path fill="none" stroke="black" d="M125.88,-1782.81C125.88,-1775.23 125.88,-1766.1 125.88,-1757.54"/>
<polygon fill="black" stroke="black" points="129.38,-1757.54 125.88,-1747.54 122.38,-1757.54 129.38,-1757.54"/>
</g>
<!-- N18 -->
<g id="node18" class="node">
<title>N18</title>
<path fill="none" stroke="black" d="M205.88,-1673C205.88,-1673 45.88,-1673 45.88,-1673 39.88,-1673 33.88,-1667 33.88,-1661 33.88,-1661 33.88,-1649 33.88,-1649 33.88,-1643 39.88,-1637 45.88,-1637 45.88,-1637 205.88,-1637 205.88,-1637 211.88,-1637 217.88,-1643 217.88,-1649 217.88,-1649 217.88,-1661 217.88,-1661 217.88,-1667 211.88,-1673 205.88,-1673"/>
<text xml:space="preserve" text-anchor="middle" x="125.88" y="-1649.58" font-family="Helvetica,sans-Serif" font-size="14.00">18: Atualiza al2 = uppol2(...)</text>
</g>
<!-- N17&#45;&gt;N18 -->
<g id="edge18" class="edge">
<title>N17&#45;&gt;N18</title>
<path fill="none" stroke="black" d="M125.88,-1709.81C125.88,-1702.23 125.88,-1693.1 125.88,-1684.54"/>
<polygon fill="black" stroke="black" points="129.38,-1684.54 125.88,-1674.54 122.38,-1684.54 129.38,-1684.54"/>
</g>
<!-- N19 -->
<g id="node19" class="node">
<title>N19</title>
<path fill="none" stroke="black" d="M205.88,-1600C205.88,-1600 45.88,-1600 45.88,-1600 39.88,-1600 33.88,-1594 33.88,-1588 33.88,-1588 33.88,-1576 33.88,-1576 33.88,-1570 39.88,-1564 45.88,-1564 45.88,-1564 205.88,-1564 205.88,-1564 211.88,-1564 217.88,-1570 217.88,-1576 217.88,-1576 217.88,-1588 217.88,-1588 217.88,-1594 211.88,-1600 205.88,-1600"/>
<text xml:space="preserve" text-anchor="middle" x="125.88" y="-1576.58" font-family="Helvetica,sans-Serif" font-size="14.00">19: Atualiza al1 = uppol1(...)</text>
</g>
<!-- N18&#45;&gt;N19 -->
<g id="edge19" class="edge">
<title>N18&#45;&gt;N19</title>
<path fill="none" stroke="black" d="M125.88,-1636.81C125.88,-1629.23 125.88,-1620.1 125.88,-1611.54"/>
<polygon fill="black" stroke="black" points="129.38,-1611.54 125.88,-1601.54 122.38,-1611.54 129.38,-1611.54"/>
</g>
<!-- N20 -->
<g id="node20" class="node">
<title>N20</title>
<path fill="none" stroke="black" d="M190.88,-1527C190.88,-1527 60.88,-1527 60.88,-1527 54.88,-1527 48.88,-1521 48.88,-1515 48.88,-1515 48.88,-1503 48.88,-1503 48.88,-1497 54.88,-1491 60.88,-1491 60.88,-1491 190.88,-1491 190.88,-1491 196.88,-1491 202.88,-1497 202.88,-1503 202.88,-1503 202.88,-1515 202.88,-1515 202.88,-1521 196.88,-1527 190.88,-1527"/>
<text xml:space="preserve" text-anchor="middle" x="125.88" y="-1503.58" font-family="Helvetica,sans-Serif" font-size="14.00">20: Calcula rlt = sl + dlt</text>
</g>
<!-- N19&#45;&gt;N20 -->
<g id="edge20" class="edge">
<title>N19&#45;&gt;N20</title>
<path fill="none" stroke="black" d="M125.88,-1563.81C125.88,-1556.23 125.88,-1547.1 125.88,-1538.54"/>
<polygon fill="black" stroke="black" points="129.38,-1538.54 125.88,-1528.54 122.38,-1538.54 129.38,-1538.54"/>
</g>
<!-- N21 -->
<g id="node21" class="node">
<title>N21</title>
<path fill="none" stroke="black" d="M236.25,-1454C236.25,-1454 15.5,-1454 15.5,-1454 9.5,-1454 3.5,-1448 3.5,-1442 3.5,-1442 3.5,-1430 3.5,-1430 3.5,-1424 9.5,-1418 15.5,-1418 15.5,-1418 236.25,-1418 236.25,-1418 242.25,-1418 248.25,-1424 248.25,-1430 248.25,-1430 248.25,-1442 248.25,-1442 248.25,-1448 242.25,-1454 236.25,-1454"/>
<text xml:space="preserve" text-anchor="middle" x="125.88" y="-1430.58" font-family="Helvetica,sans-Serif" font-size="14.00">21: Atualiza delays (rlt2, rlt1, plt2, plt1)</text>
</g>
<!-- N20&#45;&gt;N21 -->
<g id="edge21" class="edge">
<title>N20&#45;&gt;N21</title>
<path fill="none" stroke="black" d="M125.88,-1490.81C125.88,-1483.23 125.88,-1474.1 125.88,-1465.54"/>
<polygon fill="black" stroke="black" points="129.38,-1465.54 125.88,-1455.54 122.38,-1465.54 129.38,-1465.54"/>
</g>
<!-- N22 -->
<g id="node22" class="node">
<title>N22</title>
<path fill="none" stroke="black" d="M199.88,-1381C199.88,-1381 51.88,-1381 51.88,-1381 45.88,-1381 39.88,-1375 39.88,-1369 39.88,-1369 39.88,-1357 39.88,-1357 39.88,-1351 45.88,-1345 51.88,-1345 51.88,-1345 199.88,-1345 199.88,-1345 205.88,-1345 211.88,-1351 211.88,-1357 211.88,-1357 211.88,-1369 211.88,-1369 211.88,-1375 205.88,-1381 199.88,-1381"/>
<text xml:space="preserve" text-anchor="middle" x="125.88" y="-1357.58" font-family="Helvetica,sans-Serif" font-size="14.00">22: Calcula szh = filtez(...)</text>
</g>
<!-- N21&#45;&gt;N22 -->
<g id="edge22" class="edge">
<title>N21&#45;&gt;N22</title>
<path fill="none" stroke="black" d="M125.88,-1417.81C125.88,-1410.23 125.88,-1401.1 125.88,-1392.54"/>
<polygon fill="black" stroke="black" points="129.38,-1392.54 125.88,-1382.54 122.38,-1392.54 129.38,-1392.54"/>
</g>
<!-- N23 -->
<g id="node23" class="node">
<title>N23</title>
<path fill="none" stroke="black" d="M200.62,-1308C200.62,-1308 51.12,-1308 51.12,-1308 45.12,-1308 39.12,-1302 39.12,-1296 39.12,-1296 39.12,-1284 39.12,-1284 39.12,-1278 45.12,-1272 51.12,-1272 51.12,-1272 200.62,-1272 200.62,-1272 206.62,-1272 212.62,-1278 212.62,-1284 212.62,-1284 212.62,-1296 212.62,-1296 212.62,-1302 206.62,-1308 200.62,-1308"/>
<text xml:space="preserve" text-anchor="middle" x="125.88" y="-1284.58" font-family="Helvetica,sans-Serif" font-size="14.00">23: Calcula sph = filtep(...)</text>
</g>
<!-- N22&#45;&gt;N23 -->
<g id="edge23" class="edge">
<title>N22&#45;&gt;N23</title>
<path fill="none" stroke="black" d="M125.88,-1344.81C125.88,-1337.23 125.88,-1328.1 125.88,-1319.54"/>
<polygon fill="black" stroke="black" points="129.38,-1319.54 125.88,-1309.54 122.38,-1319.54 129.38,-1319.54"/>
</g>
<!-- N24 -->
<g id="node24" class="node">
<title>N24</title>
<path fill="none" stroke="black" d="M201.75,-1235C201.75,-1235 50,-1235 50,-1235 44,-1235 38,-1229 38,-1223 38,-1223 38,-1211 38,-1211 38,-1205 44,-1199 50,-1199 50,-1199 201.75,-1199 201.75,-1199 207.75,-1199 213.75,-1205 213.75,-1211 213.75,-1211 213.75,-1223 213.75,-1223 213.75,-1229 207.75,-1235 201.75,-1235"/>
<text xml:space="preserve" text-anchor="middle" x="125.88" y="-1211.58" font-family="Helvetica,sans-Serif" font-size="14.00">24: Calcula sh = sph + szh</text>
</g>
<!-- N23&#45;&gt;N24 -->
<g id="edge24" class="edge">
<title>N23&#45;&gt;N24</title>
<path fill="none" stroke="black" d="M125.88,-1271.81C125.88,-1264.23 125.88,-1255.1 125.88,-1246.54"/>
<polygon fill="black" stroke="black" points="129.38,-1246.54 125.88,-1236.54 122.38,-1246.54 129.38,-1246.54"/>
</g>
<!-- N25 -->
<g id="node25" class="node">
<title>N25</title>
<path fill="none" stroke="black" d="M193.12,-1162C193.12,-1162 58.62,-1162 58.62,-1162 52.62,-1162 46.62,-1156 46.62,-1150 46.62,-1150 46.62,-1138 46.62,-1138 46.62,-1132 52.62,-1126 58.62,-1126 58.62,-1126 193.12,-1126 193.12,-1126 199.12,-1126 205.12,-1132 205.12,-1138 205.12,-1138 205.12,-1150 205.12,-1150 205.12,-1156 199.12,-1162 193.12,-1162"/>
<text xml:space="preserve" text-anchor="middle" x="125.88" y="-1138.58" font-family="Helvetica,sans-Serif" font-size="14.00">25: Calcula eh = xh &#45; sh</text>
</g>
<!-- N24&#45;&gt;N25 -->
<g id="edge25" class="edge">
<title>N24&#45;&gt;N25</title>
<path fill="none" stroke="black" d="M125.88,-1198.81C125.88,-1191.23 125.88,-1182.1 125.88,-1173.54"/>
<polygon fill="black" stroke="black" points="129.38,-1173.54 125.88,-1163.54 122.38,-1173.54 129.38,-1173.54"/>
</g>
<!-- N26 -->
<g id="node26" class="node">
<title>N26</title>
<path fill="none" stroke="black" d="M166.12,-1089C166.12,-1089 85.62,-1089 85.62,-1089 79.62,-1089 73.62,-1083 73.62,-1077 73.62,-1077 73.62,-1065 73.62,-1065 73.62,-1059 79.62,-1053 85.62,-1053 85.62,-1053 166.12,-1053 166.12,-1053 172.12,-1053 178.12,-1059 178.12,-1065 178.12,-1065 178.12,-1077 178.12,-1077 178.12,-1083 172.12,-1089 166.12,-1089"/>
<text xml:space="preserve" text-anchor="middle" x="125.88" y="-1065.58" font-family="Helvetica,sans-Serif" font-size="14.00">26: if (eh &gt;= 0)</text>
</g>
<!-- N25&#45;&gt;N26 -->
<g id="edge26" class="edge">
<title>N25&#45;&gt;N26</title>
<path fill="none" stroke="black" d="M125.88,-1125.81C125.88,-1118.23 125.88,-1109.1 125.88,-1100.54"/>
<polygon fill="black" stroke="black" points="129.38,-1100.54 125.88,-1090.54 122.38,-1100.54 129.38,-1100.54"/>
</g>
<!-- N27 -->
<g id="node27" class="node">
<title>N27</title>
<path fill="none" stroke="black" d="M105,-1000.5C105,-1000.5 56.75,-1000.5 56.75,-1000.5 50.75,-1000.5 44.75,-994.5 44.75,-988.5 44.75,-988.5 44.75,-976.5 44.75,-976.5 44.75,-970.5 50.75,-964.5 56.75,-964.5 56.75,-964.5 105,-964.5 105,-964.5 111,-964.5 117,-970.5 117,-976.5 117,-976.5 117,-988.5 117,-988.5 117,-994.5 111,-1000.5 105,-1000.5"/>
<text xml:space="preserve" text-anchor="middle" x="80.88" y="-977.08" font-family="Helvetica,sans-Serif" font-size="14.00">27: ih = 3</text>
</g>
<!-- N26&#45;&gt;N27 -->
<g id="edge27" class="edge">
<title>N26&#45;&gt;N27</title>
<path fill="none" stroke="black" d="M116.98,-1052.91C110.74,-1040.9 102.25,-1024.59 95.07,-1010.8"/>
<polygon fill="black" stroke="black" points="98.32,-1009.45 90.6,-1002.19 92.11,-1012.68 98.32,-1009.45"/>
<text xml:space="preserve" text-anchor="middle" x="117.91" y="-1021.7" font-family="Times New Roman,serif" font-size="14.00">true</text>
</g>
<!-- N28 -->
<g id="node28" class="node">
<title>N28</title>
<path fill="none" stroke="black" d="M195,-1000.5C195,-1000.5 146.75,-1000.5 146.75,-1000.5 140.75,-1000.5 134.75,-994.5 134.75,-988.5 134.75,-988.5 134.75,-976.5 134.75,-976.5 134.75,-970.5 140.75,-964.5 146.75,-964.5 146.75,-964.5 195,-964.5 195,-964.5 201,-964.5 207,-970.5 207,-976.5 207,-976.5 207,-988.5 207,-988.5 207,-994.5 201,-1000.5 195,-1000.5"/>
<text xml:space="preserve" text-anchor="middle" x="170.88" y="-977.08" font-family="Helvetica,sans-Serif" font-size="14.00">28: ih = 1</text>
</g>
<!-- N26&#45;&gt;N28 -->
<g id="edge28" class="edge">
<title>N26&#45;&gt;N28</title>
<path fill="none" stroke="black" d="M134.77,-1052.91C141.01,-1040.9 149.5,-1024.59 156.68,-1010.8"/>
<polygon fill="black" stroke="black" points="159.64,-1012.68 161.15,-1002.19 153.43,-1009.45 159.64,-1012.68"/>
<text xml:space="preserve" text-anchor="middle" x="165.16" y="-1021.7" font-family="Times New Roman,serif" font-size="14.00">false</text>
</g>
<!-- N29 -->
<g id="node29" class="node">
<title>N29</title>
<path fill="none" stroke="black" d="M172.25,-927.5C172.25,-927.5 77.5,-927.5 77.5,-927.5 71.5,-927.5 65.5,-921.5 65.5,-915.5 65.5,-915.5 65.5,-903.5 65.5,-903.5 65.5,-897.5 71.5,-891.5 77.5,-891.5 77.5,-891.5 172.25,-891.5 172.25,-891.5 178.25,-891.5 184.25,-897.5 184.25,-903.5 184.25,-903.5 184.25,-915.5 184.25,-915.5 184.25,-921.5 178.25,-927.5 172.25,-927.5"/>
<text xml:space="preserve" text-anchor="middle" x="124.88" y="-904.08" font-family="Helvetica,sans-Serif" font-size="14.00">29: Calcula decis</text>
</g>
<!-- N27&#45;&gt;N29 -->
<g id="edge29" class="edge">
<title>N27&#45;&gt;N29</title>
<path fill="none" stroke="black" d="M91.53,-964.31C96.55,-956.2 102.67,-946.34 108.28,-937.28"/>
<polygon fill="black" stroke="black" points="111.23,-939.16 113.52,-928.82 105.28,-935.47 111.23,-939.16"/>
</g>
<!-- N28&#45;&gt;N29 -->
<g id="edge30" class="edge">
<title>N28&#45;&gt;N29</title>
<path fill="none" stroke="black" d="M159.74,-964.31C154.43,-956.12 147.95,-946.12 142.03,-936.98"/>
<polygon fill="black" stroke="black" points="145.11,-935.29 136.73,-928.8 139.23,-939.09 145.11,-935.29"/>
</g>
<!-- N30 -->
<g id="node30" class="node">
<title>N30</title>
<path fill="none" stroke="black" d="M201.5,-854.5C201.5,-854.5 48.25,-854.5 48.25,-854.5 42.25,-854.5 36.25,-848.5 36.25,-842.5 36.25,-842.5 36.25,-830.5 36.25,-830.5 36.25,-824.5 42.25,-818.5 48.25,-818.5 48.25,-818.5 201.5,-818.5 201.5,-818.5 207.5,-818.5 213.5,-824.5 213.5,-830.5 213.5,-830.5 213.5,-842.5 213.5,-842.5 213.5,-848.5 207.5,-854.5 201.5,-854.5"/>
<text xml:space="preserve" text-anchor="middle" x="124.88" y="-831.08" font-family="Helvetica,sans-Serif" font-size="14.00">30: if (my_abs(eh) &gt; decis)</text>
</g>
<!-- N29&#45;&gt;N30 -->
<g id="edge31" class="edge">
<title>N29&#45;&gt;N30</title>
<path fill="none" stroke="black" d="M124.88,-891.31C124.88,-883.73 124.88,-874.6 124.88,-866.04"/>
<polygon fill="black" stroke="black" points="128.38,-866.04 124.88,-856.04 121.38,-866.04 128.38,-866.04"/>
</g>
<!-- N31 -->
<g id="node31" class="node">
<title>N31</title>
<path fill="none" stroke="black" d="M108.88,-766C108.88,-766 74.88,-766 74.88,-766 68.88,-766 62.88,-760 62.88,-754 62.88,-754 62.88,-742 62.88,-742 62.88,-736 68.88,-730 74.88,-730 74.88,-730 108.88,-730 108.88,-730 114.88,-730 120.88,-736 120.88,-742 120.88,-742 120.88,-754 120.88,-754 120.88,-760 114.88,-766 108.88,-766"/>
<text xml:space="preserve" text-anchor="middle" x="91.88" y="-742.58" font-family="Helvetica,sans-Serif" font-size="14.00">31: ih&#45;&#45;</text>
</g>
<!-- N30&#45;&gt;N31 -->
<g id="edge32" class="edge">
<title>N30&#45;&gt;N31</title>
<path fill="none" stroke="black" d="M118.36,-818.41C113.82,-806.52 107.67,-790.41 102.44,-776.7"/>
<polygon fill="black" stroke="black" points="105.87,-775.86 99.03,-767.76 99.33,-778.36 105.87,-775.86"/>
<text xml:space="preserve" text-anchor="middle" x="121.83" y="-787.2" font-family="Times New Roman,serif" font-size="14.00">true</text>
</g>
<!-- N32 -->
<g id="node32" class="node">
<title>N32</title>
<path fill="none" stroke="black" d="M163,-693C163,-693 84.75,-693 84.75,-693 78.75,-693 72.75,-687 72.75,-681 72.75,-681 72.75,-669 72.75,-669 72.75,-663 78.75,-657 84.75,-657 84.75,-657 163,-657 163,-657 169,-657 175,-663 175,-669 175,-669 175,-681 175,-681 175,-687 169,-693 163,-693"/>
<text xml:space="preserve" text-anchor="middle" x="123.88" y="-669.58" font-family="Helvetica,sans-Serif" font-size="14.00">32: Calcula dh</text>
</g>
<!-- N30&#45;&gt;N32 -->
<g id="edge33" class="edge">
<title>N30&#45;&gt;N32</title>
<path fill="none" stroke="black" d="M131.42,-818.3C133.24,-812.71 134.97,-806.42 135.88,-800.5 140.91,-767.7 135.66,-729.7 130.61,-704.4"/>
<polygon fill="black" stroke="black" points="134.09,-703.93 128.58,-694.88 127.24,-705.39 134.09,-703.93"/>
<text xml:space="preserve" text-anchor="middle" x="150.57" y="-742.95" font-family="Times New Roman,serif" font-size="14.00">false</text>
</g>
<!-- N31&#45;&gt;N32 -->
<g id="edge34" class="edge">
<title>N31&#45;&gt;N32</title>
<path fill="none" stroke="black" d="M99.62,-729.81C103.2,-721.88 107.53,-712.26 111.54,-703.36"/>
<polygon fill="black" stroke="black" points="114.66,-704.96 115.58,-694.41 108.28,-702.09 114.66,-704.96"/>
</g>
<!-- N33 -->
<g id="node33" class="node">
<title>N33</title>
<path fill="none" stroke="black" d="M220,-620C220,-620 27.75,-620 27.75,-620 21.75,-620 15.75,-614 15.75,-608 15.75,-608 15.75,-596 15.75,-596 15.75,-590 21.75,-584 27.75,-584 27.75,-584 220,-584 220,-584 226,-584 232,-590 232,-596 232,-596 232,-608 232,-608 232,-614 226,-620 220,-620"/>
<text xml:space="preserve" text-anchor="middle" x="123.88" y="-596.58" font-family="Helvetica,sans-Serif" font-size="14.00">33: Atualiza nbh = logsch(ih, nbh)</text>
</g>
<!-- N32&#45;&gt;N33 -->
<g id="edge35" class="edge">
<title>N32&#45;&gt;N33</title>
<path fill="none" stroke="black" d="M123.88,-656.81C123.88,-649.23 123.88,-640.1 123.88,-631.54"/>
<polygon fill="black" stroke="black" points="127.38,-631.54 123.88,-621.54 120.38,-631.54 127.38,-631.54"/>
</g>
<!-- N34 -->
<g id="node34" class="node">
<title>N34</title>
<path fill="none" stroke="black" d="M221.88,-547C221.88,-547 25.88,-547 25.88,-547 19.88,-547 13.88,-541 13.88,-535 13.88,-535 13.88,-523 13.88,-523 13.88,-517 19.88,-511 25.88,-511 25.88,-511 221.88,-511 221.88,-511 227.88,-511 233.88,-517 233.88,-523 233.88,-523 233.88,-535 233.88,-535 233.88,-541 227.88,-547 221.88,-547"/>
<text xml:space="preserve" text-anchor="middle" x="123.88" y="-523.58" font-family="Helvetica,sans-Serif" font-size="14.00">34: Atualiza deth = scalel(nbh, 10)</text>
</g>
<!-- N33&#45;&gt;N34 -->
<g id="edge36" class="edge">
<title>N33&#45;&gt;N34</title>
<path fill="none" stroke="black" d="M123.88,-583.81C123.88,-576.23 123.88,-567.1 123.88,-558.54"/>
<polygon fill="black" stroke="black" points="127.38,-558.54 123.88,-548.54 120.38,-558.54 127.38,-558.54"/>
</g>
<!-- N35 -->
<g id="node35" class="node">
<title>N35</title>
<path fill="none" stroke="black" d="M196.75,-474C196.75,-474 51,-474 51,-474 45,-474 39,-468 39,-462 39,-462 39,-450 39,-450 39,-444 45,-438 51,-438 51,-438 196.75,-438 196.75,-438 202.75,-438 208.75,-444 208.75,-450 208.75,-450 208.75,-462 208.75,-462 208.75,-468 202.75,-474 196.75,-474"/>
<text xml:space="preserve" text-anchor="middle" x="123.88" y="-450.57" font-family="Helvetica,sans-Serif" font-size="14.00">35: Calcula ph = dh + szh</text>
</g>
<!-- N34&#45;&gt;N35 -->
<g id="edge37" class="edge">
<title>N34&#45;&gt;N35</title>
<path fill="none" stroke="black" d="M123.88,-510.81C123.88,-503.23 123.88,-494.1 123.88,-485.54"/>
<polygon fill="black" stroke="black" points="127.38,-485.54 123.88,-475.54 120.38,-485.54 127.38,-485.54"/>
</g>
<!-- N36 -->
<g id="node36" class="node">
<title>N36</title>
<path fill="none" stroke="black" d="M233.12,-401C233.12,-401 14.62,-401 14.62,-401 8.62,-401 2.62,-395 2.62,-389 2.62,-389 2.62,-377 2.62,-377 2.62,-371 8.62,-365 14.62,-365 14.62,-365 233.12,-365 233.12,-365 239.12,-365 245.12,-371 245.12,-377 245.12,-377 245.12,-389 245.12,-389 245.12,-395 239.12,-401 233.12,-401"/>
<text xml:space="preserve" text-anchor="middle" x="123.88" y="-377.57" font-family="Helvetica,sans-Serif" font-size="14.00">36: upzero(dh, delay_dhx, delay_bph)</text>
</g>
<!-- N35&#45;&gt;N36 -->
<g id="edge38" class="edge">
<title>N35&#45;&gt;N36</title>
<path fill="none" stroke="black" d="M123.88,-437.81C123.88,-430.23 123.88,-421.1 123.88,-412.54"/>
<polygon fill="black" stroke="black" points="127.38,-412.54 123.88,-402.54 120.38,-412.54 127.38,-412.54"/>
</g>
<!-- N37 -->
<g id="node37" class="node">
<title>N37</title>
<path fill="none" stroke="black" d="M206.12,-328C206.12,-328 41.62,-328 41.62,-328 35.62,-328 29.62,-322 29.62,-316 29.62,-316 29.62,-304 29.62,-304 29.62,-298 35.62,-292 41.62,-292 41.62,-292 206.12,-292 206.12,-292 212.12,-292 218.12,-298 218.12,-304 218.12,-304 218.12,-316 218.12,-316 218.12,-322 212.12,-328 206.12,-328"/>
<text xml:space="preserve" text-anchor="middle" x="123.88" y="-304.57" font-family="Helvetica,sans-Serif" font-size="14.00">37: Atualiza ah2 = uppol2(...)</text>
</g>
<!-- N36&#45;&gt;N37 -->
<g id="edge39" class="edge">
<title>N36&#45;&gt;N37</title>
<path fill="none" stroke="black" d="M123.88,-364.81C123.88,-357.23 123.88,-348.1 123.88,-339.54"/>
<polygon fill="black" stroke="black" points="127.38,-339.54 123.88,-329.54 120.38,-339.54 127.38,-339.54"/>
</g>
<!-- N38 -->
<g id="node38" class="node">
<title>N38</title>
<path fill="none" stroke="black" d="M206.12,-255C206.12,-255 41.62,-255 41.62,-255 35.62,-255 29.62,-249 29.62,-243 29.62,-243 29.62,-231 29.62,-231 29.62,-225 35.62,-219 41.62,-219 41.62,-219 206.12,-219 206.12,-219 212.12,-219 218.12,-225 218.12,-231 218.12,-231 218.12,-243 218.12,-243 218.12,-249 212.12,-255 206.12,-255"/>
<text xml:space="preserve" text-anchor="middle" x="123.88" y="-231.57" font-family="Helvetica,sans-Serif" font-size="14.00">38: Atualiza ah1 = uppol1(...)</text>
</g>
<!-- N37&#45;&gt;N38 -->
<g id="edge40" class="edge">
<title>N37&#45;&gt;N38</title>
<path fill="none" stroke="black" d="M123.88,-291.81C123.88,-284.23 123.88,-275.1 123.88,-266.54"/>
<polygon fill="black" stroke="black" points="127.38,-266.54 123.88,-256.54 120.38,-266.54 127.38,-266.54"/>
</g>
<!-- N39 -->
<g id="node39" class="node">
<title>N39</title>
<path fill="none" stroke="black" d="M193,-182C193,-182 54.75,-182 54.75,-182 48.75,-182 42.75,-176 42.75,-170 42.75,-170 42.75,-158 42.75,-158 42.75,-152 48.75,-146 54.75,-146 54.75,-146 193,-146 193,-146 199,-146 205,-152 205,-158 205,-158 205,-170 205,-170 205,-176 199,-182 193,-182"/>
<text xml:space="preserve" text-anchor="middle" x="123.88" y="-158.57" font-family="Helvetica,sans-Serif" font-size="14.00">39: Calcula yh = sh + dh</text>
</g>
<!-- N38&#45;&gt;N39 -->
<g id="edge41" class="edge">
<title>N38&#45;&gt;N39</title>
<path fill="none" stroke="black" d="M123.88,-218.81C123.88,-211.23 123.88,-202.1 123.88,-193.54"/>
<polygon fill="black" stroke="black" points="127.38,-193.54 123.88,-183.54 120.38,-193.54 127.38,-193.54"/>
</g>
<!-- N40 -->
<g id="node40" class="node">
<title>N40</title>
<path fill="none" stroke="black" d="M235.75,-109C235.75,-109 12,-109 12,-109 6,-109 0,-103 0,-97 0,-97 0,-85 0,-85 0,-79 6,-73 12,-73 12,-73 235.75,-73 235.75,-73 241.75,-73 247.75,-79 247.75,-85 247.75,-85 247.75,-97 247.75,-97 247.75,-103 241.75,-109 235.75,-109"/>
<text xml:space="preserve" text-anchor="middle" x="123.88" y="-85.58" font-family="Helvetica,sans-Serif" font-size="14.00">40: Atualiza delays (rh2, rh1, ph2, ph1)</text>
</g>
<!-- N39&#45;&gt;N40 -->
<g id="edge42" class="edge">
<title>N39&#45;&gt;N40</title>
<path fill="none" stroke="black" d="M123.88,-145.81C123.88,-138.23 123.88,-129.1 123.88,-120.54"/>
<polygon fill="black" stroke="black" points="127.38,-120.54 123.88,-110.54 120.38,-120.54 127.38,-120.54"/>
</g>
<!-- N41 -->
<g id="node41" class="node">
<title>N41</title>
<path fill="none" stroke="black" d="M191.12,-36C191.12,-36 56.62,-36 56.62,-36 50.62,-36 44.62,-30 44.62,-24 44.62,-24 44.62,-12 44.62,-12 44.62,-6 50.62,0 56.62,0 56.62,0 191.12,0 191.12,0 197.12,0 203.12,-6 203.12,-12 203.12,-12 203.12,-24 203.12,-24 203.12,-30 197.12,-36 191.12,-36"/>
<text xml:space="preserve" text-anchor="middle" x="123.88" y="-12.57" font-family="Helvetica,sans-Serif" font-size="14.00">41: Retorna il | (ih &lt;&lt; 6)</text>
</g>
<!-- N40&#45;&gt;N41 -->
<g id="edge43" class="edge">
<title>N40&#45;&gt;N41</title>
<path fill="none" stroke="black" d="M123.88,-72.81C123.88,-65.23 123.88,-56.1 123.88,-47.54"/>
<polygon fill="black" stroke="black" points="127.38,-47.54 123.88,-37.54 120.38,-47.54 127.38,-47.54"/>
</g>
</g>
</svg>
