<?xml version="1.0" encoding="UTF-8" standalone="no"?>
<!DOCTYPE svg PUBLIC "-//W3C//DTD SVG 1.1//EN"
 "http://www.w3.org/Graphics/SVG/1.1/DTD/svg11.dtd">
<!-- Generated by graphviz version 13.1.2 (20250808.2320)
 -->
<!-- Title: encode_DFG Pages: 1 -->
<svg width="582pt" height="1124pt"
 viewBox="0.00 0.00 582.00 1124.00" xmlns="http://www.w3.org/2000/svg" xmlns:xlink="http://www.w3.org/1999/xlink">
<g id="graph0" class="graph" transform="scale(1 1) rotate(0) translate(4 1120)">
<title>encode_DFG</title>
<polygon fill="white" stroke="none" points="-4,4 -4,-1120 578.3,-1120 578.3,4 -4,4"/>
<!-- xin1 -->
<g id="node1" class="node">
<title>xin1</title>
<ellipse fill="lightblue" stroke="black" cx="27.3" cy="-1098" rx="27.3" ry="18"/>
<text xml:space="preserve" text-anchor="middle" x="27.3" y="-1092.95" font-family="Times New Roman,serif" font-size="14.00">xin1</text>
</g>
<!-- mult_xa -->
<g id="node5" class="node">
<title>mult_xa</title>
<polygon fill="none" stroke="black" points="127.92,-1044 52.67,-1044 52.67,-1008 127.92,-1008 127.92,-1044"/>
<text xml:space="preserve" text-anchor="middle" x="90.3" y="-1020.95" font-family="Times New Roman,serif" font-size="14.00">* (para xa)</text>
</g>
<!-- xin1&#45;&gt;mult_xa -->
<g id="edge1" class="edge">
<title>xin1&#45;&gt;mult_xa</title>
<path fill="none" stroke="black" d="M40.66,-1082.15C48.37,-1073.59 58.28,-1062.58 67.21,-1052.65"/>
<polygon fill="black" stroke="black" points="69.63,-1055.19 73.72,-1045.42 64.43,-1050.51 69.63,-1055.19"/>
</g>
<!-- xin2 -->
<g id="node2" class="node">
<title>xin2</title>
<ellipse fill="lightblue" stroke="black" cx="259.3" cy="-1098" rx="27.3" ry="18"/>
<text xml:space="preserve" text-anchor="middle" x="259.3" y="-1092.95" font-family="Times New Roman,serif" font-size="14.00">xin2</text>
</g>
<!-- mult_xb -->
<g id="node6" class="node">
<title>mult_xb</title>
<polygon fill="none" stroke="black" points="225.3,-1044 149.3,-1044 149.3,-1008 225.3,-1008 225.3,-1044"/>
<text xml:space="preserve" text-anchor="middle" x="187.3" y="-1020.95" font-family="Times New Roman,serif" font-size="14.00">* (para xb)</text>
</g>
<!-- xin2&#45;&gt;mult_xb -->
<g id="edge2" class="edge">
<title>xin2&#45;&gt;mult_xb</title>
<path fill="none" stroke="black" d="M244.38,-1082.5C235.41,-1073.77 223.74,-1062.43 213.29,-1052.28"/>
<polygon fill="black" stroke="black" points="215.95,-1049.97 206.34,-1045.51 211.07,-1054.99 215.95,-1049.97"/>
</g>
<!-- h -->
<g id="node3" class="node">
<title>h</title>
<ellipse fill="lightblue" stroke="black" cx="99.3" cy="-1098" rx="27" ry="18"/>
<text xml:space="preserve" text-anchor="middle" x="99.3" y="-1092.95" font-family="Times New Roman,serif" font-size="14.00">h[]</text>
</g>
<!-- h&#45;&gt;mult_xa -->
<g id="edge3" class="edge">
<title>h&#45;&gt;mult_xa</title>
<path fill="none" stroke="black" d="M97.07,-1079.7C96.12,-1072.32 94.99,-1063.52 93.93,-1055.25"/>
<polygon fill="black" stroke="black" points="97.44,-1055.08 92.69,-1045.61 90.49,-1055.97 97.44,-1055.08"/>
</g>
<!-- h&#45;&gt;mult_xb -->
<g id="edge4" class="edge">
<title>h&#45;&gt;mult_xb</title>
<path fill="none" stroke="black" d="M116.26,-1083.5C127.63,-1074.46 142.92,-1062.3 156.4,-1051.58"/>
<polygon fill="black" stroke="black" points="158.54,-1054.34 164.19,-1045.38 154.18,-1048.87 158.54,-1054.34"/>
</g>
<!-- tqmf -->
<g id="node4" class="node">
<title>tqmf</title>
<ellipse fill="lightblue" stroke="black" cx="179.3" cy="-1098" rx="34.97" ry="18"/>
<text xml:space="preserve" text-anchor="middle" x="179.3" y="-1092.95" font-family="Times New Roman,serif" font-size="14.00">tqmf[]</text>
</g>
<!-- tqmf&#45;&gt;mult_xa -->
<g id="edge5" class="edge">
<title>tqmf&#45;&gt;mult_xa</title>
<path fill="none" stroke="black" d="M160.86,-1082.5C149.44,-1073.52 134.49,-1061.76 121.29,-1051.37"/>
<polygon fill="black" stroke="black" points="123.71,-1048.82 113.68,-1045.39 119.38,-1054.33 123.71,-1048.82"/>
</g>
<!-- tqmf&#45;&gt;mult_xb -->
<g id="edge6" class="edge">
<title>tqmf&#45;&gt;mult_xb</title>
<path fill="none" stroke="black" d="M181.27,-1079.7C182.11,-1072.41 183.1,-1063.73 184.04,-1055.54"/>
<polygon fill="black" stroke="black" points="187.51,-1055.94 185.17,-1045.61 180.56,-1055.15 187.51,-1055.94"/>
</g>
<!-- sum_xa -->
<g id="node7" class="node">
<title>sum_xa</title>
<polygon fill="none" stroke="black" points="111.3,-972 57.3,-972 57.3,-936 111.3,-936 111.3,-972"/>
<text xml:space="preserve" text-anchor="middle" x="84.3" y="-948.95" font-family="Times New Roman,serif" font-size="14.00">+ (xa)</text>
</g>
<!-- mult_xa&#45;&gt;sum_xa -->
<g id="edge7" class="edge">
<title>mult_xa&#45;&gt;sum_xa</title>
<path fill="none" stroke="black" d="M88.81,-1007.7C88.19,-1000.41 87.44,-991.73 86.74,-983.54"/>
<polygon fill="black" stroke="black" points="90.23,-983.28 85.89,-973.61 83.26,-983.87 90.23,-983.28"/>
</g>
<!-- sum_xb -->
<g id="node8" class="node">
<title>sum_xb</title>
<polygon fill="none" stroke="black" points="215.3,-972 161.3,-972 161.3,-936 215.3,-936 215.3,-972"/>
<text xml:space="preserve" text-anchor="middle" x="188.3" y="-948.95" font-family="Times New Roman,serif" font-size="14.00">+ (xb)</text>
</g>
<!-- mult_xb&#45;&gt;sum_xb -->
<g id="edge8" class="edge">
<title>mult_xb&#45;&gt;sum_xb</title>
<path fill="none" stroke="black" d="M187.54,-1007.7C187.65,-1000.41 187.77,-991.73 187.89,-983.54"/>
<polygon fill="black" stroke="black" points="191.39,-983.67 188.03,-973.62 184.39,-983.57 191.39,-983.67"/>
</g>
<!-- shift_xl -->
<g id="node9" class="node">
<title>shift_xl</title>
<polygon fill="none" stroke="black" points="108.8,-900 35.8,-900 35.8,-864 108.8,-864 108.8,-900"/>
<text xml:space="preserve" text-anchor="middle" x="72.3" y="-876.95" font-family="Times New Roman,serif" font-size="14.00">&gt;&gt; 15 (xl)</text>
</g>
<!-- sum_xa&#45;&gt;shift_xl -->
<g id="edge9" class="edge">
<title>sum_xa&#45;&gt;shift_xl</title>
<path fill="none" stroke="black" d="M81.33,-935.7C80.07,-928.32 78.56,-919.52 77.14,-911.25"/>
<polygon fill="black" stroke="black" points="80.62,-910.86 75.48,-901.6 73.72,-912.04 80.62,-910.86"/>
</g>
<!-- shift_xh -->
<g id="node10" class="node">
<title>shift_xh</title>
<polygon fill="none" stroke="black" points="228.3,-900 152.3,-900 152.3,-864 228.3,-864 228.3,-900"/>
<text xml:space="preserve" text-anchor="middle" x="190.3" y="-876.95" font-family="Times New Roman,serif" font-size="14.00">&gt;&gt; 15 (xh)</text>
</g>
<!-- sum_xb&#45;&gt;shift_xh -->
<g id="edge10" class="edge">
<title>sum_xb&#45;&gt;shift_xh</title>
<path fill="none" stroke="black" d="M188.79,-935.7C189,-928.41 189.25,-919.73 189.48,-911.54"/>
<polygon fill="black" stroke="black" points="192.98,-911.71 189.76,-901.62 185.98,-911.51 192.98,-911.71"/>
</g>
<!-- filtez_szl -->
<g id="node11" class="node">
<title>filtez_szl</title>
<polygon fill="none" stroke="black" points="74.3,-828 20.3,-828 20.3,-792 74.3,-792 74.3,-828"/>
<text xml:space="preserve" text-anchor="middle" x="47.3" y="-804.95" font-family="Times New Roman,serif" font-size="14.00">filtez</text>
</g>
<!-- shift_xl&#45;&gt;filtez_szl -->
<g id="edge11" class="edge">
<title>shift_xl&#45;&gt;filtez_szl</title>
<path fill="none" stroke="black" d="M66.12,-863.7C63.42,-856.15 60.2,-847.12 57.18,-838.68"/>
<polygon fill="black" stroke="black" points="60.57,-837.77 53.91,-829.53 53.98,-840.12 60.57,-837.77"/>
</g>
<!-- filtez_szh -->
<g id="node24" class="node">
<title>filtez_szh</title>
<polygon fill="none" stroke="black" points="218.3,-828 164.3,-828 164.3,-792 218.3,-792 218.3,-828"/>
<text xml:space="preserve" text-anchor="middle" x="191.3" y="-804.95" font-family="Times New Roman,serif" font-size="14.00">filtez</text>
</g>
<!-- shift_xh&#45;&gt;filtez_szh -->
<g id="edge12" class="edge">
<title>shift_xh&#45;&gt;filtez_szh</title>
<path fill="none" stroke="black" d="M190.54,-863.7C190.65,-856.41 190.77,-847.73 190.89,-839.54"/>
<polygon fill="black" stroke="black" points="194.39,-839.67 191.03,-829.62 187.39,-839.57 194.39,-839.67"/>
</g>
<!-- add_sl -->
<g id="node13" class="node">
<title>add_sl</title>
<polygon fill="none" stroke="black" points="127.3,-756 73.3,-756 73.3,-720 127.3,-720 127.3,-756"/>
<text xml:space="preserve" text-anchor="middle" x="100.3" y="-732.95" font-family="Times New Roman,serif" font-size="14.00">+ (sl)</text>
</g>
<!-- filtez_szl&#45;&gt;add_sl -->
<g id="edge13" class="edge">
<title>filtez_szl&#45;&gt;add_sl</title>
<path fill="none" stroke="black" d="M60.4,-791.7C66.43,-783.73 73.72,-774.1 80.41,-765.26"/>
<polygon fill="black" stroke="black" points="83.19,-767.4 86.43,-757.31 77.61,-763.17 83.19,-767.4"/>
</g>
<!-- filtep_spl -->
<g id="node12" class="node">
<title>filtep_spl</title>
<polygon fill="none" stroke="black" points="146.3,-828 92.3,-828 92.3,-792 146.3,-792 146.3,-828"/>
<text xml:space="preserve" text-anchor="middle" x="119.3" y="-804.95" font-family="Times New Roman,serif" font-size="14.00">filtep</text>
</g>
<!-- filtep_spl&#45;&gt;add_sl -->
<g id="edge14" class="edge">
<title>filtep_spl&#45;&gt;add_sl</title>
<path fill="none" stroke="black" d="M114.6,-791.7C112.58,-784.24 110.16,-775.32 107.89,-766.97"/>
<polygon fill="black" stroke="black" points="111.33,-766.3 105.34,-757.57 104.58,-768.13 111.33,-766.3"/>
</g>
<!-- sub_el -->
<g id="node14" class="node">
<title>sub_el</title>
<polygon fill="none" stroke="black" points="127.3,-684 73.3,-684 73.3,-648 127.3,-648 127.3,-684"/>
<text xml:space="preserve" text-anchor="middle" x="100.3" y="-660.95" font-family="Times New Roman,serif" font-size="14.00">&#45; (el)</text>
</g>
<!-- add_sl&#45;&gt;sub_el -->
<g id="edge15" class="edge">
<title>add_sl&#45;&gt;sub_el</title>
<path fill="none" stroke="black" d="M100.3,-719.7C100.3,-712.41 100.3,-703.73 100.3,-695.54"/>
<polygon fill="black" stroke="black" points="103.8,-695.62 100.3,-685.62 96.8,-695.62 103.8,-695.62"/>
</g>
<!-- quantl_il -->
<g id="node15" class="node">
<title>quantl_il</title>
<polygon fill="none" stroke="black" points="127.3,-612 73.3,-612 73.3,-576 127.3,-576 127.3,-612"/>
<text xml:space="preserve" text-anchor="middle" x="100.3" y="-588.95" font-family="Times New Roman,serif" font-size="14.00">quantl</text>
</g>
<!-- sub_el&#45;&gt;quantl_il -->
<g id="edge16" class="edge">
<title>sub_el&#45;&gt;quantl_il</title>
<path fill="none" stroke="black" d="M100.3,-647.7C100.3,-640.41 100.3,-631.73 100.3,-623.54"/>
<polygon fill="black" stroke="black" points="103.8,-623.62 100.3,-613.62 96.8,-623.62 103.8,-623.62"/>
</g>
<!-- mult_dlt -->
<g id="node16" class="node">
<title>mult_dlt</title>
<polygon fill="none" stroke="black" points="163.3,-540 109.3,-540 109.3,-504 163.3,-504 163.3,-540"/>
<text xml:space="preserve" text-anchor="middle" x="136.3" y="-516.95" font-family="Times New Roman,serif" font-size="14.00">* (dlt)</text>
</g>
<!-- quantl_il&#45;&gt;mult_dlt -->
<g id="edge17" class="edge">
<title>quantl_il&#45;&gt;mult_dlt</title>
<path fill="none" stroke="black" d="M109.2,-575.7C113.16,-567.98 117.93,-558.71 122.35,-550.11"/>
<polygon fill="black" stroke="black" points="125.35,-551.94 126.81,-541.45 119.12,-548.74 125.35,-551.94"/>
</g>
<!-- add_plt -->
<g id="node19" class="node">
<title>add_plt</title>
<polygon fill="none" stroke="black" points="165.3,-468 111.3,-468 111.3,-432 165.3,-432 165.3,-468"/>
<text xml:space="preserve" text-anchor="middle" x="138.3" y="-444.95" font-family="Times New Roman,serif" font-size="14.00">+ (plt)</text>
</g>
<!-- mult_dlt&#45;&gt;add_plt -->
<g id="edge18" class="edge">
<title>mult_dlt&#45;&gt;add_plt</title>
<path fill="none" stroke="black" d="M136.79,-503.7C137,-496.41 137.25,-487.73 137.48,-479.54"/>
<polygon fill="black" stroke="black" points="140.98,-479.71 137.76,-469.62 133.98,-479.51 140.98,-479.71"/>
</g>
<!-- logscl_nbl -->
<g id="node17" class="node">
<title>logscl_nbl</title>
<polygon fill="none" stroke="black" points="358.3,-1116 304.3,-1116 304.3,-1080 358.3,-1080 358.3,-1116"/>
<text xml:space="preserve" text-anchor="middle" x="331.3" y="-1092.95" font-family="Times New Roman,serif" font-size="14.00">logscl</text>
</g>
<!-- scalel_detl -->
<g id="node18" class="node">
<title>scalel_detl</title>
<polygon fill="none" stroke="black" points="430.3,-1116 376.3,-1116 376.3,-1080 430.3,-1080 430.3,-1116"/>
<text xml:space="preserve" text-anchor="middle" x="403.3" y="-1092.95" font-family="Times New Roman,serif" font-size="14.00">scalel</text>
</g>
<!-- upzero -->
<g id="node20" class="node">
<title>upzero</title>
<polygon fill="none" stroke="black" points="166.3,-396 112.3,-396 112.3,-360 166.3,-360 166.3,-396"/>
<text xml:space="preserve" text-anchor="middle" x="139.3" y="-372.95" font-family="Times New Roman,serif" font-size="14.00">upzero</text>
</g>
<!-- add_plt&#45;&gt;upzero -->
<g id="edge19" class="edge">
<title>add_plt&#45;&gt;upzero</title>
<path fill="none" stroke="black" d="M138.54,-431.7C138.65,-424.41 138.77,-415.73 138.89,-407.54"/>
<polygon fill="black" stroke="black" points="142.39,-407.67 139.03,-397.62 135.39,-407.57 142.39,-407.67"/>
</g>
<!-- uppol2_al2 -->
<g id="node21" class="node">
<title>uppol2_al2</title>
<polygon fill="none" stroke="black" points="167.3,-324 113.3,-324 113.3,-288 167.3,-288 167.3,-324"/>
<text xml:space="preserve" text-anchor="middle" x="140.3" y="-300.95" font-family="Times New Roman,serif" font-size="14.00">uppol2</text>
</g>
<!-- upzero&#45;&gt;uppol2_al2 -->
<g id="edge20" class="edge">
<title>upzero&#45;&gt;uppol2_al2</title>
<path fill="none" stroke="black" d="M139.54,-359.7C139.65,-352.41 139.77,-343.73 139.89,-335.54"/>
<polygon fill="black" stroke="black" points="143.39,-335.67 140.03,-325.62 136.39,-335.57 143.39,-335.67"/>
</g>
<!-- uppol1_al1 -->
<g id="node22" class="node">
<title>uppol1_al1</title>
<polygon fill="none" stroke="black" points="167.3,-252 113.3,-252 113.3,-216 167.3,-216 167.3,-252"/>
<text xml:space="preserve" text-anchor="middle" x="140.3" y="-228.95" font-family="Times New Roman,serif" font-size="14.00">uppol1</text>
</g>
<!-- uppol2_al2&#45;&gt;uppol1_al1 -->
<g id="edge21" class="edge">
<title>uppol2_al2&#45;&gt;uppol1_al1</title>
<path fill="none" stroke="black" d="M140.3,-287.7C140.3,-280.41 140.3,-271.73 140.3,-263.54"/>
<polygon fill="black" stroke="black" points="143.8,-263.62 140.3,-253.62 136.8,-263.62 143.8,-263.62"/>
</g>
<!-- add_rlt -->
<g id="node23" class="node">
<title>add_rlt</title>
<polygon fill="none" stroke="black" points="167.3,-108 113.3,-108 113.3,-72 167.3,-72 167.3,-108"/>
<text xml:space="preserve" text-anchor="middle" x="140.3" y="-84.95" font-family="Times New Roman,serif" font-size="14.00">+ (rlt)</text>
</g>
<!-- uppol1_al1&#45;&gt;add_rlt -->
<g id="edge22" class="edge">
<title>uppol1_al1&#45;&gt;add_rlt</title>
<path fill="none" stroke="black" d="M140.3,-215.59C140.3,-191.61 140.3,-148.14 140.3,-119.42"/>
<polygon fill="black" stroke="black" points="143.8,-119.62 140.3,-109.62 136.8,-119.62 143.8,-119.62"/>
</g>
<!-- output -->
<g id="node39" class="node">
<title>output</title>
<ellipse fill="lightgreen" stroke="black" cx="176.3" cy="-18" rx="57.49" ry="18"/>
<text xml:space="preserve" text-anchor="middle" x="176.3" y="-12.95" font-family="Times New Roman,serif" font-size="14.00">il | (ih &lt;&lt; 6)</text>
</g>
<!-- add_rlt&#45;&gt;output -->
<g id="edge23" class="edge">
<title>add_rlt&#45;&gt;output</title>
<path fill="none" stroke="black" stroke-dasharray="5,2" d="M149.2,-71.7C153.16,-63.98 157.93,-54.71 162.35,-46.11"/>
<polygon fill="black" stroke="black" points="165.35,-47.94 166.81,-37.45 159.12,-44.74 165.35,-47.94"/>
</g>
<!-- add_sh -->
<g id="node26" class="node">
<title>add_sh</title>
<polygon fill="none" stroke="black" points="236.3,-756 182.3,-756 182.3,-720 236.3,-720 236.3,-756"/>
<text xml:space="preserve" text-anchor="middle" x="209.3" y="-732.95" font-family="Times New Roman,serif" font-size="14.00">+ (sh)</text>
</g>
<!-- filtez_szh&#45;&gt;add_sh -->
<g id="edge24" class="edge">
<title>filtez_szh&#45;&gt;add_sh</title>
<path fill="none" stroke="black" d="M195.75,-791.7C197.64,-784.32 199.9,-775.52 202.03,-767.25"/>
<polygon fill="black" stroke="black" points="205.42,-768.13 204.52,-757.57 198.64,-766.38 205.42,-768.13"/>
</g>
<!-- filtep_sph -->
<g id="node25" class="node">
<title>filtep_sph</title>
<polygon fill="none" stroke="black" points="290.3,-828 236.3,-828 236.3,-792 290.3,-792 290.3,-828"/>
<text xml:space="preserve" text-anchor="middle" x="263.3" y="-804.95" font-family="Times New Roman,serif" font-size="14.00">filtep</text>
</g>
<!-- filtep_sph&#45;&gt;add_sh -->
<g id="edge25" class="edge">
<title>filtep_sph&#45;&gt;add_sh</title>
<path fill="none" stroke="black" d="M249.95,-791.7C243.74,-783.64 236.22,-773.89 229.34,-764.98"/>
<polygon fill="black" stroke="black" points="232.29,-763.08 223.42,-757.3 226.75,-767.36 232.29,-763.08"/>
</g>
<!-- sub_eh -->
<g id="node27" class="node">
<title>sub_eh</title>
<polygon fill="none" stroke="black" points="236.3,-684 182.3,-684 182.3,-648 236.3,-648 236.3,-684"/>
<text xml:space="preserve" text-anchor="middle" x="209.3" y="-660.95" font-family="Times New Roman,serif" font-size="14.00">&#45; (eh)</text>
</g>
<!-- add_sh&#45;&gt;sub_eh -->
<g id="edge26" class="edge">
<title>add_sh&#45;&gt;sub_eh</title>
<path fill="none" stroke="black" d="M209.3,-719.7C209.3,-712.41 209.3,-703.73 209.3,-695.54"/>
<polygon fill="black" stroke="black" points="212.8,-695.62 209.3,-685.62 205.8,-695.62 212.8,-695.62"/>
</g>
<!-- cmp_eh -->
<g id="node28" class="node">
<title>cmp_eh</title>
<polygon fill="none" stroke="black" points="203.3,-612 145.3,-612 145.3,-576 203.3,-576 203.3,-612"/>
<text xml:space="preserve" text-anchor="middle" x="174.3" y="-588.95" font-family="Times New Roman,serif" font-size="14.00">&gt;= (eh)</text>
</g>
<!-- sub_eh&#45;&gt;cmp_eh -->
<g id="edge27" class="edge">
<title>sub_eh&#45;&gt;cmp_eh</title>
<path fill="none" stroke="black" d="M200.64,-647.7C196.83,-640.07 192.25,-630.92 187.99,-622.4"/>
<polygon fill="black" stroke="black" points="191.13,-620.84 183.53,-613.46 184.87,-623.97 191.13,-620.84"/>
</g>
<!-- abs_eh -->
<g id="node29" class="node">
<title>abs_eh</title>
<polygon fill="none" stroke="black" points="279.67,-612 220.92,-612 220.92,-576 279.67,-576 279.67,-612"/>
<text xml:space="preserve" text-anchor="middle" x="250.3" y="-588.95" font-family="Times New Roman,serif" font-size="14.00">my_abs</text>
</g>
<!-- sub_eh&#45;&gt;abs_eh -->
<g id="edge28" class="edge">
<title>sub_eh&#45;&gt;abs_eh</title>
<path fill="none" stroke="black" d="M219.43,-647.7C224,-639.9 229.5,-630.51 234.58,-621.83"/>
<polygon fill="black" stroke="black" points="237.48,-623.81 239.51,-613.41 231.44,-620.27 237.48,-623.81"/>
</g>
<!-- cmp_decis -->
<g id="node30" class="node">
<title>cmp_decis</title>
<polygon fill="none" stroke="black" points="263.67,-540 198.92,-540 198.92,-504 263.67,-504 263.67,-540"/>
<text xml:space="preserve" text-anchor="middle" x="231.3" y="-516.95" font-family="Times New Roman,serif" font-size="14.00">&gt; (decis)</text>
</g>
<!-- abs_eh&#45;&gt;cmp_decis -->
<g id="edge29" class="edge">
<title>abs_eh&#45;&gt;cmp_decis</title>
<path fill="none" stroke="black" d="M245.6,-575.7C243.58,-568.24 241.16,-559.32 238.89,-550.97"/>
<polygon fill="black" stroke="black" points="242.33,-550.3 236.34,-541.57 235.58,-552.13 242.33,-550.3"/>
</g>
<!-- mult_dh -->
<g id="node31" class="node">
<title>mult_dh</title>
<polygon fill="none" stroke="black" points="256.3,-468 202.3,-468 202.3,-432 256.3,-432 256.3,-468"/>
<text xml:space="preserve" text-anchor="middle" x="229.3" y="-444.95" font-family="Times New Roman,serif" font-size="14.00">* (dh)</text>
</g>
<!-- cmp_decis&#45;&gt;mult_dh -->
<g id="edge30" class="edge">
<title>cmp_decis&#45;&gt;mult_dh</title>
<path fill="none" stroke="black" d="M230.8,-503.7C230.59,-496.41 230.35,-487.73 230.11,-479.54"/>
<polygon fill="black" stroke="black" points="233.61,-479.51 229.83,-469.62 226.62,-479.71 233.61,-479.51"/>
</g>
<!-- add_ph -->
<g id="node34" class="node">
<title>add_ph</title>
<polygon fill="none" stroke="black" points="254.3,-396 200.3,-396 200.3,-360 254.3,-360 254.3,-396"/>
<text xml:space="preserve" text-anchor="middle" x="227.3" y="-372.95" font-family="Times New Roman,serif" font-size="14.00">+ (ph)</text>
</g>
<!-- mult_dh&#45;&gt;add_ph -->
<g id="edge31" class="edge">
<title>mult_dh&#45;&gt;add_ph</title>
<path fill="none" stroke="black" d="M228.8,-431.7C228.59,-424.41 228.35,-415.73 228.11,-407.54"/>
<polygon fill="black" stroke="black" points="231.61,-407.51 227.83,-397.62 224.62,-407.71 231.61,-407.51"/>
</g>
<!-- logsch_nbh -->
<g id="node32" class="node">
<title>logsch_nbh</title>
<polygon fill="none" stroke="black" points="502.3,-1116 448.3,-1116 448.3,-1080 502.3,-1080 502.3,-1116"/>
<text xml:space="preserve" text-anchor="middle" x="475.3" y="-1092.95" font-family="Times New Roman,serif" font-size="14.00">logsch</text>
</g>
<!-- scalel_deth -->
<g id="node33" class="node">
<title>scalel_deth</title>
<polygon fill="none" stroke="black" points="574.3,-1116 520.3,-1116 520.3,-1080 574.3,-1080 574.3,-1116"/>
<text xml:space="preserve" text-anchor="middle" x="547.3" y="-1092.95" font-family="Times New Roman,serif" font-size="14.00">scalel</text>
</g>
<!-- upzero_h -->
<g id="node35" class="node">
<title>upzero_h</title>
<polygon fill="none" stroke="black" points="253.3,-324 199.3,-324 199.3,-288 253.3,-288 253.3,-324"/>
<text xml:space="preserve" text-anchor="middle" x="226.3" y="-300.95" font-family="Times New Roman,serif" font-size="14.00">upzero</text>
</g>
<!-- add_ph&#45;&gt;upzero_h -->
<g id="edge32" class="edge">
<title>add_ph&#45;&gt;upzero_h</title>
<path fill="none" stroke="black" d="M227.05,-359.7C226.95,-352.41 226.82,-343.73 226.7,-335.54"/>
<polygon fill="black" stroke="black" points="230.2,-335.57 226.56,-325.62 223.21,-335.67 230.2,-335.57"/>
</g>
<!-- uppol2_ah2 -->
<g id="node36" class="node">
<title>uppol2_ah2</title>
<polygon fill="none" stroke="black" points="248.3,-252 194.3,-252 194.3,-216 248.3,-216 248.3,-252"/>
<text xml:space="preserve" text-anchor="middle" x="221.3" y="-228.95" font-family="Times New Roman,serif" font-size="14.00">uppol2</text>
</g>
<!-- upzero_h&#45;&gt;uppol2_ah2 -->
<g id="edge33" class="edge">
<title>upzero_h&#45;&gt;uppol2_ah2</title>
<path fill="none" stroke="black" d="M225.06,-287.7C224.54,-280.41 223.92,-271.73 223.33,-263.54"/>
<polygon fill="black" stroke="black" points="226.83,-263.34 222.63,-253.61 219.85,-263.84 226.83,-263.34"/>
</g>
<!-- uppol1_ah1 -->
<g id="node37" class="node">
<title>uppol1_ah1</title>
<polygon fill="none" stroke="black" points="248.3,-180 194.3,-180 194.3,-144 248.3,-144 248.3,-180"/>
<text xml:space="preserve" text-anchor="middle" x="221.3" y="-156.95" font-family="Times New Roman,serif" font-size="14.00">uppol1</text>
</g>
<!-- uppol2_ah2&#45;&gt;uppol1_ah1 -->
<g id="edge34" class="edge">
<title>uppol2_ah2&#45;&gt;uppol1_ah1</title>
<path fill="none" stroke="black" d="M221.3,-215.7C221.3,-208.41 221.3,-199.73 221.3,-191.54"/>
<polygon fill="black" stroke="black" points="224.8,-191.62 221.3,-181.62 217.8,-191.62 224.8,-191.62"/>
</g>
<!-- add_yh -->
<g id="node38" class="node">
<title>add_yh</title>
<polygon fill="none" stroke="black" points="239.3,-108 185.3,-108 185.3,-72 239.3,-72 239.3,-108"/>
<text xml:space="preserve" text-anchor="middle" x="212.3" y="-84.95" font-family="Times New Roman,serif" font-size="14.00">+ (yh)</text>
</g>
<!-- uppol1_ah1&#45;&gt;add_yh -->
<g id="edge35" class="edge">
<title>uppol1_ah1&#45;&gt;add_yh</title>
<path fill="none" stroke="black" d="M219.07,-143.7C218.12,-136.32 216.99,-127.52 215.93,-119.25"/>
<polygon fill="black" stroke="black" points="219.44,-119.08 214.69,-109.61 212.49,-119.97 219.44,-119.08"/>
</g>
<!-- add_yh&#45;&gt;output -->
<g id="edge36" class="edge">
<title>add_yh&#45;&gt;output</title>
<path fill="none" stroke="black" d="M203.4,-71.7C199.43,-63.98 194.66,-54.71 190.24,-46.11"/>
<polygon fill="black" stroke="black" points="193.47,-44.74 185.79,-37.45 187.25,-47.94 193.47,-44.74"/>
</g>
</g>
</svg>
