<?xml version="1.0" encoding="UTF-8" standalone="no"?>
<!DOCTYPE svg PUBLIC "-//W3C//DTD SVG 1.1//EN"
 "http://www.w3.org/Graphics/SVG/1.1/DTD/svg11.dtd">
<!-- Generated by graphviz version 13.1.2 (20250808.2320)
 -->
<!-- Title: main Pages: 1 -->
<svg width="232pt" height="672pt"
 viewBox="0.00 0.00 232.00 672.00" xmlns="http://www.w3.org/2000/svg" xmlns:xlink="http://www.w3.org/1999/xlink">
<g id="graph0" class="graph" transform="scale(1 1) rotate(0) translate(4 668.25)">
<title>main</title>
<polygon fill="white" stroke="none" points="-4,4 -4,-668.25 228,-668.25 228,4 -4,4"/>
<!-- start -->
<g id="node1" class="node">
<title>start</title>
<ellipse fill="none" stroke="black" cx="165" cy="-646.25" rx="29.61" ry="18"/>
<text xml:space="preserve" text-anchor="middle" x="165" y="-640.83" font-family="Arial" font-size="14.00">Start</text>
</g>
<!-- init_n -->
<g id="node3" class="node">
<title>init_n</title>
<polygon fill="none" stroke="black" points="192.12,-591.25 137.88,-591.25 137.88,-555.25 192.12,-555.25 192.12,-591.25"/>
<text xml:space="preserve" text-anchor="middle" x="165" y="-567.83" font-family="Arial" font-size="14.00">n = 10</text>
</g>
<!-- start&#45;&gt;init_n -->
<g id="edge1" class="edge">
<title>start&#45;&gt;init_n</title>
<path fill="none" stroke="black" d="M165,-628.06C165,-620.48 165,-611.35 165,-602.79"/>
<polygon fill="black" stroke="black" points="168.5,-602.79 165,-592.79 161.5,-602.79 168.5,-602.79"/>
</g>
<!-- end -->
<g id="node2" class="node">
<title>end</title>
<ellipse fill="none" stroke="black" cx="168" cy="-266.5" rx="27" ry="18"/>
<text xml:space="preserve" text-anchor="middle" x="168" y="-261.07" font-family="Arial" font-size="14.00">End</text>
</g>
<!-- init_i -->
<g id="node4" class="node">
<title>init_i</title>
<polygon fill="none" stroke="black" points="192,-518.25 138,-518.25 138,-482.25 192,-482.25 192,-518.25"/>
<text xml:space="preserve" text-anchor="middle" x="165" y="-494.82" font-family="Arial" font-size="14.00">i = 0</text>
</g>
<!-- init_n&#45;&gt;init_i -->
<g id="edge2" class="edge">
<title>init_n&#45;&gt;init_i</title>
<path fill="none" stroke="black" d="M165,-555.06C165,-547.48 165,-538.35 165,-529.79"/>
<polygon fill="black" stroke="black" points="168.5,-529.79 165,-519.79 161.5,-529.79 168.5,-529.79"/>
</g>
<!-- for_cond -->
<g id="node5" class="node">
<title>for_cond</title>
<polygon fill="none" stroke="black" points="165,-445.25 125.25,-427.25 165,-409.25 204.75,-427.25 165,-445.25"/>
<text xml:space="preserve" text-anchor="middle" x="165" y="-421.82" font-family="Arial" font-size="14.00">i &lt; n</text>
</g>
<!-- init_i&#45;&gt;for_cond -->
<g id="edge3" class="edge">
<title>init_i&#45;&gt;for_cond</title>
<path fill="none" stroke="black" d="M165,-482.06C165,-474.59 165,-465.62 165,-457.17"/>
<polygon fill="black" stroke="black" points="168.5,-457.29 165,-447.29 161.5,-457.29 168.5,-457.29"/>
</g>
<!-- read_a -->
<g id="node6" class="node">
<title>read_a</title>
<polygon fill="none" stroke="black" points="115,-357.5 61,-357.5 61,-321.5 115,-321.5 115,-357.5"/>
<text xml:space="preserve" text-anchor="middle" x="88" y="-334.07" font-family="Arial" font-size="14.00">a = IN</text>
</g>
<!-- for_cond&#45;&gt;read_a -->
<g id="edge4" class="edge">
<title>for_cond&#45;&gt;read_a</title>
<path fill="none" stroke="black" d="M153.81,-413.96C147.71,-407.26 140.05,-398.81 133.25,-391.25 126.02,-383.21 118.18,-374.44 111.08,-366.47"/>
<polygon fill="black" stroke="black" points="113.73,-364.19 104.47,-359.04 108.5,-368.84 113.73,-364.19"/>
<text xml:space="preserve" text-anchor="middle" x="147.12" y="-377.95" font-family="Arial" font-size="14.00">True</text>
</g>
<!-- return_0 -->
<g id="node11" class="node">
<title>return_0</title>
<polygon fill="none" stroke="black" points="196.25,-357.5 133.75,-357.5 133.75,-321.5 196.25,-321.5 196.25,-357.5"/>
<text xml:space="preserve" text-anchor="middle" x="165" y="-334.07" font-family="Arial" font-size="14.00">return 0</text>
</g>
<!-- for_cond&#45;&gt;return_0 -->
<g id="edge5" class="edge">
<title>for_cond&#45;&gt;return_0</title>
<path fill="none" stroke="black" d="M165,-408.9C165,-397.51 165,-382.34 165,-369.18"/>
<polygon fill="black" stroke="black" points="168.5,-369.34 165,-359.34 161.5,-369.34 168.5,-369.34"/>
<text xml:space="preserve" text-anchor="middle" x="181.5" y="-377.95" font-family="Arial" font-size="14.00">False</text>
</g>
<!-- if_cond -->
<g id="node7" class="node">
<title>if_cond</title>
<polygon fill="none" stroke="black" points="83,-284.5 43.25,-266.5 83,-248.5 122.75,-266.5 83,-284.5"/>
<text xml:space="preserve" text-anchor="middle" x="83" y="-261.07" font-family="Arial" font-size="14.00">i &lt; 5</text>
</g>
<!-- read_a&#45;&gt;if_cond -->
<g id="edge6" class="edge">
<title>read_a&#45;&gt;if_cond</title>
<path fill="none" stroke="black" d="M86.79,-321.31C86.24,-313.53 85.58,-304.12 84.96,-295.36"/>
<polygon fill="black" stroke="black" points="88.47,-295.28 84.27,-285.55 81.48,-295.77 88.47,-295.28"/>
</g>
<!-- mask_a -->
<g id="node8" class="node">
<title>mask_a</title>
<polygon fill="none" stroke="black" points="126.62,-196.75 33.38,-196.75 33.38,-160.75 126.62,-160.75 126.62,-196.75"/>
<text xml:space="preserve" text-anchor="middle" x="80" y="-173.32" font-family="Arial" font-size="14.00">a = a &amp; 0x0F</text>
</g>
<!-- if_cond&#45;&gt;mask_a -->
<g id="edge7" class="edge">
<title>if_cond&#45;&gt;mask_a</title>
<path fill="none" stroke="black" d="M82.41,-248.56C82.01,-237.2 81.48,-221.95 81.01,-208.69"/>
<polygon fill="black" stroke="black" points="84.51,-208.63 80.67,-198.76 77.52,-208.87 84.51,-208.63"/>
<text xml:space="preserve" text-anchor="middle" x="95.64" y="-217.2" font-family="Arial" font-size="14.00">True</text>
</g>
<!-- inc_i -->
<g id="node10" class="node">
<title>inc_i</title>
<polygon fill="none" stroke="black" points="203,-36 149,-36 149,0 203,0 203,-36"/>
<text xml:space="preserve" text-anchor="middle" x="176" y="-12.57" font-family="Arial" font-size="14.00">i++</text>
</g>
<!-- if_cond&#45;&gt;inc_i -->
<g id="edge8" class="edge">
<title>if_cond&#45;&gt;inc_i</title>
<path fill="none" stroke="black" d="M95.29,-253.57C107.69,-240.75 126.35,-219.18 136,-196.75 157.56,-146.63 168.23,-83.35 172.89,-47.4"/>
<polygon fill="black" stroke="black" points="176.32,-48.17 174.07,-37.82 169.38,-47.32 176.32,-48.17"/>
<text xml:space="preserve" text-anchor="middle" x="174.81" y="-129.45" font-family="Arial" font-size="14.00">False</text>
</g>
<!-- call_func -->
<g id="node9" class="node">
<title>call_func</title>
<polygon fill="none" stroke="black" points="148,-109 0,-109 0,-73 148,-73 148,-109"/>
<text xml:space="preserve" text-anchor="middle" x="74" y="-85.58" font-family="Arial" font-size="14.00">OUT = num_to_lcd(a)</text>
</g>
<!-- mask_a&#45;&gt;call_func -->
<g id="edge9" class="edge">
<title>mask_a&#45;&gt;call_func</title>
<path fill="none" stroke="black" d="M78.79,-160.4C77.99,-149.01 76.93,-133.84 76.01,-120.68"/>
<polygon fill="black" stroke="black" points="79.51,-120.57 75.32,-110.84 72.52,-121.06 79.51,-120.57"/>
</g>
<!-- call_func&#45;&gt;inc_i -->
<g id="edge10" class="edge">
<title>call_func&#45;&gt;inc_i</title>
<path fill="none" stroke="black" d="M98.95,-72.63C111.79,-63.69 127.65,-52.66 141.63,-42.92"/>
<polygon fill="black" stroke="black" points="143.5,-45.89 149.71,-37.3 139.5,-40.14 143.5,-45.89"/>
</g>
<!-- inc_i&#45;&gt;for_cond -->
<g id="edge11" class="edge">
<title>inc_i&#45;&gt;for_cond</title>
<path fill="none" stroke="black" d="M196.36,-36.41C209.44,-49.61 224,-69.02 224,-90 224,-340.5 224,-340.5 224,-340.5 224,-367.28 204.23,-391.78 187.58,-407.68"/>
<polygon fill="black" stroke="black" points="185.48,-404.86 180.41,-414.16 190.17,-410.05 185.48,-404.86"/>
</g>
<!-- return_0&#45;&gt;end -->
<g id="edge12" class="edge">
<title>return_0&#45;&gt;end</title>
<path fill="none" stroke="black" d="M165.73,-321.31C166.05,-313.64 166.44,-304.39 166.81,-295.74"/>
<polygon fill="black" stroke="black" points="170.29,-296.18 167.22,-286.04 163.3,-295.88 170.29,-296.18"/>
</g>
</g>
</svg>
