<?xml version="1.0" encoding="UTF-8" standalone="no"?>
<!DOCTYPE svg PUBLIC "-//W3C//DTD SVG 1.1//EN"
 "http://www.w3.org/Graphics/SVG/1.1/DTD/svg11.dtd">
<!-- Generated by graphviz version 13.1.2 (20250808.2320)
 -->
<!-- Title: G Pages: 1 -->
<svg width="676pt" height="741pt"
 viewBox="0.00 0.00 676.00 741.00" xmlns="http://www.w3.org/2000/svg" xmlns:xlink="http://www.w3.org/1999/xlink">
<g id="graph0" class="graph" transform="scale(1 1) rotate(0) translate(4 736.5)">
<title>G</title>
<polygon fill="white" stroke="none" points="-4,4 -4,-736.5 671.75,-736.5 671.75,4 -4,4"/>
<!-- entry -->
<g id="node1" class="node">
<title>entry</title>
<polygon fill="none" stroke="black" points="663.12,-732.5 389.88,-732.5 389.88,-691.5 663.12,-691.5 663.12,-732.5"/>
<text xml:space="preserve" text-anchor="middle" x="526.5" y="-715.2" font-family="Times New Roman,serif" font-size="14.00">Entrada: sort(n)</text>
<text xml:space="preserve" text-anchor="middle" x="526.5" y="-698.7" font-family="Times New Roman,serif" font-size="14.00">def: i, ir=n, j, k, l=1, jstack=0, flag=0, a, temp</text>
</g>
<!-- loop_start -->
<g id="node2" class="node">
<title>loop_start</title>
<polygon fill="none" stroke="black" points="575,-654.5 478,-654.5 478,-613.5 575,-613.5 575,-654.5"/>
<text xml:space="preserve" text-anchor="middle" x="526.5" y="-637.2" font-family="Times New Roman,serif" font-size="14.00">Loop Principal</text>
<text xml:space="preserve" text-anchor="middle" x="526.5" y="-620.7" font-family="Times New Roman,serif" font-size="14.00">p&#45;uso: ir, l</text>
</g>
<!-- entry&#45;&gt;loop_start -->
<g id="edge1" class="edge">
<title>entry&#45;&gt;loop_start</title>
<path fill="none" stroke="black" d="M526.5,-691.03C526.5,-683.44 526.5,-674.6 526.5,-666.21"/>
<polygon fill="black" stroke="black" points="530,-666.35 526.5,-656.35 523,-666.35 530,-666.35"/>
</g>
<!-- cond1 -->
<g id="node3" class="node">
<title>cond1</title>
<polygon fill="none" stroke="black" points="443.38,-576.5 345.62,-576.5 345.62,-535.5 443.38,-535.5 443.38,-576.5"/>
<text xml:space="preserve" text-anchor="middle" x="394.5" y="-559.2" font-family="Times New Roman,serif" font-size="14.00">Cond: ir&#45;l &lt; M</text>
<text xml:space="preserve" text-anchor="middle" x="394.5" y="-542.7" font-family="Times New Roman,serif" font-size="14.00">p&#45;uso: ir, l</text>
</g>
<!-- loop_start&#45;&gt;cond1 -->
<g id="edge2" class="edge">
<title>loop_start&#45;&gt;cond1</title>
<path fill="none" stroke="black" d="M491.82,-613.03C475.6,-603.69 456.1,-592.46 438.82,-582.52"/>
<polygon fill="black" stroke="black" points="440.67,-579.55 430.26,-577.59 437.18,-585.61 440.67,-579.55"/>
</g>
<!-- insertion_sort -->
<g id="node4" class="node">
<title>insertion_sort</title>
<polygon fill="none" stroke="black" points="226.75,-483 56.25,-483 56.25,-409 226.75,-409 226.75,-483"/>
<text xml:space="preserve" text-anchor="middle" x="141.5" y="-465.7" font-family="Times New Roman,serif" font-size="14.00">Insercao Direta</text>
<text xml:space="preserve" text-anchor="middle" x="141.5" y="-449.2" font-family="Times New Roman,serif" font-size="14.00">def: j, a, i</text>
<text xml:space="preserve" text-anchor="middle" x="141.5" y="-432.7" font-family="Times New Roman,serif" font-size="14.00">c&#45;uso: arr, l, ir, j, a, i</text>
<text xml:space="preserve" text-anchor="middle" x="141.5" y="-416.2" font-family="Times New Roman,serif" font-size="14.00">p&#45;uso: j&lt;=ir, i&gt;=l, arr[i]&lt;=a</text>
</g>
<!-- cond1&#45;&gt;insertion_sort -->
<g id="edge3" class="edge">
<title>cond1&#45;&gt;insertion_sort</title>
<path fill="none" stroke="black" d="M347.8,-535.07C316.87,-521.86 275.18,-504.07 237.38,-487.93"/>
<polygon fill="black" stroke="black" points="238.79,-484.73 228.22,-484.02 236.04,-491.16 238.79,-484.73"/>
<text xml:space="preserve" text-anchor="middle" x="318.19" y="-504.2" font-family="Times New Roman,serif" font-size="14.00">True</text>
</g>
<!-- quick_sort -->
<g id="node7" class="node">
<title>quick_sort</title>
<polygon fill="none" stroke="black" points="543.88,-483 245.12,-483 245.12,-409 543.88,-409 543.88,-483"/>
<text xml:space="preserve" text-anchor="middle" x="394.5" y="-465.7" font-family="Times New Roman,serif" font-size="14.00">QuickSort Prep.</text>
<text xml:space="preserve" text-anchor="middle" x="394.5" y="-449.2" font-family="Times New Roman,serif" font-size="14.00">def: k, a, i, j</text>
<text xml:space="preserve" text-anchor="middle" x="394.5" y="-432.7" font-family="Times New Roman,serif" font-size="14.00">c&#45;uso: l, ir, arr</text>
<text xml:space="preserve" text-anchor="middle" x="394.5" y="-416.2" font-family="Times New Roman,serif" font-size="14.00">p&#45;uso: arr[l]&gt;arr[ir], arr[l+1]&gt;arr[ir], arr[l]&gt;arr[l+1]</text>
</g>
<!-- cond1&#45;&gt;quick_sort -->
<g id="edge4" class="edge">
<title>cond1&#45;&gt;quick_sort</title>
<path fill="none" stroke="black" d="M394.5,-535.19C394.5,-523.76 394.5,-508.84 394.5,-494.54"/>
<polygon fill="black" stroke="black" points="398,-494.8 394.5,-484.8 391,-494.8 398,-494.8"/>
<text xml:space="preserve" text-anchor="middle" x="408.75" y="-504.2" font-family="Times New Roman,serif" font-size="14.00">False</text>
</g>
<!-- cond2 -->
<g id="node5" class="node">
<title>cond2</title>
<polygon fill="none" stroke="black" points="115,-355.5 0,-355.5 0,-314.5 115,-314.5 115,-355.5"/>
<text xml:space="preserve" text-anchor="middle" x="57.5" y="-338.2" font-family="Times New Roman,serif" font-size="14.00">Cond: jstack == 0</text>
<text xml:space="preserve" text-anchor="middle" x="57.5" y="-321.7" font-family="Times New Roman,serif" font-size="14.00">p&#45;uso: jstack</text>
</g>
<!-- insertion_sort&#45;&gt;cond2 -->
<g id="edge5" class="edge">
<title>insertion_sort&#45;&gt;cond2</title>
<path fill="none" stroke="black" d="M113.53,-408.7C102.52,-394.41 90.05,-378.24 79.68,-364.78"/>
<polygon fill="black" stroke="black" points="82.67,-362.93 73.8,-357.15 77.13,-367.2 82.67,-362.93"/>
</g>
<!-- cond2&#45;&gt;loop_start -->
<g id="edge7" class="edge">
<title>cond2&#45;&gt;loop_start</title>
<path fill="none" stroke="black" d="M48.81,-355.81C36.9,-386.29 19.96,-445.15 47.5,-483 97.49,-551.71 349.26,-602.78 466.4,-623.21"/>
<polygon fill="black" stroke="black" points="465.7,-626.64 476.15,-624.9 466.89,-619.75 465.7,-626.64"/>
<text xml:space="preserve" text-anchor="middle" x="103.63" y="-504.2" font-family="Times New Roman,serif" font-size="14.00">False</text>
</g>
<!-- break -->
<g id="node6" class="node">
<title>break</title>
<polygon fill="none" stroke="black" points="106.38,-234.75 8.62,-234.75 8.62,-198.75 106.38,-198.75 106.38,-234.75"/>
<text xml:space="preserve" text-anchor="middle" x="57.5" y="-211.7" font-family="Times New Roman,serif" font-size="14.00">Break do Loop</text>
</g>
<!-- cond2&#45;&gt;break -->
<g id="edge6" class="edge">
<title>cond2&#45;&gt;break</title>
<path fill="none" stroke="black" d="M57.5,-314.02C57.5,-295.46 57.5,-267.61 57.5,-246.63"/>
<polygon fill="black" stroke="black" points="61,-246.71 57.5,-236.71 54,-246.71 61,-246.71"/>
<text xml:space="preserve" text-anchor="middle" x="70.25" y="-266.7" font-family="Times New Roman,serif" font-size="14.00">True</text>
</g>
<!-- exit -->
<g id="node13" class="node">
<title>exit</title>
<polygon fill="none" stroke="black" points="95.5,-148.5 19.5,-148.5 19.5,-112.5 95.5,-112.5 95.5,-148.5"/>
<text xml:space="preserve" text-anchor="middle" x="57.5" y="-125.45" font-family="Times New Roman,serif" font-size="14.00">Saida: Fim</text>
</g>
<!-- break&#45;&gt;exit -->
<g id="edge8" class="edge">
<title>break&#45;&gt;exit</title>
<path fill="none" stroke="black" d="M57.5,-198.29C57.5,-187.34 57.5,-172.94 57.5,-160.32"/>
<polygon fill="black" stroke="black" points="61,-160.45 57.5,-150.45 54,-160.45 61,-160.45"/>
</g>
<!-- partition -->
<g id="node8" class="node">
<title>partition</title>
<polygon fill="none" stroke="black" points="460.62,-372 292.38,-372 292.38,-298 460.62,-298 460.62,-372"/>
<text xml:space="preserve" text-anchor="middle" x="376.5" y="-354.7" font-family="Times New Roman,serif" font-size="14.00">Particionamento</text>
<text xml:space="preserve" text-anchor="middle" x="376.5" y="-338.2" font-family="Times New Roman,serif" font-size="14.00">def: i, j</text>
<text xml:space="preserve" text-anchor="middle" x="376.5" y="-321.7" font-family="Times New Roman,serif" font-size="14.00">c&#45;uso: a, arr</text>
<text xml:space="preserve" text-anchor="middle" x="376.5" y="-305.2" font-family="Times New Roman,serif" font-size="14.00">p&#45;uso: arr[i]&lt;a, arr[j]&gt;a, j&lt;i</text>
</g>
<!-- quick_sort&#45;&gt;partition -->
<g id="edge9" class="edge">
<title>quick_sort&#45;&gt;partition</title>
<path fill="none" stroke="black" d="M388.51,-408.7C387.17,-400.61 385.73,-391.92 384.34,-383.46"/>
<polygon fill="black" stroke="black" points="387.8,-382.93 382.71,-373.63 380.89,-384.07 387.8,-382.93"/>
</g>
<!-- partition&#45;&gt;partition -->
<g id="edge10" class="edge">
<title>partition&#45;&gt;partition</title>
<path fill="none" stroke="black" d="M461.03,-344.06C471.64,-342.47 478.62,-339.44 478.62,-335 478.62,-332.36 476.16,-330.22 471.94,-328.59"/>
<polygon fill="black" stroke="black" points="473.04,-325.25 462.5,-326.3 471.39,-332.06 473.04,-325.25"/>
<text xml:space="preserve" text-anchor="middle" x="511.25" y="-329.95" font-family="Times New Roman,serif" font-size="14.00">Loop (j&gt;=i)</text>
</g>
<!-- update -->
<g id="node9" class="node">
<title>update</title>
<polygon fill="none" stroke="black" points="468.25,-245.5 360.75,-245.5 360.75,-188 468.25,-188 468.25,-245.5"/>
<text xml:space="preserve" text-anchor="middle" x="414.5" y="-228.2" font-family="Times New Roman,serif" font-size="14.00">Atualiza Pivot</text>
<text xml:space="preserve" text-anchor="middle" x="414.5" y="-211.7" font-family="Times New Roman,serif" font-size="14.00">def: arr[j], jstack</text>
<text xml:space="preserve" text-anchor="middle" x="414.5" y="-195.2" font-family="Times New Roman,serif" font-size="14.00">c&#45;uso: l, j, a</text>
</g>
<!-- partition&#45;&gt;update -->
<g id="edge11" class="edge">
<title>partition&#45;&gt;update</title>
<path fill="none" stroke="black" d="M388.42,-297.54C392.67,-284.53 397.47,-269.84 401.79,-256.64"/>
<polygon fill="black" stroke="black" points="405.03,-258 404.81,-247.41 398.37,-255.82 405.03,-258"/>
<text xml:space="preserve" text-anchor="middle" x="429.28" y="-266.7" font-family="Times New Roman,serif" font-size="14.00">Break (j&lt;i)</text>
</g>
<!-- cond3 -->
<g id="node10" class="node">
<title>cond3</title>
<polygon fill="none" stroke="black" points="537.62,-151 417.38,-151 417.38,-110 537.62,-110 537.62,-151"/>
<text xml:space="preserve" text-anchor="middle" x="477.5" y="-133.7" font-family="Times New Roman,serif" font-size="14.00">Cond: ir&#45;i+1 &gt;= j&#45;l</text>
<text xml:space="preserve" text-anchor="middle" x="477.5" y="-117.2" font-family="Times New Roman,serif" font-size="14.00">p&#45;uso: ir, i, j, l</text>
</g>
<!-- update&#45;&gt;cond3 -->
<g id="edge12" class="edge">
<title>update&#45;&gt;cond3</title>
<path fill="none" stroke="black" d="M435.48,-187.7C442,-178.98 449.2,-169.35 455.76,-160.57"/>
<polygon fill="black" stroke="black" points="458.49,-162.76 461.68,-152.66 452.89,-158.57 458.49,-162.76"/>
</g>
<!-- push_right -->
<g id="node11" class="node">
<title>push_right</title>
<polygon fill="none" stroke="black" points="532.75,-57.5 422.25,-57.5 422.25,0 532.75,0 532.75,-57.5"/>
<text xml:space="preserve" text-anchor="middle" x="477.5" y="-40.2" font-family="Times New Roman,serif" font-size="14.00">Empilha Direita</text>
<text xml:space="preserve" text-anchor="middle" x="477.5" y="-23.7" font-family="Times New Roman,serif" font-size="14.00">def: istack, ir</text>
<text xml:space="preserve" text-anchor="middle" x="477.5" y="-7.2" font-family="Times New Roman,serif" font-size="14.00">c&#45;uso: ir, i, jstack</text>
</g>
<!-- cond3&#45;&gt;push_right -->
<g id="edge13" class="edge">
<title>cond3&#45;&gt;push_right</title>
<path fill="none" stroke="black" d="M477.5,-109.79C477.5,-98.17 477.5,-83.05 477.5,-69.08"/>
<polygon fill="black" stroke="black" points="481,-69.24 477.5,-59.24 474,-69.24 481,-69.24"/>
<text xml:space="preserve" text-anchor="middle" x="490.25" y="-78.7" font-family="Times New Roman,serif" font-size="14.00">True</text>
</g>
<!-- push_left -->
<g id="node12" class="node">
<title>push_left</title>
<polygon fill="none" stroke="black" points="667.75,-57.5 551.25,-57.5 551.25,0 667.75,0 667.75,-57.5"/>
<text xml:space="preserve" text-anchor="middle" x="609.5" y="-40.2" font-family="Times New Roman,serif" font-size="14.00">Empilha Esquerda</text>
<text xml:space="preserve" text-anchor="middle" x="609.5" y="-23.7" font-family="Times New Roman,serif" font-size="14.00">def: istack, l</text>
<text xml:space="preserve" text-anchor="middle" x="609.5" y="-7.2" font-family="Times New Roman,serif" font-size="14.00">c&#45;uso: j, l, jstack</text>
</g>
<!-- cond3&#45;&gt;push_left -->
<g id="edge14" class="edge">
<title>cond3&#45;&gt;push_left</title>
<path fill="none" stroke="black" d="M503.89,-109.55C520.78,-96.79 543.16,-79.88 562.97,-64.92"/>
<polygon fill="black" stroke="black" points="565.08,-67.71 570.94,-58.89 560.86,-62.12 565.08,-67.71"/>
<text xml:space="preserve" text-anchor="middle" x="561.71" y="-78.7" font-family="Times New Roman,serif" font-size="14.00">False</text>
</g>
<!-- push_right&#45;&gt;loop_start -->
<g id="edge15" class="edge">
<title>push_right&#45;&gt;loop_start</title>
<path fill="none" stroke="black" d="M532.88,-53.54C542.15,-59.58 550.89,-66.86 557.5,-75.5 572.55,-95.2 571.5,-104.71 571.5,-129.5 571.5,-557 571.5,-557 571.5,-557 571.5,-574.32 562.74,-591.15 552.95,-604.55"/>
<polygon fill="black" stroke="black" points="550.48,-602.03 547.04,-612.05 555.98,-606.36 550.48,-602.03"/>
</g>
<!-- push_left&#45;&gt;loop_start -->
<g id="edge16" class="edge">
<title>push_left&#45;&gt;loop_start</title>
<path fill="none" stroke="black" d="M609.5,-57.7C609.5,-77.7 609.5,-105.26 609.5,-129.5 609.5,-557 609.5,-557 609.5,-557 609.5,-577.77 595.19,-594.4 578.45,-606.74"/>
<polygon fill="black" stroke="black" points="576.54,-603.8 570.23,-612.31 580.47,-609.6 576.54,-603.8"/>
</g>
</g>
</svg>
