<?xml version="1.0" encoding="UTF-8" standalone="no"?>
<!DOCTYPE svg PUBLIC "-//W3C//DTD SVG 1.1//EN"
 "http://www.w3.org/Graphics/SVG/1.1/DTD/svg11.dtd">
<!-- Generated by graphviz version 13.1.2 (20250808.2320)
 -->
<!-- Title: encode_CDFG Pages: 1 -->
<svg width="472pt" height="1308pt"
 viewBox="0.00 0.00 472.00 1308.00" xmlns="http://www.w3.org/2000/svg" xmlns:xlink="http://www.w3.org/1999/xlink">
<g id="graph0" class="graph" transform="scale(1 1) rotate(0) translate(4 1304)">
<title>encode_CDFG</title>
<polygon fill="white" stroke="none" points="-4,4 -4,-1304 468.25,-1304 468.25,4 -4,4"/>
<!-- B1 -->
<g id="node1" class="node">
<title>B1</title>
<polygon fill="none" stroke="black" points="428.62,-1300 187.62,-1300 187.62,-1259 428.62,-1259 428.62,-1300"/>
<text xml:space="preserve" text-anchor="middle" x="308.12" y="-1282.7" font-family="Times New Roman,serif" font-size="14.00">B1: Inicializacao</text>
<text xml:space="preserve" text-anchor="middle" x="308.12" y="-1266.2" font-family="Times New Roman,serif" font-size="14.00">Def: i, h_ptr, tqmf_ptr, tqmf_ptr1, xa, xb</text>
</g>
<!-- B2 -->
<g id="node2" class="node">
<title>B2</title>
<polygon fill="none" stroke="black" points="372,-1222 244.25,-1222 244.25,-1164.5 372,-1164.5 372,-1222"/>
<text xml:space="preserve" text-anchor="middle" x="308.12" y="-1204.7" font-family="Times New Roman,serif" font-size="14.00">B2: Loop (10x)</text>
<text xml:space="preserve" text-anchor="middle" x="308.12" y="-1188.2" font-family="Times New Roman,serif" font-size="14.00">Def: xa, xb</text>
<text xml:space="preserve" text-anchor="middle" x="308.12" y="-1171.7" font-family="Times New Roman,serif" font-size="14.00">Use: tqmf_ptr, h_ptr</text>
</g>
<!-- B1&#45;&gt;B2 -->
<g id="edge1" class="edge">
<title>B1&#45;&gt;B2</title>
<path fill="none" stroke="black" d="M308.12,-1258.53C308.12,-1251.11 308.12,-1242.4 308.12,-1233.83"/>
<polygon fill="black" stroke="black" points="311.63,-1233.87 308.13,-1223.87 304.63,-1233.87 311.63,-1233.87"/>
</g>
<!-- B2&#45;&gt;B2 -->
<g id="edge2" class="edge">
<title>B2&#45;&gt;B2</title>
<path fill="none" stroke="black" d="M372.31,-1201.45C382.8,-1200.27 390,-1197.54 390,-1193.25 390,-1190.77 387.59,-1188.81 383.54,-1187.37"/>
<polygon fill="black" stroke="black" points="384.3,-1183.95 373.8,-1185.36 382.88,-1190.81 384.3,-1183.95"/>
<text xml:space="preserve" text-anchor="middle" x="427.12" y="-1188.2" font-family="Times New Roman,serif" font-size="14.00">Loop (i &lt; 10)</text>
</g>
<!-- B3 -->
<g id="node3" class="node">
<title>B3</title>
<polygon fill="none" stroke="black" points="378.38,-1127.5 237.88,-1127.5 237.88,-1086.5 378.38,-1086.5 378.38,-1127.5"/>
<text xml:space="preserve" text-anchor="middle" x="308.12" y="-1110.2" font-family="Times New Roman,serif" font-size="14.00">B3: Atualizacao xa, xb</text>
<text xml:space="preserve" text-anchor="middle" x="308.12" y="-1093.7" font-family="Times New Roman,serif" font-size="14.00">Def: xa, xb</text>
</g>
<!-- B2&#45;&gt;B3 -->
<g id="edge3" class="edge">
<title>B2&#45;&gt;B3</title>
<path fill="none" stroke="black" d="M308.12,-1164.2C308.12,-1156.22 308.12,-1147.48 308.12,-1139.33"/>
<polygon fill="black" stroke="black" points="311.63,-1139.46 308.13,-1129.46 304.63,-1139.46 311.63,-1139.46"/>
</g>
<!-- B4 -->
<g id="node4" class="node">
<title>B4</title>
<polygon fill="none" stroke="black" points="374.62,-1049.5 241.62,-1049.5 241.62,-1008.5 374.62,-1008.5 374.62,-1049.5"/>
<text xml:space="preserve" text-anchor="middle" x="308.12" y="-1032.2" font-family="Times New Roman,serif" font-size="14.00">B4: Atualizacao tqmf</text>
<text xml:space="preserve" text-anchor="middle" x="308.12" y="-1015.7" font-family="Times New Roman,serif" font-size="14.00">Def: tqmf</text>
</g>
<!-- B3&#45;&gt;B4 -->
<g id="edge4" class="edge">
<title>B3&#45;&gt;B4</title>
<path fill="none" stroke="black" d="M308.12,-1086.03C308.12,-1078.44 308.12,-1069.6 308.12,-1061.21"/>
<polygon fill="black" stroke="black" points="311.63,-1061.35 308.13,-1051.35 304.63,-1061.35 311.63,-1061.35"/>
</g>
<!-- B5 -->
<g id="node5" class="node">
<title>B5</title>
<polygon fill="none" stroke="black" points="366.38,-971.5 249.88,-971.5 249.88,-930.5 366.38,-930.5 366.38,-971.5"/>
<text xml:space="preserve" text-anchor="middle" x="308.12" y="-954.2" font-family="Times New Roman,serif" font-size="14.00">B5: Calculo xl, xh</text>
<text xml:space="preserve" text-anchor="middle" x="308.12" y="-937.7" font-family="Times New Roman,serif" font-size="14.00">Def: xl, xh</text>
</g>
<!-- B4&#45;&gt;B5 -->
<g id="edge5" class="edge">
<title>B4&#45;&gt;B5</title>
<path fill="none" stroke="black" d="M308.12,-1008.03C308.12,-1000.44 308.12,-991.6 308.12,-983.21"/>
<polygon fill="black" stroke="black" points="311.63,-983.35 308.13,-973.35 304.63,-983.35 311.63,-983.35"/>
</g>
<!-- B6 -->
<g id="node6" class="node">
<title>B6</title>
<polygon fill="none" stroke="black" points="442.12,-893.5 174.12,-893.5 174.12,-852.5 442.12,-852.5 442.12,-893.5"/>
<text xml:space="preserve" text-anchor="middle" x="308.12" y="-876.2" font-family="Times New Roman,serif" font-size="14.00">B6: Calculo szl, spl, sl, el, il, dlt, nbl, detl, plt</text>
<text xml:space="preserve" text-anchor="middle" x="308.12" y="-859.7" font-family="Times New Roman,serif" font-size="14.00">Def: szl, spl, sl, el, il, dlt, nbl, detl, plt</text>
</g>
<!-- B5&#45;&gt;B6 -->
<g id="edge6" class="edge">
<title>B5&#45;&gt;B6</title>
<path fill="none" stroke="black" d="M308.12,-930.03C308.12,-922.44 308.12,-913.6 308.12,-905.21"/>
<polygon fill="black" stroke="black" points="311.63,-905.35 308.13,-895.35 304.63,-905.35 311.63,-905.35"/>
</g>
<!-- B7 -->
<g id="node7" class="node">
<title>B7</title>
<polygon fill="none" stroke="black" points="388.88,-815.5 227.38,-815.5 227.38,-774.5 388.88,-774.5 388.88,-815.5"/>
<text xml:space="preserve" text-anchor="middle" x="308.12" y="-798.2" font-family="Times New Roman,serif" font-size="14.00">B7: Chamada upzero</text>
<text xml:space="preserve" text-anchor="middle" x="308.12" y="-781.7" font-family="Times New Roman,serif" font-size="14.00">Def: delay_bpl, delay_dltx</text>
</g>
<!-- B6&#45;&gt;B7 -->
<g id="edge7" class="edge">
<title>B6&#45;&gt;B7</title>
<path fill="none" stroke="black" d="M308.12,-852.03C308.12,-844.44 308.12,-835.6 308.12,-827.21"/>
<polygon fill="black" stroke="black" points="311.63,-827.35 308.13,-817.35 304.63,-827.35 311.63,-827.35"/>
</g>
<!-- B8 -->
<g id="node8" class="node">
<title>B8</title>
<polygon fill="none" stroke="black" points="446.25,-737.5 170,-737.5 170,-696.5 446.25,-696.5 446.25,-737.5"/>
<text xml:space="preserve" text-anchor="middle" x="308.12" y="-720.2" font-family="Times New Roman,serif" font-size="14.00">B8: Atualizacao al2, al1, rlt, rlt1, rlt2, plt1, plt2</text>
<text xml:space="preserve" text-anchor="middle" x="308.12" y="-703.7" font-family="Times New Roman,serif" font-size="14.00">Def: al2, al1, rlt, rlt1, rlt2, plt1, plt2</text>
</g>
<!-- B7&#45;&gt;B8 -->
<g id="edge8" class="edge">
<title>B7&#45;&gt;B8</title>
<path fill="none" stroke="black" d="M308.12,-774.03C308.12,-766.44 308.12,-757.6 308.12,-749.21"/>
<polygon fill="black" stroke="black" points="311.63,-749.35 308.13,-739.35 304.63,-749.35 311.63,-749.35"/>
</g>
<!-- B9 -->
<g id="node9" class="node">
<title>B9</title>
<polygon fill="none" stroke="black" points="392.62,-659.5 223.62,-659.5 223.62,-618.5 392.62,-618.5 392.62,-659.5"/>
<text xml:space="preserve" text-anchor="middle" x="308.12" y="-642.2" font-family="Times New Roman,serif" font-size="14.00">B9: Calculo szh, sph, sh, eh</text>
<text xml:space="preserve" text-anchor="middle" x="308.12" y="-625.7" font-family="Times New Roman,serif" font-size="14.00">Def: szh, sph, sh, eh</text>
</g>
<!-- B8&#45;&gt;B9 -->
<g id="edge9" class="edge">
<title>B8&#45;&gt;B9</title>
<path fill="none" stroke="black" d="M308.12,-696.03C308.12,-688.44 308.12,-679.6 308.12,-671.21"/>
<polygon fill="black" stroke="black" points="311.63,-671.35 308.13,-661.35 304.63,-671.35 311.63,-671.35"/>
</g>
<!-- B10 -->
<g id="node10" class="node">
<title>B10</title>
<polygon fill="none" stroke="black" points="363.38,-566 252.88,-566 252.88,-525 363.38,-525 363.38,-566"/>
<text xml:space="preserve" text-anchor="middle" x="308.12" y="-548.7" font-family="Times New Roman,serif" font-size="14.00">B10: if (eh &gt;= 0)</text>
<text xml:space="preserve" text-anchor="middle" x="308.12" y="-532.2" font-family="Times New Roman,serif" font-size="14.00">Use: eh</text>
</g>
<!-- B9&#45;&gt;B10 -->
<g id="edge10" class="edge">
<title>B9&#45;&gt;B10</title>
<path fill="none" stroke="black" d="M306.78,-618C306.25,-607.82 305.83,-595.25 306.12,-584 306.18,-581.94 306.25,-579.81 306.34,-577.67"/>
<polygon fill="black" stroke="black" points="309.82,-578.01 306.8,-567.85 302.83,-577.68 309.82,-578.01"/>
</g>
<!-- B9&#45;&gt;B10 -->
<g id="edge20" class="edge">
<title>B9&#45;&gt;B10</title>
<path fill="none" stroke="black" d="M308.12,-618.15C308.12,-606.28 308.12,-590.94 308.12,-577.5"/>
<polygon fill="black" stroke="black" points="311.63,-577.83 308.13,-567.83 304.63,-577.83 311.63,-577.83"/>
<text xml:space="preserve" text-anchor="middle" x="328.75" y="-587.2" font-family="Times New Roman,serif" font-size="14.00">Use: eh</text>
</g>
<!-- B11 -->
<g id="node11" class="node">
<title>B11</title>
<polygon fill="none" stroke="black" points="248.62,-472.5 169.62,-472.5 169.62,-431.5 248.62,-431.5 248.62,-472.5"/>
<text xml:space="preserve" text-anchor="middle" x="209.12" y="-455.2" font-family="Times New Roman,serif" font-size="14.00">B11: ih = 3</text>
<text xml:space="preserve" text-anchor="middle" x="209.12" y="-438.7" font-family="Times New Roman,serif" font-size="14.00">Def: ih</text>
</g>
<!-- B10&#45;&gt;B11 -->
<g id="edge11" class="edge">
<title>B10&#45;&gt;B11</title>
<path fill="none" stroke="black" d="M252.42,-536.71C234.84,-531.33 217.26,-522.26 206.62,-507 202.05,-500.43 200.8,-492.24 201.17,-484.24"/>
<polygon fill="black" stroke="black" points="204.63,-484.74 202.47,-474.37 197.69,-483.82 204.63,-484.74"/>
<text xml:space="preserve" text-anchor="middle" x="228.38" y="-493.7" font-family="Times New Roman,serif" font-size="14.00">eh &gt;= 0</text>
</g>
<!-- B10&#45;&gt;B11 -->
<g id="edge21" class="edge">
<title>B10&#45;&gt;B11</title>
<path fill="none" stroke="black" d="M286.96,-524.71C275.99,-514.47 262.36,-501.79 250.12,-490.5 246.62,-487.26 242.93,-483.87 239.27,-480.52"/>
<polygon fill="black" stroke="black" points="241.72,-478.01 231.98,-473.84 236.99,-483.17 241.72,-478.01"/>
<text xml:space="preserve" text-anchor="middle" x="292.45" y="-493.7" font-family="Times New Roman,serif" font-size="14.00">p&#45;use: eh</text>
</g>
<!-- B12 -->
<g id="node12" class="node">
<title>B12</title>
<polygon fill="none" stroke="black" points="388.62,-472.5 309.62,-472.5 309.62,-431.5 388.62,-431.5 388.62,-472.5"/>
<text xml:space="preserve" text-anchor="middle" x="349.12" y="-455.2" font-family="Times New Roman,serif" font-size="14.00">B12: ih = 1</text>
<text xml:space="preserve" text-anchor="middle" x="349.12" y="-438.7" font-family="Times New Roman,serif" font-size="14.00">Def: ih</text>
</g>
<!-- B10&#45;&gt;B12 -->
<g id="edge12" class="edge">
<title>B10&#45;&gt;B12</title>
<path fill="none" stroke="black" d="M317.02,-524.65C322.45,-512.54 329.49,-496.82 335.6,-483.19"/>
<polygon fill="black" stroke="black" points="338.73,-484.75 339.63,-474.2 332.34,-481.89 338.73,-484.75"/>
<text xml:space="preserve" text-anchor="middle" x="349.92" y="-493.7" font-family="Times New Roman,serif" font-size="14.00">eh &lt; 0</text>
</g>
<!-- B10&#45;&gt;B12 -->
<g id="edge22" class="edge">
<title>B10&#45;&gt;B12</title>
<path fill="none" stroke="black" d="M354.8,-524.58C361.33,-519.78 367.16,-513.97 371.12,-507 375.4,-499.47 374.37,-490.95 371.09,-482.93"/>
<polygon fill="black" stroke="black" points="374.22,-481.36 366.46,-474.15 368.03,-484.63 374.22,-481.36"/>
<text xml:space="preserve" text-anchor="middle" x="398.7" y="-493.7" font-family="Times New Roman,serif" font-size="14.00">p&#45;use: eh</text>
</g>
<!-- B13 -->
<g id="node13" class="node">
<title>B13</title>
<polygon fill="none" stroke="black" points="286.88,-394.5 167.38,-394.5 167.38,-353.5 286.88,-353.5 286.88,-394.5"/>
<text xml:space="preserve" text-anchor="middle" x="227.12" y="-377.2" font-family="Times New Roman,serif" font-size="14.00">B13: Calculo decis</text>
<text xml:space="preserve" text-anchor="middle" x="227.12" y="-360.7" font-family="Times New Roman,serif" font-size="14.00">Use: deth</text>
</g>
<!-- B11&#45;&gt;B13 -->
<g id="edge13" class="edge">
<title>B11&#45;&gt;B13</title>
<path fill="none" stroke="black" d="M213.85,-431.03C215.67,-423.35 217.8,-414.39 219.8,-405.92"/>
<polygon fill="black" stroke="black" points="223.18,-406.85 222.08,-396.31 216.37,-405.23 223.18,-406.85"/>
</g>
<!-- B16 -->
<g id="node16" class="node">
<title>B16</title>
<polygon fill="none" stroke="black" points="366.25,-114 0,-114 0,-73 366.25,-73 366.25,-114"/>
<text xml:space="preserve" text-anchor="middle" x="183.12" y="-96.7" font-family="Times New Roman,serif" font-size="14.00">B16: Calculo dh, nbh, deth, ph, ah2, ah1, yh, rh1, rh2, ph1, ph2</text>
<text xml:space="preserve" text-anchor="middle" x="183.12" y="-80.2" font-family="Times New Roman,serif" font-size="14.00">Def: dh, nbh, deth, ph, ah2, ah1, yh, rh1, rh2, ph1, ph2</text>
</g>
<!-- B11&#45;&gt;B16 -->
<g id="edge25" class="edge">
<title>B11&#45;&gt;B16</title>
<path fill="none" stroke="black" d="M169.13,-439.73C139.46,-428.64 104.12,-408.42 104.12,-375 104.12,-375 104.12,-375 104.12,-186 104.12,-159.79 122.92,-137.38 142.18,-121.3"/>
<polygon fill="black" stroke="black" points="144.11,-124.23 149.8,-115.3 139.78,-118.73 144.11,-124.23"/>
<text xml:space="preserve" text-anchor="middle" x="123.25" y="-275.45" font-family="Times New Roman,serif" font-size="14.00">Def: ih</text>
</g>
<!-- B12&#45;&gt;B13 -->
<g id="edge14" class="edge">
<title>B12&#45;&gt;B13</title>
<path fill="none" stroke="black" d="M317.07,-431.03C302.22,-421.78 284.39,-410.67 268.54,-400.8"/>
<polygon fill="black" stroke="black" points="270.59,-397.95 260.25,-395.64 266.89,-403.89 270.59,-397.95"/>
</g>
<!-- B12&#45;&gt;B16 -->
<g id="edge26" class="edge">
<title>B12&#45;&gt;B16</title>
<path fill="none" stroke="black" d="M355.63,-431.24C360.06,-416.04 365.12,-394.42 365.12,-375 365.12,-375 365.12,-375 365.12,-186 365.12,-153.27 341.34,-132.25 310.97,-118.75"/>
<polygon fill="black" stroke="black" points="312.43,-115.56 301.85,-115.02 309.78,-122.04 312.43,-115.56"/>
<text xml:space="preserve" text-anchor="middle" x="384.25" y="-275.45" font-family="Times New Roman,serif" font-size="14.00">Def: ih</text>
</g>
<!-- B14 -->
<g id="node14" class="node">
<title>B14</title>
<polygon fill="none" stroke="black" points="289.75,-301 160.5,-301 160.5,-260 289.75,-260 289.75,-301"/>
<text xml:space="preserve" text-anchor="middle" x="225.12" y="-283.7" font-family="Times New Roman,serif" font-size="14.00">B14: if (|eh| &gt; decis)</text>
<text xml:space="preserve" text-anchor="middle" x="225.12" y="-267.2" font-family="Times New Roman,serif" font-size="14.00">Use: eh, decis</text>
</g>
<!-- B13&#45;&gt;B14 -->
<g id="edge15" class="edge">
<title>B13&#45;&gt;B14</title>
<path fill="none" stroke="black" d="M216.31,-353.3C213.77,-347.71 211.42,-341.51 210.12,-335.5 208.49,-327.92 209.32,-319.83 211.25,-312.28"/>
<polygon fill="black" stroke="black" points="214.57,-313.4 214.36,-302.8 207.92,-311.21 214.57,-313.4"/>
</g>
<!-- B13&#45;&gt;B14 -->
<g id="edge23" class="edge">
<title>B13&#45;&gt;B14</title>
<path fill="none" stroke="black" d="M226.69,-353.15C226.43,-341.28 226.1,-325.94 225.8,-312.5"/>
<polygon fill="black" stroke="black" points="229.31,-312.75 225.59,-302.83 222.31,-312.9 229.31,-312.75"/>
<text xml:space="preserve" text-anchor="middle" x="254.43" y="-322.2" font-family="Times New Roman,serif" font-size="14.00">Use: decis</text>
</g>
<!-- B15 -->
<g id="node15" class="node">
<title>B15</title>
<polygon fill="none" stroke="black" points="265.88,-207.5 200.38,-207.5 200.38,-166.5 265.88,-166.5 265.88,-207.5"/>
<text xml:space="preserve" text-anchor="middle" x="233.12" y="-190.2" font-family="Times New Roman,serif" font-size="14.00">B15: ih&#45;&#45;</text>
<text xml:space="preserve" text-anchor="middle" x="233.12" y="-173.7" font-family="Times New Roman,serif" font-size="14.00">Def: ih</text>
</g>
<!-- B14&#45;&gt;B15 -->
<g id="edge16" class="edge">
<title>B14&#45;&gt;B15</title>
<path fill="none" stroke="black" d="M196.16,-259.72C185.7,-250 177.8,-237.76 183.88,-225.5 185.88,-221.45 188.56,-217.71 191.64,-214.3"/>
<polygon fill="black" stroke="black" points="193.96,-216.92 198.85,-207.52 189.16,-211.82 193.96,-216.92"/>
<text xml:space="preserve" text-anchor="middle" x="213.5" y="-228.7" font-family="Times New Roman,serif" font-size="14.00">Verdadeiro</text>
</g>
<!-- B14&#45;&gt;B15 -->
<g id="edge24" class="edge">
<title>B14&#45;&gt;B15</title>
<path fill="none" stroke="black" d="M236.57,-259.86C239.26,-254.27 241.75,-248.06 243.12,-242 244.82,-234.53 244.47,-226.43 243.19,-218.83"/>
<polygon fill="black" stroke="black" points="246.65,-218.27 241.01,-209.3 239.83,-219.83 246.65,-218.27"/>
<text xml:space="preserve" text-anchor="middle" x="286.65" y="-228.7" font-family="Times New Roman,serif" font-size="14.00">p&#45;use: eh, decis</text>
</g>
<!-- B14&#45;&gt;B16 -->
<g id="edge17" class="edge">
<title>B14&#45;&gt;B16</title>
<path fill="none" stroke="black" d="M195.88,-259.59C189.51,-254.36 183.17,-248.39 178.12,-242 167.62,-228.7 165.58,-224.04 161.88,-207.5 155.65,-179.67 162.99,-147.71 170.69,-124.9"/>
<polygon fill="black" stroke="black" points="173.95,-126.2 174.05,-115.6 167.36,-123.82 173.95,-126.2"/>
<text xml:space="preserve" text-anchor="middle" x="176.5" y="-181.95" font-family="Times New Roman,serif" font-size="14.00">Falso</text>
</g>
<!-- B15&#45;&gt;B16 -->
<g id="edge18" class="edge">
<title>B15&#45;&gt;B16</title>
<path fill="none" stroke="black" d="M231.93,-166.03C230.6,-155.39 227.84,-142.39 222.12,-132 220.36,-128.79 218.23,-125.69 215.88,-122.74"/>
<polygon fill="black" stroke="black" points="218.65,-120.58 209.36,-115.49 213.45,-125.27 218.65,-120.58"/>
</g>
<!-- B15&#45;&gt;B16 -->
<g id="edge27" class="edge">
<title>B15&#45;&gt;B16</title>
<path fill="none" stroke="black" d="M200.07,-169.97C192.01,-164.36 184.41,-157.23 179.88,-148.5 176.28,-141.58 175.36,-133.47 175.76,-125.67"/>
<polygon fill="black" stroke="black" points="179.23,-126.12 177.01,-115.76 172.29,-125.25 179.23,-126.12"/>
<text xml:space="preserve" text-anchor="middle" x="199" y="-135.2" font-family="Times New Roman,serif" font-size="14.00">Def: ih</text>
</g>
<!-- B17 -->
<g id="node17" class="node">
<title>B17</title>
<polygon fill="none" stroke="black" points="263.88,-36 102.38,-36 102.38,0 263.88,0 263.88,-36"/>
<text xml:space="preserve" text-anchor="middle" x="183.12" y="-12.95" font-family="Times New Roman,serif" font-size="14.00">B17: Retorno il | (ih &lt;&lt; 6)</text>
</g>
<!-- B16&#45;&gt;B17 -->
<g id="edge19" class="edge">
<title>B16&#45;&gt;B17</title>
<path fill="none" stroke="black" d="M183.12,-72.8C183.12,-65.06 183.12,-56.01 183.12,-47.57"/>
<polygon fill="black" stroke="black" points="186.63,-47.76 183.13,-37.76 179.63,-47.76 186.63,-47.76"/>
</g>
</g>
</svg>
