<?xml version="1.0" encoding="UTF-8" standalone="no"?>
<!DOCTYPE svg PUBLIC "-//W3C//DTD SVG 1.1//EN"
 "http://www.w3.org/Graphics/SVG/1.1/DTD/svg11.dtd">
<!-- Generated by graphviz version 13.1.2 (20250808.2320)
 -->
<!-- Title: fib Pages: 1 -->
<svg width="398pt" height="589pt"
 viewBox="0.00 0.00 398.00 589.00" xmlns="http://www.w3.org/2000/svg" xmlns:xlink="http://www.w3.org/1999/xlink">
<g id="graph0" class="graph" transform="scale(1 1) rotate(0) translate(4 585)">
<title>fib</title>
<polygon fill="white" stroke="none" points="-4,4 -4,-585 394.01,-585 394.01,4 -4,4"/>
<!-- start -->
<g id="node1" class="node">
<title>start</title>
<ellipse fill="none" stroke="black" cx="195" cy="-563" rx="29.61" ry="18"/>
<text xml:space="preserve" text-anchor="middle" x="195" y="-557.58" font-family="Arial" font-size="14.00">Start</text>
</g>
<!-- decl -->
<g id="node3" class="node">
<title>decl</title>
<polygon fill="none" stroke="black" points="284,-508 106,-508 106,-472 284,-472 284,-508"/>
<text xml:space="preserve" text-anchor="middle" x="195" y="-484.57" font-family="Arial" font-size="14.00">int i, Fnew, Fold, temp, ans</text>
</g>
<!-- start&#45;&gt;decl -->
<g id="edge1" class="edge">
<title>start&#45;&gt;decl</title>
<path fill="none" stroke="black" d="M195,-544.81C195,-537.23 195,-528.1 195,-519.54"/>
<polygon fill="black" stroke="black" points="198.5,-519.54 195,-509.54 191.5,-519.54 198.5,-519.54"/>
</g>
<!-- end -->
<g id="node2" class="node">
<title>end</title>
<ellipse fill="none" stroke="black" cx="283" cy="-18" rx="27" ry="18"/>
<text xml:space="preserve" text-anchor="middle" x="283" y="-12.57" font-family="Arial" font-size="14.00">End</text>
</g>
<!-- init1 -->
<g id="node4" class="node">
<title>init1</title>
<polygon fill="none" stroke="black" points="231.13,-435 158.88,-435 158.88,-399 231.13,-399 231.13,-435"/>
<text xml:space="preserve" text-anchor="middle" x="195" y="-411.57" font-family="Arial" font-size="14.00">Fnew = 1</text>
</g>
<!-- decl&#45;&gt;init1 -->
<g id="edge2" class="edge">
<title>decl&#45;&gt;init1</title>
<path fill="none" stroke="black" d="M195,-471.81C195,-464.23 195,-455.1 195,-446.54"/>
<polygon fill="black" stroke="black" points="198.5,-446.54 195,-436.54 191.5,-446.54 198.5,-446.54"/>
</g>
<!-- init2 -->
<g id="node5" class="node">
<title>init2</title>
<polygon fill="none" stroke="black" points="227.75,-362 162.25,-362 162.25,-326 227.75,-326 227.75,-362"/>
<text xml:space="preserve" text-anchor="middle" x="195" y="-338.57" font-family="Arial" font-size="14.00">Fold = 0</text>
</g>
<!-- init1&#45;&gt;init2 -->
<g id="edge3" class="edge">
<title>init1&#45;&gt;init2</title>
<path fill="none" stroke="black" d="M195,-398.81C195,-391.23 195,-382.1 195,-373.54"/>
<polygon fill="black" stroke="black" points="198.5,-373.54 195,-363.54 191.5,-373.54 198.5,-373.54"/>
</g>
<!-- for_cond -->
<g id="node6" class="node">
<title>for_cond</title>
<polygon fill="none" stroke="black" points="195,-289 0,-271 195,-253 390.01,-271 195,-289"/>
<text xml:space="preserve" text-anchor="middle" x="195" y="-265.57" font-family="Arial" font-size="14.00">for (i = 2; i &lt;= 30 &amp;&amp; i &lt;= n; i++)</text>
</g>
<!-- init2&#45;&gt;for_cond -->
<g id="edge4" class="edge">
<title>init2&#45;&gt;for_cond</title>
<path fill="none" stroke="black" d="M195,-325.81C195,-318.23 195,-309.1 195,-300.54"/>
<polygon fill="black" stroke="black" points="198.5,-300.54 195,-290.54 191.5,-300.54 198.5,-300.54"/>
</g>
<!-- loop_body -->
<g id="node7" class="node">
<title>loop_body</title>
<polygon fill="none" stroke="black" points="221.88,-201.25 82.13,-201.25 82.13,-146 221.88,-146 221.88,-201.25"/>
<text xml:space="preserve" text-anchor="middle" x="152" y="-183.95" font-family="Arial" font-size="14.00">temp = Fnew</text>
<text xml:space="preserve" text-anchor="middle" x="152" y="-168.2" font-family="Arial" font-size="14.00">Fnew = Fnew + Fold</text>
<text xml:space="preserve" text-anchor="middle" x="152" y="-152.45" font-family="Arial" font-size="14.00">Fold = temp</text>
</g>
<!-- for_cond&#45;&gt;loop_body -->
<g id="edge5" class="edge">
<title>for_cond&#45;&gt;loop_body</title>
<path fill="none" stroke="black" d="M170.19,-254.97C163.47,-249.57 157.02,-242.85 153.25,-235 150.01,-228.22 148.48,-220.5 147.96,-212.9"/>
<polygon fill="black" stroke="black" points="151.47,-213.08 147.88,-203.11 144.47,-213.13 151.47,-213.08"/>
<text xml:space="preserve" text-anchor="middle" x="167.13" y="-221.7" font-family="Arial" font-size="14.00">True</text>
</g>
<!-- assign_ans -->
<g id="node8" class="node">
<title>assign_ans</title>
<polygon fill="none" stroke="black" points="326.25,-191.62 239.75,-191.62 239.75,-155.62 326.25,-155.62 326.25,-191.62"/>
<text xml:space="preserve" text-anchor="middle" x="283" y="-168.2" font-family="Arial" font-size="14.00">ans = Fnew</text>
</g>
<!-- for_cond&#45;&gt;assign_ans -->
<g id="edge6" class="edge">
<title>for_cond&#45;&gt;assign_ans</title>
<path fill="none" stroke="black" d="M209.54,-254.25C223.13,-239.52 243.67,-217.26 259.57,-200.02"/>
<polygon fill="black" stroke="black" points="261.72,-202.85 265.93,-193.13 256.58,-198.1 261.72,-202.85"/>
<text xml:space="preserve" text-anchor="middle" x="258.14" y="-221.7" font-family="Arial" font-size="14.00">False</text>
</g>
<!-- loop_body&#45;&gt;for_cond -->
<g id="edge7" class="edge">
<title>loop_body&#45;&gt;for_cond</title>
<path fill="none" stroke="black" d="M171.48,-201.72C174.98,-207.34 178.35,-213.35 181,-219.25 184.24,-226.45 186.89,-234.56 188.97,-242.15"/>
<polygon fill="black" stroke="black" points="185.52,-242.78 191.34,-251.63 192.31,-241.08 185.52,-242.78"/>
</g>
<!-- return_stmt -->
<g id="node9" class="node">
<title>return_stmt</title>
<polygon fill="none" stroke="black" points="321.38,-109 244.63,-109 244.63,-73 321.38,-73 321.38,-109"/>
<text xml:space="preserve" text-anchor="middle" x="283" y="-85.58" font-family="Arial" font-size="14.00">return ans</text>
</g>
<!-- assign_ans&#45;&gt;return_stmt -->
<g id="edge8" class="edge">
<title>assign_ans&#45;&gt;return_stmt</title>
<path fill="none" stroke="black" d="M283,-155.13C283,-145.09 283,-132.24 283,-120.76"/>
<polygon fill="black" stroke="black" points="286.5,-120.97 283,-110.97 279.5,-120.97 286.5,-120.97"/>
</g>
<!-- return_stmt&#45;&gt;end -->
<g id="edge9" class="edge">
<title>return_stmt&#45;&gt;end</title>
<path fill="none" stroke="black" d="M283,-72.81C283,-65.23 283,-56.1 283,-47.54"/>
<polygon fill="black" stroke="black" points="286.5,-47.54 283,-37.54 279.5,-47.54 286.5,-47.54"/>
</g>
</g>
</svg>
