<?xml version="1.0" encoding="UTF-8" standalone="no"?>
<!DOCTYPE svg PUBLIC "-//W3C//DTD SVG 1.1//EN"
 "http://www.w3.org/Graphics/SVG/1.1/DTD/svg11.dtd">
<!-- Generated by graphviz version 13.1.2 (20250808.2320)
 -->
<!-- Title: CFG Pages: 1 -->
<svg width="1022pt" height="278pt"
 viewBox="0.00 0.00 1022.00 278.00" xmlns="http://www.w3.org/2000/svg" xmlns:xlink="http://www.w3.org/1999/xlink">
<g id="graph0" class="graph" transform="scale(1 1) rotate(0) translate(4 273.75)">
<title>CFG</title>
<polygon fill="white" stroke="none" points="-4,4 -4,-273.75 1017.5,-273.75 1017.5,4 -4,4"/>
<!-- Main -->
<g id="node1" class="node">
<title>Main</title>
<polygon fill="none" stroke="black" points="720.62,-269.75 477.38,-269.75 477.38,-233.75 720.62,-233.75 720.62,-269.75"/>
<text xml:space="preserve" text-anchor="middle" x="599" y="-246.32" font-family="Helvetica,sans-Serif" font-size="14.00">main: InitSeed(); Test(Array); return 1;</text>
</g>
<!-- Test -->
<g id="node2" class="node">
<title>Test</title>
<polygon fill="none" stroke="black" points="550.62,-196.75 277.38,-196.75 277.38,-160.75 550.62,-160.75 550.62,-196.75"/>
<text xml:space="preserve" text-anchor="middle" x="414" y="-173.32" font-family="Helvetica,sans-Serif" font-size="14.00">Test: Initialize(Array); Sum(Array); return 0;</text>
</g>
<!-- Main&#45;&gt;Test -->
<g id="edge2" class="edge">
<title>Main&#45;&gt;Test</title>
<path fill="none" stroke="black" d="M553.74,-233.38C528.44,-223.67 496.68,-211.48 469.83,-201.18"/>
<polygon fill="black" stroke="black" points="471.43,-198.04 460.84,-197.73 468.93,-204.58 471.43,-198.04"/>
</g>
<!-- InitSeed -->
<g id="node5" class="node">
<title>InitSeed</title>
<polygon fill="none" stroke="black" points="753.75,-196.75 568.25,-196.75 568.25,-160.75 753.75,-160.75 753.75,-196.75"/>
<text xml:space="preserve" text-anchor="middle" x="661" y="-173.32" font-family="Helvetica,sans-Serif" font-size="14.00">InitSeed: Seed = 0; return 0;</text>
</g>
<!-- Main&#45;&gt;InitSeed -->
<g id="edge1" class="edge">
<title>Main&#45;&gt;InitSeed</title>
<path fill="none" stroke="black" d="M614.01,-233.56C621.4,-225.1 630.45,-214.73 638.63,-205.36"/>
<polygon fill="black" stroke="black" points="641.19,-207.75 645.13,-197.92 635.92,-203.15 641.19,-207.75"/>
</g>
<!-- Initialize -->
<g id="node3" class="node">
<title>Initialize</title>
<polygon fill="none" stroke="black" points="404.5,-123.75 7.5,-123.75 7.5,-87.75 404.5,-87.75 404.5,-123.75"/>
<text xml:space="preserve" text-anchor="middle" x="206" y="-100.33" font-family="Helvetica,sans-Serif" font-size="14.00">Initialize: Loops para preencher a matriz com RandomInteger();</text>
</g>
<!-- Test&#45;&gt;Initialize -->
<g id="edge3" class="edge">
<title>Test&#45;&gt;Initialize</title>
<path fill="none" stroke="black" d="M362.85,-160.29C334.14,-150.49 298.11,-138.19 267.82,-127.85"/>
<polygon fill="black" stroke="black" points="268.98,-124.55 258.38,-124.63 266.72,-131.17 268.98,-124.55"/>
</g>
<!-- Sum -->
<g id="node4" class="node">
<title>Sum</title>
<polygon fill="none" stroke="black" points="823.75,-123.75 422.25,-123.75 422.25,-87.75 823.75,-87.75 823.75,-123.75"/>
<text xml:space="preserve" text-anchor="middle" x="623" y="-100.33" font-family="Helvetica,sans-Serif" font-size="14.00">Sum: Loops aninhados com condicao if (Array[Outer][Inner] &lt; 0)</text>
</g>
<!-- Test&#45;&gt;Sum -->
<g id="edge4" class="edge">
<title>Test&#45;&gt;Sum</title>
<path fill="none" stroke="black" d="M465.39,-160.29C494.37,-150.45 530.76,-138.08 561.28,-127.72"/>
<polygon fill="black" stroke="black" points="562.03,-131.16 570.37,-124.63 559.78,-124.53 562.03,-131.16"/>
</g>
<!-- RandomInteger -->
<g id="node6" class="node">
<title>RandomInteger</title>
<polygon fill="none" stroke="black" points="412,-36 0,-36 0,0 412,0 412,-36"/>
<text xml:space="preserve" text-anchor="middle" x="206" y="-12.57" font-family="Helvetica,sans-Serif" font-size="14.00">RandomInteger: Seed = ((Seed * 133) + 81) % 8095; return Seed;</text>
</g>
<!-- Initialize&#45;&gt;RandomInteger -->
<g id="edge5" class="edge">
<title>Initialize&#45;&gt;RandomInteger</title>
<path fill="none" stroke="black" d="M206,-87.4C206,-76.01 206,-60.84 206,-47.68"/>
<polygon fill="black" stroke="black" points="209.5,-47.84 206,-37.84 202.5,-47.84 209.5,-47.84"/>
<text xml:space="preserve" text-anchor="middle" x="266.75" y="-56.45" font-family="Helvetica,sans-Serif" font-size="14.00">Para cada elemento</text>
</g>
<!-- Sum&#45;&gt;Sum -->
<g id="edge6" class="edge">
<title>Sum&#45;&gt;Sum</title>
<path fill="none" stroke="black" d="M824.03,-108.04C835.14,-107.49 841.75,-106.72 841.75,-105.75 841.75,-105.17 839.42,-104.67 835.2,-104.24"/>
<polygon fill="black" stroke="black" points="835.76,-100.77 825.54,-103.56 835.27,-107.75 835.76,-100.77"/>
<text xml:space="preserve" text-anchor="middle" x="879.25" y="-100.33" font-family="Helvetica,sans-Serif" font-size="14.00">Loop interno</text>
</g>
<!-- Sum&#45;&gt;Sum -->
<g id="edge7" class="edge">
<title>Sum&#45;&gt;Sum</title>
<path fill="none" stroke="black" d="M824.17,-112.47C876.36,-111.95 916.75,-109.71 916.75,-105.75 916.75,-102.09 882.13,-99.89 835.59,-99.17"/>
<polygon fill="black" stroke="black" points="835.73,-95.67 825.69,-99.05 835.64,-102.67 835.73,-95.67"/>
<text xml:space="preserve" text-anchor="middle" x="956.12" y="-100.33" font-family="Helvetica,sans-Serif" font-size="14.00">Loop externo</text>
</g>
</g>
</svg>
