<?xml version="1.0" encoding="UTF-8" standalone="no"?>
<!DOCTYPE svg PUBLIC "-//W3C//DTD SVG 1.1//EN"
 "http://www.w3.org/Graphics/SVG/1.1/DTD/svg11.dtd">
<!-- Generated by graphviz version 13.1.2 (20250808.2320)
 -->
<!-- Title: DFG Pages: 1 -->
<svg width="579pt" height="424pt"
 viewBox="0.00 0.00 579.00 424.00" xmlns="http://www.w3.org/2000/svg" xmlns:xlink="http://www.w3.org/1999/xlink">
<g id="graph0" class="graph" transform="scale(1 1) rotate(0) translate(4 419.75)">
<title>DFG</title>
<polygon fill="white" stroke="none" points="-4,4 -4,-419.75 574.93,-419.75 574.93,4 -4,4"/>
<!-- Seed_init -->
<g id="node1" class="node">
<title>Seed_init</title>
<ellipse fill="none" stroke="black" cx="256.92" cy="-397.75" rx="134.9" ry="18"/>
<text xml:space="preserve" text-anchor="middle" x="256.92" y="-392.32" font-family="Helvetica,sans-Serif" font-size="14.00">Seed (inicializado em InitSeed)</text>
</g>
<!-- RandomInteger_op -->
<g id="node3" class="node">
<title>RandomInteger_op</title>
<ellipse fill="none" stroke="black" cx="256.92" cy="-324.75" rx="132.9" ry="18"/>
<text xml:space="preserve" text-anchor="middle" x="256.92" y="-319.32" font-family="Helvetica,sans-Serif" font-size="14.00">RandomInteger: Atualiza Seed</text>
</g>
<!-- Seed_init&#45;&gt;RandomInteger_op -->
<g id="edge1" class="edge">
<title>Seed_init&#45;&gt;RandomInteger_op</title>
<path fill="none" stroke="black" d="M256.92,-379.56C256.92,-371.98 256.92,-362.85 256.92,-354.29"/>
<polygon fill="black" stroke="black" points="260.42,-354.29 256.92,-344.29 253.42,-354.29 260.42,-354.29"/>
</g>
<!-- Array_val -->
<g id="node2" class="node">
<title>Array_val</title>
<ellipse fill="none" stroke="black" cx="256.92" cy="-251.75" rx="201.76" ry="18"/>
<text xml:space="preserve" text-anchor="middle" x="256.92" y="-246.32" font-family="Helvetica,sans-Serif" font-size="14.00">Valores da matriz (gerados por RandomInteger)</text>
</g>
<!-- Sum_cond -->
<g id="node4" class="node">
<title>Sum_cond</title>
<ellipse fill="none" stroke="black" cx="256.92" cy="-178.75" rx="171.32" ry="18"/>
<text xml:space="preserve" text-anchor="middle" x="256.92" y="-173.32" font-family="Helvetica,sans-Serif" font-size="14.00">Sum: Condicao (Array[Outer][Inner] &lt; 0)</text>
</g>
<!-- Array_val&#45;&gt;Sum_cond -->
<g id="edge3" class="edge">
<title>Array_val&#45;&gt;Sum_cond</title>
<path fill="none" stroke="black" d="M256.92,-233.56C256.92,-225.98 256.92,-216.85 256.92,-208.29"/>
<polygon fill="black" stroke="black" points="260.42,-208.29 256.92,-198.29 253.42,-208.29 260.42,-208.29"/>
</g>
<!-- RandomInteger_op&#45;&gt;Array_val -->
<g id="edge2" class="edge">
<title>RandomInteger_op&#45;&gt;Array_val</title>
<path fill="none" stroke="black" d="M256.92,-306.56C256.92,-298.98 256.92,-289.85 256.92,-281.29"/>
<polygon fill="black" stroke="black" points="260.42,-281.29 256.92,-271.29 253.42,-281.29 260.42,-281.29"/>
</g>
<!-- Ptotal_add -->
<g id="node5" class="node">
<title>Ptotal_add</title>
<ellipse fill="none" stroke="black" cx="123.92" cy="-91" rx="123.92" ry="18"/>
<text xml:space="preserve" text-anchor="middle" x="123.92" y="-85.58" font-family="Helvetica,sans-Serif" font-size="14.00">Ptotal += Array[Outer][Inner]</text>
</g>
<!-- Sum_cond&#45;&gt;Ptotal_add -->
<g id="edge4" class="edge">
<title>Sum_cond&#45;&gt;Ptotal_add</title>
<path fill="none" stroke="black" d="M230.32,-160.6C209.98,-147.49 181.74,-129.28 159.47,-114.92"/>
<polygon fill="black" stroke="black" points="161.59,-112.12 151.28,-109.64 157.79,-118.01 161.59,-112.12"/>
<text xml:space="preserve" text-anchor="middle" x="246.95" y="-129.45" font-family="Helvetica,sans-Serif" font-size="14.00">Condicao falsa</text>
</g>
<!-- Ntotal_add -->
<g id="node6" class="node">
<title>Ntotal_add</title>
<ellipse fill="none" stroke="black" cx="389.92" cy="-91" rx="124.42" ry="18"/>
<text xml:space="preserve" text-anchor="middle" x="389.92" y="-85.58" font-family="Helvetica,sans-Serif" font-size="14.00">Ntotal += Array[Outer][Inner]</text>
</g>
<!-- Sum_cond&#45;&gt;Ntotal_add -->
<g id="edge5" class="edge">
<title>Sum_cond&#45;&gt;Ntotal_add</title>
<path fill="none" stroke="black" d="M283.51,-160.6C303.85,-147.49 332.09,-129.28 354.37,-114.92"/>
<polygon fill="black" stroke="black" points="356.04,-118.01 362.55,-109.64 352.25,-112.12 356.04,-118.01"/>
<text xml:space="preserve" text-anchor="middle" x="397.58" y="-129.45" font-family="Helvetica,sans-Serif" font-size="14.00">Condicao verdadeira</text>
</g>
<!-- Pcnt_inc -->
<g id="node7" class="node">
<title>Pcnt_inc</title>
<ellipse fill="none" stroke="black" cx="54.92" cy="-18" rx="39.59" ry="18"/>
<text xml:space="preserve" text-anchor="middle" x="54.92" y="-12.57" font-family="Helvetica,sans-Serif" font-size="14.00">Pcnt++</text>
</g>
<!-- Ptotal_add&#45;&gt;Pcnt_inc -->
<g id="edge6" class="edge">
<title>Ptotal_add&#45;&gt;Pcnt_inc</title>
<path fill="none" stroke="black" d="M107.21,-72.81C98.45,-63.8 87.58,-52.61 78.03,-42.78"/>
<polygon fill="black" stroke="black" points="80.59,-40.39 71.11,-35.66 75.57,-45.27 80.59,-40.39"/>
</g>
<!-- Postotal_out -->
<g id="node9" class="node">
<title>Postotal_out</title>
<ellipse fill="none" stroke="black" cx="188.92" cy="-18" rx="76.51" ry="18"/>
<text xml:space="preserve" text-anchor="middle" x="188.92" y="-12.57" font-family="Helvetica,sans-Serif" font-size="14.00">Postotal = Ptotal</text>
</g>
<!-- Ptotal_add&#45;&gt;Postotal_out -->
<g id="edge8" class="edge">
<title>Ptotal_add&#45;&gt;Postotal_out</title>
<path fill="none" stroke="black" d="M139.65,-72.81C147.48,-64.27 157.09,-53.77 165.73,-44.32"/>
<polygon fill="black" stroke="black" points="168.13,-46.88 172.31,-37.15 162.97,-42.16 168.13,-46.88"/>
</g>
<!-- Ncnt_inc -->
<g id="node8" class="node">
<title>Ncnt_inc</title>
<ellipse fill="none" stroke="black" cx="356.92" cy="-18" rx="40.09" ry="18"/>
<text xml:space="preserve" text-anchor="middle" x="356.92" y="-12.57" font-family="Helvetica,sans-Serif" font-size="14.00">Ncnt++</text>
</g>
<!-- Ntotal_add&#45;&gt;Ncnt_inc -->
<g id="edge7" class="edge">
<title>Ntotal_add&#45;&gt;Ncnt_inc</title>
<path fill="none" stroke="black" d="M381.93,-72.81C378.24,-64.88 373.77,-55.26 369.63,-46.36"/>
<polygon fill="black" stroke="black" points="372.86,-44.99 365.47,-37.4 366.51,-47.94 372.86,-44.99"/>
</g>
<!-- Negtotal_out -->
<g id="node10" class="node">
<title>Negtotal_out</title>
<ellipse fill="none" stroke="black" cx="492.92" cy="-18" rx="78.01" ry="18"/>
<text xml:space="preserve" text-anchor="middle" x="492.92" y="-12.57" font-family="Helvetica,sans-Serif" font-size="14.00">Negtotal = Ntotal</text>
</g>
<!-- Ntotal_add&#45;&gt;Negtotal_out -->
<g id="edge9" class="edge">
<title>Ntotal_add&#45;&gt;Negtotal_out</title>
<path fill="none" stroke="black" d="M414.59,-72.99C428.16,-63.64 445.18,-51.91 459.89,-41.77"/>
<polygon fill="black" stroke="black" points="461.66,-44.79 467.91,-36.24 457.69,-39.03 461.66,-44.79"/>
</g>
</g>
</svg>
