<?xml version="1.0" encoding="UTF-8" standalone="no"?>
<!DOCTYPE svg PUBLIC "-//W3C//DTD SVG 1.1//EN"
 "http://www.w3.org/Graphics/SVG/1.1/DTD/svg11.dtd">
<!-- Generated by graphviz version 13.1.2 (20250808.2320)
 -->
<!-- Title: CFG_main Pages: 1 -->
<svg width="93pt" height="160pt"
 viewBox="0.00 0.00 93.00 160.00" xmlns="http://www.w3.org/2000/svg" xmlns:xlink="http://www.w3.org/1999/xlink">
<g id="graph0" class="graph" transform="scale(1 1) rotate(0) translate(4 156.19)">
<title>CFG_main</title>
<polygon fill="white" stroke="none" points="-4,4 -4,-156.19 89,-156.19 89,4 -4,4"/>
<!-- N1 -->
<g id="node1" class="node">
<title>N1</title>
<path fill="none" stroke="black" d="M73,-152.19C73,-152.19 12,-152.19 12,-152.19 6,-152.19 0,-146.19 0,-140.19 0,-140.19 0,-128.19 0,-128.19 0,-122.19 6,-116.19 12,-116.19 12,-116.19 73,-116.19 73,-116.19 79,-116.19 85,-122.19 85,-128.19 85,-128.19 85,-140.19 85,-140.19 85,-146.19 79,-152.19 73,-152.19"/>
<text xml:space="preserve" text-anchor="middle" x="42.5" y="-128.76" font-family="Helvetica,sans-Serif" font-size="14.00">1: foo(400);</text>
</g>
<!-- N2 -->
<g id="node2" class="node">
<title>N2</title>
<ellipse fill="none" stroke="black" cx="42.5" cy="-40.09" rx="36.09" ry="36.09"/>
<ellipse fill="none" stroke="black" cx="42.5" cy="-40.09" rx="40.09" ry="40.09"/>
<text xml:space="preserve" text-anchor="middle" x="42.5" y="-34.67" font-family="Helvetica,sans-Serif" font-size="14.00">2: Fim</text>
</g>
<!-- N1&#45;&gt;N2 -->
<g id="edge1" class="edge">
<title>N1&#45;&gt;N2</title>
<path fill="none" stroke="black" d="M42.5,-115.87C42.5,-108.91 42.5,-100.5 42.5,-91.86"/>
<polygon fill="black" stroke="black" points="46,-92 42.5,-82 39,-92 46,-92"/>
</g>
</g>
</svg>
