<?xml version="1.0" encoding="UTF-8" standalone="no"?>
<!DOCTYPE svg PUBLIC "-//W3C//DTD SVG 1.1//EN"
 "http://www.w3.org/Graphics/SVG/1.1/DTD/svg11.dtd">
<!-- Generated by graphviz version 13.1.2 (20250808.2320)
 -->
<!-- Title: CFG_foo Pages: 1 -->
<svg width="457pt" height="927pt"
 viewBox="0.00 0.00 457.00 927.00" xmlns="http://www.w3.org/2000/svg" xmlns:xlink="http://www.w3.org/1999/xlink">
<g id="graph0" class="graph" transform="scale(1 1) rotate(0) translate(4 922.85)">
<title>CFG_foo</title>
<polygon fill="white" stroke="none" points="-4,4 -4,-922.85 452.62,-922.85 452.62,4 -4,4"/>
<!-- N1 -->
<g id="node1" class="node">
<title>N1</title>
<path fill="none" stroke="black" d="M398.25,-918.85C398.25,-918.85 281.75,-918.85 281.75,-918.85 275.75,-918.85 269.75,-912.85 269.75,-906.85 269.75,-906.85 269.75,-894.85 269.75,-894.85 269.75,-888.85 275.75,-882.85 281.75,-882.85 281.75,-882.85 398.25,-882.85 398.25,-882.85 404.25,-882.85 410.25,-888.85 410.25,-894.85 410.25,-894.85 410.25,-906.85 410.25,-906.85 410.25,-912.85 404.25,-918.85 398.25,-918.85"/>
<text xml:space="preserve" text-anchor="middle" x="340" y="-895.43" font-family="Helvetica,sans-Serif" font-size="14.00">1: int c = 0; (if TEST)</text>
</g>
<!-- N2 -->
<g id="node2" class="node">
<title>N2</title>
<path fill="none" stroke="black" d="M356.62,-845.85C356.62,-845.85 323.38,-845.85 323.38,-845.85 317.38,-845.85 311.38,-839.85 311.38,-833.85 311.38,-833.85 311.38,-821.85 311.38,-821.85 311.38,-815.85 317.38,-809.85 323.38,-809.85 323.38,-809.85 356.62,-809.85 356.62,-809.85 362.62,-809.85 368.62,-815.85 368.62,-821.85 368.62,-821.85 368.62,-833.85 368.62,-833.85 368.62,-839.85 362.62,-845.85 356.62,-845.85"/>
<text xml:space="preserve" text-anchor="middle" x="340" y="-822.43" font-family="Helvetica,sans-Serif" font-size="14.00">2: i = 0</text>
</g>
<!-- N1&#45;&gt;N2 -->
<g id="edge1" class="edge">
<title>N1&#45;&gt;N2</title>
<path fill="none" stroke="black" d="M340,-882.66C340,-875.08 340,-865.95 340,-857.39"/>
<polygon fill="black" stroke="black" points="343.5,-857.39 340,-847.39 336.5,-857.39 343.5,-857.39"/>
</g>
<!-- N3 -->
<g id="node3" class="node">
<title>N3</title>
<path fill="none" stroke="black" d="M356.62,-772.85C356.62,-772.85 323.38,-772.85 323.38,-772.85 317.38,-772.85 311.38,-766.85 311.38,-760.85 311.38,-760.85 311.38,-748.85 311.38,-748.85 311.38,-742.85 317.38,-736.85 323.38,-736.85 323.38,-736.85 356.62,-736.85 356.62,-736.85 362.62,-736.85 368.62,-742.85 368.62,-748.85 368.62,-748.85 368.62,-760.85 368.62,-760.85 368.62,-766.85 362.62,-772.85 356.62,-772.85"/>
<text xml:space="preserve" text-anchor="middle" x="340" y="-749.43" font-family="Helvetica,sans-Serif" font-size="14.00">3: i &lt; 5</text>
</g>
<!-- N2&#45;&gt;N3 -->
<g id="edge2" class="edge">
<title>N2&#45;&gt;N3</title>
<path fill="none" stroke="black" d="M340,-809.66C340,-802.08 340,-792.95 340,-784.39"/>
<polygon fill="black" stroke="black" points="343.5,-784.39 340,-774.39 336.5,-784.39 343.5,-784.39"/>
</g>
<!-- N4 -->
<g id="node4" class="node">
<title>N4</title>
<path fill="none" stroke="black" d="M294.62,-685.1C294.62,-685.1 261.38,-685.1 261.38,-685.1 255.38,-685.1 249.38,-679.1 249.38,-673.1 249.38,-673.1 249.38,-661.1 249.38,-661.1 249.38,-655.1 255.38,-649.1 261.38,-649.1 261.38,-649.1 294.62,-649.1 294.62,-649.1 300.62,-649.1 306.62,-655.1 306.62,-661.1 306.62,-661.1 306.62,-673.1 306.62,-673.1 306.62,-679.1 300.62,-685.1 294.62,-685.1"/>
<text xml:space="preserve" text-anchor="middle" x="278" y="-661.68" font-family="Helvetica,sans-Serif" font-size="14.00">4: j = 0</text>
</g>
<!-- N3&#45;&gt;N4 -->
<g id="edge3" class="edge">
<title>N3&#45;&gt;N4</title>
<path fill="none" stroke="black" d="M318.91,-736.54C313.23,-731.24 307.38,-725.14 302.75,-718.85 297.61,-711.88 293.07,-703.67 289.33,-695.92"/>
<polygon fill="black" stroke="black" points="292.52,-694.48 285.21,-686.8 286.14,-697.36 292.52,-694.48"/>
<text xml:space="preserve" text-anchor="middle" x="314.38" y="-705.55" font-family="Helvetica,sans-Serif" font-size="14.00">true</text>
</g>
<!-- N16 -->
<g id="node16" class="node">
<title>N16</title>
<path fill="none" stroke="black" d="M436.62,-631.1C436.62,-631.1 367.38,-631.1 367.38,-631.1 361.38,-631.1 355.38,-625.1 355.38,-619.1 355.38,-619.1 355.38,-607.1 355.38,-607.1 355.38,-601.1 361.38,-595.1 367.38,-595.1 367.38,-595.1 436.62,-595.1 436.62,-595.1 442.62,-595.1 448.62,-601.1 448.62,-607.1 448.62,-607.1 448.62,-619.1 448.62,-619.1 448.62,-625.1 442.62,-631.1 436.62,-631.1"/>
<text xml:space="preserve" text-anchor="middle" x="402" y="-607.68" font-family="Helvetica,sans-Serif" font-size="14.00">16: return &#45;1;</text>
</g>
<!-- N3&#45;&gt;N16 -->
<g id="edge4" class="edge">
<title>N3&#45;&gt;N16</title>
<path fill="none" stroke="black" d="M347.73,-736.43C358.27,-712.66 377.29,-669.8 389.78,-641.65"/>
<polygon fill="black" stroke="black" points="392.9,-643.24 393.76,-632.68 386.5,-640.4 392.9,-643.24"/>
<text xml:space="preserve" text-anchor="middle" x="376.07" y="-705.55" font-family="Helvetica,sans-Serif" font-size="14.00">false</text>
</g>
<!-- N5 -->
<g id="node5" class="node">
<title>N5</title>
<path fill="none" stroke="black" d="M281.62,-577.1C281.62,-577.1 248.38,-577.1 248.38,-577.1 242.38,-577.1 236.38,-571.1 236.38,-565.1 236.38,-565.1 236.38,-553.1 236.38,-553.1 236.38,-547.1 242.38,-541.1 248.38,-541.1 248.38,-541.1 281.62,-541.1 281.62,-541.1 287.62,-541.1 293.62,-547.1 293.62,-553.1 293.62,-553.1 293.62,-565.1 293.62,-565.1 293.62,-571.1 287.62,-577.1 281.62,-577.1"/>
<text xml:space="preserve" text-anchor="middle" x="265" y="-553.68" font-family="Helvetica,sans-Serif" font-size="14.00">5: j &lt; 5</text>
</g>
<!-- N4&#45;&gt;N5 -->
<g id="edge5" class="edge">
<title>N4&#45;&gt;N5</title>
<path fill="none" stroke="black" d="M275.91,-649.07C273.91,-632.79 270.87,-607.92 268.5,-588.62"/>
<polygon fill="black" stroke="black" points="272,-588.44 267.31,-578.94 265.05,-589.29 272,-588.44"/>
</g>
<!-- N6 -->
<g id="node6" class="node">
<title>N6</title>
<path fill="none" stroke="black" d="M218.5,-489.35C218.5,-489.35 181.5,-489.35 181.5,-489.35 175.5,-489.35 169.5,-483.35 169.5,-477.35 169.5,-477.35 169.5,-465.35 169.5,-465.35 169.5,-459.35 175.5,-453.35 181.5,-453.35 181.5,-453.35 218.5,-453.35 218.5,-453.35 224.5,-453.35 230.5,-459.35 230.5,-465.35 230.5,-465.35 230.5,-477.35 230.5,-477.35 230.5,-483.35 224.5,-489.35 218.5,-489.35"/>
<text xml:space="preserve" text-anchor="middle" x="200" y="-465.93" font-family="Helvetica,sans-Serif" font-size="14.00">6: k = 0</text>
</g>
<!-- N5&#45;&gt;N6 -->
<g id="edge6" class="edge">
<title>N5&#45;&gt;N6</title>
<path fill="none" stroke="black" d="M242.81,-540.89C236.82,-535.59 230.65,-529.47 225.75,-523.1 220.36,-516.1 215.6,-507.81 211.68,-499.97"/>
<polygon fill="black" stroke="black" points="214.94,-498.67 207.52,-491.1 208.6,-501.64 214.94,-498.67"/>
<text xml:space="preserve" text-anchor="middle" x="237.38" y="-509.8" font-family="Helvetica,sans-Serif" font-size="14.00">true</text>
</g>
<!-- N15 -->
<g id="node15" class="node">
<title>N15</title>
<path fill="none" stroke="black" d="M347,-489.35C347,-489.35 313,-489.35 313,-489.35 307,-489.35 301,-483.35 301,-477.35 301,-477.35 301,-465.35 301,-465.35 301,-459.35 307,-453.35 313,-453.35 313,-453.35 347,-453.35 347,-453.35 353,-453.35 359,-459.35 359,-465.35 359,-465.35 359,-477.35 359,-477.35 359,-483.35 353,-489.35 347,-489.35"/>
<text xml:space="preserve" text-anchor="middle" x="330" y="-465.93" font-family="Helvetica,sans-Serif" font-size="14.00">15: i++</text>
</g>
<!-- N5&#45;&gt;N15 -->
<g id="edge7" class="edge">
<title>N5&#45;&gt;N15</title>
<path fill="none" stroke="black" d="M275.1,-540.67C281.17,-530.63 289.3,-517.94 297.5,-507.35 299.91,-504.24 302.54,-501.08 305.23,-498"/>
<polygon fill="black" stroke="black" points="307.69,-500.5 311.81,-490.73 302.5,-495.8 307.69,-500.5"/>
<text xml:space="preserve" text-anchor="middle" x="311.75" y="-509.8" font-family="Helvetica,sans-Serif" font-size="14.00">false</text>
</g>
<!-- N7 -->
<g id="node7" class="node">
<title>N7</title>
<path fill="none" stroke="black" d="M206.5,-416.35C206.5,-416.35 169.5,-416.35 169.5,-416.35 163.5,-416.35 157.5,-410.35 157.5,-404.35 157.5,-404.35 157.5,-392.35 157.5,-392.35 157.5,-386.35 163.5,-380.35 169.5,-380.35 169.5,-380.35 206.5,-380.35 206.5,-380.35 212.5,-380.35 218.5,-386.35 218.5,-392.35 218.5,-392.35 218.5,-404.35 218.5,-404.35 218.5,-410.35 212.5,-416.35 206.5,-416.35"/>
<text xml:space="preserve" text-anchor="middle" x="188" y="-392.93" font-family="Helvetica,sans-Serif" font-size="14.00">7: k &lt; 5</text>
</g>
<!-- N6&#45;&gt;N7 -->
<g id="edge8" class="edge">
<title>N6&#45;&gt;N7</title>
<path fill="none" stroke="black" d="M197.1,-453.16C195.8,-445.49 194.24,-436.24 192.77,-427.59"/>
<polygon fill="black" stroke="black" points="196.25,-427.15 191.13,-417.87 189.35,-428.31 196.25,-427.15"/>
</g>
<!-- N8 -->
<g id="node8" class="node">
<title>N8</title>
<path fill="none" stroke="black" d="M137.62,-328.6C137.62,-328.6 104.38,-328.6 104.38,-328.6 98.38,-328.6 92.38,-322.6 92.38,-316.6 92.38,-316.6 92.38,-304.6 92.38,-304.6 92.38,-298.6 98.38,-292.6 104.38,-292.6 104.38,-292.6 137.62,-292.6 137.62,-292.6 143.62,-292.6 149.62,-298.6 149.62,-304.6 149.62,-304.6 149.62,-316.6 149.62,-316.6 149.62,-322.6 143.62,-328.6 137.62,-328.6"/>
<text xml:space="preserve" text-anchor="middle" x="121" y="-305.18" font-family="Helvetica,sans-Serif" font-size="14.00">8: l = 0</text>
</g>
<!-- N7&#45;&gt;N8 -->
<g id="edge9" class="edge">
<title>N7&#45;&gt;N8</title>
<path fill="none" stroke="black" d="M165.93,-380.04C159.95,-374.74 153.75,-368.64 148.75,-362.35 143.17,-355.32 138.1,-347.02 133.87,-339.18"/>
<polygon fill="black" stroke="black" points="137,-337.62 129.34,-330.3 130.76,-340.8 137,-337.62"/>
<text xml:space="preserve" text-anchor="middle" x="160.38" y="-349.05" font-family="Helvetica,sans-Serif" font-size="14.00">true</text>
</g>
<!-- N14 -->
<g id="node14" class="node">
<title>N14</title>
<path fill="none" stroke="black" d="M270,-328.6C270,-328.6 236,-328.6 236,-328.6 230,-328.6 224,-322.6 224,-316.6 224,-316.6 224,-304.6 224,-304.6 224,-298.6 230,-292.6 236,-292.6 236,-292.6 270,-292.6 270,-292.6 276,-292.6 282,-298.6 282,-304.6 282,-304.6 282,-316.6 282,-316.6 282,-322.6 276,-328.6 270,-328.6"/>
<text xml:space="preserve" text-anchor="middle" x="253" y="-305.18" font-family="Helvetica,sans-Serif" font-size="14.00">14: j++</text>
</g>
<!-- N7&#45;&gt;N14 -->
<g id="edge10" class="edge">
<title>N7&#45;&gt;N14</title>
<path fill="none" stroke="black" d="M198.1,-379.92C204.17,-369.88 212.3,-357.19 220.5,-346.6 222.91,-343.49 225.54,-340.33 228.23,-337.25"/>
<polygon fill="black" stroke="black" points="230.69,-339.75 234.81,-329.98 225.5,-335.05 230.69,-339.75"/>
<text xml:space="preserve" text-anchor="middle" x="234.75" y="-349.05" font-family="Helvetica,sans-Serif" font-size="14.00">false</text>
</g>
<!-- N9 -->
<g id="node9" class="node">
<title>N9</title>
<path fill="none" stroke="black" d="M116.62,-255.6C116.62,-255.6 83.38,-255.6 83.38,-255.6 77.38,-255.6 71.38,-249.6 71.38,-243.6 71.38,-243.6 71.38,-231.6 71.38,-231.6 71.38,-225.6 77.38,-219.6 83.38,-219.6 83.38,-219.6 116.62,-219.6 116.62,-219.6 122.62,-219.6 128.62,-225.6 128.62,-231.6 128.62,-231.6 128.62,-243.6 128.62,-243.6 128.62,-249.6 122.62,-255.6 116.62,-255.6"/>
<text xml:space="preserve" text-anchor="middle" x="100" y="-232.17" font-family="Helvetica,sans-Serif" font-size="14.00">9: l &lt; 5</text>
</g>
<!-- N8&#45;&gt;N9 -->
<g id="edge11" class="edge">
<title>N8&#45;&gt;N9</title>
<path fill="none" stroke="black" d="M115.92,-292.41C113.62,-284.65 110.85,-275.28 108.27,-266.55"/>
<polygon fill="black" stroke="black" points="111.66,-265.68 105.47,-257.08 104.95,-267.66 111.66,-265.68"/>
</g>
<!-- N10 -->
<g id="node10" class="node">
<title>N10</title>
<path fill="none" stroke="black" d="M153.88,-167.85C153.88,-167.85 38.12,-167.85 38.12,-167.85 32.12,-167.85 26.12,-161.85 26.12,-155.85 26.12,-155.85 26.12,-140.35 26.12,-140.35 26.12,-134.35 32.12,-128.35 38.12,-128.35 38.12,-128.35 153.88,-128.35 153.88,-128.35 159.88,-128.35 165.88,-134.35 165.88,-140.35 165.88,-140.35 165.88,-155.85 165.88,-155.85 165.88,-161.85 159.88,-167.85 153.88,-167.85"/>
<text xml:space="preserve" text-anchor="middle" x="96" y="-150.55" font-family="Helvetica,sans-Serif" font-size="14.00">10: c++ (if TEST)</text>
<text xml:space="preserve" text-anchor="middle" x="96" y="-134.8" font-family="Helvetica,sans-Serif" font-size="14.00">if (keys[i][j][k][l] == x)</text>
</g>
<!-- N9&#45;&gt;N10 -->
<g id="edge12" class="edge">
<title>N9&#45;&gt;N10</title>
<path fill="none" stroke="black" d="M98.11,-219.17C97.58,-213.57 97.06,-207.33 96.75,-201.6 96.36,-194.4 96.15,-186.64 96.03,-179.34"/>
<polygon fill="black" stroke="black" points="99.53,-179.54 95.93,-169.58 92.53,-179.61 99.53,-179.54"/>
<text xml:space="preserve" text-anchor="middle" x="108.38" y="-188.3" font-family="Helvetica,sans-Serif" font-size="14.00">true</text>
</g>
<!-- N13 -->
<g id="node13" class="node">
<title>N13</title>
<path fill="none" stroke="black" d="M233.88,-166.1C233.88,-166.1 196.12,-166.1 196.12,-166.1 190.12,-166.1 184.12,-160.1 184.12,-154.1 184.12,-154.1 184.12,-142.1 184.12,-142.1 184.12,-136.1 190.12,-130.1 196.12,-130.1 196.12,-130.1 233.88,-130.1 233.88,-130.1 239.88,-130.1 245.88,-136.1 245.88,-142.1 245.88,-142.1 245.88,-154.1 245.88,-154.1 245.88,-160.1 239.88,-166.1 233.88,-166.1"/>
<text xml:space="preserve" text-anchor="middle" x="215" y="-142.67" font-family="Helvetica,sans-Serif" font-size="14.00">13: k++</text>
</g>
<!-- N9&#45;&gt;N13 -->
<g id="edge13" class="edge">
<title>N9&#45;&gt;N13</title>
<path fill="none" stroke="black" d="M111.91,-219.57C119.95,-208.94 131.3,-195.49 143.5,-185.85 148.94,-181.55 160.94,-175.05 173.59,-168.7"/>
<polygon fill="black" stroke="black" points="174.97,-171.92 182.39,-164.36 171.88,-165.64 174.97,-171.92"/>
<text xml:space="preserve" text-anchor="middle" x="157.75" y="-188.3" font-family="Helvetica,sans-Serif" font-size="14.00">false</text>
</g>
<!-- N11 -->
<g id="node11" class="node">
<title>N11</title>
<path fill="none" stroke="black" d="M336.5,-76.6C336.5,-76.6 101.5,-76.6 101.5,-76.6 95.5,-76.6 89.5,-70.6 89.5,-64.6 89.5,-64.6 89.5,-52.6 89.5,-52.6 89.5,-46.6 95.5,-40.6 101.5,-40.6 101.5,-40.6 336.5,-40.6 336.5,-40.6 342.5,-40.6 348.5,-46.6 348.5,-52.6 348.5,-52.6 348.5,-64.6 348.5,-64.6 348.5,-70.6 342.5,-76.6 336.5,-76.6"/>
<text xml:space="preserve" text-anchor="middle" x="219" y="-53.17" font-family="Helvetica,sans-Serif" font-size="14.00">11: return answer[i][j][k][l] + keys[i][j][k][l];</text>
</g>
<!-- N10&#45;&gt;N11 -->
<g id="edge14" class="edge">
<title>N10&#45;&gt;N11</title>
<path fill="none" stroke="black" d="M122.99,-127.9C141.35,-114.84 165.76,-97.47 185.38,-83.52"/>
<polygon fill="black" stroke="black" points="187.22,-86.5 193.34,-77.85 183.16,-80.8 187.22,-86.5"/>
<text xml:space="preserve" text-anchor="middle" x="180.14" y="-97.05" font-family="Helvetica,sans-Serif" font-size="14.00">true</text>
</g>
<!-- N12 -->
<g id="node12" class="node">
<title>N12</title>
<path fill="none" stroke="black" d="M46,-76.6C46,-76.6 12,-76.6 12,-76.6 6,-76.6 0,-70.6 0,-64.6 0,-64.6 0,-52.6 0,-52.6 0,-46.6 6,-40.6 12,-40.6 12,-40.6 46,-40.6 46,-40.6 52,-40.6 58,-46.6 58,-52.6 58,-52.6 58,-64.6 58,-64.6 58,-70.6 52,-76.6 46,-76.6"/>
<text xml:space="preserve" text-anchor="middle" x="29" y="-53.17" font-family="Helvetica,sans-Serif" font-size="14.00">12: l++</text>
</g>
<!-- N10&#45;&gt;N12 -->
<g id="edge15" class="edge">
<title>N10&#45;&gt;N12</title>
<path fill="none" stroke="black" d="M75.38,-128.08C69.93,-122.6 64.25,-116.45 59.5,-110.35 53.79,-103.02 48.31,-94.54 43.61,-86.63"/>
<polygon fill="black" stroke="black" points="46.69,-84.96 38.68,-78.03 40.62,-88.45 46.69,-84.96"/>
<text xml:space="preserve" text-anchor="middle" x="73.75" y="-97.05" font-family="Helvetica,sans-Serif" font-size="14.00">false</text>
</g>
<!-- END -->
<!-- N11&#45;&gt;END -->
<!-- N12&#45;&gt;N9 -->
<g id="edge16" class="edge">
<title>N12&#45;&gt;N9</title>
<path fill="none" stroke="black" d="M21.64,-77.02C13.45,-99.22 3.08,-138.25 17,-167.85 26.4,-187.85 44.8,-204.03 61.89,-215.66"/>
<polygon fill="black" stroke="black" points="59.61,-218.35 69.91,-220.83 63.4,-212.47 59.61,-218.35"/>
</g>
<!-- N13&#45;&gt;N7 -->
<g id="edge17" class="edge">
<title>N13&#45;&gt;N7</title>
<path fill="none" stroke="black" d="M213.1,-166.54C208.52,-208.72 196.78,-316.59 191.13,-368.54"/>
<polygon fill="black" stroke="black" points="187.66,-368.07 190.06,-378.39 194.62,-368.83 187.66,-368.07"/>
</g>
<!-- N14&#45;&gt;N5 -->
<g id="edge18" class="edge">
<title>N14&#45;&gt;N5</title>
<path fill="none" stroke="black" d="M253.84,-328.91C255.88,-370.79 261.1,-477.91 263.61,-529.49"/>
<polygon fill="black" stroke="black" points="260.1,-529.44 264.08,-539.25 267.09,-529.1 260.1,-529.44"/>
</g>
<!-- N15&#45;&gt;N3 -->
<g id="edge19" class="edge">
<title>N15&#45;&gt;N3</title>
<path fill="none" stroke="black" d="M330.62,-489.67C332.29,-536.74 336.93,-667.4 338.99,-725.44"/>
<polygon fill="black" stroke="black" points="335.48,-725.28 339.34,-735.15 342.48,-725.03 335.48,-725.28"/>
</g>
<!-- N16&#45;&gt;END -->
</g>
</svg>
