<?xml version="1.0" encoding="UTF-8" standalone="no"?>
<!DOCTYPE svg PUBLIC "-//W3C//DTD SVG 1.1//EN"
 "http://www.w3.org/Graphics/SVG/1.1/DTD/svg11.dtd">
<!-- Generated by graphviz version 13.1.2 (20250808.2320)
 -->
<!-- Title: DFG_foo Pages: 1 -->
<svg width="638pt" height="260pt"
 viewBox="0.00 0.00 638.00 260.00" xmlns="http://www.w3.org/2000/svg" xmlns:xlink="http://www.w3.org/1999/xlink">
<g id="graph0" class="graph" transform="scale(1 1) rotate(0) translate(4 256)">
<title>DFG_foo</title>
<polygon fill="white" stroke="none" points="-4,4 -4,-256 634,-256 634,4 -4,4"/>
<!-- i -->
<g id="node1" class="node">
<title>i</title>
<ellipse fill="lightblue" stroke="black" cx="77" cy="-234" rx="27" ry="18"/>
<text xml:space="preserve" text-anchor="middle" x="77" y="-228.95" font-family="Times New Roman,serif" font-size="14.00">i</text>
</g>
<!-- op_inc_i -->
<g id="node8" class="node">
<title>op_inc_i</title>
<polygon fill="none" stroke="black" points="54,-180 0,-180 0,-144 54,-144 54,-180"/>
<text xml:space="preserve" text-anchor="middle" x="27" y="-156.95" font-family="Times New Roman,serif" font-size="14.00">i++</text>
</g>
<!-- i&#45;&gt;op_inc_i -->
<g id="edge1" class="edge">
<title>i&#45;&gt;op_inc_i</title>
<path fill="none" stroke="black" d="M61.33,-218.83C54.28,-210.5 46.22,-199.7 39.57,-189.82"/>
<polygon fill="black" stroke="black" points="42.66,-188.15 34.3,-181.64 36.78,-191.94 42.66,-188.15"/>
</g>
<!-- op_access_keys -->
<g id="node12" class="node">
<title>op_access_keys</title>
<polygon fill="none" stroke="black" points="342.38,-180 247.62,-180 247.62,-144 342.38,-144 342.38,-180"/>
<text xml:space="preserve" text-anchor="middle" x="295" y="-156.95" font-family="Times New Roman,serif" font-size="14.00">keys[i][j][k][l]</text>
</g>
<!-- i&#45;&gt;op_access_keys -->
<g id="edge9" class="edge">
<title>i&#45;&gt;op_access_keys</title>
<path fill="none" stroke="black" d="M101.16,-225.24C133.56,-214.84 192.12,-196.03 236.43,-181.81"/>
<polygon fill="black" stroke="black" points="237.47,-185.15 245.92,-178.76 235.33,-178.49 237.47,-185.15"/>
</g>
<!-- op_access_answer -->
<g id="node13" class="node">
<title>op_access_answer</title>
<polygon fill="none" stroke="black" points="475.12,-180 366.88,-180 366.88,-144 475.12,-144 475.12,-180"/>
<text xml:space="preserve" text-anchor="middle" x="421" y="-156.95" font-family="Times New Roman,serif" font-size="14.00">answer[i][j][k][l]</text>
</g>
<!-- i&#45;&gt;op_access_answer -->
<g id="edge14" class="edge">
<title>i&#45;&gt;op_access_answer</title>
<path fill="none" stroke="black" d="M102.46,-227.59C118.64,-224.19 140.03,-219.74 159,-216 244.18,-199.19 266.12,-198.25 351,-180 352.41,-179.7 353.83,-179.39 355.27,-179.07"/>
<polygon fill="black" stroke="black" points="355.96,-182.5 364.94,-176.88 354.42,-175.67 355.96,-182.5"/>
</g>
<!-- j -->
<g id="node2" class="node">
<title>j</title>
<ellipse fill="lightblue" stroke="black" cx="195" cy="-234" rx="27" ry="18"/>
<text xml:space="preserve" text-anchor="middle" x="195" y="-228.95" font-family="Times New Roman,serif" font-size="14.00">j</text>
</g>
<!-- op_inc_j -->
<g id="node9" class="node">
<title>op_inc_j</title>
<polygon fill="none" stroke="black" points="230,-180 176,-180 176,-144 230,-144 230,-180"/>
<text xml:space="preserve" text-anchor="middle" x="203" y="-156.95" font-family="Times New Roman,serif" font-size="14.00">j++</text>
</g>
<!-- j&#45;&gt;op_inc_j -->
<g id="edge3" class="edge">
<title>j&#45;&gt;op_inc_j</title>
<path fill="none" stroke="black" d="M191.06,-215.7C191.14,-208.32 191.91,-199.52 193.13,-191.25"/>
<polygon fill="black" stroke="black" points="196.55,-192.06 194.88,-181.59 189.66,-190.81 196.55,-192.06"/>
</g>
<!-- j&#45;&gt;op_access_keys -->
<g id="edge10" class="edge">
<title>j&#45;&gt;op_access_keys</title>
<path fill="none" stroke="black" d="M212.88,-220.49C226.22,-211.15 244.84,-198.11 260.98,-186.81"/>
<polygon fill="black" stroke="black" points="262.72,-189.87 268.9,-181.27 258.7,-184.14 262.72,-189.87"/>
</g>
<!-- j&#45;&gt;op_access_answer -->
<g id="edge15" class="edge">
<title>j&#45;&gt;op_access_answer</title>
<path fill="none" stroke="black" d="M216.06,-222.33C220.9,-220.08 226.08,-217.83 231,-216 253.9,-207.47 310.33,-191.97 355.78,-179.93"/>
<polygon fill="black" stroke="black" points="356.53,-183.36 365.31,-177.42 354.75,-176.59 356.53,-183.36"/>
</g>
<!-- k -->
<g id="node3" class="node">
<title>k</title>
<ellipse fill="lightblue" stroke="black" cx="531" cy="-234" rx="27" ry="18"/>
<text xml:space="preserve" text-anchor="middle" x="531" y="-228.95" font-family="Times New Roman,serif" font-size="14.00">k</text>
</g>
<!-- op_inc_k -->
<g id="node10" class="node">
<title>op_inc_k</title>
<polygon fill="none" stroke="black" points="558,-180 504,-180 504,-144 558,-144 558,-180"/>
<text xml:space="preserve" text-anchor="middle" x="531" y="-156.95" font-family="Times New Roman,serif" font-size="14.00">k++</text>
</g>
<!-- k&#45;&gt;op_inc_k -->
<g id="edge5" class="edge">
<title>k&#45;&gt;op_inc_k</title>
<path fill="none" stroke="black" d="M525.12,-216.05C524.34,-208.68 524.08,-199.84 524.35,-191.51"/>
<polygon fill="black" stroke="black" points="527.83,-191.99 524.99,-181.79 520.84,-191.54 527.83,-191.99"/>
</g>
<!-- k&#45;&gt;op_access_keys -->
<g id="edge11" class="edge">
<title>k&#45;&gt;op_access_keys</title>
<path fill="none" stroke="black" d="M509.96,-222.27C505.11,-220.02 499.94,-217.8 495,-216 435.84,-194.47 418.84,-196.2 358,-180 356.61,-179.63 355.21,-179.26 353.8,-178.88"/>
<polygon fill="black" stroke="black" points="354.83,-175.53 344.27,-176.33 353.02,-182.29 354.83,-175.53"/>
</g>
<!-- k&#45;&gt;op_access_answer -->
<g id="edge16" class="edge">
<title>k&#45;&gt;op_access_answer</title>
<path fill="none" stroke="black" d="M511.84,-220.81C496.99,-211.35 475.95,-197.97 457.87,-186.46"/>
<polygon fill="black" stroke="black" points="459.77,-183.53 449.46,-181.11 456.02,-189.43 459.77,-183.53"/>
</g>
<!-- l -->
<g id="node4" class="node">
<title>l</title>
<ellipse fill="lightblue" stroke="black" cx="603" cy="-234" rx="27" ry="18"/>
<text xml:space="preserve" text-anchor="middle" x="603" y="-228.95" font-family="Times New Roman,serif" font-size="14.00">l</text>
</g>
<!-- op_inc_l -->
<g id="node11" class="node">
<title>op_inc_l</title>
<polygon fill="none" stroke="black" points="630,-180 576,-180 576,-144 630,-144 630,-180"/>
<text xml:space="preserve" text-anchor="middle" x="603" y="-156.95" font-family="Times New Roman,serif" font-size="14.00">l++</text>
</g>
<!-- l&#45;&gt;op_inc_l -->
<g id="edge7" class="edge">
<title>l&#45;&gt;op_inc_l</title>
<path fill="none" stroke="black" d="M597.12,-216.05C596.34,-208.68 596.08,-199.84 596.35,-191.51"/>
<polygon fill="black" stroke="black" points="599.83,-191.99 596.99,-181.79 592.84,-191.54 599.83,-191.99"/>
</g>
<!-- l&#45;&gt;op_access_keys -->
<g id="edge12" class="edge">
<title>l&#45;&gt;op_access_keys</title>
<path fill="none" stroke="black" d="M582.45,-222.13C577.49,-219.84 572.14,-217.62 567,-216 477.12,-187.62 450.04,-200.3 358,-180 356.6,-179.69 355.18,-179.37 353.76,-179.04"/>
<polygon fill="black" stroke="black" points="354.71,-175.67 344.17,-176.73 353.07,-182.48 354.71,-175.67"/>
</g>
<!-- l&#45;&gt;op_access_answer -->
<g id="edge17" class="edge">
<title>l&#45;&gt;op_access_answer</title>
<path fill="none" stroke="black" d="M581.83,-222.6C576.99,-220.34 571.85,-218.02 567,-216 539.99,-204.75 509.65,-193.52 483.65,-184.3"/>
<polygon fill="black" stroke="black" points="484.82,-181.01 474.23,-180.99 482.5,-187.61 484.82,-181.01"/>
</g>
<!-- x -->
<g id="node5" class="node">
<title>x</title>
<ellipse fill="lightblue" stroke="black" cx="115" cy="-162" rx="43.16" ry="18"/>
<text xml:space="preserve" text-anchor="middle" x="115" y="-156.95" font-family="Times New Roman,serif" font-size="14.00">x (input)</text>
</g>
<!-- op_eq -->
<g id="node14" class="node">
<title>op_eq</title>
<polygon fill="none" stroke="black" points="259,-108 205,-108 205,-72 259,-72 259,-108"/>
<text xml:space="preserve" text-anchor="middle" x="232" y="-84.95" font-family="Times New Roman,serif" font-size="14.00">==</text>
</g>
<!-- x&#45;&gt;op_eq -->
<g id="edge20" class="edge">
<title>x&#45;&gt;op_eq</title>
<path fill="none" stroke="black" d="M138.96,-146.67C155.09,-137.01 176.69,-124.09 195.01,-113.13"/>
<polygon fill="black" stroke="black" points="196.71,-116.19 203.5,-108.05 193.12,-110.18 196.71,-116.19"/>
</g>
<!-- keys -->
<g id="node6" class="node">
<title>keys</title>
<ellipse fill="lightblue" stroke="black" cx="292" cy="-234" rx="52.38" ry="18"/>
<text xml:space="preserve" text-anchor="middle" x="292" y="-228.95" font-family="Times New Roman,serif" font-size="14.00">keys[][][][]</text>
</g>
<!-- keys&#45;&gt;op_access_keys -->
<g id="edge13" class="edge">
<title>keys&#45;&gt;op_access_keys</title>
<path fill="none" stroke="black" d="M292.74,-215.7C293.05,-208.41 293.43,-199.73 293.78,-191.54"/>
<polygon fill="black" stroke="black" points="297.27,-191.76 294.2,-181.62 290.28,-191.46 297.27,-191.76"/>
</g>
<!-- answer -->
<g id="node7" class="node">
<title>answer</title>
<ellipse fill="lightblue" stroke="black" cx="424" cy="-234" rx="61.59" ry="18"/>
<text xml:space="preserve" text-anchor="middle" x="424" y="-228.95" font-family="Times New Roman,serif" font-size="14.00">answer[][][][]</text>
</g>
<!-- answer&#45;&gt;op_access_answer -->
<g id="edge18" class="edge">
<title>answer&#45;&gt;op_access_answer</title>
<path fill="none" stroke="black" d="M423.26,-215.7C422.95,-208.41 422.57,-199.73 422.22,-191.54"/>
<polygon fill="black" stroke="black" points="425.72,-191.46 421.8,-181.62 418.73,-191.76 425.72,-191.46"/>
</g>
<!-- op_inc_i&#45;&gt;i -->
<g id="edge2" class="edge">
<title>op_inc_i&#45;&gt;i</title>
<path fill="none" stroke="black" d="M45.25,-180.28C51.73,-188.2 58.79,-197.77 64.69,-206.57"/>
<polygon fill="black" stroke="black" points="61.61,-208.25 69.96,-214.78 67.5,-204.47 61.61,-208.25"/>
</g>
<!-- op_inc_j&#45;&gt;j -->
<g id="edge4" class="edge">
<title>op_inc_j&#45;&gt;j</title>
<path fill="none" stroke="black" d="M206.94,-180.45C206.84,-187.93 206.06,-196.85 204.8,-205.2"/>
<polygon fill="black" stroke="black" points="201.38,-204.45 203.01,-214.92 208.26,-205.72 201.38,-204.45"/>
</g>
<!-- op_inc_k&#45;&gt;k -->
<g id="edge6" class="edge">
<title>op_inc_k&#45;&gt;k</title>
<path fill="none" stroke="black" d="M536.91,-180.28C537.67,-187.6 537.91,-196.34 537.64,-204.57"/>
<polygon fill="black" stroke="black" points="534.15,-204.33 536.98,-214.54 541.14,-204.8 534.15,-204.33"/>
</g>
<!-- op_inc_l&#45;&gt;l -->
<g id="edge8" class="edge">
<title>op_inc_l&#45;&gt;l</title>
<path fill="none" stroke="black" d="M608.91,-180.28C609.67,-187.6 609.91,-196.34 609.64,-204.57"/>
<polygon fill="black" stroke="black" points="606.15,-204.33 608.98,-214.54 613.14,-204.8 606.15,-204.33"/>
</g>
<!-- op_access_keys&#45;&gt;op_eq -->
<g id="edge19" class="edge">
<title>op_access_keys&#45;&gt;op_eq</title>
<path fill="none" stroke="black" d="M279.43,-143.7C272.03,-135.47 263.03,-125.48 254.88,-116.42"/>
<polygon fill="black" stroke="black" points="257.7,-114.32 248.41,-109.23 252.49,-119 257.7,-114.32"/>
</g>
<!-- op_add -->
<g id="node15" class="node">
<title>op_add</title>
<polygon fill="none" stroke="black" points="385,-108 331,-108 331,-72 385,-72 385,-108"/>
<text xml:space="preserve" text-anchor="middle" x="358" y="-84.95" font-family="Times New Roman,serif" font-size="14.00">+</text>
</g>
<!-- op_access_keys&#45;&gt;op_add -->
<g id="edge21" class="edge">
<title>op_access_keys&#45;&gt;op_add</title>
<path fill="none" stroke="black" d="M310.57,-143.7C317.97,-135.47 326.97,-125.48 335.12,-116.42"/>
<polygon fill="black" stroke="black" points="337.51,-119 341.59,-109.23 332.3,-114.32 337.51,-119"/>
</g>
<!-- op_access_answer&#45;&gt;op_add -->
<g id="edge22" class="edge">
<title>op_access_answer&#45;&gt;op_add</title>
<path fill="none" stroke="black" d="M405.43,-143.7C398.03,-135.47 389.03,-125.48 380.88,-116.42"/>
<polygon fill="black" stroke="black" points="383.7,-114.32 374.41,-109.23 378.49,-119 383.7,-114.32"/>
</g>
<!-- return_val -->
<g id="node16" class="node">
<title>return_val</title>
<ellipse fill="lightgreen" stroke="black" cx="358" cy="-18" rx="55.45" ry="18"/>
<text xml:space="preserve" text-anchor="middle" x="358" y="-12.95" font-family="Times New Roman,serif" font-size="14.00">return value</text>
</g>
<!-- op_add&#45;&gt;return_val -->
<g id="edge23" class="edge">
<title>op_add&#45;&gt;return_val</title>
<path fill="none" stroke="black" d="M358,-71.7C358,-64.41 358,-55.73 358,-47.54"/>
<polygon fill="black" stroke="black" points="361.5,-47.62 358,-37.62 354.5,-47.62 361.5,-47.62"/>
</g>
</g>
</svg>
