<?xml version="1.0" encoding="UTF-8" standalone="no"?>
<!DOCTYPE svg PUBLIC "-//W3C//DTD SVG 1.1//EN"
 "http://www.w3.org/Graphics/SVG/1.1/DTD/svg11.dtd">
<!-- Generated by graphviz version 13.1.2 (20250808.2320)
 -->
<!-- Title: Sum_DFG Pages: 1 -->
<svg width="585pt" height="404pt"
 viewBox="0.00 0.00 585.00 404.00" xmlns="http://www.w3.org/2000/svg" xmlns:xlink="http://www.w3.org/1999/xlink">
<g id="graph0" class="graph" transform="scale(1 1) rotate(0) translate(4 400)">
<title>Sum_DFG</title>
<polygon fill="white" stroke="none" points="-4,4 -4,-400 580.62,-400 580.62,4 -4,4"/>
<!-- Array_in -->
<g id="node1" class="node">
<title>Array_in</title>
<ellipse fill="lightblue" stroke="black" cx="236.75" cy="-306" rx="32.41" ry="18"/>
<text xml:space="preserve" text-anchor="middle" x="236.75" y="-300.95" font-family="Times New Roman,serif" font-size="14.00">Array</text>
</g>
<!-- cond_Array -->
<g id="node7" class="node">
<title>cond_Array</title>
<polygon fill="none" stroke="black" points="418.38,-252 265.12,-252 265.12,-216 418.38,-216 418.38,-252"/>
<text xml:space="preserve" text-anchor="middle" x="341.75" y="-228.95" font-family="Times New Roman,serif" font-size="14.00">Array[Outer][Inner] &lt; 0?</text>
</g>
<!-- Array_in&#45;&gt;cond_Array -->
<g id="edge1" class="edge">
<title>Array_in&#45;&gt;cond_Array</title>
<path fill="none" stroke="black" d="M257,-291.5C270.94,-282.2 289.85,-269.6 306.27,-258.65"/>
<polygon fill="black" stroke="black" points="307.95,-261.74 314.33,-253.28 304.07,-255.91 307.95,-261.74"/>
</g>
<!-- update_Ntotal -->
<g id="node8" class="node">
<title>update_Ntotal</title>
<polygon fill="none" stroke="black" points="379.62,-180 197.88,-180 197.88,-144 379.62,-144 379.62,-180"/>
<text xml:space="preserve" text-anchor="middle" x="288.75" y="-156.95" font-family="Times New Roman,serif" font-size="14.00">Ntotal += Array[Outer][Inner]</text>
</g>
<!-- Array_in&#45;&gt;update_Ntotal -->
<g id="edge2" class="edge">
<title>Array_in&#45;&gt;update_Ntotal</title>
<path fill="none" stroke="black" d="M238.63,-287.75C241.04,-269.43 246.11,-239.88 255.75,-216 259.34,-207.1 264.4,-198.01 269.48,-189.93"/>
<polygon fill="black" stroke="black" points="272.4,-191.86 274.98,-181.59 266.56,-188.01 272.4,-191.86"/>
</g>
<!-- update_Ptotal -->
<g id="node10" class="node">
<title>update_Ptotal</title>
<polygon fill="none" stroke="black" points="179.5,-180 0,-180 0,-144 179.5,-144 179.5,-180"/>
<text xml:space="preserve" text-anchor="middle" x="89.75" y="-156.95" font-family="Times New Roman,serif" font-size="14.00">Ptotal += Array[Outer][Inner]</text>
</g>
<!-- Array_in&#45;&gt;update_Ptotal -->
<g id="edge3" class="edge">
<title>Array_in&#45;&gt;update_Ptotal</title>
<path fill="none" stroke="black" d="M221.02,-289.8C195.83,-265.48 146.2,-217.53 115.7,-188.07"/>
<polygon fill="black" stroke="black" points="118.36,-185.77 108.74,-181.34 113.5,-190.8 118.36,-185.77"/>
</g>
<!-- MAXSIZE_in -->
<g id="node2" class="node">
<title>MAXSIZE_in</title>
<ellipse fill="lightblue" stroke="black" cx="284.75" cy="-378" rx="52.38" ry="18"/>
<text xml:space="preserve" text-anchor="middle" x="284.75" y="-372.95" font-family="Times New Roman,serif" font-size="14.00">MAXSIZE</text>
</g>
<!-- cond_Outer -->
<g id="node5" class="node">
<title>cond_Outer</title>
<polygon fill="none" stroke="black" points="157.38,-324 28.12,-324 28.12,-288 157.38,-288 157.38,-324"/>
<text xml:space="preserve" text-anchor="middle" x="92.75" y="-300.95" font-family="Times New Roman,serif" font-size="14.00">Outer &lt; MAXSIZE?</text>
</g>
<!-- MAXSIZE_in&#45;&gt;cond_Outer -->
<g id="edge4" class="edge">
<title>MAXSIZE_in&#45;&gt;cond_Outer</title>
<path fill="none" stroke="black" d="M249.98,-364.32C222.5,-354.31 183.54,-340.1 151.28,-328.34"/>
<polygon fill="black" stroke="black" points="152.64,-325.11 142.04,-324.97 150.24,-331.68 152.64,-325.11"/>
</g>
<!-- cond_Inner -->
<g id="node6" class="node">
<title>cond_Inner</title>
<polygon fill="none" stroke="black" points="462.25,-324 335.25,-324 335.25,-288 462.25,-288 462.25,-324"/>
<text xml:space="preserve" text-anchor="middle" x="398.75" y="-300.95" font-family="Times New Roman,serif" font-size="14.00">Inner &lt; MAXSIZE?</text>
</g>
<!-- MAXSIZE_in&#45;&gt;cond_Inner -->
<g id="edge5" class="edge">
<title>MAXSIZE_in&#45;&gt;cond_Inner</title>
<path fill="none" stroke="black" d="M309.49,-361.81C324.49,-352.6 343.93,-340.66 360.84,-330.28"/>
<polygon fill="black" stroke="black" points="362.47,-333.39 369.16,-325.17 358.81,-327.42 362.47,-333.39"/>
</g>
<!-- init_Outer -->
<g id="node3" class="node">
<title>init_Outer</title>
<polygon fill="none" stroke="black" points="127.38,-396 58.12,-396 58.12,-360 127.38,-360 127.38,-396"/>
<text xml:space="preserve" text-anchor="middle" x="92.75" y="-372.95" font-family="Times New Roman,serif" font-size="14.00">Outer = 0</text>
</g>
<!-- init_Outer&#45;&gt;cond_Outer -->
<g id="edge6" class="edge">
<title>init_Outer&#45;&gt;cond_Outer</title>
<path fill="none" stroke="black" d="M92.75,-359.7C92.75,-352.41 92.75,-343.73 92.75,-335.54"/>
<polygon fill="black" stroke="black" points="96.25,-335.62 92.75,-325.62 89.25,-335.62 96.25,-335.62"/>
</g>
<!-- init_Inner -->
<g id="node4" class="node">
<title>init_Inner</title>
<polygon fill="none" stroke="black" points="432.25,-396 365.25,-396 365.25,-360 432.25,-360 432.25,-396"/>
<text xml:space="preserve" text-anchor="middle" x="398.75" y="-372.95" font-family="Times New Roman,serif" font-size="14.00">Inner = 0</text>
</g>
<!-- init_Inner&#45;&gt;cond_Inner -->
<g id="edge11" class="edge">
<title>init_Inner&#45;&gt;cond_Inner</title>
<path fill="none" stroke="black" d="M398.75,-359.7C398.75,-352.41 398.75,-343.73 398.75,-335.54"/>
<polygon fill="black" stroke="black" points="402.25,-335.62 398.75,-325.62 395.25,-335.62 402.25,-335.62"/>
</g>
<!-- cond_Outer&#45;&gt;cond_Array -->
<g id="edge7" class="edge">
<title>cond_Outer&#45;&gt;cond_Array</title>
<path fill="none" stroke="black" d="M154.94,-287.52C189.53,-277.79 232.78,-265.64 268.94,-255.47"/>
<polygon fill="black" stroke="black" points="269.78,-258.87 278.46,-252.79 267.89,-252.13 269.78,-258.87"/>
</g>
<!-- cond_Outer&#45;&gt;update_Ntotal -->
<g id="edge8" class="edge">
<title>cond_Outer&#45;&gt;update_Ntotal</title>
<path fill="none" stroke="black" d="M116.78,-287.59C151.7,-262.29 216.58,-215.29 255.89,-186.8"/>
<polygon fill="black" stroke="black" points="257.56,-189.92 263.6,-181.22 253.45,-184.25 257.56,-189.92"/>
</g>
<!-- cond_Outer&#45;&gt;update_Ptotal -->
<g id="edge9" class="edge">
<title>cond_Outer&#45;&gt;update_Ptotal</title>
<path fill="none" stroke="black" d="M57.21,-287.71C43.51,-279.04 29.33,-267.13 21.75,-252 14.58,-237.7 14.73,-230.38 21.75,-216 27.33,-204.57 36.7,-194.89 46.73,-187.05"/>
<polygon fill="black" stroke="black" points="48.72,-189.93 54.8,-181.26 44.64,-184.25 48.72,-189.93"/>
</g>
<!-- inc_Outer -->
<g id="node13" class="node">
<title>inc_Outer</title>
<polygon fill="none" stroke="black" points="94.38,-252 31.12,-252 31.12,-216 94.38,-216 94.38,-252"/>
<text xml:space="preserve" text-anchor="middle" x="62.75" y="-228.95" font-family="Times New Roman,serif" font-size="14.00">Outer++</text>
</g>
<!-- cond_Outer&#45;&gt;inc_Outer -->
<g id="edge10" class="edge">
<title>cond_Outer&#45;&gt;inc_Outer</title>
<path fill="none" stroke="black" d="M79.42,-287.7C75.41,-280.15 71.3,-271.12 68,-262.68"/>
<polygon fill="black" stroke="black" points="71.38,-261.75 64.7,-253.53 64.8,-264.12 71.38,-261.75"/>
</g>
<!-- cond_Inner&#45;&gt;cond_Array -->
<g id="edge12" class="edge">
<title>cond_Inner&#45;&gt;cond_Array</title>
<path fill="none" stroke="black" d="M384.66,-287.7C378.1,-279.64 370.16,-269.89 362.91,-260.98"/>
<polygon fill="black" stroke="black" points="365.66,-258.82 356.63,-253.28 360.23,-263.24 365.66,-258.82"/>
</g>
<!-- cond_Inner&#45;&gt;update_Ntotal -->
<g id="edge13" class="edge">
<title>cond_Inner&#45;&gt;update_Ntotal</title>
<path fill="none" stroke="black" d="M412.9,-287.63C426.52,-268.67 442.96,-238.08 427.75,-216 418.4,-202.43 405.09,-192.34 390.36,-184.83"/>
<polygon fill="black" stroke="black" points="391.89,-181.68 381.34,-180.66 388.95,-188.03 391.89,-181.68"/>
</g>
<!-- cond_Inner&#45;&gt;update_Ptotal -->
<g id="edge14" class="edge">
<title>cond_Inner&#45;&gt;update_Ptotal</title>
<path fill="none" stroke="black" d="M346.43,-287.55C319.05,-277.93 285.2,-265.28 255.75,-252 211.17,-231.9 162.04,-204.92 128.87,-185.95"/>
<polygon fill="black" stroke="black" points="130.84,-183.04 120.43,-181.09 127.35,-189.11 130.84,-183.04"/>
</g>
<!-- inc_Inner -->
<g id="node12" class="node">
<title>inc_Inner</title>
<polygon fill="none" stroke="black" points="536.25,-252 475.25,-252 475.25,-216 536.25,-216 536.25,-252"/>
<text xml:space="preserve" text-anchor="middle" x="505.75" y="-228.95" font-family="Times New Roman,serif" font-size="14.00">Inner++</text>
</g>
<!-- cond_Inner&#45;&gt;inc_Inner -->
<g id="edge15" class="edge">
<title>cond_Inner&#45;&gt;inc_Inner</title>
<path fill="none" stroke="black" d="M419.54,-287.52C432.65,-278.33 449.88,-266.97 465.53,-257.17"/>
<polygon fill="black" stroke="black" points="467.07,-260.33 473.74,-252.1 463.39,-254.38 467.07,-260.33"/>
</g>
<!-- cond_Array&#45;&gt;update_Ntotal -->
<g id="edge16" class="edge">
<title>cond_Array&#45;&gt;update_Ntotal</title>
<path fill="none" stroke="black" d="M328.65,-215.7C322.62,-207.73 315.33,-198.1 308.64,-189.26"/>
<polygon fill="black" stroke="black" points="311.44,-187.17 302.61,-181.31 305.86,-191.4 311.44,-187.17"/>
</g>
<!-- update_Ncnt -->
<g id="node9" class="node">
<title>update_Ncnt</title>
<polygon fill="none" stroke="black" points="456.12,-180 397.38,-180 397.38,-144 456.12,-144 456.12,-180"/>
<text xml:space="preserve" text-anchor="middle" x="426.75" y="-156.95" font-family="Times New Roman,serif" font-size="14.00">Ncnt++</text>
</g>
<!-- cond_Array&#45;&gt;update_Ncnt -->
<g id="edge17" class="edge">
<title>cond_Array&#45;&gt;update_Ncnt</title>
<path fill="none" stroke="black" d="M362.76,-215.7C373.08,-207.2 385.69,-196.81 396.98,-187.51"/>
<polygon fill="black" stroke="black" points="399.02,-190.37 404.52,-181.31 394.57,-184.96 399.02,-190.37"/>
</g>
<!-- cond_Array&#45;&gt;update_Ptotal -->
<g id="edge18" class="edge">
<title>cond_Array&#45;&gt;update_Ptotal</title>
<path fill="none" stroke="black" d="M278.81,-215.52C243.65,-205.75 199.66,-193.53 162.96,-183.34"/>
<polygon fill="black" stroke="black" points="164.35,-180.09 153.78,-180.79 162.48,-186.84 164.35,-180.09"/>
</g>
<!-- update_Pcnt -->
<g id="node11" class="node">
<title>update_Pcnt</title>
<polygon fill="none" stroke="black" points="545,-180 488.5,-180 488.5,-144 545,-144 545,-180"/>
<text xml:space="preserve" text-anchor="middle" x="516.75" y="-156.95" font-family="Times New Roman,serif" font-size="14.00">Pcnt++</text>
</g>
<!-- cond_Array&#45;&gt;update_Pcnt -->
<g id="edge19" class="edge">
<title>cond_Array&#45;&gt;update_Pcnt</title>
<path fill="none" stroke="black" d="M385.46,-215.52C413.79,-204.18 450.37,-189.55 477.73,-178.61"/>
<polygon fill="black" stroke="black" points="478.7,-181.99 486.68,-175.03 476.1,-175.49 478.7,-181.99"/>
</g>
<!-- assign_Negtotal -->
<g id="node16" class="node">
<title>assign_Negtotal</title>
<polygon fill="none" stroke="black" points="344.75,-108 232.75,-108 232.75,-72 344.75,-72 344.75,-108"/>
<text xml:space="preserve" text-anchor="middle" x="288.75" y="-84.95" font-family="Times New Roman,serif" font-size="14.00">Negtotal = Ntotal</text>
</g>
<!-- update_Ntotal&#45;&gt;assign_Negtotal -->
<g id="edge20" class="edge">
<title>update_Ntotal&#45;&gt;assign_Negtotal</title>
<path fill="none" stroke="black" d="M288.75,-143.7C288.75,-136.41 288.75,-127.73 288.75,-119.54"/>
<polygon fill="black" stroke="black" points="292.25,-119.62 288.75,-109.62 285.25,-119.62 292.25,-119.62"/>
</g>
<!-- assign_Negcnt -->
<g id="node17" class="node">
<title>assign_Negcnt</title>
<polygon fill="none" stroke="black" points="467.25,-108 370.25,-108 370.25,-72 467.25,-72 467.25,-108"/>
<text xml:space="preserve" text-anchor="middle" x="418.75" y="-84.95" font-family="Times New Roman,serif" font-size="14.00">Negcnt = Ncnt</text>
</g>
<!-- update_Ncnt&#45;&gt;assign_Negcnt -->
<g id="edge21" class="edge">
<title>update_Ncnt&#45;&gt;assign_Negcnt</title>
<path fill="none" stroke="black" d="M424.77,-143.7C423.94,-136.41 422.95,-127.73 422.01,-119.54"/>
<polygon fill="black" stroke="black" points="425.49,-119.15 420.88,-109.61 418.53,-119.94 425.49,-119.15"/>
</g>
<!-- assign_Postotal -->
<g id="node14" class="node">
<title>assign_Postotal</title>
<polygon fill="none" stroke="black" points="143.12,-108 36.38,-108 36.38,-72 143.12,-72 143.12,-108"/>
<text xml:space="preserve" text-anchor="middle" x="89.75" y="-84.95" font-family="Times New Roman,serif" font-size="14.00">Postotal = Ptotal</text>
</g>
<!-- update_Ptotal&#45;&gt;assign_Postotal -->
<g id="edge22" class="edge">
<title>update_Ptotal&#45;&gt;assign_Postotal</title>
<path fill="none" stroke="black" d="M89.75,-143.7C89.75,-136.41 89.75,-127.73 89.75,-119.54"/>
<polygon fill="black" stroke="black" points="93.25,-119.62 89.75,-109.62 86.25,-119.62 93.25,-119.62"/>
</g>
<!-- assign_Poscnt -->
<g id="node15" class="node">
<title>assign_Poscnt</title>
<polygon fill="none" stroke="black" points="576.62,-108 484.88,-108 484.88,-72 576.62,-72 576.62,-108"/>
<text xml:space="preserve" text-anchor="middle" x="530.75" y="-84.95" font-family="Times New Roman,serif" font-size="14.00">Poscnt = Pcnt</text>
</g>
<!-- update_Pcnt&#45;&gt;assign_Poscnt -->
<g id="edge23" class="edge">
<title>update_Pcnt&#45;&gt;assign_Poscnt</title>
<path fill="none" stroke="black" d="M520.21,-143.7C521.69,-136.32 523.45,-127.52 525.1,-119.25"/>
<polygon fill="black" stroke="black" points="528.5,-120.08 527.03,-109.59 521.64,-118.71 528.5,-120.08"/>
</g>
<!-- inc_Inner&#45;&gt;cond_Inner -->
<g id="edge24" class="edge">
<title>inc_Inner&#45;&gt;cond_Inner</title>
<path fill="none" stroke="black" d="M485.28,-252.26C472.73,-261.06 456.34,-271.9 441.16,-281.46"/>
<polygon fill="black" stroke="black" points="439.34,-278.46 432.69,-286.72 443.03,-284.41 439.34,-278.46"/>
</g>
<!-- inc_Outer&#45;&gt;cond_Outer -->
<g id="edge25" class="edge">
<title>inc_Outer&#45;&gt;cond_Outer</title>
<path fill="none" stroke="black" d="M75.98,-252.1C79.99,-259.62 84.1,-268.65 87.42,-277.1"/>
<polygon fill="black" stroke="black" points="84.04,-278.06 90.74,-286.27 90.63,-275.68 84.04,-278.06"/>
</g>
<!-- Postotal_out -->
<g id="node18" class="node">
<title>Postotal_out</title>
<ellipse fill="lightgreen" stroke="black" cx="89.75" cy="-18" rx="40.6" ry="18"/>
<text xml:space="preserve" text-anchor="middle" x="89.75" y="-12.95" font-family="Times New Roman,serif" font-size="14.00">Postotal</text>
</g>
<!-- assign_Postotal&#45;&gt;Postotal_out -->
<g id="edge26" class="edge">
<title>assign_Postotal&#45;&gt;Postotal_out</title>
<path fill="none" stroke="black" d="M89.75,-71.7C89.75,-64.41 89.75,-55.73 89.75,-47.54"/>
<polygon fill="black" stroke="black" points="93.25,-47.62 89.75,-37.62 86.25,-47.62 93.25,-47.62"/>
</g>
<!-- Poscnt_out -->
<g id="node19" class="node">
<title>Poscnt_out</title>
<ellipse fill="lightgreen" stroke="black" cx="530.75" cy="-18" rx="35.49" ry="18"/>
<text xml:space="preserve" text-anchor="middle" x="530.75" y="-12.95" font-family="Times New Roman,serif" font-size="14.00">Poscnt</text>
</g>
<!-- assign_Poscnt&#45;&gt;Poscnt_out -->
<g id="edge27" class="edge">
<title>assign_Poscnt&#45;&gt;Poscnt_out</title>
<path fill="none" stroke="black" d="M530.75,-71.7C530.75,-64.41 530.75,-55.73 530.75,-47.54"/>
<polygon fill="black" stroke="black" points="534.25,-47.62 530.75,-37.62 527.25,-47.62 534.25,-47.62"/>
</g>
<!-- Negtotal_out -->
<g id="node20" class="node">
<title>Negtotal_out</title>
<ellipse fill="lightgreen" stroke="black" cx="288.75" cy="-18" rx="42.65" ry="18"/>
<text xml:space="preserve" text-anchor="middle" x="288.75" y="-12.95" font-family="Times New Roman,serif" font-size="14.00">Negtotal</text>
</g>
<!-- assign_Negtotal&#45;&gt;Negtotal_out -->
<g id="edge28" class="edge">
<title>assign_Negtotal&#45;&gt;Negtotal_out</title>
<path fill="none" stroke="black" d="M288.75,-71.7C288.75,-64.41 288.75,-55.73 288.75,-47.54"/>
<polygon fill="black" stroke="black" points="292.25,-47.62 288.75,-37.62 285.25,-47.62 292.25,-47.62"/>
</g>
<!-- Negcnt_out -->
<g id="node21" class="node">
<title>Negcnt_out</title>
<ellipse fill="lightgreen" stroke="black" cx="418.75" cy="-18" rx="37.53" ry="18"/>
<text xml:space="preserve" text-anchor="middle" x="418.75" y="-12.95" font-family="Times New Roman,serif" font-size="14.00">Negcnt</text>
</g>
<!-- assign_Negcnt&#45;&gt;Negcnt_out -->
<g id="edge29" class="edge">
<title>assign_Negcnt&#45;&gt;Negcnt_out</title>
<path fill="none" stroke="black" d="M418.75,-71.7C418.75,-64.41 418.75,-55.73 418.75,-47.54"/>
<polygon fill="black" stroke="black" points="422.25,-47.62 418.75,-37.62 415.25,-47.62 422.25,-47.62"/>
</g>
</g>
</svg>
