<?xml version="1.0" encoding="UTF-8" standalone="no"?>
<!DOCTYPE svg PUBLIC "-//W3C//DTD SVG 1.1//EN"
 "http://www.w3.org/Graphics/SVG/1.1/DTD/svg11.dtd">
<!-- Generated by graphviz version 13.1.2 (20250808.2320)
 -->
<!-- Title: fib_DFG Pages: 1 -->
<svg width="490pt" height="648pt"
 viewBox="0.00 0.00 490.00 648.00" xmlns="http://www.w3.org/2000/svg" xmlns:xlink="http://www.w3.org/1999/xlink">
<g id="graph0" class="graph" transform="scale(1 1) rotate(0) translate(4 644)">
<title>fib_DFG</title>
<polygon fill="white" stroke="none" points="-4,4 -4,-644 486.32,-644 486.32,4 -4,4"/>
<!-- n_in -->
<g id="node1" class="node">
<title>n_in</title>
<ellipse fill="lightblue" stroke="black" cx="62.5" cy="-372" rx="27" ry="18"/>
<text xml:space="preserve" text-anchor="middle" x="62.5" y="-366.95" font-family="Times New Roman,serif" font-size="14.00">n</text>
</g>
<!-- op_cond -->
<g id="node8" class="node">
<title>op_cond</title>
<polygon fill="none" stroke="black" points="117.5,-301.5 0,-283.5 117.5,-265.5 235,-283.5 117.5,-301.5"/>
<text xml:space="preserve" text-anchor="middle" x="117.5" y="-278.45" font-family="Times New Roman,serif" font-size="14.00">i &lt;= 30 &amp;&amp; i &lt;= n</text>
</g>
<!-- n_in&#45;&gt;op_cond -->
<g id="edge9" class="edge">
<title>n_in&#45;&gt;op_cond</title>
<path fill="none" stroke="black" d="M72.59,-355.13C80.65,-342.45 92.1,-324.44 101.43,-309.77"/>
<polygon fill="black" stroke="black" points="104.25,-311.86 106.66,-301.54 98.34,-308.1 104.25,-311.86"/>
<text xml:space="preserve" text-anchor="middle" x="98.3" y="-322.7" font-family="Times New Roman,serif" font-size="14.00">n</text>
</g>
<!-- const_1 -->
<g id="node2" class="node">
<title>const_1</title>
<ellipse fill="lightblue" stroke="black" cx="255.5" cy="-622" rx="27" ry="18"/>
<text xml:space="preserve" text-anchor="middle" x="255.5" y="-616.95" font-family="Times New Roman,serif" font-size="14.00">1</text>
</g>
<!-- op_init_Fnew -->
<g id="node5" class="node">
<title>op_init_Fnew</title>
<polygon fill="none" stroke="black" points="289.75,-567 221.25,-567 221.25,-531 289.75,-531 289.75,-567"/>
<text xml:space="preserve" text-anchor="middle" x="255.5" y="-543.95" font-family="Times New Roman,serif" font-size="14.00">Fnew = 1</text>
</g>
<!-- const_1&#45;&gt;op_init_Fnew -->
<g id="edge1" class="edge">
<title>const_1&#45;&gt;op_init_Fnew</title>
<path fill="none" stroke="black" d="M255.5,-603.81C255.5,-596.23 255.5,-587.1 255.5,-578.54"/>
<polygon fill="black" stroke="black" points="259,-578.54 255.5,-568.54 252,-578.54 259,-578.54"/>
</g>
<!-- const_0 -->
<g id="node3" class="node">
<title>const_0</title>
<ellipse fill="lightblue" stroke="black" cx="312.5" cy="-460.5" rx="27" ry="18"/>
<text xml:space="preserve" text-anchor="middle" x="312.5" y="-455.45" font-family="Times New Roman,serif" font-size="14.00">0</text>
</g>
<!-- op_init_Fold -->
<g id="node6" class="node">
<title>op_init_Fold</title>
<polygon fill="none" stroke="black" points="344.12,-390 280.87,-390 280.87,-354 344.12,-354 344.12,-390"/>
<text xml:space="preserve" text-anchor="middle" x="312.5" y="-366.95" font-family="Times New Roman,serif" font-size="14.00">Fold = 0</text>
</g>
<!-- const_0&#45;&gt;op_init_Fold -->
<g id="edge4" class="edge">
<title>const_0&#45;&gt;op_init_Fold</title>
<path fill="none" stroke="black" d="M312.5,-442.41C312.5,-430.76 312.5,-415.05 312.5,-401.52"/>
<polygon fill="black" stroke="black" points="316,-401.86 312.5,-391.86 309,-401.86 316,-401.86"/>
</g>
<!-- const_2 -->
<g id="node4" class="node">
<title>const_2</title>
<ellipse fill="lightblue" stroke="black" cx="153.5" cy="-622" rx="27" ry="18"/>
<text xml:space="preserve" text-anchor="middle" x="153.5" y="-616.95" font-family="Times New Roman,serif" font-size="14.00">2</text>
</g>
<!-- op_init_i -->
<g id="node7" class="node">
<title>op_init_i</title>
<polygon fill="none" stroke="black" points="180.5,-567 126.5,-567 126.5,-531 180.5,-531 180.5,-567"/>
<text xml:space="preserve" text-anchor="middle" x="153.5" y="-543.95" font-family="Times New Roman,serif" font-size="14.00">i = 2</text>
</g>
<!-- const_2&#45;&gt;op_init_i -->
<g id="edge6" class="edge">
<title>const_2&#45;&gt;op_init_i</title>
<path fill="none" stroke="black" d="M153.5,-603.81C153.5,-596.23 153.5,-587.1 153.5,-578.54"/>
<polygon fill="black" stroke="black" points="157,-578.54 153.5,-568.54 150,-578.54 157,-578.54"/>
</g>
<!-- op_temp -->
<g id="node9" class="node">
<title>op_temp</title>
<polygon fill="none" stroke="black" points="449.25,-478.5 359.75,-478.5 359.75,-442.5 449.25,-442.5 449.25,-478.5"/>
<text xml:space="preserve" text-anchor="middle" x="404.5" y="-455.45" font-family="Times New Roman,serif" font-size="14.00">temp = Fnew</text>
</g>
<!-- op_init_Fnew&#45;&gt;op_temp -->
<g id="edge2" class="edge">
<title>op_init_Fnew&#45;&gt;op_temp</title>
<path fill="none" stroke="black" d="M285.29,-530.7C308.06,-517.49 339.66,-499.14 364.61,-484.66"/>
<polygon fill="black" stroke="black" points="366.3,-487.72 373.19,-479.67 362.79,-481.67 366.3,-487.72"/>
<text xml:space="preserve" text-anchor="middle" x="358.34" y="-499.7" font-family="Times New Roman,serif" font-size="14.00">Fnew</text>
</g>
<!-- op_add -->
<g id="node10" class="node">
<title>op_add</title>
<polygon fill="none" stroke="black" points="391.75,-301.5 305.25,-301.5 305.25,-265.5 391.75,-265.5 391.75,-301.5"/>
<text xml:space="preserve" text-anchor="middle" x="348.5" y="-278.45" font-family="Times New Roman,serif" font-size="14.00">Fnew + Fold</text>
</g>
<!-- op_init_Fnew&#45;&gt;op_add -->
<g id="edge3" class="edge">
<title>op_init_Fnew&#45;&gt;op_add</title>
<path fill="none" stroke="black" d="M252.85,-530.54C248.32,-495.13 242.2,-413.22 271.5,-354 280.43,-335.96 296.24,-320.42 311.22,-308.64"/>
<polygon fill="black" stroke="black" points="313.25,-311.49 319.17,-302.7 309.06,-305.88 313.25,-311.49"/>
<text xml:space="preserve" text-anchor="middle" x="268.97" y="-411.2" font-family="Times New Roman,serif" font-size="14.00">Fnew</text>
</g>
<!-- op_init_Fold&#45;&gt;op_add -->
<g id="edge5" class="edge">
<title>op_init_Fold&#45;&gt;op_add</title>
<path fill="none" stroke="black" d="M319.61,-353.91C324.56,-342.02 331.26,-325.91 336.97,-312.2"/>
<polygon fill="black" stroke="black" points="340.08,-313.82 340.7,-303.25 333.62,-311.14 340.08,-313.82"/>
<text xml:space="preserve" text-anchor="middle" x="346.1" y="-322.7" font-family="Times New Roman,serif" font-size="14.00">Fold</text>
</g>
<!-- op_init_i&#45;&gt;op_cond -->
<g id="edge7" class="edge">
<title>op_init_i&#45;&gt;op_cond</title>
<path fill="none" stroke="black" d="M148.54,-530.72C144.71,-516.74 139.56,-496.5 136.5,-478.5 126.55,-420.1 121.32,-350.86 119.01,-312.91"/>
<polygon fill="black" stroke="black" points="122.52,-313.03 118.45,-303.25 115.54,-313.43 122.52,-313.03"/>
<text xml:space="preserve" text-anchor="middle" x="130.56" y="-411.2" font-family="Times New Roman,serif" font-size="14.00">i</text>
</g>
<!-- op_inc -->
<g id="node13" class="node">
<title>op_inc</title>
<polygon fill="none" stroke="black" points="199.5,-478.5 145.5,-478.5 145.5,-442.5 199.5,-442.5 199.5,-478.5"/>
<text xml:space="preserve" text-anchor="middle" x="172.5" y="-455.45" font-family="Times New Roman,serif" font-size="14.00">i + 1</text>
</g>
<!-- op_init_i&#45;&gt;op_inc -->
<g id="edge8" class="edge">
<title>op_init_i&#45;&gt;op_inc</title>
<path fill="none" stroke="black" d="M157.25,-530.91C159.81,-519.26 163.26,-503.55 166.23,-490.02"/>
<polygon fill="black" stroke="black" points="169.64,-490.85 168.36,-480.33 162.8,-489.34 169.64,-490.85"/>
<text xml:space="preserve" text-anchor="middle" x="166.57" y="-499.7" font-family="Times New Roman,serif" font-size="14.00">i</text>
</g>
<!-- op_assign_Fold -->
<g id="node12" class="node">
<title>op_assign_Fold</title>
<polygon fill="none" stroke="black" points="446.62,-390 362.37,-390 362.37,-354 446.62,-354 446.62,-390"/>
<text xml:space="preserve" text-anchor="middle" x="404.5" y="-366.95" font-family="Times New Roman,serif" font-size="14.00">Fold = temp</text>
</g>
<!-- op_temp&#45;&gt;op_assign_Fold -->
<g id="edge10" class="edge">
<title>op_temp&#45;&gt;op_assign_Fold</title>
<path fill="none" stroke="black" d="M404.5,-442.41C404.5,-430.76 404.5,-415.05 404.5,-401.52"/>
<polygon fill="black" stroke="black" points="408,-401.86 404.5,-391.86 401,-401.86 408,-401.86"/>
<text xml:space="preserve" text-anchor="middle" x="418.37" y="-411.2" font-family="Times New Roman,serif" font-size="14.00">temp</text>
</g>
<!-- op_assign_Fnew -->
<g id="node11" class="node">
<title>op_assign_Fnew</title>
<polygon fill="none" stroke="black" points="440.37,-213 348.62,-213 348.62,-177 440.37,-177 440.37,-213"/>
<text xml:space="preserve" text-anchor="middle" x="394.5" y="-189.95" font-family="Times New Roman,serif" font-size="14.00">Fnew = result</text>
</g>
<!-- op_add&#45;&gt;op_assign_Fnew -->
<g id="edge11" class="edge">
<title>op_add&#45;&gt;op_assign_Fnew</title>
<path fill="none" stroke="black" d="M345.14,-265.39C343.94,-254.92 343.97,-241.56 349.25,-231 351.03,-227.43 353.38,-224.11 356.05,-221.06"/>
<polygon fill="black" stroke="black" points="358.4,-223.66 363.22,-214.23 353.57,-218.6 358.4,-223.66"/>
<text xml:space="preserve" text-anchor="middle" x="360.87" y="-234.2" font-family="Times New Roman,serif" font-size="14.00">sum</text>
</g>
<!-- op_assign_Fnew&#45;&gt;op_temp -->
<g id="edge12" class="edge">
<title>op_assign_Fnew&#45;&gt;op_temp</title>
<path fill="none" stroke="black" d="M405.37,-213.45C408.55,-218.95 411.87,-225.12 414.5,-231 438.02,-283.61 446.27,-297.12 455.5,-354 458.06,-369.79 459.48,-374.5 455.5,-390 451.14,-406.95 446.7,-410.27 436.5,-424.5 434.34,-427.51 431.95,-430.54 429.48,-433.5"/>
<polygon fill="black" stroke="black" points="426.95,-431.08 422.97,-440.9 432.2,-435.7 426.95,-431.08"/>
<text xml:space="preserve" text-anchor="middle" x="467.32" y="-322.7" font-family="Times New Roman,serif" font-size="14.00">Fnew</text>
</g>
<!-- op_assign_Fnew&#45;&gt;op_add -->
<g id="edge13" class="edge">
<title>op_assign_Fnew&#45;&gt;op_add</title>
<path fill="none" stroke="black" d="M388.18,-213.1C384.16,-223.32 378.58,-236.42 372.5,-247.5 371.02,-250.19 369.39,-252.94 367.69,-255.64"/>
<polygon fill="black" stroke="black" points="364.84,-253.59 362.24,-263.86 370.68,-257.46 364.84,-253.59"/>
<text xml:space="preserve" text-anchor="middle" x="395.04" y="-234.2" font-family="Times New Roman,serif" font-size="14.00">Fnew</text>
</g>
<!-- op_ans -->
<g id="node15" class="node">
<title>op_ans</title>
<polygon fill="none" stroke="black" points="434.37,-124.5 354.62,-124.5 354.62,-88.5 434.37,-88.5 434.37,-124.5"/>
<text xml:space="preserve" text-anchor="middle" x="394.5" y="-101.45" font-family="Times New Roman,serif" font-size="14.00">ans = Fnew</text>
</g>
<!-- op_assign_Fnew&#45;&gt;op_ans -->
<g id="edge18" class="edge">
<title>op_assign_Fnew&#45;&gt;op_ans</title>
<path fill="none" stroke="black" d="M394.5,-176.91C394.5,-165.26 394.5,-149.55 394.5,-136.02"/>
<polygon fill="black" stroke="black" points="398,-136.36 394.5,-126.36 391,-136.36 398,-136.36"/>
<text xml:space="preserve" text-anchor="middle" x="409.5" y="-145.7" font-family="Times New Roman,serif" font-size="14.00">Fnew</text>
</g>
<!-- op_assign_Fold&#45;&gt;op_add -->
<g id="edge14" class="edge">
<title>op_assign_Fold&#45;&gt;op_add</title>
<path fill="none" stroke="black" d="M393.43,-353.91C385.59,-341.79 374.89,-325.27 365.91,-311.39"/>
<polygon fill="black" stroke="black" points="368.93,-309.61 360.55,-303.12 363.05,-313.42 368.93,-309.61"/>
<text xml:space="preserve" text-anchor="middle" x="393.89" y="-322.7" font-family="Times New Roman,serif" font-size="14.00">Fold</text>
</g>
<!-- op_assign_i -->
<g id="node14" class="node">
<title>op_assign_i</title>
<polygon fill="none" stroke="black" points="211.25,-390 145.75,-390 145.75,-354 211.25,-354 211.25,-390"/>
<text xml:space="preserve" text-anchor="middle" x="178.5" y="-366.95" font-family="Times New Roman,serif" font-size="14.00">i = result</text>
</g>
<!-- op_inc&#45;&gt;op_assign_i -->
<g id="edge15" class="edge">
<title>op_inc&#45;&gt;op_assign_i</title>
<path fill="none" stroke="black" d="M164.12,-442.32C160.29,-432.31 157.16,-419.43 160,-408 160.6,-405.56 161.41,-403.1 162.36,-400.69"/>
<polygon fill="black" stroke="black" points="165.42,-402.4 166.49,-391.86 159.08,-399.43 165.42,-402.4"/>
<text xml:space="preserve" text-anchor="middle" x="168.25" y="-411.2" font-family="Times New Roman,serif" font-size="14.00">inc</text>
</g>
<!-- op_assign_i&#45;&gt;op_cond -->
<g id="edge16" class="edge">
<title>op_assign_i&#45;&gt;op_cond</title>
<path fill="none" stroke="black" d="M166.45,-353.91C157.48,-341.19 145.09,-323.63 135.03,-309.36"/>
<polygon fill="black" stroke="black" points="137.99,-307.49 129.37,-301.34 132.27,-311.53 137.99,-307.49"/>
<text xml:space="preserve" text-anchor="middle" x="155.34" y="-322.7" font-family="Times New Roman,serif" font-size="14.00">i</text>
</g>
<!-- op_assign_i&#45;&gt;op_inc -->
<g id="edge17" class="edge">
<title>op_assign_i&#45;&gt;op_inc</title>
<path fill="none" stroke="black" d="M178.15,-390.19C177.87,-400.21 177.37,-413.08 176.5,-424.5 176.34,-426.56 176.15,-428.69 175.95,-430.82"/>
<polygon fill="black" stroke="black" points="172.49,-430.26 174.91,-440.57 179.45,-431 172.49,-430.26"/>
<text xml:space="preserve" text-anchor="middle" x="179.32" y="-411.2" font-family="Times New Roman,serif" font-size="14.00">i</text>
</g>
<!-- op_return -->
<g id="node16" class="node">
<title>op_return</title>
<polygon fill="none" stroke="black" points="429.5,-36 359.5,-36 359.5,0 429.5,0 429.5,-36"/>
<text xml:space="preserve" text-anchor="middle" x="394.5" y="-12.95" font-family="Times New Roman,serif" font-size="14.00">return ans</text>
</g>
<!-- op_ans&#45;&gt;op_return -->
<g id="edge19" class="edge">
<title>op_ans&#45;&gt;op_return</title>
<path fill="none" stroke="black" d="M394.5,-88.41C394.5,-76.76 394.5,-61.05 394.5,-47.52"/>
<polygon fill="black" stroke="black" points="398,-47.86 394.5,-37.86 391,-47.86 398,-47.86"/>
<text xml:space="preserve" text-anchor="middle" x="403.5" y="-57.2" font-family="Times New Roman,serif" font-size="14.00">ans</text>
</g>
</g>
</svg>
