<?xml version="1.0" encoding="UTF-8" standalone="no"?>
<!DOCTYPE svg PUBLIC "-//W3C//DTD SVG 1.1//EN"
 "http://www.w3.org/Graphics/SVG/1.1/DTD/svg11.dtd">
<!-- Generated by graphviz version 13.1.2 (20250808.2320)
 -->
<!-- Title: overall_CFG Pages: 1 -->
<svg width="323pt" height="536pt"
 viewBox="0.00 0.00 323.00 536.00" xmlns="http://www.w3.org/2000/svg" xmlns:xlink="http://www.w3.org/1999/xlink">
<g id="graph0" class="graph" transform="scale(1 1) rotate(0) translate(4 532)">
<title>overall_CFG</title>
<polygon fill="white" stroke="none" points="-4,4 -4,-532 319.25,-532 319.25,4 -4,4"/>
<!-- M1 -->
<g id="node1" class="node">
<title>M1</title>
<path fill="none" stroke="black" d="M195.88,-528C195.88,-528 147.62,-528 147.62,-528 141.62,-528 135.62,-522 135.62,-516 135.62,-516 135.62,-504 135.62,-504 135.62,-498 141.62,-492 147.62,-492 147.62,-492 195.88,-492 195.88,-492 201.88,-492 207.88,-498 207.88,-504 207.88,-504 207.88,-516 207.88,-516 207.88,-522 201.88,-528 195.88,-528"/>
<text xml:space="preserve" text-anchor="middle" x="171.75" y="-504.57" font-family="Helvetica,sans-Serif" font-size="14.00">M1: int a;</text>
</g>
<!-- M2 -->
<g id="node2" class="node">
<title>M2</title>
<path fill="none" stroke="black" d="M202.25,-455C202.25,-455 141.25,-455 141.25,-455 135.25,-455 129.25,-449 129.25,-443 129.25,-443 129.25,-431 129.25,-431 129.25,-425 135.25,-419 141.25,-419 141.25,-419 202.25,-419 202.25,-419 208.25,-419 214.25,-425 214.25,-431 214.25,-431 214.25,-443 214.25,-443 214.25,-449 208.25,-455 202.25,-455"/>
<text xml:space="preserve" text-anchor="middle" x="171.75" y="-431.57" font-family="Helvetica,sans-Serif" font-size="14.00">M2: a = 30;</text>
</g>
<!-- M1&#45;&gt;M2 -->
<g id="edge1" class="edge">
<title>M1&#45;&gt;M2</title>
<path fill="none" stroke="black" d="M171.75,-491.81C171.75,-484.23 171.75,-475.1 171.75,-466.54"/>
<polygon fill="black" stroke="black" points="175.25,-466.54 171.75,-456.54 168.25,-466.54 175.25,-466.54"/>
</g>
<!-- M3 -->
<g id="node3" class="node">
<title>M3</title>
<path fill="none" stroke="black" d="M210.5,-382C210.5,-382 133,-382 133,-382 127,-382 121,-376 121,-370 121,-370 121,-358 121,-358 121,-352 127,-346 133,-346 133,-346 210.5,-346 210.5,-346 216.5,-346 222.5,-352 222.5,-358 222.5,-358 222.5,-370 222.5,-370 222.5,-376 216.5,-382 210.5,-382"/>
<text xml:space="preserve" text-anchor="middle" x="171.75" y="-358.57" font-family="Helvetica,sans-Serif" font-size="14.00">M3: call fib(a);</text>
</g>
<!-- M2&#45;&gt;M3 -->
<g id="edge2" class="edge">
<title>M2&#45;&gt;M3</title>
<path fill="none" stroke="black" d="M171.75,-418.81C171.75,-411.23 171.75,-402.1 171.75,-393.54"/>
<polygon fill="black" stroke="black" points="175.25,-393.54 171.75,-383.54 168.25,-393.54 175.25,-393.54"/>
</g>
<!-- N1 -->
<g id="node5" class="node">
<title>N1</title>
<path fill="none" stroke="black" d="M210.12,-309C210.12,-309 133.38,-309 133.38,-309 127.38,-309 121.38,-303 121.38,-297 121.38,-297 121.38,-265.75 121.38,-265.75 121.38,-259.75 127.38,-253.75 133.38,-253.75 133.38,-253.75 210.12,-253.75 210.12,-253.75 216.12,-253.75 222.12,-259.75 222.12,-265.75 222.12,-265.75 222.12,-297 222.12,-297 222.12,-303 216.12,-309 210.12,-309"/>
<text xml:space="preserve" text-anchor="middle" x="171.75" y="-291.7" font-family="Helvetica,sans-Serif" font-size="14.00">N1: Fnew = 1;</text>
<text xml:space="preserve" text-anchor="middle" x="171.75" y="-275.95" font-family="Helvetica,sans-Serif" font-size="14.00">Fold = 0;</text>
<text xml:space="preserve" text-anchor="middle" x="171.75" y="-260.2" font-family="Helvetica,sans-Serif" font-size="14.00">i = 2;</text>
</g>
<!-- M3&#45;&gt;N1 -->
<g id="edge3" class="edge">
<title>M3&#45;&gt;N1</title>
<path fill="none" stroke="black" d="M171.75,-345.51C171.75,-338.16 171.75,-329.32 171.75,-320.6"/>
<polygon fill="black" stroke="black" points="175.25,-320.87 171.75,-310.87 168.25,-320.87 175.25,-320.87"/>
</g>
<!-- M4 -->
<g id="node4" class="node">
<title>M4</title>
<path fill="none" stroke="black" d="M292.38,-36C292.38,-36 223.12,-36 223.12,-36 217.12,-36 211.12,-30 211.12,-24 211.12,-24 211.12,-12 211.12,-12 211.12,-6 217.12,0 223.12,0 223.12,0 292.38,0 292.38,0 298.38,0 304.38,-6 304.38,-12 304.38,-12 304.38,-24 304.38,-24 304.38,-30 298.38,-36 292.38,-36"/>
<text xml:space="preserve" text-anchor="middle" x="257.75" y="-12.57" font-family="Helvetica,sans-Serif" font-size="14.00">M4: return a;</text>
</g>
<!-- N2 -->
<g id="node6" class="node">
<title>N2</title>
<path fill="none" stroke="black" d="M240.88,-216.75C240.88,-216.75 102.62,-216.75 102.62,-216.75 96.62,-216.75 90.62,-210.75 90.62,-204.75 90.62,-204.75 90.62,-192.75 90.62,-192.75 90.62,-186.75 96.62,-180.75 102.62,-180.75 102.62,-180.75 240.88,-180.75 240.88,-180.75 246.88,-180.75 252.88,-186.75 252.88,-192.75 252.88,-192.75 252.88,-204.75 252.88,-204.75 252.88,-210.75 246.88,-216.75 240.88,-216.75"/>
<text xml:space="preserve" text-anchor="middle" x="171.75" y="-193.32" font-family="Helvetica,sans-Serif" font-size="14.00">N2: if (i &lt;= 30 &amp;&amp; i &lt;= n)</text>
</g>
<!-- N1&#45;&gt;N2 -->
<g id="edge4" class="edge">
<title>N1&#45;&gt;N2</title>
<path fill="none" stroke="black" d="M171.75,-253.53C171.75,-245.4 171.75,-236.45 171.75,-228.23"/>
<polygon fill="black" stroke="black" points="175.25,-228.38 171.75,-218.38 168.25,-228.38 175.25,-228.38"/>
</g>
<!-- N3 -->
<g id="node7" class="node">
<title>N3</title>
<path fill="none" stroke="black" d="M131.5,-128.25C131.5,-128.25 12,-128.25 12,-128.25 6,-128.25 0,-122.25 0,-116.25 0,-116.25 0,-85 0,-85 0,-79 6,-73 12,-73 12,-73 131.5,-73 131.5,-73 137.5,-73 143.5,-79 143.5,-85 143.5,-85 143.5,-116.25 143.5,-116.25 143.5,-122.25 137.5,-128.25 131.5,-128.25"/>
<text xml:space="preserve" text-anchor="middle" x="71.75" y="-110.95" font-family="Helvetica,sans-Serif" font-size="14.00">N3: temp = Fnew;</text>
<text xml:space="preserve" text-anchor="middle" x="71.75" y="-95.2" font-family="Helvetica,sans-Serif" font-size="14.00">Fnew = Fnew + Fold;</text>
<text xml:space="preserve" text-anchor="middle" x="71.75" y="-79.45" font-family="Helvetica,sans-Serif" font-size="14.00">Fold = temp;</text>
</g>
<!-- N2&#45;&gt;N3 -->
<g id="edge5" class="edge">
<title>N2&#45;&gt;N3</title>
<path fill="none" stroke="black" d="M153.87,-180.56C141.05,-168.24 123.34,-151.22 107.65,-136.14"/>
<polygon fill="black" stroke="black" points="110.39,-133.92 100.76,-129.51 105.54,-138.96 110.39,-133.92"/>
<text xml:space="preserve" text-anchor="middle" x="144.15" y="-149.45" font-family="Times New Roman,serif" font-size="14.00">true</text>
</g>
<!-- N5 -->
<g id="node9" class="node">
<title>N5</title>
<path fill="none" stroke="black" d="M303.25,-120.38C303.25,-120.38 212.25,-120.38 212.25,-120.38 206.25,-120.38 200.25,-114.38 200.25,-108.38 200.25,-108.38 200.25,-92.88 200.25,-92.88 200.25,-86.88 206.25,-80.88 212.25,-80.88 212.25,-80.88 303.25,-80.88 303.25,-80.88 309.25,-80.88 315.25,-86.88 315.25,-92.88 315.25,-92.88 315.25,-108.38 315.25,-108.38 315.25,-114.38 309.25,-120.38 303.25,-120.38"/>
<text xml:space="preserve" text-anchor="middle" x="257.75" y="-103.08" font-family="Helvetica,sans-Serif" font-size="14.00">N5: ans = Fnew;</text>
<text xml:space="preserve" text-anchor="middle" x="257.75" y="-87.33" font-family="Helvetica,sans-Serif" font-size="14.00">return ans;</text>
</g>
<!-- N2&#45;&gt;N5 -->
<g id="edge6" class="edge">
<title>N2&#45;&gt;N5</title>
<path fill="none" stroke="black" d="M187.13,-180.56C199.96,-166.22 218.49,-145.5 233.35,-128.89"/>
<polygon fill="black" stroke="black" points="235.67,-131.55 239.73,-121.77 230.45,-126.88 235.67,-131.55"/>
<text xml:space="preserve" text-anchor="middle" x="230.08" y="-149.45" font-family="Times New Roman,serif" font-size="14.00">false</text>
</g>
<!-- N4 -->
<g id="node8" class="node">
<title>N4</title>
<path fill="none" stroke="black" d="M154.75,-36C154.75,-36 114.75,-36 114.75,-36 108.75,-36 102.75,-30 102.75,-24 102.75,-24 102.75,-12 102.75,-12 102.75,-6 108.75,0 114.75,0 114.75,0 154.75,0 154.75,0 160.75,0 166.75,-6 166.75,-12 166.75,-12 166.75,-24 166.75,-24 166.75,-30 160.75,-36 154.75,-36"/>
<text xml:space="preserve" text-anchor="middle" x="134.75" y="-12.57" font-family="Helvetica,sans-Serif" font-size="14.00">N4: i++;</text>
</g>
<!-- N3&#45;&gt;N4 -->
<g id="edge7" class="edge">
<title>N3&#45;&gt;N4</title>
<path fill="none" stroke="black" d="M92.73,-72.78C99.74,-63.8 107.54,-53.82 114.5,-44.92"/>
<polygon fill="black" stroke="black" points="117.04,-47.34 120.44,-37.31 111.53,-43.03 117.04,-47.34"/>
</g>
<!-- N4&#45;&gt;N2 -->
<g id="edge8" class="edge">
<title>N4&#45;&gt;N2</title>
<path fill="none" stroke="black" d="M141.35,-36.29C145.15,-46.78 149.74,-60.51 152.75,-73 160.6,-105.58 165.85,-143.77 168.81,-169.23"/>
<polygon fill="black" stroke="black" points="165.33,-169.57 169.91,-179.12 172.28,-168.79 165.33,-169.57"/>
</g>
<!-- N5&#45;&gt;M4 -->
<g id="edge9" class="edge">
<title>N5&#45;&gt;M4</title>
<path fill="none" stroke="black" d="M257.75,-80.52C257.75,-70.67 257.75,-58.46 257.75,-47.52"/>
<polygon fill="black" stroke="black" points="261.25,-47.83 257.75,-37.83 254.25,-47.83 261.25,-47.83"/>
</g>
</g>
</svg>
