<?xml version="1.0" encoding="UTF-8" standalone="no"?>
<!DOCTYPE svg PUBLIC "-//W3C//DTD SVG 1.1//EN"
 "http://www.w3.org/Graphics/SVG/1.1/DTD/svg11.dtd">
<!-- Generated by graphviz version 13.1.2 (20250808.2320)
 -->
<!-- Title: encode_CDFG Pages: 1 -->
<svg width="402pt" height="2260pt"
 viewBox="0.00 0.00 402.00 2260.00" xmlns="http://www.w3.org/2000/svg" xmlns:xlink="http://www.w3.org/1999/xlink">
<g id="graph0" class="graph" transform="scale(1 1) rotate(0) translate(4 2256)">
<title>encode_CDFG</title>
<polygon fill="white" stroke="none" points="-4,4 -4,-2256 397.52,-2256 397.52,4 -4,4"/>
<!-- start -->
<g id="node1" class="node">
<title>start</title>
<polygon fill="none" stroke="black" points="327.52,-2252 154.77,-2252 154.77,-2216 327.52,-2216 327.52,-2252"/>
<text xml:space="preserve" text-anchor="middle" x="241.15" y="-2228.95" font-family="Courier,monospace" font-size="14.00">Inicio: Declaracoes</text>
</g>
<!-- loop1 -->
<g id="node2" class="node">
<title>loop1</title>
<polygon fill="none" stroke="black" points="356.4,-2179 125.9,-2179 125.9,-2143 356.4,-2143 356.4,-2179"/>
<text xml:space="preserve" text-anchor="middle" x="241.15" y="-2155.95" font-family="Courier,monospace" font-size="14.00">Loop: xa/xb (10 iteracoes)</text>
</g>
<!-- start&#45;&gt;loop1 -->
<g id="edge1" class="edge">
<title>start&#45;&gt;loop1</title>
<path fill="none" stroke="black" d="M241.15,-2215.81C241.15,-2208.23 241.15,-2199.1 241.15,-2190.54"/>
<polygon fill="black" stroke="black" points="244.65,-2190.54 241.15,-2180.54 237.65,-2190.54 244.65,-2190.54"/>
</g>
<!-- post_loop -->
<g id="node3" class="node">
<title>post_loop</title>
<polygon fill="none" stroke="black" points="372.9,-2106 109.4,-2106 109.4,-2070 372.9,-2070 372.9,-2106"/>
<text xml:space="preserve" text-anchor="middle" x="241.15" y="-2082.95" font-family="Courier,monospace" font-size="14.00">Pos&#45;loop: xa += ...; xb += ...</text>
</g>
<!-- loop1&#45;&gt;post_loop -->
<g id="edge2" class="edge">
<title>loop1&#45;&gt;post_loop</title>
<path fill="none" stroke="black" d="M241.15,-2142.81C241.15,-2135.23 241.15,-2126.1 241.15,-2117.54"/>
<polygon fill="black" stroke="black" points="244.65,-2117.54 241.15,-2107.54 237.65,-2117.54 244.65,-2117.54"/>
</g>
<!-- update_tqmf -->
<g id="node4" class="node">
<title>update_tqmf</title>
<polygon fill="none" stroke="black" points="302.77,-2033 179.52,-2033 179.52,-1997 302.77,-1997 302.77,-2033"/>
<text xml:space="preserve" text-anchor="middle" x="241.15" y="-2009.95" font-family="Courier,monospace" font-size="14.00">Atualiza tqmf</text>
</g>
<!-- post_loop&#45;&gt;update_tqmf -->
<g id="edge3" class="edge">
<title>post_loop&#45;&gt;update_tqmf</title>
<path fill="none" stroke="black" d="M241.15,-2069.81C241.15,-2062.23 241.15,-2053.1 241.15,-2044.54"/>
<polygon fill="black" stroke="black" points="244.65,-2044.54 241.15,-2034.54 237.65,-2044.54 244.65,-2044.54"/>
</g>
<!-- calc_xl_xh -->
<g id="node5" class="node">
<title>calc_xl_xh</title>
<polygon fill="none" stroke="black" points="315.15,-1960 167.15,-1960 167.15,-1919 315.15,-1919 315.15,-1960"/>
<text xml:space="preserve" text-anchor="middle" x="241.15" y="-1942.7" font-family="Courier,monospace" font-size="14.00">xl = (xa+xb)&gt;&gt;15</text>
<text xml:space="preserve" text-anchor="middle" x="241.15" y="-1926.2" font-family="Courier,monospace" font-size="14.00">xh = (xa&#45;xb)&gt;&gt;15</text>
</g>
<!-- update_tqmf&#45;&gt;calc_xl_xh -->
<g id="edge4" class="edge">
<title>update_tqmf&#45;&gt;calc_xl_xh</title>
<path fill="none" stroke="black" d="M241.15,-1996.58C241.15,-1989.2 241.15,-1980.35 241.15,-1971.9"/>
<polygon fill="black" stroke="black" points="244.65,-1971.9 241.15,-1961.9 237.65,-1971.9 244.65,-1971.9"/>
</g>
<!-- calc_szl -->
<g id="node6" class="node">
<title>calc_szl</title>
<polygon fill="none" stroke="black" points="319.27,-1882 163.02,-1882 163.02,-1846 319.27,-1846 319.27,-1882"/>
<text xml:space="preserve" text-anchor="middle" x="241.15" y="-1858.95" font-family="Courier,monospace" font-size="14.00">szl = filtez(...)</text>
</g>
<!-- calc_xl_xh&#45;&gt;calc_szl -->
<g id="edge5" class="edge">
<title>calc_xl_xh&#45;&gt;calc_szl</title>
<path fill="none" stroke="black" d="M241.15,-1918.8C241.15,-1911.06 241.15,-1902.01 241.15,-1893.57"/>
<polygon fill="black" stroke="black" points="244.65,-1893.76 241.15,-1883.76 237.65,-1893.76 244.65,-1893.76"/>
</g>
<!-- calc_spl -->
<g id="node7" class="node">
<title>calc_spl</title>
<polygon fill="none" stroke="black" points="319.27,-1809 163.02,-1809 163.02,-1773 319.27,-1773 319.27,-1809"/>
<text xml:space="preserve" text-anchor="middle" x="241.15" y="-1785.95" font-family="Courier,monospace" font-size="14.00">spl = filtep(...)</text>
</g>
<!-- calc_szl&#45;&gt;calc_spl -->
<g id="edge6" class="edge">
<title>calc_szl&#45;&gt;calc_spl</title>
<path fill="none" stroke="black" d="M241.15,-1845.81C241.15,-1838.23 241.15,-1829.1 241.15,-1820.54"/>
<polygon fill="black" stroke="black" points="244.65,-1820.54 241.15,-1810.54 237.65,-1820.54 244.65,-1820.54"/>
</g>
<!-- calc_sl_el -->
<g id="node8" class="node">
<title>calc_sl_el</title>
<polygon fill="none" stroke="black" points="298.65,-1736 183.65,-1736 183.65,-1695 298.65,-1695 298.65,-1736"/>
<text xml:space="preserve" text-anchor="middle" x="241.15" y="-1718.7" font-family="Courier,monospace" font-size="14.00">sl = szl+spl</text>
<text xml:space="preserve" text-anchor="middle" x="241.15" y="-1702.2" font-family="Courier,monospace" font-size="14.00">el = xl&#45;sl</text>
</g>
<!-- calc_spl&#45;&gt;calc_sl_el -->
<g id="edge7" class="edge">
<title>calc_spl&#45;&gt;calc_sl_el</title>
<path fill="none" stroke="black" d="M241.15,-1772.58C241.15,-1765.2 241.15,-1756.35 241.15,-1747.9"/>
<polygon fill="black" stroke="black" points="244.65,-1747.9 241.15,-1737.9 237.65,-1747.9 244.65,-1747.9"/>
</g>
<!-- quant_il -->
<g id="node9" class="node">
<title>quant_il</title>
<polygon fill="none" stroke="black" points="335.77,-1658 146.52,-1658 146.52,-1622 335.77,-1622 335.77,-1658"/>
<text xml:space="preserve" text-anchor="middle" x="241.15" y="-1634.95" font-family="Courier,monospace" font-size="14.00">il = quantl(el, detl)</text>
</g>
<!-- calc_sl_el&#45;&gt;quant_il -->
<g id="edge8" class="edge">
<title>calc_sl_el&#45;&gt;quant_il</title>
<path fill="none" stroke="black" d="M241.15,-1694.8C241.15,-1687.06 241.15,-1678.01 241.15,-1669.57"/>
<polygon fill="black" stroke="black" points="244.65,-1669.76 241.15,-1659.76 237.65,-1669.76 244.65,-1669.76"/>
</g>
<!-- calc_dlt -->
<g id="node10" class="node">
<title>calc_dlt</title>
<polygon fill="none" stroke="black" points="393.52,-1585 88.77,-1585 88.77,-1549 393.52,-1549 393.52,-1585"/>
<text xml:space="preserve" text-anchor="middle" x="241.15" y="-1561.95" font-family="Courier,monospace" font-size="14.00">dlt = (detl * qq4_table[il&gt;&gt;2])&gt;&gt;15</text>
</g>
<!-- quant_il&#45;&gt;calc_dlt -->
<g id="edge9" class="edge">
<title>quant_il&#45;&gt;calc_dlt</title>
<path fill="none" stroke="black" d="M241.15,-1621.81C241.15,-1614.23 241.15,-1605.1 241.15,-1596.54"/>
<polygon fill="black" stroke="black" points="244.65,-1596.54 241.15,-1586.54 237.65,-1596.54 244.65,-1596.54"/>
</g>
<!-- update_nbl_detl -->
<g id="node11" class="node">
<title>update_nbl_detl</title>
<polygon fill="none" stroke="black" points="335.77,-1512 146.52,-1512 146.52,-1471 335.77,-1471 335.77,-1512"/>
<text xml:space="preserve" text-anchor="middle" x="241.15" y="-1494.7" font-family="Courier,monospace" font-size="14.00">nbl = logscl(il, nbl)</text>
<text xml:space="preserve" text-anchor="middle" x="241.15" y="-1478.2" font-family="Courier,monospace" font-size="14.00">detl = scalel(nbl,8)</text>
</g>
<!-- calc_dlt&#45;&gt;update_nbl_detl -->
<g id="edge10" class="edge">
<title>calc_dlt&#45;&gt;update_nbl_detl</title>
<path fill="none" stroke="black" d="M241.15,-1548.58C241.15,-1541.2 241.15,-1532.35 241.15,-1523.9"/>
<polygon fill="black" stroke="black" points="244.65,-1523.9 241.15,-1513.9 237.65,-1523.9 244.65,-1523.9"/>
</g>
<!-- calc_plt -->
<g id="node12" class="node">
<title>calc_plt</title>
<polygon fill="none" stroke="black" points="311.02,-1434 171.27,-1434 171.27,-1398 311.02,-1398 311.02,-1434"/>
<text xml:space="preserve" text-anchor="middle" x="241.15" y="-1410.95" font-family="Courier,monospace" font-size="14.00">plt = dlt + szl</text>
</g>
<!-- update_nbl_detl&#45;&gt;calc_plt -->
<g id="edge11" class="edge">
<title>update_nbl_detl&#45;&gt;calc_plt</title>
<path fill="none" stroke="black" d="M241.15,-1470.8C241.15,-1463.06 241.15,-1454.01 241.15,-1445.57"/>
<polygon fill="black" stroke="black" points="244.65,-1445.76 241.15,-1435.76 237.65,-1445.76 244.65,-1445.76"/>
</g>
<!-- upzero_dlt -->
<g id="node13" class="node">
<title>upzero_dlt</title>
<polygon fill="none" stroke="black" points="315.15,-1361 167.15,-1361 167.15,-1325 315.15,-1325 315.15,-1361"/>
<text xml:space="preserve" text-anchor="middle" x="241.15" y="-1337.95" font-family="Courier,monospace" font-size="14.00">upzero(dlt, ...)</text>
</g>
<!-- calc_plt&#45;&gt;upzero_dlt -->
<g id="edge12" class="edge">
<title>calc_plt&#45;&gt;upzero_dlt</title>
<path fill="none" stroke="black" d="M241.15,-1397.81C241.15,-1390.23 241.15,-1381.1 241.15,-1372.54"/>
<polygon fill="black" stroke="black" points="244.65,-1372.54 241.15,-1362.54 237.65,-1372.54 244.65,-1372.54"/>
</g>
<!-- update_al -->
<g id="node14" class="node">
<title>update_al</title>
<polygon fill="none" stroke="black" points="319.27,-1288 163.02,-1288 163.02,-1247 319.27,-1247 319.27,-1288"/>
<text xml:space="preserve" text-anchor="middle" x="241.15" y="-1270.7" font-family="Courier,monospace" font-size="14.00">al2 = uppol2(...)</text>
<text xml:space="preserve" text-anchor="middle" x="241.15" y="-1254.2" font-family="Courier,monospace" font-size="14.00">al1 = uppol1(...)</text>
</g>
<!-- upzero_dlt&#45;&gt;update_al -->
<g id="edge13" class="edge">
<title>upzero_dlt&#45;&gt;update_al</title>
<path fill="none" stroke="black" d="M241.15,-1324.58C241.15,-1317.2 241.15,-1308.35 241.15,-1299.9"/>
<polygon fill="black" stroke="black" points="244.65,-1299.9 241.15,-1289.9 237.65,-1299.9 244.65,-1299.9"/>
</g>
<!-- update_rlt_plt -->
<g id="node15" class="node">
<title>update_rlt_plt</title>
<polygon fill="none" stroke="black" points="327.52,-1210 154.77,-1210 154.77,-1152.5 327.52,-1152.5 327.52,-1210"/>
<text xml:space="preserve" text-anchor="middle" x="241.15" y="-1192.7" font-family="Courier,monospace" font-size="14.00">rlt = sl+dlt</text>
<text xml:space="preserve" text-anchor="middle" x="241.15" y="-1176.2" font-family="Courier,monospace" font-size="14.00">rlt2=rlt1, rlt1=rlt</text>
<text xml:space="preserve" text-anchor="middle" x="241.15" y="-1159.7" font-family="Courier,monospace" font-size="14.00">plt2=plt1, plt1=plt</text>
</g>
<!-- update_al&#45;&gt;update_rlt_plt -->
<g id="edge14" class="edge">
<title>update_al&#45;&gt;update_rlt_plt</title>
<path fill="none" stroke="black" d="M241.15,-1246.53C241.15,-1239.11 241.15,-1230.4 241.15,-1221.83"/>
<polygon fill="black" stroke="black" points="244.65,-1221.87 241.15,-1211.87 237.65,-1221.87 244.65,-1221.87"/>
</g>
<!-- calc_szh_sph_sh -->
<g id="node16" class="node">
<title>calc_szh_sph_sh</title>
<polygon fill="none" stroke="black" points="311.02,-1115.5 171.27,-1115.5 171.27,-1058 311.02,-1058 311.02,-1115.5"/>
<text xml:space="preserve" text-anchor="middle" x="241.15" y="-1098.2" font-family="Courier,monospace" font-size="14.00">szh=filtez(...)</text>
<text xml:space="preserve" text-anchor="middle" x="241.15" y="-1081.7" font-family="Courier,monospace" font-size="14.00">sph=filtep(...)</text>
<text xml:space="preserve" text-anchor="middle" x="241.15" y="-1065.2" font-family="Courier,monospace" font-size="14.00">sh=sph+szh</text>
</g>
<!-- update_rlt_plt&#45;&gt;calc_szh_sph_sh -->
<g id="edge15" class="edge">
<title>update_rlt_plt&#45;&gt;calc_szh_sph_sh</title>
<path fill="none" stroke="black" d="M241.15,-1152.25C241.15,-1144.44 241.15,-1135.81 241.15,-1127.46"/>
<polygon fill="black" stroke="black" points="244.65,-1127.49 241.15,-1117.49 237.65,-1127.49 244.65,-1127.49"/>
</g>
<!-- calc_eh -->
<g id="node17" class="node">
<title>calc_eh</title>
<polygon fill="none" stroke="black" points="298.65,-1021 183.65,-1021 183.65,-985 298.65,-985 298.65,-1021"/>
<text xml:space="preserve" text-anchor="middle" x="241.15" y="-997.95" font-family="Courier,monospace" font-size="14.00">eh = xh &#45; sh</text>
</g>
<!-- calc_szh_sph_sh&#45;&gt;calc_eh -->
<g id="edge16" class="edge">
<title>calc_szh_sph_sh&#45;&gt;calc_eh</title>
<path fill="none" stroke="black" d="M241.15,-1057.62C241.15,-1049.64 241.15,-1040.95 241.15,-1032.93"/>
<polygon fill="black" stroke="black" points="244.65,-1032.97 241.15,-1022.97 237.65,-1032.97 244.65,-1032.97"/>
</g>
<!-- cond_eh_ge_0 -->
<g id="node18" class="node">
<title>cond_eh_ge_0</title>
<polygon fill="none" stroke="black" points="208.15,-932.5 129.01,-914.5 208.15,-896.5 287.28,-914.5 208.15,-932.5"/>
<text xml:space="preserve" text-anchor="middle" x="208.15" y="-909.45" font-family="Courier,monospace" font-size="14.00">eh &gt;= 0?</text>
</g>
<!-- calc_eh&#45;&gt;cond_eh_ge_0 -->
<g id="edge17" class="edge">
<title>calc_eh&#45;&gt;cond_eh_ge_0</title>
<path fill="none" stroke="black" d="M230.66,-984.58C227.63,-979.08 224.51,-972.9 222.15,-967 219.09,-959.37 216.47,-950.85 214.35,-942.97"/>
<polygon fill="black" stroke="black" points="217.81,-942.37 211.98,-933.52 211.02,-944.07 217.81,-942.37"/>
</g>
<!-- calc_eh&#45;&gt;cond_eh_ge_0 -->
<g id="edge32" class="edge">
<title>calc_eh&#45;&gt;cond_eh_ge_0</title>
<path fill="none" stroke="black" d="M234.63,-984.91C229.94,-972.63 223.54,-955.85 218.2,-941.87"/>
<polygon fill="black" stroke="black" points="221.58,-940.9 214.75,-932.8 215.04,-943.39 221.58,-940.9"/>
<text xml:space="preserve" text-anchor="middle" x="233.98" y="-953.7" font-family="Times New Roman,serif" font-size="14.00">eh</text>
</g>
<!-- cond_abs_eh_gt_decis -->
<g id="node22" class="node">
<title>cond_abs_eh_gt_decis</title>
<polygon fill="none" stroke="black" points="176.15,-682.5 57.2,-664.5 176.15,-646.5 295.09,-664.5 176.15,-682.5"/>
<text xml:space="preserve" text-anchor="middle" x="176.15" y="-659.45" font-family="Courier,monospace" font-size="14.00">|eh| &gt; decis?</text>
</g>
<!-- calc_eh&#45;&gt;cond_abs_eh_gt_decis -->
<g id="edge33" class="edge">
<title>calc_eh&#45;&gt;cond_abs_eh_gt_decis</title>
<path fill="none" stroke="black" d="M269.12,-984.73C290.08,-969.42 315.15,-944.95 315.15,-915.5 315.15,-915.5 315.15,-915.5 315.15,-752 315.15,-712.68 274.55,-690.59 237.24,-678.6"/>
<polygon fill="black" stroke="black" points="238.36,-675.28 227.78,-675.77 236.36,-681.99 238.36,-675.28"/>
<text xml:space="preserve" text-anchor="middle" x="321.52" y="-820.95" font-family="Times New Roman,serif" font-size="14.00">eh</text>
</g>
<!-- set_ih_3 -->
<g id="node19" class="node">
<title>set_ih_3</title>
<polygon fill="none" stroke="black" points="246.9,-844 181.4,-844 181.4,-808 246.9,-808 246.9,-844"/>
<text xml:space="preserve" text-anchor="middle" x="214.15" y="-820.95" font-family="Courier,monospace" font-size="14.00">ih = 3</text>
</g>
<!-- cond_eh_ge_0&#45;&gt;set_ih_3 -->
<g id="edge18" class="edge">
<title>cond_eh_ge_0&#45;&gt;set_ih_3</title>
<path fill="none" stroke="black" d="M209.33,-896.41C210.14,-884.76 211.23,-869.05 212.17,-855.52"/>
<polygon fill="black" stroke="black" points="215.64,-856.08 212.84,-845.86 208.65,-855.59 215.64,-856.08"/>
<text xml:space="preserve" text-anchor="middle" x="222.93" y="-865.2" font-family="Times New Roman,serif" font-size="14.00">Sim</text>
</g>
<!-- set_ih_1 -->
<g id="node20" class="node">
<title>set_ih_1</title>
<polygon fill="none" stroke="black" points="162.9,-844 97.4,-844 97.4,-808 162.9,-808 162.9,-844"/>
<text xml:space="preserve" text-anchor="middle" x="130.15" y="-820.95" font-family="Courier,monospace" font-size="14.00">ih = 1</text>
</g>
<!-- cond_eh_ge_0&#45;&gt;set_ih_1 -->
<g id="edge19" class="edge">
<title>cond_eh_ge_0&#45;&gt;set_ih_1</title>
<path fill="none" stroke="black" d="M195.27,-899.22C183.91,-886.62 167.08,-867.96 153.38,-852.76"/>
<polygon fill="black" stroke="black" points="156.04,-850.49 146.75,-845.41 150.85,-855.18 156.04,-850.49"/>
<text xml:space="preserve" text-anchor="middle" x="187.38" y="-865.2" font-family="Times New Roman,serif" font-size="14.00">Nao</text>
</g>
<!-- calc_decis -->
<g id="node21" class="node">
<title>calc_decis</title>
<polygon fill="none" stroke="black" points="240.15,-771 26.15,-771 26.15,-735 240.15,-735 240.15,-771"/>
<text xml:space="preserve" text-anchor="middle" x="133.15" y="-747.95" font-family="Courier,monospace" font-size="14.00">decis = (564L*deth)&gt;&gt;12L</text>
</g>
<!-- set_ih_3&#45;&gt;calc_decis -->
<g id="edge20" class="edge">
<title>set_ih_3&#45;&gt;calc_decis</title>
<path fill="none" stroke="black" d="M194.54,-807.81C184.56,-799.07 172.26,-788.28 161.29,-778.67"/>
<polygon fill="black" stroke="black" points="163.82,-776.23 153.99,-772.27 159.21,-781.5 163.82,-776.23"/>
</g>
<!-- set_ih_3&#45;&gt;cond_abs_eh_gt_decis -->
<g id="edge35" class="edge">
<title>set_ih_3&#45;&gt;cond_abs_eh_gt_decis</title>
<path fill="none" stroke="black" d="M229.17,-807.6C242.99,-789.37 259.85,-759.96 249.15,-735 240.62,-715.1 223.28,-698.2 207.64,-686.05"/>
<polygon fill="black" stroke="black" points="210.06,-683.48 199.93,-680.36 205.9,-689.12 210.06,-683.48"/>
<text xml:space="preserve" text-anchor="middle" x="257.78" y="-747.95" font-family="Times New Roman,serif" font-size="14.00">ih</text>
</g>
<!-- set_ih_1&#45;&gt;calc_decis -->
<g id="edge21" class="edge">
<title>set_ih_1&#45;&gt;calc_decis</title>
<path fill="none" stroke="black" d="M130.87,-807.81C131.2,-800.14 131.59,-790.89 131.95,-782.24"/>
<polygon fill="black" stroke="black" points="135.44,-782.68 132.36,-772.54 128.44,-782.38 135.44,-782.68"/>
</g>
<!-- set_ih_1&#45;&gt;cond_abs_eh_gt_decis -->
<g id="edge36" class="edge">
<title>set_ih_1&#45;&gt;cond_abs_eh_gt_decis</title>
<path fill="none" stroke="black" d="M96.92,-820.59C67.59,-814.75 26.5,-801.35 6.65,-771 -2.11,-757.61 -2.27,-748.29 6.65,-735 28.32,-702.69 67.99,-685.38 103.51,-676.13"/>
<polygon fill="black" stroke="black" points="104,-679.61 112.9,-673.86 102.36,-672.8 104,-679.61"/>
<text xml:space="preserve" text-anchor="middle" x="11.9" y="-747.95" font-family="Times New Roman,serif" font-size="14.00">ih</text>
</g>
<!-- calc_decis&#45;&gt;cond_abs_eh_gt_decis -->
<g id="edge22" class="edge">
<title>calc_decis&#45;&gt;cond_abs_eh_gt_decis</title>
<path fill="none" stroke="black" d="M150.09,-734.53C154.52,-729.23 158.95,-723.16 162.15,-717 165.93,-709.71 168.77,-701.29 170.87,-693.39"/>
<polygon fill="black" stroke="black" points="174.23,-694.41 173.1,-683.88 167.41,-692.82 174.23,-694.41"/>
</g>
<!-- calc_decis&#45;&gt;cond_abs_eh_gt_decis -->
<g id="edge34" class="edge">
<title>calc_decis&#45;&gt;cond_abs_eh_gt_decis</title>
<path fill="none" stroke="black" d="M128.15,-734.91C126.06,-724.46 125.16,-711.1 130.4,-700.5 133.11,-695.01 137.14,-690.14 141.71,-685.91"/>
<polygon fill="black" stroke="black" points="143.54,-688.93 149.16,-679.95 139.16,-683.47 143.54,-688.93"/>
<text xml:space="preserve" text-anchor="middle" x="144.27" y="-703.7" font-family="Times New Roman,serif" font-size="14.00">decis</text>
</g>
<!-- dec_ih -->
<g id="node23" class="node">
<title>dec_ih</title>
<polygon fill="none" stroke="black" points="153.15,-594 99.15,-594 99.15,-558 153.15,-558 153.15,-594"/>
<text xml:space="preserve" text-anchor="middle" x="126.15" y="-570.95" font-family="Courier,monospace" font-size="14.00">ih&#45;&#45;</text>
</g>
<!-- cond_abs_eh_gt_decis&#45;&gt;dec_ih -->
<g id="edge23" class="edge">
<title>cond_abs_eh_gt_decis&#45;&gt;dec_ih</title>
<path fill="none" stroke="black" d="M143.28,-651.04C133.6,-645.65 124.14,-638.28 118.65,-628.5 114.72,-621.51 114.41,-613.19 115.69,-605.29"/>
<polygon fill="black" stroke="black" points="119.06,-606.24 118.09,-595.69 112.27,-604.55 119.06,-606.24"/>
<text xml:space="preserve" text-anchor="middle" x="129.9" y="-615.2" font-family="Times New Roman,serif" font-size="14.00">Sim</text>
</g>
<!-- cond_abs_eh_gt_decis&#45;&gt;dec_ih -->
<g id="edge37" class="edge">
<title>cond_abs_eh_gt_decis&#45;&gt;dec_ih</title>
<path fill="none" stroke="black" d="M166.98,-647.63C159.94,-635.47 150.07,-618.39 141.8,-604.07"/>
<polygon fill="black" stroke="black" points="144.91,-602.46 136.87,-595.56 138.85,-605.97 144.91,-602.46"/>
<text xml:space="preserve" text-anchor="middle" x="160.87" y="-615.2" font-family="Times New Roman,serif" font-size="14.00">ih</text>
</g>
<!-- calc_dh -->
<g id="node24" class="node">
<title>calc_dh</title>
<polygon fill="none" stroke="black" points="306.9,-505.5 43.4,-505.5 43.4,-469.5 306.9,-469.5 306.9,-505.5"/>
<text xml:space="preserve" text-anchor="middle" x="175.15" y="-482.45" font-family="Courier,monospace" font-size="14.00">dh = (deth*qq2_table[ih])&gt;&gt;15L</text>
</g>
<!-- cond_abs_eh_gt_decis&#45;&gt;calc_dh -->
<g id="edge24" class="edge">
<title>cond_abs_eh_gt_decis&#45;&gt;calc_dh</title>
<path fill="none" stroke="black" d="M176.05,-646.08C175.87,-615.94 175.52,-553.8 175.31,-517.2"/>
<polygon fill="black" stroke="black" points="178.81,-517.34 175.25,-507.36 171.81,-517.38 178.81,-517.34"/>
<text xml:space="preserve" text-anchor="middle" x="187" y="-570.95" font-family="Times New Roman,serif" font-size="14.00">Nao</text>
</g>
<!-- cond_abs_eh_gt_decis&#45;&gt;calc_dh -->
<g id="edge39" class="edge">
<title>cond_abs_eh_gt_decis&#45;&gt;calc_dh</title>
<path fill="none" stroke="black" d="M182.85,-647.18C185.22,-641.31 187.86,-634.63 190.15,-628.5 201.27,-598.73 207.84,-589.27 202.15,-558 199.54,-543.72 194.04,-528.61 188.68,-516.14"/>
<polygon fill="black" stroke="black" points="192,-515.01 184.7,-507.33 185.62,-517.89 192,-515.01"/>
<text xml:space="preserve" text-anchor="middle" x="209.49" y="-570.95" font-family="Times New Roman,serif" font-size="14.00">ih</text>
</g>
<!-- dec_ih&#45;&gt;calc_dh -->
<g id="edge25" class="edge">
<title>dec_ih&#45;&gt;calc_dh</title>
<path fill="none" stroke="black" d="M128.94,-557.93C131.17,-547.48 134.96,-534.12 141.15,-523.5 142.98,-520.35 145.16,-517.27 147.51,-514.33"/>
<polygon fill="black" stroke="black" points="149.9,-516.91 153.92,-507.11 144.67,-512.26 149.9,-516.91"/>
</g>
<!-- dec_ih&#45;&gt;calc_dh -->
<g id="edge38" class="edge">
<title>dec_ih&#45;&gt;calc_dh</title>
<path fill="none" stroke="black" d="M135.83,-557.91C142.63,-545.9 151.87,-529.59 159.68,-515.8"/>
<polygon fill="black" stroke="black" points="162.69,-517.59 164.57,-507.17 156.6,-514.14 162.69,-517.59"/>
<text xml:space="preserve" text-anchor="middle" x="160.29" y="-526.7" font-family="Times New Roman,serif" font-size="14.00">ih</text>
</g>
<!-- update_nbh_deth -->
<g id="node25" class="node">
<title>update_nbh_deth</title>
<polygon fill="none" stroke="black" points="269.77,-432.5 80.52,-432.5 80.52,-391.5 269.77,-391.5 269.77,-432.5"/>
<text xml:space="preserve" text-anchor="middle" x="175.15" y="-415.2" font-family="Courier,monospace" font-size="14.00">nbh = logsch(ih, nbh)</text>
<text xml:space="preserve" text-anchor="middle" x="175.15" y="-398.7" font-family="Courier,monospace" font-size="14.00">deth = scalel(nbh,10)</text>
</g>
<!-- calc_dh&#45;&gt;update_nbh_deth -->
<g id="edge26" class="edge">
<title>calc_dh&#45;&gt;update_nbh_deth</title>
<path fill="none" stroke="black" d="M175.15,-469.08C175.15,-461.7 175.15,-452.85 175.15,-444.4"/>
<polygon fill="black" stroke="black" points="178.65,-444.4 175.15,-434.4 171.65,-444.4 178.65,-444.4"/>
</g>
<!-- calc_ph -->
<g id="node26" class="node">
<title>calc_ph</title>
<polygon fill="none" stroke="black" points="236.77,-354.5 113.52,-354.5 113.52,-318.5 236.77,-318.5 236.77,-354.5"/>
<text xml:space="preserve" text-anchor="middle" x="175.15" y="-331.45" font-family="Courier,monospace" font-size="14.00">ph = dh + szh</text>
</g>
<!-- update_nbh_deth&#45;&gt;calc_ph -->
<g id="edge27" class="edge">
<title>update_nbh_deth&#45;&gt;calc_ph</title>
<path fill="none" stroke="black" d="M175.15,-391.3C175.15,-383.56 175.15,-374.51 175.15,-366.07"/>
<polygon fill="black" stroke="black" points="178.65,-366.26 175.15,-356.26 171.65,-366.26 178.65,-366.26"/>
</g>
<!-- upzero_dh -->
<g id="node27" class="node">
<title>upzero_dh</title>
<polygon fill="none" stroke="black" points="245.02,-281.5 105.27,-281.5 105.27,-245.5 245.02,-245.5 245.02,-281.5"/>
<text xml:space="preserve" text-anchor="middle" x="175.15" y="-258.45" font-family="Courier,monospace" font-size="14.00">upzero(dh, ...)</text>
</g>
<!-- calc_ph&#45;&gt;upzero_dh -->
<g id="edge28" class="edge">
<title>calc_ph&#45;&gt;upzero_dh</title>
<path fill="none" stroke="black" d="M175.15,-318.31C175.15,-310.73 175.15,-301.6 175.15,-293.04"/>
<polygon fill="black" stroke="black" points="178.65,-293.04 175.15,-283.04 171.65,-293.04 178.65,-293.04"/>
</g>
<!-- update_ah -->
<g id="node28" class="node">
<title>update_ah</title>
<polygon fill="none" stroke="black" points="245.02,-208.5 105.27,-208.5 105.27,-167.5 245.02,-167.5 245.02,-208.5"/>
<text xml:space="preserve" text-anchor="middle" x="175.15" y="-191.2" font-family="Courier,monospace" font-size="14.00">ah2=uppol2(...)</text>
<text xml:space="preserve" text-anchor="middle" x="175.15" y="-174.7" font-family="Courier,monospace" font-size="14.00">ah1=uppol1(...)</text>
</g>
<!-- upzero_dh&#45;&gt;update_ah -->
<g id="edge29" class="edge">
<title>upzero_dh&#45;&gt;update_ah</title>
<path fill="none" stroke="black" d="M175.15,-245.08C175.15,-237.7 175.15,-228.85 175.15,-220.4"/>
<polygon fill="black" stroke="black" points="178.65,-220.4 175.15,-210.4 171.65,-220.4 178.65,-220.4"/>
</g>
<!-- update_rh_ph -->
<g id="node29" class="node">
<title>update_rh_ph</title>
<polygon fill="none" stroke="black" points="245.02,-130.5 105.27,-130.5 105.27,-73 245.02,-73 245.02,-130.5"/>
<text xml:space="preserve" text-anchor="middle" x="175.15" y="-113.2" font-family="Courier,monospace" font-size="14.00">yh=sh+dh</text>
<text xml:space="preserve" text-anchor="middle" x="175.15" y="-96.7" font-family="Courier,monospace" font-size="14.00">rh2=rh1, rh1=yh</text>
<text xml:space="preserve" text-anchor="middle" x="175.15" y="-80.2" font-family="Courier,monospace" font-size="14.00">ph2=ph1, ph1=ph</text>
</g>
<!-- update_ah&#45;&gt;update_rh_ph -->
<g id="edge30" class="edge">
<title>update_ah&#45;&gt;update_rh_ph</title>
<path fill="none" stroke="black" d="M175.15,-167.03C175.15,-159.61 175.15,-150.9 175.15,-142.33"/>
<polygon fill="black" stroke="black" points="178.65,-142.37 175.15,-132.37 171.65,-142.37 178.65,-142.37"/>
</g>
<!-- ret -->
<g id="node30" class="node">
<title>ret</title>
<polygon fill="none" stroke="black" points="261.52,-36 88.77,-36 88.77,0 261.52,0 261.52,-36"/>
<text xml:space="preserve" text-anchor="middle" x="175.15" y="-12.95" font-family="Courier,monospace" font-size="14.00">return il | (ih&lt;&lt;6)</text>
</g>
<!-- update_rh_ph&#45;&gt;ret -->
<g id="edge31" class="edge">
<title>update_rh_ph&#45;&gt;ret</title>
<path fill="none" stroke="black" d="M175.15,-72.62C175.15,-64.64 175.15,-55.95 175.15,-47.93"/>
<polygon fill="black" stroke="black" points="178.65,-47.97 175.15,-37.97 171.65,-47.97 178.65,-47.97"/>
</g>
</g>
</svg>
