<?xml version="1.0" encoding="UTF-8" standalone="no"?>
<!DOCTYPE svg PUBLIC "-//W3C//DTD SVG 1.1//EN"
 "http://www.w3.org/Graphics/SVG/1.1/DTD/svg11.dtd">
<!-- Generated by graphviz version 13.1.2 (20250808.2320)
 -->
<!-- Title: compress_CFG Pages: 1 -->
<svg width="1389pt" height="1166pt"
 viewBox="0.00 0.00 1389.00 1166.00" xmlns="http://www.w3.org/2000/svg" xmlns:xlink="http://www.w3.org/1999/xlink">
<g id="graph0" class="graph" transform="scale(1 1) rotate(0) translate(4 1162.25)">
<title>compress_CFG</title>
<polygon fill="white" stroke="none" points="-4,4 -4,-1162.25 1385.21,-1162.25 1385.21,4 -4,4"/>
<!-- N1 -->
<g id="node1" class="node">
<title>N1</title>
<path fill="none" stroke="black" d="M825.96,-1158.25C825.96,-1158.25 684.71,-1158.25 684.71,-1158.25 678.71,-1158.25 672.71,-1152.25 672.71,-1146.25 672.71,-1146.25 672.71,-1134.25 672.71,-1134.25 672.71,-1128.25 678.71,-1122.25 684.71,-1122.25 684.71,-1122.25 825.96,-1122.25 825.96,-1122.25 831.96,-1122.25 837.96,-1128.25 837.96,-1134.25 837.96,-1134.25 837.96,-1146.25 837.96,-1146.25 837.96,-1152.25 831.96,-1158.25 825.96,-1158.25"/>
<text xml:space="preserve" text-anchor="middle" x="755.33" y="-1134.83" font-family="Helvetica,sans-Serif" font-size="14.00">compress(): Inicializacao</text>
</g>
<!-- N2 -->
<g id="node2" class="node">
<title>N2</title>
<path fill="none" stroke="black" d="M838.71,-1085.25C838.71,-1085.25 671.96,-1085.25 671.96,-1085.25 665.96,-1085.25 659.96,-1079.25 659.96,-1073.25 659.96,-1073.25 659.96,-1061.25 659.96,-1061.25 659.96,-1055.25 665.96,-1049.25 671.96,-1049.25 671.96,-1049.25 838.71,-1049.25 838.71,-1049.25 844.71,-1049.25 850.71,-1055.25 850.71,-1061.25 850.71,-1061.25 850.71,-1073.25 850.71,-1073.25 850.71,-1079.25 844.71,-1085.25 838.71,-1085.25"/>
<text xml:space="preserve" text-anchor="middle" x="755.33" y="-1061.83" font-family="Helvetica,sans-Serif" font-size="14.00">compress(): while (InCnt &gt; 0)</text>
</g>
<!-- N1&#45;&gt;N2 -->
<g id="edge1" class="edge">
<title>N1&#45;&gt;N2</title>
<path fill="none" stroke="black" d="M755.33,-1122.06C755.33,-1114.48 755.33,-1105.35 755.33,-1096.79"/>
<polygon fill="black" stroke="black" points="758.83,-1096.79 755.33,-1086.79 751.83,-1096.79 758.83,-1096.79"/>
</g>
<!-- N3 -->
<g id="node3" class="node">
<title>N3</title>
<path fill="none" stroke="black" d="M676.96,-997.5C676.96,-997.5 349.71,-997.5 349.71,-997.5 343.71,-997.5 337.71,-991.5 337.71,-985.5 337.71,-985.5 337.71,-973.5 337.71,-973.5 337.71,-967.5 343.71,-961.5 349.71,-961.5 349.71,-961.5 676.96,-961.5 676.96,-961.5 682.96,-961.5 688.96,-967.5 688.96,-973.5 688.96,-973.5 688.96,-985.5 688.96,-985.5 688.96,-991.5 682.96,-997.5 676.96,-997.5"/>
<text xml:space="preserve" text-anchor="middle" x="513.33" y="-974.08" font-family="Helvetica,sans-Serif" font-size="14.00">compress(): c = getbyte(); in_count++; fcode = ...; i = ...;</text>
</g>
<!-- N2&#45;&gt;N3 -->
<g id="edge2" class="edge">
<title>N2&#45;&gt;N3</title>
<path fill="none" stroke="black" d="M705.21,-1048.78C689.26,-1043.2 671.55,-1036.98 655.33,-1031.25 628.12,-1021.63 598.01,-1010.88 572.54,-1001.76"/>
<polygon fill="black" stroke="black" points="573.96,-998.55 563.36,-998.47 571.6,-1005.14 573.96,-998.55"/>
<text xml:space="preserve" text-anchor="middle" x="679.33" y="-1017.95" font-family="Helvetica,sans-Serif" font-size="14.00">InCnt&gt;0</text>
</g>
<!-- N20 -->
<g id="node20" class="node">
<title>N20</title>
<path fill="none" stroke="black" d="M1146.33,-997.5C1146.33,-997.5 860.33,-997.5 860.33,-997.5 854.33,-997.5 848.33,-991.5 848.33,-985.5 848.33,-985.5 848.33,-973.5 848.33,-973.5 848.33,-967.5 854.33,-961.5 860.33,-961.5 860.33,-961.5 1146.33,-961.5 1146.33,-961.5 1152.33,-961.5 1158.33,-967.5 1158.33,-973.5 1158.33,-973.5 1158.33,-985.5 1158.33,-985.5 1158.33,-991.5 1152.33,-997.5 1146.33,-997.5"/>
<text xml:space="preserve" text-anchor="middle" x="1003.33" y="-974.08" font-family="Helvetica,sans-Serif" font-size="14.00">compress(): if (bytes_out &gt; in_count) exit_stat=2;</text>
</g>
<!-- N2&#45;&gt;N20 -->
<g id="edge3" class="edge">
<title>N2&#45;&gt;N20</title>
<path fill="none" stroke="black" d="M805.82,-1048.79C845.29,-1035.14 900.33,-1016.12 942.28,-1001.61"/>
<polygon fill="black" stroke="black" points="943.18,-1005 951.49,-998.43 940.89,-998.39 943.18,-1005"/>
<text xml:space="preserve" text-anchor="middle" x="929.67" y="-1017.95" font-family="Helvetica,sans-Serif" font-size="14.00">InCnt&lt;=0</text>
</g>
<!-- N4 -->
<g id="node4" class="node">
<title>N4</title>
<path fill="none" stroke="black" d="M610.21,-909.75C610.21,-909.75 416.46,-909.75 416.46,-909.75 410.46,-909.75 404.46,-903.75 404.46,-897.75 404.46,-897.75 404.46,-885.75 404.46,-885.75 404.46,-879.75 410.46,-873.75 416.46,-873.75 416.46,-873.75 610.21,-873.75 610.21,-873.75 616.21,-873.75 622.21,-879.75 622.21,-885.75 622.21,-885.75 622.21,-897.75 622.21,-897.75 622.21,-903.75 616.21,-909.75 610.21,-909.75"/>
<text xml:space="preserve" text-anchor="middle" x="513.33" y="-886.33" font-family="Helvetica,sans-Serif" font-size="14.00">compress(): if (htabof(i) == fcode)</text>
</g>
<!-- N3&#45;&gt;N4 -->
<g id="edge4" class="edge">
<title>N3&#45;&gt;N4</title>
<path fill="none" stroke="black" d="M513.33,-961.15C513.33,-949.76 513.33,-934.59 513.33,-921.43"/>
<polygon fill="black" stroke="black" points="516.83,-921.59 513.33,-911.59 509.83,-921.59 516.83,-921.59"/>
</g>
<!-- N5 -->
<g id="node5" class="node">
<title>N5</title>
<path fill="none" stroke="black" d="M715.21,-822C715.21,-822 479.46,-822 479.46,-822 473.46,-822 467.46,-816 467.46,-810 467.46,-810 467.46,-798 467.46,-798 467.46,-792 473.46,-786 479.46,-786 479.46,-786 715.21,-786 715.21,-786 721.21,-786 727.21,-792 727.21,-798 727.21,-798 727.21,-810 727.21,-810 727.21,-816 721.21,-822 715.21,-822"/>
<text xml:space="preserve" text-anchor="middle" x="597.33" y="-798.58" font-family="Helvetica,sans-Serif" font-size="14.00">compress(): ent = codetabof(i); continue;</text>
</g>
<!-- N4&#45;&gt;N5 -->
<g id="edge5" class="edge">
<title>N4&#45;&gt;N5</title>
<path fill="none" stroke="black" d="M530.33,-873.4C542.4,-861.08 558.8,-844.34 572.35,-830.5"/>
<polygon fill="black" stroke="black" points="574.8,-833 579.3,-823.41 569.8,-828.1 574.8,-833"/>
<text xml:space="preserve" text-anchor="middle" x="574.48" y="-842.45" font-family="Helvetica,sans-Serif" font-size="14.00">true</text>
</g>
<!-- N6 -->
<g id="node6" class="node">
<title>N6</title>
<path fill="none" stroke="black" d="M437.58,-822C437.58,-822 249.08,-822 249.08,-822 243.08,-822 237.08,-816 237.08,-810 237.08,-810 237.08,-798 237.08,-798 237.08,-792 243.08,-786 249.08,-786 249.08,-786 437.58,-786 437.58,-786 443.58,-786 449.58,-792 449.58,-798 449.58,-798 449.58,-810 449.58,-810 449.58,-816 443.58,-822 437.58,-822"/>
<text xml:space="preserve" text-anchor="middle" x="343.33" y="-798.58" font-family="Helvetica,sans-Serif" font-size="14.00">compress(): else if (htabof(i) &lt; 0)</text>
</g>
<!-- N4&#45;&gt;N6 -->
<g id="edge6" class="edge">
<title>N4&#45;&gt;N6</title>
<path fill="none" stroke="black" d="M478.93,-873.4C452.75,-860.19 416.5,-841.9 388.06,-827.56"/>
<polygon fill="black" stroke="black" points="389.83,-824.53 379.33,-823.16 386.68,-830.78 389.83,-824.53"/>
<text xml:space="preserve" text-anchor="middle" x="457.81" y="-842.45" font-family="Helvetica,sans-Serif" font-size="14.00">false</text>
</g>
<!-- N5&#45;&gt;N2 -->
<g id="edge7" class="edge">
<title>N5&#45;&gt;N2</title>
<path fill="none" stroke="black" d="M608.97,-822.1C628.22,-850.6 667.63,-909.78 698.33,-961.5 713.7,-987.39 730,-1017.67 741.22,-1039"/>
<polygon fill="black" stroke="black" points="738,-1040.4 745.74,-1047.63 744.2,-1037.15 738,-1040.4"/>
</g>
<!-- N7 -->
<g id="node7" class="node">
<title>N7</title>
<path fill="none" stroke="black" d="M617.33,-680.25C617.33,-680.25 463.33,-680.25 463.33,-680.25 457.33,-680.25 451.33,-674.25 451.33,-668.25 451.33,-668.25 451.33,-656.25 451.33,-656.25 451.33,-650.25 457.33,-644.25 463.33,-644.25 463.33,-644.25 617.33,-644.25 617.33,-644.25 623.33,-644.25 629.33,-650.25 629.33,-656.25 629.33,-656.25 629.33,-668.25 629.33,-668.25 629.33,-674.25 623.33,-680.25 617.33,-680.25"/>
<text xml:space="preserve" text-anchor="middle" x="540.33" y="-656.83" font-family="Helvetica,sans-Serif" font-size="14.00">compress(): goto nomatch;</text>
</g>
<!-- N6&#45;&gt;N7 -->
<g id="edge8" class="edge">
<title>N6&#45;&gt;N7</title>
<path fill="none" stroke="black" d="M367.88,-785.58C402.93,-760.72 467.4,-714.99 506.81,-687.03"/>
<polygon fill="black" stroke="black" points="508.42,-690.18 514.55,-681.54 504.37,-684.47 508.42,-690.18"/>
<text xml:space="preserve" text-anchor="middle" x="424.3" y="-754.7" font-family="Helvetica,sans-Serif" font-size="14.00">true</text>
</g>
<!-- N8 -->
<g id="node8" class="node">
<title>N8</title>
<path fill="none" stroke="black" d="M388.21,-734.25C388.21,-734.25 104.46,-734.25 104.46,-734.25 98.46,-734.25 92.46,-728.25 92.46,-722.25 92.46,-722.25 92.46,-710.25 92.46,-710.25 92.46,-704.25 98.46,-698.25 104.46,-698.25 104.46,-698.25 388.21,-698.25 388.21,-698.25 394.21,-698.25 400.21,-704.25 400.21,-710.25 400.21,-710.25 400.21,-722.25 400.21,-722.25 400.21,-728.25 394.21,-734.25 388.21,-734.25"/>
<text xml:space="preserve" text-anchor="middle" x="246.33" y="-710.83" font-family="Helvetica,sans-Serif" font-size="14.00">compress(): disp = hsize_reg &#45; i; if (i==0) disp=1;</text>
</g>
<!-- N6&#45;&gt;N8 -->
<g id="edge9" class="edge">
<title>N6&#45;&gt;N8</title>
<path fill="none" stroke="black" d="M323.7,-785.65C309.5,-773.09 290.11,-755.95 274.3,-741.97"/>
<polygon fill="black" stroke="black" points="276.88,-739.58 267.07,-735.58 272.24,-744.82 276.88,-739.58"/>
<text xml:space="preserve" text-anchor="middle" x="317.77" y="-754.7" font-family="Helvetica,sans-Serif" font-size="14.00">false</text>
</g>
<!-- N14 -->
<g id="node14" class="node">
<title>N14</title>
<path fill="none" stroke="black" d="M548.33,-377.75C548.33,-377.75 292.33,-377.75 292.33,-377.75 286.33,-377.75 280.33,-371.75 280.33,-365.75 280.33,-365.75 280.33,-353.75 280.33,-353.75 280.33,-347.75 286.33,-341.75 292.33,-341.75 292.33,-341.75 548.33,-341.75 548.33,-341.75 554.33,-341.75 560.33,-347.75 560.33,-353.75 560.33,-353.75 560.33,-365.75 560.33,-365.75 560.33,-371.75 554.33,-377.75 548.33,-377.75"/>
<text xml:space="preserve" text-anchor="middle" x="420.33" y="-354.32" font-family="Helvetica,sans-Serif" font-size="14.00">compress(): nomatch: out_count++; ent = c;</text>
</g>
<!-- N7&#45;&gt;N14 -->
<g id="edge10" class="edge">
<title>N7&#45;&gt;N14</title>
<path fill="none" stroke="black" d="M629.61,-649.57C673.6,-638.26 717.33,-616.02 717.33,-572.25 717.33,-572.25 717.33,-572.25 717.33,-446.5 717.33,-412.62 645.08,-391.3 571.85,-378.39"/>
<polygon fill="black" stroke="black" points="572.51,-374.95 562.06,-376.72 571.33,-381.85 572.51,-374.95"/>
</g>
<!-- N9 -->
<g id="node9" class="node">
<title>N9</title>
<path fill="none" stroke="black" d="M367.58,-626.25C367.58,-626.25 77.08,-626.25 77.08,-626.25 71.08,-626.25 65.08,-620.25 65.08,-614.25 65.08,-614.25 65.08,-602.25 65.08,-602.25 65.08,-596.25 71.08,-590.25 77.08,-590.25 77.08,-590.25 367.58,-590.25 367.58,-590.25 373.58,-590.25 379.58,-596.25 379.58,-602.25 379.58,-602.25 379.58,-614.25 379.58,-614.25 379.58,-620.25 373.58,-626.25 367.58,-626.25"/>
<text xml:space="preserve" text-anchor="middle" x="222.33" y="-602.83" font-family="Helvetica,sans-Serif" font-size="14.00">compress(): Probe: i &#45;= disp; if (i&lt;0) i+=hsize_reg;</text>
</g>
<!-- N8&#45;&gt;N9 -->
<g id="edge11" class="edge">
<title>N8&#45;&gt;N9</title>
<path fill="none" stroke="black" d="M242.48,-698.22C238.79,-681.94 233.16,-657.07 228.79,-637.77"/>
<polygon fill="black" stroke="black" points="232.21,-637.05 226.59,-628.07 225.39,-638.59 232.21,-637.05"/>
</g>
<!-- N10 -->
<g id="node10" class="node">
<title>N10</title>
<path fill="none" stroke="black" d="M319.21,-553.25C319.21,-553.25 125.46,-553.25 125.46,-553.25 119.46,-553.25 113.46,-547.25 113.46,-541.25 113.46,-541.25 113.46,-529.25 113.46,-529.25 113.46,-523.25 119.46,-517.25 125.46,-517.25 125.46,-517.25 319.21,-517.25 319.21,-517.25 325.21,-517.25 331.21,-523.25 331.21,-529.25 331.21,-529.25 331.21,-541.25 331.21,-541.25 331.21,-547.25 325.21,-553.25 319.21,-553.25"/>
<text xml:space="preserve" text-anchor="middle" x="222.33" y="-529.83" font-family="Helvetica,sans-Serif" font-size="14.00">compress(): if (htabof(i) == fcode)</text>
</g>
<!-- N9&#45;&gt;N10 -->
<g id="edge12" class="edge">
<title>N9&#45;&gt;N10</title>
<path fill="none" stroke="black" d="M222.33,-590.06C222.33,-582.48 222.33,-573.35 222.33,-564.79"/>
<polygon fill="black" stroke="black" points="225.83,-564.79 222.33,-554.79 218.83,-564.79 225.83,-564.79"/>
</g>
<!-- N11 -->
<g id="node11" class="node">
<title>N11</title>
<path fill="none" stroke="black" d="M677.21,-465.5C677.21,-465.5 441.46,-465.5 441.46,-465.5 435.46,-465.5 429.46,-459.5 429.46,-453.5 429.46,-453.5 429.46,-441.5 429.46,-441.5 429.46,-435.5 435.46,-429.5 441.46,-429.5 441.46,-429.5 677.21,-429.5 677.21,-429.5 683.21,-429.5 689.21,-435.5 689.21,-441.5 689.21,-441.5 689.21,-453.5 689.21,-453.5 689.21,-459.5 683.21,-465.5 677.21,-465.5"/>
<text xml:space="preserve" text-anchor="middle" x="559.33" y="-442.07" font-family="Helvetica,sans-Serif" font-size="14.00">compress(): ent = codetabof(i); continue;</text>
</g>
<!-- N10&#45;&gt;N11 -->
<g id="edge13" class="edge">
<title>N10&#45;&gt;N11</title>
<path fill="none" stroke="black" d="M290.94,-516.79C345.72,-502.85 422.55,-483.31 479.97,-468.69"/>
<polygon fill="black" stroke="black" points="480.53,-472.16 489.36,-466.3 478.8,-465.38 480.53,-472.16"/>
<text xml:space="preserve" text-anchor="middle" x="432.64" y="-485.95" font-family="Helvetica,sans-Serif" font-size="14.00">true</text>
</g>
<!-- N12 -->
<g id="node12" class="node">
<title>N12</title>
<path fill="none" stroke="black" d="M399.83,-465.5C399.83,-465.5 26.83,-465.5 26.83,-465.5 20.83,-465.5 14.83,-459.5 14.83,-453.5 14.83,-453.5 14.83,-441.5 14.83,-441.5 14.83,-435.5 20.83,-429.5 26.83,-429.5 26.83,-429.5 399.83,-429.5 399.83,-429.5 405.83,-429.5 411.83,-435.5 411.83,-441.5 411.83,-441.5 411.83,-453.5 411.83,-453.5 411.83,-459.5 405.83,-465.5 399.83,-465.5"/>
<text xml:space="preserve" text-anchor="middle" x="213.33" y="-442.07" font-family="Helvetica,sans-Serif" font-size="14.00">compress(): if (htabof(i)&gt;0 &amp;&amp; (++apsim_bound111 &lt; in_count))</text>
</g>
<!-- N10&#45;&gt;N12 -->
<g id="edge14" class="edge">
<title>N10&#45;&gt;N12</title>
<path fill="none" stroke="black" d="M220.51,-516.9C219.32,-505.51 217.72,-490.34 216.34,-477.18"/>
<polygon fill="black" stroke="black" points="219.83,-476.91 215.31,-467.33 212.87,-477.64 219.83,-476.91"/>
<text xml:space="preserve" text-anchor="middle" x="232.89" y="-485.95" font-family="Helvetica,sans-Serif" font-size="14.00">false</text>
</g>
<!-- N11&#45;&gt;N2 -->
<g id="edge15" class="edge">
<title>N11&#45;&gt;N2</title>
<path fill="none" stroke="black" d="M689.52,-464.02C725.72,-476.11 755.33,-497.29 755.33,-534.25 755.33,-980.5 755.33,-980.5 755.33,-980.5 755.33,-999.55 755.33,-1020.97 755.33,-1037.65"/>
<polygon fill="black" stroke="black" points="751.83,-1037.33 755.33,-1047.33 758.83,-1037.33 751.83,-1037.33"/>
</g>
<!-- N13 -->
<g id="node13" class="node">
<title>N13</title>
<path fill="none" stroke="black" d="M172.08,-377.75C172.08,-377.75 34.58,-377.75 34.58,-377.75 28.58,-377.75 22.58,-371.75 22.58,-365.75 22.58,-365.75 22.58,-353.75 22.58,-353.75 22.58,-347.75 28.58,-341.75 34.58,-341.75 34.58,-341.75 172.08,-341.75 172.08,-341.75 178.08,-341.75 184.08,-347.75 184.08,-353.75 184.08,-353.75 184.08,-365.75 184.08,-365.75 184.08,-371.75 178.08,-377.75 172.08,-377.75"/>
<text xml:space="preserve" text-anchor="middle" x="103.33" y="-354.32" font-family="Helvetica,sans-Serif" font-size="14.00">compress(): goto Probe;</text>
</g>
<!-- N12&#45;&gt;N13 -->
<g id="edge16" class="edge">
<title>N12&#45;&gt;N13</title>
<path fill="none" stroke="black" d="M191.07,-429.15C174.82,-416.48 152.57,-399.14 134.55,-385.08"/>
<polygon fill="black" stroke="black" points="136.79,-382.4 126.75,-379.01 132.49,-387.92 136.79,-382.4"/>
<text xml:space="preserve" text-anchor="middle" x="179.81" y="-398.2" font-family="Helvetica,sans-Serif" font-size="14.00">true</text>
</g>
<!-- N12&#45;&gt;N14 -->
<g id="edge17" class="edge">
<title>N12&#45;&gt;N14</title>
<path fill="none" stroke="black" d="M255.47,-429.04C287.93,-415.6 332.99,-396.93 367.8,-382.51"/>
<polygon fill="black" stroke="black" points="368.95,-385.82 376.85,-378.76 366.28,-379.35 368.95,-385.82"/>
<text xml:space="preserve" text-anchor="middle" x="349.62" y="-398.2" font-family="Helvetica,sans-Serif" font-size="14.00">false</text>
</g>
<!-- N13&#45;&gt;N9 -->
<g id="edge18" class="edge">
<title>N13&#45;&gt;N9</title>
<path fill="none" stroke="black" d="M62.03,-378.23C40.96,-389.52 17.32,-406.45 5.33,-429.5 -2.05,-443.7 -1.23,-450.91 5.33,-465.5 32.84,-526.64 101.83,-564.63 154.7,-585.7"/>
<polygon fill="black" stroke="black" points="153.37,-588.94 163.96,-589.27 155.89,-582.41 153.37,-588.94"/>
</g>
<!-- N15 -->
<g id="node15" class="node">
<title>N15</title>
<path fill="none" stroke="black" d="M537.46,-304.75C537.46,-304.75 303.21,-304.75 303.21,-304.75 297.21,-304.75 291.21,-298.75 291.21,-292.75 291.21,-292.75 291.21,-280.75 291.21,-280.75 291.21,-274.75 297.21,-268.75 303.21,-268.75 303.21,-268.75 537.46,-268.75 537.46,-268.75 543.46,-268.75 549.46,-274.75 549.46,-280.75 549.46,-280.75 549.46,-292.75 549.46,-292.75 549.46,-298.75 543.46,-304.75 537.46,-304.75"/>
<text xml:space="preserve" text-anchor="middle" x="420.33" y="-281.32" font-family="Helvetica,sans-Serif" font-size="14.00">compress(): if (free_ent &lt; maxmaxcode)</text>
</g>
<!-- N14&#45;&gt;N15 -->
<g id="edge19" class="edge">
<title>N14&#45;&gt;N15</title>
<path fill="none" stroke="black" d="M420.33,-341.56C420.33,-333.98 420.33,-324.85 420.33,-316.29"/>
<polygon fill="black" stroke="black" points="423.83,-316.29 420.33,-306.29 416.83,-316.29 423.83,-316.29"/>
</g>
<!-- N16 -->
<g id="node16" class="node">
<title>N16</title>
<path fill="none" stroke="black" d="M765.96,-163C765.96,-163 450.71,-163 450.71,-163 444.71,-163 438.71,-157 438.71,-151 438.71,-151 438.71,-139 438.71,-139 438.71,-133 444.71,-127 450.71,-127 450.71,-127 765.96,-127 765.96,-127 771.96,-127 777.96,-133 777.96,-139 777.96,-139 777.96,-151 777.96,-151 777.96,-157 771.96,-163 765.96,-163"/>
<text xml:space="preserve" text-anchor="middle" x="608.33" y="-139.57" font-family="Helvetica,sans-Serif" font-size="14.00">compress(): codetabof(i)=free_ent++; htabof(i)=fcode;</text>
</g>
<!-- N15&#45;&gt;N16 -->
<g id="edge20" class="edge">
<title>N15&#45;&gt;N16</title>
<path fill="none" stroke="black" d="M503.96,-268.39C534.63,-258.14 567.22,-242.06 589.33,-217 599.62,-205.34 604.42,-188.69 606.62,-174.44"/>
<polygon fill="black" stroke="black" points="610.08,-175.04 607.75,-164.71 603.12,-174.24 610.08,-175.04"/>
<text xml:space="preserve" text-anchor="middle" x="580.41" y="-237.45" font-family="Helvetica,sans-Serif" font-size="14.00">true</text>
</g>
<!-- N17 -->
<g id="node17" class="node">
<title>N17</title>
<path fill="none" stroke="black" d="M568.08,-217C568.08,-217 196.58,-217 196.58,-217 190.58,-217 184.58,-211 184.58,-205 184.58,-205 184.58,-193 184.58,-193 184.58,-187 190.58,-181 196.58,-181 196.58,-181 568.08,-181 568.08,-181 574.08,-181 580.08,-187 580.08,-193 580.08,-193 580.08,-205 580.08,-205 580.08,-211 574.08,-217 568.08,-217"/>
<text xml:space="preserve" text-anchor="middle" x="382.33" y="-193.57" font-family="Helvetica,sans-Serif" font-size="14.00">compress(): else if (in_count&gt;=checkpoint &amp;&amp; block_compress)</text>
</g>
<!-- N15&#45;&gt;N17 -->
<g id="edge21" class="edge">
<title>N15&#45;&gt;N17</title>
<path fill="none" stroke="black" d="M412.64,-268.4C407.44,-256.66 400.46,-240.91 394.51,-227.48"/>
<polygon fill="black" stroke="black" points="397.88,-226.44 390.62,-218.71 391.48,-229.27 397.88,-226.44"/>
<text xml:space="preserve" text-anchor="middle" x="418.99" y="-237.45" font-family="Helvetica,sans-Serif" font-size="14.00">false</text>
</g>
<!-- N19 -->
<g id="node19" class="node">
<title>N19</title>
<path fill="none" stroke="black" d="M652.46,-36C652.46,-36 508.21,-36 508.21,-36 502.21,-36 496.21,-30 496.21,-24 496.21,-24 496.21,-12 496.21,-12 496.21,-6 502.21,0 508.21,0 508.21,0 652.46,0 652.46,0 658.46,0 664.46,-6 664.46,-12 664.46,-12 664.46,-24 664.46,-24 664.46,-30 658.46,-36 652.46,-36"/>
<text xml:space="preserve" text-anchor="middle" x="580.33" y="-12.57" font-family="Helvetica,sans-Serif" font-size="14.00">compress(): Fim do while</text>
</g>
<!-- N16&#45;&gt;N19 -->
<g id="edge22" class="edge">
<title>N16&#45;&gt;N19</title>
<path fill="none" stroke="black" d="M604.44,-126.62C599.84,-106.1 592.13,-71.67 586.67,-47.29"/>
<polygon fill="black" stroke="black" points="590.12,-46.7 584.52,-37.71 583.29,-48.23 590.12,-46.7"/>
</g>
<!-- N18 -->
<g id="node18" class="node">
<title>N18</title>
<path fill="none" stroke="black" d="M565.96,-109C565.96,-109 436.71,-109 436.71,-109 430.71,-109 424.71,-103 424.71,-97 424.71,-97 424.71,-85 424.71,-85 424.71,-79 430.71,-73 436.71,-73 436.71,-73 565.96,-73 565.96,-73 571.96,-73 577.96,-79 577.96,-85 577.96,-85 577.96,-97 577.96,-97 577.96,-103 571.96,-109 565.96,-109"/>
<text xml:space="preserve" text-anchor="middle" x="501.33" y="-85.58" font-family="Helvetica,sans-Serif" font-size="14.00">compress(): cl_block();</text>
</g>
<!-- N17&#45;&gt;N18 -->
<g id="edge23" class="edge">
<title>N17&#45;&gt;N18</title>
<path fill="none" stroke="black" d="M386.29,-180.71C390.81,-162.3 398.57,-134.74 406.08,-127 410.64,-122.3 415.89,-118.23 421.52,-114.71"/>
<polygon fill="black" stroke="black" points="422.94,-117.92 429.99,-110 419.54,-111.8 422.94,-117.92"/>
<text xml:space="preserve" text-anchor="middle" x="417.71" y="-139.57" font-family="Helvetica,sans-Serif" font-size="14.00">true</text>
</g>
<!-- N17&#45;&gt;N19 -->
<g id="edge24" class="edge">
<title>N17&#45;&gt;N19</title>
<path fill="none" stroke="black" d="M377.22,-180.92C370.51,-154.68 362.24,-104.21 386.83,-73 399.69,-56.69 442.47,-43.86 484.54,-34.81"/>
<polygon fill="black" stroke="black" points="485.22,-38.25 494.3,-32.79 483.8,-31.39 485.22,-38.25"/>
<text xml:space="preserve" text-anchor="middle" x="401.08" y="-85.58" font-family="Helvetica,sans-Serif" font-size="14.00">false</text>
</g>
<!-- N18&#45;&gt;N19 -->
<g id="edge25" class="edge">
<title>N18&#45;&gt;N19</title>
<path fill="none" stroke="black" d="M520.46,-72.81C530.09,-64.16 541.95,-53.5 552.56,-43.96"/>
<polygon fill="black" stroke="black" points="554.89,-46.57 559.98,-37.29 550.21,-41.37 554.89,-46.57"/>
</g>
<!-- N19&#45;&gt;N2 -->
<g id="edge26" class="edge">
<title>N19&#45;&gt;N2</title>
<path fill="none" stroke="black" d="M664.82,-31.36C724.29,-42.52 793.33,-61.59 793.33,-90 793.33,-980.5 793.33,-980.5 793.33,-980.5 793.33,-1001.54 783.65,-1023.18 774.07,-1039.46"/>
<polygon fill="black" stroke="black" points="771.33,-1037.23 769,-1047.56 777.27,-1040.94 771.33,-1037.23"/>
</g>
<!-- N21 -->
<g id="node21" class="node">
<title>N21</title>
<path fill="none" stroke="black" d="M1261.96,-909.75C1261.96,-909.75 868.71,-909.75 868.71,-909.75 862.71,-909.75 856.71,-903.75 856.71,-897.75 856.71,-897.75 856.71,-885.75 856.71,-885.75 856.71,-879.75 862.71,-873.75 868.71,-873.75 868.71,-873.75 1261.96,-873.75 1261.96,-873.75 1267.96,-873.75 1273.96,-879.75 1273.96,-885.75 1273.96,-885.75 1273.96,-897.75 1273.96,-897.75 1273.96,-903.75 1267.96,-909.75 1261.96,-909.75"/>
<text xml:space="preserve" text-anchor="middle" x="1065.33" y="-886.33" font-family="Helvetica,sans-Serif" font-size="14.00">cl_block(): checkpoint = in_count + CHECK_GAP; if (in_count &gt; ...)</text>
</g>
<!-- N20&#45;&gt;N21 -->
<g id="edge27" class="edge">
<title>N20&#45;&gt;N21</title>
<path fill="none" stroke="black" d="M1015.88,-961.15C1024.62,-949.06 1036.44,-932.72 1046.33,-919.04"/>
<polygon fill="black" stroke="black" points="1048.89,-921.46 1051.92,-911.3 1043.22,-917.36 1048.89,-921.46"/>
<text xml:space="preserve" text-anchor="middle" x="1099.89" y="-930.2" font-family="Helvetica,sans-Serif" font-size="14.00">cl_block condicional</text>
</g>
<!-- N22 -->
<g id="node22" class="node">
<title>N22</title>
<path fill="none" stroke="black" d="M1369.21,-822C1369.21,-822 833.46,-822 833.46,-822 827.46,-822 821.46,-816 821.46,-810 821.46,-810 821.46,-798 821.46,-798 821.46,-792 827.46,-786 833.46,-786 833.46,-786 1369.21,-786 1369.21,-786 1375.21,-786 1381.21,-792 1381.21,-798 1381.21,-798 1381.21,-810 1381.21,-810 1381.21,-816 1375.21,-822 1369.21,-822"/>
<text xml:space="preserve" text-anchor="middle" x="1101.33" y="-798.58" font-family="Helvetica,sans-Serif" font-size="14.00">cl_block(): ratio = rat; else ratio=0; cl_hash(); free_ent=FIRST; clear_flg=1; output(CLEAR);</text>
</g>
<!-- N21&#45;&gt;N22 -->
<g id="edge28" class="edge">
<title>N21&#45;&gt;N22</title>
<path fill="none" stroke="black" d="M1072.62,-873.4C1077.5,-861.77 1084.03,-846.22 1089.63,-832.88"/>
<polygon fill="black" stroke="black" points="1092.83,-834.3 1093.47,-823.72 1086.37,-831.59 1092.83,-834.3"/>
</g>
<!-- N23 -->
<g id="node23" class="node">
<title>N23</title>
<path fill="none" stroke="black" d="M1084.46,-734.25C1084.46,-734.25 928.21,-734.25 928.21,-734.25 922.21,-734.25 916.21,-728.25 916.21,-722.25 916.21,-722.25 916.21,-710.25 916.21,-710.25 916.21,-704.25 922.21,-698.25 928.21,-698.25 928.21,-698.25 1084.46,-698.25 1084.46,-698.25 1090.46,-698.25 1096.46,-704.25 1096.46,-710.25 1096.46,-710.25 1096.46,-722.25 1096.46,-722.25 1096.46,-728.25 1090.46,-734.25 1084.46,-734.25"/>
<text xml:space="preserve" text-anchor="middle" x="1006.33" y="-710.83" font-family="Helvetica,sans-Serif" font-size="14.00">cl_hash(): Reset code table</text>
</g>
<!-- N22&#45;&gt;N23 -->
<g id="edge29" class="edge">
<title>N22&#45;&gt;N23</title>
<path fill="none" stroke="black" d="M1082.11,-785.65C1068.2,-773.09 1049.21,-755.95 1033.72,-741.97"/>
<polygon fill="black" stroke="black" points="1036.42,-739.69 1026.65,-735.59 1031.73,-744.89 1036.42,-739.69"/>
<text xml:space="preserve" text-anchor="middle" x="1115.59" y="-754.7" font-family="Helvetica,sans-Serif" font-size="14.00">cl_hash chamado</text>
</g>
<!-- N24 -->
<g id="node24" class="node">
<title>N24</title>
<path fill="none" stroke="black" d="M1348.08,-734.25C1348.08,-734.25 1126.58,-734.25 1126.58,-734.25 1120.58,-734.25 1114.58,-728.25 1114.58,-722.25 1114.58,-722.25 1114.58,-710.25 1114.58,-710.25 1114.58,-704.25 1120.58,-698.25 1126.58,-698.25 1126.58,-698.25 1348.08,-698.25 1348.08,-698.25 1354.08,-698.25 1360.08,-704.25 1360.08,-710.25 1360.08,-710.25 1360.08,-722.25 1360.08,-722.25 1360.08,-728.25 1354.08,-734.25 1348.08,-734.25"/>
<text xml:space="preserve" text-anchor="middle" x="1237.33" y="-710.83" font-family="Helvetica,sans-Serif" font-size="14.00">output(): Manipulacao de bits e escrita</text>
</g>
<!-- N22&#45;&gt;N24 -->
<g id="edge30" class="edge">
<title>N22&#45;&gt;N24</title>
<path fill="none" stroke="black" d="M1141.03,-785.61C1151.77,-780.4 1163.21,-774.36 1173.33,-768 1185.62,-760.27 1198.31,-750.61 1209.12,-741.8"/>
<polygon fill="black" stroke="black" points="1211.09,-744.71 1216.54,-735.63 1206.61,-739.33 1211.09,-744.71"/>
<text xml:space="preserve" text-anchor="middle" x="1241.15" y="-754.7" font-family="Helvetica,sans-Serif" font-size="14.00">output(CLEAR)</text>
</g>
</g>
</svg>
