<?xml version="1.0" encoding="UTF-8" standalone="no"?>
<!DOCTYPE svg PUBLIC "-//W3C//DTD SVG 1.1//EN"
 "http://www.w3.org/Graphics/SVG/1.1/DTD/svg11.dtd">
<!-- Generated by graphviz version 13.1.2 (20250808.2320)
 -->
<!-- Title: CFG Pages: 1 -->
<svg width="1175pt" height="955pt"
 viewBox="0.00 0.00 1175.00 955.00" xmlns="http://www.w3.org/2000/svg" xmlns:xlink="http://www.w3.org/1999/xlink">
<g id="graph0" class="graph" transform="scale(1 1) rotate(0) translate(4 950.75)">
<title>CFG</title>
<polygon fill="white" stroke="none" points="-4,4 -4,-950.75 1171.25,-950.75 1171.25,4 -4,4"/>
<!-- N1 -->
<g id="node1" class="node">
<title>N1</title>
<path fill="none" stroke="black" d="M876.12,-946.75C876.12,-946.75 796.38,-946.75 796.38,-946.75 790.38,-946.75 784.38,-940.75 784.38,-934.75 784.38,-934.75 784.38,-922.75 784.38,-922.75 784.38,-916.75 790.38,-910.75 796.38,-910.75 796.38,-910.75 876.12,-910.75 876.12,-910.75 882.12,-910.75 888.12,-916.75 888.12,-922.75 888.12,-922.75 888.12,-934.75 888.12,-934.75 888.12,-940.75 882.12,-946.75 876.12,-946.75"/>
<text xml:space="preserve" text-anchor="middle" x="836.25" y="-923.33" font-family="Helvetica,sans-Serif" font-size="14.00">Main: sort(20);</text>
</g>
<!-- N2 -->
<g id="node2" class="node">
<title>N2</title>
<path fill="none" stroke="black" d="M884,-873.75C884,-873.75 788.5,-873.75 788.5,-873.75 782.5,-873.75 776.5,-867.75 776.5,-861.75 776.5,-861.75 776.5,-830.5 776.5,-830.5 776.5,-824.5 782.5,-818.5 788.5,-818.5 788.5,-818.5 884,-818.5 884,-818.5 890,-818.5 896,-824.5 896,-830.5 896,-830.5 896,-861.75 896,-861.75 896,-867.75 890,-873.75 884,-873.75"/>
<text xml:space="preserve" text-anchor="middle" x="836.25" y="-856.45" font-family="Helvetica,sans-Serif" font-size="14.00">sort: Inicializacao</text>
<text xml:space="preserve" text-anchor="middle" x="836.25" y="-840.7" font-family="Helvetica,sans-Serif" font-size="14.00">i, ir=n, j, k, l=1</text>
<text xml:space="preserve" text-anchor="middle" x="836.25" y="-824.95" font-family="Helvetica,sans-Serif" font-size="14.00">jstack=0, flag=0</text>
</g>
<!-- N1&#45;&gt;N2 -->
<g id="edge1" class="edge">
<title>N1&#45;&gt;N2</title>
<path fill="none" stroke="black" d="M836.25,-910.26C836.25,-902.91 836.25,-894.07 836.25,-885.35"/>
<polygon fill="black" stroke="black" points="839.75,-885.62 836.25,-875.62 832.75,-885.62 839.75,-885.62"/>
</g>
<!-- N3 -->
<g id="node3" class="node">
<title>N3</title>
<path fill="none" stroke="black" d="M893.38,-781.5C893.38,-781.5 779.12,-781.5 779.12,-781.5 773.12,-781.5 767.12,-775.5 767.12,-769.5 767.12,-769.5 767.12,-757.5 767.12,-757.5 767.12,-751.5 773.12,-745.5 779.12,-745.5 779.12,-745.5 893.38,-745.5 893.38,-745.5 899.38,-745.5 905.38,-751.5 905.38,-757.5 905.38,-757.5 905.38,-769.5 905.38,-769.5 905.38,-775.5 899.38,-781.5 893.38,-781.5"/>
<text xml:space="preserve" text-anchor="middle" x="836.25" y="-758.08" font-family="Helvetica,sans-Serif" font-size="14.00">Loop externo: for (;;)</text>
</g>
<!-- N2&#45;&gt;N3 -->
<g id="edge2" class="edge">
<title>N2&#45;&gt;N3</title>
<path fill="none" stroke="black" d="M836.25,-818.28C836.25,-810.15 836.25,-801.2 836.25,-792.98"/>
<polygon fill="black" stroke="black" points="839.75,-793.13 836.25,-783.13 832.75,-793.13 839.75,-793.13"/>
</g>
<!-- N4 -->
<g id="node4" class="node">
<title>N4</title>
<path fill="none" stroke="black" d="M584.12,-708.5C584.12,-708.5 522.38,-708.5 522.38,-708.5 516.38,-708.5 510.38,-702.5 510.38,-696.5 510.38,-696.5 510.38,-684.5 510.38,-684.5 510.38,-678.5 516.38,-672.5 522.38,-672.5 522.38,-672.5 584.12,-672.5 584.12,-672.5 590.12,-672.5 596.12,-678.5 596.12,-684.5 596.12,-684.5 596.12,-696.5 596.12,-696.5 596.12,-702.5 590.12,-708.5 584.12,-708.5"/>
<text xml:space="preserve" text-anchor="middle" x="553.25" y="-685.08" font-family="Helvetica,sans-Serif" font-size="14.00">if (ir &#45; l &lt; M)</text>
</g>
<!-- N3&#45;&gt;N4 -->
<g id="edge3" class="edge">
<title>N3&#45;&gt;N4</title>
<path fill="none" stroke="black" d="M766.66,-745.04C717.62,-732.74 652.9,-716.5 607.64,-705.15"/>
<polygon fill="black" stroke="black" points="608.59,-701.78 598.04,-702.74 606.89,-708.57 608.59,-701.78"/>
</g>
<!-- N5 -->
<g id="node5" class="node">
<title>N5</title>
<path fill="none" stroke="black" d="M611.88,-620.75C611.88,-620.75 494.62,-620.75 494.62,-620.75 488.62,-620.75 482.62,-614.75 482.62,-608.75 482.62,-608.75 482.62,-596.75 482.62,-596.75 482.62,-590.75 488.62,-584.75 494.62,-584.75 494.62,-584.75 611.88,-584.75 611.88,-584.75 617.88,-584.75 623.88,-590.75 623.88,-596.75 623.88,-596.75 623.88,-608.75 623.88,-608.75 623.88,-614.75 617.88,-620.75 611.88,-620.75"/>
<text xml:space="preserve" text-anchor="middle" x="553.25" y="-597.33" font-family="Helvetica,sans-Serif" font-size="14.00">Insertion Sort: j = l+1</text>
</g>
<!-- N4&#45;&gt;N5 -->
<g id="edge4" class="edge">
<title>N4&#45;&gt;N5</title>
<path fill="none" stroke="black" d="M553.25,-672.15C553.25,-660.76 553.25,-645.59 553.25,-632.43"/>
<polygon fill="black" stroke="black" points="556.75,-632.59 553.25,-622.59 549.75,-632.59 556.75,-632.59"/>
<text xml:space="preserve" text-anchor="middle" x="564.88" y="-641.2" font-family="Helvetica,sans-Serif" font-size="14.00">true</text>
</g>
<!-- N15 -->
<g id="node15" class="node">
<title>N15</title>
<path fill="none" stroke="black" d="M450.88,-620.75C450.88,-620.75 135.62,-620.75 135.62,-620.75 129.62,-620.75 123.62,-614.75 123.62,-608.75 123.62,-608.75 123.62,-596.75 123.62,-596.75 123.62,-590.75 129.62,-584.75 135.62,-584.75 135.62,-584.75 450.88,-584.75 450.88,-584.75 456.88,-584.75 462.88,-590.75 462.88,-596.75 462.88,-596.75 462.88,-608.75 462.88,-608.75 462.88,-614.75 456.88,-620.75 450.88,-620.75"/>
<text xml:space="preserve" text-anchor="middle" x="293.25" y="-597.33" font-family="Helvetica,sans-Serif" font-size="14.00">Quicksort: k = (l+ir)&gt;&gt;1; SWAPs; i=l+1; j=ir; a=arr[l+1]</text>
</g>
<!-- N4&#45;&gt;N15 -->
<g id="edge5" class="edge">
<title>N4&#45;&gt;N15</title>
<path fill="none" stroke="black" d="M510.02,-675.24C468.23,-661.46 404.41,-640.41 356.82,-624.72"/>
<polygon fill="black" stroke="black" points="358.05,-621.44 347.45,-621.63 355.85,-628.08 358.05,-621.44"/>
<text xml:space="preserve" text-anchor="middle" x="460.79" y="-641.2" font-family="Helvetica,sans-Serif" font-size="14.00">false</text>
</g>
<!-- N6 -->
<g id="node6" class="node">
<title>N6</title>
<path fill="none" stroke="black" d="M641.88,-547.75C641.88,-547.75 464.62,-547.75 464.62,-547.75 458.62,-547.75 452.62,-541.75 452.62,-535.75 452.62,-535.75 452.62,-523.75 452.62,-523.75 452.62,-517.75 458.62,-511.75 464.62,-511.75 464.62,-511.75 641.88,-511.75 641.88,-511.75 647.88,-511.75 653.88,-517.75 653.88,-523.75 653.88,-523.75 653.88,-535.75 653.88,-535.75 653.88,-541.75 647.88,-547.75 641.88,-547.75"/>
<text xml:space="preserve" text-anchor="middle" x="553.25" y="-524.33" font-family="Helvetica,sans-Serif" font-size="14.00">Loop externo (Insertion): j &lt;= ir</text>
</g>
<!-- N5&#45;&gt;N6 -->
<g id="edge6" class="edge">
<title>N5&#45;&gt;N6</title>
<path fill="none" stroke="black" d="M553.25,-584.56C553.25,-576.98 553.25,-567.85 553.25,-559.29"/>
<polygon fill="black" stroke="black" points="556.75,-559.29 553.25,-549.29 549.75,-559.29 556.75,-559.29"/>
</g>
<!-- N7 -->
<g id="node7" class="node">
<title>N7</title>
<path fill="none" stroke="black" d="M595,-460C595,-460 511.5,-460 511.5,-460 505.5,-460 499.5,-454 499.5,-448 499.5,-448 499.5,-436 499.5,-436 499.5,-430 505.5,-424 511.5,-424 511.5,-424 595,-424 595,-424 601,-424 607,-430 607,-436 607,-436 607,-448 607,-448 607,-454 601,-460 595,-460"/>
<text xml:space="preserve" text-anchor="middle" x="553.25" y="-436.57" font-family="Helvetica,sans-Serif" font-size="14.00">a = arr[j]; i = j&#45;1</text>
</g>
<!-- N6&#45;&gt;N7 -->
<g id="edge7" class="edge">
<title>N6&#45;&gt;N7</title>
<path fill="none" stroke="black" d="M553.25,-511.4C553.25,-500.01 553.25,-484.84 553.25,-471.68"/>
<polygon fill="black" stroke="black" points="556.75,-471.84 553.25,-461.84 549.75,-471.84 556.75,-471.84"/>
<text xml:space="preserve" text-anchor="middle" x="564.88" y="-480.45" font-family="Helvetica,sans-Serif" font-size="14.00">true</text>
</g>
<!-- N12 -->
<g id="node12" class="node">
<title>N12</title>
<path fill="none" stroke="black" d="M765,-460C765,-460 687.5,-460 687.5,-460 681.5,-460 675.5,-454 675.5,-448 675.5,-448 675.5,-436 675.5,-436 675.5,-430 681.5,-424 687.5,-424 687.5,-424 765,-424 765,-424 771,-424 777,-430 777,-436 777,-436 777,-448 777,-448 777,-454 771,-460 765,-460"/>
<text xml:space="preserve" text-anchor="middle" x="726.25" y="-436.57" font-family="Helvetica,sans-Serif" font-size="14.00">if (jstack == 0)</text>
</g>
<!-- N6&#45;&gt;N12 -->
<g id="edge8" class="edge">
<title>N6&#45;&gt;N12</title>
<path fill="none" stroke="black" d="M588.26,-511.4C614.9,-498.19 651.79,-479.9 680.73,-465.56"/>
<polygon fill="black" stroke="black" points="682.23,-468.72 689.64,-461.15 679.13,-462.45 682.23,-468.72"/>
<text xml:space="preserve" text-anchor="middle" x="669.5" y="-480.45" font-family="Helvetica,sans-Serif" font-size="14.00">false</text>
</g>
<!-- N8 -->
<g id="node8" class="node">
<title>N8</title>
<path fill="none" stroke="black" d="M605.5,-372.25C605.5,-372.25 501,-372.25 501,-372.25 495,-372.25 489,-366.25 489,-360.25 489,-360.25 489,-348.25 489,-348.25 489,-342.25 495,-336.25 501,-336.25 501,-336.25 605.5,-336.25 605.5,-336.25 611.5,-336.25 617.5,-342.25 617.5,-348.25 617.5,-348.25 617.5,-360.25 617.5,-360.25 617.5,-366.25 611.5,-372.25 605.5,-372.25"/>
<text xml:space="preserve" text-anchor="middle" x="553.25" y="-348.82" font-family="Helvetica,sans-Serif" font-size="14.00">Loop interno: i &gt;= l</text>
</g>
<!-- N7&#45;&gt;N8 -->
<g id="edge9" class="edge">
<title>N7&#45;&gt;N8</title>
<path fill="none" stroke="black" d="M553.25,-423.65C553.25,-412.26 553.25,-397.09 553.25,-383.93"/>
<polygon fill="black" stroke="black" points="556.75,-384.09 553.25,-374.09 549.75,-384.09 556.75,-384.09"/>
</g>
<!-- N9 -->
<g id="node9" class="node">
<title>N9</title>
<path fill="none" stroke="black" d="M637.25,-284.5C637.25,-284.5 567.25,-284.5 567.25,-284.5 561.25,-284.5 555.25,-278.5 555.25,-272.5 555.25,-272.5 555.25,-260.5 555.25,-260.5 555.25,-254.5 561.25,-248.5 567.25,-248.5 567.25,-248.5 637.25,-248.5 637.25,-248.5 643.25,-248.5 649.25,-254.5 649.25,-260.5 649.25,-260.5 649.25,-272.5 649.25,-272.5 649.25,-278.5 643.25,-284.5 637.25,-284.5"/>
<text xml:space="preserve" text-anchor="middle" x="602.25" y="-261.07" font-family="Helvetica,sans-Serif" font-size="14.00">if (arr[i] &lt;= a)</text>
</g>
<!-- N8&#45;&gt;N9 -->
<g id="edge10" class="edge">
<title>N8&#45;&gt;N9</title>
<path fill="none" stroke="black" d="M563.17,-335.9C569.94,-324.04 579.05,-308.09 586.78,-294.58"/>
<polygon fill="black" stroke="black" points="589.68,-296.56 591.6,-286.14 583.6,-293.09 589.68,-296.56"/>
<text xml:space="preserve" text-anchor="middle" x="593.76" y="-304.95" font-family="Helvetica,sans-Serif" font-size="14.00">true</text>
</g>
<!-- N11 -->
<g id="node11" class="node">
<title>N11</title>
<path fill="none" stroke="black" d="M585.75,-196.75C585.75,-196.75 500.75,-196.75 500.75,-196.75 494.75,-196.75 488.75,-190.75 488.75,-184.75 488.75,-184.75 488.75,-172.75 488.75,-172.75 488.75,-166.75 494.75,-160.75 500.75,-160.75 500.75,-160.75 585.75,-160.75 585.75,-160.75 591.75,-160.75 597.75,-166.75 597.75,-172.75 597.75,-172.75 597.75,-184.75 597.75,-184.75 597.75,-190.75 591.75,-196.75 585.75,-196.75"/>
<text xml:space="preserve" text-anchor="middle" x="543.25" y="-173.32" font-family="Helvetica,sans-Serif" font-size="14.00">arr[i+1] = a; j++</text>
</g>
<!-- N8&#45;&gt;N11 -->
<g id="edge11" class="edge">
<title>N8&#45;&gt;N11</title>
<path fill="none" stroke="black" d="M541.26,-335.8C532.83,-322.43 522.28,-303.17 517.75,-284.5 511.42,-258.45 520.16,-228.75 529.09,-207.65"/>
<polygon fill="black" stroke="black" points="532.27,-209.1 533.2,-198.55 525.89,-206.22 532.27,-209.1"/>
<text xml:space="preserve" text-anchor="middle" x="532" y="-261.07" font-family="Helvetica,sans-Serif" font-size="14.00">false</text>
</g>
<!-- N10 -->
<g id="node10" class="node">
<title>N10</title>
<path fill="none" stroke="black" d="M725.75,-196.75C725.75,-196.75 628.75,-196.75 628.75,-196.75 622.75,-196.75 616.75,-190.75 616.75,-184.75 616.75,-184.75 616.75,-172.75 616.75,-172.75 616.75,-166.75 622.75,-160.75 628.75,-160.75 628.75,-160.75 725.75,-160.75 725.75,-160.75 731.75,-160.75 737.75,-166.75 737.75,-172.75 737.75,-172.75 737.75,-184.75 737.75,-184.75 737.75,-190.75 731.75,-196.75 725.75,-196.75"/>
<text xml:space="preserve" text-anchor="middle" x="677.25" y="-173.32" font-family="Helvetica,sans-Serif" font-size="14.00">arr[i+1] = arr[i]; i&#45;&#45;</text>
</g>
<!-- N9&#45;&gt;N10 -->
<g id="edge13" class="edge">
<title>N9&#45;&gt;N10</title>
<path fill="none" stroke="black" d="M611.98,-248.17C618.13,-237.93 626.63,-225.01 635.75,-214.75 638.85,-211.26 642.3,-207.82 645.86,-204.52"/>
<polygon fill="black" stroke="black" points="647.88,-207.41 653.07,-198.18 643.25,-202.15 647.88,-207.41"/>
<text xml:space="preserve" text-anchor="middle" x="650" y="-217.2" font-family="Helvetica,sans-Serif" font-size="14.00">false</text>
</g>
<!-- N9&#45;&gt;N11 -->
<g id="edge12" class="edge">
<title>N9&#45;&gt;N11</title>
<path fill="none" stroke="black" d="M559.48,-248.07C552.69,-243.39 546.57,-237.59 542.5,-230.5 538.66,-223.8 537.54,-215.74 537.72,-208.03"/>
<polygon fill="black" stroke="black" points="541.18,-208.63 538.67,-198.34 534.21,-207.95 541.18,-208.63"/>
<text xml:space="preserve" text-anchor="middle" x="577.38" y="-217.2" font-family="Helvetica,sans-Serif" font-size="14.00">true (break)</text>
</g>
<!-- N10&#45;&gt;N8 -->
<g id="edge14" class="edge">
<title>N10&#45;&gt;N8</title>
<path fill="none" stroke="black" d="M678.02,-197.17C678.18,-219.25 675.6,-257.64 658.25,-284.5 645.61,-304.06 625.23,-319.27 605.77,-330.35"/>
<polygon fill="black" stroke="black" points="604.19,-327.23 597.05,-335.06 607.52,-333.39 604.19,-327.23"/>
</g>
<!-- N11&#45;&gt;N6 -->
<g id="edge15" class="edge">
<title>N11&#45;&gt;N6</title>
<path fill="none" stroke="black" d="M510.84,-196.98C487.92,-211.76 461.25,-235.43 461.25,-265.5 461.25,-443 461.25,-443 461.25,-443 461.25,-470.01 482.73,-490.94 504.93,-505.35"/>
<polygon fill="black" stroke="black" points="503.11,-508.34 513.47,-510.54 506.74,-502.36 503.11,-508.34"/>
</g>
<!-- N13 -->
<g id="node13" class="node">
<title>N13</title>
<path fill="none" stroke="black" d="M805.12,-372.25C805.12,-372.25 647.38,-372.25 647.38,-372.25 641.38,-372.25 635.38,-366.25 635.38,-360.25 635.38,-360.25 635.38,-348.25 635.38,-348.25 635.38,-342.25 641.38,-336.25 647.38,-336.25 647.38,-336.25 805.12,-336.25 805.12,-336.25 811.12,-336.25 817.12,-342.25 817.12,-348.25 817.12,-348.25 817.12,-360.25 817.12,-360.25 817.12,-366.25 811.12,-372.25 805.12,-372.25"/>
<text xml:space="preserve" text-anchor="middle" x="726.25" y="-348.82" font-family="Helvetica,sans-Serif" font-size="14.00">break; (fim do loop externo)</text>
</g>
<!-- N12&#45;&gt;N13 -->
<g id="edge16" class="edge">
<title>N12&#45;&gt;N13</title>
<path fill="none" stroke="black" d="M726.25,-423.65C726.25,-412.26 726.25,-397.09 726.25,-383.93"/>
<polygon fill="black" stroke="black" points="729.75,-384.09 726.25,-374.09 722.75,-384.09 729.75,-384.09"/>
<text xml:space="preserve" text-anchor="middle" x="737.88" y="-392.7" font-family="Helvetica,sans-Serif" font-size="14.00">true</text>
</g>
<!-- N14 -->
<g id="node14" class="node">
<title>N14</title>
<path fill="none" stroke="black" d="M1127.25,-372.25C1127.25,-372.25 847.25,-372.25 847.25,-372.25 841.25,-372.25 835.25,-366.25 835.25,-360.25 835.25,-360.25 835.25,-348.25 835.25,-348.25 835.25,-342.25 841.25,-336.25 847.25,-336.25 847.25,-336.25 1127.25,-336.25 1127.25,-336.25 1133.25,-336.25 1139.25,-342.25 1139.25,-348.25 1139.25,-348.25 1139.25,-360.25 1139.25,-360.25 1139.25,-366.25 1133.25,-372.25 1127.25,-372.25"/>
<text xml:space="preserve" text-anchor="middle" x="987.25" y="-348.82" font-family="Helvetica,sans-Serif" font-size="14.00">Pop da pilha: ir=istack[jstack&#45;&#45;]; l=istack[jstack&#45;&#45;]</text>
</g>
<!-- N12&#45;&gt;N14 -->
<g id="edge17" class="edge">
<title>N12&#45;&gt;N14</title>
<path fill="none" stroke="black" d="M768.87,-423.61C794.9,-413.29 828.99,-400.29 859.75,-390.25 875.26,-385.18 891.99,-380.23 908.07,-375.72"/>
<polygon fill="black" stroke="black" points="908.91,-379.12 917.61,-373.08 907.04,-372.38 908.91,-379.12"/>
<text xml:space="preserve" text-anchor="middle" x="874" y="-392.7" font-family="Helvetica,sans-Serif" font-size="14.00">false</text>
</g>
<!-- N25 -->
<g id="node25" class="node">
<title>N25</title>
<path fill="none" stroke="black" d="M822.5,-284.5C822.5,-284.5 718,-284.5 718,-284.5 712,-284.5 706,-278.5 706,-272.5 706,-272.5 706,-260.5 706,-260.5 706,-254.5 712,-248.5 718,-248.5 718,-248.5 822.5,-248.5 822.5,-248.5 828.5,-248.5 834.5,-254.5 834.5,-260.5 834.5,-260.5 834.5,-272.5 834.5,-272.5 834.5,-278.5 828.5,-284.5 822.5,-284.5"/>
<text xml:space="preserve" text-anchor="middle" x="770.25" y="-261.07" font-family="Helvetica,sans-Serif" font-size="14.00">Fim da funcao sort</text>
</g>
<!-- N13&#45;&gt;N25 -->
<g id="edge18" class="edge">
<title>N13&#45;&gt;N25</title>
<path fill="none" stroke="black" d="M735.15,-335.9C741.18,-324.16 749.26,-308.41 756.15,-294.98"/>
<polygon fill="black" stroke="black" points="759.22,-296.67 760.67,-286.17 752.99,-293.47 759.22,-296.67"/>
</g>
<!-- N14&#45;&gt;N3 -->
<g id="edge19" class="edge">
<title>N14&#45;&gt;N3</title>
<path fill="none" stroke="black" d="M953.17,-372.49C929.52,-387.13 902.25,-410.61 902.25,-441 902.25,-691.5 902.25,-691.5 902.25,-691.5 902.25,-710.31 889.66,-726.24 875.48,-738.21"/>
<polygon fill="black" stroke="black" points="873.5,-735.31 867.74,-744.21 877.79,-740.85 873.5,-735.31"/>
</g>
<!-- N16 -->
<g id="node16" class="node">
<title>N16</title>
<path fill="none" stroke="black" d="M360.25,-547.75C360.25,-547.75 224.25,-547.75 224.25,-547.75 218.25,-547.75 212.25,-541.75 212.25,-535.75 212.25,-535.75 212.25,-523.75 212.25,-523.75 212.25,-517.75 218.25,-511.75 224.25,-511.75 224.25,-511.75 360.25,-511.75 360.25,-511.75 366.25,-511.75 372.25,-517.75 372.25,-523.75 372.25,-523.75 372.25,-535.75 372.25,-535.75 372.25,-541.75 366.25,-547.75 360.25,-547.75"/>
<text xml:space="preserve" text-anchor="middle" x="292.25" y="-524.33" font-family="Helvetica,sans-Serif" font-size="14.00">Loop de particao: for (;;)</text>
</g>
<!-- N15&#45;&gt;N16 -->
<g id="edge20" class="edge">
<title>N15&#45;&gt;N16</title>
<path fill="none" stroke="black" d="M293.01,-584.56C292.9,-576.98 292.77,-567.85 292.65,-559.29"/>
<polygon fill="black" stroke="black" points="296.15,-559.24 292.51,-549.29 289.15,-559.34 296.15,-559.24"/>
</g>
<!-- N17 -->
<g id="node17" class="node">
<title>N17</title>
<path fill="none" stroke="black" d="M360.25,-460C360.25,-460 224.25,-460 224.25,-460 218.25,-460 212.25,-454 212.25,-448 212.25,-448 212.25,-436 212.25,-436 212.25,-430 218.25,-424 224.25,-424 224.25,-424 360.25,-424 360.25,-424 366.25,-424 372.25,-430 372.25,-436 372.25,-436 372.25,-448 372.25,-448 372.25,-454 366.25,-460 360.25,-460"/>
<text xml:space="preserve" text-anchor="middle" x="292.25" y="-436.57" font-family="Helvetica,sans-Serif" font-size="14.00">i++; while (arr[i] &lt; a) i++</text>
</g>
<!-- N16&#45;&gt;N17 -->
<g id="edge21" class="edge">
<title>N16&#45;&gt;N17</title>
<path fill="none" stroke="black" d="M292.25,-511.4C292.25,-500.01 292.25,-484.84 292.25,-471.68"/>
<polygon fill="black" stroke="black" points="295.75,-471.84 292.25,-461.84 288.75,-471.84 295.75,-471.84"/>
</g>
<!-- N18 -->
<g id="node18" class="node">
<title>N18</title>
<path fill="none" stroke="black" d="M352.75,-372.25C352.75,-372.25 231.75,-372.25 231.75,-372.25 225.75,-372.25 219.75,-366.25 219.75,-360.25 219.75,-360.25 219.75,-348.25 219.75,-348.25 219.75,-342.25 225.75,-336.25 231.75,-336.25 231.75,-336.25 352.75,-336.25 352.75,-336.25 358.75,-336.25 364.75,-342.25 364.75,-348.25 364.75,-348.25 364.75,-360.25 364.75,-360.25 364.75,-366.25 358.75,-372.25 352.75,-372.25"/>
<text xml:space="preserve" text-anchor="middle" x="292.25" y="-348.82" font-family="Helvetica,sans-Serif" font-size="14.00">j&#45;&#45;; while (arr[j] &gt; a) j&#45;&#45;</text>
</g>
<!-- N17&#45;&gt;N18 -->
<g id="edge22" class="edge">
<title>N17&#45;&gt;N18</title>
<path fill="none" stroke="black" d="M292.25,-423.65C292.25,-412.26 292.25,-397.09 292.25,-383.93"/>
<polygon fill="black" stroke="black" points="295.75,-384.09 292.25,-374.09 288.75,-384.09 295.75,-384.09"/>
</g>
<!-- N19 -->
<g id="node19" class="node">
<title>N19</title>
<path fill="none" stroke="black" d="M308.88,-284.5C308.88,-284.5 275.62,-284.5 275.62,-284.5 269.62,-284.5 263.62,-278.5 263.62,-272.5 263.62,-272.5 263.62,-260.5 263.62,-260.5 263.62,-254.5 269.62,-248.5 275.62,-248.5 275.62,-248.5 308.88,-248.5 308.88,-248.5 314.88,-248.5 320.88,-254.5 320.88,-260.5 320.88,-260.5 320.88,-272.5 320.88,-272.5 320.88,-278.5 314.88,-284.5 308.88,-284.5"/>
<text xml:space="preserve" text-anchor="middle" x="292.25" y="-261.07" font-family="Helvetica,sans-Serif" font-size="14.00">if (j &lt; i)</text>
</g>
<!-- N18&#45;&gt;N19 -->
<g id="edge23" class="edge">
<title>N18&#45;&gt;N19</title>
<path fill="none" stroke="black" d="M292.25,-335.9C292.25,-324.51 292.25,-309.34 292.25,-296.18"/>
<polygon fill="black" stroke="black" points="295.75,-296.34 292.25,-286.34 288.75,-296.34 295.75,-296.34"/>
</g>
<!-- N20 -->
<g id="node20" class="node">
<title>N20</title>
<path fill="none" stroke="black" d="M230.38,-196.75C230.38,-196.75 128.12,-196.75 128.12,-196.75 122.12,-196.75 116.12,-190.75 116.12,-184.75 116.12,-184.75 116.12,-172.75 116.12,-172.75 116.12,-166.75 122.12,-160.75 128.12,-160.75 128.12,-160.75 230.38,-160.75 230.38,-160.75 236.38,-160.75 242.38,-166.75 242.38,-172.75 242.38,-172.75 242.38,-184.75 242.38,-184.75 242.38,-190.75 236.38,-196.75 230.38,-196.75"/>
<text xml:space="preserve" text-anchor="middle" x="179.25" y="-173.32" font-family="Helvetica,sans-Serif" font-size="14.00">SWAP(arr[i], arr[j])</text>
</g>
<!-- N19&#45;&gt;N20 -->
<g id="edge25" class="edge">
<title>N19&#45;&gt;N20</title>
<path fill="none" stroke="black" d="M269.38,-248.15C252.61,-235.42 229.62,-217.98 211.06,-203.89"/>
<polygon fill="black" stroke="black" points="213.37,-201.25 203.29,-197.99 209.14,-206.83 213.37,-201.25"/>
<text xml:space="preserve" text-anchor="middle" x="260.12" y="-217.2" font-family="Helvetica,sans-Serif" font-size="14.00">false</text>
</g>
<!-- N21 -->
<g id="node21" class="node">
<title>N21</title>
<path fill="none" stroke="black" d="M458.38,-196.75C458.38,-196.75 272.12,-196.75 272.12,-196.75 266.12,-196.75 260.12,-190.75 260.12,-184.75 260.12,-184.75 260.12,-172.75 260.12,-172.75 260.12,-166.75 266.12,-160.75 272.12,-160.75 272.12,-160.75 458.38,-160.75 458.38,-160.75 464.38,-160.75 470.38,-166.75 470.38,-172.75 470.38,-172.75 470.38,-184.75 470.38,-184.75 470.38,-190.75 464.38,-196.75 458.38,-196.75"/>
<text xml:space="preserve" text-anchor="middle" x="365.25" y="-173.32" font-family="Helvetica,sans-Serif" font-size="14.00">arr[l+1]=arr[j]; arr[j]=a; jstack+=2</text>
</g>
<!-- N19&#45;&gt;N21 -->
<g id="edge24" class="edge">
<title>N19&#45;&gt;N21</title>
<path fill="none" stroke="black" d="M307.02,-248.15C317.41,-235.94 331.49,-219.4 343.21,-205.64"/>
<polygon fill="black" stroke="black" points="345.7,-208.11 349.52,-198.23 340.37,-203.58 345.7,-208.11"/>
<text xml:space="preserve" text-anchor="middle" x="370.16" y="-217.2" font-family="Helvetica,sans-Serif" font-size="14.00">true (break)</text>
</g>
<!-- N20&#45;&gt;N16 -->
<g id="edge26" class="edge">
<title>N20&#45;&gt;N16</title>
<path fill="none" stroke="black" d="M179.57,-197.16C179.86,-214.48 180.25,-241.83 180.25,-265.5 180.25,-443 180.25,-443 180.25,-443 180.25,-472.21 204.56,-492.81 230.53,-506.49"/>
<polygon fill="black" stroke="black" points="228.63,-509.46 239.15,-510.73 231.72,-503.18 228.63,-509.46"/>
</g>
<!-- N22 -->
<g id="node22" class="node">
<title>N22</title>
<path fill="none" stroke="black" d="M403.62,-123.75C403.62,-123.75 326.88,-123.75 326.88,-123.75 320.88,-123.75 314.88,-117.75 314.88,-111.75 314.88,-111.75 314.88,-99.75 314.88,-99.75 314.88,-93.75 320.88,-87.75 326.88,-87.75 326.88,-87.75 403.62,-87.75 403.62,-87.75 409.62,-87.75 415.62,-93.75 415.62,-99.75 415.62,-99.75 415.62,-111.75 415.62,-111.75 415.62,-117.75 409.62,-123.75 403.62,-123.75"/>
<text xml:space="preserve" text-anchor="middle" x="365.25" y="-100.33" font-family="Helvetica,sans-Serif" font-size="14.00">if (ir&#45;i+1 &gt;= j&#45;l)</text>
</g>
<!-- N21&#45;&gt;N22 -->
<g id="edge27" class="edge">
<title>N21&#45;&gt;N22</title>
<path fill="none" stroke="black" d="M365.25,-160.56C365.25,-152.98 365.25,-143.85 365.25,-135.29"/>
<polygon fill="black" stroke="black" points="368.75,-135.29 365.25,-125.29 361.75,-135.29 368.75,-135.29"/>
</g>
<!-- N23 -->
<g id="node23" class="node">
<title>N23</title>
<path fill="none" stroke="black" d="M320.5,-36C320.5,-36 12,-36 12,-36 6,-36 0,-30 0,-24 0,-24 0,-12 0,-12 0,-6 6,0 12,0 12,0 320.5,0 320.5,0 326.5,0 332.5,-6 332.5,-12 332.5,-12 332.5,-24 332.5,-24 332.5,-30 326.5,-36 320.5,-36"/>
<text xml:space="preserve" text-anchor="middle" x="166.25" y="-12.57" font-family="Helvetica,sans-Serif" font-size="14.00">Push direita: istack[jstack]=ir; istack[jstack&#45;1]=i; ir=j&#45;1</text>
</g>
<!-- N22&#45;&gt;N23 -->
<g id="edge28" class="edge">
<title>N22&#45;&gt;N23</title>
<path fill="none" stroke="black" d="M324.98,-87.4C293.93,-74.02 250.78,-55.42 217.3,-41"/>
<polygon fill="black" stroke="black" points="218.76,-37.82 208.19,-37.07 215.99,-44.24 218.76,-37.82"/>
<text xml:space="preserve" text-anchor="middle" x="295.2" y="-56.45" font-family="Helvetica,sans-Serif" font-size="14.00">true</text>
</g>
<!-- N24 -->
<g id="node24" class="node">
<title>N24</title>
<path fill="none" stroke="black" d="M1117.75,-36C1117.75,-36 798.75,-36 798.75,-36 792.75,-36 786.75,-30 786.75,-24 786.75,-24 786.75,-12 786.75,-12 786.75,-6 792.75,0 798.75,0 798.75,0 1117.75,0 1117.75,0 1123.75,0 1129.75,-6 1129.75,-12 1129.75,-12 1129.75,-24 1129.75,-24 1129.75,-30 1123.75,-36 1117.75,-36"/>
<text xml:space="preserve" text-anchor="middle" x="958.25" y="-12.57" font-family="Helvetica,sans-Serif" font-size="14.00">Push esquerda: istack[jstack]=j&#45;1; istack[jstack&#45;1]=l; l=i</text>
</g>
<!-- N22&#45;&gt;N24 -->
<g id="edge29" class="edge">
<title>N22&#45;&gt;N24</title>
<path fill="none" stroke="black" d="M416.07,-97.4C506.22,-84.37 696.82,-56.8 826.24,-38.09"/>
<polygon fill="black" stroke="black" points="826.51,-41.59 835.9,-36.69 825.5,-34.66 826.51,-41.59"/>
<text xml:space="preserve" text-anchor="middle" x="729.11" y="-56.45" font-family="Helvetica,sans-Serif" font-size="14.00">false</text>
</g>
<!-- N23&#45;&gt;N3 -->
<g id="edge30" class="edge">
<title>N23&#45;&gt;N3</title>
<path fill="none" stroke="black" d="M135.87,-36.31C113.97,-51.28 88.25,-75.17 88.25,-104.75 88.25,-691.5 88.25,-691.5 88.25,-691.5 88.25,-757.93 561.9,-763.6 755.39,-763.14"/>
<polygon fill="black" stroke="black" points="755.38,-766.64 765.37,-763.11 755.36,-759.64 755.38,-766.64"/>
</g>
<!-- N24&#45;&gt;N3 -->
<g id="edge31" class="edge">
<title>N24&#45;&gt;N3</title>
<path fill="none" stroke="black" d="M1109.31,-36.41C1142.13,-48.96 1167.25,-69.94 1167.25,-104.75 1167.25,-691.5 1167.25,-691.5 1167.25,-691.5 1167.25,-742.52 1014.99,-756.99 917.01,-761.03"/>
<polygon fill="black" stroke="black" points="917.01,-757.52 907.15,-761.4 917.28,-764.52 917.01,-757.52"/>
</g>
</g>
</svg>
