<?xml version="1.0" encoding="UTF-8" standalone="no"?>
<!DOCTYPE svg PUBLIC "-//W3C//DTD SVG 1.1//EN"
 "http://www.w3.org/Graphics/SVG/1.1/DTD/svg11.dtd">
<!-- Generated by graphviz version 13.1.2 (20250808.2320)
 -->
<!-- Title: DFG Pages: 1 -->
<svg width="1265pt" height="188pt"
 viewBox="0.00 0.00 1265.00 188.00" xmlns="http://www.w3.org/2000/svg" xmlns:xlink="http://www.w3.org/1999/xlink">
<g id="graph0" class="graph" transform="scale(1 1) rotate(0) translate(4 184)">
<title>DFG</title>
<polygon fill="white" stroke="none" points="-4,4 -4,-184 1261.12,-184 1261.12,4 -4,4"/>
<!-- arr -->
<g id="node1" class="node">
<title>arr</title>
<ellipse fill="none" stroke="black" cx="437.38" cy="-162" rx="27.3" ry="18"/>
<text xml:space="preserve" text-anchor="middle" x="437.38" y="-156.95" font-family="Times New Roman,serif" font-size="14.00">arr[]</text>
</g>
<!-- op_swap1 -->
<g id="node6" class="node">
<title>op_swap1</title>
<polygon fill="none" stroke="black" points="142.75,-108 0,-108 0,-72 142.75,-72 142.75,-108"/>
<text xml:space="preserve" text-anchor="middle" x="71.38" y="-84.95" font-family="Times New Roman,serif" font-size="14.00">SWAP(arr[k], arr[l+1])</text>
</g>
<!-- arr&#45;&gt;op_swap1 -->
<g id="edge2" class="edge">
<title>arr&#45;&gt;op_swap1</title>
<path fill="none" stroke="black" d="M411.76,-154.93C397.06,-151.54 378.22,-147.33 361.38,-144 272.01,-126.36 246.31,-125.86 154.14,-108.49"/>
<polygon fill="black" stroke="black" points="154.84,-105.06 144.36,-106.62 153.53,-111.93 154.84,-105.06"/>
</g>
<!-- op_swap2 -->
<g id="node7" class="node">
<title>op_swap2</title>
<polygon fill="none" stroke="black" points="290,-108 160.75,-108 160.75,-72 290,-72 290,-108"/>
<text xml:space="preserve" text-anchor="middle" x="225.38" y="-84.95" font-family="Times New Roman,serif" font-size="14.00">SWAP(arr[l], arr[ir])</text>
</g>
<!-- arr&#45;&gt;op_swap2 -->
<g id="edge3" class="edge">
<title>arr&#45;&gt;op_swap2</title>
<path fill="none" stroke="black" d="M413.47,-153.11C383.48,-143.21 330.92,-125.85 288.97,-112"/>
<polygon fill="black" stroke="black" points="290.3,-108.75 279.71,-108.94 288.11,-115.4 290.3,-108.75"/>
</g>
<!-- op_swap3 -->
<g id="node8" class="node">
<title>op_swap3</title>
<polygon fill="none" stroke="black" points="452.5,-108 308.25,-108 308.25,-72 452.5,-72 452.5,-108"/>
<text xml:space="preserve" text-anchor="middle" x="380.38" y="-84.95" font-family="Times New Roman,serif" font-size="14.00">SWAP(arr[l+1], arr[ir])</text>
</g>
<!-- arr&#45;&gt;op_swap3 -->
<g id="edge4" class="edge">
<title>arr&#45;&gt;op_swap3</title>
<path fill="none" stroke="black" d="M425.01,-145.81C418.16,-137.4 409.46,-126.72 401.56,-117.02"/>
<polygon fill="black" stroke="black" points="404.31,-114.84 395.28,-109.3 398.88,-119.26 404.31,-114.84"/>
</g>
<!-- op_swap4 -->
<g id="node9" class="node">
<title>op_swap4</title>
<polygon fill="none" stroke="black" points="610.25,-108 470.5,-108 470.5,-72 610.25,-72 610.25,-108"/>
<text xml:space="preserve" text-anchor="middle" x="540.38" y="-84.95" font-family="Times New Roman,serif" font-size="14.00">SWAP(arr[l], arr[l+1])</text>
</g>
<!-- arr&#45;&gt;op_swap4 -->
<g id="edge5" class="edge">
<title>arr&#45;&gt;op_swap4</title>
<path fill="none" stroke="black" d="M455.79,-148.49C469.53,-139.15 488.71,-126.11 505.34,-114.81"/>
<polygon fill="black" stroke="black" points="507.21,-117.77 513.52,-109.25 503.28,-111.98 507.21,-117.77"/>
</g>
<!-- op_assign_a -->
<g id="node10" class="node">
<title>op_assign_a</title>
<polygon fill="none" stroke="black" points="746.62,-108 666.12,-108 666.12,-72 746.62,-72 746.62,-108"/>
<text xml:space="preserve" text-anchor="middle" x="706.38" y="-84.95" font-family="Times New Roman,serif" font-size="14.00">a = arr[l+1]</text>
</g>
<!-- arr&#45;&gt;op_assign_a -->
<g id="edge6" class="edge">
<title>arr&#45;&gt;op_assign_a</title>
<path fill="none" stroke="black" d="M463,-155.24C503.44,-146.02 584.45,-127.04 652.38,-108 653.19,-107.77 654.01,-107.54 654.84,-107.3"/>
<polygon fill="black" stroke="black" points="655.71,-110.7 664.32,-104.51 653.73,-103.98 655.71,-110.7"/>
</g>
<!-- op_compare -->
<g id="node11" class="node">
<title>op_compare</title>
<polygon fill="none" stroke="black" points="789.88,-36 554.88,-36 554.88,0 789.88,0 789.88,-36"/>
<text xml:space="preserve" text-anchor="middle" x="672.38" y="-12.95" font-family="Times New Roman,serif" font-size="14.00">Comparacoes: arr[i] &lt; a, arr[j] &gt; a, j &lt; i</text>
</g>
<!-- arr&#45;&gt;op_compare -->
<g id="edge7" class="edge">
<title>arr&#45;&gt;op_compare</title>
<path fill="none" stroke="black" d="M464.54,-159.25C502.76,-155.53 572.91,-143.95 619.38,-108 639.56,-92.38 653.66,-66.72 662.21,-46.96"/>
<polygon fill="black" stroke="black" points="665.41,-48.39 665.93,-37.81 658.92,-45.75 665.41,-48.39"/>
</g>
<!-- istack -->
<g id="node2" class="node">
<title>istack</title>
<ellipse fill="none" stroke="black" cx="952.38" cy="-90" rx="38.56" ry="18"/>
<text xml:space="preserve" text-anchor="middle" x="952.38" y="-84.95" font-family="Times New Roman,serif" font-size="14.00">istack[]</text>
</g>
<!-- op_stack_pop -->
<g id="node13" class="node">
<title>op_stack_pop</title>
<polygon fill="none" stroke="black" points="1097.25,-36 807.5,-36 807.5,0 1097.25,0 1097.25,-36"/>
<text xml:space="preserve" text-anchor="middle" x="952.38" y="-12.95" font-family="Times New Roman,serif" font-size="14.00">Pop da pilha: ir=istack[jstack&#45;&#45;]; l=istack[jstack&#45;&#45;]</text>
</g>
<!-- istack&#45;&gt;op_stack_pop -->
<g id="edge9" class="edge">
<title>istack&#45;&gt;op_stack_pop</title>
<path fill="none" stroke="black" d="M952.38,-71.7C952.38,-64.41 952.38,-55.73 952.38,-47.54"/>
<polygon fill="black" stroke="black" points="955.88,-47.62 952.38,-37.62 948.88,-47.62 955.88,-47.62"/>
</g>
<!-- n -->
<g id="node3" class="node">
<title>n</title>
<ellipse fill="none" stroke="black" cx="1149.38" cy="-162" rx="27" ry="18"/>
<text xml:space="preserve" text-anchor="middle" x="1149.38" y="-156.95" font-family="Times New Roman,serif" font-size="14.00">n</text>
</g>
<!-- op_init -->
<g id="node5" class="node">
<title>op_init</title>
<polygon fill="none" stroke="black" points="1257.12,-108 1041.62,-108 1041.62,-72 1257.12,-72 1257.12,-108"/>
<text xml:space="preserve" text-anchor="middle" x="1149.38" y="-84.95" font-family="Times New Roman,serif" font-size="14.00">Inicializacao: i, ir, j, k, l, jstack, flag</text>
</g>
<!-- n&#45;&gt;op_init -->
<g id="edge1" class="edge">
<title>n&#45;&gt;op_init</title>
<path fill="none" stroke="black" d="M1149.38,-143.7C1149.38,-136.41 1149.38,-127.73 1149.38,-119.54"/>
<polygon fill="black" stroke="black" points="1152.88,-119.62 1149.38,-109.62 1145.88,-119.62 1152.88,-119.62"/>
</g>
<!-- temp -->
<g id="node4" class="node">
<title>temp</title>
<ellipse fill="none" stroke="black" cx="322.38" cy="-162" rx="29.86" ry="18"/>
<text xml:space="preserve" text-anchor="middle" x="322.38" y="-156.95" font-family="Times New Roman,serif" font-size="14.00">temp</text>
</g>
<!-- temp&#45;&gt;op_swap1 -->
<g id="edge11" class="edge">
<title>temp&#45;&gt;op_swap1</title>
<path fill="none" stroke="black" d="M295.51,-153.51C259.87,-143.57 195.56,-125.63 144.94,-111.51"/>
<polygon fill="black" stroke="black" points="146.06,-108.2 135.49,-108.88 144.18,-114.94 146.06,-108.2"/>
</g>
<!-- temp&#45;&gt;op_swap2 -->
<g id="edge12" class="edge">
<title>temp&#45;&gt;op_swap2</title>
<path fill="none" stroke="black" d="M303.67,-147.5C290.91,-138.29 273.65,-125.83 258.58,-114.96"/>
<polygon fill="black" stroke="black" points="260.92,-112.34 250.77,-109.32 256.83,-118.01 260.92,-112.34"/>
</g>
<!-- temp&#45;&gt;op_swap3 -->
<g id="edge13" class="edge">
<title>temp&#45;&gt;op_swap3</title>
<path fill="none" stroke="black" d="M335.25,-145.46C342.13,-137.16 350.78,-126.72 358.67,-117.2"/>
<polygon fill="black" stroke="black" points="361.26,-119.56 364.94,-109.63 355.87,-115.09 361.26,-119.56"/>
</g>
<!-- temp&#45;&gt;op_swap4 -->
<g id="edge14" class="edge">
<title>temp&#45;&gt;op_swap4</title>
<path fill="none" stroke="black" d="M348.24,-152.7C379.36,-142.7 432.76,-125.56 475.37,-111.87"/>
<polygon fill="black" stroke="black" points="476.34,-115.24 484.79,-108.85 474.2,-108.57 476.34,-115.24"/>
</g>
<!-- op_assign_a&#45;&gt;op_compare -->
<g id="edge8" class="edge">
<title>op_assign_a&#45;&gt;op_compare</title>
<path fill="none" stroke="black" d="M697.97,-71.7C694.26,-64.07 689.82,-54.92 685.68,-46.4"/>
<polygon fill="black" stroke="black" points="688.86,-44.93 681.34,-37.47 682.56,-47.99 688.86,-44.93"/>
</g>
<!-- op_stack_push -->
<g id="node12" class="node">
<title>op_stack_push</title>
<polygon fill="none" stroke="black" points="1104,-180 800.75,-180 800.75,-144 1104,-144 1104,-180"/>
<text xml:space="preserve" text-anchor="middle" x="952.38" y="-156.95" font-family="Times New Roman,serif" font-size="14.00">Push na pilha: istack[jstack] = ir; istack[jstack&#45;1] = l</text>
</g>
<!-- op_stack_push&#45;&gt;istack -->
<g id="edge10" class="edge">
<title>op_stack_push&#45;&gt;istack</title>
<path fill="none" stroke="black" d="M952.38,-143.7C952.38,-136.41 952.38,-127.73 952.38,-119.54"/>
<polygon fill="black" stroke="black" points="955.88,-119.62 952.38,-109.62 948.88,-119.62 955.88,-119.62"/>
</g>
</g>
</svg>
