<?xml version="1.0" encoding="UTF-8" standalone="no"?>
<!DOCTYPE svg PUBLIC "-//W3C//DTD SVG 1.1//EN"
 "http://www.w3.org/Graphics/SVG/1.1/DTD/svg11.dtd">
<!-- Generated by graphviz version 13.1.2 (20250808.2320)
 -->
<!-- Title: compress_DFG Pages: 1 -->
<svg width="620pt" height="116pt"
 viewBox="0.00 0.00 620.00 116.00" xmlns="http://www.w3.org/2000/svg" xmlns:xlink="http://www.w3.org/1999/xlink">
<g id="graph0" class="graph" transform="scale(1 1) rotate(0) translate(4 112)">
<title>compress_DFG</title>
<polygon fill="white" stroke="none" points="-4,4 -4,-112 616.24,-112 616.24,4 -4,4"/>
<!-- InCnt -->
<g id="node1" class="node">
<title>InCnt</title>
<ellipse fill="none" stroke="black" cx="59.07" cy="-90" rx="31.9" ry="18"/>
<text xml:space="preserve" text-anchor="middle" x="59.07" y="-84.95" font-family="Times New Roman,serif" font-size="14.00">InCnt</text>
</g>
<!-- cond3 -->
<g id="node6" class="node">
<title>cond3</title>
<polygon fill="none" stroke="black" points="150.07,-36 0,-18 150.07,0 300.14,-18 150.07,-36"/>
<text xml:space="preserve" text-anchor="middle" x="150.07" y="-12.95" font-family="Times New Roman,serif" font-size="14.00">free_ent &lt; maxmaxcode?</text>
</g>
<!-- InCnt&#45;&gt;cond3 -->
<g id="edge1" class="edge">
<title>InCnt&#45;&gt;cond3</title>
<path fill="none" stroke="black" d="M77.48,-74.83C90.09,-65.13 107.07,-52.08 121.43,-41.03"/>
<polygon fill="black" stroke="black" points="123.43,-43.91 129.22,-35.04 119.16,-38.36 123.43,-43.91"/>
</g>
<!-- free_ent -->
<g id="node2" class="node">
<title>free_ent</title>
<ellipse fill="none" stroke="black" cx="150.07" cy="-90" rx="41.12" ry="18"/>
<text xml:space="preserve" text-anchor="middle" x="150.07" y="-84.95" font-family="Times New Roman,serif" font-size="14.00">free_ent</text>
</g>
<!-- free_ent&#45;&gt;cond3 -->
<g id="edge2" class="edge">
<title>free_ent&#45;&gt;cond3</title>
<path fill="none" stroke="black" d="M150.07,-71.7C150.07,-64.41 150.07,-55.73 150.07,-47.54"/>
<polygon fill="black" stroke="black" points="153.57,-47.62 150.07,-37.62 146.57,-47.62 153.57,-47.62"/>
</g>
<!-- maxmaxcode -->
<g id="node3" class="node">
<title>maxmaxcode</title>
<ellipse fill="none" stroke="black" cx="270.07" cy="-90" rx="61.08" ry="18"/>
<text xml:space="preserve" text-anchor="middle" x="270.07" y="-84.95" font-family="Times New Roman,serif" font-size="14.00">maxmaxcode</text>
</g>
<!-- maxmaxcode&#45;&gt;cond3 -->
<g id="edge3" class="edge">
<title>maxmaxcode&#45;&gt;cond3</title>
<path fill="none" stroke="black" d="M243.44,-73.46C226.08,-63.34 203.25,-50.02 184.51,-39.09"/>
<polygon fill="black" stroke="black" points="186.29,-36.08 175.89,-34.06 182.77,-42.12 186.29,-36.08"/>
</g>
<!-- in_count -->
<g id="node4" class="node">
<title>in_count</title>
<ellipse fill="none" stroke="black" cx="429.07" cy="-90" rx="43.16" ry="18"/>
<text xml:space="preserve" text-anchor="middle" x="429.07" y="-84.95" font-family="Times New Roman,serif" font-size="14.00">in_count</text>
</g>
<!-- cond4 -->
<g id="node7" class="node">
<title>cond4</title>
<polygon fill="none" stroke="black" points="465.07,-36 317.9,-18 465.07,0 612.24,-18 465.07,-36"/>
<text xml:space="preserve" text-anchor="middle" x="465.07" y="-12.95" font-family="Times New Roman,serif" font-size="14.00">in_count &gt;= checkpoint?</text>
</g>
<!-- in_count&#45;&gt;cond4 -->
<g id="edge4" class="edge">
<title>in_count&#45;&gt;cond4</title>
<path fill="none" stroke="black" d="M437.78,-72.05C441.91,-64.03 446.94,-54.26 451.54,-45.3"/>
<polygon fill="black" stroke="black" points="454.53,-47.15 455.99,-36.65 448.3,-43.95 454.53,-47.15"/>
</g>
<!-- checkpoint -->
<g id="node5" class="node">
<title>checkpoint</title>
<ellipse fill="none" stroke="black" cx="542.07" cy="-90" rx="51.35" ry="18"/>
<text xml:space="preserve" text-anchor="middle" x="542.07" y="-84.95" font-family="Times New Roman,serif" font-size="14.00">checkpoint</text>
</g>
<!-- checkpoint&#45;&gt;cond4 -->
<g id="edge5" class="edge">
<title>checkpoint&#45;&gt;cond4</title>
<path fill="none" stroke="black" d="M524.21,-72.76C514.18,-63.65 501.51,-52.13 490.46,-42.09"/>
<polygon fill="black" stroke="black" points="492.91,-39.58 483.16,-35.44 488.2,-44.76 492.91,-39.58"/>
</g>
</g>
</svg>
