<?xml version="1.0" encoding="UTF-8" standalone="no"?>
<!DOCTYPE svg PUBLIC "-//W3C//DTD SVG 1.1//EN"
 "http://www.w3.org/Graphics/SVG/1.1/DTD/svg11.dtd">
<!-- Generated by graphviz version 13.1.2 (20250808.2320)
 -->
<!-- Title: compress_CFG Pages: 1 -->
<svg width="568pt" height="560pt"
 viewBox="0.00 0.00 568.00 560.00" xmlns="http://www.w3.org/2000/svg" xmlns:xlink="http://www.w3.org/1999/xlink">
<g id="graph0" class="graph" transform="scale(1 1) rotate(0) translate(4 555.5)">
<title>compress_CFG</title>
<polygon fill="white" stroke="none" points="-4,4 -4,-555.5 563.5,-555.5 563.5,4 -4,4"/>
<!-- entry -->
<g id="node1" class="node">
<title>entry</title>
<polygon fill="none" stroke="black" points="321.5,-551.5 263.5,-551.5 263.5,-515.5 321.5,-515.5 321.5,-551.5"/>
<text xml:space="preserve" text-anchor="middle" x="292.5" y="-528.45" font-family="Times New Roman,serif" font-size="14.00">Entrada</text>
</g>
<!-- loop -->
<g id="node2" class="node">
<title>loop</title>
<polygon fill="none" stroke="black" points="350.38,-478.5 234.62,-478.5 234.62,-442.5 350.38,-442.5 350.38,-478.5"/>
<text xml:space="preserve" text-anchor="middle" x="292.5" y="-455.45" font-family="Times New Roman,serif" font-size="14.00">While (InCnt &gt; 0)</text>
</g>
<!-- entry&#45;&gt;loop -->
<g id="edge1" class="edge">
<title>entry&#45;&gt;loop</title>
<path fill="none" stroke="black" d="M292.5,-515.31C292.5,-507.73 292.5,-498.6 292.5,-490.04"/>
<polygon fill="black" stroke="black" points="296,-490.04 292.5,-480.04 289,-490.04 296,-490.04"/>
</g>
<!-- cond1 -->
<g id="node3" class="node">
<title>cond1</title>
<polygon fill="none" stroke="black" points="390.12,-390 266.88,-390 266.88,-354 390.12,-354 390.12,-390"/>
<text xml:space="preserve" text-anchor="middle" x="328.5" y="-366.95" font-family="Times New Roman,serif" font-size="14.00">htabof(i) == fcode?</text>
</g>
<!-- loop&#45;&gt;cond1 -->
<g id="edge2" class="edge">
<title>loop&#45;&gt;cond1</title>
<path fill="none" stroke="black" d="M304.75,-442.26C308.26,-436.77 311.85,-430.55 314.5,-424.5 317.71,-417.17 320.35,-408.93 322.44,-401.23"/>
<polygon fill="black" stroke="black" points="325.81,-402.15 324.82,-391.6 319.02,-400.47 325.81,-402.15"/>
</g>
<!-- exit -->
<g id="node9" class="node">
<title>exit</title>
<polygon fill="none" stroke="black" points="200.25,-390 140.75,-390 140.75,-354 200.25,-354 200.25,-390"/>
<text xml:space="preserve" text-anchor="middle" x="170.5" y="-366.95" font-family="Times New Roman,serif" font-size="14.00">Retorno</text>
</g>
<!-- loop&#45;&gt;exit -->
<g id="edge15" class="edge">
<title>loop&#45;&gt;exit</title>
<path fill="none" stroke="black" d="M234.26,-450.23C205.67,-444.37 175.55,-435.76 167,-424.5 162.06,-418 161.08,-409.61 161.87,-401.49"/>
<polygon fill="black" stroke="black" points="165.26,-402.38 163.65,-391.91 158.38,-401.1 165.26,-402.38"/>
<text xml:space="preserve" text-anchor="middle" x="197.75" y="-411.2" font-family="Times New Roman,serif" font-size="14.00">InCnt &lt;= 0</text>
</g>
<!-- cond1&#45;&gt;loop -->
<g id="edge4" class="edge">
<title>cond1&#45;&gt;loop</title>
<path fill="none" stroke="black" d="M302.75,-390.46C297.39,-395.44 292.47,-401.35 289.5,-408 286.35,-415.06 285.66,-423.22 286.14,-430.92"/>
<polygon fill="black" stroke="black" points="282.64,-431.11 287.39,-440.58 289.58,-430.21 282.64,-431.11"/>
<text xml:space="preserve" text-anchor="middle" x="300" y="-411.2" font-family="Times New Roman,serif" font-size="14.00">true</text>
</g>
<!-- cond2 -->
<g id="node4" class="node">
<title>cond2</title>
<polygon fill="none" stroke="black" points="380.38,-301.5 288.62,-301.5 288.62,-265.5 380.38,-265.5 380.38,-301.5"/>
<text xml:space="preserve" text-anchor="middle" x="334.5" y="-278.45" font-family="Times New Roman,serif" font-size="14.00">htabof(i) &lt; 0?</text>
</g>
<!-- cond1&#45;&gt;cond2 -->
<g id="edge3" class="edge">
<title>cond1&#45;&gt;cond2</title>
<path fill="none" stroke="black" d="M329.69,-353.91C330.49,-342.26 331.58,-326.55 332.52,-313.02"/>
<polygon fill="black" stroke="black" points="335.99,-313.58 333.19,-303.36 329.01,-313.09 335.99,-313.58"/>
<text xml:space="preserve" text-anchor="middle" x="344.79" y="-322.7" font-family="Times New Roman,serif" font-size="14.00">false</text>
</g>
<!-- cond3 -->
<g id="node5" class="node">
<title>cond3</title>
<polygon fill="none" stroke="black" points="412.25,-213 256.75,-213 256.75,-177 412.25,-177 412.25,-213"/>
<text xml:space="preserve" text-anchor="middle" x="334.5" y="-189.95" font-family="Times New Roman,serif" font-size="14.00">free_ent &lt; maxmaxcode?</text>
</g>
<!-- cond2&#45;&gt;cond3 -->
<g id="edge5" class="edge">
<title>cond2&#45;&gt;cond3</title>
<path fill="none" stroke="black" d="M334.5,-265.41C334.5,-253.76 334.5,-238.05 334.5,-224.52"/>
<polygon fill="black" stroke="black" points="338,-224.86 334.5,-214.86 331,-224.86 338,-224.86"/>
<text xml:space="preserve" text-anchor="middle" x="347.25" y="-234.2" font-family="Times New Roman,serif" font-size="14.00">false</text>
</g>
<!-- nomatch -->
<g id="node10" class="node">
<title>nomatch</title>
<polygon fill="none" stroke="black" points="493.12,-213 429.88,-213 429.88,-177 493.12,-177 493.12,-213"/>
<text xml:space="preserve" text-anchor="middle" x="461.5" y="-189.95" font-family="Times New Roman,serif" font-size="14.00">nomatch</text>
</g>
<!-- cond2&#45;&gt;nomatch -->
<g id="edge6" class="edge">
<title>cond2&#45;&gt;nomatch</title>
<path fill="none" stroke="black" d="M359.9,-265.2C379.1,-252.12 405.69,-234.01 426.85,-219.6"/>
<polygon fill="black" stroke="black" points="428.6,-222.64 434.9,-214.12 424.66,-216.86 428.6,-222.64"/>
<text xml:space="preserve" text-anchor="middle" x="419.88" y="-234.2" font-family="Times New Roman,serif" font-size="14.00">true</text>
</g>
<!-- cond4 -->
<g id="node6" class="node">
<title>cond4</title>
<polygon fill="none" stroke="black" points="271,-124.5 0,-124.5 0,-88.5 271,-88.5 271,-124.5"/>
<text xml:space="preserve" text-anchor="middle" x="135.5" y="-101.45" font-family="Times New Roman,serif" font-size="14.00">in_count &gt;= checkpoint &amp;&amp; block_compress?</text>
</g>
<!-- cond3&#45;&gt;cond4 -->
<g id="edge8" class="edge">
<title>cond3&#45;&gt;cond4</title>
<path fill="none" stroke="black" d="M294.71,-176.7C263.36,-163.08 219.46,-143.99 185.69,-129.32"/>
<polygon fill="black" stroke="black" points="187.52,-126.29 176.95,-125.52 184.73,-132.71 187.52,-126.29"/>
<text xml:space="preserve" text-anchor="middle" x="265.57" y="-145.7" font-family="Times New Roman,serif" font-size="14.00">false</text>
</g>
<!-- update_tables -->
<g id="node11" class="node">
<title>update_tables</title>
<polygon fill="none" stroke="black" points="379.62,-124.5 289.38,-124.5 289.38,-88.5 379.62,-88.5 379.62,-124.5"/>
<text xml:space="preserve" text-anchor="middle" x="334.5" y="-101.45" font-family="Times New Roman,serif" font-size="14.00">update_tables</text>
</g>
<!-- cond3&#45;&gt;update_tables -->
<g id="edge7" class="edge">
<title>cond3&#45;&gt;update_tables</title>
<path fill="none" stroke="black" d="M334.5,-176.91C334.5,-165.26 334.5,-149.55 334.5,-136.02"/>
<polygon fill="black" stroke="black" points="338,-136.36 334.5,-126.36 331,-136.36 338,-136.36"/>
<text xml:space="preserve" text-anchor="middle" x="345" y="-145.7" font-family="Times New Roman,serif" font-size="14.00">true</text>
</g>
<!-- cond4&#45;&gt;loop -->
<g id="edge10" class="edge">
<title>cond4&#45;&gt;loop</title>
<path fill="none" stroke="black" d="M128.1,-124.7C121.37,-141.91 112.5,-169.29 112.5,-194 112.5,-373 112.5,-373 112.5,-373 112.5,-424.25 172.52,-445.16 223.24,-453.67"/>
<polygon fill="black" stroke="black" points="222.65,-457.12 233.06,-455.17 223.7,-450.2 222.65,-457.12"/>
<text xml:space="preserve" text-anchor="middle" x="125.25" y="-278.45" font-family="Times New Roman,serif" font-size="14.00">false</text>
</g>
<!-- cl_block_call -->
<g id="node7" class="node">
<title>cl_block_call</title>
<polygon fill="none" stroke="black" points="383.25,-36 311.75,-36 311.75,0 383.25,0 383.25,-36"/>
<text xml:space="preserve" text-anchor="middle" x="347.5" y="-12.95" font-family="Times New Roman,serif" font-size="14.00">cl_block()</text>
</g>
<!-- cond4&#45;&gt;cl_block_call -->
<g id="edge9" class="edge">
<title>cond4&#45;&gt;cl_block_call</title>
<path fill="none" stroke="black" d="M178.15,-88.1C213.69,-73.6 264.25,-52.97 300.86,-38.03"/>
<polygon fill="black" stroke="black" points="301.93,-41.37 309.87,-34.35 299.29,-34.89 301.93,-41.37"/>
<text xml:space="preserve" text-anchor="middle" x="270.99" y="-57.2" font-family="Times New Roman,serif" font-size="14.00">true</text>
</g>
<!-- cl_block_call&#45;&gt;loop -->
<g id="edge12" class="edge">
<title>cl_block_call&#45;&gt;loop</title>
<path fill="none" stroke="black" d="M383.46,-18.24C443.95,-19.03 559.5,-30.37 559.5,-105.5 559.5,-373 559.5,-373 559.5,-373 559.5,-414.51 441.24,-439.08 362.13,-450.87"/>
<polygon fill="black" stroke="black" points="361.66,-447.41 352.26,-452.3 362.66,-454.33 361.66,-447.41"/>
</g>
<!-- output_call -->
<g id="node8" class="node">
<title>output_call</title>
<polygon fill="none" stroke="black" points="518,-124.5 433,-124.5 433,-88.5 518,-88.5 518,-124.5"/>
<text xml:space="preserve" text-anchor="middle" x="475.5" y="-101.45" font-family="Times New Roman,serif" font-size="14.00">output(code)</text>
</g>
<!-- output_call&#45;&gt;loop -->
<g id="edge14" class="edge">
<title>output_call&#45;&gt;loop</title>
<path fill="none" stroke="black" d="M491.33,-124.96C504.64,-141.49 521.5,-167.64 521.5,-194 521.5,-373 521.5,-373 521.5,-373 521.5,-407.57 429.01,-433.14 361.59,-447.18"/>
<polygon fill="black" stroke="black" points="361.17,-443.69 352.07,-449.12 362.56,-450.55 361.17,-443.69"/>
</g>
<!-- nomatch&#45;&gt;output_call -->
<g id="edge13" class="edge">
<title>nomatch&#45;&gt;output_call</title>
<path fill="none" stroke="black" d="M464.27,-176.91C466.15,-165.26 468.69,-149.55 470.88,-136.02"/>
<polygon fill="black" stroke="black" points="474.31,-136.78 472.45,-126.34 467.4,-135.66 474.31,-136.78"/>
</g>
<!-- update_tables&#45;&gt;loop -->
<g id="edge11" class="edge">
<title>update_tables&#45;&gt;loop</title>
<path fill="none" stroke="black" d="M289,-122.25C267.36,-129.72 245.52,-138.12 242.5,-142.5 179.83,-233.4 244.14,-373.52 276.4,-432.19"/>
<polygon fill="black" stroke="black" points="273.32,-433.85 281.27,-440.85 279.42,-430.42 273.32,-433.85"/>
</g>
</g>
</svg>
