<?xml version="1.0" encoding="UTF-8" standalone="no"?>
<!DOCTYPE svg PUBLIC "-//W3C//DTD SVG 1.1//EN"
 "http://www.w3.org/Graphics/SVG/1.1/DTD/svg11.dtd">
<!-- Generated by graphviz version 13.1.2 (20250808.2320)
 -->
<!-- Title: CFG_main Pages: 1 -->
<svg width="71pt" height="337pt"
 viewBox="0.00 0.00 71.00 337.00" xmlns="http://www.w3.org/2000/svg" xmlns:xlink="http://www.w3.org/1999/xlink">
<g id="graph0" class="graph" transform="scale(1 1) rotate(0) translate(4 333)">
<title>CFG_main</title>
<polygon fill="white" stroke="none" points="-4,4 -4,-333 66.78,-333 66.78,4 -4,4"/>
<!-- entry -->
<g id="node1" class="node">
<title>entry</title>
<ellipse fill="none" stroke="black" cx="31.39" cy="-311" rx="31.39" ry="18"/>
<text xml:space="preserve" text-anchor="middle" x="31.39" y="-305.95" font-family="Times New Roman,serif" font-size="14.00">Entry</text>
</g>
<!-- node1 -->
<g id="node3" class="node">
<title>node1</title>
<polygon fill="none" stroke="black" points="58.89,-257 3.89,-257 3.89,-216 58.89,-216 58.89,-257"/>
<text xml:space="preserve" text-anchor="middle" x="31.39" y="-239.7" font-family="Times New Roman,serif" font-size="14.00">int a;</text>
<text xml:space="preserve" text-anchor="middle" x="31.39" y="-223.2" font-family="Times New Roman,serif" font-size="14.00">a = 30;</text>
</g>
<!-- entry&#45;&gt;node1 -->
<g id="edge1" class="edge">
<title>entry&#45;&gt;node1</title>
<path fill="none" stroke="black" d="M31.39,-292.82C31.39,-285.59 31.39,-276.95 31.39,-268.66"/>
<polygon fill="black" stroke="black" points="34.89,-268.89 31.39,-258.89 27.89,-268.89 34.89,-268.89"/>
</g>
<!-- exit -->
<g id="node2" class="node">
<title>exit</title>
<ellipse fill="none" stroke="black" cx="31.39" cy="-18" rx="27" ry="18"/>
<text xml:space="preserve" text-anchor="middle" x="31.39" y="-12.95" font-family="Times New Roman,serif" font-size="14.00">Exit</text>
</g>
<!-- node2 -->
<g id="node4" class="node">
<title>node2</title>
<polygon fill="none" stroke="black" points="58.39,-180 4.39,-180 4.39,-144 58.39,-144 58.39,-180"/>
<text xml:space="preserve" text-anchor="middle" x="31.39" y="-156.95" font-family="Times New Roman,serif" font-size="14.00">fib(a);</text>
</g>
<!-- node1&#45;&gt;node2 -->
<g id="edge2" class="edge">
<title>node1&#45;&gt;node2</title>
<path fill="none" stroke="black" d="M31.39,-215.69C31.39,-208.25 31.39,-199.64 31.39,-191.57"/>
<polygon fill="black" stroke="black" points="34.89,-191.83 31.39,-181.83 27.89,-191.83 34.89,-191.83"/>
</g>
<!-- node3 -->
<g id="node5" class="node">
<title>node3</title>
<polygon fill="none" stroke="black" points="62.27,-108 0.52,-108 0.52,-72 62.27,-72 62.27,-108"/>
<text xml:space="preserve" text-anchor="middle" x="31.39" y="-84.95" font-family="Times New Roman,serif" font-size="14.00">return a;</text>
</g>
<!-- node2&#45;&gt;node3 -->
<g id="edge3" class="edge">
<title>node2&#45;&gt;node3</title>
<path fill="none" stroke="black" d="M31.39,-143.7C31.39,-136.41 31.39,-127.73 31.39,-119.54"/>
<polygon fill="black" stroke="black" points="34.89,-119.62 31.39,-109.62 27.89,-119.62 34.89,-119.62"/>
</g>
<!-- node3&#45;&gt;exit -->
<g id="edge4" class="edge">
<title>node3&#45;&gt;exit</title>
<path fill="none" stroke="black" d="M31.39,-71.7C31.39,-64.41 31.39,-55.73 31.39,-47.54"/>
<polygon fill="black" stroke="black" points="34.89,-47.62 31.39,-37.62 27.89,-47.62 34.89,-47.62"/>
</g>
</g>
</svg>
