<?xml version="1.0" encoding="UTF-8" standalone="no"?>
<!DOCTYPE svg PUBLIC "-//W3C//DTD SVG 1.1//EN"
 "http://www.w3.org/Graphics/SVG/1.1/DTD/svg11.dtd">
<!-- Generated by graphviz version 13.1.2 (20250808.2320)
 -->
<!-- Title: CFG_fib Pages: 1 -->
<svg width="333pt" height="411pt"
 viewBox="0.00 0.00 333.00 411.00" xmlns="http://www.w3.org/2000/svg" xmlns:xlink="http://www.w3.org/1999/xlink">
<g id="graph0" class="graph" transform="scale(1 1) rotate(0) translate(4 407)">
<title>CFG_fib</title>
<polygon fill="white" stroke="none" points="-4,4 -4,-407 328.75,-407 328.75,4 -4,4"/>
<!-- entry -->
<g id="node1" class="node">
<title>entry</title>
<ellipse fill="none" stroke="black" cx="162.37" cy="-385" rx="31.39" ry="18"/>
<text xml:space="preserve" text-anchor="middle" x="162.37" y="-379.95" font-family="Times New Roman,serif" font-size="14.00">Entry</text>
</g>
<!-- node1 -->
<g id="node3" class="node">
<title>node1</title>
<polygon fill="none" stroke="black" points="198.5,-330 126.25,-330 126.25,-272.5 198.5,-272.5 198.5,-330"/>
<text xml:space="preserve" text-anchor="middle" x="162.37" y="-312.7" font-family="Times New Roman,serif" font-size="14.00">Fnew = 1;</text>
<text xml:space="preserve" text-anchor="middle" x="162.37" y="-296.2" font-family="Times New Roman,serif" font-size="14.00">Fold = 0;</text>
<text xml:space="preserve" text-anchor="middle" x="162.37" y="-279.7" font-family="Times New Roman,serif" font-size="14.00">i = 2;</text>
</g>
<!-- entry&#45;&gt;node1 -->
<g id="edge1" class="edge">
<title>entry&#45;&gt;node1</title>
<path fill="none" stroke="black" d="M162.37,-366.66C162.37,-359.36 162.37,-350.54 162.37,-341.81"/>
<polygon fill="black" stroke="black" points="165.87,-342.01 162.37,-332.01 158.87,-342.01 165.87,-342.01"/>
</g>
<!-- exit -->
<g id="node2" class="node">
<title>exit</title>
<ellipse fill="none" stroke="black" cx="254.37" cy="-18" rx="27" ry="18"/>
<text xml:space="preserve" text-anchor="middle" x="254.37" y="-12.95" font-family="Times New Roman,serif" font-size="14.00">Exit</text>
</g>
<!-- node2 -->
<g id="node4" class="node">
<title>node2</title>
<polygon fill="none" stroke="black" points="162.37,-235.5 0,-217.5 162.37,-199.5 324.75,-217.5 162.37,-235.5"/>
<text xml:space="preserve" text-anchor="middle" x="162.37" y="-212.45" font-family="Times New Roman,serif" font-size="14.00">Condition: i&lt;=30 &amp;&amp; i&lt;=n</text>
</g>
<!-- node1&#45;&gt;node2 -->
<g id="edge2" class="edge">
<title>node1&#45;&gt;node2</title>
<path fill="none" stroke="black" d="M162.37,-272.12C162.37,-264.14 162.37,-255.45 162.37,-247.43"/>
<polygon fill="black" stroke="black" points="165.87,-247.47 162.37,-237.47 158.87,-247.47 165.87,-247.47"/>
</g>
<!-- node3 -->
<g id="node5" class="node">
<title>node3</title>
<polygon fill="none" stroke="black" points="194.37,-147 58.37,-147 58.37,-73 194.37,-73 194.37,-147"/>
<text xml:space="preserve" text-anchor="middle" x="126.37" y="-129.7" font-family="Times New Roman,serif" font-size="14.00">temp = Fnew;</text>
<text xml:space="preserve" text-anchor="middle" x="126.37" y="-113.2" font-family="Times New Roman,serif" font-size="14.00">Fnew = Fnew + Fold;</text>
<text xml:space="preserve" text-anchor="middle" x="126.37" y="-96.7" font-family="Times New Roman,serif" font-size="14.00">Fold = temp;</text>
<text xml:space="preserve" text-anchor="middle" x="126.37" y="-80.2" font-family="Times New Roman,serif" font-size="14.00">i++;</text>
</g>
<!-- node2&#45;&gt;node3 -->
<g id="edge3" class="edge">
<title>node2&#45;&gt;node3</title>
<path fill="none" stroke="black" d="M142.21,-201.48C136.31,-195.92 130.58,-189.1 127.37,-181.5 124.36,-174.38 122.78,-166.48 122.1,-158.62"/>
<polygon fill="black" stroke="black" points="125.6,-158.61 121.74,-148.74 118.61,-158.86 125.6,-158.61"/>
<text xml:space="preserve" text-anchor="middle" x="137.87" y="-168.2" font-family="Times New Roman,serif" font-size="14.00">true</text>
</g>
<!-- node4 -->
<g id="node6" class="node">
<title>node4</title>
<polygon fill="none" stroke="black" points="296.12,-130.5 212.62,-130.5 212.62,-89.5 296.12,-89.5 296.12,-130.5"/>
<text xml:space="preserve" text-anchor="middle" x="254.37" y="-113.2" font-family="Times New Roman,serif" font-size="14.00">ans = Fnew;</text>
<text xml:space="preserve" text-anchor="middle" x="254.37" y="-96.7" font-family="Times New Roman,serif" font-size="14.00">return ans;</text>
</g>
<!-- node2&#45;&gt;node4 -->
<g id="edge4" class="edge">
<title>node2&#45;&gt;node4</title>
<path fill="none" stroke="black" d="M175.95,-200.93C189.99,-184.83 212.24,-159.32 229.46,-139.57"/>
<polygon fill="black" stroke="black" points="232.04,-141.94 235.97,-132.1 226.76,-137.34 232.04,-141.94"/>
<text xml:space="preserve" text-anchor="middle" x="218.37" y="-168.2" font-family="Times New Roman,serif" font-size="14.00">false</text>
</g>
<!-- node3&#45;&gt;node2 -->
<g id="edge5" class="edge">
<title>node3&#45;&gt;node2</title>
<path fill="none" stroke="black" d="M141.89,-147.37C144.19,-153.22 146.43,-159.25 148.37,-165 150.94,-172.58 153.36,-180.9 155.45,-188.6"/>
<polygon fill="black" stroke="black" points="152.04,-189.39 157.96,-198.18 158.81,-187.62 152.04,-189.39"/>
</g>
<!-- node4&#45;&gt;exit -->
<g id="edge6" class="edge">
<title>node4&#45;&gt;exit</title>
<path fill="none" stroke="black" d="M254.37,-89.03C254.37,-76.85 254.37,-61.09 254.37,-47.6"/>
<polygon fill="black" stroke="black" points="257.87,-48 254.37,-38 250.87,-48 257.87,-48"/>
</g>
</g>
</svg>
