<?xml version="1.0" encoding="UTF-8" standalone="no"?>
<!DOCTYPE svg PUBLIC "-//W3C//DTD SVG 1.1//EN"
 "http://www.w3.org/Graphics/SVG/1.1/DTD/svg11.dtd">
<!-- Generated by graphviz version 13.1.2 (20250808.2320)
 -->
<!-- Title: DFG_fib Pages: 1 -->
<svg width="547pt" height="456pt"
 viewBox="0.00 0.00 547.00 456.00" xmlns="http://www.w3.org/2000/svg" xmlns:xlink="http://www.w3.org/1999/xlink">
<g id="graph0" class="graph" transform="scale(1 1) rotate(0) translate(4 451.5)">
<title>DFG_fib</title>
<polygon fill="white" stroke="none" points="-4,4 -4,-451.5 543,-451.5 543,4 -4,4"/>
<!-- n -->
<g id="node1" class="node">
<title>n</title>
<ellipse fill="none" stroke="black" cx="74.37" cy="-429.5" rx="43.16" ry="18"/>
<text xml:space="preserve" text-anchor="middle" x="74.37" y="-424.45" font-family="Times New Roman,serif" font-size="14.00">n (input)</text>
</g>
<!-- cond -->
<g id="node5" class="node">
<title>cond</title>
<polygon fill="none" stroke="black" points="162.37,-359 0,-341 162.37,-323 324.75,-341 162.37,-359"/>
<text xml:space="preserve" text-anchor="middle" x="162.37" y="-335.95" font-family="Times New Roman,serif" font-size="14.00">Condition: i&lt;=30 &amp;&amp; i&lt;=n</text>
</g>
<!-- n&#45;&gt;cond -->
<g id="edge1" class="edge">
<title>n&#45;&gt;cond</title>
<path fill="none" stroke="black" d="M90.51,-412.63C104,-399.38 123.4,-380.31 138.65,-365.32"/>
<polygon fill="black" stroke="black" points="140.87,-368.04 145.55,-358.53 135.97,-363.05 140.87,-368.04"/>
</g>
<!-- i_init -->
<g id="node2" class="node">
<title>i_init</title>
<polygon fill="none" stroke="black" points="189.37,-447.5 135.37,-447.5 135.37,-411.5 189.37,-411.5 189.37,-447.5"/>
<text xml:space="preserve" text-anchor="middle" x="162.37" y="-424.45" font-family="Times New Roman,serif" font-size="14.00">i = 2</text>
</g>
<!-- i_init&#45;&gt;cond -->
<g id="edge2" class="edge">
<title>i_init&#45;&gt;cond</title>
<path fill="none" stroke="black" d="M162.37,-411.41C162.37,-399.76 162.37,-384.05 162.37,-370.52"/>
<polygon fill="black" stroke="black" points="165.87,-370.86 162.37,-360.86 158.87,-370.86 165.87,-370.86"/>
</g>
<!-- Fnew_init -->
<g id="node3" class="node">
<title>Fnew_init</title>
<polygon fill="none" stroke="black" points="458.62,-359 390.12,-359 390.12,-323 458.62,-323 458.62,-359"/>
<text xml:space="preserve" text-anchor="middle" x="424.37" y="-335.95" font-family="Times New Roman,serif" font-size="14.00">Fnew = 1</text>
</g>
<!-- temp_assign -->
<g id="node6" class="node">
<title>temp_assign</title>
<polygon fill="none" stroke="black" points="350.12,-270.5 260.62,-270.5 260.62,-234.5 350.12,-234.5 350.12,-270.5"/>
<text xml:space="preserve" text-anchor="middle" x="305.37" y="-247.45" font-family="Times New Roman,serif" font-size="14.00">temp = Fnew</text>
</g>
<!-- Fnew_init&#45;&gt;temp_assign -->
<g id="edge3" class="edge">
<title>Fnew_init&#45;&gt;temp_assign</title>
<path fill="none" stroke="black" d="M404.07,-322.71C391.71,-312.42 375.44,-299.31 360.37,-288.5 355.01,-284.65 349.24,-280.75 343.52,-277"/>
<polygon fill="black" stroke="black" points="345.61,-274.18 335.31,-271.71 341.82,-280.07 345.61,-274.18"/>
</g>
<!-- Fnew_assign -->
<g id="node7" class="node">
<title>Fnew_assign</title>
<polygon fill="none" stroke="black" points="419.5,-109 287.25,-109 287.25,-73 419.5,-73 419.5,-109"/>
<text xml:space="preserve" text-anchor="middle" x="353.37" y="-85.95" font-family="Times New Roman,serif" font-size="14.00">Fnew = Fnew + Fold</text>
</g>
<!-- Fnew_init&#45;&gt;Fnew_assign -->
<g id="edge4" class="edge">
<title>Fnew_init&#45;&gt;Fnew_assign</title>
<path fill="none" stroke="black" d="M425.68,-322.54C427.48,-289.72 428.33,-217.12 406.37,-161.5 400.05,-145.49 388.92,-130.02 378.49,-117.75"/>
<polygon fill="black" stroke="black" points="381.36,-115.71 372.1,-110.56 376.12,-120.36 381.36,-115.71"/>
</g>
<!-- Fold_init -->
<g id="node4" class="node">
<title>Fold_init</title>
<polygon fill="none" stroke="black" points="539,-197.5 475.75,-197.5 475.75,-161.5 539,-161.5 539,-197.5"/>
<text xml:space="preserve" text-anchor="middle" x="507.37" y="-174.45" font-family="Times New Roman,serif" font-size="14.00">Fold = 0</text>
</g>
<!-- Fold_init&#45;&gt;Fnew_assign -->
<g id="edge5" class="edge">
<title>Fold_init&#45;&gt;Fnew_assign</title>
<path fill="none" stroke="black" d="M495.53,-161.03C487.16,-149.88 475.03,-135.9 461.37,-127 451.96,-120.87 441.39,-115.73 430.63,-111.45"/>
<polygon fill="black" stroke="black" points="431.87,-108.17 421.28,-107.97 429.43,-114.74 431.87,-108.17"/>
</g>
<!-- cond&#45;&gt;temp_assign -->
<g id="edge11" class="edge">
<title>cond&#45;&gt;temp_assign</title>
<path fill="none" stroke="black" d="M186.63,-325.33C208.58,-312.05 241.28,-292.27 266.81,-276.83"/>
<polygon fill="black" stroke="black" points="268.51,-279.89 275.26,-271.72 264.89,-273.9 268.51,-279.89"/>
<text xml:space="preserve" text-anchor="middle" x="282.68" y="-291.7" font-family="Times New Roman,serif" font-size="14.00">true (control)</text>
</g>
<!-- ans_assign -->
<g id="node10" class="node">
<title>ans_assign</title>
<polygon fill="none" stroke="black" points="190.25,-36 110.5,-36 110.5,0 190.25,0 190.25,-36"/>
<text xml:space="preserve" text-anchor="middle" x="150.37" y="-12.95" font-family="Times New Roman,serif" font-size="14.00">ans = Fnew</text>
</g>
<!-- cond&#45;&gt;ans_assign -->
<g id="edge12" class="edge">
<title>cond&#45;&gt;ans_assign</title>
<path fill="none" stroke="black" d="M154.91,-323.47C147.87,-306.34 138.37,-278.59 138.37,-253.5 138.37,-253.5 138.37,-253.5 138.37,-90 138.37,-75.83 140.72,-60.3 143.35,-47.38"/>
<polygon fill="black" stroke="black" points="146.71,-48.37 145.44,-37.85 139.88,-46.86 146.71,-48.37"/>
<text xml:space="preserve" text-anchor="middle" x="176.62" y="-174.45" font-family="Times New Roman,serif" font-size="14.00">false (control)</text>
</g>
<!-- Fold_assign -->
<g id="node8" class="node">
<title>Fold_assign</title>
<polygon fill="none" stroke="black" points="317.5,-197.5 233.25,-197.5 233.25,-161.5 317.5,-161.5 317.5,-197.5"/>
<text xml:space="preserve" text-anchor="middle" x="275.37" y="-174.45" font-family="Times New Roman,serif" font-size="14.00">Fold = temp</text>
</g>
<!-- temp_assign&#45;&gt;Fold_assign -->
<g id="edge6" class="edge">
<title>temp_assign&#45;&gt;Fold_assign</title>
<path fill="none" stroke="black" d="M298.11,-234.31C294.76,-226.38 290.69,-216.76 286.94,-207.86"/>
<polygon fill="black" stroke="black" points="290.27,-206.77 283.16,-198.92 283.83,-209.5 290.27,-206.77"/>
</g>
<!-- Fnew_assign&#45;&gt;temp_assign -->
<g id="edge7" class="edge">
<title>Fnew_assign&#45;&gt;temp_assign</title>
<path fill="none" stroke="black" d="M349.61,-109.36C344.88,-130.42 336.2,-166.9 326.37,-197.5 323.63,-206.06 320.24,-215.22 316.99,-223.53"/>
<polygon fill="black" stroke="black" points="313.75,-222.19 313.28,-232.78 320.25,-224.79 313.75,-222.19"/>
<text xml:space="preserve" text-anchor="middle" x="369.62" y="-174.45" font-family="Times New Roman,serif" font-size="14.00">loop&#45;carried</text>
</g>
<!-- Fnew_assign&#45;&gt;Fnew_assign -->
<g id="edge8" class="edge">
<title>Fnew_assign&#45;&gt;Fnew_assign</title>
<path fill="none" stroke="black" d="M419.67,-97.3C430.26,-96.38 437.5,-94.28 437.5,-91 437.5,-89.1 435.08,-87.6 430.99,-86.49"/>
<polygon fill="black" stroke="black" points="431.59,-83.05 421.17,-84.93 430.5,-89.96 431.59,-83.05"/>
<text xml:space="preserve" text-anchor="middle" x="470.5" y="-85.95" font-family="Times New Roman,serif" font-size="14.00">loop&#45;carried</text>
</g>
<!-- Fnew_assign&#45;&gt;ans_assign -->
<g id="edge13" class="edge">
<title>Fnew_assign&#45;&gt;ans_assign</title>
<path fill="none" stroke="black" d="M303.45,-72.54C272.37,-61.67 232.5,-47.72 201.24,-36.79"/>
<polygon fill="black" stroke="black" points="202.59,-33.56 192,-33.56 200.28,-40.16 202.59,-33.56"/>
</g>
<!-- Fold_assign&#45;&gt;Fnew_assign -->
<g id="edge9" class="edge">
<title>Fold_assign&#45;&gt;Fnew_assign</title>
<path fill="none" stroke="black" d="M269.97,-161.4C267.67,-150.67 266.81,-137.03 273.37,-127 276.03,-122.93 279.28,-119.33 282.93,-116.15"/>
<polygon fill="black" stroke="black" points="284.86,-119.08 290.86,-110.35 280.72,-113.43 284.86,-119.08"/>
<text xml:space="preserve" text-anchor="middle" x="306.37" y="-130.2" font-family="Times New Roman,serif" font-size="14.00">loop&#45;carried</text>
</g>
<!-- i_inc -->
<g id="node9" class="node">
<title>i_inc</title>
<polygon fill="none" stroke="black" points="261.37,-447.5 207.37,-447.5 207.37,-411.5 261.37,-411.5 261.37,-447.5"/>
<text xml:space="preserve" text-anchor="middle" x="234.37" y="-424.45" font-family="Times New Roman,serif" font-size="14.00">i++</text>
</g>
<!-- i_inc&#45;&gt;cond -->
<g id="edge10" class="edge">
<title>i_inc&#45;&gt;cond</title>
<path fill="none" stroke="black" d="M220.15,-411.41C209.53,-398.65 194.85,-381.02 182.95,-366.72"/>
<polygon fill="black" stroke="black" points="185.65,-364.5 176.57,-359.05 180.27,-368.98 185.65,-364.5"/>
<text xml:space="preserve" text-anchor="middle" x="237.82" y="-380.2" font-family="Times New Roman,serif" font-size="14.00">loop&#45;carried</text>
</g>
<!-- return -->
<g id="node11" class="node">
<title>return</title>
<polygon fill="none" stroke="black" points="349.37,-447.5 279.37,-447.5 279.37,-411.5 349.37,-411.5 349.37,-447.5"/>
<text xml:space="preserve" text-anchor="middle" x="314.37" y="-424.45" font-family="Times New Roman,serif" font-size="14.00">return ans</text>
</g>
</g>
</svg>
