<?xml version="1.0" encoding="UTF-8" standalone="no"?>
<!DOCTYPE svg PUBLIC "-//W3C//DTD SVG 1.1//EN"
 "http://www.w3.org/Graphics/SVG/1.1/DTD/svg11.dtd">
<!-- Generated by graphviz version 13.1.2 (20250808.2320)
 -->
<!-- Title: DFG_main Pages: 1 -->
<svg width="138pt" height="116pt"
 viewBox="0.00 0.00 138.00 116.00" xmlns="http://www.w3.org/2000/svg" xmlns:xlink="http://www.w3.org/1999/xlink">
<g id="graph0" class="graph" transform="scale(1 1) rotate(0) translate(4 112)">
<title>DFG_main</title>
<polygon fill="white" stroke="none" points="-4,4 -4,-112 134,-112 134,4 -4,4"/>
<!-- a_assign -->
<g id="node1" class="node">
<title>a_assign</title>
<polygon fill="none" stroke="black" points="91,-108 37,-108 37,-72 91,-72 91,-108"/>
<text xml:space="preserve" text-anchor="middle" x="64" y="-84.95" font-family="Times New Roman,serif" font-size="14.00">a = 30</text>
</g>
<!-- fib_call -->
<g id="node2" class="node">
<title>fib_call</title>
<polygon fill="none" stroke="black" points="54,-36 0,-36 0,0 54,0 54,-36"/>
<text xml:space="preserve" text-anchor="middle" x="27" y="-12.95" font-family="Times New Roman,serif" font-size="14.00">fib(a)</text>
</g>
<!-- a_assign&#45;&gt;fib_call -->
<g id="edge1" class="edge">
<title>a_assign&#45;&gt;fib_call</title>
<path fill="none" stroke="black" d="M54.85,-71.7C50.78,-63.98 45.88,-54.71 41.33,-46.11"/>
<polygon fill="black" stroke="black" points="44.52,-44.65 36.75,-37.44 38.33,-47.92 44.52,-44.65"/>
</g>
<!-- return -->
<g id="node3" class="node">
<title>return</title>
<polygon fill="none" stroke="black" points="130,-36 72,-36 72,0 130,0 130,-36"/>
<text xml:space="preserve" text-anchor="middle" x="101" y="-12.95" font-family="Times New Roman,serif" font-size="14.00">return a</text>
</g>
<!-- a_assign&#45;&gt;return -->
<g id="edge2" class="edge">
<title>a_assign&#45;&gt;return</title>
<path fill="none" stroke="black" d="M73.15,-71.7C77.22,-63.98 82.12,-54.71 86.67,-46.11"/>
<polygon fill="black" stroke="black" points="89.67,-47.92 91.25,-37.44 83.48,-44.65 89.67,-47.92"/>
</g>
</g>
</svg>
