<?xml version="1.0" encoding="UTF-8" standalone="no"?>
<!DOCTYPE svg PUBLIC "-//W3C//DTD SVG 1.1//EN"
 "http://www.w3.org/Graphics/SVG/1.1/DTD/svg11.dtd">
<!-- Generated by graphviz version 13.1.2 (20250808.2320)
 -->
<!-- Title: sort_CFG Pages: 1 -->
<svg width="695pt" height="1435pt"
 viewBox="0.00 0.00 695.00 1435.00" xmlns="http://www.w3.org/2000/svg" xmlns:xlink="http://www.w3.org/1999/xlink">
<g id="graph0" class="graph" transform="scale(1 1) rotate(0) translate(4 1430.67)">
<title>sort_CFG</title>
<polygon fill="white" stroke="none" points="-4,4 -4,-1430.67 690.5,-1430.67 690.5,4 -4,4"/>
<!-- N1 -->
<g id="node1" class="node">
<title>N1</title>
<path fill="none" stroke="black" d="M300.62,-1426.67C300.62,-1426.67 117.38,-1426.67 117.38,-1426.67 111.38,-1426.67 105.37,-1420.67 105.37,-1414.67 105.37,-1414.67 105.37,-1336.17 105.37,-1336.17 105.37,-1330.17 111.37,-1324.17 117.37,-1324.17 117.37,-1324.17 300.62,-1324.17 300.62,-1324.17 306.62,-1324.17 312.62,-1330.17 312.62,-1336.17 312.62,-1336.17 312.62,-1414.67 312.62,-1414.67 312.62,-1420.67 306.62,-1426.67 300.62,-1426.67"/>
<text xml:space="preserve" text-anchor="middle" x="209" y="-1409.37" font-family="Helvetica,sans-Serif" font-size="14.00">1: Declaracoes e inicializacoes</text>
<text xml:space="preserve" text-anchor="middle" x="209" y="-1393.62" font-family="Helvetica,sans-Serif" font-size="14.00">unsigned long i, ir = n, j, k, l = 1;</text>
<text xml:space="preserve" text-anchor="middle" x="209" y="-1377.87" font-family="Helvetica,sans-Serif" font-size="14.00">int jstack = 0;</text>
<text xml:space="preserve" text-anchor="middle" x="209" y="-1362.12" font-family="Helvetica,sans-Serif" font-size="14.00">int flag;</text>
<text xml:space="preserve" text-anchor="middle" x="209" y="-1346.37" font-family="Helvetica,sans-Serif" font-size="14.00">float a, temp;</text>
<text xml:space="preserve" text-anchor="middle" x="209" y="-1330.62" font-family="Helvetica,sans-Serif" font-size="14.00">flag = 0;</text>
</g>
<!-- N2 -->
<g id="node2" class="node">
<title>N2</title>
<path fill="none" stroke="black" d="M230.5,-1287.17C230.5,-1287.17 187.5,-1287.17 187.5,-1287.17 181.5,-1287.17 175.5,-1281.17 175.5,-1275.17 175.5,-1275.17 175.5,-1263.17 175.5,-1263.17 175.5,-1257.17 181.5,-1251.17 187.5,-1251.17 187.5,-1251.17 230.5,-1251.17 230.5,-1251.17 236.5,-1251.17 242.5,-1257.17 242.5,-1263.17 242.5,-1263.17 242.5,-1275.17 242.5,-1275.17 242.5,-1281.17 236.5,-1287.17 230.5,-1287.17"/>
<text xml:space="preserve" text-anchor="middle" x="209" y="-1263.74" font-family="Helvetica,sans-Serif" font-size="14.00">2: for (;;)</text>
</g>
<!-- N1&#45;&gt;N2 -->
<g id="edge1" class="edge">
<title>N1&#45;&gt;N2</title>
<path fill="none" stroke="black" d="M209,-1323.82C209,-1315.24 209,-1306.61 209,-1298.85"/>
<polygon fill="black" stroke="black" points="212.5,-1299.02 209,-1289.02 205.5,-1299.02 212.5,-1299.02"/>
</g>
<!-- N3 -->
<g id="node3" class="node">
<title>N3</title>
<path fill="none" stroke="black" d="M340.38,-1214.17C340.38,-1214.17 263.62,-1214.17 263.62,-1214.17 257.62,-1214.17 251.62,-1208.17 251.62,-1202.17 251.62,-1202.17 251.62,-1190.17 251.62,-1190.17 251.62,-1184.17 257.62,-1178.17 263.62,-1178.17 263.62,-1178.17 340.38,-1178.17 340.38,-1178.17 346.38,-1178.17 352.38,-1184.17 352.38,-1190.17 352.38,-1190.17 352.38,-1202.17 352.38,-1202.17 352.38,-1208.17 346.38,-1214.17 340.38,-1214.17"/>
<text xml:space="preserve" text-anchor="middle" x="302" y="-1190.74" font-family="Helvetica,sans-Serif" font-size="14.00">3: if (ir &#45; l &lt; M)</text>
</g>
<!-- N2&#45;&gt;N3 -->
<g id="edge2" class="edge">
<title>N2&#45;&gt;N3</title>
<path fill="none" stroke="black" d="M231.51,-1250.98C243.19,-1242.06 257.65,-1231.02 270.43,-1221.27"/>
<polygon fill="black" stroke="black" points="272.34,-1224.21 278.17,-1215.36 268.1,-1218.65 272.34,-1224.21"/>
</g>
<!-- N4 -->
<g id="node4" class="node">
<title>N4</title>
<path fill="none" stroke="black" d="M345.62,-1117.79C345.62,-1117.79 258.38,-1117.79 258.38,-1117.79 252.38,-1117.79 246.38,-1111.79 246.38,-1105.79 246.38,-1105.79 246.38,-1090.29 246.38,-1090.29 246.38,-1084.29 252.38,-1078.29 258.38,-1078.29 258.38,-1078.29 345.62,-1078.29 345.62,-1078.29 351.62,-1078.29 357.62,-1084.29 357.62,-1090.29 357.62,-1090.29 357.62,-1105.79 357.62,-1105.79 357.62,-1111.79 351.62,-1117.79 345.62,-1117.79"/>
<text xml:space="preserve" text-anchor="middle" x="302" y="-1100.49" font-family="Helvetica,sans-Serif" font-size="14.00">4: Insertion Sort</text>
<text xml:space="preserve" text-anchor="middle" x="302" y="-1084.74" font-family="Helvetica,sans-Serif" font-size="14.00">j = l + 1</text>
</g>
<!-- N3&#45;&gt;N4 -->
<g id="edge3" class="edge">
<title>N3&#45;&gt;N4</title>
<path fill="none" stroke="black" d="M302,-1177.98C302,-1164.56 302,-1145.56 302,-1129.56"/>
<polygon fill="black" stroke="black" points="305.5,-1129.57 302,-1119.57 298.5,-1129.57 305.5,-1129.57"/>
<text xml:space="preserve" text-anchor="middle" x="312.5" y="-1146.87" font-family="Times New Roman,serif" font-size="14.00">true</text>
</g>
<!-- N14 -->
<g id="node14" class="node">
<title>N14</title>
<path fill="none" stroke="black" d="M536.75,-1125.67C536.75,-1125.67 411.25,-1125.67 411.25,-1125.67 405.25,-1125.67 399.25,-1119.67 399.25,-1113.67 399.25,-1113.67 399.25,-1082.42 399.25,-1082.42 399.25,-1076.42 405.25,-1070.42 411.25,-1070.42 411.25,-1070.42 536.75,-1070.42 536.75,-1070.42 542.75,-1070.42 548.75,-1076.42 548.75,-1082.42 548.75,-1082.42 548.75,-1113.67 548.75,-1113.67 548.75,-1119.67 542.75,-1125.67 536.75,-1125.67"/>
<text xml:space="preserve" text-anchor="middle" x="474" y="-1108.37" font-family="Helvetica,sans-Serif" font-size="14.00">14: Particao</text>
<text xml:space="preserve" text-anchor="middle" x="474" y="-1092.62" font-family="Helvetica,sans-Serif" font-size="14.00">k = (l + ir) &gt;&gt; 1;</text>
<text xml:space="preserve" text-anchor="middle" x="474" y="-1076.87" font-family="Helvetica,sans-Serif" font-size="14.00">SWAP(arr[k], arr[l+1]);</text>
</g>
<!-- N3&#45;&gt;N14 -->
<g id="edge4" class="edge">
<title>N3&#45;&gt;N14</title>
<path fill="none" stroke="black" d="M333.15,-1177.76C356.08,-1164.94 387.95,-1147.13 415.57,-1131.7"/>
<polygon fill="black" stroke="black" points="417.19,-1134.8 424.21,-1126.87 413.77,-1128.69 417.19,-1134.8"/>
<text xml:space="preserve" text-anchor="middle" x="405.91" y="-1146.87" font-family="Times New Roman,serif" font-size="14.00">false</text>
</g>
<!-- N5 -->
<g id="node5" class="node">
<title>N5</title>
<path fill="none" stroke="black" d="M341.5,-1031.67C341.5,-1031.67 262.5,-1031.67 262.5,-1031.67 256.5,-1031.67 250.5,-1025.67 250.5,-1019.67 250.5,-1019.67 250.5,-1007.67 250.5,-1007.67 250.5,-1001.67 256.5,-995.67 262.5,-995.67 262.5,-995.67 341.5,-995.67 341.5,-995.67 347.5,-995.67 353.5,-1001.67 353.5,-1007.67 353.5,-1007.67 353.5,-1019.67 353.5,-1019.67 353.5,-1025.67 347.5,-1031.67 341.5,-1031.67"/>
<text xml:space="preserve" text-anchor="middle" x="302" y="-1008.24" font-family="Helvetica,sans-Serif" font-size="14.00">5: Loop: j &lt;= ir</text>
</g>
<!-- N4&#45;&gt;N5 -->
<g id="edge5" class="edge">
<title>N4&#45;&gt;N5</title>
<path fill="none" stroke="black" d="M302,-1077.94C302,-1067.64 302,-1054.72 302,-1043.25"/>
<polygon fill="black" stroke="black" points="305.5,-1043.5 302,-1033.5 298.5,-1043.5 305.5,-1043.5"/>
</g>
<!-- N6 -->
<g id="node6" class="node">
<title>N6</title>
<path fill="none" stroke="black" d="M411.5,-941.42C411.5,-941.42 350.5,-941.42 350.5,-941.42 344.5,-941.42 338.5,-935.42 338.5,-929.42 338.5,-929.42 338.5,-913.92 338.5,-913.92 338.5,-907.92 344.5,-901.92 350.5,-901.92 350.5,-901.92 411.5,-901.92 411.5,-901.92 417.5,-901.92 423.5,-907.92 423.5,-913.92 423.5,-913.92 423.5,-929.42 423.5,-929.42 423.5,-935.42 417.5,-941.42 411.5,-941.42"/>
<text xml:space="preserve" text-anchor="middle" x="381" y="-924.12" font-family="Helvetica,sans-Serif" font-size="14.00">6: a = arr[j];</text>
<text xml:space="preserve" text-anchor="middle" x="381" y="-908.37" font-family="Helvetica,sans-Serif" font-size="14.00">i = j &#45; 1</text>
</g>
<!-- N5&#45;&gt;N6 -->
<g id="edge6" class="edge">
<title>N5&#45;&gt;N6</title>
<path fill="none" stroke="black" d="M317.23,-995.32C328.48,-982.51 344,-964.82 356.92,-950.1"/>
<polygon fill="black" stroke="black" points="359.21,-952.8 363.18,-942.97 353.95,-948.18 359.21,-952.8"/>
<text xml:space="preserve" text-anchor="middle" x="359.08" y="-962.62" font-family="Times New Roman,serif" font-size="14.00">true</text>
</g>
<!-- N11 -->
<g id="node11" class="node">
<title>N11</title>
<path fill="none" stroke="black" d="M261.62,-939.67C261.62,-939.67 162.38,-939.67 162.38,-939.67 156.38,-939.67 150.38,-933.67 150.38,-927.67 150.38,-927.67 150.38,-915.67 150.38,-915.67 150.38,-909.67 156.38,-903.67 162.38,-903.67 162.38,-903.67 261.62,-903.67 261.62,-903.67 267.62,-903.67 273.62,-909.67 273.62,-915.67 273.62,-915.67 273.62,-927.67 273.62,-927.67 273.62,-933.67 267.62,-939.67 261.62,-939.67"/>
<text xml:space="preserve" text-anchor="middle" x="212" y="-916.24" font-family="Helvetica,sans-Serif" font-size="14.00">11: if (jstack == 0)</text>
</g>
<!-- N5&#45;&gt;N11 -->
<g id="edge7" class="edge">
<title>N5&#45;&gt;N11</title>
<path fill="none" stroke="black" d="M282.89,-995.33C276.34,-989.28 269.02,-982.38 262.5,-975.92 253.45,-966.95 243.76,-956.86 235.31,-947.89"/>
<polygon fill="black" stroke="black" points="238.08,-945.73 228.69,-940.82 232.97,-950.51 238.08,-945.73"/>
<text xml:space="preserve" text-anchor="middle" x="275.25" y="-962.62" font-family="Times New Roman,serif" font-size="14.00">false</text>
</g>
<!-- N7 -->
<g id="node7" class="node">
<title>N7</title>
<path fill="none" stroke="black" d="M442.25,-847.67C442.25,-847.67 367.75,-847.67 367.75,-847.67 361.75,-847.67 355.75,-841.67 355.75,-835.67 355.75,-835.67 355.75,-823.67 355.75,-823.67 355.75,-817.67 361.75,-811.67 367.75,-811.67 367.75,-811.67 442.25,-811.67 442.25,-811.67 448.25,-811.67 454.25,-817.67 454.25,-823.67 454.25,-823.67 454.25,-835.67 454.25,-835.67 454.25,-841.67 448.25,-847.67 442.25,-847.67"/>
<text xml:space="preserve" text-anchor="middle" x="405" y="-824.24" font-family="Helvetica,sans-Serif" font-size="14.00">7: Loop: i &gt;= l</text>
</g>
<!-- N6&#45;&gt;N7 -->
<g id="edge8" class="edge">
<title>N6&#45;&gt;N7</title>
<path fill="none" stroke="black" d="M386.09,-901.58C389.4,-889.17 393.78,-872.76 397.48,-858.85"/>
<polygon fill="black" stroke="black" points="400.82,-859.93 400.01,-849.36 394.06,-858.12 400.82,-859.93"/>
</g>
<!-- N8 -->
<g id="node8" class="node">
<title>N8</title>
<path fill="none" stroke="black" d="M488.5,-732.08C488.5,-732.08 403.5,-732.08 403.5,-732.08 397.5,-732.08 391.5,-726.08 391.5,-720.08 391.5,-720.08 391.5,-704.58 391.5,-704.58 391.5,-698.58 397.5,-692.58 403.5,-692.58 403.5,-692.58 488.5,-692.58 488.5,-692.58 494.5,-692.58 500.5,-698.58 500.5,-704.58 500.5,-704.58 500.5,-720.08 500.5,-720.08 500.5,-726.08 494.5,-732.08 488.5,-732.08"/>
<text xml:space="preserve" text-anchor="middle" x="446" y="-714.78" font-family="Helvetica,sans-Serif" font-size="14.00">8: if (arr[i] &lt;= a)</text>
<text xml:space="preserve" text-anchor="middle" x="446" y="-699.03" font-family="Helvetica,sans-Serif" font-size="14.00">break;</text>
</g>
<!-- N7&#45;&gt;N8 -->
<g id="edge9" class="edge">
<title>N7&#45;&gt;N8</title>
<path fill="none" stroke="black" d="M411.05,-811.65C417.46,-793.61 427.71,-764.79 435.45,-743"/>
<polygon fill="black" stroke="black" points="438.68,-744.36 438.74,-733.77 432.09,-742.02 438.68,-744.36"/>
<text xml:space="preserve" text-anchor="middle" x="433.55" y="-778.62" font-family="Times New Roman,serif" font-size="14.00">true</text>
</g>
<!-- N10 -->
<g id="node10" class="node">
<title>N10</title>
<path fill="none" stroke="black" d="M390.12,-614.75C390.12,-614.75 305.88,-614.75 305.88,-614.75 299.88,-614.75 293.88,-608.75 293.88,-602.75 293.88,-602.75 293.88,-587.25 293.88,-587.25 293.88,-581.25 299.88,-575.25 305.88,-575.25 305.88,-575.25 390.12,-575.25 390.12,-575.25 396.12,-575.25 402.12,-581.25 402.12,-587.25 402.12,-587.25 402.12,-602.75 402.12,-602.75 402.12,-608.75 396.12,-614.75 390.12,-614.75"/>
<text xml:space="preserve" text-anchor="middle" x="348" y="-597.45" font-family="Helvetica,sans-Serif" font-size="14.00">10: arr[i+1] = a;</text>
<text xml:space="preserve" text-anchor="middle" x="348" y="-581.7" font-family="Helvetica,sans-Serif" font-size="14.00">j++</text>
</g>
<!-- N7&#45;&gt;N10 -->
<g id="edge10" class="edge">
<title>N7&#45;&gt;N10</title>
<path fill="none" stroke="black" d="M389.23,-811.41C377.87,-797.83 363.38,-777.84 356.5,-757.42 341.73,-713.6 342.45,-659.32 344.84,-626.2"/>
<polygon fill="black" stroke="black" points="348.31,-626.77 345.65,-616.52 341.33,-626.19 348.31,-626.77"/>
<text xml:space="preserve" text-anchor="middle" x="369.25" y="-707.28" font-family="Times New Roman,serif" font-size="14.00">false</text>
</g>
<!-- N9 -->
<g id="node9" class="node">
<title>N9</title>
<path fill="none" stroke="black" d="M529.12,-614.75C529.12,-614.75 432.88,-614.75 432.88,-614.75 426.88,-614.75 420.88,-608.75 420.88,-602.75 420.88,-602.75 420.88,-587.25 420.88,-587.25 420.88,-581.25 426.88,-575.25 432.88,-575.25 432.88,-575.25 529.12,-575.25 529.12,-575.25 535.12,-575.25 541.12,-581.25 541.12,-587.25 541.12,-587.25 541.12,-602.75 541.12,-602.75 541.12,-608.75 535.12,-614.75 529.12,-614.75"/>
<text xml:space="preserve" text-anchor="middle" x="481" y="-597.45" font-family="Helvetica,sans-Serif" font-size="14.00">9: arr[i+1] = arr[i];</text>
<text xml:space="preserve" text-anchor="middle" x="481" y="-581.7" font-family="Helvetica,sans-Serif" font-size="14.00">i&#45;&#45;</text>
</g>
<!-- N8&#45;&gt;N9 -->
<g id="edge12" class="edge">
<title>N8&#45;&gt;N9</title>
<path fill="none" stroke="black" d="M451.78,-692.29C457.25,-674.26 465.55,-646.91 471.91,-625.95"/>
<polygon fill="black" stroke="black" points="475.22,-627.11 474.77,-616.52 468.52,-625.07 475.22,-627.11"/>
<text xml:space="preserve" text-anchor="middle" x="480.18" y="-635.95" font-family="Times New Roman,serif" font-size="14.00">else</text>
</g>
<!-- N8&#45;&gt;N10 -->
<g id="edge11" class="edge">
<title>N8&#45;&gt;N10</title>
<path fill="none" stroke="black" d="M429.82,-692.29C413.93,-673.59 389.52,-644.87 371.5,-623.65"/>
<polygon fill="black" stroke="black" points="374.33,-621.58 365.19,-616.23 368.99,-626.11 374.33,-621.58"/>
<text xml:space="preserve" text-anchor="middle" x="406.13" y="-635.95" font-family="Times New Roman,serif" font-size="14.00">break</text>
</g>
<!-- N9&#45;&gt;N7 -->
<g id="edge13" class="edge">
<title>N9&#45;&gt;N7</title>
<path fill="none" stroke="black" d="M491.67,-615.11C507.71,-646.61 533.67,-710.62 509,-757.42 497.96,-778.37 477.67,-794.34 457.92,-805.8"/>
<polygon fill="black" stroke="black" points="456.43,-802.62 449.33,-810.49 459.78,-808.77 456.43,-802.62"/>
</g>
<!-- N10&#45;&gt;N5 -->
<g id="edge14" class="edge">
<title>N10&#45;&gt;N5</title>
<path fill="none" stroke="black" d="M335.19,-615.07C321.58,-637.22 302,-675.33 302,-711.33 302,-922.67 302,-922.67 302,-922.67 302,-943.23 302,-966.44 302,-984.14"/>
<polygon fill="black" stroke="black" points="298.5,-983.9 302,-993.9 305.5,-983.9 298.5,-983.9"/>
</g>
<!-- N12 -->
<g id="node12" class="node">
<title>N12</title>
<path fill="none" stroke="black" d="M262,-847.67C262,-847.67 210,-847.67 210,-847.67 204,-847.67 198,-841.67 198,-835.67 198,-835.67 198,-823.67 198,-823.67 198,-817.67 204,-811.67 210,-811.67 210,-811.67 262,-811.67 262,-811.67 268,-811.67 274,-817.67 274,-823.67 274,-823.67 274,-835.67 274,-835.67 274,-841.67 268,-847.67 262,-847.67"/>
<text xml:space="preserve" text-anchor="middle" x="236" y="-824.24" font-family="Helvetica,sans-Serif" font-size="14.00">12: break;</text>
</g>
<!-- N11&#45;&gt;N12 -->
<g id="edge15" class="edge">
<title>N11&#45;&gt;N12</title>
<path fill="none" stroke="black" d="M216.63,-903.32C219.98,-890.74 224.59,-873.46 228.47,-858.91"/>
<polygon fill="black" stroke="black" points="231.8,-859.99 231,-849.43 225.04,-858.19 231.8,-859.99"/>
<text xml:space="preserve" text-anchor="middle" x="236.65" y="-870.62" font-family="Times New Roman,serif" font-size="14.00">true</text>
</g>
<!-- N13 -->
<g id="node13" class="node">
<title>N13</title>
<path fill="none" stroke="black" d="M167.5,-849.42C167.5,-849.42 40.5,-849.42 40.5,-849.42 34.5,-849.42 28.5,-843.42 28.5,-837.42 28.5,-837.42 28.5,-821.92 28.5,-821.92 28.5,-815.92 34.5,-809.92 40.5,-809.92 40.5,-809.92 167.5,-809.92 167.5,-809.92 173.5,-809.92 179.5,-815.92 179.5,-821.92 179.5,-821.92 179.5,-837.42 179.5,-837.42 179.5,-843.42 173.5,-849.42 167.5,-849.42"/>
<text xml:space="preserve" text-anchor="middle" x="104" y="-832.12" font-family="Helvetica,sans-Serif" font-size="14.00">13: ir = istack[jstack&#45;&#45;];</text>
<text xml:space="preserve" text-anchor="middle" x="104" y="-816.37" font-family="Helvetica,sans-Serif" font-size="14.00">l = istack[jstack&#45;&#45;];</text>
</g>
<!-- N11&#45;&gt;N13 -->
<g id="edge16" class="edge">
<title>N11&#45;&gt;N13</title>
<path fill="none" stroke="black" d="M191.18,-903.32C175.37,-890.15 153.38,-871.82 135.44,-856.87"/>
<polygon fill="black" stroke="black" points="138.09,-854.52 128.17,-850.81 133.61,-859.9 138.09,-854.52"/>
<text xml:space="preserve" text-anchor="middle" x="180.42" y="-870.62" font-family="Times New Roman,serif" font-size="14.00">false</text>
</g>
<!-- N29 -->
<g id="node29" class="node">
<title>N29</title>
<ellipse fill="none" stroke="black" cx="229" cy="-712.33" rx="41.08" ry="41.08"/>
<ellipse fill="none" stroke="black" cx="229" cy="-712.33" rx="45.08" ry="45.08"/>
<text xml:space="preserve" text-anchor="middle" x="229" y="-706.91" font-family="Helvetica,sans-Serif" font-size="14.00">29: Fim</text>
</g>
<!-- N12&#45;&gt;N29 -->
<g id="edge17" class="edge">
<title>N12&#45;&gt;N29</title>
<path fill="none" stroke="black" d="M234.97,-811.65C234.28,-800.25 233.32,-784.55 232.38,-769.04"/>
<polygon fill="black" stroke="black" points="235.89,-769.12 231.79,-759.35 228.91,-769.54 235.89,-769.12"/>
</g>
<!-- N13&#45;&gt;N2 -->
<g id="edge18" class="edge">
<title>N13&#45;&gt;N2</title>
<path fill="none" stroke="black" d="M106,-849.61C107.74,-867.8 110,-896.08 110,-920.67 110,-1197.17 110,-1197.17 110,-1197.17 110,-1226.07 138.22,-1244.35 164.52,-1255.11"/>
<polygon fill="black" stroke="black" points="163.2,-1258.35 173.79,-1258.61 165.67,-1251.8 163.2,-1258.35"/>
</g>
<!-- N15 -->
<g id="node15" class="node">
<title>N15</title>
<path fill="none" stroke="black" d="M542.25,-1033.42C542.25,-1033.42 431.75,-1033.42 431.75,-1033.42 425.75,-1033.42 419.75,-1027.42 419.75,-1021.42 419.75,-1021.42 419.75,-1005.92 419.75,-1005.92 419.75,-999.92 425.75,-993.92 431.75,-993.92 431.75,-993.92 542.25,-993.92 542.25,-993.92 548.25,-993.92 554.25,-999.92 554.25,-1005.92 554.25,-1005.92 554.25,-1021.42 554.25,-1021.42 554.25,-1027.42 548.25,-1033.42 542.25,-1033.42"/>
<text xml:space="preserve" text-anchor="middle" x="487" y="-1016.12" font-family="Helvetica,sans-Serif" font-size="14.00">15: if (arr[l] &gt; arr[ir])</text>
<text xml:space="preserve" text-anchor="middle" x="487" y="-1000.37" font-family="Helvetica,sans-Serif" font-size="14.00">SWAP(arr[l], arr[ir]);</text>
</g>
<!-- N14&#45;&gt;N15 -->
<g id="edge19" class="edge">
<title>N14&#45;&gt;N15</title>
<path fill="none" stroke="black" d="M478.26,-1070.07C479.51,-1062.13 480.89,-1053.38 482.18,-1045.22"/>
<polygon fill="black" stroke="black" points="485.63,-1045.79 483.73,-1035.37 478.72,-1044.7 485.63,-1045.79"/>
</g>
<!-- N16 -->
<g id="node16" class="node">
<title>N16</title>
<path fill="none" stroke="black" d="M611.12,-941.42C611.12,-941.42 484.88,-941.42 484.88,-941.42 478.88,-941.42 472.88,-935.42 472.88,-929.42 472.88,-929.42 472.88,-913.92 472.88,-913.92 472.88,-907.92 478.88,-901.92 484.88,-901.92 484.88,-901.92 611.12,-901.92 611.12,-901.92 617.12,-901.92 623.12,-907.92 623.12,-913.92 623.12,-913.92 623.12,-929.42 623.12,-929.42 623.12,-935.42 617.12,-941.42 611.12,-941.42"/>
<text xml:space="preserve" text-anchor="middle" x="548" y="-924.12" font-family="Helvetica,sans-Serif" font-size="14.00">16: if (arr[l+1] &gt; arr[ir])</text>
<text xml:space="preserve" text-anchor="middle" x="548" y="-908.37" font-family="Helvetica,sans-Serif" font-size="14.00">SWAP(arr[l+1], arr[ir]);</text>
</g>
<!-- N15&#45;&gt;N16 -->
<g id="edge20" class="edge">
<title>N15&#45;&gt;N16</title>
<path fill="none" stroke="black" d="M499.94,-993.58C508.35,-981.17 519.46,-964.77 528.88,-950.87"/>
<polygon fill="black" stroke="black" points="531.52,-953.22 534.23,-942.98 525.73,-949.29 531.52,-953.22"/>
</g>
<!-- N17 -->
<g id="node17" class="node">
<title>N17</title>
<path fill="none" stroke="black" d="M631.88,-849.42C631.88,-849.42 510.12,-849.42 510.12,-849.42 504.12,-849.42 498.12,-843.42 498.12,-837.42 498.12,-837.42 498.12,-821.92 498.12,-821.92 498.12,-815.92 504.12,-809.92 510.12,-809.92 510.12,-809.92 631.88,-809.92 631.88,-809.92 637.88,-809.92 643.88,-815.92 643.88,-821.92 643.88,-821.92 643.88,-837.42 643.88,-837.42 643.88,-843.42 637.88,-849.42 631.88,-849.42"/>
<text xml:space="preserve" text-anchor="middle" x="571" y="-832.12" font-family="Helvetica,sans-Serif" font-size="14.00">17: if (arr[l] &gt; arr[l+1])</text>
<text xml:space="preserve" text-anchor="middle" x="571" y="-816.37" font-family="Helvetica,sans-Serif" font-size="14.00">SWAP(arr[l], arr[l+1]);</text>
</g>
<!-- N16&#45;&gt;N17 -->
<g id="edge21" class="edge">
<title>N16&#45;&gt;N17</title>
<path fill="none" stroke="black" d="M552.88,-901.58C555.93,-889.65 559.92,-874.03 563.38,-860.49"/>
<polygon fill="black" stroke="black" points="566.67,-861.75 565.75,-851.19 559.89,-860.02 566.67,-861.75"/>
</g>
<!-- N18 -->
<g id="node18" class="node">
<title>N18</title>
<path fill="none" stroke="black" d="M632.62,-739.96C632.62,-739.96 569.38,-739.96 569.38,-739.96 563.38,-739.96 557.38,-733.96 557.38,-727.96 557.38,-727.96 557.38,-696.71 557.38,-696.71 557.38,-690.71 563.38,-684.71 569.38,-684.71 569.38,-684.71 632.62,-684.71 632.62,-684.71 638.62,-684.71 644.62,-690.71 644.62,-696.71 644.62,-696.71 644.62,-727.96 644.62,-727.96 644.62,-733.96 638.62,-739.96 632.62,-739.96"/>
<text xml:space="preserve" text-anchor="middle" x="601" y="-722.66" font-family="Helvetica,sans-Serif" font-size="14.00">18: i = l + 1;</text>
<text xml:space="preserve" text-anchor="middle" x="601" y="-706.91" font-family="Helvetica,sans-Serif" font-size="14.00">j = ir;</text>
<text xml:space="preserve" text-anchor="middle" x="601" y="-691.16" font-family="Helvetica,sans-Serif" font-size="14.00">a = arr[l+1];</text>
</g>
<!-- N17&#45;&gt;N18 -->
<g id="edge22" class="edge">
<title>N17&#45;&gt;N18</title>
<path fill="none" stroke="black" d="M575.95,-809.62C580.07,-793.79 586.06,-770.77 591.15,-751.21"/>
<polygon fill="black" stroke="black" points="594.51,-752.2 593.64,-741.64 587.73,-750.44 594.51,-752.2"/>
</g>
<!-- N19 -->
<g id="node19" class="node">
<title>N19</title>
<path fill="none" stroke="black" d="M622.25,-613C622.25,-613 571.75,-613 571.75,-613 565.75,-613 559.75,-607 559.75,-601 559.75,-601 559.75,-589 559.75,-589 559.75,-583 565.75,-577 571.75,-577 571.75,-577 622.25,-577 622.25,-577 628.25,-577 634.25,-583 634.25,-589 634.25,-589 634.25,-601 634.25,-601 634.25,-607 628.25,-613 622.25,-613"/>
<text xml:space="preserve" text-anchor="middle" x="597" y="-589.58" font-family="Helvetica,sans-Serif" font-size="14.00">19: for (;;)</text>
</g>
<!-- N18&#45;&gt;N19 -->
<g id="edge23" class="edge">
<title>N18&#45;&gt;N19</title>
<path fill="none" stroke="black" d="M600.06,-684.29C599.44,-666.36 598.62,-642.85 597.99,-624.6"/>
<polygon fill="black" stroke="black" points="601.49,-624.59 597.65,-614.72 594.5,-624.84 601.49,-624.59"/>
</g>
<!-- N20 -->
<g id="node20" class="node">
<title>N20</title>
<path fill="none" stroke="black" d="M557.38,-538.25C557.38,-538.25 444.62,-538.25 444.62,-538.25 438.62,-538.25 432.62,-532.25 432.62,-526.25 432.62,-526.25 432.62,-510.75 432.62,-510.75 432.62,-504.75 438.62,-498.75 444.62,-498.75 444.62,-498.75 557.38,-498.75 557.38,-498.75 563.38,-498.75 569.38,-504.75 569.38,-510.75 569.38,-510.75 569.38,-526.25 569.38,-526.25 569.38,-532.25 563.38,-538.25 557.38,-538.25"/>
<text xml:space="preserve" text-anchor="middle" x="501" y="-520.95" font-family="Helvetica,sans-Serif" font-size="14.00">20: i++;</text>
<text xml:space="preserve" text-anchor="middle" x="501" y="-505.2" font-family="Helvetica,sans-Serif" font-size="14.00">while (arr[i] &lt; a) i++;</text>
</g>
<!-- N19&#45;&gt;N20 -->
<g id="edge24" class="edge">
<title>N19&#45;&gt;N20</title>
<path fill="none" stroke="black" d="M574.73,-576.72C562.76,-567.43 547.76,-555.79 534.42,-545.43"/>
<polygon fill="black" stroke="black" points="536.75,-542.81 526.7,-539.44 532.45,-548.34 536.75,-542.81"/>
</g>
<!-- N21 -->
<g id="node21" class="node">
<title>N21</title>
<path fill="none" stroke="black" d="M553.62,-461.75C553.62,-461.75 448.38,-461.75 448.38,-461.75 442.38,-461.75 436.38,-455.75 436.38,-449.75 436.38,-449.75 436.38,-434.25 436.38,-434.25 436.38,-428.25 442.38,-422.25 448.38,-422.25 448.38,-422.25 553.62,-422.25 553.62,-422.25 559.62,-422.25 565.62,-428.25 565.62,-434.25 565.62,-434.25 565.62,-449.75 565.62,-449.75 565.62,-455.75 559.62,-461.75 553.62,-461.75"/>
<text xml:space="preserve" text-anchor="middle" x="501" y="-444.45" font-family="Helvetica,sans-Serif" font-size="14.00">21: j&#45;&#45;;</text>
<text xml:space="preserve" text-anchor="middle" x="501" y="-428.7" font-family="Helvetica,sans-Serif" font-size="14.00">while (arr[j] &gt; a) j&#45;&#45;;</text>
</g>
<!-- N20&#45;&gt;N21 -->
<g id="edge25" class="edge">
<title>N20&#45;&gt;N21</title>
<path fill="none" stroke="black" d="M501,-498.31C501,-490.75 501,-481.88 501,-473.49"/>
<polygon fill="black" stroke="black" points="504.5,-473.63 501,-463.63 497.5,-473.63 504.5,-473.63"/>
</g>
<!-- N22 -->
<g id="node22" class="node">
<title>N22</title>
<path fill="none" stroke="black" d="M528.88,-385.25C528.88,-385.25 473.12,-385.25 473.12,-385.25 467.12,-385.25 461.12,-379.25 461.12,-373.25 461.12,-373.25 461.12,-357.75 461.12,-357.75 461.12,-351.75 467.12,-345.75 473.12,-345.75 473.12,-345.75 528.88,-345.75 528.88,-345.75 534.88,-345.75 540.88,-351.75 540.88,-357.75 540.88,-357.75 540.88,-373.25 540.88,-373.25 540.88,-379.25 534.88,-385.25 528.88,-385.25"/>
<text xml:space="preserve" text-anchor="middle" x="501" y="-367.95" font-family="Helvetica,sans-Serif" font-size="14.00">22: if (j &lt; i)</text>
<text xml:space="preserve" text-anchor="middle" x="501" y="-352.2" font-family="Helvetica,sans-Serif" font-size="14.00">break;</text>
</g>
<!-- N21&#45;&gt;N22 -->
<g id="edge26" class="edge">
<title>N21&#45;&gt;N22</title>
<path fill="none" stroke="black" d="M501,-421.81C501,-414.25 501,-405.38 501,-396.99"/>
<polygon fill="black" stroke="black" points="504.5,-397.13 501,-387.13 497.5,-397.13 504.5,-397.13"/>
</g>
<!-- N23 -->
<g id="node23" class="node">
<title>N23</title>
<path fill="none" stroke="black" d="M633.25,-291.5C633.25,-291.5 504.75,-291.5 504.75,-291.5 498.75,-291.5 492.75,-285.5 492.75,-279.5 492.75,-279.5 492.75,-267.5 492.75,-267.5 492.75,-261.5 498.75,-255.5 504.75,-255.5 504.75,-255.5 633.25,-255.5 633.25,-255.5 639.25,-255.5 645.25,-261.5 645.25,-267.5 645.25,-267.5 645.25,-279.5 645.25,-279.5 645.25,-285.5 639.25,-291.5 633.25,-291.5"/>
<text xml:space="preserve" text-anchor="middle" x="569" y="-268.07" font-family="Helvetica,sans-Serif" font-size="14.00">23: SWAP(arr[i], arr[j]);</text>
</g>
<!-- N22&#45;&gt;N23 -->
<g id="edge28" class="edge">
<title>N22&#45;&gt;N23</title>
<path fill="none" stroke="black" d="M515.42,-345.41C525.27,-332.38 538.45,-314.94 549.27,-300.62"/>
<polygon fill="black" stroke="black" points="551.83,-303.03 555.07,-292.94 546.25,-298.81 551.83,-303.03"/>
<text xml:space="preserve" text-anchor="middle" x="553.84" y="-314.45" font-family="Times New Roman,serif" font-size="14.00">false</text>
</g>
<!-- N24 -->
<g id="node24" class="node">
<title>N24</title>
<path fill="none" stroke="black" d="M462.88,-293.25C462.88,-293.25 359.12,-293.25 359.12,-293.25 353.12,-293.25 347.12,-287.25 347.12,-281.25 347.12,-281.25 347.12,-265.75 347.12,-265.75 347.12,-259.75 353.12,-253.75 359.12,-253.75 359.12,-253.75 462.88,-253.75 462.88,-253.75 468.88,-253.75 474.88,-259.75 474.88,-265.75 474.88,-265.75 474.88,-281.25 474.88,-281.25 474.88,-287.25 468.88,-293.25 462.88,-293.25"/>
<text xml:space="preserve" text-anchor="middle" x="411" y="-275.95" font-family="Helvetica,sans-Serif" font-size="14.00">24: arr[l+1] = arr[j];</text>
<text xml:space="preserve" text-anchor="middle" x="411" y="-260.2" font-family="Helvetica,sans-Serif" font-size="14.00">arr[j] = a;</text>
</g>
<!-- N22&#45;&gt;N24 -->
<g id="edge27" class="edge">
<title>N22&#45;&gt;N24</title>
<path fill="none" stroke="black" d="M481.91,-345.41C469.15,-332.65 452.16,-315.66 438.01,-301.51"/>
<polygon fill="black" stroke="black" points="440.68,-299.23 431.13,-294.63 435.73,-304.18 440.68,-299.23"/>
<text xml:space="preserve" text-anchor="middle" x="474.56" y="-314.45" font-family="Times New Roman,serif" font-size="14.00">true</text>
</g>
<!-- N23&#45;&gt;N19 -->
<g id="edge29" class="edge">
<title>N23&#45;&gt;N19</title>
<path fill="none" stroke="black" d="M577.86,-291.93C586.06,-309.71 597,-338.32 597,-364.5 597,-519.5 597,-519.5 597,-519.5 597,-534.61 597,-551.43 597,-565.27"/>
<polygon fill="black" stroke="black" points="593.5,-565.03 597,-575.03 600.5,-565.03 593.5,-565.03"/>
</g>
<!-- N25 -->
<g id="node25" class="node">
<title>N25</title>
<path fill="none" stroke="black" d="M453.12,-216.75C453.12,-216.75 368.88,-216.75 368.88,-216.75 362.88,-216.75 356.88,-210.75 356.88,-204.75 356.88,-204.75 356.88,-192.75 356.88,-192.75 356.88,-186.75 362.88,-180.75 368.88,-180.75 368.88,-180.75 453.12,-180.75 453.12,-180.75 459.12,-180.75 465.12,-186.75 465.12,-192.75 465.12,-192.75 465.12,-204.75 465.12,-204.75 465.12,-210.75 459.12,-216.75 453.12,-216.75"/>
<text xml:space="preserve" text-anchor="middle" x="411" y="-193.32" font-family="Helvetica,sans-Serif" font-size="14.00">25: jstack += 2;</text>
</g>
<!-- N24&#45;&gt;N25 -->
<g id="edge30" class="edge">
<title>N24&#45;&gt;N25</title>
<path fill="none" stroke="black" d="M411,-253.39C411,-245.72 411,-236.72 411,-228.3"/>
<polygon fill="black" stroke="black" points="414.5,-228.51 411,-218.51 407.5,-228.51 414.5,-228.51"/>
</g>
<!-- N26 -->
<g id="node26" class="node">
<title>N26</title>
<path fill="none" stroke="black" d="M471.88,-143.75C471.88,-143.75 350.12,-143.75 350.12,-143.75 344.12,-143.75 338.12,-137.75 338.12,-131.75 338.12,-131.75 338.12,-119.75 338.12,-119.75 338.12,-113.75 344.12,-107.75 350.12,-107.75 350.12,-107.75 471.88,-107.75 471.88,-107.75 477.88,-107.75 483.88,-113.75 483.88,-119.75 483.88,-119.75 483.88,-131.75 483.88,-131.75 483.88,-137.75 477.88,-143.75 471.88,-143.75"/>
<text xml:space="preserve" text-anchor="middle" x="411" y="-120.33" font-family="Helvetica,sans-Serif" font-size="14.00">26: if (ir &#45; i + 1 &gt;= j &#45; l)</text>
</g>
<!-- N25&#45;&gt;N26 -->
<g id="edge31" class="edge">
<title>N25&#45;&gt;N26</title>
<path fill="none" stroke="black" d="M411,-180.56C411,-172.98 411,-163.85 411,-155.29"/>
<polygon fill="black" stroke="black" points="414.5,-155.29 411,-145.29 407.5,-155.29 414.5,-155.29"/>
</g>
<!-- N27 -->
<g id="node27" class="node">
<title>N27</title>
<path fill="none" stroke="black" d="M162,-55.25C162,-55.25 44,-55.25 44,-55.25 38,-55.25 32,-49.25 32,-43.25 32,-43.25 32,-12 32,-12 32,-6 38,0 44,0 44,0 162,0 162,0 168,0 174,-6 174,-12 174,-12 174,-43.25 174,-43.25 174,-49.25 168,-55.25 162,-55.25"/>
<text xml:space="preserve" text-anchor="middle" x="103" y="-37.95" font-family="Helvetica,sans-Serif" font-size="14.00">27: istack[jstack] = ir;</text>
<text xml:space="preserve" text-anchor="middle" x="103" y="-22.2" font-family="Helvetica,sans-Serif" font-size="14.00">istack[jstack&#45;1] = i;</text>
<text xml:space="preserve" text-anchor="middle" x="103" y="-6.45" font-family="Helvetica,sans-Serif" font-size="14.00">ir = j &#45; 1;</text>
</g>
<!-- N26&#45;&gt;N27 -->
<g id="edge32" class="edge">
<title>N26&#45;&gt;N27</title>
<path fill="none" stroke="black" d="M355.22,-107.34C307.79,-92.54 239.01,-71.07 185.25,-54.29"/>
<polygon fill="black" stroke="black" points="186.4,-50.99 175.81,-51.35 184.31,-57.67 186.4,-50.99"/>
<text xml:space="preserve" text-anchor="middle" x="304.14" y="-76.45" font-family="Times New Roman,serif" font-size="14.00">true</text>
</g>
<!-- N28 -->
<g id="node28" class="node">
<title>N28</title>
<path fill="none" stroke="black" d="M674.5,-55.25C674.5,-55.25 541.5,-55.25 541.5,-55.25 535.5,-55.25 529.5,-49.25 529.5,-43.25 529.5,-43.25 529.5,-12 529.5,-12 529.5,-6 535.5,0 541.5,0 541.5,0 674.5,0 674.5,0 680.5,0 686.5,-6 686.5,-12 686.5,-12 686.5,-43.25 686.5,-43.25 686.5,-49.25 680.5,-55.25 674.5,-55.25"/>
<text xml:space="preserve" text-anchor="middle" x="608" y="-37.95" font-family="Helvetica,sans-Serif" font-size="14.00">28: istack[jstack] = j &#45; 1;</text>
<text xml:space="preserve" text-anchor="middle" x="608" y="-22.2" font-family="Helvetica,sans-Serif" font-size="14.00">istack[jstack&#45;1] = l;</text>
<text xml:space="preserve" text-anchor="middle" x="608" y="-6.45" font-family="Helvetica,sans-Serif" font-size="14.00">l = i;</text>
</g>
<!-- N26&#45;&gt;N28 -->
<g id="edge33" class="edge">
<title>N26&#45;&gt;N28</title>
<path fill="none" stroke="black" d="M446.68,-107.34C473.29,-94.36 510.4,-76.25 542.33,-60.67"/>
<polygon fill="black" stroke="black" points="543.67,-63.91 551.13,-56.38 540.61,-57.62 543.67,-63.91"/>
<text xml:space="preserve" text-anchor="middle" x="528.16" y="-76.45" font-family="Times New Roman,serif" font-size="14.00">false</text>
</g>
<!-- N27&#45;&gt;N2 -->
<g id="edge34" class="edge">
<title>N27&#45;&gt;N2</title>
<path fill="none" stroke="black" d="M47.58,-55.74C23.2,-71.87 0,-95.03 0,-124.75 0,-1197.17 0,-1197.17 0,-1197.17 0,-1231.55 102.68,-1252.61 164.1,-1262.14"/>
<polygon fill="black" stroke="black" points="163.52,-1265.59 173.92,-1263.61 164.55,-1258.67 163.52,-1265.59"/>
</g>
<!-- N28&#45;&gt;N2 -->
<g id="edge35" class="edge">
<title>N28&#45;&gt;N2</title>
<path fill="none" stroke="black" d="M638.98,-55.72C655.72,-73.43 673,-98.16 673,-124.75 673,-1197.17 673,-1197.17 673,-1197.17 673,-1239.27 370.64,-1259.67 254.08,-1265.96"/>
<polygon fill="black" stroke="black" points="254.06,-1262.46 244.25,-1266.48 254.43,-1269.45 254.06,-1262.46"/>
</g>
</g>
</svg>
