<?xml version="1.0" encoding="UTF-8" standalone="no"?>
<!DOCTYPE svg PUBLIC "-//W3C//DTD SVG 1.1//EN"
 "http://www.w3.org/Graphics/SVG/1.1/DTD/svg11.dtd">
<!-- Generated by graphviz version 13.1.2 (20250808.2320)
 -->
<!-- Title: DFG Pages: 1 -->
<svg width="439pt" height="512pt"
 viewBox="0.00 0.00 439.00 512.00" xmlns="http://www.w3.org/2000/svg" xmlns:xlink="http://www.w3.org/1999/xlink">
<g id="graph0" class="graph" transform="scale(1 1) rotate(0) translate(4 507.5)">
<title>DFG</title>
<polygon fill="white" stroke="none" points="-4,4 -4,-507.5 434.75,-507.5 434.75,4 -4,4"/>
<!-- n_input -->
<g id="node1" class="node">
<title>n_input</title>
<ellipse fill="lightblue" stroke="black" cx="27" cy="-339.5" rx="27" ry="18"/>
<text xml:space="preserve" text-anchor="middle" x="27" y="-334.07" font-family="Helvetica,sans-Serif" font-size="14.00">n</text>
</g>
<!-- op_cond -->
<g id="node8" class="node">
<title>op_cond</title>
<polygon fill="none" stroke="black" points="141,-269.75 23,-269.75 23,-233.75 141,-233.75 141,-269.75"/>
<text xml:space="preserve" text-anchor="middle" x="82" y="-246.32" font-family="Helvetica,sans-Serif" font-size="14.00">i &lt;= 30 &amp;&amp; i &lt;= n</text>
</g>
<!-- n_input&#45;&gt;op_cond -->
<g id="edge1" class="edge">
<title>n_input&#45;&gt;op_cond</title>
<path fill="none" stroke="black" d="M37.35,-322.37C45.06,-310.35 55.77,-293.65 64.76,-279.62"/>
<polygon fill="black" stroke="black" points="67.68,-281.56 70.13,-271.26 61.78,-277.79 67.68,-281.56"/>
</g>
<!-- const_1 -->
<g id="node2" class="node">
<title>const_1</title>
<ellipse fill="lightblue" stroke="black" cx="318" cy="-485.5" rx="27" ry="18"/>
<text xml:space="preserve" text-anchor="middle" x="318" y="-480.07" font-family="Helvetica,sans-Serif" font-size="14.00">1</text>
</g>
<!-- op_init_fnew -->
<g id="node5" class="node">
<title>op_init_fnew</title>
<polygon fill="none" stroke="black" points="354.12,-430.5 281.88,-430.5 281.88,-394.5 354.12,-394.5 354.12,-430.5"/>
<text xml:space="preserve" text-anchor="middle" x="318" y="-407.07" font-family="Helvetica,sans-Serif" font-size="14.00">Fnew = 1</text>
</g>
<!-- const_1&#45;&gt;op_init_fnew -->
<g id="edge2" class="edge">
<title>const_1&#45;&gt;op_init_fnew</title>
<path fill="none" stroke="black" d="M318,-467.31C318,-459.73 318,-450.6 318,-442.04"/>
<polygon fill="black" stroke="black" points="321.5,-442.04 318,-432.04 314.5,-442.04 321.5,-442.04"/>
</g>
<!-- const_0 -->
<g id="node3" class="node">
<title>const_0</title>
<ellipse fill="lightblue" stroke="black" cx="398" cy="-339.5" rx="27" ry="18"/>
<text xml:space="preserve" text-anchor="middle" x="398" y="-334.07" font-family="Helvetica,sans-Serif" font-size="14.00">0</text>
</g>
<!-- op_init_fold -->
<g id="node6" class="node">
<title>op_init_fold</title>
<polygon fill="none" stroke="black" points="430.75,-269.75 365.25,-269.75 365.25,-233.75 430.75,-233.75 430.75,-269.75"/>
<text xml:space="preserve" text-anchor="middle" x="398" y="-246.32" font-family="Helvetica,sans-Serif" font-size="14.00">Fold = 0</text>
</g>
<!-- const_0&#45;&gt;op_init_fold -->
<g id="edge3" class="edge">
<title>const_0&#45;&gt;op_init_fold</title>
<path fill="none" stroke="black" d="M398,-321.15C398,-309.76 398,-294.59 398,-281.43"/>
<polygon fill="black" stroke="black" points="401.5,-281.59 398,-271.59 394.5,-281.59 401.5,-281.59"/>
</g>
<!-- const_2 -->
<g id="node4" class="node">
<title>const_2</title>
<ellipse fill="lightblue" stroke="black" cx="102" cy="-485.5" rx="27" ry="18"/>
<text xml:space="preserve" text-anchor="middle" x="102" y="-480.07" font-family="Helvetica,sans-Serif" font-size="14.00">2</text>
</g>
<!-- op_init_i -->
<g id="node7" class="node">
<title>op_init_i</title>
<polygon fill="none" stroke="black" points="129,-430.5 75,-430.5 75,-394.5 129,-394.5 129,-430.5"/>
<text xml:space="preserve" text-anchor="middle" x="102" y="-407.07" font-family="Helvetica,sans-Serif" font-size="14.00">i = 2</text>
</g>
<!-- const_2&#45;&gt;op_init_i -->
<g id="edge4" class="edge">
<title>const_2&#45;&gt;op_init_i</title>
<path fill="none" stroke="black" d="M102,-467.31C102,-459.73 102,-450.6 102,-442.04"/>
<polygon fill="black" stroke="black" points="105.5,-442.04 102,-432.04 98.5,-442.04 105.5,-442.04"/>
</g>
<!-- op_temp -->
<g id="node9" class="node">
<title>op_temp</title>
<polygon fill="none" stroke="black" points="308.75,-357.5 213.25,-357.5 213.25,-321.5 308.75,-321.5 308.75,-357.5"/>
<text xml:space="preserve" text-anchor="middle" x="261" y="-334.07" font-family="Helvetica,sans-Serif" font-size="14.00">temp = Fnew</text>
</g>
<!-- op_init_fnew&#45;&gt;op_temp -->
<g id="edge5" class="edge">
<title>op_init_fnew&#45;&gt;op_temp</title>
<path fill="none" stroke="black" d="M304.2,-394.31C297.48,-385.94 289.26,-375.7 281.8,-366.4"/>
<polygon fill="black" stroke="black" points="284.61,-364.32 275.62,-358.71 279.15,-368.7 284.61,-364.32"/>
</g>
<!-- op_fnew -->
<g id="node10" class="node">
<title>op_fnew</title>
<polygon fill="none" stroke="black" points="379.88,-182 240.12,-182 240.12,-146 379.88,-146 379.88,-182"/>
<text xml:space="preserve" text-anchor="middle" x="310" y="-158.57" font-family="Helvetica,sans-Serif" font-size="14.00">Fnew = Fnew + Fold</text>
</g>
<!-- op_init_fnew&#45;&gt;op_fnew -->
<g id="edge6" class="edge">
<title>op_init_fnew&#45;&gt;op_fnew</title>
<path fill="none" stroke="black" d="M319.16,-394.06C321.06,-362.18 324.24,-292.39 320,-233.75 319.04,-220.44 317.04,-205.79 315.08,-193.45"/>
<polygon fill="black" stroke="black" points="318.59,-193.23 313.5,-183.94 311.69,-194.38 318.59,-193.23"/>
</g>
<!-- op_init_fold&#45;&gt;op_fnew -->
<g id="edge7" class="edge">
<title>op_init_fold&#45;&gt;op_fnew</title>
<path fill="none" stroke="black" d="M382.81,-233.36C373.84,-223.33 362.09,-210.65 351,-200 347.41,-196.55 343.54,-193.03 339.67,-189.6"/>
<polygon fill="black" stroke="black" points="342.27,-187.23 332.42,-183.34 337.69,-192.52 342.27,-187.23"/>
</g>
<!-- op_init_i&#45;&gt;op_cond -->
<g id="edge12" class="edge">
<title>op_init_i&#45;&gt;op_cond</title>
<path fill="none" stroke="black" d="M99.82,-394.21C96.4,-367.01 89.71,-313.96 85.57,-281.12"/>
<polygon fill="black" stroke="black" points="89.09,-281.01 84.36,-271.52 82.14,-281.88 89.09,-281.01"/>
</g>
<!-- op_inc_i -->
<g id="node12" class="node">
<title>op_inc_i</title>
<polygon fill="none" stroke="black" points="164,-357.5 110,-357.5 110,-321.5 164,-321.5 164,-357.5"/>
<text xml:space="preserve" text-anchor="middle" x="137" y="-334.07" font-family="Helvetica,sans-Serif" font-size="14.00">i++</text>
</g>
<!-- op_init_i&#45;&gt;op_inc_i -->
<g id="edge13" class="edge">
<title>op_init_i&#45;&gt;op_inc_i</title>
<path fill="none" stroke="black" d="M110.47,-394.31C114.43,-386.29 119.23,-376.55 123.66,-367.57"/>
<polygon fill="black" stroke="black" points="126.65,-369.4 127.94,-358.89 120.38,-366.31 126.65,-369.4"/>
</g>
<!-- op_fold -->
<g id="node11" class="node">
<title>op_fold</title>
<polygon fill="none" stroke="black" points="247.38,-269.75 158.62,-269.75 158.62,-233.75 247.38,-233.75 247.38,-269.75"/>
<text xml:space="preserve" text-anchor="middle" x="203" y="-246.32" font-family="Helvetica,sans-Serif" font-size="14.00">Fold = temp</text>
</g>
<!-- op_temp&#45;&gt;op_fold -->
<g id="edge8" class="edge">
<title>op_temp&#45;&gt;op_fold</title>
<path fill="none" stroke="black" d="M249.26,-321.15C241.17,-309.18 230.24,-293.03 221.05,-279.43"/>
<polygon fill="black" stroke="black" points="224.07,-277.65 215.57,-271.33 218.27,-281.57 224.07,-277.65"/>
</g>
<!-- op_fnew&#45;&gt;op_temp -->
<g id="edge9" class="edge">
<title>op_fnew&#45;&gt;op_temp</title>
<path fill="none" stroke="black" d="M305.07,-182.46C296.58,-212.52 279.13,-274.31 268.92,-310.47"/>
<polygon fill="black" stroke="black" points="265.64,-309.2 266.29,-319.77 272.38,-311.1 265.64,-309.2"/>
<text xml:space="preserve" text-anchor="middle" x="303.12" y="-246.32" font-family="Helvetica,sans-Serif" font-size="14.00">loop</text>
</g>
<!-- op_fnew&#45;&gt;op_fnew -->
<g id="edge10" class="edge">
<title>op_fnew&#45;&gt;op_fnew</title>
<path fill="none" stroke="black" d="M380.33,-170.21C390.79,-169.24 397.88,-167.17 397.88,-164 397.88,-162.17 395.51,-160.7 391.49,-159.6"/>
<polygon fill="black" stroke="black" points="392.25,-156.18 381.82,-158.03 391.13,-163.09 392.25,-156.18"/>
<text xml:space="preserve" text-anchor="middle" x="410.62" y="-158.57" font-family="Helvetica,sans-Serif" font-size="14.00">loop</text>
</g>
<!-- op_ans -->
<g id="node13" class="node">
<title>op_ans</title>
<polygon fill="none" stroke="black" points="353.25,-109 266.75,-109 266.75,-73 353.25,-73 353.25,-109"/>
<text xml:space="preserve" text-anchor="middle" x="310" y="-85.58" font-family="Helvetica,sans-Serif" font-size="14.00">ans = Fnew</text>
</g>
<!-- op_fnew&#45;&gt;op_ans -->
<g id="edge15" class="edge">
<title>op_fnew&#45;&gt;op_ans</title>
<path fill="none" stroke="black" d="M310,-145.81C310,-138.23 310,-129.1 310,-120.54"/>
<polygon fill="black" stroke="black" points="313.5,-120.54 310,-110.54 306.5,-120.54 313.5,-120.54"/>
</g>
<!-- op_fold&#45;&gt;op_fnew -->
<g id="edge11" class="edge">
<title>op_fold&#45;&gt;op_fnew</title>
<path fill="none" stroke="black" d="M213.9,-233.72C221.31,-223.08 231.86,-209.63 243.5,-200 248.78,-195.64 254.69,-191.59 260.75,-187.91"/>
<polygon fill="black" stroke="black" points="262.06,-191.2 269.01,-183.2 258.59,-185.11 262.06,-191.2"/>
<text xml:space="preserve" text-anchor="middle" x="256.25" y="-202.45" font-family="Helvetica,sans-Serif" font-size="14.00">loop</text>
</g>
<!-- op_inc_i&#45;&gt;op_cond -->
<g id="edge14" class="edge">
<title>op_inc_i&#45;&gt;op_cond</title>
<path fill="none" stroke="black" d="M125.87,-321.15C118.19,-309.18 107.84,-293.03 99.11,-279.43"/>
<polygon fill="black" stroke="black" points="102.28,-277.88 93.93,-271.35 96.38,-281.66 102.28,-277.88"/>
<text xml:space="preserve" text-anchor="middle" x="127.18" y="-290.2" font-family="Helvetica,sans-Serif" font-size="14.00">loop</text>
</g>
<!-- op_return -->
<g id="node14" class="node">
<title>op_return</title>
<polygon fill="none" stroke="black" points="348.38,-36 271.62,-36 271.62,0 348.38,0 348.38,-36"/>
<text xml:space="preserve" text-anchor="middle" x="310" y="-12.57" font-family="Helvetica,sans-Serif" font-size="14.00">return ans</text>
</g>
<!-- op_ans&#45;&gt;op_return -->
<g id="edge16" class="edge">
<title>op_ans&#45;&gt;op_return</title>
<path fill="none" stroke="black" d="M310,-72.81C310,-65.23 310,-56.1 310,-47.54"/>
<polygon fill="black" stroke="black" points="313.5,-47.54 310,-37.54 306.5,-47.54 313.5,-47.54"/>
</g>
</g>
</svg>
