<?xml version="1.0" encoding="UTF-8" standalone="no"?>
<!DOCTYPE svg PUBLIC "-//W3C//DTD SVG 1.1//EN"
 "http://www.w3.org/Graphics/SVG/1.1/DTD/svg11.dtd">
<!-- Generated by graphviz version 13.1.2 (20250808.2320)
 -->
<!-- Title: main Pages: 1 -->
<svg width="320pt" height="66pt"
 viewBox="0.00 0.00 320.00 66.00" xmlns="http://www.w3.org/2000/svg" xmlns:xlink="http://www.w3.org/1999/xlink">
<g id="graph0" class="graph" transform="scale(1 1) rotate(0) translate(4 61.5)">
<title>main</title>
<polygon fill="white" stroke="none" points="-4,4 -4,-61.5 316,-61.5 316,4 -4,4"/>
<!-- A -->
<g id="node1" class="node">
<title>A</title>
<polygon fill="none" stroke="black" points="94,-57.5 0,-57.5 0,0 94,0 94,-57.5"/>
<text xml:space="preserve" text-anchor="middle" x="47" y="-40.2" font-family="Times New Roman,serif" font-size="14.00">A</text>
<text xml:space="preserve" text-anchor="middle" x="47" y="-23.7" font-family="Times New Roman,serif" font-size="14.00">a = 30</text>
<text xml:space="preserve" text-anchor="middle" x="47" y="-7.2" font-family="Times New Roman,serif" font-size="14.00">definicao={a}</text>
</g>
<!-- B -->
<g id="node2" class="node">
<title>B</title>
<polygon fill="none" stroke="black" points="203,-57.5 130,-57.5 130,0 203,0 203,-57.5"/>
<text xml:space="preserve" text-anchor="middle" x="166.5" y="-40.2" font-family="Times New Roman,serif" font-size="14.00">B</text>
<text xml:space="preserve" text-anchor="middle" x="166.5" y="-23.7" font-family="Times New Roman,serif" font-size="14.00">fib(a)</text>
<text xml:space="preserve" text-anchor="middle" x="166.5" y="-7.2" font-family="Times New Roman,serif" font-size="14.00">c&#45;uso={a}</text>
</g>
<!-- A&#45;&gt;B -->
<g id="edge1" class="edge">
<title>A&#45;&gt;B</title>
<path fill="none" stroke="black" d="M94.44,-28.75C102.28,-28.75 110.43,-28.75 118.3,-28.75"/>
<polygon fill="black" stroke="black" points="118.03,-32.25 128.03,-28.75 118.03,-25.25 118.03,-32.25"/>
</g>
<!-- C -->
<g id="node3" class="node">
<title>C</title>
<polygon fill="none" stroke="black" points="312,-57.5 239,-57.5 239,0 312,0 312,-57.5"/>
<text xml:space="preserve" text-anchor="middle" x="275.5" y="-40.2" font-family="Times New Roman,serif" font-size="14.00">C</text>
<text xml:space="preserve" text-anchor="middle" x="275.5" y="-23.7" font-family="Times New Roman,serif" font-size="14.00">return a</text>
<text xml:space="preserve" text-anchor="middle" x="275.5" y="-7.2" font-family="Times New Roman,serif" font-size="14.00">c&#45;uso={a}</text>
</g>
<!-- B&#45;&gt;C -->
<g id="edge2" class="edge">
<title>B&#45;&gt;C</title>
<path fill="none" stroke="black" d="M203.43,-28.75C211.18,-28.75 219.5,-28.75 227.6,-28.75"/>
<polygon fill="black" stroke="black" points="227.34,-32.25 237.34,-28.75 227.34,-25.25 227.34,-32.25"/>
</g>
</g>
</svg>
