<?xml version="1.0" encoding="UTF-8" standalone="no"?>
<!DOCTYPE svg PUBLIC "-//W3C//DTD SVG 1.1//EN"
 "http://www.w3.org/Graphics/SVG/1.1/DTD/svg11.dtd">
<!-- Generated by graphviz version 13.1.2 (20250808.2320)
 -->
<!-- Title: fib Pages: 1 -->
<svg width="761pt" height="352pt"
 viewBox="0.00 0.00 761.00 352.00" xmlns="http://www.w3.org/2000/svg" xmlns:xlink="http://www.w3.org/1999/xlink">
<g id="graph0" class="graph" transform="scale(1 1) rotate(0) translate(4 347.5)">
<title>fib</title>
<polygon fill="white" stroke="none" points="-4,4 -4,-347.5 756.5,-347.5 756.5,4 -4,4"/>
<!-- start -->
<g id="node1" class="node">
<title>start</title>
<ellipse fill="none" stroke="black" cx="564.12" cy="-325.5" rx="45.21" ry="18"/>
<text xml:space="preserve" text-anchor="middle" x="564.12" y="-320.45" font-family="Times New Roman,serif" font-size="14.00">Inicio fib</text>
</g>
<!-- A -->
<g id="node3" class="node">
<title>A</title>
<polygon fill="none" stroke="black" points="653.12,-270.5 475.12,-270.5 475.12,-234.5 653.12,-234.5 653.12,-270.5"/>
<text xml:space="preserve" text-anchor="middle" x="564.12" y="-247.45" font-family="Times New Roman,serif" font-size="14.00">A: Fnew = 1; Fold = 0; i = 2;</text>
<text xml:space="preserve" text-anchor="middle" x="426.38" y="-273.7" font-family="Times New Roman,serif" font-size="14.00">def: Fnew, Fold, i</text>
</g>
<!-- start&#45;&gt;A -->
<g id="edge1" class="edge">
<title>start&#45;&gt;A</title>
<path fill="none" stroke="black" d="M564.12,-307.31C564.12,-299.73 564.12,-290.6 564.12,-282.04"/>
<polygon fill="black" stroke="black" points="567.63,-282.04 564.13,-272.04 560.63,-282.04 567.63,-282.04"/>
</g>
<!-- end -->
<g id="node2" class="node">
<title>end</title>
<ellipse fill="none" stroke="black" cx="672.12" cy="-18" rx="39.07" ry="18"/>
<text xml:space="preserve" text-anchor="middle" x="672.12" y="-12.95" font-family="Times New Roman,serif" font-size="14.00">Fim fib</text>
</g>
<!-- B -->
<g id="node4" class="node">
<title>B</title>
<polygon fill="none" stroke="black" points="564.12,-197.5 410.44,-179.5 564.12,-161.5 717.81,-179.5 564.12,-197.5"/>
<text xml:space="preserve" text-anchor="middle" x="564.12" y="-174.45" font-family="Times New Roman,serif" font-size="14.00">B: if (i &lt;= 30 &amp;&amp; i &lt;= n)</text>
<text xml:space="preserve" text-anchor="middle" x="383.06" y="-200.7" font-family="Times New Roman,serif" font-size="14.00">p&#45;use: i, n</text>
</g>
<!-- A&#45;&gt;B -->
<g id="edge2" class="edge">
<title>A&#45;&gt;B</title>
<path fill="none" stroke="black" d="M564.12,-234.31C564.12,-226.73 564.12,-217.6 564.12,-209.04"/>
<polygon fill="black" stroke="black" points="567.63,-209.04 564.13,-199.04 560.63,-209.04 567.63,-209.04"/>
</g>
<!-- C -->
<g id="node5" class="node">
<title>C</title>
<polygon fill="none" stroke="black" points="535.75,-109 226.5,-109 226.5,-73 535.75,-73 535.75,-109"/>
<text xml:space="preserve" text-anchor="middle" x="381.12" y="-85.95" font-family="Times New Roman,serif" font-size="14.00">C: temp = Fnew; Fnew = Fnew + Fold; Fold = temp;</text>
<text xml:space="preserve" text-anchor="middle" x="113.25" y="-112.2" font-family="Times New Roman,serif" font-size="14.00">c&#45;use: Fnew, Fold; def: temp, Fnew, Fold</text>
</g>
<!-- B&#45;&gt;C -->
<g id="edge3" class="edge">
<title>B&#45;&gt;C</title>
<path fill="none" stroke="black" d="M534.72,-164.6C505.97,-151.01 461.73,-130.1 428.1,-114.21"/>
<polygon fill="black" stroke="black" points="429.94,-111.2 419.41,-110.09 426.95,-117.53 429.94,-111.2"/>
<text xml:space="preserve" text-anchor="middle" x="501.77" y="-130.2" font-family="Times New Roman,serif" font-size="14.00">True</text>
</g>
<!-- E -->
<g id="node7" class="node">
<title>E</title>
<polygon fill="none" stroke="black" points="752.5,-109 591.75,-109 591.75,-73 752.5,-73 752.5,-109"/>
<text xml:space="preserve" text-anchor="middle" x="672.12" y="-85.95" font-family="Times New Roman,serif" font-size="14.00">E: ans = Fnew; return ans;</text>
<text xml:space="preserve" text-anchor="middle" x="533.62" y="-112.2" font-family="Times New Roman,serif" font-size="14.00">c&#45;use: Fnew; def: ans</text>
</g>
<!-- B&#45;&gt;E -->
<g id="edge4" class="edge">
<title>B&#45;&gt;E</title>
<path fill="none" stroke="black" d="M583.18,-163.23C599.32,-150.31 622.74,-131.55 641.5,-116.53"/>
<polygon fill="black" stroke="black" points="643.48,-119.42 649.1,-110.44 639.11,-113.96 643.48,-119.42"/>
<text xml:space="preserve" text-anchor="middle" x="642.05" y="-130.2" font-family="Times New Roman,serif" font-size="14.00">False</text>
</g>
<!-- D -->
<g id="node6" class="node">
<title>D</title>
<polygon fill="none" stroke="black" points="539.12,-36 485.12,-36 485.12,0 539.12,0 539.12,-36"/>
<text xml:space="preserve" text-anchor="middle" x="512.12" y="-12.95" font-family="Times New Roman,serif" font-size="14.00">D: i++</text>
<text xml:space="preserve" text-anchor="middle" x="447.25" y="-39.2" font-family="Times New Roman,serif" font-size="14.00">c&#45;use: i; def: i</text>
</g>
<!-- C&#45;&gt;D -->
<g id="edge5" class="edge">
<title>C&#45;&gt;D</title>
<path fill="none" stroke="black" d="M413.17,-72.63C431.79,-62.54 455.34,-49.78 474.8,-39.23"/>
<polygon fill="black" stroke="black" points="476.38,-42.35 483.51,-34.51 473.05,-36.2 476.38,-42.35"/>
</g>
<!-- D&#45;&gt;B -->
<g id="edge6" class="edge">
<title>D&#45;&gt;B</title>
<path fill="none" stroke="black" d="M524.88,-36.14C531.88,-46.35 540.13,-59.85 545.12,-73 554.62,-97.98 559.45,-128.14 561.85,-149.8"/>
<polygon fill="black" stroke="black" points="558.36,-150.06 562.82,-159.66 565.32,-149.37 558.36,-150.06"/>
</g>
<!-- E&#45;&gt;end -->
<g id="edge7" class="edge">
<title>E&#45;&gt;end</title>
<path fill="none" stroke="black" d="M672.12,-72.81C672.12,-65.23 672.12,-56.1 672.12,-47.54"/>
<polygon fill="black" stroke="black" points="675.63,-47.54 672.13,-37.54 668.63,-47.54 675.63,-47.54"/>
</g>
</g>
</svg>
