<?xml version="1.0" encoding="UTF-8" standalone="no"?>
<!DOCTYPE svg PUBLIC "-//W3C//DTD SVG 1.1//EN"
 "http://www.w3.org/Graphics/SVG/1.1/DTD/svg11.dtd">
<!-- Generated by graphviz version 13.1.2 (20250808.2320)
 -->
<!-- Title: main Pages: 1 -->
<svg width="148pt" height="332pt"
 viewBox="0.00 0.00 148.00 332.00" xmlns="http://www.w3.org/2000/svg" xmlns:xlink="http://www.w3.org/1999/xlink">
<g id="graph0" class="graph" transform="scale(1 1) rotate(0) translate(4 328)">
<title>main</title>
<polygon fill="white" stroke="none" points="-4,4 -4,-328 144.29,-328 144.29,4 -4,4"/>
<!-- start -->
<g id="node1" class="node">
<title>start</title>
<ellipse fill="none" stroke="black" cx="86.38" cy="-306" rx="53.91" ry="18"/>
<text xml:space="preserve" text-anchor="middle" x="86.38" y="-300.95" font-family="Times New Roman,serif" font-size="14.00">Inicio main</text>
</g>
<!-- M1 -->
<g id="node3" class="node">
<title>M1</title>
<polygon fill="none" stroke="black" points="127.38,-252 45.38,-252 45.38,-216 127.38,-216 127.38,-252"/>
<text xml:space="preserve" text-anchor="middle" x="86.38" y="-228.95" font-family="Times New Roman,serif" font-size="14.00">M1: a = 30;</text>
<text xml:space="preserve" text-anchor="middle" x="30" y="-255.2" font-family="Times New Roman,serif" font-size="14.00">def: a</text>
</g>
<!-- start&#45;&gt;M1 -->
<g id="edge1" class="edge">
<title>start&#45;&gt;M1</title>
<path fill="none" stroke="black" d="M86.38,-287.7C86.38,-280.41 86.38,-271.73 86.38,-263.54"/>
<polygon fill="black" stroke="black" points="89.88,-263.62 86.38,-253.62 82.88,-263.62 89.88,-263.62"/>
</g>
<!-- end -->
<g id="node2" class="node">
<title>end</title>
<ellipse fill="none" stroke="black" cx="86.38" cy="-18" rx="47.77" ry="18"/>
<text xml:space="preserve" text-anchor="middle" x="86.38" y="-12.95" font-family="Times New Roman,serif" font-size="14.00">Fim main</text>
</g>
<!-- M2 -->
<g id="node4" class="node">
<title>M2</title>
<polygon fill="none" stroke="black" points="124.75,-180 48,-180 48,-144 124.75,-144 124.75,-180"/>
<text xml:space="preserve" text-anchor="middle" x="86.38" y="-156.95" font-family="Times New Roman,serif" font-size="14.00">M2: fib(a);</text>
<text xml:space="preserve" text-anchor="middle" x="27" y="-183.2" font-family="Times New Roman,serif" font-size="14.00">c&#45;use: a</text>
</g>
<!-- M1&#45;&gt;M2 -->
<g id="edge2" class="edge">
<title>M1&#45;&gt;M2</title>
<path fill="none" stroke="black" d="M86.38,-215.7C86.38,-208.41 86.38,-199.73 86.38,-191.54"/>
<polygon fill="black" stroke="black" points="89.88,-191.62 86.38,-181.62 82.88,-191.62 89.88,-191.62"/>
</g>
<!-- M3 -->
<g id="node5" class="node">
<title>M3</title>
<polygon fill="none" stroke="black" points="130.75,-108 42,-108 42,-72 130.75,-72 130.75,-108"/>
<text xml:space="preserve" text-anchor="middle" x="86.38" y="-84.95" font-family="Times New Roman,serif" font-size="14.00">M3: return a;</text>
<text xml:space="preserve" text-anchor="middle" x="21" y="-111.2" font-family="Times New Roman,serif" font-size="14.00">c&#45;use: a</text>
</g>
<!-- M2&#45;&gt;M3 -->
<g id="edge3" class="edge">
<title>M2&#45;&gt;M3</title>
<path fill="none" stroke="black" d="M86.38,-143.7C86.38,-136.41 86.38,-127.73 86.38,-119.54"/>
<polygon fill="black" stroke="black" points="89.88,-119.62 86.38,-109.62 82.88,-119.62 89.88,-119.62"/>
</g>
<!-- M3&#45;&gt;end -->
<g id="edge4" class="edge">
<title>M3&#45;&gt;end</title>
<path fill="none" stroke="black" d="M86.38,-71.7C86.38,-64.41 86.38,-55.73 86.38,-47.54"/>
<polygon fill="black" stroke="black" points="89.88,-47.62 86.38,-37.62 82.88,-47.62 89.88,-47.62"/>
</g>
</g>
</svg>
