<?xml version="1.0" encoding="UTF-8" standalone="no"?>
<!DOCTYPE svg PUBLIC "-//W3C//DTD SVG 1.1//EN"
 "http://www.w3.org/Graphics/SVG/1.1/DTD/svg11.dtd">
<!-- Generated by graphviz version 13.1.2 (20250808.2320)
 -->
<!-- Title: fibcall_DFG Pages: 1 -->
<svg width="391pt" height="425pt"
 viewBox="0.00 0.00 391.00 425.00" xmlns="http://www.w3.org/2000/svg" xmlns:xlink="http://www.w3.org/1999/xlink">
<g id="graph0" class="graph" transform="scale(1 1) rotate(0) translate(4 420.5)">
<title>fibcall_DFG</title>
<polygon fill="white" stroke="none" points="-4,4 -4,-420.5 387,-420.5 387,4 -4,4"/>
<!-- n_in -->
<g id="node1" class="node">
<title>n_in</title>
<ellipse fill="lightblue" stroke="black" cx="27" cy="-325.5" rx="27" ry="18"/>
<text xml:space="preserve" text-anchor="middle" x="27" y="-320.45" font-family="Times New Roman,serif" font-size="14.00">n</text>
</g>
<!-- op_cond -->
<g id="node5" class="node">
<title>op_cond</title>
<polygon fill="none" stroke="black" points="84,-255 30,-255 30,-219 84,-219 84,-255"/>
<text xml:space="preserve" text-anchor="middle" x="57" y="-231.95" font-family="Times New Roman,serif" font-size="14.00">&amp;&amp;</text>
</g>
<!-- n_in&#45;&gt;op_cond -->
<g id="edge1" class="edge">
<title>n_in&#45;&gt;op_cond</title>
<path fill="none" stroke="black" d="M32.78,-307.82C36.88,-296.01 42.48,-279.88 47.26,-266.1"/>
<polygon fill="black" stroke="black" points="50.56,-267.24 50.53,-256.65 43.95,-264.95 50.56,-267.24"/>
</g>
<!-- i_in -->
<g id="node2" class="node">
<title>i_in</title>
<ellipse fill="lightblue" stroke="black" cx="114" cy="-325.5" rx="41.63" ry="18"/>
<text xml:space="preserve" text-anchor="middle" x="114" y="-320.45" font-family="Times New Roman,serif" font-size="14.00">i (init 2)</text>
</g>
<!-- i_in&#45;&gt;op_cond -->
<g id="edge2" class="edge">
<title>i_in&#45;&gt;op_cond</title>
<path fill="none" stroke="black" d="M103.01,-307.82C94.91,-295.54 83.74,-278.58 74.43,-264.45"/>
<polygon fill="black" stroke="black" points="77.6,-262.91 69.18,-256.48 71.76,-266.76 77.6,-262.91"/>
</g>
<!-- Fnew_in -->
<g id="node3" class="node">
<title>Fnew_in</title>
<ellipse fill="lightblue" stroke="black" cx="251" cy="-398.5" rx="59.54" ry="18"/>
<text xml:space="preserve" text-anchor="middle" x="251" y="-393.45" font-family="Times New Roman,serif" font-size="14.00">Fnew (init 1)</text>
</g>
<!-- op_assign_temp -->
<g id="node6" class="node">
<title>op_assign_temp</title>
<polygon fill="none" stroke="black" points="239,-343.5 185,-343.5 185,-307.5 239,-307.5 239,-343.5"/>
<text xml:space="preserve" text-anchor="middle" x="212" y="-320.45" font-family="Times New Roman,serif" font-size="14.00">=</text>
</g>
<!-- Fnew_in&#45;&gt;op_assign_temp -->
<g id="edge3" class="edge">
<title>Fnew_in&#45;&gt;op_assign_temp</title>
<path fill="none" stroke="black" d="M241.56,-380.31C237.15,-372.29 231.8,-362.55 226.87,-353.57"/>
<polygon fill="black" stroke="black" points="229.96,-351.94 222.08,-344.86 223.83,-355.31 229.96,-351.94"/>
</g>
<!-- op_add -->
<g id="node7" class="node">
<title>op_add</title>
<polygon fill="none" stroke="black" points="257,-182 203,-182 203,-146 257,-146 257,-182"/>
<text xml:space="preserve" text-anchor="middle" x="230" y="-158.95" font-family="Times New Roman,serif" font-size="14.00">+</text>
</g>
<!-- Fnew_in&#45;&gt;op_add -->
<g id="edge4" class="edge">
<title>Fnew_in&#45;&gt;op_add</title>
<path fill="none" stroke="black" d="M253.61,-380.04C257.9,-347.82 264.84,-277 253,-219 251.19,-210.11 247.85,-200.88 244.28,-192.61"/>
<polygon fill="black" stroke="black" points="247.57,-191.38 240.18,-183.79 241.22,-194.33 247.57,-191.38"/>
</g>
<!-- Fold_in -->
<g id="node4" class="node">
<title>Fold_in</title>
<ellipse fill="lightblue" stroke="black" cx="188" cy="-237" rx="55.96" ry="18"/>
<text xml:space="preserve" text-anchor="middle" x="188" y="-231.95" font-family="Times New Roman,serif" font-size="14.00">Fold (init 0)</text>
</g>
<!-- Fold_in&#45;&gt;op_add -->
<g id="edge5" class="edge">
<title>Fold_in&#45;&gt;op_add</title>
<path fill="none" stroke="black" d="M198.17,-218.81C202.96,-210.7 208.8,-200.84 214.16,-191.78"/>
<polygon fill="black" stroke="black" points="217.08,-193.72 219.16,-183.33 211.05,-190.16 217.08,-193.72"/>
</g>
<!-- op_assign_temp&#45;&gt;Fold_in -->
<g id="edge7" class="edge">
<title>op_assign_temp&#45;&gt;Fold_in</title>
<path fill="none" stroke="black" d="M207.26,-307.41C203.99,-295.64 199.58,-279.73 195.8,-266.11"/>
<polygon fill="black" stroke="black" points="199.26,-265.51 193.22,-256.81 192.52,-267.38 199.26,-265.51"/>
<text xml:space="preserve" text-anchor="middle" x="216.02" y="-276.2" font-family="Times New Roman,serif" font-size="14.00">temp</text>
</g>
<!-- Fnew_out -->
<g id="node10" class="node">
<title>Fnew_out</title>
<ellipse fill="lightgreen" stroke="black" cx="230" cy="-91" rx="31.39" ry="18"/>
<text xml:space="preserve" text-anchor="middle" x="230" y="-85.95" font-family="Times New Roman,serif" font-size="14.00">Fnew</text>
</g>
<!-- op_add&#45;&gt;Fnew_out -->
<g id="edge6" class="edge">
<title>op_add&#45;&gt;Fnew_out</title>
<path fill="none" stroke="black" d="M230,-145.81C230,-138.23 230,-129.1 230,-120.54"/>
<polygon fill="black" stroke="black" points="233.5,-120.54 230,-110.54 226.5,-120.54 233.5,-120.54"/>
</g>
<!-- op_assign_fold -->
<g id="node8" class="node">
<title>op_assign_fold</title>
<polygon fill="none" stroke="black" points="383,-416.5 329,-416.5 329,-380.5 383,-380.5 383,-416.5"/>
<text xml:space="preserve" text-anchor="middle" x="356" y="-393.45" font-family="Times New Roman,serif" font-size="14.00">=</text>
</g>
<!-- op_inc -->
<g id="node9" class="node">
<title>op_inc</title>
<polygon fill="none" stroke="black" points="141,-416.5 87,-416.5 87,-380.5 141,-380.5 141,-416.5"/>
<text xml:space="preserve" text-anchor="middle" x="114" y="-393.45" font-family="Times New Roman,serif" font-size="14.00">++</text>
</g>
<!-- op_inc&#45;&gt;i_in -->
<g id="edge8" class="edge">
<title>op_inc&#45;&gt;i_in</title>
<path fill="none" stroke="black" d="M114,-380.31C114,-372.73 114,-363.6 114,-355.04"/>
<polygon fill="black" stroke="black" points="117.5,-355.04 114,-345.04 110.5,-355.04 117.5,-355.04"/>
</g>
<!-- ans_out -->
<g id="node11" class="node">
<title>ans_out</title>
<ellipse fill="lightgreen" stroke="black" cx="230" cy="-18" rx="27" ry="18"/>
<text xml:space="preserve" text-anchor="middle" x="230" y="-12.95" font-family="Times New Roman,serif" font-size="14.00">ans</text>
</g>
<!-- Fnew_out&#45;&gt;ans_out -->
<g id="edge9" class="edge">
<title>Fnew_out&#45;&gt;ans_out</title>
<path fill="none" stroke="black" d="M230,-72.81C230,-65.23 230,-56.1 230,-47.54"/>
<polygon fill="black" stroke="black" points="233.5,-47.54 230,-37.54 226.5,-47.54 233.5,-47.54"/>
</g>
</g>
</svg>
