<?xml version="1.0" encoding="UTF-8" standalone="no"?>
<!DOCTYPE svg PUBLIC "-//W3C//DTD SVG 1.1//EN"
 "http://www.w3.org/Graphics/SVG/1.1/DTD/svg11.dtd">
<!-- Generated by graphviz version 13.1.2 (20250808.2320)
 -->
<!-- Title: fibcall_CFG Pages: 1 -->
<svg width="351pt" height="765pt"
 viewBox="0.00 0.00 351.00 765.00" xmlns="http://www.w3.org/2000/svg" xmlns:xlink="http://www.w3.org/1999/xlink">
<g id="graph0" class="graph" transform="scale(1 1) rotate(0) translate(4 760.5)">
<title>fibcall_CFG</title>
<polygon fill="white" stroke="none" points="-4,4 -4,-760.5 347.12,-760.5 347.12,4 -4,4"/>
<!-- M1 -->
<g id="node1" class="node">
<title>M1</title>
<path fill="none" stroke="black" d="M70.75,-756.5C70.75,-756.5 12,-756.5 12,-756.5 6,-756.5 0,-750.5 0,-744.5 0,-744.5 0,-732.5 0,-732.5 0,-726.5 6,-720.5 12,-720.5 12,-720.5 70.75,-720.5 70.75,-720.5 76.75,-720.5 82.75,-726.5 82.75,-732.5 82.75,-732.5 82.75,-744.5 82.75,-744.5 82.75,-750.5 76.75,-756.5 70.75,-756.5"/>
<text xml:space="preserve" text-anchor="middle" x="41.38" y="-733.08" font-family="Helvetica,sans-Serif" font-size="14.00">main: int a;</text>
</g>
<!-- M2 -->
<g id="node2" class="node">
<title>M2</title>
<path fill="none" stroke="black" d="M58.38,-683.5C58.38,-683.5 24.38,-683.5 24.38,-683.5 18.38,-683.5 12.38,-677.5 12.38,-671.5 12.38,-671.5 12.38,-659.5 12.38,-659.5 12.38,-653.5 18.38,-647.5 24.38,-647.5 24.38,-647.5 58.38,-647.5 58.38,-647.5 64.38,-647.5 70.38,-653.5 70.38,-659.5 70.38,-659.5 70.38,-671.5 70.38,-671.5 70.38,-677.5 64.38,-683.5 58.38,-683.5"/>
<text xml:space="preserve" text-anchor="middle" x="41.38" y="-660.08" font-family="Helvetica,sans-Serif" font-size="14.00">a = 30;</text>
</g>
<!-- M1&#45;&gt;M2 -->
<g id="edge1" class="edge">
<title>M1&#45;&gt;M2</title>
<path fill="none" stroke="black" d="M41.38,-720.31C41.38,-712.73 41.38,-703.6 41.38,-695.04"/>
<polygon fill="black" stroke="black" points="44.88,-695.04 41.38,-685.04 37.88,-695.04 44.88,-695.04"/>
</g>
<!-- M3 -->
<g id="node3" class="node">
<title>M3</title>
<path fill="none" stroke="black" d="M56.38,-610.5C56.38,-610.5 26.38,-610.5 26.38,-610.5 20.38,-610.5 14.38,-604.5 14.38,-598.5 14.38,-598.5 14.38,-586.5 14.38,-586.5 14.38,-580.5 20.38,-574.5 26.38,-574.5 26.38,-574.5 56.38,-574.5 56.38,-574.5 62.38,-574.5 68.38,-580.5 68.38,-586.5 68.38,-586.5 68.38,-598.5 68.38,-598.5 68.38,-604.5 62.38,-610.5 56.38,-610.5"/>
<text xml:space="preserve" text-anchor="middle" x="41.38" y="-587.08" font-family="Helvetica,sans-Serif" font-size="14.00">fib(a);</text>
</g>
<!-- M2&#45;&gt;M3 -->
<g id="edge2" class="edge">
<title>M2&#45;&gt;M3</title>
<path fill="none" stroke="black" d="M41.38,-647.31C41.38,-639.73 41.38,-630.6 41.38,-622.04"/>
<polygon fill="black" stroke="black" points="44.88,-622.04 41.38,-612.04 37.88,-622.04 44.88,-622.04"/>
</g>
<!-- M4 -->
<g id="node4" class="node">
<title>M4</title>
<path fill="none" stroke="black" d="M62.5,-36C62.5,-36 20.25,-36 20.25,-36 14.25,-36 8.25,-30 8.25,-24 8.25,-24 8.25,-12 8.25,-12 8.25,-6 14.25,0 20.25,0 20.25,0 62.5,0 62.5,0 68.5,0 74.5,-6 74.5,-12 74.5,-12 74.5,-24 74.5,-24 74.5,-30 68.5,-36 62.5,-36"/>
<text xml:space="preserve" text-anchor="middle" x="41.38" y="-12.57" font-family="Helvetica,sans-Serif" font-size="14.00">return a;</text>
</g>
<!-- M3&#45;&gt;M4 -->
<g id="edge3" class="edge">
<title>M3&#45;&gt;M4</title>
<path fill="none" stroke="black" d="M36.22,-574.27C31.55,-557.08 25.38,-529.83 25.38,-505.75 25.38,-505.75 25.38,-505.75 25.38,-104.75 25.38,-85.37 29.37,-63.95 33.37,-47.36"/>
<polygon fill="black" stroke="black" points="36.75,-48.25 35.85,-37.7 29.97,-46.52 36.75,-48.25"/>
</g>
<!-- F1 -->
<g id="node5" class="node">
<title>F1</title>
<path fill="none" stroke="black" d="M253.12,-522.75C253.12,-522.75 73.62,-522.75 73.62,-522.75 67.62,-522.75 61.63,-516.75 61.63,-510.75 61.63,-510.75 61.63,-498.75 61.63,-498.75 61.63,-492.75 67.63,-486.75 73.63,-486.75 73.63,-486.75 253.12,-486.75 253.12,-486.75 259.12,-486.75 265.12,-492.75 265.12,-498.75 265.12,-498.75 265.12,-510.75 265.12,-510.75 265.12,-516.75 259.12,-522.75 253.12,-522.75"/>
<text xml:space="preserve" text-anchor="middle" x="163.38" y="-499.32" font-family="Helvetica,sans-Serif" font-size="14.00">fib: int i, Fnew, Fold, temp, ans;</text>
</g>
<!-- M3&#45;&gt;F1 -->
<g id="edge12" class="edge">
<title>M3&#45;&gt;F1</title>
<path fill="none" stroke="blue" stroke-dasharray="5,2" d="M66.06,-574.15C84.25,-561.36 109.22,-543.82 129.3,-529.7"/>
<polygon fill="blue" stroke="blue" points="131.32,-532.56 137.48,-523.95 127.29,-526.83 131.32,-532.56"/>
<text xml:space="preserve" text-anchor="middle" x="123.43" y="-543.2" font-family="Helvetica,sans-Serif" font-size="14.00">call</text>
</g>
<!-- F2 -->
<g id="node6" class="node">
<title>F2</title>
<path fill="none" stroke="black" d="M222.88,-449.75C222.88,-449.75 113.88,-449.75 113.88,-449.75 107.88,-449.75 101.88,-443.75 101.88,-437.75 101.88,-437.75 101.88,-425.75 101.88,-425.75 101.88,-419.75 107.88,-413.75 113.88,-413.75 113.88,-413.75 222.88,-413.75 222.88,-413.75 228.88,-413.75 234.88,-419.75 234.88,-425.75 234.88,-425.75 234.88,-437.75 234.88,-437.75 234.88,-443.75 228.88,-449.75 222.88,-449.75"/>
<text xml:space="preserve" text-anchor="middle" x="168.38" y="-426.32" font-family="Helvetica,sans-Serif" font-size="14.00">Fnew = 1; Fold = 0;</text>
</g>
<!-- F1&#45;&gt;F2 -->
<g id="edge4" class="edge">
<title>F1&#45;&gt;F2</title>
<path fill="none" stroke="black" d="M164.59,-486.56C165.13,-478.89 165.78,-469.64 166.39,-460.99"/>
<polygon fill="black" stroke="black" points="169.86,-461.51 167.07,-451.29 162.88,-461.02 169.86,-461.51"/>
</g>
<!-- F3 -->
<g id="node7" class="node">
<title>F3</title>
<path fill="none" stroke="black" d="M185.38,-376.75C185.38,-376.75 155.38,-376.75 155.38,-376.75 149.38,-376.75 143.38,-370.75 143.38,-364.75 143.38,-364.75 143.38,-352.75 143.38,-352.75 143.38,-346.75 149.38,-340.75 155.38,-340.75 155.38,-340.75 185.38,-340.75 185.38,-340.75 191.38,-340.75 197.38,-346.75 197.38,-352.75 197.38,-352.75 197.38,-364.75 197.38,-364.75 197.38,-370.75 191.38,-376.75 185.38,-376.75"/>
<text xml:space="preserve" text-anchor="middle" x="170.38" y="-353.32" font-family="Helvetica,sans-Serif" font-size="14.00">i = 2;</text>
</g>
<!-- F2&#45;&gt;F3 -->
<g id="edge5" class="edge">
<title>F2&#45;&gt;F3</title>
<path fill="none" stroke="black" d="M168.86,-413.56C169.08,-405.89 169.34,-396.64 169.58,-387.99"/>
<polygon fill="black" stroke="black" points="173.07,-388.39 169.85,-378.29 166.07,-388.19 173.07,-388.39"/>
</g>
<!-- F4 -->
<g id="node8" class="node">
<title>F4</title>
<path fill="none" stroke="black" d="M218.38,-303.75C218.38,-303.75 124.38,-303.75 124.38,-303.75 118.38,-303.75 112.38,-297.75 112.38,-291.75 112.38,-291.75 112.38,-279.75 112.38,-279.75 112.38,-273.75 118.38,-267.75 124.38,-267.75 124.38,-267.75 218.38,-267.75 218.38,-267.75 224.38,-267.75 230.38,-273.75 230.38,-279.75 230.38,-279.75 230.38,-291.75 230.38,-291.75 230.38,-297.75 224.38,-303.75 218.38,-303.75"/>
<text xml:space="preserve" text-anchor="middle" x="171.38" y="-280.32" font-family="Helvetica,sans-Serif" font-size="14.00">i &lt;= 30 &amp;&amp; i &lt;= n</text>
</g>
<!-- F3&#45;&gt;F4 -->
<g id="edge6" class="edge">
<title>F3&#45;&gt;F4</title>
<path fill="none" stroke="black" d="M170.62,-340.56C170.72,-332.98 170.85,-323.85 170.97,-315.29"/>
<polygon fill="black" stroke="black" points="174.47,-315.34 171.11,-305.29 167.47,-315.24 174.47,-315.34"/>
</g>
<!-- F5 -->
<g id="node9" class="node">
<title>F5</title>
<path fill="none" stroke="black" d="M331.12,-216C331.12,-216 211.62,-216 211.62,-216 205.62,-216 199.62,-210 199.62,-204 199.62,-204 199.62,-172.75 199.62,-172.75 199.62,-166.75 205.62,-160.75 211.62,-160.75 211.62,-160.75 331.12,-160.75 331.12,-160.75 337.12,-160.75 343.12,-166.75 343.12,-172.75 343.12,-172.75 343.12,-204 343.12,-204 343.12,-210 337.12,-216 331.12,-216"/>
<text xml:space="preserve" text-anchor="middle" x="271.38" y="-198.7" font-family="Helvetica,sans-Serif" font-size="14.00">temp = Fnew;</text>
<text xml:space="preserve" text-anchor="middle" x="271.38" y="-182.95" font-family="Helvetica,sans-Serif" font-size="14.00">Fnew = Fnew + Fold;</text>
<text xml:space="preserve" text-anchor="middle" x="271.38" y="-167.2" font-family="Helvetica,sans-Serif" font-size="14.00">Fold = temp;</text>
</g>
<!-- F4&#45;&gt;F5 -->
<g id="edge7" class="edge">
<title>F4&#45;&gt;F5</title>
<path fill="none" stroke="black" d="M189.72,-267.26C202.28,-255.28 219.36,-238.98 234.66,-224.39"/>
<polygon fill="black" stroke="black" points="237.02,-226.98 241.84,-217.54 232.19,-221.91 237.02,-226.98"/>
<text xml:space="preserve" text-anchor="middle" x="236" y="-236.45" font-family="Helvetica,sans-Serif" font-size="14.00">true</text>
</g>
<!-- F7 -->
<g id="node11" class="node">
<title>F7</title>
<path fill="none" stroke="black" d="M131.5,-206.38C131.5,-206.38 65.25,-206.38 65.25,-206.38 59.25,-206.38 53.25,-200.38 53.25,-194.38 53.25,-194.38 53.25,-182.38 53.25,-182.38 53.25,-176.38 59.25,-170.38 65.25,-170.38 65.25,-170.38 131.5,-170.38 131.5,-170.38 137.5,-170.38 143.5,-176.38 143.5,-182.38 143.5,-182.38 143.5,-194.38 143.5,-194.38 143.5,-200.38 137.5,-206.38 131.5,-206.38"/>
<text xml:space="preserve" text-anchor="middle" x="98.38" y="-182.95" font-family="Helvetica,sans-Serif" font-size="14.00">ans = Fnew;</text>
</g>
<!-- F4&#45;&gt;F7 -->
<g id="edge10" class="edge">
<title>F4&#45;&gt;F7</title>
<path fill="none" stroke="black" d="M146.84,-267.44C140.49,-262.22 134.01,-256.17 128.88,-249.75 121.01,-239.92 114.38,-227.72 109.33,-216.88"/>
<polygon fill="black" stroke="black" points="112.66,-215.75 105.43,-208 106.25,-218.57 112.66,-215.75"/>
<text xml:space="preserve" text-anchor="middle" x="143.12" y="-236.45" font-family="Helvetica,sans-Serif" font-size="14.00">false</text>
</g>
<!-- F6 -->
<g id="node10" class="node">
<title>F6</title>
<path fill="none" stroke="black" d="M222.38,-123.75C222.38,-123.75 192.38,-123.75 192.38,-123.75 186.38,-123.75 180.38,-117.75 180.38,-111.75 180.38,-111.75 180.38,-99.75 180.38,-99.75 180.38,-93.75 186.38,-87.75 192.38,-87.75 192.38,-87.75 222.38,-87.75 222.38,-87.75 228.38,-87.75 234.38,-93.75 234.38,-99.75 234.38,-99.75 234.38,-111.75 234.38,-111.75 234.38,-117.75 228.38,-123.75 222.38,-123.75"/>
<text xml:space="preserve" text-anchor="middle" x="207.38" y="-100.33" font-family="Helvetica,sans-Serif" font-size="14.00">i++</text>
</g>
<!-- F5&#45;&gt;F6 -->
<g id="edge8" class="edge">
<title>F5&#45;&gt;F6</title>
<path fill="none" stroke="black" d="M250.06,-160.53C242.94,-151.55 235.02,-141.57 227.95,-132.67"/>
<polygon fill="black" stroke="black" points="230.86,-130.71 221.9,-125.05 225.38,-135.06 230.86,-130.71"/>
</g>
<!-- F6&#45;&gt;F4 -->
<g id="edge9" class="edge">
<title>F6&#45;&gt;F4</title>
<path fill="none" stroke="black" d="M201.18,-124.07C197.61,-134.57 193.27,-148.3 190.38,-160.75 182.87,-193.02 177.58,-230.72 174.51,-256"/>
<polygon fill="black" stroke="black" points="171.05,-255.5 173.37,-265.84 178,-256.31 171.05,-255.5"/>
</g>
<!-- F8 -->
<g id="node12" class="node">
<title>F8</title>
<path fill="none" stroke="black" d="M123.62,-123.75C123.62,-123.75 67.12,-123.75 67.12,-123.75 61.12,-123.75 55.12,-117.75 55.12,-111.75 55.12,-111.75 55.12,-99.75 55.12,-99.75 55.12,-93.75 61.12,-87.75 67.12,-87.75 67.12,-87.75 123.62,-87.75 123.62,-87.75 129.62,-87.75 135.62,-93.75 135.62,-99.75 135.62,-99.75 135.62,-111.75 135.62,-111.75 135.62,-117.75 129.62,-123.75 123.62,-123.75"/>
<text xml:space="preserve" text-anchor="middle" x="95.38" y="-100.33" font-family="Helvetica,sans-Serif" font-size="14.00">return ans;</text>
</g>
<!-- F7&#45;&gt;F8 -->
<g id="edge11" class="edge">
<title>F7&#45;&gt;F8</title>
<path fill="none" stroke="black" d="M97.72,-169.88C97.35,-159.84 96.87,-146.99 96.45,-135.51"/>
<polygon fill="black" stroke="black" points="99.95,-135.59 96.08,-125.72 92.96,-135.85 99.95,-135.59"/>
</g>
<!-- F8&#45;&gt;M4 -->
<g id="edge13" class="edge">
<title>F8&#45;&gt;M4</title>
<path fill="none" stroke="blue" stroke-dasharray="5,2" d="M84.45,-87.4C76.91,-75.43 66.74,-59.28 58.18,-45.68"/>
<polygon fill="blue" stroke="blue" points="61.38,-44.2 53.09,-37.61 55.46,-47.93 61.38,-44.2"/>
<text xml:space="preserve" text-anchor="middle" x="90.84" y="-56.45" font-family="Helvetica,sans-Serif" font-size="14.00">return</text>
</g>
</g>
</svg>
