<?xml version="1.0" encoding="UTF-8" standalone="no"?>
<!DOCTYPE svg PUBLIC "-//W3C//DTD SVG 1.1//EN"
 "http://www.w3.org/Graphics/SVG/1.1/DTD/svg11.dtd">
<!-- Generated by graphviz version 13.1.2 (20250808.2320)
 -->
<!-- Title: initbuffer_CFG Pages: 1 -->
<svg width="274pt" height="644pt"
 viewBox="0.00 0.00 274.00 644.00" xmlns="http://www.w3.org/2000/svg" xmlns:xlink="http://www.w3.org/1999/xlink">
<g id="graph0" class="graph" transform="scale(1 1) rotate(0) translate(4 639.5)">
<title>initbuffer_CFG</title>
<polygon fill="white" stroke="none" points="-4,4 -4,-639.5 269.62,-639.5 269.62,4 -4,4"/>
<!-- N1 -->
<g id="node1" class="node">
<title>N1</title>
<polygon fill="none" stroke="black" points="247.25,-635.5 148.75,-635.5 148.75,-599.5 247.25,-599.5 247.25,-635.5"/>
<text xml:space="preserve" text-anchor="middle" x="198" y="-612.45" font-family="Times New Roman,serif" font-size="14.00">1: int seed = 1;</text>
</g>
<!-- N2 -->
<g id="node2" class="node">
<title>N2</title>
<polygon fill="none" stroke="black" points="225.88,-562.5 170.12,-562.5 170.12,-526.5 225.88,-526.5 225.88,-562.5"/>
<text xml:space="preserve" text-anchor="middle" x="198" y="-539.45" font-family="Times New Roman,serif" font-size="14.00">2: int i;</text>
</g>
<!-- N1&#45;&gt;N2 -->
<g id="edge1" class="edge">
<title>N1&#45;&gt;N2</title>
<path fill="none" stroke="black" d="M198,-599.31C198,-591.73 198,-582.6 198,-574.04"/>
<polygon fill="black" stroke="black" points="201.5,-574.04 198,-564.04 194.5,-574.04 201.5,-574.04"/>
</g>
<!-- N3 -->
<g id="node3" class="node">
<title>N3</title>
<polygon fill="none" stroke="black" points="239.75,-489.5 156.25,-489.5 156.25,-453.5 239.75,-453.5 239.75,-489.5"/>
<text xml:space="preserve" text-anchor="middle" x="198" y="-466.45" font-family="Times New Roman,serif" font-size="14.00">3: int tabort;</text>
</g>
<!-- N2&#45;&gt;N3 -->
<g id="edge2" class="edge">
<title>N2&#45;&gt;N3</title>
<path fill="none" stroke="black" d="M198,-526.31C198,-518.73 198,-509.6 198,-501.04"/>
<polygon fill="black" stroke="black" points="201.5,-501.04 198,-491.04 194.5,-501.04 201.5,-501.04"/>
</g>
<!-- N4 -->
<g id="node4" class="node">
<title>N4</title>
<polygon fill="none" stroke="black" points="226.25,-416.5 169.75,-416.5 169.75,-380.5 226.25,-380.5 226.25,-416.5"/>
<text xml:space="preserve" text-anchor="middle" x="198" y="-393.45" font-family="Times New Roman,serif" font-size="14.00">4: i = 0</text>
</g>
<!-- N3&#45;&gt;N4 -->
<g id="edge3" class="edge">
<title>N3&#45;&gt;N4</title>
<path fill="none" stroke="black" d="M198,-453.31C198,-445.73 198,-436.6 198,-428.04"/>
<polygon fill="black" stroke="black" points="201.5,-428.04 198,-418.04 194.5,-428.04 201.5,-428.04"/>
</g>
<!-- N5 -->
<g id="node5" class="node">
<title>N5</title>
<polygon fill="none" stroke="black" points="265.62,-343.5 130.38,-343.5 130.38,-307.5 265.62,-307.5 265.62,-343.5"/>
<text xml:space="preserve" text-anchor="middle" x="198" y="-320.45" font-family="Times New Roman,serif" font-size="14.00">5: i &lt; BUFFERSIZE?</text>
</g>
<!-- N4&#45;&gt;N5 -->
<g id="edge4" class="edge">
<title>N4&#45;&gt;N5</title>
<path fill="none" stroke="black" d="M198,-380.31C198,-372.73 198,-363.6 198,-355.04"/>
<polygon fill="black" stroke="black" points="201.5,-355.04 198,-345.04 194.5,-355.04 201.5,-355.04"/>
</g>
<!-- N6 -->
<g id="node6" class="node">
<title>N6</title>
<polygon fill="none" stroke="black" points="150.5,-255 65.5,-255 65.5,-219 150.5,-219 150.5,-255"/>
<text xml:space="preserve" text-anchor="middle" x="108" y="-231.95" font-family="Times New Roman,serif" font-size="14.00">6: tabort = i;</text>
</g>
<!-- N5&#45;&gt;N6 -->
<g id="edge5" class="edge">
<title>N5&#45;&gt;N6</title>
<path fill="none" stroke="black" d="M180.22,-307.41C167.11,-294.82 149.08,-277.48 134.31,-263.29"/>
<polygon fill="black" stroke="black" points="136.78,-260.81 127.14,-256.4 131.93,-265.85 136.78,-260.81"/>
<text xml:space="preserve" text-anchor="middle" x="171.56" y="-276.2" font-family="Times New Roman,serif" font-size="14.00">true</text>
</g>
<!-- N10 -->
<g id="node10" class="node">
<title>N10</title>
<polygon fill="none" stroke="black" points="227.38,-255 168.62,-255 168.62,-219 227.38,-219 227.38,-255"/>
<text xml:space="preserve" text-anchor="middle" x="198" y="-231.95" font-family="Times New Roman,serif" font-size="14.00">10: End</text>
</g>
<!-- N5&#45;&gt;N10 -->
<g id="edge10" class="edge">
<title>N5&#45;&gt;N10</title>
<path fill="none" stroke="black" d="M198,-307.41C198,-295.76 198,-280.05 198,-266.52"/>
<polygon fill="black" stroke="black" points="201.5,-266.86 198,-256.86 194.5,-266.86 201.5,-266.86"/>
<text xml:space="preserve" text-anchor="middle" x="210.75" y="-276.2" font-family="Times New Roman,serif" font-size="14.00">false</text>
</g>
<!-- N7 -->
<g id="node7" class="node">
<title>N7</title>
<polygon fill="none" stroke="black" points="226,-182 0,-182 0,-146 226,-146 226,-182"/>
<text xml:space="preserve" text-anchor="middle" x="113" y="-158.95" font-family="Times New Roman,serif" font-size="14.00">7: seed = ((seed * 133) + 81) % 8095;</text>
</g>
<!-- N6&#45;&gt;N7 -->
<g id="edge6" class="edge">
<title>N6&#45;&gt;N7</title>
<path fill="none" stroke="black" d="M109.21,-218.81C109.75,-211.14 110.4,-201.89 111.01,-193.24"/>
<polygon fill="black" stroke="black" points="114.48,-193.76 111.69,-183.54 107.5,-193.27 114.48,-193.76"/>
</g>
<!-- N8 -->
<g id="node8" class="node">
<title>N8</title>
<polygon fill="none" stroke="black" points="225.38,-109 10.62,-109 10.62,-73 225.38,-73 225.38,-109"/>
<text xml:space="preserve" text-anchor="middle" x="118" y="-85.95" font-family="Times New Roman,serif" font-size="14.00">8: orig_text_buffer[i] = seed % 256;</text>
</g>
<!-- N7&#45;&gt;N8 -->
<g id="edge7" class="edge">
<title>N7&#45;&gt;N8</title>
<path fill="none" stroke="black" d="M114.21,-145.81C114.75,-138.14 115.4,-128.89 116.01,-120.24"/>
<polygon fill="black" stroke="black" points="119.48,-120.76 116.69,-110.54 112.5,-120.27 119.48,-120.76"/>
</g>
<!-- N9 -->
<g id="node9" class="node">
<title>N9</title>
<polygon fill="none" stroke="black" points="213,-36 159,-36 159,0 213,0 213,-36"/>
<text xml:space="preserve" text-anchor="middle" x="186" y="-12.95" font-family="Times New Roman,serif" font-size="14.00">9: i++</text>
</g>
<!-- N8&#45;&gt;N9 -->
<g id="edge8" class="edge">
<title>N8&#45;&gt;N9</title>
<path fill="none" stroke="black" d="M134.46,-72.81C142.65,-64.27 152.7,-53.77 161.75,-44.32"/>
<polygon fill="black" stroke="black" points="164.25,-46.76 168.64,-37.12 159.2,-41.92 164.25,-46.76"/>
</g>
<!-- N9&#45;&gt;N5 -->
<g id="edge9" class="edge">
<title>N9&#45;&gt;N5</title>
<path fill="none" stroke="black" d="M213.27,-33.16C232.56,-45.34 255,-64.9 255,-90 255,-238 255,-238 255,-238 255,-261.22 240.51,-283.01 226.13,-298.92"/>
<polygon fill="black" stroke="black" points="223.71,-296.39 219.31,-306.03 228.76,-301.24 223.71,-296.39"/>
</g>
</g>
</svg>
