<?xml version="1.0" encoding="UTF-8" standalone="no"?>
<!DOCTYPE svg PUBLIC "-//W3C//DTD SVG 1.1//EN"
 "http://www.w3.org/Graphics/SVG/1.1/DTD/svg11.dtd">
<!-- Generated by graphviz version 13.1.2 (20250808.2320)
 -->
<!-- Title: initbuffer_DFG Pages: 1 -->
<svg width="235pt" height="404pt"
 viewBox="0.00 0.00 235.00 404.00" xmlns="http://www.w3.org/2000/svg" xmlns:xlink="http://www.w3.org/1999/xlink">
<g id="graph0" class="graph" transform="scale(1 1) rotate(0) translate(4 400)">
<title>initbuffer_DFG</title>
<polygon fill="white" stroke="none" points="-4,4 -4,-400 230.62,-400 230.62,4 -4,4"/>
<!-- seed_init -->
<g id="node1" class="node">
<title>seed_init</title>
<ellipse fill="lightblue" stroke="black" cx="55.62" cy="-378" rx="27" ry="18"/>
<text xml:space="preserve" text-anchor="middle" x="55.62" y="-372.95" font-family="Times New Roman,serif" font-size="14.00">1</text>
</g>
<!-- op_seed -->
<g id="node3" class="node">
<title>op_seed</title>
<polygon fill="lightblue" stroke="black" points="111.25,-324 0,-324 0,-288 111.25,-288 111.25,-324"/>
<text xml:space="preserve" text-anchor="middle" x="55.62" y="-300.95" font-family="Times New Roman,serif" font-size="14.00">*133 +81 %8095</text>
</g>
<!-- seed_init&#45;&gt;op_seed -->
<g id="edge1" class="edge">
<title>seed_init&#45;&gt;op_seed</title>
<path fill="none" stroke="black" d="M55.62,-359.7C55.62,-352.41 55.62,-343.73 55.62,-335.54"/>
<polygon fill="black" stroke="black" points="59.13,-335.62 55.63,-325.62 52.13,-335.62 59.13,-335.62"/>
</g>
<!-- i_init -->
<g id="node2" class="node">
<title>i_init</title>
<ellipse fill="lightblue" stroke="black" cx="127.62" cy="-162" rx="27" ry="18"/>
<text xml:space="preserve" text-anchor="middle" x="127.62" y="-156.95" font-family="Times New Roman,serif" font-size="14.00">0</text>
</g>
<!-- i -->
<g id="node10" class="node">
<title>i</title>
<polygon fill="lightblue" stroke="black" points="154.62,-108 100.62,-108 100.62,-72 154.62,-72 154.62,-108"/>
<text xml:space="preserve" text-anchor="middle" x="127.62" y="-84.95" font-family="Times New Roman,serif" font-size="14.00">i</text>
</g>
<!-- i_init&#45;&gt;i -->
<g id="edge10" class="edge">
<title>i_init&#45;&gt;i</title>
<path fill="none" stroke="black" d="M127.62,-143.7C127.62,-136.41 127.62,-127.73 127.62,-119.54"/>
<polygon fill="black" stroke="black" points="131.13,-119.62 127.63,-109.62 124.13,-119.62 131.13,-119.62"/>
</g>
<!-- assign_seed -->
<g id="node6" class="node">
<title>assign_seed</title>
<polygon fill="lightblue" stroke="black" points="82.62,-252 28.62,-252 28.62,-216 82.62,-216 82.62,-252"/>
<text xml:space="preserve" text-anchor="middle" x="55.62" y="-228.95" font-family="Times New Roman,serif" font-size="14.00">=</text>
</g>
<!-- op_seed&#45;&gt;assign_seed -->
<g id="edge2" class="edge">
<title>op_seed&#45;&gt;assign_seed</title>
<path fill="none" stroke="black" d="M55.62,-287.7C55.62,-280.41 55.62,-271.73 55.62,-263.54"/>
<polygon fill="black" stroke="black" points="59.13,-263.62 55.63,-253.62 52.13,-263.62 59.13,-263.62"/>
</g>
<!-- op_seed_mod -->
<g id="node4" class="node">
<title>op_seed_mod</title>
<polygon fill="lightblue" stroke="black" points="82.62,-108 28.62,-108 28.62,-72 82.62,-72 82.62,-108"/>
<text xml:space="preserve" text-anchor="middle" x="55.62" y="-84.95" font-family="Times New Roman,serif" font-size="14.00">%256</text>
</g>
<!-- assign_orig -->
<g id="node7" class="node">
<title>assign_orig</title>
<polygon fill="lightblue" stroke="black" points="82.62,-36 28.62,-36 28.62,0 82.62,0 82.62,-36"/>
<text xml:space="preserve" text-anchor="middle" x="55.62" y="-12.95" font-family="Times New Roman,serif" font-size="14.00">=</text>
</g>
<!-- op_seed_mod&#45;&gt;assign_orig -->
<g id="edge5" class="edge">
<title>op_seed_mod&#45;&gt;assign_orig</title>
<path fill="none" stroke="black" d="M55.62,-71.7C55.62,-64.41 55.62,-55.73 55.62,-47.54"/>
<polygon fill="black" stroke="black" points="59.13,-47.62 55.63,-37.62 52.13,-47.62 59.13,-47.62"/>
</g>
<!-- assign_tabort -->
<g id="node5" class="node">
<title>assign_tabort</title>
<polygon fill="lightblue" stroke="black" points="226.62,-36 172.62,-36 172.62,0 226.62,0 226.62,-36"/>
<text xml:space="preserve" text-anchor="middle" x="199.62" y="-12.95" font-family="Times New Roman,serif" font-size="14.00">=</text>
</g>
<!-- seed -->
<g id="node9" class="node">
<title>seed</title>
<polygon fill="lightblue" stroke="black" points="82.62,-180 28.62,-180 28.62,-144 82.62,-144 82.62,-180"/>
<text xml:space="preserve" text-anchor="middle" x="55.62" y="-156.95" font-family="Times New Roman,serif" font-size="14.00">seed</text>
</g>
<!-- assign_seed&#45;&gt;seed -->
<g id="edge3" class="edge">
<title>assign_seed&#45;&gt;seed</title>
<path fill="none" stroke="black" d="M55.62,-215.7C55.62,-208.41 55.62,-199.73 55.62,-191.54"/>
<polygon fill="black" stroke="black" points="59.13,-191.62 55.63,-181.62 52.13,-191.62 59.13,-191.62"/>
</g>
<!-- increment_i -->
<g id="node8" class="node">
<title>increment_i</title>
<polygon fill="lightblue" stroke="black" points="154.62,-36 100.62,-36 100.62,0 154.62,0 154.62,-36"/>
<text xml:space="preserve" text-anchor="middle" x="127.62" y="-12.95" font-family="Times New Roman,serif" font-size="14.00">++</text>
</g>
<!-- increment_i&#45;&gt;i -->
<g id="edge9" class="edge">
<title>increment_i&#45;&gt;i</title>
<path fill="none" stroke="black" d="M133.52,-36.1C134.28,-43.37 134.53,-52.04 134.28,-60.24"/>
<polygon fill="black" stroke="black" points="130.79,-59.98 133.64,-70.19 137.77,-60.43 130.79,-59.98"/>
</g>
<!-- seed&#45;&gt;op_seed_mod -->
<g id="edge4" class="edge">
<title>seed&#45;&gt;op_seed_mod</title>
<path fill="none" stroke="black" d="M55.62,-143.7C55.62,-136.41 55.62,-127.73 55.62,-119.54"/>
<polygon fill="black" stroke="black" points="59.13,-119.62 55.63,-109.62 52.13,-119.62 59.13,-119.62"/>
</g>
<!-- i&#45;&gt;assign_tabort -->
<g id="edge6" class="edge">
<title>i&#45;&gt;assign_tabort</title>
<path fill="none" stroke="black" d="M145.42,-71.7C153.9,-63.45 164.21,-53.43 173.56,-44.35"/>
<polygon fill="black" stroke="black" points="175.97,-46.88 180.7,-37.4 171.09,-41.86 175.97,-46.88"/>
</g>
<!-- i&#45;&gt;assign_orig -->
<g id="edge7" class="edge">
<title>i&#45;&gt;assign_orig</title>
<path fill="none" stroke="black" d="M109.83,-71.7C101.35,-63.45 91.04,-53.43 81.69,-44.35"/>
<polygon fill="black" stroke="black" points="84.16,-41.86 74.55,-37.4 79.28,-46.88 84.16,-41.86"/>
</g>
<!-- i&#45;&gt;increment_i -->
<g id="edge8" class="edge">
<title>i&#45;&gt;increment_i</title>
<path fill="none" stroke="black" d="M121.71,-71.7C120.96,-64.41 120.71,-55.73 120.98,-47.54"/>
<polygon fill="black" stroke="black" points="124.47,-47.82 121.63,-37.61 117.48,-47.36 124.47,-47.82"/>
</g>
</g>
</svg>
