<?xml version="1.0" encoding="UTF-8" standalone="no"?>
<!DOCTYPE svg PUBLIC "-//W3C//DTD SVG 1.1//EN"
 "http://www.w3.org/Graphics/SVG/1.1/DTD/svg11.dtd">
<!-- Generated by graphviz version 13.1.2 (20250808.2320)
 -->
<!-- Title: main_CFG Pages: 1 -->
<svg width="296pt" height="692pt"
 viewBox="0.00 0.00 296.00 692.00" xmlns="http://www.w3.org/2000/svg" xmlns:xlink="http://www.w3.org/1999/xlink">
<g id="graph0" class="graph" transform="scale(1 1) rotate(0) translate(4 688)">
<title>main_CFG</title>
<polygon fill="white" stroke="none" points="-4,4 -4,-688 291.5,-688 291.5,4 -4,4"/>
<!-- N1 -->
<g id="node1" class="node">
<title>N1</title>
<polygon fill="none" stroke="black" points="226,-684 61.5,-684 61.5,-648 226,-648 226,-684"/>
<text xml:space="preserve" text-anchor="middle" x="143.75" y="-660.95" font-family="Times New Roman,serif" font-size="14.00">1: int count = IN_COUNT;</text>
</g>
<!-- N2 -->
<g id="node2" class="node">
<title>N2</title>
<polygon fill="none" stroke="black" points="190.75,-612 96.75,-612 96.75,-576 190.75,-576 190.75,-612"/>
<text xml:space="preserve" text-anchor="middle" x="143.75" y="-588.95" font-family="Times New Roman,serif" font-size="14.00">2: initbuffer();</text>
</g>
<!-- N1&#45;&gt;N2 -->
<g id="edge1" class="edge">
<title>N1&#45;&gt;N2</title>
<path fill="none" stroke="black" d="M143.75,-647.7C143.75,-640.41 143.75,-631.73 143.75,-623.54"/>
<polygon fill="black" stroke="black" points="147.25,-623.62 143.75,-613.62 140.25,-623.62 147.25,-623.62"/>
</g>
<!-- N3 -->
<g id="node3" class="node">
<title>N3</title>
<polygon fill="none" stroke="black" points="205,-540 82.5,-540 82.5,-504 205,-504 205,-540"/>
<text xml:space="preserve" text-anchor="middle" x="143.75" y="-516.95" font-family="Times New Roman,serif" font-size="14.00">3: maxbits = BITS;</text>
</g>
<!-- N2&#45;&gt;N3 -->
<g id="edge2" class="edge">
<title>N2&#45;&gt;N3</title>
<path fill="none" stroke="black" d="M143.75,-575.7C143.75,-568.41 143.75,-559.73 143.75,-551.54"/>
<polygon fill="black" stroke="black" points="147.25,-551.62 143.75,-541.62 140.25,-551.62 147.25,-551.62"/>
</g>
<!-- N4 -->
<g id="node4" class="node">
<title>N4</title>
<polygon fill="none" stroke="black" points="242.5,-468 45,-468 45,-432 242.5,-432 242.5,-468"/>
<text xml:space="preserve" text-anchor="middle" x="143.75" y="-444.95" font-family="Times New Roman,serif" font-size="14.00">4: maxmaxcode = 1 &lt;&lt; maxbits;</text>
</g>
<!-- N3&#45;&gt;N4 -->
<g id="edge3" class="edge">
<title>N3&#45;&gt;N4</title>
<path fill="none" stroke="black" d="M143.75,-503.7C143.75,-496.41 143.75,-487.73 143.75,-479.54"/>
<polygon fill="black" stroke="black" points="147.25,-479.62 143.75,-469.62 140.25,-479.62 147.25,-479.62"/>
</g>
<!-- N5 -->
<g id="node5" class="node">
<title>N5</title>
<polygon fill="none" stroke="black" points="199,-396 88.5,-396 88.5,-360 199,-360 199,-396"/>
<text xml:space="preserve" text-anchor="middle" x="143.75" y="-372.95" font-family="Times New Roman,serif" font-size="14.00">5: InCnt = count;</text>
</g>
<!-- N4&#45;&gt;N5 -->
<g id="edge4" class="edge">
<title>N4&#45;&gt;N5</title>
<path fill="none" stroke="black" d="M143.75,-431.7C143.75,-424.41 143.75,-415.73 143.75,-407.54"/>
<polygon fill="black" stroke="black" points="147.25,-407.62 143.75,-397.62 140.25,-407.62 147.25,-407.62"/>
</g>
<!-- N6 -->
<g id="node6" class="node">
<title>N6</title>
<polygon fill="none" stroke="black" points="248.88,-324 38.62,-324 38.62,-288 248.88,-288 248.88,-324"/>
<text xml:space="preserve" text-anchor="middle" x="143.75" y="-300.95" font-family="Times New Roman,serif" font-size="14.00">6: apsim_InCnt = IN_COUNT + 3;</text>
</g>
<!-- N5&#45;&gt;N6 -->
<g id="edge5" class="edge">
<title>N5&#45;&gt;N6</title>
<path fill="none" stroke="black" d="M143.75,-359.7C143.75,-352.41 143.75,-343.73 143.75,-335.54"/>
<polygon fill="black" stroke="black" points="147.25,-335.62 143.75,-325.62 140.25,-335.62 147.25,-335.62"/>
</g>
<!-- N7 -->
<g id="node7" class="node">
<title>N7</title>
<polygon fill="none" stroke="black" points="278.5,-252 9,-252 9,-216 278.5,-216 278.5,-252"/>
<text xml:space="preserve" text-anchor="middle" x="143.75" y="-228.95" font-family="Times New Roman,serif" font-size="14.00">7: InBuff = (unsigned char *)orig_text_buffer;</text>
</g>
<!-- N6&#45;&gt;N7 -->
<g id="edge6" class="edge">
<title>N6&#45;&gt;N7</title>
<path fill="none" stroke="black" d="M143.75,-287.7C143.75,-280.41 143.75,-271.73 143.75,-263.54"/>
<polygon fill="black" stroke="black" points="147.25,-263.62 143.75,-253.62 140.25,-263.62 147.25,-263.62"/>
</g>
<!-- N8 -->
<g id="node8" class="node">
<title>N8</title>
<polygon fill="none" stroke="black" points="287.5,-180 0,-180 0,-144 287.5,-144 287.5,-180"/>
<text xml:space="preserve" text-anchor="middle" x="143.75" y="-156.95" font-family="Times New Roman,serif" font-size="14.00">8: OutBuff = (unsigned char *)comp_text_buffer;</text>
</g>
<!-- N7&#45;&gt;N8 -->
<g id="edge7" class="edge">
<title>N7&#45;&gt;N8</title>
<path fill="none" stroke="black" d="M143.75,-215.7C143.75,-208.41 143.75,-199.73 143.75,-191.54"/>
<polygon fill="black" stroke="black" points="147.25,-191.62 143.75,-181.62 140.25,-191.62 147.25,-191.62"/>
</g>
<!-- N9 -->
<g id="node9" class="node">
<title>N9</title>
<polygon fill="none" stroke="black" points="191.12,-108 96.38,-108 96.38,-72 191.12,-72 191.12,-108"/>
<text xml:space="preserve" text-anchor="middle" x="143.75" y="-84.95" font-family="Times New Roman,serif" font-size="14.00">9: compress();</text>
</g>
<!-- N8&#45;&gt;N9 -->
<g id="edge8" class="edge">
<title>N8&#45;&gt;N9</title>
<path fill="none" stroke="black" d="M143.75,-143.7C143.75,-136.41 143.75,-127.73 143.75,-119.54"/>
<polygon fill="black" stroke="black" points="147.25,-119.62 143.75,-109.62 140.25,-119.62 147.25,-119.62"/>
</g>
<!-- N10 -->
<g id="node10" class="node">
<title>N10</title>
<polygon fill="none" stroke="black" points="185.5,-36 102,-36 102,0 185.5,0 185.5,-36"/>
<text xml:space="preserve" text-anchor="middle" x="143.75" y="-12.95" font-family="Times New Roman,serif" font-size="14.00">10: return 0;</text>
</g>
<!-- N9&#45;&gt;N10 -->
<g id="edge9" class="edge">
<title>N9&#45;&gt;N10</title>
<path fill="none" stroke="black" d="M143.75,-71.7C143.75,-64.41 143.75,-55.73 143.75,-47.54"/>
<polygon fill="black" stroke="black" points="147.25,-47.62 143.75,-37.62 140.25,-47.62 147.25,-47.62"/>
</g>
</g>
</svg>
