<?xml version="1.0" encoding="UTF-8" standalone="no"?>
<!DOCTYPE svg PUBLIC "-//W3C//DTD SVG 1.1//EN"
 "http://www.w3.org/Graphics/SVG/1.1/DTD/svg11.dtd">
<!-- Generated by graphviz version 13.1.2 (20250808.2320)
 -->
<!-- Title: main_DFG Pages: 1 -->
<svg width="547pt" height="404pt"
 viewBox="0.00 0.00 547.00 404.00" xmlns="http://www.w3.org/2000/svg" xmlns:xlink="http://www.w3.org/1999/xlink">
<g id="graph0" class="graph" transform="scale(1 1) rotate(0) translate(4 400)">
<title>main_DFG</title>
<polygon fill="white" stroke="none" points="-4,4 -4,-400 542.75,-400 542.75,4 -4,4"/>
<!-- IN_COUNT -->
<g id="node1" class="node">
<title>IN_COUNT</title>
<ellipse fill="lightblue" stroke="black" cx="67" cy="-378" rx="56.98" ry="18"/>
<text xml:space="preserve" text-anchor="middle" x="67" y="-372.95" font-family="Times New Roman,serif" font-size="14.00">IN_COUNT</text>
</g>
<!-- assign_count -->
<g id="node5" class="node">
<title>assign_count</title>
<polygon fill="lightblue" stroke="black" points="57,-324 3,-324 3,-288 57,-288 57,-324"/>
<text xml:space="preserve" text-anchor="middle" x="30" y="-300.95" font-family="Times New Roman,serif" font-size="14.00">=</text>
</g>
<!-- IN_COUNT&#45;&gt;assign_count -->
<g id="edge1" class="edge">
<title>IN_COUNT&#45;&gt;assign_count</title>
<path fill="none" stroke="black" d="M58.04,-360.05C53.97,-352.35 49.04,-343.03 44.46,-334.36"/>
<polygon fill="black" stroke="black" points="47.61,-332.82 39.84,-325.61 41.42,-336.09 47.61,-332.82"/>
</g>
<!-- assign_apsim_InCnt -->
<g id="node9" class="node">
<title>assign_apsim_InCnt</title>
<polygon fill="lightblue" stroke="black" points="130,-324 76,-324 76,-288 130,-288 130,-324"/>
<text xml:space="preserve" text-anchor="middle" x="103" y="-300.95" font-family="Times New Roman,serif" font-size="14.00">+</text>
</g>
<!-- IN_COUNT&#45;&gt;assign_apsim_InCnt -->
<g id="edge9" class="edge">
<title>IN_COUNT&#45;&gt;assign_apsim_InCnt</title>
<path fill="none" stroke="black" d="M75.71,-360.05C79.68,-352.35 84.47,-343.03 88.93,-334.36"/>
<polygon fill="black" stroke="black" points="91.96,-336.11 93.42,-325.62 85.74,-332.91 91.96,-336.11"/>
</g>
<!-- BITS -->
<g id="node2" class="node">
<title>BITS</title>
<ellipse fill="lightblue" stroke="black" cx="494" cy="-378" rx="30.88" ry="18"/>
<text xml:space="preserve" text-anchor="middle" x="494" y="-372.95" font-family="Times New Roman,serif" font-size="14.00">BITS</text>
</g>
<!-- assign_maxbits -->
<g id="node6" class="node">
<title>assign_maxbits</title>
<polygon fill="lightblue" stroke="black" points="521,-324 467,-324 467,-288 521,-288 521,-324"/>
<text xml:space="preserve" text-anchor="middle" x="494" y="-300.95" font-family="Times New Roman,serif" font-size="14.00">=</text>
</g>
<!-- BITS&#45;&gt;assign_maxbits -->
<g id="edge3" class="edge">
<title>BITS&#45;&gt;assign_maxbits</title>
<path fill="none" stroke="black" d="M494,-359.7C494,-352.41 494,-343.73 494,-335.54"/>
<polygon fill="black" stroke="black" points="497.5,-335.62 494,-325.62 490.5,-335.62 497.5,-335.62"/>
</g>
<!-- orig_text_buffer -->
<g id="node3" class="node">
<title>orig_text_buffer</title>
<ellipse fill="lightblue" stroke="black" cx="202" cy="-234" rx="71.31" ry="18"/>
<text xml:space="preserve" text-anchor="middle" x="202" y="-228.95" font-family="Times New Roman,serif" font-size="14.00">orig_text_buffer</text>
</g>
<!-- assign_InBuff -->
<g id="node10" class="node">
<title>assign_InBuff</title>
<polygon fill="lightblue" stroke="black" points="230,-180 176,-180 176,-144 230,-144 230,-180"/>
<text xml:space="preserve" text-anchor="middle" x="203" y="-156.95" font-family="Times New Roman,serif" font-size="14.00">=</text>
</g>
<!-- orig_text_buffer&#45;&gt;assign_InBuff -->
<g id="edge11" class="edge">
<title>orig_text_buffer&#45;&gt;assign_InBuff</title>
<path fill="none" stroke="black" d="M202.25,-215.7C202.35,-208.41 202.48,-199.73 202.59,-191.54"/>
<polygon fill="black" stroke="black" points="206.09,-191.67 202.73,-181.62 199.09,-191.57 206.09,-191.67"/>
</g>
<!-- comp_text_buffer -->
<g id="node4" class="node">
<title>comp_text_buffer</title>
<ellipse fill="lightblue" stroke="black" cx="369" cy="-234" rx="77.45" ry="18"/>
<text xml:space="preserve" text-anchor="middle" x="369" y="-228.95" font-family="Times New Roman,serif" font-size="14.00">comp_text_buffer</text>
</g>
<!-- assign_OutBuff -->
<g id="node11" class="node">
<title>assign_OutBuff</title>
<polygon fill="lightblue" stroke="black" points="370,-180 316,-180 316,-144 370,-144 370,-180"/>
<text xml:space="preserve" text-anchor="middle" x="343" y="-156.95" font-family="Times New Roman,serif" font-size="14.00">=</text>
</g>
<!-- comp_text_buffer&#45;&gt;assign_OutBuff -->
<g id="edge13" class="edge">
<title>comp_text_buffer&#45;&gt;assign_OutBuff</title>
<path fill="none" stroke="black" d="M362.57,-215.7C359.77,-208.15 356.42,-199.12 353.28,-190.68"/>
<polygon fill="black" stroke="black" points="356.64,-189.68 349.88,-181.52 350.08,-192.12 356.64,-189.68"/>
</g>
<!-- count -->
<g id="node13" class="node">
<title>count</title>
<polygon fill="lightblue" stroke="black" points="56,-252 2,-252 2,-216 56,-216 56,-252"/>
<text xml:space="preserve" text-anchor="middle" x="29" y="-228.95" font-family="Times New Roman,serif" font-size="14.00">count</text>
</g>
<!-- assign_count&#45;&gt;count -->
<g id="edge2" class="edge">
<title>assign_count&#45;&gt;count</title>
<path fill="none" stroke="black" d="M29.75,-287.7C29.65,-280.41 29.52,-271.73 29.41,-263.54"/>
<polygon fill="black" stroke="black" points="32.91,-263.57 29.27,-253.62 25.91,-263.67 32.91,-263.57"/>
</g>
<!-- maxbits -->
<g id="node14" class="node">
<title>maxbits</title>
<polygon fill="lightblue" stroke="black" points="523.75,-252 464.25,-252 464.25,-216 523.75,-216 523.75,-252"/>
<text xml:space="preserve" text-anchor="middle" x="494" y="-228.95" font-family="Times New Roman,serif" font-size="14.00">maxbits</text>
</g>
<!-- assign_maxbits&#45;&gt;maxbits -->
<g id="edge4" class="edge">
<title>assign_maxbits&#45;&gt;maxbits</title>
<path fill="none" stroke="black" d="M494,-287.7C494,-280.41 494,-271.73 494,-263.54"/>
<polygon fill="black" stroke="black" points="497.5,-263.62 494,-253.62 490.5,-263.62 497.5,-263.62"/>
</g>
<!-- assign_maxmaxcode -->
<g id="node7" class="node">
<title>assign_maxmaxcode</title>
<polygon fill="lightblue" stroke="black" points="521,-180 467,-180 467,-144 521,-144 521,-180"/>
<text xml:space="preserve" text-anchor="middle" x="494" y="-156.95" font-family="Times New Roman,serif" font-size="14.00">&lt;&lt;</text>
</g>
<!-- maxmaxcode -->
<g id="node15" class="node">
<title>maxmaxcode</title>
<polygon fill="lightblue" stroke="black" points="538.75,-108 449.25,-108 449.25,-72 538.75,-72 538.75,-108"/>
<text xml:space="preserve" text-anchor="middle" x="494" y="-84.95" font-family="Times New Roman,serif" font-size="14.00">maxmaxcode</text>
</g>
<!-- assign_maxmaxcode&#45;&gt;maxmaxcode -->
<g id="edge6" class="edge">
<title>assign_maxmaxcode&#45;&gt;maxmaxcode</title>
<path fill="none" stroke="black" d="M494,-143.7C494,-136.41 494,-127.73 494,-119.54"/>
<polygon fill="black" stroke="black" points="497.5,-119.62 494,-109.62 490.5,-119.62 497.5,-119.62"/>
</g>
<!-- assign_InCnt -->
<g id="node8" class="node">
<title>assign_InCnt</title>
<polygon fill="lightblue" stroke="black" points="54,-180 0,-180 0,-144 54,-144 54,-180"/>
<text xml:space="preserve" text-anchor="middle" x="27" y="-156.95" font-family="Times New Roman,serif" font-size="14.00">=</text>
</g>
<!-- InCnt -->
<g id="node16" class="node">
<title>InCnt</title>
<polygon fill="lightblue" stroke="black" points="79,-108 25,-108 25,-72 79,-72 79,-108"/>
<text xml:space="preserve" text-anchor="middle" x="52" y="-84.95" font-family="Times New Roman,serif" font-size="14.00">InCnt</text>
</g>
<!-- assign_InCnt&#45;&gt;InCnt -->
<g id="edge8" class="edge">
<title>assign_InCnt&#45;&gt;InCnt</title>
<path fill="none" stroke="black" d="M33.18,-143.7C35.87,-136.15 39.1,-127.12 42.11,-118.68"/>
<polygon fill="black" stroke="black" points="45.31,-120.12 45.38,-109.53 38.72,-117.77 45.31,-120.12"/>
</g>
<!-- apsim_InCnt -->
<g id="node17" class="node">
<title>apsim_InCnt</title>
<polygon fill="lightblue" stroke="black" points="158.25,-180 71.75,-180 71.75,-144 158.25,-144 158.25,-180"/>
<text xml:space="preserve" text-anchor="middle" x="115" y="-156.95" font-family="Times New Roman,serif" font-size="14.00">apsim_InCnt</text>
</g>
<!-- assign_apsim_InCnt&#45;&gt;apsim_InCnt -->
<g id="edge10" class="edge">
<title>assign_apsim_InCnt&#45;&gt;apsim_InCnt</title>
<path fill="none" stroke="black" d="M104.47,-287.59C106.5,-263.61 110.17,-220.14 112.6,-191.42"/>
<polygon fill="black" stroke="black" points="116.07,-191.88 113.43,-181.62 109.1,-191.29 116.07,-191.88"/>
</g>
<!-- InBuff -->
<g id="node18" class="node">
<title>InBuff</title>
<polygon fill="lightblue" stroke="black" points="214,-108 160,-108 160,-72 214,-72 214,-108"/>
<text xml:space="preserve" text-anchor="middle" x="187" y="-84.95" font-family="Times New Roman,serif" font-size="14.00">InBuff</text>
</g>
<!-- assign_InBuff&#45;&gt;InBuff -->
<g id="edge12" class="edge">
<title>assign_InBuff&#45;&gt;InBuff</title>
<path fill="none" stroke="black" d="M199.04,-143.7C197.36,-136.32 195.35,-127.52 193.46,-119.25"/>
<polygon fill="black" stroke="black" points="196.89,-118.55 191.25,-109.58 190.06,-120.11 196.89,-118.55"/>
</g>
<!-- OutBuff -->
<g id="node19" class="node">
<title>OutBuff</title>
<polygon fill="lightblue" stroke="black" points="320.5,-108 259.5,-108 259.5,-72 320.5,-72 320.5,-108"/>
<text xml:space="preserve" text-anchor="middle" x="290" y="-84.95" font-family="Times New Roman,serif" font-size="14.00">OutBuff</text>
</g>
<!-- assign_OutBuff&#45;&gt;OutBuff -->
<g id="edge14" class="edge">
<title>assign_OutBuff&#45;&gt;OutBuff</title>
<path fill="none" stroke="black" d="M329.9,-143.7C323.87,-135.73 316.58,-126.1 309.89,-117.26"/>
<polygon fill="black" stroke="black" points="312.69,-115.17 303.86,-109.31 307.11,-119.4 312.69,-115.17"/>
</g>
<!-- call_compress -->
<g id="node12" class="node">
<title>call_compress</title>
<polygon fill="lightblue" stroke="black" points="197.38,-36 120.62,-36 120.62,0 197.38,0 197.38,-36"/>
<text xml:space="preserve" text-anchor="middle" x="159" y="-12.95" font-family="Times New Roman,serif" font-size="14.00">compress()</text>
</g>
<!-- count&#45;&gt;assign_InCnt -->
<g id="edge7" class="edge">
<title>count&#45;&gt;assign_InCnt</title>
<path fill="none" stroke="black" d="M28.51,-215.7C28.3,-208.41 28.05,-199.73 27.82,-191.54"/>
<polygon fill="black" stroke="black" points="31.32,-191.51 27.53,-181.62 24.32,-191.71 31.32,-191.51"/>
</g>
<!-- maxbits&#45;&gt;assign_maxmaxcode -->
<g id="edge5" class="edge">
<title>maxbits&#45;&gt;assign_maxmaxcode</title>
<path fill="none" stroke="black" d="M494,-215.7C494,-208.41 494,-199.73 494,-191.54"/>
<polygon fill="black" stroke="black" points="497.5,-191.62 494,-181.62 490.5,-191.62 497.5,-191.62"/>
</g>
<!-- InCnt&#45;&gt;call_compress -->
<g id="edge15" class="edge">
<title>InCnt&#45;&gt;call_compress</title>
<path fill="none" stroke="black" d="M78.72,-71.52C92.23,-62.68 108.81,-51.84 123.38,-42.3"/>
<polygon fill="black" stroke="black" points="124.9,-45.49 131.35,-37.09 121.06,-39.63 124.9,-45.49"/>
</g>
<!-- apsim_InCnt&#45;&gt;call_compress -->
<g id="edge16" class="edge">
<title>apsim_InCnt&#45;&gt;call_compress</title>
<path fill="none" stroke="black" d="M120.4,-143.59C127.86,-119.5 141.41,-75.75 150.31,-47.03"/>
<polygon fill="black" stroke="black" points="153.63,-48.14 153.25,-37.56 146.95,-46.07 153.63,-48.14"/>
</g>
<!-- InBuff&#45;&gt;call_compress -->
<g id="edge17" class="edge">
<title>InBuff&#45;&gt;call_compress</title>
<path fill="none" stroke="black" d="M180.08,-71.7C177.06,-64.15 173.45,-55.12 170.07,-46.68"/>
<polygon fill="black" stroke="black" points="173.37,-45.49 166.4,-37.51 166.87,-48.09 173.37,-45.49"/>
</g>
<!-- OutBuff&#45;&gt;call_compress -->
<g id="edge18" class="edge">
<title>OutBuff&#45;&gt;call_compress</title>
<path fill="none" stroke="black" d="M259.29,-72.59C242.06,-63.38 220.31,-51.76 201.47,-41.69"/>
<polygon fill="black" stroke="black" points="203.15,-38.63 192.68,-37 199.85,-44.8 203.15,-38.63"/>
</g>
</g>
</svg>
