<?xml version="1.0" encoding="UTF-8" standalone="no"?>
<!DOCTYPE svg PUBLIC "-//W3C//DTD SVG 1.1//EN"
 "http://www.w3.org/Graphics/SVG/1.1/DTD/svg11.dtd">
<!-- Generated by graphviz version 13.1.2 (20250808.2320)
 -->
<!-- Title: output_CFG Pages: 1 -->
<svg width="314pt" height="387pt"
 viewBox="0.00 0.00 314.00 387.00" xmlns="http://www.w3.org/2000/svg" xmlns:xlink="http://www.w3.org/1999/xlink">
<g id="graph0" class="graph" transform="scale(1 1) rotate(0) translate(4 382.5)">
<title>output_CFG</title>
<polygon fill="white" stroke="none" points="-4,4 -4,-382.5 310.12,-382.5 310.12,4 -4,4"/>
<!-- N1 -->
<g id="node1" class="node">
<title>N1</title>
<polygon fill="none" stroke="black" points="239.88,-378.5 132.38,-378.5 132.38,-342.5 239.88,-342.5 239.88,-378.5"/>
<text xml:space="preserve" text-anchor="middle" x="186.12" y="-355.45" font-family="Times New Roman,serif" font-size="14.00">1: if (code &gt;= 0)</text>
</g>
<!-- N2 -->
<g id="node2" class="node">
<title>N2</title>
<polygon fill="none" stroke="black" points="220.62,-290 21.62,-290 21.62,-254 220.62,-254 220.62,-290"/>
<text xml:space="preserve" text-anchor="middle" x="121.12" y="-266.95" font-family="Times New Roman,serif" font-size="14.00">2: Processamento para code &gt;= 0</text>
</g>
<!-- N1&#45;&gt;N2 -->
<g id="edge1" class="edge">
<title>N1&#45;&gt;N2</title>
<path fill="none" stroke="black" d="M173.28,-342.41C164.08,-330.17 151.52,-313.45 141.03,-299.49"/>
<polygon fill="black" stroke="black" points="143.88,-297.45 135.07,-291.56 138.28,-301.66 143.88,-297.45"/>
<text xml:space="preserve" text-anchor="middle" x="169.95" y="-311.2" font-family="Times New Roman,serif" font-size="14.00">true</text>
</g>
<!-- N5 -->
<g id="node5" class="node">
<title>N5</title>
<polygon fill="none" stroke="black" points="306.12,-236 194.12,-236 194.12,-200 306.12,-200 306.12,-236"/>
<text xml:space="preserve" text-anchor="middle" x="250.12" y="-212.95" font-family="Times New Roman,serif" font-size="14.00">5: else (code &lt; 0)</text>
</g>
<!-- N1&#45;&gt;N5 -->
<g id="edge2" class="edge">
<title>N1&#45;&gt;N5</title>
<path fill="none" stroke="black" d="M199.21,-342.02C208.87,-328.42 221.75,-308.78 230.12,-290 236.18,-276.43 240.85,-260.58 244.15,-247.3"/>
<polygon fill="black" stroke="black" points="247.48,-248.42 246.36,-237.89 240.67,-246.83 247.48,-248.42"/>
<text xml:space="preserve" text-anchor="middle" x="233.39" y="-311.2" font-family="Times New Roman,serif" font-size="14.00">false</text>
</g>
<!-- N3 -->
<g id="node3" class="node">
<title>N3</title>
<polygon fill="none" stroke="black" points="206.5,-182 27.75,-182 27.75,-146 206.5,-146 206.5,-182"/>
<text xml:space="preserve" text-anchor="middle" x="117.12" y="-158.95" font-family="Times New Roman,serif" font-size="14.00">3: if (offset == (n_bits &lt;&lt; 3))</text>
</g>
<!-- N2&#45;&gt;N3 -->
<g id="edge3" class="edge">
<title>N2&#45;&gt;N3</title>
<path fill="none" stroke="black" d="M120.48,-253.97C119.87,-237.76 118.94,-213.06 118.21,-193.79"/>
<polygon fill="black" stroke="black" points="121.71,-193.71 117.84,-183.85 114.72,-193.98 121.71,-193.71"/>
</g>
<!-- N4 -->
<g id="node4" class="node">
<title>N4</title>
<polygon fill="none" stroke="black" points="222.25,-109 0,-109 0,-73 222.25,-73 222.25,-109"/>
<text xml:space="preserve" text-anchor="middle" x="111.12" y="-85.95" font-family="Times New Roman,serif" font-size="14.00">4: if (free_ent &gt; maxcode || clear_flg)</text>
</g>
<!-- N3&#45;&gt;N4 -->
<g id="edge4" class="edge">
<title>N3&#45;&gt;N4</title>
<path fill="none" stroke="black" d="M115.67,-145.81C115.02,-138.14 114.24,-128.89 113.51,-120.24"/>
<polygon fill="black" stroke="black" points="117.02,-120.21 112.69,-110.54 110.05,-120.8 117.02,-120.21"/>
</g>
<!-- N6 -->
<g id="node6" class="node">
<title>N6</title>
<polygon fill="none" stroke="black" points="207.12,-36 153.12,-36 153.12,0 207.12,0 207.12,-36"/>
<text xml:space="preserve" text-anchor="middle" x="180.12" y="-12.95" font-family="Times New Roman,serif" font-size="14.00">6: End</text>
</g>
<!-- N4&#45;&gt;N6 -->
<g id="edge5" class="edge">
<title>N4&#45;&gt;N6</title>
<path fill="none" stroke="black" d="M127.83,-72.81C136.22,-64.18 146.54,-53.56 155.8,-44.03"/>
<polygon fill="black" stroke="black" points="158.06,-46.72 162.52,-37.11 153.04,-41.85 158.06,-46.72"/>
</g>
<!-- N5&#45;&gt;N6 -->
<g id="edge6" class="edge">
<title>N5&#45;&gt;N6</title>
<path fill="none" stroke="black" d="M251.18,-199.64C252.16,-171.57 251.16,-115.13 231.12,-73 226.1,-62.43 218.23,-52.57 210.16,-44.24"/>
<polygon fill="black" stroke="black" points="212.83,-41.96 203.21,-37.51 207.96,-46.98 212.83,-41.96"/>
</g>
</g>
</svg>
