<?xml version="1.0" encoding="UTF-8" standalone="no"?>
<!DOCTYPE svg PUBLIC "-//W3C//DTD SVG 1.1//EN"
 "http://www.w3.org/Graphics/SVG/1.1/DTD/svg11.dtd">
<!-- Generated by graphviz version 13.1.2 (20250808.2320)
 -->
<!-- Title: encode Pages: 1 -->
<svg width="552pt" height="3487pt"
 viewBox="0.00 0.00 552.00 3487.00" xmlns="http://www.w3.org/2000/svg" xmlns:xlink="http://www.w3.org/1999/xlink">
<g id="graph0" class="graph" transform="scale(1 1) rotate(0) translate(4 3483)">
<title>encode</title>
<polygon fill="white" stroke="none" points="-4,4 -4,-3483 547.75,-3483 547.75,4 -4,4"/>
<!-- start -->
<g id="node1" class="node">
<title>start</title>
<ellipse fill="none" stroke="black" cx="166.88" cy="-3461" rx="29.61" ry="18"/>
<text xml:space="preserve" text-anchor="middle" x="166.88" y="-3455.57" font-family="Arial" font-size="14.00">Start</text>
</g>
<!-- init_vars -->
<g id="node3" class="node">
<title>init_vars</title>
<polygon fill="none" stroke="black" points="266,-3406 67.75,-3406 67.75,-3335 266,-3335 266,-3406"/>
<text xml:space="preserve" text-anchor="middle" x="166.88" y="-3388.7" font-family="Arial" font-size="14.00">int i;</text>
<text xml:space="preserve" text-anchor="middle" x="166.88" y="-3372.95" font-family="Arial" font-size="14.00">int *h_ptr,*tqmf_ptr,*tqmf_ptr1;</text>
<text xml:space="preserve" text-anchor="middle" x="166.88" y="-3357.2" font-family="Arial" font-size="14.00">long int xa,xb;</text>
<text xml:space="preserve" text-anchor="middle" x="166.88" y="-3341.45" font-family="Arial" font-size="14.00">int decis;</text>
</g>
<!-- start&#45;&gt;init_vars -->
<g id="edge1" class="edge">
<title>start&#45;&gt;init_vars</title>
<path fill="none" stroke="black" d="M166.88,-3442.52C166.88,-3435.22 166.88,-3426.37 166.88,-3417.42"/>
<polygon fill="black" stroke="black" points="170.38,-3417.67 166.88,-3407.67 163.38,-3417.67 170.38,-3417.67"/>
</g>
<!-- end -->
<g id="node2" class="node">
<title>end</title>
<ellipse fill="none" stroke="black" cx="389.88" cy="-18" rx="27" ry="18"/>
<text xml:space="preserve" text-anchor="middle" x="389.88" y="-12.57" font-family="Arial" font-size="14.00">End</text>
</g>
<!-- init_ptrs -->
<g id="node4" class="node">
<title>init_ptrs</title>
<polygon fill="none" stroke="black" points="223.25,-3298 110.5,-3298 110.5,-3258.5 223.25,-3258.5 223.25,-3298"/>
<text xml:space="preserve" text-anchor="middle" x="166.88" y="-3280.7" font-family="Arial" font-size="14.00">h_ptr = h;</text>
<text xml:space="preserve" text-anchor="middle" x="166.88" y="-3264.95" font-family="Arial" font-size="14.00">tqmf_ptr = tqmf;</text>
</g>
<!-- init_vars&#45;&gt;init_ptrs -->
<g id="edge2" class="edge">
<title>init_vars&#45;&gt;init_ptrs</title>
<path fill="none" stroke="black" d="M166.88,-3334.61C166.88,-3326.44 166.88,-3317.8 166.88,-3309.83"/>
<polygon fill="black" stroke="black" points="170.38,-3309.93 166.88,-3299.93 163.38,-3309.93 170.38,-3309.93"/>
</g>
<!-- init_xa_xb -->
<g id="node5" class="node">
<title>init_xa_xb</title>
<polygon fill="none" stroke="black" points="286.62,-3221.5 47.12,-3221.5 47.12,-3182 286.62,-3182 286.62,-3221.5"/>
<text xml:space="preserve" text-anchor="middle" x="166.88" y="-3204.2" font-family="Arial" font-size="14.00">xa = (long)(*tqmf_ptr++) * (*h_ptr++);</text>
<text xml:space="preserve" text-anchor="middle" x="166.88" y="-3188.45" font-family="Arial" font-size="14.00">xb = (long)(*tqmf_ptr++) * (*h_ptr++);</text>
</g>
<!-- init_ptrs&#45;&gt;init_xa_xb -->
<g id="edge3" class="edge">
<title>init_ptrs&#45;&gt;init_xa_xb</title>
<path fill="none" stroke="black" d="M166.88,-3258.06C166.88,-3250.5 166.88,-3241.63 166.88,-3233.24"/>
<polygon fill="black" stroke="black" points="170.38,-3233.38 166.88,-3223.38 163.38,-3233.38 170.38,-3233.38"/>
</g>
<!-- loop_init -->
<g id="node6" class="node">
<title>loop_init</title>
<polygon fill="none" stroke="black" points="166.88,-3145 127.12,-3127 166.87,-3109 206.63,-3127 166.88,-3145"/>
<text xml:space="preserve" text-anchor="middle" x="166.88" y="-3121.57" font-family="Arial" font-size="14.00">i = 0</text>
</g>
<!-- init_xa_xb&#45;&gt;loop_init -->
<g id="edge4" class="edge">
<title>init_xa_xb&#45;&gt;loop_init</title>
<path fill="none" stroke="black" d="M166.88,-3181.64C166.88,-3173.97 166.88,-3164.97 166.88,-3156.55"/>
<polygon fill="black" stroke="black" points="170.38,-3156.76 166.88,-3146.76 163.38,-3156.76 170.38,-3156.76"/>
</g>
<!-- loop_cond -->
<g id="node7" class="node">
<title>loop_cond</title>
<polygon fill="none" stroke="black" points="166.88,-3072 120.06,-3054 166.87,-3036 213.69,-3054 166.88,-3072"/>
<text xml:space="preserve" text-anchor="middle" x="166.88" y="-3048.57" font-family="Arial" font-size="14.00">i &lt; 10</text>
</g>
<!-- loop_init&#45;&gt;loop_cond -->
<g id="edge5" class="edge">
<title>loop_init&#45;&gt;loop_cond</title>
<path fill="none" stroke="black" d="M166.88,-3108.81C166.88,-3101.34 166.88,-3092.37 166.88,-3083.92"/>
<polygon fill="black" stroke="black" points="170.38,-3084.04 166.88,-3074.04 163.38,-3084.04 170.38,-3084.04"/>
</g>
<!-- loop_body -->
<g id="node8" class="node">
<title>loop_body</title>
<polygon fill="none" stroke="black" points="247.75,-2984.25 0,-2984.25 0,-2929 247.75,-2929 247.75,-2984.25"/>
<text xml:space="preserve" text-anchor="middle" x="123.88" y="-2966.95" font-family="Arial" font-size="14.00">xa += (long)(*tqmf_ptr++) * (*h_ptr++);</text>
<text xml:space="preserve" text-anchor="middle" x="123.88" y="-2951.2" font-family="Arial" font-size="14.00">xb += (long)(*tqmf_ptr++) * (*h_ptr++);</text>
<text xml:space="preserve" text-anchor="middle" x="123.88" y="-2935.45" font-family="Arial" font-size="14.00">i++</text>
</g>
<!-- loop_cond&#45;&gt;loop_body -->
<g id="edge6" class="edge">
<title>loop_cond&#45;&gt;loop_body</title>
<path fill="none" stroke="black" d="M148.63,-3042.82C139.83,-3036.84 130.11,-3028.41 125.12,-3018 121.88,-3011.22 120.35,-3003.5 119.83,-2995.9"/>
<polygon fill="black" stroke="black" points="123.34,-2996.08 119.75,-2986.11 116.34,-2996.13 123.34,-2996.08"/>
<text xml:space="preserve" text-anchor="middle" x="139" y="-3004.7" font-family="Arial" font-size="14.00">True</text>
</g>
<!-- final_add -->
<g id="node9" class="node">
<title>final_add</title>
<polygon fill="none" stroke="black" points="513.75,-2976.38 266,-2976.38 266,-2936.88 513.75,-2936.88 513.75,-2976.38"/>
<text xml:space="preserve" text-anchor="middle" x="389.88" y="-2959.07" font-family="Arial" font-size="14.00">xa += (long)(*tqmf_ptr++) * (*h_ptr++);</text>
<text xml:space="preserve" text-anchor="middle" x="389.88" y="-2943.32" font-family="Arial" font-size="14.00">xb += (long)(*tqmf_ptr) * (*h_ptr++);</text>
</g>
<!-- loop_cond&#45;&gt;final_add -->
<g id="edge8" class="edge">
<title>loop_cond&#45;&gt;final_add</title>
<path fill="none" stroke="black" d="M188.26,-3043.86C221.7,-3029.55 287.46,-3001.43 334.79,-2981.18"/>
<polygon fill="black" stroke="black" points="335.99,-2984.48 343.8,-2977.33 333.23,-2978.04 335.99,-2984.48"/>
<text xml:space="preserve" text-anchor="middle" x="301.56" y="-3004.7" font-family="Arial" font-size="14.00">False</text>
</g>
<!-- loop_body&#45;&gt;loop_cond -->
<g id="edge7" class="edge">
<title>loop_body&#45;&gt;loop_cond</title>
<path fill="none" stroke="black" d="M143.35,-2984.72C146.85,-2990.34 150.22,-2996.35 152.88,-3002.25 156.21,-3009.67 158.92,-3018.06 161.03,-3025.85"/>
<polygon fill="black" stroke="black" points="157.63,-3026.68 163.43,-3035.55 164.43,-3025 157.63,-3026.68"/>
</g>
<!-- shift_tqmf -->
<g id="node10" class="node">
<title>shift_tqmf</title>
<polygon fill="none" stroke="black" points="541.12,-2892 238.62,-2892 238.62,-2821 541.12,-2821 541.12,-2892"/>
<text xml:space="preserve" text-anchor="middle" x="389.88" y="-2874.7" font-family="Arial" font-size="14.00">tqmf_ptr1 = tqmf_ptr &#45; 2;</text>
<text xml:space="preserve" text-anchor="middle" x="389.88" y="-2858.95" font-family="Arial" font-size="14.00">for(i = 0 ; i &lt; 22 ; i++) *tqmf_ptr&#45;&#45; = *tqmf_ptr1&#45;&#45;;</text>
<text xml:space="preserve" text-anchor="middle" x="389.88" y="-2843.2" font-family="Arial" font-size="14.00">*tqmf_ptr&#45;&#45; = xin1;</text>
<text xml:space="preserve" text-anchor="middle" x="389.88" y="-2827.45" font-family="Arial" font-size="14.00">*tqmf_ptr = xin2;</text>
</g>
<!-- final_add&#45;&gt;shift_tqmf -->
<g id="edge9" class="edge">
<title>final_add&#45;&gt;shift_tqmf</title>
<path fill="none" stroke="black" d="M389.88,-2936.71C389.88,-2927.27 389.88,-2915.4 389.88,-2903.74"/>
<polygon fill="black" stroke="black" points="393.38,-2903.76 389.88,-2893.76 386.38,-2903.76 393.38,-2903.76"/>
</g>
<!-- calc_xl_xh -->
<g id="node11" class="node">
<title>calc_xl_xh</title>
<polygon fill="none" stroke="black" points="459,-2784 320.75,-2784 320.75,-2744.5 459,-2744.5 459,-2784"/>
<text xml:space="preserve" text-anchor="middle" x="389.88" y="-2766.7" font-family="Arial" font-size="14.00">xl = (xa + xb) &gt;&gt; 15;</text>
<text xml:space="preserve" text-anchor="middle" x="389.88" y="-2750.95" font-family="Arial" font-size="14.00">xh = (xa &#45; xb) &gt;&gt; 15;</text>
</g>
<!-- shift_tqmf&#45;&gt;calc_xl_xh -->
<g id="edge10" class="edge">
<title>shift_tqmf&#45;&gt;calc_xl_xh</title>
<path fill="none" stroke="black" d="M389.88,-2820.61C389.88,-2812.44 389.88,-2803.8 389.88,-2795.83"/>
<polygon fill="black" stroke="black" points="393.38,-2795.93 389.88,-2785.93 386.38,-2795.93 393.38,-2795.93"/>
</g>
<!-- szl_calc -->
<g id="node12" class="node">
<title>szl_calc</title>
<polygon fill="none" stroke="black" points="495.38,-2707.5 284.38,-2707.5 284.38,-2671.5 495.38,-2671.5 495.38,-2707.5"/>
<text xml:space="preserve" text-anchor="middle" x="389.88" y="-2684.07" font-family="Arial" font-size="14.00">szl = filtez(delay_bpl,delay_dltx);</text>
</g>
<!-- calc_xl_xh&#45;&gt;szl_calc -->
<g id="edge11" class="edge">
<title>calc_xl_xh&#45;&gt;szl_calc</title>
<path fill="none" stroke="black" d="M389.88,-2744.14C389.88,-2736.47 389.88,-2727.47 389.88,-2719.05"/>
<polygon fill="black" stroke="black" points="393.38,-2719.26 389.88,-2709.26 386.38,-2719.26 393.38,-2719.26"/>
</g>
<!-- spl_calc -->
<g id="node13" class="node">
<title>spl_calc</title>
<polygon fill="none" stroke="black" points="477.38,-2634.5 302.38,-2634.5 302.38,-2598.5 477.38,-2598.5 477.38,-2634.5"/>
<text xml:space="preserve" text-anchor="middle" x="389.88" y="-2611.07" font-family="Arial" font-size="14.00">spl = filtep(rlt1,al1,rlt2,al2);</text>
</g>
<!-- szl_calc&#45;&gt;spl_calc -->
<g id="edge12" class="edge">
<title>szl_calc&#45;&gt;spl_calc</title>
<path fill="none" stroke="black" d="M389.88,-2671.31C389.88,-2663.73 389.88,-2654.6 389.88,-2646.04"/>
<polygon fill="black" stroke="black" points="393.38,-2646.04 389.88,-2636.04 386.38,-2646.04 393.38,-2646.04"/>
</g>
<!-- sl_calc -->
<g id="node14" class="node">
<title>sl_calc</title>
<polygon fill="none" stroke="black" points="437.25,-2561.5 342.5,-2561.5 342.5,-2525.5 437.25,-2525.5 437.25,-2561.5"/>
<text xml:space="preserve" text-anchor="middle" x="389.88" y="-2538.07" font-family="Arial" font-size="14.00">sl = szl + spl;</text>
</g>
<!-- spl_calc&#45;&gt;sl_calc -->
<g id="edge13" class="edge">
<title>spl_calc&#45;&gt;sl_calc</title>
<path fill="none" stroke="black" d="M389.88,-2598.31C389.88,-2590.73 389.88,-2581.6 389.88,-2573.04"/>
<polygon fill="black" stroke="black" points="393.38,-2573.04 389.88,-2563.04 386.38,-2573.04 393.38,-2573.04"/>
</g>
<!-- el_calc -->
<g id="node15" class="node">
<title>el_calc</title>
<polygon fill="none" stroke="black" points="428.62,-2488.5 351.12,-2488.5 351.12,-2452.5 428.62,-2452.5 428.62,-2488.5"/>
<text xml:space="preserve" text-anchor="middle" x="389.88" y="-2465.07" font-family="Arial" font-size="14.00">el = xl &#45; sl;</text>
</g>
<!-- sl_calc&#45;&gt;el_calc -->
<g id="edge14" class="edge">
<title>sl_calc&#45;&gt;el_calc</title>
<path fill="none" stroke="black" d="M389.88,-2525.31C389.88,-2517.73 389.88,-2508.6 389.88,-2500.04"/>
<polygon fill="black" stroke="black" points="393.38,-2500.04 389.88,-2490.04 386.38,-2500.04 393.38,-2500.04"/>
</g>
<!-- il_calc -->
<g id="node16" class="node">
<title>il_calc</title>
<polygon fill="none" stroke="black" points="451.5,-2415.5 328.25,-2415.5 328.25,-2379.5 451.5,-2379.5 451.5,-2415.5"/>
<text xml:space="preserve" text-anchor="middle" x="389.88" y="-2392.07" font-family="Arial" font-size="14.00">il = quantl(el,detl);</text>
</g>
<!-- el_calc&#45;&gt;il_calc -->
<g id="edge15" class="edge">
<title>el_calc&#45;&gt;il_calc</title>
<path fill="none" stroke="black" d="M389.88,-2452.31C389.88,-2444.73 389.88,-2435.6 389.88,-2427.04"/>
<polygon fill="black" stroke="black" points="393.38,-2427.04 389.88,-2417.04 386.38,-2427.04 393.38,-2427.04"/>
</g>
<!-- dlt_calc -->
<g id="node17" class="node">
<title>dlt_calc</title>
<polygon fill="none" stroke="black" points="543.75,-2342.5 236,-2342.5 236,-2306.5 543.75,-2306.5 543.75,-2342.5"/>
<text xml:space="preserve" text-anchor="middle" x="389.88" y="-2319.07" font-family="Arial" font-size="14.00">dlt = ((long)detl*qq4_code4_table[il &gt;&gt; 2]) &gt;&gt; 15;</text>
</g>
<!-- il_calc&#45;&gt;dlt_calc -->
<g id="edge16" class="edge">
<title>il_calc&#45;&gt;dlt_calc</title>
<path fill="none" stroke="black" d="M389.88,-2379.31C389.88,-2371.73 389.88,-2362.6 389.88,-2354.04"/>
<polygon fill="black" stroke="black" points="393.38,-2354.04 389.88,-2344.04 386.38,-2354.04 393.38,-2354.04"/>
</g>
<!-- nbl_calc -->
<g id="node18" class="node">
<title>nbl_calc</title>
<polygon fill="none" stroke="black" points="452.25,-2269.5 327.5,-2269.5 327.5,-2233.5 452.25,-2233.5 452.25,-2269.5"/>
<text xml:space="preserve" text-anchor="middle" x="389.88" y="-2246.07" font-family="Arial" font-size="14.00">nbl = logscl(il,nbl);</text>
</g>
<!-- dlt_calc&#45;&gt;nbl_calc -->
<g id="edge17" class="edge">
<title>dlt_calc&#45;&gt;nbl_calc</title>
<path fill="none" stroke="black" d="M389.88,-2306.31C389.88,-2298.73 389.88,-2289.6 389.88,-2281.04"/>
<polygon fill="black" stroke="black" points="393.38,-2281.04 389.88,-2271.04 386.38,-2281.04 393.38,-2281.04"/>
</g>
<!-- detl_calc -->
<g id="node19" class="node">
<title>detl_calc</title>
<polygon fill="none" stroke="black" points="454.88,-2196.5 324.88,-2196.5 324.88,-2160.5 454.88,-2160.5 454.88,-2196.5"/>
<text xml:space="preserve" text-anchor="middle" x="389.88" y="-2173.07" font-family="Arial" font-size="14.00">detl = scalel(nbl,8);</text>
</g>
<!-- nbl_calc&#45;&gt;detl_calc -->
<g id="edge18" class="edge">
<title>nbl_calc&#45;&gt;detl_calc</title>
<path fill="none" stroke="black" d="M389.88,-2233.31C389.88,-2225.73 389.88,-2216.6 389.88,-2208.04"/>
<polygon fill="black" stroke="black" points="393.38,-2208.04 389.88,-2198.04 386.38,-2208.04 393.38,-2208.04"/>
</g>
<!-- plt_calc -->
<g id="node20" class="node">
<title>plt_calc</title>
<polygon fill="none" stroke="black" points="438,-2123.5 341.75,-2123.5 341.75,-2087.5 438,-2087.5 438,-2123.5"/>
<text xml:space="preserve" text-anchor="middle" x="389.88" y="-2100.07" font-family="Arial" font-size="14.00">plt = dlt + szl;</text>
</g>
<!-- detl_calc&#45;&gt;plt_calc -->
<g id="edge19" class="edge">
<title>detl_calc&#45;&gt;plt_calc</title>
<path fill="none" stroke="black" d="M389.88,-2160.31C389.88,-2152.73 389.88,-2143.6 389.88,-2135.04"/>
<polygon fill="black" stroke="black" points="393.38,-2135.04 389.88,-2125.04 386.38,-2135.04 393.38,-2135.04"/>
</g>
<!-- upzero_call -->
<g id="node21" class="node">
<title>upzero_call</title>
<polygon fill="none" stroke="black" points="495,-2050.5 284.75,-2050.5 284.75,-2014.5 495,-2014.5 495,-2050.5"/>
<text xml:space="preserve" text-anchor="middle" x="389.88" y="-2027.08" font-family="Arial" font-size="14.00">upzero(dlt,delay_dltx,delay_bpl);</text>
</g>
<!-- plt_calc&#45;&gt;upzero_call -->
<g id="edge20" class="edge">
<title>plt_calc&#45;&gt;upzero_call</title>
<path fill="none" stroke="black" d="M389.88,-2087.31C389.88,-2079.73 389.88,-2070.6 389.88,-2062.04"/>
<polygon fill="black" stroke="black" points="393.38,-2062.04 389.88,-2052.04 386.38,-2062.04 393.38,-2062.04"/>
</g>
<!-- al2_calc -->
<g id="node22" class="node">
<title>al2_calc</title>
<polygon fill="none" stroke="black" points="495.75,-1977.5 284,-1977.5 284,-1941.5 495.75,-1941.5 495.75,-1977.5"/>
<text xml:space="preserve" text-anchor="middle" x="389.88" y="-1954.08" font-family="Arial" font-size="14.00">al2 = uppol2(al1,al2,plt,plt1,plt2);</text>
</g>
<!-- upzero_call&#45;&gt;al2_calc -->
<g id="edge21" class="edge">
<title>upzero_call&#45;&gt;al2_calc</title>
<path fill="none" stroke="black" d="M389.88,-2014.31C389.88,-2006.73 389.88,-1997.6 389.88,-1989.04"/>
<polygon fill="black" stroke="black" points="393.38,-1989.04 389.88,-1979.04 386.38,-1989.04 393.38,-1989.04"/>
</g>
<!-- al1_calc -->
<g id="node23" class="node">
<title>al1_calc</title>
<polygon fill="none" stroke="black" points="483,-1904.5 296.75,-1904.5 296.75,-1868.5 483,-1868.5 483,-1904.5"/>
<text xml:space="preserve" text-anchor="middle" x="389.88" y="-1881.08" font-family="Arial" font-size="14.00">al1 = uppol1(al1,al2,plt,plt1);</text>
</g>
<!-- al2_calc&#45;&gt;al1_calc -->
<g id="edge22" class="edge">
<title>al2_calc&#45;&gt;al1_calc</title>
<path fill="none" stroke="black" d="M389.88,-1941.31C389.88,-1933.73 389.88,-1924.6 389.88,-1916.04"/>
<polygon fill="black" stroke="black" points="393.38,-1916.04 389.88,-1906.04 386.38,-1916.04 393.38,-1916.04"/>
</g>
<!-- rlt_calc -->
<g id="node24" class="node">
<title>rlt_calc</title>
<polygon fill="none" stroke="black" points="433.12,-1831.5 346.62,-1831.5 346.62,-1795.5 433.12,-1795.5 433.12,-1831.5"/>
<text xml:space="preserve" text-anchor="middle" x="389.88" y="-1808.08" font-family="Arial" font-size="14.00">rlt = sl + dlt;</text>
</g>
<!-- al1_calc&#45;&gt;rlt_calc -->
<g id="edge23" class="edge">
<title>al1_calc&#45;&gt;rlt_calc</title>
<path fill="none" stroke="black" d="M389.88,-1868.31C389.88,-1860.73 389.88,-1851.6 389.88,-1843.04"/>
<polygon fill="black" stroke="black" points="393.38,-1843.04 389.88,-1833.04 386.38,-1843.04 393.38,-1843.04"/>
</g>
<!-- shift_rlt -->
<g id="node25" class="node">
<title>shift_rlt</title>
<polygon fill="none" stroke="black" points="426.38,-1758.5 353.38,-1758.5 353.38,-1719 426.38,-1719 426.38,-1758.5"/>
<text xml:space="preserve" text-anchor="middle" x="389.88" y="-1741.2" font-family="Arial" font-size="14.00">rlt2 = rlt1;</text>
<text xml:space="preserve" text-anchor="middle" x="389.88" y="-1725.45" font-family="Arial" font-size="14.00">rlt1 = rlt;</text>
</g>
<!-- rlt_calc&#45;&gt;shift_rlt -->
<g id="edge24" class="edge">
<title>rlt_calc&#45;&gt;shift_rlt</title>
<path fill="none" stroke="black" d="M389.88,-1795.26C389.88,-1787.75 389.88,-1778.72 389.88,-1770.14"/>
<polygon fill="black" stroke="black" points="393.38,-1770.43 389.88,-1760.43 386.38,-1770.43 393.38,-1770.43"/>
</g>
<!-- shift_plt -->
<g id="node26" class="node">
<title>shift_plt</title>
<polygon fill="none" stroke="black" points="429.38,-1682 350.38,-1682 350.38,-1642.5 429.38,-1642.5 429.38,-1682"/>
<text xml:space="preserve" text-anchor="middle" x="389.88" y="-1664.7" font-family="Arial" font-size="14.00">plt2 = plt1;</text>
<text xml:space="preserve" text-anchor="middle" x="389.88" y="-1648.95" font-family="Arial" font-size="14.00">plt1 = plt;</text>
</g>
<!-- shift_rlt&#45;&gt;shift_plt -->
<g id="edge25" class="edge">
<title>shift_rlt&#45;&gt;shift_plt</title>
<path fill="none" stroke="black" d="M389.88,-1718.56C389.88,-1711 389.88,-1702.13 389.88,-1693.74"/>
<polygon fill="black" stroke="black" points="393.38,-1693.88 389.88,-1683.88 386.38,-1693.88 393.38,-1693.88"/>
</g>
<!-- szh_calc -->
<g id="node27" class="node">
<title>szh_calc</title>
<polygon fill="none" stroke="black" points="500.25,-1605.5 279.5,-1605.5 279.5,-1569.5 500.25,-1569.5 500.25,-1605.5"/>
<text xml:space="preserve" text-anchor="middle" x="389.88" y="-1582.08" font-family="Arial" font-size="14.00">szh = filtez(delay_bph,delay_dhx);</text>
</g>
<!-- shift_plt&#45;&gt;szh_calc -->
<g id="edge26" class="edge">
<title>shift_plt&#45;&gt;szh_calc</title>
<path fill="none" stroke="black" d="M389.88,-1642.14C389.88,-1634.47 389.88,-1625.47 389.88,-1617.05"/>
<polygon fill="black" stroke="black" points="393.38,-1617.26 389.88,-1607.26 386.38,-1617.26 393.38,-1617.26"/>
</g>
<!-- sph_calc -->
<g id="node28" class="node">
<title>sph_calc</title>
<polygon fill="none" stroke="black" points="484.88,-1532.5 294.88,-1532.5 294.88,-1496.5 484.88,-1496.5 484.88,-1532.5"/>
<text xml:space="preserve" text-anchor="middle" x="389.88" y="-1509.08" font-family="Arial" font-size="14.00">sph = filtep(rh1,ah1,rh2,ah2);</text>
</g>
<!-- szh_calc&#45;&gt;sph_calc -->
<g id="edge27" class="edge">
<title>szh_calc&#45;&gt;sph_calc</title>
<path fill="none" stroke="black" d="M389.88,-1569.31C389.88,-1561.73 389.88,-1552.6 389.88,-1544.04"/>
<polygon fill="black" stroke="black" points="393.38,-1544.04 389.88,-1534.04 386.38,-1544.04 393.38,-1544.04"/>
</g>
<!-- sh_calc -->
<g id="node29" class="node">
<title>sh_calc</title>
<polygon fill="none" stroke="black" points="444,-1459.5 335.75,-1459.5 335.75,-1423.5 444,-1423.5 444,-1459.5"/>
<text xml:space="preserve" text-anchor="middle" x="389.88" y="-1436.08" font-family="Arial" font-size="14.00">sh = sph + szh;</text>
</g>
<!-- sph_calc&#45;&gt;sh_calc -->
<g id="edge28" class="edge">
<title>sph_calc&#45;&gt;sh_calc</title>
<path fill="none" stroke="black" d="M389.88,-1496.31C389.88,-1488.73 389.88,-1479.6 389.88,-1471.04"/>
<polygon fill="black" stroke="black" points="393.38,-1471.04 389.88,-1461.04 386.38,-1471.04 393.38,-1471.04"/>
</g>
<!-- eh_calc -->
<g id="node30" class="node">
<title>eh_calc</title>
<polygon fill="none" stroke="black" points="435.38,-1386.5 344.38,-1386.5 344.38,-1350.5 435.38,-1350.5 435.38,-1386.5"/>
<text xml:space="preserve" text-anchor="middle" x="389.88" y="-1363.08" font-family="Arial" font-size="14.00">eh = xh &#45; sh;</text>
</g>
<!-- sh_calc&#45;&gt;eh_calc -->
<g id="edge29" class="edge">
<title>sh_calc&#45;&gt;eh_calc</title>
<path fill="none" stroke="black" d="M389.88,-1423.31C389.88,-1415.73 389.88,-1406.6 389.88,-1398.04"/>
<polygon fill="black" stroke="black" points="393.38,-1398.04 389.88,-1388.04 386.38,-1398.04 393.38,-1398.04"/>
</g>
<!-- eh_cond -->
<g id="node31" class="node">
<title>eh_cond</title>
<polygon fill="none" stroke="black" points="389.88,-1313.5 316.25,-1295.5 389.88,-1277.5 463.5,-1295.5 389.88,-1313.5"/>
<text xml:space="preserve" text-anchor="middle" x="389.88" y="-1290.08" font-family="Arial" font-size="14.00">if(eh &gt;= 0)</text>
</g>
<!-- eh_calc&#45;&gt;eh_cond -->
<g id="edge30" class="edge">
<title>eh_calc&#45;&gt;eh_cond</title>
<path fill="none" stroke="black" d="M389.88,-1350.31C389.88,-1342.73 389.88,-1333.6 389.88,-1325.04"/>
<polygon fill="black" stroke="black" points="393.38,-1325.04 389.88,-1315.04 386.38,-1325.04 393.38,-1325.04"/>
</g>
<!-- ih_true -->
<g id="node32" class="node">
<title>ih_true</title>
<polygon fill="none" stroke="black" points="381.88,-1225.75 327.88,-1225.75 327.88,-1189.75 381.88,-1189.75 381.88,-1225.75"/>
<text xml:space="preserve" text-anchor="middle" x="354.88" y="-1202.33" font-family="Arial" font-size="14.00">ih = 3;</text>
</g>
<!-- eh_cond&#45;&gt;ih_true -->
<g id="edge31" class="edge">
<title>eh_cond&#45;&gt;ih_true</title>
<path fill="none" stroke="black" d="M381.04,-1279.46C377.68,-1273.38 373.98,-1266.23 371.12,-1259.5 368.06,-1252.26 365.23,-1244.23 362.83,-1236.74"/>
<polygon fill="black" stroke="black" points="366.25,-1235.94 359.98,-1227.4 359.55,-1237.98 366.25,-1235.94"/>
<text xml:space="preserve" text-anchor="middle" x="385" y="-1246.2" font-family="Arial" font-size="14.00">True</text>
</g>
<!-- ih_false -->
<g id="node33" class="node">
<title>ih_false</title>
<polygon fill="none" stroke="black" points="453.88,-1225.75 399.88,-1225.75 399.88,-1189.75 453.88,-1189.75 453.88,-1225.75"/>
<text xml:space="preserve" text-anchor="middle" x="426.88" y="-1202.33" font-family="Arial" font-size="14.00">ih = 1;</text>
</g>
<!-- eh_cond&#45;&gt;ih_false -->
<g id="edge32" class="edge">
<title>eh_cond&#45;&gt;ih_false</title>
<path fill="none" stroke="black" d="M396.66,-1278.77C401.73,-1267.02 408.8,-1250.65 414.82,-1236.69"/>
<polygon fill="black" stroke="black" points="418.02,-1238.11 418.77,-1227.54 411.59,-1235.33 418.02,-1238.11"/>
<text xml:space="preserve" text-anchor="middle" x="428.19" y="-1246.2" font-family="Arial" font-size="14.00">False</text>
</g>
<!-- decis_calc -->
<g id="node34" class="node">
<title>decis_calc</title>
<polygon fill="none" stroke="black" points="499.12,-1152.75 280.62,-1152.75 280.62,-1116.75 499.12,-1116.75 499.12,-1152.75"/>
<text xml:space="preserve" text-anchor="middle" x="389.88" y="-1129.33" font-family="Arial" font-size="14.00">decis = (564L*(long)deth) &gt;&gt; 12L;</text>
</g>
<!-- ih_true&#45;&gt;decis_calc -->
<g id="edge33" class="edge">
<title>ih_true&#45;&gt;decis_calc</title>
<path fill="none" stroke="black" d="M363.35,-1189.56C367.3,-1181.54 372.11,-1171.8 376.53,-1162.82"/>
<polygon fill="black" stroke="black" points="379.53,-1164.65 380.81,-1154.14 373.25,-1161.56 379.53,-1164.65"/>
</g>
<!-- ih_false&#45;&gt;decis_calc -->
<g id="edge34" class="edge">
<title>ih_false&#45;&gt;decis_calc</title>
<path fill="none" stroke="black" d="M417.92,-1189.56C413.74,-1181.54 408.66,-1171.8 403.98,-1162.82"/>
<polygon fill="black" stroke="black" points="407.17,-1161.37 399.45,-1154.12 400.97,-1164.61 407.17,-1161.37"/>
</g>
<!-- abs_eh_calc -->
<g id="node35" class="node">
<title>abs_eh_calc</title>
<polygon fill="none" stroke="black" points="433.88,-1079.75 345.88,-1079.75 345.88,-1043.75 433.88,-1043.75 433.88,-1079.75"/>
<text xml:space="preserve" text-anchor="middle" x="389.88" y="-1056.33" font-family="Arial" font-size="14.00">my_abs(eh)</text>
</g>
<!-- decis_calc&#45;&gt;abs_eh_calc -->
<g id="edge35" class="edge">
<title>decis_calc&#45;&gt;abs_eh_calc</title>
<path fill="none" stroke="black" d="M389.88,-1116.56C389.88,-1108.98 389.88,-1099.85 389.88,-1091.29"/>
<polygon fill="black" stroke="black" points="393.38,-1091.29 389.88,-1081.29 386.38,-1091.29 393.38,-1091.29"/>
</g>
<!-- decis_cond -->
<g id="node36" class="node">
<title>decis_cond</title>
<polygon fill="none" stroke="black" points="389.88,-1006.75 247.8,-988.75 389.87,-970.75 531.95,-988.75 389.88,-1006.75"/>
<text xml:space="preserve" text-anchor="middle" x="389.88" y="-983.33" font-family="Arial" font-size="14.00">if(my_abs(eh) &gt; decis)</text>
</g>
<!-- abs_eh_calc&#45;&gt;decis_cond -->
<g id="edge36" class="edge">
<title>abs_eh_calc&#45;&gt;decis_cond</title>
<path fill="none" stroke="black" d="M389.88,-1043.56C389.88,-1035.98 389.88,-1026.85 389.88,-1018.29"/>
<polygon fill="black" stroke="black" points="393.38,-1018.29 389.88,-1008.29 386.38,-1018.29 393.38,-1018.29"/>
</g>
<!-- ih_dec -->
<g id="node37" class="node">
<title>ih_dec</title>
<polygon fill="none" stroke="black" points="385.88,-919 331.88,-919 331.88,-883 385.88,-883 385.88,-919"/>
<text xml:space="preserve" text-anchor="middle" x="358.88" y="-895.58" font-family="Arial" font-size="14.00">ih&#45;&#45;;</text>
</g>
<!-- decis_cond&#45;&gt;ih_dec -->
<g id="edge37" class="edge">
<title>decis_cond&#45;&gt;ih_dec</title>
<path fill="none" stroke="black" d="M383.9,-971.22C379.69,-959.58 373.96,-943.72 369.04,-930.12"/>
<polygon fill="black" stroke="black" points="372.36,-929 365.67,-920.79 365.78,-931.38 372.36,-929"/>
<text xml:space="preserve" text-anchor="middle" x="391.03" y="-939.45" font-family="Arial" font-size="14.00">True</text>
</g>
<!-- dh_calc -->
<g id="node38" class="node">
<title>dh_calc</title>
<polygon fill="none" stroke="black" points="536.62,-846 243.12,-846 243.12,-810 536.62,-810 536.62,-846"/>
<text xml:space="preserve" text-anchor="middle" x="389.88" y="-822.58" font-family="Arial" font-size="14.00">dh = ((long)deth*qq2_code2_table[ih]) &gt;&gt; 15L;</text>
</g>
<!-- decis_cond&#45;&gt;dh_calc -->
<g id="edge38" class="edge">
<title>decis_cond&#45;&gt;dh_calc</title>
<path fill="none" stroke="black" d="M400.18,-971.65C403.29,-965.91 406.3,-959.26 407.88,-952.75 415.72,-920.36 407.68,-882.32 399.99,-857.06"/>
<polygon fill="black" stroke="black" points="403.42,-856.28 397.01,-847.85 396.76,-858.44 403.42,-856.28"/>
<text xml:space="preserve" text-anchor="middle" x="427.46" y="-895.58" font-family="Arial" font-size="14.00">False</text>
</g>
<!-- ih_dec&#45;&gt;dh_calc -->
<g id="edge39" class="edge">
<title>ih_dec&#45;&gt;dh_calc</title>
<path fill="none" stroke="black" d="M366.38,-882.81C369.84,-874.88 374.04,-865.26 377.93,-856.36"/>
<polygon fill="black" stroke="black" points="381.04,-857.98 381.83,-847.42 374.63,-855.18 381.04,-857.98"/>
</g>
<!-- nbh_calc -->
<g id="node39" class="node">
<title>nbh_calc</title>
<polygon fill="none" stroke="black" points="461.25,-773 318.5,-773 318.5,-737 461.25,-737 461.25,-773"/>
<text xml:space="preserve" text-anchor="middle" x="389.88" y="-749.58" font-family="Arial" font-size="14.00">nbh = logsch(ih,nbh);</text>
</g>
<!-- dh_calc&#45;&gt;nbh_calc -->
<g id="edge40" class="edge">
<title>dh_calc&#45;&gt;nbh_calc</title>
<path fill="none" stroke="black" d="M389.88,-809.81C389.88,-802.23 389.88,-793.1 389.88,-784.54"/>
<polygon fill="black" stroke="black" points="393.38,-784.54 389.88,-774.54 386.38,-784.54 393.38,-784.54"/>
</g>
<!-- deth_calc -->
<g id="node40" class="node">
<title>deth_calc</title>
<polygon fill="none" stroke="black" points="463.12,-700 316.62,-700 316.62,-664 463.12,-664 463.12,-700"/>
<text xml:space="preserve" text-anchor="middle" x="389.88" y="-676.58" font-family="Arial" font-size="14.00">deth = scalel(nbh,10);</text>
</g>
<!-- nbh_calc&#45;&gt;deth_calc -->
<g id="edge41" class="edge">
<title>nbh_calc&#45;&gt;deth_calc</title>
<path fill="none" stroke="black" d="M389.88,-736.81C389.88,-729.23 389.88,-720.1 389.88,-711.54"/>
<polygon fill="black" stroke="black" points="393.38,-711.54 389.88,-701.54 386.38,-711.54 393.38,-711.54"/>
</g>
<!-- ph_calc -->
<g id="node41" class="node">
<title>ph_calc</title>
<polygon fill="none" stroke="black" points="441,-627 338.75,-627 338.75,-591 441,-591 441,-627"/>
<text xml:space="preserve" text-anchor="middle" x="389.88" y="-603.58" font-family="Arial" font-size="14.00">ph = dh + szh;</text>
</g>
<!-- deth_calc&#45;&gt;ph_calc -->
<g id="edge42" class="edge">
<title>deth_calc&#45;&gt;ph_calc</title>
<path fill="none" stroke="black" d="M389.88,-663.81C389.88,-656.23 389.88,-647.1 389.88,-638.54"/>
<polygon fill="black" stroke="black" points="393.38,-638.54 389.88,-628.54 386.38,-638.54 393.38,-638.54"/>
</g>
<!-- upzero_call2 -->
<g id="node42" class="node">
<title>upzero_call2</title>
<polygon fill="none" stroke="black" points="498,-554 281.75,-554 281.75,-518 498,-518 498,-554"/>
<text xml:space="preserve" text-anchor="middle" x="389.88" y="-530.58" font-family="Arial" font-size="14.00">upzero(dh,delay_dhx,delay_bph);</text>
</g>
<!-- ph_calc&#45;&gt;upzero_call2 -->
<g id="edge43" class="edge">
<title>ph_calc&#45;&gt;upzero_call2</title>
<path fill="none" stroke="black" d="M389.88,-590.81C389.88,-583.23 389.88,-574.1 389.88,-565.54"/>
<polygon fill="black" stroke="black" points="393.38,-565.54 389.88,-555.54 386.38,-565.54 393.38,-565.54"/>
</g>
<!-- ah2_calc -->
<g id="node43" class="node">
<title>ah2_calc</title>
<polygon fill="none" stroke="black" points="503.62,-481 276.12,-481 276.12,-445 503.62,-445 503.62,-481"/>
<text xml:space="preserve" text-anchor="middle" x="389.88" y="-457.57" font-family="Arial" font-size="14.00">ah2 = uppol2(ah1,ah2,ph,ph1,ph2);</text>
</g>
<!-- upzero_call2&#45;&gt;ah2_calc -->
<g id="edge44" class="edge">
<title>upzero_call2&#45;&gt;ah2_calc</title>
<path fill="none" stroke="black" d="M389.88,-517.81C389.88,-510.23 389.88,-501.1 389.88,-492.54"/>
<polygon fill="black" stroke="black" points="393.38,-492.54 389.88,-482.54 386.38,-492.54 393.38,-492.54"/>
</g>
<!-- ah1_calc -->
<g id="node44" class="node">
<title>ah1_calc</title>
<polygon fill="none" stroke="black" points="490.5,-408 289.25,-408 289.25,-372 490.5,-372 490.5,-408"/>
<text xml:space="preserve" text-anchor="middle" x="389.88" y="-384.57" font-family="Arial" font-size="14.00">ah1 = uppol1(ah1,ah2,ph,ph1);</text>
</g>
<!-- ah2_calc&#45;&gt;ah1_calc -->
<g id="edge45" class="edge">
<title>ah2_calc&#45;&gt;ah1_calc</title>
<path fill="none" stroke="black" d="M389.88,-444.81C389.88,-437.23 389.88,-428.1 389.88,-419.54"/>
<polygon fill="black" stroke="black" points="393.38,-419.54 389.88,-409.54 386.38,-419.54 393.38,-419.54"/>
</g>
<!-- yh_calc -->
<g id="node45" class="node">
<title>yh_calc</title>
<polygon fill="none" stroke="black" points="437.25,-335 342.5,-335 342.5,-299 437.25,-299 437.25,-335"/>
<text xml:space="preserve" text-anchor="middle" x="389.88" y="-311.57" font-family="Arial" font-size="14.00">yh = sh + dh;</text>
</g>
<!-- ah1_calc&#45;&gt;yh_calc -->
<g id="edge46" class="edge">
<title>ah1_calc&#45;&gt;yh_calc</title>
<path fill="none" stroke="black" d="M389.88,-371.81C389.88,-364.23 389.88,-355.1 389.88,-346.54"/>
<polygon fill="black" stroke="black" points="393.38,-346.54 389.88,-336.54 386.38,-346.54 393.38,-346.54"/>
</g>
<!-- shift_rh -->
<g id="node46" class="node">
<title>shift_rh</title>
<polygon fill="none" stroke="black" points="427.12,-262 352.62,-262 352.62,-222.5 427.12,-222.5 427.12,-262"/>
<text xml:space="preserve" text-anchor="middle" x="389.88" y="-244.7" font-family="Arial" font-size="14.00">rh2 = rh1;</text>
<text xml:space="preserve" text-anchor="middle" x="389.88" y="-228.95" font-family="Arial" font-size="14.00">rh1 = yh;</text>
</g>
<!-- yh_calc&#45;&gt;shift_rh -->
<g id="edge47" class="edge">
<title>yh_calc&#45;&gt;shift_rh</title>
<path fill="none" stroke="black" d="M389.88,-298.76C389.88,-291.25 389.88,-282.22 389.88,-273.64"/>
<polygon fill="black" stroke="black" points="393.38,-273.93 389.88,-263.93 386.38,-273.93 393.38,-273.93"/>
</g>
<!-- shift_ph -->
<g id="node47" class="node">
<title>shift_ph</title>
<polygon fill="none" stroke="black" points="430.12,-185.5 349.62,-185.5 349.62,-146 430.12,-146 430.12,-185.5"/>
<text xml:space="preserve" text-anchor="middle" x="389.88" y="-168.2" font-family="Arial" font-size="14.00">ph2 = ph1;</text>
<text xml:space="preserve" text-anchor="middle" x="389.88" y="-152.45" font-family="Arial" font-size="14.00">ph1 = ph;</text>
</g>
<!-- shift_rh&#45;&gt;shift_ph -->
<g id="edge48" class="edge">
<title>shift_rh&#45;&gt;shift_ph</title>
<path fill="none" stroke="black" d="M389.88,-222.06C389.88,-214.5 389.88,-205.63 389.88,-197.24"/>
<polygon fill="black" stroke="black" points="393.38,-197.38 389.88,-187.38 386.38,-197.38 393.38,-197.38"/>
</g>
<!-- return_stmt -->
<g id="node48" class="node">
<title>return_stmt</title>
<polygon fill="none" stroke="black" points="456,-109 323.75,-109 323.75,-73 456,-73 456,-109"/>
<text xml:space="preserve" text-anchor="middle" x="389.88" y="-85.58" font-family="Arial" font-size="14.00">return(il | (ih &lt;&lt; 6));</text>
</g>
<!-- shift_ph&#45;&gt;return_stmt -->
<g id="edge49" class="edge">
<title>shift_ph&#45;&gt;return_stmt</title>
<path fill="none" stroke="black" d="M389.88,-145.64C389.88,-137.97 389.88,-128.97 389.88,-120.55"/>
<polygon fill="black" stroke="black" points="393.38,-120.76 389.88,-110.76 386.38,-120.76 393.38,-120.76"/>
</g>
<!-- return_stmt&#45;&gt;end -->
<g id="edge50" class="edge">
<title>return_stmt&#45;&gt;end</title>
<path fill="none" stroke="black" d="M389.88,-72.81C389.88,-65.23 389.88,-56.1 389.88,-47.54"/>
<polygon fill="black" stroke="black" points="393.38,-47.54 389.88,-37.54 386.38,-47.54 393.38,-47.54"/>
</g>
</g>
</svg>
