<?xml version="1.0" encoding="UTF-8" standalone="no"?>
<!DOCTYPE svg PUBLIC "-//W3C//DTD SVG 1.1//EN"
 "http://www.w3.org/Graphics/SVG/1.1/DTD/svg11.dtd">
<!-- Generated by graphviz version 13.1.2 (20250808.2320)
 -->
<!-- Title: filtez Pages: 1 -->
<svg width="352pt" height="427pt"
 viewBox="0.00 0.00 352.00 427.00" xmlns="http://www.w3.org/2000/svg" xmlns:xlink="http://www.w3.org/1999/xlink">
<g id="graph0" class="graph" transform="scale(1 1) rotate(0) translate(4 423.25)">
<title>filtez</title>
<polygon fill="white" stroke="none" points="-4,4 -4,-423.25 348.38,-423.25 348.38,4 -4,4"/>
<!-- start -->
<g id="node1" class="node">
<title>start</title>
<ellipse fill="none" stroke="black" cx="138.38" cy="-401.25" rx="50.56" ry="18"/>
<text xml:space="preserve" text-anchor="middle" x="138.38" y="-395.82" font-family="Arial" font-size="14.00">Start filtez</text>
</g>
<!-- init_zl -->
<g id="node3" class="node">
<title>init_zl</title>
<polygon fill="none" stroke="black" points="229.62,-346.25 47.12,-346.25 47.12,-310.25 229.62,-310.25 229.62,-346.25"/>
<text xml:space="preserve" text-anchor="middle" x="138.38" y="-322.82" font-family="Arial" font-size="14.00">zl = (long)(*bpl++) * (*dlt++)</text>
</g>
<!-- start&#45;&gt;init_zl -->
<g id="edge1" class="edge">
<title>start&#45;&gt;init_zl</title>
<path fill="none" stroke="black" d="M138.38,-383.06C138.38,-375.48 138.38,-366.35 138.38,-357.79"/>
<polygon fill="black" stroke="black" points="141.88,-357.79 138.38,-347.79 134.88,-357.79 141.88,-357.79"/>
</g>
<!-- end -->
<g id="node2" class="node">
<title>end</title>
<ellipse fill="none" stroke="black" cx="276.38" cy="-18" rx="47.57" ry="18"/>
<text xml:space="preserve" text-anchor="middle" x="276.38" y="-12.57" font-family="Arial" font-size="14.00">End filtez</text>
</g>
<!-- loop_init -->
<g id="node4" class="node">
<title>loop_init</title>
<polygon fill="none" stroke="black" points="138.38,-273.25 98.62,-255.25 138.37,-237.25 178.13,-255.25 138.38,-273.25"/>
<text xml:space="preserve" text-anchor="middle" x="138.38" y="-249.82" font-family="Arial" font-size="14.00">i = 1</text>
</g>
<!-- init_zl&#45;&gt;loop_init -->
<g id="edge2" class="edge">
<title>init_zl&#45;&gt;loop_init</title>
<path fill="none" stroke="black" d="M138.38,-310.06C138.38,-302.59 138.38,-293.62 138.38,-285.17"/>
<polygon fill="black" stroke="black" points="141.88,-285.29 138.38,-275.29 134.88,-285.29 141.88,-285.29"/>
</g>
<!-- loop_cond -->
<g id="node5" class="node">
<title>loop_cond</title>
<polygon fill="none" stroke="black" points="138.38,-200.25 98.62,-182.25 138.37,-164.25 178.13,-182.25 138.38,-200.25"/>
<text xml:space="preserve" text-anchor="middle" x="138.38" y="-176.82" font-family="Arial" font-size="14.00">i &lt; 6</text>
</g>
<!-- loop_init&#45;&gt;loop_cond -->
<g id="edge3" class="edge">
<title>loop_init&#45;&gt;loop_cond</title>
<path fill="none" stroke="black" d="M138.38,-237.06C138.38,-229.59 138.38,-220.62 138.38,-212.17"/>
<polygon fill="black" stroke="black" points="141.88,-212.29 138.38,-202.29 134.88,-212.29 141.88,-212.29"/>
</g>
<!-- loop_body -->
<g id="node6" class="node">
<title>loop_body</title>
<polygon fill="none" stroke="black" points="190.75,-112.5 0,-112.5 0,-73 190.75,-73 190.75,-112.5"/>
<text xml:space="preserve" text-anchor="middle" x="95.38" y="-95.2" font-family="Arial" font-size="14.00">zl += (long)(*bpl++) * (*dlt++)</text>
<text xml:space="preserve" text-anchor="middle" x="95.38" y="-79.45" font-family="Arial" font-size="14.00">i++</text>
</g>
<!-- loop_cond&#45;&gt;loop_body -->
<g id="edge4" class="edge">
<title>loop_cond&#45;&gt;loop_body</title>
<path fill="none" stroke="black" d="M121.01,-171.65C111.99,-165.64 101.79,-156.99 96.62,-146.25 93.36,-139.46 92.07,-131.57 91.82,-124.02"/>
<polygon fill="black" stroke="black" points="95.32,-124.22 92.12,-114.12 88.32,-124.01 95.32,-124.22"/>
<text xml:space="preserve" text-anchor="middle" x="110.5" y="-132.95" font-family="Arial" font-size="14.00">True</text>
</g>
<!-- return_stmt -->
<g id="node7" class="node">
<title>return_stmt</title>
<polygon fill="none" stroke="black" points="344.38,-110.75 208.38,-110.75 208.38,-74.75 344.38,-74.75 344.38,-110.75"/>
<text xml:space="preserve" text-anchor="middle" x="276.38" y="-87.33" font-family="Arial" font-size="14.00">return (int)(zl &gt;&gt; 14)</text>
</g>
<!-- loop_cond&#45;&gt;return_stmt -->
<g id="edge5" class="edge">
<title>loop_cond&#45;&gt;return_stmt</title>
<path fill="none" stroke="black" d="M154.48,-171.04C175.21,-157.89 211.87,-134.65 239.59,-117.08"/>
<polygon fill="black" stroke="black" points="241.13,-120.24 247.7,-111.93 237.38,-114.33 241.13,-120.24"/>
<text xml:space="preserve" text-anchor="middle" x="232.14" y="-132.95" font-family="Arial" font-size="14.00">False</text>
</g>
<!-- loop_body&#45;&gt;loop_cond -->
<g id="edge6" class="edge">
<title>loop_body&#45;&gt;loop_cond</title>
<path fill="none" stroke="black" d="M112.88,-112.98C117.11,-118.36 121.29,-124.41 124.38,-130.5 128.09,-137.84 130.93,-146.3 133.04,-154.17"/>
<polygon fill="black" stroke="black" points="129.57,-154.71 135.29,-163.63 136.38,-153.09 129.57,-154.71"/>
</g>
<!-- return_stmt&#45;&gt;end -->
<g id="edge7" class="edge">
<title>return_stmt&#45;&gt;end</title>
<path fill="none" stroke="black" d="M276.38,-74.51C276.38,-66.5 276.38,-56.77 276.38,-47.7"/>
<polygon fill="black" stroke="black" points="279.88,-47.88 276.38,-37.88 272.88,-47.88 279.88,-47.88"/>
</g>
</g>
</svg>
