<?xml version="1.0" encoding="UTF-8" standalone="no"?>
<!DOCTYPE svg PUBLIC "-//W3C//DTD SVG 1.1//EN"
 "http://www.w3.org/Graphics/SVG/1.1/DTD/svg11.dtd">
<!-- Generated by graphviz version 13.1.2 (20250808.2320)
 -->
<!-- Title: fir_filter Pages: 1 -->
<svg width="586pt" height="1534pt"
 viewBox="0.00 0.00 586.00 1534.00" xmlns="http://www.w3.org/2000/svg" xmlns:xlink="http://www.w3.org/1999/xlink">
<g id="graph0" class="graph" transform="scale(1 1) rotate(0) translate(4 1529.5)">
<title>fir_filter</title>
<polygon fill="white" stroke="none" points="-4,4 -4,-1529.5 582.25,-1529.5 582.25,4 -4,4"/>
<!-- start -->
<g id="node1" class="node">
<title>start</title>
<ellipse fill="none" stroke="black" cx="272" cy="-1507.5" rx="61.54" ry="18"/>
<text xml:space="preserve" text-anchor="middle" x="272" y="-1502.08" font-family="Arial" font-size="14.00">fir_filter Start</text>
</g>
<!-- node1 -->
<g id="node3" class="node">
<title>node1</title>
<polygon fill="none" stroke="black" points="299,-1452.5 245,-1452.5 245,-1416.5 299,-1416.5 299,-1452.5"/>
<text xml:space="preserve" text-anchor="middle" x="272" y="-1429.08" font-family="Arial" font-size="14.00">int i</text>
</g>
<!-- start&#45;&gt;node1 -->
<g id="edge1" class="edge">
<title>start&#45;&gt;node1</title>
<path fill="none" stroke="black" d="M272,-1489.31C272,-1481.73 272,-1472.6 272,-1464.04"/>
<polygon fill="black" stroke="black" points="275.5,-1464.04 272,-1454.04 268.5,-1464.04 275.5,-1464.04"/>
</g>
<!-- end -->
<g id="node2" class="node">
<title>end</title>
<ellipse fill="none" stroke="black" cx="511" cy="-18" rx="58.55" ry="18"/>
<text xml:space="preserve" text-anchor="middle" x="511" y="-12.57" font-family="Arial" font-size="14.00">fir_filter End</text>
</g>
<!-- node2 -->
<g id="node4" class="node">
<title>node2</title>
<polygon fill="none" stroke="black" points="369.25,-1379.5 174.75,-1379.5 174.75,-1343.5 369.25,-1343.5 369.25,-1379.5"/>
<text xml:space="preserve" text-anchor="middle" x="272" y="-1356.08" font-family="Arial" font-size="14.00">int *h_ptr,*tqmf_ptr,*tqmf_ptr1</text>
</g>
<!-- node1&#45;&gt;node2 -->
<g id="edge2" class="edge">
<title>node1&#45;&gt;node2</title>
<path fill="none" stroke="black" d="M272,-1416.31C272,-1408.73 272,-1399.6 272,-1391.04"/>
<polygon fill="black" stroke="black" points="275.5,-1391.04 272,-1381.04 268.5,-1391.04 275.5,-1391.04"/>
</g>
<!-- node3 -->
<g id="node5" class="node">
<title>node3</title>
<polygon fill="none" stroke="black" points="319.75,-1306.5 224.25,-1306.5 224.25,-1270.5 319.75,-1270.5 319.75,-1306.5"/>
<text xml:space="preserve" text-anchor="middle" x="272" y="-1283.08" font-family="Arial" font-size="14.00">long int xa,xb</text>
</g>
<!-- node2&#45;&gt;node3 -->
<g id="edge3" class="edge">
<title>node2&#45;&gt;node3</title>
<path fill="none" stroke="black" d="M272,-1343.31C272,-1335.73 272,-1326.6 272,-1318.04"/>
<polygon fill="black" stroke="black" points="275.5,-1318.04 272,-1308.04 268.5,-1318.04 275.5,-1318.04"/>
</g>
<!-- node4 -->
<g id="node6" class="node">
<title>node4</title>
<polygon fill="none" stroke="black" points="307,-1233.5 237,-1233.5 237,-1197.5 307,-1197.5 307,-1233.5"/>
<text xml:space="preserve" text-anchor="middle" x="272" y="-1210.08" font-family="Arial" font-size="14.00">h_ptr = h</text>
</g>
<!-- node3&#45;&gt;node4 -->
<g id="edge4" class="edge">
<title>node3&#45;&gt;node4</title>
<path fill="none" stroke="black" d="M272,-1270.31C272,-1262.73 272,-1253.6 272,-1245.04"/>
<polygon fill="black" stroke="black" points="275.5,-1245.04 272,-1235.04 268.5,-1245.04 275.5,-1245.04"/>
</g>
<!-- node5 -->
<g id="node7" class="node">
<title>node5</title>
<polygon fill="none" stroke="black" points="326.5,-1160.5 217.5,-1160.5 217.5,-1124.5 326.5,-1124.5 326.5,-1160.5"/>
<text xml:space="preserve" text-anchor="middle" x="272" y="-1137.08" font-family="Arial" font-size="14.00">tqmf_ptr = tqmf</text>
</g>
<!-- node4&#45;&gt;node5 -->
<g id="edge5" class="edge">
<title>node4&#45;&gt;node5</title>
<path fill="none" stroke="black" d="M272,-1197.31C272,-1189.73 272,-1180.6 272,-1172.04"/>
<polygon fill="black" stroke="black" points="275.5,-1172.04 272,-1162.04 268.5,-1172.04 275.5,-1172.04"/>
</g>
<!-- node6 -->
<g id="node8" class="node">
<title>node6</title>
<polygon fill="none" stroke="black" points="389.88,-1087.5 154.12,-1087.5 154.12,-1051.5 389.88,-1051.5 389.88,-1087.5"/>
<text xml:space="preserve" text-anchor="middle" x="272" y="-1064.08" font-family="Arial" font-size="14.00">xa = (long)(*tqmf_ptr++) * (*h_ptr++)</text>
</g>
<!-- node5&#45;&gt;node6 -->
<g id="edge6" class="edge">
<title>node5&#45;&gt;node6</title>
<path fill="none" stroke="black" d="M272,-1124.31C272,-1116.73 272,-1107.6 272,-1099.04"/>
<polygon fill="black" stroke="black" points="275.5,-1099.04 272,-1089.04 268.5,-1099.04 275.5,-1099.04"/>
</g>
<!-- node7 -->
<g id="node9" class="node">
<title>node7</title>
<polygon fill="none" stroke="black" points="389.88,-1014.5 154.12,-1014.5 154.12,-978.5 389.88,-978.5 389.88,-1014.5"/>
<text xml:space="preserve" text-anchor="middle" x="272" y="-991.08" font-family="Arial" font-size="14.00">xb = (long)(*tqmf_ptr++) * (*h_ptr++)</text>
</g>
<!-- node6&#45;&gt;node7 -->
<g id="edge7" class="edge">
<title>node6&#45;&gt;node7</title>
<path fill="none" stroke="black" d="M272,-1051.31C272,-1043.73 272,-1034.6 272,-1026.04"/>
<polygon fill="black" stroke="black" points="275.5,-1026.04 272,-1016.04 268.5,-1026.04 275.5,-1026.04"/>
</g>
<!-- node8 -->
<g id="node10" class="node">
<title>node8</title>
<polygon fill="none" stroke="black" points="299,-941.5 245,-941.5 245,-905.5 299,-905.5 299,-941.5"/>
<text xml:space="preserve" text-anchor="middle" x="272" y="-918.08" font-family="Arial" font-size="14.00">i = 0</text>
</g>
<!-- node7&#45;&gt;node8 -->
<g id="edge8" class="edge">
<title>node7&#45;&gt;node8</title>
<path fill="none" stroke="black" d="M272,-978.31C272,-970.73 272,-961.6 272,-953.04"/>
<polygon fill="black" stroke="black" points="275.5,-953.04 272,-943.04 268.5,-953.04 275.5,-953.04"/>
</g>
<!-- cond1 -->
<g id="node11" class="node">
<title>cond1</title>
<polygon fill="none" stroke="black" points="272,-868.5 225.19,-850.5 272,-832.5 318.81,-850.5 272,-868.5"/>
<text xml:space="preserve" text-anchor="middle" x="272" y="-845.08" font-family="Arial" font-size="14.00">i &lt; 10</text>
</g>
<!-- node8&#45;&gt;cond1 -->
<g id="edge9" class="edge">
<title>node8&#45;&gt;cond1</title>
<path fill="none" stroke="black" d="M272,-905.31C272,-897.84 272,-888.87 272,-880.42"/>
<polygon fill="black" stroke="black" points="275.5,-880.54 272,-870.54 268.5,-880.54 275.5,-880.54"/>
</g>
<!-- node9 -->
<g id="node12" class="node">
<title>node9</title>
<polygon fill="none" stroke="black" points="244,-780.75 0,-780.75 0,-744.75 244,-744.75 244,-780.75"/>
<text xml:space="preserve" text-anchor="middle" x="122" y="-757.33" font-family="Arial" font-size="14.00">xa += (long)(*tqmf_ptr++) * (*h_ptr++)</text>
</g>
<!-- cond1&#45;&gt;node9 -->
<g id="edge10" class="edge">
<title>cond1&#45;&gt;node9</title>
<path fill="none" stroke="black" d="M253.91,-839.16C231.29,-826.23 191.94,-803.73 162.09,-786.67"/>
<polygon fill="black" stroke="black" points="164.1,-783.78 153.68,-781.86 160.62,-789.86 164.1,-783.78"/>
<text xml:space="preserve" text-anchor="middle" x="224.31" y="-801.2" font-family="Arial" font-size="14.00">True</text>
</g>
<!-- node12 -->
<g id="node15" class="node">
<title>node12</title>
<polygon fill="none" stroke="black" points="544,-780.75 300,-780.75 300,-744.75 544,-744.75 544,-780.75"/>
<text xml:space="preserve" text-anchor="middle" x="422" y="-757.33" font-family="Arial" font-size="14.00">xa += (long)(*tqmf_ptr++) * (*h_ptr++)</text>
</g>
<!-- cond1&#45;&gt;node12 -->
<g id="edge14" class="edge">
<title>cond1&#45;&gt;node12</title>
<path fill="none" stroke="black" d="M290.09,-839.16C312.71,-826.23 352.06,-803.73 381.91,-786.67"/>
<polygon fill="black" stroke="black" points="383.38,-789.86 390.32,-781.86 379.9,-783.78 383.38,-789.86"/>
<text xml:space="preserve" text-anchor="middle" x="376.94" y="-801.2" font-family="Arial" font-size="14.00">False</text>
</g>
<!-- node10 -->
<g id="node13" class="node">
<title>node10</title>
<polygon fill="none" stroke="black" points="244,-707.75 0,-707.75 0,-671.75 244,-671.75 244,-707.75"/>
<text xml:space="preserve" text-anchor="middle" x="122" y="-684.33" font-family="Arial" font-size="14.00">xb += (long)(*tqmf_ptr++) * (*h_ptr++)</text>
</g>
<!-- node9&#45;&gt;node10 -->
<g id="edge11" class="edge">
<title>node9&#45;&gt;node10</title>
<path fill="none" stroke="black" d="M122,-744.56C122,-736.98 122,-727.85 122,-719.29"/>
<polygon fill="black" stroke="black" points="125.5,-719.29 122,-709.29 118.5,-719.29 125.5,-719.29"/>
</g>
<!-- node11 -->
<g id="node14" class="node">
<title>node11</title>
<polygon fill="none" stroke="black" points="255,-634.75 201,-634.75 201,-598.75 255,-598.75 255,-634.75"/>
<text xml:space="preserve" text-anchor="middle" x="228" y="-611.33" font-family="Arial" font-size="14.00">i++</text>
</g>
<!-- node10&#45;&gt;node11 -->
<g id="edge12" class="edge">
<title>node10&#45;&gt;node11</title>
<path fill="none" stroke="black" d="M147.93,-671.38C161.41,-662.36 178.07,-651.19 192.7,-641.39"/>
<polygon fill="black" stroke="black" points="194.35,-644.5 200.71,-636.03 190.46,-638.68 194.35,-644.5"/>
</g>
<!-- node11&#45;&gt;cond1 -->
<g id="edge13" class="edge">
<title>node11&#45;&gt;cond1</title>
<path fill="none" stroke="black" d="M237.85,-635.19C243.22,-645.51 249.47,-659.01 253,-671.75 267.15,-722.85 270.87,-784.92 271.79,-820.55"/>
<polygon fill="black" stroke="black" points="268.29,-820.55 271.98,-830.48 275.28,-820.41 268.29,-820.55"/>
</g>
<!-- node13 -->
<g id="node16" class="node">
<title>node13</title>
<polygon fill="none" stroke="black" points="535.75,-707.75 308.25,-707.75 308.25,-671.75 535.75,-671.75 535.75,-707.75"/>
<text xml:space="preserve" text-anchor="middle" x="422" y="-684.33" font-family="Arial" font-size="14.00">xb += (long)(*tqmf_ptr) * (*h_ptr++)</text>
</g>
<!-- node12&#45;&gt;node13 -->
<g id="edge15" class="edge">
<title>node12&#45;&gt;node13</title>
<path fill="none" stroke="black" d="M422,-744.56C422,-736.98 422,-727.85 422,-719.29"/>
<polygon fill="black" stroke="black" points="425.5,-719.29 422,-709.29 418.5,-719.29 425.5,-719.29"/>
</g>
<!-- node14 -->
<g id="node17" class="node">
<title>node14</title>
<polygon fill="none" stroke="black" points="501.62,-634.75 342.38,-634.75 342.38,-598.75 501.62,-598.75 501.62,-634.75"/>
<text xml:space="preserve" text-anchor="middle" x="422" y="-611.33" font-family="Arial" font-size="14.00">tqmf_ptr1 = tqmf_ptr &#45; 2</text>
</g>
<!-- node13&#45;&gt;node14 -->
<g id="edge16" class="edge">
<title>node13&#45;&gt;node14</title>
<path fill="none" stroke="black" d="M422,-671.56C422,-663.98 422,-654.85 422,-646.29"/>
<polygon fill="black" stroke="black" points="425.5,-646.29 422,-636.29 418.5,-646.29 425.5,-646.29"/>
</g>
<!-- node15 -->
<g id="node18" class="node">
<title>node15</title>
<polygon fill="none" stroke="black" points="449,-561.75 395,-561.75 395,-525.75 449,-525.75 449,-561.75"/>
<text xml:space="preserve" text-anchor="middle" x="422" y="-538.33" font-family="Arial" font-size="14.00">i = 0</text>
</g>
<!-- node14&#45;&gt;node15 -->
<g id="edge17" class="edge">
<title>node14&#45;&gt;node15</title>
<path fill="none" stroke="black" d="M422,-598.56C422,-590.98 422,-581.85 422,-573.29"/>
<polygon fill="black" stroke="black" points="425.5,-573.29 422,-563.29 418.5,-573.29 425.5,-573.29"/>
</g>
<!-- cond2 -->
<g id="node19" class="node">
<title>cond2</title>
<polygon fill="none" stroke="black" points="422,-488.75 375.19,-470.75 422,-452.75 468.81,-470.75 422,-488.75"/>
<text xml:space="preserve" text-anchor="middle" x="422" y="-465.32" font-family="Arial" font-size="14.00">i &lt; 22</text>
</g>
<!-- node15&#45;&gt;cond2 -->
<g id="edge18" class="edge">
<title>node15&#45;&gt;cond2</title>
<path fill="none" stroke="black" d="M422,-525.56C422,-518.09 422,-509.12 422,-500.67"/>
<polygon fill="black" stroke="black" points="425.5,-500.79 422,-490.79 418.5,-500.79 425.5,-500.79"/>
</g>
<!-- node16 -->
<g id="node20" class="node">
<title>node16</title>
<polygon fill="none" stroke="black" points="394.12,-401 225.88,-401 225.88,-365 394.12,-365 394.12,-401"/>
<text xml:space="preserve" text-anchor="middle" x="310" y="-377.57" font-family="Arial" font-size="14.00">*tqmf_ptr&#45;&#45; = *tqmf_ptr1&#45;&#45;</text>
</g>
<!-- cond2&#45;&gt;node16 -->
<g id="edge19" class="edge">
<title>cond2&#45;&gt;node16</title>
<path fill="none" stroke="black" d="M406.9,-458.19C390.25,-445.44 363.01,-424.59 341.64,-408.23"/>
<polygon fill="black" stroke="black" points="343.87,-405.52 333.8,-402.22 339.61,-411.08 343.87,-405.52"/>
<text xml:space="preserve" text-anchor="middle" x="389.91" y="-421.45" font-family="Arial" font-size="14.00">True</text>
</g>
<!-- node18 -->
<g id="node22" class="node">
<title>node18</title>
<polygon fill="none" stroke="black" points="571.5,-401 450.5,-401 450.5,-365 571.5,-365 571.5,-401"/>
<text xml:space="preserve" text-anchor="middle" x="511" y="-377.57" font-family="Arial" font-size="14.00">*tqmf_ptr&#45;&#45; = xin1</text>
</g>
<!-- cond2&#45;&gt;node18 -->
<g id="edge22" class="edge">
<title>cond2&#45;&gt;node18</title>
<path fill="none" stroke="black" d="M434.75,-457.46C447.77,-444.92 468.34,-425.1 484.84,-409.2"/>
<polygon fill="black" stroke="black" points="487.18,-411.82 491.95,-402.36 482.32,-406.77 487.18,-411.82"/>
<text xml:space="preserve" text-anchor="middle" x="490.97" y="-421.45" font-family="Arial" font-size="14.00">False</text>
</g>
<!-- node17 -->
<g id="node21" class="node">
<title>node17</title>
<polygon fill="none" stroke="black" points="409,-328 355,-328 355,-292 409,-292 409,-328"/>
<text xml:space="preserve" text-anchor="middle" x="382" y="-304.57" font-family="Arial" font-size="14.00">i++</text>
</g>
<!-- node16&#45;&gt;node17 -->
<g id="edge20" class="edge">
<title>node16&#45;&gt;node17</title>
<path fill="none" stroke="black" d="M327.43,-364.81C336.12,-356.24 346.8,-345.71 356.4,-336.24"/>
<polygon fill="black" stroke="black" points="358.74,-338.85 363.4,-329.34 353.83,-333.87 358.74,-338.85"/>
</g>
<!-- node17&#45;&gt;cond2 -->
<g id="edge21" class="edge">
<title>node17&#45;&gt;cond2</title>
<path fill="none" stroke="black" d="M389.67,-328.22C394.09,-338.69 399.45,-352.42 403,-365 410.25,-390.69 415.37,-420.74 418.45,-442.05"/>
<polygon fill="black" stroke="black" points="414.95,-442.27 419.79,-451.7 421.88,-441.31 414.95,-442.27"/>
</g>
<!-- node19 -->
<g id="node23" class="node">
<title>node19</title>
<polygon fill="none" stroke="black" points="567,-328 455,-328 455,-292 567,-292 567,-328"/>
<text xml:space="preserve" text-anchor="middle" x="511" y="-304.57" font-family="Arial" font-size="14.00">*tqmf_ptr = xin2</text>
</g>
<!-- node18&#45;&gt;node19 -->
<g id="edge23" class="edge">
<title>node18&#45;&gt;node19</title>
<path fill="none" stroke="black" d="M511,-364.81C511,-357.23 511,-348.1 511,-339.54"/>
<polygon fill="black" stroke="black" points="514.5,-339.54 511,-329.54 507.5,-339.54 514.5,-339.54"/>
</g>
<!-- node20 -->
<g id="node24" class="node">
<title>node20</title>
<polygon fill="none" stroke="black" points="577.88,-255 444.12,-255 444.12,-219 577.88,-219 577.88,-255"/>
<text xml:space="preserve" text-anchor="middle" x="511" y="-231.57" font-family="Arial" font-size="14.00">xl = (xa + xb) &gt;&gt; 15</text>
</g>
<!-- node19&#45;&gt;node20 -->
<g id="edge24" class="edge">
<title>node19&#45;&gt;node20</title>
<path fill="none" stroke="black" d="M511,-291.81C511,-284.23 511,-275.1 511,-266.54"/>
<polygon fill="black" stroke="black" points="514.5,-266.54 511,-256.54 507.5,-266.54 514.5,-266.54"/>
</g>
<!-- node21 -->
<g id="node25" class="node">
<title>node21</title>
<polygon fill="none" stroke="black" points="578.25,-182 443.75,-182 443.75,-146 578.25,-146 578.25,-182"/>
<text xml:space="preserve" text-anchor="middle" x="511" y="-158.57" font-family="Arial" font-size="14.00">xh = (xa &#45; xb) &gt;&gt; 15</text>
</g>
<!-- node20&#45;&gt;node21 -->
<g id="edge25" class="edge">
<title>node20&#45;&gt;node21</title>
<path fill="none" stroke="black" d="M511,-218.81C511,-211.23 511,-202.1 511,-193.54"/>
<polygon fill="black" stroke="black" points="514.5,-193.54 511,-183.54 507.5,-193.54 514.5,-193.54"/>
</g>
<!-- node22 -->
<g id="node26" class="node">
<title>node22</title>
<polygon fill="none" stroke="black" points="575.25,-109 446.75,-109 446.75,-73 575.25,-73 575.25,-109"/>
<text xml:space="preserve" text-anchor="middle" x="511" y="-85.58" font-family="Arial" font-size="14.00">return(il | (ih &lt;&lt; 6))</text>
</g>
<!-- node21&#45;&gt;node22 -->
<g id="edge26" class="edge">
<title>node21&#45;&gt;node22</title>
<path fill="none" stroke="black" d="M511,-145.81C511,-138.23 511,-129.1 511,-120.54"/>
<polygon fill="black" stroke="black" points="514.5,-120.54 511,-110.54 507.5,-120.54 514.5,-120.54"/>
</g>
<!-- node22&#45;&gt;end -->
<g id="edge27" class="edge">
<title>node22&#45;&gt;end</title>
<path fill="none" stroke="black" d="M511,-72.81C511,-65.23 511,-56.1 511,-47.54"/>
<polygon fill="black" stroke="black" points="514.5,-47.54 511,-37.54 507.5,-47.54 514.5,-47.54"/>
</g>
</g>
</svg>
