<?xml version="1.0" encoding="UTF-8" standalone="no"?>
<!DOCTYPE svg PUBLIC "-//W3C//DTD SVG 1.1//EN"
 "http://www.w3.org/Graphics/SVG/1.1/DTD/svg11.dtd">
<!-- Generated by graphviz version 13.1.2 (20250808.2320)
 -->
<!-- Title: flags Pages: 1 -->
<svg width="251pt" height="332pt"
 viewBox="0.00 0.00 251.00 332.00" xmlns="http://www.w3.org/2000/svg" xmlns:xlink="http://www.w3.org/1999/xlink">
<g id="graph0" class="graph" transform="scale(1 1) rotate(0) translate(4 328)">
<title>flags</title>
<polygon fill="white" stroke="none" points="-4,4 -4,-328 246.5,-328 246.5,4 -4,4"/>
<!-- start -->
<g id="node1" class="node">
<title>start</title>
<ellipse fill="none" stroke="black" cx="121.25" cy="-306" rx="35.6" ry="18"/>
<text xml:space="preserve" text-anchor="middle" x="121.25" y="-300.57" font-family="Arial" font-size="14.00">flags()</text>
</g>
<!-- node1 -->
<g id="node3" class="node">
<title>node1</title>
<polygon fill="none" stroke="black" points="164.12,-252 78.38,-252 78.38,-216 164.12,-216 164.12,-252"/>
<text xml:space="preserve" text-anchor="middle" x="121.25" y="-228.57" font-family="Arial" font-size="14.00">int flags(int)</text>
</g>
<!-- start&#45;&gt;node1 -->
<g id="edge1" class="edge">
<title>start&#45;&gt;node1</title>
<path fill="none" stroke="black" d="M121.25,-287.7C121.25,-280.41 121.25,-271.73 121.25,-263.54"/>
<polygon fill="black" stroke="black" points="124.75,-263.62 121.25,-253.62 117.75,-263.62 124.75,-263.62"/>
</g>
<!-- end -->
<g id="node2" class="node">
<title>end</title>
<ellipse fill="none" stroke="black" cx="121.25" cy="-18" rx="34.1" ry="18"/>
<text xml:space="preserve" text-anchor="middle" x="121.25" y="-12.57" font-family="Arial" font-size="14.00">return</text>
</g>
<!-- node2 -->
<g id="node4" class="node">
<title>node2</title>
<polygon fill="none" stroke="black" points="242.5,-180 0,-180 0,-144 242.5,-144 242.5,-180"/>
<text xml:space="preserve" text-anchor="middle" x="121.25" y="-156.57" font-family="Arial" font-size="14.00">// Funcao vazia &#45; sem implementacao</text>
</g>
<!-- node1&#45;&gt;node2 -->
<g id="edge2" class="edge">
<title>node1&#45;&gt;node2</title>
<path fill="none" stroke="black" d="M121.25,-215.7C121.25,-208.41 121.25,-199.73 121.25,-191.54"/>
<polygon fill="black" stroke="black" points="124.75,-191.62 121.25,-181.62 117.75,-191.62 124.75,-191.62"/>
</g>
<!-- node3 -->
<g id="node5" class="node">
<title>node3</title>
<polygon fill="none" stroke="red" points="154.38,-108 88.12,-108 88.12,-72 154.38,-72 154.38,-108"/>
<text xml:space="preserve" text-anchor="middle" x="121.25" y="-84.58" font-family="Arial" font-size="14.00" fill="red">return 0;</text>
</g>
<!-- node2&#45;&gt;node3 -->
<g id="edge3" class="edge">
<title>node2&#45;&gt;node3</title>
<path fill="none" stroke="red" d="M121.25,-143.7C121.25,-136.41 121.25,-127.73 121.25,-119.54"/>
<polygon fill="red" stroke="red" points="124.75,-119.62 121.25,-109.62 117.75,-119.62 124.75,-119.62"/>
</g>
<!-- node3&#45;&gt;end -->
<g id="edge4" class="edge">
<title>node3&#45;&gt;end</title>
<path fill="none" stroke="red" d="M121.25,-71.7C121.25,-64.41 121.25,-55.73 121.25,-47.54"/>
<polygon fill="red" stroke="red" points="124.75,-47.62 121.25,-37.62 117.75,-47.62 124.75,-47.62"/>
</g>
</g>
</svg>
