<?xml version="1.0" encoding="UTF-8" standalone="no"?>
<!DOCTYPE svg PUBLIC "-//W3C//DTD SVG 1.1//EN"
 "http://www.w3.org/Graphics/SVG/1.1/DTD/svg11.dtd">
<!-- Generated by graphviz version 13.1.2 (20250808.2320)
 -->
<!-- Title: iir_filter Pages: 1 -->
<svg width="125pt" height="278pt"
 viewBox="0.00 0.00 125.00 278.00" xmlns="http://www.w3.org/2000/svg" xmlns:xlink="http://www.w3.org/1999/xlink">
<g id="graph0" class="graph" transform="scale(1 1) rotate(0) translate(4 273.75)">
<title>iir_filter</title>
<polygon fill="white" stroke="none" points="-4,4 -4,-273.75 120.75,-273.75 120.75,4 -4,4"/>
<!-- start -->
<g id="node1" class="node">
<title>start</title>
<ellipse fill="none" stroke="black" cx="51.5" cy="-251.75" rx="29.61" ry="18"/>
<text xml:space="preserve" text-anchor="middle" x="51.5" y="-246.32" font-family="Arial" font-size="14.00">Start</text>
</g>
<!-- entry -->
<g id="node3" class="node">
<title>entry</title>
<polygon fill="none" stroke="black" points="103,-196.75 0,-196.75 0,-160.75 103,-160.75 103,-196.75"/>
<text xml:space="preserve" text-anchor="middle" x="51.5" y="-173.32" font-family="Arial" font-size="14.00">Function Entry</text>
</g>
<!-- start&#45;&gt;entry -->
<g id="edge1" class="edge">
<title>start&#45;&gt;entry</title>
<path fill="none" stroke="black" d="M51.5,-233.56C51.5,-225.98 51.5,-216.85 51.5,-208.29"/>
<polygon fill="black" stroke="black" points="55,-208.29 51.5,-198.29 48,-208.29 55,-208.29"/>
</g>
<!-- end -->
<g id="node2" class="node">
<title>end</title>
<ellipse fill="none" stroke="black" cx="51.5" cy="-18" rx="27" ry="18"/>
<text xml:space="preserve" text-anchor="middle" x="51.5" y="-12.57" font-family="Arial" font-size="14.00">End</text>
</g>
<!-- return -->
<g id="node4" class="node">
<title>return</title>
<polygon fill="none" stroke="black" points="95.5,-109 7.5,-109 7.5,-73 95.5,-73 95.5,-109"/>
<text xml:space="preserve" text-anchor="middle" x="51.5" y="-85.58" font-family="Arial" font-size="14.00">return input;</text>
</g>
<!-- entry&#45;&gt;return -->
<g id="edge2" class="edge">
<title>entry&#45;&gt;return</title>
<path fill="none" stroke="black" d="M51.5,-160.4C51.5,-149.01 51.5,-133.84 51.5,-120.68"/>
<polygon fill="black" stroke="black" points="55,-120.84 51.5,-110.84 48,-120.84 55,-120.84"/>
<text xml:space="preserve" text-anchor="middle" x="84.12" y="-129.45" font-family="Arial" font-size="14.00">Direct path</text>
</g>
<!-- return&#45;&gt;end -->
<g id="edge3" class="edge">
<title>return&#45;&gt;end</title>
<path fill="none" stroke="black" d="M51.5,-72.81C51.5,-65.23 51.5,-56.1 51.5,-47.54"/>
<polygon fill="black" stroke="black" points="55,-47.54 51.5,-37.54 48,-47.54 55,-47.54"/>
</g>
</g>
</svg>
