<?xml version="1.0" encoding="UTF-8" standalone="no"?>
<!DOCTYPE svg PUBLIC "-//W3C//DTD SVG 1.1//EN"
 "http://www.w3.org/Graphics/SVG/1.1/DTD/svg11.dtd">
<!-- Generated by graphviz version 13.1.2 (20250808.2320)
 -->
<!-- Title: logscl Pages: 1 -->
<svg width="249pt" height="585pt"
 viewBox="0.00 0.00 249.00 585.00" xmlns="http://www.w3.org/2000/svg" xmlns:xlink="http://www.w3.org/1999/xlink">
<g id="graph0" class="graph" transform="scale(1 1) rotate(0) translate(4 580.5)">
<title>logscl</title>
<polygon fill="white" stroke="none" points="-4,4 -4,-580.5 245.25,-580.5 245.25,4 -4,4"/>
<!-- start -->
<g id="node1" class="node">
<title>start</title>
<ellipse fill="none" stroke="black" cx="118.62" cy="-558.5" rx="84.5" ry="18"/>
<text xml:space="preserve" text-anchor="middle" x="118.62" y="-553.08" font-family="Arial" font-size="14.00">logscl(int il, int nbl)</text>
</g>
<!-- compute_wd -->
<g id="node3" class="node">
<title>compute_wd</title>
<polygon fill="none" stroke="black" points="214.75,-503.5 22.5,-503.5 22.5,-467.5 214.75,-467.5 214.75,-503.5"/>
<text xml:space="preserve" text-anchor="middle" x="118.62" y="-480.07" font-family="Arial" font-size="14.00">wd = ((long)nbl * 127L) &gt;&gt; 7L</text>
</g>
<!-- start&#45;&gt;compute_wd -->
<g id="edge1" class="edge">
<title>start&#45;&gt;compute_wd</title>
<path fill="none" stroke="black" d="M118.62,-540.31C118.62,-532.73 118.62,-523.6 118.62,-515.04"/>
<polygon fill="black" stroke="black" points="122.13,-515.04 118.63,-505.04 115.13,-515.04 122.13,-515.04"/>
</g>
<!-- end -->
<g id="node2" class="node">
<title>end</title>
<ellipse fill="none" stroke="black" cx="114.62" cy="-18" rx="48.57" ry="18"/>
<text xml:space="preserve" text-anchor="middle" x="114.62" y="-12.57" font-family="Arial" font-size="14.00">return nbl</text>
</g>
<!-- update_nbl -->
<g id="node4" class="node">
<title>update_nbl</title>
<polygon fill="none" stroke="black" points="237.25,-430.5 0,-430.5 0,-394.5 237.25,-394.5 237.25,-430.5"/>
<text xml:space="preserve" text-anchor="middle" x="118.62" y="-407.07" font-family="Arial" font-size="14.00">nbl = (int)wd + wl_code_table[il &gt;&gt; 2]</text>
</g>
<!-- compute_wd&#45;&gt;update_nbl -->
<g id="edge2" class="edge">
<title>compute_wd&#45;&gt;update_nbl</title>
<path fill="none" stroke="black" d="M118.62,-467.31C118.62,-459.73 118.62,-450.6 118.62,-442.04"/>
<polygon fill="black" stroke="black" points="122.13,-442.04 118.63,-432.04 115.13,-442.04 122.13,-442.04"/>
</g>
<!-- cond1 -->
<g id="node5" class="node">
<title>cond1</title>
<polygon fill="none" stroke="black" points="118.62,-357.5 46.41,-339.5 118.62,-321.5 190.84,-339.5 118.62,-357.5"/>
<text xml:space="preserve" text-anchor="middle" x="118.62" y="-334.07" font-family="Arial" font-size="14.00">if (nbl &lt; 0)</text>
</g>
<!-- update_nbl&#45;&gt;cond1 -->
<g id="edge3" class="edge">
<title>update_nbl&#45;&gt;cond1</title>
<path fill="none" stroke="black" d="M118.62,-394.31C118.62,-386.73 118.62,-377.6 118.62,-369.04"/>
<polygon fill="black" stroke="black" points="122.13,-369.04 118.63,-359.04 115.13,-369.04 122.13,-369.04"/>
</g>
<!-- set_zero -->
<g id="node6" class="node">
<title>set_zero</title>
<polygon fill="none" stroke="black" points="115.25,-269.75 58,-269.75 58,-233.75 115.25,-233.75 115.25,-269.75"/>
<text xml:space="preserve" text-anchor="middle" x="86.62" y="-246.32" font-family="Arial" font-size="14.00">nbl = 0</text>
</g>
<!-- cond1&#45;&gt;set_zero -->
<g id="edge4" class="edge">
<title>cond1&#45;&gt;set_zero</title>
<path fill="none" stroke="black" d="M112.76,-322.77C108.37,-311.02 102.26,-294.65 97.05,-280.69"/>
<polygon fill="black" stroke="black" points="100.42,-279.71 93.65,-271.57 93.86,-282.16 100.42,-279.71"/>
<text xml:space="preserve" text-anchor="middle" x="119.37" y="-290.2" font-family="Arial" font-size="14.00">True</text>
</g>
<!-- cond2 -->
<g id="node7" class="node">
<title>cond2</title>
<polygon fill="none" stroke="black" points="118.62,-196.75 18.18,-178.75 118.62,-160.75 219.07,-178.75 118.62,-196.75"/>
<text xml:space="preserve" text-anchor="middle" x="118.62" y="-173.32" font-family="Arial" font-size="14.00">if (nbl &gt; 18432)</text>
</g>
<!-- cond1&#45;&gt;cond2 -->
<g id="edge5" class="edge">
<title>cond1&#45;&gt;cond2</title>
<path fill="none" stroke="black" d="M128.69,-323.85C132.25,-317.82 135.82,-310.6 137.62,-303.5 145.98,-270.61 137.08,-231.82 128.86,-206.56"/>
<polygon fill="black" stroke="black" points="132.27,-205.7 125.7,-197.4 125.66,-207.99 132.27,-205.7"/>
<text xml:space="preserve" text-anchor="middle" x="157.34" y="-246.32" font-family="Arial" font-size="14.00">False</text>
</g>
<!-- set_zero&#45;&gt;cond2 -->
<g id="edge6" class="edge">
<title>set_zero&#45;&gt;cond2</title>
<path fill="none" stroke="black" d="M94.37,-233.56C98.09,-225.3 102.64,-215.22 106.78,-206.03"/>
<polygon fill="black" stroke="black" points="109.85,-207.74 110.77,-197.19 103.47,-204.86 109.85,-207.74"/>
</g>
<!-- cond2&#45;&gt;end -->
<g id="edge8" class="edge">
<title>cond2&#45;&gt;end</title>
<path fill="none" stroke="black" d="M116.42,-160.83C114.72,-146.94 112.53,-126.73 111.62,-109 110.81,-93.02 111.18,-88.99 111.62,-73 111.86,-64.68 112.29,-55.64 112.75,-47.38"/>
<polygon fill="black" stroke="black" points="116.24,-47.72 113.35,-37.53 109.25,-47.3 116.24,-47.72"/>
<text xml:space="preserve" text-anchor="middle" x="128.12" y="-85.58" font-family="Arial" font-size="14.00">False</text>
</g>
<!-- set_max -->
<g id="node8" class="node">
<title>set_max</title>
<polygon fill="none" stroke="black" points="241.25,-109 154,-109 154,-73 241.25,-73 241.25,-109"/>
<text xml:space="preserve" text-anchor="middle" x="197.62" y="-85.58" font-family="Arial" font-size="14.00">nbl = 18432</text>
</g>
<!-- cond2&#45;&gt;set_max -->
<g id="edge7" class="edge">
<title>cond2&#45;&gt;set_max</title>
<path fill="none" stroke="black" d="M132.39,-162.81C143.84,-150.38 160.41,-132.39 173.99,-117.66"/>
<polygon fill="black" stroke="black" points="176.35,-120.26 180.55,-110.54 171.2,-115.52 176.35,-120.26"/>
<text xml:space="preserve" text-anchor="middle" x="179.08" y="-129.45" font-family="Arial" font-size="14.00">True</text>
</g>
<!-- set_max&#45;&gt;end -->
<g id="edge9" class="edge">
<title>set_max&#45;&gt;end</title>
<path fill="none" stroke="black" d="M177.53,-72.81C166.83,-63.66 153.51,-52.26 141.88,-42.32"/>
<polygon fill="black" stroke="black" points="144.42,-39.88 134.54,-36.04 139.87,-45.2 144.42,-39.88"/>
</g>
</g>
</svg>
