<?xml version="1.0" encoding="UTF-8" standalone="no"?>
<!DOCTYPE svg PUBLIC "-//W3C//DTD SVG 1.1//EN"
 "http://www.w3.org/Graphics/SVG/1.1/DTD/svg11.dtd">
<!-- Generated by graphviz version 13.1.2 (20250808.2320)
 -->
<!-- Title: my_cos Pages: 1 -->
<svg width="334pt" height="764pt"
 viewBox="0.00 0.00 334.00 764.00" xmlns="http://www.w3.org/2000/svg" xmlns:xlink="http://www.w3.org/1999/xlink">
<g id="graph0" class="graph" transform="scale(1 1) rotate(0) translate(4 759.5)">
<title>my_cos</title>
<polygon fill="white" stroke="none" points="-4,4 -4,-759.5 330.32,-759.5 330.32,4 -4,4"/>
<!-- start -->
<g id="node1" class="node">
<title>start</title>
<ellipse fill="none" stroke="black" cx="163.19" cy="-737.5" rx="29.61" ry="18"/>
<text xml:space="preserve" text-anchor="middle" x="163.19" y="-732.08" font-family="Arial" font-size="14.00">Start</text>
</g>
<!-- cond1 -->
<g id="node3" class="node">
<title>cond1</title>
<polygon fill="none" stroke="black" points="163.19,-682.5 50.05,-664.5 163.19,-646.5 276.34,-664.5 163.19,-682.5"/>
<text xml:space="preserve" text-anchor="middle" x="163.19" y="-659.08" font-family="Arial" font-size="14.00">while (rad &gt; 2*PI)</text>
</g>
<!-- start&#45;&gt;cond1 -->
<g id="edge1" class="edge">
<title>start&#45;&gt;cond1</title>
<path fill="none" stroke="black" d="M163.19,-719.31C163.19,-711.73 163.19,-702.6 163.19,-694.04"/>
<polygon fill="black" stroke="black" points="166.69,-694.04 163.19,-684.04 159.69,-694.04 166.69,-694.04"/>
</g>
<!-- end -->
<g id="node2" class="node">
<title>end</title>
<ellipse fill="none" stroke="black" cx="156.19" cy="-18" rx="27" ry="18"/>
<text xml:space="preserve" text-anchor="middle" x="156.19" y="-12.57" font-family="Arial" font-size="14.00">End</text>
</g>
<!-- cond1&#45;&gt;cond1 -->
<g id="edge2" class="edge">
<title>cond1&#45;&gt;cond1</title>
<path fill="none" stroke="black" d="M236.68,-671.27C267.81,-671.78 294.34,-669.53 294.34,-664.5 294.34,-660.1 274.03,-657.82 248.1,-657.67"/>
<polygon fill="black" stroke="black" points="248.18,-654.16 238.19,-657.72 248.21,-661.16 248.18,-654.16"/>
<text xml:space="preserve" text-anchor="middle" x="308.21" y="-659.08" font-family="Arial" font-size="14.00">True</text>
</g>
<!-- cond2 -->
<g id="node4" class="node">
<title>cond2</title>
<polygon fill="none" stroke="black" points="163.19,-594.75 45.81,-576.75 163.19,-558.75 280.57,-576.75 163.19,-594.75"/>
<text xml:space="preserve" text-anchor="middle" x="163.19" y="-571.33" font-family="Arial" font-size="14.00">while (rad &lt; &#45;2*PI)</text>
</g>
<!-- cond1&#45;&gt;cond2 -->
<g id="edge3" class="edge">
<title>cond1&#45;&gt;cond2</title>
<path fill="none" stroke="black" d="M163.19,-646.15C163.19,-634.76 163.19,-619.59 163.19,-606.43"/>
<polygon fill="black" stroke="black" points="166.69,-606.59 163.19,-596.59 159.69,-606.59 166.69,-606.59"/>
<text xml:space="preserve" text-anchor="middle" x="179.69" y="-615.2" font-family="Arial" font-size="14.00">False</text>
</g>
<!-- cond2&#45;&gt;cond2 -->
<g id="edge4" class="edge">
<title>cond2&#45;&gt;cond2</title>
<path fill="none" stroke="black" d="M231.8,-584.7C266.96,-585.89 298.57,-583.24 298.57,-576.75 298.57,-570.97 273.5,-568.23 243.18,-568.55"/>
<polygon fill="black" stroke="black" points="243.24,-565.05 233.32,-568.77 243.39,-572.04 243.24,-565.05"/>
<text xml:space="preserve" text-anchor="middle" x="312.45" y="-571.33" font-family="Arial" font-size="14.00">True</text>
</g>
<!-- assign1 -->
<g id="node5" class="node">
<title>assign1</title>
<polygon fill="none" stroke="black" points="199.32,-507 127.07,-507 127.07,-467.5 199.32,-467.5 199.32,-507"/>
<text xml:space="preserve" text-anchor="middle" x="163.19" y="-489.7" font-family="Arial" font-size="14.00">diff = rad</text>
<text xml:space="preserve" text-anchor="middle" x="163.19" y="-473.95" font-family="Arial" font-size="14.00">app = diff</text>
</g>
<!-- cond2&#45;&gt;assign1 -->
<g id="edge5" class="edge">
<title>cond2&#45;&gt;assign1</title>
<path fill="none" stroke="black" d="M163.19,-558.46C163.19,-547.06 163.19,-531.82 163.19,-518.45"/>
<polygon fill="black" stroke="black" points="166.69,-518.84 163.19,-508.84 159.69,-518.84 166.69,-518.84"/>
<text xml:space="preserve" text-anchor="middle" x="179.69" y="-527.45" font-family="Arial" font-size="14.00">False</text>
</g>
<!-- calc1 -->
<g id="node6" class="node">
<title>calc1</title>
<polygon fill="none" stroke="black" points="315.94,-430.5 10.44,-430.5 10.44,-394.5 315.94,-394.5 315.94,-430.5"/>
<text xml:space="preserve" text-anchor="middle" x="163.19" y="-407.07" font-family="Arial" font-size="14.00">diff = (diff * (&#45;(rad*rad))) / ((2 * inc) * (2 * inc + 1))</text>
</g>
<!-- assign1&#45;&gt;calc1 -->
<g id="edge6" class="edge">
<title>assign1&#45;&gt;calc1</title>
<path fill="none" stroke="black" d="M163.19,-467.14C163.19,-459.47 163.19,-450.47 163.19,-442.05"/>
<polygon fill="black" stroke="black" points="166.69,-442.26 163.19,-432.26 159.69,-442.26 166.69,-442.26"/>
</g>
<!-- calc2 -->
<g id="node7" class="node">
<title>calc2</title>
<polygon fill="none" stroke="black" points="156.44,-357.5 45.94,-357.5 45.94,-321.5 156.44,-321.5 156.44,-357.5"/>
<text xml:space="preserve" text-anchor="middle" x="101.19" y="-334.07" font-family="Arial" font-size="14.00">app = app + diff</text>
</g>
<!-- calc1&#45;&gt;calc2 -->
<g id="edge7" class="edge">
<title>calc1&#45;&gt;calc2</title>
<path fill="none" stroke="black" d="M148.18,-394.31C140.8,-385.85 131.74,-375.48 123.56,-366.11"/>
<polygon fill="black" stroke="black" points="126.27,-363.9 117.06,-358.67 121,-368.5 126.27,-363.9"/>
</g>
<!-- inc1 -->
<g id="node8" class="node">
<title>inc1</title>
<polygon fill="none" stroke="black" points="149.19,-269.75 95.19,-269.75 95.19,-233.75 149.19,-233.75 149.19,-269.75"/>
<text xml:space="preserve" text-anchor="middle" x="122.19" y="-246.32" font-family="Arial" font-size="14.00">inc++</text>
</g>
<!-- calc2&#45;&gt;inc1 -->
<g id="edge8" class="edge">
<title>calc2&#45;&gt;inc1</title>
<path fill="none" stroke="black" d="M105.44,-321.15C108.26,-309.64 112.02,-294.28 115.27,-281.03"/>
<polygon fill="black" stroke="black" points="118.61,-282.09 117.59,-271.55 111.81,-280.43 118.61,-282.09"/>
</g>
<!-- cond3 -->
<g id="node9" class="node">
<title>cond3</title>
<polygon fill="none" stroke="black" points="156.19,-196.75 0,-178.75 156.19,-160.75 312.38,-178.75 156.19,-196.75"/>
<text xml:space="preserve" text-anchor="middle" x="156.19" y="-173.32" font-family="Arial" font-size="14.00">while(my_fabs(diff) &gt;= 1)</text>
</g>
<!-- inc1&#45;&gt;cond3 -->
<g id="edge9" class="edge">
<title>inc1&#45;&gt;cond3</title>
<path fill="none" stroke="black" d="M130.42,-233.56C134.32,-225.42 139.07,-215.51 143.42,-206.42"/>
<polygon fill="black" stroke="black" points="146.46,-208.19 147.62,-197.66 140.14,-205.16 146.46,-208.19"/>
</g>
<!-- cond3&#45;&gt;calc1 -->
<g id="edge10" class="edge">
<title>cond3&#45;&gt;calc1</title>
<path fill="none" stroke="black" d="M157.62,-196.75C159.78,-223.34 163.76,-276.4 165.19,-321.5 165.7,-337.49 165.49,-341.5 165.19,-357.5 165.04,-365.82 164.75,-374.85 164.44,-383.11"/>
<polygon fill="black" stroke="black" points="160.95,-382.84 164.04,-392.97 167.94,-383.12 160.95,-382.84"/>
<text xml:space="preserve" text-anchor="middle" x="178.33" y="-290.2" font-family="Arial" font-size="14.00">True</text>
</g>
<!-- return1 -->
<g id="node10" class="node">
<title>return1</title>
<polygon fill="none" stroke="black" points="194.94,-109 117.44,-109 117.44,-73 194.94,-73 194.94,-109"/>
<text xml:space="preserve" text-anchor="middle" x="156.19" y="-85.58" font-family="Arial" font-size="14.00">return app</text>
</g>
<!-- cond3&#45;&gt;return1 -->
<g id="edge11" class="edge">
<title>cond3&#45;&gt;return1</title>
<path fill="none" stroke="black" d="M156.19,-160.4C156.19,-149.01 156.19,-133.84 156.19,-120.68"/>
<polygon fill="black" stroke="black" points="159.69,-120.84 156.19,-110.84 152.69,-120.84 159.69,-120.84"/>
<text xml:space="preserve" text-anchor="middle" x="172.69" y="-129.45" font-family="Arial" font-size="14.00">False</text>
</g>
<!-- return1&#45;&gt;end -->
<g id="edge12" class="edge">
<title>return1&#45;&gt;end</title>
<path fill="none" stroke="black" d="M156.19,-72.81C156.19,-65.23 156.19,-56.1 156.19,-47.54"/>
<polygon fill="black" stroke="black" points="159.69,-47.54 156.19,-37.54 152.69,-47.54 159.69,-47.54"/>
</g>
</g>
</svg>
