<?xml version="1.0" encoding="UTF-8" standalone="no"?>
<!DOCTYPE svg PUBLIC "-//W3C//DTD SVG 1.1//EN"
 "http://www.w3.org/Graphics/SVG/1.1/DTD/svg11.dtd">
<!-- Generated by graphviz version 13.1.2 (20250808.2320)
 -->
<!-- Title: quantl Pages: 1 -->
<svg width="386pt" height="760pt"
 viewBox="0.00 0.00 386.00 760.00" xmlns="http://www.w3.org/2000/svg" xmlns:xlink="http://www.w3.org/1999/xlink">
<g id="graph0" class="graph" transform="scale(1 1) rotate(0) translate(4 756)">
<title>quantl</title>
<polygon fill="white" stroke="none" points="-4,4 -4,-756 382.22,-756 382.22,4 -4,4"/>
<!-- start -->
<g id="node1" class="node">
<title>start</title>
<ellipse fill="none" stroke="black" cx="153.35" cy="-734" rx="29.61" ry="18"/>
<text xml:space="preserve" text-anchor="middle" x="153.35" y="-728.58" font-family="Arial" font-size="14.00">Start</text>
</g>
<!-- node1 -->
<g id="node3" class="node">
<title>node1</title>
<polygon fill="none" stroke="black" points="211.6,-679 95.1,-679 95.1,-643 211.6,-643 211.6,-679"/>
<text xml:space="preserve" text-anchor="middle" x="153.35" y="-655.58" font-family="Arial" font-size="14.00">wd = my_abs(el)</text>
</g>
<!-- start&#45;&gt;node1 -->
<g id="edge1" class="edge">
<title>start&#45;&gt;node1</title>
<path fill="none" stroke="black" d="M153.35,-715.81C153.35,-708.23 153.35,-699.1 153.35,-690.54"/>
<polygon fill="black" stroke="black" points="156.85,-690.54 153.35,-680.54 149.85,-690.54 156.85,-690.54"/>
</g>
<!-- end -->
<g id="node2" class="node">
<title>end</title>
<ellipse fill="none" stroke="black" cx="211.35" cy="-18" rx="27" ry="18"/>
<text xml:space="preserve" text-anchor="middle" x="211.35" y="-12.57" font-family="Arial" font-size="14.00">End</text>
</g>
<!-- node2 -->
<g id="node4" class="node">
<title>node2</title>
<polygon fill="none" stroke="black" points="181.97,-606 124.72,-606 124.72,-570 181.97,-570 181.97,-606"/>
<text xml:space="preserve" text-anchor="middle" x="153.35" y="-582.58" font-family="Arial" font-size="14.00">mil = 0</text>
</g>
<!-- node1&#45;&gt;node2 -->
<g id="edge2" class="edge">
<title>node1&#45;&gt;node2</title>
<path fill="none" stroke="black" d="M153.35,-642.81C153.35,-635.23 153.35,-626.1 153.35,-617.54"/>
<polygon fill="black" stroke="black" points="156.85,-617.54 153.35,-607.54 149.85,-617.54 156.85,-617.54"/>
</g>
<!-- node3 -->
<g id="node5" class="node">
<title>node3</title>
<polygon fill="none" stroke="black" points="153.35,-533 92.42,-515 153.35,-497 214.27,-515 153.35,-533"/>
<text xml:space="preserve" text-anchor="middle" x="153.35" y="-509.57" font-family="Arial" font-size="14.00">mil &lt; 30</text>
</g>
<!-- node2&#45;&gt;node3 -->
<g id="edge3" class="edge">
<title>node2&#45;&gt;node3</title>
<path fill="none" stroke="black" d="M153.35,-569.81C153.35,-562.23 153.35,-553.1 153.35,-544.54"/>
<polygon fill="black" stroke="black" points="156.85,-544.54 153.35,-534.54 149.85,-544.54 156.85,-544.54"/>
</g>
<!-- node4 -->
<g id="node6" class="node">
<title>node4</title>
<polygon fill="none" stroke="black" points="285.85,-445.25 20.85,-445.25 20.85,-409.25 285.85,-409.25 285.85,-445.25"/>
<text xml:space="preserve" text-anchor="middle" x="153.35" y="-421.82" font-family="Arial" font-size="14.00">decis = (decis_levl[mil]*(long)detl) &gt;&gt; 15L</text>
</g>
<!-- node3&#45;&gt;node4 -->
<g id="edge4" class="edge">
<title>node3&#45;&gt;node4</title>
<path fill="none" stroke="black" d="M153.35,-496.65C153.35,-485.26 153.35,-470.09 153.35,-456.93"/>
<polygon fill="black" stroke="black" points="156.85,-457.09 153.35,-447.09 149.85,-457.09 156.85,-457.09"/>
<text xml:space="preserve" text-anchor="middle" x="167.22" y="-465.7" font-family="Arial" font-size="14.00">True</text>
</g>
<!-- node7 -->
<g id="node9" class="node">
<title>node7</title>
<polygon fill="none" stroke="black" points="227.35,-269.75 172.77,-251.75 227.35,-233.75 281.92,-251.75 227.35,-269.75"/>
<text xml:space="preserve" text-anchor="middle" x="227.35" y="-246.32" font-family="Arial" font-size="14.00">el &gt;= 0</text>
</g>
<!-- node3&#45;&gt;node7 -->
<g id="edge5" class="edge">
<title>node3&#45;&gt;node7</title>
<path fill="none" stroke="black" d="M190.38,-507.45C224.27,-499.29 272.51,-481.69 295.35,-445.25 330.75,-388.77 277.44,-311.39 246.65,-274.29"/>
<polygon fill="black" stroke="black" points="249.51,-272.25 240.36,-266.92 244.19,-276.8 249.51,-272.25"/>
<text xml:space="preserve" text-anchor="middle" x="322.67" y="-377.95" font-family="Arial" font-size="14.00">False</text>
</g>
<!-- node5 -->
<g id="node7" class="node">
<title>node5</title>
<polygon fill="none" stroke="black" points="153.35,-357.5 69.84,-339.5 153.35,-321.5 236.85,-339.5 153.35,-357.5"/>
<text xml:space="preserve" text-anchor="middle" x="153.35" y="-334.07" font-family="Arial" font-size="14.00">wd &lt;= decis</text>
</g>
<!-- node4&#45;&gt;node5 -->
<g id="edge6" class="edge">
<title>node4&#45;&gt;node5</title>
<path fill="none" stroke="black" d="M153.35,-408.9C153.35,-397.51 153.35,-382.34 153.35,-369.18"/>
<polygon fill="black" stroke="black" points="156.85,-369.34 153.35,-359.34 149.85,-369.34 156.85,-369.34"/>
</g>
<!-- node6 -->
<g id="node8" class="node">
<title>node6</title>
<polygon fill="none" stroke="black" points="124.35,-269.75 70.35,-269.75 70.35,-233.75 124.35,-233.75 124.35,-269.75"/>
<text xml:space="preserve" text-anchor="middle" x="97.35" y="-246.32" font-family="Arial" font-size="14.00">mil++</text>
</g>
<!-- node5&#45;&gt;node6 -->
<g id="edge7" class="edge">
<title>node5&#45;&gt;node6</title>
<path fill="none" stroke="black" d="M143.34,-323.17C135.41,-311.04 124.15,-293.8 114.76,-279.41"/>
<polygon fill="black" stroke="black" points="117.85,-277.74 109.45,-271.28 111.98,-281.56 117.85,-277.74"/>
<text xml:space="preserve" text-anchor="middle" x="146.86" y="-290.2" font-family="Arial" font-size="14.00">False</text>
</g>
<!-- node5&#45;&gt;node7 -->
<g id="edge8" class="edge">
<title>node5&#45;&gt;node7</title>
<path fill="none" stroke="black" d="M165.9,-323.95C177.55,-310.45 195.06,-290.17 208.41,-274.7"/>
<polygon fill="black" stroke="black" points="210.84,-277.24 214.72,-267.38 205.54,-272.67 210.84,-277.24"/>
<text xml:space="preserve" text-anchor="middle" x="210.85" y="-290.2" font-family="Arial" font-size="14.00">True</text>
</g>
<!-- node6&#45;&gt;node3 -->
<g id="edge9" class="edge">
<title>node6&#45;&gt;node3</title>
<path fill="none" stroke="black" d="M78.57,-270.03C43.18,-304.74 -26.56,-384.77 11.35,-445.25 31.87,-477.98 72.89,-495.52 105.58,-504.66"/>
<polygon fill="black" stroke="black" points="104.29,-507.94 114.85,-507.07 106.05,-501.17 104.29,-507.94"/>
</g>
<!-- node8 -->
<g id="node10" class="node">
<title>node8</title>
<polygon fill="none" stroke="black" points="202.85,-182 45.85,-182 45.85,-146 202.85,-146 202.85,-182"/>
<text xml:space="preserve" text-anchor="middle" x="124.35" y="-158.57" font-family="Arial" font-size="14.00">ril = quant26bt_pos[mil]</text>
</g>
<!-- node7&#45;&gt;node8 -->
<g id="edge10" class="edge">
<title>node7&#45;&gt;node8</title>
<path fill="none" stroke="black" d="M212.59,-238.46C197.32,-225.75 173.06,-205.55 153.83,-189.55"/>
<polygon fill="black" stroke="black" points="156.22,-186.98 146.3,-183.27 151.74,-192.36 156.22,-186.98"/>
<text xml:space="preserve" text-anchor="middle" x="198.95" y="-202.45" font-family="Arial" font-size="14.00">True</text>
</g>
<!-- node9 -->
<g id="node11" class="node">
<title>node9</title>
<polygon fill="none" stroke="black" points="378.22,-182 220.47,-182 220.47,-146 378.22,-146 378.22,-182"/>
<text xml:space="preserve" text-anchor="middle" x="299.35" y="-158.57" font-family="Arial" font-size="14.00">ril = quant26bt_neg[mil]</text>
</g>
<!-- node7&#45;&gt;node9 -->
<g id="edge11" class="edge">
<title>node7&#45;&gt;node9</title>
<path fill="none" stroke="black" d="M238.6,-237.35C248.98,-224.99 264.68,-206.28 277.52,-190.99"/>
<polygon fill="black" stroke="black" points="279.97,-193.52 283.72,-183.62 274.61,-189.02 279.97,-193.52"/>
<text xml:space="preserve" text-anchor="middle" x="286.3" y="-202.45" font-family="Arial" font-size="14.00">False</text>
</g>
<!-- node10 -->
<g id="node12" class="node">
<title>node10</title>
<polygon fill="none" stroke="black" points="244.1,-109 178.6,-109 178.6,-73 244.1,-73 244.1,-109"/>
<text xml:space="preserve" text-anchor="middle" x="211.35" y="-85.58" font-family="Arial" font-size="14.00">return ril</text>
</g>
<!-- node8&#45;&gt;node10 -->
<g id="edge12" class="edge">
<title>node8&#45;&gt;node10</title>
<path fill="none" stroke="black" d="M145.41,-145.81C156.23,-136.98 169.6,-126.07 181.47,-116.39"/>
<polygon fill="black" stroke="black" points="183.47,-119.27 189.01,-110.23 179.05,-113.84 183.47,-119.27"/>
</g>
<!-- node9&#45;&gt;node10 -->
<g id="edge13" class="edge">
<title>node9&#45;&gt;node10</title>
<path fill="none" stroke="black" d="M278.05,-145.81C267.1,-136.98 253.58,-126.07 241.57,-116.39"/>
<polygon fill="black" stroke="black" points="243.92,-113.78 233.94,-110.23 239.52,-119.23 243.92,-113.78"/>
</g>
<!-- node10&#45;&gt;end -->
<g id="edge14" class="edge">
<title>node10&#45;&gt;end</title>
<path fill="none" stroke="black" d="M211.35,-72.81C211.35,-65.23 211.35,-56.1 211.35,-47.54"/>
<polygon fill="black" stroke="black" points="214.85,-47.54 211.35,-37.54 207.85,-47.54 214.85,-47.54"/>
</g>
</g>
</svg>
