<?xml version="1.0" encoding="UTF-8" standalone="no"?>
<!DOCTYPE svg PUBLIC "-//W3C//DTD SVG 1.1//EN"
 "http://www.w3.org/Graphics/SVG/1.1/DTD/svg11.dtd">
<!-- Generated by graphviz version 13.1.2 (20250808.2320)
 -->
<!-- Title: reset Pages: 1 -->
<svg width="522pt" height="1345pt"
 viewBox="0.00 0.00 522.00 1345.00" xmlns="http://www.w3.org/2000/svg" xmlns:xlink="http://www.w3.org/1999/xlink">
<g id="graph0" class="graph" transform="scale(1 1) rotate(0) translate(4 1340.5)">
<title>reset</title>
<polygon fill="white" stroke="none" points="-4,4 -4,-1340.5 518,-1340.5 518,4 -4,4"/>
<!-- start -->
<g id="node1" class="node">
<title>start</title>
<ellipse fill="none" stroke="black" cx="245" cy="-1318.5" rx="36.59" ry="18"/>
<text xml:space="preserve" text-anchor="middle" x="245" y="-1313.08" font-family="Arial" font-size="14.00">reset()</text>
</g>
<!-- init_detl -->
<g id="node3" class="node">
<title>init_detl</title>
<polygon fill="none" stroke="black" points="312.62,-1263.5 177.38,-1263.5 177.38,-1227.5 312.62,-1227.5 312.62,-1263.5"/>
<text xml:space="preserve" text-anchor="middle" x="245" y="-1240.08" font-family="Arial" font-size="14.00">detl = dec_detl = 32</text>
</g>
<!-- start&#45;&gt;init_detl -->
<g id="edge1" class="edge">
<title>start&#45;&gt;init_detl</title>
<path fill="none" stroke="black" d="M245,-1300.31C245,-1292.73 245,-1283.6 245,-1275.04"/>
<polygon fill="black" stroke="black" points="248.5,-1275.04 245,-1265.04 241.5,-1275.04 248.5,-1275.04"/>
</g>
<!-- end -->
<g id="node2" class="node">
<title>end</title>
<ellipse fill="none" stroke="black" cx="348" cy="-92.75" rx="34.1" ry="18"/>
<text xml:space="preserve" text-anchor="middle" x="348" y="-87.33" font-family="Arial" font-size="14.00">return</text>
</g>
<!-- init_deth -->
<g id="node4" class="node">
<title>init_deth</title>
<polygon fill="none" stroke="black" points="313.38,-1190.5 176.62,-1190.5 176.62,-1154.5 313.38,-1154.5 313.38,-1190.5"/>
<text xml:space="preserve" text-anchor="middle" x="245" y="-1167.08" font-family="Arial" font-size="14.00">deth = dec_deth = 8</text>
</g>
<!-- init_detl&#45;&gt;init_deth -->
<g id="edge2" class="edge">
<title>init_detl&#45;&gt;init_deth</title>
<path fill="none" stroke="black" d="M245,-1227.31C245,-1219.73 245,-1210.6 245,-1202.04"/>
<polygon fill="black" stroke="black" points="248.5,-1202.04 245,-1192.04 241.5,-1202.04 248.5,-1202.04"/>
</g>
<!-- init_nbl_al -->
<g id="node5" class="node">
<title>init_nbl_al</title>
<polygon fill="none" stroke="black" points="379.38,-1117.5 110.62,-1117.5 110.62,-1081.5 379.38,-1081.5 379.38,-1117.5"/>
<text xml:space="preserve" text-anchor="middle" x="245" y="-1094.08" font-family="Arial" font-size="14.00">nbl = al1 = al2 = plt1 = plt2 = rlt1 = rlt2 = 0</text>
</g>
<!-- init_deth&#45;&gt;init_nbl_al -->
<g id="edge3" class="edge">
<title>init_deth&#45;&gt;init_nbl_al</title>
<path fill="none" stroke="black" d="M245,-1154.31C245,-1146.73 245,-1137.6 245,-1129.04"/>
<polygon fill="black" stroke="black" points="248.5,-1129.04 245,-1119.04 241.5,-1129.04 248.5,-1129.04"/>
</g>
<!-- init_nbh_ah -->
<g id="node6" class="node">
<title>init_nbh_ah</title>
<polygon fill="none" stroke="black" points="387.62,-1044.5 102.38,-1044.5 102.38,-1008.5 387.62,-1008.5 387.62,-1044.5"/>
<text xml:space="preserve" text-anchor="middle" x="245" y="-1021.08" font-family="Arial" font-size="14.00">nbh = ah1 = ah2 = ph1 = ph2 = rh1 = rh2 = 0</text>
</g>
<!-- init_nbl_al&#45;&gt;init_nbh_ah -->
<g id="edge4" class="edge">
<title>init_nbl_al&#45;&gt;init_nbh_ah</title>
<path fill="none" stroke="black" d="M245,-1081.31C245,-1073.73 245,-1064.6 245,-1056.04"/>
<polygon fill="black" stroke="black" points="248.5,-1056.04 245,-1046.04 241.5,-1056.04 248.5,-1056.04"/>
</g>
<!-- init_dec_nbl_al -->
<g id="node7" class="node">
<title>init_dec_nbl_al</title>
<polygon fill="none" stroke="black" points="481.75,-971.5 8.25,-971.5 8.25,-935.5 481.75,-935.5 481.75,-971.5"/>
<text xml:space="preserve" text-anchor="middle" x="245" y="-948.08" font-family="Arial" font-size="14.00">dec_nbl = dec_al1 = dec_al2 = dec_plt1 = dec_plt2 = dec_rlt1 = dec_rlt2 = 0</text>
</g>
<!-- init_nbh_ah&#45;&gt;init_dec_nbl_al -->
<g id="edge5" class="edge">
<title>init_nbh_ah&#45;&gt;init_dec_nbl_al</title>
<path fill="none" stroke="black" d="M245,-1008.31C245,-1000.73 245,-991.6 245,-983.04"/>
<polygon fill="black" stroke="black" points="248.5,-983.04 245,-973.04 241.5,-983.04 248.5,-983.04"/>
</g>
<!-- init_dec_nbh_ah -->
<g id="node8" class="node">
<title>init_dec_nbh_ah</title>
<polygon fill="none" stroke="black" points="490,-898.5 0,-898.5 0,-862.5 490,-862.5 490,-898.5"/>
<text xml:space="preserve" text-anchor="middle" x="245" y="-875.08" font-family="Arial" font-size="14.00">dec_nbh = dec_ah1 = dec_ah2 = dec_ph1 = dec_ph2 = dec_rh1 = dec_rh2 = 0</text>
</g>
<!-- init_dec_nbl_al&#45;&gt;init_dec_nbh_ah -->
<g id="edge6" class="edge">
<title>init_dec_nbl_al&#45;&gt;init_dec_nbh_ah</title>
<path fill="none" stroke="black" d="M245,-935.31C245,-927.73 245,-918.6 245,-910.04"/>
<polygon fill="black" stroke="black" points="248.5,-910.04 245,-900.04 241.5,-910.04 248.5,-910.04"/>
</g>
<!-- loop1_init -->
<g id="node9" class="node">
<title>loop1_init</title>
<polygon fill="none" stroke="black" points="245,-825.5 205.25,-807.5 245,-789.5 284.75,-807.5 245,-825.5"/>
<text xml:space="preserve" text-anchor="middle" x="245" y="-802.08" font-family="Arial" font-size="14.00">i = 0</text>
</g>
<!-- init_dec_nbh_ah&#45;&gt;loop1_init -->
<g id="edge7" class="edge">
<title>init_dec_nbh_ah&#45;&gt;loop1_init</title>
<path fill="none" stroke="black" d="M245,-862.31C245,-854.84 245,-845.87 245,-837.42"/>
<polygon fill="black" stroke="black" points="248.5,-837.54 245,-827.54 241.5,-837.54 248.5,-837.54"/>
</g>
<!-- loop1_cond -->
<g id="node10" class="node">
<title>loop1_cond</title>
<polygon fill="none" stroke="black" points="245,-752.5 205.25,-734.5 245,-716.5 284.75,-734.5 245,-752.5"/>
<text xml:space="preserve" text-anchor="middle" x="245" y="-729.08" font-family="Arial" font-size="14.00">i &lt; 6</text>
</g>
<!-- loop1_init&#45;&gt;loop1_cond -->
<g id="edge8" class="edge">
<title>loop1_init&#45;&gt;loop1_cond</title>
<path fill="none" stroke="black" d="M245,-789.31C245,-781.84 245,-772.87 245,-764.42"/>
<polygon fill="black" stroke="black" points="248.5,-764.54 245,-754.54 241.5,-764.54 248.5,-764.54"/>
</g>
<!-- loop1_body -->
<g id="node11" class="node">
<title>loop1_body</title>
<polygon fill="none" stroke="black" points="217.12,-664.75 90.88,-664.75 90.88,-593.75 217.12,-593.75 217.12,-664.75"/>
<text xml:space="preserve" text-anchor="middle" x="154" y="-647.45" font-family="Arial" font-size="14.00">delay_dltx[i] = 0</text>
<text xml:space="preserve" text-anchor="middle" x="154" y="-631.7" font-family="Arial" font-size="14.00">delay_dhx[i] = 0</text>
<text xml:space="preserve" text-anchor="middle" x="154" y="-615.95" font-family="Arial" font-size="14.00">dec_del_dltx[i] = 0</text>
<text xml:space="preserve" text-anchor="middle" x="154" y="-600.2" font-family="Arial" font-size="14.00">dec_del_dhx[i] = 0</text>
</g>
<!-- loop1_cond&#45;&gt;loop1_body -->
<g id="edge9" class="edge">
<title>loop1_cond&#45;&gt;loop1_body</title>
<path fill="none" stroke="black" d="M230.31,-722.65C221.93,-716.12 211.49,-707.37 203.25,-698.5 196.38,-691.11 189.64,-682.75 183.45,-674.47"/>
<polygon fill="black" stroke="black" points="186.32,-672.47 177.61,-666.44 180.66,-676.59 186.32,-672.47"/>
<text xml:space="preserve" text-anchor="middle" x="217.12" y="-685.2" font-family="Arial" font-size="14.00">True</text>
</g>
<!-- loop2_init -->
<g id="node13" class="node">
<title>loop2_init</title>
<polygon fill="none" stroke="black" points="313,-647.25 273.25,-629.25 313,-611.25 352.75,-629.25 313,-647.25"/>
<text xml:space="preserve" text-anchor="middle" x="313" y="-623.83" font-family="Arial" font-size="14.00">i = 0</text>
</g>
<!-- loop1_cond&#45;&gt;loop2_init -->
<g id="edge10" class="edge">
<title>loop1_cond&#45;&gt;loop2_init</title>
<path fill="none" stroke="black" d="M253.89,-720C265.04,-703.07 284.33,-673.79 297.83,-653.29"/>
<polygon fill="black" stroke="black" points="300.7,-655.29 303.28,-645.02 294.85,-651.44 300.7,-655.29"/>
<text xml:space="preserve" text-anchor="middle" x="293.46" y="-685.2" font-family="Arial" font-size="14.00">False</text>
</g>
<!-- loop1_inc -->
<g id="node12" class="node">
<title>loop1_inc</title>
<polygon fill="none" stroke="black" points="235,-556.75 181,-556.75 181,-520.75 235,-520.75 235,-556.75"/>
<text xml:space="preserve" text-anchor="middle" x="208" y="-533.33" font-family="Arial" font-size="14.00">i++</text>
</g>
<!-- loop1_body&#45;&gt;loop1_inc -->
<g id="edge11" class="edge">
<title>loop1_body&#45;&gt;loop1_inc</title>
<path fill="none" stroke="black" d="M175.34,-593.27C180.71,-584.48 186.39,-575.17 191.47,-566.83"/>
<polygon fill="black" stroke="black" points="194.32,-568.89 196.54,-558.53 188.35,-565.24 194.32,-568.89"/>
</g>
<!-- loop1_inc&#45;&gt;loop1_cond -->
<g id="edge12" class="edge">
<title>loop1_inc&#45;&gt;loop1_cond</title>
<path fill="none" stroke="black" d="M214.67,-557.02C218.49,-567.51 223.09,-581.24 226,-593.75 234.88,-631.94 240.08,-677.03 242.74,-705.45"/>
<polygon fill="black" stroke="black" points="239.22,-705.38 243.59,-715.03 246.19,-704.76 239.22,-705.38"/>
</g>
<!-- loop2_cond -->
<g id="node14" class="node">
<title>loop2_cond</title>
<polygon fill="none" stroke="black" points="313,-556.75 273.25,-538.75 313,-520.75 352.75,-538.75 313,-556.75"/>
<text xml:space="preserve" text-anchor="middle" x="313" y="-533.33" font-family="Arial" font-size="14.00">i &lt; 6</text>
</g>
<!-- loop2_init&#45;&gt;loop2_cond -->
<g id="edge13" class="edge">
<title>loop2_init&#45;&gt;loop2_cond</title>
<path fill="none" stroke="black" d="M313,-610.77C313,-598.77 313,-582.56 313,-568.66"/>
<polygon fill="black" stroke="black" points="316.5,-568.71 313,-558.71 309.5,-568.71 316.5,-568.71"/>
</g>
<!-- loop2_body -->
<g id="node15" class="node">
<title>loop2_body</title>
<polygon fill="none" stroke="black" points="284.5,-469 157.5,-469 157.5,-398 284.5,-398 284.5,-469"/>
<text xml:space="preserve" text-anchor="middle" x="221" y="-451.7" font-family="Arial" font-size="14.00">delay_bpl[i] = 0</text>
<text xml:space="preserve" text-anchor="middle" x="221" y="-435.95" font-family="Arial" font-size="14.00">delay_bph[i] = 0</text>
<text xml:space="preserve" text-anchor="middle" x="221" y="-420.2" font-family="Arial" font-size="14.00">dec_del_bpl[i] = 0</text>
<text xml:space="preserve" text-anchor="middle" x="221" y="-404.45" font-family="Arial" font-size="14.00">dec_del_bph[i] = 0</text>
</g>
<!-- loop2_cond&#45;&gt;loop2_body -->
<g id="edge14" class="edge">
<title>loop2_cond&#45;&gt;loop2_body</title>
<path fill="none" stroke="black" d="M298.34,-526.87C289.97,-520.33 279.54,-511.58 271.25,-502.75 264.22,-495.27 257.29,-486.79 250.93,-478.42"/>
<polygon fill="black" stroke="black" points="253.94,-476.6 245.17,-470.65 248.32,-480.77 253.94,-476.6"/>
<text xml:space="preserve" text-anchor="middle" x="285.12" y="-489.45" font-family="Arial" font-size="14.00">True</text>
</g>
<!-- loop3_init -->
<g id="node17" class="node">
<title>loop3_init</title>
<polygon fill="none" stroke="black" points="381,-451.5 341.25,-433.5 381,-415.5 420.75,-433.5 381,-451.5"/>
<text xml:space="preserve" text-anchor="middle" x="381" y="-428.07" font-family="Arial" font-size="14.00">i = 0</text>
</g>
<!-- loop2_cond&#45;&gt;loop3_init -->
<g id="edge15" class="edge">
<title>loop2_cond&#45;&gt;loop3_init</title>
<path fill="none" stroke="black" d="M321.89,-524.25C333.04,-507.32 352.33,-478.04 365.83,-457.54"/>
<polygon fill="black" stroke="black" points="368.7,-459.54 371.28,-449.27 362.85,-455.69 368.7,-459.54"/>
<text xml:space="preserve" text-anchor="middle" x="361.46" y="-489.45" font-family="Arial" font-size="14.00">False</text>
</g>
<!-- loop2_inc -->
<g id="node16" class="node">
<title>loop2_inc</title>
<polygon fill="none" stroke="black" points="299,-361 245,-361 245,-325 299,-325 299,-361"/>
<text xml:space="preserve" text-anchor="middle" x="272" y="-337.57" font-family="Arial" font-size="14.00">i++</text>
</g>
<!-- loop2_body&#45;&gt;loop2_inc -->
<g id="edge16" class="edge">
<title>loop2_body&#45;&gt;loop2_inc</title>
<path fill="none" stroke="black" d="M241.16,-397.52C246.17,-388.83 251.47,-379.63 256.23,-371.36"/>
<polygon fill="black" stroke="black" points="259.21,-373.21 261.17,-362.8 253.14,-369.71 259.21,-373.21"/>
</g>
<!-- loop2_inc&#45;&gt;loop2_cond -->
<g id="edge17" class="edge">
<title>loop2_inc&#45;&gt;loop2_cond</title>
<path fill="none" stroke="black" d="M279.84,-361.17C284.32,-371.62 289.68,-385.35 293,-398 302.97,-436 308.29,-481.2 310.88,-509.68"/>
<polygon fill="black" stroke="black" points="307.4,-509.98 311.73,-519.65 314.37,-509.39 307.4,-509.98"/>
</g>
<!-- loop3_cond -->
<g id="node18" class="node">
<title>loop3_cond</title>
<polygon fill="none" stroke="black" points="381,-361 334.19,-343 381,-325 427.81,-343 381,-361"/>
<text xml:space="preserve" text-anchor="middle" x="381" y="-337.57" font-family="Arial" font-size="14.00">i &lt; 23</text>
</g>
<!-- loop3_init&#45;&gt;loop3_cond -->
<g id="edge18" class="edge">
<title>loop3_init&#45;&gt;loop3_cond</title>
<path fill="none" stroke="black" d="M381,-415.02C381,-403.02 381,-386.81 381,-372.91"/>
<polygon fill="black" stroke="black" points="384.5,-372.96 381,-362.96 377.5,-372.96 384.5,-372.96"/>
</g>
<!-- loop3_body -->
<g id="node19" class="node">
<title>loop3_body</title>
<polygon fill="none" stroke="black" points="353.38,-273.25 276.62,-273.25 276.62,-237.25 353.38,-237.25 353.38,-273.25"/>
<text xml:space="preserve" text-anchor="middle" x="315" y="-249.82" font-family="Arial" font-size="14.00">tqmf[i] = 0</text>
</g>
<!-- loop3_cond&#45;&gt;loop3_body -->
<g id="edge19" class="edge">
<title>loop3_cond&#45;&gt;loop3_body</title>
<path fill="none" stroke="black" d="M364.88,-331.07C356.46,-324.77 346.44,-316.27 339.25,-307 333.96,-300.18 329.44,-292.02 325.78,-284.26"/>
<polygon fill="black" stroke="black" points="329,-282.89 321.79,-275.13 322.58,-285.69 329,-282.89"/>
<text xml:space="preserve" text-anchor="middle" x="353.12" y="-293.7" font-family="Arial" font-size="14.00">True</text>
</g>
<!-- loop4_init -->
<g id="node21" class="node">
<title>loop4_init</title>
<polygon fill="none" stroke="black" points="449,-273.25 409.25,-255.25 449,-237.25 488.75,-255.25 449,-273.25"/>
<text xml:space="preserve" text-anchor="middle" x="449" y="-249.82" font-family="Arial" font-size="14.00">i = 0</text>
</g>
<!-- loop3_cond&#45;&gt;loop4_init -->
<g id="edge20" class="edge">
<title>loop3_cond&#45;&gt;loop4_init</title>
<path fill="none" stroke="black" d="M391.62,-328.6C402.43,-314.98 419.34,-293.66 432,-277.68"/>
<polygon fill="black" stroke="black" points="434.48,-280.19 437.95,-270.18 429,-275.84 434.48,-280.19"/>
<text xml:space="preserve" text-anchor="middle" x="437.59" y="-293.7" font-family="Arial" font-size="14.00">False</text>
</g>
<!-- loop3_inc -->
<g id="node20" class="node">
<title>loop3_inc</title>
<polygon fill="none" stroke="black" points="374,-200.25 320,-200.25 320,-164.25 374,-164.25 374,-200.25"/>
<text xml:space="preserve" text-anchor="middle" x="347" y="-176.82" font-family="Arial" font-size="14.00">i++</text>
</g>
<!-- loop3_body&#45;&gt;loop3_inc -->
<g id="edge21" class="edge">
<title>loop3_body&#45;&gt;loop3_inc</title>
<path fill="none" stroke="black" d="M322.75,-237.06C326.32,-229.13 330.66,-219.51 334.67,-210.61"/>
<polygon fill="black" stroke="black" points="337.78,-212.21 338.7,-201.66 331.4,-209.34 337.78,-212.21"/>
</g>
<!-- loop3_inc&#45;&gt;loop3_cond -->
<g id="edge22" class="edge">
<title>loop3_inc&#45;&gt;loop3_cond</title>
<path fill="none" stroke="black" d="M352.27,-200.66C355.35,-211.19 359.18,-224.92 362,-237.25 367.96,-263.27 373.24,-293.28 376.72,-314.49"/>
<polygon fill="black" stroke="black" points="373.22,-314.76 378.26,-324.08 380.13,-313.65 373.22,-314.76"/>
</g>
<!-- loop4_cond -->
<g id="node22" class="node">
<title>loop4_cond</title>
<polygon fill="none" stroke="black" points="449,-200.25 402.9,-182.25 449,-164.25 495.1,-182.25 449,-200.25"/>
<text xml:space="preserve" text-anchor="middle" x="449" y="-176.82" font-family="Arial" font-size="14.00">i &lt; 11</text>
</g>
<!-- loop4_init&#45;&gt;loop4_cond -->
<g id="edge23" class="edge">
<title>loop4_init&#45;&gt;loop4_cond</title>
<path fill="none" stroke="black" d="M449,-237.06C449,-229.59 449,-220.62 449,-212.17"/>
<polygon fill="black" stroke="black" points="452.5,-212.29 449,-202.29 445.5,-212.29 452.5,-212.29"/>
</g>
<!-- loop4_cond&#45;&gt;end -->
<g id="edge25" class="edge">
<title>loop4_cond&#45;&gt;end</title>
<path fill="none" stroke="black" d="M435.38,-169.45C419.6,-155.78 393.25,-132.95 373.6,-115.93"/>
<polygon fill="black" stroke="black" points="376.1,-113.47 366.25,-109.56 371.52,-118.76 376.1,-113.47"/>
<text xml:space="preserve" text-anchor="middle" x="424.05" y="-132.95" font-family="Arial" font-size="14.00">False</text>
</g>
<!-- loop4_body -->
<g id="node23" class="node">
<title>loop4_body</title>
<polygon fill="none" stroke="black" points="497.88,-112.5 400.12,-112.5 400.12,-73 497.88,-73 497.88,-112.5"/>
<text xml:space="preserve" text-anchor="middle" x="449" y="-95.2" font-family="Arial" font-size="14.00">accumc[i] = 0</text>
<text xml:space="preserve" text-anchor="middle" x="449" y="-79.45" font-family="Arial" font-size="14.00">accumd[i] = 0</text>
</g>
<!-- loop4_cond&#45;&gt;loop4_body -->
<g id="edge24" class="edge">
<title>loop4_cond&#45;&gt;loop4_body</title>
<path fill="none" stroke="black" d="M449,-163.96C449,-152.56 449,-137.32 449,-123.95"/>
<polygon fill="black" stroke="black" points="452.5,-124.34 449,-114.34 445.5,-124.34 452.5,-124.34"/>
<text xml:space="preserve" text-anchor="middle" x="462.88" y="-132.95" font-family="Arial" font-size="14.00">True</text>
</g>
<!-- loop4_inc -->
<g id="node24" class="node">
<title>loop4_inc</title>
<polygon fill="none" stroke="black" points="514,-36 460,-36 460,0 514,0 514,-36"/>
<text xml:space="preserve" text-anchor="middle" x="487" y="-12.57" font-family="Arial" font-size="14.00">i++</text>
</g>
<!-- loop4_body&#45;&gt;loop4_inc -->
<g id="edge26" class="edge">
<title>loop4_body&#45;&gt;loop4_inc</title>
<path fill="none" stroke="black" d="M458.98,-72.64C463.17,-64.61 468.12,-55.14 472.69,-46.39"/>
<polygon fill="black" stroke="black" points="475.76,-48.07 477.29,-37.59 469.56,-44.83 475.76,-48.07"/>
</g>
<!-- loop4_inc&#45;&gt;loop4_cond -->
<g id="edge27" class="edge">
<title>loop4_inc&#45;&gt;loop4_cond</title>
<path fill="none" stroke="black" d="M496.13,-36.22C504.97,-55.23 515.83,-86.57 507,-112.5 500.35,-132.02 485.13,-149.7 471.94,-162.24"/>
<polygon fill="black" stroke="black" points="469.88,-159.39 464.81,-168.69 474.57,-164.58 469.88,-159.39"/>
</g>
</g>
</svg>
