<?xml version="1.0" encoding="UTF-8" standalone="no"?>
<!DOCTYPE svg PUBLIC "-//W3C//DTD SVG 1.1//EN"
 "http://www.w3.org/Graphics/SVG/1.1/DTD/svg11.dtd">
<!-- Generated by graphviz version 13.1.2 (20250808.2320)
 -->
<!-- Title: sendout Pages: 1 -->
<svg width="260pt" height="643pt"
 viewBox="0.00 0.00 260.00 643.00" xmlns="http://www.w3.org/2000/svg" xmlns:xlink="http://www.w3.org/1999/xlink">
<g id="graph0" class="graph" transform="scale(1 1) rotate(0) translate(4 638.75)">
<title>sendout</title>
<polygon fill="white" stroke="none" points="-4,4 -4,-638.75 255.69,-638.75 255.69,4 -4,4"/>
<!-- start -->
<g id="node1" class="node">
<title>start</title>
<ellipse fill="none" stroke="black" cx="125.85" cy="-616.75" rx="29.61" ry="18"/>
<text xml:space="preserve" text-anchor="middle" x="125.85" y="-611.33" font-family="Arial" font-size="14.00">Start</text>
</g>
<!-- node1 -->
<g id="node3" class="node">
<title>node1</title>
<polygon fill="none" stroke="black" points="190.1,-561.75 61.6,-561.75 61.6,-525.75 190.1,-525.75 190.1,-561.75"/>
<text xml:space="preserve" text-anchor="middle" x="125.85" y="-538.33" font-family="Arial" font-size="14.00">sendout(int output)</text>
</g>
<!-- start&#45;&gt;node1 -->
<g id="edge1" class="edge">
<title>start&#45;&gt;node1</title>
<path fill="none" stroke="black" d="M125.85,-598.56C125.85,-590.98 125.85,-581.85 125.85,-573.29"/>
<polygon fill="black" stroke="black" points="129.35,-573.29 125.85,-563.29 122.35,-573.29 129.35,-573.29"/>
</g>
<!-- end -->
<g id="node2" class="node">
<title>end</title>
<ellipse fill="none" stroke="black" cx="125.85" cy="-18" rx="27" ry="18"/>
<text xml:space="preserve" text-anchor="middle" x="125.85" y="-12.57" font-family="Arial" font-size="14.00">End</text>
</g>
<!-- node2 -->
<g id="node4" class="node">
<title>node2</title>
<polygon fill="none" stroke="black" points="171.35,-488.75 80.35,-488.75 80.35,-452.75 171.35,-452.75 171.35,-488.75"/>
<text xml:space="preserve" text-anchor="middle" x="125.85" y="-465.32" font-family="Arial" font-size="14.00">Setup codec</text>
</g>
<!-- node1&#45;&gt;node2 -->
<g id="edge2" class="edge">
<title>node1&#45;&gt;node2</title>
<path fill="none" stroke="black" d="M125.85,-525.56C125.85,-517.98 125.85,-508.85 125.85,-500.29"/>
<polygon fill="black" stroke="black" points="129.35,-500.29 125.85,-490.29 122.35,-500.29 129.35,-500.29"/>
</g>
<!-- cond1 -->
<g id="node5" class="node">
<title>cond1</title>
<polygon fill="none" stroke="black" points="125.85,-415.75 0,-397.75 125.85,-379.75 251.69,-397.75 125.85,-415.75"/>
<text xml:space="preserve" text-anchor="middle" x="125.85" y="-392.32" font-family="Arial" font-size="14.00">if (output &amp; 0x8000)</text>
</g>
<!-- node2&#45;&gt;cond1 -->
<g id="edge3" class="edge">
<title>node2&#45;&gt;cond1</title>
<path fill="none" stroke="black" d="M125.85,-452.56C125.85,-444.98 125.85,-435.85 125.85,-427.29"/>
<polygon fill="black" stroke="black" points="129.35,-427.29 125.85,-417.29 122.35,-427.29 129.35,-427.29"/>
</g>
<!-- node3 -->
<g id="node6" class="node">
<title>node3</title>
<polygon fill="none" stroke="black" points="135.47,-328 24.22,-328 24.22,-292 135.47,-292 135.47,-328"/>
<text xml:space="preserve" text-anchor="middle" x="79.85" y="-304.57" font-family="Arial" font-size="14.00">output = &#45;output</text>
</g>
<!-- cond1&#45;&gt;node3 -->
<g id="edge4" class="edge">
<title>cond1&#45;&gt;node3</title>
<path fill="none" stroke="black" d="M117.2,-380.62C110.81,-368.71 101.96,-352.22 94.48,-338.28"/>
<polygon fill="black" stroke="black" points="97.62,-336.72 89.81,-329.57 91.45,-340.03 97.62,-336.72"/>
<text xml:space="preserve" text-anchor="middle" x="120.84" y="-348.45" font-family="Arial" font-size="14.00">True</text>
</g>
<!-- node4 -->
<g id="node7" class="node">
<title>node4</title>
<polygon fill="none" stroke="black" points="199.47,-255 52.22,-255 52.22,-219 199.47,-219 199.47,-255"/>
<text xml:space="preserve" text-anchor="middle" x="125.85" y="-231.57" font-family="Arial" font-size="14.00">Send output high byte</text>
</g>
<!-- cond1&#45;&gt;node4 -->
<g id="edge5" class="edge">
<title>cond1&#45;&gt;node4</title>
<path fill="none" stroke="black" d="M132.55,-380.57C134.79,-374.71 137.14,-368 138.85,-361.75 147.02,-331.73 150.09,-322.67 144.85,-292 143.35,-283.24 140.58,-274.02 137.62,-265.72"/>
<polygon fill="black" stroke="black" points="140.94,-264.61 134.09,-256.52 134.4,-267.11 140.94,-264.61"/>
<text xml:space="preserve" text-anchor="middle" x="163.94" y="-304.57" font-family="Arial" font-size="14.00">False</text>
</g>
<!-- node3&#45;&gt;node4 -->
<g id="edge6" class="edge">
<title>node3&#45;&gt;node4</title>
<path fill="none" stroke="black" d="M90.98,-291.81C96.29,-283.62 102.77,-273.62 108.69,-264.48"/>
<polygon fill="black" stroke="black" points="111.49,-266.59 113.99,-256.3 105.62,-262.79 111.49,-266.59"/>
</g>
<!-- node5 -->
<g id="node8" class="node">
<title>node5</title>
<polygon fill="none" stroke="black" points="196.85,-182 54.85,-182 54.85,-146 196.85,-146 196.85,-182"/>
<text xml:space="preserve" text-anchor="middle" x="125.85" y="-158.57" font-family="Arial" font-size="14.00">Send output low byte</text>
</g>
<!-- node4&#45;&gt;node5 -->
<g id="edge7" class="edge">
<title>node4&#45;&gt;node5</title>
<path fill="none" stroke="black" d="M125.85,-218.81C125.85,-211.23 125.85,-202.1 125.85,-193.54"/>
<polygon fill="black" stroke="black" points="129.35,-193.54 125.85,-183.54 122.35,-193.54 129.35,-193.54"/>
</g>
<!-- node6 -->
<g id="node9" class="node">
<title>node6</title>
<polygon fill="none" stroke="black" points="170.97,-109 80.72,-109 80.72,-73 170.97,-73 170.97,-109"/>
<text xml:space="preserve" text-anchor="middle" x="125.85" y="-85.58" font-family="Arial" font-size="14.00">Flush output</text>
</g>
<!-- node5&#45;&gt;node6 -->
<g id="edge8" class="edge">
<title>node5&#45;&gt;node6</title>
<path fill="none" stroke="black" d="M125.85,-145.81C125.85,-138.23 125.85,-129.1 125.85,-120.54"/>
<polygon fill="black" stroke="black" points="129.35,-120.54 125.85,-110.54 122.35,-120.54 129.35,-120.54"/>
</g>
<!-- node6&#45;&gt;end -->
<g id="edge9" class="edge">
<title>node6&#45;&gt;end</title>
<path fill="none" stroke="black" d="M125.85,-72.81C125.85,-65.23 125.85,-56.1 125.85,-47.54"/>
<polygon fill="black" stroke="black" points="129.35,-47.54 125.85,-37.54 122.35,-47.54 129.35,-47.54"/>
</g>
</g>
</svg>
