<?xml version="1.0" encoding="UTF-8" standalone="no"?>
<!DOCTYPE svg PUBLIC "-//W3C//DTD SVG 1.1//EN"
 "http://www.w3.org/Graphics/SVG/1.1/DTD/svg11.dtd">
<!-- Generated by graphviz version 13.1.2 (20250808.2320)
 -->
<!-- Title: setup_codec Pages: 1 -->
<svg width="147pt" height="192pt"
 viewBox="0.00 0.00 147.00 192.00" xmlns="http://www.w3.org/2000/svg" xmlns:xlink="http://www.w3.org/1999/xlink">
<g id="graph0" class="graph" transform="scale(1 1) rotate(0) translate(4 187.5)">
<title>setup_codec</title>
<polygon fill="white" stroke="none" points="-4,4 -4,-187.5 143,-187.5 143,4 -4,4"/>
<!-- start -->
<g id="node1" class="node">
<title>start</title>
<ellipse fill="none" stroke="black" cx="69.5" cy="-165.5" rx="29.61" ry="18"/>
<text xml:space="preserve" text-anchor="middle" x="69.5" y="-160.07" font-family="Arial" font-size="14.00">Start</text>
</g>
<!-- empty_function -->
<g id="node3" class="node">
<title>empty_function</title>
<polygon fill="none" stroke="red" points="139,-111.5 0,-111.5 0,-72 139,-72 139,-111.5"/>
<text xml:space="preserve" text-anchor="middle" x="69.5" y="-94.2" font-family="Arial" font-size="14.00" fill="red">setup_codec()</text>
<text xml:space="preserve" text-anchor="middle" x="69.5" y="-78.45" font-family="Arial" font-size="14.00" fill="red">Empty function body</text>
</g>
<!-- start&#45;&gt;empty_function -->
<g id="edge1" class="edge">
<title>start&#45;&gt;empty_function</title>
<path fill="none" stroke="red" d="M69.5,-147.13C69.5,-140 69.5,-131.52 69.5,-123.41"/>
<polygon fill="red" stroke="red" points="73,-123.49 69.5,-113.49 66,-123.49 73,-123.49"/>
</g>
<!-- end -->
<g id="node2" class="node">
<title>end</title>
<ellipse fill="none" stroke="black" cx="69.5" cy="-18" rx="27" ry="18"/>
<text xml:space="preserve" text-anchor="middle" x="69.5" y="-12.57" font-family="Arial" font-size="14.00">End</text>
</g>
<!-- empty_function&#45;&gt;end -->
<g id="edge2" class="edge">
<title>empty_function&#45;&gt;end</title>
<path fill="none" stroke="red" d="M69.5,-71.52C69.5,-64.25 69.5,-55.79 69.5,-47.83"/>
<polygon fill="red" stroke="red" points="73,-47.83 69.5,-37.83 66,-47.83 73,-47.83"/>
</g>
</g>
</svg>
