<?xml version="1.0" encoding="UTF-8" standalone="no"?>
<!DOCTYPE svg PUBLIC "-//W3C//DTD SVG 1.1//EN"
 "http://www.w3.org/Graphics/SVG/1.1/DTD/svg11.dtd">
<!-- Generated by graphviz version 13.1.2 (20250808.2320)
 -->
<!-- Title: uppol1 Pages: 1 -->
<svg width="326pt" height="749pt"
 viewBox="0.00 0.00 326.00 749.00" xmlns="http://www.w3.org/2000/svg" xmlns:xlink="http://www.w3.org/1999/xlink">
<g id="graph0" class="graph" transform="scale(1 1) rotate(0) translate(4 744.75)">
<title>uppol1</title>
<polygon fill="white" stroke="none" points="-4,4 -4,-744.75 322.25,-744.75 322.25,4 -4,4"/>
<!-- start -->
<g id="node1" class="node">
<title>start</title>
<ellipse fill="none" stroke="black" cx="158.12" cy="-722.75" rx="29.61" ry="18"/>
<text xml:space="preserve" text-anchor="middle" x="158.12" y="-717.33" font-family="Arial" font-size="14.00">Start</text>
</g>
<!-- block5 -->
<g id="node10" class="node">
<title>block5</title>
<polygon fill="none" stroke="black" points="223.88,-667.75 92.38,-667.75 92.38,-631.75 223.88,-631.75 223.88,-667.75"/>
<text xml:space="preserve" text-anchor="middle" x="158.12" y="-644.33" font-family="Arial" font-size="14.00">wd3 = 15360 &#45; apl2</text>
</g>
<!-- start&#45;&gt;block5 -->
<g id="edge1" class="edge">
<title>start&#45;&gt;block5</title>
<path fill="none" stroke="black" d="M158.12,-704.56C158.12,-696.98 158.12,-687.85 158.12,-679.29"/>
<polygon fill="black" stroke="black" points="161.63,-679.29 158.13,-669.29 154.63,-679.29 161.63,-679.29"/>
</g>
<!-- end -->
<g id="node2" class="node">
<title>end</title>
<ellipse fill="none" stroke="black" cx="154.12" cy="-18" rx="27" ry="18"/>
<text xml:space="preserve" text-anchor="middle" x="154.12" y="-12.57" font-family="Arial" font-size="14.00">End</text>
</g>
<!-- cond1 -->
<g id="node3" class="node">
<title>cond1</title>
<polygon fill="none" stroke="black" points="158.12,-594.75 49.21,-576.75 158.12,-558.75 267.04,-576.75 158.12,-594.75"/>
<text xml:space="preserve" text-anchor="middle" x="158.12" y="-571.33" font-family="Arial" font-size="14.00">if (plt * plt1 &gt;= 0)</text>
</g>
<!-- block1 -->
<g id="node4" class="node">
<title>block1</title>
<polygon fill="none" stroke="black" points="150.25,-507 0,-507 0,-467.5 150.25,-467.5 150.25,-507"/>
<text xml:space="preserve" text-anchor="middle" x="75.12" y="-489.7" font-family="Arial" font-size="14.00">wd2 = (al1 * 255) &gt;&gt; 8</text>
<text xml:space="preserve" text-anchor="middle" x="75.12" y="-473.95" font-family="Arial" font-size="14.00">apl1 = wd2 + 192</text>
</g>
<!-- cond1&#45;&gt;block1 -->
<g id="edge3" class="edge">
<title>cond1&#45;&gt;block1</title>
<path fill="none" stroke="black" d="M144.05,-560.91C132.26,-548.48 115.13,-530.43 100.9,-515.43"/>
<polygon fill="black" stroke="black" points="103.81,-513.41 94.39,-508.56 98.73,-518.22 103.81,-513.41"/>
<text xml:space="preserve" text-anchor="middle" x="137.93" y="-527.45" font-family="Arial" font-size="14.00">True</text>
</g>
<!-- block2 -->
<g id="node5" class="node">
<title>block2</title>
<polygon fill="none" stroke="black" points="318.25,-507 168,-507 168,-467.5 318.25,-467.5 318.25,-507"/>
<text xml:space="preserve" text-anchor="middle" x="243.12" y="-489.7" font-family="Arial" font-size="14.00">wd2 = (al1 * 255) &gt;&gt; 8</text>
<text xml:space="preserve" text-anchor="middle" x="243.12" y="-473.95" font-family="Arial" font-size="14.00">apl1 = wd2 &#45; 192</text>
</g>
<!-- cond1&#45;&gt;block2 -->
<g id="edge4" class="edge">
<title>cond1&#45;&gt;block2</title>
<path fill="none" stroke="black" d="M172.54,-560.91C184.61,-548.48 202.15,-530.43 216.73,-515.43"/>
<polygon fill="black" stroke="black" points="218.95,-518.16 223.41,-508.55 213.93,-513.28 218.95,-518.16"/>
<text xml:space="preserve" text-anchor="middle" x="222.21" y="-527.45" font-family="Arial" font-size="14.00">False</text>
</g>
<!-- cond2 -->
<g id="node6" class="node">
<title>cond2</title>
<polygon fill="none" stroke="black" points="158.12,-430.5 62.62,-412.5 158.12,-394.5 253.63,-412.5 158.12,-430.5"/>
<text xml:space="preserve" text-anchor="middle" x="158.12" y="-407.07" font-family="Arial" font-size="14.00">if (apl1 &gt; wd3)</text>
</g>
<!-- block1&#45;&gt;cond2 -->
<g id="edge5" class="edge">
<title>block1&#45;&gt;cond2</title>
<path fill="none" stroke="black" d="M96.93,-467.14C108.11,-457.34 121.76,-445.37 133.34,-435.23"/>
<polygon fill="black" stroke="black" points="135.36,-438.11 140.57,-428.89 130.74,-432.85 135.36,-438.11"/>
</g>
<!-- block2&#45;&gt;cond2 -->
<g id="edge6" class="edge">
<title>block2&#45;&gt;cond2</title>
<path fill="none" stroke="black" d="M220.79,-467.14C209.27,-457.27 195.17,-445.21 183.27,-435.02"/>
<polygon fill="black" stroke="black" points="185.69,-432.49 175.82,-428.64 181.14,-437.8 185.69,-432.49"/>
</g>
<!-- cond3 -->
<g id="node7" class="node">
<title>cond3</title>
<polygon fill="none" stroke="black" points="154.12,-269.75 54.39,-251.75 154.12,-233.75 253.86,-251.75 154.12,-269.75"/>
<text xml:space="preserve" text-anchor="middle" x="154.12" y="-246.32" font-family="Arial" font-size="14.00">if (apl1 &lt; &#45;wd3)</text>
</g>
<!-- cond2&#45;&gt;cond3 -->
<g id="edge8" class="edge">
<title>cond2&#45;&gt;cond3</title>
<path fill="none" stroke="black" d="M155.92,-394.58C154.22,-380.69 152.03,-360.48 151.12,-342.75 150.31,-326.77 150.68,-322.74 151.12,-306.75 151.36,-298.43 151.79,-289.39 152.25,-281.13"/>
<polygon fill="black" stroke="black" points="155.74,-281.47 152.85,-271.28 148.75,-281.05 155.74,-281.47"/>
<text xml:space="preserve" text-anchor="middle" x="167.62" y="-319.32" font-family="Arial" font-size="14.00">False</text>
</g>
<!-- block3 -->
<g id="node8" class="node">
<title>block3</title>
<polygon fill="none" stroke="black" points="275.12,-342.75 193.12,-342.75 193.12,-306.75 275.12,-306.75 275.12,-342.75"/>
<text xml:space="preserve" text-anchor="middle" x="234.12" y="-319.32" font-family="Arial" font-size="14.00">apl1 = wd3</text>
</g>
<!-- cond2&#45;&gt;block3 -->
<g id="edge7" class="edge">
<title>cond2&#45;&gt;block3</title>
<path fill="none" stroke="black" d="M171.36,-396.56C182.38,-384.13 198.33,-366.14 211.39,-351.41"/>
<polygon fill="black" stroke="black" points="213.66,-354.11 217.68,-344.31 208.43,-349.47 213.66,-354.11"/>
<text xml:space="preserve" text-anchor="middle" x="216.81" y="-363.2" font-family="Arial" font-size="14.00">True</text>
</g>
<!-- block4 -->
<g id="node9" class="node">
<title>block4</title>
<polygon fill="none" stroke="black" points="158.38,-182 71.88,-182 71.88,-146 158.38,-146 158.38,-182"/>
<text xml:space="preserve" text-anchor="middle" x="115.12" y="-158.57" font-family="Arial" font-size="14.00">apl1 = &#45;wd3</text>
</g>
<!-- cond3&#45;&gt;block4 -->
<g id="edge10" class="edge">
<title>cond3&#45;&gt;block4</title>
<path fill="none" stroke="black" d="M146.79,-234.62C141.43,-222.83 134.02,-206.55 127.72,-192.69"/>
<polygon fill="black" stroke="black" points="130.92,-191.27 123.59,-183.61 124.54,-194.16 130.92,-191.27"/>
<text xml:space="preserve" text-anchor="middle" x="151.99" y="-202.45" font-family="Arial" font-size="14.00">True</text>
</g>
<!-- block6 -->
<g id="node11" class="node">
<title>block6</title>
<polygon fill="none" stroke="black" points="194.38,-109 113.88,-109 113.88,-73 194.38,-73 194.38,-109"/>
<text xml:space="preserve" text-anchor="middle" x="154.12" y="-85.58" font-family="Arial" font-size="14.00">return apl1</text>
</g>
<!-- cond3&#45;&gt;block6 -->
<g id="edge11" class="edge">
<title>cond3&#45;&gt;block6</title>
<path fill="none" stroke="black" d="M163.12,-234.87C165.95,-229.05 168.7,-222.28 170.12,-215.75 177.17,-183.41 170.1,-145.59 163.26,-120.35"/>
<polygon fill="black" stroke="black" points="166.65,-119.46 160.51,-110.83 159.93,-121.41 166.65,-119.46"/>
<text xml:space="preserve" text-anchor="middle" x="189.44" y="-158.57" font-family="Arial" font-size="14.00">False</text>
</g>
<!-- block3&#45;&gt;cond3 -->
<g id="edge9" class="edge">
<title>block3&#45;&gt;cond3</title>
<path fill="none" stroke="black" d="M214.76,-306.56C203.93,-296.95 190.31,-284.86 178.73,-274.59"/>
<polygon fill="black" stroke="black" points="181.28,-272.17 171.48,-268.15 176.64,-277.41 181.28,-272.17"/>
</g>
<!-- block4&#45;&gt;block6 -->
<g id="edge12" class="edge">
<title>block4&#45;&gt;block6</title>
<path fill="none" stroke="black" d="M124.57,-145.81C128.97,-137.79 134.32,-128.05 139.26,-119.07"/>
<polygon fill="black" stroke="black" points="142.3,-120.81 144.04,-110.36 136.16,-117.44 142.3,-120.81"/>
</g>
<!-- block5&#45;&gt;cond1 -->
<g id="edge2" class="edge">
<title>block5&#45;&gt;cond1</title>
<path fill="none" stroke="black" d="M158.12,-631.56C158.12,-623.98 158.12,-614.85 158.12,-606.29"/>
<polygon fill="black" stroke="black" points="161.63,-606.29 158.13,-596.29 154.63,-606.29 161.63,-606.29"/>
</g>
<!-- block6&#45;&gt;end -->
<g id="edge13" class="edge">
<title>block6&#45;&gt;end</title>
<path fill="none" stroke="black" d="M154.12,-72.81C154.12,-65.23 154.12,-56.1 154.12,-47.54"/>
<polygon fill="black" stroke="black" points="157.63,-47.54 154.13,-37.54 150.63,-47.54 157.63,-47.54"/>
</g>
</g>
</svg>
