<?xml version="1.0" encoding="UTF-8" standalone="no"?>
<!DOCTYPE svg PUBLIC "-//W3C//DTD SVG 1.1//EN"
 "http://www.w3.org/Graphics/SVG/1.1/DTD/svg11.dtd">
<!-- Generated by graphviz version 13.1.2 (20250808.2320)
 -->
<!-- Title: upzero Pages: 1 -->
<svg width="492pt" height="437pt"
 viewBox="0.00 0.00 492.00 437.00" xmlns="http://www.w3.org/2000/svg" xmlns:xlink="http://www.w3.org/1999/xlink">
<g id="graph0" class="graph" transform="scale(1 1) rotate(0) translate(4 432.5)">
<title>upzero</title>
<polygon fill="white" stroke="none" points="-4,4 -4,-432.5 488.12,-432.5 488.12,4 -4,4"/>
<!-- start -->
<g id="node1" class="node">
<title>start</title>
<ellipse fill="none" stroke="black" cx="217.75" cy="-410.5" rx="84" ry="18"/>
<text xml:space="preserve" text-anchor="middle" x="217.75" y="-405.07" font-family="Arial" font-size="14.00">upzero(dlt, dlti, bli)</text>
</g>
<!-- cond_dlt_eq_0 -->
<g id="node3" class="node">
<title>cond_dlt_eq_0</title>
<polygon fill="none" stroke="black" points="217.75,-355.5 141.3,-337.5 217.75,-319.5 294.2,-337.5 217.75,-355.5"/>
<text xml:space="preserve" text-anchor="middle" x="217.75" y="-332.07" font-family="Arial" font-size="14.00">if (dlt == 0)</text>
</g>
<!-- start&#45;&gt;cond_dlt_eq_0 -->
<g id="edge1" class="edge">
<title>start&#45;&gt;cond_dlt_eq_0</title>
<path fill="none" stroke="black" d="M217.75,-392.31C217.75,-384.73 217.75,-375.6 217.75,-367.04"/>
<polygon fill="black" stroke="black" points="221.25,-367.04 217.75,-357.04 214.25,-367.04 221.25,-367.04"/>
</g>
<!-- end -->
<g id="node2" class="node">
<title>end</title>
<ellipse fill="none" stroke="black" cx="217.75" cy="-18" rx="37.59" ry="18"/>
<text xml:space="preserve" text-anchor="middle" x="217.75" y="-12.57" font-family="Arial" font-size="14.00">Return</text>
</g>
<!-- block_zero_case -->
<g id="node4" class="node">
<title>block_zero_case</title>
<polygon fill="none" stroke="black" points="185.5,-252 0,-252 0,-212.5 185.5,-212.5 185.5,-252"/>
<text xml:space="preserve" text-anchor="middle" x="92.75" y="-234.7" font-family="Arial" font-size="14.00">for (i=0; i&lt;6; i++)</text>
<text xml:space="preserve" text-anchor="middle" x="92.75" y="-218.95" font-family="Arial" font-size="14.00"> &#160;&#160;&#160;bli[i] = (255L * bli[i]) &gt;&gt; 8L</text>
</g>
<!-- cond_dlt_eq_0&#45;&gt;block_zero_case -->
<g id="edge2" class="edge">
<title>cond_dlt_eq_0&#45;&gt;block_zero_case</title>
<path fill="none" stroke="black" d="M201.41,-323C181.96,-306.94 149.03,-279.74 124.51,-259.49"/>
<polygon fill="black" stroke="black" points="127.01,-257.01 117.07,-253.34 122.55,-262.4 127.01,-257.01"/>
<text xml:space="preserve" text-anchor="middle" x="187.62" y="-288.2" font-family="Arial" font-size="14.00">True</text>
</g>
<!-- block_nonzero_case -->
<g id="node5" class="node">
<title>block_nonzero_case</title>
<polygon fill="none" stroke="black" points="484.12,-267.75 203.38,-267.75 203.38,-196.75 484.12,-196.75 484.12,-267.75"/>
<text xml:space="preserve" text-anchor="middle" x="343.75" y="-250.45" font-family="Arial" font-size="14.00">for (i=0; i&lt;6; i++)</text>
<text xml:space="preserve" text-anchor="middle" x="343.75" y="-234.7" font-family="Arial" font-size="14.00"> &#160;&#160;&#160;if (dlt*dlti[i] &gt;= 0) wd2=128 else wd2=&#45;128</text>
<text xml:space="preserve" text-anchor="middle" x="343.75" y="-218.95" font-family="Arial" font-size="14.00"> &#160;&#160;&#160;wd3 = (255L * bli[i]) &gt;&gt; 8L</text>
<text xml:space="preserve" text-anchor="middle" x="343.75" y="-203.2" font-family="Arial" font-size="14.00"> &#160;&#160;&#160;bli[i] = wd2 + wd3</text>
</g>
<!-- cond_dlt_eq_0&#45;&gt;block_nonzero_case -->
<g id="edge3" class="edge">
<title>cond_dlt_eq_0&#45;&gt;block_nonzero_case</title>
<path fill="none" stroke="black" d="M234.22,-323C249.05,-310.85 271.64,-292.34 292.46,-275.28"/>
<polygon fill="black" stroke="black" points="294.56,-278.08 300.08,-269.03 290.13,-272.67 294.56,-278.08"/>
<text xml:space="preserve" text-anchor="middle" x="293.47" y="-288.2" font-family="Arial" font-size="14.00">False</text>
</g>
<!-- shift_dlti -->
<g id="node6" class="node">
<title>shift_dlti</title>
<polygon fill="none" stroke="black" points="265.88,-159.75 169.62,-159.75 169.62,-73 265.88,-73 265.88,-159.75"/>
<text xml:space="preserve" text-anchor="middle" x="217.75" y="-142.45" font-family="Arial" font-size="14.00">dlti[5] = dlti[4]</text>
<text xml:space="preserve" text-anchor="middle" x="217.75" y="-126.7" font-family="Arial" font-size="14.00">dlti[4] = dlti[3]</text>
<text xml:space="preserve" text-anchor="middle" x="217.75" y="-110.95" font-family="Arial" font-size="14.00">dlti[3] = dlti[2]</text>
<text xml:space="preserve" text-anchor="middle" x="217.75" y="-95.2" font-family="Arial" font-size="14.00">dlti[1] = dlti[0]</text>
<text xml:space="preserve" text-anchor="middle" x="217.75" y="-79.45" font-family="Arial" font-size="14.00">dlti[0] = dlt</text>
</g>
<!-- block_zero_case&#45;&gt;shift_dlti -->
<g id="edge4" class="edge">
<title>block_zero_case&#45;&gt;shift_dlti</title>
<path fill="none" stroke="black" d="M113.67,-212.19C127.05,-200 145.08,-183.58 162.38,-167.82"/>
<polygon fill="black" stroke="black" points="164.63,-170.5 169.66,-161.18 159.91,-165.33 164.63,-170.5"/>
</g>
<!-- block_nonzero_case&#45;&gt;shift_dlti -->
<g id="edge5" class="edge">
<title>block_nonzero_case&#45;&gt;shift_dlti</title>
<path fill="none" stroke="black" d="M305.26,-196.46C295.21,-187.38 284.17,-177.41 273.43,-167.69"/>
<polygon fill="black" stroke="black" points="275.78,-165.1 266.01,-161 271.09,-170.3 275.78,-165.1"/>
</g>
<!-- shift_dlti&#45;&gt;end -->
<g id="edge6" class="edge">
<title>shift_dlti&#45;&gt;end</title>
<path fill="none" stroke="black" d="M217.75,-72.54C217.75,-64.1 217.75,-55.43 217.75,-47.59"/>
<polygon fill="black" stroke="black" points="221.25,-47.63 217.75,-37.63 214.25,-47.63 221.25,-47.63"/>
</g>
</g>
</svg>
