<?xml version="1.0" encoding="UTF-8" standalone="no"?>
<!DOCTYPE svg PUBLIC "-//W3C//DTD SVG 1.1//EN"
 "http://www.w3.org/Graphics/SVG/1.1/DTD/svg11.dtd">
<!-- Generated by graphviz version 13.1.2 (20250808.2320)
 -->
<!-- Title: sort_DFG Pages: 1 -->
<svg width="608pt" height="571pt"
 viewBox="0.00 0.00 608.00 571.00" xmlns="http://www.w3.org/2000/svg" xmlns:xlink="http://www.w3.org/1999/xlink">
<g id="graph0" class="graph" transform="scale(1 1) rotate(0) translate(4 566.5)">
<title>sort_DFG</title>
<polygon fill="white" stroke="none" points="-4,4 -4,-566.5 604,-566.5 604,4 -4,4"/>
<!-- arr_in -->
<g id="node1" class="node">
<title>arr_in</title>
<ellipse fill="lightblue" stroke="black" cx="38" cy="-398.5" rx="27" ry="18"/>
<text xml:space="preserve" text-anchor="middle" x="38" y="-393.45" font-family="Times New Roman,serif" font-size="14.00">arr</text>
</g>
<!-- op_swap -->
<g id="node9" class="node">
<title>op_swap</title>
<polygon fill="none" stroke="black" points="121,-109 67,-109 67,-73 121,-73 121,-109"/>
<text xml:space="preserve" text-anchor="middle" x="94" y="-85.95" font-family="Times New Roman,serif" font-size="14.00">SWAP</text>
</g>
<!-- arr_in&#45;&gt;op_swap -->
<g id="edge2" class="edge">
<title>arr_in&#45;&gt;op_swap</title>
<path fill="none" stroke="black" d="M26.39,-381.83C15.22,-365.15 0,-337.57 0,-311 0,-311 0,-311 0,-163 0,-133.43 29.98,-114.62 56.08,-103.84"/>
<polygon fill="black" stroke="black" points="57.05,-107.21 65.14,-100.37 54.55,-100.67 57.05,-107.21"/>
</g>
<!-- op_compare_arr -->
<g id="node10" class="node">
<title>op_compare_arr</title>
<polygon fill="none" stroke="black" points="148.5,-182 39.5,-182 39.5,-146 148.5,-146 148.5,-182"/>
<text xml:space="preserve" text-anchor="middle" x="94" y="-158.95" font-family="Times New Roman,serif" font-size="14.00">Comparacoes arr</text>
</g>
<!-- arr_in&#45;&gt;op_compare_arr -->
<g id="edge3" class="edge">
<title>arr_in&#45;&gt;op_compare_arr</title>
<path fill="none" stroke="black" d="M37.09,-380.14C35.96,-347.48 36.29,-275.14 57,-219 60.56,-209.34 66.23,-199.76 72.08,-191.41"/>
<polygon fill="black" stroke="black" points="74.84,-193.57 78,-183.45 69.22,-189.39 74.84,-193.57"/>
</g>
<!-- op_assign_a -->
<g id="node12" class="node">
<title>op_assign_a</title>
<polygon fill="none" stroke="black" points="141.75,-328 76.25,-328 76.25,-292 141.75,-292 141.75,-328"/>
<text xml:space="preserve" text-anchor="middle" x="109" y="-304.95" font-family="Times New Roman,serif" font-size="14.00">a = arr[j]</text>
</g>
<!-- arr_in&#45;&gt;op_assign_a -->
<g id="edge1" class="edge">
<title>arr_in&#45;&gt;op_assign_a</title>
<path fill="none" stroke="black" d="M50.37,-382.43C60.63,-369.93 75.47,-351.85 87.65,-337.01"/>
<polygon fill="black" stroke="black" points="90.22,-339.39 93.86,-329.44 84.81,-334.95 90.22,-339.39"/>
</g>
<!-- n_in -->
<g id="node2" class="node">
<title>n_in</title>
<ellipse fill="lightblue" stroke="black" cx="167" cy="-544.5" rx="27" ry="18"/>
<text xml:space="preserve" text-anchor="middle" x="167" y="-539.45" font-family="Times New Roman,serif" font-size="14.00">n</text>
</g>
<!-- op_assign_ir -->
<g id="node5" class="node">
<title>op_assign_ir</title>
<polygon fill="none" stroke="black" points="194,-489.5 140,-489.5 140,-453.5 194,-453.5 194,-489.5"/>
<text xml:space="preserve" text-anchor="middle" x="167" y="-466.45" font-family="Times New Roman,serif" font-size="14.00">ir = n</text>
</g>
<!-- n_in&#45;&gt;op_assign_ir -->
<g id="edge4" class="edge">
<title>n_in&#45;&gt;op_assign_ir</title>
<path fill="none" stroke="black" d="M167,-526.31C167,-518.73 167,-509.6 167,-501.04"/>
<polygon fill="black" stroke="black" points="170.5,-501.04 167,-491.04 163.5,-501.04 170.5,-501.04"/>
</g>
<!-- M_in -->
<g id="node3" class="node">
<title>M_in</title>
<ellipse fill="lightblue" stroke="black" cx="89" cy="-471.5" rx="32.93" ry="18"/>
<text xml:space="preserve" text-anchor="middle" x="89" y="-466.45" font-family="Times New Roman,serif" font-size="14.00">M (7)</text>
</g>
<!-- op_compare -->
<g id="node8" class="node">
<title>op_compare</title>
<polygon fill="none" stroke="black" points="201.25,-416.5 132.75,-416.5 132.75,-380.5 201.25,-380.5 201.25,-416.5"/>
<text xml:space="preserve" text-anchor="middle" x="167" y="-393.45" font-family="Times New Roman,serif" font-size="14.00">ir &#45; l &lt; M</text>
</g>
<!-- M_in&#45;&gt;op_compare -->
<g id="edge7" class="edge">
<title>M_in&#45;&gt;op_compare</title>
<path fill="none" stroke="black" d="M105.54,-455.44C115.45,-446.43 128.29,-434.74 139.67,-424.38"/>
<polygon fill="black" stroke="black" points="141.85,-427.12 146.89,-417.8 137.14,-421.95 141.85,-427.12"/>
</g>
<!-- NSTACK_in -->
<g id="node4" class="node">
<title>NSTACK_in</title>
<ellipse fill="lightblue" stroke="black" cx="277" cy="-544.5" rx="65.17" ry="18"/>
<text xml:space="preserve" text-anchor="middle" x="277" y="-539.45" font-family="Times New Roman,serif" font-size="14.00">NSTACK (50)</text>
</g>
<!-- op_assign_ir&#45;&gt;op_compare -->
<g id="edge5" class="edge">
<title>op_assign_ir&#45;&gt;op_compare</title>
<path fill="none" stroke="black" d="M167,-453.31C167,-445.73 167,-436.6 167,-428.04"/>
<polygon fill="black" stroke="black" points="170.5,-428.04 167,-418.04 163.5,-428.04 170.5,-428.04"/>
</g>
<!-- op_assign_l -->
<g id="node6" class="node">
<title>op_assign_l</title>
<polygon fill="none" stroke="black" points="266,-489.5 212,-489.5 212,-453.5 266,-453.5 266,-489.5"/>
<text xml:space="preserve" text-anchor="middle" x="239" y="-466.45" font-family="Times New Roman,serif" font-size="14.00">l = 1</text>
</g>
<!-- op_assign_l&#45;&gt;op_compare -->
<g id="edge6" class="edge">
<title>op_assign_l&#45;&gt;op_compare</title>
<path fill="none" stroke="black" d="M221.57,-453.31C212.88,-444.74 202.2,-434.21 192.6,-424.74"/>
<polygon fill="black" stroke="black" points="195.17,-422.37 185.6,-417.84 190.26,-427.35 195.17,-422.37"/>
</g>
<!-- op_assign_jstack -->
<g id="node7" class="node">
<title>op_assign_jstack</title>
<polygon fill="none" stroke="black" points="430,-562.5 360,-562.5 360,-526.5 430,-526.5 430,-562.5"/>
<text xml:space="preserve" text-anchor="middle" x="395" y="-539.45" font-family="Times New Roman,serif" font-size="14.00">jstack = 0</text>
</g>
<!-- op_compare&#45;&gt;op_swap -->
<g id="edge9" class="edge">
<title>op_compare&#45;&gt;op_swap</title>
<path fill="none" stroke="black" d="M173.76,-380.24C179.9,-362.99 188,-335.57 188,-311 188,-311 188,-311 188,-163 188,-133.43 158.02,-114.62 131.92,-103.84"/>
<polygon fill="black" stroke="black" points="133.45,-100.67 122.86,-100.37 130.95,-107.21 133.45,-100.67"/>
<text xml:space="preserve" text-anchor="middle" x="200.75" y="-231.95" font-family="Times New Roman,serif" font-size="14.00">false</text>
</g>
<!-- op_compare&#45;&gt;op_assign_a -->
<g id="edge8" class="edge">
<title>op_compare&#45;&gt;op_assign_a</title>
<path fill="none" stroke="black" d="M155.54,-380.41C147.41,-368.29 136.34,-351.77 127.03,-337.89"/>
<polygon fill="black" stroke="black" points="129.95,-335.96 121.48,-329.61 124.14,-339.86 129.95,-335.96"/>
<text xml:space="preserve" text-anchor="middle" x="153.69" y="-349.2" font-family="Times New Roman,serif" font-size="14.00">true</text>
</g>
<!-- arr_out -->
<g id="node14" class="node">
<title>arr_out</title>
<ellipse fill="lightgreen" stroke="black" cx="94" cy="-18" rx="64.15" ry="18"/>
<text xml:space="preserve" text-anchor="middle" x="94" y="-12.95" font-family="Times New Roman,serif" font-size="14.00">arr (ordenado)</text>
</g>
<!-- op_swap&#45;&gt;arr_out -->
<g id="edge11" class="edge">
<title>op_swap&#45;&gt;arr_out</title>
<path fill="none" stroke="black" d="M94,-72.81C94,-65.23 94,-56.1 94,-47.54"/>
<polygon fill="black" stroke="black" points="97.5,-47.54 94,-37.54 90.5,-47.54 97.5,-47.54"/>
</g>
<!-- op_compare_arr&#45;&gt;op_swap -->
<g id="edge13" class="edge">
<title>op_compare_arr&#45;&gt;op_swap</title>
<path fill="none" stroke="black" d="M94,-145.81C94,-138.23 94,-129.1 94,-120.54"/>
<polygon fill="black" stroke="black" points="97.5,-120.54 94,-110.54 90.5,-120.54 97.5,-120.54"/>
</g>
<!-- op_index -->
<g id="node11" class="node">
<title>op_index</title>
<polygon fill="none" stroke="black" points="152.25,-255 65.75,-255 65.75,-219 152.25,-219 152.25,-255"/>
<text xml:space="preserve" text-anchor="middle" x="109" y="-231.95" font-family="Times New Roman,serif" font-size="14.00">Acesso arr[i]</text>
</g>
<!-- op_index&#45;&gt;op_compare_arr -->
<g id="edge12" class="edge">
<title>op_index&#45;&gt;op_compare_arr</title>
<path fill="none" stroke="black" d="M105.37,-218.81C103.75,-211.14 101.79,-201.89 99.97,-193.24"/>
<polygon fill="black" stroke="black" points="103.4,-192.57 97.91,-183.51 96.55,-194.02 103.4,-192.57"/>
</g>
<!-- op_assign_a&#45;&gt;op_index -->
<g id="edge10" class="edge">
<title>op_assign_a&#45;&gt;op_index</title>
<path fill="none" stroke="black" d="M109,-291.81C109,-284.23 109,-275.1 109,-266.54"/>
<polygon fill="black" stroke="black" points="112.5,-266.54 109,-256.54 105.5,-266.54 112.5,-266.54"/>
</g>
<!-- op_assign_stack -->
<g id="node13" class="node">
<title>op_assign_stack</title>
<polygon fill="none" stroke="black" points="553.62,-562.5 448.38,-562.5 448.38,-526.5 553.62,-526.5 553.62,-562.5"/>
<text xml:space="preserve" text-anchor="middle" x="501" y="-539.45" font-family="Times New Roman,serif" font-size="14.00">Atribuicao stack</text>
</g>
<!-- jstack_out -->
<g id="node15" class="node">
<title>jstack_out</title>
<ellipse fill="lightgreen" stroke="black" cx="424" cy="-471.5" rx="32.41" ry="18"/>
<text xml:space="preserve" text-anchor="middle" x="424" y="-466.45" font-family="Times New Roman,serif" font-size="14.00">jstack</text>
</g>
<!-- op_assign_stack&#45;&gt;jstack_out -->
<g id="edge14" class="edge">
<title>op_assign_stack&#45;&gt;jstack_out</title>
<path fill="none" stroke="black" d="M482.36,-526.31C472.18,-516.92 459.44,-505.18 448.46,-495.06"/>
<polygon fill="black" stroke="black" points="450.96,-492.6 441.23,-488.39 446.21,-497.74 450.96,-492.6"/>
</g>
<!-- ir_out -->
<g id="node16" class="node">
<title>ir_out</title>
<ellipse fill="lightgreen" stroke="black" cx="501" cy="-471.5" rx="27" ry="18"/>
<text xml:space="preserve" text-anchor="middle" x="501" y="-466.45" font-family="Times New Roman,serif" font-size="14.00">ir</text>
</g>
<!-- op_assign_stack&#45;&gt;ir_out -->
<g id="edge15" class="edge">
<title>op_assign_stack&#45;&gt;ir_out</title>
<path fill="none" stroke="black" d="M501,-526.31C501,-518.73 501,-509.6 501,-501.04"/>
<polygon fill="black" stroke="black" points="504.5,-501.04 501,-491.04 497.5,-501.04 504.5,-501.04"/>
</g>
<!-- l_out -->
<g id="node17" class="node">
<title>l_out</title>
<ellipse fill="lightgreen" stroke="black" cx="573" cy="-471.5" rx="27" ry="18"/>
<text xml:space="preserve" text-anchor="middle" x="573" y="-466.45" font-family="Times New Roman,serif" font-size="14.00">l</text>
</g>
<!-- op_assign_stack&#45;&gt;l_out -->
<g id="edge16" class="edge">
<title>op_assign_stack&#45;&gt;l_out</title>
<path fill="none" stroke="black" d="M518.43,-526.31C528.05,-516.82 540.12,-504.93 550.45,-494.74"/>
<polygon fill="black" stroke="black" points="552.89,-497.24 557.56,-487.73 547.98,-492.26 552.89,-497.24"/>
</g>
</g>
</svg>
