<?xml version="1.0" encoding="UTF-8" standalone="no"?>
<!DOCTYPE svg PUBLIC "-//W3C//DTD SVG 1.1//EN"
 "http://www.w3.org/Graphics/SVG/1.1/DTD/svg11.dtd">
<!-- Generated by graphviz version 13.1.2 (20250808.2320)
 -->
<!-- Title: compress_DFG Pages: 1 -->
<svg width="1091pt" height="825pt"
 viewBox="0.00 0.00 1091.00 825.00" xmlns="http://www.w3.org/2000/svg" xmlns:xlink="http://www.w3.org/1999/xlink">
<g id="graph0" class="graph" transform="scale(1 1) rotate(0) translate(4 820.5)">
<title>compress_DFG</title>
<polygon fill="white" stroke="none" points="-4,4 -4,-820.5 1087.14,-820.5 1087.14,4 -4,4"/>
<!-- InCnt -->
<g id="node1" class="node">
<title>InCnt</title>
<ellipse fill="lightblue" stroke="black" cx="226" cy="-798.5" rx="31.9" ry="18"/>
<text xml:space="preserve" text-anchor="middle" x="226" y="-793.45" font-family="Times New Roman,serif" font-size="14.00">InCnt</text>
</g>
<!-- op_getbyte -->
<g id="node17" class="node">
<title>op_getbyte</title>
<polygon fill="none" stroke="black" points="300.38,-743.5 235.62,-743.5 235.62,-707.5 300.38,-707.5 300.38,-743.5"/>
<text xml:space="preserve" text-anchor="middle" x="268" y="-720.45" font-family="Times New Roman,serif" font-size="14.00">getbyte()</text>
</g>
<!-- InCnt&#45;&gt;op_getbyte -->
<g id="edge1" class="edge">
<title>InCnt&#45;&gt;op_getbyte</title>
<path fill="none" stroke="black" d="M235.74,-781.03C240.53,-772.94 246.43,-762.97 251.87,-753.77"/>
<polygon fill="black" stroke="black" points="254.88,-755.56 256.96,-745.17 248.85,-752 254.88,-755.56"/>
</g>
<!-- InBuff -->
<g id="node2" class="node">
<title>InBuff</title>
<ellipse fill="lightblue" stroke="black" cx="311" cy="-798.5" rx="35.49" ry="18"/>
<text xml:space="preserve" text-anchor="middle" x="311" y="-793.45" font-family="Times New Roman,serif" font-size="14.00">InBuff</text>
</g>
<!-- InBuff&#45;&gt;op_getbyte -->
<g id="edge2" class="edge">
<title>InBuff&#45;&gt;op_getbyte</title>
<path fill="none" stroke="black" d="M301.03,-781.03C296.07,-772.85 289.96,-762.75 284.34,-753.48"/>
<polygon fill="black" stroke="black" points="287.48,-751.9 279.3,-745.16 281.49,-755.53 287.48,-751.9"/>
</g>
<!-- ent -->
<g id="node3" class="node">
<title>ent</title>
<ellipse fill="lightblue" stroke="black" cx="27" cy="-310" rx="27" ry="18"/>
<text xml:space="preserve" text-anchor="middle" x="27" y="-304.95" font-family="Times New Roman,serif" font-size="14.00">ent</text>
</g>
<!-- op_compute_fcode -->
<g id="node20" class="node">
<title>op_compute_fcode</title>
<polygon fill="none" stroke="black" points="184.75,-597.5 23.25,-597.5 23.25,-561.5 184.75,-561.5 184.75,-597.5"/>
<text xml:space="preserve" text-anchor="middle" x="104" y="-574.45" font-family="Times New Roman,serif" font-size="14.00">fcode = (c&lt;&lt;maxbits)+ent</text>
</g>
<!-- ent&#45;&gt;op_compute_fcode -->
<g id="edge5" class="edge">
<title>ent&#45;&gt;op_compute_fcode</title>
<path fill="none" stroke="black" d="M27.82,-328.37C29.08,-349.44 32.11,-385.93 39,-416.5 46.54,-449.96 51.4,-457.6 64,-489.5 72.3,-510.51 82.8,-533.77 90.96,-551.25"/>
<polygon fill="black" stroke="black" points="87.63,-552.38 95.06,-559.94 93.96,-549.4 87.63,-552.38"/>
</g>
<!-- c -->
<g id="node4" class="node">
<title>c</title>
<ellipse fill="lightblue" stroke="black" cx="268" cy="-652.5" rx="27" ry="18"/>
<text xml:space="preserve" text-anchor="middle" x="268" y="-647.45" font-family="Times New Roman,serif" font-size="14.00">c</text>
</g>
<!-- c&#45;&gt;op_compute_fcode -->
<g id="edge4" class="edge">
<title>c&#45;&gt;op_compute_fcode</title>
<path fill="none" stroke="black" d="M245.88,-641.92C222.65,-631.87 185.33,-615.71 154.79,-602.49"/>
<polygon fill="black" stroke="black" points="156.26,-599.31 145.7,-598.55 153.48,-605.74 156.26,-599.31"/>
</g>
<!-- op_compute_i -->
<g id="node21" class="node">
<title>op_compute_i</title>
<polygon fill="none" stroke="black" points="366.5,-543.5 245.5,-543.5 245.5,-507.5 366.5,-507.5 366.5,-543.5"/>
<text xml:space="preserve" text-anchor="middle" x="306" y="-520.45" font-family="Times New Roman,serif" font-size="14.00">i = (c&lt;&lt;hshift)^ent</text>
</g>
<!-- c&#45;&gt;op_compute_i -->
<g id="edge7" class="edge">
<title>c&#45;&gt;op_compute_i</title>
<path fill="none" stroke="black" d="M273.2,-634.38C279.45,-613.83 290.01,-579.08 297.46,-554.58"/>
<polygon fill="black" stroke="black" points="300.74,-555.85 300.3,-545.26 294.04,-553.81 300.74,-555.85"/>
</g>
<!-- fcode -->
<g id="node5" class="node">
<title>fcode</title>
<ellipse fill="lightblue" stroke="black" cx="104" cy="-471.5" rx="31.39" ry="18"/>
<text xml:space="preserve" text-anchor="middle" x="104" y="-466.45" font-family="Times New Roman,serif" font-size="14.00">fcode</text>
</g>
<!-- op_compare -->
<g id="node22" class="node">
<title>op_compare</title>
<polygon fill="none" stroke="black" points="160,-416.5 48,-416.5 48,-380.5 160,-380.5 160,-416.5"/>
<text xml:space="preserve" text-anchor="middle" x="104" y="-393.45" font-family="Times New Roman,serif" font-size="14.00">htab[i] == fcode?</text>
</g>
<!-- fcode&#45;&gt;op_compare -->
<g id="edge11" class="edge">
<title>fcode&#45;&gt;op_compare</title>
<path fill="none" stroke="black" d="M104,-453.31C104,-445.73 104,-436.6 104,-428.04"/>
<polygon fill="black" stroke="black" points="107.5,-428.04 104,-418.04 100.5,-428.04 107.5,-428.04"/>
</g>
<!-- i -->
<g id="node6" class="node">
<title>i</title>
<ellipse fill="lightblue" stroke="black" cx="220" cy="-91" rx="27" ry="18"/>
<text xml:space="preserve" text-anchor="middle" x="220" y="-85.95" font-family="Times New Roman,serif" font-size="14.00">i</text>
</g>
<!-- op_htab -->
<g id="node18" class="node">
<title>op_htab</title>
<polygon fill="none" stroke="black" points="247,-36 193,-36 193,0 247,0 247,-36"/>
<text xml:space="preserve" text-anchor="middle" x="220" y="-12.95" font-family="Times New Roman,serif" font-size="14.00">htab[i]</text>
</g>
<!-- i&#45;&gt;op_htab -->
<g id="edge9" class="edge">
<title>i&#45;&gt;op_htab</title>
<path fill="none" stroke="black" d="M214.16,-73.17C213.34,-65.56 213.07,-56.35 213.36,-47.7"/>
<polygon fill="black" stroke="black" points="216.84,-48.16 214,-37.96 209.85,-47.71 216.84,-48.16"/>
</g>
<!-- i&#45;&gt;op_htab -->
<g id="edge19" class="edge">
<title>i&#45;&gt;op_htab</title>
<path fill="none" stroke="black" d="M225.84,-73.17C226.66,-65.56 226.93,-56.35 226.64,-47.7"/>
<polygon fill="black" stroke="black" points="230.15,-47.71 226,-37.96 223.16,-48.16 230.15,-47.71"/>
</g>
<!-- op_disp -->
<g id="node23" class="node">
<title>op_disp</title>
<polygon fill="none" stroke="black" points="238.88,-328 117.12,-328 117.12,-292 238.88,-292 238.88,-328"/>
<text xml:space="preserve" text-anchor="middle" x="178" y="-304.95" font-family="Times New Roman,serif" font-size="14.00">disp = hsize_reg &#45; i</text>
</g>
<!-- i&#45;&gt;op_disp -->
<g id="edge14" class="edge">
<title>i&#45;&gt;op_disp</title>
<path fill="none" stroke="black" d="M197.65,-101.34C180.04,-110.05 156.74,-124.87 146,-146 123.6,-190.08 145.55,-248.22 162.5,-281.83"/>
<polygon fill="black" stroke="black" points="159.31,-283.27 167.06,-290.48 165.5,-280.01 159.31,-283.27"/>
</g>
<!-- op_adjust_i -->
<g id="node24" class="node">
<title>op_adjust_i</title>
<polygon fill="none" stroke="black" points="284.62,-182 155.38,-182 155.38,-146 284.62,-146 284.62,-182"/>
<text xml:space="preserve" text-anchor="middle" x="220" y="-158.95" font-family="Times New Roman,serif" font-size="14.00">i &#45;= disp; if&lt;0 adjust</text>
</g>
<!-- i&#45;&gt;op_adjust_i -->
<g id="edge17" class="edge">
<title>i&#45;&gt;op_adjust_i</title>
<path fill="none" stroke="black" d="M225.86,-109.03C226.67,-116.68 226.93,-125.92 226.63,-134.58"/>
<polygon fill="black" stroke="black" points="223.15,-134.09 225.98,-144.3 230.14,-134.56 223.15,-134.09"/>
</g>
<!-- disp -->
<g id="node7" class="node">
<title>disp</title>
<ellipse fill="lightblue" stroke="black" cx="195" cy="-237" rx="27" ry="18"/>
<text xml:space="preserve" text-anchor="middle" x="195" y="-231.95" font-family="Times New Roman,serif" font-size="14.00">disp</text>
</g>
<!-- disp&#45;&gt;op_adjust_i -->
<g id="edge16" class="edge">
<title>disp&#45;&gt;op_adjust_i</title>
<path fill="none" stroke="black" d="M200.92,-219.17C203.67,-211.39 207,-201.93 210.1,-193.11"/>
<polygon fill="black" stroke="black" points="213.33,-194.47 213.35,-183.87 206.73,-192.14 213.33,-194.47"/>
</g>
<!-- free_ent -->
<g id="node8" class="node">
<title>free_ent</title>
<ellipse fill="lightblue" stroke="black" cx="610" cy="-652.5" rx="41.12" ry="18"/>
<text xml:space="preserve" text-anchor="middle" x="610" y="-647.45" font-family="Times New Roman,serif" font-size="14.00">free_ent</text>
</g>
<!-- op_output -->
<g id="node25" class="node">
<title>op_output</title>
<polygon fill="none" stroke="black" points="565.5,-597.5 480.5,-597.5 480.5,-561.5 565.5,-561.5 565.5,-597.5"/>
<text xml:space="preserve" text-anchor="middle" x="523" y="-574.45" font-family="Times New Roman,serif" font-size="14.00">output(code)</text>
</g>
<!-- free_ent&#45;&gt;op_output -->
<g id="edge20" class="edge">
<title>free_ent&#45;&gt;op_output</title>
<path fill="none" stroke="black" d="M591.12,-636.09C580.02,-627.04 565.73,-615.38 553.11,-605.07"/>
<polygon fill="black" stroke="black" points="555.42,-602.44 545.46,-598.83 550.99,-607.86 555.42,-602.44"/>
</g>
<!-- maxmaxcode -->
<g id="node9" class="node">
<title>maxmaxcode</title>
<ellipse fill="lightblue" stroke="black" cx="416" cy="-652.5" rx="61.08" ry="18"/>
<text xml:space="preserve" text-anchor="middle" x="416" y="-647.45" font-family="Times New Roman,serif" font-size="14.00">maxmaxcode</text>
</g>
<!-- maxmaxcode&#45;&gt;op_output -->
<g id="edge21" class="edge">
<title>maxmaxcode&#45;&gt;op_output</title>
<path fill="none" stroke="black" d="M440.01,-635.57C453.99,-626.29 471.88,-614.42 487.47,-604.08"/>
<polygon fill="black" stroke="black" points="489.16,-607.15 495.56,-598.71 485.29,-601.32 489.16,-607.15"/>
</g>
<!-- in_count -->
<g id="node10" class="node">
<title>in_count</title>
<ellipse fill="lightblue" stroke="black" cx="566" cy="-798.5" rx="43.16" ry="18"/>
<text xml:space="preserve" text-anchor="middle" x="566" y="-793.45" font-family="Times New Roman,serif" font-size="14.00">in_count</text>
</g>
<!-- op_cl_block -->
<g id="node26" class="node">
<title>op_cl_block</title>
<polygon fill="none" stroke="black" points="714.75,-743.5 643.25,-743.5 643.25,-707.5 714.75,-707.5 714.75,-743.5"/>
<text xml:space="preserve" text-anchor="middle" x="679" y="-720.45" font-family="Times New Roman,serif" font-size="14.00">cl_block()</text>
</g>
<!-- in_count&#45;&gt;op_cl_block -->
<g id="edge22" class="edge">
<title>in_count&#45;&gt;op_cl_block</title>
<path fill="none" stroke="black" d="M589.14,-782.96C604.39,-773.38 624.7,-760.62 642.16,-749.65"/>
<polygon fill="black" stroke="black" points="643.62,-752.86 650.22,-744.58 639.9,-746.94 643.62,-752.86"/>
</g>
<!-- checkpoint -->
<g id="node11" class="node">
<title>checkpoint</title>
<ellipse fill="lightblue" stroke="black" cx="679" cy="-798.5" rx="51.35" ry="18"/>
<text xml:space="preserve" text-anchor="middle" x="679" y="-793.45" font-family="Times New Roman,serif" font-size="14.00">checkpoint</text>
</g>
<!-- checkpoint&#45;&gt;op_cl_block -->
<g id="edge23" class="edge">
<title>checkpoint&#45;&gt;op_cl_block</title>
<path fill="none" stroke="black" d="M679,-780.31C679,-772.73 679,-763.6 679,-755.04"/>
<polygon fill="black" stroke="black" points="682.5,-755.04 679,-745.04 675.5,-755.04 682.5,-755.04"/>
</g>
<!-- block_compress -->
<g id="node12" class="node">
<title>block_compress</title>
<ellipse fill="lightblue" stroke="black" cx="820" cy="-798.5" rx="71.31" ry="18"/>
<text xml:space="preserve" text-anchor="middle" x="820" y="-793.45" font-family="Times New Roman,serif" font-size="14.00">block_compress</text>
</g>
<!-- block_compress&#45;&gt;op_cl_block -->
<g id="edge24" class="edge">
<title>block_compress&#45;&gt;op_cl_block</title>
<path fill="none" stroke="black" d="M789.06,-781.92C769.9,-772.27 744.98,-759.72 723.7,-749.01"/>
<polygon fill="black" stroke="black" points="725.44,-745.97 714.94,-744.6 722.29,-752.22 725.44,-745.97"/>
</g>
<!-- code -->
<g id="node13" class="node">
<title>code</title>
<ellipse fill="lightblue" stroke="black" cx="523" cy="-652.5" rx="28.32" ry="18"/>
<text xml:space="preserve" text-anchor="middle" x="523" y="-647.45" font-family="Times New Roman,serif" font-size="14.00">code</text>
</g>
<!-- code&#45;&gt;op_output -->
<g id="edge25" class="edge">
<title>code&#45;&gt;op_output</title>
<path fill="none" stroke="black" d="M523,-634.31C523,-626.73 523,-617.6 523,-609.04"/>
<polygon fill="black" stroke="black" points="526.5,-609.04 523,-599.04 519.5,-609.04 526.5,-609.04"/>
</g>
<!-- offset -->
<g id="node14" class="node">
<title>offset</title>
<ellipse fill="lightblue" stroke="black" cx="472" cy="-471.5" rx="31.9" ry="18"/>
<text xml:space="preserve" text-anchor="middle" x="472" y="-466.45" font-family="Times New Roman,serif" font-size="14.00">offset</text>
</g>
<!-- offset&#45;&gt;op_output -->
<g id="edge26" class="edge">
<title>offset&#45;&gt;op_output</title>
<path fill="none" stroke="black" d="M484.66,-488.45C494.54,-504.95 507.43,-531.04 515.73,-550.9"/>
<polygon fill="black" stroke="black" points="512.42,-552.06 519.36,-560.06 518.93,-549.48 512.42,-552.06"/>
</g>
<!-- n_bits -->
<g id="node15" class="node">
<title>n_bits</title>
<ellipse fill="lightblue" stroke="black" cx="389" cy="-471.5" rx="33.44" ry="18"/>
<text xml:space="preserve" text-anchor="middle" x="389" y="-466.45" font-family="Times New Roman,serif" font-size="14.00">n_bits</text>
</g>
<!-- n_bits&#45;&gt;op_output -->
<g id="edge27" class="edge">
<title>n_bits&#45;&gt;op_output</title>
<path fill="none" stroke="black" d="M410.38,-485.73C434.21,-502.74 472.34,-532.59 497.63,-553.83"/>
<polygon fill="black" stroke="black" points="495.28,-556.43 505.16,-560.25 499.82,-551.1 495.28,-556.43"/>
</g>
<!-- clear_flg -->
<g id="node16" class="node">
<title>clear_flg</title>
<ellipse fill="lightblue" stroke="black" cx="667" cy="-471.5" rx="43.67" ry="18"/>
<text xml:space="preserve" text-anchor="middle" x="667" y="-466.45" font-family="Times New Roman,serif" font-size="14.00">clear_flg</text>
</g>
<!-- clear_flg&#45;&gt;op_output -->
<g id="edge28" class="edge">
<title>clear_flg&#45;&gt;op_output</title>
<path fill="none" stroke="black" d="M650.42,-488.37C628.61,-505.95 590.12,-534.47 561.06,-554.71"/>
<polygon fill="black" stroke="black" points="559.09,-551.82 552.84,-560.37 563.06,-557.58 559.09,-551.82"/>
</g>
<!-- op_getbyte&#45;&gt;c -->
<g id="edge3" class="edge">
<title>op_getbyte&#45;&gt;c</title>
<path fill="none" stroke="black" d="M268,-707.31C268,-699.73 268,-690.6 268,-682.04"/>
<polygon fill="black" stroke="black" points="271.5,-682.04 268,-672.04 264.5,-682.04 271.5,-682.04"/>
</g>
<!-- op_htab&#45;&gt;op_compare -->
<g id="edge10" class="edge">
<title>op_htab&#45;&gt;op_compare</title>
<path fill="none" stroke="black" d="M192.54,-21.7C154.12,-27.16 89,-43.31 89,-90 89,-311 89,-311 89,-311 89,-330.69 92.82,-352.54 96.6,-369.35"/>
<polygon fill="black" stroke="black" points="93.09,-369.71 98.82,-378.62 99.9,-368.08 93.09,-369.71"/>
</g>
<!-- op_codetab -->
<g id="node19" class="node">
<title>op_codetab</title>
<polygon fill="none" stroke="black" points="980.38,-816.5 909.62,-816.5 909.62,-780.5 980.38,-780.5 980.38,-816.5"/>
<text xml:space="preserve" text-anchor="middle" x="945" y="-793.45" font-family="Times New Roman,serif" font-size="14.00">codetab[i]</text>
</g>
<!-- op_compute_fcode&#45;&gt;fcode -->
<g id="edge6" class="edge">
<title>op_compute_fcode&#45;&gt;fcode</title>
<path fill="none" stroke="black" d="M104,-561.47C104,-545.26 104,-520.56 104,-501.29"/>
<polygon fill="black" stroke="black" points="107.5,-501.35 104,-491.35 100.5,-501.35 107.5,-501.35"/>
</g>
<!-- op_compute_i&#45;&gt;i -->
<g id="edge8" class="edge">
<title>op_compute_i&#45;&gt;i</title>
<path fill="none" stroke="black" d="M308.18,-507.14C310.23,-489.22 313,-460.45 313,-435.5 313,-435.5 313,-435.5 313,-163 313,-132.65 281.32,-113.54 254.94,-102.89"/>
<polygon fill="black" stroke="black" points="256.44,-99.72 245.85,-99.49 253.99,-106.27 256.44,-99.72"/>
</g>
<!-- op_compare&#45;&gt;ent -->
<g id="edge12" class="edge">
<title>op_compare&#45;&gt;ent</title>
<path fill="none" stroke="black" d="M74.06,-380.01C66.93,-374.96 59.74,-369.02 54,-362.5 47.62,-355.25 42.24,-346.23 38.01,-337.78"/>
<polygon fill="black" stroke="black" points="41.28,-336.52 33.9,-328.92 34.93,-339.46 41.28,-336.52"/>
<text xml:space="preserve" text-anchor="middle" x="64.5" y="-349.2" font-family="Times New Roman,serif" font-size="14.00">true</text>
</g>
<!-- op_compare&#45;&gt;op_disp -->
<g id="edge13" class="edge">
<title>op_compare&#45;&gt;op_disp</title>
<path fill="none" stroke="black" d="M118.62,-380.41C129.19,-368.05 143.67,-351.13 155.68,-337.08"/>
<polygon fill="black" stroke="black" points="158.33,-339.37 162.17,-329.5 153.01,-334.82 158.33,-339.37"/>
<text xml:space="preserve" text-anchor="middle" x="160.38" y="-349.2" font-family="Times New Roman,serif" font-size="14.00">false</text>
</g>
<!-- op_disp&#45;&gt;disp -->
<g id="edge15" class="edge">
<title>op_disp&#45;&gt;disp</title>
<path fill="none" stroke="black" d="M182.12,-291.81C183.97,-284.05 186.22,-274.68 188.31,-265.95"/>
<polygon fill="black" stroke="black" points="191.65,-267.04 190.57,-256.5 184.84,-265.41 191.65,-267.04"/>
</g>
<!-- op_adjust_i&#45;&gt;i -->
<g id="edge18" class="edge">
<title>op_adjust_i&#45;&gt;i</title>
<path fill="none" stroke="black" d="M214.12,-145.81C213.32,-138.14 213.07,-128.89 213.38,-120.24"/>
<polygon fill="black" stroke="black" points="216.85,-120.75 214.04,-110.54 209.87,-120.28 216.85,-120.75"/>
</g>
<!-- op_output&#45;&gt;offset -->
<g id="edge31" class="edge">
<title>op_output&#45;&gt;offset</title>
<path fill="none" stroke="black" d="M509.69,-561.47C499.97,-545.03 487.55,-519.85 479.43,-500.47"/>
<polygon fill="black" stroke="black" points="482.71,-499.24 475.75,-491.25 476.2,-501.83 482.71,-499.24"/>
</g>
<!-- op_output&#45;&gt;n_bits -->
<g id="edge32" class="edge">
<title>op_output&#45;&gt;n_bits</title>
<path fill="none" stroke="black" d="M496.03,-561.23C471.43,-543.31 435.7,-515.19 412.3,-495.42"/>
<polygon fill="black" stroke="black" points="414.71,-492.87 404.84,-489.02 410.15,-498.19 414.71,-492.87"/>
</g>
<!-- op_output&#45;&gt;clear_flg -->
<g id="edge33" class="edge">
<title>op_output&#45;&gt;clear_flg</title>
<path fill="none" stroke="black" d="M541.32,-561.23C564.63,-542.58 604.89,-512.86 633.66,-493.02"/>
<polygon fill="black" stroke="black" points="635.39,-496.08 641.68,-487.55 631.44,-490.29 635.39,-496.08"/>
</g>
<!-- OutBuff -->
<g id="node27" class="node">
<title>OutBuff</title>
<ellipse fill="lightgreen" stroke="black" cx="564" cy="-471.5" rx="41.63" ry="18"/>
<text xml:space="preserve" text-anchor="middle" x="564" y="-466.45" font-family="Times New Roman,serif" font-size="14.00">OutBuff</text>
</g>
<!-- op_output&#45;&gt;OutBuff -->
<g id="edge29" class="edge">
<title>op_output&#45;&gt;OutBuff</title>
<path fill="none" stroke="black" d="M529.59,-561.47C535.98,-544.93 545.8,-519.55 553.31,-500.13"/>
<polygon fill="black" stroke="black" points="556.54,-501.49 556.88,-490.9 550.01,-498.96 556.54,-501.49"/>
</g>
<!-- bytes_out -->
<g id="node28" class="node">
<title>bytes_out</title>
<ellipse fill="lightgreen" stroke="black" cx="775" cy="-471.5" rx="46.75" ry="18"/>
<text xml:space="preserve" text-anchor="middle" x="775" y="-466.45" font-family="Times New Roman,serif" font-size="14.00">bytes_out</text>
</g>
<!-- op_output&#45;&gt;bytes_out -->
<g id="edge30" class="edge">
<title>op_output&#45;&gt;bytes_out</title>
<path fill="none" stroke="black" d="M565.81,-563.47C582.23,-557.51 601.08,-550.43 618,-543.5 658.91,-526.74 704.91,-505.67 736.49,-490.85"/>
<polygon fill="black" stroke="black" points="737.69,-494.15 745.25,-486.72 734.71,-487.82 737.69,-494.15"/>
</g>
<!-- op_cl_block&#45;&gt;free_ent -->
<g id="edge34" class="edge">
<title>op_cl_block&#45;&gt;free_ent</title>
<path fill="none" stroke="black" d="M662.3,-707.31C653.66,-698.43 642.97,-687.43 633.52,-677.7"/>
<polygon fill="black" stroke="black" points="636.14,-675.37 626.66,-670.64 631.12,-680.25 636.14,-675.37"/>
</g>
<!-- op_cl_block&#45;&gt;clear_flg -->
<g id="edge35" class="edge">
<title>op_cl_block&#45;&gt;clear_flg</title>
<path fill="none" stroke="black" d="M678.18,-707.18C676.14,-664.47 670.87,-553.77 668.36,-501.13"/>
<polygon fill="black" stroke="black" points="671.87,-501.28 667.9,-491.45 664.88,-501.61 671.87,-501.28"/>
</g>
<!-- ratio -->
<g id="node30" class="node">
<title>ratio</title>
<ellipse fill="lightgreen" stroke="black" cx="735" cy="-652.5" rx="27.81" ry="18"/>
<text xml:space="preserve" text-anchor="middle" x="735" y="-647.45" font-family="Times New Roman,serif" font-size="14.00">ratio</text>
</g>
<!-- op_cl_block&#45;&gt;ratio -->
<g id="edge36" class="edge">
<title>op_cl_block&#45;&gt;ratio</title>
<path fill="none" stroke="black" d="M692.56,-707.31C699.52,-698.48 708.13,-687.56 715.77,-677.88"/>
<polygon fill="black" stroke="black" points="718.33,-680.28 721.78,-670.26 712.84,-675.95 718.33,-680.28"/>
</g>
<!-- exit_stat -->
<g id="node29" class="node">
<title>exit_stat</title>
<ellipse fill="lightgreen" stroke="black" cx="1041" cy="-798.5" rx="42.14" ry="18"/>
<text xml:space="preserve" text-anchor="middle" x="1041" y="-793.45" font-family="Times New Roman,serif" font-size="14.00">exit_stat</text>
</g>
</g>
</svg>
