<?xml version="1.0" encoding="UTF-8" standalone="no"?>
<!DOCTYPE svg PUBLIC "-//W3C//DTD SVG 1.1//EN"
 "http://www.w3.org/Graphics/SVG/1.1/DTD/svg11.dtd">
<!-- Generated by graphviz version 13.1.2 (20250808.2320)
 -->
<!-- Title: compress_CFG Pages: 1 -->
<svg width="1955pt" height="1844pt"
 viewBox="0.00 0.00 1955.00 1844.00" xmlns="http://www.w3.org/2000/svg" xmlns:xlink="http://www.w3.org/1999/xlink">
<g id="graph0" class="graph" transform="scale(1 1) rotate(0) translate(4 1840.25)">
<title>compress_CFG</title>
<polygon fill="white" stroke="none" points="-4,4 -4,-1840.25 1951,-1840.25 1951,4 -4,4"/>
<!-- M1 -->
<g id="node1" class="node">
<title>M1</title>
<path fill="none" stroke="black" d="M361,-1836.25C361,-1836.25 183,-1836.25 183,-1836.25 177,-1836.25 171,-1830.25 171,-1824.25 171,-1824.25 171,-1812.25 171,-1812.25 171,-1806.25 177,-1800.25 183,-1800.25 183,-1800.25 361,-1800.25 361,-1800.25 367,-1800.25 373,-1806.25 373,-1812.25 373,-1812.25 373,-1824.25 373,-1824.25 373,-1830.25 367,-1836.25 361,-1836.25"/>
<text xml:space="preserve" text-anchor="middle" x="272" y="-1812.83" font-family="Helvetica,sans-Serif" font-size="14.00">1: Initialize buffer and variables</text>
</g>
<!-- M2 -->
<g id="node2" class="node">
<title>M2</title>
<path fill="none" stroke="black" d="M347.88,-1748.5C347.88,-1748.5 196.12,-1748.5 196.12,-1748.5 190.12,-1748.5 184.12,-1742.5 184.12,-1736.5 184.12,-1736.5 184.12,-1724.5 184.12,-1724.5 184.12,-1718.5 190.12,-1712.5 196.12,-1712.5 196.12,-1712.5 347.88,-1712.5 347.88,-1712.5 353.88,-1712.5 359.88,-1718.5 359.88,-1724.5 359.88,-1724.5 359.88,-1736.5 359.88,-1736.5 359.88,-1742.5 353.88,-1748.5 347.88,-1748.5"/>
<text xml:space="preserve" text-anchor="middle" x="272" y="-1725.08" font-family="Helvetica,sans-Serif" font-size="14.00">2: Set maxbits = BITS (16)</text>
</g>
<!-- M1&#45;&gt;M2 -->
<g id="edge1" class="edge">
<title>M1&#45;&gt;M2</title>
<path fill="none" stroke="black" d="M272,-1799.9C272,-1788.51 272,-1773.34 272,-1760.18"/>
<polygon fill="black" stroke="black" points="275.5,-1760.34 272,-1750.34 268.5,-1760.34 275.5,-1760.34"/>
</g>
<!-- M3 -->
<g id="node3" class="node">
<title>M3</title>
<path fill="none" stroke="black" d="M394,-1660.75C394,-1660.75 150,-1660.75 150,-1660.75 144,-1660.75 138,-1654.75 138,-1648.75 138,-1648.75 138,-1636.75 138,-1636.75 138,-1630.75 144,-1624.75 150,-1624.75 150,-1624.75 394,-1624.75 394,-1624.75 400,-1624.75 406,-1630.75 406,-1636.75 406,-1636.75 406,-1648.75 406,-1648.75 406,-1654.75 400,-1660.75 394,-1660.75"/>
<text xml:space="preserve" text-anchor="middle" x="272" y="-1637.33" font-family="Helvetica,sans-Serif" font-size="14.00">3: Set InCnt, apsim_InCnt, InBuff, OutBuff</text>
</g>
<!-- M2&#45;&gt;M3 -->
<g id="edge2" class="edge">
<title>M2&#45;&gt;M3</title>
<path fill="none" stroke="black" d="M272,-1712.15C272,-1700.76 272,-1685.59 272,-1672.43"/>
<polygon fill="black" stroke="black" points="275.5,-1672.59 272,-1662.59 268.5,-1672.59 275.5,-1672.59"/>
</g>
<!-- M4 -->
<g id="node4" class="node">
<title>M4</title>
<path fill="none" stroke="black" d="M323.12,-1552.75C323.12,-1552.75 220.88,-1552.75 220.88,-1552.75 214.88,-1552.75 208.88,-1546.75 208.88,-1540.75 208.88,-1540.75 208.88,-1528.75 208.88,-1528.75 208.88,-1522.75 214.88,-1516.75 220.88,-1516.75 220.88,-1516.75 323.12,-1516.75 323.12,-1516.75 329.12,-1516.75 335.12,-1522.75 335.12,-1528.75 335.12,-1528.75 335.12,-1540.75 335.12,-1540.75 335.12,-1546.75 329.12,-1552.75 323.12,-1552.75"/>
<text xml:space="preserve" text-anchor="middle" x="272" y="-1529.33" font-family="Helvetica,sans-Serif" font-size="14.00">4: Call compress()</text>
</g>
<!-- M3&#45;&gt;M4 -->
<g id="edge3" class="edge">
<title>M3&#45;&gt;M4</title>
<path fill="none" stroke="black" d="M272,-1624.72C272,-1608.51 272,-1583.81 272,-1564.54"/>
<polygon fill="black" stroke="black" points="275.5,-1564.6 272,-1554.6 268.5,-1564.6 275.5,-1564.6"/>
</g>
<!-- M5 -->
<g id="node5" class="node">
<title>M5</title>
<path fill="none" stroke="black" d="M301.38,-1479.75C301.38,-1479.75 242.62,-1479.75 242.62,-1479.75 236.62,-1479.75 230.62,-1473.75 230.62,-1467.75 230.62,-1467.75 230.62,-1455.75 230.62,-1455.75 230.62,-1449.75 236.62,-1443.75 242.62,-1443.75 242.62,-1443.75 301.38,-1443.75 301.38,-1443.75 307.38,-1443.75 313.38,-1449.75 313.38,-1455.75 313.38,-1455.75 313.38,-1467.75 313.38,-1467.75 313.38,-1473.75 307.38,-1479.75 301.38,-1479.75"/>
<text xml:space="preserve" text-anchor="middle" x="272" y="-1456.33" font-family="Helvetica,sans-Serif" font-size="14.00">5: Return 0</text>
</g>
<!-- M4&#45;&gt;M5 -->
<g id="edge4" class="edge">
<title>M4&#45;&gt;M5</title>
<path fill="none" stroke="black" d="M272,-1516.56C272,-1508.98 272,-1499.85 272,-1491.29"/>
<polygon fill="black" stroke="black" points="275.5,-1491.29 272,-1481.29 268.5,-1491.29 275.5,-1491.29"/>
</g>
<!-- C1 -->
<g id="node6" class="node">
<title>C1</title>
<path fill="none" stroke="black" d="M657.25,-1836.25C657.25,-1836.25 402.75,-1836.25 402.75,-1836.25 396.75,-1836.25 390.75,-1830.25 390.75,-1824.25 390.75,-1824.25 390.75,-1812.25 390.75,-1812.25 390.75,-1806.25 396.75,-1800.25 402.75,-1800.25 402.75,-1800.25 657.25,-1800.25 657.25,-1800.25 663.25,-1800.25 669.25,-1806.25 669.25,-1812.25 669.25,-1812.25 669.25,-1824.25 669.25,-1824.25 669.25,-1830.25 663.25,-1836.25 657.25,-1836.25"/>
<text xml:space="preserve" text-anchor="middle" x="530" y="-1812.83" font-family="Helvetica,sans-Serif" font-size="14.00">1: Initialize variables (offset, bytes_out, etc.)</text>
</g>
<!-- C2 -->
<g id="node7" class="node">
<title>C2</title>
<path fill="none" stroke="black" d="M577.38,-1748.5C577.38,-1748.5 482.62,-1748.5 482.62,-1748.5 476.62,-1748.5 470.62,-1742.5 470.62,-1736.5 470.62,-1736.5 470.62,-1724.5 470.62,-1724.5 470.62,-1718.5 476.62,-1712.5 482.62,-1712.5 482.62,-1712.5 577.38,-1712.5 577.38,-1712.5 583.38,-1712.5 589.38,-1718.5 589.38,-1724.5 589.38,-1724.5 589.38,-1736.5 589.38,-1736.5 589.38,-1742.5 583.38,-1748.5 577.38,-1748.5"/>
<text xml:space="preserve" text-anchor="middle" x="530" y="-1725.08" font-family="Helvetica,sans-Serif" font-size="14.00">2: ent = getbyte()</text>
</g>
<!-- C1&#45;&gt;C2 -->
<g id="edge5" class="edge">
<title>C1&#45;&gt;C2</title>
<path fill="none" stroke="black" d="M530,-1799.9C530,-1788.51 530,-1773.34 530,-1760.18"/>
<polygon fill="black" stroke="black" points="533.5,-1760.34 530,-1750.34 526.5,-1760.34 533.5,-1760.34"/>
</g>
<!-- C3 -->
<g id="node8" class="node">
<title>C3</title>
<path fill="none" stroke="black" d="M579.25,-1660.75C579.25,-1660.75 480.75,-1660.75 480.75,-1660.75 474.75,-1660.75 468.75,-1654.75 468.75,-1648.75 468.75,-1648.75 468.75,-1636.75 468.75,-1636.75 468.75,-1630.75 474.75,-1624.75 480.75,-1624.75 480.75,-1624.75 579.25,-1624.75 579.25,-1624.75 585.25,-1624.75 591.25,-1630.75 591.25,-1636.75 591.25,-1636.75 591.25,-1648.75 591.25,-1648.75 591.25,-1654.75 585.25,-1660.75 579.25,-1660.75"/>
<text xml:space="preserve" text-anchor="middle" x="530" y="-1637.33" font-family="Helvetica,sans-Serif" font-size="14.00">3: Compute hshift</text>
</g>
<!-- C2&#45;&gt;C3 -->
<g id="edge6" class="edge">
<title>C2&#45;&gt;C3</title>
<path fill="none" stroke="black" d="M530,-1712.15C530,-1700.76 530,-1685.59 530,-1672.43"/>
<polygon fill="black" stroke="black" points="533.5,-1672.59 530,-1662.59 526.5,-1672.59 533.5,-1672.59"/>
</g>
<!-- C4 -->
<g id="node9" class="node">
<title>C4</title>
<path fill="none" stroke="black" d="M590.5,-1552.75C590.5,-1552.75 469.5,-1552.75 469.5,-1552.75 463.5,-1552.75 457.5,-1546.75 457.5,-1540.75 457.5,-1540.75 457.5,-1528.75 457.5,-1528.75 457.5,-1522.75 463.5,-1516.75 469.5,-1516.75 469.5,-1516.75 590.5,-1516.75 590.5,-1516.75 596.5,-1516.75 602.5,-1522.75 602.5,-1528.75 602.5,-1528.75 602.5,-1540.75 602.5,-1540.75 602.5,-1546.75 596.5,-1552.75 590.5,-1552.75"/>
<text xml:space="preserve" text-anchor="middle" x="530" y="-1529.33" font-family="Helvetica,sans-Serif" font-size="14.00">4: cl_hash(hsize_reg)</text>
</g>
<!-- C3&#45;&gt;C4 -->
<g id="edge7" class="edge">
<title>C3&#45;&gt;C4</title>
<path fill="none" stroke="black" d="M530,-1624.72C530,-1608.51 530,-1583.81 530,-1564.54"/>
<polygon fill="black" stroke="black" points="533.5,-1564.6 530,-1554.6 526.5,-1564.6 533.5,-1564.6"/>
</g>
<!-- C5 -->
<g id="node10" class="node">
<title>C5</title>
<path fill="none" stroke="black" d="M583,-1479.75C583,-1479.75 477,-1479.75 477,-1479.75 471,-1479.75 465,-1473.75 465,-1467.75 465,-1467.75 465,-1455.75 465,-1455.75 465,-1449.75 471,-1443.75 477,-1443.75 477,-1443.75 583,-1443.75 583,-1443.75 589,-1443.75 595,-1449.75 595,-1455.75 595,-1455.75 595,-1467.75 595,-1467.75 595,-1473.75 589,-1479.75 583,-1479.75"/>
<text xml:space="preserve" text-anchor="middle" x="530" y="-1456.33" font-family="Helvetica,sans-Serif" font-size="14.00">5: while (InCnt &gt; 0)</text>
</g>
<!-- C4&#45;&gt;C5 -->
<g id="edge8" class="edge">
<title>C4&#45;&gt;C5</title>
<path fill="none" stroke="black" d="M530,-1516.56C530,-1508.98 530,-1499.85 530,-1491.29"/>
<polygon fill="black" stroke="black" points="533.5,-1491.29 530,-1481.29 526.5,-1491.29 533.5,-1491.29"/>
</g>
<!-- C6 -->
<g id="node11" class="node">
<title>C6</title>
<path fill="none" stroke="black" d="M349.88,-1392C349.88,-1392 192.12,-1392 192.12,-1392 186.12,-1392 180.12,-1386 180.12,-1380 180.12,-1380 180.12,-1368 180.12,-1368 180.12,-1362 186.12,-1356 192.12,-1356 192.12,-1356 349.88,-1356 349.88,-1356 355.88,-1356 361.88,-1362 361.88,-1368 361.88,-1368 361.88,-1380 361.88,-1380 361.88,-1386 355.88,-1392 349.88,-1392"/>
<text xml:space="preserve" text-anchor="middle" x="271" y="-1368.58" font-family="Helvetica,sans-Serif" font-size="14.00">6: c = getbyte(); in_count++</text>
</g>
<!-- C5&#45;&gt;C6 -->
<g id="edge9" class="edge">
<title>C5&#45;&gt;C6</title>
<path fill="none" stroke="black" d="M468.85,-1443.34C450.51,-1437.92 430.38,-1431.78 412,-1425.75 384.2,-1416.63 353.63,-1405.74 328.07,-1396.38"/>
<polygon fill="black" stroke="black" points="329.46,-1393.16 318.87,-1393 327.05,-1399.73 329.46,-1393.16"/>
<text xml:space="preserve" text-anchor="middle" x="436" y="-1412.45" font-family="Helvetica,sans-Serif" font-size="14.00">InCnt&gt;0</text>
</g>
<!-- C28 -->
<g id="node33" class="node">
<title>C28</title>
<path fill="none" stroke="black" d="M620.5,-1392C620.5,-1392 391.5,-1392 391.5,-1392 385.5,-1392 379.5,-1386 379.5,-1380 379.5,-1380 379.5,-1368 379.5,-1368 379.5,-1362 385.5,-1356 391.5,-1356 391.5,-1356 620.5,-1356 620.5,-1356 626.5,-1356 632.5,-1362 632.5,-1368 632.5,-1368 632.5,-1380 632.5,-1380 632.5,-1386 626.5,-1392 620.5,-1392"/>
<text xml:space="preserve" text-anchor="middle" x="506" y="-1368.58" font-family="Helvetica,sans-Serif" font-size="14.00">28: if (bytes_out &gt; in_count) exit_stat=2</text>
</g>
<!-- C5&#45;&gt;C28 -->
<g id="edge10" class="edge">
<title>C5&#45;&gt;C28</title>
<path fill="none" stroke="black" d="M484.15,-1443.32C477.2,-1438.67 470.96,-1432.89 466.75,-1425.75 461.64,-1417.08 465.02,-1408.21 471.54,-1400.36"/>
<polygon fill="black" stroke="black" points="473.93,-1402.92 478.52,-1393.38 468.98,-1397.98 473.93,-1402.92"/>
<text xml:space="preserve" text-anchor="middle" x="494.88" y="-1412.45" font-family="Helvetica,sans-Serif" font-size="14.00">InCnt&lt;=0</text>
</g>
<!-- C7 -->
<g id="node12" class="node">
<title>C7</title>
<path fill="none" stroke="black" d="M359.62,-1304.25C359.62,-1304.25 182.38,-1304.25 182.38,-1304.25 176.38,-1304.25 170.38,-1298.25 170.38,-1292.25 170.38,-1292.25 170.38,-1280.25 170.38,-1280.25 170.38,-1274.25 176.38,-1268.25 182.38,-1268.25 182.38,-1268.25 359.62,-1268.25 359.62,-1268.25 365.62,-1268.25 371.62,-1274.25 371.62,-1280.25 371.62,-1280.25 371.62,-1292.25 371.62,-1292.25 371.62,-1298.25 365.62,-1304.25 359.62,-1304.25"/>
<text xml:space="preserve" text-anchor="middle" x="271" y="-1280.83" font-family="Helvetica,sans-Serif" font-size="14.00">7: fcode = (c &lt;&lt; maxbits) + ent</text>
</g>
<!-- C6&#45;&gt;C7 -->
<g id="edge11" class="edge">
<title>C6&#45;&gt;C7</title>
<path fill="none" stroke="black" d="M271,-1355.65C271,-1344.26 271,-1329.09 271,-1315.93"/>
<polygon fill="black" stroke="black" points="274.5,-1316.09 271,-1306.09 267.5,-1316.09 274.5,-1316.09"/>
</g>
<!-- C8 -->
<g id="node13" class="node">
<title>C8</title>
<path fill="none" stroke="black" d="M336.38,-1231.25C336.38,-1231.25 205.62,-1231.25 205.62,-1231.25 199.62,-1231.25 193.62,-1225.25 193.62,-1219.25 193.62,-1219.25 193.62,-1207.25 193.62,-1207.25 193.62,-1201.25 199.62,-1195.25 205.62,-1195.25 205.62,-1195.25 336.38,-1195.25 336.38,-1195.25 342.38,-1195.25 348.38,-1201.25 348.38,-1207.25 348.38,-1207.25 348.38,-1219.25 348.38,-1219.25 348.38,-1225.25 342.38,-1231.25 336.38,-1231.25"/>
<text xml:space="preserve" text-anchor="middle" x="271" y="-1207.83" font-family="Helvetica,sans-Serif" font-size="14.00">8: i = (c &lt;&lt; hshift) ^ ent</text>
</g>
<!-- C7&#45;&gt;C8 -->
<g id="edge12" class="edge">
<title>C7&#45;&gt;C8</title>
<path fill="none" stroke="black" d="M271,-1268.06C271,-1260.48 271,-1251.35 271,-1242.79"/>
<polygon fill="black" stroke="black" points="274.5,-1242.79 271,-1232.79 267.5,-1242.79 274.5,-1242.79"/>
</g>
<!-- C9 -->
<g id="node14" class="node">
<title>C9</title>
<path fill="none" stroke="black" d="M331.12,-1158.25C331.12,-1158.25 210.88,-1158.25 210.88,-1158.25 204.88,-1158.25 198.88,-1152.25 198.88,-1146.25 198.88,-1146.25 198.88,-1134.25 198.88,-1134.25 198.88,-1128.25 204.88,-1122.25 210.88,-1122.25 210.88,-1122.25 331.12,-1122.25 331.12,-1122.25 337.12,-1122.25 343.12,-1128.25 343.12,-1134.25 343.12,-1134.25 343.12,-1146.25 343.12,-1146.25 343.12,-1152.25 337.12,-1158.25 331.12,-1158.25"/>
<text xml:space="preserve" text-anchor="middle" x="271" y="-1134.83" font-family="Helvetica,sans-Serif" font-size="14.00">9: if (htab[i] == fcode)</text>
</g>
<!-- C8&#45;&gt;C9 -->
<g id="edge13" class="edge">
<title>C8&#45;&gt;C9</title>
<path fill="none" stroke="black" d="M271,-1195.06C271,-1187.48 271,-1178.35 271,-1169.79"/>
<polygon fill="black" stroke="black" points="274.5,-1169.79 271,-1159.79 267.5,-1169.79 274.5,-1169.79"/>
</g>
<!-- C10 -->
<g id="node15" class="node">
<title>C10</title>
<path fill="none" stroke="black" d="M178,-1070.5C178,-1070.5 12,-1070.5 12,-1070.5 6,-1070.5 0,-1064.5 0,-1058.5 0,-1058.5 0,-1046.5 0,-1046.5 0,-1040.5 6,-1034.5 12,-1034.5 12,-1034.5 178,-1034.5 178,-1034.5 184,-1034.5 190,-1040.5 190,-1046.5 190,-1046.5 190,-1058.5 190,-1058.5 190,-1064.5 184,-1070.5 178,-1070.5"/>
<text xml:space="preserve" text-anchor="middle" x="95" y="-1047.08" font-family="Helvetica,sans-Serif" font-size="14.00">10: ent = codetab[i]; continue</text>
</g>
<!-- C9&#45;&gt;C10 -->
<g id="edge14" class="edge">
<title>C9&#45;&gt;C10</title>
<path fill="none" stroke="black" d="M235.38,-1121.9C208.16,-1108.63 170.42,-1090.24 140.92,-1075.87"/>
<polygon fill="black" stroke="black" points="142.75,-1072.87 132.23,-1071.64 139.68,-1079.16 142.75,-1072.87"/>
<text xml:space="preserve" text-anchor="middle" x="210.39" y="-1090.95" font-family="Helvetica,sans-Serif" font-size="14.00">true</text>
</g>
<!-- C11 -->
<g id="node16" class="node">
<title>C11</title>
<path fill="none" stroke="black" d="M341.88,-1070.5C341.88,-1070.5 220.12,-1070.5 220.12,-1070.5 214.12,-1070.5 208.12,-1064.5 208.12,-1058.5 208.12,-1058.5 208.12,-1046.5 208.12,-1046.5 208.12,-1040.5 214.12,-1034.5 220.12,-1034.5 220.12,-1034.5 341.88,-1034.5 341.88,-1034.5 347.88,-1034.5 353.88,-1040.5 353.88,-1046.5 353.88,-1046.5 353.88,-1058.5 353.88,-1058.5 353.88,-1064.5 347.88,-1070.5 341.88,-1070.5"/>
<text xml:space="preserve" text-anchor="middle" x="281" y="-1047.08" font-family="Helvetica,sans-Serif" font-size="14.00">11: else if (htab[i] &lt; 0)</text>
</g>
<!-- C9&#45;&gt;C11 -->
<g id="edge15" class="edge">
<title>C9&#45;&gt;C11</title>
<path fill="none" stroke="black" d="M273.02,-1121.9C274.35,-1110.51 276.12,-1095.34 277.66,-1082.18"/>
<polygon fill="black" stroke="black" points="281.12,-1082.67 278.8,-1072.33 274.17,-1081.86 281.12,-1082.67"/>
<text xml:space="preserve" text-anchor="middle" x="291.15" y="-1090.95" font-family="Helvetica,sans-Serif" font-size="14.00">false</text>
</g>
<!-- C12 -->
<g id="node17" class="node">
<title>C12</title>
<path fill="none" stroke="black" d="M129.5,-928.75C129.5,-928.75 32.5,-928.75 32.5,-928.75 26.5,-928.75 20.5,-922.75 20.5,-916.75 20.5,-916.75 20.5,-904.75 20.5,-904.75 20.5,-898.75 26.5,-892.75 32.5,-892.75 32.5,-892.75 129.5,-892.75 129.5,-892.75 135.5,-892.75 141.5,-898.75 141.5,-904.75 141.5,-904.75 141.5,-916.75 141.5,-916.75 141.5,-922.75 135.5,-928.75 129.5,-928.75"/>
<text xml:space="preserve" text-anchor="middle" x="81" y="-905.33" font-family="Helvetica,sans-Serif" font-size="14.00">12: goto nomatch</text>
</g>
<!-- C11&#45;&gt;C12 -->
<g id="edge16" class="edge">
<title>C11&#45;&gt;C12</title>
<path fill="none" stroke="black" d="M256.07,-1034.08C220.57,-1009.28 155.32,-963.68 115.28,-935.71"/>
<polygon fill="black" stroke="black" points="117.37,-932.89 107.17,-930.03 113.36,-938.63 117.37,-932.89"/>
<text xml:space="preserve" text-anchor="middle" x="242.04" y="-1003.2" font-family="Helvetica,sans-Serif" font-size="14.00">true</text>
</g>
<!-- C13 -->
<g id="node18" class="node">
<title>C13</title>
<path fill="none" stroke="black" d="M447.25,-982.75C447.25,-982.75 318.75,-982.75 318.75,-982.75 312.75,-982.75 306.75,-976.75 306.75,-970.75 306.75,-970.75 306.75,-958.75 306.75,-958.75 306.75,-952.75 312.75,-946.75 318.75,-946.75 318.75,-946.75 447.25,-946.75 447.25,-946.75 453.25,-946.75 459.25,-952.75 459.25,-958.75 459.25,-958.75 459.25,-970.75 459.25,-970.75 459.25,-976.75 453.25,-982.75 447.25,-982.75"/>
<text xml:space="preserve" text-anchor="middle" x="383" y="-959.33" font-family="Helvetica,sans-Serif" font-size="14.00">13: disp = hsize_reg &#45; i</text>
</g>
<!-- C11&#45;&gt;C13 -->
<g id="edge17" class="edge">
<title>C11&#45;&gt;C13</title>
<path fill="none" stroke="black" d="M301.64,-1034.15C316.57,-1021.59 336.96,-1004.45 353.59,-990.47"/>
<polygon fill="black" stroke="black" points="355.83,-993.17 361.23,-984.05 351.32,-987.81 355.83,-993.17"/>
<text xml:space="preserve" text-anchor="middle" x="355.39" y="-1003.2" font-family="Helvetica,sans-Serif" font-size="14.00">false</text>
</g>
<!-- C21 -->
<g id="node26" class="node">
<title>C21</title>
<path fill="none" stroke="black" d="M338.12,-450.75C338.12,-450.75 187.88,-450.75 187.88,-450.75 181.88,-450.75 175.88,-444.75 175.88,-438.75 175.88,-438.75 175.88,-426.75 175.88,-426.75 175.88,-420.75 181.88,-414.75 187.88,-414.75 187.88,-414.75 338.12,-414.75 338.12,-414.75 344.12,-414.75 350.12,-420.75 350.12,-426.75 350.12,-426.75 350.12,-438.75 350.12,-438.75 350.12,-444.75 344.12,-450.75 338.12,-450.75"/>
<text xml:space="preserve" text-anchor="middle" x="263" y="-427.32" font-family="Helvetica,sans-Serif" font-size="14.00">21: nomatch: out_count++</text>
</g>
<!-- C12&#45;&gt;C21 -->
<g id="edge18" class="edge">
<title>C12&#45;&gt;C21</title>
<path fill="none" stroke="black" d="M80.42,-892.43C79.83,-873.23 79,-841.35 79,-813.88 79,-813.88 79,-813.88 79,-519.5 79,-476.53 120.73,-455.04 164.45,-444.32"/>
<polygon fill="black" stroke="black" points="165.11,-447.76 174.1,-442.15 163.58,-440.93 165.11,-447.76"/>
</g>
<!-- C14 -->
<g id="node19" class="node">
<title>C14</title>
<path fill="none" stroke="black" d="M492.12,-874.75C492.12,-874.75 371.88,-874.75 371.88,-874.75 365.88,-874.75 359.88,-868.75 359.88,-862.75 359.88,-862.75 359.88,-850.75 359.88,-850.75 359.88,-844.75 365.88,-838.75 371.88,-838.75 371.88,-838.75 492.12,-838.75 492.12,-838.75 498.12,-838.75 504.12,-844.75 504.12,-850.75 504.12,-850.75 504.12,-862.75 504.12,-862.75 504.12,-868.75 498.12,-874.75 492.12,-874.75"/>
<text xml:space="preserve" text-anchor="middle" x="432" y="-851.33" font-family="Helvetica,sans-Serif" font-size="14.00">14: if (i == 0) disp = 1</text>
</g>
<!-- C13&#45;&gt;C14 -->
<g id="edge19" class="edge">
<title>C13&#45;&gt;C14</title>
<path fill="none" stroke="black" d="M390.87,-946.72C398.51,-930.2 410.22,-904.87 419.19,-885.45"/>
<polygon fill="black" stroke="black" points="422.33,-887.01 423.35,-876.46 415.98,-884.07 422.33,-887.01"/>
</g>
<!-- C15 -->
<g id="node20" class="node">
<title>C15</title>
<path fill="none" stroke="black" d="M475.25,-787C475.25,-787 412.75,-787 412.75,-787 406.75,-787 400.75,-781 400.75,-775 400.75,-775 400.75,-763 400.75,-763 400.75,-757 406.75,-751 412.75,-751 412.75,-751 475.25,-751 475.25,-751 481.25,-751 487.25,-757 487.25,-763 487.25,-763 487.25,-775 487.25,-775 487.25,-781 481.25,-787 475.25,-787"/>
<text xml:space="preserve" text-anchor="middle" x="444" y="-763.58" font-family="Helvetica,sans-Serif" font-size="14.00">15: i &#45;= disp</text>
</g>
<!-- C14&#45;&gt;C15 -->
<g id="edge20" class="edge">
<title>C14&#45;&gt;C15</title>
<path fill="none" stroke="black" d="M434.43,-838.4C436.02,-827.01 438.15,-811.84 439.99,-798.68"/>
<polygon fill="black" stroke="black" points="443.45,-799.21 441.37,-788.83 436.51,-798.24 443.45,-799.21"/>
</g>
<!-- C16 -->
<g id="node21" class="node">
<title>C16</title>
<path fill="none" stroke="black" d="M518.75,-699.25C518.75,-699.25 369.25,-699.25 369.25,-699.25 363.25,-699.25 357.25,-693.25 357.25,-687.25 357.25,-687.25 357.25,-675.25 357.25,-675.25 357.25,-669.25 363.25,-663.25 369.25,-663.25 369.25,-663.25 518.75,-663.25 518.75,-663.25 524.75,-663.25 530.75,-669.25 530.75,-675.25 530.75,-675.25 530.75,-687.25 530.75,-687.25 530.75,-693.25 524.75,-699.25 518.75,-699.25"/>
<text xml:space="preserve" text-anchor="middle" x="444" y="-675.83" font-family="Helvetica,sans-Serif" font-size="14.00">16: if (i &lt; 0) i += hsize_reg</text>
</g>
<!-- C15&#45;&gt;C16 -->
<g id="edge21" class="edge">
<title>C15&#45;&gt;C16</title>
<path fill="none" stroke="black" d="M444,-750.65C444,-739.26 444,-724.09 444,-710.93"/>
<polygon fill="black" stroke="black" points="447.5,-711.09 444,-701.09 440.5,-711.09 447.5,-711.09"/>
</g>
<!-- C17 -->
<g id="node22" class="node">
<title>C17</title>
<path fill="none" stroke="black" d="M507.88,-626.25C507.88,-626.25 380.12,-626.25 380.12,-626.25 374.12,-626.25 368.12,-620.25 368.12,-614.25 368.12,-614.25 368.12,-602.25 368.12,-602.25 368.12,-596.25 374.12,-590.25 380.12,-590.25 380.12,-590.25 507.88,-590.25 507.88,-590.25 513.88,-590.25 519.88,-596.25 519.88,-602.25 519.88,-602.25 519.88,-614.25 519.88,-614.25 519.88,-620.25 513.88,-626.25 507.88,-626.25"/>
<text xml:space="preserve" text-anchor="middle" x="444" y="-602.83" font-family="Helvetica,sans-Serif" font-size="14.00">17: if (htab[i] == fcode)</text>
</g>
<!-- C16&#45;&gt;C17 -->
<g id="edge22" class="edge">
<title>C16&#45;&gt;C17</title>
<path fill="none" stroke="black" d="M444,-663.06C444,-655.48 444,-646.35 444,-637.79"/>
<polygon fill="black" stroke="black" points="447.5,-637.79 444,-627.79 440.5,-637.79 447.5,-637.79"/>
</g>
<!-- C18 -->
<g id="node23" class="node">
<title>C18</title>
<path fill="none" stroke="black" d="M285,-538.5C285,-538.5 119,-538.5 119,-538.5 113,-538.5 107,-532.5 107,-526.5 107,-526.5 107,-514.5 107,-514.5 107,-508.5 113,-502.5 119,-502.5 119,-502.5 285,-502.5 285,-502.5 291,-502.5 297,-508.5 297,-514.5 297,-514.5 297,-526.5 297,-526.5 297,-532.5 291,-538.5 285,-538.5"/>
<text xml:space="preserve" text-anchor="middle" x="202" y="-515.08" font-family="Helvetica,sans-Serif" font-size="14.00">18: ent = codetab[i]; continue</text>
</g>
<!-- C17&#45;&gt;C18 -->
<g id="edge23" class="edge">
<title>C17&#45;&gt;C18</title>
<path fill="none" stroke="black" d="M394.74,-589.79C356.3,-576.17 302.74,-557.2 261.84,-542.7"/>
<polygon fill="black" stroke="black" points="263.22,-539.48 252.62,-539.44 260.88,-546.08 263.22,-539.48"/>
<text xml:space="preserve" text-anchor="middle" x="356.3" y="-558.95" font-family="Helvetica,sans-Serif" font-size="14.00">true</text>
</g>
<!-- C19 -->
<g id="node24" class="node">
<title>C19</title>
<path fill="none" stroke="black" d="M567.12,-538.5C567.12,-538.5 326.88,-538.5 326.88,-538.5 320.88,-538.5 314.88,-532.5 314.88,-526.5 314.88,-526.5 314.88,-514.5 314.88,-514.5 314.88,-508.5 320.88,-502.5 326.88,-502.5 326.88,-502.5 567.12,-502.5 567.12,-502.5 573.12,-502.5 579.12,-508.5 579.12,-514.5 579.12,-514.5 579.12,-526.5 579.12,-526.5 579.12,-532.5 573.12,-538.5 567.12,-538.5"/>
<text xml:space="preserve" text-anchor="middle" x="447" y="-515.08" font-family="Helvetica,sans-Serif" font-size="14.00">19: if (htab[i] &gt; 0 &amp;&amp; bound++ &lt; in_count)</text>
</g>
<!-- C17&#45;&gt;C19 -->
<g id="edge24" class="edge">
<title>C17&#45;&gt;C19</title>
<path fill="none" stroke="black" d="M444.61,-589.9C445.01,-578.51 445.54,-563.34 446,-550.18"/>
<polygon fill="black" stroke="black" points="449.49,-550.46 446.34,-540.34 442.49,-550.21 449.49,-550.46"/>
<text xml:space="preserve" text-anchor="middle" x="460.02" y="-558.95" font-family="Helvetica,sans-Serif" font-size="14.00">false</text>
</g>
<!-- C20 -->
<g id="node25" class="node">
<title>C20</title>
<path fill="none" stroke="black" d="M592.25,-450.75C592.25,-450.75 475.75,-450.75 475.75,-450.75 469.75,-450.75 463.75,-444.75 463.75,-438.75 463.75,-438.75 463.75,-426.75 463.75,-426.75 463.75,-420.75 469.75,-414.75 475.75,-414.75 475.75,-414.75 592.25,-414.75 592.25,-414.75 598.25,-414.75 604.25,-420.75 604.25,-426.75 604.25,-426.75 604.25,-438.75 604.25,-438.75 604.25,-444.75 598.25,-450.75 592.25,-450.75"/>
<text xml:space="preserve" text-anchor="middle" x="534" y="-427.32" font-family="Helvetica,sans-Serif" font-size="14.00">20: goto probe (C15)</text>
</g>
<!-- C19&#45;&gt;C20 -->
<g id="edge25" class="edge">
<title>C19&#45;&gt;C20</title>
<path fill="none" stroke="black" d="M464.61,-502.15C477.22,-489.71 494.41,-472.77 508.52,-458.86"/>
<polygon fill="black" stroke="black" points="510.68,-461.65 515.34,-452.14 505.76,-456.67 510.68,-461.65"/>
<text xml:space="preserve" text-anchor="middle" x="509.92" y="-471.2" font-family="Helvetica,sans-Serif" font-size="14.00">true</text>
</g>
<!-- C19&#45;&gt;C21 -->
<g id="edge26" class="edge">
<title>C19&#45;&gt;C21</title>
<path fill="none" stroke="black" d="M409.76,-502.15C381.18,-488.82 341.5,-470.33 310.61,-455.94"/>
<polygon fill="black" stroke="black" points="312.41,-452.92 301.87,-451.86 309.45,-459.26 312.41,-452.92"/>
<text xml:space="preserve" text-anchor="middle" x="385.73" y="-471.2" font-family="Helvetica,sans-Serif" font-size="14.00">false</text>
</g>
<!-- C20&#45;&gt;C15 -->
<g id="edge27" class="edge">
<title>C20&#45;&gt;C15</title>
<path fill="none" stroke="black" d="M562.01,-451.21C582.6,-466.43 607,-490.56 607,-519.5 607,-682.25 607,-682.25 607,-682.25 607,-732.28 546.12,-753.18 498.77,-761.88"/>
<polygon fill="black" stroke="black" points="498.45,-758.38 489.17,-763.49 499.62,-765.29 498.45,-758.38"/>
</g>
<!-- C22 -->
<g id="node27" class="node">
<title>C22</title>
<path fill="none" stroke="black" d="M290.88,-377.75C290.88,-377.75 235.12,-377.75 235.12,-377.75 229.12,-377.75 223.12,-371.75 223.12,-365.75 223.12,-365.75 223.12,-353.75 223.12,-353.75 223.12,-347.75 229.12,-341.75 235.12,-341.75 235.12,-341.75 290.88,-341.75 290.88,-341.75 296.88,-341.75 302.88,-347.75 302.88,-353.75 302.88,-353.75 302.88,-365.75 302.88,-365.75 302.88,-371.75 296.88,-377.75 290.88,-377.75"/>
<text xml:space="preserve" text-anchor="middle" x="263" y="-354.32" font-family="Helvetica,sans-Serif" font-size="14.00">22: ent = c</text>
</g>
<!-- C21&#45;&gt;C22 -->
<g id="edge28" class="edge">
<title>C21&#45;&gt;C22</title>
<path fill="none" stroke="black" d="M263,-414.56C263,-406.98 263,-397.85 263,-389.29"/>
<polygon fill="black" stroke="black" points="266.5,-389.29 263,-379.29 259.5,-389.29 266.5,-389.29"/>
</g>
<!-- C23 -->
<g id="node28" class="node">
<title>C23</title>
<path fill="none" stroke="black" d="M353.5,-304.75C353.5,-304.75 172.5,-304.75 172.5,-304.75 166.5,-304.75 160.5,-298.75 160.5,-292.75 160.5,-292.75 160.5,-280.75 160.5,-280.75 160.5,-274.75 166.5,-268.75 172.5,-268.75 172.5,-268.75 353.5,-268.75 353.5,-268.75 359.5,-268.75 365.5,-274.75 365.5,-280.75 365.5,-280.75 365.5,-292.75 365.5,-292.75 365.5,-298.75 359.5,-304.75 353.5,-304.75"/>
<text xml:space="preserve" text-anchor="middle" x="263" y="-281.32" font-family="Helvetica,sans-Serif" font-size="14.00">23: if (free_ent &lt; maxmaxcode)</text>
</g>
<!-- C22&#45;&gt;C23 -->
<g id="edge29" class="edge">
<title>C22&#45;&gt;C23</title>
<path fill="none" stroke="black" d="M263,-341.56C263,-333.98 263,-324.85 263,-316.29"/>
<polygon fill="black" stroke="black" points="266.5,-316.29 263,-306.29 259.5,-316.29 266.5,-316.29"/>
</g>
<!-- C24 -->
<g id="node29" class="node">
<title>C24</title>
<path fill="none" stroke="black" d="M399.88,-163C399.88,-163 152.12,-163 152.12,-163 146.12,-163 140.12,-157 140.12,-151 140.12,-151 140.12,-139 140.12,-139 140.12,-133 146.12,-127 152.12,-127 152.12,-127 399.88,-127 399.88,-127 405.88,-127 411.88,-133 411.88,-139 411.88,-139 411.88,-151 411.88,-151 411.88,-157 405.88,-163 399.88,-163"/>
<text xml:space="preserve" text-anchor="middle" x="276" y="-139.57" font-family="Helvetica,sans-Serif" font-size="14.00">24: codetab[i] = free_ent++; htab[i] = fcode</text>
</g>
<!-- C23&#45;&gt;C24 -->
<g id="edge30" class="edge">
<title>C23&#45;&gt;C24</title>
<path fill="none" stroke="black" d="M264.62,-268.33C266.81,-244.77 270.75,-202.46 273.37,-174.3"/>
<polygon fill="black" stroke="black" points="276.82,-174.99 274.26,-164.7 269.85,-174.34 276.82,-174.99"/>
<text xml:space="preserve" text-anchor="middle" x="279.2" y="-237.45" font-family="Helvetica,sans-Serif" font-size="14.00">true</text>
</g>
<!-- C25 -->
<g id="node30" class="node">
<title>C25</title>
<path fill="none" stroke="black" d="M620.88,-217C620.88,-217 295.12,-217 295.12,-217 289.12,-217 283.12,-211 283.12,-205 283.12,-205 283.12,-193 283.12,-193 283.12,-187 289.12,-181 295.12,-181 295.12,-181 620.88,-181 620.88,-181 626.88,-181 632.88,-187 632.88,-193 632.88,-193 632.88,-205 632.88,-205 632.88,-211 626.88,-217 620.88,-217"/>
<text xml:space="preserve" text-anchor="middle" x="458" y="-193.57" font-family="Helvetica,sans-Serif" font-size="14.00">25: else if (in_count &gt;= checkpoint &amp;&amp; block_compress)</text>
</g>
<!-- C23&#45;&gt;C25 -->
<g id="edge31" class="edge">
<title>C23&#45;&gt;C25</title>
<path fill="none" stroke="black" d="M302.46,-268.4C332.89,-255.02 375.17,-236.42 407.97,-222"/>
<polygon fill="black" stroke="black" points="409.13,-225.31 416.88,-218.08 406.31,-218.9 409.13,-225.31"/>
<text xml:space="preserve" text-anchor="middle" x="392.22" y="-237.45" font-family="Helvetica,sans-Serif" font-size="14.00">false</text>
</g>
<!-- C27 -->
<g id="node32" class="node">
<title>C27</title>
<path fill="none" stroke="black" d="M492.5,-36C492.5,-36 419.5,-36 419.5,-36 413.5,-36 407.5,-30 407.5,-24 407.5,-24 407.5,-12 407.5,-12 407.5,-6 413.5,0 419.5,0 419.5,0 492.5,0 492.5,0 498.5,0 504.5,-6 504.5,-12 504.5,-12 504.5,-24 504.5,-24 504.5,-30 498.5,-36 492.5,-36"/>
<text xml:space="preserve" text-anchor="middle" x="456" y="-12.57" font-family="Helvetica,sans-Serif" font-size="14.00">27: End while</text>
</g>
<!-- C24&#45;&gt;C27 -->
<g id="edge34" class="edge">
<title>C24&#45;&gt;C27</title>
<path fill="none" stroke="black" d="M287.32,-126.6C298.24,-110.91 316.03,-88.06 336,-73 354.17,-59.3 376.38,-48.08 396.72,-39.49"/>
<polygon fill="black" stroke="black" points="397.82,-42.82 405.76,-35.81 395.18,-36.34 397.82,-42.82"/>
</g>
<!-- C26 -->
<g id="node31" class="node">
<title>C26</title>
<path fill="none" stroke="black" d="M429.12,-109C429.12,-109 356.88,-109 356.88,-109 350.88,-109 344.88,-103 344.88,-97 344.88,-97 344.88,-85 344.88,-85 344.88,-79 350.88,-73 356.88,-73 356.88,-73 429.12,-73 429.12,-73 435.12,-73 441.12,-79 441.12,-85 441.12,-85 441.12,-97 441.12,-97 441.12,-103 435.12,-109 429.12,-109"/>
<text xml:space="preserve" text-anchor="middle" x="393" y="-85.58" font-family="Helvetica,sans-Serif" font-size="14.00">26: cl_block()</text>
</g>
<!-- C25&#45;&gt;C26 -->
<g id="edge32" class="edge">
<title>C25&#45;&gt;C26</title>
<path fill="none" stroke="black" d="M448.04,-180.65C439.67,-166.19 427.29,-145.1 416,-127 414.36,-124.37 412.63,-121.65 410.88,-118.94"/>
<polygon fill="black" stroke="black" points="413.85,-117.08 405.45,-110.61 407.98,-120.9 413.85,-117.08"/>
<text xml:space="preserve" text-anchor="middle" x="448.62" y="-139.57" font-family="Helvetica,sans-Serif" font-size="14.00">true</text>
</g>
<!-- C25&#45;&gt;C27 -->
<g id="edge33" class="edge">
<title>C25&#45;&gt;C27</title>
<path fill="none" stroke="black" d="M460.98,-180.61C461.81,-175 462.59,-168.76 463,-163 465.84,-123.02 462.39,-76.72 459.41,-47.64"/>
<polygon fill="black" stroke="black" points="462.9,-47.37 458.34,-37.81 455.94,-48.13 462.9,-47.37"/>
<text xml:space="preserve" text-anchor="middle" x="477.9" y="-85.58" font-family="Helvetica,sans-Serif" font-size="14.00">false</text>
</g>
<!-- C26&#45;&gt;C27 -->
<g id="edge35" class="edge">
<title>C26&#45;&gt;C27</title>
<path fill="none" stroke="black" d="M408.25,-72.81C415.76,-64.35 424.96,-53.98 433.27,-44.61"/>
<polygon fill="black" stroke="black" points="435.87,-46.96 439.89,-37.16 430.63,-42.32 435.87,-46.96"/>
</g>
<!-- C27&#45;&gt;C5 -->
<g id="edge36" class="edge">
<title>C27&#45;&gt;C5</title>
<path fill="none" stroke="black" d="M504.84,-25.97C565.48,-36.03 661,-57.09 661,-90 661,-1375 661,-1375 661,-1375 661,-1406.12 634.79,-1426.56 605.82,-1439.64"/>
<polygon fill="black" stroke="black" points="604.77,-1436.29 596.9,-1443.38 607.47,-1442.75 604.77,-1436.29"/>
</g>
<!-- C28&#45;&gt;C5 -->
<g id="edge37" class="edge">
<title>C28&#45;&gt;C5</title>
<path fill="none" stroke="black" d="M515.77,-1392.37C518.49,-1397.86 521.2,-1404.05 523,-1410 525.14,-1417.06 526.63,-1424.88 527.67,-1432.22"/>
<polygon fill="black" stroke="black" points="524.18,-1432.51 528.81,-1442.04 531.13,-1431.71 524.18,-1432.51"/>
<text xml:space="preserve" text-anchor="middle" x="555.4" y="-1412.45" font-family="Helvetica,sans-Serif" font-size="14.00">loop back</text>
</g>
<!-- B1 -->
<g id="node34" class="node">
<title>B1</title>
<path fill="none" stroke="black" d="M1032,-1836.25C1032,-1836.25 794,-1836.25 794,-1836.25 788,-1836.25 782,-1830.25 782,-1824.25 782,-1824.25 782,-1812.25 782,-1812.25 782,-1806.25 788,-1800.25 794,-1800.25 794,-1800.25 1032,-1800.25 1032,-1800.25 1038,-1800.25 1044,-1806.25 1044,-1812.25 1044,-1812.25 1044,-1824.25 1044,-1824.25 1044,-1830.25 1038,-1836.25 1032,-1836.25"/>
<text xml:space="preserve" text-anchor="middle" x="913" y="-1812.83" font-family="Helvetica,sans-Serif" font-size="14.00">1: checkpoint = in_count + CHECK_GAP</text>
</g>
<!-- B2 -->
<g id="node35" class="node">
<title>B2</title>
<path fill="none" stroke="black" d="M987.38,-1748.5C987.38,-1748.5 838.62,-1748.5 838.62,-1748.5 832.62,-1748.5 826.62,-1742.5 826.62,-1736.5 826.62,-1736.5 826.62,-1724.5 826.62,-1724.5 826.62,-1718.5 832.62,-1712.5 838.62,-1712.5 838.62,-1712.5 987.38,-1712.5 987.38,-1712.5 993.38,-1712.5 999.38,-1718.5 999.38,-1724.5 999.38,-1724.5 999.38,-1736.5 999.38,-1736.5 999.38,-1742.5 993.38,-1748.5 987.38,-1748.5"/>
<text xml:space="preserve" text-anchor="middle" x="913" y="-1725.08" font-family="Helvetica,sans-Serif" font-size="14.00">2: if (in_count &gt; 0x007fffff)</text>
</g>
<!-- B1&#45;&gt;B2 -->
<g id="edge38" class="edge">
<title>B1&#45;&gt;B2</title>
<path fill="none" stroke="black" d="M913,-1799.9C913,-1788.51 913,-1773.34 913,-1760.18"/>
<polygon fill="black" stroke="black" points="916.5,-1760.34 913,-1750.34 909.5,-1760.34 916.5,-1760.34"/>
</g>
<!-- B3 -->
<g id="node36" class="node">
<title>B3</title>
<path fill="none" stroke="black" d="M915.25,-1660.75C915.25,-1660.75 786.75,-1660.75 786.75,-1660.75 780.75,-1660.75 774.75,-1654.75 774.75,-1648.75 774.75,-1648.75 774.75,-1636.75 774.75,-1636.75 774.75,-1630.75 780.75,-1624.75 786.75,-1624.75 786.75,-1624.75 915.25,-1624.75 915.25,-1624.75 921.25,-1624.75 927.25,-1630.75 927.25,-1636.75 927.25,-1636.75 927.25,-1648.75 927.25,-1648.75 927.25,-1654.75 921.25,-1660.75 915.25,-1660.75"/>
<text xml:space="preserve" text-anchor="middle" x="851" y="-1637.33" font-family="Helvetica,sans-Serif" font-size="14.00">3: rat = bytes_out &gt;&gt; 8</text>
</g>
<!-- B2&#45;&gt;B3 -->
<g id="edge39" class="edge">
<title>B2&#45;&gt;B3</title>
<path fill="none" stroke="black" d="M900.45,-1712.15C891.71,-1700.06 879.9,-1683.72 870.01,-1670.04"/>
<polygon fill="black" stroke="black" points="873.11,-1668.36 864.41,-1662.3 867.44,-1672.46 873.11,-1668.36"/>
<text xml:space="preserve" text-anchor="middle" x="899.18" y="-1681.2" font-family="Helvetica,sans-Serif" font-size="14.00">true</text>
</g>
<!-- B6 -->
<g id="node39" class="node">
<title>B6</title>
<path fill="none" stroke="black" d="M1131.12,-1606.75C1131.12,-1606.75 902.88,-1606.75 902.88,-1606.75 896.88,-1606.75 890.88,-1600.75 890.88,-1594.75 890.88,-1594.75 890.88,-1582.75 890.88,-1582.75 890.88,-1576.75 896.88,-1570.75 902.88,-1570.75 902.88,-1570.75 1131.12,-1570.75 1131.12,-1570.75 1137.12,-1570.75 1143.12,-1576.75 1143.12,-1582.75 1143.12,-1582.75 1143.12,-1594.75 1143.12,-1594.75 1143.12,-1600.75 1137.12,-1606.75 1131.12,-1606.75"/>
<text xml:space="preserve" text-anchor="middle" x="1017" y="-1583.33" font-family="Helvetica,sans-Serif" font-size="14.00">6: else rat = (in_count &lt;&lt; 8) / bytes_out</text>
</g>
<!-- B2&#45;&gt;B6 -->
<g id="edge40" class="edge">
<title>B2&#45;&gt;B6</title>
<path fill="none" stroke="black" d="M925.96,-1712.08C943.96,-1687.89 976.68,-1643.93 997.6,-1615.82"/>
<polygon fill="black" stroke="black" points="1000.14,-1618.27 1003.3,-1608.16 994.52,-1614.09 1000.14,-1618.27"/>
<text xml:space="preserve" text-anchor="middle" x="963.86" y="-1681.2" font-family="Helvetica,sans-Serif" font-size="14.00">false</text>
</g>
<!-- B4 -->
<g id="node37" class="node">
<title>B4</title>
<path fill="none" stroke="black" d="M789.5,-1552.75C789.5,-1552.75 632.5,-1552.75 632.5,-1552.75 626.5,-1552.75 620.5,-1546.75 620.5,-1540.75 620.5,-1540.75 620.5,-1528.75 620.5,-1528.75 620.5,-1522.75 626.5,-1516.75 632.5,-1516.75 632.5,-1516.75 789.5,-1516.75 789.5,-1516.75 795.5,-1516.75 801.5,-1522.75 801.5,-1528.75 801.5,-1528.75 801.5,-1540.75 801.5,-1540.75 801.5,-1546.75 795.5,-1552.75 789.5,-1552.75"/>
<text xml:space="preserve" text-anchor="middle" x="711" y="-1529.33" font-family="Helvetica,sans-Serif" font-size="14.00">4: if (rat == 0) rat = 0x7fffffff</text>
</g>
<!-- B3&#45;&gt;B4 -->
<g id="edge41" class="edge">
<title>B3&#45;&gt;B4</title>
<path fill="none" stroke="black" d="M822.98,-1624.34C814.57,-1618.9 805.42,-1612.74 797.25,-1606.75 777.33,-1592.13 755.87,-1574.48 739.34,-1560.43"/>
<polygon fill="black" stroke="black" points="741.73,-1557.87 731.86,-1554.03 737.18,-1563.19 741.73,-1557.87"/>
<text xml:space="preserve" text-anchor="middle" x="817.12" y="-1583.33" font-family="Helvetica,sans-Serif" font-size="14.00">rat==0</text>
</g>
<!-- B5 -->
<g id="node38" class="node">
<title>B5</title>
<path fill="none" stroke="black" d="M976.5,-1552.75C976.5,-1552.75 831.5,-1552.75 831.5,-1552.75 825.5,-1552.75 819.5,-1546.75 819.5,-1540.75 819.5,-1540.75 819.5,-1528.75 819.5,-1528.75 819.5,-1522.75 825.5,-1516.75 831.5,-1516.75 831.5,-1516.75 976.5,-1516.75 976.5,-1516.75 982.5,-1516.75 988.5,-1522.75 988.5,-1528.75 988.5,-1528.75 988.5,-1540.75 988.5,-1540.75 988.5,-1546.75 982.5,-1552.75 976.5,-1552.75"/>
<text xml:space="preserve" text-anchor="middle" x="904" y="-1529.33" font-family="Helvetica,sans-Serif" font-size="14.00">5: else rat = in_count / rat</text>
</g>
<!-- B3&#45;&gt;B5 -->
<g id="edge42" class="edge">
<title>B3&#45;&gt;B5</title>
<path fill="none" stroke="black" d="M845,-1624.52C840.83,-1609.37 837.51,-1587.23 846.75,-1570.75 848.93,-1566.86 851.74,-1563.35 854.94,-1560.2"/>
<polygon fill="black" stroke="black" points="856.92,-1563.1 862.4,-1554.03 852.46,-1557.7 856.92,-1563.1"/>
<text xml:space="preserve" text-anchor="middle" x="864.38" y="-1583.33" font-family="Helvetica,sans-Serif" font-size="14.00">rat!=0</text>
</g>
<!-- B7 -->
<g id="node40" class="node">
<title>B7</title>
<path fill="none" stroke="black" d="M946.12,-1479.75C946.12,-1479.75 861.88,-1479.75 861.88,-1479.75 855.88,-1479.75 849.88,-1473.75 849.88,-1467.75 849.88,-1467.75 849.88,-1455.75 849.88,-1455.75 849.88,-1449.75 855.88,-1443.75 861.88,-1443.75 861.88,-1443.75 946.12,-1443.75 946.12,-1443.75 952.12,-1443.75 958.12,-1449.75 958.12,-1455.75 958.12,-1455.75 958.12,-1467.75 958.12,-1467.75 958.12,-1473.75 952.12,-1479.75 946.12,-1479.75"/>
<text xml:space="preserve" text-anchor="middle" x="904" y="-1456.33" font-family="Helvetica,sans-Serif" font-size="14.00">7: if (rat &gt; ratio)</text>
</g>
<!-- B4&#45;&gt;B7 -->
<g id="edge43" class="edge">
<title>B4&#45;&gt;B7</title>
<path fill="none" stroke="black" d="M758.21,-1516.38C784.73,-1506.63 818.04,-1494.37 846.12,-1484.04"/>
<polygon fill="black" stroke="black" points="847.01,-1487.45 855.18,-1480.71 844.59,-1480.88 847.01,-1487.45"/>
</g>
<!-- B5&#45;&gt;B7 -->
<g id="edge44" class="edge">
<title>B5&#45;&gt;B7</title>
<path fill="none" stroke="black" d="M904,-1516.56C904,-1508.98 904,-1499.85 904,-1491.29"/>
<polygon fill="black" stroke="black" points="907.5,-1491.29 904,-1481.29 900.5,-1491.29 907.5,-1491.29"/>
</g>
<!-- B6&#45;&gt;B7 -->
<g id="edge45" class="edge">
<title>B6&#45;&gt;B7</title>
<path fill="none" stroke="black" d="M1015.76,-1570.34C1013.87,-1554.86 1009.09,-1532.33 997,-1516.75 986.96,-1503.8 972.88,-1493.39 958.7,-1485.29"/>
<polygon fill="black" stroke="black" points="960.72,-1482.4 950.25,-1480.76 957.42,-1488.57 960.72,-1482.4"/>
</g>
<!-- B8 -->
<g id="node41" class="node">
<title>B8</title>
<path fill="none" stroke="black" d="M851.38,-1392C851.38,-1392 786.62,-1392 786.62,-1392 780.62,-1392 774.62,-1386 774.62,-1380 774.62,-1380 774.62,-1368 774.62,-1368 774.62,-1362 780.62,-1356 786.62,-1356 786.62,-1356 851.38,-1356 851.38,-1356 857.38,-1356 863.38,-1362 863.38,-1368 863.38,-1368 863.38,-1380 863.38,-1380 863.38,-1386 857.38,-1392 851.38,-1392"/>
<text xml:space="preserve" text-anchor="middle" x="819" y="-1368.58" font-family="Helvetica,sans-Serif" font-size="14.00">8: ratio = rat</text>
</g>
<!-- B7&#45;&gt;B8 -->
<g id="edge46" class="edge">
<title>B7&#45;&gt;B8</title>
<path fill="none" stroke="black" d="M886.8,-1443.4C874.59,-1431.08 857.99,-1414.34 844.28,-1400.5"/>
<polygon fill="black" stroke="black" points="846.77,-1398.04 837.24,-1393.4 841.8,-1402.97 846.77,-1398.04"/>
<text xml:space="preserve" text-anchor="middle" x="880.74" y="-1412.45" font-family="Helvetica,sans-Serif" font-size="14.00">true</text>
</g>
<!-- B9 -->
<g id="node42" class="node">
<title>B9</title>
<path fill="none" stroke="black" d="M1356.5,-1392C1356.5,-1392 893.5,-1392 893.5,-1392 887.5,-1392 881.5,-1386 881.5,-1380 881.5,-1380 881.5,-1368 881.5,-1368 881.5,-1362 887.5,-1356 893.5,-1356 893.5,-1356 1356.5,-1356 1356.5,-1356 1362.5,-1356 1368.5,-1362 1368.5,-1368 1368.5,-1368 1368.5,-1380 1368.5,-1380 1368.5,-1386 1362.5,-1392 1356.5,-1392"/>
<text xml:space="preserve" text-anchor="middle" x="1125" y="-1368.58" font-family="Helvetica,sans-Serif" font-size="14.00">9: else ratio = 0; cl_hash(hsize); free_ent = FIRST; clear_flg=1; output(CLEAR)</text>
</g>
<!-- B7&#45;&gt;B9 -->
<g id="edge47" class="edge">
<title>B7&#45;&gt;B9</title>
<path fill="none" stroke="black" d="M948.99,-1443.29C983.79,-1429.79 1032.17,-1411.02 1069.4,-1396.57"/>
<polygon fill="black" stroke="black" points="1070.61,-1399.86 1078.66,-1392.98 1068.07,-1393.33 1070.61,-1399.86"/>
<text xml:space="preserve" text-anchor="middle" x="1048.54" y="-1412.45" font-family="Helvetica,sans-Serif" font-size="14.00">false</text>
</g>
<!-- O1 -->
<g id="node43" class="node">
<title>O1</title>
<path fill="none" stroke="black" d="M1612.62,-1836.25C1612.62,-1836.25 1525.38,-1836.25 1525.38,-1836.25 1519.38,-1836.25 1513.38,-1830.25 1513.38,-1824.25 1513.38,-1824.25 1513.38,-1812.25 1513.38,-1812.25 1513.38,-1806.25 1519.38,-1800.25 1525.38,-1800.25 1525.38,-1800.25 1612.62,-1800.25 1612.62,-1800.25 1618.62,-1800.25 1624.62,-1806.25 1624.62,-1812.25 1624.62,-1812.25 1624.62,-1824.25 1624.62,-1824.25 1624.62,-1830.25 1618.62,-1836.25 1612.62,-1836.25"/>
<text xml:space="preserve" text-anchor="middle" x="1569" y="-1812.83" font-family="Helvetica,sans-Serif" font-size="14.00">1: if (code &gt;= 0)</text>
</g>
<!-- O2 -->
<g id="node44" class="node">
<title>O2</title>
<path fill="none" stroke="black" d="M1608,-1748.5C1608,-1748.5 1388,-1748.5 1388,-1748.5 1382,-1748.5 1376,-1742.5 1376,-1736.5 1376,-1736.5 1376,-1724.5 1376,-1724.5 1376,-1718.5 1382,-1712.5 1388,-1712.5 1388,-1712.5 1608,-1712.5 1608,-1712.5 1614,-1712.5 1620,-1718.5 1620,-1724.5 1620,-1724.5 1620,-1736.5 1620,-1736.5 1620,-1742.5 1614,-1748.5 1608,-1748.5"/>
<text xml:space="preserve" text-anchor="middle" x="1498" y="-1725.08" font-family="Helvetica,sans-Serif" font-size="14.00">2: r_off = offset; bits = n_bits; bp = buf</text>
</g>
<!-- O1&#45;&gt;O2 -->
<g id="edge48" class="edge">
<title>O1&#45;&gt;O2</title>
<path fill="none" stroke="black" d="M1554.63,-1799.9C1544.53,-1787.69 1530.83,-1771.15 1519.44,-1757.39"/>
<polygon fill="black" stroke="black" points="1522.39,-1755.46 1513.31,-1749.99 1516.99,-1759.93 1522.39,-1755.46"/>
<text xml:space="preserve" text-anchor="middle" x="1551.48" y="-1768.95" font-family="Helvetica,sans-Serif" font-size="14.00">true</text>
</g>
<!-- O16 -->
<g id="node58" class="node">
<title>O16</title>
<path fill="none" stroke="black" d="M1773.62,-787C1773.62,-787 1530.38,-787 1530.38,-787 1524.38,-787 1518.38,-781 1518.38,-775 1518.38,-775 1518.38,-763 1518.38,-763 1518.38,-757 1524.38,-751 1530.38,-751 1530.38,-751 1773.62,-751 1773.62,-751 1779.62,-751 1785.62,-757 1785.62,-763 1785.62,-763 1785.62,-775 1785.62,-775 1785.62,-781 1779.62,-787 1773.62,-787"/>
<text xml:space="preserve" text-anchor="middle" x="1652" y="-763.58" font-family="Helvetica,sans-Serif" font-size="14.00">16: else if (offset &gt; 0) write bytes; offset=0</text>
</g>
<!-- O1&#45;&gt;O16 -->
<g id="edge49" class="edge">
<title>O1&#45;&gt;O16</title>
<path fill="none" stroke="black" d="M1602.28,-1799.81C1625.37,-1785.06 1652,-1761.54 1652,-1731.5 1652,-1731.5 1652,-1731.5 1652,-855.75 1652,-836.7 1652,-815.28 1652,-798.6"/>
<polygon fill="black" stroke="black" points="1655.5,-798.92 1652,-788.92 1648.5,-798.92 1655.5,-798.92"/>
<text xml:space="preserve" text-anchor="middle" x="1666.25" y="-1280.83" font-family="Helvetica,sans-Serif" font-size="14.00">false</text>
</g>
<!-- O3 -->
<g id="node45" class="node">
<title>O3</title>
<path fill="none" stroke="black" d="M1548.12,-1660.75C1548.12,-1660.75 1367.88,-1660.75 1367.88,-1660.75 1361.88,-1660.75 1355.88,-1654.75 1355.88,-1648.75 1355.88,-1648.75 1355.88,-1636.75 1355.88,-1636.75 1355.88,-1630.75 1361.88,-1624.75 1367.88,-1624.75 1367.88,-1624.75 1548.12,-1624.75 1548.12,-1624.75 1554.12,-1624.75 1560.12,-1630.75 1560.12,-1636.75 1560.12,-1636.75 1560.12,-1648.75 1560.12,-1648.75 1560.12,-1654.75 1554.12,-1660.75 1548.12,-1660.75"/>
<text xml:space="preserve" text-anchor="middle" x="1458" y="-1637.33" font-family="Helvetica,sans-Serif" font-size="14.00">3: bp += (r_off &gt;&gt; 3); r_off &amp;= 7</text>
</g>
<!-- O2&#45;&gt;O3 -->
<g id="edge50" class="edge">
<title>O2&#45;&gt;O3</title>
<path fill="none" stroke="black" d="M1489.91,-1712.15C1484.43,-1700.41 1477.08,-1684.66 1470.82,-1671.23"/>
<polygon fill="black" stroke="black" points="1474.12,-1670.03 1466.72,-1662.45 1467.78,-1672.99 1474.12,-1670.03"/>
</g>
<!-- O4 -->
<g id="node46" class="node">
<title>O4</title>
<path fill="none" stroke="black" d="M1612.12,-1552.75C1612.12,-1552.75 1263.88,-1552.75 1263.88,-1552.75 1257.88,-1552.75 1251.88,-1546.75 1251.88,-1540.75 1251.88,-1540.75 1251.88,-1528.75 1251.88,-1528.75 1251.88,-1522.75 1257.88,-1516.75 1263.88,-1516.75 1263.88,-1516.75 1612.12,-1516.75 1612.12,-1516.75 1618.12,-1516.75 1624.12,-1522.75 1624.12,-1528.75 1624.12,-1528.75 1624.12,-1540.75 1624.12,-1540.75 1624.12,-1546.75 1618.12,-1552.75 1612.12,-1552.75"/>
<text xml:space="preserve" text-anchor="middle" x="1438" y="-1529.33" font-family="Helvetica,sans-Serif" font-size="14.00">4: *bp = (*bp &amp; rmask[r_off]) | (code &lt;&lt; r_off) &amp; lmask[r_off]</text>
</g>
<!-- O3&#45;&gt;O4 -->
<g id="edge51" class="edge">
<title>O3&#45;&gt;O4</title>
<path fill="none" stroke="black" d="M1454.79,-1624.72C1451.71,-1608.44 1447.02,-1583.57 1443.38,-1564.27"/>
<polygon fill="black" stroke="black" points="1446.85,-1563.76 1441.55,-1554.58 1439.97,-1565.05 1446.85,-1563.76"/>
</g>
<!-- O5 -->
<g id="node47" class="node">
<title>O5</title>
<path fill="none" stroke="black" d="M1567.12,-1479.75C1567.12,-1479.75 1308.88,-1479.75 1308.88,-1479.75 1302.88,-1479.75 1296.88,-1473.75 1296.88,-1467.75 1296.88,-1467.75 1296.88,-1455.75 1296.88,-1455.75 1296.88,-1449.75 1302.88,-1443.75 1308.88,-1443.75 1308.88,-1443.75 1567.12,-1443.75 1567.12,-1443.75 1573.12,-1443.75 1579.12,-1449.75 1579.12,-1455.75 1579.12,-1455.75 1579.12,-1467.75 1579.12,-1467.75 1579.12,-1473.75 1573.12,-1479.75 1567.12,-1479.75"/>
<text xml:space="preserve" text-anchor="middle" x="1438" y="-1456.33" font-family="Helvetica,sans-Serif" font-size="14.00">5: bp++; bits &#45;= (8 &#45; r_off); code &gt;&gt;= 8 &#45; r_off</text>
</g>
<!-- O4&#45;&gt;O5 -->
<g id="edge52" class="edge">
<title>O4&#45;&gt;O5</title>
<path fill="none" stroke="black" d="M1438,-1516.56C1438,-1508.98 1438,-1499.85 1438,-1491.29"/>
<polygon fill="black" stroke="black" points="1441.5,-1491.29 1438,-1481.29 1434.5,-1491.29 1441.5,-1491.29"/>
</g>
<!-- O6 -->
<g id="node48" class="node">
<title>O6</title>
<path fill="none" stroke="black" d="M1477.5,-1392C1477.5,-1392 1398.5,-1392 1398.5,-1392 1392.5,-1392 1386.5,-1386 1386.5,-1380 1386.5,-1380 1386.5,-1368 1386.5,-1368 1386.5,-1362 1392.5,-1356 1398.5,-1356 1398.5,-1356 1477.5,-1356 1477.5,-1356 1483.5,-1356 1489.5,-1362 1489.5,-1368 1489.5,-1368 1489.5,-1380 1489.5,-1380 1489.5,-1386 1483.5,-1392 1477.5,-1392"/>
<text xml:space="preserve" text-anchor="middle" x="1438" y="-1368.58" font-family="Helvetica,sans-Serif" font-size="14.00">6: if (bits &gt;= 8)</text>
</g>
<!-- O5&#45;&gt;O6 -->
<g id="edge53" class="edge">
<title>O5&#45;&gt;O6</title>
<path fill="none" stroke="black" d="M1438,-1443.4C1438,-1432.01 1438,-1416.84 1438,-1403.68"/>
<polygon fill="black" stroke="black" points="1441.5,-1403.84 1438,-1393.84 1434.5,-1403.84 1441.5,-1403.84"/>
</g>
<!-- O7 -->
<g id="node49" class="node">
<title>O7</title>
<path fill="none" stroke="black" d="M1521.75,-1304.25C1521.75,-1304.25 1300.25,-1304.25 1300.25,-1304.25 1294.25,-1304.25 1288.25,-1298.25 1288.25,-1292.25 1288.25,-1292.25 1288.25,-1280.25 1288.25,-1280.25 1288.25,-1274.25 1294.25,-1268.25 1300.25,-1268.25 1300.25,-1268.25 1521.75,-1268.25 1521.75,-1268.25 1527.75,-1268.25 1533.75,-1274.25 1533.75,-1280.25 1533.75,-1280.25 1533.75,-1292.25 1533.75,-1292.25 1533.75,-1298.25 1527.75,-1304.25 1521.75,-1304.25"/>
<text xml:space="preserve" text-anchor="middle" x="1411" y="-1280.83" font-family="Helvetica,sans-Serif" font-size="14.00">7: *bp++ = code; code &gt;&gt;= 8; bits &#45;= 8</text>
</g>
<!-- O6&#45;&gt;O7 -->
<g id="edge54" class="edge">
<title>O6&#45;&gt;O7</title>
<path fill="none" stroke="black" d="M1432.54,-1355.65C1428.91,-1344.14 1424.08,-1328.78 1419.9,-1315.53"/>
<polygon fill="black" stroke="black" points="1423.25,-1314.51 1416.91,-1306.02 1416.58,-1316.61 1423.25,-1314.51"/>
<text xml:space="preserve" text-anchor="middle" x="1438.54" y="-1324.7" font-family="Helvetica,sans-Serif" font-size="14.00">true</text>
</g>
<!-- O8 -->
<g id="node50" class="node">
<title>O8</title>
<path fill="none" stroke="black" d="M1532.25,-1231.25C1532.25,-1231.25 1415.75,-1231.25 1415.75,-1231.25 1409.75,-1231.25 1403.75,-1225.25 1403.75,-1219.25 1403.75,-1219.25 1403.75,-1207.25 1403.75,-1207.25 1403.75,-1201.25 1409.75,-1195.25 1415.75,-1195.25 1415.75,-1195.25 1532.25,-1195.25 1532.25,-1195.25 1538.25,-1195.25 1544.25,-1201.25 1544.25,-1207.25 1544.25,-1207.25 1544.25,-1219.25 1544.25,-1219.25 1544.25,-1225.25 1538.25,-1231.25 1532.25,-1231.25"/>
<text xml:space="preserve" text-anchor="middle" x="1474" y="-1207.83" font-family="Helvetica,sans-Serif" font-size="14.00">8: if (bits) *bp = code</text>
</g>
<!-- O6&#45;&gt;O8 -->
<g id="edge55" class="edge">
<title>O6&#45;&gt;O8</title>
<path fill="none" stroke="black" d="M1483.53,-1355.57C1505.72,-1344.48 1530.31,-1327.73 1543,-1304.25 1550.61,-1290.17 1550.01,-1282.63 1543,-1268.25 1537.23,-1256.4 1527.46,-1246.39 1517.07,-1238.33"/>
<polygon fill="black" stroke="black" points="1519.26,-1235.59 1509.08,-1232.63 1515.19,-1241.29 1519.26,-1235.59"/>
<text xml:space="preserve" text-anchor="middle" x="1562.73" y="-1280.83" font-family="Helvetica,sans-Serif" font-size="14.00">false</text>
</g>
<!-- O7&#45;&gt;O8 -->
<g id="edge56" class="edge">
<title>O7&#45;&gt;O8</title>
<path fill="none" stroke="black" d="M1426.25,-1268.06C1433.76,-1259.6 1442.96,-1249.23 1451.27,-1239.86"/>
<polygon fill="black" stroke="black" points="1453.87,-1242.21 1457.89,-1232.41 1448.63,-1237.57 1453.87,-1242.21"/>
</g>
<!-- O9 -->
<g id="node51" class="node">
<title>O9</title>
<path fill="none" stroke="black" d="M1524,-1158.25C1524,-1158.25 1424,-1158.25 1424,-1158.25 1418,-1158.25 1412,-1152.25 1412,-1146.25 1412,-1146.25 1412,-1134.25 1412,-1134.25 1412,-1128.25 1418,-1122.25 1424,-1122.25 1424,-1122.25 1524,-1122.25 1524,-1122.25 1530,-1122.25 1536,-1128.25 1536,-1134.25 1536,-1134.25 1536,-1146.25 1536,-1146.25 1536,-1152.25 1530,-1158.25 1524,-1158.25"/>
<text xml:space="preserve" text-anchor="middle" x="1474" y="-1134.83" font-family="Helvetica,sans-Serif" font-size="14.00">9: offset += n_bits</text>
</g>
<!-- O8&#45;&gt;O9 -->
<g id="edge57" class="edge">
<title>O8&#45;&gt;O9</title>
<path fill="none" stroke="black" d="M1474,-1195.06C1474,-1187.48 1474,-1178.35 1474,-1169.79"/>
<polygon fill="black" stroke="black" points="1477.5,-1169.79 1474,-1159.79 1470.5,-1169.79 1477.5,-1169.79"/>
</g>
<!-- O10 -->
<g id="node52" class="node">
<title>O10</title>
<path fill="none" stroke="black" d="M1557.75,-1070.5C1557.75,-1070.5 1390.25,-1070.5 1390.25,-1070.5 1384.25,-1070.5 1378.25,-1064.5 1378.25,-1058.5 1378.25,-1058.5 1378.25,-1046.5 1378.25,-1046.5 1378.25,-1040.5 1384.25,-1034.5 1390.25,-1034.5 1390.25,-1034.5 1557.75,-1034.5 1557.75,-1034.5 1563.75,-1034.5 1569.75,-1040.5 1569.75,-1046.5 1569.75,-1046.5 1569.75,-1058.5 1569.75,-1058.5 1569.75,-1064.5 1563.75,-1070.5 1557.75,-1070.5"/>
<text xml:space="preserve" text-anchor="middle" x="1474" y="-1047.08" font-family="Helvetica,sans-Serif" font-size="14.00">10: if (offset == (n_bits &lt;&lt; 3))</text>
</g>
<!-- O9&#45;&gt;O10 -->
<g id="edge58" class="edge">
<title>O9&#45;&gt;O10</title>
<path fill="none" stroke="black" d="M1474,-1121.9C1474,-1110.51 1474,-1095.34 1474,-1082.18"/>
<polygon fill="black" stroke="black" points="1477.5,-1082.34 1474,-1072.34 1470.5,-1082.34 1477.5,-1082.34"/>
</g>
<!-- O11 -->
<g id="node53" class="node">
<title>O11</title>
<path fill="none" stroke="black" d="M1514.25,-982.75C1514.25,-982.75 1325.75,-982.75 1325.75,-982.75 1319.75,-982.75 1313.75,-976.75 1313.75,-970.75 1313.75,-970.75 1313.75,-958.75 1313.75,-958.75 1313.75,-952.75 1319.75,-946.75 1325.75,-946.75 1325.75,-946.75 1514.25,-946.75 1514.25,-946.75 1520.25,-946.75 1526.25,-952.75 1526.25,-958.75 1526.25,-958.75 1526.25,-970.75 1526.25,-970.75 1526.25,-976.75 1520.25,-982.75 1514.25,-982.75"/>
<text xml:space="preserve" text-anchor="middle" x="1420" y="-959.33" font-family="Helvetica,sans-Serif" font-size="14.00">11: write bytes from buf; offset=0</text>
</g>
<!-- O10&#45;&gt;O11 -->
<g id="edge59" class="edge">
<title>O10&#45;&gt;O11</title>
<path fill="none" stroke="black" d="M1463.07,-1034.15C1455.53,-1022.18 1445.37,-1006.03 1436.8,-992.43"/>
<polygon fill="black" stroke="black" points="1440.01,-990.95 1431.72,-984.36 1434.09,-994.68 1440.01,-990.95"/>
<text xml:space="preserve" text-anchor="middle" x="1463.46" y="-1003.2" font-family="Helvetica,sans-Serif" font-size="14.00">true</text>
</g>
<!-- O12 -->
<g id="node54" class="node">
<title>O12</title>
<path fill="none" stroke="black" d="M1571.38,-874.75C1571.38,-874.75 1350.62,-874.75 1350.62,-874.75 1344.62,-874.75 1338.62,-868.75 1338.62,-862.75 1338.62,-862.75 1338.62,-850.75 1338.62,-850.75 1338.62,-844.75 1344.62,-838.75 1350.62,-838.75 1350.62,-838.75 1571.38,-838.75 1571.38,-838.75 1577.38,-838.75 1583.38,-844.75 1583.38,-850.75 1583.38,-850.75 1583.38,-862.75 1583.38,-862.75 1583.38,-868.75 1577.38,-874.75 1571.38,-874.75"/>
<text xml:space="preserve" text-anchor="middle" x="1461" y="-851.33" font-family="Helvetica,sans-Serif" font-size="14.00">12: if (free_ent &gt; maxcode || clear_flg)</text>
</g>
<!-- O10&#45;&gt;O12 -->
<g id="edge60" class="edge">
<title>O10&#45;&gt;O12</title>
<path fill="none" stroke="black" d="M1495.95,-1034.27C1510.07,-1021.71 1527.18,-1003.34 1535,-982.75 1540.68,-967.79 1540.44,-961.8 1535,-946.75 1525.96,-921.74 1506.49,-898.8 1489.79,-882.48"/>
<polygon fill="black" stroke="black" points="1492.65,-880.37 1482.97,-876.06 1487.85,-885.46 1492.65,-880.37"/>
<text xml:space="preserve" text-anchor="middle" x="1553.42" y="-959.33" font-family="Helvetica,sans-Serif" font-size="14.00">false</text>
</g>
<!-- O11&#45;&gt;O12 -->
<g id="edge61" class="edge">
<title>O11&#45;&gt;O12</title>
<path fill="none" stroke="black" d="M1426.59,-946.72C1432.95,-930.28 1442.68,-905.1 1450.18,-885.72"/>
<polygon fill="black" stroke="black" points="1453.4,-887.09 1453.75,-876.5 1446.87,-884.57 1453.4,-887.09"/>
</g>
<!-- O13 -->
<g id="node55" class="node">
<title>O13</title>
<path fill="none" stroke="black" d="M1488.38,-787C1488.38,-787 1273.62,-787 1273.62,-787 1267.62,-787 1261.62,-781 1261.62,-775 1261.62,-775 1261.62,-763 1261.62,-763 1261.62,-757 1267.62,-751 1273.62,-751 1273.62,-751 1488.38,-751 1488.38,-751 1494.38,-751 1500.38,-757 1500.38,-763 1500.38,-763 1500.38,-775 1500.38,-775 1500.38,-781 1494.38,-787 1488.38,-787"/>
<text xml:space="preserve" text-anchor="middle" x="1381" y="-763.58" font-family="Helvetica,sans-Serif" font-size="14.00">13: if (offset &gt; 0) write bytes; offset=0</text>
</g>
<!-- O12&#45;&gt;O13 -->
<g id="edge62" class="edge">
<title>O12&#45;&gt;O13</title>
<path fill="none" stroke="black" d="M1444.81,-838.4C1433.32,-826.08 1417.7,-809.34 1404.79,-795.5"/>
<polygon fill="black" stroke="black" points="1407.58,-793.36 1398.2,-788.43 1402.46,-798.13 1407.58,-793.36"/>
<text xml:space="preserve" text-anchor="middle" x="1439.79" y="-807.45" font-family="Helvetica,sans-Serif" font-size="14.00">true</text>
</g>
<!-- O12&#45;&gt;O16 -->
<g id="edge63" class="edge">
<title>O12&#45;&gt;O16</title>
<path fill="none" stroke="black" d="M1499.65,-838.4C1529.33,-825.07 1570.51,-806.58 1602.58,-792.19"/>
<polygon fill="black" stroke="black" points="1604.01,-795.38 1611.7,-788.09 1601.14,-789 1604.01,-795.38"/>
<text xml:space="preserve" text-anchor="middle" x="1587.86" y="-807.45" font-family="Helvetica,sans-Serif" font-size="14.00">false</text>
</g>
<!-- O14 -->
<g id="node56" class="node">
<title>O14</title>
<path fill="none" stroke="black" d="M1307,-699.25C1307,-699.25 931,-699.25 931,-699.25 925,-699.25 919,-693.25 919,-687.25 919,-687.25 919,-675.25 919,-675.25 919,-669.25 925,-663.25 931,-663.25 931,-663.25 1307,-663.25 1307,-663.25 1313,-663.25 1319,-669.25 1319,-675.25 1319,-675.25 1319,-687.25 1319,-687.25 1319,-693.25 1313,-699.25 1307,-699.25"/>
<text xml:space="preserve" text-anchor="middle" x="1119" y="-675.83" font-family="Helvetica,sans-Serif" font-size="14.00">14: if (clear_flg) maxcode = MAXCODE(INIT_BITS); clear_flg=0</text>
</g>
<!-- O13&#45;&gt;O14 -->
<g id="edge64" class="edge">
<title>O13&#45;&gt;O14</title>
<path fill="none" stroke="black" d="M1327.66,-750.54C1285.78,-736.84 1227.33,-717.7 1182.94,-703.18"/>
<polygon fill="black" stroke="black" points="1184.29,-699.94 1173.7,-700.15 1182.11,-706.59 1184.29,-699.94"/>
<text xml:space="preserve" text-anchor="middle" x="1298.97" y="-719.7" font-family="Helvetica,sans-Serif" font-size="14.00">clear_flg</text>
</g>
<!-- O15 -->
<g id="node57" class="node">
<title>O15</title>
<path fill="none" stroke="black" d="M1935,-699.25C1935,-699.25 1349,-699.25 1349,-699.25 1343,-699.25 1337,-693.25 1337,-687.25 1337,-687.25 1337,-675.25 1337,-675.25 1337,-669.25 1343,-663.25 1349,-663.25 1349,-663.25 1935,-663.25 1935,-663.25 1941,-663.25 1947,-669.25 1947,-675.25 1947,-675.25 1947,-687.25 1947,-687.25 1947,-693.25 1941,-699.25 1935,-699.25"/>
<text xml:space="preserve" text-anchor="middle" x="1642" y="-675.83" font-family="Helvetica,sans-Serif" font-size="14.00">15: else n_bits++; if (n_bits==maxbits) maxcode=maxmaxcode; else maxcode=MAXCODE(n_bits)</text>
</g>
<!-- O13&#45;&gt;O15 -->
<g id="edge65" class="edge">
<title>O13&#45;&gt;O15</title>
<path fill="none" stroke="black" d="M1434.13,-750.54C1475.77,-736.87 1533.84,-717.79 1578.03,-703.27"/>
<polygon fill="black" stroke="black" points="1579.1,-706.6 1587.5,-700.15 1576.91,-699.95 1579.1,-706.6"/>
<text xml:space="preserve" text-anchor="middle" x="1562.25" y="-719.7" font-family="Helvetica,sans-Serif" font-size="14.00">!clear_flg</text>
</g>
</g>
</svg>
