<?xml version="1.0" encoding="UTF-8" standalone="no"?>
<!DOCTYPE svg PUBLIC "-//W3C//DTD SVG 1.1//EN"
 "http://www.w3.org/Graphics/SVG/1.1/DTD/svg11.dtd">
<!-- Generated by graphviz version 13.1.2 (20250808.2320)
 -->
<!-- Title: DFG Pages: 1 -->
<svg width="3286pt" height="404pt"
 viewBox="0.00 0.00 3286.00 404.00" xmlns="http://www.w3.org/2000/svg" xmlns:xlink="http://www.w3.org/1999/xlink">
<g id="graph0" class="graph" transform="scale(1 1) rotate(0) translate(4 400)">
<title>DFG</title>
<polygon fill="white" stroke="none" points="-4,4 -4,-400 3281.88,-400 3281.88,4 -4,4"/>
<!-- arr -->
<g id="node1" class="node">
<title>arr</title>
<ellipse fill="none" stroke="black" cx="816.38" cy="-378" rx="39.07" ry="18"/>
<text xml:space="preserve" text-anchor="middle" x="816.38" y="-372.95" font-family="Courier,monospace" font-size="14.00">arr[]</text>
</g>
<!-- comp3 -->
<g id="node15" class="node">
<title>comp3</title>
<polygon fill="none" stroke="black" points="1030.5,-324 808.25,-324 808.25,-288 1030.5,-288 1030.5,-324"/>
<text xml:space="preserve" text-anchor="middle" x="919.38" y="-300.95" font-family="Courier,monospace" font-size="14.00">Compare: arr[l] &gt; arr[ir]</text>
</g>
<!-- arr&#45;&gt;comp3 -->
<g id="edge8" class="edge">
<title>arr&#45;&gt;comp3</title>
<path fill="none" stroke="black" d="M837.72,-362.5C851.18,-353.34 868.9,-341.3 884.39,-330.78"/>
<polygon fill="black" stroke="black" points="886.13,-333.82 892.43,-325.31 882.2,-328.03 886.13,-333.82"/>
</g>
<!-- comp4 -->
<g id="node16" class="node">
<title>comp4</title>
<polygon fill="none" stroke="black" points="1287.75,-324 1049,-324 1049,-288 1287.75,-288 1287.75,-324"/>
<text xml:space="preserve" text-anchor="middle" x="1168.38" y="-300.95" font-family="Courier,monospace" font-size="14.00">Compare: arr[l+1] &gt; arr[ir]</text>
</g>
<!-- arr&#45;&gt;comp4 -->
<g id="edge9" class="edge">
<title>arr&#45;&gt;comp4</title>
<path fill="none" stroke="black" d="M851.74,-369.97C902.23,-359.93 996.92,-341.1 1069.65,-326.63"/>
<polygon fill="black" stroke="black" points="1070.06,-330.12 1079.18,-324.74 1068.69,-323.25 1070.06,-330.12"/>
</g>
<!-- comp5 -->
<g id="node17" class="node">
<title>comp5</title>
<polygon fill="none" stroke="black" points="1536.62,-324 1306.12,-324 1306.12,-288 1536.62,-288 1536.62,-324"/>
<text xml:space="preserve" text-anchor="middle" x="1421.38" y="-300.95" font-family="Courier,monospace" font-size="14.00">Compare: arr[l] &gt; arr[l+1]</text>
</g>
<!-- arr&#45;&gt;comp5 -->
<g id="edge10" class="edge">
<title>arr&#45;&gt;comp5</title>
<path fill="none" stroke="black" d="M854.37,-373.13C933.83,-364.98 1123.65,-345.12 1294.71,-324.19"/>
<polygon fill="black" stroke="black" points="1294.95,-327.68 1304.45,-322.99 1294.09,-320.74 1294.95,-327.68"/>
</g>
<!-- comp6 -->
<g id="node18" class="node">
<title>comp6</title>
<polygon fill="none" stroke="black" points="172.75,-180 0,-180 0,-144 172.75,-144 172.75,-180"/>
<text xml:space="preserve" text-anchor="middle" x="86.38" y="-156.95" font-family="Courier,monospace" font-size="14.00">Compare: arr[i] &lt; a</text>
</g>
<!-- arr&#45;&gt;comp6 -->
<g id="edge11" class="edge">
<title>arr&#45;&gt;comp6</title>
<path fill="none" stroke="black" d="M777.11,-376.31C641.42,-373.59 197.81,-361.85 147.38,-324 105.42,-292.51 92.32,-228.53 88.23,-191.4"/>
<polygon fill="black" stroke="black" points="91.76,-191.5 87.34,-181.88 84.79,-192.16 91.76,-191.5"/>
</g>
<!-- comp7 -->
<g id="node19" class="node">
<title>comp7</title>
<polygon fill="none" stroke="black" points="363.75,-180 191,-180 191,-144 363.75,-144 363.75,-180"/>
<text xml:space="preserve" text-anchor="middle" x="277.38" y="-156.95" font-family="Courier,monospace" font-size="14.00">Compare: arr[j] &gt; a</text>
</g>
<!-- arr&#45;&gt;comp7 -->
<g id="edge12" class="edge">
<title>arr&#45;&gt;comp7</title>
<path fill="none" stroke="black" d="M777.05,-376.83C642.28,-375.86 205.06,-369.21 163.38,-324 122.21,-279.36 192.74,-219.34 240,-186.64"/>
<polygon fill="black" stroke="black" points="241.81,-189.64 248.13,-181.14 237.89,-183.84 241.81,-189.64"/>
</g>
<!-- swap1 -->
<g id="node22" class="node">
<title>swap1</title>
<polygon fill="none" stroke="black" points="1989.12,-324 1791.62,-324 1791.62,-288 1989.12,-288 1989.12,-324"/>
<text xml:space="preserve" text-anchor="middle" x="1890.38" y="-300.95" font-family="Courier,monospace" font-size="14.00">SWAP(arr[k], arr[l+1])</text>
</g>
<!-- arr&#45;&gt;swap1 -->
<g id="edge21" class="edge">
<title>arr&#45;&gt;swap1</title>
<path fill="none" stroke="black" d="M855.6,-376.27C985.66,-373.56 1414.76,-362.21 1779.93,-324.19"/>
<polygon fill="black" stroke="black" points="1780.18,-327.68 1789.76,-323.16 1779.44,-320.72 1780.18,-327.68"/>
</g>
<!-- swap2 -->
<g id="node23" class="node">
<title>swap2</title>
<polygon fill="none" stroke="black" points="2196,-324 2006.75,-324 2006.75,-288 2196,-288 2196,-324"/>
<text xml:space="preserve" text-anchor="middle" x="2101.38" y="-300.95" font-family="Courier,monospace" font-size="14.00">SWAP(arr[l], arr[ir])</text>
</g>
<!-- arr&#45;&gt;swap2 -->
<g id="edge22" class="edge">
<title>arr&#45;&gt;swap2</title>
<path fill="none" stroke="black" d="M855.78,-376.93C1004.03,-376.3 1542.43,-370.83 1994.96,-324.29"/>
<polygon fill="black" stroke="black" points="1995.22,-327.78 2004.8,-323.27 1994.49,-320.82 1995.22,-327.78"/>
</g>
<!-- swap3 -->
<g id="node24" class="node">
<title>swap3</title>
<polygon fill="none" stroke="black" points="2420.25,-324 2214.5,-324 2214.5,-288 2420.25,-288 2420.25,-324"/>
<text xml:space="preserve" text-anchor="middle" x="2317.38" y="-300.95" font-family="Courier,monospace" font-size="14.00">SWAP(arr[l+1], arr[ir])</text>
</g>
<!-- arr&#45;&gt;swap3 -->
<g id="edge23" class="edge">
<title>arr&#45;&gt;swap3</title>
<path fill="none" stroke="black" d="M855.7,-377.12C1019.5,-377.26 1663.74,-374.47 2203.17,-324.14"/>
<polygon fill="black" stroke="black" points="2203.16,-327.66 2212.79,-323.23 2202.5,-320.69 2203.16,-327.66"/>
</g>
<!-- swap4 -->
<g id="node25" class="node">
<title>swap4</title>
<polygon fill="none" stroke="black" points="2636.12,-324 2438.62,-324 2438.62,-288 2636.12,-288 2636.12,-324"/>
<text xml:space="preserve" text-anchor="middle" x="2537.38" y="-300.95" font-family="Courier,monospace" font-size="14.00">SWAP(arr[l], arr[l+1])</text>
</g>
<!-- arr&#45;&gt;swap4 -->
<g id="edge24" class="edge">
<title>arr&#45;&gt;swap4</title>
<path fill="none" stroke="black" d="M855.76,-376.37C1068.88,-372.83 2086.77,-354.68 2426.94,-324.13"/>
<polygon fill="black" stroke="black" points="2427.13,-327.63 2436.76,-323.22 2426.48,-320.66 2427.13,-327.63"/>
</g>
<!-- swap5 -->
<g id="node26" class="node">
<title>swap5</title>
<polygon fill="none" stroke="black" points="1773.88,-324 1592.88,-324 1592.88,-288 1773.88,-288 1773.88,-324"/>
<text xml:space="preserve" text-anchor="middle" x="1683.38" y="-300.95" font-family="Courier,monospace" font-size="14.00">SWAP(arr[i], arr[j])</text>
</g>
<!-- arr&#45;&gt;swap5 -->
<g id="edge25" class="edge">
<title>arr&#45;&gt;swap5</title>
<path fill="none" stroke="black" d="M855.35,-375.54C967.79,-371.07 1302.39,-355.87 1578.38,-324 1579.23,-323.9 1580.1,-323.8 1580.97,-323.7"/>
<polygon fill="black" stroke="black" points="1581.4,-327.17 1590.88,-322.44 1580.52,-320.22 1581.4,-327.17"/>
</g>
<!-- assign1 -->
<g id="node27" class="node">
<title>assign1</title>
<polygon fill="none" stroke="black" points="404.62,-324 306.12,-324 306.12,-288 404.62,-288 404.62,-324"/>
<text xml:space="preserve" text-anchor="middle" x="355.38" y="-300.95" font-family="Courier,monospace" font-size="14.00">a = arr[j]</text>
</g>
<!-- arr&#45;&gt;assign1 -->
<g id="edge31" class="edge">
<title>arr&#45;&gt;assign1</title>
<path fill="none" stroke="black" d="M777.96,-373.58C706.63,-366.84 549.09,-350.22 418.38,-324 417.56,-323.84 416.75,-323.67 415.92,-323.5"/>
<polygon fill="black" stroke="black" points="417.1,-320.17 406.57,-321.4 415.56,-327 417.1,-320.17"/>
</g>
<!-- assign2 -->
<g id="node28" class="node">
<title>assign2</title>
<polygon fill="none" stroke="black" points="616.5,-324 460.25,-324 460.25,-288 616.5,-288 616.5,-324"/>
<text xml:space="preserve" text-anchor="middle" x="538.38" y="-300.95" font-family="Courier,monospace" font-size="14.00">arr[i+1] = arr[i]</text>
</g>
<!-- arr&#45;&gt;assign2 -->
<g id="edge33" class="edge">
<title>arr&#45;&gt;assign2</title>
<path fill="none" stroke="black" d="M781.69,-369.38C739.6,-359.36 667.7,-341.41 612.9,-327.32"/>
<polygon fill="black" stroke="black" points="613.85,-323.96 603.29,-324.85 612.1,-330.73 613.85,-323.96"/>
</g>
<!-- assign4 -->
<g id="node30" class="node">
<title>assign4</title>
<polygon fill="none" stroke="black" points="287.88,-324 172.88,-324 172.88,-288 287.88,-288 287.88,-324"/>
<text xml:space="preserve" text-anchor="middle" x="230.38" y="-300.95" font-family="Courier,monospace" font-size="14.00">a = arr[l+1]</text>
</g>
<!-- arr&#45;&gt;assign4 -->
<g id="edge37" class="edge">
<title>arr&#45;&gt;assign4</title>
<path fill="none" stroke="black" d="M777.37,-374.98C692.3,-370.15 483.66,-356.02 299.61,-324.24"/>
<polygon fill="black" stroke="black" points="300.31,-320.81 289.86,-322.53 299.1,-327.7 300.31,-320.81"/>
</g>
<!-- assign5 -->
<g id="node31" class="node">
<title>assign5</title>
<polygon fill="none" stroke="black" points="790.5,-324 634.25,-324 634.25,-288 790.5,-288 790.5,-324"/>
<text xml:space="preserve" text-anchor="middle" x="712.38" y="-300.95" font-family="Courier,monospace" font-size="14.00">arr[l+1] = arr[j]</text>
</g>
<!-- arr&#45;&gt;assign5 -->
<g id="edge39" class="edge">
<title>arr&#45;&gt;assign5</title>
<path fill="none" stroke="black" d="M791.4,-363.83C776.34,-354.58 757.22,-341.95 741.5,-330.94"/>
<polygon fill="black" stroke="black" points="743.63,-328.16 733.45,-325.22 739.58,-333.86 743.63,-328.16"/>
</g>
<!-- istack -->
<g id="node2" class="node">
<title>istack</title>
<ellipse fill="none" stroke="black" cx="3096.38" cy="-378" rx="55.96" ry="18"/>
<text xml:space="preserve" text-anchor="middle" x="3096.38" y="-372.95" font-family="Courier,monospace" font-size="14.00">istack[]</text>
</g>
<!-- update2 -->
<g id="node34" class="node">
<title>update2</title>
<polygon fill="none" stroke="black" points="3120,-324 2930.75,-324 2930.75,-288 3120,-288 3120,-324"/>
<text xml:space="preserve" text-anchor="middle" x="3025.38" y="-300.95" font-family="Courier,monospace" font-size="14.00">ir = istack[jstack&#45;&#45;]</text>
</g>
<!-- istack&#45;&gt;update2 -->
<g id="edge45" class="edge">
<title>istack&#45;&gt;update2</title>
<path fill="none" stroke="black" d="M3079.55,-360.41C3071.05,-352.03 3060.55,-341.68 3051.07,-332.33"/>
<polygon fill="black" stroke="black" points="3053.73,-330.04 3044.15,-325.51 3048.81,-335.02 3053.73,-330.04"/>
</g>
<!-- update3 -->
<g id="node35" class="node">
<title>update3</title>
<polygon fill="none" stroke="black" points="3277.88,-180 3096.88,-180 3096.88,-144 3277.88,-144 3277.88,-180"/>
<text xml:space="preserve" text-anchor="middle" x="3187.38" y="-156.95" font-family="Courier,monospace" font-size="14.00">l = istack[jstack&#45;&#45;]</text>
</g>
<!-- istack&#45;&gt;update3 -->
<g id="edge49" class="edge">
<title>istack&#45;&gt;update3</title>
<path fill="none" stroke="black" d="M3108.02,-360.34C3114.82,-350.15 3123.23,-336.68 3129.38,-324 3151.07,-279.24 3169.2,-224.15 3179.14,-191.4"/>
<polygon fill="black" stroke="black" points="3182.49,-192.44 3182,-181.86 3175.78,-190.44 3182.49,-192.44"/>
</g>
<!-- n -->
<g id="node3" class="node">
<title>n</title>
<ellipse fill="none" stroke="black" cx="2744.38" cy="-378" rx="61.59" ry="18"/>
<text xml:space="preserve" text-anchor="middle" x="2744.38" y="-372.95" font-family="Courier,monospace" font-size="14.00">n (input)</text>
</g>
<!-- init -->
<g id="node12" class="node">
<title>init</title>
<polygon fill="none" stroke="black" points="2834.88,-324 2653.88,-324 2653.88,-288 2834.88,-288 2834.88,-324"/>
<text xml:space="preserve" text-anchor="middle" x="2744.38" y="-300.95" font-family="Courier,monospace" font-size="14.00">Initialize variables</text>
</g>
<!-- n&#45;&gt;init -->
<g id="edge1" class="edge">
<title>n&#45;&gt;init</title>
<path fill="none" stroke="black" d="M2744.38,-359.7C2744.38,-352.41 2744.38,-343.73 2744.38,-335.54"/>
<polygon fill="black" stroke="black" points="2747.88,-335.62 2744.38,-325.62 2740.88,-335.62 2747.88,-335.62"/>
</g>
<!-- i -->
<g id="node4" class="node">
<title>i</title>
<ellipse fill="none" stroke="black" cx="2935.38" cy="-90" rx="27" ry="18"/>
<text xml:space="preserve" text-anchor="middle" x="2935.38" y="-84.95" font-family="Courier,monospace" font-size="14.00">i</text>
</g>
<!-- comp8 -->
<g id="node20" class="node">
<title>comp8</title>
<polygon fill="none" stroke="black" points="3029.12,-36 2897.62,-36 2897.62,0 3029.12,0 3029.12,-36"/>
<text xml:space="preserve" text-anchor="middle" x="2963.38" y="-12.95" font-family="Courier,monospace" font-size="14.00">Compare: j &lt; i</text>
</g>
<!-- i&#45;&gt;comp8 -->
<g id="edge15" class="edge">
<title>i&#45;&gt;comp8</title>
<path fill="none" stroke="black" d="M2942.01,-72.41C2945.06,-64.79 2948.76,-55.55 2952.21,-46.9"/>
<polygon fill="black" stroke="black" points="2955.37,-48.44 2955.83,-37.85 2948.87,-45.84 2955.37,-48.44"/>
</g>
<!-- comp9 -->
<g id="node21" class="node">
<title>comp9</title>
<polygon fill="none" stroke="black" points="2879.12,-36 2681.62,-36 2681.62,0 2879.12,0 2879.12,-36"/>
<text xml:space="preserve" text-anchor="middle" x="2780.38" y="-12.95" font-family="Courier,monospace" font-size="14.00">Compare: ir&#45;i+1 &gt;= j&#45;l</text>
</g>
<!-- i&#45;&gt;comp9 -->
<g id="edge18" class="edge">
<title>i&#45;&gt;comp9</title>
<path fill="none" stroke="black" d="M2913.5,-79.12C2891.65,-69.25 2857.33,-53.75 2829.01,-40.96"/>
<polygon fill="black" stroke="black" points="2830.81,-37.94 2820.26,-37.01 2827.93,-44.32 2830.81,-37.94"/>
</g>
<!-- ir -->
<g id="node5" class="node">
<title>ir</title>
<ellipse fill="none" stroke="black" cx="2744.38" cy="-234" rx="27" ry="18"/>
<text xml:space="preserve" text-anchor="middle" x="2744.38" y="-228.95" font-family="Courier,monospace" font-size="14.00">ir</text>
</g>
<!-- comp1 -->
<g id="node13" class="node">
<title>comp1</title>
<polygon fill="none" stroke="black" points="2663.75,-36 2491,-36 2491,0 2663.75,0 2663.75,-36"/>
<text xml:space="preserve" text-anchor="middle" x="2577.38" y="-12.95" font-family="Courier,monospace" font-size="14.00">Compare: ir &#45; l &lt; M</text>
</g>
<!-- ir&#45;&gt;comp1 -->
<g id="edge5" class="edge">
<title>ir&#45;&gt;comp1</title>
<path fill="none" stroke="black" d="M2732.36,-217.61C2704.09,-181.37 2633.05,-90.34 2597.83,-45.21"/>
<polygon fill="black" stroke="black" points="2600.73,-43.24 2591.82,-37.5 2595.21,-47.54 2600.73,-43.24"/>
</g>
<!-- ir&#45;&gt;comp9 -->
<g id="edge17" class="edge">
<title>ir&#45;&gt;comp9</title>
<path fill="none" stroke="black" d="M2747.26,-215.85C2753.43,-179.14 2767.98,-92.66 2775.58,-47.53"/>
<polygon fill="black" stroke="black" points="2779.02,-48.17 2777.22,-37.73 2772.11,-47.01 2779.02,-48.17"/>
</g>
<!-- j -->
<g id="node6" class="node">
<title>j</title>
<ellipse fill="none" stroke="black" cx="2808.38" cy="-90" rx="27" ry="18"/>
<text xml:space="preserve" text-anchor="middle" x="2808.38" y="-84.95" font-family="Courier,monospace" font-size="14.00">j</text>
</g>
<!-- j&#45;&gt;comp8 -->
<g id="edge16" class="edge">
<title>j&#45;&gt;comp8</title>
<path fill="none" stroke="black" d="M2830.25,-79.12C2852.1,-69.25 2886.42,-53.75 2914.74,-40.96"/>
<polygon fill="black" stroke="black" points="2915.82,-44.32 2923.49,-37.01 2912.94,-37.94 2915.82,-44.32"/>
</g>
<!-- j&#45;&gt;comp9 -->
<g id="edge19" class="edge">
<title>j&#45;&gt;comp9</title>
<path fill="none" stroke="black" d="M2801.74,-72.41C2798.69,-64.79 2794.99,-55.55 2791.54,-46.9"/>
<polygon fill="black" stroke="black" points="2794.88,-45.84 2787.92,-37.85 2788.38,-48.44 2794.88,-45.84"/>
</g>
<!-- k -->
<g id="node7" class="node">
<title>k</title>
<ellipse fill="none" stroke="black" cx="3197.38" cy="-378" rx="27" ry="18"/>
<text xml:space="preserve" text-anchor="middle" x="3197.38" y="-372.95" font-family="Courier,monospace" font-size="14.00">k</text>
</g>
<!-- l -->
<g id="node8" class="node">
<title>l</title>
<ellipse fill="none" stroke="black" cx="2689.38" cy="-90" rx="27" ry="18"/>
<text xml:space="preserve" text-anchor="middle" x="2689.38" y="-84.95" font-family="Courier,monospace" font-size="14.00">l</text>
</g>
<!-- l&#45;&gt;comp1 -->
<g id="edge6" class="edge">
<title>l&#45;&gt;comp1</title>
<path fill="none" stroke="black" d="M2670.12,-76.97C2654.96,-67.49 2633.36,-53.99 2614.82,-42.4"/>
<polygon fill="black" stroke="black" points="2616.8,-39.51 2606.46,-37.18 2613.09,-45.45 2616.8,-39.51"/>
</g>
<!-- l&#45;&gt;comp9 -->
<g id="edge20" class="edge">
<title>l&#45;&gt;comp9</title>
<path fill="none" stroke="black" d="M2706.49,-75.83C2718.4,-66.67 2734.63,-54.19 2748.85,-43.25"/>
<polygon fill="black" stroke="black" points="2750.84,-46.14 2756.63,-37.26 2746.57,-40.59 2750.84,-46.14"/>
</g>
<!-- jstack -->
<g id="node9" class="node">
<title>jstack</title>
<ellipse fill="none" stroke="black" cx="3025.38" cy="-234" rx="44.7" ry="18"/>
<text xml:space="preserve" text-anchor="middle" x="3025.38" y="-228.95" font-family="Courier,monospace" font-size="14.00">jstack</text>
</g>
<!-- comp2 -->
<g id="node14" class="node">
<title>comp2</title>
<polygon fill="none" stroke="black" points="2953.88,-180 2772.88,-180 2772.88,-144 2953.88,-144 2953.88,-180"/>
<text xml:space="preserve" text-anchor="middle" x="2863.38" y="-156.95" font-family="Courier,monospace" font-size="14.00">Compare: jstack == 0</text>
</g>
<!-- jstack&#45;&gt;comp2 -->
<g id="edge7" class="edge">
<title>jstack&#45;&gt;comp2</title>
<path fill="none" stroke="black" d="M2995.66,-220.16C2972.84,-210.3 2940.79,-196.45 2913.96,-184.86"/>
<polygon fill="black" stroke="black" points="2915.54,-181.73 2904.97,-180.97 2912.76,-188.15 2915.54,-181.73"/>
</g>
<!-- update1 -->
<g id="node33" class="node">
<title>update1</title>
<polygon fill="none" stroke="black" points="3078.75,-180 2972,-180 2972,-144 3078.75,-144 3078.75,-180"/>
<text xml:space="preserve" text-anchor="middle" x="3025.38" y="-156.95" font-family="Courier,monospace" font-size="14.00">jstack += 2</text>
</g>
<!-- jstack&#45;&gt;update1 -->
<g id="edge43" class="edge">
<title>jstack&#45;&gt;update1</title>
<path fill="none" stroke="black" d="M3019.46,-215.7C3018.71,-208.41 3018.46,-199.73 3018.73,-191.54"/>
<polygon fill="black" stroke="black" points="3022.22,-191.82 3019.38,-181.61 3015.23,-191.36 3022.22,-191.82"/>
</g>
<!-- jstack&#45;&gt;update2 -->
<g id="edge47" class="edge">
<title>jstack&#45;&gt;update2</title>
<path fill="none" stroke="black" d="M3031.27,-252.1C3032.03,-259.37 3032.28,-268.04 3032.03,-276.24"/>
<polygon fill="black" stroke="black" points="3028.54,-275.98 3031.39,-286.19 3035.52,-276.43 3028.54,-275.98"/>
</g>
<!-- jstack&#45;&gt;update3 -->
<g id="edge51" class="edge">
<title>jstack&#45;&gt;update3</title>
<path fill="none" stroke="black" d="M3051.88,-219.17C3073.26,-209.36 3103.94,-195.99 3130.74,-184.75"/>
<polygon fill="black" stroke="black" points="3131.89,-188.06 3139.77,-180.99 3129.2,-181.6 3131.89,-188.06"/>
</g>
<!-- a -->
<g id="node10" class="node">
<title>a</title>
<ellipse fill="none" stroke="black" cx="316.38" cy="-234" rx="27" ry="18"/>
<text xml:space="preserve" text-anchor="middle" x="316.38" y="-228.95" font-family="Courier,monospace" font-size="14.00">a</text>
</g>
<!-- a&#45;&gt;comp6 -->
<g id="edge13" class="edge">
<title>a&#45;&gt;comp6</title>
<path fill="none" stroke="black" d="M292.2,-225.64C259.84,-215.79 201.16,-197.93 154.71,-183.8"/>
<polygon fill="black" stroke="black" points="155.83,-180.48 145.24,-180.92 153.79,-187.18 155.83,-180.48"/>
</g>
<!-- a&#45;&gt;comp7 -->
<g id="edge14" class="edge">
<title>a&#45;&gt;comp7</title>
<path fill="none" stroke="black" d="M307.33,-216.76C302.88,-208.78 297.41,-198.95 292.36,-189.89"/>
<polygon fill="black" stroke="black" points="295.58,-188.48 287.65,-181.45 289.46,-191.89 295.58,-188.48"/>
</g>
<!-- assign3 -->
<g id="node29" class="node">
<title>assign3</title>
<polygon fill="none" stroke="black" points="496.88,-180 381.88,-180 381.88,-144 496.88,-144 496.88,-180"/>
<text xml:space="preserve" text-anchor="middle" x="439.38" y="-156.95" font-family="Courier,monospace" font-size="14.00">arr[i+1] = a</text>
</g>
<!-- a&#45;&gt;assign3 -->
<g id="edge35" class="edge">
<title>a&#45;&gt;assign3</title>
<path fill="none" stroke="black" d="M336.41,-221.6C353.26,-212.01 377.88,-198 398.82,-186.08"/>
<polygon fill="black" stroke="black" points="400.48,-189.16 407.44,-181.18 397.02,-183.08 400.48,-189.16"/>
</g>
<!-- assign6 -->
<g id="node32" class="node">
<title>assign6</title>
<polygon fill="none" stroke="black" points="1113.62,-180 1015.12,-180 1015.12,-144 1113.62,-144 1113.62,-180"/>
<text xml:space="preserve" text-anchor="middle" x="1064.38" y="-156.95" font-family="Courier,monospace" font-size="14.00">arr[j] = a</text>
</g>
<!-- a&#45;&gt;assign6 -->
<g id="edge41" class="edge">
<title>a&#45;&gt;assign6</title>
<path fill="none" stroke="black" d="M343,-230.51C449.95,-220.5 849.97,-183.06 1003.68,-168.68"/>
<polygon fill="black" stroke="black" points="1003.62,-172.2 1013.25,-167.78 1002.96,-165.23 1003.62,-172.2"/>
</g>
<!-- temp -->
<g id="node11" class="node">
<title>temp</title>
<ellipse fill="none" stroke="black" cx="2101.38" cy="-378" rx="33.44" ry="18"/>
<text xml:space="preserve" text-anchor="middle" x="2101.38" y="-372.95" font-family="Courier,monospace" font-size="14.00">temp</text>
</g>
<!-- temp&#45;&gt;swap1 -->
<g id="edge26" class="edge">
<title>temp&#45;&gt;swap1</title>
<path fill="none" stroke="black" d="M2073.36,-367.7C2042.96,-357.62 1993.44,-341.19 1953.58,-327.97"/>
<polygon fill="black" stroke="black" points="1954.91,-324.72 1944.32,-324.9 1952.71,-331.37 1954.91,-324.72"/>
</g>
<!-- temp&#45;&gt;swap2 -->
<g id="edge27" class="edge">
<title>temp&#45;&gt;swap2</title>
<path fill="none" stroke="black" d="M2101.38,-359.7C2101.38,-352.41 2101.38,-343.73 2101.38,-335.54"/>
<polygon fill="black" stroke="black" points="2104.88,-335.62 2101.38,-325.62 2097.88,-335.62 2104.88,-335.62"/>
</g>
<!-- temp&#45;&gt;swap3 -->
<g id="edge28" class="edge">
<title>temp&#45;&gt;swap3</title>
<path fill="none" stroke="black" d="M2129.61,-367.85C2160.69,-357.78 2211.66,-341.26 2252.66,-327.97"/>
<polygon fill="black" stroke="black" points="2253.52,-331.37 2261.95,-324.96 2251.36,-324.71 2253.52,-331.37"/>
</g>
<!-- temp&#45;&gt;swap4 -->
<g id="edge29" class="edge">
<title>temp&#45;&gt;swap4</title>
<path fill="none" stroke="black" d="M2133.08,-371.91C2193.93,-362.14 2329.69,-340.34 2427.11,-324.7"/>
<polygon fill="black" stroke="black" points="2427.38,-328.2 2436.7,-323.16 2426.27,-321.29 2427.38,-328.2"/>
</g>
<!-- temp&#45;&gt;swap5 -->
<g id="edge30" class="edge">
<title>temp&#45;&gt;swap5</title>
<path fill="none" stroke="black" d="M2069.67,-371.79C2014.23,-362.67 1895.76,-343.12 1785.59,-324.54"/>
<polygon fill="black" stroke="black" points="1786.21,-321.09 1775.77,-322.88 1785.04,-328 1786.21,-321.09"/>
</g>
<!-- init&#45;&gt;ir -->
<g id="edge2" class="edge">
<title>init&#45;&gt;ir</title>
<path fill="none" stroke="black" d="M2744.38,-287.7C2744.38,-280.41 2744.38,-271.73 2744.38,-263.54"/>
<polygon fill="black" stroke="black" points="2747.88,-263.62 2744.38,-253.62 2740.88,-263.62 2747.88,-263.62"/>
</g>
<!-- init&#45;&gt;l -->
<g id="edge3" class="edge">
<title>init&#45;&gt;l</title>
<path fill="none" stroke="black" d="M2729.38,-287.57C2721.79,-277.76 2713.2,-264.92 2708.38,-252 2691.89,-207.81 2688.84,-152.48 2688.71,-119.53"/>
<polygon fill="black" stroke="black" points="2692.21,-119.6 2688.77,-109.58 2685.21,-119.56 2692.21,-119.6"/>
</g>
<!-- init&#45;&gt;jstack -->
<g id="edge4" class="edge">
<title>init&#45;&gt;jstack</title>
<path fill="none" stroke="black" d="M2814.56,-287.52C2865.1,-274.93 2932.01,-258.26 2976.76,-247.11"/>
<polygon fill="black" stroke="black" points="2977.59,-250.51 2986.45,-244.7 2975.9,-243.72 2977.59,-250.51"/>
</g>
<!-- assign1&#45;&gt;a -->
<g id="edge32" class="edge">
<title>assign1&#45;&gt;a</title>
<path fill="none" stroke="black" d="M345.73,-287.7C341.26,-279.67 335.85,-269.95 330.89,-261.05"/>
<polygon fill="black" stroke="black" points="334.03,-259.5 326.11,-252.47 327.92,-262.91 334.03,-259.5"/>
</g>
<!-- assign2&#45;&gt;arr -->
<g id="edge34" class="edge">
<title>assign2&#45;&gt;arr</title>
<path fill="none" stroke="black" d="M613.61,-324.45C664.63,-336.98 730.24,-353.55 772.84,-364.71"/>
<polygon fill="black" stroke="black" points="771.92,-368.08 782.48,-367.25 773.7,-361.32 771.92,-368.08"/>
</g>
<!-- assign3&#45;&gt;arr -->
<g id="edge36" class="edge">
<title>assign3&#45;&gt;arr</title>
<path fill="none" stroke="black" d="M434.49,-180.26C426.4,-213.02 414.48,-284.44 451.38,-324 493.05,-368.7 675.51,-376.2 765.63,-377.13"/>
<polygon fill="black" stroke="black" points="765.39,-380.63 775.42,-377.21 765.44,-373.63 765.39,-380.63"/>
</g>
<!-- assign4&#45;&gt;a -->
<g id="edge38" class="edge">
<title>assign4&#45;&gt;a</title>
<path fill="none" stroke="black" d="M251.63,-287.7C263.56,-277.99 278.52,-265.81 291.05,-255.61"/>
<polygon fill="black" stroke="black" points="292.95,-258.58 298.49,-249.55 288.53,-253.15 292.95,-258.58"/>
</g>
<!-- assign5&#45;&gt;arr -->
<g id="edge40" class="edge">
<title>assign5&#45;&gt;arr</title>
<path fill="none" stroke="black" d="M744.25,-324.46C758.9,-333.69 776.01,-345.12 789.94,-354.96"/>
<polygon fill="black" stroke="black" points="787.62,-357.6 797.78,-360.58 791.7,-351.91 787.62,-357.6"/>
</g>
<!-- assign6&#45;&gt;arr -->
<g id="edge42" class="edge">
<title>assign6&#45;&gt;arr</title>
<path fill="none" stroke="black" d="M1113.9,-163.53C1260.19,-166.64 1672.36,-187.45 1545.38,-324 1499.32,-373.52 1024.51,-377.32 866.91,-377.2"/>
<polygon fill="black" stroke="black" points="867.2,-373.7 857.19,-377.19 867.19,-380.7 867.2,-373.7"/>
</g>
<!-- update1&#45;&gt;jstack -->
<g id="edge44" class="edge">
<title>update1&#45;&gt;jstack</title>
<path fill="none" stroke="black" d="M3031.27,-180.1C3032.03,-187.37 3032.28,-196.04 3032.03,-204.24"/>
<polygon fill="black" stroke="black" points="3028.54,-203.98 3031.39,-214.19 3035.52,-204.43 3028.54,-203.98"/>
</g>
<!-- update2&#45;&gt;ir -->
<g id="edge46" class="edge">
<title>update2&#45;&gt;ir</title>
<path fill="none" stroke="black" d="M2955.19,-287.52C2899.68,-273.69 2824.44,-254.94 2780.48,-243.99"/>
<polygon fill="black" stroke="black" points="2781.5,-240.64 2770.95,-241.62 2779.8,-247.43 2781.5,-240.64"/>
</g>
<!-- update2&#45;&gt;jstack -->
<g id="edge48" class="edge">
<title>update2&#45;&gt;jstack</title>
<path fill="none" stroke="black" d="M3019.46,-287.7C3018.71,-280.41 3018.46,-271.73 3018.73,-263.54"/>
<polygon fill="black" stroke="black" points="3022.22,-263.82 3019.38,-253.61 3015.23,-263.36 3022.22,-263.82"/>
</g>
<!-- update3&#45;&gt;l -->
<g id="edge50" class="edge">
<title>update3&#45;&gt;l</title>
<path fill="none" stroke="black" d="M3096.39,-145.32C3093.35,-144.86 3090.34,-144.42 3087.38,-144 2947.86,-124.18 2911.53,-130.16 2772.38,-108 2757.02,-105.55 2740.19,-102.23 2725.72,-99.17"/>
<polygon fill="black" stroke="black" points="2726.69,-95.8 2716.18,-97.11 2725.21,-102.64 2726.69,-95.8"/>
</g>
<!-- update3&#45;&gt;jstack -->
<g id="edge52" class="edge">
<title>update3&#45;&gt;jstack</title>
<path fill="none" stroke="black" d="M3153.03,-180.4C3128.24,-191.61 3094.73,-206.07 3068.21,-216.99"/>
<polygon fill="black" stroke="black" points="3067.02,-213.69 3059.08,-220.71 3069.66,-220.17 3067.02,-213.69"/>
</g>
</g>
</svg>
