<?xml version="1.0" encoding="UTF-8" standalone="no"?>
<!DOCTYPE svg PUBLIC "-//W3C//DTD SVG 1.1//EN"
 "http://www.w3.org/Graphics/SVG/1.1/DTD/svg11.dtd">
<!-- Generated by graphviz version 13.1.2 (20250808.2320)
 -->
<!-- Title: CFG Pages: 1 -->
<svg width="727pt" height="949pt"
 viewBox="0.00 0.00 727.00 949.00" xmlns="http://www.w3.org/2000/svg" xmlns:xlink="http://www.w3.org/1999/xlink">
<g id="graph0" class="graph" transform="scale(1 1) rotate(0) translate(4 944.73)">
<title>CFG</title>
<polygon fill="white" stroke="none" points="-4,4 -4,-944.73 723.12,-944.73 723.12,4 -4,4"/>
<!-- N1 -->
<g id="node1" class="node">
<title>N1</title>
<path fill="none" stroke="black" d="M631,-940.73C631,-940.73 564,-940.73 564,-940.73 558,-940.73 552,-934.73 552,-928.73 552,-928.73 552,-916.73 552,-916.73 552,-910.73 558,-904.73 564,-904.73 564,-904.73 631,-904.73 631,-904.73 637,-904.73 643,-910.73 643,-916.73 643,-916.73 643,-928.73 643,-928.73 643,-934.73 637,-940.73 631,-940.73"/>
<text xml:space="preserve" text-anchor="middle" x="597.5" y="-917.3" font-family="Helvetica,sans-Serif" font-size="14.00">1: int i, j, k, l;</text>
</g>
<!-- N2 -->
<g id="node2" class="node">
<title>N2</title>
<path fill="none" stroke="black" d="M614.12,-867.73C614.12,-867.73 580.88,-867.73 580.88,-867.73 574.88,-867.73 568.88,-861.73 568.88,-855.73 568.88,-855.73 568.88,-843.73 568.88,-843.73 568.88,-837.73 574.88,-831.73 580.88,-831.73 580.88,-831.73 614.12,-831.73 614.12,-831.73 620.12,-831.73 626.12,-837.73 626.12,-843.73 626.12,-843.73 626.12,-855.73 626.12,-855.73 626.12,-861.73 620.12,-867.73 614.12,-867.73"/>
<text xml:space="preserve" text-anchor="middle" x="597.5" y="-844.3" font-family="Helvetica,sans-Serif" font-size="14.00">2: i = 0</text>
</g>
<!-- N1&#45;&gt;N2 -->
<g id="edge1" class="edge">
<title>N1&#45;&gt;N2</title>
<path fill="none" stroke="black" d="M597.5,-904.54C597.5,-896.95 597.5,-887.83 597.5,-879.27"/>
<polygon fill="black" stroke="black" points="601,-879.27 597.5,-869.27 594,-879.27 601,-879.27"/>
</g>
<!-- N3 -->
<g id="node3" class="node">
<title>N3</title>
<path fill="none" stroke="black" d="M623.88,-794.73C623.88,-794.73 571.12,-794.73 571.12,-794.73 565.12,-794.73 559.12,-788.73 559.12,-782.73 559.12,-782.73 559.12,-770.73 559.12,-770.73 559.12,-764.73 565.12,-758.73 571.12,-758.73 571.12,-758.73 623.88,-758.73 623.88,-758.73 629.88,-758.73 635.88,-764.73 635.88,-770.73 635.88,-770.73 635.88,-782.73 635.88,-782.73 635.88,-788.73 629.88,-794.73 623.88,-794.73"/>
<text xml:space="preserve" text-anchor="middle" x="597.5" y="-771.3" font-family="Helvetica,sans-Serif" font-size="14.00">3: if (i &lt; 5)</text>
</g>
<!-- N2&#45;&gt;N3 -->
<g id="edge2" class="edge">
<title>N2&#45;&gt;N3</title>
<path fill="none" stroke="black" d="M597.5,-831.54C597.5,-823.95 597.5,-814.83 597.5,-806.27"/>
<polygon fill="black" stroke="black" points="601,-806.27 597.5,-796.27 594,-806.27 601,-806.27"/>
</g>
<!-- N4 -->
<g id="node4" class="node">
<title>N4</title>
<path fill="none" stroke="black" d="M555.12,-706.23C555.12,-706.23 521.88,-706.23 521.88,-706.23 515.88,-706.23 509.88,-700.23 509.88,-694.23 509.88,-694.23 509.88,-682.23 509.88,-682.23 509.88,-676.23 515.88,-670.23 521.88,-670.23 521.88,-670.23 555.12,-670.23 555.12,-670.23 561.12,-670.23 567.12,-676.23 567.12,-682.23 567.12,-682.23 567.12,-694.23 567.12,-694.23 567.12,-700.23 561.12,-706.23 555.12,-706.23"/>
<text xml:space="preserve" text-anchor="middle" x="538.5" y="-682.8" font-family="Helvetica,sans-Serif" font-size="14.00">4: j = 0</text>
</g>
<!-- N3&#45;&gt;N4 -->
<g id="edge3" class="edge">
<title>N3&#45;&gt;N4</title>
<path fill="none" stroke="black" d="M577.67,-758.3C572.33,-752.99 566.84,-746.92 562.5,-740.73 557.37,-733.39 552.86,-724.79 549.17,-716.73"/>
<polygon fill="black" stroke="black" points="552.44,-715.47 545.28,-707.65 546,-718.22 552.44,-715.47"/>
<text xml:space="preserve" text-anchor="middle" x="573" y="-727.43" font-family="Times New Roman,serif" font-size="14.00">true</text>
</g>
<!-- N20 -->
<g id="node20" class="node">
<title>N20</title>
<path fill="none" stroke="black" d="M707.12,-133.23C707.12,-133.23 637.88,-133.23 637.88,-133.23 631.88,-133.23 625.88,-127.23 625.88,-121.23 625.88,-121.23 625.88,-109.23 625.88,-109.23 625.88,-103.23 631.88,-97.23 637.88,-97.23 637.88,-97.23 707.12,-97.23 707.12,-97.23 713.12,-97.23 719.12,-103.23 719.12,-109.23 719.12,-109.23 719.12,-121.23 719.12,-121.23 719.12,-127.23 713.12,-133.23 707.12,-133.23"/>
<text xml:space="preserve" text-anchor="middle" x="672.5" y="-109.8" font-family="Helvetica,sans-Serif" font-size="14.00">20: return &#45;1;</text>
</g>
<!-- N3&#45;&gt;N20 -->
<g id="edge4" class="edge">
<title>N3&#45;&gt;N20</title>
<path fill="none" stroke="black" d="M630.7,-758.47C654.18,-743.63 681.5,-719.79 681.5,-689.23 681.5,-689.23 681.5,-689.23 681.5,-202.73 681.5,-183.29 679.22,-161.52 676.96,-144.69"/>
<polygon fill="black" stroke="black" points="680.44,-144.31 675.56,-134.9 673.51,-145.3 680.44,-144.31"/>
<text xml:space="preserve" text-anchor="middle" x="694.25" y="-448.68" font-family="Times New Roman,serif" font-size="14.00">false</text>
</g>
<!-- N5 -->
<g id="node5" class="node">
<title>N5</title>
<path fill="none" stroke="black" d="M533.88,-633.23C533.88,-633.23 481.12,-633.23 481.12,-633.23 475.12,-633.23 469.12,-627.23 469.12,-621.23 469.12,-621.23 469.12,-609.23 469.12,-609.23 469.12,-603.23 475.12,-597.23 481.12,-597.23 481.12,-597.23 533.88,-597.23 533.88,-597.23 539.88,-597.23 545.88,-603.23 545.88,-609.23 545.88,-609.23 545.88,-621.23 545.88,-621.23 545.88,-627.23 539.88,-633.23 533.88,-633.23"/>
<text xml:space="preserve" text-anchor="middle" x="507.5" y="-609.8" font-family="Helvetica,sans-Serif" font-size="14.00">5: if (j &lt; 5)</text>
</g>
<!-- N4&#45;&gt;N5 -->
<g id="edge5" class="edge">
<title>N4&#45;&gt;N5</title>
<path fill="none" stroke="black" d="M531,-670.04C527.53,-662.1 523.33,-652.49 519.45,-643.59"/>
<polygon fill="black" stroke="black" points="522.75,-642.41 515.54,-634.64 516.33,-645.21 522.75,-642.41"/>
</g>
<!-- N6 -->
<g id="node6" class="node">
<title>N6</title>
<path fill="none" stroke="black" d="M441,-544.73C441,-544.73 404,-544.73 404,-544.73 398,-544.73 392,-538.73 392,-532.73 392,-532.73 392,-520.73 392,-520.73 392,-514.73 398,-508.73 404,-508.73 404,-508.73 441,-508.73 441,-508.73 447,-508.73 453,-514.73 453,-520.73 453,-520.73 453,-532.73 453,-532.73 453,-538.73 447,-544.73 441,-544.73"/>
<text xml:space="preserve" text-anchor="middle" x="422.5" y="-521.3" font-family="Helvetica,sans-Serif" font-size="14.00">6: k = 0</text>
</g>
<!-- N5&#45;&gt;N6 -->
<g id="edge6" class="edge">
<title>N5&#45;&gt;N6</title>
<path fill="none" stroke="black" d="M470.79,-596.84C462.8,-591.92 454.84,-586.02 448.5,-579.23 442.13,-572.41 436.95,-563.73 432.94,-555.45"/>
<polygon fill="black" stroke="black" points="436.18,-554.12 428.95,-546.37 429.77,-556.94 436.18,-554.12"/>
<text xml:space="preserve" text-anchor="middle" x="459" y="-565.93" font-family="Times New Roman,serif" font-size="14.00">true</text>
</g>
<!-- N18 -->
<g id="node18" class="node">
<title>N18</title>
<path fill="none" stroke="black" d="M557.5,-544.73C557.5,-544.73 523.5,-544.73 523.5,-544.73 517.5,-544.73 511.5,-538.73 511.5,-532.73 511.5,-532.73 511.5,-520.73 511.5,-520.73 511.5,-514.73 517.5,-508.73 523.5,-508.73 523.5,-508.73 557.5,-508.73 557.5,-508.73 563.5,-508.73 569.5,-514.73 569.5,-520.73 569.5,-520.73 569.5,-532.73 569.5,-532.73 569.5,-538.73 563.5,-544.73 557.5,-544.73"/>
<text xml:space="preserve" text-anchor="middle" x="540.5" y="-521.3" font-family="Helvetica,sans-Serif" font-size="14.00">18: i++</text>
</g>
<!-- N5&#45;&gt;N18 -->
<g id="edge7" class="edge">
<title>N5&#45;&gt;N18</title>
<path fill="none" stroke="black" d="M514.02,-597.14C518.56,-585.25 524.7,-569.14 529.93,-555.43"/>
<polygon fill="black" stroke="black" points="533.05,-557.08 533.34,-546.49 526.51,-554.59 533.05,-557.08"/>
<text xml:space="preserve" text-anchor="middle" x="539.71" y="-565.93" font-family="Times New Roman,serif" font-size="14.00">false</text>
</g>
<!-- N7 -->
<g id="node7" class="node">
<title>N7</title>
<path fill="none" stroke="black" d="M430.75,-471.73C430.75,-471.73 374.25,-471.73 374.25,-471.73 368.25,-471.73 362.25,-465.73 362.25,-459.73 362.25,-459.73 362.25,-447.73 362.25,-447.73 362.25,-441.73 368.25,-435.73 374.25,-435.73 374.25,-435.73 430.75,-435.73 430.75,-435.73 436.75,-435.73 442.75,-441.73 442.75,-447.73 442.75,-447.73 442.75,-459.73 442.75,-459.73 442.75,-465.73 436.75,-471.73 430.75,-471.73"/>
<text xml:space="preserve" text-anchor="middle" x="402.5" y="-448.3" font-family="Helvetica,sans-Serif" font-size="14.00">7: if (k &lt; 5)</text>
</g>
<!-- N6&#45;&gt;N7 -->
<g id="edge8" class="edge">
<title>N6&#45;&gt;N7</title>
<path fill="none" stroke="black" d="M417.66,-508.54C415.47,-500.78 412.83,-491.41 410.37,-482.68"/>
<polygon fill="black" stroke="black" points="413.79,-481.89 407.71,-473.21 407.05,-483.79 413.79,-481.89"/>
</g>
<!-- N8 -->
<g id="node8" class="node">
<title>N8</title>
<path fill="none" stroke="black" d="M325.12,-383.23C325.12,-383.23 291.88,-383.23 291.88,-383.23 285.88,-383.23 279.88,-377.23 279.88,-371.23 279.88,-371.23 279.88,-359.23 279.88,-359.23 279.88,-353.23 285.88,-347.23 291.88,-347.23 291.88,-347.23 325.12,-347.23 325.12,-347.23 331.12,-347.23 337.12,-353.23 337.12,-359.23 337.12,-359.23 337.12,-371.23 337.12,-371.23 337.12,-377.23 331.12,-383.23 325.12,-383.23"/>
<text xml:space="preserve" text-anchor="middle" x="308.5" y="-359.8" font-family="Helvetica,sans-Serif" font-size="14.00">8: l = 0</text>
</g>
<!-- N7&#45;&gt;N8 -->
<g id="edge9" class="edge">
<title>N7&#45;&gt;N8</title>
<path fill="none" stroke="black" d="M383.93,-435.64C370.11,-422.93 351.05,-405.38 335.55,-391.12"/>
<polygon fill="black" stroke="black" points="338.2,-388.8 328.47,-384.6 333.46,-393.95 338.2,-388.8"/>
<text xml:space="preserve" text-anchor="middle" x="374.42" y="-404.43" font-family="Times New Roman,serif" font-size="14.00">true</text>
</g>
<!-- N16 -->
<g id="node16" class="node">
<title>N16</title>
<path fill="none" stroke="black" d="M405.5,-383.23C405.5,-383.23 371.5,-383.23 371.5,-383.23 365.5,-383.23 359.5,-377.23 359.5,-371.23 359.5,-371.23 359.5,-359.23 359.5,-359.23 359.5,-353.23 365.5,-347.23 371.5,-347.23 371.5,-347.23 405.5,-347.23 405.5,-347.23 411.5,-347.23 417.5,-353.23 417.5,-359.23 417.5,-359.23 417.5,-371.23 417.5,-371.23 417.5,-377.23 411.5,-383.23 405.5,-383.23"/>
<text xml:space="preserve" text-anchor="middle" x="388.5" y="-359.8" font-family="Helvetica,sans-Serif" font-size="14.00">16: j++</text>
</g>
<!-- N7&#45;&gt;N16 -->
<g id="edge10" class="edge">
<title>N7&#45;&gt;N16</title>
<path fill="none" stroke="black" d="M399.73,-435.64C397.85,-423.99 395.31,-408.27 393.12,-394.75"/>
<polygon fill="black" stroke="black" points="396.6,-394.38 391.55,-385.07 389.69,-395.5 396.6,-394.38"/>
<text xml:space="preserve" text-anchor="middle" x="409.5" y="-404.43" font-family="Times New Roman,serif" font-size="14.00">false</text>
</g>
<!-- N9 -->
<g id="node9" class="node">
<title>N9</title>
<path fill="none" stroke="black" d="M292.88,-310.23C292.88,-310.23 240.12,-310.23 240.12,-310.23 234.12,-310.23 228.12,-304.23 228.12,-298.23 228.12,-298.23 228.12,-286.23 228.12,-286.23 228.12,-280.23 234.12,-274.23 240.12,-274.23 240.12,-274.23 292.88,-274.23 292.88,-274.23 298.88,-274.23 304.88,-280.23 304.88,-286.23 304.88,-286.23 304.88,-298.23 304.88,-298.23 304.88,-304.23 298.88,-310.23 292.88,-310.23"/>
<text xml:space="preserve" text-anchor="middle" x="266.5" y="-286.8" font-family="Helvetica,sans-Serif" font-size="14.00">9: if (l &lt; 5)</text>
</g>
<!-- N8&#45;&gt;N9 -->
<g id="edge11" class="edge">
<title>N8&#45;&gt;N9</title>
<path fill="none" stroke="black" d="M298.33,-347.04C293.54,-338.93 287.7,-329.06 282.34,-320"/>
<polygon fill="black" stroke="black" points="285.45,-318.38 277.34,-311.56 279.42,-321.95 285.45,-318.38"/>
</g>
<!-- N10 -->
<g id="node10" class="node">
<title>N10</title>
<path fill="none" stroke="black" d="M325.62,-221.73C325.62,-221.73 187.38,-221.73 187.38,-221.73 181.38,-221.73 175.38,-215.73 175.38,-209.73 175.38,-209.73 175.38,-197.73 175.38,-197.73 175.38,-191.73 181.38,-185.73 187.38,-185.73 187.38,-185.73 325.62,-185.73 325.62,-185.73 331.62,-185.73 337.62,-191.73 337.62,-197.73 337.62,-197.73 337.62,-209.73 337.62,-209.73 337.62,-215.73 331.62,-221.73 325.62,-221.73"/>
<text xml:space="preserve" text-anchor="middle" x="256.5" y="-198.3" font-family="Helvetica,sans-Serif" font-size="14.00">10: if (keys[i][j][k][l] == x)</text>
</g>
<!-- N9&#45;&gt;N10 -->
<g id="edge12" class="edge">
<title>N9&#45;&gt;N10</title>
<path fill="none" stroke="black" d="M264.52,-274.14C263.18,-262.49 261.36,-246.77 259.8,-233.25"/>
<polygon fill="black" stroke="black" points="263.3,-233.11 258.68,-223.58 256.35,-233.92 263.3,-233.11"/>
<text xml:space="preserve" text-anchor="middle" x="272.9" y="-242.93" font-family="Times New Roman,serif" font-size="14.00">true</text>
</g>
<!-- N14 -->
<g id="node14" class="node">
<title>N14</title>
<path fill="none" stroke="black" d="M405.38,-221.73C405.38,-221.73 367.62,-221.73 367.62,-221.73 361.62,-221.73 355.62,-215.73 355.62,-209.73 355.62,-209.73 355.62,-197.73 355.62,-197.73 355.62,-191.73 361.62,-185.73 367.62,-185.73 367.62,-185.73 405.38,-185.73 405.38,-185.73 411.38,-185.73 417.38,-191.73 417.38,-197.73 417.38,-197.73 417.38,-209.73 417.38,-209.73 417.38,-215.73 411.38,-221.73 405.38,-221.73"/>
<text xml:space="preserve" text-anchor="middle" x="386.5" y="-198.3" font-family="Helvetica,sans-Serif" font-size="14.00">14: k++</text>
</g>
<!-- N9&#45;&gt;N14 -->
<g id="edge13" class="edge">
<title>N9&#45;&gt;N14</title>
<path fill="none" stroke="black" d="M290.5,-273.93C308.48,-260.97 333.32,-243.06 353.22,-228.72"/>
<polygon fill="black" stroke="black" points="355.25,-231.57 361.32,-222.88 351.16,-225.89 355.25,-231.57"/>
<text xml:space="preserve" text-anchor="middle" x="350" y="-242.93" font-family="Times New Roman,serif" font-size="14.00">false</text>
</g>
<!-- N11 -->
<g id="node11" class="node">
<title>N11</title>
<path fill="none" stroke="black" d="M403,-133.23C403,-133.23 168,-133.23 168,-133.23 162,-133.23 156,-127.23 156,-121.23 156,-121.23 156,-109.23 156,-109.23 156,-103.23 162,-97.23 168,-97.23 168,-97.23 403,-97.23 403,-97.23 409,-97.23 415,-103.23 415,-109.23 415,-109.23 415,-121.23 415,-121.23 415,-127.23 409,-133.23 403,-133.23"/>
<text xml:space="preserve" text-anchor="middle" x="285.5" y="-109.8" font-family="Helvetica,sans-Serif" font-size="14.00">11: return answer[i][j][k][l] + keys[i][j][k][l];</text>
</g>
<!-- N10&#45;&gt;N11 -->
<g id="edge14" class="edge">
<title>N10&#45;&gt;N11</title>
<path fill="none" stroke="black" d="M262.23,-185.64C266.18,-173.87 271.51,-157.96 276.08,-144.34"/>
<polygon fill="black" stroke="black" points="279.34,-145.61 279.2,-135.01 272.7,-143.38 279.34,-145.61"/>
<text xml:space="preserve" text-anchor="middle" x="284.1" y="-154.43" font-family="Times New Roman,serif" font-size="14.00">true</text>
</g>
<!-- N12 -->
<g id="node12" class="node">
<title>N12</title>
<path fill="none" stroke="black" d="M125.5,-133.23C125.5,-133.23 91.5,-133.23 91.5,-133.23 85.5,-133.23 79.5,-127.23 79.5,-121.23 79.5,-121.23 79.5,-109.23 79.5,-109.23 79.5,-103.23 85.5,-97.23 91.5,-97.23 91.5,-97.23 125.5,-97.23 125.5,-97.23 131.5,-97.23 137.5,-103.23 137.5,-109.23 137.5,-109.23 137.5,-121.23 137.5,-121.23 137.5,-127.23 131.5,-133.23 125.5,-133.23"/>
<text xml:space="preserve" text-anchor="middle" x="108.5" y="-109.8" font-family="Helvetica,sans-Serif" font-size="14.00">12: l++</text>
</g>
<!-- N10&#45;&gt;N12 -->
<g id="edge15" class="edge">
<title>N10&#45;&gt;N12</title>
<path fill="none" stroke="black" d="M226.91,-185.43C204.14,-172.13 172.49,-153.63 147.63,-139.1"/>
<polygon fill="black" stroke="black" points="149.5,-136.14 139.1,-134.11 145.96,-142.18 149.5,-136.14"/>
<text xml:space="preserve" text-anchor="middle" x="208.51" y="-154.43" font-family="Times New Roman,serif" font-size="14.00">false</text>
</g>
<!-- END -->
<g id="node21" class="node">
<title>END</title>
<ellipse fill="none" stroke="black" cx="479.5" cy="-30.11" rx="26.11" ry="26.11"/>
<ellipse fill="none" stroke="black" cx="479.5" cy="-30.11" rx="30.11" ry="30.11"/>
<text xml:space="preserve" text-anchor="middle" x="479.5" y="-24.69" font-family="Helvetica,sans-Serif" font-size="14.00">Fim</text>
</g>
<!-- N11&#45;&gt;END -->
<!-- N13 -->
<g id="node13" class="node">
<title>N13</title>
<path fill="none" stroke="black" d="M121,-48.11C121,-48.11 12,-48.11 12,-48.11 6,-48.11 0,-42.11 0,-36.11 0,-36.11 0,-24.11 0,-24.11 0,-18.11 6,-12.11 12,-12.11 12,-12.11 121,-12.11 121,-12.11 127,-12.11 133,-18.11 133,-24.11 133,-24.11 133,-36.11 133,-36.11 133,-42.11 127,-48.11 121,-48.11"/>
<text xml:space="preserve" text-anchor="middle" x="66.5" y="-24.69" font-family="Helvetica,sans-Serif" font-size="14.00">13: goto l_condition</text>
</g>
<!-- N12&#45;&gt;N13 -->
<g id="edge16" class="edge">
<title>N12&#45;&gt;N13</title>
<path fill="none" stroke="black" d="M99.8,-97.01C94.2,-85.94 86.81,-71.31 80.41,-58.65"/>
<polygon fill="black" stroke="black" points="83.65,-57.3 76.02,-49.95 77.4,-60.45 83.65,-57.3"/>
</g>
<!-- N13&#45;&gt;N9 -->
<g id="edge17" class="edge">
<title>N13&#45;&gt;N9</title>
<path fill="none" stroke="black" d="M63.32,-48.3C60.27,-69.38 57.78,-105.68 70.5,-133.23 100.03,-197.18 170.07,-243.24 217.9,-268.58"/>
<polygon fill="black" stroke="black" points="216.21,-271.64 226.7,-273.13 219.43,-265.43 216.21,-271.64"/>
</g>
<!-- N15 -->
<g id="node15" class="node">
<title>N15</title>
<path fill="none" stroke="black" d="M557.88,-133.23C557.88,-133.23 445.12,-133.23 445.12,-133.23 439.12,-133.23 433.12,-127.23 433.12,-121.23 433.12,-121.23 433.12,-109.23 433.12,-109.23 433.12,-103.23 439.12,-97.23 445.12,-97.23 445.12,-97.23 557.88,-97.23 557.88,-97.23 563.88,-97.23 569.88,-103.23 569.88,-109.23 569.88,-109.23 569.88,-121.23 569.88,-121.23 569.88,-127.23 563.88,-133.23 557.88,-133.23"/>
<text xml:space="preserve" text-anchor="middle" x="501.5" y="-109.8" font-family="Helvetica,sans-Serif" font-size="14.00">15: goto k_condition</text>
</g>
<!-- N14&#45;&gt;N15 -->
<g id="edge18" class="edge">
<title>N14&#45;&gt;N15</title>
<path fill="none" stroke="black" d="M398.84,-185.42C407.17,-174.61 418.91,-160.96 431.5,-151.23 437.14,-146.87 443.42,-142.82 449.82,-139.14"/>
<polygon fill="black" stroke="black" points="451.46,-142.24 458.6,-134.4 448.14,-136.08 451.46,-142.24"/>
</g>
<!-- N15&#45;&gt;N7 -->
<g id="edge19" class="edge">
<title>N15&#45;&gt;N7</title>
<path fill="none" stroke="black" d="M481.6,-133.68C465.5,-149.81 445.5,-175.36 445.5,-202.73 445.5,-366.23 445.5,-366.23 445.5,-366.23 445.5,-387.89 434.55,-409.72 423.7,-426.03"/>
<polygon fill="black" stroke="black" points="420.85,-424 417.93,-434.18 426.56,-428.04 420.85,-424"/>
</g>
<!-- N17 -->
<g id="node17" class="node">
<title>N17</title>
<path fill="none" stroke="black" d="M595,-310.23C595,-310.23 486,-310.23 486,-310.23 480,-310.23 474,-304.23 474,-298.23 474,-298.23 474,-286.23 474,-286.23 474,-280.23 480,-274.23 486,-274.23 486,-274.23 595,-274.23 595,-274.23 601,-274.23 607,-280.23 607,-286.23 607,-286.23 607,-298.23 607,-298.23 607,-304.23 601,-310.23 595,-310.23"/>
<text xml:space="preserve" text-anchor="middle" x="540.5" y="-286.8" font-family="Helvetica,sans-Serif" font-size="14.00">17: goto j_condition</text>
</g>
<!-- N16&#45;&gt;N17 -->
<g id="edge20" class="edge">
<title>N16&#45;&gt;N17</title>
<path fill="none" stroke="black" d="M417.81,-350.54C439.09,-340.6 468.36,-326.93 492.97,-315.43"/>
<polygon fill="black" stroke="black" points="494.24,-318.7 501.82,-311.29 491.28,-312.36 494.24,-318.7"/>
</g>
<!-- N17&#45;&gt;N5 -->
<g id="edge21" class="edge">
<title>N17&#45;&gt;N5</title>
<path fill="none" stroke="black" d="M515.33,-310.67C500.06,-323.49 483.5,-342.41 483.5,-364.23 483.5,-527.73 483.5,-527.73 483.5,-527.73 483.5,-547.74 489.54,-569.43 495.55,-586.09"/>
<polygon fill="black" stroke="black" points="492.25,-587.24 499.1,-595.32 498.78,-584.73 492.25,-587.24"/>
</g>
<!-- N19 -->
<g id="node19" class="node">
<title>N19</title>
<path fill="none" stroke="black" d="M633,-471.73C633,-471.73 524,-471.73 524,-471.73 518,-471.73 512,-465.73 512,-459.73 512,-459.73 512,-447.73 512,-447.73 512,-441.73 518,-435.73 524,-435.73 524,-435.73 633,-435.73 633,-435.73 639,-435.73 645,-441.73 645,-447.73 645,-447.73 645,-459.73 645,-459.73 645,-465.73 639,-471.73 633,-471.73"/>
<text xml:space="preserve" text-anchor="middle" x="578.5" y="-448.3" font-family="Helvetica,sans-Serif" font-size="14.00">19: goto i_condition</text>
</g>
<!-- N18&#45;&gt;N19 -->
<g id="edge22" class="edge">
<title>N18&#45;&gt;N19</title>
<path fill="none" stroke="black" d="M549.7,-508.54C553.99,-500.52 559.21,-490.78 564.01,-481.8"/>
<polygon fill="black" stroke="black" points="567.04,-483.56 568.67,-473.09 560.87,-480.26 567.04,-483.56"/>
</g>
<!-- N19&#45;&gt;N3 -->
<g id="edge23" class="edge">
<title>N19&#45;&gt;N3</title>
<path fill="none" stroke="black" d="M585.9,-472.18C591.24,-486.34 597.5,-506.97 597.5,-525.73 597.5,-689.23 597.5,-689.23 597.5,-689.23 597.5,-708.56 597.5,-730.33 597.5,-747.19"/>
<polygon fill="black" stroke="black" points="594,-746.98 597.5,-756.98 601,-746.98 594,-746.98"/>
</g>
<!-- N20&#45;&gt;END -->
</g>
</svg>
