<?xml version="1.0" encoding="UTF-8" standalone="no"?>
<!DOCTYPE svg PUBLIC "-//W3C//DTD SVG 1.1//EN"
 "http://www.w3.org/Graphics/SVG/1.1/DTD/svg11.dtd">
<!-- Generated by graphviz version 13.1.2 (20250808.2320)
 -->
<!-- Title: DFG Pages: 1 -->
<svg width="728pt" height="265pt"
 viewBox="0.00 0.00 728.00 265.00" xmlns="http://www.w3.org/2000/svg" xmlns:xlink="http://www.w3.org/1999/xlink">
<g id="graph0" class="graph" transform="scale(1 1) rotate(0) translate(4 261)">
<title>DFG</title>
<polygon fill="white" stroke="none" points="-4,4 -4,-261 723.55,-261 723.55,4 -4,4"/>
<!-- x -->
<g id="node1" class="node">
<title>x</title>
<ellipse fill="lightblue" stroke="black" cx="125.8" cy="-164.5" rx="43.16" ry="18"/>
<text xml:space="preserve" text-anchor="middle" x="125.8" y="-159.45" font-family="Times New Roman,serif" font-size="14.00">x (input)</text>
</g>
<!-- op_compare -->
<g id="node5" class="node">
<title>op_compare</title>
<polygon fill="none" stroke="black" points="234.55,-108 139.05,-108 139.05,-72 234.55,-72 234.55,-108"/>
<text xml:space="preserve" text-anchor="middle" x="186.8" y="-84.95" font-family="Times New Roman,serif" font-size="14.00">== (Compare)</text>
</g>
<!-- x&#45;&gt;op_compare -->
<g id="edge2" class="edge">
<title>x&#45;&gt;op_compare</title>
<path fill="none" stroke="black" d="M139.64,-147.05C147.07,-138.22 156.4,-127.13 164.8,-117.15"/>
<polygon fill="black" stroke="black" points="167.43,-119.46 171.19,-109.56 162.07,-114.95 167.43,-119.46"/>
</g>
<!-- keys_array -->
<g id="node2" class="node">
<title>keys_array</title>
<ellipse fill="lightblue" stroke="black" cx="70.8" cy="-239" rx="70.8" ry="18"/>
<text xml:space="preserve" text-anchor="middle" x="70.8" y="-233.95" font-family="Times New Roman,serif" font-size="14.00">keys[5][5][5][5]</text>
</g>
<!-- op_keys_access -->
<g id="node4" class="node">
<title>op_keys_access</title>
<polygon fill="none" stroke="black" points="282.18,-185 187.43,-185 187.43,-144 282.18,-144 282.18,-185"/>
<text xml:space="preserve" text-anchor="middle" x="234.8" y="-167.7" font-family="Times New Roman,serif" font-size="14.00">Array Access</text>
<text xml:space="preserve" text-anchor="middle" x="234.8" y="-151.2" font-family="Times New Roman,serif" font-size="14.00">keys[i][j][k][l]</text>
</g>
<!-- keys_array&#45;&gt;op_keys_access -->
<g id="edge1" class="edge">
<title>keys_array&#45;&gt;op_keys_access</title>
<path fill="none" stroke="black" d="M105.18,-222.8C126.63,-213.32 154.73,-200.9 179.29,-190.04"/>
<polygon fill="black" stroke="black" points="180.45,-193.35 188.18,-186.11 177.62,-186.95 180.45,-193.35"/>
</g>
<!-- answer_array -->
<g id="node3" class="node">
<title>answer_array</title>
<ellipse fill="lightblue" stroke="black" cx="527.8" cy="-239" rx="80.01" ry="18"/>
<text xml:space="preserve" text-anchor="middle" x="527.8" y="-233.95" font-family="Times New Roman,serif" font-size="14.00">answer[5][5][5][5]</text>
</g>
<!-- op_answer_access -->
<g id="node6" class="node">
<title>op_answer_access</title>
<polygon fill="none" stroke="black" points="408.93,-185 300.68,-185 300.68,-144 408.93,-144 408.93,-185"/>
<text xml:space="preserve" text-anchor="middle" x="354.8" y="-167.7" font-family="Times New Roman,serif" font-size="14.00">Array Access</text>
<text xml:space="preserve" text-anchor="middle" x="354.8" y="-151.2" font-family="Times New Roman,serif" font-size="14.00">answer[i][j][k][l]</text>
</g>
<!-- answer_array&#45;&gt;op_answer_access -->
<g id="edge6" class="edge">
<title>answer_array&#45;&gt;op_answer_access</title>
<path fill="none" stroke="black" d="M491.11,-222.62C468.36,-213.09 438.63,-200.63 412.75,-189.78"/>
<polygon fill="black" stroke="black" points="414.27,-186.63 403.69,-185.99 411.56,-193.08 414.27,-186.63"/>
</g>
<!-- op_keys_access&#45;&gt;op_compare -->
<g id="edge3" class="edge">
<title>op_keys_access&#45;&gt;op_compare</title>
<path fill="none" stroke="black" d="M221.68,-143.69C216.42,-135.73 210.26,-126.44 204.6,-117.89"/>
<polygon fill="black" stroke="black" points="207.54,-115.99 199.1,-109.58 201.7,-119.85 207.54,-115.99"/>
</g>
<!-- op_add -->
<g id="node7" class="node">
<title>op_add</title>
<polygon fill="none" stroke="black" points="312.93,-108 252.68,-108 252.68,-72 312.93,-72 312.93,-108"/>
<text xml:space="preserve" text-anchor="middle" x="282.8" y="-84.95" font-family="Times New Roman,serif" font-size="14.00">+ (Add)</text>
</g>
<!-- op_keys_access&#45;&gt;op_add -->
<g id="edge5" class="edge">
<title>op_keys_access&#45;&gt;op_add</title>
<path fill="none" stroke="black" d="M247.92,-143.69C253.18,-135.73 259.34,-126.44 265,-117.89"/>
<polygon fill="black" stroke="black" points="267.9,-119.85 270.5,-109.58 262.06,-115.99 267.9,-119.85"/>
</g>
<!-- result_found -->
<g id="node8" class="node">
<title>result_found</title>
<ellipse fill="lightgreen" stroke="black" cx="234.8" cy="-18" rx="61.59" ry="18"/>
<text xml:space="preserve" text-anchor="middle" x="234.8" y="-12.95" font-family="Times New Roman,serif" font-size="14.00">result (found)</text>
</g>
<!-- op_compare&#45;&gt;result_found -->
<!-- op_answer_access&#45;&gt;op_add -->
<g id="edge7" class="edge">
<title>op_answer_access&#45;&gt;op_add</title>
<path fill="none" stroke="black" d="M335.13,-143.69C326.71,-135.21 316.78,-125.22 307.85,-116.23"/>
<polygon fill="black" stroke="black" points="310.6,-114.02 301.07,-109.39 305.63,-118.96 310.6,-114.02"/>
</g>
<!-- op_add&#45;&gt;result_found -->
<g id="edge8" class="edge">
<title>op_add&#45;&gt;result_found</title>
<path fill="none" stroke="black" d="M270.93,-71.7C265.53,-63.81 259.01,-54.3 253,-45.55"/>
<polygon fill="black" stroke="black" points="255.93,-43.62 247.38,-37.35 250.15,-47.58 255.93,-43.62"/>
</g>
<!-- result_not_found -->
<g id="node9" class="node">
<title>result_not_found</title>
<ellipse fill="lightgreen" stroke="black" cx="672.8" cy="-239" rx="46.75" ry="18"/>
<text xml:space="preserve" text-anchor="middle" x="672.8" y="-233.95" font-family="Times New Roman,serif" font-size="14.00">&#45;1 (const)</text>
</g>
<!-- i -->
<g id="node10" class="node">
<title>i</title>
<ellipse fill="lightblue" stroke="black" cx="186.8" cy="-239" rx="27" ry="18"/>
<text xml:space="preserve" text-anchor="middle" x="186.8" y="-233.95" font-family="Times New Roman,serif" font-size="14.00">i</text>
</g>
<!-- i&#45;&gt;op_keys_access -->
<g id="edge9" class="edge">
<title>i&#45;&gt;op_keys_access</title>
<path fill="none" stroke="black" d="M197.22,-222.27C202.54,-214.23 209.18,-204.19 215.4,-194.79"/>
<polygon fill="black" stroke="black" points="218.22,-196.88 220.82,-186.61 212.38,-193.02 218.22,-196.88"/>
</g>
<!-- i&#45;&gt;op_answer_access -->
<g id="edge13" class="edge">
<title>i&#45;&gt;op_answer_access</title>
<path fill="none" stroke="black" d="M208.43,-227.6C213.15,-225.38 218.13,-223.08 222.8,-221 246.42,-210.46 272.64,-199.33 295.44,-189.82"/>
<polygon fill="black" stroke="black" points="296.71,-193.08 304.6,-186.01 294.02,-186.62 296.71,-193.08"/>
</g>
<!-- j -->
<g id="node11" class="node">
<title>j</title>
<ellipse fill="lightblue" stroke="black" cx="258.8" cy="-239" rx="27" ry="18"/>
<text xml:space="preserve" text-anchor="middle" x="258.8" y="-233.95" font-family="Times New Roman,serif" font-size="14.00">j</text>
</g>
<!-- j&#45;&gt;op_keys_access -->
<g id="edge10" class="edge">
<title>j&#45;&gt;op_keys_access</title>
<path fill="none" stroke="black" d="M253.23,-221.18C250.77,-213.74 247.79,-204.74 244.95,-196.17"/>
<polygon fill="black" stroke="black" points="248.3,-195.14 241.83,-186.75 241.65,-197.34 248.3,-195.14"/>
</g>
<!-- j&#45;&gt;op_answer_access -->
<g id="edge14" class="edge">
<title>j&#45;&gt;op_answer_access</title>
<path fill="none" stroke="black" d="M275.96,-225.04C288.02,-215.93 304.58,-203.42 319.42,-192.22"/>
<polygon fill="black" stroke="black" points="321.29,-195.19 327.16,-186.37 317.07,-189.61 321.29,-195.19"/>
</g>
<!-- k -->
<g id="node12" class="node">
<title>k</title>
<ellipse fill="lightblue" stroke="black" cx="330.8" cy="-239" rx="27" ry="18"/>
<text xml:space="preserve" text-anchor="middle" x="330.8" y="-233.95" font-family="Times New Roman,serif" font-size="14.00">k</text>
</g>
<!-- k&#45;&gt;op_keys_access -->
<g id="edge11" class="edge">
<title>k&#45;&gt;op_keys_access</title>
<path fill="none" stroke="black" d="M313.64,-225.04C301.58,-215.93 285.02,-203.42 270.18,-192.22"/>
<polygon fill="black" stroke="black" points="272.53,-189.61 262.44,-186.37 268.31,-195.19 272.53,-189.61"/>
</g>
<!-- k&#45;&gt;op_answer_access -->
<g id="edge15" class="edge">
<title>k&#45;&gt;op_answer_access</title>
<path fill="none" stroke="black" d="M336.37,-221.18C338.83,-213.74 341.81,-204.74 344.65,-196.17"/>
<polygon fill="black" stroke="black" points="347.95,-197.34 347.77,-186.75 341.3,-195.14 347.95,-197.34"/>
</g>
<!-- l -->
<g id="node13" class="node">
<title>l</title>
<ellipse fill="lightblue" stroke="black" cx="402.8" cy="-239" rx="27" ry="18"/>
<text xml:space="preserve" text-anchor="middle" x="402.8" y="-233.95" font-family="Times New Roman,serif" font-size="14.00">l</text>
</g>
<!-- l&#45;&gt;op_keys_access -->
<g id="edge12" class="edge">
<title>l&#45;&gt;op_keys_access</title>
<path fill="none" stroke="black" d="M381.17,-227.6C376.45,-225.38 371.47,-223.08 366.8,-221 342.78,-210.29 316.07,-198.95 292.99,-189.33"/>
<polygon fill="black" stroke="black" points="294.65,-186.23 284.07,-185.62 291.96,-192.69 294.65,-186.23"/>
</g>
<!-- l&#45;&gt;op_answer_access -->
<g id="edge16" class="edge">
<title>l&#45;&gt;op_answer_access</title>
<path fill="none" stroke="black" d="M392.38,-222.27C387.06,-214.23 380.42,-204.19 374.2,-194.79"/>
<polygon fill="black" stroke="black" points="377.22,-193.02 368.78,-186.61 371.38,-196.88 377.22,-193.02"/>
</g>
</g>
</svg>
