<?xml version="1.0" encoding="UTF-8" standalone="no"?>
<!DOCTYPE svg PUBLIC "-//W3C//DTD SVG 1.1//EN"
 "http://www.w3.org/Graphics/SVG/1.1/DTD/svg11.dtd">
<!-- Generated by graphviz version 13.1.2 (20250808.2320)
 -->
<!-- Title: main_DFG Pages: 1 -->
<svg width="280pt" height="548pt"
 viewBox="0.00 0.00 280.00 548.00" xmlns="http://www.w3.org/2000/svg" xmlns:xlink="http://www.w3.org/1999/xlink">
<g id="graph0" class="graph" transform="scale(1 1) rotate(0) translate(4 544)">
<title>main_DFG</title>
<polygon fill="white" stroke="none" points="-4,4 -4,-544 276.32,-544 276.32,4 -4,4"/>
<!-- reset -->
<g id="node1" class="node">
<title>reset</title>
<ellipse fill="none" stroke="black" cx="28.32" cy="-522" rx="28.32" ry="18"/>
<text xml:space="preserve" text-anchor="middle" x="28.32" y="-516.95" font-family="Times New Roman,serif" font-size="14.00">reset</text>
</g>
<!-- test_data -->
<g id="node2" class="node">
<title>test_data</title>
<ellipse fill="none" stroke="black" cx="137.32" cy="-450" rx="43.67" ry="18"/>
<text xml:space="preserve" text-anchor="middle" x="137.32" y="-444.95" font-family="Times New Roman,serif" font-size="14.00">test_data</text>
</g>
<!-- reset&#45;&gt;test_data -->
<g id="edge1" class="edge">
<title>reset&#45;&gt;test_data</title>
<path fill="none" stroke="black" d="M47.81,-508.49C63.69,-498.29 86.45,-483.67 105.05,-471.72"/>
<polygon fill="black" stroke="black" points="106.81,-474.75 113.34,-466.4 103.03,-468.86 106.81,-474.75"/>
</g>
<!-- encode -->
<g id="node6" class="node">
<title>encode</title>
<ellipse fill="none" stroke="black" cx="137.32" cy="-378" rx="37.02" ry="18"/>
<text xml:space="preserve" text-anchor="middle" x="137.32" y="-372.95" font-family="Times New Roman,serif" font-size="14.00">encode</text>
</g>
<!-- test_data&#45;&gt;encode -->
<g id="edge5" class="edge">
<title>test_data&#45;&gt;encode</title>
<path fill="none" stroke="black" d="M137.32,-431.7C137.32,-424.41 137.32,-415.73 137.32,-407.54"/>
<polygon fill="black" stroke="black" points="140.82,-407.62 137.32,-397.62 133.82,-407.62 140.82,-407.62"/>
</g>
<!-- j -->
<g id="node3" class="node">
<title>j</title>
<ellipse fill="none" stroke="black" cx="101.32" cy="-522" rx="27" ry="18"/>
<text xml:space="preserve" text-anchor="middle" x="101.32" y="-516.95" font-family="Times New Roman,serif" font-size="14.00">j</text>
</g>
<!-- j&#45;&gt;test_data -->
<g id="edge2" class="edge">
<title>j&#45;&gt;test_data</title>
<path fill="none" stroke="black" d="M109.67,-504.76C113.73,-496.87 118.72,-487.16 123.34,-478.18"/>
<polygon fill="black" stroke="black" points="126.36,-479.96 127.82,-469.47 120.14,-476.76 126.36,-479.96"/>
</g>
<!-- f -->
<g id="node4" class="node">
<title>f</title>
<ellipse fill="none" stroke="black" cx="173.32" cy="-522" rx="27" ry="18"/>
<text xml:space="preserve" text-anchor="middle" x="173.32" y="-516.95" font-family="Times New Roman,serif" font-size="14.00">f</text>
</g>
<!-- f&#45;&gt;test_data -->
<g id="edge3" class="edge">
<title>f&#45;&gt;test_data</title>
<path fill="none" stroke="black" d="M164.97,-504.76C160.91,-496.87 155.92,-487.16 151.3,-478.18"/>
<polygon fill="black" stroke="black" points="154.5,-476.76 146.82,-469.47 148.28,-479.96 154.5,-476.76"/>
</g>
<!-- i -->
<g id="node5" class="node">
<title>i</title>
<ellipse fill="none" stroke="black" cx="245.32" cy="-522" rx="27" ry="18"/>
<text xml:space="preserve" text-anchor="middle" x="245.32" y="-516.95" font-family="Times New Roman,serif" font-size="14.00">i</text>
</g>
<!-- i&#45;&gt;test_data -->
<g id="edge4" class="edge">
<title>i&#45;&gt;test_data</title>
<path fill="none" stroke="black" d="M226.51,-508.81C210.83,-498.65 188.15,-483.94 169.58,-471.91"/>
<polygon fill="black" stroke="black" points="171.6,-469.05 161.3,-466.55 167.79,-474.92 171.6,-469.05"/>
</g>
<!-- compressed -->
<g id="node7" class="node">
<title>compressed</title>
<ellipse fill="none" stroke="black" cx="137.32" cy="-306" rx="54.93" ry="18"/>
<text xml:space="preserve" text-anchor="middle" x="137.32" y="-300.95" font-family="Times New Roman,serif" font-size="14.00">compressed</text>
</g>
<!-- encode&#45;&gt;compressed -->
<g id="edge6" class="edge">
<title>encode&#45;&gt;compressed</title>
<path fill="none" stroke="black" d="M137.32,-359.7C137.32,-352.41 137.32,-343.73 137.32,-335.54"/>
<polygon fill="black" stroke="black" points="140.82,-335.62 137.32,-325.62 133.82,-335.62 140.82,-335.62"/>
</g>
<!-- decode -->
<g id="node8" class="node">
<title>decode</title>
<ellipse fill="none" stroke="black" cx="137.32" cy="-234" rx="37.02" ry="18"/>
<text xml:space="preserve" text-anchor="middle" x="137.32" y="-228.95" font-family="Times New Roman,serif" font-size="14.00">decode</text>
</g>
<!-- compressed&#45;&gt;decode -->
<g id="edge7" class="edge">
<title>compressed&#45;&gt;decode</title>
<path fill="none" stroke="black" d="M137.32,-287.7C137.32,-280.41 137.32,-271.73 137.32,-263.54"/>
<polygon fill="black" stroke="black" points="140.82,-263.62 137.32,-253.62 133.82,-263.62 140.82,-263.62"/>
</g>
<!-- xout1 -->
<g id="node9" class="node">
<title>xout1</title>
<ellipse fill="none" stroke="black" cx="96.32" cy="-162" rx="31.9" ry="18"/>
<text xml:space="preserve" text-anchor="middle" x="96.32" y="-156.95" font-family="Times New Roman,serif" font-size="14.00">xout1</text>
</g>
<!-- decode&#45;&gt;xout1 -->
<g id="edge8" class="edge">
<title>decode&#45;&gt;xout1</title>
<path fill="none" stroke="black" d="M127.6,-216.41C122.86,-208.3 117.03,-198.35 111.69,-189.25"/>
<polygon fill="black" stroke="black" points="114.81,-187.64 106.73,-180.78 108.77,-191.17 114.81,-187.64"/>
</g>
<!-- xout2 -->
<g id="node10" class="node">
<title>xout2</title>
<ellipse fill="none" stroke="black" cx="178.32" cy="-162" rx="31.9" ry="18"/>
<text xml:space="preserve" text-anchor="middle" x="178.32" y="-156.95" font-family="Times New Roman,serif" font-size="14.00">xout2</text>
</g>
<!-- decode&#45;&gt;xout2 -->
<g id="edge9" class="edge">
<title>decode&#45;&gt;xout2</title>
<path fill="none" stroke="black" d="M147.04,-216.41C151.79,-208.3 157.61,-198.35 162.95,-189.25"/>
<polygon fill="black" stroke="black" points="165.87,-191.17 167.91,-180.78 159.83,-187.64 165.87,-191.17"/>
</g>
<!-- result -->
<g id="node11" class="node">
<title>result</title>
<ellipse fill="none" stroke="black" cx="137.32" cy="-90" rx="31.39" ry="18"/>
<text xml:space="preserve" text-anchor="middle" x="137.32" y="-84.95" font-family="Times New Roman,serif" font-size="14.00">result</text>
</g>
<!-- xout1&#45;&gt;result -->
<g id="edge10" class="edge">
<title>xout1&#45;&gt;result</title>
<path fill="none" stroke="black" d="M106.04,-144.41C110.79,-136.3 116.61,-126.35 121.95,-117.25"/>
<polygon fill="black" stroke="black" points="124.87,-119.17 126.91,-108.78 118.83,-115.64 124.87,-119.17"/>
</g>
<!-- xout2&#45;&gt;result -->
<g id="edge11" class="edge">
<title>xout2&#45;&gt;result</title>
<path fill="none" stroke="black" d="M168.6,-144.41C163.86,-136.3 158.03,-126.35 152.69,-117.25"/>
<polygon fill="black" stroke="black" points="155.81,-115.64 147.73,-108.78 149.77,-119.17 155.81,-115.64"/>
</g>
<!-- return_value -->
<g id="node12" class="node">
<title>return_value</title>
<ellipse fill="none" stroke="black" cx="137.32" cy="-18" rx="57.49" ry="18"/>
<text xml:space="preserve" text-anchor="middle" x="137.32" y="-12.95" font-family="Times New Roman,serif" font-size="14.00">return_value</text>
</g>
<!-- result&#45;&gt;return_value -->
<g id="edge12" class="edge">
<title>result&#45;&gt;return_value</title>
<path fill="none" stroke="black" d="M137.32,-71.7C137.32,-64.41 137.32,-55.73 137.32,-47.54"/>
<polygon fill="black" stroke="black" points="140.82,-47.62 137.32,-37.62 133.82,-47.62 140.82,-47.62"/>
</g>
</g>
</svg>
