<?xml version="1.0" encoding="UTF-8" standalone="no"?>
<!DOCTYPE svg PUBLIC "-//W3C//DTD SVG 1.1//EN"
 "http://www.w3.org/Graphics/SVG/1.1/DTD/svg11.dtd">
<!-- Generated by graphviz version 13.1.2 (20250808.2320)
 -->
<!-- Title: main_CFG Pages: 1 -->
<svg width="817pt" height="675pt"
 viewBox="0.00 0.00 817.00 675.00" xmlns="http://www.w3.org/2000/svg" xmlns:xlink="http://www.w3.org/1999/xlink">
<g id="graph0" class="graph" transform="scale(1 1) rotate(0) translate(4 670.5)">
<title>main_CFG</title>
<polygon fill="white" stroke="none" points="-4,4 -4,-670.5 812.88,-670.5 812.88,4 -4,4"/>
<!-- N1 -->
<g id="node1" class="node">
<title>N1</title>
<path fill="none" stroke="black" d="M162.88,-666.5C162.88,-666.5 132.88,-666.5 132.88,-666.5 126.88,-666.5 120.88,-660.5 120.88,-654.5 120.88,-654.5 120.88,-642.5 120.88,-642.5 120.88,-636.5 126.88,-630.5 132.88,-630.5 132.88,-630.5 162.88,-630.5 162.88,-630.5 168.88,-630.5 174.88,-636.5 174.88,-642.5 174.88,-642.5 174.88,-654.5 174.88,-654.5 174.88,-660.5 168.88,-666.5 162.88,-666.5"/>
<text xml:space="preserve" text-anchor="middle" x="147.88" y="-643.45" font-family="Times New Roman,serif" font-size="14.00">reset()</text>
</g>
<!-- N2 -->
<g id="node2" class="node">
<title>N2</title>
<path fill="none" stroke="black" d="M189.62,-593.5C189.62,-593.5 106.12,-593.5 106.12,-593.5 100.12,-593.5 94.12,-587.5 94.12,-581.5 94.12,-581.5 94.12,-569.5 94.12,-569.5 94.12,-563.5 100.12,-557.5 106.12,-557.5 106.12,-557.5 189.62,-557.5 189.62,-557.5 195.62,-557.5 201.62,-563.5 201.62,-569.5 201.62,-569.5 201.62,-581.5 201.62,-581.5 201.62,-587.5 195.62,-593.5 189.62,-593.5"/>
<text xml:space="preserve" text-anchor="middle" x="147.88" y="-570.45" font-family="Times New Roman,serif" font-size="14.00">j = 10; f = 2000;</text>
</g>
<!-- N1&#45;&gt;N2 -->
<g id="edge1" class="edge">
<title>N1&#45;&gt;N2</title>
<path fill="none" stroke="black" d="M147.88,-630.31C147.88,-622.73 147.88,-613.6 147.88,-605.04"/>
<polygon fill="black" stroke="black" points="151.38,-605.04 147.88,-595.04 144.38,-605.04 151.38,-605.04"/>
</g>
<!-- N3 -->
<g id="node3" class="node">
<title>N3</title>
<path fill="none" stroke="black" d="M162.88,-520.5C162.88,-520.5 132.88,-520.5 132.88,-520.5 126.88,-520.5 120.88,-514.5 120.88,-508.5 120.88,-508.5 120.88,-496.5 120.88,-496.5 120.88,-490.5 126.88,-484.5 132.88,-484.5 132.88,-484.5 162.88,-484.5 162.88,-484.5 168.88,-484.5 174.88,-490.5 174.88,-496.5 174.88,-496.5 174.88,-508.5 174.88,-508.5 174.88,-514.5 168.88,-520.5 162.88,-520.5"/>
<text xml:space="preserve" text-anchor="middle" x="147.88" y="-497.45" font-family="Times New Roman,serif" font-size="14.00">i = 0</text>
</g>
<!-- N2&#45;&gt;N3 -->
<g id="edge2" class="edge">
<title>N2&#45;&gt;N3</title>
<path fill="none" stroke="black" d="M147.88,-557.31C147.88,-549.73 147.88,-540.6 147.88,-532.04"/>
<polygon fill="black" stroke="black" points="151.38,-532.04 147.88,-522.04 144.38,-532.04 151.38,-532.04"/>
</g>
<!-- N4 -->
<g id="node4" class="node">
<title>N4</title>
<path fill="none" stroke="black" d="M170.88,-447.5C170.88,-447.5 124.88,-447.5 124.88,-447.5 118.88,-447.5 112.88,-441.5 112.88,-435.5 112.88,-435.5 112.88,-423.5 112.88,-423.5 112.88,-417.5 118.88,-411.5 124.88,-411.5 124.88,-411.5 170.88,-411.5 170.88,-411.5 176.88,-411.5 182.88,-417.5 182.88,-423.5 182.88,-423.5 182.88,-435.5 182.88,-435.5 182.88,-441.5 176.88,-447.5 170.88,-447.5"/>
<text xml:space="preserve" text-anchor="middle" x="147.88" y="-424.45" font-family="Times New Roman,serif" font-size="14.00">i &lt; SIZE?</text>
</g>
<!-- N3&#45;&gt;N4 -->
<g id="edge3" class="edge">
<title>N3&#45;&gt;N4</title>
<path fill="none" stroke="black" d="M147.88,-484.31C147.88,-476.73 147.88,-467.6 147.88,-459.04"/>
<polygon fill="black" stroke="black" points="151.38,-459.04 147.88,-449.04 144.38,-459.04 151.38,-459.04"/>
</g>
<!-- N5 -->
<g id="node5" class="node">
<title>N5</title>
<path fill="none" stroke="black" d="M211.75,-359C211.75,-359 12,-359 12,-359 6,-359 0,-353 0,-347 0,-347 0,-335 0,-335 0,-329 6,-323 12,-323 12,-323 211.75,-323 211.75,-323 217.75,-323 223.75,-329 223.75,-335 223.75,-335 223.75,-347 223.75,-347 223.75,-353 217.75,-359 211.75,-359"/>
<text xml:space="preserve" text-anchor="middle" x="111.88" y="-335.95" font-family="Times New Roman,serif" font-size="14.00">test_data[i] = j * my_cos(f*PI*i); i++</text>
</g>
<!-- N4&#45;&gt;N5 -->
<g id="edge4" class="edge">
<title>N4&#45;&gt;N5</title>
<path fill="none" stroke="black" d="M125.54,-411.33C120.44,-406.19 115.7,-400.14 112.88,-393.5 109.89,-386.48 108.78,-378.42 108.63,-370.79"/>
<polygon fill="black" stroke="black" points="112.13,-371.01 109,-360.89 105.13,-370.75 112.13,-371.01"/>
<text xml:space="preserve" text-anchor="middle" x="123.38" y="-380.2" font-family="Times New Roman,serif" font-size="14.00">true</text>
</g>
<!-- N6 -->
<g id="node6" class="node">
<title>N6</title>
<path fill="none" stroke="black" d="M283.88,-359C283.88,-359 253.88,-359 253.88,-359 247.88,-359 241.88,-353 241.88,-347 241.88,-347 241.88,-335 241.88,-335 241.88,-329 247.88,-323 253.88,-323 253.88,-323 283.88,-323 283.88,-323 289.88,-323 295.88,-329 295.88,-335 295.88,-335 295.88,-347 295.88,-347 295.88,-353 289.88,-359 283.88,-359"/>
<text xml:space="preserve" text-anchor="middle" x="268.88" y="-335.95" font-family="Times New Roman,serif" font-size="14.00">i = 0</text>
</g>
<!-- N4&#45;&gt;N6 -->
<g id="edge6" class="edge">
<title>N4&#45;&gt;N6</title>
<path fill="none" stroke="black" d="M172.07,-411.2C190.29,-398.18 215.48,-380.17 235.59,-365.79"/>
<polygon fill="black" stroke="black" points="237.39,-368.81 243.49,-360.15 233.32,-363.12 237.39,-368.81"/>
<text xml:space="preserve" text-anchor="middle" x="231.96" y="-380.2" font-family="Times New Roman,serif" font-size="14.00">false</text>
</g>
<!-- N5&#45;&gt;N4 -->
<g id="edge5" class="edge">
<title>N5&#45;&gt;N4</title>
<path fill="none" stroke="black" d="M124.13,-359.24C127.64,-364.73 131.22,-370.95 133.88,-377 137.09,-384.33 139.73,-392.57 141.81,-400.27"/>
<polygon fill="black" stroke="black" points="138.39,-401.03 144.19,-409.9 145.19,-399.35 138.39,-401.03"/>
</g>
<!-- N7 -->
<g id="node7" class="node">
<title>N7</title>
<path fill="none" stroke="black" d="M302,-286C302,-286 235.75,-286 235.75,-286 229.75,-286 223.75,-280 223.75,-274 223.75,-274 223.75,-262 223.75,-262 223.75,-256 229.75,-250 235.75,-250 235.75,-250 302,-250 302,-250 308,-250 314,-256 314,-262 314,-262 314,-274 314,-274 314,-280 308,-286 302,-286"/>
<text xml:space="preserve" text-anchor="middle" x="268.88" y="-262.95" font-family="Times New Roman,serif" font-size="14.00">i &lt; IN_END?</text>
</g>
<!-- N6&#45;&gt;N7 -->
<g id="edge7" class="edge">
<title>N6&#45;&gt;N7</title>
<path fill="none" stroke="black" d="M268.88,-322.81C268.88,-315.23 268.88,-306.1 268.88,-297.54"/>
<polygon fill="black" stroke="black" points="272.38,-297.54 268.88,-287.54 265.38,-297.54 272.38,-297.54"/>
</g>
<!-- N8 -->
<g id="node8" class="node">
<title>N8</title>
<path fill="none" stroke="black" d="M397.25,-197.5C397.25,-197.5 68.5,-197.5 68.5,-197.5 62.5,-197.5 56.5,-191.5 56.5,-185.5 56.5,-185.5 56.5,-173.5 56.5,-173.5 56.5,-167.5 62.5,-161.5 68.5,-161.5 68.5,-161.5 397.25,-161.5 397.25,-161.5 403.25,-161.5 409.25,-167.5 409.25,-173.5 409.25,-173.5 409.25,-185.5 409.25,-185.5 409.25,-191.5 403.25,-197.5 397.25,-197.5"/>
<text xml:space="preserve" text-anchor="middle" x="232.88" y="-174.45" font-family="Times New Roman,serif" font-size="14.00">compressed[i/2] = encode(test_data[i], test_data[i+1]); i += 2</text>
</g>
<!-- N7&#45;&gt;N8 -->
<g id="edge8" class="edge">
<title>N7&#45;&gt;N8</title>
<path fill="none" stroke="black" d="M246.54,-249.83C241.44,-244.69 236.7,-238.64 233.88,-232 230.89,-224.98 229.78,-216.92 229.63,-209.29"/>
<polygon fill="black" stroke="black" points="233.13,-209.51 230,-199.39 226.13,-209.25 233.13,-209.51"/>
<text xml:space="preserve" text-anchor="middle" x="244.38" y="-218.7" font-family="Times New Roman,serif" font-size="14.00">true</text>
</g>
<!-- N9 -->
<g id="node9" class="node">
<title>N9</title>
<path fill="none" stroke="black" d="M468.88,-197.5C468.88,-197.5 438.88,-197.5 438.88,-197.5 432.88,-197.5 426.88,-191.5 426.88,-185.5 426.88,-185.5 426.88,-173.5 426.88,-173.5 426.88,-167.5 432.88,-161.5 438.88,-161.5 438.88,-161.5 468.88,-161.5 468.88,-161.5 474.88,-161.5 480.88,-167.5 480.88,-173.5 480.88,-173.5 480.88,-185.5 480.88,-185.5 480.88,-191.5 474.88,-197.5 468.88,-197.5"/>
<text xml:space="preserve" text-anchor="middle" x="453.88" y="-174.45" font-family="Times New Roman,serif" font-size="14.00">i = 0</text>
</g>
<!-- N7&#45;&gt;N9 -->
<g id="edge10" class="edge">
<title>N7&#45;&gt;N9</title>
<path fill="none" stroke="black" d="M306.25,-249.63C334.16,-236.64 373.51,-218.3 416.38,-198.19"/>
<polygon fill="black" stroke="black" points="417.82,-201.38 425.38,-193.97 414.84,-195.05 417.82,-201.38"/>
<text xml:space="preserve" text-anchor="middle" x="389.73" y="-218.7" font-family="Times New Roman,serif" font-size="14.00">false</text>
</g>
<!-- N8&#45;&gt;N7 -->
<g id="edge9" class="edge">
<title>N8&#45;&gt;N7</title>
<path fill="none" stroke="black" d="M245.13,-197.74C248.64,-203.23 252.22,-209.45 254.88,-215.5 258.09,-222.83 260.73,-231.07 262.81,-238.77"/>
<polygon fill="black" stroke="black" points="259.39,-239.53 265.19,-248.4 266.19,-237.85 259.39,-239.53"/>
</g>
<!-- N10 -->
<g id="node10" class="node">
<title>N10</title>
<path fill="none" stroke="black" d="M487,-124.5C487,-124.5 420.75,-124.5 420.75,-124.5 414.75,-124.5 408.75,-118.5 408.75,-112.5 408.75,-112.5 408.75,-100.5 408.75,-100.5 408.75,-94.5 414.75,-88.5 420.75,-88.5 420.75,-88.5 487,-88.5 487,-88.5 493,-88.5 499,-94.5 499,-100.5 499,-100.5 499,-112.5 499,-112.5 499,-118.5 493,-124.5 487,-124.5"/>
<text xml:space="preserve" text-anchor="middle" x="453.88" y="-101.45" font-family="Times New Roman,serif" font-size="14.00">i &lt; IN_END?</text>
</g>
<!-- N9&#45;&gt;N10 -->
<g id="edge11" class="edge">
<title>N9&#45;&gt;N10</title>
<path fill="none" stroke="black" d="M453.88,-161.31C453.88,-153.73 453.88,-144.6 453.88,-136.04"/>
<polygon fill="black" stroke="black" points="457.38,-136.04 453.88,-126.04 450.38,-136.04 457.38,-136.04"/>
</g>
<!-- N11 -->
<g id="node11" class="node">
<title>N11</title>
<path fill="none" stroke="black" d="M606.62,-36C606.62,-36 229.12,-36 229.12,-36 223.12,-36 217.12,-30 217.12,-24 217.12,-24 217.12,-12 217.12,-12 217.12,-6 223.12,0 229.12,0 229.12,0 606.62,0 606.62,0 612.62,0 618.62,-6 618.62,-12 618.62,-12 618.62,-24 618.62,-24 618.62,-30 612.62,-36 606.62,-36"/>
<text xml:space="preserve" text-anchor="middle" x="417.88" y="-12.95" font-family="Times New Roman,serif" font-size="14.00">decode(compressed[i/2]); result[i] = xout1; result[i+1] = xout2; i += 2</text>
</g>
<!-- N10&#45;&gt;N11 -->
<g id="edge12" class="edge">
<title>N10&#45;&gt;N11</title>
<path fill="none" stroke="black" d="M431.54,-88.33C426.44,-83.19 421.7,-77.14 418.88,-70.5 415.89,-63.48 414.78,-55.42 414.63,-47.79"/>
<polygon fill="black" stroke="black" points="418.13,-48.01 415,-37.89 411.13,-47.75 418.13,-48.01"/>
<text xml:space="preserve" text-anchor="middle" x="429.38" y="-57.2" font-family="Times New Roman,serif" font-size="14.00">true</text>
</g>
<!-- N12 -->
<g id="node12" class="node">
<title>N12</title>
<path fill="none" stroke="black" d="M796.88,-36C796.88,-36 648.88,-36 648.88,-36 642.88,-36 636.88,-30 636.88,-24 636.88,-24 636.88,-12 636.88,-12 636.88,-6 642.88,0 648.88,0 648.88,0 796.88,0 796.88,0 802.88,0 808.88,-6 808.88,-12 808.88,-12 808.88,-24 808.88,-24 808.88,-30 802.88,-36 796.88,-36"/>
<text xml:space="preserve" text-anchor="middle" x="722.88" y="-12.95" font-family="Times New Roman,serif" font-size="14.00">return result[i] + result[i+1];</text>
</g>
<!-- N10&#45;&gt;N12 -->
<g id="edge14" class="edge">
<title>N10&#45;&gt;N12</title>
<path fill="none" stroke="black" d="M499.2,-90.92C542.63,-76.96 608.64,-55.73 657.71,-39.95"/>
<polygon fill="black" stroke="black" points="658.65,-43.33 667.09,-36.94 656.5,-36.67 658.65,-43.33"/>
<text xml:space="preserve" text-anchor="middle" x="625.22" y="-57.2" font-family="Times New Roman,serif" font-size="14.00">false</text>
</g>
<!-- N11&#45;&gt;N10 -->
<g id="edge13" class="edge">
<title>N11&#45;&gt;N10</title>
<path fill="none" stroke="black" d="M430.13,-36.24C433.64,-41.73 437.22,-47.95 439.88,-54 443.09,-61.33 445.73,-69.57 447.81,-77.27"/>
<polygon fill="black" stroke="black" points="444.39,-78.03 450.19,-86.9 451.19,-76.35 444.39,-78.03"/>
</g>
</g>
</svg>
