<?xml version="1.0" encoding="UTF-8" standalone="no"?>
<!DOCTYPE svg PUBLIC "-//W3C//DTD SVG 1.1//EN"
 "http://www.w3.org/Graphics/SVG/1.1/DTD/svg11.dtd">
<!-- Generated by graphviz version 13.1.2 (20250808.2320)
 -->
<!-- Title: Compress_CFG Pages: 1 -->
<svg width="413pt" height="394pt"
 viewBox="0.00 0.00 413.00 394.00" xmlns="http://www.w3.org/2000/svg" xmlns:xlink="http://www.w3.org/1999/xlink">
<g id="graph0" class="graph" transform="scale(1 1) rotate(0) translate(4 389.5)">
<title>Compress_CFG</title>
<polygon fill="white" stroke="none" points="-4,4 -4,-389.5 408.79,-389.5 408.79,4 -4,4"/>
<!-- START -->
<g id="node1" class="node">
<title>START</title>
<polygon fill="none" stroke="black" points="371.62,-385.5 248.38,-385.5 248.38,-344.5 371.62,-344.5 371.62,-385.5"/>
<text xml:space="preserve" text-anchor="middle" x="310" y="-368.2" font-family="Courier,monospace" font-size="14.00">compress():</text>
<text xml:space="preserve" text-anchor="middle" x="310" y="-351.7" font-family="Courier,monospace" font-size="14.00">Inicializacao</text>
</g>
<!-- LOOP -->
<g id="node2" class="node">
<title>LOOP</title>
<polygon fill="none" stroke="black" points="379.88,-307.5 240.12,-307.5 240.12,-271.5 379.88,-271.5 379.88,-307.5"/>
<text xml:space="preserve" text-anchor="middle" x="310" y="-284.45" font-family="Courier,monospace" font-size="14.00">Loop: InCnt &gt; 0</text>
</g>
<!-- START&#45;&gt;LOOP -->
<g id="edge1" class="edge">
<title>START&#45;&gt;LOOP</title>
<path fill="none" stroke="black" d="M310,-344.3C310,-336.56 310,-327.51 310,-319.07"/>
<polygon fill="black" stroke="black" points="313.5,-319.26 310,-309.26 306.5,-319.26 313.5,-319.26"/>
</g>
<!-- COND -->
<g id="node3" class="node">
<title>COND</title>
<polygon fill="none" stroke="black" points="214,-219 0,-219 0,-161.5 214,-161.5 214,-219"/>
<text xml:space="preserve" text-anchor="middle" x="107" y="-201.7" font-family="Courier,monospace" font-size="14.00">Condicao:</text>
<text xml:space="preserve" text-anchor="middle" x="107" y="-185.2" font-family="Courier,monospace" font-size="14.00">(in_count &gt;= checkpoint)</text>
<text xml:space="preserve" text-anchor="middle" x="107" y="-168.7" font-family="Courier,monospace" font-size="14.00">&amp;&amp; block_compress</text>
</g>
<!-- LOOP&#45;&gt;COND -->
<g id="edge2" class="edge">
<title>LOOP&#45;&gt;COND</title>
<path fill="none" stroke="black" d="M264.27,-271.05C250.99,-265.7 236.56,-259.61 223.5,-253.5 204.83,-244.77 184.92,-234.49 166.93,-224.84"/>
<polygon fill="black" stroke="black" points="168.66,-221.8 158.2,-220.12 165.33,-227.95 168.66,-221.8"/>
<text xml:space="preserve" text-anchor="middle" x="264.75" y="-240.2" font-family="Courier,monospace" font-size="14.00">Verdadeiro</text>
</g>
<!-- END -->
<g id="node6" class="node">
<title>END</title>
<polygon fill="none" stroke="black" points="388.12,-208.25 231.88,-208.25 231.88,-172.25 388.12,-172.25 388.12,-208.25"/>
<text xml:space="preserve" text-anchor="middle" x="310" y="-185.2" font-family="Courier,monospace" font-size="14.00">Fim de compress()</text>
</g>
<!-- LOOP&#45;&gt;END -->
<g id="edge3" class="edge">
<title>LOOP&#45;&gt;END</title>
<path fill="none" stroke="black" d="M310,-271.11C310,-256.87 310,-236.42 310,-219.79"/>
<polygon fill="black" stroke="black" points="313.5,-220 310,-210 306.5,-220 313.5,-220"/>
<text xml:space="preserve" text-anchor="middle" x="330.62" y="-240.2" font-family="Courier,monospace" font-size="14.00">Falso</text>
</g>
<!-- CL_BLOCK -->
<g id="node4" class="node">
<title>CL_BLOCK</title>
<polygon fill="none" stroke="black" points="209.25,-109 110.75,-109 110.75,-73 209.25,-73 209.25,-109"/>
<text xml:space="preserve" text-anchor="middle" x="160" y="-85.95" font-family="Courier,monospace" font-size="14.00">cl_block()</text>
</g>
<!-- COND&#45;&gt;CL_BLOCK -->
<g id="edge4" class="edge">
<title>COND&#45;&gt;CL_BLOCK</title>
<path fill="none" stroke="black" d="M64.12,-161.07C53.5,-150.61 47.22,-138.5 55.5,-127 65.86,-112.6 82.42,-104.05 99.33,-98.98"/>
<polygon fill="black" stroke="black" points="100.15,-102.39 108.96,-96.51 98.41,-95.61 100.15,-102.39"/>
<text xml:space="preserve" text-anchor="middle" x="96.75" y="-130.2" font-family="Courier,monospace" font-size="14.00">Verdadeiro</text>
</g>
<!-- COND&#45;&gt;CL_BLOCK -->
<g id="edge8" class="edge">
<title>COND&#45;&gt;CL_BLOCK</title>
<path fill="none" stroke="red" stroke-dasharray="5,2" d="M127.22,-161.23C131.01,-155.49 134.78,-149.4 138,-143.5 142.12,-135.96 146.01,-127.49 149.35,-119.63"/>
<polygon fill="red" stroke="red" points="152.54,-121.07 153.09,-110.48 146.06,-118.42 152.54,-121.07"/>
<text xml:space="preserve" text-anchor="middle" x="186.76" y="-130.2" font-family="Courier,monospace" font-size="14.00">Infeasible</text>
</g>
<!-- AFTER_COND -->
<g id="node5" class="node">
<title>AFTER_COND</title>
<polygon fill="none" stroke="black" points="344.38,-36 171.62,-36 171.62,0 344.38,0 344.38,-36"/>
<text xml:space="preserve" text-anchor="middle" x="258" y="-12.95" font-family="Courier,monospace" font-size="14.00">Continuacao do loop</text>
</g>
<!-- COND&#45;&gt;AFTER_COND -->
<g id="edge5" class="edge">
<title>COND&#45;&gt;AFTER_COND</title>
<path fill="none" stroke="black" d="M211.47,-161.06C219.11,-156.12 226.11,-150.32 232,-143.5 255.02,-116.87 259.45,-75.13 259.52,-47.42"/>
<polygon fill="black" stroke="black" points="263.02,-47.59 259.34,-37.65 256.03,-47.72 263.02,-47.59"/>
<text xml:space="preserve" text-anchor="middle" x="278.78" y="-85.95" font-family="Courier,monospace" font-size="14.00">Falso</text>
</g>
<!-- CL_BLOCK&#45;&gt;AFTER_COND -->
<g id="edge7" class="edge">
<title>CL_BLOCK&#45;&gt;AFTER_COND</title>
<path fill="none" stroke="black" d="M183.97,-72.63C196.31,-63.69 211.55,-52.66 224.98,-42.92"/>
<polygon fill="black" stroke="black" points="226.66,-46.02 232.71,-37.32 222.56,-40.36 226.66,-46.02"/>
</g>
<!-- AFTER_COND&#45;&gt;LOOP -->
<g id="edge6" class="edge">
<title>AFTER_COND&#45;&gt;LOOP</title>
<path fill="none" stroke="black" d="M284.67,-36.35C318.26,-59.99 374.33,-105.8 397,-161.5 406.63,-185.17 407.92,-195.9 397,-219 387.94,-238.17 370.67,-253.67 353.89,-265.13"/>
<polygon fill="black" stroke="black" points="352.45,-261.89 345.95,-270.26 356.25,-267.78 352.45,-261.89"/>
</g>
</g>
</svg>
