<?xml version="1.0" encoding="UTF-8" standalone="no"?>
<!DOCTYPE svg PUBLIC "-//W3C//DTD SVG 1.1//EN"
 "http://www.w3.org/Graphics/SVG/1.1/DTD/svg11.dtd">
<!-- Generated by graphviz version 13.1.2 (20250808.2320)
 -->
<!-- Title: CompressCFG Pages: 1 -->
<svg width="1370pt" height="1180pt"
 viewBox="0.00 0.00 1370.00 1180.00" xmlns="http://www.w3.org/2000/svg" xmlns:xlink="http://www.w3.org/1999/xlink">
<g id="graph0" class="graph" transform="scale(1 1) rotate(0) translate(4 1176)">
<title>CompressCFG</title>
<polygon fill="white" stroke="none" points="-4,4 -4,-1176 1366.06,-1176 1366.06,4 -4,4"/>
<!-- start -->
<g id="node1" class="node">
<title>start</title>
<ellipse fill="none" stroke="black" cx="868.88" cy="-1154" rx="112.26" ry="18"/>
<text xml:space="preserve" text-anchor="middle" x="868.88" y="-1148.95" font-family="Courier,monospace" font-size="14.00">compress() &#45; Start</text>
</g>
<!-- init -->
<g id="node2" class="node">
<title>init</title>
<polygon fill="none" stroke="black" points="984.12,-1099 753.62,-1099 753.62,-1058 984.12,-1058 984.12,-1099"/>
<text xml:space="preserve" text-anchor="middle" x="868.88" y="-1081.7" font-family="Courier,monospace" font-size="14.00">Inicializacoes:</text>
<text xml:space="preserve" text-anchor="middle" x="868.88" y="-1065.2" font-family="Courier,monospace" font-size="14.00">offset=0, bytes_out=3, ...</text>
</g>
<!-- start&#45;&gt;init -->
<g id="edge1" class="edge">
<title>start&#45;&gt;init</title>
<path fill="none" stroke="black" d="M868.88,-1135.58C868.88,-1128.2 868.88,-1119.35 868.88,-1110.9"/>
<polygon fill="black" stroke="black" points="872.38,-1110.9 868.88,-1100.9 865.38,-1110.9 872.38,-1110.9"/>
</g>
<!-- ent_getbyte -->
<g id="node3" class="node">
<title>ent_getbyte</title>
<polygon fill="none" stroke="black" points="938.75,-1021 799,-1021 799,-985 938.75,-985 938.75,-1021"/>
<text xml:space="preserve" text-anchor="middle" x="868.88" y="-997.95" font-family="Courier,monospace" font-size="14.00">ent = getbyte()</text>
</g>
<!-- init&#45;&gt;ent_getbyte -->
<g id="edge2" class="edge">
<title>init&#45;&gt;ent_getbyte</title>
<path fill="none" stroke="black" d="M868.88,-1057.8C868.88,-1050.06 868.88,-1041.01 868.88,-1032.57"/>
<polygon fill="black" stroke="black" points="872.38,-1032.76 868.88,-1022.76 865.38,-1032.76 872.38,-1032.76"/>
</g>
<!-- hshift_calc -->
<g id="node4" class="node">
<title>hshift_calc</title>
<polygon fill="none" stroke="black" points="938.75,-948 799,-948 799,-912 938.75,-912 938.75,-948"/>
<text xml:space="preserve" text-anchor="middle" x="868.88" y="-924.95" font-family="Courier,monospace" font-size="14.00">Calcular hshift</text>
</g>
<!-- ent_getbyte&#45;&gt;hshift_calc -->
<g id="edge3" class="edge">
<title>ent_getbyte&#45;&gt;hshift_calc</title>
<path fill="none" stroke="black" d="M868.88,-984.81C868.88,-977.23 868.88,-968.1 868.88,-959.54"/>
<polygon fill="black" stroke="black" points="872.38,-959.54 868.88,-949.54 865.38,-959.54 872.38,-959.54"/>
</g>
<!-- cl_hash_call -->
<g id="node5" class="node">
<title>cl_hash_call</title>
<polygon fill="none" stroke="black" points="951.12,-875 786.62,-875 786.62,-839 951.12,-839 951.12,-875"/>
<text xml:space="preserve" text-anchor="middle" x="868.88" y="-851.95" font-family="Courier,monospace" font-size="14.00">cl_hash(hsize_reg)</text>
</g>
<!-- hshift_calc&#45;&gt;cl_hash_call -->
<g id="edge4" class="edge">
<title>hshift_calc&#45;&gt;cl_hash_call</title>
<path fill="none" stroke="black" d="M868.88,-911.81C868.88,-904.23 868.88,-895.1 868.88,-886.54"/>
<polygon fill="black" stroke="black" points="872.38,-886.54 868.88,-876.54 865.38,-886.54 872.38,-886.54"/>
</g>
<!-- loop_cond -->
<g id="node6" class="node">
<title>loop_cond</title>
<polygon fill="none" stroke="black" points="868.88,-802 773.82,-784 868.88,-766 963.93,-784 868.88,-802"/>
<text xml:space="preserve" text-anchor="middle" x="868.88" y="-778.95" font-family="Courier,monospace" font-size="14.00">InCnt &gt; 0?</text>
</g>
<!-- cl_hash_call&#45;&gt;loop_cond -->
<g id="edge5" class="edge">
<title>cl_hash_call&#45;&gt;loop_cond</title>
<path fill="none" stroke="black" d="M868.88,-838.81C868.88,-831.23 868.88,-822.1 868.88,-813.54"/>
<polygon fill="black" stroke="black" points="872.38,-813.54 868.88,-803.54 865.38,-813.54 872.38,-813.54"/>
</g>
<!-- c_getbyte -->
<g id="node7" class="node">
<title>c_getbyte</title>
<polygon fill="none" stroke="black" points="754.5,-713.5 631.25,-713.5 631.25,-672.5 754.5,-672.5 754.5,-713.5"/>
<text xml:space="preserve" text-anchor="middle" x="692.88" y="-696.2" font-family="Courier,monospace" font-size="14.00">c = getbyte()</text>
<text xml:space="preserve" text-anchor="middle" x="692.88" y="-679.7" font-family="Courier,monospace" font-size="14.00">in_count++</text>
</g>
<!-- loop_cond&#45;&gt;c_getbyte -->
<g id="edge6" class="edge">
<title>loop_cond&#45;&gt;c_getbyte</title>
<path fill="none" stroke="black" d="M836.72,-771.62C819.93,-765.3 799.22,-756.94 781.38,-748 764.74,-739.67 747.11,-729.27 732,-719.82"/>
<polygon fill="black" stroke="black" points="734.07,-716.99 723.75,-714.59 730.33,-722.9 734.07,-716.99"/>
<text xml:space="preserve" text-anchor="middle" x="792.62" y="-734.7" font-family="Times New Roman,serif" font-size="14.00">Sim</text>
</g>
<!-- end_compress -->
<g id="node19" class="node">
<title>end_compress</title>
<ellipse fill="none" stroke="black" cx="1187.88" cy="-693" rx="174.19" ry="18"/>
<text xml:space="preserve" text-anchor="middle" x="1187.88" y="-687.95" font-family="Courier,monospace" font-size="14.00">Verifica bytes_out &gt; in_count</text>
</g>
<!-- loop_cond&#45;&gt;end_compress -->
<g id="edge7" class="edge">
<title>loop_cond&#45;&gt;end_compress</title>
<path fill="none" stroke="black" d="M907.62,-772.85C933.72,-765.96 968.91,-756.58 999.88,-748 1040.06,-736.86 1084.95,-723.98 1120.79,-713.6"/>
<polygon fill="black" stroke="black" points="1121.52,-717.03 1130.15,-710.88 1119.57,-710.31 1121.52,-717.03"/>
<text xml:space="preserve" text-anchor="middle" x="1068.06" y="-734.7" font-family="Times New Roman,serif" font-size="14.00">Nao</text>
</g>
<!-- fcode_calc -->
<g id="node8" class="node">
<title>fcode_calc</title>
<polygon fill="none" stroke="black" points="781.38,-635.5 534.38,-635.5 534.38,-599.5 781.38,-599.5 781.38,-635.5"/>
<text xml:space="preserve" text-anchor="middle" x="657.88" y="-612.45" font-family="Courier,monospace" font-size="14.00">fcode = (c &lt;&lt; maxbits) + ent</text>
</g>
<!-- c_getbyte&#45;&gt;fcode_calc -->
<g id="edge8" class="edge">
<title>c_getbyte&#45;&gt;fcode_calc</title>
<path fill="none" stroke="black" d="M683.5,-672.3C679.64,-664.2 675.1,-654.68 670.93,-645.91"/>
<polygon fill="black" stroke="black" points="674.2,-644.64 666.74,-637.11 667.88,-647.65 674.2,-644.64"/>
</g>
<!-- i_calc -->
<g id="node9" class="node">
<title>i_calc</title>
<polygon fill="none" stroke="black" points="760.75,-562.5 555,-562.5 555,-526.5 760.75,-526.5 760.75,-562.5"/>
<text xml:space="preserve" text-anchor="middle" x="657.88" y="-539.45" font-family="Courier,monospace" font-size="14.00">i = (c &lt;&lt; hshift) ^ ent</text>
</g>
<!-- fcode_calc&#45;&gt;i_calc -->
<g id="edge9" class="edge">
<title>fcode_calc&#45;&gt;i_calc</title>
<path fill="none" stroke="black" d="M657.88,-599.31C657.88,-591.73 657.88,-582.6 657.88,-574.04"/>
<polygon fill="black" stroke="black" points="661.38,-574.04 657.88,-564.04 654.38,-574.04 661.38,-574.04"/>
</g>
<!-- cond_htab -->
<g id="node10" class="node">
<title>cond_htab</title>
<polygon fill="none" stroke="black" points="657.88,-489.5 507.08,-471.5 657.87,-453.5 808.67,-471.5 657.88,-489.5"/>
<text xml:space="preserve" text-anchor="middle" x="657.88" y="-466.45" font-family="Courier,monospace" font-size="14.00">htab[i] == fcode?</text>
</g>
<!-- i_calc&#45;&gt;cond_htab -->
<g id="edge10" class="edge">
<title>i_calc&#45;&gt;cond_htab</title>
<path fill="none" stroke="black" d="M657.88,-526.31C657.88,-518.73 657.88,-509.6 657.88,-501.04"/>
<polygon fill="black" stroke="black" points="661.38,-501.04 657.88,-491.04 654.38,-501.04 661.38,-501.04"/>
</g>
<!-- cond_htab&#45;&gt;loop_cond -->
<g id="edge11" class="edge">
<title>cond_htab&#45;&gt;loop_cond</title>
<path fill="none" stroke="black" d="M742.56,-479.81C780.94,-488.27 817.88,-506.12 817.88,-543.5 817.88,-694 817.88,-694 817.88,-694 817.88,-718.79 832.96,-742.94 846.72,-759.81"/>
<polygon fill="black" stroke="black" points="843.95,-761.96 853.13,-767.25 849.25,-757.39 843.95,-761.96"/>
<text xml:space="preserve" text-anchor="middle" x="829.12" y="-612.45" font-family="Times New Roman,serif" font-size="14.00">Sim</text>
</g>
<!-- cond_htab_neg -->
<g id="node11" class="node">
<title>cond_htab_neg</title>
<polygon fill="none" stroke="black" points="657.88,-401 546.89,-383 657.88,-365 768.86,-383 657.88,-401"/>
<text xml:space="preserve" text-anchor="middle" x="657.88" y="-377.95" font-family="Courier,monospace" font-size="14.00">htab[i] &lt; 0?</text>
</g>
<!-- cond_htab&#45;&gt;cond_htab_neg -->
<g id="edge12" class="edge">
<title>cond_htab&#45;&gt;cond_htab_neg</title>
<path fill="none" stroke="black" d="M657.88,-453.41C657.88,-441.76 657.88,-426.05 657.88,-412.52"/>
<polygon fill="black" stroke="black" points="661.38,-412.86 657.88,-402.86 654.38,-412.86 661.38,-412.86"/>
<text xml:space="preserve" text-anchor="middle" x="669.12" y="-422.2" font-family="Times New Roman,serif" font-size="14.00">Nao</text>
</g>
<!-- probe_loop -->
<g id="node12" class="node">
<title>probe_loop</title>
<polygon fill="none" stroke="black" points="552,-304.25 395.75,-304.25 395.75,-263.25 552,-263.25 552,-304.25"/>
<text xml:space="preserve" text-anchor="middle" x="473.88" y="-286.95" font-family="Courier,monospace" font-size="14.00">Ajuste i via disp</text>
<text xml:space="preserve" text-anchor="middle" x="473.88" y="-270.45" font-family="Courier,monospace" font-size="14.00">(loop probe)</text>
</g>
<!-- cond_htab_neg&#45;&gt;probe_loop -->
<g id="edge14" class="edge">
<title>cond_htab_neg&#45;&gt;probe_loop</title>
<path fill="none" stroke="black" d="M632.68,-368.68C604.19,-353.63 557.16,-328.77 521.66,-310.01"/>
<polygon fill="black" stroke="black" points="523.33,-306.93 512.85,-305.35 520.06,-313.12 523.33,-306.93"/>
<text xml:space="preserve" text-anchor="middle" x="599.02" y="-333.7" font-family="Times New Roman,serif" font-size="14.00">Nao</text>
</g>
<!-- nomatch -->
<g id="node13" class="node">
<title>nomatch</title>
<polygon fill="none" stroke="black" points="680.25,-312.5 573.5,-312.5 573.5,-255 680.25,-255 680.25,-312.5"/>
<text xml:space="preserve" text-anchor="middle" x="626.88" y="-295.2" font-family="Courier,monospace" font-size="14.00">nomatch:</text>
<text xml:space="preserve" text-anchor="middle" x="626.88" y="-278.7" font-family="Courier,monospace" font-size="14.00">out_count++</text>
<text xml:space="preserve" text-anchor="middle" x="626.88" y="-262.2" font-family="Courier,monospace" font-size="14.00">ent = c</text>
</g>
<!-- cond_htab_neg&#45;&gt;nomatch -->
<g id="edge13" class="edge">
<title>cond_htab_neg&#45;&gt;nomatch</title>
<path fill="none" stroke="black" d="M652.62,-365.5C648.95,-354.02 643.91,-338.2 639.26,-323.61"/>
<polygon fill="black" stroke="black" points="642.64,-322.69 636.27,-314.22 635.97,-324.81 642.64,-322.69"/>
<text xml:space="preserve" text-anchor="middle" x="657.31" y="-333.7" font-family="Times New Roman,serif" font-size="14.00">Sim</text>
</g>
<!-- probe_loop&#45;&gt;cond_htab -->
<g id="edge15" class="edge">
<title>probe_loop&#45;&gt;cond_htab</title>
<path fill="none" stroke="black" d="M459.36,-304.71C443.29,-329.47 422.27,-371.97 443.38,-401 468.42,-435.44 510.91,-453.16 551.49,-462.15"/>
<polygon fill="black" stroke="black" points="550.61,-465.54 561.11,-464.11 552.01,-458.68 550.61,-465.54"/>
<text xml:space="preserve" text-anchor="middle" x="490.62" y="-377.95" font-family="Times New Roman,serif" font-size="14.00">Re&#45;checar htab[i]</text>
</g>
<!-- cond_free_ent -->
<g id="node14" class="node">
<title>cond_free_ent</title>
<polygon fill="none" stroke="black" points="581.88,-218 391.27,-200 581.87,-182 772.48,-200 581.88,-218"/>
<text xml:space="preserve" text-anchor="middle" x="581.88" y="-194.95" font-family="Courier,monospace" font-size="14.00">free_ent &lt; maxmaxcode?</text>
</g>
<!-- nomatch&#45;&gt;cond_free_ent -->
<g id="edge16" class="edge">
<title>nomatch&#45;&gt;cond_free_ent</title>
<path fill="none" stroke="black" d="M611.39,-254.62C606.54,-245.82 601.22,-236.14 596.44,-227.46"/>
<polygon fill="black" stroke="black" points="599.57,-225.89 591.68,-218.82 593.44,-229.27 599.57,-225.89"/>
</g>
<!-- cond_checkpoint -->
<g id="node15" class="node">
<title>cond_checkpoint</title>
<polygon fill="none" stroke="black" points="581.88,-127 224.07,-109 581.87,-91 939.68,-109 581.88,-127"/>
<text xml:space="preserve" text-anchor="middle" x="581.88" y="-103.95" font-family="Courier,monospace" font-size="14.00">(in_count &gt;= checkpoint) &amp;&amp; block_compress?</text>
</g>
<!-- cond_free_ent&#45;&gt;cond_checkpoint -->
<g id="edge18" class="edge">
<title>cond_free_ent&#45;&gt;cond_checkpoint</title>
<path fill="none" stroke="black" d="M581.88,-181.84C581.88,-169.61 581.88,-152.87 581.88,-138.63"/>
<polygon fill="black" stroke="black" points="585.38,-138.92 581.88,-128.92 578.38,-138.92 585.38,-138.92"/>
<text xml:space="preserve" text-anchor="middle" x="593.12" y="-150.7" font-family="Times New Roman,serif" font-size="14.00">Nao</text>
</g>
<!-- update_tables -->
<g id="node17" class="node">
<title>update_tables</title>
<polygon fill="none" stroke="black" points="205.75,-129.5 0,-129.5 0,-88.5 205.75,-88.5 205.75,-129.5"/>
<text xml:space="preserve" text-anchor="middle" x="102.88" y="-112.2" font-family="Courier,monospace" font-size="14.00">codetab[i] = free_ent++</text>
<text xml:space="preserve" text-anchor="middle" x="102.88" y="-95.7" font-family="Courier,monospace" font-size="14.00">htab[i] = fcode</text>
</g>
<!-- cond_free_ent&#45;&gt;update_tables -->
<g id="edge17" class="edge">
<title>cond_free_ent&#45;&gt;update_tables</title>
<path fill="none" stroke="black" d="M532.34,-186.25C486.74,-174.87 417.09,-158.36 355.88,-147.5 297.07,-137.07 279.27,-138.69 217.21,-129.79"/>
<polygon fill="black" stroke="black" points="217.88,-126.35 207.48,-128.35 216.86,-133.27 217.88,-126.35"/>
<text xml:space="preserve" text-anchor="middle" x="448.34" y="-150.7" font-family="Times New Roman,serif" font-size="14.00">Sim</text>
</g>
<!-- cond_checkpoint&#45;&gt;loop_cond -->
<g id="edge20" class="edge">
<title>cond_checkpoint&#45;&gt;loop_cond</title>
<path fill="none" stroke="black" d="M684.27,-122.31C766.7,-135.17 868.88,-159.16 868.88,-199 868.88,-694 868.88,-694 868.88,-694 868.88,-714.12 868.88,-736.79 868.88,-754.21"/>
<polygon fill="black" stroke="black" points="865.38,-754.09 868.88,-764.09 872.38,-754.09 865.38,-754.09"/>
<text xml:space="preserve" text-anchor="middle" x="880.12" y="-466.45" font-family="Times New Roman,serif" font-size="14.00">Nao</text>
</g>
<!-- cl_block_call -->
<g id="node16" class="node">
<title>cl_block_call</title>
<polygon fill="none" stroke="red" points="968.12,-36 869.62,-36 869.62,0 968.12,0 968.12,-36"/>
<text xml:space="preserve" text-anchor="middle" x="918.88" y="-12.95" font-family="Courier,monospace" font-size="14.00" fill="red">cl_block()</text>
</g>
<!-- cond_checkpoint&#45;&gt;cl_block_call -->
<g id="edge19" class="edge">
<title>cond_checkpoint&#45;&gt;cl_block_call</title>
<path fill="none" stroke="red" d="M637.52,-93.3C698.37,-77.23 795.54,-51.57 858.28,-35"/>
<polygon fill="red" stroke="red" points="858.95,-38.45 867.73,-32.51 857.16,-31.68 858.95,-38.45"/>
<text xml:space="preserve" text-anchor="middle" x="791.81" y="-57.2" font-family="Times New Roman,serif" font-size="14.00" fill="red">Sim</text>
</g>
<!-- cond_checkpoint&#45;&gt;cl_block_call -->
<g id="edge23" class="edge">
<title>cond_checkpoint&#45;&gt;cl_block_call</title>
<path fill="none" stroke="red" d="M689.67,-95.98C727.26,-90.23 769.4,-82.01 806.88,-70.5 830.74,-63.17 856.12,-51.82 876.67,-41.65"/>
<polygon fill="red" stroke="red" points="878.24,-44.77 885.59,-37.14 875.08,-38.52 878.24,-44.77"/>
</g>
<!-- cl_block_call&#45;&gt;loop_cond -->
<g id="edge22" class="edge">
<title>cl_block_call&#45;&gt;loop_cond</title>
<path fill="none" stroke="red" d="M931.83,-36.28C946.61,-52.82 967.88,-79.41 967.88,-108 967.88,-694 967.88,-694 967.88,-694 967.88,-728.3 935.04,-751.83 907.08,-766.04"/>
<polygon fill="red" stroke="red" points="905.93,-762.71 898.44,-770.21 908.97,-769.02 905.93,-762.71"/>
</g>
<!-- cl_block_call&#45;&gt;loop_cond -->
<g id="edge24" class="edge">
<title>cl_block_call&#45;&gt;loop_cond</title>
<path fill="none" stroke="red" d="M945.84,-36.28C964.61,-52.82 985.88,-79.41 985.88,-108 985.88,-694 985.88,-694 985.88,-694 985.88,-730.39 948.9,-754.67 916.42,-768.55"/>
<polygon fill="red" stroke="red" points="915.47,-765.16 907.49,-772.13 918.07,-771.65 915.47,-765.16"/>
</g>
<!-- update_tables&#45;&gt;loop_cond -->
<g id="edge21" class="edge">
<title>update_tables&#45;&gt;loop_cond</title>
<path fill="none" stroke="black" d="M205.97,-129.25C270.65,-144.38 341.88,-168.06 341.88,-199 341.88,-694 341.88,-694 341.88,-694 341.88,-738.82 642.08,-766.68 789.33,-777.65"/>
<polygon fill="black" stroke="black" points="788.78,-781.12 799.01,-778.37 789.29,-774.14 788.78,-781.12"/>
</g>
<!-- end_loop -->
<g id="node18" class="node">
<title>end_loop</title>
<polygon fill="none" stroke="black" points="1106.25,-1172 999.5,-1172 999.5,-1136 1106.25,-1136 1106.25,-1172"/>
<text xml:space="preserve" text-anchor="middle" x="1052.88" y="-1148.95" font-family="Courier,monospace" font-size="14.00">Fim do loop</text>
</g>
</g>
</svg>
