<?xml version="1.0" encoding="UTF-8" standalone="no"?>
<!DOCTYPE svg PUBLIC "-//W3C//DTD SVG 1.1//EN"
 "http://www.w3.org/Graphics/SVG/1.1/DTD/svg11.dtd">
<!-- Generated by graphviz version 13.1.2 (20250808.2320)
 -->
<!-- Title: fib_DFG Pages: 1 -->
<svg width="400pt" height="482pt"
 viewBox="0.00 0.00 400.00 482.00" xmlns="http://www.w3.org/2000/svg" xmlns:xlink="http://www.w3.org/1999/xlink">
<g id="graph0" class="graph" transform="scale(1 1) rotate(0) translate(4 478)">
<title>fib_DFG</title>
<polygon fill="white" stroke="none" points="-4,4 -4,-478 396.12,-478 396.12,4 -4,4"/>
<!-- n_input -->
<g id="node1" class="node">
<title>n_input</title>
<ellipse fill="lightblue" stroke="black" cx="220.12" cy="-456" rx="43.16" ry="18"/>
<text xml:space="preserve" text-anchor="middle" x="220.12" y="-450.95" font-family="Times New Roman,serif" font-size="14.00">n (input)</text>
</g>
<!-- op_init -->
<g id="node2" class="node">
<title>op_init</title>
<polygon fill="none" stroke="black" points="287.38,-401 152.88,-401 152.88,-365 287.38,-365 287.38,-401"/>
<text xml:space="preserve" text-anchor="middle" x="220.12" y="-377.95" font-family="Times New Roman,serif" font-size="14.00">Fnew=1, Fold=0, i=2</text>
</g>
<!-- n_input&#45;&gt;op_init -->
<g id="edge1" class="edge">
<title>n_input&#45;&gt;op_init</title>
<path fill="none" stroke="grey" stroke-dasharray="5,2" d="M220.12,-437.81C220.12,-430.23 220.12,-421.1 220.12,-412.54"/>
<polygon fill="grey" stroke="grey" points="223.63,-412.54 220.13,-402.54 216.63,-412.54 223.63,-412.54"/>
</g>
<!-- op_temp -->
<g id="node3" class="node">
<title>op_temp</title>
<polygon fill="none" stroke="black" points="164.88,-328 75.38,-328 75.38,-292 164.88,-292 164.88,-328"/>
<text xml:space="preserve" text-anchor="middle" x="120.12" y="-304.95" font-family="Times New Roman,serif" font-size="14.00">temp = Fnew</text>
</g>
<!-- op_init&#45;&gt;op_temp -->
<g id="edge2" class="edge">
<title>op_init&#45;&gt;op_temp</title>
<path fill="none" stroke="black" d="M195.66,-364.63C183.07,-355.69 167.53,-344.66 153.82,-334.92"/>
<polygon fill="black" stroke="black" points="156.1,-332.25 145.92,-329.31 152.04,-337.95 156.1,-332.25"/>
</g>
<!-- op_fnew -->
<g id="node4" class="node">
<title>op_fnew</title>
<polygon fill="none" stroke="black" points="186.25,-182 54,-182 54,-146 186.25,-146 186.25,-182"/>
<text xml:space="preserve" text-anchor="middle" x="120.12" y="-158.95" font-family="Times New Roman,serif" font-size="14.00">Fnew = Fnew + Fold</text>
</g>
<!-- op_init&#45;&gt;op_fnew -->
<g id="edge3" class="edge">
<title>op_init&#45;&gt;op_fnew</title>
<path fill="none" stroke="black" d="M221.79,-364.82C223.98,-333.39 224.66,-265.59 196.12,-219 188.65,-206.8 177.28,-196.59 165.6,-188.45"/>
<polygon fill="black" stroke="black" points="167.79,-185.7 157.49,-183.19 163.97,-191.57 167.79,-185.7"/>
</g>
<!-- op_inc -->
<g id="node6" class="node">
<title>op_inc</title>
<polygon fill="none" stroke="black" points="302.12,-328 248.12,-328 248.12,-292 302.12,-292 302.12,-328"/>
<text xml:space="preserve" text-anchor="middle" x="275.12" y="-304.95" font-family="Times New Roman,serif" font-size="14.00">i++</text>
</g>
<!-- op_init&#45;&gt;op_inc -->
<g id="edge4" class="edge">
<title>op_init&#45;&gt;op_inc</title>
<path fill="none" stroke="black" d="M233.44,-364.81C239.92,-356.44 247.86,-346.2 255.06,-336.9"/>
<polygon fill="black" stroke="black" points="257.65,-339.27 261.01,-329.23 252.12,-334.99 257.65,-339.27"/>
</g>
<!-- op_fold -->
<g id="node5" class="node">
<title>op_fold</title>
<polygon fill="none" stroke="black" points="84.25,-255 0,-255 0,-219 84.25,-219 84.25,-255"/>
<text xml:space="preserve" text-anchor="middle" x="42.12" y="-231.95" font-family="Times New Roman,serif" font-size="14.00">Fold = temp</text>
</g>
<!-- op_temp&#45;&gt;op_fold -->
<g id="edge5" class="edge">
<title>op_temp&#45;&gt;op_fold</title>
<path fill="none" stroke="black" d="M101.24,-291.81C91.73,-283.16 80.02,-272.5 69.54,-262.96"/>
<polygon fill="black" stroke="black" points="71.97,-260.44 62.22,-256.29 67.26,-265.61 71.97,-260.44"/>
</g>
<!-- op_fnew&#45;&gt;op_temp -->
<g id="edge7" class="edge">
<title>op_fnew&#45;&gt;op_temp</title>
<path fill="none" stroke="black" d="M120.12,-182.43C120.12,-206.68 120.12,-250.91 120.12,-280.13"/>
<polygon fill="black" stroke="black" points="116.63,-280.12 120.13,-290.12 123.63,-280.12 116.63,-280.12"/>
<text xml:space="preserve" text-anchor="middle" x="156.12" y="-231.95" font-family="Times New Roman,serif" font-size="14.00">next iteration</text>
</g>
<!-- op_fnew&#45;&gt;op_fnew -->
<g id="edge8" class="edge">
<title>op_fnew&#45;&gt;op_fnew</title>
<path fill="none" stroke="black" d="M186.42,-170.3C197.01,-169.38 204.25,-167.28 204.25,-164 204.25,-162.1 201.83,-160.6 197.74,-159.49"/>
<polygon fill="black" stroke="black" points="198.34,-156.05 187.92,-157.93 197.25,-162.96 198.34,-156.05"/>
<text xml:space="preserve" text-anchor="middle" x="240.25" y="-158.95" font-family="Times New Roman,serif" font-size="14.00">next iteration</text>
</g>
<!-- op_ans -->
<g id="node7" class="node">
<title>op_ans</title>
<polygon fill="none" stroke="black" points="160,-109 80.25,-109 80.25,-73 160,-73 160,-109"/>
<text xml:space="preserve" text-anchor="middle" x="120.12" y="-85.95" font-family="Times New Roman,serif" font-size="14.00">ans = Fnew</text>
</g>
<!-- op_fnew&#45;&gt;op_ans -->
<g id="edge10" class="edge">
<title>op_fnew&#45;&gt;op_ans</title>
<path fill="none" stroke="black" d="M120.12,-145.81C120.12,-138.23 120.12,-129.1 120.12,-120.54"/>
<polygon fill="black" stroke="black" points="123.63,-120.54 120.13,-110.54 116.63,-120.54 123.63,-120.54"/>
</g>
<!-- op_fold&#45;&gt;op_fnew -->
<g id="edge6" class="edge">
<title>op_fold&#45;&gt;op_fnew</title>
<path fill="none" stroke="black" d="M61.01,-218.81C70.52,-210.16 82.23,-199.5 92.71,-189.96"/>
<polygon fill="black" stroke="black" points="94.99,-192.61 100.03,-183.29 90.28,-187.44 94.99,-192.61"/>
</g>
<!-- op_inc&#45;&gt;op_inc -->
<g id="edge9" class="edge">
<title>op_inc&#45;&gt;op_inc</title>
<path fill="none" stroke="black" d="M302.37,-316.84C312.15,-316.98 320.12,-314.71 320.12,-310 320.12,-307.35 317.6,-305.47 313.65,-304.36"/>
<polygon fill="black" stroke="black" points="314.18,-300.9 303.87,-303.32 313.44,-307.86 314.18,-300.9"/>
<text xml:space="preserve" text-anchor="middle" x="356.12" y="-304.95" font-family="Times New Roman,serif" font-size="14.00">next iteration</text>
</g>
<!-- op_return -->
<g id="node8" class="node">
<title>op_return</title>
<polygon fill="none" stroke="black" points="155.12,-36 85.12,-36 85.12,0 155.12,0 155.12,-36"/>
<text xml:space="preserve" text-anchor="middle" x="120.12" y="-12.95" font-family="Times New Roman,serif" font-size="14.00">return ans</text>
</g>
<!-- op_ans&#45;&gt;op_return -->
<g id="edge11" class="edge">
<title>op_ans&#45;&gt;op_return</title>
<path fill="none" stroke="black" d="M120.12,-72.81C120.12,-65.23 120.12,-56.1 120.12,-47.54"/>
<polygon fill="black" stroke="black" points="123.63,-47.54 120.13,-37.54 116.63,-47.54 123.63,-47.54"/>
</g>
</g>
</svg>
