<?xml version="1.0" encoding="UTF-8" standalone="no"?>
<!DOCTYPE svg PUBLIC "-//W3C//DTD SVG 1.1//EN"
 "http://www.w3.org/Graphics/SVG/1.1/DTD/svg11.dtd">
<!-- Generated by graphviz version 13.1.2 (20250808.2320)
 -->
<!-- Title: main_CFG Pages: 1 -->
<svg width="89pt" height="188pt"
 viewBox="0.00 0.00 89.00 188.00" xmlns="http://www.w3.org/2000/svg" xmlns:xlink="http://www.w3.org/1999/xlink">
<g id="graph0" class="graph" transform="scale(1 1) rotate(0) translate(4 184)">
<title>main_CFG</title>
<polygon fill="white" stroke="none" points="-4,4 -4,-184 85.25,-184 85.25,4 -4,4"/>
<!-- M1 -->
<g id="node1" class="node">
<title>M1</title>
<path fill="none" stroke="black" d="M65.12,-180C65.12,-180 16.12,-180 16.12,-180 10.12,-180 4.12,-174 4.12,-168 4.12,-168 4.12,-156 4.12,-156 4.12,-150 10.12,-144 16.12,-144 16.12,-144 65.12,-144 65.12,-144 71.12,-144 77.12,-150 77.12,-156 77.12,-156 77.12,-168 77.12,-168 77.12,-174 71.12,-180 65.12,-180"/>
<text xml:space="preserve" text-anchor="middle" x="40.62" y="-156.57" font-family="Helvetica,sans-Serif" font-size="14.00">1: a = 30;</text>
</g>
<!-- M2 -->
<g id="node2" class="node">
<title>M2</title>
<path fill="none" stroke="black" d="M61.38,-108C61.38,-108 19.88,-108 19.88,-108 13.88,-108 7.88,-102 7.88,-96 7.88,-96 7.88,-84 7.88,-84 7.88,-78 13.88,-72 19.88,-72 19.88,-72 61.38,-72 61.38,-72 67.38,-72 73.38,-78 73.38,-84 73.38,-84 73.38,-96 73.38,-96 73.38,-102 67.38,-108 61.38,-108"/>
<text xml:space="preserve" text-anchor="middle" x="40.62" y="-84.58" font-family="Helvetica,sans-Serif" font-size="14.00">2: fib(a);</text>
</g>
<!-- M1&#45;&gt;M2 -->
<g id="edge1" class="edge">
<title>M1&#45;&gt;M2</title>
<path fill="none" stroke="black" d="M40.62,-143.7C40.62,-136.41 40.62,-127.73 40.62,-119.54"/>
<polygon fill="black" stroke="black" points="44.13,-119.62 40.63,-109.62 37.13,-119.62 44.13,-119.62"/>
</g>
<!-- M3 -->
<g id="node3" class="node">
<title>M3</title>
<path fill="none" stroke="black" d="M69.25,-36C69.25,-36 12,-36 12,-36 6,-36 0,-30 0,-24 0,-24 0,-12 0,-12 0,-6 6,0 12,0 12,0 69.25,0 69.25,0 75.25,0 81.25,-6 81.25,-12 81.25,-12 81.25,-24 81.25,-24 81.25,-30 75.25,-36 69.25,-36"/>
<text xml:space="preserve" text-anchor="middle" x="40.62" y="-12.57" font-family="Helvetica,sans-Serif" font-size="14.00">3: return a;</text>
</g>
<!-- M2&#45;&gt;M3 -->
<g id="edge2" class="edge">
<title>M2&#45;&gt;M3</title>
<path fill="none" stroke="black" d="M40.62,-71.7C40.62,-64.41 40.62,-55.73 40.62,-47.54"/>
<polygon fill="black" stroke="black" points="44.13,-47.62 40.63,-37.62 37.13,-47.62 44.13,-47.62"/>
</g>
</g>
</svg>
