<?xml version="1.0" encoding="UTF-8" standalone="no"?>
<!DOCTYPE svg PUBLIC "-//W3C//DTD SVG 1.1//EN"
 "http://www.w3.org/Graphics/SVG/1.1/DTD/svg11.dtd">
<!-- Generated by graphviz version 13.1.2 (20250808.2320)
 -->
<!-- Title: main_CFG Pages: 1 -->
<svg width="352pt" height="430pt"
 viewBox="0.00 0.00 352.00 430.00" xmlns="http://www.w3.org/2000/svg" xmlns:xlink="http://www.w3.org/1999/xlink">
<g id="graph0" class="graph" transform="scale(1 1) rotate(0) translate(4 426.25)">
<title>main_CFG</title>
<polygon fill="white" stroke="none" points="-4,4 -4,-426.25 347.75,-426.25 347.75,4 -4,4"/>
<!-- N1 -->
<g id="node1" class="node">
<title>N1</title>
<path fill="none" stroke="black" d="M187.38,-422.25C187.38,-422.25 156.38,-422.25 156.38,-422.25 150.38,-422.25 144.38,-416.25 144.38,-410.25 144.38,-410.25 144.38,-398.25 144.38,-398.25 144.38,-392.25 150.38,-386.25 156.38,-386.25 156.38,-386.25 187.38,-386.25 187.38,-386.25 193.38,-386.25 199.38,-392.25 199.38,-398.25 199.38,-398.25 199.38,-410.25 199.38,-410.25 199.38,-416.25 193.38,-422.25 187.38,-422.25"/>
<text xml:space="preserve" text-anchor="middle" x="171.88" y="-398.82" font-family="Helvetica,sans-Serif" font-size="14.00">reset()</text>
</g>
<!-- N2 -->
<g id="node2" class="node">
<title>N2</title>
<path fill="none" stroke="black" d="M215.12,-350.25C215.12,-350.25 128.62,-350.25 128.62,-350.25 122.62,-350.25 116.62,-344.25 116.62,-338.25 116.62,-338.25 116.62,-326.25 116.62,-326.25 116.62,-320.25 122.62,-314.25 128.62,-314.25 128.62,-314.25 215.12,-314.25 215.12,-314.25 221.12,-314.25 227.12,-320.25 227.12,-326.25 227.12,-326.25 227.12,-338.25 227.12,-338.25 227.12,-344.25 221.12,-350.25 215.12,-350.25"/>
<text xml:space="preserve" text-anchor="middle" x="171.88" y="-326.82" font-family="Helvetica,sans-Serif" font-size="14.00">j = 10; f = 2000;</text>
</g>
<!-- N1&#45;&gt;N2 -->
<g id="edge1" class="edge">
<title>N1&#45;&gt;N2</title>
<path fill="none" stroke="black" d="M171.88,-385.95C171.88,-378.66 171.88,-369.98 171.88,-361.79"/>
<polygon fill="black" stroke="black" points="175.38,-361.87 171.88,-351.87 168.38,-361.87 175.38,-361.87"/>
</g>
<!-- N3 -->
<g id="node3" class="node">
<title>N3</title>
<path fill="none" stroke="black" d="M263.5,-278.25C263.5,-278.25 80.25,-278.25 80.25,-278.25 74.25,-278.25 68.25,-272.25 68.25,-266.25 68.25,-266.25 68.25,-250.75 68.25,-250.75 68.25,-244.75 74.25,-238.75 80.25,-238.75 80.25,-238.75 263.5,-238.75 263.5,-238.75 269.5,-238.75 275.5,-244.75 275.5,-250.75 275.5,-250.75 275.5,-266.25 275.5,-266.25 275.5,-272.25 269.5,-278.25 263.5,-278.25"/>
<text xml:space="preserve" text-anchor="middle" x="171.88" y="-260.95" font-family="Helvetica,sans-Serif" font-size="14.00">for (i=0; i&lt;SIZE; i++)</text>
<text xml:space="preserve" text-anchor="middle" x="171.88" y="-245.2" font-family="Helvetica,sans-Serif" font-size="14.00"> test_data[i] = j * my_cos(f*PI*i);</text>
</g>
<!-- N2&#45;&gt;N3 -->
<g id="edge2" class="edge">
<title>N2&#45;&gt;N3</title>
<path fill="none" stroke="black" d="M171.88,-313.88C171.88,-306.75 171.88,-298.27 171.88,-290.16"/>
<polygon fill="black" stroke="black" points="175.38,-290.24 171.88,-280.24 168.38,-290.24 175.38,-290.24"/>
</g>
<!-- N4 -->
<g id="node4" class="node">
<title>N4</title>
<path fill="none" stroke="black" d="M331.75,-202.75C331.75,-202.75 12,-202.75 12,-202.75 6,-202.75 0,-196.75 0,-190.75 0,-190.75 0,-175.25 0,-175.25 0,-169.25 6,-163.25 12,-163.25 12,-163.25 331.75,-163.25 331.75,-163.25 337.75,-163.25 343.75,-169.25 343.75,-175.25 343.75,-175.25 343.75,-190.75 343.75,-190.75 343.75,-196.75 337.75,-202.75 331.75,-202.75"/>
<text xml:space="preserve" text-anchor="middle" x="171.88" y="-185.45" font-family="Helvetica,sans-Serif" font-size="14.00">for (i=0; i&lt;IN_END; i+=2)</text>
<text xml:space="preserve" text-anchor="middle" x="171.88" y="-169.7" font-family="Helvetica,sans-Serif" font-size="14.00"> compressed[i/2] = encode(test_data[i], test_data[i+1]);</text>
</g>
<!-- N3&#45;&gt;N4 -->
<g id="edge3" class="edge">
<title>N3&#45;&gt;N4</title>
<path fill="none" stroke="black" d="M171.88,-238.57C171.88,-231.26 171.88,-222.7 171.88,-214.56"/>
<polygon fill="black" stroke="black" points="175.38,-214.63 171.88,-204.63 168.38,-214.63 175.38,-214.63"/>
</g>
<!-- N5 -->
<g id="node5" class="node">
<title>N5</title>
<path fill="none" stroke="black" d="M268,-127.25C268,-127.25 75.75,-127.25 75.75,-127.25 69.75,-127.25 63.75,-121.25 63.75,-115.25 63.75,-115.25 63.75,-84 63.75,-84 63.75,-78 69.75,-72 75.75,-72 75.75,-72 268,-72 268,-72 274,-72 280,-78 280,-84 280,-84 280,-115.25 280,-115.25 280,-121.25 274,-127.25 268,-127.25"/>
<text xml:space="preserve" text-anchor="middle" x="171.88" y="-109.95" font-family="Helvetica,sans-Serif" font-size="14.00">for (i=0; i&lt;IN_END; i+=2)</text>
<text xml:space="preserve" text-anchor="middle" x="171.88" y="-94.2" font-family="Helvetica,sans-Serif" font-size="14.00"> decode(compressed[i/2]);</text>
<text xml:space="preserve" text-anchor="middle" x="171.88" y="-78.45" font-family="Helvetica,sans-Serif" font-size="14.00"> result[i]=xout1; result[i+1]=xout2;</text>
</g>
<!-- N4&#45;&gt;N5 -->
<g id="edge4" class="edge">
<title>N4&#45;&gt;N5</title>
<path fill="none" stroke="black" d="M171.88,-163.13C171.88,-155.9 171.88,-147.36 171.88,-138.96"/>
<polygon fill="black" stroke="black" points="175.38,-139.24 171.88,-129.24 168.38,-139.24 175.38,-139.24"/>
</g>
<!-- N6 -->
<g id="node6" class="node">
<title>N6</title>
<path fill="none" stroke="black" d="M244.75,-36C244.75,-36 99,-36 99,-36 93,-36 87,-30 87,-24 87,-24 87,-12 87,-12 87,-6 93,0 99,0 99,0 244.75,0 244.75,0 250.75,0 256.75,-6 256.75,-12 256.75,-12 256.75,-24 256.75,-24 256.75,-30 250.75,-36 244.75,-36"/>
<text xml:space="preserve" text-anchor="middle" x="171.88" y="-12.57" font-family="Helvetica,sans-Serif" font-size="14.00">return result[i]+result[i+1];</text>
</g>
<!-- N5&#45;&gt;N6 -->
<g id="edge5" class="edge">
<title>N5&#45;&gt;N6</title>
<path fill="none" stroke="black" d="M171.88,-71.67C171.88,-63.88 171.88,-55.35 171.88,-47.47"/>
<polygon fill="black" stroke="black" points="175.38,-47.71 171.88,-37.71 168.38,-47.71 175.38,-47.71"/>
</g>
</g>
</svg>
