<?xml version="1.0" encoding="UTF-8" standalone="no"?>
<!DOCTYPE svg PUBLIC "-//W3C//DTD SVG 1.1//EN"
 "http://www.w3.org/Graphics/SVG/1.1/DTD/svg11.dtd">
<!-- Generated by graphviz version 13.1.2 (20250808.2320)
 -->
<!-- Title: main_DFG Pages: 1 -->
<svg width="278pt" height="908pt"
 viewBox="0.00 0.00 278.00 908.00" xmlns="http://www.w3.org/2000/svg" xmlns:xlink="http://www.w3.org/1999/xlink">
<g id="graph0" class="graph" transform="scale(1 1) rotate(0) translate(4 904)">
<title>main_DFG</title>
<polygon fill="white" stroke="none" points="-4,4 -4,-904 274,-904 274,4 -4,4"/>
<!-- j -->
<g id="node1" class="node">
<title>j</title>
<ellipse fill="lightblue" stroke="black" cx="27" cy="-882" rx="27" ry="18"/>
<text xml:space="preserve" text-anchor="middle" x="27" y="-876.95" font-family="Times New Roman,serif" font-size="14.00">j</text>
</g>
<!-- mult -->
<g id="node5" class="node">
<title>mult</title>
<polygon fill="none" stroke="black" points="162,-828 108,-828 108,-792 162,-792 162,-828"/>
<text xml:space="preserve" text-anchor="middle" x="135" y="-804.95" font-family="Times New Roman,serif" font-size="14.00">*</text>
</g>
<!-- j&#45;&gt;mult -->
<g id="edge1" class="edge">
<title>j&#45;&gt;mult</title>
<path fill="none" stroke="black" d="M45.81,-868.81C60.4,-859.35 81.04,-845.97 98.8,-834.46"/>
<polygon fill="black" stroke="black" points="100.55,-837.5 107.04,-829.12 96.75,-831.62 100.55,-837.5"/>
</g>
<!-- f -->
<g id="node2" class="node">
<title>f</title>
<ellipse fill="lightblue" stroke="black" cx="99" cy="-882" rx="27" ry="18"/>
<text xml:space="preserve" text-anchor="middle" x="99" y="-876.95" font-family="Times New Roman,serif" font-size="14.00">f</text>
</g>
<!-- f&#45;&gt;mult -->
<g id="edge2" class="edge">
<title>f&#45;&gt;mult</title>
<path fill="none" stroke="black" d="M107.35,-864.76C111.41,-856.87 116.4,-847.16 121.02,-838.18"/>
<polygon fill="black" stroke="black" points="124.04,-839.96 125.5,-829.47 117.82,-836.76 124.04,-839.96"/>
</g>
<!-- PI -->
<g id="node3" class="node">
<title>PI</title>
<ellipse fill="lightblue" stroke="black" cx="171" cy="-882" rx="27" ry="18"/>
<text xml:space="preserve" text-anchor="middle" x="171" y="-876.95" font-family="Times New Roman,serif" font-size="14.00">PI</text>
</g>
<!-- PI&#45;&gt;mult -->
<g id="edge3" class="edge">
<title>PI&#45;&gt;mult</title>
<path fill="none" stroke="black" d="M162.65,-864.76C158.59,-856.87 153.6,-847.16 148.98,-838.18"/>
<polygon fill="black" stroke="black" points="152.18,-836.76 144.5,-829.47 145.96,-839.96 152.18,-836.76"/>
</g>
<!-- i -->
<g id="node4" class="node">
<title>i</title>
<ellipse fill="lightblue" stroke="black" cx="243" cy="-882" rx="27" ry="18"/>
<text xml:space="preserve" text-anchor="middle" x="243" y="-876.95" font-family="Times New Roman,serif" font-size="14.00">i</text>
</g>
<!-- i&#45;&gt;mult -->
<g id="edge4" class="edge">
<title>i&#45;&gt;mult</title>
<path fill="none" stroke="black" d="M224.19,-868.81C209.6,-859.35 188.96,-845.97 171.2,-834.46"/>
<polygon fill="black" stroke="black" points="173.25,-831.62 162.96,-829.12 169.45,-837.5 173.25,-831.62"/>
</g>
<!-- cos -->
<g id="node6" class="node">
<title>cos</title>
<polygon fill="none" stroke="black" points="164.38,-756 105.62,-756 105.62,-720 164.38,-720 164.38,-756"/>
<text xml:space="preserve" text-anchor="middle" x="135" y="-732.95" font-family="Times New Roman,serif" font-size="14.00">my_cos</text>
</g>
<!-- mult&#45;&gt;cos -->
<g id="edge5" class="edge">
<title>mult&#45;&gt;cos</title>
<path fill="none" stroke="black" d="M135,-791.7C135,-784.41 135,-775.73 135,-767.54"/>
<polygon fill="black" stroke="black" points="138.5,-767.62 135,-757.62 131.5,-767.62 138.5,-767.62"/>
</g>
<!-- assign_test -->
<g id="node7" class="node">
<title>assign_test</title>
<polygon fill="none" stroke="black" points="162,-684 108,-684 108,-648 162,-648 162,-684"/>
<text xml:space="preserve" text-anchor="middle" x="135" y="-660.95" font-family="Times New Roman,serif" font-size="14.00">=</text>
</g>
<!-- cos&#45;&gt;assign_test -->
<g id="edge6" class="edge">
<title>cos&#45;&gt;assign_test</title>
<path fill="none" stroke="black" d="M135,-719.7C135,-712.41 135,-703.73 135,-695.54"/>
<polygon fill="black" stroke="black" points="138.5,-695.62 135,-685.62 131.5,-695.62 138.5,-695.62"/>
</g>
<!-- test_data -->
<g id="node14" class="node">
<title>test_data</title>
<ellipse fill="lightgreen" stroke="black" cx="135" cy="-594" rx="43.67" ry="18"/>
<text xml:space="preserve" text-anchor="middle" x="135" y="-588.95" font-family="Times New Roman,serif" font-size="14.00">test_data</text>
</g>
<!-- assign_test&#45;&gt;test_data -->
<g id="edge7" class="edge">
<title>assign_test&#45;&gt;test_data</title>
<path fill="none" stroke="black" d="M135,-647.7C135,-640.41 135,-631.73 135,-623.54"/>
<polygon fill="black" stroke="black" points="138.5,-623.62 135,-613.62 131.5,-623.62 138.5,-623.62"/>
</g>
<!-- encode -->
<g id="node8" class="node">
<title>encode</title>
<polygon fill="none" stroke="black" points="162.12,-540 107.88,-540 107.88,-504 162.12,-504 162.12,-540"/>
<text xml:space="preserve" text-anchor="middle" x="135" y="-516.95" font-family="Times New Roman,serif" font-size="14.00">encode</text>
</g>
<!-- assign_compressed -->
<g id="node9" class="node">
<title>assign_compressed</title>
<polygon fill="none" stroke="black" points="162,-468 108,-468 108,-432 162,-432 162,-468"/>
<text xml:space="preserve" text-anchor="middle" x="135" y="-444.95" font-family="Times New Roman,serif" font-size="14.00">=</text>
</g>
<!-- encode&#45;&gt;assign_compressed -->
<g id="edge9" class="edge">
<title>encode&#45;&gt;assign_compressed</title>
<path fill="none" stroke="black" d="M135,-503.7C135,-496.41 135,-487.73 135,-479.54"/>
<polygon fill="black" stroke="black" points="138.5,-479.62 135,-469.62 131.5,-479.62 138.5,-479.62"/>
</g>
<!-- compressed -->
<g id="node15" class="node">
<title>compressed</title>
<ellipse fill="lightgreen" stroke="black" cx="135" cy="-378" rx="54.93" ry="18"/>
<text xml:space="preserve" text-anchor="middle" x="135" y="-372.95" font-family="Times New Roman,serif" font-size="14.00">compressed</text>
</g>
<!-- assign_compressed&#45;&gt;compressed -->
<g id="edge10" class="edge">
<title>assign_compressed&#45;&gt;compressed</title>
<path fill="none" stroke="black" d="M135,-431.7C135,-424.41 135,-415.73 135,-407.54"/>
<polygon fill="black" stroke="black" points="138.5,-407.62 135,-397.62 131.5,-407.62 138.5,-407.62"/>
</g>
<!-- decode -->
<g id="node10" class="node">
<title>decode</title>
<polygon fill="none" stroke="black" points="162.12,-324 107.88,-324 107.88,-288 162.12,-288 162.12,-324"/>
<text xml:space="preserve" text-anchor="middle" x="135" y="-300.95" font-family="Times New Roman,serif" font-size="14.00">decode</text>
</g>
<!-- assign_result1 -->
<g id="node11" class="node">
<title>assign_result1</title>
<polygon fill="none" stroke="black" points="126,-252 72,-252 72,-216 126,-216 126,-252"/>
<text xml:space="preserve" text-anchor="middle" x="99" y="-228.95" font-family="Times New Roman,serif" font-size="14.00">=</text>
</g>
<!-- decode&#45;&gt;assign_result1 -->
<g id="edge12" class="edge">
<title>decode&#45;&gt;assign_result1</title>
<path fill="none" stroke="black" d="M126.1,-287.7C122.13,-279.98 117.37,-270.71 112.94,-262.11"/>
<polygon fill="black" stroke="black" points="116.17,-260.74 108.49,-253.45 109.95,-263.94 116.17,-260.74"/>
</g>
<!-- assign_result2 -->
<g id="node12" class="node">
<title>assign_result2</title>
<polygon fill="none" stroke="black" points="198,-252 144,-252 144,-216 198,-216 198,-252"/>
<text xml:space="preserve" text-anchor="middle" x="171" y="-228.95" font-family="Times New Roman,serif" font-size="14.00">=</text>
</g>
<!-- decode&#45;&gt;assign_result2 -->
<g id="edge13" class="edge">
<title>decode&#45;&gt;assign_result2</title>
<path fill="none" stroke="black" d="M143.9,-287.7C147.87,-279.98 152.63,-270.71 157.06,-262.11"/>
<polygon fill="black" stroke="black" points="160.05,-263.94 161.51,-253.45 153.83,-260.74 160.05,-263.94"/>
</g>
<!-- result -->
<g id="node16" class="node">
<title>result</title>
<ellipse fill="lightgreen" stroke="black" cx="135" cy="-162" rx="31.39" ry="18"/>
<text xml:space="preserve" text-anchor="middle" x="135" y="-156.95" font-family="Times New Roman,serif" font-size="14.00">result</text>
</g>
<!-- assign_result1&#45;&gt;result -->
<g id="edge14" class="edge">
<title>assign_result1&#45;&gt;result</title>
<path fill="none" stroke="black" d="M107.9,-215.7C111.93,-207.87 116.78,-198.44 121.25,-189.73"/>
<polygon fill="black" stroke="black" points="124.3,-191.46 125.76,-180.97 118.07,-188.26 124.3,-191.46"/>
</g>
<!-- assign_result2&#45;&gt;result -->
<g id="edge15" class="edge">
<title>assign_result2&#45;&gt;result</title>
<path fill="none" stroke="black" d="M162.1,-215.7C158.07,-207.87 153.22,-198.44 148.75,-189.73"/>
<polygon fill="black" stroke="black" points="151.93,-188.26 144.24,-180.97 145.7,-191.46 151.93,-188.26"/>
</g>
<!-- add -->
<g id="node13" class="node">
<title>add</title>
<polygon fill="none" stroke="black" points="162,-108 108,-108 108,-72 162,-72 162,-108"/>
<text xml:space="preserve" text-anchor="middle" x="135" y="-84.95" font-family="Times New Roman,serif" font-size="14.00">+</text>
</g>
<!-- return_val -->
<g id="node17" class="node">
<title>return_val</title>
<ellipse fill="lightgreen" stroke="black" cx="135" cy="-18" rx="32.93" ry="18"/>
<text xml:space="preserve" text-anchor="middle" x="135" y="-12.95" font-family="Times New Roman,serif" font-size="14.00">return</text>
</g>
<!-- add&#45;&gt;return_val -->
<g id="edge17" class="edge">
<title>add&#45;&gt;return_val</title>
<path fill="none" stroke="black" d="M135,-71.7C135,-64.41 135,-55.73 135,-47.54"/>
<polygon fill="black" stroke="black" points="138.5,-47.62 135,-37.62 131.5,-47.62 138.5,-47.62"/>
</g>
<!-- test_data&#45;&gt;encode -->
<g id="edge8" class="edge">
<title>test_data&#45;&gt;encode</title>
<path fill="none" stroke="black" d="M135,-575.7C135,-568.41 135,-559.73 135,-551.54"/>
<polygon fill="black" stroke="black" points="138.5,-551.62 135,-541.62 131.5,-551.62 138.5,-551.62"/>
</g>
<!-- compressed&#45;&gt;decode -->
<g id="edge11" class="edge">
<title>compressed&#45;&gt;decode</title>
<path fill="none" stroke="black" d="M135,-359.7C135,-352.41 135,-343.73 135,-335.54"/>
<polygon fill="black" stroke="black" points="138.5,-335.62 135,-325.62 131.5,-335.62 138.5,-335.62"/>
</g>
<!-- result&#45;&gt;add -->
<g id="edge16" class="edge">
<title>result&#45;&gt;add</title>
<path fill="none" stroke="black" d="M135,-143.7C135,-136.41 135,-127.73 135,-119.54"/>
<polygon fill="black" stroke="black" points="138.5,-119.62 135,-109.62 131.5,-119.62 138.5,-119.62"/>
</g>
</g>
</svg>
