<?xml version="1.0" encoding="UTF-8" standalone="no"?>
<!DOCTYPE svg PUBLIC "-//W3C//DTD SVG 1.1//EN"
 "http://www.w3.org/Graphics/SVG/1.1/DTD/svg11.dtd">
<!-- Generated by graphviz version 13.1.2 (20250808.2320)
 -->
<!-- Title: overall_DFG Pages: 1 -->
<svg width="574pt" height="692pt"
 viewBox="0.00 0.00 574.00 692.00" xmlns="http://www.w3.org/2000/svg" xmlns:xlink="http://www.w3.org/1999/xlink">
<g id="graph0" class="graph" transform="scale(1 1) rotate(0) translate(4 688)">
<title>overall_DFG</title>
<polygon fill="white" stroke="none" points="-4,4 -4,-688 569.62,-688 569.62,4 -4,4"/>
<!-- thirty -->
<g id="node1" class="node">
<title>thirty</title>
<ellipse fill="lightblue" stroke="black" cx="354.62" cy="-666" rx="27" ry="18"/>
<text xml:space="preserve" text-anchor="middle" x="354.62" y="-660.95" font-family="Times New Roman,serif" font-size="14.00">30</text>
</g>
<!-- op_main_assign -->
<g id="node3" class="node">
<title>op_main_assign</title>
<polygon fill="none" stroke="black" points="381.62,-612 327.62,-612 327.62,-576 381.62,-576 381.62,-612"/>
<text xml:space="preserve" text-anchor="middle" x="354.62" y="-588.95" font-family="Times New Roman,serif" font-size="14.00">a = 30</text>
</g>
<!-- thirty&#45;&gt;op_main_assign -->
<g id="edge1" class="edge">
<title>thirty&#45;&gt;op_main_assign</title>
<path fill="none" stroke="black" d="M354.62,-647.7C354.62,-640.41 354.62,-631.73 354.62,-623.54"/>
<polygon fill="black" stroke="black" points="358.13,-623.62 354.63,-613.62 351.13,-623.62 358.13,-623.62"/>
</g>
<!-- n_input -->
<g id="node2" class="node">
<title>n_input</title>
<ellipse fill="lightblue" stroke="black" cx="317.62" cy="-378" rx="43.16" ry="18"/>
<text xml:space="preserve" text-anchor="middle" x="317.62" y="-372.95" font-family="Times New Roman,serif" font-size="14.00">n (input)</text>
</g>
<!-- op_fib_loop -->
<g id="node8" class="node">
<title>op_fib_loop</title>
<polygon fill="none" stroke="black" points="494,-324 141.25,-324 141.25,-288 494,-288 494,-324"/>
<text xml:space="preserve" text-anchor="middle" x="317.62" y="-300.95" font-family="Times New Roman,serif" font-size="14.00">Loop: temp = Fnew; Fnew = Fnew + Fold; Fold = temp; i++</text>
</g>
<!-- n_input&#45;&gt;op_fib_loop -->
<g id="edge5" class="edge">
<title>n_input&#45;&gt;op_fib_loop</title>
<path fill="none" stroke="black" d="M317.62,-359.7C317.62,-352.41 317.62,-343.73 317.62,-335.54"/>
<polygon fill="black" stroke="black" points="321.13,-335.62 317.63,-325.62 314.13,-335.62 321.13,-335.62"/>
</g>
<!-- a_var -->
<g id="node11" class="node">
<title>a_var</title>
<ellipse fill="lightgreen" stroke="black" cx="354.62" cy="-522" rx="27" ry="18"/>
<text xml:space="preserve" text-anchor="middle" x="354.62" y="-516.95" font-family="Times New Roman,serif" font-size="14.00">a</text>
</g>
<!-- op_main_assign&#45;&gt;a_var -->
<g id="edge2" class="edge">
<title>op_main_assign&#45;&gt;a_var</title>
<path fill="none" stroke="black" d="M354.62,-575.7C354.62,-568.41 354.62,-559.73 354.62,-551.54"/>
<polygon fill="black" stroke="black" points="358.13,-551.62 354.63,-541.62 351.13,-551.62 358.13,-551.62"/>
</g>
<!-- op_fib_call -->
<g id="node4" class="node">
<title>op_fib_call</title>
<polygon fill="none" stroke="black" points="344.62,-468 290.62,-468 290.62,-432 344.62,-432 344.62,-468"/>
<text xml:space="preserve" text-anchor="middle" x="317.62" y="-444.95" font-family="Times New Roman,serif" font-size="14.00">fib(a)</text>
</g>
<!-- op_fib_call&#45;&gt;n_input -->
<g id="edge4" class="edge">
<title>op_fib_call&#45;&gt;n_input</title>
<path fill="none" stroke="black" d="M317.62,-431.7C317.62,-424.41 317.62,-415.73 317.62,-407.54"/>
<polygon fill="black" stroke="black" points="321.13,-407.62 317.63,-397.62 314.13,-407.62 321.13,-407.62"/>
</g>
<!-- op_main_return -->
<g id="node5" class="node">
<title>op_main_return</title>
<polygon fill="none" stroke="black" points="420.62,-468 362.62,-468 362.62,-432 420.62,-432 420.62,-468"/>
<text xml:space="preserve" text-anchor="middle" x="391.62" y="-444.95" font-family="Times New Roman,serif" font-size="14.00">return a</text>
</g>
<!-- op_fib_init -->
<g id="node6" class="node">
<title>op_fib_init</title>
<polygon fill="none" stroke="black" points="123.25,-324 0,-324 0,-288 123.25,-288 123.25,-324"/>
<text xml:space="preserve" text-anchor="middle" x="61.62" y="-300.95" font-family="Times New Roman,serif" font-size="14.00">Fnew = 1; Fold = 0</text>
</g>
<!-- Fnew_var -->
<g id="node12" class="node">
<title>Fnew_var</title>
<ellipse fill="lightgreen" stroke="black" cx="317.62" cy="-234" rx="31.39" ry="18"/>
<text xml:space="preserve" text-anchor="middle" x="317.62" y="-228.95" font-family="Times New Roman,serif" font-size="14.00">Fnew</text>
</g>
<!-- op_fib_init&#45;&gt;Fnew_var -->
<g id="edge6" class="edge">
<title>op_fib_init&#45;&gt;Fnew_var</title>
<path fill="none" stroke="black" d="M123.48,-290.08C184.63,-275.29 270.16,-254.48 277.62,-252 279.45,-251.39 281.3,-250.74 283.16,-250.06"/>
<polygon fill="black" stroke="black" points="284.32,-253.36 292.34,-246.44 281.76,-246.85 284.32,-253.36"/>
</g>
<!-- Fold_var -->
<g id="node13" class="node">
<title>Fold_var</title>
<ellipse fill="lightgreen" stroke="black" cx="240.62" cy="-234" rx="27.81" ry="18"/>
<text xml:space="preserve" text-anchor="middle" x="240.62" y="-228.95" font-family="Times New Roman,serif" font-size="14.00">Fold</text>
</g>
<!-- op_fib_init&#45;&gt;Fold_var -->
<g id="edge7" class="edge">
<title>op_fib_init&#45;&gt;Fold_var</title>
<path fill="none" stroke="black" d="M106.33,-287.52C137.41,-275.36 178.21,-259.41 206.64,-248.29"/>
<polygon fill="black" stroke="black" points="207.81,-251.59 215.85,-244.69 205.26,-245.07 207.81,-251.59"/>
</g>
<!-- op_fib_i_init -->
<g id="node7" class="node">
<title>op_fib_i_init</title>
<polygon fill="none" stroke="black" points="565.62,-324 511.62,-324 511.62,-288 565.62,-288 565.62,-324"/>
<text xml:space="preserve" text-anchor="middle" x="538.62" y="-300.95" font-family="Times New Roman,serif" font-size="14.00">i = 2</text>
</g>
<!-- i_var -->
<g id="node14" class="node">
<title>i_var</title>
<ellipse fill="lightgreen" stroke="black" cx="393.62" cy="-234" rx="27" ry="18"/>
<text xml:space="preserve" text-anchor="middle" x="393.62" y="-228.95" font-family="Times New Roman,serif" font-size="14.00">i</text>
</g>
<!-- op_fib_i_init&#45;&gt;i_var -->
<g id="edge8" class="edge">
<title>op_fib_i_init&#45;&gt;i_var</title>
<path fill="none" stroke="black" d="M511.35,-291.83C486.95,-280.05 451.15,-262.77 425.45,-250.36"/>
<polygon fill="black" stroke="black" points="427,-247.23 416.48,-246.03 423.96,-253.53 427,-247.23"/>
</g>
<!-- op_fib_loop&#45;&gt;Fnew_var -->
<g id="edge12" class="edge">
<title>op_fib_loop&#45;&gt;Fnew_var</title>
<path fill="none" stroke="black" d="M311.71,-287.7C310.96,-280.41 310.71,-271.73 310.98,-263.54"/>
<polygon fill="black" stroke="black" points="314.47,-263.82 311.63,-253.61 307.48,-263.36 314.47,-263.82"/>
</g>
<!-- op_fib_loop&#45;&gt;Fold_var -->
<g id="edge13" class="edge">
<title>op_fib_loop&#45;&gt;Fold_var</title>
<path fill="none" stroke="black" d="M292.68,-287.7C282.13,-278.93 270.1,-268.15 260.2,-258.63"/>
<polygon fill="black" stroke="black" points="262.78,-256.27 253.2,-251.73 257.87,-261.25 262.78,-256.27"/>
</g>
<!-- op_fib_loop&#45;&gt;i_var -->
<g id="edge14" class="edge">
<title>op_fib_loop&#45;&gt;i_var</title>
<path fill="none" stroke="black" d="M330.5,-287.7C340.42,-277.6 354.21,-264.83 366.46,-254.39"/>
<polygon fill="black" stroke="black" points="368.4,-257.33 373.86,-248.24 363.93,-251.94 368.4,-257.33"/>
</g>
<!-- op_fib_ans -->
<g id="node9" class="node">
<title>op_fib_ans</title>
<polygon fill="none" stroke="black" points="357.5,-180 277.75,-180 277.75,-144 357.5,-144 357.5,-180"/>
<text xml:space="preserve" text-anchor="middle" x="317.62" y="-156.95" font-family="Times New Roman,serif" font-size="14.00">ans = Fnew</text>
</g>
<!-- ans_var -->
<g id="node15" class="node">
<title>ans_var</title>
<ellipse fill="lightgreen" stroke="black" cx="317.62" cy="-90" rx="27" ry="18"/>
<text xml:space="preserve" text-anchor="middle" x="317.62" y="-84.95" font-family="Times New Roman,serif" font-size="14.00">ans</text>
</g>
<!-- op_fib_ans&#45;&gt;ans_var -->
<g id="edge16" class="edge">
<title>op_fib_ans&#45;&gt;ans_var</title>
<path fill="none" stroke="black" d="M317.62,-143.7C317.62,-136.41 317.62,-127.73 317.62,-119.54"/>
<polygon fill="black" stroke="black" points="321.13,-119.62 317.63,-109.62 314.13,-119.62 321.13,-119.62"/>
</g>
<!-- op_fib_return -->
<g id="node10" class="node">
<title>op_fib_return</title>
<polygon fill="none" stroke="black" points="352.62,-36 282.62,-36 282.62,0 352.62,0 352.62,-36"/>
<text xml:space="preserve" text-anchor="middle" x="317.62" y="-12.95" font-family="Times New Roman,serif" font-size="14.00">return ans</text>
</g>
<!-- a_var&#45;&gt;op_fib_call -->
<g id="edge3" class="edge">
<title>a_var&#45;&gt;op_fib_call</title>
<path fill="none" stroke="black" d="M346.04,-504.76C341.87,-496.87 336.74,-487.16 331.99,-478.18"/>
<polygon fill="black" stroke="black" points="335.15,-476.67 327.38,-469.46 328.96,-479.94 335.15,-476.67"/>
</g>
<!-- a_var&#45;&gt;op_main_return -->
<g id="edge18" class="edge">
<title>a_var&#45;&gt;op_main_return</title>
<path fill="none" stroke="black" d="M363.21,-504.76C367.38,-496.87 372.51,-487.16 377.26,-478.18"/>
<polygon fill="black" stroke="black" points="380.29,-479.94 381.87,-469.46 374.1,-476.67 380.29,-479.94"/>
</g>
<!-- Fnew_var&#45;&gt;op_fib_loop -->
<g id="edge10" class="edge">
<title>Fnew_var&#45;&gt;op_fib_loop</title>
<path fill="none" stroke="black" d="M323.52,-252.1C324.28,-259.37 324.53,-268.04 324.28,-276.24"/>
<polygon fill="black" stroke="black" points="320.79,-275.98 323.64,-286.19 327.77,-276.43 320.79,-275.98"/>
</g>
<!-- Fnew_var&#45;&gt;op_fib_ans -->
<g id="edge15" class="edge">
<title>Fnew_var&#45;&gt;op_fib_ans</title>
<path fill="none" stroke="black" d="M317.62,-215.7C317.62,-208.41 317.62,-199.73 317.62,-191.54"/>
<polygon fill="black" stroke="black" points="321.13,-191.62 317.63,-181.62 314.13,-191.62 321.13,-191.62"/>
</g>
<!-- Fold_var&#45;&gt;op_fib_loop -->
<g id="edge11" class="edge">
<title>Fold_var&#45;&gt;op_fib_loop</title>
<path fill="none" stroke="black" d="M259.68,-247.49C270.84,-256.42 284.79,-268.73 296.28,-279.67"/>
<polygon fill="black" stroke="black" points="293.82,-282.16 303.42,-286.64 298.71,-277.15 293.82,-282.16"/>
</g>
<!-- i_var&#45;&gt;op_fib_loop -->
<g id="edge9" class="edge">
<title>i_var&#45;&gt;op_fib_loop</title>
<path fill="none" stroke="black" d="M382.35,-250.67C373.86,-259.43 362.05,-270.54 350.78,-280.43"/>
<polygon fill="black" stroke="black" points="348.77,-277.54 343.47,-286.71 353.34,-282.84 348.77,-277.54"/>
</g>
<!-- ans_var&#45;&gt;op_fib_return -->
<g id="edge17" class="edge">
<title>ans_var&#45;&gt;op_fib_return</title>
<path fill="none" stroke="black" d="M317.62,-71.7C317.62,-64.41 317.62,-55.73 317.62,-47.54"/>
<polygon fill="black" stroke="black" points="321.13,-47.62 317.63,-37.62 314.13,-47.62 321.13,-47.62"/>
</g>
</g>
</svg>
