<?xml version="1.0" encoding="UTF-8" standalone="no"?>
<!DOCTYPE svg PUBLIC "-//W3C//DTD SVG 1.1//EN"
 "http://www.w3.org/Graphics/SVG/1.1/DTD/svg11.dtd">
<!-- Generated by graphviz version 13.1.2 (20250808.2320)
 -->
<!-- Title: overall_CFG Pages: 1 -->
<svg width="541pt" height="950pt"
 viewBox="0.00 0.00 541.00 950.00" xmlns="http://www.w3.org/2000/svg" xmlns:xlink="http://www.w3.org/1999/xlink">
<g id="graph0" class="graph" transform="scale(1 1) rotate(0) translate(4 945.79)">
<title>overall_CFG</title>
<polygon fill="white" stroke="none" points="-4,4 -4,-945.79 536.96,-945.79 536.96,4 -4,4"/>
<!-- M1 -->
<g id="node1" class="node">
<title>M1</title>
<path fill="none" stroke="black" d="M243.25,-941.79C243.25,-941.79 184.5,-941.79 184.5,-941.79 178.5,-941.79 172.5,-935.79 172.5,-929.79 172.5,-929.79 172.5,-917.79 172.5,-917.79 172.5,-911.79 178.5,-905.79 184.5,-905.79 184.5,-905.79 243.25,-905.79 243.25,-905.79 249.25,-905.79 255.25,-911.79 255.25,-917.79 255.25,-917.79 255.25,-929.79 255.25,-929.79 255.25,-935.79 249.25,-941.79 243.25,-941.79"/>
<text xml:space="preserve" text-anchor="middle" x="213.88" y="-918.37" font-family="Helvetica,sans-Serif" font-size="14.00">main: int a;</text>
</g>
<!-- M2 -->
<g id="node2" class="node">
<title>M2</title>
<path fill="none" stroke="black" d="M249.62,-868.79C249.62,-868.79 178.12,-868.79 178.12,-868.79 172.12,-868.79 166.12,-862.79 166.12,-856.79 166.12,-856.79 166.12,-844.79 166.12,-844.79 166.12,-838.79 172.12,-832.79 178.12,-832.79 178.12,-832.79 249.62,-832.79 249.62,-832.79 255.62,-832.79 261.62,-838.79 261.62,-844.79 261.62,-844.79 261.62,-856.79 261.62,-856.79 261.62,-862.79 255.62,-868.79 249.62,-868.79"/>
<text xml:space="preserve" text-anchor="middle" x="213.88" y="-845.37" font-family="Helvetica,sans-Serif" font-size="14.00">main: a = 30;</text>
</g>
<!-- M1&#45;&gt;M2 -->
<g id="edge1" class="edge">
<title>M1&#45;&gt;M2</title>
<path fill="none" stroke="black" d="M213.88,-905.61C213.88,-898.02 213.88,-888.9 213.88,-880.33"/>
<polygon fill="black" stroke="black" points="217.38,-880.34 213.88,-870.34 210.38,-880.34 217.38,-880.34"/>
</g>
<!-- M3 -->
<g id="node3" class="node">
<title>M3</title>
<path fill="none" stroke="black" d="M245.88,-795.79C245.88,-795.79 181.88,-795.79 181.88,-795.79 175.88,-795.79 169.88,-789.79 169.88,-783.79 169.88,-783.79 169.88,-771.79 169.88,-771.79 169.88,-765.79 175.88,-759.79 181.88,-759.79 181.88,-759.79 245.88,-759.79 245.88,-759.79 251.88,-759.79 257.88,-765.79 257.88,-771.79 257.88,-771.79 257.88,-783.79 257.88,-783.79 257.88,-789.79 251.88,-795.79 245.88,-795.79"/>
<text xml:space="preserve" text-anchor="middle" x="213.88" y="-772.37" font-family="Helvetica,sans-Serif" font-size="14.00">main: fib(a);</text>
</g>
<!-- M2&#45;&gt;M3 -->
<g id="edge2" class="edge">
<title>M2&#45;&gt;M3</title>
<path fill="none" stroke="black" d="M213.88,-832.61C213.88,-825.02 213.88,-815.9 213.88,-807.33"/>
<polygon fill="black" stroke="black" points="217.38,-807.34 213.88,-797.34 210.38,-807.34 217.38,-807.34"/>
</g>
<!-- N1 -->
<g id="node6" class="node">
<title>N1</title>
<path fill="none" stroke="black" d="M303.62,-707.29C303.62,-707.29 124.12,-707.29 124.12,-707.29 118.12,-707.29 112.13,-701.29 112.13,-695.29 112.13,-695.29 112.13,-683.29 112.13,-683.29 112.13,-677.29 118.13,-671.29 124.13,-671.29 124.13,-671.29 303.62,-671.29 303.62,-671.29 309.62,-671.29 315.62,-677.29 315.62,-683.29 315.62,-683.29 315.62,-695.29 315.62,-695.29 315.62,-701.29 309.62,-707.29 303.62,-707.29"/>
<text xml:space="preserve" text-anchor="middle" x="213.88" y="-683.87" font-family="Helvetica,sans-Serif" font-size="14.00">fib: int i, Fnew, Fold, temp, ans;</text>
</g>
<!-- M3&#45;&gt;N1 -->
<g id="edge3" class="edge">
<title>M3&#45;&gt;N1</title>
<path fill="none" stroke="black" d="M213.88,-759.7C213.88,-748.05 213.88,-732.34 213.88,-718.81"/>
<polygon fill="black" stroke="black" points="217.38,-719.16 213.88,-709.16 210.38,-719.16 217.38,-719.16"/>
<text xml:space="preserve" text-anchor="middle" x="241.25" y="-728.49" font-family="Times New Roman,serif" font-size="14.00">chama fib</text>
</g>
<!-- M4 -->
<g id="node4" class="node">
<title>M4</title>
<path fill="none" stroke="black" d="M412.75,-211.21C412.75,-211.21 333,-211.21 333,-211.21 327,-211.21 321,-205.21 321,-199.21 321,-199.21 321,-187.21 321,-187.21 321,-181.21 327,-175.21 333,-175.21 333,-175.21 412.75,-175.21 412.75,-175.21 418.75,-175.21 424.75,-181.21 424.75,-187.21 424.75,-187.21 424.75,-199.21 424.75,-199.21 424.75,-205.21 418.75,-211.21 412.75,-211.21"/>
<text xml:space="preserve" text-anchor="middle" x="372.88" y="-187.78" font-family="Helvetica,sans-Serif" font-size="14.00">main: return a;</text>
</g>
<!-- M5 -->
<g id="node5" class="node">
<title>M5</title>
<ellipse fill="none" stroke="black" cx="372.88" cy="-55.56" rx="51.56" ry="51.56"/>
<ellipse fill="none" stroke="black" cx="372.88" cy="-55.56" rx="55.56" ry="55.56"/>
<text xml:space="preserve" text-anchor="middle" x="372.88" y="-50.14" font-family="Helvetica,sans-Serif" font-size="14.00">main: End</text>
</g>
<!-- M4&#45;&gt;M5 -->
<g id="edge5" class="edge">
<title>M4&#45;&gt;M5</title>
<path fill="none" stroke="black" d="M372.88,-174.75C372.88,-161.36 372.88,-141.95 372.88,-122.72"/>
<polygon fill="black" stroke="black" points="376.38,-122.98 372.88,-112.98 369.38,-122.98 376.38,-122.98"/>
</g>
<!-- N2 -->
<g id="node7" class="node">
<title>N2</title>
<path fill="none" stroke="black" d="M279.25,-634.29C279.25,-634.29 148.5,-634.29 148.5,-634.29 142.5,-634.29 136.5,-628.29 136.5,-622.29 136.5,-622.29 136.5,-610.29 136.5,-610.29 136.5,-604.29 142.5,-598.29 148.5,-598.29 148.5,-598.29 279.25,-598.29 279.25,-598.29 285.25,-598.29 291.25,-604.29 291.25,-610.29 291.25,-610.29 291.25,-622.29 291.25,-622.29 291.25,-628.29 285.25,-634.29 279.25,-634.29"/>
<text xml:space="preserve" text-anchor="middle" x="213.88" y="-610.87" font-family="Helvetica,sans-Serif" font-size="14.00">fib: Fnew = 1; Fold = 0;</text>
</g>
<!-- N1&#45;&gt;N2 -->
<g id="edge6" class="edge">
<title>N1&#45;&gt;N2</title>
<path fill="none" stroke="black" d="M213.88,-671.11C213.88,-663.52 213.88,-654.4 213.88,-645.83"/>
<polygon fill="black" stroke="black" points="217.38,-645.84 213.88,-635.84 210.38,-645.84 217.38,-645.84"/>
</g>
<!-- N3 -->
<g id="node8" class="node">
<title>N3</title>
<path fill="none" stroke="black" d="M235.75,-561.29C235.75,-561.29 192,-561.29 192,-561.29 186,-561.29 180,-555.29 180,-549.29 180,-549.29 180,-537.29 180,-537.29 180,-531.29 186,-525.29 192,-525.29 192,-525.29 235.75,-525.29 235.75,-525.29 241.75,-525.29 247.75,-531.29 247.75,-537.29 247.75,-537.29 247.75,-549.29 247.75,-549.29 247.75,-555.29 241.75,-561.29 235.75,-561.29"/>
<text xml:space="preserve" text-anchor="middle" x="213.88" y="-537.87" font-family="Helvetica,sans-Serif" font-size="14.00">fib: i = 2;</text>
</g>
<!-- N2&#45;&gt;N3 -->
<g id="edge7" class="edge">
<title>N2&#45;&gt;N3</title>
<path fill="none" stroke="black" d="M213.88,-598.11C213.88,-590.52 213.88,-581.4 213.88,-572.83"/>
<polygon fill="black" stroke="black" points="217.38,-572.84 213.88,-562.84 210.38,-572.84 217.38,-572.84"/>
</g>
<!-- N4 -->
<g id="node9" class="node">
<title>N4</title>
<path fill="none" stroke="black" d="M275.88,-488.29C275.88,-488.29 151.88,-488.29 151.88,-488.29 145.88,-488.29 139.88,-482.29 139.88,-476.29 139.88,-476.29 139.88,-464.29 139.88,-464.29 139.88,-458.29 145.88,-452.29 151.88,-452.29 151.88,-452.29 275.88,-452.29 275.88,-452.29 281.88,-452.29 287.88,-458.29 287.88,-464.29 287.88,-464.29 287.88,-476.29 287.88,-476.29 287.88,-482.29 281.88,-488.29 275.88,-488.29"/>
<text xml:space="preserve" text-anchor="middle" x="213.88" y="-464.87" font-family="Helvetica,sans-Serif" font-size="14.00">fib: for: i&lt;=30 &amp;&amp; i&lt;=n</text>
</g>
<!-- N3&#45;&gt;N4 -->
<g id="edge8" class="edge">
<title>N3&#45;&gt;N4</title>
<path fill="none" stroke="black" d="M213.88,-525.11C213.88,-517.52 213.88,-508.4 213.88,-499.83"/>
<polygon fill="black" stroke="black" points="217.38,-499.84 213.88,-489.84 210.38,-499.84 217.38,-499.84"/>
</g>
<!-- N5 -->
<g id="node10" class="node">
<title>N5</title>
<path fill="none" stroke="black" d="M343.75,-399.79C343.75,-399.79 12,-399.79 12,-399.79 6,-399.79 0,-393.79 0,-387.79 0,-387.79 0,-375.79 0,-375.79 0,-369.79 6,-363.79 12,-363.79 12,-363.79 343.75,-363.79 343.75,-363.79 349.75,-363.79 355.75,-369.79 355.75,-375.79 355.75,-375.79 355.75,-387.79 355.75,-387.79 355.75,-393.79 349.75,-399.79 343.75,-399.79"/>
<text xml:space="preserve" text-anchor="middle" x="177.88" y="-376.37" font-family="Helvetica,sans-Serif" font-size="14.00">fib: temp = Fnew; Fnew = Fnew + Fold; Fold = temp; i++</text>
</g>
<!-- N4&#45;&gt;N5 -->
<g id="edge9" class="edge">
<title>N4&#45;&gt;N5</title>
<path fill="none" stroke="black" d="M191.54,-452.12C186.44,-446.99 181.7,-440.94 178.88,-434.29 175.89,-427.27 174.78,-419.21 174.63,-411.59"/>
<polygon fill="black" stroke="black" points="178.13,-411.8 175,-401.68 171.13,-411.54 178.13,-411.8"/>
<text xml:space="preserve" text-anchor="middle" x="189.38" y="-420.99" font-family="Times New Roman,serif" font-size="14.00">true</text>
</g>
<!-- N6 -->
<g id="node11" class="node">
<title>N6</title>
<path fill="none" stroke="black" d="M473.88,-399.79C473.88,-399.79 385.88,-399.79 385.88,-399.79 379.88,-399.79 373.88,-393.79 373.88,-387.79 373.88,-387.79 373.88,-375.79 373.88,-375.79 373.88,-369.79 379.88,-363.79 385.88,-363.79 385.88,-363.79 473.88,-363.79 473.88,-363.79 479.88,-363.79 485.88,-369.79 485.88,-375.79 485.88,-375.79 485.88,-387.79 485.88,-387.79 485.88,-393.79 479.88,-399.79 473.88,-399.79"/>
<text xml:space="preserve" text-anchor="middle" x="429.88" y="-376.37" font-family="Helvetica,sans-Serif" font-size="14.00">fib: ans = Fnew;</text>
</g>
<!-- N4&#45;&gt;N6 -->
<g id="edge10" class="edge">
<title>N4&#45;&gt;N6</title>
<path fill="none" stroke="black" d="M257.33,-451.89C291.52,-438.2 339.36,-419.04 376,-404.37"/>
<polygon fill="black" stroke="black" points="377.11,-407.7 385.09,-400.73 374.5,-401.2 377.11,-407.7"/>
<text xml:space="preserve" text-anchor="middle" x="353.97" y="-420.99" font-family="Times New Roman,serif" font-size="14.00">false</text>
</g>
<!-- N5&#45;&gt;N4 -->
<g id="edge11" class="edge">
<title>N5&#45;&gt;N4</title>
<path fill="none" stroke="black" d="M190.13,-400.04C193.64,-405.53 197.22,-411.75 199.88,-417.79 203.09,-425.12 205.73,-433.36 207.81,-441.07"/>
<polygon fill="black" stroke="black" points="204.39,-441.83 210.19,-450.69 211.19,-440.15 204.39,-441.83"/>
</g>
<!-- N7 -->
<g id="node12" class="node">
<title>N7</title>
<path fill="none" stroke="black" d="M469,-326.79C469,-326.79 390.75,-326.79 390.75,-326.79 384.75,-326.79 378.75,-320.79 378.75,-314.79 378.75,-314.79 378.75,-302.79 378.75,-302.79 378.75,-296.79 384.75,-290.79 390.75,-290.79 390.75,-290.79 469,-290.79 469,-290.79 475,-290.79 481,-296.79 481,-302.79 481,-302.79 481,-314.79 481,-314.79 481,-320.79 475,-326.79 469,-326.79"/>
<text xml:space="preserve" text-anchor="middle" x="429.88" y="-303.37" font-family="Helvetica,sans-Serif" font-size="14.00">fib: return ans;</text>
</g>
<!-- N6&#45;&gt;N7 -->
<g id="edge12" class="edge">
<title>N6&#45;&gt;N7</title>
<path fill="none" stroke="black" d="M429.88,-363.61C429.88,-356.02 429.88,-346.9 429.88,-338.33"/>
<polygon fill="black" stroke="black" points="433.38,-338.34 429.88,-328.34 426.38,-338.34 433.38,-338.34"/>
</g>
<!-- N7&#45;&gt;M4 -->
<g id="edge4" class="edge">
<title>N7&#45;&gt;M4</title>
<path fill="none" stroke="black" d="M413.22,-290.57C408.62,-285.18 403.92,-279.01 400.38,-272.79 391.41,-257.09 384.64,-237.96 380.06,-222.51"/>
<polygon fill="black" stroke="black" points="383.46,-221.68 377.39,-212.99 376.72,-223.56 383.46,-221.68"/>
<text xml:space="preserve" text-anchor="middle" x="437.12" y="-259.49" font-family="Times New Roman,serif" font-size="14.00">retorna de fib</text>
</g>
<!-- N8 -->
<g id="node13" class="node">
<title>N8</title>
<ellipse fill="none" stroke="black" cx="487.88" cy="-193.21" rx="41.08" ry="41.08"/>
<ellipse fill="none" stroke="black" cx="487.88" cy="-193.21" rx="45.08" ry="45.08"/>
<text xml:space="preserve" text-anchor="middle" x="487.88" y="-187.78" font-family="Helvetica,sans-Serif" font-size="14.00">fib: End</text>
</g>
<!-- N7&#45;&gt;N8 -->
<g id="edge13" class="edge">
<title>N7&#45;&gt;N8</title>
<path fill="none" stroke="black" d="M458,-290.42C464.08,-285.43 469.88,-279.5 473.88,-272.79 478.07,-265.76 481.07,-257.78 483.21,-249.67"/>
<polygon fill="black" stroke="black" points="486.59,-250.6 485.3,-240.08 479.75,-249.11 486.59,-250.6"/>
</g>
</g>
</svg>
