<?xml version="1.0" encoding="UTF-8" standalone="no"?>
<!DOCTYPE svg PUBLIC "-//W3C//DTD SVG 1.1//EN"
 "http://www.w3.org/Graphics/SVG/1.1/DTD/svg11.dtd">
<!-- Generated by graphviz version 13.1.2 (20250808.2320)
 -->
<!-- Title: Sum_DFG Pages: 1 -->
<svg width="551pt" height="279pt"
 viewBox="0.00 0.00 551.00 279.00" xmlns="http://www.w3.org/2000/svg" xmlns:xlink="http://www.w3.org/1999/xlink">
<g id="graph0" class="graph" transform="scale(1 1) rotate(0) translate(4 274.5)">
<title>Sum_DFG</title>
<polygon fill="white" stroke="none" points="-4,4 -4,-274.5 546.71,-274.5 546.71,4 -4,4"/>
<!-- Array -->
<g id="node1" class="node">
<title>Array</title>
<ellipse fill="lightblue" stroke="black" cx="199.24" cy="-252.5" rx="85.13" ry="18"/>
<text xml:space="preserve" text-anchor="middle" x="199.24" y="-247.45" font-family="Times New Roman,serif" font-size="14.00">Array[Outer][Inner]</text>
</g>
<!-- CheckNeg -->
<g id="node6" class="node">
<title>CheckNeg</title>
<polygon fill="none" stroke="black" points="226.24,-197.5 172.24,-197.5 172.24,-161.5 226.24,-161.5 226.24,-197.5"/>
<text xml:space="preserve" text-anchor="middle" x="199.24" y="-174.45" font-family="Times New Roman,serif" font-size="14.00">&lt; 0?</text>
</g>
<!-- Array&#45;&gt;CheckNeg -->
<g id="edge1" class="edge">
<title>Array&#45;&gt;CheckNeg</title>
<path fill="none" stroke="black" d="M199.24,-234.31C199.24,-226.73 199.24,-217.6 199.24,-209.04"/>
<polygon fill="black" stroke="black" points="202.74,-209.04 199.24,-199.04 195.74,-209.04 202.74,-209.04"/>
</g>
<!-- Ptotal_in -->
<g id="node2" class="node">
<title>Ptotal_in</title>
<ellipse fill="lightblue" stroke="black" cx="68.24" cy="-179.5" rx="68.24" ry="18"/>
<text xml:space="preserve" text-anchor="middle" x="68.24" y="-174.45" font-family="Times New Roman,serif" font-size="14.00">Ptotal (entrada)</text>
</g>
<!-- AddPtotal -->
<g id="node7" class="node">
<title>AddPtotal</title>
<polygon fill="none" stroke="black" points="117.87,-109 18.62,-109 18.62,-73 117.87,-73 117.87,-109"/>
<text xml:space="preserve" text-anchor="middle" x="68.24" y="-85.95" font-family="Times New Roman,serif" font-size="14.00">Ptotal += valor</text>
</g>
<!-- Ptotal_in&#45;&gt;AddPtotal -->
<g id="edge4" class="edge">
<title>Ptotal_in&#45;&gt;AddPtotal</title>
<path fill="none" stroke="black" d="M68.24,-161.41C68.24,-149.76 68.24,-134.05 68.24,-120.52"/>
<polygon fill="black" stroke="black" points="71.74,-120.86 68.24,-110.86 64.74,-120.86 71.74,-120.86"/>
</g>
<!-- Ntotal_in -->
<g id="node3" class="node">
<title>Ntotal_in</title>
<ellipse fill="lightblue" stroke="black" cx="331.24" cy="-179.5" rx="69.78" ry="18"/>
<text xml:space="preserve" text-anchor="middle" x="331.24" y="-174.45" font-family="Times New Roman,serif" font-size="14.00">Ntotal (entrada)</text>
</g>
<!-- AddNtotal -->
<g id="node8" class="node">
<title>AddNtotal</title>
<polygon fill="none" stroke="black" points="381.99,-109 280.49,-109 280.49,-73 381.99,-73 381.99,-109"/>
<text xml:space="preserve" text-anchor="middle" x="331.24" y="-85.95" font-family="Times New Roman,serif" font-size="14.00">Ntotal += valor</text>
</g>
<!-- Ntotal_in&#45;&gt;AddNtotal -->
<g id="edge5" class="edge">
<title>Ntotal_in&#45;&gt;AddNtotal</title>
<path fill="none" stroke="black" d="M331.24,-161.41C331.24,-149.76 331.24,-134.05 331.24,-120.52"/>
<polygon fill="black" stroke="black" points="334.74,-120.86 331.24,-110.86 327.74,-120.86 334.74,-120.86"/>
</g>
<!-- Pcnt_in -->
<g id="node4" class="node">
<title>Pcnt_in</title>
<ellipse fill="lightblue" stroke="black" cx="199.24" cy="-91" rx="63.12" ry="18"/>
<text xml:space="preserve" text-anchor="middle" x="199.24" y="-85.95" font-family="Times New Roman,serif" font-size="14.00">Pcnt (entrada)</text>
</g>
<!-- IncPcnt -->
<g id="node9" class="node">
<title>IncPcnt</title>
<polygon fill="none" stroke="black" points="215.49,-36 158.99,-36 158.99,0 215.49,0 215.49,-36"/>
<text xml:space="preserve" text-anchor="middle" x="187.24" y="-12.95" font-family="Times New Roman,serif" font-size="14.00">Pcnt++</text>
</g>
<!-- Pcnt_in&#45;&gt;IncPcnt -->
<g id="edge6" class="edge">
<title>Pcnt_in&#45;&gt;IncPcnt</title>
<path fill="none" stroke="black" d="M196.34,-72.81C195.04,-65.14 193.48,-55.89 192.01,-47.24"/>
<polygon fill="black" stroke="black" points="195.49,-46.8 190.37,-37.52 188.59,-47.96 195.49,-46.8"/>
</g>
<!-- Ncnt_in -->
<g id="node5" class="node">
<title>Ncnt_in</title>
<ellipse fill="lightblue" stroke="black" cx="464.24" cy="-91" rx="64.66" ry="18"/>
<text xml:space="preserve" text-anchor="middle" x="464.24" y="-85.95" font-family="Times New Roman,serif" font-size="14.00">Ncnt (entrada)</text>
</g>
<!-- IncNcnt -->
<g id="node10" class="node">
<title>IncNcnt</title>
<polygon fill="none" stroke="black" points="481.62,-36 422.87,-36 422.87,0 481.62,0 481.62,-36"/>
<text xml:space="preserve" text-anchor="middle" x="452.24" y="-12.95" font-family="Times New Roman,serif" font-size="14.00">Ncnt++</text>
</g>
<!-- Ncnt_in&#45;&gt;IncNcnt -->
<g id="edge7" class="edge">
<title>Ncnt_in&#45;&gt;IncNcnt</title>
<path fill="none" stroke="black" d="M461.34,-72.81C460.04,-65.14 458.48,-55.89 457.01,-47.24"/>
<polygon fill="black" stroke="black" points="460.49,-46.8 455.37,-37.52 453.59,-47.96 460.49,-46.8"/>
</g>
<!-- CheckNeg&#45;&gt;AddPtotal -->
<g id="edge2" class="edge">
<title>CheckNeg&#45;&gt;AddPtotal</title>
<path fill="none" stroke="black" d="M173.05,-161.2C153.23,-148.12 125.8,-130.01 103.98,-115.6"/>
<polygon fill="black" stroke="black" points="105.93,-112.69 95.65,-110.1 102.07,-118.53 105.93,-112.69"/>
<text xml:space="preserve" text-anchor="middle" x="189.72" y="-130.2" font-family="Times New Roman,serif" font-size="14.00">Sim (Infeasible)</text>
</g>
<!-- CheckNeg&#45;&gt;AddNtotal -->
<g id="edge3" class="edge">
<title>CheckNeg&#45;&gt;AddNtotal</title>
<path fill="none" stroke="black" d="M225.64,-161.2C245.69,-148.06 273.49,-129.85 295.53,-115.4"/>
<polygon fill="black" stroke="black" points="297.18,-118.5 303.63,-110.1 293.34,-112.65 297.18,-118.5"/>
<text xml:space="preserve" text-anchor="middle" x="288.31" y="-130.2" font-family="Times New Roman,serif" font-size="14.00">Nao</text>
</g>
<!-- AddPtotal&#45;&gt;IncPcnt -->
<g id="edge10" class="edge">
<title>AddPtotal&#45;&gt;IncPcnt</title>
<path fill="none" stroke="black" stroke-dasharray="1,5" d="M97.35,-72.63C113,-63.3 132.47,-51.68 149.29,-41.64"/>
<polygon fill="black" stroke="black" points="150.75,-44.85 157.54,-36.72 147.16,-38.84 150.75,-44.85"/>
</g>
<!-- Ptotal_out -->
<g id="node11" class="node">
<title>Ptotal_out</title>
<ellipse fill="lightgreen" stroke="black" cx="68.24" cy="-18" rx="60.05" ry="18"/>
<text xml:space="preserve" text-anchor="middle" x="68.24" y="-12.95" font-family="Times New Roman,serif" font-size="14.00">Ptotal (saida)</text>
</g>
<!-- AddPtotal&#45;&gt;Ptotal_out -->
<g id="edge8" class="edge">
<title>AddPtotal&#45;&gt;Ptotal_out</title>
<path fill="none" stroke="black" d="M68.24,-72.81C68.24,-65.23 68.24,-56.1 68.24,-47.54"/>
<polygon fill="black" stroke="black" points="71.74,-47.54 68.24,-37.54 64.74,-47.54 71.74,-47.54"/>
</g>
<!-- AddNtotal&#45;&gt;IncNcnt -->
<g id="edge11" class="edge">
<title>AddNtotal&#45;&gt;IncNcnt</title>
<path fill="none" stroke="black" stroke-dasharray="1,5" d="M360.84,-72.63C376.52,-63.43 395.97,-52.02 412.9,-42.08"/>
<polygon fill="black" stroke="black" points="414.37,-45.28 421.22,-37.2 410.83,-39.24 414.37,-45.28"/>
</g>
<!-- Ntotal_out -->
<g id="node12" class="node">
<title>Ntotal_out</title>
<ellipse fill="lightgreen" stroke="black" cx="331.24" cy="-18" rx="61.59" ry="18"/>
<text xml:space="preserve" text-anchor="middle" x="331.24" y="-12.95" font-family="Times New Roman,serif" font-size="14.00">Ntotal (saida)</text>
</g>
<!-- AddNtotal&#45;&gt;Ntotal_out -->
<g id="edge9" class="edge">
<title>AddNtotal&#45;&gt;Ntotal_out</title>
<path fill="none" stroke="black" d="M331.24,-72.81C331.24,-65.23 331.24,-56.1 331.24,-47.54"/>
<polygon fill="black" stroke="black" points="334.74,-47.54 331.24,-37.54 327.74,-47.54 334.74,-47.54"/>
</g>
<!-- Pcnt_out -->
<g id="node13" class="node">
<title>Pcnt_out</title>
<ellipse fill="lightgreen" stroke="black" cx="357.24" cy="-252.5" rx="54.93" ry="18"/>
<text xml:space="preserve" text-anchor="middle" x="357.24" y="-247.45" font-family="Times New Roman,serif" font-size="14.00">Pcnt (saida)</text>
</g>
<!-- Ncnt_out -->
<g id="node14" class="node">
<title>Ncnt_out</title>
<ellipse fill="lightgreen" stroke="black" cx="486.24" cy="-252.5" rx="56.47" ry="18"/>
<text xml:space="preserve" text-anchor="middle" x="486.24" y="-247.45" font-family="Times New Roman,serif" font-size="14.00">Ncnt (saida)</text>
</g>
</g>
</svg>
