<?xml version="1.0" encoding="UTF-8" standalone="no"?>
<!DOCTYPE svg PUBLIC "-//W3C//DTD SVG 1.1//EN"
 "http://www.w3.org/Graphics/SVG/1.1/DTD/svg11.dtd">
<!-- Generated by graphviz version 13.1.2 (20250808.2320)
 -->
<!-- Title: num_to_lcd Pages: 1 -->
<svg width="2368pt" height="321pt"
 viewBox="0.00 0.00 2368.00 321.00" xmlns="http://www.w3.org/2000/svg" xmlns:xlink="http://www.w3.org/1999/xlink">
<g id="graph0" class="graph" transform="scale(1 1) rotate(0) translate(4 316.97)">
<title>num_to_lcd</title>
<polygon fill="white" stroke="none" points="-4,4 -4,-316.97 2363.67,-316.97 2363.67,4 -4,4"/>
<!-- start -->
<g id="node1" class="node">
<title>start</title>
<ellipse fill="none" stroke="black" cx="1109.04" cy="-285.04" rx="135.41" ry="27.93"/>
<text xml:space="preserve" text-anchor="middle" x="1109.04" y="-287.49" font-family="Arial" font-size="14.00">Start</text>
<text xml:space="preserve" text-anchor="middle" x="1109.04" y="-271.74" font-family="Arial" font-size="14.00">num_to_lcd(unsigned char a)</text>
</g>
<!-- switch_node -->
<g id="node3" class="node">
<title>switch_node</title>
<polygon fill="none" stroke="black" points="1109.04,-220.11 1043.18,-202.11 1109.04,-184.11 1174.91,-202.11 1109.04,-220.11"/>
<text xml:space="preserve" text-anchor="middle" x="1109.04" y="-196.69" font-family="Arial" font-size="14.00">switch(a)</text>
</g>
<!-- start&#45;&gt;switch_node -->
<g id="edge1" class="edge">
<title>start&#45;&gt;switch_node</title>
<path fill="none" stroke="black" d="M1109.04,-256.64C1109.04,-248.73 1109.04,-240.06 1109.04,-232.05"/>
<polygon fill="black" stroke="black" points="1112.54,-232.1 1109.04,-222.1 1105.54,-232.1 1112.54,-232.1"/>
</g>
<!-- end -->
<g id="node2" class="node">
<title>end</title>
<ellipse fill="none" stroke="black" cx="1109.04" cy="-27.93" rx="44.19" ry="27.93"/>
<text xml:space="preserve" text-anchor="middle" x="1109.04" y="-30.38" font-family="Arial" font-size="14.00">End</text>
<text xml:space="preserve" text-anchor="middle" x="1109.04" y="-14.63" font-family="Arial" font-size="14.00">return 0</text>
</g>
<!-- switch_node&#45;&gt;end -->
<g id="edge18" class="edge">
<title>switch_node&#45;&gt;end</title>
<path fill="none" stroke="black" d="M1042.28,-201.87C890.99,-202.87 510.68,-201.31 195.04,-166.11 108.59,-156.47 -46.15,-156.14 13.54,-92.86 49.54,-54.7 835,-34.87 1053.23,-30.09"/>
<polygon fill="black" stroke="black" points="1053.26,-33.59 1063.18,-29.87 1053.11,-26.59 1053.26,-33.59"/>
<text xml:space="preserve" text-anchor="middle" x="33.79" y="-107.19" font-family="Arial" font-size="14.00">default</text>
</g>
<!-- case_0 -->
<g id="node4" class="node">
<title>case_0</title>
<polygon fill="none" stroke="black" points="144.67,-132.36 63.42,-132.36 63.42,-92.86 144.67,-92.86 144.67,-132.36"/>
<text xml:space="preserve" text-anchor="middle" x="104.04" y="-115.06" font-family="Arial" font-size="14.00">case 0x00:</text>
<text xml:space="preserve" text-anchor="middle" x="104.04" y="-99.31" font-family="Arial" font-size="14.00">return 0</text>
</g>
<!-- switch_node&#45;&gt;case_0 -->
<g id="edge2" class="edge">
<title>switch_node&#45;&gt;case_0</title>
<path fill="none" stroke="black" d="M1046.65,-200.69C877.24,-199.2 411.34,-192.72 260.29,-166.11 224.4,-159.79 185.55,-146.76 155.56,-135.27"/>
<polygon fill="black" stroke="black" points="156.94,-132.05 146.35,-131.67 154.39,-138.57 156.94,-132.05"/>
<text xml:space="preserve" text-anchor="middle" x="290.67" y="-152.81" font-family="Arial" font-size="14.00">a == 0x00</text>
</g>
<!-- case_1 -->
<g id="node5" class="node">
<title>case_1</title>
<polygon fill="none" stroke="black" points="247.17,-132.36 162.92,-132.36 162.92,-92.86 247.17,-92.86 247.17,-132.36"/>
<text xml:space="preserve" text-anchor="middle" x="205.04" y="-115.06" font-family="Arial" font-size="14.00">case 0x01:</text>
<text xml:space="preserve" text-anchor="middle" x="205.04" y="-99.31" font-family="Arial" font-size="14.00">return 0x24</text>
</g>
<!-- switch_node&#45;&gt;case_1 -->
<g id="edge3" class="edge">
<title>switch_node&#45;&gt;case_1</title>
<path fill="none" stroke="black" d="M1044.94,-201.16C922.6,-200.52 647.55,-195.58 418.29,-166.11 348.66,-157.16 328.7,-153.02 258.24,-132.84"/>
<polygon fill="black" stroke="black" points="259.5,-129.56 248.92,-130.16 257.56,-136.28 259.5,-129.56"/>
<text xml:space="preserve" text-anchor="middle" x="448.67" y="-152.81" font-family="Arial" font-size="14.00">a == 0x01</text>
</g>
<!-- case_2 -->
<g id="node6" class="node">
<title>case_2</title>
<polygon fill="none" stroke="black" points="405.29,-132.36 264.79,-132.36 264.79,-92.86 405.29,-92.86 405.29,-132.36"/>
<text xml:space="preserve" text-anchor="middle" x="335.04" y="-115.06" font-family="Arial" font-size="14.00">case 0x02:</text>
<text xml:space="preserve" text-anchor="middle" x="335.04" y="-99.31" font-family="Arial" font-size="14.00">return 1+4+8+16+64</text>
</g>
<!-- switch_node&#45;&gt;case_2 -->
<g id="edge4" class="edge">
<title>switch_node&#45;&gt;case_2</title>
<path fill="none" stroke="black" d="M1048.08,-200.26C947.33,-198.16 739.92,-190.93 566.29,-166.11 516.04,-158.93 460.55,-146.49 416.52,-135.52"/>
<polygon fill="black" stroke="black" points="417.61,-132.18 407.06,-133.13 415.9,-138.97 417.61,-132.18"/>
<text xml:space="preserve" text-anchor="middle" x="596.67" y="-152.81" font-family="Arial" font-size="14.00">a == 0x02</text>
</g>
<!-- case_3 -->
<g id="node7" class="node">
<title>case_3</title>
<polygon fill="none" stroke="black" points="564.29,-132.36 423.79,-132.36 423.79,-92.86 564.29,-92.86 564.29,-132.36"/>
<text xml:space="preserve" text-anchor="middle" x="494.04" y="-115.06" font-family="Arial" font-size="14.00">case 0x03:</text>
<text xml:space="preserve" text-anchor="middle" x="494.04" y="-99.31" font-family="Arial" font-size="14.00">return 1+4+8+32+64</text>
</g>
<!-- switch_node&#45;&gt;case_3 -->
<g id="edge5" class="edge">
<title>switch_node&#45;&gt;case_3</title>
<path fill="none" stroke="black" d="M1052.95,-198.93C975.14,-195.28 830.25,-186.26 708.29,-166.11 662.7,-158.58 612.49,-146.49 572.15,-135.8"/>
<polygon fill="black" stroke="black" points="573.07,-132.43 562.5,-133.22 571.26,-139.19 573.07,-132.43"/>
<text xml:space="preserve" text-anchor="middle" x="738.67" y="-152.81" font-family="Arial" font-size="14.00">a == 0x03</text>
</g>
<!-- case_4 -->
<g id="node8" class="node">
<title>case_4</title>
<polygon fill="none" stroke="black" points="699.67,-132.36 582.42,-132.36 582.42,-92.86 699.67,-92.86 699.67,-132.36"/>
<text xml:space="preserve" text-anchor="middle" x="641.04" y="-115.06" font-family="Arial" font-size="14.00">case 0x04:</text>
<text xml:space="preserve" text-anchor="middle" x="641.04" y="-99.31" font-family="Arial" font-size="14.00">return 2+4+8+32</text>
</g>
<!-- switch_node&#45;&gt;case_4 -->
<g id="edge6" class="edge">
<title>switch_node&#45;&gt;case_4</title>
<path fill="none" stroke="black" d="M1061.31,-196.79C1006.99,-191.45 915.76,-181.17 838.29,-166.11 783.31,-155.42 768.07,-148.56 710.79,-132.85"/>
<polygon fill="black" stroke="black" points="712.03,-129.56 701.46,-130.32 710.19,-136.32 712.03,-129.56"/>
<text xml:space="preserve" text-anchor="middle" x="868.67" y="-152.81" font-family="Arial" font-size="14.00">a == 0x04</text>
</g>
<!-- case_5 -->
<g id="node9" class="node">
<title>case_5</title>
<polygon fill="none" stroke="black" points="858.29,-132.36 717.79,-132.36 717.79,-92.86 858.29,-92.86 858.29,-132.36"/>
<text xml:space="preserve" text-anchor="middle" x="788.04" y="-115.06" font-family="Arial" font-size="14.00">case 0x05:</text>
<text xml:space="preserve" text-anchor="middle" x="788.04" y="-99.31" font-family="Arial" font-size="14.00">return 1+4+8+16+64</text>
</g>
<!-- switch_node&#45;&gt;case_5 -->
<g id="edge7" class="edge">
<title>switch_node&#45;&gt;case_5</title>
<path fill="none" stroke="black" d="M1072,-193.73C1040.31,-187.19 993.55,-177.01 953.29,-166.11 920.68,-157.29 884.91,-146.11 855.01,-136.34"/>
<polygon fill="black" stroke="black" points="856.31,-133.08 845.72,-133.28 854.12,-139.73 856.31,-133.08"/>
<text xml:space="preserve" text-anchor="middle" x="983.67" y="-152.81" font-family="Arial" font-size="14.00">a == 0x05</text>
</g>
<!-- case_6 -->
<g id="node10" class="node">
<title>case_6</title>
<polygon fill="none" stroke="black" points="1039.92,-132.36 876.17,-132.36 876.17,-92.86 1039.92,-92.86 1039.92,-132.36"/>
<text xml:space="preserve" text-anchor="middle" x="958.04" y="-115.06" font-family="Arial" font-size="14.00">case 0x06:</text>
<text xml:space="preserve" text-anchor="middle" x="958.04" y="-99.31" font-family="Arial" font-size="14.00">return 1+2+8+16+32+64</text>
</g>
<!-- switch_node&#45;&gt;case_6 -->
<g id="edge8" class="edge">
<title>switch_node&#45;&gt;case_6</title>
<path fill="none" stroke="black" d="M1087.31,-189.72C1074.66,-183.01 1058.48,-174.26 1044.29,-166.11 1029.1,-157.39 1012.62,-147.48 998.18,-138.63"/>
<polygon fill="black" stroke="black" points="1000.19,-135.76 989.84,-133.5 996.52,-141.72 1000.19,-135.76"/>
<text xml:space="preserve" text-anchor="middle" x="1074.67" y="-152.81" font-family="Arial" font-size="14.00">a == 0x06</text>
</g>
<!-- case_7 -->
<g id="node11" class="node">
<title>case_7</title>
<polygon fill="none" stroke="black" points="1159.79,-132.36 1058.29,-132.36 1058.29,-92.86 1159.79,-92.86 1159.79,-132.36"/>
<text xml:space="preserve" text-anchor="middle" x="1109.04" y="-115.06" font-family="Arial" font-size="14.00">case 0x07:</text>
<text xml:space="preserve" text-anchor="middle" x="1109.04" y="-99.31" font-family="Arial" font-size="14.00">return 1+4+32</text>
</g>
<!-- switch_node&#45;&gt;case_7 -->
<g id="edge9" class="edge">
<title>switch_node&#45;&gt;case_7</title>
<path fill="none" stroke="black" d="M1109.04,-183.82C1109.04,-172.42 1109.04,-157.18 1109.04,-143.81"/>
<polygon fill="black" stroke="black" points="1112.54,-144.2 1109.04,-134.2 1105.54,-144.2 1112.54,-144.2"/>
<text xml:space="preserve" text-anchor="middle" x="1139.42" y="-152.81" font-family="Arial" font-size="14.00">a == 0x07</text>
</g>
<!-- case_8 -->
<g id="node12" class="node">
<title>case_8</title>
<polygon fill="none" stroke="black" points="1262.54,-132.36 1177.54,-132.36 1177.54,-92.86 1262.54,-92.86 1262.54,-132.36"/>
<text xml:space="preserve" text-anchor="middle" x="1220.04" y="-115.06" font-family="Arial" font-size="14.00">case 0x08:</text>
<text xml:space="preserve" text-anchor="middle" x="1220.04" y="-99.31" font-family="Arial" font-size="14.00">return 0x7F</text>
</g>
<!-- switch_node&#45;&gt;case_8 -->
<g id="edge10" class="edge">
<title>switch_node&#45;&gt;case_8</title>
<path fill="none" stroke="black" d="M1133.77,-190.39C1146.48,-184.26 1161.81,-175.85 1174.04,-166.11 1183.05,-158.94 1191.7,-149.86 1199.03,-141.28"/>
<polygon fill="black" stroke="black" points="1201.54,-143.73 1205.18,-133.78 1196.13,-139.29 1201.54,-143.73"/>
<text xml:space="preserve" text-anchor="middle" x="1221.18" y="-152.81" font-family="Arial" font-size="14.00">a == 0x08</text>
</g>
<!-- case_9 -->
<g id="node13" class="node">
<title>case_9</title>
<polygon fill="none" stroke="black" points="1427.29,-132.36 1280.79,-132.36 1280.79,-92.86 1427.29,-92.86 1427.29,-132.36"/>
<text xml:space="preserve" text-anchor="middle" x="1354.04" y="-115.06" font-family="Arial" font-size="14.00">case 0x09:</text>
<text xml:space="preserve" text-anchor="middle" x="1354.04" y="-99.31" font-family="Arial" font-size="14.00">return 0x0F + 32 + 64</text>
</g>
<!-- switch_node&#45;&gt;case_9 -->
<g id="edge11" class="edge">
<title>switch_node&#45;&gt;case_9</title>
<path fill="none" stroke="black" d="M1148.87,-194.51C1178.92,-188.85 1220.85,-179.47 1256.04,-166.11 1275.65,-158.67 1296.27,-148.08 1313.51,-138.37"/>
<polygon fill="black" stroke="black" points="1315,-141.55 1321.93,-133.53 1311.51,-135.48 1315,-141.55"/>
<text xml:space="preserve" text-anchor="middle" x="1319.85" y="-152.81" font-family="Arial" font-size="14.00">a == 0x09</text>
</g>
<!-- case_A -->
<g id="node14" class="node">
<title>case_A</title>
<polygon fill="none" stroke="black" points="1592.29,-132.36 1445.79,-132.36 1445.79,-92.86 1592.29,-92.86 1592.29,-132.36"/>
<text xml:space="preserve" text-anchor="middle" x="1519.04" y="-115.06" font-family="Arial" font-size="14.00">case 0x0A:</text>
<text xml:space="preserve" text-anchor="middle" x="1519.04" y="-99.31" font-family="Arial" font-size="14.00">return 0x0F + 16 + 32</text>
</g>
<!-- switch_node&#45;&gt;case_A -->
<g id="edge12" class="edge">
<title>switch_node&#45;&gt;case_A</title>
<path fill="none" stroke="black" d="M1156.44,-196.7C1206.1,-191.53 1286.19,-181.64 1354.04,-166.11 1388.1,-158.32 1425.24,-146.78 1455.65,-136.5"/>
<polygon fill="black" stroke="black" points="1456.77,-139.82 1465.1,-133.27 1454.5,-133.2 1456.77,-139.82"/>
<text xml:space="preserve" text-anchor="middle" x="1440.31" y="-152.81" font-family="Arial" font-size="14.00">a == 0x0A</text>
</g>
<!-- case_B -->
<g id="node15" class="node">
<title>case_B</title>
<polygon fill="none" stroke="black" points="1758.04,-132.36 1610.04,-132.36 1610.04,-92.86 1758.04,-92.86 1758.04,-132.36"/>
<text xml:space="preserve" text-anchor="middle" x="1684.04" y="-115.06" font-family="Arial" font-size="14.00">case 0x0B:</text>
<text xml:space="preserve" text-anchor="middle" x="1684.04" y="-99.31" font-family="Arial" font-size="14.00">return 2+8+16+32+64</text>
</g>
<!-- switch_node&#45;&gt;case_B -->
<g id="edge13" class="edge">
<title>switch_node&#45;&gt;case_B</title>
<path fill="none" stroke="black" d="M1163.33,-198.48C1235.09,-194.42 1365.27,-185.04 1475.04,-166.11 1519.26,-158.49 1567.92,-146.48 1607.16,-135.88"/>
<polygon fill="black" stroke="black" points="1608.04,-139.26 1616.77,-133.25 1606.2,-132.51 1608.04,-139.26"/>
<text xml:space="preserve" text-anchor="middle" x="1575.75" y="-152.81" font-family="Arial" font-size="14.00">a == 0x0B</text>
</g>
<!-- case_C -->
<g id="node16" class="node">
<title>case_C</title>
<polygon fill="none" stroke="black" points="1900.42,-132.36 1775.67,-132.36 1775.67,-92.86 1900.42,-92.86 1900.42,-132.36"/>
<text xml:space="preserve" text-anchor="middle" x="1838.04" y="-115.06" font-family="Arial" font-size="14.00">case 0x0C:</text>
<text xml:space="preserve" text-anchor="middle" x="1838.04" y="-99.31" font-family="Arial" font-size="14.00">return 1+2+16+64</text>
</g>
<!-- switch_node&#45;&gt;case_C -->
<g id="edge14" class="edge">
<title>switch_node&#45;&gt;case_C</title>
<path fill="none" stroke="black" d="M1168.07,-199.74C1262.19,-196.93 1451.89,-188.76 1611.04,-166.11 1662.91,-158.73 1720.4,-145.38 1764.55,-133.99"/>
<polygon fill="black" stroke="black" points="1765.22,-137.43 1774.01,-131.52 1763.45,-130.66 1765.22,-137.43"/>
<text xml:space="preserve" text-anchor="middle" x="1724.39" y="-152.81" font-family="Arial" font-size="14.00">a == 0x0C</text>
</g>
<!-- case_D -->
<g id="node17" class="node">
<title>case_D</title>
<polygon fill="none" stroke="black" points="2066.04,-132.36 1918.04,-132.36 1918.04,-92.86 2066.04,-92.86 2066.04,-132.36"/>
<text xml:space="preserve" text-anchor="middle" x="1992.04" y="-115.06" font-family="Arial" font-size="14.00">case 0x0D:</text>
<text xml:space="preserve" text-anchor="middle" x="1992.04" y="-99.31" font-family="Arial" font-size="14.00">return 4+8+16+32+64</text>
</g>
<!-- switch_node&#45;&gt;case_D -->
<g id="edge15" class="edge">
<title>switch_node&#45;&gt;case_D</title>
<path fill="none" stroke="black" d="M1173.6,-201.24C1290.94,-200.67 1546.76,-195.76 1760.04,-166.11 1810.57,-159.09 1866.35,-146.62 1910.56,-135.59"/>
<polygon fill="black" stroke="black" points="1911.23,-139.03 1920.07,-133.2 1909.52,-132.25 1911.23,-139.03"/>
<text xml:space="preserve" text-anchor="middle" x="1875.16" y="-152.81" font-family="Arial" font-size="14.00">a == 0x0D</text>
</g>
<!-- case_E -->
<g id="node18" class="node">
<title>case_E</title>
<polygon fill="none" stroke="black" points="2224.29,-132.36 2083.79,-132.36 2083.79,-92.86 2224.29,-92.86 2224.29,-132.36"/>
<text xml:space="preserve" text-anchor="middle" x="2154.04" y="-115.06" font-family="Arial" font-size="14.00">case 0x0E:</text>
<text xml:space="preserve" text-anchor="middle" x="2154.04" y="-99.31" font-family="Arial" font-size="14.00">return 1+2+8+16+64</text>
</g>
<!-- switch_node&#45;&gt;case_E -->
<g id="edge16" class="edge">
<title>switch_node&#45;&gt;case_E</title>
<path fill="none" stroke="black" d="M1175.35,-201.78C1313.02,-202.38 1639.61,-199.75 1911.04,-166.11 1965.37,-159.38 2025.51,-146.43 2072.37,-135.08"/>
<polygon fill="black" stroke="black" points="2073.02,-138.52 2081.9,-132.74 2071.36,-131.72 2073.02,-138.52"/>
<text xml:space="preserve" text-anchor="middle" x="2029.74" y="-152.81" font-family="Arial" font-size="14.00">a == 0x0E</text>
</g>
<!-- case_F -->
<g id="node19" class="node">
<title>case_F</title>
<polygon fill="none" stroke="black" points="2359.67,-132.36 2242.42,-132.36 2242.42,-92.86 2359.67,-92.86 2359.67,-132.36"/>
<text xml:space="preserve" text-anchor="middle" x="2301.04" y="-115.06" font-family="Arial" font-size="14.00">case 0x0F:</text>
<text xml:space="preserve" text-anchor="middle" x="2301.04" y="-99.31" font-family="Arial" font-size="14.00">return 1+2+8+16</text>
</g>
<!-- switch_node&#45;&gt;case_F -->
<g id="edge17" class="edge">
<title>switch_node&#45;&gt;case_F</title>
<path fill="none" stroke="black" d="M1169.53,-200.18C1351.24,-197.17 1890.51,-186.7 2065.04,-166.11 2121.58,-159.44 2184.45,-145.1 2231.07,-133.09"/>
<polygon fill="black" stroke="black" points="2231.71,-136.55 2240.5,-130.64 2229.94,-129.77 2231.71,-136.55"/>
<text xml:space="preserve" text-anchor="middle" x="2187.41" y="-152.81" font-family="Arial" font-size="14.00">a == 0x0F</text>
</g>
<!-- case_0&#45;&gt;end -->
<g id="edge19" class="edge">
<title>case_0&#45;&gt;end</title>
<path fill="none" stroke="black" d="M144.97,-95.25C148.01,-94.35 151.06,-93.54 154.04,-92.86 249.33,-71.29 275.61,-81.06 373.04,-73.86 627.2,-55.08 931.15,-38.34 1053.76,-31.82"/>
<polygon fill="black" stroke="black" points="1053.74,-35.33 1063.54,-31.3 1053.36,-28.34 1053.74,-35.33"/>
</g>
<!-- case_1&#45;&gt;end -->
<g id="edge20" class="edge">
<title>case_1&#45;&gt;end</title>
<path fill="none" stroke="black" d="M247.64,-94.98C250.46,-94.18 253.28,-93.46 256.04,-92.86 409.11,-59.67 889.06,-37.77 1053.28,-31.09"/>
<polygon fill="black" stroke="black" points="1053.19,-34.6 1063.04,-30.7 1052.91,-27.6 1053.19,-34.6"/>
</g>
<!-- case_2&#45;&gt;end -->
<g id="edge21" class="edge">
<title>case_2&#45;&gt;end</title>
<path fill="none" stroke="black" d="M405.61,-94.51C408.79,-93.92 411.94,-93.36 415.04,-92.86 650.83,-54.56 935.69,-37.31 1053.7,-31.42"/>
<polygon fill="black" stroke="black" points="1053.6,-34.93 1063.42,-30.95 1053.26,-27.94 1053.6,-34.93"/>
</g>
<!-- case_3&#45;&gt;end -->
<g id="edge22" class="edge">
<title>case_3&#45;&gt;end</title>
<path fill="none" stroke="black" d="M564.59,-94.44C567.44,-93.89 570.27,-93.35 573.04,-92.86 747.27,-61.9 956.09,-41.83 1053.68,-33.43"/>
<polygon fill="black" stroke="black" points="1053.85,-36.93 1063.51,-32.59 1053.25,-29.95 1053.85,-36.93"/>
</g>
<!-- case_4&#45;&gt;end -->
<g id="edge23" class="edge">
<title>case_4&#45;&gt;end</title>
<path fill="none" stroke="black" d="M699.91,-94.95C702.99,-94.21 706.05,-93.51 709.04,-92.86 831.28,-66.32 976.76,-45.8 1054.17,-35.75"/>
<polygon fill="black" stroke="black" points="1054.57,-39.22 1064.04,-34.47 1053.67,-32.28 1054.57,-39.22"/>
</g>
<!-- case_5&#45;&gt;end -->
<g id="edge24" class="edge">
<title>case_5&#45;&gt;end</title>
<path fill="none" stroke="black" d="M858.49,-93.47C918.62,-77.98 1003.69,-56.07 1057.6,-42.18"/>
<polygon fill="black" stroke="black" points="1058.33,-45.61 1067.15,-39.72 1056.59,-38.83 1058.33,-45.61"/>
</g>
<!-- case_6&#45;&gt;end -->
<g id="edge25" class="edge">
<title>case_6&#45;&gt;end</title>
<path fill="none" stroke="black" d="M993.06,-92.43C1014.84,-80.51 1043.01,-65.09 1066.13,-52.43"/>
<polygon fill="black" stroke="black" points="1067.6,-55.61 1074.69,-47.74 1064.24,-49.47 1067.6,-55.61"/>
</g>
<!-- case_7&#45;&gt;end -->
<g id="edge26" class="edge">
<title>case_7&#45;&gt;end</title>
<path fill="none" stroke="black" d="M1109.04,-92.43C1109.04,-85.02 1109.04,-76.26 1109.04,-67.65"/>
<polygon fill="black" stroke="black" points="1112.54,-67.66 1109.04,-57.66 1105.54,-67.66 1112.54,-67.66"/>
</g>
<!-- case_8&#45;&gt;end -->
<g id="edge27" class="edge">
<title>case_8&#45;&gt;end</title>
<path fill="none" stroke="black" d="M1194.3,-92.43C1179.95,-81.75 1161.83,-68.25 1146,-56.46"/>
<polygon fill="black" stroke="black" points="1148.3,-53.81 1138.19,-50.65 1144.12,-59.43 1148.3,-53.81"/>
</g>
<!-- case_9&#45;&gt;end -->
<g id="edge28" class="edge">
<title>case_9&#45;&gt;end</title>
<path fill="none" stroke="black" d="M1297.22,-92.43C1255.22,-78.26 1198.61,-59.16 1158.48,-45.62"/>
<polygon fill="black" stroke="black" points="1159.65,-42.32 1149.06,-42.44 1157.42,-48.95 1159.65,-42.32"/>
</g>
<!-- case_A&#45;&gt;end -->
<g id="edge29" class="edge">
<title>case_A&#45;&gt;end</title>
<path fill="none" stroke="black" d="M1445.3,-94.84C1442.17,-94.16 1439.08,-93.5 1436.04,-92.86 1339.93,-72.61 1227.45,-51.1 1162.6,-38.91"/>
<polygon fill="black" stroke="black" points="1163.41,-35.5 1152.94,-37.09 1162.12,-42.38 1163.41,-35.5"/>
</g>
<!-- case_B&#45;&gt;end -->
<g id="edge30" class="edge">
<title>case_B&#45;&gt;end</title>
<path fill="none" stroke="black" d="M1609.9,-94.5C1606.91,-93.93 1603.95,-93.38 1601.04,-92.86 1443.42,-64.88 1255.35,-43.83 1164.11,-34.4"/>
<polygon fill="black" stroke="black" points="1164.5,-30.92 1154.19,-33.38 1163.78,-37.88 1164.5,-30.92"/>
</g>
<!-- case_C&#45;&gt;end -->
<g id="edge31" class="edge">
<title>case_C&#45;&gt;end</title>
<path fill="none" stroke="black" d="M1775.44,-94.49C1772.61,-93.91 1769.8,-93.36 1767.04,-92.86 1545.87,-53.18 1278.15,-36.8 1164.43,-31.29"/>
<polygon fill="black" stroke="black" points="1164.94,-27.81 1154.78,-30.83 1164.6,-34.8 1164.94,-27.81"/>
</g>
<!-- case_D&#45;&gt;end -->
<g id="edge32" class="edge">
<title>case_D&#45;&gt;end</title>
<path fill="none" stroke="black" d="M1917.93,-94.32C1914.93,-93.8 1911.96,-93.31 1909.04,-92.86 1631.59,-50.66 1295.49,-35.29 1164.79,-30.65"/>
<polygon fill="black" stroke="black" points="1165.15,-27.16 1155.04,-30.32 1164.91,-34.16 1165.15,-27.16"/>
</g>
<!-- case_E&#45;&gt;end -->
<g id="edge33" class="edge">
<title>case_E&#45;&gt;end</title>
<path fill="none" stroke="black" d="M2083.52,-94.26C2080.66,-93.75 2077.83,-93.28 2075.04,-92.86 1731.99,-41.17 1314.14,-31.27 1165.12,-29.38"/>
<polygon fill="black" stroke="black" points="1165.17,-25.88 1155.13,-29.26 1165.09,-32.88 1165.17,-25.88"/>
</g>
<!-- case_F&#45;&gt;end -->
<g id="edge34" class="edge">
<title>case_F&#45;&gt;end</title>
<path fill="none" stroke="black" d="M2242.23,-94.61C2239.14,-93.96 2236.06,-93.37 2233.04,-92.86 2106.56,-71.48 2073.09,-81.53 1945.04,-73.86 1650.75,-56.25 1297.97,-38.34 1164.15,-31.66"/>
<polygon fill="black" stroke="black" points="1164.69,-28.18 1154.53,-31.18 1164.34,-35.17 1164.69,-28.18"/>
</g>
</g>
</svg>
