<?xml version="1.0" encoding="UTF-8" standalone="no"?>
<!DOCTYPE svg PUBLIC "-//W3C//DTD SVG 1.1//EN"
 "http://www.w3.org/Graphics/SVG/1.1/DTD/svg11.dtd">
<!-- Generated by graphviz version 13.1.2 (20250808.2320)
 -->
<!-- Title: CFG Pages: 1 -->
<svg width="681pt" height="607pt"
 viewBox="0.00 0.00 681.00 607.00" xmlns="http://www.w3.org/2000/svg" xmlns:xlink="http://www.w3.org/1999/xlink">
<g id="graph0" class="graph" transform="scale(1 1) rotate(0) translate(4 602.75)">
<title>CFG</title>
<polygon fill="white" stroke="none" points="-4,4 -4,-602.75 677.38,-602.75 677.38,4 -4,4"/>
<!-- N1 -->
<g id="node1" class="node">
<title>N1</title>
<polygon fill="none" stroke="black" points="451.5,-598.75 244.25,-598.75 244.25,-559.25 451.5,-559.25 451.5,-598.75"/>
<text xml:space="preserve" text-anchor="middle" x="347.88" y="-581.45" font-family="Helvetica,sans-Serif" font-size="14.00">1: Declaracoes e inicializacoes</text>
<text xml:space="preserve" text-anchor="middle" x="347.88" y="-565.7" font-family="Helvetica,sans-Serif" font-size="14.00">(ir = n, l = 1, jstack = 0, flag = 0)</text>
</g>
<!-- N2 -->
<g id="node2" class="node">
<title>N2</title>
<polygon fill="none" stroke="black" points="413.25,-522.25 282.5,-522.25 282.5,-482.75 413.25,-482.75 413.25,-522.25"/>
<text xml:space="preserve" text-anchor="middle" x="347.88" y="-504.95" font-family="Helvetica,sans-Serif" font-size="14.00">2: Loop infinito</text>
<text xml:space="preserve" text-anchor="middle" x="347.88" y="-489.2" font-family="Helvetica,sans-Serif" font-size="14.00">Condicao: ir &#45; l &lt; M</text>
</g>
<!-- N1&#45;&gt;N2 -->
<g id="edge1" class="edge">
<title>N1&#45;&gt;N2</title>
<path fill="none" stroke="black" d="M347.88,-558.81C347.88,-551.25 347.88,-542.38 347.88,-533.99"/>
<polygon fill="black" stroke="black" points="351.38,-534.13 347.88,-524.13 344.38,-534.13 351.38,-534.13"/>
</g>
<!-- N3 -->
<g id="node3" class="node">
<title>N3</title>
<polygon fill="none" stroke="black" points="278.38,-431 139.38,-431 139.38,-360 278.38,-360 278.38,-431"/>
<text xml:space="preserve" text-anchor="middle" x="208.88" y="-413.7" font-family="Helvetica,sans-Serif" font-size="14.00">3: Insertion Sort</text>
<text xml:space="preserve" text-anchor="middle" x="208.88" y="-397.95" font-family="Helvetica,sans-Serif" font-size="14.00">(j = l+1 to ir)</text>
<text xml:space="preserve" text-anchor="middle" x="208.88" y="-382.2" font-family="Helvetica,sans-Serif" font-size="14.00">(i = j&#45;1 to l)</text>
<text xml:space="preserve" text-anchor="middle" x="208.88" y="-366.45" font-family="Helvetica,sans-Serif" font-size="14.00">Condicao: arr[i] &lt;= a</text>
</g>
<!-- N2&#45;&gt;N3 -->
<g id="edge2" class="edge">
<title>N2&#45;&gt;N3</title>
<path fill="none" stroke="black" d="M301.76,-482.29C291.75,-477.23 281.51,-471.32 272.62,-464.75 262.74,-457.44 253.13,-448.48 244.48,-439.48"/>
<polygon fill="black" stroke="black" points="247.24,-437.3 237.87,-432.36 242.11,-442.07 247.24,-437.3"/>
<text xml:space="preserve" text-anchor="middle" x="284.25" y="-451.45" font-family="Helvetica,sans-Serif" font-size="14.00">true</text>
</g>
<!-- N6 -->
<g id="node6" class="node">
<title>N6</title>
<polygon fill="none" stroke="black" points="528.75,-423.12 383,-423.12 383,-367.88 528.75,-367.88 528.75,-423.12"/>
<text xml:space="preserve" text-anchor="middle" x="455.88" y="-405.82" font-family="Helvetica,sans-Serif" font-size="14.00">6: Particao</text>
<text xml:space="preserve" text-anchor="middle" x="455.88" y="-390.07" font-family="Helvetica,sans-Serif" font-size="14.00">Calcula k, SWAPs</text>
<text xml:space="preserve" text-anchor="middle" x="455.88" y="-374.32" font-family="Helvetica,sans-Serif" font-size="14.00">Define i, j, a = arr[l+1]</text>
</g>
<!-- N2&#45;&gt;N6 -->
<g id="edge3" class="edge">
<title>N2&#45;&gt;N6</title>
<path fill="none" stroke="black" d="M367.43,-482.49C382.19,-468.14 402.84,-448.06 420.48,-430.91"/>
<polygon fill="black" stroke="black" points="422.52,-433.81 427.25,-424.33 417.64,-428.79 422.52,-433.81"/>
<text xml:space="preserve" text-anchor="middle" x="416.12" y="-451.45" font-family="Helvetica,sans-Serif" font-size="14.00">false</text>
</g>
<!-- N4 -->
<g id="node4" class="node">
<title>N4</title>
<polygon fill="none" stroke="black" points="280.62,-305.5 119.12,-305.5 119.12,-269.5 280.62,-269.5 280.62,-305.5"/>
<text xml:space="preserve" text-anchor="middle" x="199.88" y="-282.07" font-family="Helvetica,sans-Serif" font-size="14.00">4: Condicao: jstack == 0</text>
</g>
<!-- N3&#45;&gt;N4 -->
<g id="edge4" class="edge">
<title>N3&#45;&gt;N4</title>
<path fill="none" stroke="black" d="M205.93,-359.79C204.75,-345.92 203.41,-330.15 202.29,-316.97"/>
<polygon fill="black" stroke="black" points="205.8,-316.91 201.47,-307.24 198.82,-317.5 205.8,-316.91"/>
</g>
<!-- N5 -->
<g id="node5" class="node">
<title>N5</title>
<polygon fill="none" stroke="black" points="319.62,-200.25 80.12,-200.25 80.12,-160.75 319.62,-160.75 319.62,-200.25"/>
<text xml:space="preserve" text-anchor="middle" x="199.88" y="-182.95" font-family="Helvetica,sans-Serif" font-size="14.00">5: Atualiza ir e l</text>
<text xml:space="preserve" text-anchor="middle" x="199.88" y="-167.2" font-family="Helvetica,sans-Serif" font-size="14.00">(ir = istack[jstack], l = istack[jstack&#45;1])</text>
</g>
<!-- N4&#45;&gt;N5 -->
<g id="edge6" class="edge">
<title>N4&#45;&gt;N5</title>
<path fill="none" stroke="black" d="M199.88,-269.16C199.88,-253.68 199.88,-230.65 199.88,-212.08"/>
<polygon fill="black" stroke="black" points="203.38,-212.16 199.88,-202.16 196.38,-212.16 203.38,-212.16"/>
<text xml:space="preserve" text-anchor="middle" x="214.12" y="-220.7" font-family="Helvetica,sans-Serif" font-size="14.00">false</text>
</g>
<!-- N12 -->
<g id="node12" class="node">
<title>N12</title>
<polygon fill="none" stroke="black" points="61.75,-198.5 0,-198.5 0,-162.5 61.75,-162.5 61.75,-198.5"/>
<text xml:space="preserve" text-anchor="middle" x="30.88" y="-175.07" font-family="Helvetica,sans-Serif" font-size="14.00">12: Fim</text>
</g>
<!-- N4&#45;&gt;N12 -->
<g id="edge5" class="edge">
<title>N4&#45;&gt;N12</title>
<path fill="none" stroke="black" d="M171.97,-269.16C143.71,-251.61 99.83,-224.34 68.51,-204.89"/>
<polygon fill="black" stroke="black" points="70.45,-201.97 60.11,-199.66 66.76,-207.91 70.45,-201.97"/>
<text xml:space="preserve" text-anchor="middle" x="127" y="-220.7" font-family="Helvetica,sans-Serif" font-size="14.00">true</text>
</g>
<!-- N5&#45;&gt;N2 -->
<g id="edge7" class="edge">
<title>N5&#45;&gt;N2</title>
<path fill="none" stroke="black" d="M234.83,-200.56C253.99,-212.78 276.49,-230.41 289.88,-252 340.76,-334.06 306.82,-372.06 333.88,-464.75 334.57,-467.15 335.36,-469.61 336.19,-472.07"/>
<polygon fill="black" stroke="black" points="332.8,-472.99 339.5,-481.2 339.39,-470.61 332.8,-472.99"/>
</g>
<!-- N7 -->
<g id="node7" class="node">
<title>N7</title>
<polygon fill="none" stroke="black" points="571.5,-323 376.25,-323 376.25,-252 571.5,-252 571.5,-323"/>
<text xml:space="preserve" text-anchor="middle" x="473.88" y="-305.7" font-family="Helvetica,sans-Serif" font-size="14.00">7: Loop interno de particao</text>
<text xml:space="preserve" text-anchor="middle" x="473.88" y="-289.95" font-family="Helvetica,sans-Serif" font-size="14.00">Incrementa i e decrementa j</text>
<text xml:space="preserve" text-anchor="middle" x="473.88" y="-274.2" font-family="Helvetica,sans-Serif" font-size="14.00">Condicoes: arr[i] &lt; a, arr[j] &gt; a</text>
<text xml:space="preserve" text-anchor="middle" x="473.88" y="-258.45" font-family="Helvetica,sans-Serif" font-size="14.00">Break se j &lt; i</text>
</g>
<!-- N6&#45;&gt;N7 -->
<g id="edge8" class="edge">
<title>N6&#45;&gt;N7</title>
<path fill="none" stroke="black" d="M460.46,-367.48C462.17,-357.45 464.15,-345.77 466.06,-334.52"/>
<polygon fill="black" stroke="black" points="469.46,-335.43 467.68,-324.98 462.56,-334.25 469.46,-335.43"/>
</g>
<!-- N8 -->
<g id="node8" class="node">
<title>N8</title>
<polygon fill="none" stroke="black" points="539.62,-200.25 408.12,-200.25 408.12,-160.75 539.62,-160.75 539.62,-200.25"/>
<text xml:space="preserve" text-anchor="middle" x="473.88" y="-182.95" font-family="Helvetica,sans-Serif" font-size="14.00">8: Atualiza arr[j] e a</text>
<text xml:space="preserve" text-anchor="middle" x="473.88" y="-167.2" font-family="Helvetica,sans-Serif" font-size="14.00">jstack += 2</text>
</g>
<!-- N7&#45;&gt;N8 -->
<g id="edge9" class="edge">
<title>N7&#45;&gt;N8</title>
<path fill="none" stroke="black" d="M473.88,-251.54C473.88,-238.7 473.88,-224.28 473.88,-211.87"/>
<polygon fill="black" stroke="black" points="477.38,-212.23 473.88,-202.23 470.38,-212.23 477.38,-212.23"/>
<text xml:space="preserve" text-anchor="middle" x="484.75" y="-220.7" font-family="Helvetica,sans-Serif" font-size="14.00">j &lt; i</text>
</g>
<!-- N9 -->
<g id="node9" class="node">
<title>N9</title>
<polygon fill="none" stroke="black" points="565.5,-123.75 382.25,-123.75 382.25,-87.75 565.5,-87.75 565.5,-123.75"/>
<text xml:space="preserve" text-anchor="middle" x="473.88" y="-100.33" font-family="Helvetica,sans-Serif" font-size="14.00">9: Condicao: ir &#45; i + 1 &gt;= j &#45; l</text>
</g>
<!-- N8&#45;&gt;N9 -->
<g id="edge10" class="edge">
<title>N8&#45;&gt;N9</title>
<path fill="none" stroke="black" d="M473.88,-160.39C473.88,-152.72 473.88,-143.72 473.88,-135.3"/>
<polygon fill="black" stroke="black" points="477.38,-135.51 473.88,-125.51 470.38,-135.51 477.38,-135.51"/>
</g>
<!-- N10 -->
<g id="node10" class="node">
<title>N10</title>
<polygon fill="none" stroke="black" points="452,-36 271.75,-36 271.75,0 452,0 452,-36"/>
<text xml:space="preserve" text-anchor="middle" x="361.88" y="-12.57" font-family="Helvetica,sans-Serif" font-size="14.00">10: Atualiza pilha e ajusta ir</text>
</g>
<!-- N9&#45;&gt;N10 -->
<g id="edge11" class="edge">
<title>N9&#45;&gt;N10</title>
<path fill="none" stroke="black" d="M451.21,-87.4C434.59,-74.67 411.8,-57.23 393.4,-43.14"/>
<polygon fill="black" stroke="black" points="395.78,-40.55 385.71,-37.25 391.52,-46.11 395.78,-40.55"/>
<text xml:space="preserve" text-anchor="middle" x="439.53" y="-56.45" font-family="Helvetica,sans-Serif" font-size="14.00">true</text>
</g>
<!-- N11 -->
<g id="node11" class="node">
<title>N11</title>
<polygon fill="none" stroke="black" points="673.38,-36 498.38,-36 498.38,0 673.38,0 673.38,-36"/>
<text xml:space="preserve" text-anchor="middle" x="585.88" y="-12.57" font-family="Helvetica,sans-Serif" font-size="14.00">11: Atualiza pilha e ajusta l</text>
</g>
<!-- N9&#45;&gt;N11 -->
<g id="edge12" class="edge">
<title>N9&#45;&gt;N11</title>
<path fill="none" stroke="black" d="M496.54,-87.4C513.16,-74.67 535.95,-57.23 554.35,-43.14"/>
<polygon fill="black" stroke="black" points="556.23,-46.11 562.04,-37.25 551.97,-40.55 556.23,-46.11"/>
<text xml:space="preserve" text-anchor="middle" x="554.16" y="-56.45" font-family="Helvetica,sans-Serif" font-size="14.00">false</text>
</g>
<!-- N10&#45;&gt;N2 -->
<g id="edge13" class="edge">
<title>N10&#45;&gt;N2</title>
<path fill="none" stroke="black" d="M357.37,-36.27C353.28,-53.5 347.88,-80.77 347.88,-104.75 347.88,-396.5 347.88,-396.5 347.88,-396.5 347.88,-421.64 347.88,-450.17 347.88,-471.14"/>
<polygon fill="black" stroke="black" points="344.38,-471.02 347.88,-481.02 351.38,-471.02 344.38,-471.02"/>
</g>
<!-- N11&#45;&gt;N2 -->
<g id="edge14" class="edge">
<title>N11&#45;&gt;N2</title>
<path fill="none" stroke="black" d="M590.38,-36.27C594.47,-53.5 599.88,-80.77 599.88,-104.75 599.88,-396.5 599.88,-396.5 599.88,-396.5 599.88,-473.36 498.74,-494.98 424.61,-500.5"/>
<polygon fill="black" stroke="black" points="424.69,-496.99 414.94,-501.13 425.14,-503.97 424.69,-496.99"/>
</g>
</g>
</svg>
