<?xml version="1.0" encoding="UTF-8" standalone="no"?>
<!DOCTYPE svg PUBLIC "-//W3C//DTD SVG 1.1//EN"
 "http://www.w3.org/Graphics/SVG/1.1/DTD/svg11.dtd">
<!-- Generated by graphviz version 13.1.2 (20250808.2320)
 -->
<!-- Title: G Pages: 1 -->
<svg width="591pt" height="641pt"
 viewBox="0.00 0.00 591.00 641.00" xmlns="http://www.w3.org/2000/svg" xmlns:xlink="http://www.w3.org/1999/xlink">
<g id="graph0" class="graph" transform="scale(1 1) rotate(0) translate(4 637)">
<title>G</title>
<polygon fill="white" stroke="none" points="-4,4 -4,-637 586.88,-637 586.88,4 -4,4"/>
<!-- start -->
<g id="node1" class="node">
<title>start</title>
<ellipse fill="none" stroke="black" cx="276" cy="-615" rx="87.69" ry="18"/>
<text xml:space="preserve" text-anchor="middle" x="276" y="-609.95" font-family="Times New Roman,serif" font-size="14.00">Inicio da funcao sort</text>
</g>
<!-- B1 -->
<g id="node3" class="node">
<title>B1</title>
<polygon fill="none" stroke="black" points="382.25,-560 169.75,-560 169.75,-502.5 382.25,-502.5 382.25,-560"/>
<text xml:space="preserve" text-anchor="middle" x="276" y="-542.7" font-family="Times New Roman,serif" font-size="14.00">B1: Inicializacoes</text>
<text xml:space="preserve" text-anchor="middle" x="276" y="-526.2" font-family="Times New Roman,serif" font-size="14.00">def: i, ir, j, k, l, jstack, flag, a, temp</text>
<text xml:space="preserve" text-anchor="middle" x="276" y="-509.7" font-family="Times New Roman,serif" font-size="14.00">c&#45;use: n</text>
</g>
<!-- start&#45;&gt;B1 -->
<g id="edge1" class="edge">
<title>start&#45;&gt;B1</title>
<path fill="none" stroke="black" d="M276,-596.66C276,-589.36 276,-580.54 276,-571.81"/>
<polygon fill="black" stroke="black" points="279.5,-572.01 276,-562.01 272.5,-572.01 279.5,-572.01"/>
</g>
<!-- end -->
<g id="node2" class="node">
<title>end</title>
<ellipse fill="none" stroke="black" cx="110" cy="-138.75" rx="81.55" ry="18"/>
<text xml:space="preserve" text-anchor="middle" x="110" y="-133.7" font-family="Times New Roman,serif" font-size="14.00">Fim da funcao sort</text>
</g>
<!-- B2 -->
<g id="node4" class="node">
<title>B2</title>
<polygon fill="none" stroke="black" points="335.75,-465.5 216.25,-465.5 216.25,-424.5 335.75,-424.5 335.75,-465.5"/>
<text xml:space="preserve" text-anchor="middle" x="276" y="-448.2" font-family="Times New Roman,serif" font-size="14.00">B2: Loop principal</text>
<text xml:space="preserve" text-anchor="middle" x="276" y="-431.7" font-family="Times New Roman,serif" font-size="14.00">c&#45;use: ir, l</text>
</g>
<!-- B1&#45;&gt;B2 -->
<g id="edge2" class="edge">
<title>B1&#45;&gt;B2</title>
<path fill="none" stroke="black" d="M276,-502.2C276,-494.22 276,-485.48 276,-477.33"/>
<polygon fill="black" stroke="black" points="279.5,-477.46 276,-467.46 272.5,-477.46 279.5,-477.46"/>
</g>
<!-- B3 -->
<g id="node5" class="node">
<title>B3</title>
<polygon fill="none" stroke="black" points="247.62,-372 76.38,-372 76.38,-314.5 247.62,-314.5 247.62,-372"/>
<text xml:space="preserve" text-anchor="middle" x="162" y="-354.7" font-family="Times New Roman,serif" font-size="14.00">B3: Insertion Sort (ir&#45;l &lt; M)</text>
<text xml:space="preserve" text-anchor="middle" x="162" y="-338.2" font-family="Times New Roman,serif" font-size="14.00">def: j, a, i</text>
<text xml:space="preserve" text-anchor="middle" x="162" y="-321.7" font-family="Times New Roman,serif" font-size="14.00">c&#45;use: l, ir, arr</text>
</g>
<!-- B2&#45;&gt;B3 -->
<g id="edge3" class="edge">
<title>B2&#45;&gt;B3</title>
<path fill="none" stroke="black" d="M241.15,-424.14C232.92,-418.83 224.38,-412.8 217,-406.5 208.12,-398.92 199.35,-389.9 191.51,-381.11"/>
<polygon fill="black" stroke="black" points="194.2,-378.88 185.01,-373.61 188.91,-383.46 194.2,-378.88"/>
<text xml:space="preserve" text-anchor="middle" x="239.5" y="-393.2" font-family="Times New Roman,serif" font-size="14.00">ir&#45;l &lt; M</text>
</g>
<!-- B6 -->
<g id="node8" class="node">
<title>B6</title>
<polygon fill="none" stroke="black" points="434.5,-372 307.5,-372 307.5,-314.5 434.5,-314.5 434.5,-372"/>
<text xml:space="preserve" text-anchor="middle" x="371" y="-354.7" font-family="Times New Roman,serif" font-size="14.00">B6: Mediana de tres</text>
<text xml:space="preserve" text-anchor="middle" x="371" y="-338.2" font-family="Times New Roman,serif" font-size="14.00">def: k, a</text>
<text xml:space="preserve" text-anchor="middle" x="371" y="-321.7" font-family="Times New Roman,serif" font-size="14.00">c&#45;use: l, ir, arr</text>
</g>
<!-- B2&#45;&gt;B6 -->
<g id="edge4" class="edge">
<title>B2&#45;&gt;B6</title>
<path fill="none" stroke="black" d="M294.77,-424.29C306.72,-411.74 322.56,-395.11 336.71,-380.25"/>
<polygon fill="black" stroke="black" points="338.95,-382.98 343.31,-373.32 333.88,-378.15 338.95,-382.98"/>
<text xml:space="preserve" text-anchor="middle" x="352.97" y="-393.2" font-family="Times New Roman,serif" font-size="14.00">ir&#45;l &gt;= M</text>
</g>
<!-- B4 -->
<g id="node6" class="node">
<title>B4</title>
<polygon fill="none" stroke="black" points="218,-269.25 106,-269.25 106,-228.25 218,-228.25 218,-269.25"/>
<text xml:space="preserve" text-anchor="middle" x="162" y="-251.95" font-family="Times New Roman,serif" font-size="14.00">B4: Verifica pilha</text>
<text xml:space="preserve" text-anchor="middle" x="162" y="-235.45" font-family="Times New Roman,serif" font-size="14.00">c&#45;use: jstack</text>
</g>
<!-- B3&#45;&gt;B4 -->
<g id="edge5" class="edge">
<title>B3&#45;&gt;B4</title>
<path fill="none" stroke="black" d="M162,-314.25C162,-303.81 162,-291.91 162,-281.19"/>
<polygon fill="black" stroke="black" points="165.5,-281.25 162,-271.25 158.5,-281.25 165.5,-281.25"/>
</g>
<!-- B4&#45;&gt;end -->
<g id="edge7" class="edge">
<title>B4&#45;&gt;end</title>
<path fill="none" stroke="black" d="M136.47,-227.83C128.87,-220.54 121.36,-211.68 116.75,-202 111.85,-191.69 109.83,-179.36 109.16,-168.41"/>
<polygon fill="black" stroke="black" points="112.66,-168.65 108.92,-158.74 105.67,-168.82 112.66,-168.65"/>
<text xml:space="preserve" text-anchor="middle" x="147.88" y="-188.7" font-family="Times New Roman,serif" font-size="14.00">jstack == 0</text>
</g>
<!-- B5 -->
<g id="node7" class="node">
<title>B5</title>
<polygon fill="none" stroke="black" points="332.25,-167.5 209.75,-167.5 209.75,-110 332.25,-110 332.25,-167.5"/>
<text xml:space="preserve" text-anchor="middle" x="271" y="-150.2" font-family="Times New Roman,serif" font-size="14.00">B5: Atualiza pilha</text>
<text xml:space="preserve" text-anchor="middle" x="271" y="-133.7" font-family="Times New Roman,serif" font-size="14.00">def: ir, l</text>
<text xml:space="preserve" text-anchor="middle" x="271" y="-117.2" font-family="Times New Roman,serif" font-size="14.00">c&#45;use: jstack, istack</text>
</g>
<!-- B4&#45;&gt;B5 -->
<g id="edge6" class="edge">
<title>B4&#45;&gt;B5</title>
<path fill="none" stroke="black" d="M172.61,-227.8C180.12,-214.82 191.06,-198.04 203.5,-185.5 207.23,-181.74 211.31,-178.1 215.56,-174.63"/>
<polygon fill="black" stroke="black" points="217.49,-177.57 223.27,-168.68 213.21,-172.03 217.49,-177.57"/>
<text xml:space="preserve" text-anchor="middle" x="232.75" y="-188.7" font-family="Times New Roman,serif" font-size="14.00">jstack != 0</text>
</g>
<!-- B5&#45;&gt;B2 -->
<g id="edge8" class="edge">
<title>B5&#45;&gt;B2</title>
<path fill="none" stroke="black" d="M271.46,-167.93C272.4,-224.9 274.51,-353.38 275.49,-412.79"/>
<polygon fill="black" stroke="black" points="271.98,-412.58 275.65,-422.52 278.98,-412.47 271.98,-412.58"/>
</g>
<!-- B7 -->
<g id="node9" class="node">
<title>B7</title>
<polygon fill="none" stroke="black" points="436.38,-277.5 329.62,-277.5 329.62,-220 436.38,-220 436.38,-277.5"/>
<text xml:space="preserve" text-anchor="middle" x="383" y="-260.2" font-family="Times New Roman,serif" font-size="14.00">B7: Particao</text>
<text xml:space="preserve" text-anchor="middle" x="383" y="-243.7" font-family="Times New Roman,serif" font-size="14.00">def: i, j</text>
<text xml:space="preserve" text-anchor="middle" x="383" y="-227.2" font-family="Times New Roman,serif" font-size="14.00">c&#45;use: l, ir, a, arr</text>
</g>
<!-- B6&#45;&gt;B7 -->
<g id="edge9" class="edge">
<title>B6&#45;&gt;B7</title>
<path fill="none" stroke="black" d="M374.63,-314.25C375.66,-306.35 376.79,-297.61 377.89,-289.18"/>
<polygon fill="black" stroke="black" points="381.33,-289.85 379.14,-279.48 374.39,-288.95 381.33,-289.85"/>
</g>
<!-- B7&#45;&gt;B7 -->
<g id="edge11" class="edge">
<title>B7&#45;&gt;B7</title>
<path fill="none" stroke="black" d="M436.85,-257.19C447.11,-256.18 454.38,-253.36 454.38,-248.75 454.38,-246.08 451.95,-244.02 447.92,-242.55"/>
<polygon fill="black" stroke="black" points="448.83,-239.17 438.33,-240.61 447.44,-246.03 448.83,-239.17"/>
<text xml:space="preserve" text-anchor="middle" x="470.12" y="-243.7" font-family="Times New Roman,serif" font-size="14.00">j &gt;= i</text>
</g>
<!-- B8 -->
<g id="node10" class="node">
<title>B8</title>
<polygon fill="none" stroke="black" points="506.12,-167.5 349.88,-167.5 349.88,-110 506.12,-110 506.12,-167.5"/>
<text xml:space="preserve" text-anchor="middle" x="428" y="-150.2" font-family="Times New Roman,serif" font-size="14.00">B8: Troca e atualiza pilha</text>
<text xml:space="preserve" text-anchor="middle" x="428" y="-133.7" font-family="Times New Roman,serif" font-size="14.00">def: arr, jstack</text>
<text xml:space="preserve" text-anchor="middle" x="428" y="-117.2" font-family="Times New Roman,serif" font-size="14.00">c&#45;use: j, l, a, i, ir</text>
</g>
<!-- B7&#45;&gt;B8 -->
<g id="edge10" class="edge">
<title>B7&#45;&gt;B8</title>
<path fill="none" stroke="black" d="M394.71,-219.66C399.97,-207.03 406.26,-191.93 411.95,-178.27"/>
<polygon fill="black" stroke="black" points="415.16,-179.68 415.77,-169.1 408.69,-176.98 415.16,-179.68"/>
<text xml:space="preserve" text-anchor="middle" x="419.82" y="-188.7" font-family="Times New Roman,serif" font-size="14.00">j &lt; i</text>
</g>
<!-- B9 -->
<g id="node11" class="node">
<title>B9</title>
<polygon fill="none" stroke="black" points="211,-57.5 33,-57.5 33,0 211,0 211,-57.5"/>
<text xml:space="preserve" text-anchor="middle" x="122" y="-40.2" font-family="Times New Roman,serif" font-size="14.00">B9: Empilha segmento maior</text>
<text xml:space="preserve" text-anchor="middle" x="122" y="-23.7" font-family="Times New Roman,serif" font-size="14.00">def: ir, l</text>
<text xml:space="preserve" text-anchor="middle" x="122" y="-7.2" font-family="Times New Roman,serif" font-size="14.00">c&#45;use: i, j, ir, l, istack</text>
</g>
<!-- B8&#45;&gt;B9 -->
<g id="edge12" class="edge">
<title>B8&#45;&gt;B9</title>
<path fill="none" stroke="black" d="M349.59,-110.08C307.72,-95.3 255.97,-77.03 212.4,-61.66"/>
<polygon fill="black" stroke="black" points="213.82,-58.45 203.23,-58.42 211.49,-65.05 213.82,-58.45"/>
<text xml:space="preserve" text-anchor="middle" x="327.07" y="-78.7" font-family="Times New Roman,serif" font-size="14.00">ir&#45;i+1 &gt;= j&#45;l</text>
</g>
<!-- B10 -->
<g id="node12" class="node">
<title>B10</title>
<polygon fill="none" stroke="black" points="582.88,-57.5 395.12,-57.5 395.12,0 582.88,0 582.88,-57.5"/>
<text xml:space="preserve" text-anchor="middle" x="489" y="-40.2" font-family="Times New Roman,serif" font-size="14.00">B10: Empilha segmento menor</text>
<text xml:space="preserve" text-anchor="middle" x="489" y="-23.7" font-family="Times New Roman,serif" font-size="14.00">def: l, ir</text>
<text xml:space="preserve" text-anchor="middle" x="489" y="-7.2" font-family="Times New Roman,serif" font-size="14.00">c&#45;use: i, j, l, istack</text>
</g>
<!-- B8&#45;&gt;B10 -->
<g id="edge13" class="edge">
<title>B8&#45;&gt;B10</title>
<path fill="none" stroke="black" d="M442.27,-109.64C447.87,-98.87 454.45,-86.53 460.75,-75.5 462.26,-72.86 463.84,-70.14 465.46,-67.42"/>
<polygon fill="black" stroke="black" points="468.41,-69.3 470.58,-58.93 462.42,-65.68 468.41,-69.3"/>
<text xml:space="preserve" text-anchor="middle" x="490.38" y="-78.7" font-family="Times New Roman,serif" font-size="14.00">ir&#45;i+1 &lt; j&#45;l</text>
</g>
<!-- B9&#45;&gt;B2 -->
<g id="edge14" class="edge">
<title>B9&#45;&gt;B2</title>
<path fill="none" stroke="black" d="M58.86,-57.87C29.09,-75.81 0,-102.39 0,-137.75 0,-344.25 0,-344.25 0,-344.25 0,-387.74 122.74,-417.59 204.52,-432.65"/>
<polygon fill="black" stroke="black" points="203.82,-436.08 214.28,-434.4 205.06,-429.19 203.82,-436.08"/>
</g>
<!-- B10&#45;&gt;B2 -->
<g id="edge15" class="edge">
<title>B10&#45;&gt;B2</title>
<path fill="none" stroke="black" d="M510.41,-57.84C514.01,-63.48 517.41,-69.51 520,-75.5 531.26,-101.53 534,-109.39 534,-137.75 534,-344.25 534,-344.25 534,-344.25 534,-384.47 423.53,-414.77 347.17,-430.9"/>
<polygon fill="black" stroke="black" points="346.73,-427.42 337.65,-432.87 348.15,-434.27 346.73,-427.42"/>
</g>
</g>
</svg>
