<?xml version="1.0" encoding="UTF-8" standalone="no"?>
<!DOCTYPE svg PUBLIC "-//W3C//DTD SVG 1.1//EN"
 "http://www.w3.org/Graphics/SVG/1.1/DTD/svg11.dtd">
<!-- Generated by graphviz version 13.1.2 (20250808.2320)
 -->
<!-- Title: CFG_main Pages: 1 -->
<svg width="313pt" height="278pt"
 viewBox="0.00 0.00 313.00 278.00" xmlns="http://www.w3.org/2000/svg" xmlns:xlink="http://www.w3.org/1999/xlink">
<g id="graph0" class="graph" transform="scale(1 1) rotate(0) translate(4 273.75)">
<title>CFG_main</title>
<polygon fill="white" stroke="none" points="-4,4 -4,-273.75 309.33,-273.75 309.33,4 -4,4"/>
<!-- START -->
<g id="node1" class="node">
<title>START</title>
<ellipse fill="none" stroke="black" cx="152.66" cy="-251.75" rx="31.6" ry="18"/>
<text xml:space="preserve" text-anchor="middle" x="152.66" y="-246.32" font-family="Helvetica,sans-Serif" font-size="14.00">Inicio</text>
</g>
<!-- N1 -->
<g id="node3" class="node">
<title>N1</title>
<polygon fill="none" stroke="black" points="219.16,-196.75 86.16,-196.75 86.16,-160.75 219.16,-160.75 219.16,-196.75"/>
<text xml:space="preserve" text-anchor="middle" x="152.66" y="-173.32" font-family="Helvetica,sans-Serif" font-size="14.00">Chamada: foo(400)</text>
</g>
<!-- START&#45;&gt;N1 -->
<g id="edge1" class="edge">
<title>START&#45;&gt;N1</title>
<path fill="none" stroke="black" d="M152.66,-233.56C152.66,-225.98 152.66,-216.85 152.66,-208.29"/>
<polygon fill="black" stroke="black" points="156.16,-208.29 152.66,-198.29 149.16,-208.29 156.16,-208.29"/>
</g>
<!-- END -->
<g id="node2" class="node">
<title>END</title>
<ellipse fill="none" stroke="black" cx="152.66" cy="-18" rx="27" ry="18"/>
<text xml:space="preserve" text-anchor="middle" x="152.66" y="-12.57" font-family="Helvetica,sans-Serif" font-size="14.00">Fim</text>
</g>
<!-- N2 -->
<g id="node4" class="node">
<title>N2</title>
<polygon fill="none" stroke="black" points="152.66,-123.75 0,-105.75 152.66,-87.75 305.33,-105.75 152.66,-123.75"/>
<text xml:space="preserve" text-anchor="middle" x="152.66" y="-100.33" font-family="Helvetica,sans-Serif" font-size="14.00">printf (se TEST definido)</text>
</g>
<!-- N1&#45;&gt;N2 -->
<g id="edge2" class="edge">
<title>N1&#45;&gt;N2</title>
<path fill="none" stroke="black" d="M152.66,-160.56C152.66,-152.98 152.66,-143.85 152.66,-135.29"/>
<polygon fill="black" stroke="black" points="156.16,-135.29 152.66,-125.29 149.16,-135.29 156.16,-135.29"/>
</g>
<!-- N2&#45;&gt;END -->
<g id="edge3" class="edge">
<title>N2&#45;&gt;END</title>
<path fill="none" stroke="black" d="M139.67,-88.99C135.74,-83.28 131.93,-76.56 129.91,-69.75 127.36,-61.12 129.67,-52.06 133.66,-44.01"/>
<polygon fill="black" stroke="black" points="136.66,-45.81 138.8,-35.44 130.65,-42.21 136.66,-45.81"/>
<text xml:space="preserve" text-anchor="middle" x="142.29" y="-56.45" font-family="Helvetica,sans-Serif" font-size="14.00">Nao</text>
</g>
<!-- N2&#45;&gt;END -->
<g id="edge4" class="edge">
<title>N2&#45;&gt;END</title>
<path fill="none" stroke="black" d="M153.84,-87.67C154.17,-81.97 154.5,-75.59 154.66,-69.75 154.87,-62.64 154.74,-54.96 154.48,-47.79"/>
<polygon fill="black" stroke="black" points="157.98,-47.71 154,-37.89 150.99,-48.05 157.98,-47.71"/>
<text xml:space="preserve" text-anchor="middle" x="166.76" y="-56.45" font-family="Helvetica,sans-Serif" font-size="14.00">Sim</text>
</g>
</g>
</svg>
