<?xml version="1.0" encoding="UTF-8" standalone="no"?>
<!DOCTYPE svg PUBLIC "-//W3C//DTD SVG 1.1//EN"
 "http://www.w3.org/Graphics/SVG/1.1/DTD/svg11.dtd">
<!-- Generated by graphviz version 13.1.2 (20250808.2320)
 -->
<!-- Title: CFG_foo Pages: 1 -->
<svg width="463pt" height="956pt"
 viewBox="0.00 0.00 463.00 956.00" xmlns="http://www.w3.org/2000/svg" xmlns:xlink="http://www.w3.org/1999/xlink">
<g id="graph0" class="graph" transform="scale(1 1) rotate(0) translate(4 951.75)">
<title>CFG_foo</title>
<polygon fill="white" stroke="none" points="-4,4 -4,-951.75 459.03,-951.75 459.03,4 -4,4"/>
<!-- START -->
<g id="node1" class="node">
<title>START</title>
<ellipse fill="none" stroke="black" cx="369.66" cy="-929.75" rx="31.6" ry="18"/>
<text xml:space="preserve" text-anchor="middle" x="369.66" y="-924.33" font-family="Helvetica,sans-Serif" font-size="14.00">Inicio</text>
</g>
<!-- N1 -->
<g id="node3" class="node">
<title>N1</title>
<polygon fill="none" stroke="black" points="396.66,-874.75 342.66,-874.75 342.66,-838.75 396.66,-838.75 396.66,-874.75"/>
<text xml:space="preserve" text-anchor="middle" x="369.66" y="-851.33" font-family="Helvetica,sans-Serif" font-size="14.00">i = 0</text>
</g>
<!-- START&#45;&gt;N1 -->
<g id="edge1" class="edge">
<title>START&#45;&gt;N1</title>
<path fill="none" stroke="black" d="M369.66,-911.56C369.66,-903.98 369.66,-894.85 369.66,-886.29"/>
<polygon fill="black" stroke="black" points="373.16,-886.29 369.66,-876.29 366.16,-886.29 373.16,-886.29"/>
</g>
<!-- END -->
<g id="node2" class="node">
<title>END</title>
<ellipse fill="none" stroke="black" cx="315.66" cy="-18" rx="27" ry="18"/>
<text xml:space="preserve" text-anchor="middle" x="315.66" y="-12.57" font-family="Helvetica,sans-Serif" font-size="14.00">Fim</text>
</g>
<!-- N2 -->
<g id="node4" class="node">
<title>N2</title>
<polygon fill="none" stroke="black" points="369.66,-801.75 322.85,-783.75 369.66,-765.75 416.47,-783.75 369.66,-801.75"/>
<text xml:space="preserve" text-anchor="middle" x="369.66" y="-778.33" font-family="Helvetica,sans-Serif" font-size="14.00">i &lt; 5?</text>
</g>
<!-- N1&#45;&gt;N2 -->
<g id="edge2" class="edge">
<title>N1&#45;&gt;N2</title>
<path fill="none" stroke="black" d="M369.66,-838.56C369.66,-831.09 369.66,-822.12 369.66,-813.67"/>
<polygon fill="black" stroke="black" points="373.16,-813.79 369.66,-803.79 366.16,-813.79 373.16,-813.79"/>
</g>
<!-- N3 -->
<g id="node5" class="node">
<title>N3</title>
<polygon fill="none" stroke="black" points="336.66,-714 282.66,-714 282.66,-678 336.66,-678 336.66,-714"/>
<text xml:space="preserve" text-anchor="middle" x="309.66" y="-690.58" font-family="Helvetica,sans-Serif" font-size="14.00">j = 0</text>
</g>
<!-- N2&#45;&gt;N3 -->
<g id="edge3" class="edge">
<title>N2&#45;&gt;N3</title>
<path fill="none" stroke="black" d="M354.53,-771.35C346.92,-765.04 337.99,-756.67 331.66,-747.75 326.74,-740.83 322.6,-732.65 319.28,-724.89"/>
<polygon fill="black" stroke="black" points="322.62,-723.81 315.7,-715.79 316.11,-726.38 322.62,-723.81"/>
<text xml:space="preserve" text-anchor="middle" x="343.66" y="-734.45" font-family="Helvetica,sans-Serif" font-size="14.00">Sim</text>
</g>
<!-- N15 -->
<g id="node17" class="node">
<title>N15</title>
<polygon fill="none" stroke="black" points="455.03,-660 384.28,-660 384.28,-624 455.03,-624 455.03,-660"/>
<text xml:space="preserve" text-anchor="middle" x="419.66" y="-636.58" font-family="Helvetica,sans-Serif" font-size="14.00">return &#45;1;</text>
</g>
<!-- N2&#45;&gt;N15 -->
<g id="edge4" class="edge">
<title>N2&#45;&gt;N15</title>
<path fill="none" stroke="black" d="M375.82,-767.83C378.32,-761.64 381.19,-754.38 383.66,-747.75 393.26,-721.89 403.41,-692.13 410.47,-670.95"/>
<polygon fill="black" stroke="black" points="413.75,-672.18 413.58,-661.58 407.11,-669.97 413.75,-672.18"/>
<text xml:space="preserve" text-anchor="middle" x="401.21" y="-734.45" font-family="Helvetica,sans-Serif" font-size="14.00">Nao</text>
</g>
<!-- N4 -->
<g id="node6" class="node">
<title>N4</title>
<polygon fill="none" stroke="black" points="294.66,-606 247.85,-588 294.66,-570 341.47,-588 294.66,-606"/>
<text xml:space="preserve" text-anchor="middle" x="294.66" y="-582.58" font-family="Helvetica,sans-Serif" font-size="14.00">j &lt; 5?</text>
</g>
<!-- N3&#45;&gt;N4 -->
<g id="edge5" class="edge">
<title>N3&#45;&gt;N4</title>
<path fill="none" stroke="black" d="M307.25,-677.97C304.9,-661.39 301.3,-635.93 298.55,-616.49"/>
<polygon fill="black" stroke="black" points="302.04,-616.2 297.17,-606.79 295.11,-617.18 302.04,-616.2"/>
</g>
<!-- N5 -->
<g id="node7" class="node">
<title>N5</title>
<polygon fill="none" stroke="black" points="262.66,-518.25 208.66,-518.25 208.66,-482.25 262.66,-482.25 262.66,-518.25"/>
<text xml:space="preserve" text-anchor="middle" x="235.66" y="-494.82" font-family="Helvetica,sans-Serif" font-size="14.00">k = 0</text>
</g>
<!-- N4&#45;&gt;N5 -->
<g id="edge6" class="edge">
<title>N4&#45;&gt;N5</title>
<path fill="none" stroke="black" d="M280.06,-575.11C272.96,-568.78 264.67,-560.56 258.66,-552 253.74,-545.01 249.48,-536.79 246.01,-529.04"/>
<polygon fill="black" stroke="black" points="249.3,-527.83 242.22,-519.95 242.83,-530.53 249.3,-527.83"/>
<text xml:space="preserve" text-anchor="middle" x="270.66" y="-538.7" font-family="Helvetica,sans-Serif" font-size="14.00">Sim</text>
</g>
<!-- N14 -->
<g id="node16" class="node">
<title>N14</title>
<polygon fill="none" stroke="black" points="382.66,-518.25 328.66,-518.25 328.66,-482.25 382.66,-482.25 382.66,-518.25"/>
<text xml:space="preserve" text-anchor="middle" x="355.66" y="-494.82" font-family="Helvetica,sans-Serif" font-size="14.00">i++</text>
</g>
<!-- N4&#45;&gt;N14 -->
<g id="edge7" class="edge">
<title>N4&#45;&gt;N14</title>
<path fill="none" stroke="black" d="M304.19,-573.6C312.9,-561.35 326.04,-542.88 336.86,-527.67"/>
<polygon fill="black" stroke="black" points="339.42,-530.12 342.36,-519.94 333.71,-526.06 339.42,-530.12"/>
<text xml:space="preserve" text-anchor="middle" x="343" y="-538.7" font-family="Helvetica,sans-Serif" font-size="14.00">Nao</text>
</g>
<!-- N6 -->
<g id="node8" class="node">
<title>N6</title>
<polygon fill="none" stroke="black" points="218.66,-445.25 168.32,-427.25 218.66,-409.25 269,-427.25 218.66,-445.25"/>
<text xml:space="preserve" text-anchor="middle" x="218.66" y="-421.82" font-family="Helvetica,sans-Serif" font-size="14.00">k &lt; 5?</text>
</g>
<!-- N5&#45;&gt;N6 -->
<g id="edge8" class="edge">
<title>N5&#45;&gt;N6</title>
<path fill="none" stroke="black" d="M231.54,-482.06C229.63,-474.07 227.31,-464.38 225.16,-455.43"/>
<polygon fill="black" stroke="black" points="228.59,-454.69 222.85,-445.78 221.78,-456.32 228.59,-454.69"/>
</g>
<!-- N7 -->
<g id="node9" class="node">
<title>N7</title>
<polygon fill="none" stroke="black" points="187.66,-357.5 133.66,-357.5 133.66,-321.5 187.66,-321.5 187.66,-357.5"/>
<text xml:space="preserve" text-anchor="middle" x="160.66" y="-334.07" font-family="Helvetica,sans-Serif" font-size="14.00">l = 0</text>
</g>
<!-- N6&#45;&gt;N7 -->
<g id="edge9" class="edge">
<title>N6&#45;&gt;N7</title>
<path fill="none" stroke="black" d="M205.13,-413.76C198.73,-407.41 191.28,-399.35 185.66,-391.25 180.65,-384.04 176.09,-375.68 172.28,-367.85"/>
<polygon fill="black" stroke="black" points="175.58,-366.64 168.21,-359.03 169.22,-369.58 175.58,-366.64"/>
<text xml:space="preserve" text-anchor="middle" x="197.66" y="-377.95" font-family="Helvetica,sans-Serif" font-size="14.00">Sim</text>
</g>
<!-- N13 -->
<g id="node15" class="node">
<title>N13</title>
<polygon fill="none" stroke="black" points="314.66,-357.5 260.66,-357.5 260.66,-321.5 314.66,-321.5 314.66,-357.5"/>
<text xml:space="preserve" text-anchor="middle" x="287.66" y="-334.07" font-family="Helvetica,sans-Serif" font-size="14.00">j++</text>
</g>
<!-- N6&#45;&gt;N13 -->
<g id="edge10" class="edge">
<title>N6&#45;&gt;N13</title>
<path fill="none" stroke="black" d="M228.82,-412.76C236.65,-402.46 247.8,-387.96 257.91,-375.5 260.27,-372.59 262.76,-369.57 265.27,-366.57"/>
<polygon fill="black" stroke="black" points="267.91,-368.87 271.69,-358.97 262.56,-364.35 267.91,-368.87"/>
<text xml:space="preserve" text-anchor="middle" x="270.28" y="-377.95" font-family="Helvetica,sans-Serif" font-size="14.00">Nao</text>
</g>
<!-- N8 -->
<g id="node10" class="node">
<title>N8</title>
<polygon fill="none" stroke="black" points="140.66,-284.5 93.85,-266.5 140.66,-248.5 187.47,-266.5 140.66,-284.5"/>
<text xml:space="preserve" text-anchor="middle" x="140.66" y="-261.07" font-family="Helvetica,sans-Serif" font-size="14.00">l &lt; 5?</text>
</g>
<!-- N7&#45;&gt;N8 -->
<g id="edge11" class="edge">
<title>N7&#45;&gt;N8</title>
<path fill="none" stroke="black" d="M155.82,-321.31C153.51,-313.12 150.69,-303.13 148.12,-293.99"/>
<polygon fill="black" stroke="black" points="151.53,-293.21 145.45,-284.53 144.8,-295.11 151.53,-293.21"/>
</g>
<!-- N9 -->
<g id="node11" class="node">
<title>N9</title>
<polygon fill="none" stroke="black" points="136.66,-196.75 16.45,-178.75 136.66,-160.75 256.86,-178.75 136.66,-196.75"/>
<text xml:space="preserve" text-anchor="middle" x="136.66" y="-173.32" font-family="Helvetica,sans-Serif" font-size="14.00">keys[i][j][k][l] == x?</text>
</g>
<!-- N8&#45;&gt;N9 -->
<g id="edge12" class="edge">
<title>N8&#45;&gt;N9</title>
<path fill="none" stroke="black" d="M139,-248.78C138.48,-243 137.97,-236.47 137.66,-230.5 137.28,-223.4 137.05,-215.73 136.9,-208.55"/>
<polygon fill="black" stroke="black" points="140.4,-208.6 136.74,-198.65 133.4,-208.71 140.4,-208.6"/>
<text xml:space="preserve" text-anchor="middle" x="149.66" y="-217.2" font-family="Helvetica,sans-Serif" font-size="14.00">Sim</text>
</g>
<!-- N12 -->
<g id="node14" class="node">
<title>N12</title>
<polygon fill="none" stroke="black" points="328.66,-196.75 274.66,-196.75 274.66,-160.75 328.66,-160.75 328.66,-196.75"/>
<text xml:space="preserve" text-anchor="middle" x="301.66" y="-173.32" font-family="Helvetica,sans-Serif" font-size="14.00">k++</text>
</g>
<!-- N8&#45;&gt;N12 -->
<g id="edge13" class="edge">
<title>N8&#45;&gt;N12</title>
<path fill="none" stroke="black" d="M149.07,-251.67C156.9,-240.02 169.64,-223.83 184.91,-214.75 213.79,-197.57 228.28,-206.72 263.8,-196.75"/>
<polygon fill="black" stroke="black" points="264.48,-200.2 272.96,-193.84 262.37,-193.53 264.48,-200.2"/>
<text xml:space="preserve" text-anchor="middle" x="197.28" y="-217.2" font-family="Helvetica,sans-Serif" font-size="14.00">Nao</text>
</g>
<!-- N10 -->
<g id="node12" class="node">
<title>N10</title>
<polygon fill="none" stroke="black" points="337.28,-109 100.03,-109 100.03,-73 337.28,-73 337.28,-109"/>
<text xml:space="preserve" text-anchor="middle" x="218.66" y="-85.58" font-family="Helvetica,sans-Serif" font-size="14.00">return answer[i][j][k][l] + keys[i][j][k][l];</text>
</g>
<!-- N9&#45;&gt;N10 -->
<g id="edge14" class="edge">
<title>N9&#45;&gt;N10</title>
<path fill="none" stroke="black" d="M150.94,-162.81C162.83,-150.38 180.03,-132.39 194.12,-117.66"/>
<polygon fill="black" stroke="black" points="196.57,-120.16 200.95,-110.52 191.51,-115.33 196.57,-120.16"/>
<text xml:space="preserve" text-anchor="middle" x="197" y="-129.45" font-family="Helvetica,sans-Serif" font-size="14.00">Sim</text>
</g>
<!-- N11 -->
<g id="node13" class="node">
<title>N11</title>
<polygon fill="none" stroke="black" points="56.66,-109 2.66,-109 2.66,-73 56.66,-73 56.66,-109"/>
<text xml:space="preserve" text-anchor="middle" x="29.66" y="-85.58" font-family="Helvetica,sans-Serif" font-size="14.00">l++</text>
</g>
<!-- N9&#45;&gt;N11 -->
<g id="edge15" class="edge">
<title>N9&#45;&gt;N11</title>
<path fill="none" stroke="black" d="M118.51,-163.2C102.52,-150.39 78.91,-131.47 60.05,-116.35"/>
<polygon fill="black" stroke="black" points="62.39,-113.75 52.4,-110.23 58.02,-119.21 62.39,-113.75"/>
<text xml:space="preserve" text-anchor="middle" x="105.12" y="-129.45" font-family="Helvetica,sans-Serif" font-size="14.00">Nao</text>
</g>
<!-- N10&#45;&gt;END -->
<g id="edge16" class="edge">
<title>N10&#45;&gt;END</title>
<path fill="none" stroke="black" d="M242.14,-72.81C256.21,-62.51 274.16,-49.38 288.79,-38.66"/>
<polygon fill="black" stroke="black" points="290.64,-41.65 296.64,-32.92 286.5,-36 290.64,-41.65"/>
</g>
<!-- N11&#45;&gt;N8 -->
<g id="edge17" class="edge">
<title>N11&#45;&gt;N8</title>
<path fill="none" stroke="black" d="M18.95,-109.23C6.86,-131.11 -9.06,-169.29 7.66,-196.75 27.58,-229.48 68.65,-247.31 99.91,-256.55"/>
<polygon fill="black" stroke="black" points="98.9,-259.9 109.47,-259.17 100.76,-253.15 98.9,-259.9"/>
</g>
<!-- N12&#45;&gt;N6 -->
<g id="edge18" class="edge">
<title>N12&#45;&gt;N6</title>
<path fill="none" stroke="black" d="M295.31,-197.14C285.62,-223.81 266.69,-276.45 251.66,-321.5 242.79,-348.05 233.24,-378.6 226.71,-399.83"/>
<polygon fill="black" stroke="black" points="223.44,-398.55 223.86,-409.13 230.13,-400.6 223.44,-398.55"/>
</g>
<!-- N13&#45;&gt;N4 -->
<g id="edge19" class="edge">
<title>N13&#45;&gt;N4</title>
<path fill="none" stroke="black" d="M288.15,-357.81C289.34,-399.69 292.38,-506.81 293.84,-558.39"/>
<polygon fill="black" stroke="black" points="290.34,-558.26 294.12,-568.15 297.34,-558.06 290.34,-558.26"/>
</g>
<!-- N14&#45;&gt;N2 -->
<g id="edge20" class="edge">
<title>N14&#45;&gt;N2</title>
<path fill="none" stroke="black" d="M356.52,-518.57C358.86,-565.64 365.36,-696.3 368.24,-754.34"/>
<polygon fill="black" stroke="black" points="364.73,-754.24 368.73,-764.05 371.73,-753.89 364.73,-754.24"/>
</g>
<!-- N15&#45;&gt;END -->
<g id="edge21" class="edge">
<title>N15&#45;&gt;END</title>
<path fill="none" stroke="black" d="M417.92,-623.7C416.15,-604.52 413.66,-572.64 413.66,-545.12 413.66,-545.12 413.66,-545.12 413.66,-90 413.66,-58.19 379.38,-39.17 351.37,-28.94"/>
<polygon fill="black" stroke="black" points="352.67,-25.69 342.07,-25.81 350.43,-32.32 352.67,-25.69"/>
</g>
</g>
</svg>
