<?xml version="1.0" encoding="UTF-8" standalone="no"?>
<!DOCTYPE svg PUBLIC "-//W3C//DTD SVG 1.1//EN"
 "http://www.w3.org/Graphics/SVG/1.1/DTD/svg11.dtd">
<!-- Generated by graphviz version 13.1.2 (20250808.2320)
 -->
<!-- Title: DFG_foo Pages: 1 -->
<svg width="702pt" height="687pt"
 viewBox="0.00 0.00 702.00 687.00" xmlns="http://www.w3.org/2000/svg" xmlns:xlink="http://www.w3.org/1999/xlink">
<g id="graph0" class="graph" transform="scale(1 1) rotate(0) translate(4 683)">
<title>DFG_foo</title>
<polygon fill="white" stroke="none" points="-4,4 -4,-683 698.02,-683 698.02,4 -4,4"/>
<!-- x -->
<g id="node1" class="node">
<title>x</title>
<ellipse fill="lightblue" stroke="black" cx="187.02" cy="-500.25" rx="65.04" ry="18"/>
<text xml:space="preserve" text-anchor="middle" x="187.02" y="-494.82" font-family="Helvetica,sans-Serif" font-size="14.00">x (parametro)</text>
</g>
<!-- op_cond -->
<g id="node17" class="node">
<title>op_cond</title>
<polygon fill="none" stroke="black" points="282.15,-445.25 161.9,-445.25 161.9,-409.25 282.15,-409.25 282.15,-445.25"/>
<text xml:space="preserve" text-anchor="middle" x="222.02" y="-421.82" font-family="Helvetica,sans-Serif" font-size="14.00">keys[i][j][k][l] == x</text>
</g>
<!-- x&#45;&gt;op_cond -->
<g id="edge1" class="edge">
<title>x&#45;&gt;op_cond</title>
<path fill="none" stroke="black" d="M195.49,-482.06C199.45,-474.04 204.25,-464.3 208.68,-455.32"/>
<polygon fill="black" stroke="black" points="211.68,-457.15 212.96,-446.64 205.4,-454.06 211.68,-457.15"/>
</g>
<!-- keys -->
<g id="node2" class="node">
<title>keys</title>
<ellipse fill="lightblue" stroke="black" cx="297.02" cy="-588" rx="61.54" ry="18"/>
<text xml:space="preserve" text-anchor="middle" x="297.02" y="-582.58" font-family="Helvetica,sans-Serif" font-size="14.00">keys (global)</text>
</g>
<!-- op_key_access -->
<g id="node16" class="node">
<title>op_key_access</title>
<polygon fill="none" stroke="black" points="359.77,-518.25 270.27,-518.25 270.27,-482.25 359.77,-482.25 359.77,-518.25"/>
<text xml:space="preserve" text-anchor="middle" x="315.02" y="-494.82" font-family="Helvetica,sans-Serif" font-size="14.00">keys[i][j][k][l]</text>
</g>
<!-- keys&#45;&gt;op_key_access -->
<g id="edge2" class="edge">
<title>keys&#45;&gt;op_key_access</title>
<path fill="none" stroke="black" d="M300.66,-569.65C303.08,-558.14 306.3,-542.78 309.09,-529.53"/>
<polygon fill="black" stroke="black" points="312.44,-530.56 311.07,-520.06 305.59,-529.13 312.44,-530.56"/>
</g>
<!-- answer -->
<g id="node3" class="node">
<title>answer</title>
<ellipse fill="lightblue" stroke="black" cx="72.02" cy="-427.25" rx="72.02" ry="18"/>
<text xml:space="preserve" text-anchor="middle" x="72.02" y="-421.82" font-family="Helvetica,sans-Serif" font-size="14.00">answer (global)</text>
</g>
<!-- op_return_val -->
<g id="node18" class="node">
<title>op_return_val</title>
<polygon fill="none" stroke="black" points="215.27,-357.5 20.77,-357.5 20.77,-321.5 215.27,-321.5 215.27,-357.5"/>
<text xml:space="preserve" text-anchor="middle" x="118.02" y="-334.07" font-family="Helvetica,sans-Serif" font-size="14.00">answer[i][j][k][l] + keys[i][j][k][l]</text>
</g>
<!-- answer&#45;&gt;op_return_val -->
<g id="edge5" class="edge">
<title>answer&#45;&gt;op_return_val</title>
<path fill="none" stroke="black" d="M81.11,-409.31C87.45,-397.48 96.06,-381.45 103.36,-367.83"/>
<polygon fill="black" stroke="black" points="106.28,-369.8 107.92,-359.33 100.11,-366.49 106.28,-369.8"/>
</g>
<!-- op_i_init -->
<g id="node4" class="node">
<title>op_i_init</title>
<polygon fill="none" stroke="black" points="622.02,-196.75 568.02,-196.75 568.02,-160.75 622.02,-160.75 622.02,-196.75"/>
<text xml:space="preserve" text-anchor="middle" x="595.02" y="-173.32" font-family="Helvetica,sans-Serif" font-size="14.00">i = 0</text>
</g>
<!-- op_i_cmp -->
<g id="node12" class="node">
<title>op_i_cmp</title>
<polygon fill="none" stroke="black" points="636.02,-123.75 582.02,-123.75 582.02,-87.75 636.02,-87.75 636.02,-123.75"/>
<text xml:space="preserve" text-anchor="middle" x="609.02" y="-100.33" font-family="Helvetica,sans-Serif" font-size="14.00">i &lt; 5</text>
</g>
<!-- op_i_init&#45;&gt;op_i_cmp -->
<g id="edge6" class="edge">
<title>op_i_init&#45;&gt;op_i_cmp</title>
<path fill="none" stroke="black" d="M598.41,-160.56C599.92,-152.89 601.75,-143.64 603.45,-134.99"/>
<polygon fill="black" stroke="black" points="606.87,-135.75 605.37,-125.26 600,-134.4 606.87,-135.75"/>
</g>
<!-- op_j_init -->
<g id="node5" class="node">
<title>op_j_init</title>
<polygon fill="none" stroke="black" points="570.02,-36 516.02,-36 516.02,0 570.02,0 570.02,-36"/>
<text xml:space="preserve" text-anchor="middle" x="543.02" y="-12.57" font-family="Helvetica,sans-Serif" font-size="14.00">j = 0</text>
</g>
<!-- op_j_cmp -->
<g id="node13" class="node">
<title>op_j_cmp</title>
<polygon fill="none" stroke="black" points="564.02,-284.5 510.02,-284.5 510.02,-248.5 564.02,-248.5 564.02,-284.5"/>
<text xml:space="preserve" text-anchor="middle" x="537.02" y="-261.07" font-family="Helvetica,sans-Serif" font-size="14.00">j &lt; 5</text>
</g>
<!-- op_j_init&#45;&gt;op_j_cmp -->
<g id="edge10" class="edge">
<title>op_j_init&#45;&gt;op_j_cmp</title>
<path fill="none" stroke="black" d="M542.6,-36.31C541.58,-78.19 538.97,-185.31 537.72,-236.89"/>
<polygon fill="black" stroke="black" points="534.22,-236.57 537.48,-246.65 541.22,-236.74 534.22,-236.57"/>
</g>
<!-- op_k_init -->
<g id="node6" class="node">
<title>op_k_init</title>
<polygon fill="none" stroke="black" points="502.02,-196.75 448.02,-196.75 448.02,-160.75 502.02,-160.75 502.02,-196.75"/>
<text xml:space="preserve" text-anchor="middle" x="475.02" y="-173.32" font-family="Helvetica,sans-Serif" font-size="14.00">k = 0</text>
</g>
<!-- op_k_cmp -->
<g id="node14" class="node">
<title>op_k_cmp</title>
<polygon fill="none" stroke="black" points="486.02,-445.25 432.02,-445.25 432.02,-409.25 486.02,-409.25 486.02,-445.25"/>
<text xml:space="preserve" text-anchor="middle" x="459.02" y="-421.82" font-family="Helvetica,sans-Serif" font-size="14.00">k &lt; 5</text>
</g>
<!-- op_k_init&#45;&gt;op_k_cmp -->
<g id="edge14" class="edge">
<title>op_k_init&#45;&gt;op_k_cmp</title>
<path fill="none" stroke="black" d="M473.9,-197.06C471.18,-238.94 464.23,-346.06 460.88,-397.64"/>
<polygon fill="black" stroke="black" points="457.4,-397.2 460.24,-407.41 464.39,-397.65 457.4,-397.2"/>
</g>
<!-- op_l_init -->
<g id="node7" class="node">
<title>op_l_init</title>
<polygon fill="none" stroke="black" points="426.02,-357.5 372.02,-357.5 372.02,-321.5 426.02,-321.5 426.02,-357.5"/>
<text xml:space="preserve" text-anchor="middle" x="399.02" y="-334.07" font-family="Helvetica,sans-Serif" font-size="14.00">l = 0</text>
</g>
<!-- op_l_cmp -->
<g id="node15" class="node">
<title>op_l_cmp</title>
<polygon fill="none" stroke="black" points="431.02,-606 377.02,-606 377.02,-570 431.02,-570 431.02,-606"/>
<text xml:space="preserve" text-anchor="middle" x="404.02" y="-582.58" font-family="Helvetica,sans-Serif" font-size="14.00">l &lt; 5</text>
</g>
<!-- op_l_init&#45;&gt;op_l_cmp -->
<g id="edge18" class="edge">
<title>op_l_init&#45;&gt;op_l_cmp</title>
<path fill="none" stroke="black" d="M399.37,-357.81C400.22,-399.69 402.4,-506.81 403.44,-558.39"/>
<polygon fill="black" stroke="black" points="399.94,-558.23 403.64,-568.15 406.94,-558.08 399.94,-558.23"/>
</g>
<!-- op_i_inc -->
<g id="node8" class="node">
<title>op_i_inc</title>
<polygon fill="none" stroke="black" points="694.02,-196.75 640.02,-196.75 640.02,-160.75 694.02,-160.75 694.02,-196.75"/>
<text xml:space="preserve" text-anchor="middle" x="667.02" y="-173.32" font-family="Helvetica,sans-Serif" font-size="14.00">i++</text>
</g>
<!-- op_i_inc&#45;&gt;op_i_cmp -->
<g id="edge9" class="edge">
<title>op_i_inc&#45;&gt;op_i_cmp</title>
<path fill="none" stroke="black" d="M652.98,-160.56C646.14,-152.19 637.77,-141.95 630.18,-132.65"/>
<polygon fill="black" stroke="black" points="632.93,-130.48 623.89,-124.95 627.51,-134.91 632.93,-130.48"/>
</g>
<!-- op_j_inc -->
<g id="node9" class="node">
<title>op_j_inc</title>
<polygon fill="none" stroke="black" points="551.02,-357.5 497.02,-357.5 497.02,-321.5 551.02,-321.5 551.02,-357.5"/>
<text xml:space="preserve" text-anchor="middle" x="524.02" y="-334.07" font-family="Helvetica,sans-Serif" font-size="14.00">j++</text>
</g>
<!-- op_j_inc&#45;&gt;op_j_cmp -->
<g id="edge13" class="edge">
<title>op_j_inc&#45;&gt;op_j_cmp</title>
<path fill="none" stroke="black" d="M527.17,-321.31C528.57,-313.64 530.27,-304.39 531.85,-295.74"/>
<polygon fill="black" stroke="black" points="535.27,-296.48 533.63,-286.02 528.39,-295.22 535.27,-296.48"/>
</g>
<!-- op_k_inc -->
<g id="node10" class="node">
<title>op_k_inc</title>
<polygon fill="none" stroke="black" points="480.02,-518.25 426.02,-518.25 426.02,-482.25 480.02,-482.25 480.02,-518.25"/>
<text xml:space="preserve" text-anchor="middle" x="453.02" y="-494.82" font-family="Helvetica,sans-Serif" font-size="14.00">k++</text>
</g>
<!-- op_k_inc&#45;&gt;op_k_cmp -->
<g id="edge17" class="edge">
<title>op_k_inc&#45;&gt;op_k_cmp</title>
<path fill="none" stroke="black" d="M454.47,-482.06C455.12,-474.39 455.9,-465.14 456.63,-456.49"/>
<polygon fill="black" stroke="black" points="460.1,-457.05 457.46,-446.79 453.13,-456.46 460.1,-457.05"/>
</g>
<!-- op_l_inc -->
<g id="node11" class="node">
<title>op_l_inc</title>
<polygon fill="none" stroke="black" points="431.02,-679 377.02,-679 377.02,-643 431.02,-643 431.02,-679"/>
<text xml:space="preserve" text-anchor="middle" x="404.02" y="-655.58" font-family="Helvetica,sans-Serif" font-size="14.00">l++</text>
</g>
<!-- op_l_inc&#45;&gt;op_l_cmp -->
<g id="edge21" class="edge">
<title>op_l_inc&#45;&gt;op_l_cmp</title>
<path fill="none" stroke="black" d="M404.02,-642.81C404.02,-635.23 404.02,-626.1 404.02,-617.54"/>
<polygon fill="black" stroke="black" points="407.52,-617.54 404.02,-607.54 400.52,-617.54 407.52,-617.54"/>
</g>
<!-- op_i_cmp&#45;&gt;op_j_init -->
<g id="edge7" class="edge">
<title>op_i_cmp&#45;&gt;op_j_init</title>
<path fill="none" stroke="black" d="M595.67,-87.4C586.36,-75.31 573.78,-58.97 563.25,-45.29"/>
<polygon fill="black" stroke="black" points="566.15,-43.32 557.28,-37.53 560.61,-47.59 566.15,-43.32"/>
<text xml:space="preserve" text-anchor="middle" x="595.81" y="-56.45" font-family="Helvetica,sans-Serif" font-size="14.00">True</text>
</g>
<!-- op_return_neg -->
<g id="node19" class="node">
<title>op_return_neg</title>
<polygon fill="none" stroke="black" points="657.52,-36 590.52,-36 590.52,0 657.52,0 657.52,-36"/>
<text xml:space="preserve" text-anchor="middle" x="624.02" y="-12.57" font-family="Helvetica,sans-Serif" font-size="14.00">return &#45;1</text>
</g>
<!-- op_i_cmp&#45;&gt;op_return_neg -->
<g id="edge8" class="edge">
<title>op_i_cmp&#45;&gt;op_return_neg</title>
<path fill="none" stroke="black" d="M612.06,-87.4C614.07,-75.89 616.76,-60.53 619.08,-47.28"/>
<polygon fill="black" stroke="black" points="622.45,-48.27 620.73,-37.82 615.56,-47.07 622.45,-48.27"/>
<text xml:space="preserve" text-anchor="middle" x="634.37" y="-56.45" font-family="Helvetica,sans-Serif" font-size="14.00">False</text>
</g>
<!-- op_j_cmp&#45;&gt;op_k_init -->
<g id="edge11" class="edge">
<title>op_j_cmp&#45;&gt;op_k_init</title>
<path fill="none" stroke="black" d="M514.55,-248.01C508.77,-242.8 502.88,-236.79 498.27,-230.5 493.21,-223.6 488.87,-215.41 485.36,-207.65"/>
<polygon fill="black" stroke="black" points="488.63,-206.42 481.54,-198.54 482.18,-209.12 488.63,-206.42"/>
<text xml:space="preserve" text-anchor="middle" x="512.15" y="-217.2" font-family="Helvetica,sans-Serif" font-size="14.00">True</text>
</g>
<!-- op_j_cmp&#45;&gt;op_i_inc -->
<g id="edge12" class="edge">
<title>op_j_cmp&#45;&gt;op_i_inc</title>
<path fill="none" stroke="black" d="M563.33,-248.15C582.89,-235.25 609.8,-217.5 631.3,-203.31"/>
<polygon fill="black" stroke="black" points="633.07,-206.34 639.49,-197.91 629.22,-200.49 633.07,-206.34"/>
<text xml:space="preserve" text-anchor="middle" x="630.17" y="-217.2" font-family="Helvetica,sans-Serif" font-size="14.00">False</text>
</g>
<!-- op_k_cmp&#45;&gt;op_l_init -->
<g id="edge15" class="edge">
<title>op_k_cmp&#45;&gt;op_l_init</title>
<path fill="none" stroke="black" d="M438.13,-408.97C432.52,-403.67 426.77,-397.56 422.27,-391.25 417.3,-384.28 412.99,-376.07 409.48,-368.32"/>
<polygon fill="black" stroke="black" points="412.75,-367.08 405.64,-359.22 406.3,-369.8 412.75,-367.08"/>
<text xml:space="preserve" text-anchor="middle" x="436.15" y="-377.95" font-family="Helvetica,sans-Serif" font-size="14.00">True</text>
</g>
<!-- op_k_cmp&#45;&gt;op_j_inc -->
<g id="edge16" class="edge">
<title>op_k_cmp&#45;&gt;op_j_inc</title>
<path fill="none" stroke="black" d="M472.18,-408.9C481.34,-396.81 493.73,-380.47 504.1,-366.79"/>
<polygon fill="black" stroke="black" points="506.72,-369.12 509.97,-359.03 501.14,-364.89 506.72,-369.12"/>
<text xml:space="preserve" text-anchor="middle" x="513.84" y="-377.95" font-family="Helvetica,sans-Serif" font-size="14.00">False</text>
</g>
<!-- op_l_cmp&#45;&gt;op_k_inc -->
<g id="edge20" class="edge">
<title>op_l_cmp&#45;&gt;op_k_inc</title>
<path fill="none" stroke="black" d="M413.94,-569.65C420.71,-557.79 429.83,-541.84 437.55,-528.33"/>
<polygon fill="black" stroke="black" points="440.45,-530.31 442.37,-519.89 434.37,-526.84 440.45,-530.31"/>
<text xml:space="preserve" text-anchor="middle" x="449.41" y="-538.7" font-family="Helvetica,sans-Serif" font-size="14.00">False</text>
</g>
<!-- op_l_cmp&#45;&gt;op_key_access -->
<g id="edge19" class="edge">
<title>op_l_cmp&#45;&gt;op_key_access</title>
<path fill="none" stroke="black" d="M376.56,-573.89C366.29,-568.12 355.01,-560.67 346.27,-552 339.46,-545.23 333.48,-536.7 328.62,-528.58"/>
<polygon fill="black" stroke="black" points="331.76,-527.01 323.83,-519.98 325.64,-530.42 331.76,-527.01"/>
<text xml:space="preserve" text-anchor="middle" x="360.15" y="-538.7" font-family="Helvetica,sans-Serif" font-size="14.00">True</text>
</g>
<!-- op_key_access&#45;&gt;op_cond -->
<g id="edge3" class="edge">
<title>op_key_access&#45;&gt;op_cond</title>
<path fill="none" stroke="black" d="M292.51,-482.06C280.83,-473.15 266.37,-462.11 253.59,-452.35"/>
<polygon fill="black" stroke="black" points="255.92,-449.73 245.85,-446.44 251.68,-455.29 255.92,-449.73"/>
</g>
<!-- op_cond&#45;&gt;op_return_val -->
<g id="edge4" class="edge">
<title>op_cond&#45;&gt;op_return_val</title>
<path fill="none" stroke="black" d="M200.98,-408.9C185.61,-396.23 164.58,-378.89 147.53,-364.83"/>
<polygon fill="black" stroke="black" points="150.15,-362.45 140.2,-358.79 145.69,-367.85 150.15,-362.45"/>
<text xml:space="preserve" text-anchor="middle" x="193.21" y="-377.95" font-family="Helvetica,sans-Serif" font-size="14.00">True</text>
</g>
</g>
</svg>
