<?xml version="1.0" encoding="UTF-8" standalone="no"?>
<!DOCTYPE svg PUBLIC "-//W3C//DTD SVG 1.1//EN"
 "http://www.w3.org/Graphics/SVG/1.1/DTD/svg11.dtd">
<!-- Generated by graphviz version 13.1.2 (20250808.2320)
 -->
<!-- Title: main Pages: 1 -->
<svg width="113pt" height="332pt"
 viewBox="0.00 0.00 113.00 332.00" xmlns="http://www.w3.org/2000/svg" xmlns:xlink="http://www.w3.org/1999/xlink">
<g id="graph0" class="graph" transform="scale(1 1) rotate(0) translate(4 328)">
<title>main</title>
<polygon fill="white" stroke="none" points="-4,4 -4,-328 108.75,-328 108.75,4 -4,4"/>
<!-- start -->
<g id="node1" class="node">
<title>start</title>
<ellipse fill="none" stroke="black" cx="52.38" cy="-306" rx="52.38" ry="18"/>
<text xml:space="preserve" text-anchor="middle" x="52.38" y="-300.95" font-family="Times New Roman,serif" font-size="14.00">main: Start</text>
</g>
<!-- n1 -->
<g id="node3" class="node">
<title>n1</title>
<polygon fill="none" stroke="black" points="87.38,-252 17.38,-252 17.38,-216 87.38,-216 87.38,-252"/>
<text xml:space="preserve" text-anchor="middle" x="52.38" y="-228.95" font-family="Times New Roman,serif" font-size="14.00">InitSeed()</text>
</g>
<!-- start&#45;&gt;n1 -->
<g id="edge1" class="edge">
<title>start&#45;&gt;n1</title>
<path fill="none" stroke="black" d="M52.38,-287.7C52.38,-280.41 52.38,-271.73 52.38,-263.54"/>
<polygon fill="black" stroke="black" points="55.88,-263.62 52.38,-253.62 48.88,-263.62 55.88,-263.62"/>
</g>
<!-- end -->
<g id="node2" class="node">
<title>end</title>
<ellipse fill="none" stroke="black" cx="52.38" cy="-18" rx="49.82" ry="18"/>
<text xml:space="preserve" text-anchor="middle" x="52.38" y="-12.95" font-family="Times New Roman,serif" font-size="14.00">main: End</text>
</g>
<!-- n2 -->
<g id="node4" class="node">
<title>n2</title>
<polygon fill="none" stroke="black" points="91.88,-180 12.88,-180 12.88,-144 91.88,-144 91.88,-180"/>
<text xml:space="preserve" text-anchor="middle" x="52.38" y="-156.95" font-family="Times New Roman,serif" font-size="14.00">Test(Array)</text>
</g>
<!-- n1&#45;&gt;n2 -->
<g id="edge2" class="edge">
<title>n1&#45;&gt;n2</title>
<path fill="none" stroke="black" d="M52.38,-215.7C52.38,-208.41 52.38,-199.73 52.38,-191.54"/>
<polygon fill="black" stroke="black" points="55.88,-191.62 52.38,-181.62 48.88,-191.62 55.88,-191.62"/>
</g>
<!-- n3 -->
<g id="node5" class="node">
<title>n3</title>
<polygon fill="none" stroke="black" points="81.75,-108 23,-108 23,-72 81.75,-72 81.75,-108"/>
<text xml:space="preserve" text-anchor="middle" x="52.38" y="-84.95" font-family="Times New Roman,serif" font-size="14.00">return 1</text>
</g>
<!-- n2&#45;&gt;n3 -->
<g id="edge3" class="edge">
<title>n2&#45;&gt;n3</title>
<path fill="none" stroke="black" d="M52.38,-143.7C52.38,-136.41 52.38,-127.73 52.38,-119.54"/>
<polygon fill="black" stroke="black" points="55.88,-119.62 52.38,-109.62 48.88,-119.62 55.88,-119.62"/>
</g>
<!-- n3&#45;&gt;end -->
<g id="edge4" class="edge">
<title>n3&#45;&gt;end</title>
<path fill="none" stroke="black" d="M52.38,-71.7C52.38,-64.41 52.38,-55.73 52.38,-47.54"/>
<polygon fill="black" stroke="black" points="55.88,-47.62 52.38,-37.62 48.88,-47.62 55.88,-47.62"/>
</g>
</g>
</svg>
