<?xml version="1.0" encoding="UTF-8" standalone="no"?>
<!DOCTYPE svg PUBLIC "-//W3C//DTD SVG 1.1//EN"
 "http://www.w3.org/Graphics/SVG/1.1/DTD/svg11.dtd">
<!-- Generated by graphviz version 13.1.2 (20250808.2320)
 -->
<!-- Title: encode_DCFG Pages: 1 -->
<svg width="511pt" height="1878pt"
 viewBox="0.00 0.00 511.00 1878.00" xmlns="http://www.w3.org/2000/svg" xmlns:xlink="http://www.w3.org/1999/xlink">
<g id="graph0" class="graph" transform="scale(1 1) rotate(0) translate(4 1874)">
<title>encode_DCFG</title>
<polygon fill="white" stroke="none" points="-4,4 -4,-1874 506.75,-1874 506.75,4 -4,4"/>
<!-- 1 -->
<g id="node1" class="node">
<title>1</title>
<polygon fill="none" stroke="black" points="380.25,-1870 108.5,-1870 108.5,-1812.5 380.25,-1812.5 380.25,-1870"/>
<text xml:space="preserve" text-anchor="middle" x="244.38" y="-1852.7" font-family="Courier,monospace" font-size="14.00">Inicio encode</text>
<text xml:space="preserve" text-anchor="middle" x="244.38" y="-1836.2" font-family="Courier,monospace" font-size="14.00">Def: i, h_ptr, tqmf_ptr, xa, xb</text>
<text xml:space="preserve" text-anchor="middle" x="244.38" y="-1819.7" font-family="Courier,monospace" font-size="14.00">Use: h, tqmf</text>
</g>
<!-- 2 -->
<g id="node2" class="node">
<title>2</title>
<polygon fill="none" stroke="black" points="334.88,-1775.5 153.88,-1775.5 153.88,-1718 334.88,-1718 334.88,-1775.5"/>
<text xml:space="preserve" text-anchor="middle" x="244.38" y="-1758.2" font-family="Courier,monospace" font-size="14.00">Loop: i=0 a 10</text>
<text xml:space="preserve" text-anchor="middle" x="244.38" y="-1741.7" font-family="Courier,monospace" font-size="14.00">Def: xa, xb, i</text>
<text xml:space="preserve" text-anchor="middle" x="244.38" y="-1725.2" font-family="Courier,monospace" font-size="14.00">Use: tqmf_ptr, h_ptr</text>
</g>
<!-- 1&#45;&gt;2 -->
<g id="edge1" class="edge">
<title>1&#45;&gt;2</title>
<path fill="none" stroke="black" d="M244.38,-1812.25C244.38,-1804.44 244.38,-1795.81 244.38,-1787.46"/>
<polygon fill="black" stroke="black" points="247.88,-1787.49 244.38,-1777.49 240.88,-1787.49 247.88,-1787.49"/>
</g>
<!-- 3 -->
<g id="node3" class="node">
<title>3</title>
<polygon fill="none" stroke="black" points="334.88,-1681 153.88,-1681 153.88,-1623.5 334.88,-1623.5 334.88,-1681"/>
<text xml:space="preserve" text-anchor="middle" x="244.38" y="-1663.7" font-family="Courier,monospace" font-size="14.00">Atualiza xa, xb</text>
<text xml:space="preserve" text-anchor="middle" x="244.38" y="-1647.2" font-family="Courier,monospace" font-size="14.00">Def: xa, xb</text>
<text xml:space="preserve" text-anchor="middle" x="244.38" y="-1630.7" font-family="Courier,monospace" font-size="14.00">Use: tqmf_ptr, h_ptr</text>
</g>
<!-- 2&#45;&gt;3 -->
<g id="edge2" class="edge">
<title>2&#45;&gt;3</title>
<path fill="none" stroke="black" d="M244.38,-1717.75C244.38,-1709.94 244.38,-1701.31 244.38,-1692.96"/>
<polygon fill="black" stroke="black" points="247.88,-1692.99 244.38,-1682.99 240.88,-1692.99 247.88,-1692.99"/>
</g>
<!-- 4 -->
<g id="node4" class="node">
<title>4</title>
<polygon fill="none" stroke="black" points="306,-1586.5 182.75,-1586.5 182.75,-1529 306,-1529 306,-1586.5"/>
<text xml:space="preserve" text-anchor="middle" x="244.38" y="-1569.2" font-family="Courier,monospace" font-size="14.00">Atualiza tqmf</text>
<text xml:space="preserve" text-anchor="middle" x="244.38" y="-1552.7" font-family="Courier,monospace" font-size="14.00">Def: tqmf</text>
<text xml:space="preserve" text-anchor="middle" x="244.38" y="-1536.2" font-family="Courier,monospace" font-size="14.00">Use: tqmf_ptr</text>
</g>
<!-- 3&#45;&gt;4 -->
<g id="edge3" class="edge">
<title>3&#45;&gt;4</title>
<path fill="none" stroke="black" d="M244.38,-1623.25C244.38,-1615.44 244.38,-1606.81 244.38,-1598.46"/>
<polygon fill="black" stroke="black" points="247.88,-1598.49 244.38,-1588.49 240.88,-1598.49 247.88,-1598.49"/>
</g>
<!-- 5 -->
<g id="node5" class="node">
<title>5</title>
<polygon fill="none" stroke="black" points="310.12,-1492 178.62,-1492 178.62,-1434.5 310.12,-1434.5 310.12,-1492"/>
<text xml:space="preserve" text-anchor="middle" x="244.38" y="-1474.7" font-family="Courier,monospace" font-size="14.00">Calcula xl, xh</text>
<text xml:space="preserve" text-anchor="middle" x="244.38" y="-1458.2" font-family="Courier,monospace" font-size="14.00">Def: xl, xh</text>
<text xml:space="preserve" text-anchor="middle" x="244.38" y="-1441.7" font-family="Courier,monospace" font-size="14.00">Use: xa, xb</text>
</g>
<!-- 4&#45;&gt;5 -->
<g id="edge4" class="edge">
<title>4&#45;&gt;5</title>
<path fill="none" stroke="black" d="M244.38,-1528.75C244.38,-1520.94 244.38,-1512.31 244.38,-1503.96"/>
<polygon fill="black" stroke="black" points="247.88,-1503.99 244.38,-1493.99 240.88,-1503.99 247.88,-1503.99"/>
</g>
<!-- 6 -->
<g id="node6" class="node">
<title>6</title>
<polygon fill="none" stroke="black" points="466.88,-1382 21.88,-1382 21.88,-1324.5 466.88,-1324.5 466.88,-1382"/>
<text xml:space="preserve" text-anchor="middle" x="244.38" y="-1364.7" font-family="Courier,monospace" font-size="14.00">Chama filtez, filtep</text>
<text xml:space="preserve" text-anchor="middle" x="244.38" y="-1348.2" font-family="Courier,monospace" font-size="14.00">Def: szl, spl, sl, el</text>
<text xml:space="preserve" text-anchor="middle" x="244.38" y="-1331.7" font-family="Courier,monospace" font-size="14.00">Use: delay_bpl, delay_dltx, rlt1, al1, rlt2, al2, xl</text>
</g>
<!-- 5&#45;&gt;6 -->
<g id="edge5" class="edge">
<title>5&#45;&gt;6</title>
<path fill="none" stroke="black" d="M242.95,-1434.19C242.71,-1428.35 242.5,-1422.22 242.38,-1416.5 242.22,-1409.19 242.28,-1401.4 242.46,-1393.9"/>
<polygon fill="black" stroke="black" points="245.96,-1394.07 242.78,-1383.96 238.96,-1393.84 245.96,-1394.07"/>
</g>
<!-- 5&#45;&gt;6 -->
<g id="edge23" class="edge">
<title>5&#45;&gt;6</title>
<path fill="none" stroke="blue" stroke-dasharray="5,2" d="M244.38,-1434.16C244.38,-1421.78 244.38,-1407.03 244.38,-1393.59"/>
<polygon fill="blue" stroke="blue" points="247.88,-1393.72 244.38,-1383.72 240.88,-1393.72 247.88,-1393.72"/>
<text xml:space="preserve" text-anchor="middle" x="269.12" y="-1403.2" font-family="Times New Roman,serif" font-size="14.00">dados: xl</text>
</g>
<!-- 7 -->
<g id="node7" class="node">
<title>7</title>
<polygon fill="none" stroke="black" points="306,-1272 182.75,-1272 182.75,-1214.5 306,-1214.5 306,-1272"/>
<text xml:space="preserve" text-anchor="middle" x="244.38" y="-1254.7" font-family="Courier,monospace" font-size="14.00">Chama quantl</text>
<text xml:space="preserve" text-anchor="middle" x="244.38" y="-1238.2" font-family="Courier,monospace" font-size="14.00">Def: il, dlt</text>
<text xml:space="preserve" text-anchor="middle" x="244.38" y="-1221.7" font-family="Courier,monospace" font-size="14.00">Use: el, detl</text>
</g>
<!-- 6&#45;&gt;7 -->
<g id="edge6" class="edge">
<title>6&#45;&gt;7</title>
<path fill="none" stroke="black" d="M242.95,-1324.19C242.71,-1318.35 242.5,-1312.22 242.38,-1306.5 242.22,-1299.19 242.28,-1291.4 242.46,-1283.9"/>
<polygon fill="black" stroke="black" points="245.96,-1284.07 242.78,-1273.96 238.96,-1283.84 245.96,-1284.07"/>
</g>
<!-- 6&#45;&gt;7 -->
<g id="edge24" class="edge">
<title>6&#45;&gt;7</title>
<path fill="none" stroke="blue" stroke-dasharray="5,2" d="M244.38,-1324.16C244.38,-1311.78 244.38,-1297.03 244.38,-1283.59"/>
<polygon fill="blue" stroke="blue" points="247.88,-1283.72 244.38,-1273.72 240.88,-1283.72 247.88,-1283.72"/>
<text xml:space="preserve" text-anchor="middle" x="268.75" y="-1293.2" font-family="Times New Roman,serif" font-size="14.00">dados: el</text>
</g>
<!-- 8 -->
<g id="node8" class="node">
<title>8</title>
<polygon fill="none" stroke="black" points="326.62,-1177.5 162.12,-1177.5 162.12,-1120 326.62,-1120 326.62,-1177.5"/>
<text xml:space="preserve" text-anchor="middle" x="244.38" y="-1160.2" font-family="Courier,monospace" font-size="14.00">Atualiza nbl, detl</text>
<text xml:space="preserve" text-anchor="middle" x="244.38" y="-1143.7" font-family="Courier,monospace" font-size="14.00">Def: nbl, detl</text>
<text xml:space="preserve" text-anchor="middle" x="244.38" y="-1127.2" font-family="Courier,monospace" font-size="14.00">Use: il, nbl</text>
</g>
<!-- 7&#45;&gt;8 -->
<g id="edge7" class="edge">
<title>7&#45;&gt;8</title>
<path fill="none" stroke="black" d="M244.38,-1214.25C244.38,-1206.44 244.38,-1197.81 244.38,-1189.46"/>
<polygon fill="black" stroke="black" points="247.88,-1189.49 244.38,-1179.49 240.88,-1189.49 247.88,-1189.49"/>
</g>
<!-- 9 -->
<g id="node9" class="node">
<title>9</title>
<polygon fill="none" stroke="black" points="306,-1083 182.75,-1083 182.75,-1025.5 306,-1025.5 306,-1083"/>
<text xml:space="preserve" text-anchor="middle" x="244.38" y="-1065.7" font-family="Courier,monospace" font-size="14.00">Calcula plt</text>
<text xml:space="preserve" text-anchor="middle" x="244.38" y="-1049.2" font-family="Courier,monospace" font-size="14.00">Def: plt</text>
<text xml:space="preserve" text-anchor="middle" x="244.38" y="-1032.7" font-family="Courier,monospace" font-size="14.00">Use: dlt, szl</text>
</g>
<!-- 8&#45;&gt;9 -->
<g id="edge8" class="edge">
<title>8&#45;&gt;9</title>
<path fill="none" stroke="black" d="M244.38,-1119.75C244.38,-1111.94 244.38,-1103.31 244.38,-1094.96"/>
<polygon fill="black" stroke="black" points="247.88,-1094.99 244.38,-1084.99 240.88,-1094.99 247.88,-1094.99"/>
</g>
<!-- 10 -->
<g id="node10" class="node">
<title>10</title>
<polygon fill="none" stroke="black" points="359.62,-988.5 129.12,-988.5 129.12,-931 359.62,-931 359.62,-988.5"/>
<text xml:space="preserve" text-anchor="middle" x="244.38" y="-971.2" font-family="Courier,monospace" font-size="14.00">Chama upzero</text>
<text xml:space="preserve" text-anchor="middle" x="244.38" y="-954.7" font-family="Courier,monospace" font-size="14.00">Def: delay_dltx, delay_bpl</text>
<text xml:space="preserve" text-anchor="middle" x="244.38" y="-938.2" font-family="Courier,monospace" font-size="14.00">Use: dlt</text>
</g>
<!-- 9&#45;&gt;10 -->
<g id="edge9" class="edge">
<title>9&#45;&gt;10</title>
<path fill="none" stroke="black" d="M244.38,-1025.25C244.38,-1017.44 244.38,-1008.81 244.38,-1000.46"/>
<polygon fill="black" stroke="black" points="247.88,-1000.49 244.38,-990.49 240.88,-1000.49 247.88,-1000.49"/>
</g>
<!-- 11 -->
<g id="node11" class="node">
<title>11</title>
<polygon fill="none" stroke="black" points="425.62,-894 63.12,-894 63.12,-836.5 425.62,-836.5 425.62,-894"/>
<text xml:space="preserve" text-anchor="middle" x="244.38" y="-876.7" font-family="Courier,monospace" font-size="14.00">Chama uppol2, uppol1</text>
<text xml:space="preserve" text-anchor="middle" x="244.38" y="-860.2" font-family="Courier,monospace" font-size="14.00">Def: al2, al1, rlt, rlt1, rlt2, plt1, plt2</text>
<text xml:space="preserve" text-anchor="middle" x="244.38" y="-843.7" font-family="Courier,monospace" font-size="14.00">Use: al1, al2, plt, plt1, plt2</text>
</g>
<!-- 10&#45;&gt;11 -->
<g id="edge10" class="edge">
<title>10&#45;&gt;11</title>
<path fill="none" stroke="black" d="M244.38,-930.75C244.38,-922.94 244.38,-914.31 244.38,-905.96"/>
<polygon fill="black" stroke="black" points="247.88,-905.99 244.38,-895.99 240.88,-905.99 247.88,-905.99"/>
</g>
<!-- 12 -->
<g id="node12" class="node">
<title>12</title>
<polygon fill="none" stroke="black" points="454.5,-799.5 34.25,-799.5 34.25,-742 454.5,-742 454.5,-799.5"/>
<text xml:space="preserve" text-anchor="middle" x="244.38" y="-782.2" font-family="Courier,monospace" font-size="14.00">Calcula szh, sph, sh, eh</text>
<text xml:space="preserve" text-anchor="middle" x="244.38" y="-765.7" font-family="Courier,monospace" font-size="14.00">Def: szh, sph, sh, eh</text>
<text xml:space="preserve" text-anchor="middle" x="244.38" y="-749.2" font-family="Courier,monospace" font-size="14.00">Use: delay_bph, delay_dhx, rh1, ah1, rh2, ah2, xh</text>
</g>
<!-- 11&#45;&gt;12 -->
<g id="edge11" class="edge">
<title>11&#45;&gt;12</title>
<path fill="none" stroke="black" d="M244.38,-836.25C244.38,-828.44 244.38,-819.81 244.38,-811.46"/>
<polygon fill="black" stroke="black" points="247.88,-811.49 244.38,-801.49 240.88,-811.49 247.88,-811.49"/>
</g>
<!-- 13 -->
<g id="node13" class="node">
<title>13</title>
<polygon fill="none" stroke="black" points="301.88,-689.5 186.88,-689.5 186.88,-632 301.88,-632 301.88,-689.5"/>
<text xml:space="preserve" text-anchor="middle" x="244.38" y="-672.2" font-family="Courier,monospace" font-size="14.00">if (eh &gt;= 0)</text>
<text xml:space="preserve" text-anchor="middle" x="244.38" y="-655.7" font-family="Courier,monospace" font-size="14.00">Def: ih</text>
<text xml:space="preserve" text-anchor="middle" x="244.38" y="-639.2" font-family="Courier,monospace" font-size="14.00">Use: eh</text>
</g>
<!-- 12&#45;&gt;13 -->
<g id="edge12" class="edge">
<title>12&#45;&gt;13</title>
<path fill="none" stroke="black" d="M242.95,-741.69C242.71,-735.85 242.5,-729.72 242.38,-724 242.22,-716.69 242.28,-708.9 242.46,-701.4"/>
<polygon fill="black" stroke="black" points="245.96,-701.57 242.78,-691.46 238.96,-701.34 245.96,-701.57"/>
</g>
<!-- 12&#45;&gt;13 -->
<g id="edge25" class="edge">
<title>12&#45;&gt;13</title>
<path fill="none" stroke="blue" stroke-dasharray="5,2" d="M244.38,-741.66C244.38,-729.28 244.38,-714.53 244.38,-701.09"/>
<polygon fill="blue" stroke="blue" points="247.88,-701.22 244.38,-691.22 240.88,-701.22 247.88,-701.22"/>
<text xml:space="preserve" text-anchor="middle" x="270.25" y="-710.7" font-family="Times New Roman,serif" font-size="14.00">dados: eh</text>
</g>
<!-- 14 -->
<g id="node14" class="node">
<title>14</title>
<polygon fill="none" stroke="black" points="236.12,-579.5 170.62,-579.5 170.62,-543.5 236.12,-543.5 236.12,-579.5"/>
<text xml:space="preserve" text-anchor="middle" x="203.38" y="-556.45" font-family="Courier,monospace" font-size="14.00">ih = 3</text>
</g>
<!-- 13&#45;&gt;14 -->
<g id="edge13" class="edge">
<title>13&#45;&gt;14</title>
<path fill="none" stroke="black" d="M225.91,-631.86C222.59,-626.11 219.39,-619.98 216.88,-614 213.78,-606.65 211.23,-598.4 209.22,-590.69"/>
<polygon fill="black" stroke="black" points="212.65,-589.99 206.93,-581.07 205.84,-591.61 212.65,-589.99"/>
<text xml:space="preserve" text-anchor="middle" x="238.62" y="-600.7" font-family="Times New Roman,serif" font-size="14.00">eh &gt;= 0</text>
</g>
<!-- 15 -->
<g id="node15" class="node">
<title>15</title>
<polygon fill="none" stroke="black" points="320.12,-579.5 254.62,-579.5 254.62,-543.5 320.12,-543.5 320.12,-579.5"/>
<text xml:space="preserve" text-anchor="middle" x="287.38" y="-556.45" font-family="Courier,monospace" font-size="14.00">ih = 1</text>
</g>
<!-- 13&#45;&gt;15 -->
<g id="edge14" class="edge">
<title>13&#45;&gt;15</title>
<path fill="none" stroke="black" d="M256.81,-631.62C262.59,-618.56 269.43,-603.09 275.17,-590.09"/>
<polygon fill="black" stroke="black" points="278.24,-591.82 279.08,-581.25 271.84,-588.99 278.24,-591.82"/>
<text xml:space="preserve" text-anchor="middle" x="288.62" y="-600.7" font-family="Times New Roman,serif" font-size="14.00">eh &lt; 0</text>
</g>
<!-- 16 -->
<g id="node16" class="node">
<title>16</title>
<polygon fill="none" stroke="black" points="306,-506.5 182.75,-506.5 182.75,-449 306,-449 306,-506.5"/>
<text xml:space="preserve" text-anchor="middle" x="244.38" y="-489.2" font-family="Courier,monospace" font-size="14.00">Calcula decis</text>
<text xml:space="preserve" text-anchor="middle" x="244.38" y="-472.7" font-family="Courier,monospace" font-size="14.00">Def: decis</text>
<text xml:space="preserve" text-anchor="middle" x="244.38" y="-456.2" font-family="Courier,monospace" font-size="14.00">Use: deth, eh</text>
</g>
<!-- 14&#45;&gt;16 -->
<g id="edge15" class="edge">
<title>14&#45;&gt;16</title>
<path fill="none" stroke="black" d="M212.07,-543.16C215.9,-535.53 220.55,-526.25 225.13,-517.13"/>
<polygon fill="black" stroke="black" points="228.17,-518.86 229.53,-508.35 221.92,-515.72 228.17,-518.86"/>
</g>
<!-- 15&#45;&gt;16 -->
<g id="edge16" class="edge">
<title>15&#45;&gt;16</title>
<path fill="none" stroke="black" d="M278.26,-543.16C274.24,-535.53 269.36,-526.25 264.56,-517.13"/>
<polygon fill="black" stroke="black" points="267.69,-515.56 259.94,-508.34 261.5,-518.82 267.69,-515.56"/>
</g>
<!-- 17 -->
<g id="node17" class="node">
<title>17</title>
<polygon fill="none" stroke="black" points="322.5,-396.5 166.25,-396.5 166.25,-355.5 322.5,-355.5 322.5,-396.5"/>
<text xml:space="preserve" text-anchor="middle" x="244.38" y="-379.2" font-family="Courier,monospace" font-size="14.00">if (|eh| &gt; decis)</text>
<text xml:space="preserve" text-anchor="middle" x="244.38" y="-362.7" font-family="Courier,monospace" font-size="14.00">Use: eh, decis</text>
</g>
<!-- 16&#45;&gt;17 -->
<g id="edge17" class="edge">
<title>16&#45;&gt;17</title>
<path fill="none" stroke="black" d="M242.77,-448.55C242.34,-437.88 242.08,-425.63 242.38,-414.5 242.43,-412.44 242.5,-410.31 242.59,-408.17"/>
<polygon fill="black" stroke="black" points="246.07,-408.51 243.05,-398.35 239.08,-408.18 246.07,-408.51"/>
</g>
<!-- 16&#45;&gt;17 -->
<g id="edge26" class="edge">
<title>16&#45;&gt;17</title>
<path fill="none" stroke="blue" stroke-dasharray="5,2" d="M244.38,-448.7C244.38,-436.08 244.38,-421.14 244.38,-408.17"/>
<polygon fill="blue" stroke="blue" points="247.88,-408.46 244.38,-398.46 240.88,-408.46 247.88,-408.46"/>
<text xml:space="preserve" text-anchor="middle" x="277.75" y="-417.7" font-family="Times New Roman,serif" font-size="14.00">dados: decis</text>
</g>
<!-- 18 -->
<g id="node18" class="node">
<title>18</title>
<polygon fill="none" stroke="black" points="240.38,-303 186.38,-303 186.38,-267 240.38,-267 240.38,-303"/>
<text xml:space="preserve" text-anchor="middle" x="213.38" y="-279.95" font-family="Courier,monospace" font-size="14.00">ih&#45;&#45;</text>
</g>
<!-- 17&#45;&gt;18 -->
<g id="edge18" class="edge">
<title>17&#45;&gt;18</title>
<path fill="none" stroke="black" d="M218.97,-355.02C214.15,-349.87 209.78,-343.95 207.12,-337.5 204.16,-330.31 203.91,-322.12 204.87,-314.41"/>
<polygon fill="black" stroke="black" points="208.27,-315.25 206.79,-304.76 201.41,-313.89 208.27,-315.25"/>
<text xml:space="preserve" text-anchor="middle" x="238.25" y="-324.2" font-family="Times New Roman,serif" font-size="14.00">|eh| &gt; decis</text>
</g>
<!-- 19 -->
<g id="node19" class="node">
<title>19</title>
<polygon fill="none" stroke="black" points="362.5,-230 140.25,-230 140.25,-172.5 362.5,-172.5 362.5,-230"/>
<text xml:space="preserve" text-anchor="middle" x="251.38" y="-212.7" font-family="Courier,monospace" font-size="14.00">Calcula dh, nbh, deth, ph</text>
<text xml:space="preserve" text-anchor="middle" x="251.38" y="-196.2" font-family="Courier,monospace" font-size="14.00">Def: dh, nbh, deth, ph</text>
<text xml:space="preserve" text-anchor="middle" x="251.38" y="-179.7" font-family="Courier,monospace" font-size="14.00">Use: ih, deth</text>
</g>
<!-- 17&#45;&gt;19 -->
<g id="edge19" class="edge">
<title>17&#45;&gt;19</title>
<path fill="none" stroke="black" d="M260.75,-355.09C264.28,-349.7 267.52,-343.64 269.38,-337.5 278.97,-305.82 272.72,-268.42 265.07,-240.99"/>
<polygon fill="black" stroke="black" points="268.52,-240.29 262.3,-231.71 261.81,-242.3 268.52,-240.29"/>
<text xml:space="preserve" text-anchor="middle" x="309.5" y="-279.95" font-family="Times New Roman,serif" font-size="14.00">|eh| &lt;= decis</text>
</g>
<!-- 18&#45;&gt;19 -->
<g id="edge20" class="edge">
<title>18&#45;&gt;19</title>
<path fill="none" stroke="black" d="M221.43,-266.66C224.94,-259.12 229.2,-249.95 233.4,-240.92"/>
<polygon fill="black" stroke="black" points="236.56,-242.41 237.61,-231.87 230.22,-239.46 236.56,-242.41"/>
</g>
<!-- 20 -->
<g id="node20" class="node">
<title>20</title>
<polygon fill="none" stroke="black" points="502.75,-135.5 0,-135.5 0,-78 502.75,-78 502.75,-135.5"/>
<text xml:space="preserve" text-anchor="middle" x="251.38" y="-118.2" font-family="Courier,monospace" font-size="14.00">Chama upzero, uppol2, uppol1</text>
<text xml:space="preserve" text-anchor="middle" x="251.38" y="-101.7" font-family="Courier,monospace" font-size="14.00">Def: delay_dhx, delay_bph, ah2, ah1, yh, rh1, rh2, ph1, ph2</text>
<text xml:space="preserve" text-anchor="middle" x="251.38" y="-85.2" font-family="Courier,monospace" font-size="14.00">Use: dh, ah1, ah2, ph, ph1</text>
</g>
<!-- 19&#45;&gt;20 -->
<g id="edge21" class="edge">
<title>19&#45;&gt;20</title>
<path fill="none" stroke="black" d="M251.38,-172.25C251.38,-164.44 251.38,-155.81 251.38,-147.46"/>
<polygon fill="black" stroke="black" points="254.88,-147.49 251.38,-137.49 247.88,-147.49 254.88,-147.49"/>
</g>
<!-- 21 -->
<g id="node21" class="node">
<title>21</title>
<polygon fill="none" stroke="black" points="304.75,-41 198,-41 198,0 304.75,0 304.75,-41"/>
<text xml:space="preserve" text-anchor="middle" x="251.38" y="-23.7" font-family="Courier,monospace" font-size="14.00">Retorno</text>
<text xml:space="preserve" text-anchor="middle" x="251.38" y="-7.2" font-family="Courier,monospace" font-size="14.00">Use: il, ih</text>
</g>
<!-- 20&#45;&gt;21 -->
<g id="edge22" class="edge">
<title>20&#45;&gt;21</title>
<path fill="none" stroke="black" d="M251.38,-77.7C251.38,-69.72 251.38,-60.98 251.38,-52.83"/>
<polygon fill="black" stroke="black" points="254.88,-52.96 251.38,-42.96 247.88,-52.96 254.88,-52.96"/>
</g>
</g>
</svg>
