<?xml version="1.0" encoding="UTF-8" standalone="no"?>
<!DOCTYPE svg PUBLIC "-//W3C//DTD SVG 1.1//EN"
 "http://www.w3.org/Graphics/SVG/1.1/DTD/svg11.dtd">
<!-- Generated by graphviz version 13.1.2 (20250808.2320)
 -->
<!-- Title: InitSeed_CFG Pages: 1 -->
<svg width="98pt" height="116pt"
 viewBox="0.00 0.00 98.00 116.00" xmlns="http://www.w3.org/2000/svg" xmlns:xlink="http://www.w3.org/1999/xlink">
<g id="graph0" class="graph" transform="scale(1 1) rotate(0) translate(4 112)">
<title>InitSeed_CFG</title>
<polygon fill="white" stroke="none" points="-4,4 -4,-112 93.5,-112 93.5,4 -4,4"/>
<!-- N1 -->
<g id="node1" class="node">
<title>N1</title>
<path fill="none" stroke="black" d="M77.5,-108C77.5,-108 12,-108 12,-108 6,-108 0,-102 0,-96 0,-96 0,-84 0,-84 0,-78 6,-72 12,-72 12,-72 77.5,-72 77.5,-72 83.5,-72 89.5,-78 89.5,-84 89.5,-84 89.5,-96 89.5,-96 89.5,-102 83.5,-108 77.5,-108"/>
<text xml:space="preserve" text-anchor="middle" x="44.75" y="-84.58" font-family="Helvetica,sans-Serif" font-size="14.00">1: Seed = 0;</text>
</g>
<!-- N2 -->
<g id="node2" class="node">
<title>N2</title>
<path fill="none" stroke="black" d="M73.38,-36C73.38,-36 16.12,-36 16.12,-36 10.12,-36 4.12,-30 4.12,-24 4.12,-24 4.12,-12 4.12,-12 4.12,-6 10.12,0 16.12,0 16.12,0 73.38,0 73.38,0 79.38,0 85.38,-6 85.38,-12 85.38,-12 85.38,-24 85.38,-24 85.38,-30 79.38,-36 73.38,-36"/>
<text xml:space="preserve" text-anchor="middle" x="44.75" y="-12.57" font-family="Helvetica,sans-Serif" font-size="14.00">2: return 0;</text>
</g>
<!-- N1&#45;&gt;N2 -->
<g id="edge1" class="edge">
<title>N1&#45;&gt;N2</title>
<path fill="none" stroke="black" d="M44.75,-71.7C44.75,-64.41 44.75,-55.73 44.75,-47.54"/>
<polygon fill="black" stroke="black" points="48.25,-47.62 44.75,-37.62 41.25,-47.62 48.25,-47.62"/>
</g>
</g>
</svg>
