<?xml version="1.0" encoding="UTF-8" standalone="no"?>
<!DOCTYPE svg PUBLIC "-//W3C//DTD SVG 1.1//EN"
 "http://www.w3.org/Graphics/SVG/1.1/DTD/svg11.dtd">
<!-- Generated by graphviz version 13.1.2 (20250808.2320)
 -->
<!-- Title: Initialize_DFG Pages: 1 -->
<svg width="519pt" height="487pt"
 viewBox="0.00 0.00 519.00 487.00" xmlns="http://www.w3.org/2000/svg" xmlns:xlink="http://www.w3.org/1999/xlink">
<g id="graph0" class="graph" transform="scale(1 1) rotate(0) translate(4 482.5)">
<title>Initialize_DFG</title>
<polygon fill="white" stroke="none" points="-4,4 -4,-482.5 515.4,-482.5 515.4,4 -4,4"/>
<!-- N2 -->
<g id="node1" class="node">
<title>N2</title>
<path fill="none" stroke="black" d="M423.88,-478.5C423.88,-478.5 341.12,-478.5 341.12,-478.5 335.12,-478.5 329.12,-472.5 329.12,-466.5 329.12,-466.5 329.12,-454.5 329.12,-454.5 329.12,-448.5 335.12,-442.5 341.12,-442.5 341.12,-442.5 423.88,-442.5 423.88,-442.5 429.88,-442.5 435.88,-448.5 435.88,-454.5 435.88,-454.5 435.88,-466.5 435.88,-466.5 435.88,-472.5 429.88,-478.5 423.88,-478.5"/>
<text xml:space="preserve" text-anchor="middle" x="382.5" y="-455.07" font-family="Helvetica,sans-Serif" font-size="14.00">OuterIndex = 0</text>
</g>
<!-- N3 -->
<g id="node2" class="node">
<title>N3</title>
<path fill="none" stroke="black" d="M453.88,-390C453.88,-390 311.12,-390 311.12,-390 305.12,-390 299.12,-384 299.12,-378 299.12,-378 299.12,-366 299.12,-366 299.12,-360 305.12,-354 311.12,-354 311.12,-354 453.88,-354 453.88,-354 459.88,-354 465.88,-360 465.88,-366 465.88,-366 465.88,-378 465.88,-378 465.88,-384 459.88,-390 453.88,-390"/>
<text xml:space="preserve" text-anchor="middle" x="382.5" y="-366.57" font-family="Helvetica,sans-Serif" font-size="14.00">OuterIndex &lt; MAXSIZE?</text>
</g>
<!-- N2&#45;&gt;N3 -->
<g id="edge1" class="edge">
<title>N2&#45;&gt;N3</title>
<path fill="none" stroke="black" d="M382.5,-442.41C382.5,-430.76 382.5,-415.05 382.5,-401.52"/>
<polygon fill="black" stroke="black" points="386,-401.86 382.5,-391.86 379,-401.86 386,-401.86"/>
<text xml:space="preserve" text-anchor="middle" x="413.25" y="-411.2" font-family="Times New Roman,serif" font-size="14.00">OuterIndex</text>
</g>
<!-- N4 -->
<g id="node3" class="node">
<title>N4</title>
<path fill="none" stroke="black" d="M337,-301.5C337,-301.5 258,-301.5 258,-301.5 252,-301.5 246,-295.5 246,-289.5 246,-289.5 246,-277.5 246,-277.5 246,-271.5 252,-265.5 258,-265.5 258,-265.5 337,-265.5 337,-265.5 343,-265.5 349,-271.5 349,-277.5 349,-277.5 349,-289.5 349,-289.5 349,-295.5 343,-301.5 337,-301.5"/>
<text xml:space="preserve" text-anchor="middle" x="297.5" y="-278.07" font-family="Helvetica,sans-Serif" font-size="14.00">InnerIndex = 0</text>
</g>
<!-- N3&#45;&gt;N4 -->
<g id="edge2" class="edge">
<title>N3&#45;&gt;N4</title>
<path fill="none" stroke="black" d="M335.02,-353.69C326.8,-348.97 318.99,-343.14 313,-336 307.53,-329.49 303.99,-321.09 301.7,-312.97"/>
<polygon fill="black" stroke="black" points="305.16,-312.38 299.56,-303.39 298.33,-313.91 305.16,-312.38"/>
<text xml:space="preserve" text-anchor="middle" x="343.75" y="-322.7" font-family="Times New Roman,serif" font-size="14.00">OuterIndex</text>
</g>
<!-- N8 -->
<g id="node7" class="node">
<title>N8</title>
<path fill="none" stroke="black" d="M480.5,-301.5C480.5,-301.5 404.5,-301.5 404.5,-301.5 398.5,-301.5 392.5,-295.5 392.5,-289.5 392.5,-289.5 392.5,-277.5 392.5,-277.5 392.5,-271.5 398.5,-265.5 404.5,-265.5 404.5,-265.5 480.5,-265.5 480.5,-265.5 486.5,-265.5 492.5,-271.5 492.5,-277.5 492.5,-277.5 492.5,-289.5 492.5,-289.5 492.5,-295.5 486.5,-301.5 480.5,-301.5"/>
<text xml:space="preserve" text-anchor="middle" x="442.5" y="-278.07" font-family="Helvetica,sans-Serif" font-size="14.00">OuterIndex++</text>
</g>
<!-- N3&#45;&gt;N8 -->
<g id="edge7" class="edge">
<title>N3&#45;&gt;N8</title>
<path fill="none" stroke="black" d="M379.01,-353.63C377.82,-343.06 378.03,-329.68 384,-319.5 386.26,-315.65 389.12,-312.17 392.37,-309.04"/>
<polygon fill="black" stroke="black" points="394.34,-311.94 399.9,-302.92 389.93,-306.51 394.34,-311.94"/>
<text xml:space="preserve" text-anchor="middle" x="414.75" y="-322.7" font-family="Times New Roman,serif" font-size="14.00">OuterIndex</text>
</g>
<!-- N5 -->
<g id="node4" class="node">
<title>N5</title>
<path fill="none" stroke="black" d="M367,-213C367,-213 228,-213 228,-213 222,-213 216,-207 216,-201 216,-201 216,-189 216,-189 216,-183 222,-177 228,-177 228,-177 367,-177 367,-177 373,-177 379,-183 379,-189 379,-189 379,-201 379,-201 379,-207 373,-213 367,-213"/>
<text xml:space="preserve" text-anchor="middle" x="297.5" y="-189.57" font-family="Helvetica,sans-Serif" font-size="14.00">InnerIndex &lt; MAXSIZE?</text>
</g>
<!-- N4&#45;&gt;N5 -->
<g id="edge3" class="edge">
<title>N4&#45;&gt;N5</title>
<path fill="none" stroke="black" d="M297.5,-265.41C297.5,-253.76 297.5,-238.05 297.5,-224.52"/>
<polygon fill="black" stroke="black" points="301,-224.86 297.5,-214.86 294,-224.86 301,-224.86"/>
<text xml:space="preserve" text-anchor="middle" x="327.12" y="-234.2" font-family="Times New Roman,serif" font-size="14.00">InnerIndex</text>
</g>
<!-- N6 -->
<g id="node5" class="node">
<title>N6</title>
<path fill="none" stroke="black" d="M301,-124.5C301,-124.5 12,-124.5 12,-124.5 6,-124.5 0,-118.5 0,-112.5 0,-112.5 0,-100.5 0,-100.5 0,-94.5 6,-88.5 12,-88.5 12,-88.5 301,-88.5 301,-88.5 307,-88.5 313,-94.5 313,-100.5 313,-100.5 313,-112.5 313,-112.5 313,-118.5 307,-124.5 301,-124.5"/>
<text xml:space="preserve" text-anchor="middle" x="156.5" y="-101.08" font-family="Helvetica,sans-Serif" font-size="14.00">Array[OuterIndex][InnerIndex] = RandomInteger()</text>
</g>
<!-- N5&#45;&gt;N6 -->
<g id="edge4" class="edge">
<title>N5&#45;&gt;N6</title>
<path fill="none" stroke="black" d="M269.31,-176.7C247.79,-163.5 217.93,-145.18 194.33,-130.71"/>
<polygon fill="black" stroke="black" points="196.29,-127.8 185.94,-125.56 192.63,-133.77 196.29,-127.8"/>
<text xml:space="preserve" text-anchor="middle" x="303.75" y="-145.7" font-family="Times New Roman,serif" font-size="14.00">OuterIndex, InnerIndex</text>
</g>
<!-- N6&#45;&gt;N6 -->
<g id="edge9" class="edge">
<title>N6&#45;&gt;N6</title>
<path fill="none" stroke="black" d="M313.28,-112.56C324.29,-111.18 331,-109.16 331,-106.5 331,-104.92 328.63,-103.57 324.41,-102.44"/>
<polygon fill="black" stroke="black" points="325.23,-99.03 314.77,-100.71 323.99,-105.92 325.23,-99.03"/>
<text xml:space="preserve" text-anchor="middle" x="367.38" y="-101.45" font-family="Times New Roman,serif" font-size="14.00">Seed (global)</text>
</g>
<!-- N7 -->
<g id="node6" class="node">
<title>N7</title>
<path fill="none" stroke="black" d="M334.62,-36C334.62,-36 262.38,-36 262.38,-36 256.38,-36 250.38,-30 250.38,-24 250.38,-24 250.38,-12 250.38,-12 250.38,-6 256.38,0 262.38,0 262.38,0 334.62,0 334.62,0 340.62,0 346.62,-6 346.62,-12 346.62,-12 346.62,-24 346.62,-24 346.62,-30 340.62,-36 334.62,-36"/>
<text xml:space="preserve" text-anchor="middle" x="298.5" y="-12.57" font-family="Helvetica,sans-Serif" font-size="14.00">InnerIndex++</text>
</g>
<!-- N6&#45;&gt;N7 -->
<g id="edge5" class="edge">
<title>N6&#45;&gt;N7</title>
<path fill="none" stroke="black" d="M184.89,-88.2C206.57,-75 236.64,-56.68 260.4,-42.21"/>
<polygon fill="black" stroke="black" points="262.14,-45.25 268.86,-37.05 258.5,-39.27 262.14,-45.25"/>
<text xml:space="preserve" text-anchor="middle" x="269.84" y="-57.2" font-family="Times New Roman,serif" font-size="14.00">InnerIndex</text>
</g>
<!-- N7&#45;&gt;N5 -->
<g id="edge6" class="edge">
<title>N7&#45;&gt;N5</title>
<path fill="none" stroke="black" d="M346.95,-35.39C371.24,-46.35 398.43,-63.44 412.5,-88.5 420.33,-102.45 419.25,-109.99 412.5,-124.5 402.69,-145.58 383.09,-160.78 362.81,-171.48"/>
<polygon fill="black" stroke="black" points="361.31,-168.32 353.87,-175.86 364.39,-174.6 361.31,-168.32"/>
<text xml:space="preserve" text-anchor="middle" x="447.6" y="-101.45" font-family="Times New Roman,serif" font-size="14.00">InnerIndex</text>
</g>
<!-- N8&#45;&gt;N3 -->
<g id="edge8" class="edge">
<title>N8&#45;&gt;N3</title>
<path fill="none" stroke="black" d="M448.15,-301.87C450.51,-312.44 451.5,-325.81 445.5,-336 443.21,-339.89 440.31,-343.38 437.03,-346.51"/>
<polygon fill="black" stroke="black" points="435.01,-343.64 429.36,-352.6 439.37,-349.12 435.01,-343.64"/>
<text xml:space="preserve" text-anchor="middle" x="480.65" y="-322.7" font-family="Times New Roman,serif" font-size="14.00">OuterIndex</text>
</g>
</g>
</svg>
