<?xml version="1.0" encoding="UTF-8" standalone="no"?>
<!DOCTYPE svg PUBLIC "-//W3C//DTD SVG 1.1//EN"
 "http://www.w3.org/Graphics/SVG/1.1/DTD/svg11.dtd">
<!-- Generated by graphviz version 13.1.2 (20250808.2320)
 -->
<!-- Title: InitSeed_DFG Pages: 1 -->
<svg width="116pt" height="133pt"
 viewBox="0.00 0.00 116.00 133.00" xmlns="http://www.w3.org/2000/svg" xmlns:xlink="http://www.w3.org/1999/xlink">
<g id="graph0" class="graph" transform="scale(1 1) rotate(0) translate(4 128.5)">
<title>InitSeed_DFG</title>
<polygon fill="white" stroke="none" points="-4,4 -4,-128.5 112.12,-128.5 112.12,4 -4,4"/>
<!-- N1 -->
<g id="node1" class="node">
<title>N1</title>
<path fill="none" stroke="black" d="M58.75,-124.5C58.75,-124.5 12,-124.5 12,-124.5 6,-124.5 0,-118.5 0,-112.5 0,-112.5 0,-100.5 0,-100.5 0,-94.5 6,-88.5 12,-88.5 12,-88.5 58.75,-88.5 58.75,-88.5 64.75,-88.5 70.75,-94.5 70.75,-100.5 70.75,-100.5 70.75,-112.5 70.75,-112.5 70.75,-118.5 64.75,-124.5 58.75,-124.5"/>
<text xml:space="preserve" text-anchor="middle" x="35.38" y="-101.08" font-family="Helvetica,sans-Serif" font-size="14.00">Seed = 0</text>
</g>
<!-- N2 -->
<g id="node2" class="node">
<title>N2</title>
<path fill="none" stroke="black" d="M54.62,-36C54.62,-36 16.12,-36 16.12,-36 10.12,-36 4.12,-30 4.12,-24 4.12,-24 4.12,-12 4.12,-12 4.12,-6 10.12,0 16.12,0 16.12,0 54.62,0 54.62,0 60.62,0 66.62,-6 66.62,-12 66.62,-12 66.62,-24 66.62,-24 66.62,-30 60.62,-36 54.62,-36"/>
<text xml:space="preserve" text-anchor="middle" x="35.38" y="-12.57" font-family="Helvetica,sans-Serif" font-size="14.00">return 0</text>
</g>
<!-- N1&#45;&gt;N2 -->
<g id="edge1" class="edge">
<title>N1&#45;&gt;N2</title>
<path fill="none" stroke="black" d="M35.38,-88.41C35.38,-76.76 35.38,-61.05 35.38,-47.52"/>
<polygon fill="black" stroke="black" points="38.88,-47.86 35.38,-37.86 31.88,-47.86 38.88,-47.86"/>
<text xml:space="preserve" text-anchor="middle" x="71.75" y="-57.2" font-family="Times New Roman,serif" font-size="14.00">Seed (global)</text>
</g>
</g>
</svg>
