<?xml version="1.0" encoding="UTF-8" standalone="no"?>
<!DOCTYPE svg PUBLIC "-//W3C//DTD SVG 1.1//EN"
 "http://www.w3.org/Graphics/SVG/1.1/DTD/svg11.dtd">
<!-- Generated by graphviz version 13.1.2 (20250808.2320)
 -->
<!-- Title: Initialize_CFG Pages: 1 -->
<svg width="597pt" height="513pt"
 viewBox="0.00 0.00 597.00 513.00" xmlns="http://www.w3.org/2000/svg" xmlns:xlink="http://www.w3.org/1999/xlink">
<g id="graph0" class="graph" transform="scale(1 1) rotate(0) translate(4 509)">
<title>Initialize_CFG</title>
<polygon fill="white" stroke="none" points="-4,4 -4,-509 592.62,-509 592.62,4 -4,4"/>
<!-- N1 -->
<g id="node1" class="node">
<title>N1</title>
<path fill="none" stroke="black" d="M576.62,-505C576.62,-505 360.38,-505 360.38,-505 354.38,-505 348.38,-499 348.38,-493 348.38,-493 348.38,-481 348.38,-481 348.38,-475 354.38,-469 360.38,-469 360.38,-469 576.62,-469 576.62,-469 582.62,-469 588.62,-475 588.62,-481 588.62,-481 588.62,-493 588.62,-493 588.62,-499 582.62,-505 576.62,-505"/>
<text xml:space="preserve" text-anchor="middle" x="468.5" y="-481.57" font-family="Helvetica,sans-Serif" font-size="14.00">1: register int OuterIndex, InnerIndex;</text>
</g>
<!-- N2 -->
<g id="node2" class="node">
<title>N2</title>
<path fill="none" stroke="black" d="M517.38,-432C517.38,-432 419.62,-432 419.62,-432 413.62,-432 407.62,-426 407.62,-420 407.62,-420 407.62,-408 407.62,-408 407.62,-402 413.62,-396 419.62,-396 419.62,-396 517.38,-396 517.38,-396 523.38,-396 529.38,-402 529.38,-408 529.38,-408 529.38,-420 529.38,-420 529.38,-426 523.38,-432 517.38,-432"/>
<text xml:space="preserve" text-anchor="middle" x="468.5" y="-408.57" font-family="Helvetica,sans-Serif" font-size="14.00">2: OuterIndex = 0</text>
</g>
<!-- N1&#45;&gt;N2 -->
<g id="edge1" class="edge">
<title>N1&#45;&gt;N2</title>
<path fill="none" stroke="black" d="M468.5,-468.81C468.5,-461.23 468.5,-452.1 468.5,-443.54"/>
<polygon fill="black" stroke="black" points="472,-443.54 468.5,-433.54 465,-443.54 472,-443.54"/>
</g>
<!-- N3 -->
<g id="node3" class="node">
<title>N3</title>
<path fill="none" stroke="black" d="M547.38,-359C547.38,-359 389.62,-359 389.62,-359 383.62,-359 377.62,-353 377.62,-347 377.62,-347 377.62,-335 377.62,-335 377.62,-329 383.62,-323 389.62,-323 389.62,-323 547.38,-323 547.38,-323 553.38,-323 559.38,-329 559.38,-335 559.38,-335 559.38,-347 559.38,-347 559.38,-353 553.38,-359 547.38,-359"/>
<text xml:space="preserve" text-anchor="middle" x="468.5" y="-335.57" font-family="Helvetica,sans-Serif" font-size="14.00">3: OuterIndex &lt; MAXSIZE?</text>
</g>
<!-- N2&#45;&gt;N3 -->
<g id="edge2" class="edge">
<title>N2&#45;&gt;N3</title>
<path fill="none" stroke="black" d="M468.5,-395.81C468.5,-388.23 468.5,-379.1 468.5,-370.54"/>
<polygon fill="black" stroke="black" points="472,-370.54 468.5,-360.54 465,-370.54 472,-370.54"/>
</g>
<!-- N4 -->
<g id="node4" class="node">
<title>N4</title>
<path fill="none" stroke="black" d="M421.5,-270.5C421.5,-270.5 327.5,-270.5 327.5,-270.5 321.5,-270.5 315.5,-264.5 315.5,-258.5 315.5,-258.5 315.5,-246.5 315.5,-246.5 315.5,-240.5 321.5,-234.5 327.5,-234.5 327.5,-234.5 421.5,-234.5 421.5,-234.5 427.5,-234.5 433.5,-240.5 433.5,-246.5 433.5,-246.5 433.5,-258.5 433.5,-258.5 433.5,-264.5 427.5,-270.5 421.5,-270.5"/>
<text xml:space="preserve" text-anchor="middle" x="374.5" y="-247.07" font-family="Helvetica,sans-Serif" font-size="14.00">4: InnerIndex = 0</text>
</g>
<!-- N3&#45;&gt;N4 -->
<g id="edge3" class="edge">
<title>N3&#45;&gt;N4</title>
<path fill="none" stroke="black" d="M449.93,-322.91C436.11,-310.2 417.05,-292.66 401.55,-278.39"/>
<polygon fill="black" stroke="black" points="404.2,-276.07 394.47,-271.88 399.46,-281.22 404.2,-276.07"/>
<text xml:space="preserve" text-anchor="middle" x="440.42" y="-291.7" font-family="Times New Roman,serif" font-size="14.00">true</text>
</g>
<!-- N9 -->
<g id="node9" class="node">
<title>N9</title>
<path fill="none" stroke="black" d="M566.12,-270.5C566.12,-270.5 508.88,-270.5 508.88,-270.5 502.88,-270.5 496.88,-264.5 496.88,-258.5 496.88,-258.5 496.88,-246.5 496.88,-246.5 496.88,-240.5 502.88,-234.5 508.88,-234.5 508.88,-234.5 566.12,-234.5 566.12,-234.5 572.12,-234.5 578.12,-240.5 578.12,-246.5 578.12,-246.5 578.12,-258.5 578.12,-258.5 578.12,-264.5 572.12,-270.5 566.12,-270.5"/>
<text xml:space="preserve" text-anchor="middle" x="537.5" y="-247.07" font-family="Helvetica,sans-Serif" font-size="14.00">9: return 0;</text>
</g>
<!-- N3&#45;&gt;N9 -->
<g id="edge4" class="edge">
<title>N3&#45;&gt;N9</title>
<path fill="none" stroke="black" d="M482.13,-322.91C491.99,-310.55 505.49,-293.63 516.69,-279.58"/>
<polygon fill="black" stroke="black" points="519.22,-282.03 522.72,-272.03 513.74,-277.67 519.22,-282.03"/>
<text xml:space="preserve" text-anchor="middle" x="521.93" y="-291.7" font-family="Times New Roman,serif" font-size="14.00">false</text>
</g>
<!-- N5 -->
<g id="node5" class="node">
<title>N5</title>
<path fill="none" stroke="black" d="M428.5,-197.5C428.5,-197.5 274.5,-197.5 274.5,-197.5 268.5,-197.5 262.5,-191.5 262.5,-185.5 262.5,-185.5 262.5,-173.5 262.5,-173.5 262.5,-167.5 268.5,-161.5 274.5,-161.5 274.5,-161.5 428.5,-161.5 428.5,-161.5 434.5,-161.5 440.5,-167.5 440.5,-173.5 440.5,-173.5 440.5,-185.5 440.5,-185.5 440.5,-191.5 434.5,-197.5 428.5,-197.5"/>
<text xml:space="preserve" text-anchor="middle" x="351.5" y="-174.07" font-family="Helvetica,sans-Serif" font-size="14.00">5: InnerIndex &lt; MAXSIZE?</text>
</g>
<!-- N4&#45;&gt;N5 -->
<g id="edge5" class="edge">
<title>N4&#45;&gt;N5</title>
<path fill="none" stroke="black" d="M368.93,-234.31C366.42,-226.55 363.38,-217.18 360.55,-208.45"/>
<polygon fill="black" stroke="black" points="363.89,-207.4 357.48,-198.97 357.24,-209.56 363.89,-207.4"/>
</g>
<!-- N6 -->
<g id="node6" class="node">
<title>N6</title>
<path fill="none" stroke="black" d="M319,-109C319,-109 12,-109 12,-109 6,-109 0,-103 0,-97 0,-97 0,-85 0,-85 0,-79 6,-73 12,-73 12,-73 319,-73 319,-73 325,-73 331,-79 331,-85 331,-85 331,-97 331,-97 331,-103 325,-109 319,-109"/>
<text xml:space="preserve" text-anchor="middle" x="165.5" y="-85.58" font-family="Helvetica,sans-Serif" font-size="14.00">6: Array[OuterIndex][InnerIndex] = RandomInteger();</text>
</g>
<!-- N5&#45;&gt;N6 -->
<g id="edge6" class="edge">
<title>N5&#45;&gt;N6</title>
<path fill="none" stroke="black" d="M314.31,-161.2C285.26,-147.69 244.68,-128.82 213.23,-114.2"/>
<polygon fill="black" stroke="black" points="214.86,-111.1 204.32,-110.05 211.91,-117.44 214.86,-111.1"/>
<text xml:space="preserve" text-anchor="middle" x="285.66" y="-130.2" font-family="Times New Roman,serif" font-size="14.00">true</text>
</g>
<!-- N8 -->
<g id="node8" class="node">
<title>N8</title>
<path fill="none" stroke="black" d="M506,-109C506,-109 415,-109 415,-109 409,-109 403,-103 403,-97 403,-97 403,-85 403,-85 403,-79 409,-73 415,-73 415,-73 506,-73 506,-73 512,-73 518,-79 518,-85 518,-85 518,-97 518,-97 518,-103 512,-109 506,-109"/>
<text xml:space="preserve" text-anchor="middle" x="460.5" y="-85.58" font-family="Helvetica,sans-Serif" font-size="14.00">8: OuterIndex++</text>
</g>
<!-- N5&#45;&gt;N8 -->
<g id="edge7" class="edge">
<title>N5&#45;&gt;N8</title>
<path fill="none" stroke="black" d="M373.3,-161.2C389.48,-148.36 411.78,-130.66 429.78,-116.38"/>
<polygon fill="black" stroke="black" points="431.9,-119.17 437.56,-110.21 427.55,-113.68 431.9,-119.17"/>
<text xml:space="preserve" text-anchor="middle" x="428.51" y="-130.2" font-family="Times New Roman,serif" font-size="14.00">false</text>
</g>
<!-- N7 -->
<g id="node7" class="node">
<title>N7</title>
<path fill="none" stroke="black" d="M306.12,-36C306.12,-36 218.88,-36 218.88,-36 212.88,-36 206.88,-30 206.88,-24 206.88,-24 206.88,-12 206.88,-12 206.88,-6 212.88,0 218.88,0 218.88,0 306.12,0 306.12,0 312.12,0 318.12,-6 318.12,-12 318.12,-12 318.12,-24 318.12,-24 318.12,-30 312.12,-36 306.12,-36"/>
<text xml:space="preserve" text-anchor="middle" x="262.5" y="-12.57" font-family="Helvetica,sans-Serif" font-size="14.00">7: InnerIndex++</text>
</g>
<!-- N6&#45;&gt;N7 -->
<g id="edge8" class="edge">
<title>N6&#45;&gt;N7</title>
<path fill="none" stroke="black" d="M188.98,-72.81C201.28,-63.81 216.54,-52.64 229.96,-42.82"/>
<polygon fill="black" stroke="black" points="231.68,-45.9 237.68,-37.17 227.54,-40.25 231.68,-45.9"/>
</g>
<!-- N7&#45;&gt;N5 -->
<g id="edge9" class="edge">
<title>N7&#45;&gt;N5</title>
<path fill="none" stroke="black" d="M299.71,-36.35C314.53,-45.2 330.24,-57.42 339.5,-73 353.25,-96.13 355.22,-127.18 354.37,-149.6"/>
<polygon fill="black" stroke="black" points="350.88,-149.36 353.76,-159.56 357.87,-149.79 350.88,-149.36"/>
</g>
<!-- N8&#45;&gt;N3 -->
<g id="edge10" class="edge">
<title>N8&#45;&gt;N3</title>
<path fill="none" stroke="black" d="M461.06,-109.42C462.42,-151.55 465.9,-259.32 467.57,-311.22"/>
<polygon fill="black" stroke="black" points="464.07,-311.17 467.89,-321.05 471.06,-310.94 464.07,-311.17"/>
</g>
</g>
</svg>
