<?xml version="1.0" encoding="UTF-8" standalone="no"?>
<!DOCTYPE svg PUBLIC "-//W3C//DTD SVG 1.1//EN"
 "http://www.w3.org/Graphics/SVG/1.1/DTD/svg11.dtd">
<!-- Generated by graphviz version 13.1.2 (20250808.2320)
 -->
<!-- Title: main_CFG Pages: 1 -->
<svg width="109pt" height="188pt"
 viewBox="0.00 0.00 109.00 188.00" xmlns="http://www.w3.org/2000/svg" xmlns:xlink="http://www.w3.org/1999/xlink">
<g id="graph0" class="graph" transform="scale(1 1) rotate(0) translate(4 184)">
<title>main_CFG</title>
<polygon fill="white" stroke="none" points="-4,4 -4,-184 104.75,-184 104.75,4 -4,4"/>
<!-- N1 -->
<g id="node1" class="node">
<title>N1</title>
<path fill="none" stroke="black" d="M85,-180C85,-180 15.75,-180 15.75,-180 9.75,-180 3.75,-174 3.75,-168 3.75,-168 3.75,-156 3.75,-156 3.75,-150 9.75,-144 15.75,-144 15.75,-144 85,-144 85,-144 91,-144 97,-150 97,-156 97,-156 97,-168 97,-168 97,-174 91,-180 85,-180"/>
<text xml:space="preserve" text-anchor="middle" x="50.38" y="-156.57" font-family="Helvetica,sans-Serif" font-size="14.00">1: InitSeed();</text>
</g>
<!-- N2 -->
<g id="node2" class="node">
<title>N2</title>
<path fill="none" stroke="black" d="M88.75,-108C88.75,-108 12,-108 12,-108 6,-108 0,-102 0,-96 0,-96 0,-84 0,-84 0,-78 6,-72 12,-72 12,-72 88.75,-72 88.75,-72 94.75,-72 100.75,-78 100.75,-84 100.75,-84 100.75,-96 100.75,-96 100.75,-102 94.75,-108 88.75,-108"/>
<text xml:space="preserve" text-anchor="middle" x="50.38" y="-84.58" font-family="Helvetica,sans-Serif" font-size="14.00">2: Test(Array);</text>
</g>
<!-- N1&#45;&gt;N2 -->
<g id="edge1" class="edge">
<title>N1&#45;&gt;N2</title>
<path fill="none" stroke="black" d="M50.38,-143.7C50.38,-136.41 50.38,-127.73 50.38,-119.54"/>
<polygon fill="black" stroke="black" points="53.88,-119.62 50.38,-109.62 46.88,-119.62 53.88,-119.62"/>
</g>
<!-- N3 -->
<g id="node3" class="node">
<title>N3</title>
<path fill="none" stroke="black" d="M79,-36C79,-36 21.75,-36 21.75,-36 15.75,-36 9.75,-30 9.75,-24 9.75,-24 9.75,-12 9.75,-12 9.75,-6 15.75,0 21.75,0 21.75,0 79,0 79,0 85,0 91,-6 91,-12 91,-12 91,-24 91,-24 91,-30 85,-36 79,-36"/>
<text xml:space="preserve" text-anchor="middle" x="50.38" y="-12.57" font-family="Helvetica,sans-Serif" font-size="14.00">3: return 1;</text>
</g>
<!-- N2&#45;&gt;N3 -->
<g id="edge2" class="edge">
<title>N2&#45;&gt;N3</title>
<path fill="none" stroke="black" d="M50.38,-71.7C50.38,-64.41 50.38,-55.73 50.38,-47.54"/>
<polygon fill="black" stroke="black" points="53.88,-47.62 50.38,-37.62 46.88,-47.62 53.88,-47.62"/>
</g>
</g>
</svg>
