<?xml version="1.0" encoding="UTF-8" standalone="no"?>
<!DOCTYPE svg PUBLIC "-//W3C//DTD SVG 1.1//EN"
 "http://www.w3.org/Graphics/SVG/1.1/DTD/svg11.dtd">
<!-- Generated by graphviz version 13.1.2 (20250808.2320)
 -->
<!-- Title: main_DFG Pages: 1 -->
<svg width="167pt" height="133pt"
 viewBox="0.00 0.00 167.00 133.00" xmlns="http://www.w3.org/2000/svg" xmlns:xlink="http://www.w3.org/1999/xlink">
<g id="graph0" class="graph" transform="scale(1 1) rotate(0) translate(4 128.5)">
<title>main_DFG</title>
<polygon fill="white" stroke="none" points="-4,4 -4,-128.5 163.25,-128.5 163.25,4 -4,4"/>
<!-- N1 -->
<g id="node1" class="node">
<title>N1</title>
<path fill="none" stroke="black" d="M66.25,-124.5C66.25,-124.5 15.75,-124.5 15.75,-124.5 9.75,-124.5 3.75,-118.5 3.75,-112.5 3.75,-112.5 3.75,-100.5 3.75,-100.5 3.75,-94.5 9.75,-88.5 15.75,-88.5 15.75,-88.5 66.25,-88.5 66.25,-88.5 72.25,-88.5 78.25,-94.5 78.25,-100.5 78.25,-100.5 78.25,-112.5 78.25,-112.5 78.25,-118.5 72.25,-124.5 66.25,-124.5"/>
<text xml:space="preserve" text-anchor="middle" x="41" y="-101.08" font-family="Helvetica,sans-Serif" font-size="14.00">InitSeed()</text>
</g>
<!-- N2 -->
<g id="node2" class="node">
<title>N2</title>
<path fill="none" stroke="black" d="M70,-36C70,-36 12,-36 12,-36 6,-36 0,-30 0,-24 0,-24 0,-12 0,-12 0,-6 6,0 12,0 12,0 70,0 70,0 76,0 82,-6 82,-12 82,-12 82,-24 82,-24 82,-30 76,-36 70,-36"/>
<text xml:space="preserve" text-anchor="middle" x="41" y="-12.57" font-family="Helvetica,sans-Serif" font-size="14.00">Test(Array)</text>
</g>
<!-- N1&#45;&gt;N2 -->
<g id="edge1" class="edge">
<title>N1&#45;&gt;N2</title>
<path fill="none" stroke="black" d="M41,-88.41C41,-76.76 41,-61.05 41,-47.52"/>
<polygon fill="black" stroke="black" points="44.5,-47.86 41,-37.86 37.5,-47.86 44.5,-47.86"/>
<text xml:space="preserve" text-anchor="middle" x="77.38" y="-57.2" font-family="Times New Roman,serif" font-size="14.00">Seed (global)</text>
</g>
<!-- N3 -->
<g id="node3" class="node">
<title>N3</title>
<path fill="none" stroke="black" d="M147.25,-124.5C147.25,-124.5 108.75,-124.5 108.75,-124.5 102.75,-124.5 96.75,-118.5 96.75,-112.5 96.75,-112.5 96.75,-100.5 96.75,-100.5 96.75,-94.5 102.75,-88.5 108.75,-88.5 108.75,-88.5 147.25,-88.5 147.25,-88.5 153.25,-88.5 159.25,-94.5 159.25,-100.5 159.25,-100.5 159.25,-112.5 159.25,-112.5 159.25,-118.5 153.25,-124.5 147.25,-124.5"/>
<text xml:space="preserve" text-anchor="middle" x="128" y="-101.08" font-family="Helvetica,sans-Serif" font-size="14.00">return 1</text>
</g>
</g>
</svg>
