<?xml version="1.0" encoding="UTF-8" standalone="no"?>
<!DOCTYPE svg PUBLIC "-//W3C//DTD SVG 1.1//EN"
 "http://www.w3.org/Graphics/SVG/1.1/DTD/svg11.dtd">
<!-- Generated by graphviz version 13.1.2 (20250808.2320)
 -->
<!-- Title: RandomInteger_CFG Pages: 1 -->
<svg width="256pt" height="116pt"
 viewBox="0.00 0.00 256.00 116.00" xmlns="http://www.w3.org/2000/svg" xmlns:xlink="http://www.w3.org/1999/xlink">
<g id="graph0" class="graph" transform="scale(1 1) rotate(0) translate(4 112)">
<title>RandomInteger_CFG</title>
<polygon fill="white" stroke="none" points="-4,4 -4,-112 251.75,-112 251.75,4 -4,4"/>
<!-- N1 -->
<g id="node1" class="node">
<title>N1</title>
<path fill="none" stroke="black" d="M235.75,-108C235.75,-108 12,-108 12,-108 6,-108 0,-102 0,-96 0,-96 0,-84 0,-84 0,-78 6,-72 12,-72 12,-72 235.75,-72 235.75,-72 241.75,-72 247.75,-78 247.75,-84 247.75,-84 247.75,-96 247.75,-96 247.75,-102 241.75,-108 235.75,-108"/>
<text xml:space="preserve" text-anchor="middle" x="123.88" y="-84.58" font-family="Helvetica,sans-Serif" font-size="14.00">1: Seed = ((Seed * 133) + 81) % 8095;</text>
</g>
<!-- N2 -->
<g id="node2" class="node">
<title>N2</title>
<path fill="none" stroke="black" d="M164.5,-36C164.5,-36 83.25,-36 83.25,-36 77.25,-36 71.25,-30 71.25,-24 71.25,-24 71.25,-12 71.25,-12 71.25,-6 77.25,0 83.25,0 83.25,0 164.5,0 164.5,0 170.5,0 176.5,-6 176.5,-12 176.5,-12 176.5,-24 176.5,-24 176.5,-30 170.5,-36 164.5,-36"/>
<text xml:space="preserve" text-anchor="middle" x="123.88" y="-12.57" font-family="Helvetica,sans-Serif" font-size="14.00">2: return Seed;</text>
</g>
<!-- N1&#45;&gt;N2 -->
<g id="edge1" class="edge">
<title>N1&#45;&gt;N2</title>
<path fill="none" stroke="black" d="M123.88,-71.7C123.88,-64.41 123.88,-55.73 123.88,-47.54"/>
<polygon fill="black" stroke="black" points="127.38,-47.62 123.88,-37.62 120.38,-47.62 127.38,-47.62"/>
</g>
</g>
</svg>
