<?xml version="1.0" encoding="UTF-8" standalone="no"?>
<!DOCTYPE svg PUBLIC "-//W3C//DTD SVG 1.1//EN"
 "http://www.w3.org/Graphics/SVG/1.1/DTD/svg11.dtd">
<!-- Generated by graphviz version 13.1.2 (20250808.2320)
 -->
<!-- Title: RandomInteger_DFG Pages: 1 -->
<svg width="237pt" height="133pt"
 viewBox="0.00 0.00 237.00 133.00" xmlns="http://www.w3.org/2000/svg" xmlns:xlink="http://www.w3.org/1999/xlink">
<g id="graph0" class="graph" transform="scale(1 1) rotate(0) translate(4 128.5)">
<title>RandomInteger_DFG</title>
<polygon fill="white" stroke="none" points="-4,4 -4,-128.5 233,-128.5 233,4 -4,4"/>
<!-- N1 -->
<g id="node1" class="node">
<title>N1</title>
<path fill="none" stroke="black" d="M217,-124.5C217,-124.5 12,-124.5 12,-124.5 6,-124.5 0,-118.5 0,-112.5 0,-112.5 0,-100.5 0,-100.5 0,-94.5 6,-88.5 12,-88.5 12,-88.5 217,-88.5 217,-88.5 223,-88.5 229,-94.5 229,-100.5 229,-100.5 229,-112.5 229,-112.5 229,-118.5 223,-124.5 217,-124.5"/>
<text xml:space="preserve" text-anchor="middle" x="114.5" y="-101.08" font-family="Helvetica,sans-Serif" font-size="14.00">Seed = ((Seed * 133) + 81) % 8095</text>
</g>
<!-- N2 -->
<g id="node2" class="node">
<title>N2</title>
<path fill="none" stroke="black" d="M145.75,-36C145.75,-36 83.25,-36 83.25,-36 77.25,-36 71.25,-30 71.25,-24 71.25,-24 71.25,-12 71.25,-12 71.25,-6 77.25,0 83.25,0 83.25,0 145.75,0 145.75,0 151.75,0 157.75,-6 157.75,-12 157.75,-12 157.75,-24 157.75,-24 157.75,-30 151.75,-36 145.75,-36"/>
<text xml:space="preserve" text-anchor="middle" x="114.5" y="-12.57" font-family="Helvetica,sans-Serif" font-size="14.00">return Seed</text>
</g>
<!-- N1&#45;&gt;N2 -->
<g id="edge1" class="edge">
<title>N1&#45;&gt;N2</title>
<path fill="none" stroke="black" d="M114.5,-88.41C114.5,-76.76 114.5,-61.05 114.5,-47.52"/>
<polygon fill="black" stroke="black" points="118,-47.86 114.5,-37.86 111,-47.86 118,-47.86"/>
<text xml:space="preserve" text-anchor="middle" x="127.62" y="-57.2" font-family="Times New Roman,serif" font-size="14.00">Seed</text>
</g>
</g>
</svg>
