<?xml version="1.0" encoding="UTF-8" standalone="no"?>
<!DOCTYPE svg PUBLIC "-//W3C//DTD SVG 1.1//EN"
 "http://www.w3.org/Graphics/SVG/1.1/DTD/svg11.dtd">
<!-- Generated by graphviz version 13.1.2 (20250808.2320)
 -->
<!-- Title: Sum_CFG Pages: 1 -->
<svg width="1126pt" height="675pt"
 viewBox="0.00 0.00 1126.00 675.00" xmlns="http://www.w3.org/2000/svg" xmlns:xlink="http://www.w3.org/1999/xlink">
<g id="graph0" class="graph" transform="scale(1 1) rotate(0) translate(4 670.5)">
<title>Sum_CFG</title>
<polygon fill="white" stroke="none" points="-4,4 -4,-670.5 1121.62,-670.5 1121.62,4 -4,4"/>
<!-- N1 -->
<g id="node1" class="node">
<title>N1</title>
<path fill="none" stroke="black" d="M728.75,-666.5C728.75,-666.5 579.25,-666.5 579.25,-666.5 573.25,-666.5 567.25,-660.5 567.25,-654.5 567.25,-654.5 567.25,-642.5 567.25,-642.5 567.25,-636.5 573.25,-630.5 579.25,-630.5 579.25,-630.5 728.75,-630.5 728.75,-630.5 734.75,-630.5 740.75,-636.5 740.75,-642.5 740.75,-642.5 740.75,-654.5 740.75,-654.5 740.75,-660.5 734.75,-666.5 728.75,-666.5"/>
<text xml:space="preserve" text-anchor="middle" x="654" y="-643.08" font-family="Helvetica,sans-Serif" font-size="14.00">1: register int Outer, Inner;</text>
</g>
<!-- N2 -->
<g id="node2" class="node">
<title>N2</title>
<path fill="none" stroke="black" d="M815.38,-593.5C815.38,-593.5 492.62,-593.5 492.62,-593.5 486.62,-593.5 480.62,-587.5 480.62,-581.5 480.62,-581.5 480.62,-569.5 480.62,-569.5 480.62,-563.5 486.62,-557.5 492.62,-557.5 492.62,-557.5 815.38,-557.5 815.38,-557.5 821.38,-557.5 827.38,-563.5 827.38,-569.5 827.38,-569.5 827.38,-581.5 827.38,-581.5 827.38,-587.5 821.38,-593.5 815.38,-593.5"/>
<text xml:space="preserve" text-anchor="middle" x="654" y="-570.08" font-family="Helvetica,sans-Serif" font-size="14.00">2: int Ptotal = 0; int Ntotal = 0; int Pcnt = 0; int Ncnt = 0;</text>
</g>
<!-- N1&#45;&gt;N2 -->
<g id="edge1" class="edge">
<title>N1&#45;&gt;N2</title>
<path fill="none" stroke="black" d="M654,-630.31C654,-622.73 654,-613.6 654,-605.04"/>
<polygon fill="black" stroke="black" points="657.5,-605.04 654,-595.04 650.5,-605.04 657.5,-605.04"/>
</g>
<!-- N3 -->
<g id="node3" class="node">
<title>N3</title>
<path fill="none" stroke="black" d="M686.38,-520.5C686.38,-520.5 621.62,-520.5 621.62,-520.5 615.62,-520.5 609.62,-514.5 609.62,-508.5 609.62,-508.5 609.62,-496.5 609.62,-496.5 609.62,-490.5 615.62,-484.5 621.62,-484.5 621.62,-484.5 686.38,-484.5 686.38,-484.5 692.38,-484.5 698.38,-490.5 698.38,-496.5 698.38,-496.5 698.38,-508.5 698.38,-508.5 698.38,-514.5 692.38,-520.5 686.38,-520.5"/>
<text xml:space="preserve" text-anchor="middle" x="654" y="-497.07" font-family="Helvetica,sans-Serif" font-size="14.00">3: Outer = 0</text>
</g>
<!-- N2&#45;&gt;N3 -->
<g id="edge2" class="edge">
<title>N2&#45;&gt;N3</title>
<path fill="none" stroke="black" d="M654,-557.31C654,-549.73 654,-540.6 654,-532.04"/>
<polygon fill="black" stroke="black" points="657.5,-532.04 654,-522.04 650.5,-532.04 657.5,-532.04"/>
</g>
<!-- N4 -->
<g id="node4" class="node">
<title>N4</title>
<path fill="none" stroke="black" d="M716.38,-447.5C716.38,-447.5 591.62,-447.5 591.62,-447.5 585.62,-447.5 579.62,-441.5 579.62,-435.5 579.62,-435.5 579.62,-423.5 579.62,-423.5 579.62,-417.5 585.62,-411.5 591.62,-411.5 591.62,-411.5 716.38,-411.5 716.38,-411.5 722.38,-411.5 728.38,-417.5 728.38,-423.5 728.38,-423.5 728.38,-435.5 728.38,-435.5 728.38,-441.5 722.38,-447.5 716.38,-447.5"/>
<text xml:space="preserve" text-anchor="middle" x="654" y="-424.07" font-family="Helvetica,sans-Serif" font-size="14.00">4: Outer &lt; MAXSIZE?</text>
</g>
<!-- N3&#45;&gt;N4 -->
<g id="edge3" class="edge">
<title>N3&#45;&gt;N4</title>
<path fill="none" stroke="black" d="M654,-484.31C654,-476.73 654,-467.6 654,-459.04"/>
<polygon fill="black" stroke="black" points="657.5,-459.04 654,-449.04 650.5,-459.04 657.5,-459.04"/>
</g>
<!-- N5 -->
<g id="node5" class="node">
<title>N5</title>
<path fill="none" stroke="black" d="M606.5,-359C606.5,-359 545.5,-359 545.5,-359 539.5,-359 533.5,-353 533.5,-347 533.5,-347 533.5,-335 533.5,-335 533.5,-329 539.5,-323 545.5,-323 545.5,-323 606.5,-323 606.5,-323 612.5,-323 618.5,-329 618.5,-335 618.5,-335 618.5,-347 618.5,-347 618.5,-353 612.5,-359 606.5,-359"/>
<text xml:space="preserve" text-anchor="middle" x="576" y="-335.57" font-family="Helvetica,sans-Serif" font-size="14.00">5: Inner = 0</text>
</g>
<!-- N4&#45;&gt;N5 -->
<g id="edge4" class="edge">
<title>N4&#45;&gt;N5</title>
<path fill="none" stroke="black" d="M636.24,-411.35C630.62,-405.76 624.45,-399.46 619,-393.5 611.69,-385.5 604.02,-376.52 597.21,-368.32"/>
<polygon fill="black" stroke="black" points="599.97,-366.17 590.92,-360.67 594.56,-370.61 599.97,-366.17"/>
<text xml:space="preserve" text-anchor="middle" x="629.5" y="-380.2" font-family="Times New Roman,serif" font-size="14.00">true</text>
</g>
<!-- N12 -->
<g id="node12" class="node">
<title>N12</title>
<path fill="none" stroke="black" d="M1105.62,-359C1105.62,-359 694.38,-359 694.38,-359 688.38,-359 682.38,-353 682.38,-347 682.38,-347 682.38,-335 682.38,-335 682.38,-329 688.38,-323 694.38,-323 694.38,-323 1105.62,-323 1105.62,-323 1111.62,-323 1117.62,-329 1117.62,-335 1117.62,-335 1117.62,-347 1117.62,-347 1117.62,-353 1111.62,-359 1105.62,-359"/>
<text xml:space="preserve" text-anchor="middle" x="900" y="-335.57" font-family="Helvetica,sans-Serif" font-size="14.00">12: Postotal = Ptotal; Poscnt = Pcnt; Negtotal = Ntotal; Negcnt = Ncnt;</text>
</g>
<!-- N4&#45;&gt;N12 -->
<g id="edge5" class="edge">
<title>N4&#45;&gt;N12</title>
<path fill="none" stroke="black" d="M703.49,-411.1C742.85,-397.26 798.09,-377.84 839.98,-363.11"/>
<polygon fill="black" stroke="black" points="840.89,-366.49 849.17,-359.87 838.57,-359.89 840.89,-366.49"/>
<text xml:space="preserve" text-anchor="middle" x="811.78" y="-380.2" font-family="Times New Roman,serif" font-size="14.00">false</text>
</g>
<!-- N6 -->
<g id="node6" class="node">
<title>N6</title>
<path fill="none" stroke="black" d="M613.5,-286C613.5,-286 492.5,-286 492.5,-286 486.5,-286 480.5,-280 480.5,-274 480.5,-274 480.5,-262 480.5,-262 480.5,-256 486.5,-250 492.5,-250 492.5,-250 613.5,-250 613.5,-250 619.5,-250 625.5,-256 625.5,-262 625.5,-262 625.5,-274 625.5,-274 625.5,-280 619.5,-286 613.5,-286"/>
<text xml:space="preserve" text-anchor="middle" x="553" y="-262.57" font-family="Helvetica,sans-Serif" font-size="14.00">6: Inner &lt; MAXSIZE?</text>
</g>
<!-- N5&#45;&gt;N6 -->
<g id="edge6" class="edge">
<title>N5&#45;&gt;N6</title>
<path fill="none" stroke="black" d="M570.43,-322.81C567.92,-315.05 564.88,-305.68 562.05,-296.95"/>
<polygon fill="black" stroke="black" points="565.39,-295.9 558.98,-287.47 558.74,-298.06 565.39,-295.9"/>
</g>
<!-- N7 -->
<g id="node7" class="node">
<title>N7</title>
<path fill="none" stroke="black" d="M484.12,-197.5C484.12,-197.5 321.88,-197.5 321.88,-197.5 315.88,-197.5 309.88,-191.5 309.88,-185.5 309.88,-185.5 309.88,-173.5 309.88,-173.5 309.88,-167.5 315.88,-161.5 321.88,-161.5 321.88,-161.5 484.12,-161.5 484.12,-161.5 490.12,-161.5 496.12,-167.5 496.12,-173.5 496.12,-173.5 496.12,-185.5 496.12,-185.5 496.12,-191.5 490.12,-197.5 484.12,-197.5"/>
<text xml:space="preserve" text-anchor="middle" x="403" y="-174.07" font-family="Helvetica,sans-Serif" font-size="14.00">7: if (Array[Outer][Inner] &lt; 0)</text>
</g>
<!-- N6&#45;&gt;N7 -->
<g id="edge7" class="edge">
<title>N6&#45;&gt;N7</title>
<path fill="none" stroke="black" d="M523.01,-249.7C500.09,-236.49 468.27,-218.14 443.16,-203.66"/>
<polygon fill="black" stroke="black" points="444.92,-200.63 434.51,-198.67 441.42,-206.7 444.92,-200.63"/>
<text xml:space="preserve" text-anchor="middle" x="501.94" y="-218.7" font-family="Times New Roman,serif" font-size="14.00">true</text>
</g>
<!-- N11 -->
<g id="node11" class="node">
<title>N11</title>
<path fill="none" stroke="black" d="M675.38,-197.5C675.38,-197.5 610.62,-197.5 610.62,-197.5 604.62,-197.5 598.62,-191.5 598.62,-185.5 598.62,-185.5 598.62,-173.5 598.62,-173.5 598.62,-167.5 604.62,-161.5 610.62,-161.5 610.62,-161.5 675.38,-161.5 675.38,-161.5 681.38,-161.5 687.38,-167.5 687.38,-173.5 687.38,-173.5 687.38,-185.5 687.38,-185.5 687.38,-191.5 681.38,-197.5 675.38,-197.5"/>
<text xml:space="preserve" text-anchor="middle" x="643" y="-174.07" font-family="Helvetica,sans-Serif" font-size="14.00">11: Outer++</text>
</g>
<!-- N6&#45;&gt;N11 -->
<g id="edge8" class="edge">
<title>N6&#45;&gt;N11</title>
<path fill="none" stroke="black" d="M570.78,-249.91C583.89,-237.32 601.92,-219.98 616.69,-205.79"/>
<polygon fill="black" stroke="black" points="619.07,-208.35 623.86,-198.9 614.22,-203.31 619.07,-208.35"/>
<text xml:space="preserve" text-anchor="middle" x="618.81" y="-218.7" font-family="Times New Roman,serif" font-size="14.00">false</text>
</g>
<!-- N8 -->
<g id="node8" class="node">
<title>N8</title>
<path fill="none" stroke="black" d="M244,-109C244,-109 12,-109 12,-109 6,-109 0,-103 0,-97 0,-97 0,-85 0,-85 0,-79 6,-73 12,-73 12,-73 244,-73 244,-73 250,-73 256,-79 256,-85 256,-85 256,-97 256,-97 256,-103 250,-109 244,-109"/>
<text xml:space="preserve" text-anchor="middle" x="128" y="-85.58" font-family="Helvetica,sans-Serif" font-size="14.00">8: Ptotal += Array[Outer][Inner]; Pcnt++;</text>
</g>
<!-- N7&#45;&gt;N8 -->
<g id="edge9" class="edge">
<title>N7&#45;&gt;N8</title>
<path fill="none" stroke="black" d="M347.68,-161.1C303.39,-147.17 241.14,-127.59 194.21,-112.82"/>
<polygon fill="black" stroke="black" points="195.26,-109.49 184.67,-109.83 193.16,-116.17 195.26,-109.49"/>
<text xml:space="preserve" text-anchor="middle" x="300.63" y="-130.2" font-family="Times New Roman,serif" font-size="14.00">true</text>
</g>
<!-- N9 -->
<g id="node9" class="node">
<title>N9</title>
<path fill="none" stroke="black" d="M519.75,-109C519.75,-109 286.25,-109 286.25,-109 280.25,-109 274.25,-103 274.25,-97 274.25,-97 274.25,-85 274.25,-85 274.25,-79 280.25,-73 286.25,-73 286.25,-73 519.75,-73 519.75,-73 525.75,-73 531.75,-79 531.75,-85 531.75,-85 531.75,-97 531.75,-97 531.75,-103 525.75,-109 519.75,-109"/>
<text xml:space="preserve" text-anchor="middle" x="403" y="-85.58" font-family="Helvetica,sans-Serif" font-size="14.00">9: Ntotal += Array[Outer][Inner]; Ncnt++;</text>
</g>
<!-- N7&#45;&gt;N9 -->
<g id="edge10" class="edge">
<title>N7&#45;&gt;N9</title>
<path fill="none" stroke="black" d="M403,-161.41C403,-149.76 403,-134.05 403,-120.52"/>
<polygon fill="black" stroke="black" points="406.5,-120.86 403,-110.86 399.5,-120.86 406.5,-120.86"/>
<text xml:space="preserve" text-anchor="middle" x="415.75" y="-130.2" font-family="Times New Roman,serif" font-size="14.00">false</text>
</g>
<!-- N10 -->
<g id="node10" class="node">
<title>N10</title>
<path fill="none" stroke="black" d="M433.88,-36C433.88,-36 372.12,-36 372.12,-36 366.12,-36 360.12,-30 360.12,-24 360.12,-24 360.12,-12 360.12,-12 360.12,-6 366.12,0 372.12,0 372.12,0 433.88,0 433.88,0 439.88,0 445.88,-6 445.88,-12 445.88,-12 445.88,-24 445.88,-24 445.88,-30 439.88,-36 433.88,-36"/>
<text xml:space="preserve" text-anchor="middle" x="403" y="-12.57" font-family="Helvetica,sans-Serif" font-size="14.00">10: Inner++</text>
</g>
<!-- N8&#45;&gt;N10 -->
<g id="edge11" class="edge">
<title>N8&#45;&gt;N10</title>
<path fill="none" stroke="black" d="M195.62,-72.54C242.73,-60.38 304.74,-44.37 348.65,-33.03"/>
<polygon fill="black" stroke="black" points="349.4,-36.45 358.21,-30.56 347.65,-29.67 349.4,-36.45"/>
</g>
<!-- N9&#45;&gt;N10 -->
<g id="edge12" class="edge">
<title>N9&#45;&gt;N10</title>
<path fill="none" stroke="black" d="M403,-72.81C403,-65.23 403,-56.1 403,-47.54"/>
<polygon fill="black" stroke="black" points="406.5,-47.54 403,-37.54 399.5,-47.54 406.5,-47.54"/>
</g>
<!-- N10&#45;&gt;N6 -->
<g id="edge13" class="edge">
<title>N10&#45;&gt;N6</title>
<path fill="none" stroke="black" d="M446.27,-23.71C477.96,-29.62 519.1,-42.96 541,-73 576.73,-122.02 568.2,-197.85 559.95,-238.67"/>
<polygon fill="black" stroke="black" points="556.58,-237.68 557.88,-248.2 563.42,-239.17 556.58,-237.68"/>
</g>
<!-- N11&#45;&gt;N4 -->
<g id="edge14" class="edge">
<title>N11&#45;&gt;N4</title>
<path fill="none" stroke="black" d="M643.77,-197.92C645.64,-240.05 650.42,-347.82 652.72,-399.72"/>
<polygon fill="black" stroke="black" points="649.22,-399.71 653.16,-409.55 656.21,-399.4 649.22,-399.71"/>
</g>
</g>
</svg>
