<?xml version="1.0" encoding="UTF-8" standalone="no"?>
<!DOCTYPE svg PUBLIC "-//W3C//DTD SVG 1.1//EN"
 "http://www.w3.org/Graphics/SVG/1.1/DTD/svg11.dtd">
<!-- Generated by graphviz version 13.1.2 (20250808.2320)
 -->
<!-- Title: Sum_DFG Pages: 1 -->
<svg width="673pt" height="575pt"
 viewBox="0.00 0.00 673.00 575.00" xmlns="http://www.w3.org/2000/svg" xmlns:xlink="http://www.w3.org/1999/xlink">
<g id="graph0" class="graph" transform="scale(1 1) rotate(0) translate(4 571)">
<title>Sum_DFG</title>
<polygon fill="white" stroke="none" points="-4,4 -4,-571 668.88,-571 668.88,4 -4,4"/>
<!-- N2 -->
<g id="node1" class="node">
<title>N2</title>
<path fill="none" stroke="black" d="M521.25,-567C521.25,-567 213.5,-567 213.5,-567 207.5,-567 201.5,-561 201.5,-555 201.5,-555 201.5,-543 201.5,-543 201.5,-537 207.5,-531 213.5,-531 213.5,-531 521.25,-531 521.25,-531 527.25,-531 533.25,-537 533.25,-543 533.25,-543 533.25,-555 533.25,-555 533.25,-561 527.25,-567 521.25,-567"/>
<text xml:space="preserve" text-anchor="middle" x="367.38" y="-543.58" font-family="Helvetica,sans-Serif" font-size="14.00">int Ptotal = 0; int Ntotal = 0; int Pcnt = 0; int Ncnt = 0;</text>
</g>
<!-- N3 -->
<g id="node2" class="node">
<title>N3</title>
<path fill="none" stroke="black" d="M613.25,-567C613.25,-567 563.5,-567 563.5,-567 557.5,-567 551.5,-561 551.5,-555 551.5,-555 551.5,-543 551.5,-543 551.5,-537 557.5,-531 563.5,-531 563.5,-531 613.25,-531 613.25,-531 619.25,-531 625.25,-537 625.25,-543 625.25,-543 625.25,-555 625.25,-555 625.25,-561 619.25,-567 613.25,-567"/>
<text xml:space="preserve" text-anchor="middle" x="588.38" y="-543.58" font-family="Helvetica,sans-Serif" font-size="14.00">Outer = 0</text>
</g>
<!-- N4 -->
<g id="node3" class="node">
<title>N4</title>
<path fill="none" stroke="black" d="M643.25,-478.5C643.25,-478.5 533.5,-478.5 533.5,-478.5 527.5,-478.5 521.5,-472.5 521.5,-466.5 521.5,-466.5 521.5,-454.5 521.5,-454.5 521.5,-448.5 527.5,-442.5 533.5,-442.5 533.5,-442.5 643.25,-442.5 643.25,-442.5 649.25,-442.5 655.25,-448.5 655.25,-454.5 655.25,-454.5 655.25,-466.5 655.25,-466.5 655.25,-472.5 649.25,-478.5 643.25,-478.5"/>
<text xml:space="preserve" text-anchor="middle" x="588.38" y="-455.07" font-family="Helvetica,sans-Serif" font-size="14.00">Outer &lt; MAXSIZE?</text>
</g>
<!-- N3&#45;&gt;N4 -->
<g id="edge1" class="edge">
<title>N3&#45;&gt;N4</title>
<path fill="none" stroke="black" d="M588.38,-530.91C588.38,-519.26 588.38,-503.55 588.38,-490.02"/>
<polygon fill="black" stroke="black" points="591.88,-490.36 588.38,-480.36 584.88,-490.36 591.88,-490.36"/>
<text xml:space="preserve" text-anchor="middle" x="603.75" y="-499.7" font-family="Times New Roman,serif" font-size="14.00">Outer</text>
</g>
<!-- N5 -->
<g id="node4" class="node">
<title>N5</title>
<path fill="none" stroke="black" d="M557.38,-390C557.38,-390 511.38,-390 511.38,-390 505.38,-390 499.38,-384 499.38,-378 499.38,-378 499.38,-366 499.38,-366 499.38,-360 505.38,-354 511.38,-354 511.38,-354 557.38,-354 557.38,-354 563.38,-354 569.38,-360 569.38,-366 569.38,-366 569.38,-378 569.38,-378 569.38,-384 563.38,-390 557.38,-390"/>
<text xml:space="preserve" text-anchor="middle" x="534.38" y="-366.57" font-family="Helvetica,sans-Serif" font-size="14.00">Inner = 0</text>
</g>
<!-- N4&#45;&gt;N5 -->
<g id="edge2" class="edge">
<title>N4&#45;&gt;N5</title>
<path fill="none" stroke="black" d="M562.38,-442.12C556.45,-437.06 550.7,-431.1 546.62,-424.5 542.34,-417.57 539.56,-409.25 537.74,-401.35"/>
<polygon fill="black" stroke="black" points="541.23,-400.98 536,-391.77 534.35,-402.23 541.23,-400.98"/>
<text xml:space="preserve" text-anchor="middle" x="562" y="-411.2" font-family="Times New Roman,serif" font-size="14.00">Outer</text>
</g>
<!-- N11 -->
<g id="node10" class="node">
<title>N11</title>
<path fill="none" stroke="black" d="M652.88,-390C652.88,-390 609.88,-390 609.88,-390 603.88,-390 597.88,-384 597.88,-378 597.88,-378 597.88,-366 597.88,-366 597.88,-360 603.88,-354 609.88,-354 609.88,-354 652.88,-354 652.88,-354 658.88,-354 664.88,-360 664.88,-366 664.88,-366 664.88,-378 664.88,-378 664.88,-384 658.88,-390 652.88,-390"/>
<text xml:space="preserve" text-anchor="middle" x="631.38" y="-366.57" font-family="Helvetica,sans-Serif" font-size="14.00">Outer++</text>
</g>
<!-- N4&#45;&gt;N11 -->
<g id="edge10" class="edge">
<title>N4&#45;&gt;N11</title>
<path fill="none" stroke="black" d="M607.68,-442.02C612.46,-436.81 617.13,-430.79 620.38,-424.5 623.99,-417.48 626.42,-409.34 628.05,-401.63"/>
<polygon fill="black" stroke="black" points="631.46,-402.41 629.7,-391.96 624.56,-401.22 631.46,-402.41"/>
<text xml:space="preserve" text-anchor="middle" x="641.8" y="-411.2" font-family="Times New Roman,serif" font-size="14.00">Outer</text>
</g>
<!-- N6 -->
<g id="node5" class="node">
<title>N6</title>
<path fill="none" stroke="black" d="M587.38,-301.5C587.38,-301.5 481.38,-301.5 481.38,-301.5 475.38,-301.5 469.38,-295.5 469.38,-289.5 469.38,-289.5 469.38,-277.5 469.38,-277.5 469.38,-271.5 475.38,-265.5 481.38,-265.5 481.38,-265.5 587.38,-265.5 587.38,-265.5 593.38,-265.5 599.38,-271.5 599.38,-277.5 599.38,-277.5 599.38,-289.5 599.38,-289.5 599.38,-295.5 593.38,-301.5 587.38,-301.5"/>
<text xml:space="preserve" text-anchor="middle" x="534.38" y="-278.07" font-family="Helvetica,sans-Serif" font-size="14.00">Inner &lt; MAXSIZE?</text>
</g>
<!-- N5&#45;&gt;N6 -->
<g id="edge3" class="edge">
<title>N5&#45;&gt;N6</title>
<path fill="none" stroke="black" d="M534.38,-353.91C534.38,-342.26 534.38,-326.55 534.38,-313.02"/>
<polygon fill="black" stroke="black" points="537.88,-313.36 534.38,-303.36 530.88,-313.36 537.88,-313.36"/>
<text xml:space="preserve" text-anchor="middle" x="548.62" y="-322.7" font-family="Times New Roman,serif" font-size="14.00">Inner</text>
</g>
<!-- N7 -->
<g id="node6" class="node">
<title>N7</title>
<path fill="none" stroke="black" d="M534,-213C534,-213 386.75,-213 386.75,-213 380.75,-213 374.75,-207 374.75,-201 374.75,-201 374.75,-189 374.75,-189 374.75,-183 380.75,-177 386.75,-177 386.75,-177 534,-177 534,-177 540,-177 546,-183 546,-189 546,-189 546,-201 546,-201 546,-207 540,-213 534,-213"/>
<text xml:space="preserve" text-anchor="middle" x="460.38" y="-189.57" font-family="Helvetica,sans-Serif" font-size="14.00">if (Array[Outer][Inner] &lt; 0)</text>
</g>
<!-- N6&#45;&gt;N7 -->
<g id="edge4" class="edge">
<title>N6&#45;&gt;N7</title>
<path fill="none" stroke="black" d="M519.75,-265.41C509.18,-253.05 494.7,-236.13 482.69,-222.08"/>
<polygon fill="black" stroke="black" points="485.36,-219.82 476.2,-214.5 480.04,-224.37 485.36,-219.82"/>
<text xml:space="preserve" text-anchor="middle" x="537" y="-234.2" font-family="Times New Roman,serif" font-size="14.00">Outer, Inner</text>
</g>
<!-- N8 -->
<g id="node7" class="node">
<title>N8</title>
<path fill="none" stroke="black" d="M568.88,-124.5C568.88,-124.5 351.88,-124.5 351.88,-124.5 345.88,-124.5 339.88,-118.5 339.88,-112.5 339.88,-112.5 339.88,-100.5 339.88,-100.5 339.88,-94.5 345.88,-88.5 351.88,-88.5 351.88,-88.5 568.88,-88.5 568.88,-88.5 574.88,-88.5 580.88,-94.5 580.88,-100.5 580.88,-100.5 580.88,-112.5 580.88,-112.5 580.88,-118.5 574.88,-124.5 568.88,-124.5"/>
<text xml:space="preserve" text-anchor="middle" x="460.38" y="-101.08" font-family="Helvetica,sans-Serif" font-size="14.00">Ptotal += Array[Outer][Inner]; Pcnt++;</text>
</g>
<!-- N7&#45;&gt;N8 -->
<g id="edge5" class="edge">
<title>N7&#45;&gt;N8</title>
<path fill="none" stroke="black" d="M460.38,-176.91C460.38,-165.26 460.38,-149.55 460.38,-136.02"/>
<polygon fill="black" stroke="black" points="463.88,-136.36 460.38,-126.36 456.88,-136.36 463.88,-136.36"/>
<text xml:space="preserve" text-anchor="middle" x="514.75" y="-145.7" font-family="Times New Roman,serif" font-size="14.00">Array[Outer][Inner]</text>
</g>
<!-- N9 -->
<g id="node8" class="node">
<title>N9</title>
<path fill="none" stroke="black" d="M309.62,-124.5C309.62,-124.5 91.12,-124.5 91.12,-124.5 85.12,-124.5 79.12,-118.5 79.12,-112.5 79.12,-112.5 79.12,-100.5 79.12,-100.5 79.12,-94.5 85.12,-88.5 91.12,-88.5 91.12,-88.5 309.62,-88.5 309.62,-88.5 315.62,-88.5 321.62,-94.5 321.62,-100.5 321.62,-100.5 321.62,-112.5 321.62,-112.5 321.62,-118.5 315.62,-124.5 309.62,-124.5"/>
<text xml:space="preserve" text-anchor="middle" x="200.38" y="-101.08" font-family="Helvetica,sans-Serif" font-size="14.00">Ntotal += Array[Outer][Inner]; Ncnt++;</text>
</g>
<!-- N7&#45;&gt;N9 -->
<g id="edge6" class="edge">
<title>N7&#45;&gt;N9</title>
<path fill="none" stroke="black" d="M402.89,-176.59C385.13,-171.09 365.53,-164.91 347.62,-159 318.58,-149.42 286.5,-138.26 259.72,-128.79"/>
<polygon fill="black" stroke="black" points="261,-125.53 250.4,-125.49 258.66,-132.13 261,-125.53"/>
<text xml:space="preserve" text-anchor="middle" x="402" y="-145.7" font-family="Times New Roman,serif" font-size="14.00">Array[Outer][Inner]</text>
</g>
<!-- N10 -->
<g id="node9" class="node">
<title>N10</title>
<path fill="none" stroke="black" d="M488,-36C488,-36 448.75,-36 448.75,-36 442.75,-36 436.75,-30 436.75,-24 436.75,-24 436.75,-12 436.75,-12 436.75,-6 442.75,0 448.75,0 448.75,0 488,0 488,0 494,0 500,-6 500,-12 500,-12 500,-24 500,-24 500,-30 494,-36 488,-36"/>
<text xml:space="preserve" text-anchor="middle" x="468.38" y="-12.57" font-family="Helvetica,sans-Serif" font-size="14.00">Inner++</text>
</g>
<!-- N8&#45;&gt;N10 -->
<g id="edge7" class="edge">
<title>N8&#45;&gt;N10</title>
<path fill="none" stroke="black" d="M461.96,-88.41C463.03,-76.76 464.49,-61.05 465.74,-47.52"/>
<polygon fill="black" stroke="black" points="469.2,-48.14 466.63,-37.86 462.22,-47.49 469.2,-48.14"/>
<text xml:space="preserve" text-anchor="middle" x="496.59" y="-57.2" font-family="Times New Roman,serif" font-size="14.00">Ptotal, Pcnt</text>
</g>
<!-- N12 -->
<g id="node11" class="node">
<title>N12</title>
<path fill="none" stroke="black" d="M400.75,-36C400.75,-36 12,-36 12,-36 6,-36 0,-30 0,-24 0,-24 0,-12 0,-12 0,-6 6,0 12,0 12,0 400.75,0 400.75,0 406.75,0 412.75,-6 412.75,-12 412.75,-12 412.75,-24 412.75,-24 412.75,-30 406.75,-36 400.75,-36"/>
<text xml:space="preserve" text-anchor="middle" x="206.38" y="-12.57" font-family="Helvetica,sans-Serif" font-size="14.00">Postotal = Ptotal; Poscnt = Pcnt; Negtotal = Ntotal; Negcnt = Ncnt;</text>
</g>
<!-- N8&#45;&gt;N12 -->
<g id="edge12" class="edge">
<title>N8&#45;&gt;N12</title>
<path fill="none" stroke="black" d="M428.76,-88.11C404.83,-75.17 373.86,-58.92 360.38,-54 344.84,-48.34 328.09,-43.4 311.54,-39.16"/>
<polygon fill="black" stroke="black" points="312.73,-35.85 302.18,-36.84 311.05,-42.65 312.73,-35.85"/>
<text xml:space="preserve" text-anchor="middle" x="426.47" y="-57.2" font-family="Times New Roman,serif" font-size="14.00">Ptotal, Pcnt</text>
</g>
<!-- N9&#45;&gt;N10 -->
<g id="edge8" class="edge">
<title>N9&#45;&gt;N10</title>
<path fill="none" stroke="black" d="M238.51,-88.15C248.8,-82.93 259.75,-76.89 269.38,-70.5 278.83,-64.22 278.5,-58.62 288.88,-54 343.17,-29.84 363.66,-50.19 421.38,-36 422.75,-35.66 424.14,-35.3 425.54,-34.91"/>
<polygon fill="black" stroke="black" points="426.31,-38.34 434.84,-32.06 424.26,-31.65 426.31,-38.34"/>
<text xml:space="preserve" text-anchor="middle" x="322.62" y="-57.2" font-family="Times New Roman,serif" font-size="14.00">Ntotal, Ncnt</text>
</g>
<!-- N9&#45;&gt;N12 -->
<g id="edge13" class="edge">
<title>N9&#45;&gt;N12</title>
<path fill="none" stroke="black" d="M200.45,-88.31C200.6,-78.29 200.98,-65.41 201.88,-54 202.04,-51.94 202.24,-49.81 202.46,-47.67"/>
<polygon fill="black" stroke="black" points="205.91,-48.26 203.61,-37.91 198.96,-47.43 205.91,-48.26"/>
<text xml:space="preserve" text-anchor="middle" x="235.62" y="-57.2" font-family="Times New Roman,serif" font-size="14.00">Ntotal, Ncnt</text>
</g>
<!-- N10&#45;&gt;N6 -->
<g id="edge9" class="edge">
<title>N10&#45;&gt;N6</title>
<path fill="none" stroke="black" d="M500.23,-27.13C529.59,-36.51 571.4,-55.13 590.38,-88.5 625.49,-150.24 607.84,-184.86 574.38,-247.5 572.54,-250.94 570.21,-254.2 567.62,-257.24"/>
<polygon fill="black" stroke="black" points="565.34,-254.57 560.81,-264.14 570.33,-259.48 565.34,-254.57"/>
<text xml:space="preserve" text-anchor="middle" x="623.83" y="-145.7" font-family="Times New Roman,serif" font-size="14.00">Inner</text>
</g>
<!-- N11&#45;&gt;N4 -->
<g id="edge11" class="edge">
<title>N11&#45;&gt;N4</title>
<path fill="none" stroke="black" d="M600.32,-390.47C594.39,-395.33 588.99,-401.19 585.62,-408 582.15,-415.04 581.38,-423.29 581.86,-431.11"/>
<polygon fill="black" stroke="black" points="578.38,-431.47 583.18,-440.91 585.32,-430.54 578.38,-431.47"/>
<text xml:space="preserve" text-anchor="middle" x="601" y="-411.2" font-family="Times New Roman,serif" font-size="14.00">Outer</text>
</g>
</g>
</svg>
