<?xml version="1.0" encoding="UTF-8" standalone="no"?>
<!DOCTYPE svg PUBLIC "-//W3C//DTD SVG 1.1//EN"
 "http://www.w3.org/Graphics/SVG/1.1/DTD/svg11.dtd">
<!-- Generated by graphviz version 13.1.2 (20250808.2320)
 -->
<!-- Title: main_CFG Pages: 1 -->
<svg width="110pt" height="161pt"
 viewBox="0.00 0.00 110.00 161.00" xmlns="http://www.w3.org/2000/svg" xmlns:xlink="http://www.w3.org/1999/xlink">
<g id="graph0" class="graph" transform="scale(1 1) rotate(0) translate(4 157.19)">
<title>main_CFG</title>
<polygon fill="white" stroke="none" points="-4,4 -4,-157.19 105.5,-157.19 105.5,4 -4,4"/>
<!-- N1 -->
<g id="node1" class="node">
<title>N1</title>
<path fill="none" stroke="black" d="M89.5,-153.19C89.5,-153.19 12,-153.19 12,-153.19 6,-153.19 0,-147.19 0,-141.19 0,-141.19 0,-129.19 0,-129.19 0,-123.19 6,-117.19 12,-117.19 12,-117.19 89.5,-117.19 89.5,-117.19 95.5,-117.19 101.5,-123.19 101.5,-129.19 101.5,-129.19 101.5,-141.19 101.5,-141.19 101.5,-147.19 95.5,-153.19 89.5,-153.19"/>
<text xml:space="preserve" text-anchor="middle" x="50.75" y="-129.76" font-family="Helvetica,sans-Serif" font-size="14.00">1: call sort(20)</text>
</g>
<!-- N2 -->
<g id="node2" class="node">
<title>N2</title>
<ellipse fill="none" stroke="black" cx="50.75" cy="-40.59" rx="36.59" ry="36.59"/>
<ellipse fill="none" stroke="black" cx="50.75" cy="-40.59" rx="40.59" ry="40.59"/>
<text xml:space="preserve" text-anchor="middle" x="50.75" y="-35.17" font-family="Helvetica,sans-Serif" font-size="14.00">2: End</text>
</g>
<!-- N1&#45;&gt;N2 -->
<g id="edge1" class="edge">
<title>N1&#45;&gt;N2</title>
<path fill="none" stroke="black" d="M50.75,-116.77C50.75,-109.85 50.75,-101.49 50.75,-92.91"/>
<polygon fill="black" stroke="black" points="54.25,-93.1 50.75,-83.1 47.25,-93.1 54.25,-93.1"/>
</g>
</g>
</svg>
