<?xml version="1.0" encoding="UTF-8" standalone="no"?>
<!DOCTYPE svg PUBLIC "-//W3C//DTD SVG 1.1//EN"
 "http://www.w3.org/Graphics/SVG/1.1/DTD/svg11.dtd">
<!-- Generated by graphviz version 13.1.2 (20250808.2320)
 -->
<!-- Title: main_DFG Pages: 1 -->
<svg width="97pt" height="188pt"
 viewBox="0.00 0.00 97.00 188.00" xmlns="http://www.w3.org/2000/svg" xmlns:xlink="http://www.w3.org/1999/xlink">
<g id="graph0" class="graph" transform="scale(1 1) rotate(0) translate(4 184)">
<title>main_DFG</title>
<polygon fill="white" stroke="none" points="-4,4 -4,-184 93.4,-184 93.4,4 -4,4"/>
<!-- sort_func -->
<g id="node1" class="node">
<title>sort_func</title>
<ellipse fill="lightblue" stroke="black" cx="44.7" cy="-162" rx="27" ry="18"/>
<text xml:space="preserve" text-anchor="middle" x="44.7" y="-156.95" font-family="Times New Roman,serif" font-size="14.00">sort</text>
</g>
<!-- op_call -->
<g id="node2" class="node">
<title>op_call</title>
<polygon fill="none" stroke="black" points="85.7,-108 3.7,-108 3.7,-72 85.7,-72 85.7,-108"/>
<text xml:space="preserve" text-anchor="middle" x="44.7" y="-84.95" font-family="Times New Roman,serif" font-size="14.00">call sort(20)</text>
</g>
<!-- sort_func&#45;&gt;op_call -->
<g id="edge1" class="edge">
<title>sort_func&#45;&gt;op_call</title>
<path fill="none" stroke="black" d="M44.7,-143.7C44.7,-136.41 44.7,-127.73 44.7,-119.54"/>
<polygon fill="black" stroke="black" points="48.2,-119.62 44.7,-109.62 41.2,-119.62 48.2,-119.62"/>
</g>
<!-- result -->
<g id="node3" class="node">
<title>result</title>
<ellipse fill="lightgreen" stroke="black" cx="44.7" cy="-18" rx="44.7" ry="18"/>
<text xml:space="preserve" text-anchor="middle" x="44.7" y="-12.95" font-family="Times New Roman,serif" font-size="14.00">exit code</text>
</g>
<!-- op_call&#45;&gt;result -->
<g id="edge2" class="edge">
<title>op_call&#45;&gt;result</title>
<path fill="none" stroke="black" d="M44.7,-71.7C44.7,-64.41 44.7,-55.73 44.7,-47.54"/>
<polygon fill="black" stroke="black" points="48.2,-47.62 44.7,-37.62 41.2,-47.62 48.2,-47.62"/>
</g>
</g>
</svg>
