<?xml version="1.0" encoding="UTF-8" standalone="no"?>
<!DOCTYPE svg PUBLIC "-//W3C//DTD SVG 1.1//EN"
 "http://www.w3.org/Graphics/SVG/1.1/DTD/svg11.dtd">
<!-- Generated by graphviz version 13.1.2 (20250808.2320)
 -->
<!-- Title: sort_DFG Pages: 1 -->
<svg width="1593pt" height="188pt"
 viewBox="0.00 0.00 1593.00 188.00" xmlns="http://www.w3.org/2000/svg" xmlns:xlink="http://www.w3.org/1999/xlink">
<g id="graph0" class="graph" transform="scale(1 1) rotate(0) translate(4 184)">
<title>sort_DFG</title>
<polygon fill="white" stroke="none" points="-4,4 -4,-184 1589.38,-184 1589.38,4 -4,4"/>
<!-- arr_in -->
<g id="node1" class="node">
<title>arr_in</title>
<ellipse fill="lightblue" stroke="black" cx="604.38" cy="-162" rx="27" ry="18"/>
<text xml:space="preserve" text-anchor="middle" x="604.38" y="-156.95" font-family="Times New Roman,serif" font-size="14.00">arr</text>
</g>
<!-- op_swap1 -->
<g id="node7" class="node">
<title>op_swap1</title>
<polygon fill="none" stroke="black" points="142.75,-108 0,-108 0,-72 142.75,-72 142.75,-108"/>
<text xml:space="preserve" text-anchor="middle" x="71.38" y="-84.95" font-family="Times New Roman,serif" font-size="14.00">SWAP(arr[k], arr[l+1])</text>
</g>
<!-- arr_in&#45;&gt;op_swap1 -->
<g id="edge1" class="edge">
<title>arr_in&#45;&gt;op_swap1</title>
<path fill="none" stroke="black" d="M577.45,-158.73C508.61,-152.74 320.45,-135.2 153.79,-108.32"/>
<polygon fill="black" stroke="black" points="154.77,-104.93 144.34,-106.77 153.64,-111.84 154.77,-104.93"/>
</g>
<!-- op_swap2 -->
<g id="node8" class="node">
<title>op_swap2</title>
<polygon fill="none" stroke="black" points="290,-108 160.75,-108 160.75,-72 290,-72 290,-108"/>
<text xml:space="preserve" text-anchor="middle" x="225.38" y="-84.95" font-family="Times New Roman,serif" font-size="14.00">SWAP(arr[l], arr[ir])</text>
</g>
<!-- arr_in&#45;&gt;op_swap2 -->
<g id="edge2" class="edge">
<title>arr_in&#45;&gt;op_swap2</title>
<path fill="none" stroke="black" d="M578.18,-156.93C527.06,-148.9 410.21,-130.02 301.48,-108.36"/>
<polygon fill="black" stroke="black" points="302.28,-104.96 291.79,-106.42 300.9,-111.82 302.28,-104.96"/>
</g>
<!-- op_swap3 -->
<g id="node9" class="node">
<title>op_swap3</title>
<polygon fill="none" stroke="black" points="452.5,-108 308.25,-108 308.25,-72 452.5,-72 452.5,-108"/>
<text xml:space="preserve" text-anchor="middle" x="380.38" y="-84.95" font-family="Times New Roman,serif" font-size="14.00">SWAP(arr[l+1], arr[ir])</text>
</g>
<!-- arr_in&#45;&gt;op_swap3 -->
<g id="edge3" class="edge">
<title>arr_in&#45;&gt;op_swap3</title>
<path fill="none" stroke="black" d="M580.4,-153.51C548.81,-143.64 491.97,-125.87 446.94,-111.8"/>
<polygon fill="black" stroke="black" points="448.09,-108.5 437.51,-108.85 446.01,-115.18 448.09,-108.5"/>
</g>
<!-- op_swap4 -->
<g id="node10" class="node">
<title>op_swap4</title>
<polygon fill="none" stroke="black" points="610.25,-108 470.5,-108 470.5,-72 610.25,-72 610.25,-108"/>
<text xml:space="preserve" text-anchor="middle" x="540.38" y="-84.95" font-family="Times New Roman,serif" font-size="14.00">SWAP(arr[l], arr[l+1])</text>
</g>
<!-- arr_in&#45;&gt;op_swap4 -->
<g id="edge4" class="edge">
<title>arr_in&#45;&gt;op_swap4</title>
<path fill="none" stroke="black" d="M590.8,-146.15C582.97,-137.59 572.9,-126.58 563.83,-116.65"/>
<polygon fill="black" stroke="black" points="566.54,-114.43 557.21,-109.41 561.37,-119.15 566.54,-114.43"/>
</g>
<!-- op_assign_a -->
<g id="node11" class="node">
<title>op_assign_a</title>
<polygon fill="none" stroke="black" points="708.62,-108 628.12,-108 628.12,-72 708.62,-72 708.62,-108"/>
<text xml:space="preserve" text-anchor="middle" x="668.38" y="-84.95" font-family="Times New Roman,serif" font-size="14.00">a = arr[l+1]</text>
</g>
<!-- arr_in&#45;&gt;op_assign_a -->
<g id="edge5" class="edge">
<title>arr_in&#45;&gt;op_assign_a</title>
<path fill="none" stroke="black" d="M617.95,-146.15C625.78,-137.59 635.85,-126.58 644.92,-116.65"/>
<polygon fill="black" stroke="black" points="647.38,-119.15 651.54,-109.41 642.21,-114.43 647.38,-119.15"/>
</g>
<!-- op_compare -->
<g id="node14" class="node">
<title>op_compare</title>
<polygon fill="none" stroke="black" points="857.75,-108 727,-108 727,-72 857.75,-72 857.75,-108"/>
<text xml:space="preserve" text-anchor="middle" x="792.38" y="-84.95" font-family="Times New Roman,serif" font-size="14.00">arr[i] &lt; a? arr[j] &gt; a?</text>
</g>
<!-- arr_in&#45;&gt;op_compare -->
<g id="edge6" class="edge">
<title>arr_in&#45;&gt;op_compare</title>
<path fill="none" stroke="black" d="M627.43,-152.42C654.11,-142.48 699.03,-125.76 735.26,-112.27"/>
<polygon fill="black" stroke="black" points="736.14,-115.67 744.29,-108.9 733.7,-109.11 736.14,-115.67"/>
</g>
<!-- op_swap5 -->
<g id="node15" class="node">
<title>op_swap5</title>
<polygon fill="none" stroke="black" points="1000.75,-108 876,-108 876,-72 1000.75,-72 1000.75,-108"/>
<text xml:space="preserve" text-anchor="middle" x="938.38" y="-84.95" font-family="Times New Roman,serif" font-size="14.00">SWAP(arr[i], arr[j])</text>
</g>
<!-- arr_in&#45;&gt;op_swap5 -->
<g id="edge7" class="edge">
<title>arr_in&#45;&gt;op_swap5</title>
<path fill="none" stroke="black" d="M630.09,-156.08C675.27,-147.39 772.06,-128.48 864.35,-108.41"/>
<polygon fill="black" stroke="black" points="865.07,-111.83 874.09,-106.28 863.58,-104.99 865.07,-111.83"/>
</g>
<!-- op_assign_arr -->
<g id="node16" class="node">
<title>op_assign_arr</title>
<polygon fill="none" stroke="black" points="1163.5,-108 1019.25,-108 1019.25,-72 1163.5,-72 1163.5,-108"/>
<text xml:space="preserve" text-anchor="middle" x="1091.38" y="-84.95" font-family="Times New Roman,serif" font-size="14.00">arr[l+1]=arr[j]; arr[j]=a</text>
</g>
<!-- arr_in&#45;&gt;op_assign_arr -->
<g id="edge8" class="edge">
<title>arr_in&#45;&gt;op_assign_arr</title>
<path fill="none" stroke="black" d="M631.01,-158.21C694.35,-151.42 859.12,-132.9 1007.86,-108.18"/>
<polygon fill="black" stroke="black" points="1008.22,-111.67 1017.5,-106.56 1007.06,-104.76 1008.22,-111.67"/>
</g>
<!-- n_in -->
<g id="node2" class="node">
<title>n_in</title>
<ellipse fill="lightblue" stroke="black" cx="1224.38" cy="-162" rx="27" ry="18"/>
<text xml:space="preserve" text-anchor="middle" x="1224.38" y="-156.95" font-family="Times New Roman,serif" font-size="14.00">n</text>
</g>
<!-- op_init -->
<g id="node5" class="node">
<title>op_init</title>
<polygon fill="none" stroke="black" points="1266.88,-108 1181.88,-108 1181.88,-72 1266.88,-72 1266.88,-108"/>
<text xml:space="preserve" text-anchor="middle" x="1224.38" y="-84.95" font-family="Times New Roman,serif" font-size="14.00">Initialization</text>
</g>
<!-- n_in&#45;&gt;op_init -->
<g id="edge9" class="edge">
<title>n_in&#45;&gt;op_init</title>
<path fill="none" stroke="black" d="M1224.38,-143.7C1224.38,-136.41 1224.38,-127.73 1224.38,-119.54"/>
<polygon fill="black" stroke="black" points="1227.88,-119.62 1224.38,-109.62 1220.88,-119.62 1227.88,-119.62"/>
</g>
<!-- M_in -->
<g id="node3" class="node">
<title>M_in</title>
<ellipse fill="lightblue" stroke="black" cx="1315.38" cy="-162" rx="27" ry="18"/>
<text xml:space="preserve" text-anchor="middle" x="1315.38" y="-156.95" font-family="Times New Roman,serif" font-size="14.00">M</text>
</g>
<!-- op_cond -->
<g id="node6" class="node">
<title>op_cond</title>
<polygon fill="none" stroke="black" points="1345.88,-108 1284.88,-108 1284.88,-72 1345.88,-72 1345.88,-108"/>
<text xml:space="preserve" text-anchor="middle" x="1315.38" y="-84.95" font-family="Times New Roman,serif" font-size="14.00">ir&#45;l &lt; M</text>
</g>
<!-- M_in&#45;&gt;op_cond -->
<g id="edge10" class="edge">
<title>M_in&#45;&gt;op_cond</title>
<path fill="none" stroke="black" d="M1315.38,-143.7C1315.38,-136.41 1315.38,-127.73 1315.38,-119.54"/>
<polygon fill="black" stroke="black" points="1318.88,-119.62 1315.38,-109.62 1311.88,-119.62 1318.88,-119.62"/>
</g>
<!-- istack_in -->
<g id="node4" class="node">
<title>istack_in</title>
<ellipse fill="lightblue" stroke="black" cx="1409.38" cy="-162" rx="32.41" ry="18"/>
<text xml:space="preserve" text-anchor="middle" x="1409.38" y="-156.95" font-family="Times New Roman,serif" font-size="14.00">istack</text>
</g>
<!-- op_push -->
<g id="node17" class="node">
<title>op_push</title>
<polygon fill="none" stroke="black" points="1455.25,-108 1363.5,-108 1363.5,-72 1455.25,-72 1455.25,-108"/>
<text xml:space="preserve" text-anchor="middle" x="1409.38" y="-84.95" font-family="Times New Roman,serif" font-size="14.00">Push to istack</text>
</g>
<!-- istack_in&#45;&gt;op_push -->
<g id="edge11" class="edge">
<title>istack_in&#45;&gt;op_push</title>
<path fill="none" stroke="black" d="M1409.38,-143.7C1409.38,-136.41 1409.38,-127.73 1409.38,-119.54"/>
<polygon fill="black" stroke="black" points="1412.88,-119.62 1409.38,-109.62 1405.88,-119.62 1412.88,-119.62"/>
</g>
<!-- arr_out -->
<g id="node18" class="node">
<title>arr_out</title>
<ellipse fill="lightgreen" stroke="black" cx="380.38" cy="-18" rx="27" ry="18"/>
<text xml:space="preserve" text-anchor="middle" x="380.38" y="-12.95" font-family="Times New Roman,serif" font-size="14.00">arr</text>
</g>
<!-- op_swap1&#45;&gt;arr_out -->
<g id="edge12" class="edge">
<title>op_swap1&#45;&gt;arr_out</title>
<path fill="none" stroke="black" d="M143.04,-72.76C205.93,-58.52 294.81,-38.38 344.02,-27.24"/>
<polygon fill="black" stroke="black" points="344.6,-30.69 353.58,-25.07 343.05,-23.87 344.6,-30.69"/>
</g>
<!-- op_swap2&#45;&gt;arr_out -->
<g id="edge13" class="edge">
<title>op_swap2&#45;&gt;arr_out</title>
<path fill="none" stroke="black" d="M264.09,-71.52C290.02,-59.81 323.76,-44.57 348.21,-33.53"/>
<polygon fill="black" stroke="black" points="349.35,-36.85 357.02,-29.55 346.47,-30.47 349.35,-36.85"/>
</g>
<!-- op_swap3&#45;&gt;arr_out -->
<g id="edge14" class="edge">
<title>op_swap3&#45;&gt;arr_out</title>
<path fill="none" stroke="black" d="M380.38,-71.7C380.38,-64.41 380.38,-55.73 380.38,-47.54"/>
<polygon fill="black" stroke="black" points="383.88,-47.62 380.38,-37.62 376.88,-47.62 383.88,-47.62"/>
</g>
<!-- op_swap4&#45;&gt;arr_out -->
<g id="edge15" class="edge">
<title>op_swap4&#45;&gt;arr_out</title>
<path fill="none" stroke="black" d="M500.41,-71.52C473.48,-59.73 438.4,-44.38 413.12,-33.33"/>
<polygon fill="black" stroke="black" points="414.55,-30.13 403.99,-29.33 411.75,-36.55 414.55,-30.13"/>
</g>
<!-- op_inc_i -->
<g id="node12" class="node">
<title>op_inc_i</title>
<polygon fill="none" stroke="black" points="1513.38,-180 1459.38,-180 1459.38,-144 1513.38,-144 1513.38,-180"/>
<text xml:space="preserve" text-anchor="middle" x="1486.38" y="-156.95" font-family="Times New Roman,serif" font-size="14.00">i++</text>
</g>
<!-- op_dec_j -->
<g id="node13" class="node">
<title>op_dec_j</title>
<polygon fill="none" stroke="black" points="1585.38,-180 1531.38,-180 1531.38,-144 1585.38,-144 1585.38,-180"/>
<text xml:space="preserve" text-anchor="middle" x="1558.38" y="-156.95" font-family="Times New Roman,serif" font-size="14.00">j&#45;&#45;</text>
</g>
<!-- op_assign_arr&#45;&gt;arr_out -->
<g id="edge16" class="edge">
<title>op_assign_arr&#45;&gt;arr_out</title>
<path fill="none" stroke="black" d="M1019.02,-73.51C1015.77,-72.97 1012.54,-72.46 1009.38,-72 787.1,-39.72 517.57,-25.15 418.92,-20.63"/>
<polygon fill="black" stroke="black" points="419.14,-17.14 408.99,-20.18 418.83,-24.13 419.14,-17.14"/>
</g>
<!-- istack_out -->
<g id="node19" class="node">
<title>istack_out</title>
<ellipse fill="lightgreen" stroke="black" cx="1409.38" cy="-18" rx="32.41" ry="18"/>
<text xml:space="preserve" text-anchor="middle" x="1409.38" y="-12.95" font-family="Times New Roman,serif" font-size="14.00">istack</text>
</g>
<!-- op_push&#45;&gt;istack_out -->
<g id="edge17" class="edge">
<title>op_push&#45;&gt;istack_out</title>
<path fill="none" stroke="black" d="M1409.38,-71.7C1409.38,-64.41 1409.38,-55.73 1409.38,-47.54"/>
<polygon fill="black" stroke="black" points="1412.88,-47.62 1409.38,-37.62 1405.88,-47.62 1412.88,-47.62"/>
</g>
</g>
</svg>
