<?xml version="1.0" encoding="UTF-8" standalone="no"?>
<!DOCTYPE svg PUBLIC "-//W3C//DTD SVG 1.1//EN"
 "http://www.w3.org/Graphics/SVG/1.1/DTD/svg11.dtd">
<!-- Generated by graphviz version 13.1.2 (20250808.2320)
 -->
<!-- Title: sort_CFG Pages: 1 -->
<svg width="1045pt" height="1231pt"
 viewBox="0.00 0.00 1045.00 1231.00" xmlns="http://www.w3.org/2000/svg" xmlns:xlink="http://www.w3.org/1999/xlink">
<g id="graph0" class="graph" transform="scale(1 1) rotate(0) translate(4 1227)">
<title>sort_CFG</title>
<polygon fill="white" stroke="none" points="-4,4 -4,-1227 1041.25,-1227 1041.25,4 -4,4"/>
<!-- N1 -->
<g id="node1" class="node">
<title>N1</title>
<path fill="none" stroke="black" d="M884.25,-1223C884.25,-1223 642.5,-1223 642.5,-1223 636.5,-1223 630.5,-1217 630.5,-1211 630.5,-1211 630.5,-1195.5 630.5,-1195.5 630.5,-1189.5 636.5,-1183.5 642.5,-1183.5 642.5,-1183.5 884.25,-1183.5 884.25,-1183.5 890.25,-1183.5 896.25,-1189.5 896.25,-1195.5 896.25,-1195.5 896.25,-1211 896.25,-1211 896.25,-1217 890.25,-1223 884.25,-1223"/>
<text xml:space="preserve" text-anchor="middle" x="763.38" y="-1205.7" font-family="Helvetica,sans-Serif" font-size="14.00">1: Initialization</text>
<text xml:space="preserve" text-anchor="middle" x="763.38" y="-1189.95" font-family="Helvetica,sans-Serif" font-size="14.00">(i, ir=n, j, k, l=1, jstack=0, flag=0, a, temp)</text>
</g>
<!-- N2 -->
<g id="node2" class="node">
<title>N2</title>
<path fill="none" stroke="black" d="M784.88,-1146.5C784.88,-1146.5 741.88,-1146.5 741.88,-1146.5 735.88,-1146.5 729.88,-1140.5 729.88,-1134.5 729.88,-1134.5 729.88,-1122.5 729.88,-1122.5 729.88,-1116.5 735.88,-1110.5 741.88,-1110.5 741.88,-1110.5 784.88,-1110.5 784.88,-1110.5 790.88,-1110.5 796.88,-1116.5 796.88,-1122.5 796.88,-1122.5 796.88,-1134.5 796.88,-1134.5 796.88,-1140.5 790.88,-1146.5 784.88,-1146.5"/>
<text xml:space="preserve" text-anchor="middle" x="763.38" y="-1123.08" font-family="Helvetica,sans-Serif" font-size="14.00">2: for (;;)</text>
</g>
<!-- N1&#45;&gt;N2 -->
<g id="edge1" class="edge">
<title>N1&#45;&gt;N2</title>
<path fill="none" stroke="black" d="M763.38,-1183.14C763.38,-1175.47 763.38,-1166.47 763.38,-1158.05"/>
<polygon fill="black" stroke="black" points="766.88,-1158.26 763.38,-1148.26 759.88,-1158.26 766.88,-1158.26"/>
</g>
<!-- N3 -->
<g id="node3" class="node">
<title>N3</title>
<path fill="none" stroke="black" d="M609,-1073.5C609,-1073.5 539.75,-1073.5 539.75,-1073.5 533.75,-1073.5 527.75,-1067.5 527.75,-1061.5 527.75,-1061.5 527.75,-1049.5 527.75,-1049.5 527.75,-1043.5 533.75,-1037.5 539.75,-1037.5 539.75,-1037.5 609,-1037.5 609,-1037.5 615,-1037.5 621,-1043.5 621,-1049.5 621,-1049.5 621,-1061.5 621,-1061.5 621,-1067.5 615,-1073.5 609,-1073.5"/>
<text xml:space="preserve" text-anchor="middle" x="574.38" y="-1050.08" font-family="Helvetica,sans-Serif" font-size="14.00">3: if (ir&#45;l &lt; M)</text>
</g>
<!-- N2&#45;&gt;N3 -->
<g id="edge2" class="edge">
<title>N2&#45;&gt;N3</title>
<path fill="none" stroke="black" d="M729.59,-1114.81C702.3,-1104.56 663.31,-1089.91 631.24,-1077.86"/>
<polygon fill="black" stroke="black" points="632.66,-1074.66 622.07,-1074.42 630.2,-1081.21 632.66,-1074.66"/>
</g>
<!-- N4 -->
<g id="node4" class="node">
<title>N4</title>
<path fill="none" stroke="black" d="M679.5,-985.75C679.5,-985.75 469.25,-985.75 469.25,-985.75 463.25,-985.75 457.25,-979.75 457.25,-973.75 457.25,-973.75 457.25,-961.75 457.25,-961.75 457.25,-955.75 463.25,-949.75 469.25,-949.75 469.25,-949.75 679.5,-949.75 679.5,-949.75 685.5,-949.75 691.5,-955.75 691.5,-961.75 691.5,-961.75 691.5,-973.75 691.5,-973.75 691.5,-979.75 685.5,-985.75 679.5,-985.75"/>
<text xml:space="preserve" text-anchor="middle" x="574.38" y="-962.33" font-family="Helvetica,sans-Serif" font-size="14.00">4: Insertion sort loop (j from l+1 to ir)</text>
</g>
<!-- N3&#45;&gt;N4 -->
<g id="edge3" class="edge">
<title>N3&#45;&gt;N4</title>
<path fill="none" stroke="black" d="M574.38,-1037.15C574.38,-1025.76 574.38,-1010.59 574.38,-997.43"/>
<polygon fill="black" stroke="black" points="577.88,-997.59 574.38,-987.59 570.88,-997.59 577.88,-997.59"/>
<text xml:space="preserve" text-anchor="middle" x="586" y="-1006.2" font-family="Helvetica,sans-Serif" font-size="14.00">true</text>
</g>
<!-- N12 -->
<g id="node12" class="node">
<title>N12</title>
<path fill="none" stroke="black" d="M421.38,-985.75C421.38,-985.75 195.38,-985.75 195.38,-985.75 189.38,-985.75 183.38,-979.75 183.38,-973.75 183.38,-973.75 183.38,-961.75 183.38,-961.75 183.38,-955.75 189.38,-949.75 195.38,-949.75 195.38,-949.75 421.38,-949.75 421.38,-949.75 427.38,-949.75 433.38,-955.75 433.38,-961.75 433.38,-961.75 433.38,-973.75 433.38,-973.75 433.38,-979.75 427.38,-985.75 421.38,-985.75"/>
<text xml:space="preserve" text-anchor="middle" x="308.38" y="-962.33" font-family="Helvetica,sans-Serif" font-size="14.00">12: k = (l+ir)&gt;&gt;1; SWAP(arr[k], arr[l+1])</text>
</g>
<!-- N3&#45;&gt;N12 -->
<g id="edge4" class="edge">
<title>N3&#45;&gt;N12</title>
<path fill="none" stroke="black" d="M527.43,-1039.37C484.68,-1025.58 421.13,-1005.1 373.47,-989.73"/>
<polygon fill="black" stroke="black" points="374.67,-986.45 364.08,-986.71 372.53,-993.11 374.67,-986.45"/>
<text xml:space="preserve" text-anchor="middle" x="479.45" y="-1006.2" font-family="Helvetica,sans-Serif" font-size="14.00">false</text>
</g>
<!-- N5 -->
<g id="node5" class="node">
<title>N5</title>
<path fill="none" stroke="black" d="M787.5,-898C787.5,-898 685.25,-898 685.25,-898 679.25,-898 673.25,-892 673.25,-886 673.25,-886 673.25,-874 673.25,-874 673.25,-868 679.25,-862 685.25,-862 685.25,-862 787.5,-862 787.5,-862 793.5,-862 799.5,-868 799.5,-874 799.5,-874 799.5,-886 799.5,-886 799.5,-892 793.5,-898 787.5,-898"/>
<text xml:space="preserve" text-anchor="middle" x="736.38" y="-874.58" font-family="Helvetica,sans-Serif" font-size="14.00">5: a = arr[j]; i = j&#45;1;</text>
</g>
<!-- N4&#45;&gt;N5 -->
<g id="edge5" class="edge">
<title>N4&#45;&gt;N5</title>
<path fill="none" stroke="black" d="M607.16,-949.4C632,-936.25 666.35,-918.07 693.39,-903.75"/>
<polygon fill="black" stroke="black" points="694.82,-906.95 702.03,-899.18 691.55,-900.77 694.82,-906.95"/>
</g>
<!-- N10 -->
<g id="node10" class="node">
<title>N10</title>
<path fill="none" stroke="black" d="M643.12,-898C643.12,-898 505.62,-898 505.62,-898 499.62,-898 493.62,-892 493.62,-886 493.62,-886 493.62,-874 493.62,-874 493.62,-868 499.62,-862 505.62,-862 505.62,-862 643.12,-862 643.12,-862 649.12,-862 655.12,-868 655.12,-874 655.12,-874 655.12,-886 655.12,-886 655.12,-892 649.12,-898 643.12,-898"/>
<text xml:space="preserve" text-anchor="middle" x="574.38" y="-874.58" font-family="Helvetica,sans-Serif" font-size="14.00">10: if (jstack == 0) break</text>
</g>
<!-- N4&#45;&gt;N10 -->
<g id="edge12" class="edge">
<title>N4&#45;&gt;N10</title>
<path fill="none" stroke="black" d="M574.38,-949.4C574.38,-938.01 574.38,-922.84 574.38,-909.68"/>
<polygon fill="black" stroke="black" points="577.88,-909.84 574.38,-899.84 570.88,-909.84 577.88,-909.84"/>
<text xml:space="preserve" text-anchor="middle" x="583.75" y="-918.45" font-family="Helvetica,sans-Serif" font-size="14.00">j&gt;ir</text>
</g>
<!-- N6 -->
<g id="node6" class="node">
<title>N6</title>
<path fill="none" stroke="black" d="M981.25,-810.25C981.25,-810.25 871.5,-810.25 871.5,-810.25 865.5,-810.25 859.5,-804.25 859.5,-798.25 859.5,-798.25 859.5,-786.25 859.5,-786.25 859.5,-780.25 865.5,-774.25 871.5,-774.25 871.5,-774.25 981.25,-774.25 981.25,-774.25 987.25,-774.25 993.25,-780.25 993.25,-786.25 993.25,-786.25 993.25,-798.25 993.25,-798.25 993.25,-804.25 987.25,-810.25 981.25,-810.25"/>
<text xml:space="preserve" text-anchor="middle" x="926.38" y="-786.83" font-family="Helvetica,sans-Serif" font-size="14.00">6: Inner loop (i &gt;= l)</text>
</g>
<!-- N5&#45;&gt;N6 -->
<g id="edge6" class="edge">
<title>N5&#45;&gt;N6</title>
<path fill="none" stroke="black" d="M774.82,-861.65C804.34,-848.32 845.31,-829.83 877.22,-815.44"/>
<polygon fill="black" stroke="black" points="878.6,-818.65 886.28,-811.35 875.72,-812.27 878.6,-818.65"/>
</g>
<!-- N7 -->
<g id="node7" class="node">
<title>N7</title>
<path fill="none" stroke="black" d="M886.62,-737.25C886.62,-737.25 764.12,-737.25 764.12,-737.25 758.12,-737.25 752.12,-731.25 752.12,-725.25 752.12,-725.25 752.12,-713.25 752.12,-713.25 752.12,-707.25 758.12,-701.25 764.12,-701.25 764.12,-701.25 886.62,-701.25 886.62,-701.25 892.62,-701.25 898.62,-707.25 898.62,-713.25 898.62,-713.25 898.62,-725.25 898.62,-725.25 898.62,-731.25 892.62,-737.25 886.62,-737.25"/>
<text xml:space="preserve" text-anchor="middle" x="825.38" y="-713.83" font-family="Helvetica,sans-Serif" font-size="14.00">7: if (arr[i] &lt;= a) break</text>
</g>
<!-- N6&#45;&gt;N7 -->
<g id="edge7" class="edge">
<title>N6&#45;&gt;N7</title>
<path fill="none" stroke="black" d="M901.67,-773.88C888.95,-764.94 873.25,-753.91 859.41,-744.17"/>
<polygon fill="black" stroke="black" points="861.61,-741.44 851.42,-738.56 857.58,-747.17 861.61,-741.44"/>
</g>
<!-- N8 -->
<g id="node8" class="node">
<title>N8</title>
<path fill="none" stroke="black" d="M954.38,-649.5C954.38,-649.5 842.38,-649.5 842.38,-649.5 836.38,-649.5 830.38,-643.5 830.38,-637.5 830.38,-637.5 830.38,-625.5 830.38,-625.5 830.38,-619.5 836.38,-613.5 842.38,-613.5 842.38,-613.5 954.38,-613.5 954.38,-613.5 960.38,-613.5 966.38,-619.5 966.38,-625.5 966.38,-625.5 966.38,-637.5 966.38,-637.5 966.38,-643.5 960.38,-649.5 954.38,-649.5"/>
<text xml:space="preserve" text-anchor="middle" x="898.38" y="-626.08" font-family="Helvetica,sans-Serif" font-size="14.00">8: arr[i+1] = arr[i]; i&#45;&#45;</text>
</g>
<!-- N7&#45;&gt;N8 -->
<g id="edge9" class="edge">
<title>N7&#45;&gt;N8</title>
<path fill="none" stroke="black" d="M840.15,-700.9C850.54,-688.69 864.62,-672.15 876.33,-658.39"/>
<polygon fill="black" stroke="black" points="878.83,-660.86 882.64,-650.98 873.5,-656.33 878.83,-660.86"/>
<text xml:space="preserve" text-anchor="middle" x="882.66" y="-669.95" font-family="Helvetica,sans-Serif" font-size="14.00">false</text>
</g>
<!-- N9 -->
<g id="node9" class="node">
<title>N9</title>
<path fill="none" stroke="black" d="M637.88,-649.5C637.88,-649.5 564.88,-649.5 564.88,-649.5 558.88,-649.5 552.88,-643.5 552.88,-637.5 552.88,-637.5 552.88,-625.5 552.88,-625.5 552.88,-619.5 558.88,-613.5 564.88,-613.5 564.88,-613.5 637.88,-613.5 637.88,-613.5 643.88,-613.5 649.88,-619.5 649.88,-625.5 649.88,-625.5 649.88,-637.5 649.88,-637.5 649.88,-643.5 643.88,-649.5 637.88,-649.5"/>
<text xml:space="preserve" text-anchor="middle" x="601.38" y="-626.08" font-family="Helvetica,sans-Serif" font-size="14.00">9: arr[i+1] = a</text>
</g>
<!-- N7&#45;&gt;N9 -->
<g id="edge8" class="edge">
<title>N7&#45;&gt;N9</title>
<path fill="none" stroke="black" d="M779.78,-700.79C744.35,-687.23 695.05,-668.36 657.25,-653.89"/>
<polygon fill="black" stroke="black" points="658.91,-650.78 648.32,-650.47 656.41,-657.32 658.91,-650.78"/>
<text xml:space="preserve" text-anchor="middle" x="745.06" y="-669.95" font-family="Helvetica,sans-Serif" font-size="14.00">true</text>
</g>
<!-- N8&#45;&gt;N6 -->
<g id="edge10" class="edge">
<title>N8&#45;&gt;N6</title>
<path fill="none" stroke="black" d="M901.42,-649.77C906.22,-676.95 915.57,-730 921.37,-762.85"/>
<polygon fill="black" stroke="black" points="917.88,-763.23 923.06,-772.47 924.77,-762.01 917.88,-763.23"/>
</g>
<!-- N9&#45;&gt;N4 -->
<g id="edge11" class="edge">
<title>N9&#45;&gt;N4</title>
<path fill="none" stroke="black" d="M552.66,-642.34C513.64,-653.4 465.38,-675.68 465.38,-718.25 465.38,-881 465.38,-881 465.38,-881 465.38,-909.8 489.17,-930.41 514.53,-944.19"/>
<polygon fill="black" stroke="black" points="512.81,-947.24 523.31,-948.64 515.97,-941 512.81,-947.24"/>
<text xml:space="preserve" text-anchor="middle" x="475.12" y="-786.83" font-family="Helvetica,sans-Serif" font-size="14.00">j++</text>
</g>
<!-- N11 -->
<g id="node11" class="node">
<title>N11</title>
<path fill="none" stroke="black" d="M829.5,-810.25C829.5,-810.25 595.25,-810.25 595.25,-810.25 589.25,-810.25 583.25,-804.25 583.25,-798.25 583.25,-798.25 583.25,-786.25 583.25,-786.25 583.25,-780.25 589.25,-774.25 595.25,-774.25 595.25,-774.25 829.5,-774.25 829.5,-774.25 835.5,-774.25 841.5,-780.25 841.5,-786.25 841.5,-786.25 841.5,-798.25 841.5,-798.25 841.5,-804.25 835.5,-810.25 829.5,-810.25"/>
<text xml:space="preserve" text-anchor="middle" x="712.38" y="-786.83" font-family="Helvetica,sans-Serif" font-size="14.00">11: ir = istack[jstack&#45;&#45;]; l = istack[jstack&#45;&#45;]</text>
</g>
<!-- N10&#45;&gt;N11 -->
<g id="edge14" class="edge">
<title>N10&#45;&gt;N11</title>
<path fill="none" stroke="black" d="M602.3,-861.65C623.16,-848.69 651.89,-830.84 674.76,-816.62"/>
<polygon fill="black" stroke="black" points="676.56,-819.63 683.2,-811.38 672.86,-813.68 676.56,-819.63"/>
<text xml:space="preserve" text-anchor="middle" x="669.99" y="-830.7" font-family="Helvetica,sans-Serif" font-size="14.00">false</text>
</g>
<!-- N27 -->
<g id="node27" class="node">
<title>N27</title>
<path fill="none" stroke="black" d="M553.62,-810.25C553.62,-810.25 515.12,-810.25 515.12,-810.25 509.12,-810.25 503.12,-804.25 503.12,-798.25 503.12,-798.25 503.12,-786.25 503.12,-786.25 503.12,-780.25 509.12,-774.25 515.12,-774.25 515.12,-774.25 553.62,-774.25 553.62,-774.25 559.62,-774.25 565.62,-780.25 565.62,-786.25 565.62,-786.25 565.62,-798.25 565.62,-798.25 565.62,-804.25 559.62,-810.25 553.62,-810.25"/>
<text xml:space="preserve" text-anchor="middle" x="534.38" y="-786.83" font-family="Helvetica,sans-Serif" font-size="14.00">27: End</text>
</g>
<!-- N10&#45;&gt;N27 -->
<g id="edge13" class="edge">
<title>N10&#45;&gt;N27</title>
<path fill="none" stroke="black" d="M566.28,-861.65C560.8,-849.91 553.46,-834.16 547.19,-820.73"/>
<polygon fill="black" stroke="black" points="550.5,-819.53 543.1,-811.95 544.15,-822.49 550.5,-819.53"/>
<text xml:space="preserve" text-anchor="middle" x="569.58" y="-830.7" font-family="Helvetica,sans-Serif" font-size="14.00">true</text>
</g>
<!-- N11&#45;&gt;N2 -->
<g id="edge15" class="edge">
<title>N11&#45;&gt;N2</title>
<path fill="none" stroke="black" d="M766.51,-810.67C796.34,-824.03 827.38,-845.88 827.38,-879 827.38,-1056.5 827.38,-1056.5 827.38,-1056.5 827.38,-1075.19 814.99,-1091.18 801.11,-1103.22"/>
<polygon fill="black" stroke="black" points="799.19,-1100.28 793.56,-1109.26 803.56,-1105.75 799.19,-1100.28"/>
</g>
<!-- N13 -->
<g id="node13" class="node">
<title>N13</title>
<path fill="none" stroke="black" d="M413.75,-898C413.75,-898 187,-898 187,-898 181,-898 175,-892 175,-886 175,-886 175,-874 175,-874 175,-868 181,-862 187,-862 187,-862 413.75,-862 413.75,-862 419.75,-862 425.75,-868 425.75,-874 425.75,-874 425.75,-886 425.75,-886 425.75,-892 419.75,-898 413.75,-898"/>
<text xml:space="preserve" text-anchor="middle" x="300.38" y="-874.58" font-family="Helvetica,sans-Serif" font-size="14.00">13: if (arr[l] &gt; arr[ir]) SWAP(arr[l], arr[ir])</text>
</g>
<!-- N12&#45;&gt;N13 -->
<g id="edge16" class="edge">
<title>N12&#45;&gt;N13</title>
<path fill="none" stroke="black" d="M306.76,-949.4C305.69,-938.01 304.28,-922.84 303.05,-909.68"/>
<polygon fill="black" stroke="black" points="306.55,-909.47 302.13,-899.83 299.58,-910.12 306.55,-909.47"/>
</g>
<!-- N14 -->
<g id="node14" class="node">
<title>N14</title>
<path fill="none" stroke="black" d="M417.5,-810.25C417.5,-810.25 159.25,-810.25 159.25,-810.25 153.25,-810.25 147.25,-804.25 147.25,-798.25 147.25,-798.25 147.25,-786.25 147.25,-786.25 147.25,-780.25 153.25,-774.25 159.25,-774.25 159.25,-774.25 417.5,-774.25 417.5,-774.25 423.5,-774.25 429.5,-780.25 429.5,-786.25 429.5,-786.25 429.5,-798.25 429.5,-798.25 429.5,-804.25 423.5,-810.25 417.5,-810.25"/>
<text xml:space="preserve" text-anchor="middle" x="288.38" y="-786.83" font-family="Helvetica,sans-Serif" font-size="14.00">14: if (arr[l+1] &gt; arr[ir]) SWAP(arr[l+1], arr[ir])</text>
</g>
<!-- N13&#45;&gt;N14 -->
<g id="edge17" class="edge">
<title>N13&#45;&gt;N14</title>
<path fill="none" stroke="black" d="M297.95,-861.65C296.35,-850.26 294.23,-835.09 292.39,-821.93"/>
<polygon fill="black" stroke="black" points="295.86,-821.49 291.01,-812.08 288.93,-822.46 295.86,-821.49"/>
</g>
<!-- N15 -->
<g id="node15" class="node">
<title>N15</title>
<path fill="none" stroke="black" d="M414,-737.25C414,-737.25 164.75,-737.25 164.75,-737.25 158.75,-737.25 152.75,-731.25 152.75,-725.25 152.75,-725.25 152.75,-713.25 152.75,-713.25 152.75,-707.25 158.75,-701.25 164.75,-701.25 164.75,-701.25 414,-701.25 414,-701.25 420,-701.25 426,-707.25 426,-713.25 426,-713.25 426,-725.25 426,-725.25 426,-731.25 420,-737.25 414,-737.25"/>
<text xml:space="preserve" text-anchor="middle" x="289.38" y="-713.83" font-family="Helvetica,sans-Serif" font-size="14.00">15: if (arr[l] &gt; arr[l+1]) SWAP(arr[l], arr[l+1])</text>
</g>
<!-- N14&#45;&gt;N15 -->
<g id="edge18" class="edge">
<title>N14&#45;&gt;N15</title>
<path fill="none" stroke="black" d="M288.62,-774.06C288.72,-766.48 288.85,-757.35 288.97,-748.79"/>
<polygon fill="black" stroke="black" points="292.47,-748.84 289.11,-738.79 285.47,-748.74 292.47,-748.84"/>
</g>
<!-- N16 -->
<g id="node16" class="node">
<title>N16</title>
<path fill="none" stroke="black" d="M370,-649.5C370,-649.5 210.75,-649.5 210.75,-649.5 204.75,-649.5 198.75,-643.5 198.75,-637.5 198.75,-637.5 198.75,-625.5 198.75,-625.5 198.75,-619.5 204.75,-613.5 210.75,-613.5 210.75,-613.5 370,-613.5 370,-613.5 376,-613.5 382,-619.5 382,-625.5 382,-625.5 382,-637.5 382,-637.5 382,-643.5 376,-649.5 370,-649.5"/>
<text xml:space="preserve" text-anchor="middle" x="290.38" y="-626.08" font-family="Helvetica,sans-Serif" font-size="14.00">16: i = l+1; j = ir; a = arr[l+1]</text>
</g>
<!-- N15&#45;&gt;N16 -->
<g id="edge19" class="edge">
<title>N15&#45;&gt;N16</title>
<path fill="none" stroke="black" d="M289.58,-700.9C289.71,-689.51 289.89,-674.34 290.04,-661.18"/>
<polygon fill="black" stroke="black" points="293.54,-661.38 290.16,-651.34 286.54,-661.3 293.54,-661.38"/>
</g>
<!-- N17 -->
<g id="node17" class="node">
<title>N17</title>
<path fill="none" stroke="black" d="M324.62,-576.5C324.62,-576.5 274.12,-576.5 274.12,-576.5 268.12,-576.5 262.12,-570.5 262.12,-564.5 262.12,-564.5 262.12,-552.5 262.12,-552.5 262.12,-546.5 268.12,-540.5 274.12,-540.5 274.12,-540.5 324.62,-540.5 324.62,-540.5 330.62,-540.5 336.62,-546.5 336.62,-552.5 336.62,-552.5 336.62,-564.5 336.62,-564.5 336.62,-570.5 330.62,-576.5 324.62,-576.5"/>
<text xml:space="preserve" text-anchor="middle" x="299.38" y="-553.08" font-family="Helvetica,sans-Serif" font-size="14.00">17: for (;;)</text>
</g>
<!-- N16&#45;&gt;N17 -->
<g id="edge20" class="edge">
<title>N16&#45;&gt;N17</title>
<path fill="none" stroke="black" d="M292.55,-613.31C293.53,-605.64 294.7,-596.39 295.79,-587.74"/>
<polygon fill="black" stroke="black" points="299.24,-588.39 297.03,-578.03 292.3,-587.51 299.24,-588.39"/>
</g>
<!-- N18 -->
<g id="node18" class="node">
<title>N18</title>
<path fill="none" stroke="black" d="M378.62,-503.5C378.62,-503.5 220.12,-503.5 220.12,-503.5 214.12,-503.5 208.12,-497.5 208.12,-491.5 208.12,-491.5 208.12,-479.5 208.12,-479.5 208.12,-473.5 214.12,-467.5 220.12,-467.5 220.12,-467.5 378.62,-467.5 378.62,-467.5 384.62,-467.5 390.62,-473.5 390.62,-479.5 390.62,-479.5 390.62,-491.5 390.62,-491.5 390.62,-497.5 384.62,-503.5 378.62,-503.5"/>
<text xml:space="preserve" text-anchor="middle" x="299.38" y="-480.07" font-family="Helvetica,sans-Serif" font-size="14.00">18: i++; while (arr[i] &lt; a) i++</text>
</g>
<!-- N17&#45;&gt;N18 -->
<g id="edge21" class="edge">
<title>N17&#45;&gt;N18</title>
<path fill="none" stroke="black" d="M299.38,-540.31C299.38,-532.73 299.38,-523.6 299.38,-515.04"/>
<polygon fill="black" stroke="black" points="302.88,-515.04 299.38,-505.04 295.88,-515.04 302.88,-515.04"/>
</g>
<!-- N19 -->
<g id="node19" class="node">
<title>N19</title>
<path fill="none" stroke="black" d="M371.12,-430.5C371.12,-430.5 227.62,-430.5 227.62,-430.5 221.62,-430.5 215.62,-424.5 215.62,-418.5 215.62,-418.5 215.62,-406.5 215.62,-406.5 215.62,-400.5 221.62,-394.5 227.62,-394.5 227.62,-394.5 371.12,-394.5 371.12,-394.5 377.12,-394.5 383.12,-400.5 383.12,-406.5 383.12,-406.5 383.12,-418.5 383.12,-418.5 383.12,-424.5 377.12,-430.5 371.12,-430.5"/>
<text xml:space="preserve" text-anchor="middle" x="299.38" y="-407.07" font-family="Helvetica,sans-Serif" font-size="14.00">19: j&#45;&#45;; while (arr[j] &gt; a) j&#45;&#45;</text>
</g>
<!-- N18&#45;&gt;N19 -->
<g id="edge22" class="edge">
<title>N18&#45;&gt;N19</title>
<path fill="none" stroke="black" d="M299.38,-467.31C299.38,-459.73 299.38,-450.6 299.38,-442.04"/>
<polygon fill="black" stroke="black" points="302.88,-442.04 299.38,-432.04 295.88,-442.04 302.88,-442.04"/>
</g>
<!-- N20 -->
<g id="node20" class="node">
<title>N20</title>
<path fill="none" stroke="black" d="M346,-357.5C346,-357.5 252.75,-357.5 252.75,-357.5 246.75,-357.5 240.75,-351.5 240.75,-345.5 240.75,-345.5 240.75,-333.5 240.75,-333.5 240.75,-327.5 246.75,-321.5 252.75,-321.5 252.75,-321.5 346,-321.5 346,-321.5 352,-321.5 358,-327.5 358,-333.5 358,-333.5 358,-345.5 358,-345.5 358,-351.5 352,-357.5 346,-357.5"/>
<text xml:space="preserve" text-anchor="middle" x="299.38" y="-334.07" font-family="Helvetica,sans-Serif" font-size="14.00">20: if (j &lt; i) break</text>
</g>
<!-- N19&#45;&gt;N20 -->
<g id="edge23" class="edge">
<title>N19&#45;&gt;N20</title>
<path fill="none" stroke="black" d="M299.38,-394.31C299.38,-386.73 299.38,-377.6 299.38,-369.04"/>
<polygon fill="black" stroke="black" points="302.88,-369.04 299.38,-359.04 295.88,-369.04 302.88,-369.04"/>
</g>
<!-- N21 -->
<g id="node21" class="node">
<title>N21</title>
<path fill="none" stroke="black" d="M483.75,-269.75C483.75,-269.75 359,-269.75 359,-269.75 353,-269.75 347,-263.75 347,-257.75 347,-257.75 347,-245.75 347,-245.75 347,-239.75 353,-233.75 359,-233.75 359,-233.75 483.75,-233.75 483.75,-233.75 489.75,-233.75 495.75,-239.75 495.75,-245.75 495.75,-245.75 495.75,-257.75 495.75,-257.75 495.75,-263.75 489.75,-269.75 483.75,-269.75"/>
<text xml:space="preserve" text-anchor="middle" x="421.38" y="-246.32" font-family="Helvetica,sans-Serif" font-size="14.00">21: SWAP(arr[i], arr[j])</text>
</g>
<!-- N20&#45;&gt;N21 -->
<g id="edge25" class="edge">
<title>N20&#45;&gt;N21</title>
<path fill="none" stroke="black" d="M324.06,-321.15C342.25,-308.36 367.22,-290.82 387.3,-276.7"/>
<polygon fill="black" stroke="black" points="389.32,-279.56 395.48,-270.95 385.29,-273.83 389.32,-279.56"/>
<text xml:space="preserve" text-anchor="middle" x="385.55" y="-290.2" font-family="Helvetica,sans-Serif" font-size="14.00">false</text>
</g>
<!-- N22 -->
<g id="node22" class="node">
<title>N22</title>
<path fill="none" stroke="black" d="M317.25,-269.75C317.25,-269.75 159.5,-269.75 159.5,-269.75 153.5,-269.75 147.5,-263.75 147.5,-257.75 147.5,-257.75 147.5,-245.75 147.5,-245.75 147.5,-239.75 153.5,-233.75 159.5,-233.75 159.5,-233.75 317.25,-233.75 317.25,-233.75 323.25,-233.75 329.25,-239.75 329.25,-245.75 329.25,-245.75 329.25,-257.75 329.25,-257.75 329.25,-263.75 323.25,-269.75 317.25,-269.75"/>
<text xml:space="preserve" text-anchor="middle" x="238.38" y="-246.32" font-family="Helvetica,sans-Serif" font-size="14.00">22: arr[l+1] = arr[j]; arr[j] = a</text>
</g>
<!-- N20&#45;&gt;N22 -->
<g id="edge24" class="edge">
<title>N20&#45;&gt;N22</title>
<path fill="none" stroke="black" d="M287.03,-321.15C278.51,-309.18 267.03,-293.03 257.36,-279.43"/>
<polygon fill="black" stroke="black" points="260.23,-277.43 251.58,-271.31 254.52,-281.49 260.23,-277.43"/>
<text xml:space="preserve" text-anchor="middle" x="285.96" y="-290.2" font-family="Helvetica,sans-Serif" font-size="14.00">true</text>
</g>
<!-- N21&#45;&gt;N17 -->
<g id="edge26" class="edge">
<title>N21&#45;&gt;N17</title>
<path fill="none" stroke="black" d="M421.38,-270.16C421.38,-287.48 421.38,-314.83 421.38,-338.5 421.38,-486.5 421.38,-486.5 421.38,-486.5 421.38,-522.21 381.84,-540.27 347.78,-549.21"/>
<polygon fill="black" stroke="black" points="347.36,-545.71 338.45,-551.44 348.99,-552.52 347.36,-545.71"/>
</g>
<!-- N23 -->
<g id="node23" class="node">
<title>N23</title>
<path fill="none" stroke="black" d="M278.62,-196.75C278.62,-196.75 198.12,-196.75 198.12,-196.75 192.12,-196.75 186.12,-190.75 186.12,-184.75 186.12,-184.75 186.12,-172.75 186.12,-172.75 186.12,-166.75 192.12,-160.75 198.12,-160.75 198.12,-160.75 278.62,-160.75 278.62,-160.75 284.62,-160.75 290.62,-166.75 290.62,-172.75 290.62,-172.75 290.62,-184.75 290.62,-184.75 290.62,-190.75 284.62,-196.75 278.62,-196.75"/>
<text xml:space="preserve" text-anchor="middle" x="238.38" y="-173.32" font-family="Helvetica,sans-Serif" font-size="14.00">23: jstack += 2</text>
</g>
<!-- N22&#45;&gt;N23 -->
<g id="edge27" class="edge">
<title>N22&#45;&gt;N23</title>
<path fill="none" stroke="black" d="M238.38,-233.56C238.38,-225.98 238.38,-216.85 238.38,-208.29"/>
<polygon fill="black" stroke="black" points="241.88,-208.29 238.38,-198.29 234.88,-208.29 241.88,-208.29"/>
</g>
<!-- N24 -->
<g id="node24" class="node">
<title>N24</title>
<path fill="none" stroke="black" d="M288,-123.75C288,-123.75 188.75,-123.75 188.75,-123.75 182.75,-123.75 176.75,-117.75 176.75,-111.75 176.75,-111.75 176.75,-99.75 176.75,-99.75 176.75,-93.75 182.75,-87.75 188.75,-87.75 188.75,-87.75 288,-87.75 288,-87.75 294,-87.75 300,-93.75 300,-99.75 300,-99.75 300,-111.75 300,-111.75 300,-117.75 294,-123.75 288,-123.75"/>
<text xml:space="preserve" text-anchor="middle" x="238.38" y="-100.33" font-family="Helvetica,sans-Serif" font-size="14.00">24: if (ir&#45;i+1 &gt;= j&#45;l)</text>
</g>
<!-- N23&#45;&gt;N24 -->
<g id="edge28" class="edge">
<title>N23&#45;&gt;N24</title>
<path fill="none" stroke="black" d="M238.38,-160.56C238.38,-152.98 238.38,-143.85 238.38,-135.29"/>
<polygon fill="black" stroke="black" points="241.88,-135.29 238.38,-125.29 234.88,-135.29 241.88,-135.29"/>
</g>
<!-- N25 -->
<g id="node25" class="node">
<title>N25</title>
<path fill="none" stroke="black" d="M286.75,-36C286.75,-36 12,-36 12,-36 6,-36 0,-30 0,-24 0,-24 0,-12 0,-12 0,-6 6,0 12,0 12,0 286.75,0 286.75,0 292.75,0 298.75,-6 298.75,-12 298.75,-12 298.75,-24 298.75,-24 298.75,-30 292.75,-36 286.75,-36"/>
<text xml:space="preserve" text-anchor="middle" x="149.38" y="-12.57" font-family="Helvetica,sans-Serif" font-size="14.00">25: istack[jstack] = ir; istack[jstack&#45;1] = i; ir = j&#45;1</text>
</g>
<!-- N24&#45;&gt;N25 -->
<g id="edge29" class="edge">
<title>N24&#45;&gt;N25</title>
<path fill="none" stroke="black" d="M220.36,-87.4C207.46,-74.96 189.87,-58.02 175.44,-44.11"/>
<polygon fill="black" stroke="black" points="178.08,-41.8 168.45,-37.38 173.22,-46.84 178.08,-41.8"/>
<text xml:space="preserve" text-anchor="middle" x="213.47" y="-56.45" font-family="Helvetica,sans-Serif" font-size="14.00">true</text>
</g>
<!-- N26 -->
<g id="node26" class="node">
<title>N26</title>
<path fill="none" stroke="black" d="M1025.25,-36C1025.25,-36 759.5,-36 759.5,-36 753.5,-36 747.5,-30 747.5,-24 747.5,-24 747.5,-12 747.5,-12 747.5,-6 753.5,0 759.5,0 759.5,0 1025.25,0 1025.25,0 1031.25,0 1037.25,-6 1037.25,-12 1037.25,-12 1037.25,-24 1037.25,-24 1037.25,-30 1031.25,-36 1025.25,-36"/>
<text xml:space="preserve" text-anchor="middle" x="892.38" y="-12.57" font-family="Helvetica,sans-Serif" font-size="14.00">26: istack[jstack] = j&#45;1; istack[jstack&#45;1] = l; l = i</text>
</g>
<!-- N24&#45;&gt;N26 -->
<g id="edge30" class="edge">
<title>N24&#45;&gt;N26</title>
<path fill="none" stroke="black" d="M300.49,-96.61C402.47,-83.23 608.01,-56.28 747.93,-37.94"/>
<polygon fill="black" stroke="black" points="748.19,-41.43 757.65,-36.66 747.28,-34.49 748.19,-41.43"/>
<text xml:space="preserve" text-anchor="middle" x="638.2" y="-56.45" font-family="Helvetica,sans-Serif" font-size="14.00">false</text>
</g>
<!-- N25&#45;&gt;N2 -->
<g id="edge31" class="edge">
<title>N25&#45;&gt;N2</title>
<path fill="none" stroke="black" d="M139.39,-36.44C130.66,-53.35 119.38,-79.99 119.38,-104.75 119.38,-1056.5 119.38,-1056.5 119.38,-1056.5 119.38,-1116.87 572.29,-1125.92 718.47,-1127.27"/>
<polygon fill="black" stroke="black" points="718.12,-1130.76 728.14,-1127.35 718.17,-1123.76 718.12,-1130.76"/>
</g>
<!-- N26&#45;&gt;N2 -->
<g id="edge32" class="edge">
<title>N26&#45;&gt;N2</title>
<path fill="none" stroke="black" d="M957.63,-36.36C989.63,-49.23 1021.38,-70.6 1021.38,-104.75 1021.38,-1056.5 1021.38,-1056.5 1021.38,-1056.5 1021.38,-1100.1 882.67,-1117.93 808.66,-1124.35"/>
<polygon fill="black" stroke="black" points="808.56,-1120.84 798.88,-1125.15 809.13,-1127.82 808.56,-1120.84"/>
</g>
</g>
</svg>
