<?xml version="1.0" encoding="UTF-8" standalone="no"?>
<!DOCTYPE svg PUBLIC "-//W3C//DTD SVG 1.1//EN"
 "http://www.w3.org/Graphics/SVG/1.1/DTD/svg11.dtd">
<!-- Generated by graphviz version 13.1.2 (20250808.2320)
 -->
<!-- Title: sort_CFG Pages: 1 -->
<svg width="996pt" height="672pt"
 viewBox="0.00 0.00 996.00 672.00" xmlns="http://www.w3.org/2000/svg" xmlns:xlink="http://www.w3.org/1999/xlink">
<g id="graph0" class="graph" transform="scale(1 1) rotate(0) translate(4 668.25)">
<title>sort_CFG</title>
<polygon fill="white" stroke="none" points="-4,4 -4,-668.25 991.5,-668.25 991.5,4 -4,4"/>
<!-- N1 -->
<g id="node1" class="node">
<title>N1</title>
<path fill="none" stroke="black" d="M746.75,-664.25C746.75,-664.25 568.75,-664.25 568.75,-664.25 562.75,-664.25 556.75,-658.25 556.75,-652.25 556.75,-652.25 556.75,-636.75 556.75,-636.75 556.75,-630.75 562.75,-624.75 568.75,-624.75 568.75,-624.75 746.75,-624.75 746.75,-624.75 752.75,-624.75 758.75,-630.75 758.75,-636.75 758.75,-636.75 758.75,-652.25 758.75,-652.25 758.75,-658.25 752.75,-664.25 746.75,-664.25"/>
<text xml:space="preserve" text-anchor="middle" x="657.75" y="-646.95" font-family="Helvetica,sans-Serif" font-size="14.00">1: Declaracoes e inicializacoes</text>
<text xml:space="preserve" text-anchor="middle" x="657.75" y="-631.2" font-family="Helvetica,sans-Serif" font-size="14.00">ir = n; l = 1; jstack = 0; flag = 0;</text>
</g>
<!-- N2 -->
<g id="node2" class="node">
<title>N2</title>
<path fill="none" stroke="black" d="M688.62,-587.75C688.62,-587.75 626.88,-587.75 626.88,-587.75 620.88,-587.75 614.88,-581.75 614.88,-575.75 614.88,-575.75 614.88,-560.25 614.88,-560.25 614.88,-554.25 620.88,-548.25 626.88,-548.25 626.88,-548.25 688.62,-548.25 688.62,-548.25 694.62,-548.25 700.62,-554.25 700.62,-560.25 700.62,-560.25 700.62,-575.75 700.62,-575.75 700.62,-581.75 694.62,-587.75 688.62,-587.75"/>
<text xml:space="preserve" text-anchor="middle" x="657.75" y="-570.45" font-family="Helvetica,sans-Serif" font-size="14.00">2: for (;;)</text>
<text xml:space="preserve" text-anchor="middle" x="657.75" y="-554.7" font-family="Helvetica,sans-Serif" font-size="14.00">if (ir &#45; l &lt; M)</text>
</g>
<!-- N1&#45;&gt;N2 -->
<g id="edge1" class="edge">
<title>N1&#45;&gt;N2</title>
<path fill="none" stroke="black" d="M657.75,-624.31C657.75,-616.75 657.75,-607.88 657.75,-599.49"/>
<polygon fill="black" stroke="black" points="661.25,-599.63 657.75,-589.63 654.25,-599.63 661.25,-599.63"/>
</g>
<!-- N3 -->
<g id="node3" class="node">
<title>N3</title>
<path fill="none" stroke="black" d="M536.75,-480.75C536.75,-480.75 394.75,-480.75 394.75,-480.75 388.75,-480.75 382.75,-474.75 382.75,-468.75 382.75,-468.75 382.75,-437.5 382.75,-437.5 382.75,-431.5 388.75,-425.5 394.75,-425.5 394.75,-425.5 536.75,-425.5 536.75,-425.5 542.75,-425.5 548.75,-431.5 548.75,-437.5 548.75,-437.5 548.75,-468.75 548.75,-468.75 548.75,-474.75 542.75,-480.75 536.75,-480.75"/>
<text xml:space="preserve" text-anchor="middle" x="465.75" y="-463.45" font-family="Helvetica,sans-Serif" font-size="14.00">3: for (j = l+1; j &lt;= ir; j++)</text>
<text xml:space="preserve" text-anchor="middle" x="465.75" y="-447.7" font-family="Helvetica,sans-Serif" font-size="14.00">a = arr[j];</text>
<text xml:space="preserve" text-anchor="middle" x="465.75" y="-431.95" font-family="Helvetica,sans-Serif" font-size="14.00">for (i = j&#45;1; i &gt;= l; i&#45;&#45;)</text>
</g>
<!-- N2&#45;&gt;N3 -->
<g id="edge2" class="edge">
<title>N2&#45;&gt;N3</title>
<path fill="none" stroke="black" d="M625.18,-547.85C596.84,-531.19 555.16,-506.69 521.52,-486.91"/>
<polygon fill="black" stroke="black" points="523.52,-484.03 513.12,-481.97 519.97,-490.06 523.52,-484.03"/>
<text xml:space="preserve" text-anchor="middle" x="601.79" y="-516.95" font-family="Helvetica,sans-Serif" font-size="14.00">true</text>
</g>
<!-- N9 -->
<g id="node9" class="node">
<title>N9</title>
<path fill="none" stroke="black" d="M728,-496.5C728,-496.5 587.5,-496.5 587.5,-496.5 581.5,-496.5 575.5,-490.5 575.5,-484.5 575.5,-484.5 575.5,-421.75 575.5,-421.75 575.5,-415.75 581.5,-409.75 587.5,-409.75 587.5,-409.75 728,-409.75 728,-409.75 734,-409.75 740,-415.75 740,-421.75 740,-421.75 740,-484.5 740,-484.5 740,-490.5 734,-496.5 728,-496.5"/>
<text xml:space="preserve" text-anchor="middle" x="657.75" y="-479.2" font-family="Helvetica,sans-Serif" font-size="14.00">9: else</text>
<text xml:space="preserve" text-anchor="middle" x="657.75" y="-463.45" font-family="Helvetica,sans-Serif" font-size="14.00">k = (l+ir) &gt;&gt; 1;</text>
<text xml:space="preserve" text-anchor="middle" x="657.75" y="-447.7" font-family="Helvetica,sans-Serif" font-size="14.00">SWAP(arr[k], arr[l+1]);</text>
<text xml:space="preserve" text-anchor="middle" x="657.75" y="-431.95" font-family="Helvetica,sans-Serif" font-size="14.00">...</text>
<text xml:space="preserve" text-anchor="middle" x="657.75" y="-416.2" font-family="Helvetica,sans-Serif" font-size="14.00">i = l+1; j = ir; a = arr[l+1];</text>
</g>
<!-- N2&#45;&gt;N9 -->
<g id="edge3" class="edge">
<title>N2&#45;&gt;N9</title>
<path fill="none" stroke="black" d="M657.75,-547.85C657.75,-536.83 657.75,-522.38 657.75,-508.14"/>
<polygon fill="black" stroke="black" points="661.25,-508.34 657.75,-498.34 654.25,-508.34 661.25,-508.34"/>
<text xml:space="preserve" text-anchor="middle" x="672" y="-516.95" font-family="Helvetica,sans-Serif" font-size="14.00">false</text>
</g>
<!-- N4 -->
<g id="node4" class="node">
<title>N4</title>
<path fill="none" stroke="black" d="M420.25,-340.5C420.25,-340.5 335.25,-340.5 335.25,-340.5 329.25,-340.5 323.25,-334.5 323.25,-328.5 323.25,-328.5 323.25,-316.5 323.25,-316.5 323.25,-310.5 329.25,-304.5 335.25,-304.5 335.25,-304.5 420.25,-304.5 420.25,-304.5 426.25,-304.5 432.25,-310.5 432.25,-316.5 432.25,-316.5 432.25,-328.5 432.25,-328.5 432.25,-334.5 426.25,-340.5 420.25,-340.5"/>
<text xml:space="preserve" text-anchor="middle" x="377.75" y="-317.07" font-family="Helvetica,sans-Serif" font-size="14.00">4: if (arr[i] &lt;= a)</text>
</g>
<!-- N3&#45;&gt;N4 -->
<g id="edge4" class="edge">
<title>N3&#45;&gt;N4</title>
<path fill="none" stroke="black" d="M447.3,-425.16C432.27,-403.19 411.14,-372.31 396.13,-350.36"/>
<polygon fill="black" stroke="black" points="399.09,-348.49 390.56,-342.22 393.31,-352.45 399.09,-348.49"/>
</g>
<!-- N7 -->
<g id="node7" class="node">
<title>N7</title>
<path fill="none" stroke="black" d="M260,-340.5C260,-340.5 167.5,-340.5 167.5,-340.5 161.5,-340.5 155.5,-334.5 155.5,-328.5 155.5,-328.5 155.5,-316.5 155.5,-316.5 155.5,-310.5 161.5,-304.5 167.5,-304.5 167.5,-304.5 260,-304.5 260,-304.5 266,-304.5 272,-310.5 272,-316.5 272,-316.5 272,-328.5 272,-328.5 272,-334.5 266,-340.5 260,-340.5"/>
<text xml:space="preserve" text-anchor="middle" x="213.75" y="-317.07" font-family="Helvetica,sans-Serif" font-size="14.00">7: if (jstack == 0)</text>
</g>
<!-- N3&#45;&gt;N7 -->
<g id="edge9" class="edge">
<title>N3&#45;&gt;N7</title>
<path fill="none" stroke="black" d="M382.55,-430.86C352.41,-421.28 318.83,-408.32 290.5,-391.75 270.69,-380.16 251.39,-362.97 237.1,-348.74"/>
<polygon fill="black" stroke="black" points="239.86,-346.55 230.36,-341.85 234.86,-351.44 239.86,-346.55"/>
<text xml:space="preserve" text-anchor="middle" x="350.12" y="-378.45" font-family="Helvetica,sans-Serif" font-size="14.00">j &gt; ir (saida do loop)</text>
</g>
<!-- N5 -->
<g id="node5" class="node">
<title>N5</title>
<path fill="none" stroke="black" d="M392.88,-225.62C392.88,-225.62 296.62,-225.62 296.62,-225.62 290.62,-225.62 284.62,-219.62 284.62,-213.62 284.62,-213.62 284.62,-201.62 284.62,-201.62 284.62,-195.62 290.62,-189.62 296.62,-189.62 296.62,-189.62 392.88,-189.62 392.88,-189.62 398.88,-189.62 404.88,-195.62 404.88,-201.62 404.88,-201.62 404.88,-213.62 404.88,-213.62 404.88,-219.62 398.88,-225.62 392.88,-225.62"/>
<text xml:space="preserve" text-anchor="middle" x="344.75" y="-202.2" font-family="Helvetica,sans-Serif" font-size="14.00">5: arr[i+1] = arr[i];</text>
</g>
<!-- N4&#45;&gt;N5 -->
<g id="edge6" class="edge">
<title>N4&#45;&gt;N5</title>
<path fill="none" stroke="black" d="M351.28,-304.01C340.09,-295.03 328.28,-283.01 322.25,-269 317.64,-258.29 320.51,-246.29 325.54,-235.83"/>
<polygon fill="black" stroke="black" points="328.49,-237.73 330.35,-227.3 322.39,-234.29 328.49,-237.73"/>
<text xml:space="preserve" text-anchor="middle" x="336.5" y="-255.7" font-family="Helvetica,sans-Serif" font-size="14.00">false</text>
</g>
<!-- N6 -->
<g id="node6" class="node">
<title>N6</title>
<path fill="none" stroke="black" d="M512.12,-225.62C512.12,-225.62 435.38,-225.62 435.38,-225.62 429.38,-225.62 423.38,-219.62 423.38,-213.62 423.38,-213.62 423.38,-201.62 423.38,-201.62 423.38,-195.62 429.38,-189.62 435.38,-189.62 435.38,-189.62 512.12,-189.62 512.12,-189.62 518.12,-189.62 524.12,-195.62 524.12,-201.62 524.12,-201.62 524.12,-213.62 524.12,-213.62 524.12,-219.62 518.12,-225.62 512.12,-225.62"/>
<text xml:space="preserve" text-anchor="middle" x="473.75" y="-202.2" font-family="Helvetica,sans-Serif" font-size="14.00">6: arr[i+1] = a;</text>
</g>
<!-- N4&#45;&gt;N6 -->
<g id="edge5" class="edge">
<title>N4&#45;&gt;N6</title>
<path fill="none" stroke="black" d="M379.64,-304.2C382.02,-289.35 387.33,-268.07 399,-253.25 405.52,-244.97 414.05,-237.88 422.99,-231.96"/>
<polygon fill="black" stroke="black" points="424.77,-234.97 431.49,-226.78 421.13,-229 424.77,-234.97"/>
<text xml:space="preserve" text-anchor="middle" x="433.88" y="-255.7" font-family="Helvetica,sans-Serif" font-size="14.00">true (break)</text>
</g>
<!-- N5&#45;&gt;N4 -->
<g id="edge7" class="edge">
<title>N5&#45;&gt;N4</title>
<path fill="none" stroke="black" d="M349.81,-225.93C355.06,-243.89 363.36,-272.27 369.55,-293.45"/>
<polygon fill="black" stroke="black" points="366.15,-294.29 372.31,-302.9 372.87,-292.32 366.15,-294.29"/>
</g>
<!-- N6&#45;&gt;N3 -->
<g id="edge8" class="edge">
<title>N6&#45;&gt;N3</title>
<path fill="none" stroke="black" d="M473.18,-225.85C471.91,-264.71 468.78,-360 467.01,-413.71"/>
<polygon fill="black" stroke="black" points="463.52,-413.51 466.69,-423.62 470.51,-413.74 463.52,-413.51"/>
<text xml:space="preserve" text-anchor="middle" x="480.81" y="-317.07" font-family="Helvetica,sans-Serif" font-size="14.00">j++</text>
</g>
<!-- N8 -->
<g id="node8" class="node">
<title>N8</title>
<path fill="none" stroke="black" d="M131.5,-227.38C131.5,-227.38 12,-227.38 12,-227.38 6,-227.38 0,-221.38 0,-215.38 0,-215.38 0,-199.88 0,-199.88 0,-193.88 6,-187.88 12,-187.88 12,-187.88 131.5,-187.88 131.5,-187.88 137.5,-187.88 143.5,-193.88 143.5,-199.88 143.5,-199.88 143.5,-215.38 143.5,-215.38 143.5,-221.38 137.5,-227.38 131.5,-227.38"/>
<text xml:space="preserve" text-anchor="middle" x="71.75" y="-210.07" font-family="Helvetica,sans-Serif" font-size="14.00">8: ir = istack[jstack&#45;&#45;];</text>
<text xml:space="preserve" text-anchor="middle" x="71.75" y="-194.32" font-family="Helvetica,sans-Serif" font-size="14.00">l = istack[jstack&#45;&#45;];</text>
</g>
<!-- N7&#45;&gt;N8 -->
<g id="edge11" class="edge">
<title>N7&#45;&gt;N8</title>
<path fill="none" stroke="black" d="M191.87,-304.11C168.53,-285.55 131.29,-255.95 104.45,-234.62"/>
<polygon fill="black" stroke="black" points="106.98,-232.16 96.97,-228.68 102.62,-237.64 106.98,-232.16"/>
<text xml:space="preserve" text-anchor="middle" x="161.26" y="-255.7" font-family="Helvetica,sans-Serif" font-size="14.00">false</text>
</g>
<!-- N16 -->
<g id="node16" class="node">
<title>N16</title>
<path fill="none" stroke="black" d="M254.38,-225.62C254.38,-225.62 173.12,-225.62 173.12,-225.62 167.12,-225.62 161.12,-219.62 161.12,-213.62 161.12,-213.62 161.12,-201.62 161.12,-201.62 161.12,-195.62 167.12,-189.62 173.12,-189.62 173.12,-189.62 254.38,-189.62 254.38,-189.62 260.38,-189.62 266.38,-195.62 266.38,-201.62 266.38,-201.62 266.38,-213.62 266.38,-213.62 266.38,-219.62 260.38,-225.62 254.38,-225.62"/>
<text xml:space="preserve" text-anchor="middle" x="213.75" y="-202.2" font-family="Helvetica,sans-Serif" font-size="14.00">16: return (fim)</text>
</g>
<!-- N7&#45;&gt;N16 -->
<g id="edge10" class="edge">
<title>N7&#45;&gt;N16</title>
<path fill="none" stroke="black" d="M213.75,-304.36C213.75,-286.54 213.75,-258.35 213.75,-237.16"/>
<polygon fill="black" stroke="black" points="217.25,-237.44 213.75,-227.44 210.25,-237.44 217.25,-237.44"/>
<text xml:space="preserve" text-anchor="middle" x="248.62" y="-255.7" font-family="Helvetica,sans-Serif" font-size="14.00">true (break)</text>
</g>
<!-- N8&#45;&gt;N2 -->
<g id="edge12" class="edge">
<title>N8&#45;&gt;N2</title>
<path fill="none" stroke="black" d="M77.47,-227.61C87.41,-258.08 110.39,-318.51 146.75,-358 272.22,-494.27 499.46,-543.9 603.32,-560.05"/>
<polygon fill="black" stroke="black" points="602.56,-563.47 612.97,-561.5 603.6,-556.55 602.56,-563.47"/>
</g>
<!-- N10 -->
<g id="node10" class="node">
<title>N10</title>
<path fill="none" stroke="black" d="M727.62,-358C727.62,-358 587.88,-358 587.88,-358 581.88,-358 575.88,-352 575.88,-346 575.88,-346 575.88,-299 575.88,-299 575.88,-293 581.88,-287 587.88,-287 587.88,-287 727.62,-287 727.62,-287 733.62,-287 739.62,-293 739.62,-299 739.62,-299 739.62,-346 739.62,-346 739.62,-352 733.62,-358 727.62,-358"/>
<text xml:space="preserve" text-anchor="middle" x="657.75" y="-340.7" font-family="Helvetica,sans-Serif" font-size="14.00">10: for (;;)</text>
<text xml:space="preserve" text-anchor="middle" x="657.75" y="-324.95" font-family="Helvetica,sans-Serif" font-size="14.00">i++; while (arr[i] &lt; a) i++;</text>
<text xml:space="preserve" text-anchor="middle" x="657.75" y="-309.2" font-family="Helvetica,sans-Serif" font-size="14.00">j&#45;&#45;; while (arr[j] &gt; a) j&#45;&#45;;</text>
<text xml:space="preserve" text-anchor="middle" x="657.75" y="-293.45" font-family="Helvetica,sans-Serif" font-size="14.00">if (j &lt; i) break;</text>
</g>
<!-- N9&#45;&gt;N10 -->
<g id="edge13" class="edge">
<title>N9&#45;&gt;N10</title>
<path fill="none" stroke="black" d="M657.75,-409.29C657.75,-396.65 657.75,-382.75 657.75,-369.89"/>
<polygon fill="black" stroke="black" points="661.25,-369.96 657.75,-359.96 654.25,-369.96 661.25,-369.96"/>
</g>
<!-- N11 -->
<g id="node11" class="node">
<title>N11</title>
<path fill="none" stroke="black" d="M681.62,-225.62C681.62,-225.62 553.88,-225.62 553.88,-225.62 547.88,-225.62 541.88,-219.62 541.88,-213.62 541.88,-213.62 541.88,-201.62 541.88,-201.62 541.88,-195.62 547.88,-189.62 553.88,-189.62 553.88,-189.62 681.62,-189.62 681.62,-189.62 687.62,-189.62 693.62,-195.62 693.62,-201.62 693.62,-201.62 693.62,-213.62 693.62,-213.62 693.62,-219.62 687.62,-225.62 681.62,-225.62"/>
<text xml:space="preserve" text-anchor="middle" x="617.75" y="-202.2" font-family="Helvetica,sans-Serif" font-size="14.00">11: SWAP(arr[i], arr[j]);</text>
</g>
<!-- N10&#45;&gt;N11 -->
<g id="edge15" class="edge">
<title>N10&#45;&gt;N11</title>
<path fill="none" stroke="black" d="M627.68,-286.73C624.16,-281.11 621.08,-275.11 619,-269 615.6,-259.01 614.68,-247.55 614.81,-237.31"/>
<polygon fill="black" stroke="black" points="618.3,-237.69 615.3,-227.53 611.31,-237.35 618.3,-237.69"/>
<text xml:space="preserve" text-anchor="middle" x="631.38" y="-255.7" font-family="Helvetica,sans-Serif" font-size="14.00">else</text>
</g>
<!-- N12 -->
<g id="node12" class="node">
<title>N12</title>
<path fill="none" stroke="black" d="M827.62,-235.25C827.62,-235.25 723.88,-235.25 723.88,-235.25 717.88,-235.25 711.88,-229.25 711.88,-223.25 711.88,-223.25 711.88,-192 711.88,-192 711.88,-186 717.88,-180 723.88,-180 723.88,-180 827.62,-180 827.62,-180 833.62,-180 839.62,-186 839.62,-192 839.62,-192 839.62,-223.25 839.62,-223.25 839.62,-229.25 833.62,-235.25 827.62,-235.25"/>
<text xml:space="preserve" text-anchor="middle" x="775.75" y="-217.95" font-family="Helvetica,sans-Serif" font-size="14.00">12: arr[l+1] = arr[j];</text>
<text xml:space="preserve" text-anchor="middle" x="775.75" y="-202.2" font-family="Helvetica,sans-Serif" font-size="14.00">arr[j] = a;</text>
<text xml:space="preserve" text-anchor="middle" x="775.75" y="-186.45" font-family="Helvetica,sans-Serif" font-size="14.00">jstack += 2;</text>
</g>
<!-- N10&#45;&gt;N12 -->
<g id="edge14" class="edge">
<title>N10&#45;&gt;N12</title>
<path fill="none" stroke="black" d="M694.12,-286.71C708.49,-272.96 724.99,-257.18 739.37,-243.43"/>
<polygon fill="black" stroke="black" points="741.66,-246.08 746.46,-236.64 736.82,-241.02 741.66,-246.08"/>
<text xml:space="preserve" text-anchor="middle" x="738.19" y="-255.7" font-family="Helvetica,sans-Serif" font-size="14.00">j &lt; i</text>
</g>
<!-- N11&#45;&gt;N10 -->
<g id="edge16" class="edge">
<title>N11&#45;&gt;N10</title>
<path fill="none" stroke="black" d="M629.51,-225.77C634.55,-233.81 640.1,-243.7 643.75,-253.25 646.42,-260.23 648.61,-267.81 650.41,-275.3"/>
<polygon fill="black" stroke="black" points="646.97,-276 652.51,-285.03 653.82,-274.51 646.97,-276"/>
</g>
<!-- N13 -->
<g id="node13" class="node">
<title>N13</title>
<path fill="none" stroke="black" d="M827.62,-143C827.62,-143 705.88,-143 705.88,-143 699.88,-143 693.88,-137 693.88,-131 693.88,-131 693.88,-119 693.88,-119 693.88,-113 699.88,-107 705.88,-107 705.88,-107 827.62,-107 827.62,-107 833.62,-107 839.62,-113 839.62,-119 839.62,-119 839.62,-131 839.62,-131 839.62,-137 833.62,-143 827.62,-143"/>
<text xml:space="preserve" text-anchor="middle" x="766.75" y="-119.58" font-family="Helvetica,sans-Serif" font-size="14.00">13: if (ir &#45; i + 1 &gt;= j &#45; l)</text>
</g>
<!-- N12&#45;&gt;N13 -->
<g id="edge17" class="edge">
<title>N12&#45;&gt;N13</title>
<path fill="none" stroke="black" d="M772.75,-179.78C771.85,-171.65 770.85,-162.7 769.93,-154.48"/>
<polygon fill="black" stroke="black" points="773.42,-154.17 768.83,-144.62 766.46,-154.95 773.42,-154.17"/>
</g>
<!-- N14 -->
<g id="node14" class="node">
<title>N14</title>
<path fill="none" stroke="black" d="M807.75,-55.25C807.75,-55.25 689.75,-55.25 689.75,-55.25 683.75,-55.25 677.75,-49.25 677.75,-43.25 677.75,-43.25 677.75,-12 677.75,-12 677.75,-6 683.75,0 689.75,0 689.75,0 807.75,0 807.75,0 813.75,0 819.75,-6 819.75,-12 819.75,-12 819.75,-43.25 819.75,-43.25 819.75,-49.25 813.75,-55.25 807.75,-55.25"/>
<text xml:space="preserve" text-anchor="middle" x="748.75" y="-37.95" font-family="Helvetica,sans-Serif" font-size="14.00">14: istack[jstack] = ir;</text>
<text xml:space="preserve" text-anchor="middle" x="748.75" y="-22.2" font-family="Helvetica,sans-Serif" font-size="14.00">istack[jstack&#45;1] = i;</text>
<text xml:space="preserve" text-anchor="middle" x="748.75" y="-6.45" font-family="Helvetica,sans-Serif" font-size="14.00">ir = j&#45;1;</text>
</g>
<!-- N13&#45;&gt;N14 -->
<g id="edge18" class="edge">
<title>N13&#45;&gt;N14</title>
<path fill="none" stroke="black" d="M763.45,-106.51C761.36,-95.42 758.56,-80.62 755.98,-66.91"/>
<polygon fill="black" stroke="black" points="759.44,-66.41 754.15,-57.24 752.56,-67.71 759.44,-66.41"/>
<text xml:space="preserve" text-anchor="middle" x="771.52" y="-75.7" font-family="Helvetica,sans-Serif" font-size="14.00">true</text>
</g>
<!-- N15 -->
<g id="node15" class="node">
<title>N15</title>
<path fill="none" stroke="black" d="M975.5,-55.25C975.5,-55.25 850,-55.25 850,-55.25 844,-55.25 838,-49.25 838,-43.25 838,-43.25 838,-12 838,-12 838,-6 844,0 850,0 850,0 975.5,0 975.5,0 981.5,0 987.5,-6 987.5,-12 987.5,-12 987.5,-43.25 987.5,-43.25 987.5,-49.25 981.5,-55.25 975.5,-55.25"/>
<text xml:space="preserve" text-anchor="middle" x="912.75" y="-37.95" font-family="Helvetica,sans-Serif" font-size="14.00">15: istack[jstack] = j&#45;1;</text>
<text xml:space="preserve" text-anchor="middle" x="912.75" y="-22.2" font-family="Helvetica,sans-Serif" font-size="14.00">istack[jstack&#45;1] = l;</text>
<text xml:space="preserve" text-anchor="middle" x="912.75" y="-6.45" font-family="Helvetica,sans-Serif" font-size="14.00">l = i;</text>
</g>
<!-- N13&#45;&gt;N15 -->
<g id="edge19" class="edge">
<title>N13&#45;&gt;N15</title>
<path fill="none" stroke="black" d="M793.53,-106.51C812.55,-94.08 838.67,-77.02 861.62,-62.03"/>
<polygon fill="black" stroke="black" points="863.5,-64.98 869.96,-56.58 859.68,-59.11 863.5,-64.98"/>
<text xml:space="preserve" text-anchor="middle" x="858.38" y="-75.7" font-family="Helvetica,sans-Serif" font-size="14.00">false</text>
</g>
<!-- N14&#45;&gt;N2 -->
<g id="edge20" class="edge">
<title>N14&#45;&gt;N2</title>
<path fill="none" stroke="black" d="M820.11,-53.63C835.24,-60.12 848.3,-67.03 853.75,-73.25 869.16,-90.86 867.75,-100.6 867.75,-124 867.75,-454.12 867.75,-454.12 867.75,-454.12 867.75,-524.75 774.46,-551.37 712.23,-561.28"/>
<polygon fill="black" stroke="black" points="711.88,-557.79 702.5,-562.72 712.91,-564.71 711.88,-557.79"/>
</g>
<!-- N15&#45;&gt;N2 -->
<g id="edge21" class="edge">
<title>N15&#45;&gt;N2</title>
<path fill="none" stroke="black" d="M911.01,-55.75C909.93,-74.83 908.75,-100.96 908.75,-124 908.75,-454.12 908.75,-454.12 908.75,-454.12 908.75,-539.62 786.13,-560.74 712.3,-565.71"/>
<polygon fill="black" stroke="black" points="712.19,-562.21 702.41,-566.29 712.6,-569.2 712.19,-562.21"/>
</g>
</g>
</svg>
