<?xml version="1.0" encoding="UTF-8" standalone="no"?>
<!DOCTYPE svg PUBLIC "-//W3C//DTD SVG 1.1//EN"
 "http://www.w3.org/Graphics/SVG/1.1/DTD/svg11.dtd">
<!-- Generated by graphviz version 13.1.2 (20250808.2320)
 -->
<!-- Title: sort Pages: 1 -->
<svg width="808pt" height="804pt"
 viewBox="0.00 0.00 808.00 804.00" xmlns="http://www.w3.org/2000/svg" xmlns:xlink="http://www.w3.org/1999/xlink">
<g id="graph0" class="graph" transform="scale(1 1) rotate(0) translate(4 800)">
<title>sort</title>
<polygon fill="white" stroke="none" points="-4,4 -4,-800 803.88,-800 803.88,4 -4,4"/>
<!-- start -->
<g id="node1" class="node">
<title>start</title>
<ellipse fill="none" stroke="black" cx="416.5" cy="-778" rx="28.32" ry="18"/>
<text xml:space="preserve" text-anchor="middle" x="416.5" y="-772.95" font-family="Times New Roman,serif" font-size="14.00">Start</text>
</g>
<!-- B1 -->
<g id="node3" class="node">
<title>B1</title>
<polygon fill="none" stroke="black" points="516.38,-723 316.62,-723 316.62,-665.5 516.38,-665.5 516.38,-723"/>
<text xml:space="preserve" text-anchor="middle" x="416.5" y="-705.7" font-family="Times New Roman,serif" font-size="14.00">B1</text>
<text xml:space="preserve" text-anchor="middle" x="416.5" y="-689.2" font-family="Times New Roman,serif" font-size="14.00">i, ir=n, j, k, l=1, jstack=0, flag=0</text>
<text xml:space="preserve" text-anchor="middle" x="416.5" y="-672.7" font-family="Times New Roman,serif" font-size="14.00">def={i, ir, j, k, l, jstack, flag}</text>
</g>
<!-- start&#45;&gt;B1 -->
<g id="edge1" class="edge">
<title>start&#45;&gt;B1</title>
<path fill="none" stroke="black" d="M416.5,-759.66C416.5,-752.36 416.5,-743.54 416.5,-734.81"/>
<polygon fill="black" stroke="black" points="420,-735.01 416.5,-725.01 413,-735.01 420,-735.01"/>
</g>
<!-- end -->
<g id="node2" class="node">
<title>end</title>
<ellipse fill="none" stroke="black" cx="66.5" cy="-28.75" rx="27" ry="18"/>
<text xml:space="preserve" text-anchor="middle" x="66.5" y="-23.7" font-family="Times New Roman,serif" font-size="14.00">End</text>
</g>
<!-- B2 -->
<g id="node4" class="node">
<title>B2</title>
<polygon fill="none" stroke="black" points="471,-628.5 362,-628.5 362,-592.5 471,-592.5 471,-628.5"/>
<text xml:space="preserve" text-anchor="middle" x="416.5" y="-605.45" font-family="Times New Roman,serif" font-size="14.00">B2: for (;;) begin</text>
</g>
<!-- B1&#45;&gt;B2 -->
<g id="edge2" class="edge">
<title>B1&#45;&gt;B2</title>
<path fill="none" stroke="black" d="M416.5,-665.12C416.5,-657.14 416.5,-648.45 416.5,-640.43"/>
<polygon fill="black" stroke="black" points="420,-640.47 416.5,-630.47 413,-640.47 420,-640.47"/>
</g>
<!-- B3 -->
<g id="node5" class="node">
<title>B3</title>
<polygon fill="none" stroke="black" points="416.5,-555.5 311.25,-514.5 416.5,-473.5 521.75,-514.5 416.5,-555.5"/>
<text xml:space="preserve" text-anchor="middle" x="416.5" y="-517.7" font-family="Times New Roman,serif" font-size="14.00">B3: if (ir&#45;l &lt; M)</text>
<text xml:space="preserve" text-anchor="middle" x="416.5" y="-501.2" font-family="Times New Roman,serif" font-size="14.00">p&#45;use={ir, l}</text>
</g>
<!-- B2&#45;&gt;B3 -->
<g id="edge3" class="edge">
<title>B2&#45;&gt;B3</title>
<path fill="none" stroke="black" d="M416.5,-592.26C416.5,-585.03 416.5,-576.2 416.5,-567.15"/>
<polygon fill="black" stroke="black" points="420,-567.16 416.5,-557.16 413,-567.16 420,-567.16"/>
</g>
<!-- B4 -->
<g id="node6" class="node">
<title>B4</title>
<polygon fill="none" stroke="black" points="339.62,-421 183.38,-421 183.38,-363.5 339.62,-363.5 339.62,-421"/>
<text xml:space="preserve" text-anchor="middle" x="261.5" y="-403.7" font-family="Times New Roman,serif" font-size="14.00">B4: insertion sort on [l,ir]</text>
<text xml:space="preserve" text-anchor="middle" x="261.5" y="-387.2" font-family="Times New Roman,serif" font-size="14.00">def={a, i, j, arr[]}</text>
<text xml:space="preserve" text-anchor="middle" x="261.5" y="-370.7" font-family="Times New Roman,serif" font-size="14.00">c&#45;use={l, ir, arr[]}</text>
</g>
<!-- B3&#45;&gt;B4 -->
<g id="edge4" class="edge">
<title>B3&#45;&gt;B4</title>
<path fill="none" stroke="black" d="M380.81,-487.19C367.6,-477.35 352.55,-466 339,-455.5 327.81,-446.82 315.83,-437.31 304.72,-428.39"/>
<polygon fill="black" stroke="black" points="307.18,-425.89 297.2,-422.34 302.8,-431.34 307.18,-425.89"/>
<text xml:space="preserve" text-anchor="middle" x="351.75" y="-442.2" font-family="Times New Roman,serif" font-size="14.00">True</text>
</g>
<!-- B5 -->
<g id="node10" class="node">
<title>B5</title>
<polygon fill="none" stroke="black" points="649.5,-421 447.5,-421 447.5,-363.5 649.5,-363.5 649.5,-421"/>
<text xml:space="preserve" text-anchor="middle" x="548.5" y="-403.7" font-family="Times New Roman,serif" font-size="14.00">B5: quicksort partitioning on [l,ir]</text>
<text xml:space="preserve" text-anchor="middle" x="548.5" y="-387.2" font-family="Times New Roman,serif" font-size="14.00">def={k, a, i, j, arr[]}</text>
<text xml:space="preserve" text-anchor="middle" x="548.5" y="-370.7" font-family="Times New Roman,serif" font-size="14.00">c&#45;use={l, ir, arr[]}</text>
</g>
<!-- B3&#45;&gt;B5 -->
<g id="edge5" class="edge">
<title>B3&#45;&gt;B5</title>
<path fill="none" stroke="black" d="M447.45,-485.31C465.9,-468.5 489.5,-446.99 509.26,-429"/>
<polygon fill="black" stroke="black" points="511.59,-431.61 516.63,-422.29 506.88,-426.43 511.59,-431.61"/>
<text xml:space="preserve" text-anchor="middle" x="512.45" y="-442.2" font-family="Times New Roman,serif" font-size="14.00">False</text>
</g>
<!-- B6 -->
<g id="node7" class="node">
<title>B6</title>
<polygon fill="none" stroke="black" points="227.5,-326.5 105,-285.5 227.5,-244.5 350,-285.5 227.5,-326.5"/>
<text xml:space="preserve" text-anchor="middle" x="227.5" y="-288.7" font-family="Times New Roman,serif" font-size="14.00">B6: if (jstack == 0)</text>
<text xml:space="preserve" text-anchor="middle" x="227.5" y="-272.2" font-family="Times New Roman,serif" font-size="14.00">p&#45;use={jstack}</text>
</g>
<!-- B4&#45;&gt;B6 -->
<g id="edge6" class="edge">
<title>B4&#45;&gt;B6</title>
<path fill="none" stroke="black" d="M252.39,-363.18C249.44,-354.1 246.09,-343.77 242.82,-333.7"/>
<polygon fill="black" stroke="black" points="246.21,-332.81 239.79,-324.38 239.55,-334.97 246.21,-332.81"/>
</g>
<!-- B7 -->
<g id="node8" class="node">
<title>B7</title>
<polygon fill="none" stroke="black" points="133,-169 0,-169 0,-133 133,-133 133,-169"/>
<text xml:space="preserve" text-anchor="middle" x="66.5" y="-145.95" font-family="Times New Roman,serif" font-size="14.00">B7: break out of loop</text>
</g>
<!-- B6&#45;&gt;B7 -->
<g id="edge7" class="edge">
<title>B6&#45;&gt;B7</title>
<path fill="none" stroke="black" d="M192.57,-255.75C163.82,-232.09 123.51,-198.91 96.27,-176.5"/>
<polygon fill="black" stroke="black" points="98.69,-173.96 88.74,-170.3 94.24,-179.36 98.69,-173.96"/>
<text xml:space="preserve" text-anchor="middle" x="169.39" y="-213.2" font-family="Times New Roman,serif" font-size="14.00">True</text>
</g>
<!-- B9 -->
<g id="node9" class="node">
<title>B9</title>
<polygon fill="none" stroke="black" points="388.12,-179.75 150.88,-179.75 150.88,-122.25 388.12,-122.25 388.12,-179.75"/>
<text xml:space="preserve" text-anchor="middle" x="269.5" y="-162.45" font-family="Times New Roman,serif" font-size="14.00">B9: ir=istack[jstack&#45;&#45;], l=istack[jstack&#45;&#45;]</text>
<text xml:space="preserve" text-anchor="middle" x="269.5" y="-145.95" font-family="Times New Roman,serif" font-size="14.00">def={ir, l}</text>
<text xml:space="preserve" text-anchor="middle" x="269.5" y="-129.45" font-family="Times New Roman,serif" font-size="14.00">c&#45;use={jstack}</text>
</g>
<!-- B6&#45;&gt;B9 -->
<g id="edge8" class="edge">
<title>B6&#45;&gt;B9</title>
<path fill="none" stroke="black" d="M239.09,-247.94C244.72,-230.18 251.49,-208.83 257.21,-190.78"/>
<polygon fill="black" stroke="black" points="260.47,-192.07 260.16,-181.48 253.8,-189.95 260.47,-192.07"/>
<text xml:space="preserve" text-anchor="middle" x="265.26" y="-213.2" font-family="Times New Roman,serif" font-size="14.00">False</text>
</g>
<!-- B7&#45;&gt;end -->
<g id="edge9" class="edge">
<title>B7&#45;&gt;end</title>
<path fill="none" stroke="black" d="M66.5,-132.51C66.5,-113.08 66.5,-81.4 66.5,-58.34"/>
<polygon fill="black" stroke="black" points="70,-58.38 66.5,-48.38 63,-58.38 70,-58.38"/>
</g>
<!-- B9&#45;&gt;B3 -->
<g id="edge10" class="edge">
<title>B9&#45;&gt;B3</title>
<path fill="none" stroke="black" d="M304.9,-180.12C323.62,-196.87 345.39,-219.67 358.5,-244.5 403.23,-329.21 381.48,-362.04 402.5,-455.5 403.25,-458.83 404.04,-462.26 404.84,-465.72"/>
<polygon fill="black" stroke="black" points="401.39,-466.32 407.09,-475.25 408.2,-464.71 401.39,-466.32"/>
</g>
<!-- B10 -->
<g id="node11" class="node">
<title>B10</title>
<polygon fill="none" stroke="black" points="621.75,-306 517.25,-306 517.25,-265 621.75,-265 621.75,-306"/>
<text xml:space="preserve" text-anchor="middle" x="569.5" y="-288.7" font-family="Times New Roman,serif" font-size="14.00">B10: jstack +=2</text>
<text xml:space="preserve" text-anchor="middle" x="569.5" y="-272.2" font-family="Times New Roman,serif" font-size="14.00">def={jstack}</text>
</g>
<!-- B5&#45;&gt;B10 -->
<g id="edge11" class="edge">
<title>B5&#45;&gt;B10</title>
<path fill="none" stroke="black" d="M554.13,-363.18C556.97,-349.02 560.41,-331.83 563.32,-317.31"/>
<polygon fill="black" stroke="black" points="566.69,-318.33 565.22,-307.83 559.83,-316.95 566.69,-318.33"/>
</g>
<!-- B11 -->
<g id="node12" class="node">
<title>B11</title>
<polygon fill="none" stroke="black" points="579.5,-192 445,-151 579.5,-110 714,-151 579.5,-192"/>
<text xml:space="preserve" text-anchor="middle" x="579.5" y="-154.2" font-family="Times New Roman,serif" font-size="14.00">B11: if (ir&#45;i+1 &gt;= j&#45;l)</text>
<text xml:space="preserve" text-anchor="middle" x="579.5" y="-137.7" font-family="Times New Roman,serif" font-size="14.00">p&#45;use={ir, i, j, l}</text>
</g>
<!-- B10&#45;&gt;B11 -->
<g id="edge12" class="edge">
<title>B10&#45;&gt;B11</title>
<path fill="none" stroke="black" d="M571,-264.66C572.23,-248.32 574.03,-224.42 575.66,-202.82"/>
<polygon fill="black" stroke="black" points="579.15,-203.21 576.41,-192.97 572.17,-202.68 579.15,-203.21"/>
</g>
<!-- B12 -->
<g id="node13" class="node">
<title>B12</title>
<polygon fill="none" stroke="black" points="549.38,-57.5 331.62,-57.5 331.62,0 549.38,0 549.38,-57.5"/>
<text xml:space="preserve" text-anchor="middle" x="440.5" y="-40.2" font-family="Times New Roman,serif" font-size="14.00">B12: push i and ir to stack, set ir=j&#45;1</text>
<text xml:space="preserve" text-anchor="middle" x="440.5" y="-23.7" font-family="Times New Roman,serif" font-size="14.00">def={istack, ir}</text>
<text xml:space="preserve" text-anchor="middle" x="440.5" y="-7.2" font-family="Times New Roman,serif" font-size="14.00">c&#45;use={i, ir, j}</text>
</g>
<!-- B11&#45;&gt;B12 -->
<g id="edge13" class="edge">
<title>B11&#45;&gt;B12</title>
<path fill="none" stroke="black" d="M545.14,-120.28C525.95,-103.68 501.91,-82.88 481.72,-65.41"/>
<polygon fill="black" stroke="black" points="484.03,-62.78 474.18,-58.88 479.45,-68.07 484.03,-62.78"/>
<text xml:space="preserve" text-anchor="middle" x="522.75" y="-78.7" font-family="Times New Roman,serif" font-size="14.00">True</text>
</g>
<!-- B13 -->
<g id="node14" class="node">
<title>B13</title>
<polygon fill="none" stroke="black" points="799.88,-57.5 591.12,-57.5 591.12,0 799.88,0 799.88,-57.5"/>
<text xml:space="preserve" text-anchor="middle" x="695.5" y="-40.2" font-family="Times New Roman,serif" font-size="14.00">B13: push l and j&#45;1 to stack, set l=i</text>
<text xml:space="preserve" text-anchor="middle" x="695.5" y="-23.7" font-family="Times New Roman,serif" font-size="14.00">def={istack, l}</text>
<text xml:space="preserve" text-anchor="middle" x="695.5" y="-7.2" font-family="Times New Roman,serif" font-size="14.00">c&#45;use={l, j, i}</text>
</g>
<!-- B11&#45;&gt;B13 -->
<g id="edge14" class="edge">
<title>B11&#45;&gt;B13</title>
<path fill="none" stroke="black" d="M609.67,-118.72C625.25,-102.57 644.34,-82.79 660.55,-65.98"/>
<polygon fill="black" stroke="black" points="662.78,-68.71 667.2,-59.09 657.74,-63.85 662.78,-68.71"/>
<text xml:space="preserve" text-anchor="middle" x="665.55" y="-78.7" font-family="Times New Roman,serif" font-size="14.00">False</text>
</g>
<!-- B12&#45;&gt;B3 -->
<g id="edge15" class="edge">
<title>B12&#45;&gt;B3</title>
<path fill="none" stroke="black" d="M431.7,-57.62C424.85,-81.79 416.5,-117.85 416.5,-150 416.5,-393.25 416.5,-393.25 416.5,-393.25 416.5,-415.71 416.5,-440.53 416.5,-461.76"/>
<polygon fill="black" stroke="black" points="413,-461.63 416.5,-471.63 420,-461.63 413,-461.63"/>
</g>
<!-- B13&#45;&gt;B3 -->
<g id="edge16" class="edge">
<title>B13&#45;&gt;B3</title>
<path fill="none" stroke="black" d="M713.27,-57.71C726.58,-81.35 742.5,-116.6 742.5,-150 742.5,-393.25 742.5,-393.25 742.5,-393.25 742.5,-444.75 597.49,-481.04 500.89,-499.51"/>
<polygon fill="black" stroke="black" points="500.33,-496.05 491.15,-501.34 501.62,-502.93 500.33,-496.05"/>
</g>
</g>
</svg>
