<?xml version="1.0" encoding="UTF-8" standalone="no"?>
<!DOCTYPE svg PUBLIC "-//W3C//DTD SVG 1.1//EN"
 "http://www.w3.org/Graphics/SVG/1.1/DTD/svg11.dtd">
<!-- Generated by graphviz version 13.1.2 (20250808.2320)
 -->
<!-- Title: sort_DFG Pages: 1 -->
<svg width="358pt" height="260pt"
 viewBox="0.00 0.00 358.00 260.00" xmlns="http://www.w3.org/2000/svg" xmlns:xlink="http://www.w3.org/1999/xlink">
<g id="graph0" class="graph" transform="scale(1 1) rotate(0) translate(4 256)">
<title>sort_DFG</title>
<polygon fill="white" stroke="none" points="-4,4 -4,-256 353.65,-256 353.65,4 -4,4"/>
<!-- arr_in -->
<g id="node1" class="node">
<title>arr_in</title>
<ellipse fill="lightblue" stroke="black" cx="64.15" cy="-234" rx="56.98" ry="18"/>
<text xml:space="preserve" text-anchor="middle" x="64.15" y="-228.95" font-family="Times New Roman,serif" font-size="14.00">arr (entrada)</text>
</g>
<!-- op_index -->
<g id="node8" class="node">
<title>op_index</title>
<polygon fill="none" stroke="black" points="112.27,-180 16.02,-180 16.02,-144 112.27,-144 112.27,-180"/>
<text xml:space="preserve" text-anchor="middle" x="64.15" y="-156.95" font-family="Times New Roman,serif" font-size="14.00">Acesso a array</text>
</g>
<!-- arr_in&#45;&gt;op_index -->
<g id="edge1" class="edge">
<title>arr_in&#45;&gt;op_index</title>
<path fill="none" stroke="black" d="M64.15,-215.7C64.15,-208.41 64.15,-199.73 64.15,-191.54"/>
<polygon fill="black" stroke="black" points="67.65,-191.62 64.15,-181.62 60.65,-191.62 67.65,-191.62"/>
</g>
<!-- n_in -->
<g id="node2" class="node">
<title>n_in</title>
<ellipse fill="lightblue" stroke="black" cx="265.15" cy="-234" rx="27" ry="18"/>
<text xml:space="preserve" text-anchor="middle" x="265.15" y="-228.95" font-family="Times New Roman,serif" font-size="14.00">n</text>
</g>
<!-- op_assign -->
<g id="node6" class="node">
<title>op_assign</title>
<polygon fill="none" stroke="black" points="302.02,-180 228.27,-180 228.27,-144 302.02,-144 302.02,-180"/>
<text xml:space="preserve" text-anchor="middle" x="265.15" y="-156.95" font-family="Times New Roman,serif" font-size="14.00">Atribuicao</text>
</g>
<!-- n_in&#45;&gt;op_assign -->
<g id="edge2" class="edge">
<title>n_in&#45;&gt;op_assign</title>
<path fill="none" stroke="black" d="M265.15,-215.7C265.15,-208.41 265.15,-199.73 265.15,-191.54"/>
<polygon fill="black" stroke="black" points="268.65,-191.62 265.15,-181.62 261.65,-191.62 268.65,-191.62"/>
</g>
<!-- l_in -->
<g id="node3" class="node">
<title>l_in</title>
<ellipse fill="lightblue" stroke="black" cx="154.15" cy="-90" rx="45.21" ry="18"/>
<text xml:space="preserve" text-anchor="middle" x="154.15" y="-84.95" font-family="Times New Roman,serif" font-size="14.00">l (inicial)</text>
</g>
<!-- op_compare -->
<g id="node7" class="node">
<title>op_compare</title>
<polygon fill="none" stroke="black" points="349.65,-36 264.65,-36 264.65,0 349.65,0 349.65,-36"/>
<text xml:space="preserve" text-anchor="middle" x="307.15" y="-12.95" font-family="Times New Roman,serif" font-size="14.00">Comparacao</text>
</g>
<!-- l_in&#45;&gt;op_compare -->
<g id="edge4" class="edge">
<title>l_in&#45;&gt;op_compare</title>
<path fill="none" stroke="black" d="M182.92,-75.83C204.21,-66.1 233.7,-52.6 258.6,-41.21"/>
<polygon fill="black" stroke="black" points="259.95,-44.44 267.58,-37.1 257.03,-38.08 259.95,-44.44"/>
</g>
<!-- ir_in -->
<g id="node4" class="node">
<title>ir_in</title>
<ellipse fill="lightblue" stroke="black" cx="265.15" cy="-90" rx="48.28" ry="18"/>
<text xml:space="preserve" text-anchor="middle" x="265.15" y="-84.95" font-family="Times New Roman,serif" font-size="14.00">ir (inicial)</text>
</g>
<!-- ir_in&#45;&gt;op_compare -->
<g id="edge5" class="edge">
<title>ir_in&#45;&gt;op_compare</title>
<path fill="none" stroke="black" d="M275.31,-72.05C279.99,-64.26 285.65,-54.82 290.9,-46.08"/>
<polygon fill="black" stroke="black" points="293.86,-47.95 296,-37.57 287.86,-44.35 293.86,-47.95"/>
</g>
<!-- op_swap -->
<g id="node5" class="node">
<title>op_swap</title>
<polygon fill="none" stroke="black" points="91.15,-108 37.15,-108 37.15,-72 91.15,-72 91.15,-108"/>
<text xml:space="preserve" text-anchor="middle" x="64.15" y="-84.95" font-family="Times New Roman,serif" font-size="14.00">SWAP</text>
</g>
<!-- arr_out -->
<g id="node9" class="node">
<title>arr_out</title>
<ellipse fill="lightgreen" stroke="black" cx="64.15" cy="-18" rx="64.15" ry="18"/>
<text xml:space="preserve" text-anchor="middle" x="64.15" y="-12.95" font-family="Times New Roman,serif" font-size="14.00">arr (ordenado)</text>
</g>
<!-- op_swap&#45;&gt;arr_out -->
<g id="edge11" class="edge">
<title>op_swap&#45;&gt;arr_out</title>
<path fill="none" stroke="black" d="M64.15,-71.7C64.15,-64.41 64.15,-55.73 64.15,-47.54"/>
<polygon fill="black" stroke="black" points="67.65,-47.62 64.15,-37.62 60.65,-47.62 67.65,-47.62"/>
</g>
<!-- op_assign&#45;&gt;l_in -->
<g id="edge7" class="edge">
<title>op_assign&#45;&gt;l_in</title>
<path fill="none" stroke="black" d="M237.42,-143.52C222.11,-133.86 202.99,-121.8 186.94,-111.68"/>
<polygon fill="black" stroke="black" points="189,-108.84 178.68,-106.47 185.27,-114.77 189,-108.84"/>
</g>
<!-- op_assign&#45;&gt;ir_in -->
<g id="edge3" class="edge">
<title>op_assign&#45;&gt;ir_in</title>
<path fill="none" stroke="black" d="M259.23,-143.7C258.48,-136.41 258.24,-127.73 258.5,-119.54"/>
<polygon fill="black" stroke="black" points="261.99,-119.82 259.15,-109.61 255,-119.36 261.99,-119.82"/>
</g>
<!-- op_assign&#45;&gt;ir_in -->
<g id="edge9" class="edge">
<title>op_assign&#45;&gt;ir_in</title>
<path fill="none" stroke="black" d="M271.06,-143.7C271.81,-136.41 272.06,-127.73 271.79,-119.54"/>
<polygon fill="black" stroke="black" points="275.29,-119.36 271.14,-109.61 268.3,-119.82 275.29,-119.36"/>
</g>
<!-- op_compare&#45;&gt;op_assign -->
<g id="edge6" class="edge">
<title>op_compare&#45;&gt;op_assign</title>
<path fill="none" stroke="black" d="M309.01,-36.43C314.48,-54.91 323.35,-84.58 313.15,-108 308.5,-118.67 300.53,-128.15 292.34,-136.05"/>
<polygon fill="black" stroke="black" points="290.08,-133.37 284.99,-142.67 294.76,-138.58 290.08,-133.37"/>
</g>
<!-- op_compare&#45;&gt;op_assign -->
<g id="edge8" class="edge">
<title>op_compare&#45;&gt;op_assign</title>
<path fill="none" stroke="black" d="M322.36,-36.43C332.48,-54.91 341.35,-84.58 331.15,-108 326.4,-118.89 318.2,-128.55 309.1,-136.54"/>
<polygon fill="black" stroke="black" points="306.99,-133.75 301.37,-142.73 311.36,-139.21 306.99,-133.75"/>
</g>
<!-- op_index&#45;&gt;op_swap -->
<g id="edge10" class="edge">
<title>op_index&#45;&gt;op_swap</title>
<path fill="none" stroke="black" d="M64.15,-143.7C64.15,-136.41 64.15,-127.73 64.15,-119.54"/>
<polygon fill="black" stroke="black" points="67.65,-119.62 64.15,-109.62 60.65,-119.62 67.65,-119.62"/>
</g>
</g>
</svg>
