<?xml version="1.0" encoding="UTF-8" standalone="no"?>
<!DOCTYPE svg PUBLIC "-//W3C//DTD SVG 1.1//EN"
 "http://www.w3.org/Graphics/SVG/1.1/DTD/svg11.dtd">
<!-- Generated by graphviz version 13.1.2 (20250808.2320)
 -->
<!-- Title: Compress_DFG Pages: 1 -->
<svg width="931pt" height="294pt"
 viewBox="0.00 0.00 931.00 294.00" xmlns="http://www.w3.org/2000/svg" xmlns:xlink="http://www.w3.org/1999/xlink">
<g id="graph0" class="graph" transform="scale(1 1) rotate(0) translate(4 290)">
<title>Compress_DFG</title>
<polygon fill="white" stroke="none" points="-4,4 -4,-290 927.47,-290 927.47,4 -4,4"/>
<!-- InCnt -->
<g id="node1" class="node">
<title>InCnt</title>
<ellipse fill="none" stroke="black" cx="67.22" cy="-268" rx="67.22" ry="18"/>
<text xml:space="preserve" text-anchor="middle" x="67.22" y="-262.95" font-family="Courier,monospace" font-size="14.00">InCnt (50)</text>
</g>
<!-- Compare_free_ent -->
<g id="node6" class="node">
<title>Compare_free_ent</title>
<polygon fill="none" stroke="black" points="259.22,-213 68.62,-195 259.22,-177 449.82,-195 259.22,-213"/>
<text xml:space="preserve" text-anchor="middle" x="259.22" y="-189.95" font-family="Courier,monospace" font-size="14.00">free_ent &lt; maxmaxcode?</text>
</g>
<!-- InCnt&#45;&gt;Compare_free_ent -->
<g id="edge1" class="edge">
<title>InCnt&#45;&gt;Compare_free_ent</title>
<path fill="none" stroke="black" d="M105.61,-252.8C135.89,-241.6 178.31,-225.92 210.9,-213.87"/>
<polygon fill="black" stroke="black" points="211.96,-217.21 220.13,-210.46 209.53,-210.64 211.96,-217.21"/>
</g>
<!-- free_ent -->
<g id="node2" class="node">
<title>free_ent</title>
<ellipse fill="none" stroke="black" cx="259.22" cy="-268" rx="106.63" ry="18"/>
<text xml:space="preserve" text-anchor="middle" x="259.22" y="-262.95" font-family="Courier,monospace" font-size="14.00">free_ent (max 50)</text>
</g>
<!-- free_ent&#45;&gt;Compare_free_ent -->
<g id="edge2" class="edge">
<title>free_ent&#45;&gt;Compare_free_ent</title>
<path fill="none" stroke="black" d="M259.22,-249.81C259.22,-242.23 259.22,-233.1 259.22,-224.54"/>
<polygon fill="black" stroke="black" points="262.72,-224.54 259.22,-214.54 255.72,-224.54 262.72,-224.54"/>
</g>
<!-- maxmaxcode -->
<g id="node3" class="node">
<title>maxmaxcode</title>
<ellipse fill="none" stroke="black" cx="496.22" cy="-268" rx="112.26" ry="18"/>
<text xml:space="preserve" text-anchor="middle" x="496.22" y="-262.95" font-family="Courier,monospace" font-size="14.00">maxmaxcode (65536)</text>
</g>
<!-- maxmaxcode&#45;&gt;Compare_free_ent -->
<g id="edge3" class="edge">
<title>maxmaxcode&#45;&gt;Compare_free_ent</title>
<path fill="none" stroke="black" d="M444.79,-251.59C406.3,-240.06 353.72,-224.31 314.36,-212.52"/>
<polygon fill="black" stroke="black" points="315.41,-209.18 304.82,-209.66 313.4,-215.89 315.41,-209.18"/>
</g>
<!-- in_count -->
<g id="node4" class="node">
<title>in_count</title>
<ellipse fill="none" stroke="black" cx="574.22" cy="-195" rx="106.63" ry="18"/>
<text xml:space="preserve" text-anchor="middle" x="574.22" y="-189.95" font-family="Courier,monospace" font-size="14.00">in_count (max 50)</text>
</g>
<!-- Compare_checkpoint -->
<g id="node7" class="node">
<title>Compare_checkpoint</title>
<polygon fill="none" stroke="black" points="574.22,-124.5 375.65,-106.5 574.22,-88.5 772.78,-106.5 574.22,-124.5"/>
<text xml:space="preserve" text-anchor="middle" x="574.22" y="-101.45" font-family="Courier,monospace" font-size="14.00">in_count &gt;= checkpoint?</text>
</g>
<!-- in_count&#45;&gt;Compare_checkpoint -->
<g id="edge4" class="edge">
<title>in_count&#45;&gt;Compare_checkpoint</title>
<path fill="none" stroke="black" d="M574.22,-176.91C574.22,-165.26 574.22,-149.55 574.22,-136.02"/>
<polygon fill="black" stroke="black" points="577.72,-136.36 574.22,-126.36 570.72,-136.36 577.72,-136.36"/>
</g>
<!-- checkpoint -->
<g id="node5" class="node">
<title>checkpoint</title>
<ellipse fill="none" stroke="black" cx="811.22" cy="-195" rx="112.26" ry="18"/>
<text xml:space="preserve" text-anchor="middle" x="811.22" y="-189.95" font-family="Courier,monospace" font-size="14.00">checkpoint (10000)</text>
</g>
<!-- checkpoint&#45;&gt;Compare_checkpoint -->
<g id="edge5" class="edge">
<title>checkpoint&#45;&gt;Compare_checkpoint</title>
<path fill="none" stroke="black" d="M767.47,-178.03C726.62,-163.12 665.74,-140.9 623.26,-125.4"/>
<polygon fill="black" stroke="black" points="624.63,-122.17 614.04,-122.03 622.23,-128.75 624.63,-122.17"/>
</g>
<!-- Compare_free_ent&#45;&gt;Compare_checkpoint -->
<g id="edge6" class="edge">
<title>Compare_free_ent&#45;&gt;Compare_checkpoint</title>
<path fill="none" stroke="black" d="M296.9,-180.15C327.92,-169.06 373.18,-153.58 413.47,-142.5 441.91,-134.68 473.56,-127.47 501.21,-121.66"/>
<polygon fill="black" stroke="black" points="501.83,-125.1 510.91,-119.64 500.4,-118.25 501.83,-125.1"/>
<text xml:space="preserve" text-anchor="middle" x="491.84" y="-145.7" font-family="Courier,monospace" font-size="14.00">false (inatingivel)</text>
</g>
<!-- CL_BLOCK -->
<g id="node8" class="node">
<title>CL_BLOCK</title>
<ellipse fill="none" stroke="black" cx="574.22" cy="-18" rx="55.96" ry="18"/>
<text xml:space="preserve" text-anchor="middle" x="574.22" y="-12.95" font-family="Courier,monospace" font-size="14.00">CL_BLOCK</text>
</g>
<!-- Compare_checkpoint&#45;&gt;CL_BLOCK -->
<g id="edge7" class="edge">
<title>Compare_checkpoint&#45;&gt;CL_BLOCK</title>
<path fill="none" stroke="black" d="M574.22,-88.41C574.22,-76.76 574.22,-61.05 574.22,-47.52"/>
<polygon fill="black" stroke="black" points="577.72,-47.86 574.22,-37.86 570.72,-47.86 577.72,-47.86"/>
<text xml:space="preserve" text-anchor="middle" x="648.47" y="-57.2" font-family="Courier,monospace" font-size="14.00">true (inatingivel)</text>
</g>
</g>
</svg>
