<?xml version="1.0" encoding="UTF-8" standalone="no"?>
<!DOCTYPE svg PUBLIC "-//W3C//DTD SVG 1.1//EN"
 "http://www.w3.org/Graphics/SVG/1.1/DTD/svg11.dtd">
<!-- Generated by graphviz version 13.1.2 (20250808.2320)
 -->
<!-- Title: Compress_CFG Pages: 1 -->
<svg width="457pt" height="955pt"
 viewBox="0.00 0.00 457.00 955.00" xmlns="http://www.w3.org/2000/svg" xmlns:xlink="http://www.w3.org/1999/xlink">
<g id="graph0" class="graph" transform="scale(1 1) rotate(0) translate(4 951)">
<title>Compress_CFG</title>
<polygon fill="white" stroke="none" points="-4,4 -4,-951 452.88,-951 452.88,4 -4,4"/>
<!-- COMPRESS_START -->
<g id="node1" class="node">
<title>COMPRESS_START</title>
<polygon fill="none" stroke="black" points="373.25,-947 192.25,-947 192.25,-906 373.25,-906 373.25,-947"/>
<text xml:space="preserve" text-anchor="middle" x="282.75" y="-929.7" font-family="Courier,monospace" font-size="14.00">compress():</text>
<text xml:space="preserve" text-anchor="middle" x="282.75" y="-913.2" font-family="Courier,monospace" font-size="14.00">Inicializa variaveis</text>
</g>
<!-- COMPRESS_LOOP -->
<g id="node2" class="node">
<title>COMPRESS_LOOP</title>
<polygon fill="none" stroke="black" points="360.88,-869 204.62,-869 204.62,-833 360.88,-833 360.88,-869"/>
<text xml:space="preserve" text-anchor="middle" x="282.75" y="-845.95" font-family="Courier,monospace" font-size="14.00">while (InCnt &gt; 0)</text>
</g>
<!-- COMPRESS_START&#45;&gt;COMPRESS_LOOP -->
<g id="edge1" class="edge">
<title>COMPRESS_START&#45;&gt;COMPRESS_LOOP</title>
<path fill="none" stroke="black" d="M282.75,-905.8C282.75,-898.06 282.75,-889.01 282.75,-880.57"/>
<polygon fill="black" stroke="black" points="286.25,-880.76 282.75,-870.76 279.25,-880.76 286.25,-880.76"/>
</g>
<!-- GETBYTE -->
<g id="node3" class="node">
<title>GETBYTE</title>
<polygon fill="none" stroke="black" points="246.38,-780.5 123.12,-780.5 123.12,-744.5 246.38,-744.5 246.38,-780.5"/>
<text xml:space="preserve" text-anchor="middle" x="184.75" y="-757.45" font-family="Courier,monospace" font-size="14.00">c = getbyte()</text>
</g>
<!-- COMPRESS_LOOP&#45;&gt;GETBYTE -->
<g id="edge2" class="edge">
<title>COMPRESS_LOOP&#45;&gt;GETBYTE</title>
<path fill="none" stroke="black" d="M216.52,-832.57C208.17,-828 200.48,-822.24 194.5,-815 189.14,-808.51 186.39,-800 185.05,-791.76"/>
<polygon fill="black" stroke="black" points="188.55,-791.68 184.12,-782.05 181.59,-792.34 188.55,-791.68"/>
<text xml:space="preserve" text-anchor="middle" x="231.62" y="-801.7" font-family="Courier,monospace" font-size="14.00">InCnt &gt; 0</text>
</g>
<!-- HASH_MATCH -->
<g id="node4" class="node">
<title>HASH_MATCH</title>
<polygon fill="none" stroke="black" points="306.38,-707.5 117.12,-707.5 117.12,-671.5 306.38,-671.5 306.38,-707.5"/>
<text xml:space="preserve" text-anchor="middle" x="211.75" y="-684.45" font-family="Courier,monospace" font-size="14.00">if (htab[i] == fcode)</text>
</g>
<!-- GETBYTE&#45;&gt;HASH_MATCH -->
<g id="edge3" class="edge">
<title>GETBYTE&#45;&gt;HASH_MATCH</title>
<path fill="none" stroke="black" d="M191.29,-744.31C194.27,-736.46 197.88,-726.97 201.23,-718.16"/>
<polygon fill="black" stroke="black" points="204.45,-719.53 204.74,-708.94 197.91,-717.05 204.45,-719.53"/>
</g>
<!-- HASH_MATCH&#45;&gt;COMPRESS_LOOP -->
<g id="edge4" class="edge">
<title>HASH_MATCH&#45;&gt;COMPRESS_LOOP</title>
<path fill="none" stroke="black" d="M228.96,-707.61C238.12,-717.6 248.89,-730.9 255.75,-744.5 268.11,-769 275.13,-799.63 278.9,-821.56"/>
<polygon fill="black" stroke="black" points="275.41,-821.93 280.43,-831.26 282.33,-820.84 275.41,-821.93"/>
<text xml:space="preserve" text-anchor="middle" x="285.9" y="-757.45" font-family="Courier,monospace" font-size="14.00">true</text>
</g>
<!-- HASH_EMPTY -->
<g id="node5" class="node">
<title>HASH_EMPTY</title>
<polygon fill="none" stroke="black" points="315.38,-619 126.12,-619 126.12,-583 315.38,-583 315.38,-619"/>
<text xml:space="preserve" text-anchor="middle" x="220.75" y="-595.95" font-family="Courier,monospace" font-size="14.00">else if (htab[i] &lt; 0)</text>
</g>
<!-- HASH_MATCH&#45;&gt;HASH_EMPTY -->
<g id="edge5" class="edge">
<title>HASH_MATCH&#45;&gt;HASH_EMPTY</title>
<path fill="none" stroke="black" d="M213.53,-671.41C214.74,-659.76 216.38,-644.05 217.78,-630.52"/>
<polygon fill="black" stroke="black" points="221.23,-631.16 218.79,-620.86 214.27,-630.44 221.23,-631.16"/>
<text xml:space="preserve" text-anchor="middle" x="237.68" y="-640.2" font-family="Courier,monospace" font-size="14.00">false</text>
</g>
<!-- PROBE_LOOP -->
<g id="node6" class="node">
<title>PROBE_LOOP</title>
<polygon fill="none" stroke="black" points="197.5,-528 0,-528 0,-492 197.5,-492 197.5,-528"/>
<text xml:space="preserve" text-anchor="middle" x="98.75" y="-504.95" font-family="Courier,monospace" font-size="14.00">i &#45;= disp (probe loop)</text>
</g>
<!-- HASH_EMPTY&#45;&gt;PROBE_LOOP -->
<g id="edge6" class="edge">
<title>HASH_EMPTY&#45;&gt;PROBE_LOOP</title>
<path fill="none" stroke="black" d="M196.94,-582.63C178.3,-569.03 152.16,-549.96 131.54,-534.92"/>
<polygon fill="black" stroke="black" points="133.87,-532.29 123.73,-529.22 129.74,-537.94 133.87,-532.29"/>
<text xml:space="preserve" text-anchor="middle" x="191.3" y="-551.7" font-family="Courier,monospace" font-size="14.00">false</text>
</g>
<!-- NOMATCH -->
<g id="node7" class="node">
<title>NOMATCH</title>
<polygon fill="none" stroke="black" points="315,-530.5 216.5,-530.5 216.5,-489.5 315,-489.5 315,-530.5"/>
<text xml:space="preserve" text-anchor="middle" x="265.75" y="-513.2" font-family="Courier,monospace" font-size="14.00">nomatch:</text>
<text xml:space="preserve" text-anchor="middle" x="265.75" y="-496.7" font-family="Courier,monospace" font-size="14.00">free_ent++</text>
</g>
<!-- HASH_EMPTY&#45;&gt;NOMATCH -->
<g id="edge7" class="edge">
<title>HASH_EMPTY&#45;&gt;NOMATCH</title>
<path fill="none" stroke="black" d="M229.43,-582.84C235.41,-571.01 243.52,-554.96 250.56,-541.03"/>
<polygon fill="black" stroke="black" points="253.61,-542.76 255,-532.25 247.37,-539.6 253.61,-542.76"/>
<text xml:space="preserve" text-anchor="middle" x="262.44" y="-551.7" font-family="Courier,monospace" font-size="14.00">true</text>
</g>
<!-- PROBE_LOOP&#45;&gt;HASH_MATCH -->
<g id="edge8" class="edge">
<title>PROBE_LOOP&#45;&gt;HASH_MATCH</title>
<path fill="none" stroke="black" d="M97.77,-528.48C97.32,-551.07 99.4,-590.84 116.75,-619 128.51,-638.08 147.63,-653.57 165.65,-665.04"/>
<polygon fill="black" stroke="black" points="163.83,-668.03 174.2,-670.22 167.45,-662.05 163.83,-668.03"/>
</g>
<!-- CHECK_FREE_ENT -->
<g id="node8" class="node">
<title>CHECK_FREE_ENT</title>
<polygon fill="none" stroke="black" points="420,-452.5 189.5,-452.5 189.5,-416.5 420,-416.5 420,-452.5"/>
<text xml:space="preserve" text-anchor="middle" x="304.75" y="-429.45" font-family="Courier,monospace" font-size="14.00">if (free_ent &lt; maxmaxcode)</text>
</g>
<!-- NOMATCH&#45;&gt;CHECK_FREE_ENT -->
<g id="edge9" class="edge">
<title>NOMATCH&#45;&gt;CHECK_FREE_ENT</title>
<path fill="none" stroke="black" d="M276.2,-489.3C280.5,-481.2 285.55,-471.68 290.2,-462.91"/>
<polygon fill="black" stroke="black" points="293.29,-464.56 294.89,-454.08 287.11,-461.28 293.29,-464.56"/>
</g>
<!-- CHECK_FREE_ENT&#45;&gt;COMPRESS_LOOP -->
<g id="edge10" class="edge">
<title>CHECK_FREE_ENT&#45;&gt;COMPRESS_LOOP</title>
<path fill="none" stroke="black" d="M320.16,-452.87C331.07,-466.97 343.75,-487.91 343.75,-509 343.75,-763.5 343.75,-763.5 343.75,-763.5 343.75,-787.29 328.16,-809.13 312.74,-824.92"/>
<polygon fill="black" stroke="black" points="310.63,-822.09 305.86,-831.55 315.49,-827.13 310.63,-822.09"/>
<text xml:space="preserve" text-anchor="middle" x="360.25" y="-640.2" font-family="Courier,monospace" font-size="14.00">true</text>
</g>
<!-- CHECK_CHECKPOINT -->
<g id="node9" class="node">
<title>CHECK_CHECKPOINT</title>
<polygon fill="none" stroke="black" points="444.75,-364 164.75,-364 164.75,-328 444.75,-328 444.75,-364"/>
<text xml:space="preserve" text-anchor="middle" x="304.75" y="-340.95" font-family="Courier,monospace" font-size="14.00">else if (in_count &gt;= checkpoint)</text>
</g>
<!-- CHECK_FREE_ENT&#45;&gt;CHECK_CHECKPOINT -->
<g id="edge11" class="edge">
<title>CHECK_FREE_ENT&#45;&gt;CHECK_CHECKPOINT</title>
<path fill="none" stroke="black" d="M304.75,-416.41C304.75,-404.76 304.75,-389.05 304.75,-375.52"/>
<polygon fill="black" stroke="black" points="308.25,-375.86 304.75,-365.86 301.25,-375.86 308.25,-375.86"/>
<text xml:space="preserve" text-anchor="middle" x="325.38" y="-385.2" font-family="Courier,monospace" font-size="14.00">false</text>
</g>
<!-- CL_BLOCK_CALL -->
<g id="node10" class="node">
<title>CL_BLOCK_CALL</title>
<polygon fill="none" stroke="black" points="354,-275.5 255.5,-275.5 255.5,-239.5 354,-239.5 354,-275.5"/>
<text xml:space="preserve" text-anchor="middle" x="304.75" y="-252.45" font-family="Courier,monospace" font-size="14.00">cl_block()</text>
</g>
<!-- CHECK_CHECKPOINT&#45;&gt;CL_BLOCK_CALL -->
<g id="edge12" class="edge">
<title>CHECK_CHECKPOINT&#45;&gt;CL_BLOCK_CALL</title>
<path fill="none" stroke="black" d="M304.75,-327.91C304.75,-316.26 304.75,-300.55 304.75,-287.02"/>
<polygon fill="black" stroke="black" points="308.25,-287.36 304.75,-277.36 301.25,-287.36 308.25,-287.36"/>
<text xml:space="preserve" text-anchor="middle" x="321.25" y="-296.7" font-family="Courier,monospace" font-size="14.00">true</text>
</g>
<!-- CL_BLOCK_START -->
<g id="node11" class="node">
<title>CL_BLOCK_START</title>
<polygon fill="none" stroke="black" points="448.88,-202.5 160.62,-202.5 160.62,-161.5 448.88,-161.5 448.88,-202.5"/>
<text xml:space="preserve" text-anchor="middle" x="304.75" y="-185.2" font-family="Courier,monospace" font-size="14.00">cl_block():</text>
<text xml:space="preserve" text-anchor="middle" x="304.75" y="-168.7" font-family="Courier,monospace" font-size="14.00">checkpoint = in_count + CHECK_GAP</text>
</g>
<!-- CL_BLOCK_CALL&#45;&gt;CL_BLOCK_START -->
<g id="edge13" class="edge">
<title>CL_BLOCK_CALL&#45;&gt;CL_BLOCK_START</title>
<path fill="none" stroke="black" d="M304.75,-239.08C304.75,-231.7 304.75,-222.85 304.75,-214.4"/>
<polygon fill="black" stroke="black" points="308.25,-214.4 304.75,-204.4 301.25,-214.4 308.25,-214.4"/>
</g>
<!-- RATIO_CALC -->
<g id="node12" class="node">
<title>RATIO_CALC</title>
<polygon fill="none" stroke="black" points="420,-124.5 189.5,-124.5 189.5,-88.5 420,-88.5 420,-124.5"/>
<text xml:space="preserve" text-anchor="middle" x="304.75" y="-101.45" font-family="Courier,monospace" font-size="14.00">if (in_count &gt; 0x007fffff)</text>
</g>
<!-- CL_BLOCK_START&#45;&gt;RATIO_CALC -->
<g id="edge14" class="edge">
<title>CL_BLOCK_START&#45;&gt;RATIO_CALC</title>
<path fill="none" stroke="black" d="M304.75,-161.3C304.75,-153.56 304.75,-144.51 304.75,-136.07"/>
<polygon fill="black" stroke="black" points="308.25,-136.26 304.75,-126.26 301.25,-136.26 308.25,-136.26"/>
</g>
<!-- CL_HASH_CALL -->
<g id="node13" class="node">
<title>CL_HASH_CALL</title>
<polygon fill="none" stroke="black" points="349.88,-36 259.62,-36 259.62,0 349.88,0 349.88,-36"/>
<text xml:space="preserve" text-anchor="middle" x="304.75" y="-12.95" font-family="Courier,monospace" font-size="14.00">cl_hash()</text>
</g>
<!-- RATIO_CALC&#45;&gt;CL_HASH_CALL -->
<g id="edge15" class="edge">
<title>RATIO_CALC&#45;&gt;CL_HASH_CALL</title>
<path fill="none" stroke="black" d="M285.01,-88.36C280.34,-83.14 276,-77.05 273.5,-70.5 270.89,-63.65 270.89,-60.85 273.5,-54 274.67,-50.93 276.25,-47.96 278.07,-45.14"/>
<polygon fill="black" stroke="black" points="280.75,-47.4 284.09,-37.34 275.21,-43.12 280.75,-47.4"/>
<text xml:space="preserve" text-anchor="middle" x="294.12" y="-57.2" font-family="Courier,monospace" font-size="14.00">false</text>
</g>
<!-- RATIO_CALC&#45;&gt;CL_HASH_CALL -->
<g id="edge16" class="edge">
<title>RATIO_CALC&#45;&gt;CL_HASH_CALL</title>
<path fill="none" stroke="black" d="M310.71,-88.26C312.36,-82.66 313.93,-76.38 314.75,-70.5 315.77,-63.24 315.77,-61.26 314.75,-54 314.44,-51.79 314.03,-49.53 313.54,-47.27"/>
<polygon fill="black" stroke="black" points="316.96,-46.52 311.08,-37.71 310.19,-48.26 316.96,-46.52"/>
<text xml:space="preserve" text-anchor="middle" x="332.01" y="-57.2" font-family="Courier,monospace" font-size="14.00">true</text>
</g>
</g>
</svg>
