<?xml version="1.0" encoding="UTF-8" standalone="no"?>
<!DOCTYPE svg PUBLIC "-//W3C//DTD SVG 1.1//EN"
 "http://www.w3.org/Graphics/SVG/1.1/DTD/svg11.dtd">
<!-- Generated by graphviz version 13.1.2 (20250808.2320)
 -->
<!-- Title: encode_CDFG Pages: 1 -->
<svg width="191pt" height="646pt"
 viewBox="0.00 0.00 191.00 646.00" xmlns="http://www.w3.org/2000/svg" xmlns:xlink="http://www.w3.org/1999/xlink">
<g id="graph0" class="graph" transform="scale(1 1) rotate(0) translate(4 641.5)">
<title>encode_CDFG</title>
<polygon fill="white" stroke="none" points="-4,4 -4,-641.5 186.5,-641.5 186.5,4 -4,4"/>
<!-- start -->
<g id="node1" class="node">
<title>start</title>
<ellipse fill="none" stroke="black" cx="91.25" cy="-619.5" rx="32.41" ry="18"/>
<text xml:space="preserve" text-anchor="middle" x="91.25" y="-614.45" font-family="Times New Roman,serif" font-size="14.00">Inicio</text>
</g>
<!-- init -->
<g id="node2" class="node">
<title>init</title>
<polygon fill="none" stroke="black" points="182.5,-565.5 0,-565.5 0,-529.5 182.5,-529.5 182.5,-565.5"/>
<text xml:space="preserve" text-anchor="middle" x="91.25" y="-542.45" font-family="Times New Roman,serif" font-size="14.00">Inicializa ponteiros e variaveis</text>
</g>
<!-- start&#45;&gt;init -->
<g id="edge1" class="edge">
<title>start&#45;&gt;init</title>
<path fill="none" stroke="black" d="M91.25,-601.2C91.25,-593.91 91.25,-585.23 91.25,-577.04"/>
<polygon fill="black" stroke="black" points="94.75,-577.12 91.25,-567.12 87.75,-577.12 94.75,-577.12"/>
</g>
<!-- calc_xa_xb -->
<g id="node3" class="node">
<title>calc_xa_xb</title>
<polygon fill="none" stroke="black" points="141.62,-493.5 40.88,-493.5 40.88,-457.5 141.62,-457.5 141.62,-493.5"/>
<text xml:space="preserve" text-anchor="middle" x="91.25" y="-470.45" font-family="Times New Roman,serif" font-size="14.00">Calcula xa e xb</text>
</g>
<!-- init&#45;&gt;calc_xa_xb -->
<g id="edge2" class="edge">
<title>init&#45;&gt;calc_xa_xb</title>
<path fill="none" stroke="black" d="M91.25,-529.2C91.25,-521.91 91.25,-513.23 91.25,-505.04"/>
<polygon fill="black" stroke="black" points="94.75,-505.12 91.25,-495.12 87.75,-505.12 94.75,-505.12"/>
</g>
<!-- update_tqmf -->
<g id="node4" class="node">
<title>update_tqmf</title>
<polygon fill="none" stroke="black" points="155.5,-421.5 27,-421.5 27,-385.5 155.5,-385.5 155.5,-421.5"/>
<text xml:space="preserve" text-anchor="middle" x="91.25" y="-398.45" font-family="Times New Roman,serif" font-size="14.00">Atualiza buffer tqmf</text>
</g>
<!-- calc_xa_xb&#45;&gt;update_tqmf -->
<g id="edge3" class="edge">
<title>calc_xa_xb&#45;&gt;update_tqmf</title>
<path fill="none" stroke="black" d="M91.25,-457.2C91.25,-449.91 91.25,-441.23 91.25,-433.04"/>
<polygon fill="black" stroke="black" points="94.75,-433.12 91.25,-423.12 87.75,-433.12 94.75,-433.12"/>
</g>
<!-- compute_xl_xh -->
<g id="node5" class="node">
<title>compute_xl_xh</title>
<polygon fill="none" stroke="black" points="171.62,-349.5 10.88,-349.5 10.88,-308.5 171.62,-308.5 171.62,-349.5"/>
<text xml:space="preserve" text-anchor="middle" x="91.25" y="-332.2" font-family="Times New Roman,serif" font-size="14.00">Calcula xl = (xa+xb)&gt;&gt;15</text>
<text xml:space="preserve" text-anchor="middle" x="91.25" y="-315.7" font-family="Times New Roman,serif" font-size="14.00">xh = (xa&#45;xb)&gt;&gt;15</text>
</g>
<!-- update_tqmf&#45;&gt;compute_xl_xh -->
<g id="edge4" class="edge">
<title>update_tqmf&#45;&gt;compute_xl_xh</title>
<path fill="none" stroke="black" d="M91.25,-385.32C91.25,-378.09 91.25,-369.45 91.25,-361.16"/>
<polygon fill="black" stroke="black" points="94.75,-361.39 91.25,-351.39 87.75,-361.39 94.75,-361.39"/>
</g>
<!-- low_band -->
<g id="node6" class="node">
<title>low_band</title>
<polygon fill="none" stroke="black" points="159.25,-272.5 23.25,-272.5 23.25,-182 159.25,-182 159.25,-272.5"/>
<text xml:space="preserve" text-anchor="middle" x="91.25" y="-255.2" font-family="Times New Roman,serif" font-size="14.00">Processa banda baixa:</text>
<text xml:space="preserve" text-anchor="middle" x="91.25" y="-238.7" font-family="Times New Roman,serif" font-size="14.00">&#45; szl = filtez()</text>
<text xml:space="preserve" text-anchor="middle" x="91.25" y="-222.2" font-family="Times New Roman,serif" font-size="14.00">&#45; spl = filtep()</text>
<text xml:space="preserve" text-anchor="middle" x="91.25" y="-205.7" font-family="Times New Roman,serif" font-size="14.00">&#45; el = xl &#45; sl</text>
<text xml:space="preserve" text-anchor="middle" x="91.25" y="-189.2" font-family="Times New Roman,serif" font-size="14.00">&#45; il = quantl()</text>
</g>
<!-- compute_xl_xh&#45;&gt;low_band -->
<g id="edge5" class="edge">
<title>compute_xl_xh&#45;&gt;low_band</title>
<path fill="none" stroke="black" d="M91.25,-308.29C91.25,-301.19 91.25,-292.77 91.25,-284.11"/>
<polygon fill="black" stroke="black" points="94.75,-284.19 91.25,-274.19 87.75,-284.19 94.75,-284.19"/>
</g>
<!-- high_band -->
<g id="node7" class="node">
<title>high_band</title>
<polygon fill="none" stroke="black" points="169.75,-146 12.75,-146 12.75,-72 169.75,-72 169.75,-146"/>
<text xml:space="preserve" text-anchor="middle" x="91.25" y="-128.7" font-family="Times New Roman,serif" font-size="14.00">Processa banda alta:</text>
<text xml:space="preserve" text-anchor="middle" x="91.25" y="-112.2" font-family="Times New Roman,serif" font-size="14.00">&#45; eh = xh &#45; sh</text>
<text xml:space="preserve" text-anchor="middle" x="91.25" y="-95.7" font-family="Times New Roman,serif" font-size="14.00">&#45; ih = (eh&gt;=0)?3:1</text>
<text xml:space="preserve" text-anchor="middle" x="91.25" y="-79.2" font-family="Times New Roman,serif" font-size="14.00">&#45; decis = (564*deth)&gt;&gt;12</text>
</g>
<!-- low_band&#45;&gt;high_band -->
<g id="edge6" class="edge">
<title>low_band&#45;&gt;high_band</title>
<path fill="none" stroke="black" d="M91.25,-181.64C91.25,-173.81 91.25,-165.63 91.25,-157.72"/>
<polygon fill="black" stroke="black" points="94.75,-157.91 91.25,-147.91 87.75,-157.91 94.75,-157.91"/>
</g>
<!-- return -->
<g id="node8" class="node">
<title>return</title>
<ellipse fill="none" stroke="black" cx="91.25" cy="-18" rx="89.23" ry="18"/>
<text xml:space="preserve" text-anchor="middle" x="91.25" y="-12.95" font-family="Times New Roman,serif" font-size="14.00">Retorna il | (ih &lt;&lt; 6)</text>
</g>
<!-- high_band&#45;&gt;return -->
<g id="edge7" class="edge">
<title>high_band&#45;&gt;return</title>
<path fill="none" stroke="black" d="M91.25,-71.54C91.25,-63.48 91.25,-55.05 91.25,-47.36"/>
<polygon fill="black" stroke="black" points="94.75,-47.57 91.25,-37.57 87.75,-47.57 94.75,-47.57"/>
</g>
</g>
</svg>
