<?xml version="1.0" encoding="UTF-8" standalone="no"?>
<!DOCTYPE svg PUBLIC "-//W3C//DTD SVG 1.1//EN"
 "http://www.w3.org/Graphics/SVG/1.1/DTD/svg11.dtd">
<!-- Generated by graphviz version 13.1.2 (20250808.2320)
 -->
<!-- Title: fib_DFG Pages: 1 -->
<svg width="281pt" height="513pt"
 viewBox="0.00 0.00 281.00 513.00" xmlns="http://www.w3.org/2000/svg" xmlns:xlink="http://www.w3.org/1999/xlink">
<g id="graph0" class="graph" transform="scale(1 1) rotate(0) translate(4 509)">
<title>fib_DFG</title>
<polygon fill="white" stroke="none" points="-4,4 -4,-509 276.5,-509 276.5,4 -4,4"/>
<!-- n -->
<g id="node1" class="node">
<title>n</title>
<ellipse fill="lightblue" stroke="black" cx="48.38" cy="-487" rx="43.16" ry="18"/>
<text xml:space="preserve" text-anchor="middle" x="48.38" y="-481.95" font-family="Times New Roman,serif" font-size="14.00">n (input)</text>
</g>
<!-- op_loop_cond -->
<g id="node3" class="node">
<title>op_loop_cond</title>
<polygon fill="none" stroke="black" points="145.75,-432 39,-432 39,-396 145.75,-396 145.75,-432"/>
<text xml:space="preserve" text-anchor="middle" x="92.38" y="-408.95" font-family="Times New Roman,serif" font-size="14.00">i&lt;=30 &amp;&amp; i&lt;=n</text>
</g>
<!-- n&#45;&gt;op_loop_cond -->
<g id="edge1" class="edge">
<title>n&#45;&gt;op_loop_cond</title>
<path fill="none" stroke="black" d="M58.8,-469.17C63.79,-461.13 69.88,-451.3 75.5,-442.23"/>
<polygon fill="black" stroke="black" points="78.47,-444.08 80.77,-433.73 72.52,-440.39 78.47,-444.08"/>
</g>
<!-- op_init -->
<g id="node2" class="node">
<title>op_init</title>
<polygon fill="none" stroke="black" points="272.5,-432 164.25,-432 164.25,-396 272.5,-396 272.5,-432"/>
<text xml:space="preserve" text-anchor="middle" x="218.38" y="-408.95" font-family="Times New Roman,serif" font-size="14.00">Fnew=1, Fold=0</text>
</g>
<!-- op_temp -->
<g id="node4" class="node">
<title>op_temp</title>
<polygon fill="none" stroke="black" points="153.38,-343.5 71.38,-343.5 71.38,-307.5 153.38,-307.5 153.38,-343.5"/>
<text xml:space="preserve" text-anchor="middle" x="112.38" y="-320.45" font-family="Times New Roman,serif" font-size="14.00">temp=Fnew</text>
</g>
<!-- op_init&#45;&gt;op_temp -->
<g id="edge2" class="edge">
<title>op_init&#45;&gt;op_temp</title>
<path fill="none" stroke="black" d="M197.18,-395.7C181.44,-382.86 159.75,-365.16 142.25,-350.88"/>
<polygon fill="black" stroke="black" points="144.67,-348.33 134.71,-344.72 140.24,-353.76 144.67,-348.33"/>
</g>
<!-- op_fnew -->
<g id="node5" class="node">
<title>op_fnew</title>
<polygon fill="none" stroke="black" points="177,-182 59.75,-182 59.75,-146 177,-146 177,-182"/>
<text xml:space="preserve" text-anchor="middle" x="118.38" y="-158.95" font-family="Times New Roman,serif" font-size="14.00">Fnew=Fnew+Fold</text>
</g>
<!-- op_init&#45;&gt;op_fnew -->
<g id="edge3" class="edge">
<title>op_init&#45;&gt;op_fnew</title>
<path fill="none" stroke="black" d="M219.35,-395.64C220.47,-362.36 219.31,-288.15 191.38,-234.5 182.21,-216.89 166.83,-201.24 152.54,-189.27"/>
<polygon fill="black" stroke="black" points="155.03,-186.78 145.04,-183.25 150.65,-192.24 155.03,-186.78"/>
</g>
<!-- op_loop_cond&#45;&gt;op_temp -->
<g id="edge8" class="edge">
<title>op_loop_cond&#45;&gt;op_temp</title>
<path fill="none" stroke="black" d="M96.33,-395.91C99.02,-384.26 102.65,-368.55 105.78,-355.02"/>
<polygon fill="black" stroke="black" points="109.18,-355.86 108.02,-345.32 102.36,-354.28 109.18,-355.86"/>
<text xml:space="preserve" text-anchor="middle" x="114.67" y="-364.7" font-family="Times New Roman,serif" font-size="14.00">true</text>
</g>
<!-- op_fold -->
<g id="node6" class="node">
<title>op_fold</title>
<polygon fill="none" stroke="black" points="76.75,-270.5 0,-270.5 0,-234.5 76.75,-234.5 76.75,-270.5"/>
<text xml:space="preserve" text-anchor="middle" x="38.38" y="-247.45" font-family="Times New Roman,serif" font-size="14.00">Fold=temp</text>
</g>
<!-- op_temp&#45;&gt;op_fold -->
<g id="edge4" class="edge">
<title>op_temp&#45;&gt;op_fold</title>
<path fill="none" stroke="black" d="M94.46,-307.31C85.53,-298.74 74.55,-288.21 64.69,-278.74"/>
<polygon fill="black" stroke="black" points="67.11,-276.22 57.47,-271.82 62.26,-281.27 67.11,-276.22"/>
</g>
<!-- op_fnew&#45;&gt;op_temp -->
<g id="edge6" class="edge">
<title>op_fnew&#45;&gt;op_temp</title>
<path fill="none" stroke="black" d="M117.72,-182.35C116.69,-209.66 114.69,-262.96 113.45,-295.97"/>
<polygon fill="black" stroke="black" points="109.96,-295.49 113.09,-305.61 116.96,-295.75 109.96,-295.49"/>
<text xml:space="preserve" text-anchor="middle" x="151.72" y="-247.45" font-family="Times New Roman,serif" font-size="14.00">next iteration</text>
</g>
<!-- op_ans -->
<g id="node8" class="node">
<title>op_ans</title>
<polygon fill="none" stroke="black" points="154.5,-109 82.25,-109 82.25,-73 154.5,-73 154.5,-109"/>
<text xml:space="preserve" text-anchor="middle" x="118.38" y="-85.95" font-family="Times New Roman,serif" font-size="14.00">ans=Fnew</text>
</g>
<!-- op_fnew&#45;&gt;op_ans -->
<g id="edge9" class="edge">
<title>op_fnew&#45;&gt;op_ans</title>
<path fill="none" stroke="black" d="M118.38,-145.81C118.38,-138.23 118.38,-129.1 118.38,-120.54"/>
<polygon fill="black" stroke="black" points="121.88,-120.54 118.38,-110.54 114.88,-120.54 121.88,-120.54"/>
</g>
<!-- op_fold&#45;&gt;op_fnew -->
<g id="edge5" class="edge">
<title>op_fold&#45;&gt;op_fnew</title>
<path fill="none" stroke="black" d="M31,-234.38C27.6,-223.65 25.64,-210.01 32.38,-200 36.89,-193.29 42.94,-187.86 49.75,-183.48"/>
<polygon fill="black" stroke="black" points="51.06,-186.75 58.11,-178.85 47.67,-180.63 51.06,-186.75"/>
<text xml:space="preserve" text-anchor="middle" x="68.38" y="-203.2" font-family="Times New Roman,serif" font-size="14.00">next iteration</text>
</g>
<!-- op_inc -->
<g id="node7" class="node">
<title>op_inc</title>
<polygon fill="none" stroke="black" points="163.38,-505 109.38,-505 109.38,-469 163.38,-469 163.38,-505"/>
<text xml:space="preserve" text-anchor="middle" x="136.38" y="-481.95" font-family="Times New Roman,serif" font-size="14.00">i++</text>
</g>
<!-- op_inc&#45;&gt;op_loop_cond -->
<g id="edge7" class="edge">
<title>op_inc&#45;&gt;op_loop_cond</title>
<path fill="none" stroke="black" d="M125.72,-468.81C120.7,-460.7 114.58,-450.84 108.97,-441.78"/>
<polygon fill="black" stroke="black" points="111.97,-439.97 103.73,-433.32 106.02,-443.66 111.97,-439.97"/>
</g>
<!-- result -->
<g id="node9" class="node">
<title>result</title>
<ellipse fill="lightgreen" stroke="black" cx="118.38" cy="-18" rx="55.45" ry="18"/>
<text xml:space="preserve" text-anchor="middle" x="118.38" y="-12.95" font-family="Times New Roman,serif" font-size="14.00">ans (output)</text>
</g>
<!-- op_ans&#45;&gt;result -->
<g id="edge10" class="edge">
<title>op_ans&#45;&gt;result</title>
<path fill="none" stroke="black" d="M118.38,-72.81C118.38,-65.23 118.38,-56.1 118.38,-47.54"/>
<polygon fill="black" stroke="black" points="121.88,-47.54 118.38,-37.54 114.88,-47.54 121.88,-47.54"/>
</g>
</g>
</svg>
