<?xml version="1.0" encoding="UTF-8" standalone="no"?>
<!DOCTYPE svg PUBLIC "-//W3C//DTD SVG 1.1//EN"
 "http://www.w3.org/Graphics/SVG/1.1/DTD/svg11.dtd">
<!-- Generated by graphviz version 13.1.2 (20250808.2320)
 -->
<!-- Title: main_DFG Pages: 1 -->
<svg width="216pt" height="188pt"
 viewBox="0.00 0.00 216.00 188.00" xmlns="http://www.w3.org/2000/svg" xmlns:xlink="http://www.w3.org/1999/xlink">
<g id="graph0" class="graph" transform="scale(1 1) rotate(0) translate(4 184)">
<title>main_DFG</title>
<polygon fill="white" stroke="none" points="-4,4 -4,-184 212.24,-184 212.24,4 -4,4"/>
<!-- const_30 -->
<g id="node1" class="node">
<title>const_30</title>
<ellipse fill="lightblue" stroke="black" cx="83" cy="-162" rx="27" ry="18"/>
<text xml:space="preserve" text-anchor="middle" x="83" y="-156.95" font-family="Times New Roman,serif" font-size="14.00">30</text>
</g>
<!-- op_assign -->
<g id="node2" class="node">
<title>op_assign</title>
<polygon fill="lightblue" stroke="black" points="110,-108 56,-108 56,-72 110,-72 110,-108"/>
<text xml:space="preserve" text-anchor="middle" x="83" y="-84.95" font-family="Times New Roman,serif" font-size="14.00">a=30</text>
</g>
<!-- const_30&#45;&gt;op_assign -->
<g id="edge1" class="edge">
<title>const_30&#45;&gt;op_assign</title>
<path fill="none" stroke="black" d="M83,-143.7C83,-136.41 83,-127.73 83,-119.54"/>
<polygon fill="black" stroke="black" points="86.5,-119.62 83,-109.62 79.5,-119.62 86.5,-119.62"/>
</g>
<!-- op_call -->
<g id="node3" class="node">
<title>op_call</title>
<polygon fill="lightblue" stroke="black" points="54,-36 0,-36 0,0 54,0 54,-36"/>
<text xml:space="preserve" text-anchor="middle" x="27" y="-12.95" font-family="Times New Roman,serif" font-size="14.00">fib(a)</text>
</g>
<!-- op_assign&#45;&gt;op_call -->
<g id="edge2" class="edge">
<title>op_assign&#45;&gt;op_call</title>
<path fill="none" stroke="black" d="M69.16,-71.7C62.71,-63.64 54.92,-53.89 47.79,-44.98"/>
<polygon fill="black" stroke="black" points="50.61,-42.91 41.63,-37.29 45.14,-47.28 50.61,-42.91"/>
</g>
<!-- return_val -->
<g id="node4" class="node">
<title>return_val</title>
<ellipse fill="lightgreen" stroke="black" cx="140" cy="-18" rx="68.24" ry="18"/>
<text xml:space="preserve" text-anchor="middle" x="140" y="-12.95" font-family="Times New Roman,serif" font-size="14.00">a (return value)</text>
</g>
<!-- op_assign&#45;&gt;return_val -->
<g id="edge3" class="edge">
<title>op_assign&#45;&gt;return_val</title>
<path fill="none" stroke="black" d="M97.09,-71.7C103.65,-63.64 111.59,-53.89 118.84,-44.98"/>
<polygon fill="black" stroke="black" points="121.52,-47.24 125.12,-37.28 116.09,-42.82 121.52,-47.24"/>
</g>
</g>
</svg>
