<?xml version="1.0" encoding="UTF-8" standalone="no"?>
<!DOCTYPE svg PUBLIC "-//W3C//DTD SVG 1.1//EN"
 "http://www.w3.org/Graphics/SVG/1.1/DTD/svg11.dtd">
<!-- Generated by graphviz version 13.1.2 (20250808.2320)
 -->
<!-- Title: main_CFG Pages: 1 -->
<svg width="70pt" height="260pt"
 viewBox="0.00 0.00 70.00 260.00" xmlns="http://www.w3.org/2000/svg" xmlns:xlink="http://www.w3.org/1999/xlink">
<g id="graph0" class="graph" transform="scale(1 1) rotate(0) translate(4 256)">
<title>main_CFG</title>
<polygon fill="white" stroke="none" points="-4,4 -4,-256 65.75,-256 65.75,4 -4,4"/>
<!-- M1 -->
<g id="node1" class="node">
<title>M1</title>
<path fill="none" stroke="black" d="M45.88,-252C45.88,-252 15.88,-252 15.88,-252 9.88,-252 3.88,-246 3.88,-240 3.88,-240 3.88,-228 3.88,-228 3.88,-222 9.88,-216 15.88,-216 15.88,-216 45.88,-216 45.88,-216 51.88,-216 57.88,-222 57.88,-228 57.88,-228 57.88,-240 57.88,-240 57.88,-246 51.88,-252 45.88,-252"/>
<text xml:space="preserve" text-anchor="middle" x="30.88" y="-228.95" font-family="Times New Roman,serif" font-size="14.00">int a;</text>
</g>
<!-- M2 -->
<g id="node2" class="node">
<title>M2</title>
<path fill="none" stroke="black" d="M46.38,-180C46.38,-180 15.38,-180 15.38,-180 9.38,-180 3.38,-174 3.38,-168 3.38,-168 3.38,-156 3.38,-156 3.38,-150 9.38,-144 15.38,-144 15.38,-144 46.38,-144 46.38,-144 52.38,-144 58.38,-150 58.38,-156 58.38,-156 58.38,-168 58.38,-168 58.38,-174 52.38,-180 46.38,-180"/>
<text xml:space="preserve" text-anchor="middle" x="30.88" y="-156.95" font-family="Times New Roman,serif" font-size="14.00">a = 30;</text>
</g>
<!-- M1&#45;&gt;M2 -->
<g id="edge1" class="edge">
<title>M1&#45;&gt;M2</title>
<path fill="none" stroke="black" d="M30.88,-215.7C30.88,-208.41 30.88,-199.73 30.88,-191.54"/>
<polygon fill="black" stroke="black" points="34.38,-191.62 30.88,-181.62 27.38,-191.62 34.38,-191.62"/>
</g>
<!-- M3 -->
<g id="node3" class="node">
<title>M3</title>
<path fill="none" stroke="black" d="M45.88,-108C45.88,-108 15.88,-108 15.88,-108 9.88,-108 3.88,-102 3.88,-96 3.88,-96 3.88,-84 3.88,-84 3.88,-78 9.88,-72 15.88,-72 15.88,-72 45.88,-72 45.88,-72 51.88,-72 57.88,-78 57.88,-84 57.88,-84 57.88,-96 57.88,-96 57.88,-102 51.88,-108 45.88,-108"/>
<text xml:space="preserve" text-anchor="middle" x="30.88" y="-84.95" font-family="Times New Roman,serif" font-size="14.00">fib(a);</text>
</g>
<!-- M2&#45;&gt;M3 -->
<g id="edge2" class="edge">
<title>M2&#45;&gt;M3</title>
<path fill="none" stroke="black" d="M30.88,-143.7C30.88,-136.41 30.88,-127.73 30.88,-119.54"/>
<polygon fill="black" stroke="black" points="34.38,-119.62 30.88,-109.62 27.38,-119.62 34.38,-119.62"/>
</g>
<!-- M4 -->
<g id="node4" class="node">
<title>M4</title>
<path fill="none" stroke="black" d="M49.75,-36C49.75,-36 12,-36 12,-36 6,-36 0,-30 0,-24 0,-24 0,-12 0,-12 0,-6 6,0 12,0 12,0 49.75,0 49.75,0 55.75,0 61.75,-6 61.75,-12 61.75,-12 61.75,-24 61.75,-24 61.75,-30 55.75,-36 49.75,-36"/>
<text xml:space="preserve" text-anchor="middle" x="30.88" y="-12.95" font-family="Times New Roman,serif" font-size="14.00">return a;</text>
</g>
<!-- M3&#45;&gt;M4 -->
<g id="edge3" class="edge">
<title>M3&#45;&gt;M4</title>
<path fill="none" stroke="black" d="M30.88,-71.7C30.88,-64.41 30.88,-55.73 30.88,-47.54"/>
<polygon fill="black" stroke="black" points="34.38,-47.62 30.88,-37.62 27.38,-47.62 34.38,-47.62"/>
</g>
</g>
</svg>
