<?xml version="1.0" encoding="UTF-8" standalone="no"?>
<!DOCTYPE svg PUBLIC "-//W3C//DTD SVG 1.1//EN"
 "http://www.w3.org/Graphics/SVG/1.1/DTD/svg11.dtd">
<!-- Generated by graphviz version 13.1.2 (20250808.2320)
 -->
<!-- Title: adpcm_CFG Pages: 1 -->
<svg width="525pt" height="440pt"
 viewBox="0.00 0.00 525.00 440.00" xmlns="http://www.w3.org/2000/svg" xmlns:xlink="http://www.w3.org/1999/xlink">
<g id="graph0" class="graph" transform="scale(1 1) rotate(0) translate(4 436)">
<title>adpcm_CFG</title>
<polygon fill="white" stroke="none" points="-4,4 -4,-436 520.75,-436 520.75,4 -4,4"/>
<!-- N1 -->
<g id="node1" class="node">
<title>N1</title>
<path fill="none" stroke="black" d="M258.62,-432C258.62,-432 139.12,-432 139.12,-432 133.12,-432 127.12,-426 127.12,-420 127.12,-420 127.12,-408 127.12,-408 127.12,-402 133.12,-396 139.12,-396 139.12,-396 258.62,-396 258.62,-396 264.62,-396 270.62,-402 270.62,-408 270.62,-408 270.62,-420 270.62,-420 270.62,-426 264.62,-432 258.62,-432"/>
<text xml:space="preserve" text-anchor="middle" x="198.88" y="-408.57" font-family="Helvetica,sans-Serif" font-size="14.00">1: Inicio do programa</text>
</g>
<!-- N2 -->
<g id="node2" class="node">
<title>N2</title>
<path fill="none" stroke="black" d="M269.5,-359C269.5,-359 128.25,-359 128.25,-359 122.25,-359 116.25,-353 116.25,-347 116.25,-347 116.25,-335 116.25,-335 116.25,-329 122.25,-323 128.25,-323 128.25,-323 269.5,-323 269.5,-323 275.5,-323 281.5,-329 281.5,-335 281.5,-335 281.5,-347 281.5,-347 281.5,-353 275.5,-359 269.5,-359"/>
<text xml:space="preserve" text-anchor="middle" x="198.88" y="-335.57" font-family="Helvetica,sans-Serif" font-size="14.00">2: Inicializacoes e reset()</text>
</g>
<!-- N1&#45;&gt;N2 -->
<g id="edge1" class="edge">
<title>N1&#45;&gt;N2</title>
<path fill="none" stroke="black" d="M198.88,-395.81C198.88,-388.23 198.88,-379.1 198.88,-370.54"/>
<polygon fill="black" stroke="black" points="202.38,-370.54 198.88,-360.54 195.38,-370.54 202.38,-370.54"/>
</g>
<!-- N3 -->
<g id="node3" class="node">
<title>N3</title>
<path fill="none" stroke="black" d="M292,-286C292,-286 105.75,-286 105.75,-286 99.75,-286 93.75,-280 93.75,-274 93.75,-274 93.75,-262 93.75,-262 93.75,-256 99.75,-250 105.75,-250 105.75,-250 292,-250 292,-250 298,-250 304,-256 304,-262 304,-262 304,-274 304,-274 304,-280 298,-286 292,-286"/>
<text xml:space="preserve" text-anchor="middle" x="198.88" y="-262.57" font-family="Helvetica,sans-Serif" font-size="14.00">3: Loop de geracao de test_data</text>
</g>
<!-- N2&#45;&gt;N3 -->
<g id="edge2" class="edge">
<title>N2&#45;&gt;N3</title>
<path fill="none" stroke="black" d="M198.88,-322.81C198.88,-315.23 198.88,-306.1 198.88,-297.54"/>
<polygon fill="black" stroke="black" points="202.38,-297.54 198.88,-287.54 195.38,-297.54 202.38,-297.54"/>
</g>
<!-- N4 -->
<g id="node4" class="node">
<title>N4</title>
<path fill="none" stroke="black" d="M260.5,-197.5C260.5,-197.5 137.25,-197.5 137.25,-197.5 131.25,-197.5 125.25,-191.5 125.25,-185.5 125.25,-185.5 125.25,-173.5 125.25,-173.5 125.25,-167.5 131.25,-161.5 137.25,-161.5 137.25,-161.5 260.5,-161.5 260.5,-161.5 266.5,-161.5 272.5,-167.5 272.5,-173.5 272.5,-173.5 272.5,-185.5 272.5,-185.5 272.5,-191.5 266.5,-197.5 260.5,-197.5"/>
<text xml:space="preserve" text-anchor="middle" x="198.88" y="-174.07" font-family="Helvetica,sans-Serif" font-size="14.00">4: Chamada encode()</text>
</g>
<!-- N3&#45;&gt;N4 -->
<g id="edge3" class="edge">
<title>N3&#45;&gt;N4</title>
<path fill="none" stroke="black" d="M198.88,-249.91C198.88,-238.26 198.88,-222.55 198.88,-209.02"/>
<polygon fill="black" stroke="black" points="202.38,-209.36 198.88,-199.36 195.38,-209.36 202.38,-209.36"/>
<text xml:space="preserve" text-anchor="middle" x="246.88" y="-218.7" font-family="Times New Roman,serif" font-size="14.00">Condicao de loop</text>
</g>
<!-- N6 -->
<g id="node6" class="node">
<title>N6</title>
<path fill="none" stroke="black" d="M425.5,-197.5C425.5,-197.5 302.25,-197.5 302.25,-197.5 296.25,-197.5 290.25,-191.5 290.25,-185.5 290.25,-185.5 290.25,-173.5 290.25,-173.5 290.25,-167.5 296.25,-161.5 302.25,-161.5 302.25,-161.5 425.5,-161.5 425.5,-161.5 431.5,-161.5 437.5,-167.5 437.5,-173.5 437.5,-173.5 437.5,-185.5 437.5,-185.5 437.5,-191.5 431.5,-197.5 425.5,-197.5"/>
<text xml:space="preserve" text-anchor="middle" x="363.88" y="-174.07" font-family="Helvetica,sans-Serif" font-size="14.00">6: Chamada decode()</text>
</g>
<!-- N3&#45;&gt;N6 -->
<g id="edge6" class="edge">
<title>N3&#45;&gt;N6</title>
<path fill="none" stroke="black" d="M259.24,-249.52C272.66,-244.64 286.55,-238.79 298.88,-232 312.31,-224.6 325.82,-214.44 337.01,-205.1"/>
<polygon fill="black" stroke="black" points="339,-208.01 344.3,-198.84 334.44,-202.7 339,-208.01"/>
<text xml:space="preserve" text-anchor="middle" x="357.31" y="-218.7" font-family="Times New Roman,serif" font-size="14.00">Fim do loop</text>
</g>
<!-- N5 -->
<g id="node5" class="node">
<title>N5</title>
<path fill="none" stroke="black" d="M115.75,-109C115.75,-109 12,-109 12,-109 6,-109 0,-103 0,-97 0,-97 0,-85 0,-85 0,-79 6,-73 12,-73 12,-73 115.75,-73 115.75,-73 121.75,-73 127.75,-79 127.75,-85 127.75,-85 127.75,-97 127.75,-97 127.75,-103 121.75,-109 115.75,-109"/>
<text xml:space="preserve" text-anchor="middle" x="63.88" y="-85.58" font-family="Helvetica,sans-Serif" font-size="14.00">5: Loop de encode</text>
</g>
<!-- N4&#45;&gt;N5 -->
<g id="edge4" class="edge">
<title>N4&#45;&gt;N5</title>
<path fill="none" stroke="black" d="M171.88,-161.2C151.37,-148.06 122.94,-129.85 100.4,-115.4"/>
<polygon fill="black" stroke="black" points="102.41,-112.53 92.1,-110.08 98.63,-118.43 102.41,-112.53"/>
</g>
<!-- N5&#45;&gt;N3 -->
<g id="edge5" class="edge">
<title>N5&#45;&gt;N3</title>
<path fill="none" stroke="black" d="M47.71,-109.21C29.2,-131.09 3.75,-169.39 22.88,-197.5 38.22,-220.06 62.14,-235.3 87.44,-245.59"/>
<polygon fill="black" stroke="black" points="85.96,-248.77 96.55,-249.03 88.43,-242.22 85.96,-248.77"/>
<text xml:space="preserve" text-anchor="middle" x="69.38" y="-174.45" font-family="Times New Roman,serif" font-size="14.00">Proxima iteracao</text>
</g>
<!-- N7 -->
<g id="node7" class="node">
<title>N7</title>
<path fill="none" stroke="black" d="M504.75,-109C504.75,-109 401,-109 401,-109 395,-109 389,-103 389,-97 389,-97 389,-85 389,-85 389,-79 395,-73 401,-73 401,-73 504.75,-73 504.75,-73 510.75,-73 516.75,-79 516.75,-85 516.75,-85 516.75,-97 516.75,-97 516.75,-103 510.75,-109 504.75,-109"/>
<text xml:space="preserve" text-anchor="middle" x="452.88" y="-85.58" font-family="Helvetica,sans-Serif" font-size="14.00">7: Loop de decode</text>
</g>
<!-- N6&#45;&gt;N7 -->
<g id="edge7" class="edge">
<title>N6&#45;&gt;N7</title>
<path fill="none" stroke="black" d="M437.97,-161.41C445.76,-156.8 452.71,-150.94 457.88,-143.5 462.54,-136.78 463.26,-128.32 462.24,-120.22"/>
<polygon fill="black" stroke="black" points="465.71,-119.73 460.2,-110.69 458.87,-121.2 465.71,-119.73"/>
</g>
<!-- N8 -->
<g id="node8" class="node">
<title>N8</title>
<path fill="none" stroke="black" d="M339.38,-109C339.38,-109 206.38,-109 206.38,-109 200.38,-109 194.38,-103 194.38,-97 194.38,-97 194.38,-85 194.38,-85 194.38,-79 200.38,-73 206.38,-73 206.38,-73 339.38,-73 339.38,-73 345.38,-73 351.38,-79 351.38,-85 351.38,-85 351.38,-97 351.38,-97 351.38,-103 345.38,-109 339.38,-109"/>
<text xml:space="preserve" text-anchor="middle" x="272.88" y="-85.58" font-family="Helvetica,sans-Serif" font-size="14.00">8: Retorno do resultado</text>
</g>
<!-- N6&#45;&gt;N8 -->
<g id="edge9" class="edge">
<title>N6&#45;&gt;N8</title>
<path fill="none" stroke="black" d="M306.33,-161.11C298.04,-156.5 290.31,-150.72 284.38,-143.5 279.14,-137.13 276.16,-128.87 274.51,-120.84"/>
<polygon fill="black" stroke="black" points="277.98,-120.39 273.12,-110.98 271.05,-121.37 277.98,-120.39"/>
<text xml:space="preserve" text-anchor="middle" x="318.12" y="-130.2" font-family="Times New Roman,serif" font-size="14.00">Fim do loop</text>
</g>
<!-- N7&#45;&gt;N6 -->
<g id="edge8" class="edge">
<title>N7&#45;&gt;N6</title>
<path fill="none" stroke="black" d="M388.5,-104.98C377.62,-110.07 367.67,-117.15 360.88,-127 356.3,-133.64 355.31,-141.98 355.96,-150"/>
<polygon fill="black" stroke="black" points="352.49,-150.51 357.59,-159.8 359.4,-149.36 352.49,-150.51"/>
<text xml:space="preserve" text-anchor="middle" x="407.38" y="-130.2" font-family="Times New Roman,serif" font-size="14.00">Proxima iteracao</text>
</g>
<!-- N9 -->
<g id="node9" class="node">
<title>N9</title>
<path fill="none" stroke="black" d="M328.5,-36C328.5,-36 217.25,-36 217.25,-36 211.25,-36 205.25,-30 205.25,-24 205.25,-24 205.25,-12 205.25,-12 205.25,-6 211.25,0 217.25,0 217.25,0 328.5,0 328.5,0 334.5,0 340.5,-6 340.5,-12 340.5,-12 340.5,-24 340.5,-24 340.5,-30 334.5,-36 328.5,-36"/>
<text xml:space="preserve" text-anchor="middle" x="272.88" y="-12.57" font-family="Helvetica,sans-Serif" font-size="14.00">9: Fim do programa</text>
</g>
<!-- N8&#45;&gt;N9 -->
<g id="edge10" class="edge">
<title>N8&#45;&gt;N9</title>
<path fill="none" stroke="black" d="M272.88,-72.81C272.88,-65.23 272.88,-56.1 272.88,-47.54"/>
<polygon fill="black" stroke="black" points="276.38,-47.54 272.88,-37.54 269.38,-47.54 276.38,-47.54"/>
</g>
</g>
</svg>
