<?xml version="1.0" encoding="UTF-8" standalone="no"?>
<!DOCTYPE svg PUBLIC "-//W3C//DTD SVG 1.1//EN"
 "http://www.w3.org/Graphics/SVG/1.1/DTD/svg11.dtd">
<!-- Generated by graphviz version 13.1.2 (20250808.2320)
 -->
<!-- Title: adpcm_DFG Pages: 1 -->
<svg width="154pt" height="404pt"
 viewBox="0.00 0.00 154.00 404.00" xmlns="http://www.w3.org/2000/svg" xmlns:xlink="http://www.w3.org/1999/xlink">
<g id="graph0" class="graph" transform="scale(1 1) rotate(0) translate(4 400)">
<title>adpcm_DFG</title>
<polygon fill="white" stroke="none" points="-4,4 -4,-400 149.81,-400 149.81,4 -4,4"/>
<!-- test_data -->
<g id="node1" class="node">
<title>test_data</title>
<ellipse fill="lightblue" stroke="black" cx="72.9" cy="-378" rx="43.67" ry="18"/>
<text xml:space="preserve" text-anchor="middle" x="72.9" y="-372.95" font-family="Times New Roman,serif" font-size="14.00">test_data</text>
</g>
<!-- encode -->
<g id="node4" class="node">
<title>encode</title>
<polygon fill="lightblue" stroke="black" points="104.53,-324 41.28,-324 41.28,-288 104.53,-288 104.53,-324"/>
<text xml:space="preserve" text-anchor="middle" x="72.9" y="-300.95" font-family="Times New Roman,serif" font-size="14.00">encode()</text>
</g>
<!-- test_data&#45;&gt;encode -->
<g id="edge1" class="edge">
<title>test_data&#45;&gt;encode</title>
<path fill="none" stroke="black" d="M72.9,-359.7C72.9,-352.41 72.9,-343.73 72.9,-335.54"/>
<polygon fill="black" stroke="black" points="76.4,-335.62 72.9,-325.62 69.4,-335.62 76.4,-335.62"/>
</g>
<!-- compressed -->
<g id="node2" class="node">
<title>compressed</title>
<ellipse fill="lightblue" stroke="black" cx="72.9" cy="-234" rx="54.93" ry="18"/>
<text xml:space="preserve" text-anchor="middle" x="72.9" y="-228.95" font-family="Times New Roman,serif" font-size="14.00">compressed</text>
</g>
<!-- decode -->
<g id="node5" class="node">
<title>decode</title>
<polygon fill="lightblue" stroke="black" points="104.53,-180 41.28,-180 41.28,-144 104.53,-144 104.53,-180"/>
<text xml:space="preserve" text-anchor="middle" x="72.9" y="-156.95" font-family="Times New Roman,serif" font-size="14.00">decode()</text>
</g>
<!-- compressed&#45;&gt;decode -->
<g id="edge3" class="edge">
<title>compressed&#45;&gt;decode</title>
<path fill="none" stroke="black" d="M72.9,-215.7C72.9,-208.41 72.9,-199.73 72.9,-191.54"/>
<polygon fill="black" stroke="black" points="76.4,-191.62 72.9,-181.62 69.4,-191.62 76.4,-191.62"/>
</g>
<!-- result -->
<g id="node3" class="node">
<title>result</title>
<ellipse fill="lightblue" stroke="black" cx="72.9" cy="-18" rx="31.39" ry="18"/>
<text xml:space="preserve" text-anchor="middle" x="72.9" y="-12.95" font-family="Times New Roman,serif" font-size="14.00">result</text>
</g>
<!-- encode&#45;&gt;compressed -->
<g id="edge2" class="edge">
<title>encode&#45;&gt;compressed</title>
<path fill="none" stroke="black" d="M72.9,-287.7C72.9,-280.41 72.9,-271.73 72.9,-263.54"/>
<polygon fill="black" stroke="black" points="76.4,-263.62 72.9,-253.62 69.4,-263.62 76.4,-263.62"/>
</g>
<!-- xout1 -->
<g id="node6" class="node">
<title>xout1</title>
<ellipse fill="lightblue" stroke="black" cx="31.9" cy="-90" rx="31.9" ry="18"/>
<text xml:space="preserve" text-anchor="middle" x="31.9" y="-84.95" font-family="Times New Roman,serif" font-size="14.00">xout1</text>
</g>
<!-- decode&#45;&gt;xout1 -->
<g id="edge4" class="edge">
<title>decode&#45;&gt;xout1</title>
<path fill="none" stroke="black" d="M62.77,-143.7C58.13,-135.78 52.54,-126.23 47.39,-117.44"/>
<polygon fill="black" stroke="black" points="50.48,-115.79 42.4,-108.93 44.44,-119.33 50.48,-115.79"/>
</g>
<!-- xout2 -->
<g id="node7" class="node">
<title>xout2</title>
<ellipse fill="lightblue" stroke="black" cx="113.9" cy="-90" rx="31.9" ry="18"/>
<text xml:space="preserve" text-anchor="middle" x="113.9" y="-84.95" font-family="Times New Roman,serif" font-size="14.00">xout2</text>
</g>
<!-- decode&#45;&gt;xout2 -->
<g id="edge5" class="edge">
<title>decode&#45;&gt;xout2</title>
<path fill="none" stroke="black" d="M83.04,-143.7C87.67,-135.78 93.27,-126.23 98.42,-117.44"/>
<polygon fill="black" stroke="black" points="101.37,-119.33 103.4,-108.93 95.33,-115.79 101.37,-119.33"/>
</g>
<!-- xout1&#45;&gt;result -->
<g id="edge6" class="edge">
<title>xout1&#45;&gt;result</title>
<path fill="none" stroke="black" d="M41.62,-72.41C46.37,-64.3 52.2,-54.35 57.53,-45.25"/>
<polygon fill="black" stroke="black" points="60.46,-47.17 62.49,-36.78 54.42,-43.64 60.46,-47.17"/>
</g>
<!-- xout2&#45;&gt;result -->
<g id="edge7" class="edge">
<title>xout2&#45;&gt;result</title>
<path fill="none" stroke="black" d="M104.19,-72.41C99.44,-64.3 93.61,-54.35 88.28,-45.25"/>
<polygon fill="black" stroke="black" points="91.39,-43.64 83.31,-36.78 85.35,-47.17 91.39,-43.64"/>
</g>
</g>
</svg>
