<?xml version="1.0" encoding="UTF-8" standalone="no"?>
<!DOCTYPE svg PUBLIC "-//W3C//DTD SVG 1.1//EN"
 "http://www.w3.org/Graphics/SVG/1.1/DTD/svg11.dtd">
<!-- Generated by graphviz version 13.1.2 (20250808.2320)
 -->
<!-- Title: encode Pages: 1 -->
<svg width="335pt" height="1243pt"
 viewBox="0.00 0.00 335.00 1243.00" xmlns="http://www.w3.org/2000/svg" xmlns:xlink="http://www.w3.org/1999/xlink">
<g id="graph0" class="graph" transform="scale(1 1) rotate(0) translate(4 1239)">
<title>encode</title>
<polygon fill="white" stroke="none" points="-4,4 -4,-1239 330.98,-1239 330.98,4 -4,4"/>
<!-- start -->
<g id="node1" class="node">
<title>start</title>
<ellipse fill="none" stroke="black" cx="205.87" cy="-1217" rx="32.41" ry="18"/>
<text xml:space="preserve" text-anchor="middle" x="205.87" y="-1211.95" font-family="Times New Roman,serif" font-size="14.00">Inicio</text>
</g>
<!-- B1 -->
<g id="node3" class="node">
<title>B1</title>
<polygon fill="none" stroke="black" points="277.62,-1162 134.12,-1162 134.12,-1126 277.62,-1126 277.62,-1162"/>
<text xml:space="preserve" text-anchor="middle" x="205.87" y="-1138.95" font-family="Times New Roman,serif" font-size="14.00">B1: Inicializa ponteiros</text>
</g>
<!-- start&#45;&gt;B1 -->
<g id="edge1" class="edge">
<title>start&#45;&gt;B1</title>
<path fill="none" stroke="black" d="M205.87,-1198.81C205.87,-1191.23 205.87,-1182.1 205.87,-1173.54"/>
<polygon fill="black" stroke="black" points="209.37,-1173.54 205.87,-1163.54 202.37,-1173.54 209.37,-1173.54"/>
</g>
<!-- end -->
<g id="node2" class="node">
<title>end</title>
<ellipse fill="none" stroke="black" cx="205.87" cy="-18" rx="27" ry="18"/>
<text xml:space="preserve" text-anchor="middle" x="205.87" y="-12.95" font-family="Times New Roman,serif" font-size="14.00">Fim</text>
</g>
<!-- B2 -->
<g id="node4" class="node">
<title>B2</title>
<polygon fill="none" stroke="black" points="283.24,-1089 128.49,-1089 128.49,-1053 283.24,-1053 283.24,-1089"/>
<text xml:space="preserve" text-anchor="middle" x="205.87" y="-1065.95" font-family="Times New Roman,serif" font-size="14.00">B2: Calcula xa, xb (loop)</text>
</g>
<!-- B1&#45;&gt;B2 -->
<g id="edge2" class="edge">
<title>B1&#45;&gt;B2</title>
<path fill="none" stroke="black" d="M205.87,-1125.81C205.87,-1118.23 205.87,-1109.1 205.87,-1100.54"/>
<polygon fill="black" stroke="black" points="209.37,-1100.54 205.87,-1090.54 202.37,-1100.54 209.37,-1100.54"/>
</g>
<!-- B3 -->
<g id="node5" class="node">
<title>B3</title>
<polygon fill="none" stroke="black" points="262.99,-1016 148.74,-1016 148.74,-980 262.99,-980 262.99,-1016"/>
<text xml:space="preserve" text-anchor="middle" x="205.87" y="-992.95" font-family="Times New Roman,serif" font-size="14.00">B3: Atualiza tqmf</text>
</g>
<!-- B2&#45;&gt;B3 -->
<g id="edge3" class="edge">
<title>B2&#45;&gt;B3</title>
<path fill="none" stroke="black" d="M205.87,-1052.81C205.87,-1045.23 205.87,-1036.1 205.87,-1027.54"/>
<polygon fill="black" stroke="black" points="209.37,-1027.54 205.87,-1017.54 202.37,-1027.54 209.37,-1027.54"/>
</g>
<!-- B4 -->
<g id="node6" class="node">
<title>B4</title>
<polygon fill="none" stroke="black" points="263.74,-943 147.99,-943 147.99,-907 263.74,-907 263.74,-943"/>
<text xml:space="preserve" text-anchor="middle" x="205.87" y="-919.95" font-family="Times New Roman,serif" font-size="14.00">B4: Calcula xl, xh</text>
</g>
<!-- B3&#45;&gt;B4 -->
<g id="edge4" class="edge">
<title>B3&#45;&gt;B4</title>
<path fill="none" stroke="black" d="M205.87,-979.81C205.87,-972.23 205.87,-963.1 205.87,-954.54"/>
<polygon fill="black" stroke="black" points="209.37,-954.54 205.87,-944.54 202.37,-954.54 209.37,-954.54"/>
</g>
<!-- B5 -->
<g id="node7" class="node">
<title>B5</title>
<polygon fill="none" stroke="black" points="283.99,-870 127.74,-870 127.74,-834 283.99,-834 283.99,-870"/>
<text xml:space="preserve" text-anchor="middle" x="205.87" y="-846.95" font-family="Times New Roman,serif" font-size="14.00">B5: Calcula szl, spl, sl, el</text>
<text xml:space="preserve" text-anchor="middle" x="79.37" y="-889.7" font-family="Times New Roman,serif" font-size="14.00">def: el, sl</text>
<text xml:space="preserve" text-anchor="middle" x="79.37" y="-873.2" font-family="Times New Roman,serif" font-size="14.00">c&#45;use: xl, rlt1, al1</text>
</g>
<!-- B4&#45;&gt;B5 -->
<g id="edge5" class="edge">
<title>B4&#45;&gt;B5</title>
<path fill="none" stroke="black" d="M205.87,-906.81C205.87,-899.23 205.87,-890.1 205.87,-881.54"/>
<polygon fill="black" stroke="black" points="209.37,-881.54 205.87,-871.54 202.37,-881.54 209.37,-881.54"/>
</g>
<!-- B6 -->
<g id="node8" class="node">
<title>B6</title>
<polygon fill="none" stroke="black" points="315.49,-797 96.24,-797 96.24,-761 315.49,-761 315.49,-797"/>
<text xml:space="preserve" text-anchor="middle" x="205.87" y="-773.95" font-family="Times New Roman,serif" font-size="14.00">B6: Quantiza il, atualiza dlt, nbl, detl</text>
</g>
<!-- B5&#45;&gt;B6 -->
<g id="edge6" class="edge">
<title>B5&#45;&gt;B6</title>
<path fill="none" stroke="black" d="M205.87,-833.81C205.87,-826.23 205.87,-817.1 205.87,-808.54"/>
<polygon fill="black" stroke="black" points="209.37,-808.54 205.87,-798.54 202.37,-808.54 209.37,-808.54"/>
</g>
<!-- B7 -->
<g id="node9" class="node">
<title>B7</title>
<polygon fill="none" stroke="black" points="290.74,-724 120.99,-724 120.99,-688 290.74,-688 290.74,-724"/>
<text xml:space="preserve" text-anchor="middle" x="205.87" y="-700.95" font-family="Times New Roman,serif" font-size="14.00">B7: Atualiza plt, al1, al2, rlt</text>
</g>
<!-- B6&#45;&gt;B7 -->
<g id="edge7" class="edge">
<title>B6&#45;&gt;B7</title>
<path fill="none" stroke="black" d="M205.87,-760.81C205.87,-753.23 205.87,-744.1 205.87,-735.54"/>
<polygon fill="black" stroke="black" points="209.37,-735.54 205.87,-725.54 202.37,-735.54 209.37,-735.54"/>
</g>
<!-- B8 -->
<g id="node10" class="node">
<title>B8</title>
<polygon fill="none" stroke="black" points="289.99,-651 121.74,-651 121.74,-615 289.99,-615 289.99,-651"/>
<text xml:space="preserve" text-anchor="middle" x="205.87" y="-627.95" font-family="Times New Roman,serif" font-size="14.00">B8: Calcula szh, sph, sh, eh</text>
</g>
<!-- B7&#45;&gt;B8 -->
<g id="edge8" class="edge">
<title>B7&#45;&gt;B8</title>
<path fill="none" stroke="black" d="M205.87,-687.81C205.87,-680.23 205.87,-671.1 205.87,-662.54"/>
<polygon fill="black" stroke="black" points="209.37,-662.54 205.87,-652.54 202.37,-662.54 209.37,-662.54"/>
</g>
<!-- B9 -->
<g id="node11" class="node">
<title>B9</title>
<polygon fill="none" stroke="black" points="205.87,-578 109.36,-560 205.87,-542 302.37,-560 205.87,-578"/>
<text xml:space="preserve" text-anchor="middle" x="205.87" y="-554.95" font-family="Times New Roman,serif" font-size="14.00">B9: if(eh &gt;= 0)</text>
<text xml:space="preserve" text-anchor="middle" x="84.61" y="-581.2" font-family="Times New Roman,serif" font-size="14.00">p&#45;use: eh</text>
</g>
<!-- B8&#45;&gt;B9 -->
<g id="edge9" class="edge">
<title>B8&#45;&gt;B9</title>
<path fill="none" stroke="black" d="M205.87,-614.81C205.87,-607.23 205.87,-598.1 205.87,-589.54"/>
<polygon fill="black" stroke="black" points="209.37,-589.54 205.87,-579.54 202.37,-589.54 209.37,-589.54"/>
</g>
<!-- B10 -->
<g id="node12" class="node">
<title>B10</title>
<polygon fill="none" stroke="black" points="197.37,-489.5 118.37,-489.5 118.37,-453.5 197.37,-453.5 197.37,-489.5"/>
<text xml:space="preserve" text-anchor="middle" x="157.87" y="-466.45" font-family="Times New Roman,serif" font-size="14.00">B10: ih = 3</text>
</g>
<!-- B9&#45;&gt;B10 -->
<g id="edge10" class="edge">
<title>B9&#45;&gt;B10</title>
<path fill="none" stroke="black" d="M197.06,-543.13C190.31,-530.97 180.83,-513.89 172.89,-499.57"/>
<polygon fill="black" stroke="black" points="176.09,-498.12 168.17,-491.07 169.96,-501.51 176.09,-498.12"/>
<text xml:space="preserve" text-anchor="middle" x="198.92" y="-510.7" font-family="Times New Roman,serif" font-size="14.00">True</text>
</g>
<!-- B11 -->
<g id="node13" class="node">
<title>B11</title>
<polygon fill="none" stroke="black" points="294.37,-489.5 215.37,-489.5 215.37,-453.5 294.37,-453.5 294.37,-489.5"/>
<text xml:space="preserve" text-anchor="middle" x="254.87" y="-466.45" font-family="Times New Roman,serif" font-size="14.00">B11: ih = 1</text>
</g>
<!-- B9&#45;&gt;B11 -->
<g id="edge11" class="edge">
<title>B9&#45;&gt;B11</title>
<path fill="none" stroke="black" d="M214.63,-543.54C221.49,-531.41 231.22,-514.24 239.39,-499.82"/>
<polygon fill="black" stroke="black" points="242.37,-501.65 244.26,-491.23 236.28,-498.2 242.37,-501.65"/>
<text xml:space="preserve" text-anchor="middle" x="249.01" y="-510.7" font-family="Times New Roman,serif" font-size="14.00">False</text>
</g>
<!-- B12 -->
<g id="node14" class="node">
<title>B12</title>
<polygon fill="none" stroke="black" points="205.87,-416.5 84.75,-398.5 205.87,-380.5 326.98,-398.5 205.87,-416.5"/>
<text xml:space="preserve" text-anchor="middle" x="205.87" y="-393.45" font-family="Times New Roman,serif" font-size="14.00">B12: if(|eh| &gt; decis)</text>
<text xml:space="preserve" text-anchor="middle" x="42.38" y="-419.7" font-family="Times New Roman,serif" font-size="14.00">p&#45;use: eh, decis</text>
</g>
<!-- B10&#45;&gt;B12 -->
<g id="edge12" class="edge">
<title>B10&#45;&gt;B12</title>
<path fill="none" stroke="black" d="M169.49,-453.31C175.33,-444.66 182.53,-434.01 188.98,-424.48"/>
<polygon fill="black" stroke="black" points="191.79,-426.57 194.49,-416.33 185.99,-422.65 191.79,-426.57"/>
</g>
<!-- B11&#45;&gt;B12 -->
<g id="edge13" class="edge">
<title>B11&#45;&gt;B12</title>
<path fill="none" stroke="black" d="M243.01,-453.31C237.04,-444.66 229.69,-434.01 223.11,-424.48"/>
<polygon fill="black" stroke="black" points="226.04,-422.56 217.48,-416.32 220.28,-426.54 226.04,-422.56"/>
</g>
<!-- B13 -->
<g id="node15" class="node">
<title>B13</title>
<polygon fill="none" stroke="black" points="204.62,-328 139.12,-328 139.12,-292 204.62,-292 204.62,-328"/>
<text xml:space="preserve" text-anchor="middle" x="171.87" y="-304.95" font-family="Times New Roman,serif" font-size="14.00">B13: ih&#45;&#45;</text>
</g>
<!-- B12&#45;&gt;B13 -->
<g id="edge14" class="edge">
<title>B12&#45;&gt;B13</title>
<path fill="none" stroke="black" d="M199.47,-381.23C194.8,-369.34 188.34,-352.91 182.85,-338.93"/>
<polygon fill="black" stroke="black" points="186.17,-337.82 179.25,-329.79 179.65,-340.38 186.17,-337.82"/>
<text xml:space="preserve" text-anchor="middle" x="204.66" y="-349.2" font-family="Times New Roman,serif" font-size="14.00">True</text>
</g>
<!-- B14 -->
<g id="node16" class="node">
<title>B14</title>
<polygon fill="none" stroke="black" points="297.87,-255 113.87,-255 113.87,-219 297.87,-219 297.87,-255"/>
<text xml:space="preserve" text-anchor="middle" x="205.87" y="-231.95" font-family="Times New Roman,serif" font-size="14.00">B14: Calcula dh, nbh, deth, ph</text>
<text xml:space="preserve" text-anchor="middle" x="75.24" y="-274.7" font-family="Times New Roman,serif" font-size="14.00">def: dh, nbh</text>
<text xml:space="preserve" text-anchor="middle" x="75.24" y="-258.2" font-family="Times New Roman,serif" font-size="14.00">c&#45;use: deth, ih</text>
</g>
<!-- B12&#45;&gt;B14 -->
<g id="edge15" class="edge">
<title>B12&#45;&gt;B14</title>
<path fill="none" stroke="black" d="M214.87,-381.62C217.69,-375.8 220.45,-369.03 221.87,-362.5 228.95,-329.96 221.88,-291.91 215.02,-266.52"/>
<polygon fill="black" stroke="black" points="218.39,-265.58 212.26,-256.94 211.67,-267.52 218.39,-265.58"/>
<text xml:space="preserve" text-anchor="middle" x="238.96" y="-304.95" font-family="Times New Roman,serif" font-size="14.00">False</text>
</g>
<!-- B13&#45;&gt;B14 -->
<g id="edge16" class="edge">
<title>B13&#45;&gt;B14</title>
<path fill="none" stroke="black" d="M180.1,-291.81C183.9,-283.88 188.5,-274.26 192.76,-265.36"/>
<polygon fill="black" stroke="black" points="195.9,-266.92 197.06,-256.39 189.58,-263.9 195.9,-266.92"/>
</g>
<!-- B15 -->
<g id="node17" class="node">
<title>B15</title>
<polygon fill="none" stroke="black" points="296.37,-182 115.37,-182 115.37,-146 296.37,-146 296.37,-182"/>
<text xml:space="preserve" text-anchor="middle" x="205.87" y="-158.95" font-family="Times New Roman,serif" font-size="14.00">B15: Atualiza ah1, ah2, yh, rh</text>
</g>
<!-- B14&#45;&gt;B15 -->
<g id="edge17" class="edge">
<title>B14&#45;&gt;B15</title>
<path fill="none" stroke="black" d="M205.87,-218.81C205.87,-211.23 205.87,-202.1 205.87,-193.54"/>
<polygon fill="black" stroke="black" points="209.37,-193.54 205.87,-183.54 202.37,-193.54 209.37,-193.54"/>
</g>
<!-- B16 -->
<g id="node18" class="node">
<title>B16</title>
<polygon fill="none" stroke="black" points="286.24,-109 125.49,-109 125.49,-73 286.24,-73 286.24,-109"/>
<text xml:space="preserve" text-anchor="middle" x="205.87" y="-85.95" font-family="Times New Roman,serif" font-size="14.00">B16: Retorna il | (ih &lt;&lt; 6)</text>
</g>
<!-- B15&#45;&gt;B16 -->
<g id="edge18" class="edge">
<title>B15&#45;&gt;B16</title>
<path fill="none" stroke="black" d="M205.87,-145.81C205.87,-138.23 205.87,-129.1 205.87,-120.54"/>
<polygon fill="black" stroke="black" points="209.37,-120.54 205.87,-110.54 202.37,-120.54 209.37,-120.54"/>
</g>
<!-- B16&#45;&gt;end -->
<g id="edge19" class="edge">
<title>B16&#45;&gt;end</title>
<path fill="none" stroke="black" d="M205.87,-72.81C205.87,-65.23 205.87,-56.1 205.87,-47.54"/>
<polygon fill="black" stroke="black" points="209.37,-47.54 205.87,-37.54 202.37,-47.54 209.37,-47.54"/>
</g>
</g>
</svg>
