<?xml version="1.0" encoding="UTF-8" standalone="no"?>
<!DOCTYPE svg PUBLIC "-//W3C//DTD SVG 1.1//EN"
 "http://www.w3.org/Graphics/SVG/1.1/DTD/svg11.dtd">
<!-- Generated by graphviz version 13.1.2 (20250808.2320)
 -->
<!-- Title: foo_CFG Pages: 1 -->
<svg width="674pt" height="779pt"
 viewBox="0.00 0.00 674.00 779.00" xmlns="http://www.w3.org/2000/svg" xmlns:xlink="http://www.w3.org/1999/xlink">
<g id="graph0" class="graph" transform="scale(1 1) rotate(0) translate(4 774.5)">
<title>foo_CFG</title>
<polygon fill="white" stroke="none" points="-4,4 -4,-774.5 669.5,-774.5 669.5,4 -4,4"/>
<!-- N1 -->
<g id="node1" class="node">
<title>N1</title>
<path fill="none" stroke="black" d="M562.38,-770.5C562.38,-770.5 525.38,-770.5 525.38,-770.5 519.38,-770.5 513.38,-764.5 513.38,-758.5 513.38,-758.5 513.38,-746.5 513.38,-746.5 513.38,-740.5 519.38,-734.5 525.38,-734.5 525.38,-734.5 562.38,-734.5 562.38,-734.5 568.38,-734.5 574.38,-740.5 574.38,-746.5 574.38,-746.5 574.38,-758.5 574.38,-758.5 574.38,-764.5 568.38,-770.5 562.38,-770.5"/>
<text xml:space="preserve" text-anchor="middle" x="543.88" y="-747.08" font-family="Helvetica,sans-Serif" font-size="14.00">1: i = 0;</text>
</g>
<!-- N2 -->
<g id="node2" class="node">
<title>N2</title>
<path fill="none" stroke="black" d="M570.25,-697.5C570.25,-697.5 517.5,-697.5 517.5,-697.5 511.5,-697.5 505.5,-691.5 505.5,-685.5 505.5,-685.5 505.5,-673.5 505.5,-673.5 505.5,-667.5 511.5,-661.5 517.5,-661.5 517.5,-661.5 570.25,-661.5 570.25,-661.5 576.25,-661.5 582.25,-667.5 582.25,-673.5 582.25,-673.5 582.25,-685.5 582.25,-685.5 582.25,-691.5 576.25,-697.5 570.25,-697.5"/>
<text xml:space="preserve" text-anchor="middle" x="543.88" y="-674.08" font-family="Helvetica,sans-Serif" font-size="14.00">2: if (i &lt; 5)</text>
</g>
<!-- N1&#45;&gt;N2 -->
<g id="edge1" class="edge">
<title>N1&#45;&gt;N2</title>
<path fill="none" stroke="black" d="M543.88,-734.31C543.88,-726.73 543.88,-717.6 543.88,-709.04"/>
<polygon fill="black" stroke="black" points="547.38,-709.04 543.88,-699.04 540.38,-709.04 547.38,-709.04"/>
</g>
<!-- N3 -->
<g id="node3" class="node">
<title>N3</title>
<path fill="none" stroke="black" d="M501.38,-609C501.38,-609 464.38,-609 464.38,-609 458.38,-609 452.38,-603 452.38,-597 452.38,-597 452.38,-585 452.38,-585 452.38,-579 458.38,-573 464.38,-573 464.38,-573 501.38,-573 501.38,-573 507.38,-573 513.38,-579 513.38,-585 513.38,-585 513.38,-597 513.38,-597 513.38,-603 507.38,-609 501.38,-609"/>
<text xml:space="preserve" text-anchor="middle" x="482.88" y="-585.58" font-family="Helvetica,sans-Serif" font-size="14.00">3: j = 0;</text>
</g>
<!-- N2&#45;&gt;N3 -->
<g id="edge2" class="edge">
<title>N2&#45;&gt;N3</title>
<path fill="none" stroke="black" d="M524.53,-661.34C519.08,-655.95 513.41,-649.77 508.88,-643.5 503.63,-636.25 498.87,-627.78 494.91,-619.84"/>
<polygon fill="black" stroke="black" points="498.1,-618.4 490.67,-610.85 491.77,-621.39 498.1,-618.4"/>
<text xml:space="preserve" text-anchor="middle" x="519.38" y="-630.2" font-family="Times New Roman,serif" font-size="14.00">true</text>
</g>
<!-- N10 -->
<g id="node10" class="node">
<title>N10</title>
<path fill="none" stroke="black" d="M653.5,-609C653.5,-609 584.25,-609 584.25,-609 578.25,-609 572.25,-603 572.25,-597 572.25,-597 572.25,-585 572.25,-585 572.25,-579 578.25,-573 584.25,-573 584.25,-573 653.5,-573 653.5,-573 659.5,-573 665.5,-579 665.5,-585 665.5,-585 665.5,-597 665.5,-597 665.5,-603 659.5,-609 653.5,-609"/>
<text xml:space="preserve" text-anchor="middle" x="618.88" y="-585.58" font-family="Helvetica,sans-Serif" font-size="14.00">10: return &#45;1;</text>
</g>
<!-- N2&#45;&gt;N10 -->
<g id="edge3" class="edge">
<title>N2&#45;&gt;N10</title>
<path fill="none" stroke="black" d="M558.69,-661.41C569.51,-648.93 584.36,-631.8 596.61,-617.68"/>
<polygon fill="black" stroke="black" points="598.93,-620.34 602.84,-610.49 593.64,-615.76 598.93,-620.34"/>
<text xml:space="preserve" text-anchor="middle" x="600.84" y="-630.2" font-family="Times New Roman,serif" font-size="14.00">false</text>
</g>
<!-- N4 -->
<g id="node4" class="node">
<title>N4</title>
<path fill="none" stroke="black" d="M500.25,-536C500.25,-536 447.5,-536 447.5,-536 441.5,-536 435.5,-530 435.5,-524 435.5,-524 435.5,-512 435.5,-512 435.5,-506 441.5,-500 447.5,-500 447.5,-500 500.25,-500 500.25,-500 506.25,-500 512.25,-506 512.25,-512 512.25,-512 512.25,-524 512.25,-524 512.25,-530 506.25,-536 500.25,-536"/>
<text xml:space="preserve" text-anchor="middle" x="473.88" y="-512.58" font-family="Helvetica,sans-Serif" font-size="14.00">4: if (j &lt; 5)</text>
</g>
<!-- N3&#45;&gt;N4 -->
<g id="edge4" class="edge">
<title>N3&#45;&gt;N4</title>
<path fill="none" stroke="black" d="M480.7,-572.81C479.72,-565.14 478.55,-555.89 477.46,-547.24"/>
<polygon fill="black" stroke="black" points="480.95,-547.01 476.22,-537.53 474.01,-547.89 480.95,-547.01"/>
</g>
<!-- N5 -->
<g id="node5" class="node">
<title>N5</title>
<path fill="none" stroke="black" d="M428.25,-447.5C428.25,-447.5 387.5,-447.5 387.5,-447.5 381.5,-447.5 375.5,-441.5 375.5,-435.5 375.5,-435.5 375.5,-423.5 375.5,-423.5 375.5,-417.5 381.5,-411.5 387.5,-411.5 387.5,-411.5 428.25,-411.5 428.25,-411.5 434.25,-411.5 440.25,-417.5 440.25,-423.5 440.25,-423.5 440.25,-435.5 440.25,-435.5 440.25,-441.5 434.25,-447.5 428.25,-447.5"/>
<text xml:space="preserve" text-anchor="middle" x="407.88" y="-424.07" font-family="Helvetica,sans-Serif" font-size="14.00">5: k = 0;</text>
</g>
<!-- N4&#45;&gt;N5 -->
<g id="edge5" class="edge">
<title>N4&#45;&gt;N5</title>
<path fill="none" stroke="black" d="M451.88,-499.73C445.94,-494.43 439.79,-488.32 434.88,-482 429.19,-474.69 424.11,-466 419.93,-457.86"/>
<polygon fill="black" stroke="black" points="423.15,-456.48 415.64,-449 416.85,-459.53 423.15,-456.48"/>
<text xml:space="preserve" text-anchor="middle" x="445.38" y="-468.7" font-family="Times New Roman,serif" font-size="14.00">true</text>
</g>
<!-- N11 -->
<g id="node11" class="node">
<title>N11</title>
<path fill="none" stroke="black" d="M574.12,-447.5C574.12,-447.5 511.62,-447.5 511.62,-447.5 505.62,-447.5 499.62,-441.5 499.62,-435.5 499.62,-435.5 499.62,-423.5 499.62,-423.5 499.62,-417.5 505.62,-411.5 511.62,-411.5 511.62,-411.5 574.12,-411.5 574.12,-411.5 580.12,-411.5 586.12,-417.5 586.12,-423.5 586.12,-423.5 586.12,-435.5 586.12,-435.5 586.12,-441.5 580.12,-447.5 574.12,-447.5"/>
<text xml:space="preserve" text-anchor="middle" x="542.88" y="-424.07" font-family="Helvetica,sans-Serif" font-size="14.00">11: i = i + 1;</text>
</g>
<!-- N4&#45;&gt;N11 -->
<g id="edge6" class="edge">
<title>N4&#45;&gt;N11</title>
<path fill="none" stroke="black" d="M482.31,-499.94C487.87,-489.49 495.71,-476.13 504.38,-465.5 507.04,-462.23 510.02,-458.98 513.11,-455.86"/>
<polygon fill="black" stroke="black" points="515.46,-458.45 520.29,-449.02 510.63,-453.38 515.46,-458.45"/>
<text xml:space="preserve" text-anchor="middle" x="517.12" y="-468.7" font-family="Times New Roman,serif" font-size="14.00">false</text>
</g>
<!-- N6 -->
<g id="node6" class="node">
<title>N6</title>
<path fill="none" stroke="black" d="M427.12,-374.5C427.12,-374.5 370.62,-374.5 370.62,-374.5 364.62,-374.5 358.62,-368.5 358.62,-362.5 358.62,-362.5 358.62,-350.5 358.62,-350.5 358.62,-344.5 364.62,-338.5 370.62,-338.5 370.62,-338.5 427.12,-338.5 427.12,-338.5 433.12,-338.5 439.12,-344.5 439.12,-350.5 439.12,-350.5 439.12,-362.5 439.12,-362.5 439.12,-368.5 433.12,-374.5 427.12,-374.5"/>
<text xml:space="preserve" text-anchor="middle" x="398.88" y="-351.07" font-family="Helvetica,sans-Serif" font-size="14.00">6: if (k &lt; 5)</text>
</g>
<!-- N5&#45;&gt;N6 -->
<g id="edge7" class="edge">
<title>N5&#45;&gt;N6</title>
<path fill="none" stroke="black" d="M405.7,-411.31C404.72,-403.64 403.55,-394.39 402.46,-385.74"/>
<polygon fill="black" stroke="black" points="405.95,-385.51 401.22,-376.03 399.01,-386.39 405.95,-385.51"/>
</g>
<!-- N7 -->
<g id="node7" class="node">
<title>N7</title>
<path fill="none" stroke="black" d="M353.38,-286C353.38,-286 316.38,-286 316.38,-286 310.38,-286 304.38,-280 304.38,-274 304.38,-274 304.38,-262 304.38,-262 304.38,-256 310.38,-250 316.38,-250 316.38,-250 353.38,-250 353.38,-250 359.38,-250 365.38,-256 365.38,-262 365.38,-262 365.38,-274 365.38,-274 365.38,-280 359.38,-286 353.38,-286"/>
<text xml:space="preserve" text-anchor="middle" x="334.88" y="-262.57" font-family="Helvetica,sans-Serif" font-size="14.00">7: l = 0;</text>
</g>
<!-- N6&#45;&gt;N7 -->
<g id="edge8" class="edge">
<title>N6&#45;&gt;N7</title>
<path fill="none" stroke="black" d="M377.41,-338.2C371.61,-332.9 365.63,-326.8 360.88,-320.5 355.33,-313.17 350.42,-304.47 346.4,-296.33"/>
<polygon fill="black" stroke="black" points="349.68,-295.08 342.29,-287.49 343.34,-298.03 349.68,-295.08"/>
<text xml:space="preserve" text-anchor="middle" x="371.38" y="-307.2" font-family="Times New Roman,serif" font-size="14.00">true</text>
</g>
<!-- N12 -->
<g id="node12" class="node">
<title>N12</title>
<path fill="none" stroke="black" d="M500.5,-286C500.5,-286 437.25,-286 437.25,-286 431.25,-286 425.25,-280 425.25,-274 425.25,-274 425.25,-262 425.25,-262 425.25,-256 431.25,-250 437.25,-250 437.25,-250 500.5,-250 500.5,-250 506.5,-250 512.5,-256 512.5,-262 512.5,-262 512.5,-274 512.5,-274 512.5,-280 506.5,-286 500.5,-286"/>
<text xml:space="preserve" text-anchor="middle" x="468.88" y="-262.57" font-family="Helvetica,sans-Serif" font-size="14.00">12: j = j + 1;</text>
</g>
<!-- N6&#45;&gt;N12 -->
<g id="edge9" class="edge">
<title>N6&#45;&gt;N12</title>
<path fill="none" stroke="black" d="M407.68,-338.46C413.46,-328.02 421.56,-314.66 430.38,-304 433.21,-300.57 436.38,-297.17 439.64,-293.91"/>
<polygon fill="black" stroke="black" points="441.88,-296.61 446.74,-287.2 437.07,-291.53 441.88,-296.61"/>
<text xml:space="preserve" text-anchor="middle" x="443.12" y="-307.2" font-family="Times New Roman,serif" font-size="14.00">false</text>
</g>
<!-- N8 -->
<g id="node8" class="node">
<title>N8</title>
<path fill="none" stroke="black" d="M352.25,-213C352.25,-213 299.5,-213 299.5,-213 293.5,-213 287.5,-207 287.5,-201 287.5,-201 287.5,-189 287.5,-189 287.5,-183 293.5,-177 299.5,-177 299.5,-177 352.25,-177 352.25,-177 358.25,-177 364.25,-183 364.25,-189 364.25,-189 364.25,-201 364.25,-201 364.25,-207 358.25,-213 352.25,-213"/>
<text xml:space="preserve" text-anchor="middle" x="325.88" y="-189.57" font-family="Helvetica,sans-Serif" font-size="14.00">8: if (l &lt; 5)</text>
</g>
<!-- N7&#45;&gt;N8 -->
<g id="edge10" class="edge">
<title>N7&#45;&gt;N8</title>
<path fill="none" stroke="black" d="M332.7,-249.81C331.72,-242.14 330.55,-232.89 329.46,-224.24"/>
<polygon fill="black" stroke="black" points="332.95,-224.01 328.22,-214.53 326.01,-224.89 332.95,-224.01"/>
</g>
<!-- N9 -->
<g id="node9" class="node">
<title>N9</title>
<path fill="none" stroke="black" d="M282.25,-124.5C282.25,-124.5 151.5,-124.5 151.5,-124.5 145.5,-124.5 139.5,-118.5 139.5,-112.5 139.5,-112.5 139.5,-100.5 139.5,-100.5 139.5,-94.5 145.5,-88.5 151.5,-88.5 151.5,-88.5 282.25,-88.5 282.25,-88.5 288.25,-88.5 294.25,-94.5 294.25,-100.5 294.25,-100.5 294.25,-112.5 294.25,-112.5 294.25,-118.5 288.25,-124.5 282.25,-124.5"/>
<text xml:space="preserve" text-anchor="middle" x="216.88" y="-101.08" font-family="Helvetica,sans-Serif" font-size="14.00">9: if (keys[i][j][k][l] == x)</text>
</g>
<!-- N8&#45;&gt;N9 -->
<g id="edge11" class="edge">
<title>N8&#45;&gt;N9</title>
<path fill="none" stroke="black" d="M304.08,-176.7C287.89,-163.86 265.59,-146.16 247.6,-131.88"/>
<polygon fill="black" stroke="black" points="249.83,-129.18 239.82,-125.71 245.48,-134.67 249.83,-129.18"/>
<text xml:space="preserve" text-anchor="middle" x="291.64" y="-145.7" font-family="Times New Roman,serif" font-size="14.00">true</text>
</g>
<!-- N13 -->
<g id="node13" class="node">
<title>N13</title>
<path fill="none" stroke="black" d="M432.25,-124.5C432.25,-124.5 361.5,-124.5 361.5,-124.5 355.5,-124.5 349.5,-118.5 349.5,-112.5 349.5,-112.5 349.5,-100.5 349.5,-100.5 349.5,-94.5 355.5,-88.5 361.5,-88.5 361.5,-88.5 432.25,-88.5 432.25,-88.5 438.25,-88.5 444.25,-94.5 444.25,-100.5 444.25,-100.5 444.25,-112.5 444.25,-112.5 444.25,-118.5 438.25,-124.5 432.25,-124.5"/>
<text xml:space="preserve" text-anchor="middle" x="396.88" y="-101.08" font-family="Helvetica,sans-Serif" font-size="14.00">13: k = k + 1;</text>
</g>
<!-- N8&#45;&gt;N13 -->
<g id="edge12" class="edge">
<title>N8&#45;&gt;N13</title>
<path fill="none" stroke="black" d="M334.22,-176.86C339.74,-166.39 347.58,-153.02 356.38,-142.5 359.24,-139.07 362.47,-135.69 365.81,-132.47"/>
<polygon fill="black" stroke="black" points="368.05,-135.16 373.1,-125.85 363.34,-129.98 368.05,-135.16"/>
<text xml:space="preserve" text-anchor="middle" x="369.12" y="-145.7" font-family="Times New Roman,serif" font-size="14.00">false</text>
</g>
<!-- N14 -->
<g id="node14" class="node">
<title>N14</title>
<path fill="none" stroke="black" d="M247.75,-36C247.75,-36 12,-36 12,-36 6,-36 0,-30 0,-24 0,-24 0,-12 0,-12 0,-6 6,0 12,0 12,0 247.75,0 247.75,0 253.75,0 259.75,-6 259.75,-12 259.75,-12 259.75,-24 259.75,-24 259.75,-30 253.75,-36 247.75,-36"/>
<text xml:space="preserve" text-anchor="middle" x="129.88" y="-12.57" font-family="Helvetica,sans-Serif" font-size="14.00">14: return answer[i][j][k][l] + keys[i][j][k][l];</text>
</g>
<!-- N9&#45;&gt;N14 -->
<g id="edge13" class="edge">
<title>N9&#45;&gt;N14</title>
<path fill="none" stroke="black" d="M199.69,-88.41C187.02,-75.82 169.58,-58.48 155.31,-44.29"/>
<polygon fill="black" stroke="black" points="157.96,-41.99 148.4,-37.42 153.02,-46.95 157.96,-41.99"/>
<text xml:space="preserve" text-anchor="middle" x="191.67" y="-57.2" font-family="Times New Roman,serif" font-size="14.00">true</text>
</g>
<!-- N15 -->
<g id="node15" class="node">
<title>N15</title>
<path fill="none" stroke="black" d="M353.5,-36C353.5,-36 290.25,-36 290.25,-36 284.25,-36 278.25,-30 278.25,-24 278.25,-24 278.25,-12 278.25,-12 278.25,-6 284.25,0 290.25,0 290.25,0 353.5,0 353.5,0 359.5,0 365.5,-6 365.5,-12 365.5,-12 365.5,-24 365.5,-24 365.5,-30 359.5,-36 353.5,-36"/>
<text xml:space="preserve" text-anchor="middle" x="321.88" y="-12.57" font-family="Helvetica,sans-Serif" font-size="14.00">15: l = l + 1;</text>
</g>
<!-- N9&#45;&gt;N15 -->
<g id="edge14" class="edge">
<title>N9&#45;&gt;N15</title>
<path fill="none" stroke="black" d="M237.87,-88.2C253.47,-75.36 274.95,-57.66 292.28,-43.38"/>
<polygon fill="black" stroke="black" points="294.25,-46.29 299.75,-37.23 289.8,-40.89 294.25,-46.29"/>
<text xml:space="preserve" text-anchor="middle" x="291.53" y="-57.2" font-family="Times New Roman,serif" font-size="14.00">false</text>
</g>
<!-- N11&#45;&gt;N2 -->
<g id="edge15" class="edge">
<title>N11&#45;&gt;N2</title>
<path fill="none" stroke="black" d="M542.95,-447.92C543.12,-490.05 543.55,-597.82 543.76,-649.72"/>
<polygon fill="black" stroke="black" points="540.26,-649.56 543.8,-659.55 547.26,-649.53 540.26,-649.56"/>
</g>
<!-- N12&#45;&gt;N4 -->
<g id="edge16" class="edge">
<title>N12&#45;&gt;N4</title>
<path fill="none" stroke="black" d="M469.23,-286.42C470.08,-328.55 472.25,-436.32 473.29,-488.22"/>
<polygon fill="black" stroke="black" points="469.79,-488.12 473.49,-498.05 476.79,-487.98 469.79,-488.12"/>
</g>
<!-- N13&#45;&gt;N6 -->
<g id="edge17" class="edge">
<title>N13&#45;&gt;N6</title>
<path fill="none" stroke="black" d="M397.02,-124.92C397.36,-167.05 398.22,-274.82 398.64,-326.72"/>
<polygon fill="black" stroke="black" points="395.14,-326.58 398.72,-336.55 402.14,-326.52 395.14,-326.58"/>
</g>
<!-- N15&#45;&gt;N8 -->
<g id="edge18" class="edge">
<title>N15&#45;&gt;N8</title>
<path fill="none" stroke="black" d="M322.27,-36.35C322.96,-66.44 324.38,-128.58 325.22,-165.22"/>
<polygon fill="black" stroke="black" points="321.71,-165.15 325.44,-175.07 328.71,-164.99 321.71,-165.15"/>
</g>
</g>
</svg>
