<?xml version="1.0" encoding="UTF-8" standalone="no"?>
<!DOCTYPE svg PUBLIC "-//W3C//DTD SVG 1.1//EN"
 "http://www.w3.org/Graphics/SVG/1.1/DTD/svg11.dtd">
<!-- Generated by graphviz version 13.1.2 (20250808.2320)
 -->
<!-- Title: foo_DFG Pages: 1 -->
<svg width="422pt" height="260pt"
 viewBox="0.00 0.00 422.00 260.00" xmlns="http://www.w3.org/2000/svg" xmlns:xlink="http://www.w3.org/1999/xlink">
<g id="graph0" class="graph" transform="scale(1 1) rotate(0) translate(4 256)">
<title>foo_DFG</title>
<polygon fill="white" stroke="none" points="-4,4 -4,-256 418.12,-256 418.12,4 -4,4"/>
<!-- i -->
<g id="node1" class="node">
<title>i</title>
<ellipse fill="lightblue" stroke="black" cx="99" cy="-234" rx="27" ry="18"/>
<text xml:space="preserve" text-anchor="middle" x="99" y="-228.95" font-family="Times New Roman,serif" font-size="14.00">i</text>
</g>
<!-- keys_access -->
<g id="node8" class="node">
<title>keys_access</title>
<polygon fill="none" stroke="black" points="198,-180 128,-180 128,-144 198,-144 198,-180"/>
<text xml:space="preserve" text-anchor="middle" x="163" y="-156.95" font-family="Times New Roman,serif" font-size="14.00">[i][j][k][l]</text>
</g>
<!-- i&#45;&gt;keys_access -->
<g id="edge1" class="edge">
<title>i&#45;&gt;keys_access</title>
<path fill="none" stroke="black" d="M112.57,-218.15C120.41,-209.59 130.47,-198.58 139.55,-188.65"/>
<polygon fill="black" stroke="black" points="142,-191.15 146.17,-181.41 136.84,-186.43 142,-191.15"/>
</g>
<!-- answer_access -->
<g id="node9" class="node">
<title>answer_access</title>
<polygon fill="none" stroke="black" points="286,-180 216,-180 216,-144 286,-144 286,-180"/>
<text xml:space="preserve" text-anchor="middle" x="251" y="-156.95" font-family="Times New Roman,serif" font-size="14.00">[i][j][k][l]</text>
</g>
<!-- i&#45;&gt;answer_access -->
<g id="edge8" class="edge">
<title>i&#45;&gt;answer_access</title>
<path fill="none" stroke="black" d="M120.68,-222.71C125.4,-220.48 130.36,-218.15 135,-216 158.1,-205.27 183.87,-193.48 205.24,-183.75"/>
<polygon fill="black" stroke="black" points="206.63,-186.96 214.29,-179.63 203.74,-180.59 206.63,-186.96"/>
</g>
<!-- j -->
<g id="node2" class="node">
<title>j</title>
<ellipse fill="lightblue" stroke="black" cx="171" cy="-234" rx="27" ry="18"/>
<text xml:space="preserve" text-anchor="middle" x="171" y="-228.95" font-family="Times New Roman,serif" font-size="14.00">j</text>
</g>
<!-- j&#45;&gt;keys_access -->
<g id="edge2" class="edge">
<title>j&#45;&gt;keys_access</title>
<path fill="none" stroke="black" d="M169.02,-215.7C168.19,-208.41 167.2,-199.73 166.26,-191.54"/>
<polygon fill="black" stroke="black" points="169.74,-191.15 165.13,-181.61 162.78,-191.94 169.74,-191.15"/>
</g>
<!-- j&#45;&gt;answer_access -->
<g id="edge9" class="edge">
<title>j&#45;&gt;answer_access</title>
<path fill="none" stroke="black" d="M186.81,-219.17C197.07,-210.19 210.73,-198.24 222.81,-187.67"/>
<polygon fill="black" stroke="black" points="224.9,-190.49 230.12,-181.27 220.29,-185.22 224.9,-190.49"/>
</g>
<!-- k -->
<g id="node3" class="node">
<title>k</title>
<ellipse fill="lightblue" stroke="black" cx="243" cy="-234" rx="27" ry="18"/>
<text xml:space="preserve" text-anchor="middle" x="243" y="-228.95" font-family="Times New Roman,serif" font-size="14.00">k</text>
</g>
<!-- k&#45;&gt;keys_access -->
<g id="edge3" class="edge">
<title>k&#45;&gt;keys_access</title>
<path fill="none" stroke="black" d="M227.19,-219.17C216.93,-210.19 203.27,-198.24 191.19,-187.67"/>
<polygon fill="black" stroke="black" points="193.71,-185.22 183.88,-181.27 189.1,-190.49 193.71,-185.22"/>
</g>
<!-- k&#45;&gt;answer_access -->
<g id="edge10" class="edge">
<title>k&#45;&gt;answer_access</title>
<path fill="none" stroke="black" d="M244.98,-215.7C245.81,-208.41 246.8,-199.73 247.74,-191.54"/>
<polygon fill="black" stroke="black" points="251.22,-191.94 248.87,-181.61 244.26,-191.15 251.22,-191.94"/>
</g>
<!-- l -->
<g id="node4" class="node">
<title>l</title>
<ellipse fill="lightblue" stroke="black" cx="315" cy="-234" rx="27" ry="18"/>
<text xml:space="preserve" text-anchor="middle" x="315" y="-228.95" font-family="Times New Roman,serif" font-size="14.00">l</text>
</g>
<!-- l&#45;&gt;keys_access -->
<g id="edge4" class="edge">
<title>l&#45;&gt;keys_access</title>
<path fill="none" stroke="black" d="M293.32,-222.71C288.6,-220.48 283.64,-218.15 279,-216 255.9,-205.27 230.13,-193.48 208.76,-183.75"/>
<polygon fill="black" stroke="black" points="210.26,-180.59 199.71,-179.63 207.37,-186.96 210.26,-180.59"/>
</g>
<!-- l&#45;&gt;answer_access -->
<g id="edge11" class="edge">
<title>l&#45;&gt;answer_access</title>
<path fill="none" stroke="black" d="M301.43,-218.15C293.59,-209.59 283.53,-198.58 274.45,-188.65"/>
<polygon fill="black" stroke="black" points="277.16,-186.43 267.83,-181.41 272,-191.15 277.16,-186.43"/>
</g>
<!-- x -->
<g id="node5" class="node">
<title>x</title>
<ellipse fill="lightblue" stroke="black" cx="83" cy="-162" rx="27" ry="18"/>
<text xml:space="preserve" text-anchor="middle" x="83" y="-156.95" font-family="Times New Roman,serif" font-size="14.00">x</text>
</g>
<!-- compare -->
<g id="node10" class="node">
<title>compare</title>
<polygon fill="none" stroke="black" points="152,-108 98,-108 98,-72 152,-72 152,-108"/>
<text xml:space="preserve" text-anchor="middle" x="125" y="-84.95" font-family="Times New Roman,serif" font-size="14.00">==</text>
</g>
<!-- x&#45;&gt;compare -->
<g id="edge7" class="edge">
<title>x&#45;&gt;compare</title>
<path fill="none" stroke="black" d="M92.74,-144.76C97.53,-136.78 103.43,-126.95 108.87,-117.89"/>
<polygon fill="black" stroke="black" points="111.8,-119.8 113.95,-109.42 105.8,-116.2 111.8,-119.8"/>
</g>
<!-- keys_array -->
<g id="node6" class="node">
<title>keys_array</title>
<polygon fill="lightblue" stroke="black" points="54,-252 0,-252 0,-216 54,-216 54,-252"/>
<text xml:space="preserve" text-anchor="middle" x="27" y="-228.95" font-family="Times New Roman,serif" font-size="14.00">keys</text>
</g>
<!-- keys_array&#45;&gt;keys_access -->
<g id="edge5" class="edge">
<title>keys_array&#45;&gt;keys_access</title>
<path fill="none" stroke="black" d="M54.19,-219C72.71,-209.47 97.64,-196.64 118.96,-185.67"/>
<polygon fill="black" stroke="black" points="120.46,-188.83 127.75,-181.14 117.26,-182.61 120.46,-188.83"/>
</g>
<!-- answer_array -->
<g id="node7" class="node">
<title>answer_array</title>
<polygon fill="lightblue" stroke="black" points="414.12,-252 359.88,-252 359.88,-216 414.12,-216 414.12,-252"/>
<text xml:space="preserve" text-anchor="middle" x="387" y="-228.95" font-family="Times New Roman,serif" font-size="14.00">answer</text>
</g>
<!-- answer_array&#45;&gt;answer_access -->
<g id="edge12" class="edge">
<title>answer_array&#45;&gt;answer_access</title>
<path fill="none" stroke="black" d="M359.48,-218.83C340.94,-209.29 316.08,-196.5 294.84,-185.56"/>
<polygon fill="black" stroke="black" points="296.58,-182.53 286.09,-181.06 293.38,-188.75 296.58,-182.53"/>
</g>
<!-- keys_access&#45;&gt;compare -->
<g id="edge6" class="edge">
<title>keys_access&#45;&gt;compare</title>
<path fill="none" stroke="black" d="M153.61,-143.7C149.42,-135.98 144.39,-126.71 139.72,-118.11"/>
<polygon fill="black" stroke="black" points="142.85,-116.55 135.01,-109.43 136.7,-119.89 142.85,-116.55"/>
</g>
<!-- add -->
<g id="node11" class="node">
<title>add</title>
<polygon fill="none" stroke="black" points="228,-108 174,-108 174,-72 228,-72 228,-108"/>
<text xml:space="preserve" text-anchor="middle" x="201" y="-84.95" font-family="Times New Roman,serif" font-size="14.00">+</text>
</g>
<!-- keys_access&#45;&gt;add -->
<g id="edge13" class="edge">
<title>keys_access&#45;&gt;add</title>
<path fill="none" stroke="black" d="M172.39,-143.7C176.58,-135.98 181.61,-126.71 186.28,-118.11"/>
<polygon fill="black" stroke="black" points="189.3,-119.89 190.99,-109.43 183.15,-116.55 189.3,-119.89"/>
</g>
<!-- answer_access&#45;&gt;add -->
<g id="edge14" class="edge">
<title>answer_access&#45;&gt;add</title>
<path fill="none" stroke="black" d="M238.64,-143.7C232.95,-135.73 226.07,-126.1 219.76,-117.26"/>
<polygon fill="black" stroke="black" points="222.76,-115.44 214.1,-109.34 217.06,-119.51 222.76,-115.44"/>
</g>
<!-- result -->
<g id="node12" class="node">
<title>result</title>
<ellipse fill="lightgreen" stroke="black" cx="201" cy="-18" rx="31.39" ry="18"/>
<text xml:space="preserve" text-anchor="middle" x="201" y="-12.95" font-family="Times New Roman,serif" font-size="14.00">result</text>
</g>
<!-- add&#45;&gt;result -->
<g id="edge15" class="edge">
<title>add&#45;&gt;result</title>
<path fill="none" stroke="black" d="M201,-71.7C201,-64.41 201,-55.73 201,-47.54"/>
<polygon fill="black" stroke="black" points="204.5,-47.62 201,-37.62 197.5,-47.62 204.5,-47.62"/>
</g>
</g>
</svg>
