<?xml version="1.0" encoding="UTF-8" standalone="no"?>
<!DOCTYPE svg PUBLIC "-//W3C//DTD SVG 1.1//EN"
 "http://www.w3.org/Graphics/SVG/1.1/DTD/svg11.dtd">
<!-- Generated by graphviz version 13.1.2 (20250808.2320)
 -->
<!-- Title: foo_DFG Pages: 1 -->
<svg width="371pt" height="206pt"
 viewBox="0.00 0.00 371.00 206.00" xmlns="http://www.w3.org/2000/svg" xmlns:xlink="http://www.w3.org/1999/xlink">
<g id="graph0" class="graph" transform="scale(1 1) rotate(0) translate(4 201.5)">
<title>foo_DFG</title>
<polygon fill="white" stroke="none" points="-4,4 -4,-201.5 366.82,-201.5 366.82,4 -4,4"/>
<!-- x -->
<g id="node1" class="node">
<title>x</title>
<ellipse fill="lightblue" stroke="black" cx="43.16" cy="-179.5" rx="43.16" ry="18"/>
<text xml:space="preserve" text-anchor="middle" x="43.16" y="-174.45" font-family="Times New Roman,serif" font-size="14.00">x (input)</text>
</g>
<!-- eq -->
<g id="node5" class="node">
<title>eq</title>
<polygon fill="none" stroke="black" points="156.16,-124.5 102.16,-124.5 102.16,-88.5 156.16,-88.5 156.16,-124.5"/>
<text xml:space="preserve" text-anchor="middle" x="129.16" y="-101.45" font-family="Times New Roman,serif" font-size="14.00">==</text>
</g>
<!-- x&#45;&gt;eq -->
<g id="edge1" class="edge">
<title>x&#45;&gt;eq</title>
<path fill="none" stroke="black" d="M61.82,-163.09C72.79,-154.04 86.92,-142.38 99.4,-132.07"/>
<polygon fill="black" stroke="black" points="101.47,-134.9 106.95,-125.83 97.01,-129.5 101.47,-134.9"/>
</g>
<!-- keys -->
<g id="node2" class="node">
<title>keys</title>
<ellipse fill="lightblue" stroke="black" cx="160.16" cy="-179.5" rx="55.45" ry="18"/>
<text xml:space="preserve" text-anchor="middle" x="160.16" y="-174.45" font-family="Times New Roman,serif" font-size="14.00">keys (array)</text>
</g>
<!-- add -->
<g id="node4" class="node">
<title>add</title>
<polygon fill="none" stroke="black" points="228.16,-124.5 174.16,-124.5 174.16,-88.5 228.16,-88.5 228.16,-124.5"/>
<text xml:space="preserve" text-anchor="middle" x="201.16" y="-101.45" font-family="Times New Roman,serif" font-size="14.00">+</text>
</g>
<!-- keys&#45;&gt;add -->
<g id="edge3" class="edge">
<title>keys&#45;&gt;add</title>
<path fill="none" stroke="black" d="M170.09,-161.31C174.77,-153.2 180.47,-143.34 185.7,-134.28"/>
<polygon fill="black" stroke="black" points="188.6,-136.25 190.57,-125.84 182.54,-132.75 188.6,-136.25"/>
</g>
<!-- keys&#45;&gt;eq -->
<g id="edge2" class="edge">
<title>keys&#45;&gt;eq</title>
<path fill="none" stroke="black" d="M152.66,-161.31C149.19,-153.38 144.99,-143.76 141.11,-134.86"/>
<polygon fill="black" stroke="black" points="144.41,-133.68 137.2,-125.92 138,-136.48 144.41,-133.68"/>
</g>
<!-- answer -->
<g id="node3" class="node">
<title>answer</title>
<ellipse fill="lightblue" stroke="black" cx="298.16" cy="-179.5" rx="64.66" ry="18"/>
<text xml:space="preserve" text-anchor="middle" x="298.16" y="-174.45" font-family="Times New Roman,serif" font-size="14.00">answer (array)</text>
</g>
<!-- answer&#45;&gt;add -->
<g id="edge4" class="edge">
<title>answer&#45;&gt;add</title>
<path fill="none" stroke="black" d="M276.15,-162.39C263.71,-153.28 247.91,-141.72 234.02,-131.55"/>
<polygon fill="black" stroke="black" points="236.14,-128.76 226,-125.68 232,-134.41 236.14,-128.76"/>
</g>
<!-- result -->
<g id="node6" class="node">
<title>result</title>
<ellipse fill="lightgreen" stroke="black" cx="165.16" cy="-18" rx="31.39" ry="18"/>
<text xml:space="preserve" text-anchor="middle" x="165.16" y="-12.95" font-family="Times New Roman,serif" font-size="14.00">result</text>
</g>
<!-- add&#45;&gt;result -->
<g id="edge6" class="edge">
<title>add&#45;&gt;result</title>
<path fill="none" stroke="black" d="M194.05,-88.41C189.04,-76.37 182.22,-59.99 176.47,-46.17"/>
<polygon fill="black" stroke="black" points="179.79,-45.04 172.72,-37.16 173.33,-47.73 179.79,-45.04"/>
<text xml:space="preserve" text-anchor="middle" x="229.89" y="-57.2" font-family="Times New Roman,serif" font-size="14.00">valor de retorno</text>
</g>
<!-- eq&#45;&gt;result -->
<g id="edge5" class="edge">
<title>eq&#45;&gt;result</title>
<path fill="none" stroke="black" d="M126.46,-88.13C125.6,-77.81 125.85,-64.7 130.41,-54 132.43,-49.26 135.42,-44.82 138.81,-40.8"/>
<polygon fill="black" stroke="black" points="141.16,-43.41 145.6,-33.79 136.13,-38.54 141.16,-43.41"/>
<text xml:space="preserve" text-anchor="middle" x="154.79" y="-57.2" font-family="Times New Roman,serif" font-size="14.00">condicao</text>
</g>
</g>
</svg>
