<?xml version="1.0" encoding="UTF-8" standalone="no"?>
<!DOCTYPE svg PUBLIC "-//W3C//DTD SVG 1.1//EN"
 "http://www.w3.org/Graphics/SVG/1.1/DTD/svg11.dtd">
<!-- Generated by graphviz version 13.1.2 (20250808.2320)
 -->
<!-- Title: my_sin_CFG Pages: 1 -->
<svg width="421pt" height="628pt"
 viewBox="0.00 0.00 421.00 628.00" xmlns="http://www.w3.org/2000/svg" xmlns:xlink="http://www.w3.org/1999/xlink">
<g id="graph0" class="graph" transform="scale(1 1) rotate(0) translate(4 623.75)">
<title>my_sin_CFG</title>
<polygon fill="white" stroke="none" points="-4,4 -4,-623.75 417.12,-623.75 417.12,4 -4,4"/>
<!-- N1 -->
<g id="node1" class="node">
<title>N1</title>
<path fill="none" stroke="black" d="M115.75,-619.75C115.75,-619.75 56.25,-619.75 56.25,-619.75 50.25,-619.75 44.25,-613.75 44.25,-607.75 44.25,-607.75 44.25,-576.5 44.25,-576.5 44.25,-570.5 50.25,-564.5 56.25,-564.5 56.25,-564.5 115.75,-564.5 115.75,-564.5 121.75,-564.5 127.75,-570.5 127.75,-576.5 127.75,-576.5 127.75,-607.75 127.75,-607.75 127.75,-613.75 121.75,-619.75 115.75,-619.75"/>
<text xml:space="preserve" text-anchor="middle" x="86" y="-602.45" font-family="Helvetica,sans-Serif" font-size="14.00">1: int diff;</text>
<text xml:space="preserve" text-anchor="middle" x="86" y="-586.7" font-family="Helvetica,sans-Serif" font-size="14.00">int app = 0;</text>
<text xml:space="preserve" text-anchor="middle" x="86" y="-570.95" font-family="Helvetica,sans-Serif" font-size="14.00">int inc = 1;</text>
</g>
<!-- N2 -->
<g id="node2" class="node">
<title>N2</title>
<path fill="none" stroke="black" d="M141.62,-527.5C141.62,-527.5 30.38,-527.5 30.38,-527.5 24.38,-527.5 18.38,-521.5 18.38,-515.5 18.38,-515.5 18.38,-503.5 18.38,-503.5 18.38,-497.5 24.38,-491.5 30.38,-491.5 30.38,-491.5 141.62,-491.5 141.62,-491.5 147.62,-491.5 153.62,-497.5 153.62,-503.5 153.62,-503.5 153.62,-515.5 153.62,-515.5 153.62,-521.5 147.62,-527.5 141.62,-527.5"/>
<text xml:space="preserve" text-anchor="middle" x="86" y="-504.07" font-family="Helvetica,sans-Serif" font-size="14.00">2: while (rad &gt; 2*PI)</text>
</g>
<!-- N1&#45;&gt;N2 -->
<g id="edge1" class="edge">
<title>N1&#45;&gt;N2</title>
<path fill="none" stroke="black" d="M86,-564.28C86,-556.15 86,-547.2 86,-538.98"/>
<polygon fill="black" stroke="black" points="89.5,-539.13 86,-529.13 82.5,-539.13 89.5,-539.13"/>
</g>
<!-- N3 -->
<g id="node3" class="node">
<title>N3</title>
<path fill="none" stroke="black" d="M88,-439C88,-439 12,-439 12,-439 6,-439 0,-433 0,-427 0,-427 0,-415 0,-415 0,-409 6,-403 12,-403 12,-403 88,-403 88,-403 94,-403 100,-409 100,-415 100,-415 100,-427 100,-427 100,-433 94,-439 88,-439"/>
<text xml:space="preserve" text-anchor="middle" x="50" y="-415.57" font-family="Helvetica,sans-Serif" font-size="14.00">3: rad &#45;= 2*PI;</text>
</g>
<!-- N2&#45;&gt;N3 -->
<g id="edge2" class="edge">
<title>N2&#45;&gt;N3</title>
<path fill="none" stroke="black" d="M63.66,-491.33C58.57,-486.19 53.83,-480.14 51,-473.5 48.01,-466.48 46.9,-458.42 46.76,-450.79"/>
<polygon fill="black" stroke="black" points="50.25,-451.01 47.12,-440.89 43.26,-450.75 50.25,-451.01"/>
<text xml:space="preserve" text-anchor="middle" x="61.5" y="-460.2" font-family="Times New Roman,serif" font-size="14.00">true</text>
</g>
<!-- N4 -->
<g id="node4" class="node">
<title>N4</title>
<path fill="none" stroke="black" d="M245.88,-439C245.88,-439 130.12,-439 130.12,-439 124.12,-439 118.12,-433 118.12,-427 118.12,-427 118.12,-415 118.12,-415 118.12,-409 124.12,-403 130.12,-403 130.12,-403 245.88,-403 245.88,-403 251.88,-403 257.88,-409 257.88,-415 257.88,-415 257.88,-427 257.88,-427 257.88,-433 251.88,-439 245.88,-439"/>
<text xml:space="preserve" text-anchor="middle" x="188" y="-415.57" font-family="Helvetica,sans-Serif" font-size="14.00">4: while (rad &lt; &#45;2*PI)</text>
</g>
<!-- N2&#45;&gt;N4 -->
<g id="edge3" class="edge">
<title>N2&#45;&gt;N4</title>
<path fill="none" stroke="black" d="M106.15,-491.41C121.28,-478.58 142.21,-460.83 159.12,-446.49"/>
<polygon fill="black" stroke="black" points="161.02,-449.47 166.39,-440.33 156.5,-444.13 161.02,-449.47"/>
<text xml:space="preserve" text-anchor="middle" x="158.89" y="-460.2" font-family="Times New Roman,serif" font-size="14.00">false</text>
</g>
<!-- N3&#45;&gt;N2 -->
<g id="edge4" class="edge">
<title>N3&#45;&gt;N2</title>
<path fill="none" stroke="black" d="M62.25,-439.24C65.76,-444.73 69.35,-450.95 72,-457 75.21,-464.33 77.85,-472.57 79.94,-480.27"/>
<polygon fill="black" stroke="black" points="76.52,-481.03 82.32,-489.9 83.31,-479.35 76.52,-481.03"/>
</g>
<!-- N5 -->
<g id="node5" class="node">
<title>N5</title>
<path fill="none" stroke="black" d="M191.88,-348.75C191.88,-348.75 112.12,-348.75 112.12,-348.75 106.12,-348.75 100.12,-342.75 100.12,-336.75 100.12,-336.75 100.12,-324.75 100.12,-324.75 100.12,-318.75 106.12,-312.75 112.12,-312.75 112.12,-312.75 191.88,-312.75 191.88,-312.75 197.88,-312.75 203.88,-318.75 203.88,-324.75 203.88,-324.75 203.88,-336.75 203.88,-336.75 203.88,-342.75 197.88,-348.75 191.88,-348.75"/>
<text xml:space="preserve" text-anchor="middle" x="152" y="-325.32" font-family="Helvetica,sans-Serif" font-size="14.00">5: rad += 2*PI;</text>
</g>
<!-- N4&#45;&gt;N5 -->
<g id="edge5" class="edge">
<title>N4&#45;&gt;N5</title>
<path fill="none" stroke="black" d="M165.66,-402.83C160.56,-397.69 155.82,-391.64 153,-385 149.79,-377.45 148.69,-368.74 148.61,-360.59"/>
<polygon fill="black" stroke="black" points="152.1,-360.88 149.05,-350.73 145.11,-360.57 152.1,-360.88"/>
<text xml:space="preserve" text-anchor="middle" x="163.5" y="-371.7" font-family="Times New Roman,serif" font-size="14.00">true</text>
</g>
<!-- N6 -->
<g id="node6" class="node">
<title>N6</title>
<path fill="none" stroke="black" d="M298,-350.5C298,-350.5 234,-350.5 234,-350.5 228,-350.5 222,-344.5 222,-338.5 222,-338.5 222,-323 222,-323 222,-317 228,-311 234,-311 234,-311 298,-311 298,-311 304,-311 310,-317 310,-323 310,-323 310,-338.5 310,-338.5 310,-344.5 304,-350.5 298,-350.5"/>
<text xml:space="preserve" text-anchor="middle" x="266" y="-333.2" font-family="Helvetica,sans-Serif" font-size="14.00">6: diff = rad;</text>
<text xml:space="preserve" text-anchor="middle" x="266" y="-317.45" font-family="Helvetica,sans-Serif" font-size="14.00">app = diff;</text>
</g>
<!-- N4&#45;&gt;N6 -->
<g id="edge6" class="edge">
<title>N4&#45;&gt;N6</title>
<path fill="none" stroke="black" d="M203.41,-402.56C214.29,-390.25 229.1,-373.5 241.58,-359.38"/>
<polygon fill="black" stroke="black" points="243.99,-361.93 247.99,-352.12 238.75,-357.3 243.99,-361.93"/>
<text xml:space="preserve" text-anchor="middle" x="244.42" y="-371.7" font-family="Times New Roman,serif" font-size="14.00">false</text>
</g>
<!-- N5&#45;&gt;N4 -->
<g id="edge7" class="edge">
<title>N5&#45;&gt;N4</title>
<path fill="none" stroke="black" d="M163.76,-349.17C167.41,-355.12 171.2,-361.93 174,-368.5 177.13,-375.86 179.74,-384.11 181.83,-391.82"/>
<polygon fill="black" stroke="black" points="178.41,-392.58 184.23,-401.44 185.21,-390.89 178.41,-392.58"/>
</g>
<!-- N7 -->
<g id="node7" class="node">
<title>N7</title>
<path fill="none" stroke="black" d="M401.12,-274C401.12,-274 130.88,-274 130.88,-274 124.88,-274 118.88,-268 118.88,-262 118.88,-262 118.88,-250 118.88,-250 118.88,-244 124.88,-238 130.88,-238 130.88,-238 401.12,-238 401.12,-238 407.12,-238 413.12,-244 413.12,-250 413.12,-250 413.12,-262 413.12,-262 413.12,-268 407.12,-274 401.12,-274"/>
<text xml:space="preserve" text-anchor="middle" x="266" y="-250.57" font-family="Helvetica,sans-Serif" font-size="14.00">7: diff = (diff * (&#45;(rad*rad))) / ((2*inc)*(2*inc+1));</text>
</g>
<!-- N6&#45;&gt;N7 -->
<g id="edge8" class="edge">
<title>N6&#45;&gt;N7</title>
<path fill="none" stroke="black" d="M266,-310.64C266,-302.97 266,-293.97 266,-285.55"/>
<polygon fill="black" stroke="black" points="269.5,-285.76 266,-275.76 262.5,-285.76 269.5,-285.76"/>
</g>
<!-- N8 -->
<g id="node8" class="node">
<title>N8</title>
<path fill="none" stroke="black" d="M268.62,-201C268.62,-201 163.38,-201 163.38,-201 157.38,-201 151.38,-195 151.38,-189 151.38,-189 151.38,-173.5 151.38,-173.5 151.38,-167.5 157.38,-161.5 163.38,-161.5 163.38,-161.5 268.62,-161.5 268.62,-161.5 274.62,-161.5 280.62,-167.5 280.62,-173.5 280.62,-173.5 280.62,-189 280.62,-189 280.62,-195 274.62,-201 268.62,-201"/>
<text xml:space="preserve" text-anchor="middle" x="216" y="-183.7" font-family="Helvetica,sans-Serif" font-size="14.00">8: app = app + diff;</text>
<text xml:space="preserve" text-anchor="middle" x="216" y="-167.95" font-family="Helvetica,sans-Serif" font-size="14.00">inc++;</text>
</g>
<!-- N7&#45;&gt;N8 -->
<g id="edge9" class="edge">
<title>N7&#45;&gt;N8</title>
<path fill="none" stroke="black" d="M254.15,-237.76C248.64,-229.74 241.93,-219.98 235.69,-210.89"/>
<polygon fill="black" stroke="black" points="238.58,-208.92 230.03,-202.66 232.81,-212.89 238.58,-208.92"/>
</g>
<!-- N9 -->
<g id="node9" class="node">
<title>N9</title>
<path fill="none" stroke="black" d="M346.38,-124.5C346.38,-124.5 185.62,-124.5 185.62,-124.5 179.62,-124.5 173.62,-118.5 173.62,-112.5 173.62,-112.5 173.62,-100.5 173.62,-100.5 173.62,-94.5 179.62,-88.5 185.62,-88.5 185.62,-88.5 346.38,-88.5 346.38,-88.5 352.38,-88.5 358.38,-94.5 358.38,-100.5 358.38,-100.5 358.38,-112.5 358.38,-112.5 358.38,-118.5 352.38,-124.5 346.38,-124.5"/>
<text xml:space="preserve" text-anchor="middle" x="266" y="-101.08" font-family="Helvetica,sans-Serif" font-size="14.00">9: while (my_fabs(diff) &gt;= 1)</text>
</g>
<!-- N8&#45;&gt;N9 -->
<g id="edge10" class="edge">
<title>N8&#45;&gt;N9</title>
<path fill="none" stroke="black" d="M229.14,-161.14C234.83,-152.85 241.6,-143.01 247.76,-134.03"/>
<polygon fill="black" stroke="black" points="250.51,-136.22 253.29,-125.99 244.74,-132.25 250.51,-136.22"/>
</g>
<!-- N9&#45;&gt;N7 -->
<g id="edge11" class="edge">
<title>N9&#45;&gt;N7</title>
<path fill="none" stroke="black" d="M275.96,-124.87C281.27,-135.15 287.27,-148.65 290,-161.5 293.64,-178.67 293.64,-183.83 290,-201 288.1,-209.93 284.63,-219.18 280.89,-227.44"/>
<polygon fill="black" stroke="black" points="277.83,-225.75 276.62,-236.27 284.13,-228.8 277.83,-225.75"/>
<text xml:space="preserve" text-anchor="middle" x="303.23" y="-176.2" font-family="Times New Roman,serif" font-size="14.00">true</text>
</g>
<!-- N10 -->
<g id="node10" class="node">
<title>N10</title>
<path fill="none" stroke="black" d="M305.88,-36C305.88,-36 226.12,-36 226.12,-36 220.12,-36 214.12,-30 214.12,-24 214.12,-24 214.12,-12 214.12,-12 214.12,-6 220.12,0 226.12,0 226.12,0 305.88,0 305.88,0 311.88,0 317.88,-6 317.88,-12 317.88,-12 317.88,-24 317.88,-24 317.88,-30 311.88,-36 305.88,-36"/>
<text xml:space="preserve" text-anchor="middle" x="266" y="-12.57" font-family="Helvetica,sans-Serif" font-size="14.00">10: return app;</text>
</g>
<!-- N9&#45;&gt;N10 -->
<g id="edge12" class="edge">
<title>N9&#45;&gt;N10</title>
<path fill="none" stroke="black" d="M266,-88.41C266,-76.76 266,-61.05 266,-47.52"/>
<polygon fill="black" stroke="black" points="269.5,-47.86 266,-37.86 262.5,-47.86 269.5,-47.86"/>
<text xml:space="preserve" text-anchor="middle" x="278.75" y="-57.2" font-family="Times New Roman,serif" font-size="14.00">false</text>
</g>
</g>
</svg>
