<?xml version="1.0" encoding="UTF-8" standalone="no"?>
<!DOCTYPE svg PUBLIC "-//W3C//DTD SVG 1.1//EN"
 "http://www.w3.org/Graphics/SVG/1.1/DTD/svg11.dtd">
<!-- Generated by graphviz version 13.1.2 (20250808.2320)
 -->
<!-- Title: my_sin_DFG Pages: 1 -->
<svg width="324pt" height="476pt"
 viewBox="0.00 0.00 324.00 476.00" xmlns="http://www.w3.org/2000/svg" xmlns:xlink="http://www.w3.org/1999/xlink">
<g id="graph0" class="graph" transform="scale(1 1) rotate(0) translate(4 472)">
<title>my_sin_DFG</title>
<polygon fill="white" stroke="none" points="-4,4 -4,-472 319.62,-472 319.62,4 -4,4"/>
<!-- rad_in -->
<g id="node1" class="node">
<title>rad_in</title>
<ellipse fill="lightblue" stroke="black" cx="108" cy="-450" rx="27" ry="18"/>
<text xml:space="preserve" text-anchor="middle" x="108" y="-444.95" font-family="Times New Roman,serif" font-size="14.00">rad</text>
</g>
<!-- op_sub_2PI -->
<g id="node3" class="node">
<title>op_sub_2PI</title>
<polygon fill="none" stroke="black" points="135,-396 81,-396 81,-360 135,-360 135,-396"/>
<text xml:space="preserve" text-anchor="middle" x="108" y="-372.95" font-family="Times New Roman,serif" font-size="14.00">&#45;=</text>
</g>
<!-- rad_in&#45;&gt;op_sub_2PI -->
<g id="edge1" class="edge">
<title>rad_in&#45;&gt;op_sub_2PI</title>
<path fill="none" stroke="black" d="M108,-431.7C108,-424.41 108,-415.73 108,-407.54"/>
<polygon fill="black" stroke="black" points="111.5,-407.62 108,-397.62 104.5,-407.62 111.5,-407.62"/>
</g>
<!-- op_add_2PI -->
<g id="node4" class="node">
<title>op_add_2PI</title>
<polygon fill="none" stroke="black" points="207,-396 153,-396 153,-360 207,-360 207,-396"/>
<text xml:space="preserve" text-anchor="middle" x="180" y="-372.95" font-family="Times New Roman,serif" font-size="14.00">+=</text>
</g>
<!-- rad_in&#45;&gt;op_add_2PI -->
<g id="edge4" class="edge">
<title>rad_in&#45;&gt;op_add_2PI</title>
<path fill="none" stroke="black" d="M122.92,-434.5C131.89,-425.77 143.56,-414.43 154,-404.28"/>
<polygon fill="black" stroke="black" points="156.23,-406.99 160.96,-397.51 151.35,-401.97 156.23,-406.99"/>
</g>
<!-- PI_in -->
<g id="node2" class="node">
<title>PI_in</title>
<ellipse fill="lightblue" stroke="black" cx="180" cy="-450" rx="27" ry="18"/>
<text xml:space="preserve" text-anchor="middle" x="180" y="-444.95" font-family="Times New Roman,serif" font-size="14.00">PI</text>
</g>
<!-- PI_in&#45;&gt;op_sub_2PI -->
<g id="edge2" class="edge">
<title>PI_in&#45;&gt;op_sub_2PI</title>
<path fill="none" stroke="black" d="M165.08,-434.5C156.11,-425.77 144.44,-414.43 134,-404.28"/>
<polygon fill="black" stroke="black" points="136.65,-401.97 127.04,-397.51 131.77,-406.99 136.65,-401.97"/>
</g>
<!-- PI_in&#45;&gt;op_add_2PI -->
<g id="edge5" class="edge">
<title>PI_in&#45;&gt;op_add_2PI</title>
<path fill="none" stroke="black" d="M180,-431.7C180,-424.41 180,-415.73 180,-407.54"/>
<polygon fill="black" stroke="black" points="183.5,-407.62 180,-397.62 176.5,-407.62 183.5,-407.62"/>
</g>
<!-- rad_out -->
<g id="node10" class="node">
<title>rad_out</title>
<ellipse fill="lightgreen" stroke="black" cx="144" cy="-306" rx="27" ry="18"/>
<text xml:space="preserve" text-anchor="middle" x="144" y="-300.95" font-family="Times New Roman,serif" font-size="14.00">rad</text>
</g>
<!-- op_sub_2PI&#45;&gt;rad_out -->
<g id="edge3" class="edge">
<title>op_sub_2PI&#45;&gt;rad_out</title>
<path fill="none" stroke="black" d="M116.9,-359.7C120.98,-351.75 125.92,-342.16 130.45,-333.34"/>
<polygon fill="black" stroke="black" points="133.54,-334.98 135,-324.49 127.32,-331.78 133.54,-334.98"/>
</g>
<!-- op_add_2PI&#45;&gt;rad_out -->
<g id="edge6" class="edge">
<title>op_add_2PI&#45;&gt;rad_out</title>
<path fill="none" stroke="black" d="M171.1,-359.7C167.02,-351.75 162.08,-342.16 157.55,-333.34"/>
<polygon fill="black" stroke="black" points="160.68,-331.78 153,-324.49 154.46,-334.98 160.68,-331.78"/>
</g>
<!-- op_assign_diff -->
<g id="node5" class="node">
<title>op_assign_diff</title>
<polygon fill="none" stroke="black" points="199,-252 145,-252 145,-216 199,-216 199,-252"/>
<text xml:space="preserve" text-anchor="middle" x="172" y="-228.95" font-family="Times New Roman,serif" font-size="14.00">=</text>
</g>
<!-- diff_out -->
<g id="node11" class="node">
<title>diff_out</title>
<ellipse fill="lightgreen" stroke="black" cx="172" cy="-162" rx="27" ry="18"/>
<text xml:space="preserve" text-anchor="middle" x="172" y="-156.95" font-family="Times New Roman,serif" font-size="14.00">diff</text>
</g>
<!-- op_assign_diff&#45;&gt;diff_out -->
<g id="edge8" class="edge">
<title>op_assign_diff&#45;&gt;diff_out</title>
<path fill="none" stroke="black" d="M172,-215.7C172,-208.41 172,-199.73 172,-191.54"/>
<polygon fill="black" stroke="black" points="175.5,-191.62 172,-181.62 168.5,-191.62 175.5,-191.62"/>
</g>
<!-- op_assign_app -->
<g id="node6" class="node">
<title>op_assign_app</title>
<polygon fill="none" stroke="black" points="234,-108 180,-108 180,-72 234,-72 234,-108"/>
<text xml:space="preserve" text-anchor="middle" x="207" y="-84.95" font-family="Times New Roman,serif" font-size="14.00">=</text>
</g>
<!-- app_out -->
<g id="node12" class="node">
<title>app_out</title>
<ellipse fill="lightgreen" stroke="black" cx="207" cy="-18" rx="27" ry="18"/>
<text xml:space="preserve" text-anchor="middle" x="207" y="-12.95" font-family="Times New Roman,serif" font-size="14.00">app</text>
</g>
<!-- op_assign_app&#45;&gt;app_out -->
<g id="edge10" class="edge">
<title>op_assign_app&#45;&gt;app_out</title>
<path fill="none" stroke="black" d="M207,-71.7C207,-64.41 207,-55.73 207,-47.54"/>
<polygon fill="black" stroke="black" points="210.5,-47.62 207,-37.62 203.5,-47.62 210.5,-47.62"/>
</g>
<!-- op_compute_diff -->
<g id="node7" class="node">
<title>op_compute_diff</title>
<polygon fill="none" stroke="black" points="161.75,-108 72.25,-108 72.25,-72 161.75,-72 161.75,-108"/>
<text xml:space="preserve" text-anchor="middle" x="117" y="-84.95" font-family="Times New Roman,serif" font-size="14.00">compute_diff</text>
</g>
<!-- op_compute_diff&#45;&gt;diff_out -->
<g id="edge14" class="edge">
<title>op_compute_diff&#45;&gt;diff_out</title>
<path fill="none" stroke="black" d="M136.64,-108.45C143.81,-116.53 151.69,-126.29 158.27,-135.2"/>
<polygon fill="black" stroke="black" points="155.29,-137.05 163.93,-143.18 160.99,-133 155.29,-137.05"/>
</g>
<!-- op_inc -->
<g id="node8" class="node">
<title>op_inc</title>
<polygon fill="none" stroke="black" points="54,-108 0,-108 0,-72 54,-72 54,-108"/>
<text xml:space="preserve" text-anchor="middle" x="27" y="-84.95" font-family="Times New Roman,serif" font-size="14.00">++</text>
</g>
<!-- inc_out -->
<g id="node13" class="node">
<title>inc_out</title>
<ellipse fill="lightgreen" stroke="black" cx="27" cy="-162" rx="27" ry="18"/>
<text xml:space="preserve" text-anchor="middle" x="27" y="-156.95" font-family="Times New Roman,serif" font-size="14.00">inc</text>
</g>
<!-- op_inc&#45;&gt;inc_out -->
<g id="edge18" class="edge">
<title>op_inc&#45;&gt;inc_out</title>
<path fill="none" stroke="black" d="M32.91,-108.28C33.67,-115.6 33.91,-124.34 33.64,-132.57"/>
<polygon fill="black" stroke="black" points="30.15,-132.33 32.98,-142.54 37.14,-132.8 30.15,-132.33"/>
</g>
<!-- op_fabs -->
<g id="node9" class="node">
<title>op_fabs</title>
<polygon fill="none" stroke="black" points="315.62,-108 252.38,-108 252.38,-72 315.62,-72 315.62,-108"/>
<text xml:space="preserve" text-anchor="middle" x="284" y="-84.95" font-family="Times New Roman,serif" font-size="14.00">my_fabs</text>
</g>
<!-- N9 -->
<g id="node14" class="node">
<title>N9</title>
<ellipse fill="lightgreen" stroke="black" cx="284" cy="-18" rx="27" ry="18"/>
<text xml:space="preserve" text-anchor="middle" x="284" y="-12.95" font-family="Times New Roman,serif" font-size="14.00">N9</text>
</g>
<!-- op_fabs&#45;&gt;N9 -->
<g id="edge16" class="edge">
<title>op_fabs&#45;&gt;N9</title>
<path fill="none" stroke="black" d="M284,-71.7C284,-64.41 284,-55.73 284,-47.54"/>
<polygon fill="black" stroke="black" points="287.5,-47.62 284,-37.62 280.5,-47.62 287.5,-47.62"/>
</g>
<!-- rad_out&#45;&gt;op_assign_diff -->
<g id="edge7" class="edge">
<title>rad_out&#45;&gt;op_assign_diff</title>
<path fill="none" stroke="black" d="M150.64,-288.41C153.68,-280.79 157.38,-271.55 160.84,-262.9"/>
<polygon fill="black" stroke="black" points="163.99,-264.44 164.46,-253.85 157.5,-261.84 163.99,-264.44"/>
</g>
<!-- rad_out&#45;&gt;op_compute_diff -->
<g id="edge12" class="edge">
<title>rad_out&#45;&gt;op_compute_diff</title>
<path fill="none" stroke="black" d="M141.27,-287.83C139.65,-277.47 137.61,-263.99 136,-252 129.78,-205.75 123.65,-151.87 120.1,-119.64"/>
<polygon fill="black" stroke="black" points="123.6,-119.48 119.03,-109.92 116.64,-120.24 123.6,-119.48"/>
</g>
<!-- diff_out&#45;&gt;op_assign_app -->
<g id="edge9" class="edge">
<title>diff_out&#45;&gt;op_assign_app</title>
<path fill="none" stroke="black" d="M180.29,-144.41C184.15,-136.71 188.83,-127.34 193.19,-118.62"/>
<polygon fill="black" stroke="black" points="196.26,-120.31 197.6,-109.8 190,-117.18 196.26,-120.31"/>
</g>
<!-- diff_out&#45;&gt;op_compute_diff -->
<g id="edge11" class="edge">
<title>diff_out&#45;&gt;op_compute_diff</title>
<path fill="none" stroke="black" d="M155.63,-147.17C147.84,-138.72 138.77,-127.62 131.27,-117.53"/>
<polygon fill="black" stroke="black" points="134.2,-115.61 125.54,-109.51 128.51,-119.68 134.2,-115.61"/>
</g>
<!-- diff_out&#45;&gt;op_fabs -->
<g id="edge15" class="edge">
<title>diff_out&#45;&gt;op_fabs</title>
<path fill="none" stroke="black" d="M191.25,-148.97C206.42,-139.49 228.01,-125.99 246.55,-114.4"/>
<polygon fill="black" stroke="black" points="248.29,-117.45 254.91,-109.18 244.58,-111.51 248.29,-117.45"/>
</g>
<!-- inc_out&#45;&gt;op_compute_diff -->
<g id="edge13" class="edge">
<title>inc_out&#45;&gt;op_compute_diff</title>
<path fill="none" stroke="black" d="M43.93,-147.83C55.71,-138.67 71.76,-126.19 85.82,-115.25"/>
<polygon fill="black" stroke="black" points="87.76,-118.17 93.51,-109.27 83.47,-112.65 87.76,-118.17"/>
</g>
<!-- inc_out&#45;&gt;op_inc -->
<g id="edge17" class="edge">
<title>inc_out&#45;&gt;op_inc</title>
<path fill="none" stroke="black" d="M21.12,-144.05C20.34,-136.68 20.08,-127.84 20.35,-119.51"/>
<polygon fill="black" stroke="black" points="23.83,-119.99 20.99,-109.79 16.84,-119.54 23.83,-119.99"/>
</g>
</g>
</svg>
