<?xml version="1.0" encoding="UTF-8" standalone="no"?>
<!DOCTYPE svg PUBLIC "-//W3C//DTD SVG 1.1//EN"
 "http://www.w3.org/Graphics/SVG/1.1/DTD/svg11.dtd">
<!-- Generated by graphviz version 13.1.2 (20250808.2320)
 -->
<!-- Title: DFG Pages: 1 -->
<svg width="441pt" height="300pt"
 viewBox="0.00 0.00 441.00 300.00" xmlns="http://www.w3.org/2000/svg" xmlns:xlink="http://www.w3.org/1999/xlink">
<g id="graph0" class="graph" transform="scale(1 1) rotate(0) translate(4 296.48)">
<title>DFG</title>
<polygon fill="white" stroke="none" points="-4,4 -4,-296.48 436.61,-296.48 436.61,4 -4,4"/>
<!-- RandomInteger -->
<g id="node1" class="node">
<title>RandomInteger</title>
<ellipse fill="none" stroke="black" cx="187.74" cy="-263.49" rx="98.82" ry="28.99"/>
<text xml:space="preserve" text-anchor="middle" x="187.74" y="-266.69" font-family="Courier,monospace" font-size="14.00">RandomInteger()</text>
<text xml:space="preserve" text-anchor="middle" x="187.74" y="-250.19" font-family="Courier,monospace" font-size="14.00">(Sempre ≥ 0)</text>
</g>
<!-- Array -->
<g id="node2" class="node">
<title>Array</title>
<ellipse fill="none" stroke="black" cx="187.74" cy="-179.5" rx="117.89" ry="18"/>
<text xml:space="preserve" text-anchor="middle" x="187.74" y="-174.45" font-family="Courier,monospace" font-size="14.00">Array[Outer][Inner]</text>
</g>
<!-- RandomInteger&#45;&gt;Array -->
<g id="edge1" class="edge">
<title>RandomInteger&#45;&gt;Array</title>
<path fill="none" stroke="black" d="M187.74,-234.27C187.74,-226.06 187.74,-217.08 187.74,-208.86"/>
<polygon fill="black" stroke="black" points="191.24,-209.03 187.74,-199.03 184.24,-209.03 191.24,-209.03"/>
</g>
<!-- Condition -->
<g id="node3" class="node">
<title>Condition</title>
<ellipse fill="none" stroke="black" cx="187.74" cy="-106.5" rx="89.74" ry="18"/>
<text xml:space="preserve" text-anchor="middle" x="187.74" y="-101.45" font-family="Courier,monospace" font-size="14.00">Condicao: &lt; 0?</text>
</g>
<!-- Array&#45;&gt;Condition -->
<g id="edge2" class="edge">
<title>Array&#45;&gt;Condition</title>
<path fill="none" stroke="black" d="M187.74,-161.31C187.74,-153.73 187.74,-144.6 187.74,-136.04"/>
<polygon fill="black" stroke="black" points="191.24,-136.04 187.74,-126.04 184.24,-136.04 191.24,-136.04"/>
</g>
<!-- PosBlock -->
<g id="node4" class="node">
<title>PosBlock</title>
<ellipse fill="none" stroke="red" cx="89.74" cy="-18" rx="89.74" ry="18"/>
<text xml:space="preserve" text-anchor="middle" x="89.74" y="-12.95" font-family="Courier,monospace" font-size="14.00">Bloco Positivo</text>
</g>
<!-- Condition&#45;&gt;PosBlock -->
<g id="edge3" class="edge">
<title>Condition&#45;&gt;PosBlock</title>
<path fill="none" stroke="red" d="M145.51,-90.34C135.08,-85.19 124.53,-78.63 116.24,-70.5 109.37,-63.77 103.94,-54.88 99.82,-46.39"/>
<polygon fill="red" stroke="red" points="103.12,-45.19 95.91,-37.42 96.7,-47.98 103.12,-45.19"/>
<text xml:space="preserve" text-anchor="middle" x="190.49" y="-57.2" font-family="Courier,monospace" font-size="14.00">Falso (Infeasible)</text>
</g>
<!-- NegBlock -->
<g id="node5" class="node">
<title>NegBlock</title>
<ellipse fill="none" stroke="green" cx="286.74" cy="-18" rx="89.74" ry="18"/>
<text xml:space="preserve" text-anchor="middle" x="286.74" y="-12.95" font-family="Courier,monospace" font-size="14.00">Bloco Negativo</text>
</g>
<!-- Condition&#45;&gt;NegBlock -->
<g id="edge4" class="edge">
<title>Condition&#45;&gt;NegBlock</title>
<path fill="none" stroke="green" d="M234.43,-90.91C245.4,-85.8 256.32,-79.11 264.74,-70.5 271.16,-63.92 275.84,-55.18 279.19,-46.77"/>
<polygon fill="green" stroke="green" points="282.42,-48.13 282.37,-37.54 275.8,-45.85 282.42,-48.13"/>
<text xml:space="preserve" text-anchor="middle" x="354.23" y="-57.2" font-family="Courier,monospace" font-size="14.00">Verdadeiro (Sempre)</text>
</g>
</g>
</svg>
