<?xml version="1.0" encoding="UTF-8" standalone="no"?>
<!DOCTYPE svg PUBLIC "-//W3C//DTD SVG 1.1//EN"
 "http://www.w3.org/Graphics/SVG/1.1/DTD/svg11.dtd">
<!-- Generated by graphviz version 13.1.2 (20250808.2320)
 -->
<!-- Title: fib Pages: 1 -->
<svg width="520pt" height="424pt"
 viewBox="0.00 0.00 520.00 424.00" xmlns="http://www.w3.org/2000/svg" xmlns:xlink="http://www.w3.org/1999/xlink">
<g id="graph0" class="graph" transform="scale(1 1) rotate(0) translate(4 420)">
<title>fib</title>
<polygon fill="white" stroke="none" points="-4,4 -4,-420 516,-420 516,4 -4,4"/>
<!-- start -->
<g id="node1" class="node">
<title>start</title>
<ellipse fill="none" stroke="black" cx="241.38" cy="-398" rx="32.41" ry="18"/>
<text xml:space="preserve" text-anchor="middle" x="241.38" y="-392.95" font-family="Times New Roman,serif" font-size="14.00">Inicio</text>
</g>
<!-- node1 -->
<g id="node3" class="node">
<title>node1</title>
<polygon fill="none" stroke="black" points="328.88,-343 153.88,-343 153.88,-302 328.88,-302 328.88,-343"/>
<text xml:space="preserve" text-anchor="middle" x="241.38" y="-325.7" font-family="Times New Roman,serif" font-size="14.00">1: Fnew = 1; Fold = 0; i = 2;</text>
<text xml:space="preserve" text-anchor="middle" x="241.38" y="-309.2" font-family="Times New Roman,serif" font-size="14.00">def={Fnew, Fold, i}</text>
</g>
<!-- start&#45;&gt;node1 -->
<g id="edge1" class="edge">
<title>start&#45;&gt;node1</title>
<path fill="none" stroke="black" d="M241.38,-379.58C241.38,-372.2 241.38,-363.35 241.38,-354.9"/>
<polygon fill="black" stroke="black" points="244.88,-354.9 241.38,-344.9 237.88,-354.9 244.88,-354.9"/>
</g>
<!-- end -->
<g id="node2" class="node">
<title>end</title>
<ellipse fill="none" stroke="black" cx="432.38" cy="-18" rx="27" ry="18"/>
<text xml:space="preserve" text-anchor="middle" x="432.38" y="-12.95" font-family="Times New Roman,serif" font-size="14.00">Fim</text>
</g>
<!-- node2 -->
<g id="node4" class="node">
<title>node2</title>
<polygon fill="none" stroke="black" points="241.38,-265 84.38,-224 241.37,-183 398.38,-224 241.38,-265"/>
<text xml:space="preserve" text-anchor="middle" x="241.38" y="-227.2" font-family="Times New Roman,serif" font-size="14.00">2: if (i &lt;= 30 &amp;&amp; i &lt;= n)</text>
<text xml:space="preserve" text-anchor="middle" x="241.38" y="-210.7" font-family="Times New Roman,serif" font-size="14.00">p&#45;use={i, n}</text>
</g>
<!-- node1&#45;&gt;node2 -->
<g id="edge2" class="edge">
<title>node1&#45;&gt;node2</title>
<path fill="none" stroke="black" d="M241.38,-301.51C241.38,-294.13 241.38,-285.39 241.38,-276.51"/>
<polygon fill="black" stroke="black" points="244.88,-276.79 241.38,-266.79 237.88,-276.79 244.88,-276.79"/>
</g>
<!-- node3 -->
<g id="node5" class="node">
<title>node3</title>
<polygon fill="none" stroke="black" points="334.75,-130.5 0,-130.5 0,-73 334.75,-73 334.75,-130.5"/>
<text xml:space="preserve" text-anchor="middle" x="167.38" y="-113.2" font-family="Times New Roman,serif" font-size="14.00">3: temp = Fnew; Fnew = Fnew + Fold; Fold = temp; i++;</text>
<text xml:space="preserve" text-anchor="middle" x="167.38" y="-96.7" font-family="Times New Roman,serif" font-size="14.00">def={temp, Fnew, Fold, i}</text>
<text xml:space="preserve" text-anchor="middle" x="167.38" y="-80.2" font-family="Times New Roman,serif" font-size="14.00">c&#45;use={Fnew, Fold}</text>
</g>
<!-- node2&#45;&gt;node3 -->
<g id="edge3" class="edge">
<title>node2&#45;&gt;node3</title>
<path fill="none" stroke="black" d="M193.6,-195.28C183.38,-186.93 173.92,-176.79 168.12,-165 164.7,-158.03 163.14,-150.06 162.67,-142.21"/>
<polygon fill="black" stroke="black" points="166.17,-142.43 162.66,-132.43 159.17,-142.43 166.17,-142.43"/>
<text xml:space="preserve" text-anchor="middle" x="197.75" y="-151.7" font-family="Times New Roman,serif" font-size="14.00">Verdadeiro</text>
</g>
<!-- node4 -->
<g id="node6" class="node">
<title>node4</title>
<polygon fill="none" stroke="black" points="512,-130.5 352.75,-130.5 352.75,-73 512,-73 512,-130.5"/>
<text xml:space="preserve" text-anchor="middle" x="432.38" y="-113.2" font-family="Times New Roman,serif" font-size="14.00">4: ans = Fnew; return ans;</text>
<text xml:space="preserve" text-anchor="middle" x="432.38" y="-96.7" font-family="Times New Roman,serif" font-size="14.00">def={ans}</text>
<text xml:space="preserve" text-anchor="middle" x="432.38" y="-80.2" font-family="Times New Roman,serif" font-size="14.00">c&#45;use={Fnew}</text>
</g>
<!-- node2&#45;&gt;node4 -->
<g id="edge4" class="edge">
<title>node2&#45;&gt;node4</title>
<path fill="none" stroke="black" d="M286.64,-194.5C314.09,-177.22 349.29,-155.06 378.22,-136.85"/>
<polygon fill="black" stroke="black" points="379.89,-139.93 386.48,-131.64 376.16,-134.01 379.89,-139.93"/>
<text xml:space="preserve" text-anchor="middle" x="374.22" y="-151.7" font-family="Times New Roman,serif" font-size="14.00">Falso</text>
</g>
<!-- node3&#45;&gt;node2 -->
<g id="edge5" class="edge">
<title>node3&#45;&gt;node2</title>
<path fill="none" stroke="black" d="M212.37,-130.91C218.13,-136.15 223.39,-142.03 227.38,-148.5 231.74,-155.59 234.81,-163.72 236.95,-171.95"/>
<polygon fill="black" stroke="black" points="233.51,-172.6 239.01,-181.66 240.36,-171.15 233.51,-172.6"/>
</g>
<!-- node4&#45;&gt;end -->
<g id="edge6" class="edge">
<title>node4&#45;&gt;end</title>
<path fill="none" stroke="black" d="M432.38,-72.62C432.38,-64.64 432.38,-55.95 432.38,-47.93"/>
<polygon fill="black" stroke="black" points="435.88,-47.97 432.38,-37.97 428.88,-47.97 435.88,-47.97"/>
</g>
</g>
</svg>
