<?xml version="1.0" encoding="UTF-8" standalone="no"?>
<!DOCTYPE svg PUBLIC "-//W3C//DTD SVG 1.1//EN"
 "http://www.w3.org/Graphics/SVG/1.1/DTD/svg11.dtd">
<!-- Generated by graphviz version 13.1.2 (20250808.2320)
 -->
<!-- Title: main Pages: 1 -->
<svg width="84pt" height="347pt"
 viewBox="0.00 0.00 84.00 347.00" xmlns="http://www.w3.org/2000/svg" xmlns:xlink="http://www.w3.org/1999/xlink">
<g id="graph0" class="graph" transform="scale(1 1) rotate(0) translate(4 343)">
<title>main</title>
<polygon fill="white" stroke="none" points="-4,4 -4,-343 80,-343 80,4 -4,4"/>
<!-- start -->
<g id="node1" class="node">
<title>start</title>
<ellipse fill="none" stroke="black" cx="38" cy="-321" rx="32.41" ry="18"/>
<text xml:space="preserve" text-anchor="middle" x="38" y="-315.95" font-family="Times New Roman,serif" font-size="14.00">Inicio</text>
</g>
<!-- node1 -->
<g id="node3" class="node">
<title>node1</title>
<polygon fill="none" stroke="black" points="72.62,-267 3.38,-267 3.38,-226 72.62,-226 72.62,-267"/>
<text xml:space="preserve" text-anchor="middle" x="38" y="-249.7" font-family="Times New Roman,serif" font-size="14.00">1: a = 30;</text>
<text xml:space="preserve" text-anchor="middle" x="38" y="-233.2" font-family="Times New Roman,serif" font-size="14.00">def={a}</text>
</g>
<!-- start&#45;&gt;node1 -->
<g id="edge1" class="edge">
<title>start&#45;&gt;node1</title>
<path fill="none" stroke="black" d="M38,-302.82C38,-295.59 38,-286.95 38,-278.66"/>
<polygon fill="black" stroke="black" points="41.5,-278.89 38,-268.89 34.5,-278.89 41.5,-278.89"/>
</g>
<!-- end -->
<g id="node2" class="node">
<title>end</title>
<ellipse fill="none" stroke="black" cx="38" cy="-18" rx="27" ry="18"/>
<text xml:space="preserve" text-anchor="middle" x="38" y="-12.95" font-family="Times New Roman,serif" font-size="14.00">Fim</text>
</g>
<!-- node2 -->
<g id="node4" class="node">
<title>node2</title>
<polygon fill="none" stroke="black" points="74.12,-190 1.88,-190 1.88,-149 74.12,-149 74.12,-190"/>
<text xml:space="preserve" text-anchor="middle" x="38" y="-172.7" font-family="Times New Roman,serif" font-size="14.00">2: fib(a);</text>
<text xml:space="preserve" text-anchor="middle" x="38" y="-156.2" font-family="Times New Roman,serif" font-size="14.00">c&#45;use={a}</text>
</g>
<!-- node1&#45;&gt;node2 -->
<g id="edge2" class="edge">
<title>node1&#45;&gt;node2</title>
<path fill="none" stroke="black" d="M38,-225.79C38,-218.45 38,-209.91 38,-201.78"/>
<polygon fill="black" stroke="black" points="41.5,-201.85 38,-191.85 34.5,-201.85 41.5,-201.85"/>
</g>
<!-- node3 -->
<g id="node5" class="node">
<title>node3</title>
<polygon fill="none" stroke="black" points="76,-113 0,-113 0,-72 76,-72 76,-113"/>
<text xml:space="preserve" text-anchor="middle" x="38" y="-95.7" font-family="Times New Roman,serif" font-size="14.00">3: return a;</text>
<text xml:space="preserve" text-anchor="middle" x="38" y="-79.2" font-family="Times New Roman,serif" font-size="14.00">c&#45;use={a}</text>
</g>
<!-- node2&#45;&gt;node3 -->
<g id="edge3" class="edge">
<title>node2&#45;&gt;node3</title>
<path fill="none" stroke="black" d="M38,-148.79C38,-141.45 38,-132.91 38,-124.78"/>
<polygon fill="black" stroke="black" points="41.5,-124.85 38,-114.85 34.5,-124.85 41.5,-124.85"/>
</g>
<!-- node3&#45;&gt;end -->
<g id="edge4" class="edge">
<title>node3&#45;&gt;end</title>
<path fill="none" stroke="black" d="M38,-71.69C38,-64.25 38,-55.64 38,-47.57"/>
<polygon fill="black" stroke="black" points="41.5,-47.83 38,-37.83 34.5,-47.83 41.5,-47.83"/>
</g>
</g>
</svg>
