<?xml version="1.0" encoding="UTF-8" standalone="no"?>
<!DOCTYPE svg PUBLIC "-//W3C//DTD SVG 1.1//EN"
 "http://www.w3.org/Graphics/SVG/1.1/DTD/svg11.dtd">
<!-- Generated by graphviz version 13.1.2 (20250808.2320)
 -->
<!-- Title: fib_DFG Pages: 1 -->
<svg width="451pt" height="586pt"
 viewBox="0.00 0.00 451.00 586.00" xmlns="http://www.w3.org/2000/svg" xmlns:xlink="http://www.w3.org/1999/xlink">
<g id="graph0" class="graph" transform="scale(1 1) rotate(0) translate(4 582)">
<title>fib_DFG</title>
<polygon fill="white" stroke="none" points="-4,4 -4,-582 447.09,-582 447.09,4 -4,4"/>
<!-- n_input -->
<g id="node1" class="node">
<title>n_input</title>
<ellipse fill="lightblue" stroke="black" cx="127" cy="-560" rx="27" ry="18"/>
<text xml:space="preserve" text-anchor="middle" x="127" y="-554.95" font-family="Times New Roman,serif" font-size="14.00">n</text>
</g>
<!-- const_1 -->
<g id="node2" class="node">
<title>const_1</title>
<ellipse fill="lightblue" stroke="black" cx="199" cy="-560" rx="27" ry="18"/>
<text xml:space="preserve" text-anchor="middle" x="199" y="-554.95" font-family="Times New Roman,serif" font-size="14.00">1</text>
</g>
<!-- op_init_Fnew -->
<g id="node5" class="node">
<title>op_init_Fnew</title>
<polygon fill="none" stroke="black" points="226,-505 172,-505 172,-469 226,-469 226,-505"/>
<text xml:space="preserve" text-anchor="middle" x="199" y="-481.95" font-family="Times New Roman,serif" font-size="14.00">=</text>
</g>
<!-- const_1&#45;&gt;op_init_Fnew -->
<g id="edge1" class="edge">
<title>const_1&#45;&gt;op_init_Fnew</title>
<path fill="none" stroke="black" d="M199,-541.81C199,-534.23 199,-525.1 199,-516.54"/>
<polygon fill="black" stroke="black" points="202.5,-516.54 199,-506.54 195.5,-516.54 202.5,-516.54"/>
</g>
<!-- const_0 -->
<g id="node3" class="node">
<title>const_0</title>
<ellipse fill="lightblue" stroke="black" cx="72" cy="-325.5" rx="27" ry="18"/>
<text xml:space="preserve" text-anchor="middle" x="72" y="-320.45" font-family="Times New Roman,serif" font-size="14.00">0</text>
</g>
<!-- op_init_Fold -->
<g id="node6" class="node">
<title>op_init_Fold</title>
<polygon fill="none" stroke="black" points="100,-270.5 46,-270.5 46,-234.5 100,-234.5 100,-270.5"/>
<text xml:space="preserve" text-anchor="middle" x="73" y="-247.45" font-family="Times New Roman,serif" font-size="14.00">=</text>
</g>
<!-- const_0&#45;&gt;op_init_Fold -->
<g id="edge2" class="edge">
<title>const_0&#45;&gt;op_init_Fold</title>
<path fill="none" stroke="black" d="M72.24,-307.31C72.35,-299.73 72.48,-290.6 72.6,-282.04"/>
<polygon fill="black" stroke="black" points="76.1,-282.09 72.74,-272.04 69.1,-281.99 76.1,-282.09"/>
</g>
<!-- const_2 -->
<g id="node4" class="node">
<title>const_2</title>
<ellipse fill="lightblue" stroke="black" cx="387" cy="-560" rx="27" ry="18"/>
<text xml:space="preserve" text-anchor="middle" x="387" y="-554.95" font-family="Times New Roman,serif" font-size="14.00">2</text>
</g>
<!-- op_init_i -->
<g id="node7" class="node">
<title>op_init_i</title>
<polygon fill="none" stroke="black" points="414,-505 360,-505 360,-469 414,-469 414,-505"/>
<text xml:space="preserve" text-anchor="middle" x="387" y="-481.95" font-family="Times New Roman,serif" font-size="14.00">=</text>
</g>
<!-- const_2&#45;&gt;op_init_i -->
<g id="edge3" class="edge">
<title>const_2&#45;&gt;op_init_i</title>
<path fill="none" stroke="black" d="M387,-541.81C387,-534.23 387,-525.1 387,-516.54"/>
<polygon fill="black" stroke="black" points="390.5,-516.54 387,-506.54 383.5,-516.54 390.5,-516.54"/>
</g>
<!-- Fnew_out -->
<g id="node15" class="node">
<title>Fnew_out</title>
<ellipse fill="lightgreen" stroke="black" cx="199" cy="-414" rx="31.39" ry="18"/>
<text xml:space="preserve" text-anchor="middle" x="199" y="-408.95" font-family="Times New Roman,serif" font-size="14.00">Fnew</text>
</g>
<!-- op_init_Fnew&#45;&gt;Fnew_out -->
<g id="edge4" class="edge">
<title>op_init_Fnew&#45;&gt;Fnew_out</title>
<path fill="none" stroke="black" d="M199,-468.81C199,-461.23 199,-452.1 199,-443.54"/>
<polygon fill="black" stroke="black" points="202.5,-443.54 199,-433.54 195.5,-443.54 202.5,-443.54"/>
</g>
<!-- Fold_out -->
<g id="node16" class="node">
<title>Fold_out</title>
<ellipse fill="lightgreen" stroke="black" cx="120" cy="-164" rx="27.81" ry="18"/>
<text xml:space="preserve" text-anchor="middle" x="120" y="-158.95" font-family="Times New Roman,serif" font-size="14.00">Fold</text>
</g>
<!-- op_init_Fold&#45;&gt;Fold_out -->
<g id="edge5" class="edge">
<title>op_init_Fold&#45;&gt;Fold_out</title>
<path fill="none" stroke="black" d="M82.29,-234.41C88.94,-222.17 98.02,-205.45 105.61,-191.49"/>
<polygon fill="black" stroke="black" points="108.63,-193.25 110.33,-182.8 102.48,-189.91 108.63,-193.25"/>
</g>
<!-- i_out -->
<g id="node17" class="node">
<title>i_out</title>
<ellipse fill="lightgreen" stroke="black" cx="387" cy="-414" rx="27" ry="18"/>
<text xml:space="preserve" text-anchor="middle" x="387" y="-408.95" font-family="Times New Roman,serif" font-size="14.00">i</text>
</g>
<!-- op_init_i&#45;&gt;i_out -->
<g id="edge6" class="edge">
<title>op_init_i&#45;&gt;i_out</title>
<path fill="none" stroke="black" d="M387,-468.81C387,-461.23 387,-452.1 387,-443.54"/>
<polygon fill="black" stroke="black" points="390.5,-443.54 387,-433.54 383.5,-443.54 390.5,-443.54"/>
</g>
<!-- op_temp -->
<g id="node8" class="node">
<title>op_temp</title>
<polygon fill="none" stroke="black" points="206.75,-343.5 117.25,-343.5 117.25,-307.5 206.75,-307.5 206.75,-343.5"/>
<text xml:space="preserve" text-anchor="middle" x="162" y="-320.45" font-family="Times New Roman,serif" font-size="14.00">temp = Fnew</text>
</g>
<!-- op_assign_Fold -->
<g id="node11" class="node">
<title>op_assign_Fold</title>
<polygon fill="none" stroke="black" points="203.12,-270.5 118.88,-270.5 118.88,-234.5 203.12,-234.5 203.12,-270.5"/>
<text xml:space="preserve" text-anchor="middle" x="161" y="-247.45" font-family="Times New Roman,serif" font-size="14.00">Fold = temp</text>
</g>
<!-- op_temp&#45;&gt;op_assign_Fold -->
<g id="edge8" class="edge">
<title>op_temp&#45;&gt;op_assign_Fold</title>
<path fill="none" stroke="black" d="M161.76,-307.31C161.65,-299.73 161.52,-290.6 161.4,-282.04"/>
<polygon fill="black" stroke="black" points="164.9,-281.99 161.26,-272.04 157.9,-282.09 164.9,-281.99"/>
</g>
<!-- op_add -->
<g id="node9" class="node">
<title>op_add</title>
<polygon fill="none" stroke="black" points="147,-109 93,-109 93,-73 147,-73 147,-109"/>
<text xml:space="preserve" text-anchor="middle" x="120" y="-85.95" font-family="Times New Roman,serif" font-size="14.00">+</text>
</g>
<!-- op_assign_Fnew -->
<g id="node10" class="node">
<title>op_assign_Fnew</title>
<polygon fill="none" stroke="black" points="58,-36 0,-36 0,0 58,0 58,-36"/>
<text xml:space="preserve" text-anchor="middle" x="29" y="-12.95" font-family="Times New Roman,serif" font-size="14.00">Fnew =</text>
</g>
<!-- op_add&#45;&gt;op_assign_Fnew -->
<g id="edge11" class="edge">
<title>op_add&#45;&gt;op_assign_Fnew</title>
<path fill="none" stroke="black" d="M97.97,-72.81C86.54,-63.9 72.39,-52.86 59.89,-43.1"/>
<polygon fill="black" stroke="black" points="62.37,-40.6 52.33,-37.21 58.07,-46.12 62.37,-40.6"/>
</g>
<!-- op_assign_Fnew&#45;&gt;Fnew_out -->
<g id="edge12" class="edge">
<title>op_assign_Fnew&#45;&gt;Fnew_out</title>
<path fill="none" stroke="black" d="M24.39,-36.37C21.01,-50.66 17,-71.5 17,-90 17,-326.5 17,-326.5 17,-326.5 17,-387.94 102.65,-405.79 156.43,-410.94"/>
<polygon fill="black" stroke="black" points="155.95,-414.41 166.2,-411.76 156.53,-407.44 155.95,-414.41"/>
<text xml:space="preserve" text-anchor="middle" x="44.75" y="-203.2" font-family="Times New Roman,serif" font-size="14.00">new value</text>
</g>
<!-- op_assign_Fold&#45;&gt;Fold_out -->
<g id="edge13" class="edge">
<title>op_assign_Fold&#45;&gt;Fold_out</title>
<path fill="none" stroke="black" d="M152.9,-234.41C147.1,-222.17 139.17,-205.45 132.55,-191.49"/>
<polygon fill="black" stroke="black" points="135.9,-190.37 128.45,-182.83 129.57,-193.37 135.9,-190.37"/>
<text xml:space="preserve" text-anchor="middle" x="171.92" y="-203.2" font-family="Times New Roman,serif" font-size="14.00">new value</text>
</g>
<!-- op_inc -->
<g id="node12" class="node">
<title>op_inc</title>
<polygon fill="none" stroke="black" points="415,-343.5 361,-343.5 361,-307.5 415,-307.5 415,-343.5"/>
<text xml:space="preserve" text-anchor="middle" x="388" y="-320.45" font-family="Times New Roman,serif" font-size="14.00">i++</text>
</g>
<!-- op_inc&#45;&gt;i_out -->
<g id="edge15" class="edge">
<title>op_inc&#45;&gt;i_out</title>
<path fill="none" stroke="black" d="M387.8,-343.85C387.66,-355.56 387.48,-371.29 387.33,-384.78"/>
<polygon fill="black" stroke="black" points="383.83,-384.36 387.22,-394.4 390.83,-384.44 383.83,-384.36"/>
<text xml:space="preserve" text-anchor="middle" x="415.34" y="-364.7" font-family="Times New Roman,serif" font-size="14.00">new value</text>
</g>
<!-- op_ans -->
<g id="node13" class="node">
<title>op_ans</title>
<polygon fill="none" stroke="black" points="342.88,-343.5 263.12,-343.5 263.12,-307.5 342.88,-307.5 342.88,-343.5"/>
<text xml:space="preserve" text-anchor="middle" x="303" y="-320.45" font-family="Times New Roman,serif" font-size="14.00">ans = Fnew</text>
</g>
<!-- ans_out -->
<g id="node18" class="node">
<title>ans_out</title>
<ellipse fill="lightgreen" stroke="black" cx="303" cy="-252.5" rx="27" ry="18"/>
<text xml:space="preserve" text-anchor="middle" x="303" y="-247.45" font-family="Times New Roman,serif" font-size="14.00">ans</text>
</g>
<!-- op_ans&#45;&gt;ans_out -->
<g id="edge17" class="edge">
<title>op_ans&#45;&gt;ans_out</title>
<path fill="none" stroke="black" d="M303,-307.31C303,-299.73 303,-290.6 303,-282.04"/>
<polygon fill="black" stroke="black" points="306.5,-282.04 303,-272.04 299.5,-282.04 306.5,-282.04"/>
</g>
<!-- op_return -->
<g id="node14" class="node">
<title>op_return</title>
<polygon fill="none" stroke="black" points="330,-182 276,-182 276,-146 330,-146 330,-182"/>
<text xml:space="preserve" text-anchor="middle" x="303" y="-158.95" font-family="Times New Roman,serif" font-size="14.00">return</text>
</g>
<!-- Fnew_out&#45;&gt;op_temp -->
<g id="edge7" class="edge">
<title>Fnew_out&#45;&gt;op_temp</title>
<path fill="none" stroke="black" d="M191.87,-396.32C186.76,-384.39 179.77,-368.05 173.84,-354.18"/>
<polygon fill="black" stroke="black" points="177.11,-352.93 169.96,-345.11 170.68,-355.68 177.11,-352.93"/>
</g>
<!-- Fnew_out&#45;&gt;op_add -->
<g id="edge9" class="edge">
<title>Fnew_out&#45;&gt;op_add</title>
<path fill="none" stroke="black" d="M210.19,-396.92C220.76,-380.15 235,-352.69 235,-326.5 235,-326.5 235,-326.5 235,-163 235,-126.11 191.62,-107.75 158.15,-99.08"/>
<polygon fill="black" stroke="black" points="159.26,-95.74 148.73,-96.84 157.65,-102.56 159.26,-95.74"/>
</g>
<!-- Fnew_out&#45;&gt;op_ans -->
<g id="edge16" class="edge">
<title>Fnew_out&#45;&gt;op_ans</title>
<path fill="none" stroke="black" d="M218.97,-400.03C228.33,-393.7 239.49,-385.79 249,-378 258.87,-369.91 269.15,-360.42 278.05,-351.81"/>
<polygon fill="black" stroke="black" points="280.34,-354.46 285.02,-344.95 275.44,-349.47 280.34,-354.46"/>
</g>
<!-- Fold_out&#45;&gt;op_add -->
<g id="edge10" class="edge">
<title>Fold_out&#45;&gt;op_add</title>
<path fill="none" stroke="black" d="M120,-145.81C120,-138.23 120,-129.1 120,-120.54"/>
<polygon fill="black" stroke="black" points="123.5,-120.54 120,-110.54 116.5,-120.54 123.5,-120.54"/>
</g>
<!-- i_out&#45;&gt;op_inc -->
<g id="edge14" class="edge">
<title>i_out&#45;&gt;op_inc</title>
<path fill="none" stroke="black" d="M385.63,-395.83C385.01,-385.82 384.51,-372.94 385,-361.5 385.09,-359.44 385.21,-357.32 385.34,-355.18"/>
<polygon fill="black" stroke="black" points="388.81,-355.68 386.09,-345.44 381.83,-355.14 388.81,-355.68"/>
</g>
<!-- ans_out&#45;&gt;op_return -->
<g id="edge18" class="edge">
<title>ans_out&#45;&gt;op_return</title>
<path fill="none" stroke="black" d="M303,-234.41C303,-222.76 303,-207.05 303,-193.52"/>
<polygon fill="black" stroke="black" points="306.5,-193.86 303,-183.86 299.5,-193.86 306.5,-193.86"/>
</g>
</g>
</svg>
