<?xml version="1.0" encoding="UTF-8" standalone="no"?>
<!DOCTYPE svg PUBLIC "-//W3C//DTD SVG 1.1//EN"
 "http://www.w3.org/Graphics/SVG/1.1/DTD/svg11.dtd">
<!-- Generated by graphviz version 13.1.2 (20250808.2320)
 -->
<!-- Title: fib_CFG Pages: 1 -->
<svg width="260pt" height="260pt"
 viewBox="0.00 0.00 260.00 260.00" xmlns="http://www.w3.org/2000/svg" xmlns:xlink="http://www.w3.org/1999/xlink">
<g id="graph0" class="graph" transform="scale(1 1) rotate(0) translate(4 255.75)">
<title>fib_CFG</title>
<polygon fill="white" stroke="none" points="-4,4 -4,-255.75 255.88,-255.75 255.88,4 -4,4"/>
<!-- N1 -->
<g id="node1" class="node">
<title>N1</title>
<path fill="none" stroke="black" d="M133.75,-251.75C133.75,-251.75 81.75,-251.75 81.75,-251.75 75.75,-251.75 69.75,-245.75 69.75,-239.75 69.75,-239.75 69.75,-208.5 69.75,-208.5 69.75,-202.5 75.75,-196.5 81.75,-196.5 81.75,-196.5 133.75,-196.5 133.75,-196.5 139.75,-196.5 145.75,-202.5 145.75,-208.5 145.75,-208.5 145.75,-239.75 145.75,-239.75 145.75,-245.75 139.75,-251.75 133.75,-251.75"/>
<text xml:space="preserve" text-anchor="middle" x="107.75" y="-234.45" font-family="Helvetica,sans-Serif" font-size="14.00">Fnew = 1;</text>
<text xml:space="preserve" text-anchor="middle" x="107.75" y="-218.7" font-family="Helvetica,sans-Serif" font-size="14.00">Fold = 0;</text>
<text xml:space="preserve" text-anchor="middle" x="107.75" y="-202.95" font-family="Helvetica,sans-Serif" font-size="14.00">i = 2;</text>
</g>
<!-- N2 -->
<g id="node2" class="node">
<title>N2</title>
<path fill="none" stroke="black" d="M164.5,-159.5C164.5,-159.5 51,-159.5 51,-159.5 45,-159.5 39,-153.5 39,-147.5 39,-147.5 39,-135.5 39,-135.5 39,-129.5 45,-123.5 51,-123.5 51,-123.5 164.5,-123.5 164.5,-123.5 170.5,-123.5 176.5,-129.5 176.5,-135.5 176.5,-135.5 176.5,-147.5 176.5,-147.5 176.5,-153.5 170.5,-159.5 164.5,-159.5"/>
<text xml:space="preserve" text-anchor="middle" x="107.75" y="-136.07" font-family="Helvetica,sans-Serif" font-size="14.00">if (i &lt;= 30 &amp;&amp; i &lt;= n)</text>
</g>
<!-- N1&#45;&gt;N2 -->
<g id="edge1" class="edge">
<title>N1&#45;&gt;N2</title>
<path fill="none" stroke="black" d="M107.75,-196.28C107.75,-188.15 107.75,-179.2 107.75,-170.98"/>
<polygon fill="black" stroke="black" points="111.25,-171.13 107.75,-161.13 104.25,-171.13 111.25,-171.13"/>
</g>
<!-- N3 -->
<g id="node3" class="node">
<title>N3</title>
<path fill="none" stroke="black" d="M131.5,-71C131.5,-71 12,-71 12,-71 6,-71 0,-65 0,-59 0,-59 0,-12 0,-12 0,-6 6,0 12,0 12,0 131.5,0 131.5,0 137.5,0 143.5,-6 143.5,-12 143.5,-12 143.5,-59 143.5,-59 143.5,-65 137.5,-71 131.5,-71"/>
<text xml:space="preserve" text-anchor="middle" x="71.75" y="-53.7" font-family="Helvetica,sans-Serif" font-size="14.00">temp = Fnew;</text>
<text xml:space="preserve" text-anchor="middle" x="71.75" y="-37.95" font-family="Helvetica,sans-Serif" font-size="14.00">Fnew = Fnew + Fold;</text>
<text xml:space="preserve" text-anchor="middle" x="71.75" y="-22.2" font-family="Helvetica,sans-Serif" font-size="14.00">Fold = temp;</text>
<text xml:space="preserve" text-anchor="middle" x="71.75" y="-6.45" font-family="Helvetica,sans-Serif" font-size="14.00">i++;</text>
</g>
<!-- N2&#45;&gt;N3 -->
<g id="edge2" class="edge">
<title>N2&#45;&gt;N3</title>
<path fill="none" stroke="black" d="M85.39,-123.34C80.3,-118.2 75.56,-112.15 72.75,-105.5 69.74,-98.38 68.19,-90.47 67.54,-82.62"/>
<polygon fill="black" stroke="black" points="71.04,-82.65 67.23,-72.77 64.05,-82.87 71.04,-82.65"/>
<text xml:space="preserve" text-anchor="middle" x="83.25" y="-92.2" font-family="Times New Roman,serif" font-size="14.00">true</text>
</g>
<!-- N4 -->
<g id="node4" class="node">
<title>N4</title>
<path fill="none" stroke="black" d="M239.88,-55.25C239.88,-55.25 173.62,-55.25 173.62,-55.25 167.62,-55.25 161.62,-49.25 161.62,-43.25 161.62,-43.25 161.62,-27.75 161.62,-27.75 161.62,-21.75 167.62,-15.75 173.62,-15.75 173.62,-15.75 239.88,-15.75 239.88,-15.75 245.88,-15.75 251.88,-21.75 251.88,-27.75 251.88,-27.75 251.88,-43.25 251.88,-43.25 251.88,-49.25 245.88,-55.25 239.88,-55.25"/>
<text xml:space="preserve" text-anchor="middle" x="206.75" y="-37.95" font-family="Helvetica,sans-Serif" font-size="14.00">ans = Fnew;</text>
<text xml:space="preserve" text-anchor="middle" x="206.75" y="-22.2" font-family="Helvetica,sans-Serif" font-size="14.00">return ans;</text>
</g>
<!-- N2&#45;&gt;N4 -->
<g id="edge3" class="edge">
<title>N2&#45;&gt;N4</title>
<path fill="none" stroke="black" d="M124.1,-123.33C139.53,-107.12 162.91,-82.55 180.88,-63.68"/>
<polygon fill="black" stroke="black" points="183.3,-66.21 187.66,-56.56 178.23,-61.39 183.3,-66.21"/>
<text xml:space="preserve" text-anchor="middle" x="167.03" y="-92.2" font-family="Times New Roman,serif" font-size="14.00">false</text>
</g>
<!-- N3&#45;&gt;N2 -->
<g id="edge4" class="edge">
<title>N3&#45;&gt;N2</title>
<path fill="none" stroke="black" d="M87.07,-71.27C89.44,-77.14 91.76,-83.21 93.75,-89 96.31,-96.45 98.71,-104.63 100.78,-112.23"/>
<polygon fill="black" stroke="black" points="97.34,-112.91 103.26,-121.7 104.11,-111.14 97.34,-112.91"/>
</g>
</g>
</svg>
