<?xml version="1.0" encoding="UTF-8" standalone="no"?>
<!DOCTYPE svg PUBLIC "-//W3C//DTD SVG 1.1//EN"
 "http://www.w3.org/Graphics/SVG/1.1/DTD/svg11.dtd">
<!-- Generated by graphviz version 13.1.2 (20250808.2320)
 -->
<!-- Title: foo_DFG Pages: 1 -->
<svg width="530pt" height="260pt"
 viewBox="0.00 0.00 530.00 260.00" xmlns="http://www.w3.org/2000/svg" xmlns:xlink="http://www.w3.org/1999/xlink">
<g id="graph0" class="graph" transform="scale(1 1) rotate(0) translate(4 256)">
<title>foo_DFG</title>
<polygon fill="white" stroke="none" points="-4,4 -4,-256 525.82,-256 525.82,4 -4,4"/>
<!-- i -->
<g id="node1" class="node">
<title>i</title>
<ellipse fill="lightblue" stroke="black" cx="143.3" cy="-234" rx="27" ry="18"/>
<text xml:space="preserve" text-anchor="middle" x="143.3" y="-228.95" font-family="Times New Roman,serif" font-size="14.00">i</text>
</g>
<!-- access_keys -->
<g id="node8" class="node">
<title>access_keys</title>
<polygon fill="none" stroke="black" points="242.3,-180 188.3,-180 188.3,-144 242.3,-144 242.3,-180"/>
<text xml:space="preserve" text-anchor="middle" x="215.3" y="-156.95" font-family="Times New Roman,serif" font-size="14.00">[]</text>
</g>
<!-- i&#45;&gt;access_keys -->
<g id="edge1" class="edge">
<title>i&#45;&gt;access_keys</title>
<path fill="none" stroke="black" d="M158.22,-218.5C167.19,-209.77 178.86,-198.43 189.31,-188.28"/>
<polygon fill="black" stroke="black" points="191.53,-190.99 196.26,-181.51 186.65,-185.97 191.53,-190.99"/>
</g>
<!-- access_answer -->
<g id="node9" class="node">
<title>access_answer</title>
<polygon fill="none" stroke="black" points="314.3,-180 260.3,-180 260.3,-144 314.3,-144 314.3,-180"/>
<text xml:space="preserve" text-anchor="middle" x="287.3" y="-156.95" font-family="Times New Roman,serif" font-size="14.00">[]</text>
</g>
<!-- i&#45;&gt;access_answer -->
<g id="edge11" class="edge">
<title>i&#45;&gt;access_answer</title>
<path fill="none" stroke="black" d="M164.86,-222.52C187.23,-211.64 222.67,-194.42 249.67,-181.29"/>
<polygon fill="black" stroke="black" points="251.1,-184.49 258.57,-176.97 248.04,-178.19 251.1,-184.49"/>
</g>
<!-- j -->
<g id="node2" class="node">
<title>j</title>
<ellipse fill="lightblue" stroke="black" cx="215.3" cy="-234" rx="27" ry="18"/>
<text xml:space="preserve" text-anchor="middle" x="215.3" y="-228.95" font-family="Times New Roman,serif" font-size="14.00">j</text>
</g>
<!-- j&#45;&gt;access_keys -->
<g id="edge2" class="edge">
<title>j&#45;&gt;access_keys</title>
<path fill="none" stroke="black" d="M215.3,-215.7C215.3,-208.41 215.3,-199.73 215.3,-191.54"/>
<polygon fill="black" stroke="black" points="218.8,-191.62 215.3,-181.62 211.8,-191.62 218.8,-191.62"/>
</g>
<!-- j&#45;&gt;access_answer -->
<g id="edge12" class="edge">
<title>j&#45;&gt;access_answer</title>
<path fill="none" stroke="black" d="M230.22,-218.5C239.19,-209.77 250.86,-198.43 261.31,-188.28"/>
<polygon fill="black" stroke="black" points="263.53,-190.99 268.26,-181.51 258.65,-185.97 263.53,-190.99"/>
</g>
<!-- k -->
<g id="node3" class="node">
<title>k</title>
<ellipse fill="lightblue" stroke="black" cx="287.3" cy="-234" rx="27" ry="18"/>
<text xml:space="preserve" text-anchor="middle" x="287.3" y="-228.95" font-family="Times New Roman,serif" font-size="14.00">k</text>
</g>
<!-- k&#45;&gt;access_keys -->
<g id="edge3" class="edge">
<title>k&#45;&gt;access_keys</title>
<path fill="none" stroke="black" d="M272.39,-218.5C263.42,-209.77 251.75,-198.43 241.3,-188.28"/>
<polygon fill="black" stroke="black" points="243.96,-185.97 234.35,-181.51 239.08,-190.99 243.96,-185.97"/>
</g>
<!-- k&#45;&gt;access_answer -->
<g id="edge13" class="edge">
<title>k&#45;&gt;access_answer</title>
<path fill="none" stroke="black" d="M287.3,-215.7C287.3,-208.41 287.3,-199.73 287.3,-191.54"/>
<polygon fill="black" stroke="black" points="290.8,-191.62 287.3,-181.62 283.8,-191.62 290.8,-191.62"/>
</g>
<!-- l -->
<g id="node4" class="node">
<title>l</title>
<ellipse fill="lightblue" stroke="black" cx="359.3" cy="-234" rx="27" ry="18"/>
<text xml:space="preserve" text-anchor="middle" x="359.3" y="-228.95" font-family="Times New Roman,serif" font-size="14.00">l</text>
</g>
<!-- l&#45;&gt;access_keys -->
<g id="edge4" class="edge">
<title>l&#45;&gt;access_keys</title>
<path fill="none" stroke="black" d="M337.75,-222.52C315.37,-211.64 279.94,-194.42 252.94,-181.29"/>
<polygon fill="black" stroke="black" points="254.57,-178.19 244.04,-176.97 251.5,-184.49 254.57,-178.19"/>
</g>
<!-- l&#45;&gt;access_answer -->
<g id="edge14" class="edge">
<title>l&#45;&gt;access_answer</title>
<path fill="none" stroke="black" d="M344.39,-218.5C335.42,-209.77 323.75,-198.43 313.3,-188.28"/>
<polygon fill="black" stroke="black" points="315.96,-185.97 306.35,-181.51 311.08,-190.99 315.96,-185.97"/>
</g>
<!-- x -->
<g id="node5" class="node">
<title>x</title>
<ellipse fill="lightblue" stroke="black" cx="132.3" cy="-162" rx="38.04" ry="18"/>
<text xml:space="preserve" text-anchor="middle" x="132.3" y="-156.95" font-family="Times New Roman,serif" font-size="14.00">x (400)</text>
</g>
<!-- eq -->
<g id="node10" class="node">
<title>eq</title>
<polygon fill="none" stroke="black" points="201.3,-108 147.3,-108 147.3,-72 201.3,-72 201.3,-108"/>
<text xml:space="preserve" text-anchor="middle" x="174.3" y="-84.95" font-family="Times New Roman,serif" font-size="14.00">==</text>
</g>
<!-- x&#45;&gt;eq -->
<g id="edge7" class="edge">
<title>x&#45;&gt;eq</title>
<path fill="none" stroke="black" d="M142.26,-144.41C146.98,-136.54 152.75,-126.93 158.08,-118.04"/>
<polygon fill="black" stroke="black" points="160.91,-120.12 163.06,-109.74 154.91,-116.52 160.91,-120.12"/>
</g>
<!-- keys -->
<g id="node6" class="node">
<title>keys</title>
<ellipse fill="lightblue" stroke="black" cx="49.3" cy="-234" rx="49.3" ry="18"/>
<text xml:space="preserve" text-anchor="middle" x="49.3" y="-228.95" font-family="Times New Roman,serif" font-size="14.00">keys array</text>
</g>
<!-- keys&#45;&gt;access_keys -->
<g id="edge5" class="edge">
<title>keys&#45;&gt;access_keys</title>
<path fill="none" stroke="black" d="M82.1,-220.2C106.34,-210.61 140.35,-196.9 177.75,-180.58"/>
<polygon fill="black" stroke="black" points="178.72,-183.98 186.47,-176.76 175.91,-177.57 178.72,-183.98"/>
</g>
<!-- answer -->
<g id="node7" class="node">
<title>answer</title>
<ellipse fill="lightblue" stroke="black" cx="463.3" cy="-234" rx="58.52" ry="18"/>
<text xml:space="preserve" text-anchor="middle" x="463.3" y="-228.95" font-family="Times New Roman,serif" font-size="14.00">answer array</text>
</g>
<!-- answer&#45;&gt;access_answer -->
<g id="edge15" class="edge">
<title>answer&#45;&gt;access_answer</title>
<path fill="none" stroke="black" d="M428.53,-219.17C398.69,-207.3 355.77,-190.23 325.09,-178.03"/>
<polygon fill="black" stroke="black" points="326.78,-174.93 316.19,-174.49 324.19,-181.44 326.78,-174.93"/>
</g>
<!-- access_keys&#45;&gt;eq -->
<g id="edge6" class="edge">
<title>access_keys&#45;&gt;eq</title>
<path fill="none" stroke="black" d="M205.17,-143.7C200.6,-135.9 195.1,-126.51 190.02,-117.83"/>
<polygon fill="black" stroke="black" points="193.16,-116.27 185.09,-109.41 187.12,-119.81 193.16,-116.27"/>
</g>
<!-- add -->
<g id="node11" class="node">
<title>add</title>
<polygon fill="none" stroke="black" points="278.3,-108 224.3,-108 224.3,-72 278.3,-72 278.3,-108"/>
<text xml:space="preserve" text-anchor="middle" x="251.3" y="-84.95" font-family="Times New Roman,serif" font-size="14.00">+</text>
</g>
<!-- access_keys&#45;&gt;add -->
<g id="edge8" class="edge">
<title>access_keys&#45;&gt;add</title>
<path fill="none" stroke="black" d="M224.2,-143.7C228.17,-135.98 232.94,-126.71 237.36,-118.11"/>
<polygon fill="black" stroke="black" points="240.35,-119.94 241.82,-109.45 234.13,-116.74 240.35,-119.94"/>
</g>
<!-- access_answer&#45;&gt;add -->
<g id="edge9" class="edge">
<title>access_answer&#45;&gt;add</title>
<path fill="none" stroke="black" d="M278.41,-143.7C274.44,-135.98 269.67,-126.71 265.25,-118.11"/>
<polygon fill="black" stroke="black" points="268.48,-116.74 260.79,-109.45 262.25,-119.94 268.48,-116.74"/>
</g>
<!-- result -->
<g id="node12" class="node">
<title>result</title>
<ellipse fill="lightgreen" stroke="black" cx="251.3" cy="-18" rx="31.39" ry="18"/>
<text xml:space="preserve" text-anchor="middle" x="251.3" y="-12.95" font-family="Times New Roman,serif" font-size="14.00">result</text>
</g>
<!-- add&#45;&gt;result -->
<g id="edge10" class="edge">
<title>add&#45;&gt;result</title>
<path fill="none" stroke="black" d="M251.3,-71.7C251.3,-64.41 251.3,-55.73 251.3,-47.54"/>
<polygon fill="black" stroke="black" points="254.8,-47.62 251.3,-37.62 247.8,-47.62 254.8,-47.62"/>
</g>
</g>
</svg>
