<?xml version="1.0" encoding="UTF-8" standalone="no"?>
<!DOCTYPE svg PUBLIC "-//W3C//DTD SVG 1.1//EN"
 "http://www.w3.org/Graphics/SVG/1.1/DTD/svg11.dtd">
<!-- Generated by graphviz version 13.1.2 (20250808.2320)
 -->
<!-- Title: fibcall_CFG Pages: 1 -->
<svg width="334pt" height="1028pt"
 viewBox="0.00 0.00 334.00 1028.00" xmlns="http://www.w3.org/2000/svg" xmlns:xlink="http://www.w3.org/1999/xlink">
<g id="graph0" class="graph" transform="scale(1 1) rotate(0) translate(4 1023.75)">
<title>fibcall_CFG</title>
<polygon fill="white" stroke="none" points="-4,4 -4,-1023.75 329.5,-1023.75 329.5,4 -4,4"/>
<!-- fib_entry -->
<g id="node1" class="node">
<title>fib_entry</title>
<path fill="none" stroke="black" d="M263.12,-727.75C263.12,-727.75 223.12,-727.75 223.12,-727.75 217.12,-727.75 211.12,-721.75 211.12,-715.75 211.12,-715.75 211.12,-703.75 211.12,-703.75 211.12,-697.75 217.12,-691.75 223.12,-691.75 223.12,-691.75 263.12,-691.75 263.12,-691.75 269.12,-691.75 275.12,-697.75 275.12,-703.75 275.12,-703.75 275.12,-715.75 275.12,-715.75 275.12,-721.75 269.12,-727.75 263.12,-727.75"/>
<text xml:space="preserve" text-anchor="middle" x="243.12" y="-704.33" font-family="Helvetica,sans-Serif" font-size="14.00">fib entry</text>
</g>
<!-- fib_decl -->
<g id="node2" class="node">
<title>fib_decl</title>
<path fill="none" stroke="black" d="M277,-654.75C277,-654.75 119.25,-654.75 119.25,-654.75 113.25,-654.75 107.25,-648.75 107.25,-642.75 107.25,-642.75 107.25,-630.75 107.25,-630.75 107.25,-624.75 113.25,-618.75 119.25,-618.75 119.25,-618.75 277,-618.75 277,-618.75 283,-618.75 289,-624.75 289,-630.75 289,-630.75 289,-642.75 289,-642.75 289,-648.75 283,-654.75 277,-654.75"/>
<text xml:space="preserve" text-anchor="middle" x="198.12" y="-631.33" font-family="Helvetica,sans-Serif" font-size="14.00">int i, Fnew, Fold, temp, ans;</text>
</g>
<!-- fib_entry&#45;&gt;fib_decl -->
<g id="edge1" class="edge">
<title>fib_entry&#45;&gt;fib_decl</title>
<path fill="none" stroke="black" d="M232.23,-691.56C227.04,-683.37 220.7,-673.37 214.91,-664.23"/>
<polygon fill="black" stroke="black" points="218.04,-662.63 209.73,-656.06 212.13,-666.38 218.04,-662.63"/>
</g>
<!-- fib_init -->
<g id="node3" class="node">
<title>fib_init</title>
<path fill="none" stroke="black" d="M211.62,-581.75C211.62,-581.75 102.62,-581.75 102.62,-581.75 96.62,-581.75 90.62,-575.75 90.62,-569.75 90.62,-569.75 90.62,-557.75 90.62,-557.75 90.62,-551.75 96.62,-545.75 102.62,-545.75 102.62,-545.75 211.62,-545.75 211.62,-545.75 217.62,-545.75 223.62,-551.75 223.62,-557.75 223.62,-557.75 223.62,-569.75 223.62,-569.75 223.62,-575.75 217.62,-581.75 211.62,-581.75"/>
<text xml:space="preserve" text-anchor="middle" x="157.12" y="-558.33" font-family="Helvetica,sans-Serif" font-size="14.00">Fnew = 1; Fold = 0;</text>
</g>
<!-- fib_decl&#45;&gt;fib_init -->
<g id="edge2" class="edge">
<title>fib_decl&#45;&gt;fib_init</title>
<path fill="none" stroke="black" d="M188.2,-618.56C183.52,-610.45 177.82,-600.59 172.59,-591.53"/>
<polygon fill="black" stroke="black" points="175.75,-590 167.72,-583.09 169.69,-593.5 175.75,-590"/>
</g>
<!-- fib_loop_init -->
<g id="node4" class="node">
<title>fib_loop_init</title>
<path fill="none" stroke="black" d="M142.12,-508.75C142.12,-508.75 112.12,-508.75 112.12,-508.75 106.12,-508.75 100.12,-502.75 100.12,-496.75 100.12,-496.75 100.12,-484.75 100.12,-484.75 100.12,-478.75 106.12,-472.75 112.12,-472.75 112.12,-472.75 142.12,-472.75 142.12,-472.75 148.12,-472.75 154.12,-478.75 154.12,-484.75 154.12,-484.75 154.12,-496.75 154.12,-496.75 154.12,-502.75 148.12,-508.75 142.12,-508.75"/>
<text xml:space="preserve" text-anchor="middle" x="127.12" y="-485.32" font-family="Helvetica,sans-Serif" font-size="14.00">i = 2</text>
</g>
<!-- fib_init&#45;&gt;fib_loop_init -->
<g id="edge3" class="edge">
<title>fib_init&#45;&gt;fib_loop_init</title>
<path fill="none" stroke="black" d="M149.86,-545.56C146.51,-537.63 142.45,-528.01 138.69,-519.11"/>
<polygon fill="black" stroke="black" points="142.03,-518.02 134.91,-510.17 135.58,-520.75 142.03,-518.02"/>
</g>
<!-- fib_cond -->
<g id="node5" class="node">
<title>fib_cond</title>
<path fill="none" stroke="black" d="M166.12,-435.75C166.12,-435.75 72.12,-435.75 72.12,-435.75 66.12,-435.75 60.12,-429.75 60.12,-423.75 60.12,-423.75 60.12,-411.75 60.12,-411.75 60.12,-405.75 66.12,-399.75 72.12,-399.75 72.12,-399.75 166.12,-399.75 166.12,-399.75 172.12,-399.75 178.12,-405.75 178.12,-411.75 178.12,-411.75 178.12,-423.75 178.12,-423.75 178.12,-429.75 172.12,-435.75 166.12,-435.75"/>
<text xml:space="preserve" text-anchor="middle" x="119.12" y="-412.32" font-family="Helvetica,sans-Serif" font-size="14.00">i &lt;= 30 &amp;&amp; i &lt;= n</text>
</g>
<!-- fib_loop_init&#45;&gt;fib_cond -->
<g id="edge4" class="edge">
<title>fib_loop_init&#45;&gt;fib_cond</title>
<path fill="none" stroke="black" d="M125.19,-472.56C124.32,-464.89 123.28,-455.64 122.31,-446.99"/>
<polygon fill="black" stroke="black" points="125.81,-446.83 121.21,-437.28 118.85,-447.61 125.81,-446.83"/>
</g>
<!-- fib_body -->
<g id="node6" class="node">
<title>fib_body</title>
<path fill="none" stroke="black" d="M277.88,-347.25C277.88,-347.25 158.38,-347.25 158.38,-347.25 152.38,-347.25 146.38,-341.25 146.38,-335.25 146.38,-335.25 146.38,-304 146.38,-304 146.38,-298 152.38,-292 158.38,-292 158.38,-292 277.88,-292 277.88,-292 283.88,-292 289.88,-298 289.88,-304 289.88,-304 289.88,-335.25 289.88,-335.25 289.88,-341.25 283.88,-347.25 277.88,-347.25"/>
<text xml:space="preserve" text-anchor="middle" x="218.12" y="-329.95" font-family="Helvetica,sans-Serif" font-size="14.00">temp = Fnew;</text>
<text xml:space="preserve" text-anchor="middle" x="218.12" y="-314.2" font-family="Helvetica,sans-Serif" font-size="14.00">Fnew = Fnew + Fold;</text>
<text xml:space="preserve" text-anchor="middle" x="218.12" y="-298.45" font-family="Helvetica,sans-Serif" font-size="14.00">Fold = temp;</text>
</g>
<!-- fib_cond&#45;&gt;fib_body -->
<g id="edge5" class="edge">
<title>fib_cond&#45;&gt;fib_body</title>
<path fill="none" stroke="black" d="M136.82,-399.56C149.52,-387.24 167.05,-370.22 182.58,-355.14"/>
<polygon fill="black" stroke="black" points="184.66,-357.99 189.4,-348.52 179.79,-352.97 184.66,-357.99"/>
<text xml:space="preserve" text-anchor="middle" x="182.09" y="-368.45" font-family="Times New Roman,serif" font-size="14.00">true</text>
</g>
<!-- fib_ans -->
<g id="node8" class="node">
<title>fib_ans</title>
<path fill="none" stroke="black" d="M78.25,-337.62C78.25,-337.62 12,-337.62 12,-337.62 6,-337.62 0,-331.62 0,-325.62 0,-325.62 0,-313.62 0,-313.62 0,-307.62 6,-301.62 12,-301.62 12,-301.62 78.25,-301.62 78.25,-301.62 84.25,-301.62 90.25,-307.62 90.25,-313.62 90.25,-313.62 90.25,-325.62 90.25,-325.62 90.25,-331.62 84.25,-337.62 78.25,-337.62"/>
<text xml:space="preserve" text-anchor="middle" x="45.12" y="-314.2" font-family="Helvetica,sans-Serif" font-size="14.00">ans = Fnew;</text>
</g>
<!-- fib_cond&#45;&gt;fib_ans -->
<g id="edge6" class="edge">
<title>fib_cond&#45;&gt;fib_ans</title>
<path fill="none" stroke="black" d="M96.33,-399.53C90.16,-394.23 83.77,-388.11 78.62,-381.75 70.38,-371.55 63.11,-359.03 57.47,-347.99"/>
<polygon fill="black" stroke="black" points="60.78,-346.78 53.25,-339.33 54.49,-349.86 60.78,-346.78"/>
<text xml:space="preserve" text-anchor="middle" x="91.38" y="-368.45" font-family="Times New Roman,serif" font-size="14.00">false</text>
</g>
<!-- fib_inc -->
<g id="node7" class="node">
<title>fib_inc</title>
<path fill="none" stroke="black" d="M193.12,-255C193.12,-255 163.12,-255 163.12,-255 157.12,-255 151.12,-249 151.12,-243 151.12,-243 151.12,-231 151.12,-231 151.12,-225 157.12,-219 163.12,-219 163.12,-219 193.12,-219 193.12,-219 199.12,-219 205.12,-225 205.12,-231 205.12,-231 205.12,-243 205.12,-243 205.12,-249 199.12,-255 193.12,-255"/>
<text xml:space="preserve" text-anchor="middle" x="178.12" y="-231.57" font-family="Helvetica,sans-Serif" font-size="14.00">i++</text>
</g>
<!-- fib_body&#45;&gt;fib_inc -->
<g id="edge7" class="edge">
<title>fib_body&#45;&gt;fib_inc</title>
<path fill="none" stroke="black" d="M204.81,-291.78C200.59,-283.27 195.92,-273.87 191.68,-265.33"/>
<polygon fill="black" stroke="black" points="194.87,-263.88 187.29,-256.47 188.6,-266.99 194.87,-263.88"/>
</g>
<!-- fib_inc&#45;&gt;fib_cond -->
<g id="edge8" class="edge">
<title>fib_inc&#45;&gt;fib_cond</title>
<path fill="none" stroke="black" d="M161.57,-255.05C152.87,-265.02 142.85,-278.32 137.12,-292 124.07,-323.19 120.22,-362.18 119.21,-388.19"/>
<polygon fill="black" stroke="black" points="115.72,-387.89 118.97,-397.97 122.72,-388.07 115.72,-387.89"/>
</g>
<!-- fib_return -->
<g id="node9" class="node">
<title>fib_return</title>
<path fill="none" stroke="black" d="M105.38,-255C105.38,-255 48.88,-255 48.88,-255 42.88,-255 36.88,-249 36.88,-243 36.88,-243 36.88,-231 36.88,-231 36.88,-225 42.88,-219 48.88,-219 48.88,-219 105.38,-219 105.38,-219 111.38,-219 117.38,-225 117.38,-231 117.38,-231 117.38,-243 117.38,-243 117.38,-249 111.38,-255 105.38,-255"/>
<text xml:space="preserve" text-anchor="middle" x="77.12" y="-231.57" font-family="Helvetica,sans-Serif" font-size="14.00">return ans;</text>
</g>
<!-- fib_ans&#45;&gt;fib_return -->
<g id="edge9" class="edge">
<title>fib_ans&#45;&gt;fib_return</title>
<path fill="none" stroke="black" d="M52.07,-301.13C56.14,-290.88 61.37,-277.7 66,-266.03"/>
<polygon fill="black" stroke="black" points="69.2,-267.45 69.64,-256.87 62.69,-264.87 69.2,-267.45"/>
</g>
<!-- fib_exit -->
<g id="node10" class="node">
<title>fib_exit</title>
<path fill="none" stroke="black" d="M237.62,-182C237.62,-182 206.62,-182 206.62,-182 200.62,-182 194.62,-176 194.62,-170 194.62,-170 194.62,-158 194.62,-158 194.62,-152 200.62,-146 206.62,-146 206.62,-146 237.62,-146 237.62,-146 243.62,-146 249.62,-152 249.62,-158 249.62,-158 249.62,-170 249.62,-170 249.62,-176 243.62,-182 237.62,-182"/>
<text xml:space="preserve" text-anchor="middle" x="222.12" y="-158.57" font-family="Helvetica,sans-Serif" font-size="14.00">fib exit</text>
</g>
<!-- fib_return&#45;&gt;fib_exit -->
<g id="edge10" class="edge">
<title>fib_return&#45;&gt;fib_exit</title>
<path fill="none" stroke="black" d="M112.6,-218.63C134.31,-208 162.08,-194.4 184.23,-183.56"/>
<polygon fill="black" stroke="black" points="185.48,-186.84 192.92,-179.3 182.4,-180.56 185.48,-186.84"/>
</g>
<!-- main_return -->
<g id="node15" class="node">
<title>main_return</title>
<path fill="none" stroke="black" d="M311.25,-109C311.25,-109 269,-109 269,-109 263,-109 257,-103 257,-97 257,-97 257,-85 257,-85 257,-79 263,-73 269,-73 269,-73 311.25,-73 311.25,-73 317.25,-73 323.25,-79 323.25,-85 323.25,-85 323.25,-97 323.25,-97 323.25,-103 317.25,-109 311.25,-109"/>
<text xml:space="preserve" text-anchor="middle" x="290.12" y="-85.58" font-family="Helvetica,sans-Serif" font-size="14.00">return a;</text>
</g>
<!-- fib_exit&#45;&gt;main_return -->
<g id="edge17" class="edge">
<title>fib_exit&#45;&gt;main_return</title>
<path fill="none" stroke="blue" stroke-dasharray="5,2" d="M238.59,-145.81C246.77,-137.27 256.82,-126.77 265.87,-117.32"/>
<polygon fill="blue" stroke="blue" points="268.38,-119.76 272.77,-110.12 263.32,-114.92 268.38,-119.76"/>
</g>
<!-- main_entry -->
<g id="node11" class="node">
<title>main_entry</title>
<path fill="none" stroke="black" d="M308,-1019.75C308,-1019.75 252.25,-1019.75 252.25,-1019.75 246.25,-1019.75 240.25,-1013.75 240.25,-1007.75 240.25,-1007.75 240.25,-995.75 240.25,-995.75 240.25,-989.75 246.25,-983.75 252.25,-983.75 252.25,-983.75 308,-983.75 308,-983.75 314,-983.75 320,-989.75 320,-995.75 320,-995.75 320,-1007.75 320,-1007.75 320,-1013.75 314,-1019.75 308,-1019.75"/>
<text xml:space="preserve" text-anchor="middle" x="280.12" y="-996.33" font-family="Helvetica,sans-Serif" font-size="14.00">main entry</text>
</g>
<!-- main_decl -->
<g id="node12" class="node">
<title>main_decl</title>
<path fill="none" stroke="black" d="M295.12,-946.75C295.12,-946.75 265.12,-946.75 265.12,-946.75 259.12,-946.75 253.12,-940.75 253.12,-934.75 253.12,-934.75 253.12,-922.75 253.12,-922.75 253.12,-916.75 259.12,-910.75 265.12,-910.75 265.12,-910.75 295.12,-910.75 295.12,-910.75 301.12,-910.75 307.12,-916.75 307.12,-922.75 307.12,-922.75 307.12,-934.75 307.12,-934.75 307.12,-940.75 301.12,-946.75 295.12,-946.75"/>
<text xml:space="preserve" text-anchor="middle" x="280.12" y="-923.33" font-family="Helvetica,sans-Serif" font-size="14.00">int a;</text>
</g>
<!-- main_entry&#45;&gt;main_decl -->
<g id="edge11" class="edge">
<title>main_entry&#45;&gt;main_decl</title>
<path fill="none" stroke="black" d="M280.12,-983.56C280.12,-975.98 280.12,-966.85 280.12,-958.29"/>
<polygon fill="black" stroke="black" points="283.63,-958.29 280.13,-948.29 276.63,-958.29 283.63,-958.29"/>
</g>
<!-- main_assign -->
<g id="node13" class="node">
<title>main_assign</title>
<path fill="none" stroke="black" d="M297.12,-873.75C297.12,-873.75 263.12,-873.75 263.12,-873.75 257.12,-873.75 251.12,-867.75 251.12,-861.75 251.12,-861.75 251.12,-849.75 251.12,-849.75 251.12,-843.75 257.12,-837.75 263.12,-837.75 263.12,-837.75 297.12,-837.75 297.12,-837.75 303.12,-837.75 309.12,-843.75 309.12,-849.75 309.12,-849.75 309.12,-861.75 309.12,-861.75 309.12,-867.75 303.12,-873.75 297.12,-873.75"/>
<text xml:space="preserve" text-anchor="middle" x="280.12" y="-850.33" font-family="Helvetica,sans-Serif" font-size="14.00">a = 30;</text>
</g>
<!-- main_decl&#45;&gt;main_assign -->
<g id="edge12" class="edge">
<title>main_decl&#45;&gt;main_assign</title>
<path fill="none" stroke="black" d="M280.12,-910.56C280.12,-902.98 280.12,-893.85 280.12,-885.29"/>
<polygon fill="black" stroke="black" points="283.63,-885.29 280.13,-875.29 276.63,-885.29 283.63,-885.29"/>
</g>
<!-- main_call -->
<g id="node14" class="node">
<title>main_call</title>
<path fill="none" stroke="black" d="M295.12,-800.75C295.12,-800.75 265.12,-800.75 265.12,-800.75 259.12,-800.75 253.12,-794.75 253.12,-788.75 253.12,-788.75 253.12,-776.75 253.12,-776.75 253.12,-770.75 259.12,-764.75 265.12,-764.75 265.12,-764.75 295.12,-764.75 295.12,-764.75 301.12,-764.75 307.12,-770.75 307.12,-776.75 307.12,-776.75 307.12,-788.75 307.12,-788.75 307.12,-794.75 301.12,-800.75 295.12,-800.75"/>
<text xml:space="preserve" text-anchor="middle" x="280.12" y="-777.33" font-family="Helvetica,sans-Serif" font-size="14.00">fib(a);</text>
</g>
<!-- main_assign&#45;&gt;main_call -->
<g id="edge13" class="edge">
<title>main_assign&#45;&gt;main_call</title>
<path fill="none" stroke="black" d="M280.12,-837.56C280.12,-829.98 280.12,-820.85 280.12,-812.29"/>
<polygon fill="black" stroke="black" points="283.63,-812.29 280.13,-802.29 276.63,-812.29 283.63,-812.29"/>
</g>
<!-- main_call&#45;&gt;fib_entry -->
<g id="edge16" class="edge">
<title>main_call&#45;&gt;fib_entry</title>
<path fill="none" stroke="blue" stroke-dasharray="5,2" d="M271.17,-764.56C266.99,-756.54 261.91,-746.8 257.23,-737.82"/>
<polygon fill="blue" stroke="blue" points="260.42,-736.37 252.7,-729.12 254.22,-739.61 260.42,-736.37"/>
</g>
<!-- main_call&#45;&gt;main_return -->
<g id="edge14" class="edge">
<title>main_call&#45;&gt;main_return</title>
<path fill="none" stroke="black" d="M295.58,-764.43C306.1,-750.83 318.12,-730.88 318.12,-710.75 318.12,-710.75 318.12,-710.75 318.12,-163 318.12,-147.89 312.57,-132.15 306.4,-119.34"/>
<polygon fill="black" stroke="black" points="309.62,-117.94 301.89,-110.69 303.41,-121.17 309.62,-117.94"/>
</g>
<!-- main_exit -->
<g id="node16" class="node">
<title>main_exit</title>
<path fill="none" stroke="black" d="M313.5,-36C313.5,-36 266.75,-36 266.75,-36 260.75,-36 254.75,-30 254.75,-24 254.75,-24 254.75,-12 254.75,-12 254.75,-6 260.75,0 266.75,0 266.75,0 313.5,0 313.5,0 319.5,0 325.5,-6 325.5,-12 325.5,-12 325.5,-24 325.5,-24 325.5,-30 319.5,-36 313.5,-36"/>
<text xml:space="preserve" text-anchor="middle" x="290.12" y="-12.57" font-family="Helvetica,sans-Serif" font-size="14.00">main exit</text>
</g>
<!-- main_return&#45;&gt;main_exit -->
<g id="edge15" class="edge">
<title>main_return&#45;&gt;main_exit</title>
<path fill="none" stroke="black" d="M290.12,-72.81C290.12,-65.23 290.12,-56.1 290.12,-47.54"/>
<polygon fill="black" stroke="black" points="293.63,-47.54 290.13,-37.54 286.63,-47.54 293.63,-47.54"/>
</g>
</g>
</svg>
