<?xml version="1.0" encoding="UTF-8" standalone="no"?>
<!DOCTYPE svg PUBLIC "-//W3C//DTD SVG 1.1//EN"
 "http://www.w3.org/Graphics/SVG/1.1/DTD/svg11.dtd">
<!-- Generated by graphviz version 13.1.2 (20250808.2320)
 -->
<!-- Title: CFG_foo Pages: 1 -->
<svg width="422pt" height="983pt"
 viewBox="0.00 0.00 422.00 983.00" xmlns="http://www.w3.org/2000/svg" xmlns:xlink="http://www.w3.org/1999/xlink">
<g id="graph0" class="graph" transform="scale(1 1) rotate(0) translate(4 979.48)">
<title>CFG_foo</title>
<polygon fill="white" stroke="none" points="-4,4 -4,-979.48 417.89,-979.48 417.89,4 -4,4"/>
<!-- start -->
<g id="node1" class="node">
<title>start</title>
<path fill="none" stroke="black" d="M351.51,-975.48C351.51,-975.48 305.51,-975.48 305.51,-975.48 299.51,-975.48 293.51,-969.48 293.51,-963.48 293.51,-963.48 293.51,-951.48 293.51,-951.48 293.51,-945.48 299.51,-939.48 305.51,-939.48 305.51,-939.48 351.51,-939.48 351.51,-939.48 357.51,-939.48 363.51,-945.48 363.51,-951.48 363.51,-951.48 363.51,-963.48 363.51,-963.48 363.51,-969.48 357.51,-975.48 351.51,-975.48"/>
<text xml:space="preserve" text-anchor="middle" x="328.51" y="-952.05" font-family="Helvetica,sans-Serif" font-size="14.00">Inicio foo</text>
</g>
<!-- init_i -->
<g id="node2" class="node">
<title>init_i</title>
<path fill="none" stroke="black" d="M343.51,-902.48C343.51,-902.48 313.51,-902.48 313.51,-902.48 307.51,-902.48 301.51,-896.48 301.51,-890.48 301.51,-890.48 301.51,-878.48 301.51,-878.48 301.51,-872.48 307.51,-866.48 313.51,-866.48 313.51,-866.48 343.51,-866.48 343.51,-866.48 349.51,-866.48 355.51,-872.48 355.51,-878.48 355.51,-878.48 355.51,-890.48 355.51,-890.48 355.51,-896.48 349.51,-902.48 343.51,-902.48"/>
<text xml:space="preserve" text-anchor="middle" x="328.51" y="-879.05" font-family="Helvetica,sans-Serif" font-size="14.00">i = 0</text>
</g>
<!-- start&#45;&gt;init_i -->
<g id="edge1" class="edge">
<title>start&#45;&gt;init_i</title>
<path fill="none" stroke="black" d="M328.51,-939.29C328.51,-931.7 328.51,-922.58 328.51,-914.02"/>
<polygon fill="black" stroke="black" points="332.01,-914.02 328.51,-904.02 325.01,-914.02 332.01,-914.02"/>
</g>
<!-- cond_i -->
<g id="node3" class="node">
<title>cond_i</title>
<path fill="none" stroke="black" d="M343.51,-829.48C343.51,-829.48 313.51,-829.48 313.51,-829.48 307.51,-829.48 301.51,-823.48 301.51,-817.48 301.51,-817.48 301.51,-805.48 301.51,-805.48 301.51,-799.48 307.51,-793.48 313.51,-793.48 313.51,-793.48 343.51,-793.48 343.51,-793.48 349.51,-793.48 355.51,-799.48 355.51,-805.48 355.51,-805.48 355.51,-817.48 355.51,-817.48 355.51,-823.48 349.51,-829.48 343.51,-829.48"/>
<text xml:space="preserve" text-anchor="middle" x="328.51" y="-806.05" font-family="Helvetica,sans-Serif" font-size="14.00">i &lt; 5?</text>
</g>
<!-- init_i&#45;&gt;cond_i -->
<g id="edge2" class="edge">
<title>init_i&#45;&gt;cond_i</title>
<path fill="none" stroke="black" d="M328.51,-866.29C328.51,-858.7 328.51,-849.58 328.51,-841.02"/>
<polygon fill="black" stroke="black" points="332.01,-841.02 328.51,-831.02 325.01,-841.02 332.01,-841.02"/>
</g>
<!-- init_j -->
<g id="node4" class="node">
<title>init_j</title>
<path fill="none" stroke="black" d="M283.51,-741.73C283.51,-741.73 253.51,-741.73 253.51,-741.73 247.51,-741.73 241.51,-735.73 241.51,-729.73 241.51,-729.73 241.51,-717.73 241.51,-717.73 241.51,-711.73 247.51,-705.73 253.51,-705.73 253.51,-705.73 283.51,-705.73 283.51,-705.73 289.51,-705.73 295.51,-711.73 295.51,-717.73 295.51,-717.73 295.51,-729.73 295.51,-729.73 295.51,-735.73 289.51,-741.73 283.51,-741.73"/>
<text xml:space="preserve" text-anchor="middle" x="268.51" y="-718.3" font-family="Helvetica,sans-Serif" font-size="14.00">j = 0</text>
</g>
<!-- cond_i&#45;&gt;init_j -->
<g id="edge3" class="edge">
<title>cond_i&#45;&gt;init_j</title>
<path fill="none" stroke="black" d="M307.3,-793.26C301.61,-787.96 295.79,-781.84 291.26,-775.48 286.31,-768.53 282.07,-760.33 278.64,-752.57"/>
<polygon fill="black" stroke="black" points="281.94,-751.4 274.9,-743.48 275.46,-754.06 281.94,-751.4"/>
<text xml:space="preserve" text-anchor="middle" x="302.89" y="-762.18" font-family="Helvetica,sans-Serif" font-size="14.00">true</text>
</g>
<!-- return_false -->
<g id="node16" class="node">
<title>return_false</title>
<path fill="none" stroke="black" d="M401.89,-687.73C401.89,-687.73 355.14,-687.73 355.14,-687.73 349.14,-687.73 343.14,-681.73 343.14,-675.73 343.14,-675.73 343.14,-663.73 343.14,-663.73 343.14,-657.73 349.14,-651.73 355.14,-651.73 355.14,-651.73 401.89,-651.73 401.89,-651.73 407.89,-651.73 413.89,-657.73 413.89,-663.73 413.89,-663.73 413.89,-675.73 413.89,-675.73 413.89,-681.73 407.89,-687.73 401.89,-687.73"/>
<text xml:space="preserve" text-anchor="middle" x="378.51" y="-664.3" font-family="Helvetica,sans-Serif" font-size="14.00">return &#45;1;</text>
</g>
<!-- cond_i&#45;&gt;return_false -->
<g id="edge4" class="edge">
<title>cond_i&#45;&gt;return_false</title>
<path fill="none" stroke="black" d="M335.66,-793.1C337.91,-787.5 340.37,-781.24 342.51,-775.48 352.12,-749.62 362.26,-719.86 369.33,-698.68"/>
<polygon fill="black" stroke="black" points="372.61,-699.91 372.43,-689.31 365.96,-697.7 372.61,-699.91"/>
<text xml:space="preserve" text-anchor="middle" x="361.94" y="-762.18" font-family="Helvetica,sans-Serif" font-size="14.00">false</text>
</g>
<!-- cond_j -->
<g id="node5" class="node">
<title>cond_j</title>
<path fill="none" stroke="black" d="M269.51,-633.73C269.51,-633.73 239.51,-633.73 239.51,-633.73 233.51,-633.73 227.51,-627.73 227.51,-621.73 227.51,-621.73 227.51,-609.73 227.51,-609.73 227.51,-603.73 233.51,-597.73 239.51,-597.73 239.51,-597.73 269.51,-597.73 269.51,-597.73 275.51,-597.73 281.51,-603.73 281.51,-609.73 281.51,-609.73 281.51,-621.73 281.51,-621.73 281.51,-627.73 275.51,-633.73 269.51,-633.73"/>
<text xml:space="preserve" text-anchor="middle" x="254.51" y="-610.3" font-family="Helvetica,sans-Serif" font-size="14.00">j &lt; 5?</text>
</g>
<!-- init_j&#45;&gt;cond_j -->
<g id="edge5" class="edge">
<title>init_j&#45;&gt;cond_j</title>
<path fill="none" stroke="black" d="M266.26,-705.7C264.11,-689.41 260.83,-664.55 258.28,-645.25"/>
<polygon fill="black" stroke="black" points="261.78,-645.02 257,-635.57 254.84,-645.94 261.78,-645.02"/>
</g>
<!-- init_k -->
<g id="node6" class="node">
<title>init_k</title>
<path fill="none" stroke="black" d="M206.51,-545.98C206.51,-545.98 176.51,-545.98 176.51,-545.98 170.51,-545.98 164.51,-539.98 164.51,-533.98 164.51,-533.98 164.51,-521.98 164.51,-521.98 164.51,-515.98 170.51,-509.98 176.51,-509.98 176.51,-509.98 206.51,-509.98 206.51,-509.98 212.51,-509.98 218.51,-515.98 218.51,-521.98 218.51,-521.98 218.51,-533.98 218.51,-533.98 218.51,-539.98 212.51,-545.98 206.51,-545.98"/>
<text xml:space="preserve" text-anchor="middle" x="191.51" y="-522.55" font-family="Helvetica,sans-Serif" font-size="14.00">k = 0</text>
</g>
<!-- cond_j&#45;&gt;init_k -->
<g id="edge6" class="edge">
<title>cond_j&#45;&gt;init_k</title>
<path fill="none" stroke="black" d="M231.12,-597.39C225.11,-592.17 219.01,-586.12 214.26,-579.73 209.18,-572.88 204.9,-564.71 201.47,-556.95"/>
<polygon fill="black" stroke="black" points="204.77,-555.78 197.76,-547.83 198.28,-558.42 204.77,-555.78"/>
<text xml:space="preserve" text-anchor="middle" x="225.89" y="-566.43" font-family="Helvetica,sans-Serif" font-size="14.00">true</text>
</g>
<!-- inc_i -->
<g id="node15" class="node">
<title>inc_i</title>
<path fill="none" stroke="black" d="M326.51,-545.98C326.51,-545.98 296.51,-545.98 296.51,-545.98 290.51,-545.98 284.51,-539.98 284.51,-533.98 284.51,-533.98 284.51,-521.98 284.51,-521.98 284.51,-515.98 290.51,-509.98 296.51,-509.98 296.51,-509.98 326.51,-509.98 326.51,-509.98 332.51,-509.98 338.51,-515.98 338.51,-521.98 338.51,-521.98 338.51,-533.98 338.51,-533.98 338.51,-539.98 332.51,-545.98 326.51,-545.98"/>
<text xml:space="preserve" text-anchor="middle" x="311.51" y="-522.55" font-family="Helvetica,sans-Serif" font-size="14.00">i++</text>
</g>
<!-- cond_j&#45;&gt;inc_i -->
<g id="edge7" class="edge">
<title>cond_j&#45;&gt;inc_i</title>
<path fill="none" stroke="black" d="M264.7,-597.61C270.73,-587.68 278.6,-574.99 286.01,-563.98 287.86,-561.23 289.83,-558.39 291.82,-555.57"/>
<polygon fill="black" stroke="black" points="294.66,-557.63 297.66,-547.47 288.98,-553.54 294.66,-557.63"/>
<text xml:space="preserve" text-anchor="middle" x="300.26" y="-566.43" font-family="Helvetica,sans-Serif" font-size="14.00">false</text>
</g>
<!-- cond_k -->
<g id="node7" class="node">
<title>cond_k</title>
<path fill="none" stroke="black" d="M192.51,-472.98C192.51,-472.98 162.51,-472.98 162.51,-472.98 156.51,-472.98 150.51,-466.98 150.51,-460.98 150.51,-460.98 150.51,-448.98 150.51,-448.98 150.51,-442.98 156.51,-436.98 162.51,-436.98 162.51,-436.98 192.51,-436.98 192.51,-436.98 198.51,-436.98 204.51,-442.98 204.51,-448.98 204.51,-448.98 204.51,-460.98 204.51,-460.98 204.51,-466.98 198.51,-472.98 192.51,-472.98"/>
<text xml:space="preserve" text-anchor="middle" x="177.51" y="-449.55" font-family="Helvetica,sans-Serif" font-size="14.00">k &lt; 5?</text>
</g>
<!-- init_k&#45;&gt;cond_k -->
<g id="edge8" class="edge">
<title>init_k&#45;&gt;cond_k</title>
<path fill="none" stroke="black" d="M188.12,-509.79C186.61,-502.12 184.79,-492.87 183.08,-484.22"/>
<polygon fill="black" stroke="black" points="186.53,-483.63 181.16,-474.49 179.67,-484.98 186.53,-483.63"/>
</g>
<!-- init_l -->
<g id="node8" class="node">
<title>init_l</title>
<path fill="none" stroke="black" d="M125.51,-385.23C125.51,-385.23 95.51,-385.23 95.51,-385.23 89.51,-385.23 83.51,-379.23 83.51,-373.23 83.51,-373.23 83.51,-361.23 83.51,-361.23 83.51,-355.23 89.51,-349.23 95.51,-349.23 95.51,-349.23 125.51,-349.23 125.51,-349.23 131.51,-349.23 137.51,-355.23 137.51,-361.23 137.51,-361.23 137.51,-373.23 137.51,-373.23 137.51,-379.23 131.51,-385.23 125.51,-385.23"/>
<text xml:space="preserve" text-anchor="middle" x="110.51" y="-361.8" font-family="Helvetica,sans-Serif" font-size="14.00">l = 0</text>
</g>
<!-- cond_k&#45;&gt;init_l -->
<g id="edge9" class="edge">
<title>cond_k&#45;&gt;init_l</title>
<path fill="none" stroke="black" d="M154.8,-436.79C148.66,-431.5 142.32,-425.37 137.26,-418.98 131.74,-412 126.81,-403.71 122.73,-395.87"/>
<polygon fill="black" stroke="black" points="125.93,-394.44 118.4,-386.99 119.64,-397.51 125.93,-394.44"/>
<text xml:space="preserve" text-anchor="middle" x="148.89" y="-405.68" font-family="Helvetica,sans-Serif" font-size="14.00">true</text>
</g>
<!-- inc_j -->
<g id="node14" class="node">
<title>inc_j</title>
<path fill="none" stroke="black" d="M255.51,-385.23C255.51,-385.23 225.51,-385.23 225.51,-385.23 219.51,-385.23 213.51,-379.23 213.51,-373.23 213.51,-373.23 213.51,-361.23 213.51,-361.23 213.51,-355.23 219.51,-349.23 225.51,-349.23 225.51,-349.23 255.51,-349.23 255.51,-349.23 261.51,-349.23 267.51,-355.23 267.51,-361.23 267.51,-361.23 267.51,-373.23 267.51,-373.23 267.51,-379.23 261.51,-385.23 255.51,-385.23"/>
<text xml:space="preserve" text-anchor="middle" x="240.51" y="-361.8" font-family="Helvetica,sans-Serif" font-size="14.00">j++</text>
</g>
<!-- cond_k&#45;&gt;inc_j -->
<g id="edge10" class="edge">
<title>cond_k&#45;&gt;inc_j</title>
<path fill="none" stroke="black" d="M187.29,-436.56C193.17,-426.53 201.04,-413.84 209.01,-403.23 211.34,-400.13 213.89,-396.97 216.5,-393.89"/>
<polygon fill="black" stroke="black" points="218.89,-396.47 222.86,-386.65 213.63,-391.85 218.89,-396.47"/>
<text xml:space="preserve" text-anchor="middle" x="223.26" y="-405.68" font-family="Helvetica,sans-Serif" font-size="14.00">false</text>
</g>
<!-- cond_l -->
<g id="node9" class="node">
<title>cond_l</title>
<path fill="none" stroke="black" d="M103.51,-312.23C103.51,-312.23 73.51,-312.23 73.51,-312.23 67.51,-312.23 61.51,-306.23 61.51,-300.23 61.51,-300.23 61.51,-288.23 61.51,-288.23 61.51,-282.23 67.51,-276.23 73.51,-276.23 73.51,-276.23 103.51,-276.23 103.51,-276.23 109.51,-276.23 115.51,-282.23 115.51,-288.23 115.51,-288.23 115.51,-300.23 115.51,-300.23 115.51,-306.23 109.51,-312.23 103.51,-312.23"/>
<text xml:space="preserve" text-anchor="middle" x="88.51" y="-288.8" font-family="Helvetica,sans-Serif" font-size="14.00">l &lt; 5?</text>
</g>
<!-- init_l&#45;&gt;cond_l -->
<g id="edge11" class="edge">
<title>init_l&#45;&gt;cond_l</title>
<path fill="none" stroke="black" d="M105.19,-349.04C102.78,-341.28 99.88,-331.91 97.17,-323.18"/>
<polygon fill="black" stroke="black" points="100.54,-322.22 94.24,-313.7 93.86,-324.29 100.54,-322.22"/>
</g>
<!-- body -->
<g id="node10" class="node">
<title>body</title>
<path fill="none" stroke="black" d="M142.39,-224.48C142.39,-224.48 26.64,-224.48 26.64,-224.48 20.64,-224.48 14.64,-218.48 14.64,-212.48 14.64,-212.48 14.64,-196.98 14.64,-196.98 14.64,-190.98 20.64,-184.98 26.64,-184.98 26.64,-184.98 142.39,-184.98 142.39,-184.98 148.39,-184.98 154.39,-190.98 154.39,-196.98 154.39,-196.98 154.39,-212.48 154.39,-212.48 154.39,-218.48 148.39,-224.48 142.39,-224.48"/>
<text xml:space="preserve" text-anchor="middle" x="84.51" y="-207.18" font-family="Helvetica,sans-Serif" font-size="14.00">c++ (se TEST)</text>
<text xml:space="preserve" text-anchor="middle" x="84.51" y="-191.43" font-family="Helvetica,sans-Serif" font-size="14.00">if (keys[i][j][k][l] == x)</text>
</g>
<!-- cond_l&#45;&gt;body -->
<g id="edge12" class="edge">
<title>cond_l&#45;&gt;body</title>
<path fill="none" stroke="black" d="M86.62,-275.8C86.09,-270.2 85.57,-263.96 85.26,-258.23 84.88,-251.03 84.66,-243.26 84.54,-235.97"/>
<polygon fill="black" stroke="black" points="88.04,-236.17 84.44,-226.21 81.04,-236.24 88.04,-236.17"/>
<text xml:space="preserve" text-anchor="middle" x="96.89" y="-244.93" font-family="Helvetica,sans-Serif" font-size="14.00">true</text>
</g>
<!-- inc_k -->
<g id="node13" class="node">
<title>inc_k</title>
<path fill="none" stroke="black" d="M214.51,-222.73C214.51,-222.73 184.51,-222.73 184.51,-222.73 178.51,-222.73 172.51,-216.73 172.51,-210.73 172.51,-210.73 172.51,-198.73 172.51,-198.73 172.51,-192.73 178.51,-186.73 184.51,-186.73 184.51,-186.73 214.51,-186.73 214.51,-186.73 220.51,-186.73 226.51,-192.73 226.51,-198.73 226.51,-198.73 226.51,-210.73 226.51,-210.73 226.51,-216.73 220.51,-222.73 214.51,-222.73"/>
<text xml:space="preserve" text-anchor="middle" x="199.51" y="-199.3" font-family="Helvetica,sans-Serif" font-size="14.00">k++</text>
</g>
<!-- cond_l&#45;&gt;inc_k -->
<g id="edge13" class="edge">
<title>cond_l&#45;&gt;inc_k</title>
<path fill="none" stroke="black" d="M100.86,-275.82C108.91,-265.31 120.11,-252.11 132.01,-242.48 134.94,-240.11 148.42,-232.68 162.58,-225.11"/>
<polygon fill="black" stroke="black" points="163.84,-228.41 171.03,-220.62 160.55,-222.22 163.84,-228.41"/>
<text xml:space="preserve" text-anchor="middle" x="146.26" y="-244.93" font-family="Helvetica,sans-Serif" font-size="14.00">false</text>
</g>
<!-- return_true -->
<g id="node11" class="node">
<title>return_true</title>
<path fill="none" stroke="black" d="M278.14,-133.23C278.14,-133.23 118.89,-133.23 118.89,-133.23 112.89,-133.23 106.89,-127.23 106.89,-121.23 106.89,-121.23 106.89,-109.23 106.89,-109.23 106.89,-103.23 112.89,-97.23 118.89,-97.23 118.89,-97.23 278.14,-97.23 278.14,-97.23 284.14,-97.23 290.14,-103.23 290.14,-109.23 290.14,-109.23 290.14,-121.23 290.14,-121.23 290.14,-127.23 284.14,-133.23 278.14,-133.23"/>
<text xml:space="preserve" text-anchor="middle" x="198.51" y="-109.8" font-family="Helvetica,sans-Serif" font-size="14.00">return answer[...] + keys[...];</text>
</g>
<!-- body&#45;&gt;return_true -->
<g id="edge14" class="edge">
<title>body&#45;&gt;return_true</title>
<path fill="none" stroke="black" d="M109.53,-184.53C126.39,-171.59 148.76,-154.42 166.85,-140.53"/>
<polygon fill="black" stroke="black" points="168.87,-143.39 174.67,-134.53 164.61,-137.84 168.87,-143.39"/>
<text xml:space="preserve" text-anchor="middle" x="163.35" y="-153.68" font-family="Helvetica,sans-Serif" font-size="14.00">true</text>
</g>
<!-- inc_l -->
<g id="node12" class="node">
<title>inc_l</title>
<path fill="none" stroke="black" d="M47.51,-133.23C47.51,-133.23 17.51,-133.23 17.51,-133.23 11.51,-133.23 5.51,-127.23 5.51,-121.23 5.51,-121.23 5.51,-109.23 5.51,-109.23 5.51,-103.23 11.51,-97.23 17.51,-97.23 17.51,-97.23 47.51,-97.23 47.51,-97.23 53.51,-97.23 59.51,-103.23 59.51,-109.23 59.51,-109.23 59.51,-121.23 59.51,-121.23 59.51,-127.23 53.51,-133.23 47.51,-133.23"/>
<text xml:space="preserve" text-anchor="middle" x="32.51" y="-109.8" font-family="Helvetica,sans-Serif" font-size="14.00">l++</text>
</g>
<!-- body&#45;&gt;inc_l -->
<g id="edge15" class="edge">
<title>body&#45;&gt;inc_l</title>
<path fill="none" stroke="black" d="M73.23,-184.74C66.04,-172.65 56.62,-156.78 48.64,-143.37"/>
<polygon fill="black" stroke="black" points="51.78,-141.8 43.66,-134.99 45.76,-145.38 51.78,-141.8"/>
<text xml:space="preserve" text-anchor="middle" x="75.88" y="-153.68" font-family="Helvetica,sans-Serif" font-size="14.00">false</text>
</g>
<!-- end -->
<g id="node17" class="node">
<title>end</title>
<ellipse fill="none" stroke="black" cx="286.51" cy="-30.11" rx="26.11" ry="26.11"/>
<ellipse fill="none" stroke="black" cx="286.51" cy="-30.11" rx="30.11" ry="30.11"/>
<text xml:space="preserve" text-anchor="middle" x="286.51" y="-24.69" font-family="Helvetica,sans-Serif" font-size="14.00">Fim</text>
</g>
<!-- return_true&#45;&gt;end -->
<g id="edge20" class="edge">
<title>return_true&#45;&gt;end</title>
<path fill="none" stroke="black" d="M216.75,-97.01C228.23,-86.16 243.32,-71.91 256.53,-59.43"/>
<polygon fill="black" stroke="black" points="258.92,-61.99 263.79,-52.58 254.11,-56.9 258.92,-61.99"/>
</g>
<!-- inc_l&#45;&gt;cond_l -->
<g id="edge16" class="edge">
<title>inc_l&#45;&gt;cond_l</title>
<path fill="none" stroke="black" d="M21.34,-133.42C8.6,-155.38 -8.74,-194.15 5.51,-224.48 15.19,-245.05 34.37,-261.58 51.87,-273.27"/>
<polygon fill="black" stroke="black" points="49.74,-276.07 60.06,-278.46 53.48,-270.15 49.74,-276.07"/>
</g>
<!-- inc_k&#45;&gt;cond_k -->
<g id="edge17" class="edge">
<title>inc_k&#45;&gt;cond_k</title>
<path fill="none" stroke="black" d="M197.97,-223.17C194.23,-265.34 184.67,-373.22 180.07,-425.17"/>
<polygon fill="black" stroke="black" points="176.59,-424.74 179.19,-435.01 183.56,-425.36 176.59,-424.74"/>
</g>
<!-- inc_j&#45;&gt;cond_j -->
<g id="edge18" class="edge">
<title>inc_j&#45;&gt;cond_j</title>
<path fill="none" stroke="black" d="M241.5,-385.54C243.88,-427.42 249.96,-534.54 252.89,-586.12"/>
<polygon fill="black" stroke="black" points="249.38,-586.1 253.44,-595.88 256.37,-585.7 249.38,-586.1"/>
</g>
<!-- inc_i&#45;&gt;cond_i -->
<g id="edge19" class="edge">
<title>inc_i&#45;&gt;cond_i</title>
<path fill="none" stroke="black" d="M313.11,-546.42C313.59,-552.02 314.11,-558.26 314.51,-563.98 320.12,-642.7 324.91,-735.69 327.15,-781.71"/>
<polygon fill="black" stroke="black" points="323.65,-781.8 327.63,-791.62 330.64,-781.46 323.65,-781.8"/>
</g>
<!-- return_false&#45;&gt;end -->
<g id="edge21" class="edge">
<title>return_false&#45;&gt;end</title>
<path fill="none" stroke="black" d="M377.36,-651.42C376.18,-632.22 374.51,-600.34 374.51,-572.85 374.51,-572.85 374.51,-572.85 374.51,-114.23 374.51,-84.62 347.87,-62.43 323.9,-48.46"/>
<polygon fill="black" stroke="black" points="325.66,-45.43 315.2,-43.7 322.3,-51.57 325.66,-45.43"/>
</g>
</g>
</svg>
