<?xml version="1.0" encoding="UTF-8" standalone="no"?>
<!DOCTYPE svg PUBLIC "-//W3C//DTD SVG 1.1//EN"
 "http://www.w3.org/Graphics/SVG/1.1/DTD/svg11.dtd">
<!-- Generated by graphviz version 13.1.2 (20250808.2320)
 -->
<!-- Title: DFG_foo Pages: 1 -->
<svg width="385pt" height="260pt"
 viewBox="0.00 0.00 385.00 260.00" xmlns="http://www.w3.org/2000/svg" xmlns:xlink="http://www.w3.org/1999/xlink">
<g id="graph0" class="graph" transform="scale(1 1) rotate(0) translate(4 256)">
<title>DFG_foo</title>
<polygon fill="white" stroke="none" points="-4,4 -4,-256 380.85,-256 380.85,4 -4,4"/>
<!-- x -->
<g id="node1" class="node">
<title>x</title>
<ellipse fill="lightblue" stroke="black" cx="62.1" cy="-162" rx="62.1" ry="18"/>
<text xml:space="preserve" text-anchor="middle" x="62.1" y="-156.95" font-family="Times New Roman,serif" font-size="14.00">x (parametro)</text>
</g>
<!-- eq -->
<g id="node6" class="node">
<title>eq</title>
<polygon fill="none" stroke="black" points="120.1,-108 66.1,-108 66.1,-72 120.1,-72 120.1,-108"/>
<text xml:space="preserve" text-anchor="middle" x="93.1" y="-84.95" font-family="Times New Roman,serif" font-size="14.00">==</text>
</g>
<!-- x&#45;&gt;eq -->
<g id="edge1" class="edge">
<title>x&#45;&gt;eq</title>
<path fill="none" stroke="black" d="M69.76,-143.7C73.14,-136.07 77.19,-126.92 80.97,-118.4"/>
<polygon fill="black" stroke="black" points="84.06,-120.05 84.91,-109.49 77.66,-117.21 84.06,-120.05"/>
</g>
<!-- keys -->
<g id="node2" class="node">
<title>keys</title>
<ellipse fill="lightblue" stroke="black" cx="162.1" cy="-234" rx="59.54" ry="18"/>
<text xml:space="preserve" text-anchor="middle" x="162.1" y="-228.95" font-family="Times New Roman,serif" font-size="14.00">keys (global)</text>
</g>
<!-- array_access_keys -->
<g id="node4" class="node">
<title>array_access_keys</title>
<polygon fill="none" stroke="black" points="212.1,-180 142.1,-180 142.1,-144 212.1,-144 212.1,-180"/>
<text xml:space="preserve" text-anchor="middle" x="177.1" y="-156.95" font-family="Times New Roman,serif" font-size="14.00">[i][j][k][l]</text>
</g>
<!-- keys&#45;&gt;array_access_keys -->
<g id="edge2" class="edge">
<title>keys&#45;&gt;array_access_keys</title>
<path fill="none" stroke="black" d="M165.81,-215.7C167.39,-208.32 169.27,-199.52 171.05,-191.25"/>
<polygon fill="black" stroke="black" points="174.44,-192.1 173.12,-181.58 167.6,-190.63 174.44,-192.1"/>
</g>
<!-- answer -->
<g id="node3" class="node">
<title>answer</title>
<ellipse fill="lightblue" stroke="black" cx="308.1" cy="-234" rx="68.75" ry="18"/>
<text xml:space="preserve" text-anchor="middle" x="308.1" y="-228.95" font-family="Times New Roman,serif" font-size="14.00">answer (global)</text>
</g>
<!-- array_access_answer -->
<g id="node5" class="node">
<title>array_access_answer</title>
<polygon fill="none" stroke="black" points="314.1,-180 244.1,-180 244.1,-144 314.1,-144 314.1,-180"/>
<text xml:space="preserve" text-anchor="middle" x="279.1" y="-156.95" font-family="Times New Roman,serif" font-size="14.00">[i][j][k][l]</text>
</g>
<!-- answer&#45;&gt;array_access_answer -->
<g id="edge6" class="edge">
<title>answer&#45;&gt;array_access_answer</title>
<path fill="none" stroke="black" d="M300.93,-215.7C297.81,-208.15 294.06,-199.12 290.57,-190.68"/>
<polygon fill="black" stroke="black" points="293.83,-189.4 286.76,-181.5 287.36,-192.08 293.83,-189.4"/>
</g>
<!-- array_access_keys&#45;&gt;eq -->
<g id="edge3" class="edge">
<title>array_access_keys&#45;&gt;eq</title>
<path fill="none" stroke="black" d="M156.34,-143.7C146.14,-135.2 133.67,-124.81 122.52,-115.51"/>
<polygon fill="black" stroke="black" points="125,-113.03 115.08,-109.32 120.52,-118.41 125,-113.03"/>
</g>
<!-- add -->
<g id="node7" class="node">
<title>add</title>
<polygon fill="none" stroke="black" points="283.1,-108 229.1,-108 229.1,-72 283.1,-72 283.1,-108"/>
<text xml:space="preserve" text-anchor="middle" x="256.1" y="-84.95" font-family="Times New Roman,serif" font-size="14.00">+</text>
</g>
<!-- array_access_keys&#45;&gt;add -->
<g id="edge5" class="edge">
<title>array_access_keys&#45;&gt;add</title>
<path fill="none" stroke="black" d="M196.63,-143.7C206.12,-135.28 217.71,-125.02 228.12,-115.79"/>
<polygon fill="black" stroke="black" points="230.23,-118.6 235.39,-109.35 225.58,-113.36 230.23,-118.6"/>
</g>
<!-- array_access_answer&#45;&gt;add -->
<g id="edge7" class="edge">
<title>array_access_answer&#45;&gt;add</title>
<path fill="none" stroke="black" d="M273.41,-143.7C270.96,-136.24 268.03,-127.32 265.29,-118.97"/>
<polygon fill="black" stroke="black" points="268.64,-117.95 262.19,-109.54 261.99,-120.14 268.64,-117.95"/>
</g>
<!-- return_true -->
<g id="node9" class="node">
<title>return_true</title>
<ellipse fill="lightgreen" stroke="black" cx="93.1" cy="-18" rx="51.86" ry="18"/>
<text xml:space="preserve" text-anchor="middle" x="93.1" y="-12.95" font-family="Times New Roman,serif" font-size="14.00">return_true</text>
</g>
<!-- eq&#45;&gt;return_true -->
<g id="edge4" class="edge">
<title>eq&#45;&gt;return_true</title>
<path fill="none" stroke="black" d="M93.1,-71.7C93.1,-64.41 93.1,-55.73 93.1,-47.54"/>
<polygon fill="black" stroke="black" points="96.6,-47.62 93.1,-37.62 89.6,-47.62 96.6,-47.62"/>
</g>
<!-- return_val -->
<g id="node8" class="node">
<title>return_val</title>
<ellipse fill="lightgreen" stroke="black" cx="256.1" cy="-18" rx="70.29" ry="18"/>
<text xml:space="preserve" text-anchor="middle" x="256.1" y="-12.95" font-family="Times New Roman,serif" font-size="14.00">valor de retorno</text>
</g>
<!-- add&#45;&gt;return_val -->
<g id="edge8" class="edge">
<title>add&#45;&gt;return_val</title>
<path fill="none" stroke="black" d="M256.1,-71.7C256.1,-64.41 256.1,-55.73 256.1,-47.54"/>
<polygon fill="black" stroke="black" points="259.6,-47.62 256.1,-37.62 252.6,-47.62 259.6,-47.62"/>
</g>
</g>
</svg>
