<?xml version="1.0" encoding="UTF-8" standalone="no"?>
<!DOCTYPE svg PUBLIC "-//W3C//DTD SVG 1.1//EN"
 "http://www.w3.org/Graphics/SVG/1.1/DTD/svg11.dtd">
<!-- Generated by graphviz version 13.1.2 (20250808.2320)
 -->
<!-- Title: initbuffer_DFG Pages: 1 -->
<svg width="485pt" height="425pt"
 viewBox="0.00 0.00 485.00 425.00" xmlns="http://www.w3.org/2000/svg" xmlns:xlink="http://www.w3.org/1999/xlink">
<g id="graph0" class="graph" transform="scale(1 1) rotate(0) translate(4 420.5)">
<title>initbuffer_DFG</title>
<polygon fill="white" stroke="none" points="-4,4 -4,-420.5 481.17,-420.5 481.17,4 -4,4"/>
<!-- seed_init -->
<g id="node1" class="node">
<title>seed_init</title>
<ellipse fill="lightblue" stroke="black" cx="62" cy="-398.5" rx="27" ry="18"/>
<text xml:space="preserve" text-anchor="middle" x="62" y="-393.45" font-family="Times New Roman,serif" font-size="14.00">1</text>
</g>
<!-- op_assign_seed -->
<g id="node4" class="node">
<title>op_assign_seed</title>
<polygon fill="lightblue" stroke="black" points="89,-343.5 35,-343.5 35,-307.5 89,-307.5 89,-343.5"/>
<text xml:space="preserve" text-anchor="middle" x="62" y="-320.45" font-family="Times New Roman,serif" font-size="14.00">=</text>
</g>
<!-- seed_init&#45;&gt;op_assign_seed -->
<g id="edge1" class="edge">
<title>seed_init&#45;&gt;op_assign_seed</title>
<path fill="none" stroke="black" d="M62,-380.31C62,-372.73 62,-363.6 62,-355.04"/>
<polygon fill="black" stroke="black" points="65.5,-355.04 62,-345.04 58.5,-355.04 65.5,-355.04"/>
</g>
<!-- i_init -->
<g id="node2" class="node">
<title>i_init</title>
<ellipse fill="lightblue" stroke="black" cx="302" cy="-398.5" rx="27" ry="18"/>
<text xml:space="preserve" text-anchor="middle" x="302" y="-393.45" font-family="Times New Roman,serif" font-size="14.00">0</text>
</g>
<!-- op_assign_i -->
<g id="node5" class="node">
<title>op_assign_i</title>
<polygon fill="lightblue" stroke="black" points="329,-343.5 275,-343.5 275,-307.5 329,-307.5 329,-343.5"/>
<text xml:space="preserve" text-anchor="middle" x="302" y="-320.45" font-family="Times New Roman,serif" font-size="14.00">=</text>
</g>
<!-- i_init&#45;&gt;op_assign_i -->
<g id="edge3" class="edge">
<title>i_init&#45;&gt;op_assign_i</title>
<path fill="none" stroke="black" d="M302,-380.31C302,-372.73 302,-363.6 302,-355.04"/>
<polygon fill="black" stroke="black" points="305.5,-355.04 302,-345.04 298.5,-355.04 305.5,-355.04"/>
</g>
<!-- BUFFERSIZE -->
<g id="node3" class="node">
<title>BUFFERSIZE</title>
<ellipse fill="lightblue" stroke="black" cx="412" cy="-252.5" rx="65.17" ry="18"/>
<text xml:space="preserve" text-anchor="middle" x="412" y="-247.45" font-family="Times New Roman,serif" font-size="14.00">BUFFERSIZE</text>
</g>
<!-- op_inc_i -->
<g id="node12" class="node">
<title>op_inc_i</title>
<polygon fill="lightblue" stroke="black" points="386,-182 332,-182 332,-146 386,-146 386,-182"/>
<text xml:space="preserve" text-anchor="middle" x="359" y="-158.95" font-family="Times New Roman,serif" font-size="14.00">i++</text>
</g>
<!-- BUFFERSIZE&#45;&gt;op_inc_i -->
<g id="edge16" class="edge">
<title>BUFFERSIZE&#45;&gt;op_inc_i</title>
<path fill="none" stroke="black" d="M401.53,-234.41C394.1,-222.29 383.98,-205.77 375.48,-191.89"/>
<polygon fill="black" stroke="black" points="378.63,-190.34 370.42,-183.64 372.66,-194 378.63,-190.34"/>
<text xml:space="preserve" text-anchor="middle" x="403.37" y="-203.2" font-family="Times New Roman,serif" font-size="14.00">cond</text>
</g>
<!-- seed -->
<g id="node13" class="node">
<title>seed</title>
<ellipse fill="lightgreen" stroke="black" cx="62" cy="-252.5" rx="27.3" ry="18"/>
<text xml:space="preserve" text-anchor="middle" x="62" y="-247.45" font-family="Times New Roman,serif" font-size="14.00">seed</text>
</g>
<!-- op_assign_seed&#45;&gt;seed -->
<g id="edge2" class="edge">
<title>op_assign_seed&#45;&gt;seed</title>
<path fill="none" stroke="black" d="M62,-307.31C62,-299.73 62,-290.6 62,-282.04"/>
<polygon fill="black" stroke="black" points="65.5,-282.04 62,-272.04 58.5,-282.04 65.5,-282.04"/>
</g>
<!-- i -->
<g id="node14" class="node">
<title>i</title>
<ellipse fill="lightgreen" stroke="black" cx="302" cy="-252.5" rx="27" ry="18"/>
<text xml:space="preserve" text-anchor="middle" x="302" y="-247.45" font-family="Times New Roman,serif" font-size="14.00">i</text>
</g>
<!-- op_assign_i&#45;&gt;i -->
<g id="edge4" class="edge">
<title>op_assign_i&#45;&gt;i</title>
<path fill="none" stroke="black" d="M302,-307.31C302,-299.73 302,-290.6 302,-282.04"/>
<polygon fill="black" stroke="black" points="305.5,-282.04 302,-272.04 298.5,-282.04 305.5,-282.04"/>
</g>
<!-- op_assign_tabort -->
<g id="node6" class="node">
<title>op_assign_tabort</title>
<polygon fill="lightblue" stroke="black" points="314,-182 260,-182 260,-146 314,-146 314,-182"/>
<text xml:space="preserve" text-anchor="middle" x="287" y="-158.95" font-family="Times New Roman,serif" font-size="14.00">=</text>
</g>
<!-- tabort -->
<g id="node15" class="node">
<title>tabort</title>
<ellipse fill="lightgreen" stroke="black" cx="287" cy="-91" rx="32.41" ry="18"/>
<text xml:space="preserve" text-anchor="middle" x="287" y="-85.95" font-family="Times New Roman,serif" font-size="14.00">tabort</text>
</g>
<!-- op_assign_tabort&#45;&gt;tabort -->
<g id="edge6" class="edge">
<title>op_assign_tabort&#45;&gt;tabort</title>
<path fill="none" stroke="black" d="M287,-145.81C287,-138.23 287,-129.1 287,-120.54"/>
<polygon fill="black" stroke="black" points="290.5,-120.54 287,-110.54 283.5,-120.54 290.5,-120.54"/>
</g>
<!-- op_mult -->
<g id="node7" class="node">
<title>op_mult</title>
<polygon fill="lightblue" stroke="black" points="89,-182 35,-182 35,-146 89,-146 89,-182"/>
<text xml:space="preserve" text-anchor="middle" x="62" y="-158.95" font-family="Times New Roman,serif" font-size="14.00">*</text>
</g>
<!-- op_add -->
<g id="node8" class="node">
<title>op_add</title>
<polygon fill="lightblue" stroke="black" points="89,-109 35,-109 35,-73 89,-73 89,-109"/>
<text xml:space="preserve" text-anchor="middle" x="62" y="-85.95" font-family="Times New Roman,serif" font-size="14.00">+</text>
</g>
<!-- op_mult&#45;&gt;op_add -->
<g id="edge8" class="edge">
<title>op_mult&#45;&gt;op_add</title>
<path fill="none" stroke="black" d="M62,-145.81C62,-138.23 62,-129.1 62,-120.54"/>
<polygon fill="black" stroke="black" points="65.5,-120.54 62,-110.54 58.5,-120.54 65.5,-120.54"/>
</g>
<!-- op_mod -->
<g id="node9" class="node">
<title>op_mod</title>
<polygon fill="lightblue" stroke="black" points="54,-36 0,-36 0,0 54,0 54,-36"/>
<text xml:space="preserve" text-anchor="middle" x="27" y="-12.95" font-family="Times New Roman,serif" font-size="14.00">%</text>
</g>
<!-- op_add&#45;&gt;op_mod -->
<g id="edge9" class="edge">
<title>op_add&#45;&gt;op_mod</title>
<path fill="none" stroke="black" d="M53.53,-72.81C49.57,-64.79 44.77,-55.05 40.34,-46.07"/>
<polygon fill="black" stroke="black" points="43.62,-44.81 36.06,-37.39 37.35,-47.9 43.62,-44.81"/>
</g>
<!-- op_mod&#45;&gt;seed -->
<g id="edge10" class="edge">
<title>op_mod&#45;&gt;seed</title>
<path fill="none" stroke="black" d="M24.16,-36.45C19.85,-66.63 13.41,-130.31 26,-182 29.77,-197.47 37.63,-213.34 45.05,-226"/>
<polygon fill="black" stroke="black" points="42.06,-227.83 50.28,-234.52 48.03,-224.17 42.06,-227.83"/>
</g>
<!-- op_mod256 -->
<g id="node10" class="node">
<title>op_mod256</title>
<polygon fill="lightblue" stroke="black" points="171,-182 117,-182 117,-146 171,-146 171,-182"/>
<text xml:space="preserve" text-anchor="middle" x="144" y="-158.95" font-family="Times New Roman,serif" font-size="14.00">%</text>
</g>
<!-- op_array_assign -->
<g id="node11" class="node">
<title>op_array_assign</title>
<polygon fill="lightblue" stroke="black" points="236.62,-109 107.38,-109 107.38,-73 236.62,-73 236.62,-109"/>
<text xml:space="preserve" text-anchor="middle" x="172" y="-85.95" font-family="Times New Roman,serif" font-size="14.00">orig_text_buffer[i] =</text>
</g>
<!-- op_mod256&#45;&gt;op_array_assign -->
<g id="edge12" class="edge">
<title>op_mod256&#45;&gt;op_array_assign</title>
<path fill="none" stroke="black" d="M150.78,-145.81C153.87,-137.96 157.62,-128.47 161.09,-119.66"/>
<polygon fill="black" stroke="black" points="164.32,-121.02 164.73,-110.44 157.8,-118.46 164.32,-121.02"/>
</g>
<!-- array_val -->
<g id="node16" class="node">
<title>array_val</title>
<ellipse fill="lightgreen" stroke="black" cx="172" cy="-18" rx="80.01" ry="18"/>
<text xml:space="preserve" text-anchor="middle" x="172" y="-12.95" font-family="Times New Roman,serif" font-size="14.00">orig_text_buffer[i]</text>
</g>
<!-- op_array_assign&#45;&gt;array_val -->
<g id="edge13" class="edge">
<title>op_array_assign&#45;&gt;array_val</title>
<path fill="none" stroke="black" d="M172,-72.81C172,-65.23 172,-56.1 172,-47.54"/>
<polygon fill="black" stroke="black" points="175.5,-47.54 172,-37.54 168.5,-47.54 175.5,-47.54"/>
</g>
<!-- op_inc_i&#45;&gt;i -->
<g id="edge15" class="edge">
<title>op_inc_i&#45;&gt;i</title>
<path fill="none" stroke="black" d="M353.13,-182.29C345.85,-195.51 333.94,-213.86 323.31,-228.35"/>
<polygon fill="black" stroke="black" points="320.75,-225.93 317.49,-236.01 326.33,-230.16 320.75,-225.93"/>
</g>
<!-- seed&#45;&gt;op_mult -->
<g id="edge7" class="edge">
<title>seed&#45;&gt;op_mult</title>
<path fill="none" stroke="black" d="M62,-234.41C62,-222.76 62,-207.05 62,-193.52"/>
<polygon fill="black" stroke="black" points="65.5,-193.86 62,-183.86 58.5,-193.86 65.5,-193.86"/>
</g>
<!-- seed&#45;&gt;op_mod256 -->
<g id="edge11" class="edge">
<title>seed&#45;&gt;op_mod256</title>
<path fill="none" stroke="black" d="M75.91,-236.83C87.94,-224.14 105.6,-205.51 119.92,-190.4"/>
<polygon fill="black" stroke="black" points="122.09,-193.2 126.43,-183.53 117.01,-188.38 122.09,-193.2"/>
</g>
<!-- i&#45;&gt;op_assign_tabort -->
<g id="edge5" class="edge">
<title>i&#45;&gt;op_assign_tabort</title>
<path fill="none" stroke="black" d="M299.04,-234.41C297.02,-222.76 294.29,-207.05 291.95,-193.52"/>
<polygon fill="black" stroke="black" points="295.42,-193.1 290.27,-183.84 288.53,-194.29 295.42,-193.1"/>
</g>
<!-- i&#45;&gt;op_inc_i -->
<g id="edge14" class="edge">
<title>i&#45;&gt;op_inc_i</title>
<path fill="none" stroke="black" d="M307.76,-234.41C314.48,-222.17 325.24,-205.45 335.27,-191.49"/>
<polygon fill="black" stroke="black" points="338,-193.69 341.13,-183.57 332.37,-189.52 338,-193.69"/>
</g>
</g>
</svg>
