<?xml version="1.0" encoding="UTF-8" standalone="no"?>
<!DOCTYPE svg PUBLIC "-//W3C//DTD SVG 1.1//EN"
 "http://www.w3.org/Graphics/SVG/1.1/DTD/svg11.dtd">
<!-- Generated by graphviz version 13.1.2 (20250808.2320)
 -->
<!-- Title: initbuffer_CFG Pages: 1 -->
<svg width="256pt" height="644pt"
 viewBox="0.00 0.00 256.00 644.00" xmlns="http://www.w3.org/2000/svg" xmlns:xlink="http://www.w3.org/1999/xlink">
<g id="graph0" class="graph" transform="scale(1 1) rotate(0) translate(4 639.5)">
<title>initbuffer_CFG</title>
<polygon fill="white" stroke="none" points="-4,4 -4,-639.5 251.88,-639.5 251.88,4 -4,4"/>
<!-- N1 -->
<g id="node1" class="node">
<title>N1</title>
<polygon fill="none" stroke="black" points="220,-635.5 135.75,-635.5 135.75,-599.5 220,-599.5 220,-635.5"/>
<text xml:space="preserve" text-anchor="middle" x="177.88" y="-612.45" font-family="Times New Roman,serif" font-size="14.00">int seed = 1;</text>
</g>
<!-- N2 -->
<g id="node2" class="node">
<title>N2</title>
<polygon fill="none" stroke="black" points="204.88,-562.5 150.88,-562.5 150.88,-526.5 204.88,-526.5 204.88,-562.5"/>
<text xml:space="preserve" text-anchor="middle" x="177.88" y="-539.45" font-family="Times New Roman,serif" font-size="14.00">int i;</text>
</g>
<!-- N1&#45;&gt;N2 -->
<g id="edge1" class="edge">
<title>N1&#45;&gt;N2</title>
<path fill="none" stroke="black" d="M177.88,-599.31C177.88,-591.73 177.88,-582.6 177.88,-574.04"/>
<polygon fill="black" stroke="black" points="181.38,-574.04 177.88,-564.04 174.38,-574.04 181.38,-574.04"/>
</g>
<!-- N3 -->
<g id="node3" class="node">
<title>N3</title>
<polygon fill="none" stroke="black" points="212.5,-489.5 143.25,-489.5 143.25,-453.5 212.5,-453.5 212.5,-489.5"/>
<text xml:space="preserve" text-anchor="middle" x="177.88" y="-466.45" font-family="Times New Roman,serif" font-size="14.00">int tabort;</text>
</g>
<!-- N2&#45;&gt;N3 -->
<g id="edge2" class="edge">
<title>N2&#45;&gt;N3</title>
<path fill="none" stroke="black" d="M177.88,-526.31C177.88,-518.73 177.88,-509.6 177.88,-501.04"/>
<polygon fill="black" stroke="black" points="181.38,-501.04 177.88,-491.04 174.38,-501.04 181.38,-501.04"/>
</g>
<!-- N4 -->
<g id="node4" class="node">
<title>N4</title>
<polygon fill="none" stroke="black" points="204.88,-416.5 150.88,-416.5 150.88,-380.5 204.88,-380.5 204.88,-416.5"/>
<text xml:space="preserve" text-anchor="middle" x="177.88" y="-393.45" font-family="Times New Roman,serif" font-size="14.00">i = 0</text>
</g>
<!-- N3&#45;&gt;N4 -->
<g id="edge3" class="edge">
<title>N3&#45;&gt;N4</title>
<path fill="none" stroke="black" d="M177.88,-453.31C177.88,-445.73 177.88,-436.6 177.88,-428.04"/>
<polygon fill="black" stroke="black" points="181.38,-428.04 177.88,-418.04 174.38,-428.04 181.38,-428.04"/>
</g>
<!-- N5 -->
<g id="node5" class="node">
<title>N5</title>
<polygon fill="none" stroke="black" points="235.38,-343.5 120.38,-343.5 120.38,-307.5 235.38,-307.5 235.38,-343.5"/>
<text xml:space="preserve" text-anchor="middle" x="177.88" y="-320.45" font-family="Times New Roman,serif" font-size="14.00">i &lt; BUFFERSIZE</text>
</g>
<!-- N4&#45;&gt;N5 -->
<g id="edge4" class="edge">
<title>N4&#45;&gt;N5</title>
<path fill="none" stroke="black" d="M177.88,-380.31C177.88,-372.73 177.88,-363.6 177.88,-355.04"/>
<polygon fill="black" stroke="black" points="181.38,-355.04 177.88,-345.04 174.38,-355.04 181.38,-355.04"/>
</g>
<!-- N6 -->
<g id="node6" class="node">
<title>N6</title>
<polygon fill="none" stroke="black" points="118.25,-255 47.5,-255 47.5,-219 118.25,-219 118.25,-255"/>
<text xml:space="preserve" text-anchor="middle" x="82.88" y="-231.95" font-family="Times New Roman,serif" font-size="14.00">tabort = i;</text>
</g>
<!-- N5&#45;&gt;N6 -->
<g id="edge5" class="edge">
<title>N5&#45;&gt;N6</title>
<path fill="none" stroke="black" d="M159.11,-307.41C145.14,-294.7 125.88,-277.16 110.21,-262.89"/>
<polygon fill="black" stroke="black" points="112.8,-260.51 103.05,-256.37 108.09,-265.69 112.8,-260.51"/>
<text xml:space="preserve" text-anchor="middle" x="149.38" y="-276.2" font-family="Times New Roman,serif" font-size="14.00">true</text>
</g>
<!-- N10 -->
<g id="node10" class="node">
<title>N10</title>
<polygon fill="none" stroke="black" points="219.62,-255 136.12,-255 136.12,-219 219.62,-219 219.62,-255"/>
<text xml:space="preserve" text-anchor="middle" x="177.88" y="-231.95" font-family="Times New Roman,serif" font-size="14.00">Fim do loop</text>
</g>
<!-- N5&#45;&gt;N10 -->
<g id="edge6" class="edge">
<title>N5&#45;&gt;N10</title>
<path fill="none" stroke="black" d="M177.88,-307.41C177.88,-295.76 177.88,-280.05 177.88,-266.52"/>
<polygon fill="black" stroke="black" points="181.38,-266.86 177.88,-256.86 174.38,-266.86 181.38,-266.86"/>
<text xml:space="preserve" text-anchor="middle" x="190.62" y="-276.2" font-family="Times New Roman,serif" font-size="14.00">false</text>
</g>
<!-- N7 -->
<g id="node7" class="node">
<title>N7</title>
<polygon fill="none" stroke="black" points="211.75,-182 0,-182 0,-146 211.75,-146 211.75,-182"/>
<text xml:space="preserve" text-anchor="middle" x="105.88" y="-158.95" font-family="Times New Roman,serif" font-size="14.00">seed = ((seed * 133) + 81) % 8095;</text>
</g>
<!-- N6&#45;&gt;N7 -->
<g id="edge7" class="edge">
<title>N6&#45;&gt;N7</title>
<path fill="none" stroke="black" d="M88.44,-218.81C90.96,-211.05 93.99,-201.68 96.82,-192.95"/>
<polygon fill="black" stroke="black" points="100.14,-194.06 99.89,-183.47 93.48,-191.9 100.14,-194.06"/>
</g>
<!-- N8 -->
<g id="node8" class="node">
<title>N8</title>
<polygon fill="none" stroke="black" points="215.12,-109 14.62,-109 14.62,-73 215.12,-73 215.12,-109"/>
<text xml:space="preserve" text-anchor="middle" x="114.88" y="-85.95" font-family="Times New Roman,serif" font-size="14.00">orig_text_buffer[i] = seed % 256;</text>
</g>
<!-- N7&#45;&gt;N8 -->
<g id="edge8" class="edge">
<title>N7&#45;&gt;N8</title>
<path fill="none" stroke="black" d="M108.05,-145.81C109.03,-138.14 110.2,-128.89 111.29,-120.24"/>
<polygon fill="black" stroke="black" points="114.74,-120.89 112.53,-110.53 107.8,-120.01 114.74,-120.89"/>
</g>
<!-- N9 -->
<g id="node9" class="node">
<title>N9</title>
<polygon fill="none" stroke="black" points="207.88,-36 153.88,-36 153.88,0 207.88,0 207.88,-36"/>
<text xml:space="preserve" text-anchor="middle" x="180.88" y="-12.95" font-family="Times New Roman,serif" font-size="14.00">i++</text>
</g>
<!-- N8&#45;&gt;N9 -->
<g id="edge9" class="edge">
<title>N8&#45;&gt;N9</title>
<path fill="none" stroke="black" d="M130.85,-72.81C138.8,-64.27 148.55,-53.77 157.34,-44.32"/>
<polygon fill="black" stroke="black" points="159.77,-46.84 164.01,-37.14 154.64,-42.08 159.77,-46.84"/>
</g>
<!-- N9&#45;&gt;N5 -->
<g id="edge10" class="edge">
<title>N9&#45;&gt;N5</title>
<path fill="none" stroke="black" d="M208.13,-33.86C226.68,-46.18 247.88,-65.59 247.88,-90 247.88,-238 247.88,-238 247.88,-238 247.88,-262.9 230.13,-284.66 212.5,-300.12"/>
<polygon fill="black" stroke="black" points="210.59,-297.16 205.11,-306.23 215.05,-302.56 210.59,-297.16"/>
</g>
</g>
</svg>
