<?xml version="1.0" encoding="UTF-8" standalone="no"?>
<!DOCTYPE svg PUBLIC "-//W3C//DTD SVG 1.1//EN"
 "http://www.w3.org/Graphics/SVG/1.1/DTD/svg11.dtd">
<!-- Generated by graphviz version 13.1.2 (20250808.2320)
 -->
<!-- Title: main_CFG Pages: 1 -->
<svg width="281pt" height="692pt"
 viewBox="0.00 0.00 281.00 692.00" xmlns="http://www.w3.org/2000/svg" xmlns:xlink="http://www.w3.org/1999/xlink">
<g id="graph0" class="graph" transform="scale(1 1) rotate(0) translate(4 688)">
<title>main_CFG</title>
<polygon fill="white" stroke="none" points="-4,4 -4,-688 277.25,-688 277.25,4 -4,4"/>
<!-- N1 -->
<g id="node1" class="node">
<title>N1</title>
<polygon fill="none" stroke="black" points="211.75,-684 61.5,-684 61.5,-648 211.75,-648 211.75,-684"/>
<text xml:space="preserve" text-anchor="middle" x="136.62" y="-660.95" font-family="Times New Roman,serif" font-size="14.00">int count = IN_COUNT;</text>
</g>
<!-- N2 -->
<g id="node2" class="node">
<title>N2</title>
<polygon fill="none" stroke="black" points="176.5,-612 96.75,-612 96.75,-576 176.5,-576 176.5,-612"/>
<text xml:space="preserve" text-anchor="middle" x="136.62" y="-588.95" font-family="Times New Roman,serif" font-size="14.00">initbuffer();</text>
</g>
<!-- N1&#45;&gt;N2 -->
<g id="edge1" class="edge">
<title>N1&#45;&gt;N2</title>
<path fill="none" stroke="black" d="M136.62,-647.7C136.62,-640.41 136.62,-631.73 136.62,-623.54"/>
<polygon fill="black" stroke="black" points="140.13,-623.62 136.63,-613.62 133.13,-623.62 140.13,-623.62"/>
</g>
<!-- N3 -->
<g id="node3" class="node">
<title>N3</title>
<polygon fill="none" stroke="black" points="190.75,-540 82.5,-540 82.5,-504 190.75,-504 190.75,-540"/>
<text xml:space="preserve" text-anchor="middle" x="136.62" y="-516.95" font-family="Times New Roman,serif" font-size="14.00">maxbits = BITS;</text>
</g>
<!-- N2&#45;&gt;N3 -->
<g id="edge2" class="edge">
<title>N2&#45;&gt;N3</title>
<path fill="none" stroke="black" d="M136.62,-575.7C136.62,-568.41 136.62,-559.73 136.62,-551.54"/>
<polygon fill="black" stroke="black" points="140.13,-551.62 136.63,-541.62 133.13,-551.62 140.13,-551.62"/>
</g>
<!-- N4 -->
<g id="node4" class="node">
<title>N4</title>
<polygon fill="none" stroke="black" points="228.25,-468 45,-468 45,-432 228.25,-432 228.25,-468"/>
<text xml:space="preserve" text-anchor="middle" x="136.62" y="-444.95" font-family="Times New Roman,serif" font-size="14.00">maxmaxcode = 1 &lt;&lt; maxbits;</text>
</g>
<!-- N3&#45;&gt;N4 -->
<g id="edge3" class="edge">
<title>N3&#45;&gt;N4</title>
<path fill="none" stroke="black" d="M136.62,-503.7C136.62,-496.41 136.62,-487.73 136.62,-479.54"/>
<polygon fill="black" stroke="black" points="140.13,-479.62 136.63,-469.62 133.13,-479.62 140.13,-479.62"/>
</g>
<!-- N5 -->
<g id="node5" class="node">
<title>N5</title>
<polygon fill="none" stroke="black" points="184.75,-396 88.5,-396 88.5,-360 184.75,-360 184.75,-396"/>
<text xml:space="preserve" text-anchor="middle" x="136.62" y="-372.95" font-family="Times New Roman,serif" font-size="14.00">InCnt = count;</text>
</g>
<!-- N4&#45;&gt;N5 -->
<g id="edge4" class="edge">
<title>N4&#45;&gt;N5</title>
<path fill="none" stroke="black" d="M136.62,-431.7C136.62,-424.41 136.62,-415.73 136.62,-407.54"/>
<polygon fill="black" stroke="black" points="140.13,-407.62 136.63,-397.62 133.13,-407.62 140.13,-407.62"/>
</g>
<!-- N6 -->
<g id="node6" class="node">
<title>N6</title>
<polygon fill="none" stroke="black" points="234.62,-324 38.62,-324 38.62,-288 234.62,-288 234.62,-324"/>
<text xml:space="preserve" text-anchor="middle" x="136.62" y="-300.95" font-family="Times New Roman,serif" font-size="14.00">apsim_InCnt = IN_COUNT + 3;</text>
</g>
<!-- N5&#45;&gt;N6 -->
<g id="edge5" class="edge">
<title>N5&#45;&gt;N6</title>
<path fill="none" stroke="black" d="M136.62,-359.7C136.62,-352.41 136.62,-343.73 136.62,-335.54"/>
<polygon fill="black" stroke="black" points="140.13,-335.62 136.63,-325.62 133.13,-335.62 140.13,-335.62"/>
</g>
<!-- N7 -->
<g id="node7" class="node">
<title>N7</title>
<polygon fill="none" stroke="black" points="264.25,-252 9,-252 9,-216 264.25,-216 264.25,-252"/>
<text xml:space="preserve" text-anchor="middle" x="136.62" y="-228.95" font-family="Times New Roman,serif" font-size="14.00">InBuff = (unsigned char *)orig_text_buffer;</text>
</g>
<!-- N6&#45;&gt;N7 -->
<g id="edge6" class="edge">
<title>N6&#45;&gt;N7</title>
<path fill="none" stroke="black" d="M136.62,-287.7C136.62,-280.41 136.62,-271.73 136.62,-263.54"/>
<polygon fill="black" stroke="black" points="140.13,-263.62 136.63,-253.62 133.13,-263.62 140.13,-263.62"/>
</g>
<!-- N8 -->
<g id="node8" class="node">
<title>N8</title>
<polygon fill="none" stroke="black" points="273.25,-180 0,-180 0,-144 273.25,-144 273.25,-180"/>
<text xml:space="preserve" text-anchor="middle" x="136.62" y="-156.95" font-family="Times New Roman,serif" font-size="14.00">OutBuff = (unsigned char *)comp_text_buffer;</text>
</g>
<!-- N7&#45;&gt;N8 -->
<g id="edge7" class="edge">
<title>N7&#45;&gt;N8</title>
<path fill="none" stroke="black" d="M136.62,-215.7C136.62,-208.41 136.62,-199.73 136.62,-191.54"/>
<polygon fill="black" stroke="black" points="140.13,-191.62 136.63,-181.62 133.13,-191.62 140.13,-191.62"/>
</g>
<!-- N9 -->
<g id="node9" class="node">
<title>N9</title>
<polygon fill="none" stroke="black" points="176.88,-108 96.38,-108 96.38,-72 176.88,-72 176.88,-108"/>
<text xml:space="preserve" text-anchor="middle" x="136.62" y="-84.95" font-family="Times New Roman,serif" font-size="14.00">compress();</text>
</g>
<!-- N8&#45;&gt;N9 -->
<g id="edge8" class="edge">
<title>N8&#45;&gt;N9</title>
<path fill="none" stroke="black" d="M136.62,-143.7C136.62,-136.41 136.62,-127.73 136.62,-119.54"/>
<polygon fill="black" stroke="black" points="140.13,-119.62 136.63,-109.62 133.13,-119.62 140.13,-119.62"/>
</g>
<!-- N10 -->
<g id="node10" class="node">
<title>N10</title>
<polygon fill="none" stroke="black" points="172.38,-36 100.88,-36 100.88,0 172.38,0 172.38,-36"/>
<text xml:space="preserve" text-anchor="middle" x="136.62" y="-12.95" font-family="Times New Roman,serif" font-size="14.00">return (0);</text>
</g>
<!-- N9&#45;&gt;N10 -->
<g id="edge9" class="edge">
<title>N9&#45;&gt;N10</title>
<path fill="none" stroke="black" d="M136.62,-71.7C136.62,-64.41 136.62,-55.73 136.62,-47.54"/>
<polygon fill="black" stroke="black" points="140.13,-47.62 136.63,-37.62 133.13,-47.62 140.13,-47.62"/>
</g>
</g>
</svg>
