<?xml version="1.0" encoding="UTF-8" standalone="no"?>
<!DOCTYPE svg PUBLIC "-//W3C//DTD SVG 1.1//EN"
 "http://www.w3.org/Graphics/SVG/1.1/DTD/svg11.dtd">
<!-- Generated by graphviz version 13.1.2 (20250808.2320)
 -->
<!-- Title: main_DFG Pages: 1 -->
<svg width="815pt" height="404pt"
 viewBox="0.00 0.00 815.00 404.00" xmlns="http://www.w3.org/2000/svg" xmlns:xlink="http://www.w3.org/1999/xlink">
<g id="graph0" class="graph" transform="scale(1 1) rotate(0) translate(4 400)">
<title>main_DFG</title>
<polygon fill="white" stroke="none" points="-4,4 -4,-400 811.28,-400 811.28,4 -4,4"/>
<!-- IN_COUNT -->
<g id="node1" class="node">
<title>IN_COUNT</title>
<ellipse fill="lightblue" stroke="black" cx="112.9" cy="-378" rx="56.98" ry="18"/>
<text xml:space="preserve" text-anchor="middle" x="112.9" y="-372.95" font-family="Times New Roman,serif" font-size="14.00">IN_COUNT</text>
</g>
<!-- op_assign_count -->
<g id="node5" class="node">
<title>op_assign_count</title>
<polygon fill="lightblue" stroke="black" points="80.9,-324 26.9,-324 26.9,-288 80.9,-288 80.9,-324"/>
<text xml:space="preserve" text-anchor="middle" x="53.9" y="-300.95" font-family="Times New Roman,serif" font-size="14.00">=</text>
</g>
<!-- IN_COUNT&#45;&gt;op_assign_count -->
<g id="edge1" class="edge">
<title>IN_COUNT&#45;&gt;op_assign_count</title>
<path fill="none" stroke="black" d="M98.92,-360.41C92.07,-352.28 83.66,-342.31 75.97,-333.18"/>
<polygon fill="black" stroke="black" points="78.7,-330.99 69.58,-325.6 73.35,-335.51 78.7,-330.99"/>
</g>
<!-- op_add -->
<g id="node11" class="node">
<title>op_add</title>
<polygon fill="lightblue" stroke="black" points="154.9,-324 100.9,-324 100.9,-288 154.9,-288 154.9,-324"/>
<text xml:space="preserve" text-anchor="middle" x="127.9" y="-300.95" font-family="Times New Roman,serif" font-size="14.00">+</text>
</g>
<!-- IN_COUNT&#45;&gt;op_add -->
<g id="edge10" class="edge">
<title>IN_COUNT&#45;&gt;op_add</title>
<path fill="none" stroke="black" d="M116.61,-359.7C118.19,-352.32 120.08,-343.52 121.85,-335.25"/>
<polygon fill="black" stroke="black" points="125.25,-336.1 123.92,-325.58 118.4,-334.63 125.25,-336.1"/>
</g>
<!-- BITS -->
<g id="node2" class="node">
<title>BITS</title>
<ellipse fill="lightblue" stroke="black" cx="254.9" cy="-378" rx="30.88" ry="18"/>
<text xml:space="preserve" text-anchor="middle" x="254.9" y="-372.95" font-family="Times New Roman,serif" font-size="14.00">BITS</text>
</g>
<!-- op_assign_maxbits -->
<g id="node7" class="node">
<title>op_assign_maxbits</title>
<polygon fill="lightblue" stroke="black" points="281.9,-324 227.9,-324 227.9,-288 281.9,-288 281.9,-324"/>
<text xml:space="preserve" text-anchor="middle" x="254.9" y="-300.95" font-family="Times New Roman,serif" font-size="14.00">=</text>
</g>
<!-- BITS&#45;&gt;op_assign_maxbits -->
<g id="edge3" class="edge">
<title>BITS&#45;&gt;op_assign_maxbits</title>
<path fill="none" stroke="black" d="M254.9,-359.7C254.9,-352.41 254.9,-343.73 254.9,-335.54"/>
<polygon fill="black" stroke="black" points="258.4,-335.62 254.9,-325.62 251.4,-335.62 258.4,-335.62"/>
</g>
<!-- orig_text_buffer -->
<g id="node3" class="node">
<title>orig_text_buffer</title>
<ellipse fill="lightblue" stroke="black" cx="374.9" cy="-378" rx="71.31" ry="18"/>
<text xml:space="preserve" text-anchor="middle" x="374.9" y="-372.95" font-family="Times New Roman,serif" font-size="14.00">orig_text_buffer</text>
</g>
<!-- op_cast -->
<g id="node13" class="node">
<title>op_cast</title>
<polygon fill="lightblue" stroke="black" points="430.53,-324 319.28,-324 319.28,-288 430.53,-288 430.53,-324"/>
<text xml:space="preserve" text-anchor="middle" x="374.9" y="-300.95" font-family="Times New Roman,serif" font-size="14.00">(unsigned char *)</text>
</g>
<!-- orig_text_buffer&#45;&gt;op_cast -->
<g id="edge13" class="edge">
<title>orig_text_buffer&#45;&gt;op_cast</title>
<path fill="none" stroke="black" d="M374.9,-359.7C374.9,-352.41 374.9,-343.73 374.9,-335.54"/>
<polygon fill="black" stroke="black" points="378.4,-335.62 374.9,-325.62 371.4,-335.62 378.4,-335.62"/>
</g>
<!-- comp_text_buffer -->
<g id="node4" class="node">
<title>comp_text_buffer</title>
<ellipse fill="lightblue" stroke="black" cx="541.9" cy="-378" rx="77.45" ry="18"/>
<text xml:space="preserve" text-anchor="middle" x="541.9" y="-372.95" font-family="Times New Roman,serif" font-size="14.00">comp_text_buffer</text>
</g>
<!-- op_assign_OutBuff -->
<g id="node15" class="node">
<title>op_assign_OutBuff</title>
<polygon fill="lightblue" stroke="black" points="568.9,-324 514.9,-324 514.9,-288 568.9,-288 568.9,-324"/>
<text xml:space="preserve" text-anchor="middle" x="541.9" y="-300.95" font-family="Times New Roman,serif" font-size="14.00">=</text>
</g>
<!-- comp_text_buffer&#45;&gt;op_assign_OutBuff -->
<g id="edge16" class="edge">
<title>comp_text_buffer&#45;&gt;op_assign_OutBuff</title>
<path fill="none" stroke="black" d="M541.9,-359.7C541.9,-352.41 541.9,-343.73 541.9,-335.54"/>
<polygon fill="black" stroke="black" points="545.4,-335.62 541.9,-325.62 538.4,-335.62 545.4,-335.62"/>
</g>
<!-- count -->
<g id="node18" class="node">
<title>count</title>
<ellipse fill="lightgreen" stroke="black" cx="45.9" cy="-234" rx="31.39" ry="18"/>
<text xml:space="preserve" text-anchor="middle" x="45.9" y="-228.95" font-family="Times New Roman,serif" font-size="14.00">count</text>
</g>
<!-- op_assign_count&#45;&gt;count -->
<g id="edge2" class="edge">
<title>op_assign_count&#45;&gt;count</title>
<path fill="none" stroke="black" d="M51.93,-287.7C51.09,-280.41 50.1,-271.73 49.16,-263.54"/>
<polygon fill="black" stroke="black" points="52.64,-263.15 48.03,-253.61 45.69,-263.94 52.64,-263.15"/>
</g>
<!-- op_call_initbuffer -->
<g id="node6" class="node">
<title>op_call_initbuffer</title>
<polygon fill="lightblue" stroke="black" points="712.9,-396 636.9,-396 636.9,-360 712.9,-360 712.9,-396"/>
<text xml:space="preserve" text-anchor="middle" x="674.9" y="-372.95" font-family="Times New Roman,serif" font-size="14.00">initbuffer()</text>
</g>
<!-- maxbits_var -->
<g id="node19" class="node">
<title>maxbits_var</title>
<ellipse fill="lightgreen" stroke="black" cx="254.9" cy="-234" rx="40.6" ry="18"/>
<text xml:space="preserve" text-anchor="middle" x="254.9" y="-228.95" font-family="Times New Roman,serif" font-size="14.00">maxbits</text>
</g>
<!-- op_assign_maxbits&#45;&gt;maxbits_var -->
<g id="edge4" class="edge">
<title>op_assign_maxbits&#45;&gt;maxbits_var</title>
<path fill="none" stroke="black" d="M254.9,-287.7C254.9,-280.41 254.9,-271.73 254.9,-263.54"/>
<polygon fill="black" stroke="black" points="258.4,-263.62 254.9,-253.62 251.4,-263.62 258.4,-263.62"/>
</g>
<!-- op_shift -->
<g id="node8" class="node">
<title>op_shift</title>
<polygon fill="lightblue" stroke="black" points="281.9,-180 227.9,-180 227.9,-144 281.9,-144 281.9,-180"/>
<text xml:space="preserve" text-anchor="middle" x="254.9" y="-156.95" font-family="Times New Roman,serif" font-size="14.00">&lt;&lt;</text>
</g>
<!-- op_assign_maxmaxcode -->
<g id="node9" class="node">
<title>op_assign_maxmaxcode</title>
<polygon fill="lightblue" stroke="black" points="281.9,-108 227.9,-108 227.9,-72 281.9,-72 281.9,-108"/>
<text xml:space="preserve" text-anchor="middle" x="254.9" y="-84.95" font-family="Times New Roman,serif" font-size="14.00">=</text>
</g>
<!-- op_shift&#45;&gt;op_assign_maxmaxcode -->
<g id="edge6" class="edge">
<title>op_shift&#45;&gt;op_assign_maxmaxcode</title>
<path fill="none" stroke="black" d="M254.9,-143.7C254.9,-136.41 254.9,-127.73 254.9,-119.54"/>
<polygon fill="black" stroke="black" points="258.4,-119.62 254.9,-109.62 251.4,-119.62 258.4,-119.62"/>
</g>
<!-- maxmaxcode_var -->
<g id="node20" class="node">
<title>maxmaxcode_var</title>
<ellipse fill="lightgreen" stroke="black" cx="254.9" cy="-18" rx="61.08" ry="18"/>
<text xml:space="preserve" text-anchor="middle" x="254.9" y="-12.95" font-family="Times New Roman,serif" font-size="14.00">maxmaxcode</text>
</g>
<!-- op_assign_maxmaxcode&#45;&gt;maxmaxcode_var -->
<g id="edge7" class="edge">
<title>op_assign_maxmaxcode&#45;&gt;maxmaxcode_var</title>
<path fill="none" stroke="black" d="M254.9,-71.7C254.9,-64.41 254.9,-55.73 254.9,-47.54"/>
<polygon fill="black" stroke="black" points="258.4,-47.62 254.9,-37.62 251.4,-47.62 258.4,-47.62"/>
</g>
<!-- op_assign_InCnt -->
<g id="node10" class="node">
<title>op_assign_InCnt</title>
<polygon fill="lightblue" stroke="black" points="58.9,-180 4.9,-180 4.9,-144 58.9,-144 58.9,-180"/>
<text xml:space="preserve" text-anchor="middle" x="31.9" y="-156.95" font-family="Times New Roman,serif" font-size="14.00">=</text>
</g>
<!-- InCnt -->
<g id="node21" class="node">
<title>InCnt</title>
<ellipse fill="lightgreen" stroke="black" cx="31.9" cy="-90" rx="31.9" ry="18"/>
<text xml:space="preserve" text-anchor="middle" x="31.9" y="-84.95" font-family="Times New Roman,serif" font-size="14.00">InCnt</text>
</g>
<!-- op_assign_InCnt&#45;&gt;InCnt -->
<g id="edge9" class="edge">
<title>op_assign_InCnt&#45;&gt;InCnt</title>
<path fill="none" stroke="black" d="M31.9,-143.7C31.9,-136.41 31.9,-127.73 31.9,-119.54"/>
<polygon fill="black" stroke="black" points="35.4,-119.62 31.9,-109.62 28.4,-119.62 35.4,-119.62"/>
</g>
<!-- op_assign_apsim_InCnt -->
<g id="node12" class="node">
<title>op_assign_apsim_InCnt</title>
<polygon fill="lightblue" stroke="black" points="161.9,-252 107.9,-252 107.9,-216 161.9,-216 161.9,-252"/>
<text xml:space="preserve" text-anchor="middle" x="134.9" y="-228.95" font-family="Times New Roman,serif" font-size="14.00">=</text>
</g>
<!-- op_add&#45;&gt;op_assign_apsim_InCnt -->
<g id="edge11" class="edge">
<title>op_add&#45;&gt;op_assign_apsim_InCnt</title>
<path fill="none" stroke="black" d="M129.63,-287.7C130.36,-280.41 131.23,-271.73 132.05,-263.54"/>
<polygon fill="black" stroke="black" points="135.53,-263.91 133.04,-253.61 128.56,-263.21 135.53,-263.91"/>
</g>
<!-- apsim_InCnt -->
<g id="node22" class="node">
<title>apsim_InCnt</title>
<ellipse fill="lightgreen" stroke="black" cx="135.9" cy="-162" rx="59.03" ry="18"/>
<text xml:space="preserve" text-anchor="middle" x="135.9" y="-156.95" font-family="Times New Roman,serif" font-size="14.00">apsim_InCnt</text>
</g>
<!-- op_assign_apsim_InCnt&#45;&gt;apsim_InCnt -->
<g id="edge12" class="edge">
<title>op_assign_apsim_InCnt&#45;&gt;apsim_InCnt</title>
<path fill="none" stroke="black" d="M135.15,-215.7C135.25,-208.41 135.38,-199.73 135.5,-191.54"/>
<polygon fill="black" stroke="black" points="138.99,-191.67 135.64,-181.62 131.99,-191.57 138.99,-191.67"/>
</g>
<!-- op_assign_InBuff -->
<g id="node14" class="node">
<title>op_assign_InBuff</title>
<polygon fill="lightblue" stroke="black" points="401.9,-252 347.9,-252 347.9,-216 401.9,-216 401.9,-252"/>
<text xml:space="preserve" text-anchor="middle" x="374.9" y="-228.95" font-family="Times New Roman,serif" font-size="14.00">=</text>
</g>
<!-- op_cast&#45;&gt;op_assign_InBuff -->
<g id="edge14" class="edge">
<title>op_cast&#45;&gt;op_assign_InBuff</title>
<path fill="none" stroke="black" d="M374.9,-287.7C374.9,-280.41 374.9,-271.73 374.9,-263.54"/>
<polygon fill="black" stroke="black" points="378.4,-263.62 374.9,-253.62 371.4,-263.62 378.4,-263.62"/>
</g>
<!-- InBuff -->
<g id="node23" class="node">
<title>InBuff</title>
<ellipse fill="lightgreen" stroke="black" cx="374.9" cy="-162" rx="35.49" ry="18"/>
<text xml:space="preserve" text-anchor="middle" x="374.9" y="-156.95" font-family="Times New Roman,serif" font-size="14.00">InBuff</text>
</g>
<!-- op_assign_InBuff&#45;&gt;InBuff -->
<g id="edge15" class="edge">
<title>op_assign_InBuff&#45;&gt;InBuff</title>
<path fill="none" stroke="black" d="M374.9,-215.7C374.9,-208.41 374.9,-199.73 374.9,-191.54"/>
<polygon fill="black" stroke="black" points="378.4,-191.62 374.9,-181.62 371.4,-191.62 378.4,-191.62"/>
</g>
<!-- OutBuff -->
<g id="node24" class="node">
<title>OutBuff</title>
<ellipse fill="lightgreen" stroke="black" cx="541.9" cy="-234" rx="41.63" ry="18"/>
<text xml:space="preserve" text-anchor="middle" x="541.9" y="-228.95" font-family="Times New Roman,serif" font-size="14.00">OutBuff</text>
</g>
<!-- op_assign_OutBuff&#45;&gt;OutBuff -->
<g id="edge17" class="edge">
<title>op_assign_OutBuff&#45;&gt;OutBuff</title>
<path fill="none" stroke="black" d="M541.9,-287.7C541.9,-280.41 541.9,-271.73 541.9,-263.54"/>
<polygon fill="black" stroke="black" points="545.4,-263.62 541.9,-253.62 538.4,-263.62 545.4,-263.62"/>
</g>
<!-- op_call_compress -->
<g id="node16" class="node">
<title>op_call_compress</title>
<polygon fill="lightblue" stroke="black" points="807.28,-396 730.53,-396 730.53,-360 807.28,-360 807.28,-396"/>
<text xml:space="preserve" text-anchor="middle" x="768.9" y="-372.95" font-family="Times New Roman,serif" font-size="14.00">compress()</text>
</g>
<!-- op_return -->
<g id="node17" class="node">
<title>op_return</title>
<polygon fill="lightblue" stroke="black" points="795.9,-324 741.9,-324 741.9,-288 795.9,-288 795.9,-324"/>
<text xml:space="preserve" text-anchor="middle" x="768.9" y="-300.95" font-family="Times New Roman,serif" font-size="14.00">return</text>
</g>
<!-- op_call_compress&#45;&gt;op_return -->
<g id="edge18" class="edge">
<title>op_call_compress&#45;&gt;op_return</title>
<path fill="none" stroke="black" d="M768.9,-359.7C768.9,-352.41 768.9,-343.73 768.9,-335.54"/>
<polygon fill="black" stroke="black" points="772.4,-335.62 768.9,-325.62 765.4,-335.62 772.4,-335.62"/>
</g>
<!-- count&#45;&gt;op_assign_InCnt -->
<g id="edge8" class="edge">
<title>count&#45;&gt;op_assign_InCnt</title>
<path fill="none" stroke="black" d="M42.44,-215.7C40.97,-208.32 39.21,-199.52 37.55,-191.25"/>
<polygon fill="black" stroke="black" points="41.01,-190.71 35.62,-181.59 34.15,-192.08 41.01,-190.71"/>
</g>
<!-- maxbits_var&#45;&gt;op_shift -->
<g id="edge5" class="edge">
<title>maxbits_var&#45;&gt;op_shift</title>
<path fill="none" stroke="black" d="M254.9,-215.7C254.9,-208.41 254.9,-199.73 254.9,-191.54"/>
<polygon fill="black" stroke="black" points="258.4,-191.62 254.9,-181.62 251.4,-191.62 258.4,-191.62"/>
</g>
</g>
</svg>
