<?xml version="1.0" encoding="UTF-8" standalone="no"?>
<!DOCTYPE svg PUBLIC "-//W3C//DTD SVG 1.1//EN"
 "http://www.w3.org/Graphics/SVG/1.1/DTD/svg11.dtd">
<!-- Generated by graphviz version 13.1.2 (20250808.2320)
 -->
<!-- Title: foo_DCFG Pages: 1 -->
<svg width="284pt" height="721pt"
 viewBox="0.00 0.00 284.00 721.00" xmlns="http://www.w3.org/2000/svg" xmlns:xlink="http://www.w3.org/1999/xlink">
<g id="graph0" class="graph" transform="scale(1 1) rotate(0) translate(4 717)">
<title>foo_DCFG</title>
<polygon fill="white" stroke="none" points="-4,4 -4,-717 279.74,-717 279.74,4 -4,4"/>
<!-- start -->
<g id="node1" class="node">
<title>start</title>
<ellipse fill="none" stroke="black" cx="170.12" cy="-695" rx="32.41" ry="18"/>
<text xml:space="preserve" text-anchor="middle" x="170.12" y="-689.95" font-family="Times New Roman,serif" font-size="14.00">Inicio</text>
</g>
<!-- decl -->
<g id="node3" class="node">
<title>decl</title>
<polygon fill="none" stroke="black" points="271.49,-640 68.74,-640 68.74,-604 271.49,-604 271.49,-640"/>
<text xml:space="preserve" text-anchor="middle" x="170.12" y="-616.95" font-family="Times New Roman,serif" font-size="14.00">Declaracoes: i, j, k, l, (c se TEST)</text>
</g>
<!-- start&#45;&gt;decl -->
<g id="edge1" class="edge">
<title>start&#45;&gt;decl</title>
<path fill="none" stroke="black" d="M170.12,-676.81C170.12,-669.23 170.12,-660.1 170.12,-651.54"/>
<polygon fill="black" stroke="black" points="173.62,-651.54 170.12,-641.54 166.62,-651.54 173.62,-651.54"/>
</g>
<!-- end -->
<g id="node2" class="node">
<title>end</title>
<ellipse fill="none" stroke="black" cx="121.12" cy="-18" rx="27" ry="18"/>
<text xml:space="preserve" text-anchor="middle" x="121.12" y="-12.95" font-family="Times New Roman,serif" font-size="14.00">Fim</text>
</g>
<!-- loop_i -->
<g id="node4" class="node">
<title>loop_i</title>
<polygon fill="none" stroke="black" points="170.12,-567 96.77,-549 170.12,-531 243.46,-549 170.12,-567"/>
<text xml:space="preserve" text-anchor="middle" x="170.12" y="-543.95" font-family="Times New Roman,serif" font-size="14.00">i = 0; i &lt; 5</text>
</g>
<!-- decl&#45;&gt;loop_i -->
<g id="edge2" class="edge">
<title>decl&#45;&gt;loop_i</title>
<path fill="none" stroke="black" d="M170.12,-603.81C170.12,-596.23 170.12,-587.1 170.12,-578.54"/>
<polygon fill="black" stroke="black" points="173.62,-578.54 170.12,-568.54 166.62,-578.54 173.62,-578.54"/>
</g>
<!-- loop_j -->
<g id="node5" class="node">
<title>loop_j</title>
<polygon fill="none" stroke="black" points="121.12,-478.5 47.77,-460.5 121.12,-442.5 194.46,-460.5 121.12,-478.5"/>
<text xml:space="preserve" text-anchor="middle" x="121.12" y="-455.45" font-family="Times New Roman,serif" font-size="14.00">j = 0; j &lt; 5</text>
</g>
<!-- loop_i&#45;&gt;loop_j -->
<g id="edge3" class="edge">
<title>loop_i&#45;&gt;loop_j</title>
<path fill="none" stroke="black" d="M145.8,-536.53C136.58,-530.84 127.06,-523.01 121.87,-513 118.1,-505.75 116.93,-497.11 116.98,-489"/>
<polygon fill="black" stroke="black" points="120.45,-489.45 117.66,-479.23 113.47,-488.97 120.45,-489.45"/>
<text xml:space="preserve" text-anchor="middle" x="134.99" y="-499.7" font-family="Times New Roman,serif" font-size="14.00">i &lt; 5</text>
</g>
<!-- return_not_found -->
<g id="node10" class="node">
<title>return_not_found</title>
<polygon fill="none" stroke="black" points="275.74,-478.5 212.49,-478.5 212.49,-442.5 275.74,-442.5 275.74,-478.5"/>
<text xml:space="preserve" text-anchor="middle" x="244.12" y="-455.45" font-family="Times New Roman,serif" font-size="14.00">return &#45;1</text>
</g>
<!-- loop_i&#45;&gt;return_not_found -->
<g id="edge4" class="edge">
<title>loop_i&#45;&gt;return_not_found</title>
<path fill="none" stroke="black" d="M182.34,-533.72C193.11,-521.12 209.08,-502.46 222.08,-487.26"/>
<polygon fill="black" stroke="black" points="224.5,-489.81 228.34,-479.94 219.18,-485.26 224.5,-489.81"/>
<text xml:space="preserve" text-anchor="middle" x="230.99" y="-499.7" font-family="Times New Roman,serif" font-size="14.00">i &gt;= 5</text>
</g>
<!-- loop_j&#45;&gt;loop_i -->
<g id="edge6" class="edge">
<title>loop_j&#45;&gt;loop_i</title>
<path fill="none" stroke="black" d="M133.55,-475.9C138.46,-482 143.92,-489.35 148.12,-496.5 152.72,-504.34 156.89,-513.33 160.34,-521.57"/>
<polygon fill="black" stroke="black" points="157.05,-522.77 164,-530.77 163.55,-520.19 157.05,-522.77"/>
<text xml:space="preserve" text-anchor="middle" x="173.8" y="-499.7" font-family="Times New Roman,serif" font-size="14.00">j &gt;= 5</text>
</g>
<!-- loop_k -->
<g id="node6" class="node">
<title>loop_k</title>
<polygon fill="none" stroke="black" points="121.12,-390 41.98,-372 121.12,-354 200.25,-372 121.12,-390"/>
<text xml:space="preserve" text-anchor="middle" x="121.12" y="-366.95" font-family="Times New Roman,serif" font-size="14.00">k = 0; k &lt; 5</text>
</g>
<!-- loop_j&#45;&gt;loop_k -->
<g id="edge5" class="edge">
<title>loop_j&#45;&gt;loop_k</title>
<path fill="none" stroke="black" d="M108.83,-445.16C104.47,-439.18 100.1,-431.9 97.87,-424.5 95.75,-417.48 95.75,-415.02 97.87,-408 99.02,-404.18 100.74,-400.4 102.73,-396.81"/>
<polygon fill="black" stroke="black" points="105.54,-398.92 108.01,-388.62 99.65,-395.13 105.54,-398.92"/>
<text xml:space="preserve" text-anchor="middle" x="110.99" y="-411.2" font-family="Times New Roman,serif" font-size="14.00">j &lt; 5</text>
</g>
<!-- loop_k&#45;&gt;loop_j -->
<g id="edge8" class="edge">
<title>loop_k&#45;&gt;loop_j</title>
<path fill="none" stroke="black" d="M122.87,-390.07C123.38,-395.77 123.87,-402.15 124.12,-408 124.43,-415.33 124.43,-417.17 124.12,-424.5 124.03,-426.6 123.91,-428.77 123.77,-430.96"/>
<polygon fill="black" stroke="black" points="120.28,-430.68 122.99,-440.92 127.26,-431.22 120.28,-430.68"/>
<text xml:space="preserve" text-anchor="middle" x="143.1" y="-411.2" font-family="Times New Roman,serif" font-size="14.00">k &gt;= 5</text>
</g>
<!-- loop_l -->
<g id="node7" class="node">
<title>loop_l</title>
<polygon fill="none" stroke="black" points="121.12,-301.5 47.77,-283.5 121.12,-265.5 194.46,-283.5 121.12,-301.5"/>
<text xml:space="preserve" text-anchor="middle" x="121.12" y="-278.45" font-family="Times New Roman,serif" font-size="14.00">l = 0; l &lt; 5</text>
</g>
<!-- loop_k&#45;&gt;loop_l -->
<g id="edge7" class="edge">
<title>loop_k&#45;&gt;loop_l</title>
<path fill="none" stroke="black" d="M107.78,-356.82C103.06,-350.86 98.31,-343.56 95.87,-336 93.61,-329.02 93.61,-326.48 95.87,-319.5 97.16,-315.49 99.11,-311.54 101.36,-307.84"/>
<polygon fill="black" stroke="black" points="104.04,-310.12 106.91,-299.92 98.31,-306.1 104.04,-310.12"/>
<text xml:space="preserve" text-anchor="middle" x="110.49" y="-322.7" font-family="Times New Roman,serif" font-size="14.00">k &lt; 5</text>
</g>
<!-- loop_l&#45;&gt;loop_k -->
<g id="edge10" class="edge">
<title>loop_l&#45;&gt;loop_k</title>
<path fill="none" stroke="black" d="M123.42,-301.2C124.11,-306.98 124.78,-313.52 125.12,-319.5 125.53,-326.82 125.53,-328.68 125.12,-336 124.99,-338.24 124.82,-340.56 124.61,-342.89"/>
<polygon fill="black" stroke="black" points="121.14,-342.48 123.58,-352.79 128.1,-343.21 121.14,-342.48"/>
<text xml:space="preserve" text-anchor="middle" x="142.68" y="-322.7" font-family="Times New Roman,serif" font-size="14.00">l &gt;= 5</text>
</g>
<!-- condition -->
<g id="node8" class="node">
<title>condition</title>
<polygon fill="none" stroke="black" points="121.12,-213 0,-195 121.12,-177 242.23,-195 121.12,-213"/>
<text xml:space="preserve" text-anchor="middle" x="121.12" y="-189.95" font-family="Times New Roman,serif" font-size="14.00">keys[i][j][k][l] == x</text>
</g>
<!-- loop_l&#45;&gt;condition -->
<g id="edge9" class="edge">
<title>loop_l&#45;&gt;condition</title>
<path fill="none" stroke="black" d="M108.83,-268.16C104.47,-262.18 100.1,-254.9 97.87,-247.5 95.75,-240.48 95.75,-238.02 97.87,-231 98.89,-227.62 100.36,-224.26 102.06,-221.04"/>
<polygon fill="black" stroke="black" points="104.97,-222.99 107.29,-212.66 99.03,-219.29 104.97,-222.99"/>
<text xml:space="preserve" text-anchor="middle" x="110.99" y="-234.2" font-family="Times New Roman,serif" font-size="14.00">l &lt; 5</text>
</g>
<!-- condition&#45;&gt;loop_l -->
<g id="edge12" class="edge">
<title>condition&#45;&gt;loop_l</title>
<path fill="none" stroke="black" d="M122.87,-213.07C123.38,-218.77 123.87,-225.15 124.12,-231 124.43,-238.33 124.43,-240.17 124.12,-247.5 124.03,-249.6 123.91,-251.77 123.77,-253.96"/>
<polygon fill="black" stroke="black" points="120.28,-253.68 122.99,-263.92 127.26,-254.22 120.28,-253.68"/>
<text xml:space="preserve" text-anchor="middle" x="138.6" y="-234.2" font-family="Times New Roman,serif" font-size="14.00">False</text>
</g>
<!-- return_found -->
<g id="node9" class="node">
<title>return_found</title>
<polygon fill="none" stroke="black" points="206.74,-124.5 35.49,-124.5 35.49,-88.5 206.74,-88.5 206.74,-124.5"/>
<text xml:space="preserve" text-anchor="middle" x="121.12" y="-101.45" font-family="Times New Roman,serif" font-size="14.00">return answer[...] + keys[...]</text>
</g>
<!-- condition&#45;&gt;return_found -->
<g id="edge11" class="edge">
<title>condition&#45;&gt;return_found</title>
<path fill="none" stroke="black" d="M108.5,-178.57C104.53,-172.79 100.65,-165.93 98.62,-159 96.55,-151.96 96.55,-149.54 98.62,-142.5 99.39,-139.87 100.43,-137.25 101.64,-134.69"/>
<polygon fill="black" stroke="black" points="104.67,-136.44 106.57,-126.01 98.59,-132.98 104.67,-136.44"/>
<text xml:space="preserve" text-anchor="middle" x="111.37" y="-145.7" font-family="Times New Roman,serif" font-size="14.00">True</text>
</g>
<!-- condition&#45;&gt;return_found -->
<g id="edge13" class="edge">
<title>condition&#45;&gt;return_found</title>
<path fill="none" stroke="black" stroke-dasharray="5,2" d="M122.87,-176.93C123.38,-171.23 123.87,-164.85 124.12,-159 124.43,-151.67 124.43,-149.83 124.12,-142.5 124.03,-140.44 123.91,-138.32 123.77,-136.18"/>
<polygon fill="black" stroke="black" points="127.28,-136.14 123.02,-126.44 120.3,-136.68 127.28,-136.14"/>
<text xml:space="preserve" text-anchor="middle" x="162.6" y="-145.7" font-family="Times New Roman,serif" font-size="14.00">c&#45;uso=keys, x</text>
</g>
<!-- return_found&#45;&gt;end -->
<g id="edge14" class="edge">
<title>return_found&#45;&gt;end</title>
<path fill="none" stroke="black" stroke-dasharray="5,2" d="M121.12,-88.41C121.12,-76.76 121.12,-61.05 121.12,-47.52"/>
<polygon fill="black" stroke="black" points="124.62,-47.86 121.12,-37.86 117.62,-47.86 124.62,-47.86"/>
<text xml:space="preserve" text-anchor="middle" x="174.74" y="-57.2" font-family="Times New Roman,serif" font-size="14.00">c&#45;uso=answer, keys</text>
</g>
</g>
</svg>
