<?xml version="1.0" encoding="UTF-8" standalone="no"?>
<!DOCTYPE svg PUBLIC "-//W3C//DTD SVG 1.1//EN"
 "http://www.w3.org/Graphics/SVG/1.1/DTD/svg11.dtd">
<!-- Generated by graphviz version 13.1.2 (20250808.2320)
 -->
<!-- Title: main_DCFG Pages: 1 -->
<svg width="315pt" height="279pt"
 viewBox="0.00 0.00 315.00 279.00" xmlns="http://www.w3.org/2000/svg" xmlns:xlink="http://www.w3.org/1999/xlink">
<g id="graph0" class="graph" transform="scale(1 1) rotate(0) translate(4 274.5)">
<title>main_DCFG</title>
<polygon fill="white" stroke="none" points="-4,4 -4,-274.5 310.62,-274.5 310.62,4 -4,4"/>
<!-- start -->
<g id="node1" class="node">
<title>start</title>
<ellipse fill="none" stroke="black" cx="77" cy="-252.5" rx="32.41" ry="18"/>
<text xml:space="preserve" text-anchor="middle" x="77" y="-247.45" font-family="Times New Roman,serif" font-size="14.00">Inicio</text>
</g>
<!-- call_foo -->
<g id="node3" class="node">
<title>call_foo</title>
<polygon fill="none" stroke="black" points="108.62,-197.5 45.38,-197.5 45.38,-161.5 108.62,-161.5 108.62,-197.5"/>
<text xml:space="preserve" text-anchor="middle" x="77" y="-174.45" font-family="Times New Roman,serif" font-size="14.00">foo(400)</text>
</g>
<!-- start&#45;&gt;call_foo -->
<g id="edge1" class="edge">
<title>start&#45;&gt;call_foo</title>
<path fill="none" stroke="black" d="M77,-234.31C77,-226.73 77,-217.6 77,-209.04"/>
<polygon fill="black" stroke="black" points="80.5,-209.04 77,-199.04 73.5,-209.04 80.5,-209.04"/>
</g>
<!-- end -->
<g id="node2" class="node">
<title>end</title>
<ellipse fill="none" stroke="black" cx="27" cy="-18" rx="27" ry="18"/>
<text xml:space="preserve" text-anchor="middle" x="27" y="-12.95" font-family="Times New Roman,serif" font-size="14.00">Fim</text>
</g>
<!-- call_foo&#45;&gt;end -->
<g id="edge3" class="edge">
<title>call_foo&#45;&gt;end</title>
<path fill="none" stroke="black" d="M58.15,-161.07C45.58,-148.1 30.15,-129.21 23.25,-109 16.48,-89.19 17.82,-65.48 20.63,-47.37"/>
<polygon fill="black" stroke="black" points="24.07,-48.07 22.41,-37.6 17.18,-46.81 24.07,-48.07"/>
<text xml:space="preserve" text-anchor="middle" x="83.62" y="-85.95" font-family="Times New Roman,serif" font-size="14.00">Se TEST nao definido</text>
</g>
<!-- print -->
<g id="node4" class="node">
<title>print</title>
<polygon fill="none" stroke="black" points="306.62,-109 153.38,-109 153.38,-73 306.62,-73 306.62,-109"/>
<text xml:space="preserve" text-anchor="middle" x="230" y="-85.95" font-family="Times New Roman,serif" font-size="14.00">printf(&quot;result=%d\n&quot;, ...)</text>
</g>
<!-- call_foo&#45;&gt;print -->
<g id="edge2" class="edge">
<title>call_foo&#45;&gt;print</title>
<path fill="none" stroke="black" d="M107.59,-161.2C131.07,-147.93 163.71,-129.48 189.38,-114.96"/>
<polygon fill="black" stroke="black" points="190.9,-118.13 197.88,-110.16 187.45,-112.03 190.9,-118.13"/>
<text xml:space="preserve" text-anchor="middle" x="215.95" y="-130.2" font-family="Times New Roman,serif" font-size="14.00">Se TEST definido</text>
</g>
<!-- print&#45;&gt;end -->
<g id="edge4" class="edge">
<title>print&#45;&gt;end</title>
<path fill="none" stroke="black" d="M180.08,-72.54C143.22,-59.65 94,-42.43 61.44,-31.05"/>
<polygon fill="black" stroke="black" points="62.69,-27.78 52.1,-27.78 60.38,-34.38 62.69,-27.78"/>
</g>
</g>
</svg>
