<?xml version="1.0" encoding="UTF-8" standalone="no"?>
<!DOCTYPE svg PUBLIC "-//W3C//DTD SVG 1.1//EN"
 "http://www.w3.org/Graphics/SVG/1.1/DTD/svg11.dtd">
<!-- Generated by graphviz version 13.1.2 (20250808.2320)
 -->
<!-- Title: condition_DFG Pages: 1 -->
<svg width="440pt" height="188pt"
 viewBox="0.00 0.00 440.00 188.00" xmlns="http://www.w3.org/2000/svg" xmlns:xlink="http://www.w3.org/1999/xlink">
<g id="graph0" class="graph" transform="scale(1 1) rotate(0) translate(4 184)">
<title>condition_DFG</title>
<polygon fill="white" stroke="none" points="-4,4 -4,-184 435.52,-184 435.52,4 -4,4"/>
<!-- keys_array -->
<g id="node1" class="node">
<title>keys_array</title>
<ellipse fill="lightblue" stroke="black" cx="71.52" cy="-162" rx="71.52" ry="18"/>
<text xml:space="preserve" text-anchor="middle" x="71.52" y="-156.57" font-family="Helvetica,sans-Serif" font-size="14.00">keys (constant)</text>
</g>
<!-- array_access -->
<g id="node7" class="node">
<title>array_access</title>
<path fill="none" stroke="black" d="M293.27,-108C293.27,-108 227.77,-108 227.77,-108 221.77,-108 215.77,-102 215.77,-96 215.77,-96 215.77,-84 215.77,-84 215.77,-78 221.77,-72 227.77,-72 227.77,-72 293.27,-72 293.27,-72 299.27,-72 305.27,-78 305.27,-84 305.27,-84 305.27,-96 305.27,-96 305.27,-102 299.27,-108 293.27,-108"/>
<text xml:space="preserve" text-anchor="middle" x="260.52" y="-84.58" font-family="Helvetica,sans-Serif" font-size="14.00">keys[i][j][k][l]</text>
</g>
<!-- keys_array&#45;&gt;array_access -->
<g id="edge1" class="edge">
<title>keys_array&#45;&gt;array_access</title>
<path fill="none" stroke="black" d="M110.68,-146.5C137.96,-136.39 174.73,-122.78 205.02,-111.56"/>
<polygon fill="black" stroke="black" points="205.86,-114.98 214.02,-108.22 203.42,-108.42 205.86,-114.98"/>
</g>
<!-- x_param -->
<g id="node2" class="node">
<title>x_param</title>
<ellipse fill="lightblue" stroke="black" cx="361.52" cy="-90" rx="38.59" ry="18"/>
<text xml:space="preserve" text-anchor="middle" x="361.52" y="-84.58" font-family="Helvetica,sans-Serif" font-size="14.00">x (400)</text>
</g>
<!-- eq_condition -->
<g id="node8" class="node">
<title>eq_condition</title>
<path fill="none" stroke="black" d="M325.52,-36C325.52,-36 295.52,-36 295.52,-36 289.52,-36 283.52,-30 283.52,-24 283.52,-24 283.52,-12 283.52,-12 283.52,-6 289.52,0 295.52,0 295.52,0 325.52,0 325.52,0 331.52,0 337.52,-6 337.52,-12 337.52,-12 337.52,-24 337.52,-24 337.52,-30 331.52,-36 325.52,-36"/>
<text xml:space="preserve" text-anchor="middle" x="310.52" y="-12.57" font-family="Helvetica,sans-Serif" font-size="14.00">==</text>
</g>
<!-- x_param&#45;&gt;eq_condition -->
<g id="edge7" class="edge">
<title>x_param&#45;&gt;eq_condition</title>
<path fill="none" stroke="black" d="M349.44,-72.41C343.58,-64.37 336.4,-54.51 329.81,-45.47"/>
<polygon fill="black" stroke="black" points="332.84,-43.69 324.13,-37.67 327.18,-47.81 332.84,-43.69"/>
</g>
<!-- i_var -->
<g id="node3" class="node">
<title>i_var</title>
<ellipse fill="none" stroke="black" cx="188.52" cy="-162" rx="27" ry="18"/>
<text xml:space="preserve" text-anchor="middle" x="188.52" y="-156.57" font-family="Helvetica,sans-Serif" font-size="14.00">i</text>
</g>
<!-- i_var&#45;&gt;array_access -->
<g id="edge2" class="edge">
<title>i_var&#45;&gt;array_access</title>
<path fill="none" stroke="black" d="M203.44,-146.5C212.41,-137.77 224.08,-126.43 234.52,-116.28"/>
<polygon fill="black" stroke="black" points="236.75,-118.99 241.48,-109.51 231.87,-113.97 236.75,-118.99"/>
</g>
<!-- j_var -->
<g id="node4" class="node">
<title>j_var</title>
<ellipse fill="none" stroke="black" cx="260.52" cy="-162" rx="27" ry="18"/>
<text xml:space="preserve" text-anchor="middle" x="260.52" y="-156.57" font-family="Helvetica,sans-Serif" font-size="14.00">j</text>
</g>
<!-- j_var&#45;&gt;array_access -->
<g id="edge3" class="edge">
<title>j_var&#45;&gt;array_access</title>
<path fill="none" stroke="black" d="M260.52,-143.7C260.52,-136.41 260.52,-127.73 260.52,-119.54"/>
<polygon fill="black" stroke="black" points="264.02,-119.62 260.52,-109.62 257.02,-119.62 264.02,-119.62"/>
</g>
<!-- k_var -->
<g id="node5" class="node">
<title>k_var</title>
<ellipse fill="none" stroke="black" cx="332.52" cy="-162" rx="27" ry="18"/>
<text xml:space="preserve" text-anchor="middle" x="332.52" y="-156.57" font-family="Helvetica,sans-Serif" font-size="14.00">k</text>
</g>
<!-- k_var&#45;&gt;array_access -->
<g id="edge4" class="edge">
<title>k_var&#45;&gt;array_access</title>
<path fill="none" stroke="black" d="M317.6,-146.5C308.63,-137.77 296.97,-126.43 286.52,-116.28"/>
<polygon fill="black" stroke="black" points="289.17,-113.97 279.56,-109.51 284.29,-118.99 289.17,-113.97"/>
</g>
<!-- l_var -->
<g id="node6" class="node">
<title>l_var</title>
<ellipse fill="none" stroke="black" cx="404.52" cy="-162" rx="27" ry="18"/>
<text xml:space="preserve" text-anchor="middle" x="404.52" y="-156.57" font-family="Helvetica,sans-Serif" font-size="14.00">l</text>
</g>
<!-- l_var&#45;&gt;array_access -->
<g id="edge5" class="edge">
<title>l_var&#45;&gt;array_access</title>
<path fill="none" stroke="black" d="M382.96,-150.52C362.9,-140.77 332.33,-125.9 306.75,-113.47"/>
<polygon fill="black" stroke="black" points="308.39,-110.38 297.87,-109.15 305.33,-116.67 308.39,-110.38"/>
</g>
<!-- array_access&#45;&gt;eq_condition -->
<g id="edge6" class="edge">
<title>array_access&#45;&gt;eq_condition</title>
<path fill="none" stroke="black" d="M272.88,-71.7C278.57,-63.73 285.45,-54.1 291.76,-45.26"/>
<polygon fill="black" stroke="black" points="294.46,-47.51 297.43,-37.34 288.77,-43.44 294.46,-47.51"/>
</g>
</g>
</svg>
