<?xml version="1.0" encoding="UTF-8" standalone="no"?>
<!DOCTYPE svg PUBLIC "-//W3C//DTD SVG 1.1//EN"
 "http://www.w3.org/Graphics/SVG/1.1/DTD/svg11.dtd">
<!-- Generated by graphviz version 13.1.2 (20250808.2320)
 -->
<!-- Title: compress_DFG Pages: 1 -->
<svg width="634pt" height="586pt"
 viewBox="0.00 0.00 634.00 586.00" xmlns="http://www.w3.org/2000/svg" xmlns:xlink="http://www.w3.org/1999/xlink">
<g id="graph0" class="graph" transform="scale(1 1) rotate(0) translate(4 582)">
<title>compress_DFG</title>
<polygon fill="white" stroke="none" points="-4,4 -4,-582 629.75,-582 629.75,4 -4,4"/>
<!-- InCnt -->
<g id="node1" class="node">
<title>InCnt</title>
<ellipse fill="lightblue" stroke="black" cx="59" cy="-560" rx="31.9" ry="18"/>
<text xml:space="preserve" text-anchor="middle" x="59" y="-554.95" font-family="Times New Roman,serif" font-size="14.00">InCnt</text>
</g>
<!-- op_getbyte -->
<g id="node10" class="node">
<title>op_getbyte</title>
<polygon fill="none" stroke="black" points="91.38,-505 26.62,-505 26.62,-469 91.38,-469 91.38,-505"/>
<text xml:space="preserve" text-anchor="middle" x="59" y="-481.95" font-family="Times New Roman,serif" font-size="14.00">getbyte()</text>
</g>
<!-- InCnt&#45;&gt;op_getbyte -->
<g id="edge1" class="edge">
<title>InCnt&#45;&gt;op_getbyte</title>
<path fill="none" stroke="black" d="M59,-541.81C59,-534.23 59,-525.1 59,-516.54"/>
<polygon fill="black" stroke="black" points="62.5,-516.54 59,-506.54 55.5,-516.54 62.5,-516.54"/>
</g>
<!-- ent -->
<g id="node2" class="node">
<title>ent</title>
<ellipse fill="lightblue" stroke="black" cx="29" cy="-18" rx="27" ry="18"/>
<text xml:space="preserve" text-anchor="middle" x="29" y="-12.95" font-family="Times New Roman,serif" font-size="14.00">ent</text>
</g>
<!-- op_shift -->
<g id="node11" class="node">
<title>op_shift</title>
<polygon fill="none" stroke="black" points="86,-359 32,-359 32,-323 86,-323 86,-359"/>
<text xml:space="preserve" text-anchor="middle" x="59" y="-335.95" font-family="Times New Roman,serif" font-size="14.00">&lt;&lt;, ^</text>
</g>
<!-- ent&#45;&gt;op_shift -->
<g id="edge4" class="edge">
<title>ent&#45;&gt;op_shift</title>
<path fill="none" stroke="black" d="M18.37,-34.89C10.09,-48.81 0,-69.89 0,-90 0,-269 0,-269 0,-269 0,-287.14 11.54,-303.12 24.41,-315.31"/>
<polygon fill="black" stroke="black" points="21.97,-317.82 31.81,-321.75 26.57,-312.55 21.97,-317.82"/>
</g>
<!-- c -->
<g id="node3" class="node">
<title>c</title>
<ellipse fill="lightblue" stroke="black" cx="59" cy="-414" rx="27" ry="18"/>
<text xml:space="preserve" text-anchor="middle" x="59" y="-408.95" font-family="Times New Roman,serif" font-size="14.00">c</text>
</g>
<!-- c&#45;&gt;op_shift -->
<g id="edge3" class="edge">
<title>c&#45;&gt;op_shift</title>
<path fill="none" stroke="black" d="M59,-395.81C59,-388.23 59,-379.1 59,-370.54"/>
<polygon fill="black" stroke="black" points="62.5,-370.54 59,-360.54 55.5,-370.54 62.5,-370.54"/>
</g>
<!-- fcode -->
<g id="node4" class="node">
<title>fcode</title>
<ellipse fill="lightblue" stroke="black" cx="59" cy="-268" rx="31.39" ry="18"/>
<text xml:space="preserve" text-anchor="middle" x="59" y="-262.95" font-family="Times New Roman,serif" font-size="14.00">fcode</text>
</g>
<!-- op_compare -->
<g id="node12" class="node">
<title>op_compare</title>
<polygon fill="none" stroke="black" points="161,-197.5 97,-197.5 97,-161.5 161,-161.5 161,-197.5"/>
<text xml:space="preserve" text-anchor="middle" x="129" y="-174.45" font-family="Times New Roman,serif" font-size="14.00">==, &lt;, &gt;</text>
</g>
<!-- fcode&#45;&gt;op_compare -->
<g id="edge8" class="edge">
<title>fcode&#45;&gt;op_compare</title>
<path fill="none" stroke="black" d="M71.84,-251.13C81.97,-238.61 96.31,-220.89 108.1,-206.33"/>
<polygon fill="black" stroke="black" points="110.52,-208.9 114.09,-198.92 105.08,-204.5 110.52,-208.9"/>
</g>
<!-- i -->
<g id="node5" class="node">
<title>i</title>
<ellipse fill="lightblue" stroke="black" cx="135" cy="-268" rx="27" ry="18"/>
<text xml:space="preserve" text-anchor="middle" x="135" y="-262.95" font-family="Times New Roman,serif" font-size="14.00">i</text>
</g>
<!-- i&#45;&gt;op_compare -->
<g id="edge7" class="edge">
<title>i&#45;&gt;op_compare</title>
<path fill="none" stroke="black" d="M133.81,-249.91C133.01,-238.26 131.92,-222.55 130.98,-209.02"/>
<polygon fill="black" stroke="black" points="134.49,-209.09 130.31,-199.36 127.51,-209.58 134.49,-209.09"/>
</g>
<!-- free_ent -->
<g id="node6" class="node">
<title>free_ent</title>
<ellipse fill="lightblue" stroke="black" cx="122" cy="-18" rx="41.12" ry="18"/>
<text xml:space="preserve" text-anchor="middle" x="122" y="-12.95" font-family="Times New Roman,serif" font-size="14.00">free_ent</text>
</g>
<!-- free_ent&#45;&gt;op_compare -->
<g id="edge12" class="edge">
<title>free_ent&#45;&gt;op_compare</title>
<path fill="none" stroke="black" d="M122.76,-36.35C123.96,-63.66 126.3,-116.96 127.75,-149.97"/>
<polygon fill="black" stroke="black" points="124.24,-149.78 128.17,-159.61 131.23,-149.47 124.24,-149.78"/>
<text xml:space="preserve" text-anchor="middle" x="192.66" y="-85.95" font-family="Times New Roman,serif" font-size="14.00">free_ent &lt; maxmaxcode</text>
</g>
<!-- maxmaxcode -->
<g id="node7" class="node">
<title>maxmaxcode</title>
<ellipse fill="lightblue" stroke="black" cx="170" cy="-560" rx="61.08" ry="18"/>
<text xml:space="preserve" text-anchor="middle" x="170" y="-554.95" font-family="Times New Roman,serif" font-size="14.00">maxmaxcode</text>
</g>
<!-- in_count -->
<g id="node8" class="node">
<title>in_count</title>
<ellipse fill="lightblue" stroke="black" cx="231" cy="-414" rx="43.16" ry="18"/>
<text xml:space="preserve" text-anchor="middle" x="231" y="-408.95" font-family="Times New Roman,serif" font-size="14.00">in_count</text>
</g>
<!-- op_math -->
<g id="node14" class="node">
<title>op_math</title>
<polygon fill="none" stroke="black" points="269.38,-359 192.62,-359 192.62,-323 269.38,-323 269.38,-359"/>
<text xml:space="preserve" text-anchor="middle" x="231" y="-335.95" font-family="Times New Roman,serif" font-size="14.00">+=, &#45;=, &lt;&lt;</text>
</g>
<!-- in_count&#45;&gt;op_math -->
<g id="edge13" class="edge">
<title>in_count&#45;&gt;op_math</title>
<path fill="none" stroke="black" d="M231,-395.81C231,-388.23 231,-379.1 231,-370.54"/>
<polygon fill="black" stroke="black" points="234.5,-370.54 231,-360.54 227.5,-370.54 234.5,-370.54"/>
</g>
<!-- checkpoint -->
<g id="node9" class="node">
<title>checkpoint</title>
<ellipse fill="lightblue" stroke="black" cx="231" cy="-268" rx="51.35" ry="18"/>
<text xml:space="preserve" text-anchor="middle" x="231" y="-262.95" font-family="Times New Roman,serif" font-size="14.00">checkpoint</text>
</g>
<!-- checkpoint&#45;&gt;op_compare -->
<g id="edge15" class="edge">
<title>checkpoint&#45;&gt;op_compare</title>
<path fill="none" stroke="black" d="M212.29,-251.13C197.11,-238.26 175.44,-219.88 158.01,-205.1"/>
<polygon fill="black" stroke="black" points="160.38,-202.53 150.49,-198.73 155.86,-207.86 160.38,-202.53"/>
<text xml:space="preserve" text-anchor="middle" x="250.64" y="-218.7" font-family="Times New Roman,serif" font-size="14.00">in_count&gt;=checkpoint</text>
</g>
<!-- op_getbyte&#45;&gt;c -->
<g id="edge2" class="edge">
<title>op_getbyte&#45;&gt;c</title>
<path fill="none" stroke="black" d="M59,-468.81C59,-461.23 59,-452.1 59,-443.54"/>
<polygon fill="black" stroke="black" points="62.5,-443.54 59,-433.54 55.5,-443.54 62.5,-443.54"/>
</g>
<!-- op_shift&#45;&gt;fcode -->
<g id="edge5" class="edge">
<title>op_shift&#45;&gt;fcode</title>
<path fill="none" stroke="black" d="M59,-322.81C59,-315.23 59,-306.1 59,-297.54"/>
<polygon fill="black" stroke="black" points="62.5,-297.54 59,-287.54 55.5,-297.54 62.5,-297.54"/>
</g>
<!-- op_shift&#45;&gt;i -->
<g id="edge6" class="edge">
<title>op_shift&#45;&gt;i</title>
<path fill="none" stroke="black" d="M77.4,-322.81C87.66,-313.23 100.54,-301.19 111.53,-290.93"/>
<polygon fill="black" stroke="black" points="113.81,-293.58 118.73,-284.2 109.03,-288.47 113.81,-293.58"/>
</g>
<!-- op_assign -->
<g id="node13" class="node">
<title>op_assign</title>
<polygon fill="none" stroke="black" points="87,-109 33,-109 33,-73 87,-73 87,-109"/>
<text xml:space="preserve" text-anchor="middle" x="60" y="-85.95" font-family="Times New Roman,serif" font-size="14.00">=</text>
</g>
<!-- op_compare&#45;&gt;op_assign -->
<g id="edge9" class="edge">
<title>op_compare&#45;&gt;op_assign</title>
<path fill="none" stroke="black" d="M96.84,-170C83.37,-164.69 69.01,-156.34 61,-143.5 56.85,-136.85 55.43,-128.71 55.35,-120.89"/>
<polygon fill="black" stroke="black" points="58.84,-121.21 55.98,-111 51.85,-120.76 58.84,-121.21"/>
<text xml:space="preserve" text-anchor="middle" x="88" y="-130.2" font-family="Times New Roman,serif" font-size="14.00">condicoes</text>
</g>
<!-- op_assign&#45;&gt;ent -->
<g id="edge10" class="edge">
<title>op_assign&#45;&gt;ent</title>
<path fill="none" stroke="black" d="M52.5,-72.81C48.98,-64.76 44.71,-54.98 40.78,-45.97"/>
<polygon fill="black" stroke="black" points="44.04,-44.69 36.83,-36.93 37.62,-47.49 44.04,-44.69"/>
</g>
<!-- op_assign&#45;&gt;free_ent -->
<g id="edge11" class="edge">
<title>op_assign&#45;&gt;free_ent</title>
<path fill="none" stroke="black" d="M75.01,-72.81C82.69,-64.01 92.18,-53.15 100.61,-43.49"/>
<polygon fill="black" stroke="black" points="103.04,-46.03 106.98,-36.2 97.77,-41.43 103.04,-46.03"/>
</g>
<!-- op_math&#45;&gt;checkpoint -->
<g id="edge14" class="edge">
<title>op_math&#45;&gt;checkpoint</title>
<path fill="none" stroke="black" d="M231,-322.81C231,-315.23 231,-306.1 231,-297.54"/>
<polygon fill="black" stroke="black" points="234.5,-297.54 231,-287.54 227.5,-297.54 234.5,-297.54"/>
</g>
<!-- htab -->
<g id="node15" class="node">
<title>htab</title>
<ellipse fill="lightgreen" stroke="black" cx="276" cy="-560" rx="27" ry="18"/>
<text xml:space="preserve" text-anchor="middle" x="276" y="-554.95" font-family="Times New Roman,serif" font-size="14.00">htab</text>
</g>
<!-- codetab -->
<g id="node16" class="node">
<title>codetab</title>
<ellipse fill="lightgreen" stroke="black" cx="361" cy="-560" rx="39.58" ry="18"/>
<text xml:space="preserve" text-anchor="middle" x="361" y="-554.95" font-family="Times New Roman,serif" font-size="14.00">codetab</text>
</g>
<!-- out_count -->
<g id="node17" class="node">
<title>out_count</title>
<ellipse fill="lightgreen" stroke="black" cx="466" cy="-560" rx="47.77" ry="18"/>
<text xml:space="preserve" text-anchor="middle" x="466" y="-554.95" font-family="Times New Roman,serif" font-size="14.00">out_count</text>
</g>
<!-- bytes_out -->
<g id="node18" class="node">
<title>bytes_out</title>
<ellipse fill="lightgreen" stroke="black" cx="579" cy="-560" rx="46.75" ry="18"/>
<text xml:space="preserve" text-anchor="middle" x="579" y="-554.95" font-family="Times New Roman,serif" font-size="14.00">bytes_out</text>
</g>
</g>
</svg>
