<?xml version="1.0" encoding="UTF-8" standalone="no"?>
<!DOCTYPE svg PUBLIC "-//W3C//DTD SVG 1.1//EN"
 "http://www.w3.org/Graphics/SVG/1.1/DTD/svg11.dtd">
<!-- Generated by graphviz version 13.1.2 (20250808.2320)
 -->
<!-- Title: foo_DFG Pages: 1 -->
<svg width="339pt" height="279pt"
 viewBox="0.00 0.00 339.00 279.00" xmlns="http://www.w3.org/2000/svg" xmlns:xlink="http://www.w3.org/1999/xlink">
<g id="graph0" class="graph" transform="scale(1 1) rotate(0) translate(4 274.5)">
<title>foo_DFG</title>
<polygon fill="white" stroke="none" points="-4,4 -4,-274.5 334.83,-274.5 334.83,4 -4,4"/>
<!-- x -->
<g id="node1" class="node">
<title>x</title>
<ellipse fill="lightblue" stroke="black" cx="43.16" cy="-252.5" rx="43.16" ry="18"/>
<text xml:space="preserve" text-anchor="middle" x="43.16" y="-247.45" font-family="Times New Roman,serif" font-size="14.00">x (input)</text>
</g>
<!-- eq -->
<g id="node4" class="node">
<title>eq</title>
<polygon fill="none" stroke="black" points="139.16,-197.5 85.16,-197.5 85.16,-161.5 139.16,-161.5 139.16,-197.5"/>
<text xml:space="preserve" text-anchor="middle" x="112.16" y="-174.45" font-family="Times New Roman,serif" font-size="14.00">==</text>
</g>
<!-- x&#45;&gt;eq -->
<g id="edge2" class="edge">
<title>x&#45;&gt;eq</title>
<path fill="none" stroke="black" d="M58.82,-235.39C67.39,-226.57 78.21,-215.44 87.85,-205.52"/>
<polygon fill="black" stroke="black" points="90.09,-208.23 94.55,-198.62 85.07,-203.35 90.09,-208.23"/>
</g>
<!-- keys -->
<g id="node2" class="node">
<title>keys</title>
<ellipse fill="lightblue" stroke="black" cx="182.16" cy="-252.5" rx="77.45" ry="18"/>
<text xml:space="preserve" text-anchor="middle" x="182.16" y="-247.45" font-family="Times New Roman,serif" font-size="14.00">keys (const array)</text>
</g>
<!-- keys&#45;&gt;eq -->
<g id="edge1" class="edge">
<title>keys&#45;&gt;eq</title>
<path fill="none" stroke="black" d="M165.57,-234.67C157.13,-226.11 146.69,-215.52 137.29,-205.98"/>
<polygon fill="black" stroke="black" points="139.94,-203.69 130.43,-199.02 134.95,-208.6 139.94,-203.69"/>
</g>
<!-- answer -->
<g id="node3" class="node">
<title>answer</title>
<ellipse fill="lightblue" stroke="black" cx="244.16" cy="-179.5" rx="86.67" ry="18"/>
<text xml:space="preserve" text-anchor="middle" x="244.16" y="-174.45" font-family="Times New Roman,serif" font-size="14.00">answer (const array)</text>
</g>
<!-- add -->
<g id="node5" class="node">
<title>add</title>
<polygon fill="none" stroke="black" points="205.16,-109 151.16,-109 151.16,-73 205.16,-73 205.16,-109"/>
<text xml:space="preserve" text-anchor="middle" x="178.16" y="-85.95" font-family="Times New Roman,serif" font-size="14.00">+</text>
</g>
<!-- answer&#45;&gt;add -->
<g id="edge4" class="edge">
<title>answer&#45;&gt;add</title>
<path fill="none" stroke="black" d="M242.58,-161.43C240.89,-150.73 237.4,-137.09 230.16,-127 226,-121.2 220.56,-116.07 214.76,-111.65"/>
<polygon fill="black" stroke="black" points="216.97,-108.92 206.74,-106.15 213.01,-114.69 216.97,-108.92"/>
</g>
<!-- eq&#45;&gt;add -->
<g id="edge3" class="edge">
<title>eq&#45;&gt;add</title>
<path fill="none" stroke="black" d="M125.2,-161.41C134.54,-149.17 147.3,-132.45 157.95,-118.49"/>
<polygon fill="black" stroke="black" points="160.72,-120.63 164.01,-110.55 155.16,-116.38 160.72,-120.63"/>
<text xml:space="preserve" text-anchor="middle" x="188.95" y="-130.2" font-family="Times New Roman,serif" font-size="14.00">condition true</text>
</g>
<!-- result -->
<g id="node6" class="node">
<title>result</title>
<ellipse fill="lightgreen" stroke="black" cx="178.16" cy="-18" rx="55.45" ry="18"/>
<text xml:space="preserve" text-anchor="middle" x="178.16" y="-12.95" font-family="Times New Roman,serif" font-size="14.00">return value</text>
</g>
<!-- add&#45;&gt;result -->
<g id="edge5" class="edge">
<title>add&#45;&gt;result</title>
<path fill="none" stroke="black" d="M178.16,-72.81C178.16,-65.23 178.16,-56.1 178.16,-47.54"/>
<polygon fill="black" stroke="black" points="181.66,-47.54 178.16,-37.54 174.66,-47.54 181.66,-47.54"/>
</g>
</g>
</svg>
