<?xml version="1.0" encoding="UTF-8" standalone="no"?>
<!DOCTYPE svg PUBLIC "-//W3C//DTD SVG 1.1//EN"
 "http://www.w3.org/Graphics/SVG/1.1/DTD/svg11.dtd">
<!-- Generated by graphviz version 13.1.2 (20250808.2320)
 -->
<!-- Title: foo_DFG Pages: 1 -->
<svg width="293pt" height="1144pt"
 viewBox="0.00 0.00 293.00 1144.00" xmlns="http://www.w3.org/2000/svg" xmlns:xlink="http://www.w3.org/1999/xlink">
<g id="graph0" class="graph" transform="scale(1 1) rotate(0) translate(4 1139.5)">
<title>foo_DFG</title>
<polygon fill="white" stroke="none" points="-4,4 -4,-1139.5 289.02,-1139.5 289.02,4 -4,4"/>
<!-- x_in -->
<g id="node1" class="node">
<title>x_in</title>
<ellipse fill="lightblue" stroke="black" cx="27" cy="-268" rx="27" ry="18"/>
<text xml:space="preserve" text-anchor="middle" x="27" y="-262.95" font-family="Times New Roman,serif" font-size="14.00">x</text>
</g>
<!-- cmp_key -->
<g id="node16" class="node">
<title>cmp_key</title>
<polygon fill="none" stroke="black" points="154.75,-197.5 29.25,-197.5 29.25,-161.5 154.75,-161.5 154.75,-197.5"/>
<text xml:space="preserve" text-anchor="middle" x="92" y="-174.45" font-family="Times New Roman,serif" font-size="14.00">keys[i][j][k][l] == x</text>
</g>
<!-- x_in&#45;&gt;cmp_key -->
<g id="edge1" class="edge">
<title>x_in&#45;&gt;cmp_key</title>
<path fill="none" stroke="black" d="M38.62,-251.54C47.91,-239.18 61.14,-221.57 72.1,-206.98"/>
<polygon fill="black" stroke="black" points="74.8,-209.22 78.01,-199.12 69.2,-205.01 74.8,-209.22"/>
</g>
<!-- keys_in -->
<g id="node2" class="node">
<title>keys_in</title>
<ellipse fill="lightblue" stroke="black" cx="181" cy="-268" rx="27.81" ry="18"/>
<text xml:space="preserve" text-anchor="middle" x="181" y="-262.95" font-family="Times New Roman,serif" font-size="14.00">keys</text>
</g>
<!-- keys_in&#45;&gt;cmp_key -->
<g id="edge2" class="edge">
<title>keys_in&#45;&gt;cmp_key</title>
<path fill="none" stroke="black" d="M166.3,-252.72C153.1,-239.89 133.42,-220.76 117.63,-205.41"/>
<polygon fill="black" stroke="black" points="120.48,-203.3 110.87,-198.84 115.6,-208.32 120.48,-203.3"/>
</g>
<!-- add -->
<g id="node17" class="node">
<title>add</title>
<polygon fill="none" stroke="black" points="284.38,-109 81.62,-109 81.62,-73 284.38,-73 284.38,-109"/>
<text xml:space="preserve" text-anchor="middle" x="183" y="-85.95" font-family="Times New Roman,serif" font-size="14.00">answer[i][j][k][l] + keys[i][j][k][l]</text>
</g>
<!-- keys_in&#45;&gt;add -->
<g id="edge3" class="edge">
<title>keys_in&#45;&gt;add</title>
<path fill="none" stroke="black" d="M181.2,-249.58C181.54,-219.44 182.25,-157.3 182.67,-120.7"/>
<polygon fill="black" stroke="black" points="186.17,-120.9 182.78,-110.86 179.17,-120.82 186.17,-120.9"/>
</g>
<!-- answer_in -->
<g id="node3" class="node">
<title>answer_in</title>
<ellipse fill="lightblue" stroke="black" cx="248" cy="-179.5" rx="37.02" ry="18"/>
<text xml:space="preserve" text-anchor="middle" x="248" y="-174.45" font-family="Times New Roman,serif" font-size="14.00">answer</text>
</g>
<!-- answer_in&#45;&gt;add -->
<g id="edge4" class="edge">
<title>answer_in&#45;&gt;add</title>
<path fill="none" stroke="black" d="M235.77,-162.23C226.48,-149.87 213.51,-132.6 202.75,-118.29"/>
<polygon fill="black" stroke="black" points="205.78,-116.49 196.97,-110.59 200.18,-120.69 205.78,-116.49"/>
</g>
<!-- assign_i -->
<g id="node4" class="node">
<title>assign_i</title>
<polygon fill="none" stroke="black" points="110,-1135.5 56,-1135.5 56,-1099.5 110,-1099.5 110,-1135.5"/>
<text xml:space="preserve" text-anchor="middle" x="83" y="-1112.45" font-family="Times New Roman,serif" font-size="14.00">i=0</text>
</g>
<!-- inc_i -->
<g id="node8" class="node">
<title>inc_i</title>
<polygon fill="none" stroke="black" points="83,-1062.5 29,-1062.5 29,-1026.5 83,-1026.5 83,-1062.5"/>
<text xml:space="preserve" text-anchor="middle" x="56" y="-1039.45" font-family="Times New Roman,serif" font-size="14.00">i++</text>
</g>
<!-- assign_i&#45;&gt;inc_i -->
<g id="edge6" class="edge">
<title>assign_i&#45;&gt;inc_i</title>
<path fill="none" stroke="black" d="M76.46,-1099.31C73.48,-1091.46 69.87,-1081.97 66.52,-1073.16"/>
<polygon fill="black" stroke="black" points="69.84,-1072.05 63.01,-1063.94 63.3,-1074.53 69.84,-1072.05"/>
</g>
<!-- cmp_i -->
<g id="node12" class="node">
<title>cmp_i</title>
<polygon fill="none" stroke="black" points="118,-989.5 64,-989.5 64,-953.5 118,-953.5 118,-989.5"/>
<text xml:space="preserve" text-anchor="middle" x="91" y="-966.45" font-family="Times New Roman,serif" font-size="14.00">i&lt;5</text>
</g>
<!-- assign_i&#45;&gt;cmp_i -->
<g id="edge5" class="edge">
<title>assign_i&#45;&gt;cmp_i</title>
<path fill="none" stroke="black" d="M86.65,-1099.08C88.68,-1088.55 90.98,-1074.81 92,-1062.5 93.7,-1042 93.38,-1018.79 92.68,-1001.07"/>
<polygon fill="black" stroke="black" points="96.19,-1001.12 92.22,-991.3 89.19,-1001.45 96.19,-1001.12"/>
</g>
<!-- assign_j -->
<g id="node5" class="node">
<title>assign_j</title>
<polygon fill="none" stroke="black" points="118,-901 64,-901 64,-865 118,-865 118,-901"/>
<text xml:space="preserve" text-anchor="middle" x="91" y="-877.95" font-family="Times New Roman,serif" font-size="14.00">j=0</text>
</g>
<!-- inc_j -->
<g id="node9" class="node">
<title>inc_j</title>
<polygon fill="none" stroke="black" points="91,-828 37,-828 37,-792 91,-792 91,-828"/>
<text xml:space="preserve" text-anchor="middle" x="64" y="-804.95" font-family="Times New Roman,serif" font-size="14.00">j++</text>
</g>
<!-- assign_j&#45;&gt;inc_j -->
<g id="edge10" class="edge">
<title>assign_j&#45;&gt;inc_j</title>
<path fill="none" stroke="black" d="M84.46,-864.81C81.48,-856.96 77.87,-847.47 74.52,-838.66"/>
<polygon fill="black" stroke="black" points="77.84,-837.55 71.01,-829.44 71.3,-840.03 77.84,-837.55"/>
</g>
<!-- cmp_j -->
<g id="node13" class="node">
<title>cmp_j</title>
<polygon fill="none" stroke="black" points="118,-755 64,-755 64,-719 118,-719 118,-755"/>
<text xml:space="preserve" text-anchor="middle" x="91" y="-731.95" font-family="Times New Roman,serif" font-size="14.00">j&lt;5</text>
</g>
<!-- assign_j&#45;&gt;cmp_j -->
<g id="edge9" class="edge">
<title>assign_j&#45;&gt;cmp_j</title>
<path fill="none" stroke="black" d="M94.65,-864.58C96.68,-854.05 98.98,-840.31 100,-828 101.32,-812.05 101.32,-807.95 100,-792 99.32,-783.73 98.05,-774.81 96.68,-766.66"/>
<polygon fill="black" stroke="black" points="100.14,-766.13 94.92,-756.91 93.25,-767.37 100.14,-766.13"/>
</g>
<!-- assign_k -->
<g id="node6" class="node">
<title>assign_k</title>
<polygon fill="none" stroke="black" points="118,-666.5 64,-666.5 64,-630.5 118,-630.5 118,-666.5"/>
<text xml:space="preserve" text-anchor="middle" x="91" y="-643.45" font-family="Times New Roman,serif" font-size="14.00">k=0</text>
</g>
<!-- inc_k -->
<g id="node10" class="node">
<title>inc_k</title>
<polygon fill="none" stroke="black" points="91,-593.5 37,-593.5 37,-557.5 91,-557.5 91,-593.5"/>
<text xml:space="preserve" text-anchor="middle" x="64" y="-570.45" font-family="Times New Roman,serif" font-size="14.00">k++</text>
</g>
<!-- assign_k&#45;&gt;inc_k -->
<g id="edge14" class="edge">
<title>assign_k&#45;&gt;inc_k</title>
<path fill="none" stroke="black" d="M84.46,-630.31C81.48,-622.46 77.87,-612.97 74.52,-604.16"/>
<polygon fill="black" stroke="black" points="77.84,-603.05 71.01,-594.94 71.3,-605.53 77.84,-603.05"/>
</g>
<!-- cmp_k -->
<g id="node14" class="node">
<title>cmp_k</title>
<polygon fill="none" stroke="black" points="118,-520.5 64,-520.5 64,-484.5 118,-484.5 118,-520.5"/>
<text xml:space="preserve" text-anchor="middle" x="91" y="-497.45" font-family="Times New Roman,serif" font-size="14.00">k&lt;5</text>
</g>
<!-- assign_k&#45;&gt;cmp_k -->
<g id="edge13" class="edge">
<title>assign_k&#45;&gt;cmp_k</title>
<path fill="none" stroke="black" d="M94.65,-630.08C96.68,-619.55 98.98,-605.81 100,-593.5 101.32,-577.55 101.32,-573.45 100,-557.5 99.32,-549.23 98.05,-540.31 96.68,-532.16"/>
<polygon fill="black" stroke="black" points="100.14,-531.63 94.92,-522.41 93.25,-532.87 100.14,-531.63"/>
</g>
<!-- assign_l -->
<g id="node7" class="node">
<title>assign_l</title>
<polygon fill="none" stroke="black" points="118,-432 64,-432 64,-396 118,-396 118,-432"/>
<text xml:space="preserve" text-anchor="middle" x="91" y="-408.95" font-family="Times New Roman,serif" font-size="14.00">l=0</text>
</g>
<!-- inc_l -->
<g id="node11" class="node">
<title>inc_l</title>
<polygon fill="none" stroke="black" points="91,-359 37,-359 37,-323 91,-323 91,-359"/>
<text xml:space="preserve" text-anchor="middle" x="64" y="-335.95" font-family="Times New Roman,serif" font-size="14.00">l++</text>
</g>
<!-- assign_l&#45;&gt;inc_l -->
<g id="edge18" class="edge">
<title>assign_l&#45;&gt;inc_l</title>
<path fill="none" stroke="black" d="M84.46,-395.81C81.48,-387.96 77.87,-378.47 74.52,-369.66"/>
<polygon fill="black" stroke="black" points="77.84,-368.55 71.01,-360.44 71.3,-371.03 77.84,-368.55"/>
</g>
<!-- cmp_l -->
<g id="node15" class="node">
<title>cmp_l</title>
<polygon fill="none" stroke="black" points="126,-286 72,-286 72,-250 126,-250 126,-286"/>
<text xml:space="preserve" text-anchor="middle" x="99" y="-262.95" font-family="Times New Roman,serif" font-size="14.00">l&lt;5</text>
</g>
<!-- assign_l&#45;&gt;cmp_l -->
<g id="edge17" class="edge">
<title>assign_l&#45;&gt;cmp_l</title>
<path fill="none" stroke="black" d="M94.65,-395.58C96.68,-385.05 98.98,-371.31 100,-359 101.7,-338.5 101.38,-315.29 100.68,-297.57"/>
<polygon fill="black" stroke="black" points="104.19,-297.62 100.22,-287.8 97.19,-297.95 104.19,-297.62"/>
</g>
<!-- inc_i&#45;&gt;cmp_i -->
<g id="edge7" class="edge">
<title>inc_i&#45;&gt;cmp_i</title>
<path fill="none" stroke="black" d="M64.47,-1026.31C68.43,-1018.29 73.23,-1008.55 77.66,-999.57"/>
<polygon fill="black" stroke="black" points="80.65,-1001.4 81.94,-990.89 74.38,-998.31 80.65,-1001.4"/>
</g>
<!-- inc_j&#45;&gt;cmp_j -->
<g id="edge11" class="edge">
<title>inc_j&#45;&gt;cmp_j</title>
<path fill="none" stroke="black" d="M70.54,-791.81C73.52,-783.96 77.13,-774.47 80.48,-765.66"/>
<polygon fill="black" stroke="black" points="83.7,-767.03 83.99,-756.44 77.16,-764.55 83.7,-767.03"/>
</g>
<!-- inc_k&#45;&gt;cmp_k -->
<g id="edge15" class="edge">
<title>inc_k&#45;&gt;cmp_k</title>
<path fill="none" stroke="black" d="M70.54,-557.31C73.52,-549.46 77.13,-539.97 80.48,-531.16"/>
<polygon fill="black" stroke="black" points="83.7,-532.53 83.99,-521.94 77.16,-530.05 83.7,-532.53"/>
</g>
<!-- inc_l&#45;&gt;cmp_l -->
<g id="edge19" class="edge">
<title>inc_l&#45;&gt;cmp_l</title>
<path fill="none" stroke="black" d="M72.47,-322.81C76.43,-314.79 81.23,-305.05 85.66,-296.07"/>
<polygon fill="black" stroke="black" points="88.65,-297.9 89.94,-287.39 82.38,-294.81 88.65,-297.9"/>
</g>
<!-- cmp_i&#45;&gt;assign_j -->
<g id="edge8" class="edge">
<title>cmp_i&#45;&gt;assign_j</title>
<path fill="none" stroke="black" d="M91,-953.41C91,-941.76 91,-926.05 91,-912.52"/>
<polygon fill="black" stroke="black" points="94.5,-912.86 91,-902.86 87.5,-912.86 94.5,-912.86"/>
<text xml:space="preserve" text-anchor="middle" x="101.5" y="-922.2" font-family="Times New Roman,serif" font-size="14.00">true</text>
</g>
<!-- cmp_j&#45;&gt;assign_k -->
<g id="edge12" class="edge">
<title>cmp_j&#45;&gt;assign_k</title>
<path fill="none" stroke="black" d="M91,-718.91C91,-707.26 91,-691.55 91,-678.02"/>
<polygon fill="black" stroke="black" points="94.5,-678.36 91,-668.36 87.5,-678.36 94.5,-678.36"/>
<text xml:space="preserve" text-anchor="middle" x="101.5" y="-687.7" font-family="Times New Roman,serif" font-size="14.00">true</text>
</g>
<!-- cmp_k&#45;&gt;assign_l -->
<g id="edge16" class="edge">
<title>cmp_k&#45;&gt;assign_l</title>
<path fill="none" stroke="black" d="M91,-484.41C91,-472.76 91,-457.05 91,-443.52"/>
<polygon fill="black" stroke="black" points="94.5,-443.86 91,-433.86 87.5,-443.86 94.5,-443.86"/>
<text xml:space="preserve" text-anchor="middle" x="101.5" y="-453.2" font-family="Times New Roman,serif" font-size="14.00">true</text>
</g>
<!-- cmp_l&#45;&gt;cmp_key -->
<g id="edge20" class="edge">
<title>cmp_l&#45;&gt;cmp_key</title>
<path fill="none" stroke="black" d="M97.62,-249.91C96.67,-238.26 95.4,-222.55 94.31,-209.02"/>
<polygon fill="black" stroke="black" points="97.82,-209.04 93.53,-199.36 90.84,-209.61 97.82,-209.04"/>
<text xml:space="preserve" text-anchor="middle" x="106.63" y="-218.7" font-family="Times New Roman,serif" font-size="14.00">true</text>
</g>
<!-- cmp_key&#45;&gt;add -->
<g id="edge21" class="edge">
<title>cmp_key&#45;&gt;add</title>
<path fill="none" stroke="black" d="M109.98,-161.41C123.35,-148.7 141.81,-131.16 156.82,-116.89"/>
<polygon fill="black" stroke="black" points="158.81,-119.82 163.65,-110.39 153.99,-114.75 158.81,-119.82"/>
<text xml:space="preserve" text-anchor="middle" x="156.15" y="-130.2" font-family="Times New Roman,serif" font-size="14.00">true</text>
</g>
<!-- return_val -->
<g id="node18" class="node">
<title>return_val</title>
<ellipse fill="lightgreen" stroke="black" cx="183" cy="-18" rx="32.93" ry="18"/>
<text xml:space="preserve" text-anchor="middle" x="183" y="-12.95" font-family="Times New Roman,serif" font-size="14.00">return</text>
</g>
<!-- add&#45;&gt;return_val -->
<g id="edge22" class="edge">
<title>add&#45;&gt;return_val</title>
<path fill="none" stroke="black" d="M183,-72.81C183,-65.23 183,-56.1 183,-47.54"/>
<polygon fill="black" stroke="black" points="186.5,-47.54 183,-37.54 179.5,-47.54 186.5,-47.54"/>
</g>
</g>
</svg>
