<?xml version="1.0" encoding="UTF-8" standalone="no"?>
<!DOCTYPE svg PUBLIC "-//W3C//DTD SVG 1.1//EN"
 "http://www.w3.org/Graphics/SVG/1.1/DTD/svg11.dtd">
<!-- Generated by graphviz version 13.1.2 (20250808.2320)
 -->
<!-- Title: Compress_DFG Pages: 1 -->
<svg width="430pt" height="138pt"
 viewBox="0.00 0.00 430.00 138.00" xmlns="http://www.w3.org/2000/svg" xmlns:xlink="http://www.w3.org/1999/xlink">
<g id="graph0" class="graph" transform="scale(1 1) rotate(0) translate(4 133.98)">
<title>Compress_DFG</title>
<polygon fill="white" stroke="none" points="-4,4 -4,-133.98 425.99,-133.98 425.99,4 -4,4"/>
<!-- IN_COUNT -->
<g id="node1" class="node">
<title>IN_COUNT</title>
<ellipse fill="none" stroke="black" cx="89.74" cy="-111.98" rx="89.74" ry="18"/>
<text xml:space="preserve" text-anchor="middle" x="89.74" y="-106.93" font-family="Courier,monospace" font-size="14.00">in_count (≤51)</text>
</g>
<!-- COND -->
<g id="node3" class="node">
<title>COND</title>
<ellipse fill="none" stroke="red" cx="199.74" cy="-28.99" rx="139.65" ry="28.99"/>
<text xml:space="preserve" text-anchor="middle" x="199.74" y="-32.19" font-family="Courier,monospace" font-size="14.00">Condicao:</text>
<text xml:space="preserve" text-anchor="middle" x="199.74" y="-15.69" font-family="Courier,monospace" font-size="14.00">in_count &gt;= checkpoint</text>
</g>
<!-- IN_COUNT&#45;&gt;COND -->
<g id="edge1" class="edge">
<title>IN_COUNT&#45;&gt;COND</title>
<path fill="none" stroke="black" d="M112.53,-94.2C124.4,-85.46 139.37,-74.44 153.53,-64.01"/>
<polygon fill="black" stroke="black" points="155.49,-66.92 161.47,-58.17 151.34,-61.28 155.49,-66.92"/>
</g>
<!-- CHECK_GAP -->
<g id="node2" class="node">
<title>CHECK_GAP</title>
<ellipse fill="none" stroke="black" cx="309.74" cy="-111.98" rx="112.26" ry="18"/>
<text xml:space="preserve" text-anchor="middle" x="309.74" y="-106.93" font-family="Courier,monospace" font-size="14.00">checkpoint (10000)</text>
</g>
<!-- CHECK_GAP&#45;&gt;COND -->
<g id="edge2" class="edge">
<title>CHECK_GAP&#45;&gt;COND</title>
<path fill="none" stroke="black" d="M286.68,-94C274.79,-85.25 259.86,-74.26 245.74,-63.86"/>
<polygon fill="black" stroke="black" points="247.97,-61.16 237.84,-58.05 243.82,-66.79 247.97,-61.16"/>
</g>
</g>
</svg>
