<?xml version="1.0" encoding="UTF-8" standalone="no"?>
<!DOCTYPE svg PUBLIC "-//W3C//DTD SVG 1.1//EN"
 "http://www.w3.org/Graphics/SVG/1.1/DTD/svg11.dtd">
<!-- Generated by graphviz version 13.1.2 (20250808.2320)
 -->
<!-- Title: foo_CFG Pages: 1 -->
<svg width="421pt" height="1011pt"
 viewBox="0.00 0.00 421.00 1011.00" xmlns="http://www.w3.org/2000/svg" xmlns:xlink="http://www.w3.org/1999/xlink">
<g id="graph0" class="graph" transform="scale(1 1) rotate(0) translate(4 1006.92)">
<title>foo_CFG</title>
<polygon fill="white" stroke="none" points="-4,4 -4,-1006.92 417.38,-1006.92 417.38,4 -4,4"/>
<!-- START -->
<g id="node1" class="node">
<title>START</title>
<path fill="none" stroke="black" d="M349.5,-1002.92C349.5,-1002.92 306.5,-1002.92 306.5,-1002.92 300.5,-1002.92 294.5,-996.92 294.5,-990.92 294.5,-990.92 294.5,-978.92 294.5,-978.92 294.5,-972.92 300.5,-966.92 306.5,-966.92 306.5,-966.92 349.5,-966.92 349.5,-966.92 355.5,-966.92 361.5,-972.92 361.5,-978.92 361.5,-978.92 361.5,-990.92 361.5,-990.92 361.5,-996.92 355.5,-1002.92 349.5,-1002.92"/>
<text xml:space="preserve" text-anchor="middle" x="328" y="-979.49" font-family="Helvetica,sans-Serif" font-size="14.00">Start foo</text>
</g>
<!-- B1 -->
<g id="node2" class="node">
<title>B1</title>
<path fill="none" stroke="black" d="M343,-929.92C343,-929.92 313,-929.92 313,-929.92 307,-929.92 301,-923.92 301,-917.92 301,-917.92 301,-905.92 301,-905.92 301,-899.92 307,-893.92 313,-893.92 313,-893.92 343,-893.92 343,-893.92 349,-893.92 355,-899.92 355,-905.92 355,-905.92 355,-917.92 355,-917.92 355,-923.92 349,-929.92 343,-929.92"/>
<text xml:space="preserve" text-anchor="middle" x="328" y="-906.49" font-family="Helvetica,sans-Serif" font-size="14.00">i = 0</text>
</g>
<!-- START&#45;&gt;B1 -->
<g id="edge1" class="edge">
<title>START&#45;&gt;B1</title>
<path fill="none" stroke="black" d="M328,-966.73C328,-959.14 328,-950.02 328,-941.46"/>
<polygon fill="black" stroke="black" points="331.5,-941.46 328,-931.46 324.5,-941.46 331.5,-941.46"/>
</g>
<!-- B2 -->
<g id="node3" class="node">
<title>B2</title>
<path fill="none" stroke="black" d="M343,-856.92C343,-856.92 313,-856.92 313,-856.92 307,-856.92 301,-850.92 301,-844.92 301,-844.92 301,-832.92 301,-832.92 301,-826.92 307,-820.92 313,-820.92 313,-820.92 343,-820.92 343,-820.92 349,-820.92 355,-826.92 355,-832.92 355,-832.92 355,-844.92 355,-844.92 355,-850.92 349,-856.92 343,-856.92"/>
<text xml:space="preserve" text-anchor="middle" x="328" y="-833.49" font-family="Helvetica,sans-Serif" font-size="14.00">i &lt; 5</text>
</g>
<!-- B1&#45;&gt;B2 -->
<g id="edge2" class="edge">
<title>B1&#45;&gt;B2</title>
<path fill="none" stroke="black" d="M328,-893.73C328,-886.14 328,-877.02 328,-868.46"/>
<polygon fill="black" stroke="black" points="331.5,-868.46 328,-858.46 324.5,-868.46 331.5,-868.46"/>
</g>
<!-- B3 -->
<g id="node4" class="node">
<title>B3</title>
<path fill="none" stroke="black" d="M283,-769.17C283,-769.17 253,-769.17 253,-769.17 247,-769.17 241,-763.17 241,-757.17 241,-757.17 241,-745.17 241,-745.17 241,-739.17 247,-733.17 253,-733.17 253,-733.17 283,-733.17 283,-733.17 289,-733.17 295,-739.17 295,-745.17 295,-745.17 295,-757.17 295,-757.17 295,-763.17 289,-769.17 283,-769.17"/>
<text xml:space="preserve" text-anchor="middle" x="268" y="-745.74" font-family="Helvetica,sans-Serif" font-size="14.00">j = 0</text>
</g>
<!-- B2&#45;&gt;B3 -->
<g id="edge3" class="edge">
<title>B2&#45;&gt;B3</title>
<path fill="none" stroke="black" d="M306.78,-820.7C301.1,-815.4 295.28,-809.28 290.75,-802.92 285.8,-795.97 281.56,-787.77 278.12,-780.01"/>
<polygon fill="black" stroke="black" points="281.42,-778.84 274.39,-770.92 274.95,-781.5 281.42,-778.84"/>
<text xml:space="preserve" text-anchor="middle" x="302.38" y="-789.62" font-family="Helvetica,sans-Serif" font-size="14.00">true</text>
</g>
<!-- B15 -->
<g id="node16" class="node">
<title>B15</title>
<path fill="none" stroke="black" d="M401.38,-715.17C401.38,-715.17 354.62,-715.17 354.62,-715.17 348.62,-715.17 342.62,-709.17 342.62,-703.17 342.62,-703.17 342.62,-691.17 342.62,-691.17 342.62,-685.17 348.62,-679.17 354.62,-679.17 354.62,-679.17 401.38,-679.17 401.38,-679.17 407.38,-679.17 413.38,-685.17 413.38,-691.17 413.38,-691.17 413.38,-703.17 413.38,-703.17 413.38,-709.17 407.38,-715.17 401.38,-715.17"/>
<text xml:space="preserve" text-anchor="middle" x="378" y="-691.74" font-family="Helvetica,sans-Serif" font-size="14.00">return &#45;1;</text>
</g>
<!-- B2&#45;&gt;B15 -->
<g id="edge4" class="edge">
<title>B2&#45;&gt;B15</title>
<path fill="none" stroke="black" d="M335.15,-820.53C337.4,-814.93 339.86,-808.68 342,-802.92 351.61,-777.06 361.75,-747.29 368.81,-726.12"/>
<polygon fill="black" stroke="black" points="372.09,-727.34 371.92,-716.75 365.45,-725.14 372.09,-727.34"/>
<text xml:space="preserve" text-anchor="middle" x="361.42" y="-789.62" font-family="Helvetica,sans-Serif" font-size="14.00">false</text>
</g>
<!-- B4 -->
<g id="node5" class="node">
<title>B4</title>
<path fill="none" stroke="black" d="M269,-661.17C269,-661.17 239,-661.17 239,-661.17 233,-661.17 227,-655.17 227,-649.17 227,-649.17 227,-637.17 227,-637.17 227,-631.17 233,-625.17 239,-625.17 239,-625.17 269,-625.17 269,-625.17 275,-625.17 281,-631.17 281,-637.17 281,-637.17 281,-649.17 281,-649.17 281,-655.17 275,-661.17 269,-661.17"/>
<text xml:space="preserve" text-anchor="middle" x="254" y="-637.74" font-family="Helvetica,sans-Serif" font-size="14.00">j &lt; 5</text>
</g>
<!-- B3&#45;&gt;B4 -->
<g id="edge5" class="edge">
<title>B3&#45;&gt;B4</title>
<path fill="none" stroke="black" d="M265.75,-733.14C263.6,-716.85 260.32,-691.99 257.77,-672.68"/>
<polygon fill="black" stroke="black" points="261.27,-672.46 256.49,-663.01 254.33,-673.38 261.27,-672.46"/>
</g>
<!-- B5 -->
<g id="node6" class="node">
<title>B5</title>
<path fill="none" stroke="black" d="M206,-573.42C206,-573.42 176,-573.42 176,-573.42 170,-573.42 164,-567.42 164,-561.42 164,-561.42 164,-549.42 164,-549.42 164,-543.42 170,-537.42 176,-537.42 176,-537.42 206,-537.42 206,-537.42 212,-537.42 218,-543.42 218,-549.42 218,-549.42 218,-561.42 218,-561.42 218,-567.42 212,-573.42 206,-573.42"/>
<text xml:space="preserve" text-anchor="middle" x="191" y="-549.99" font-family="Helvetica,sans-Serif" font-size="14.00">k = 0</text>
</g>
<!-- B4&#45;&gt;B5 -->
<g id="edge6" class="edge">
<title>B4&#45;&gt;B5</title>
<path fill="none" stroke="black" d="M230.6,-624.82C224.59,-619.61 218.49,-613.56 213.75,-607.17 208.67,-600.31 204.38,-592.15 200.95,-584.39"/>
<polygon fill="black" stroke="black" points="204.25,-583.22 197.24,-575.27 197.77,-585.85 204.25,-583.22"/>
<text xml:space="preserve" text-anchor="middle" x="225.38" y="-593.87" font-family="Helvetica,sans-Serif" font-size="14.00">true</text>
</g>
<!-- B14 -->
<g id="node15" class="node">
<title>B14</title>
<path fill="none" stroke="black" d="M326,-573.42C326,-573.42 296,-573.42 296,-573.42 290,-573.42 284,-567.42 284,-561.42 284,-561.42 284,-549.42 284,-549.42 284,-543.42 290,-537.42 296,-537.42 296,-537.42 326,-537.42 326,-537.42 332,-537.42 338,-543.42 338,-549.42 338,-549.42 338,-561.42 338,-561.42 338,-567.42 332,-573.42 326,-573.42"/>
<text xml:space="preserve" text-anchor="middle" x="311" y="-549.99" font-family="Helvetica,sans-Serif" font-size="14.00">i++</text>
</g>
<!-- B4&#45;&gt;B14 -->
<g id="edge7" class="edge">
<title>B4&#45;&gt;B14</title>
<path fill="none" stroke="black" d="M264.19,-625.05C270.21,-615.11 278.09,-602.43 285.5,-591.42 287.35,-588.67 289.32,-585.83 291.31,-583.01"/>
<polygon fill="black" stroke="black" points="294.14,-585.07 297.15,-574.91 288.46,-580.98 294.14,-585.07"/>
<text xml:space="preserve" text-anchor="middle" x="299.75" y="-593.87" font-family="Helvetica,sans-Serif" font-size="14.00">false</text>
</g>
<!-- B6 -->
<g id="node7" class="node">
<title>B6</title>
<path fill="none" stroke="black" d="M192,-500.42C192,-500.42 162,-500.42 162,-500.42 156,-500.42 150,-494.42 150,-488.42 150,-488.42 150,-476.42 150,-476.42 150,-470.42 156,-464.42 162,-464.42 162,-464.42 192,-464.42 192,-464.42 198,-464.42 204,-470.42 204,-476.42 204,-476.42 204,-488.42 204,-488.42 204,-494.42 198,-500.42 192,-500.42"/>
<text xml:space="preserve" text-anchor="middle" x="177" y="-476.99" font-family="Helvetica,sans-Serif" font-size="14.00">k &lt; 5</text>
</g>
<!-- B5&#45;&gt;B6 -->
<g id="edge8" class="edge">
<title>B5&#45;&gt;B6</title>
<path fill="none" stroke="black" d="M187.61,-537.23C186.1,-529.55 184.27,-520.31 182.57,-511.66"/>
<polygon fill="black" stroke="black" points="186.02,-511.06 180.65,-501.93 179.15,-512.42 186.02,-511.06"/>
</g>
<!-- B7 -->
<g id="node8" class="node">
<title>B7</title>
<path fill="none" stroke="black" d="M125,-412.67C125,-412.67 95,-412.67 95,-412.67 89,-412.67 83,-406.67 83,-400.67 83,-400.67 83,-388.67 83,-388.67 83,-382.67 89,-376.67 95,-376.67 95,-376.67 125,-376.67 125,-376.67 131,-376.67 137,-382.67 137,-388.67 137,-388.67 137,-400.67 137,-400.67 137,-406.67 131,-412.67 125,-412.67"/>
<text xml:space="preserve" text-anchor="middle" x="110" y="-389.24" font-family="Helvetica,sans-Serif" font-size="14.00">l = 0</text>
</g>
<!-- B6&#45;&gt;B7 -->
<g id="edge9" class="edge">
<title>B6&#45;&gt;B7</title>
<path fill="none" stroke="black" d="M154.29,-464.23C148.15,-458.93 141.81,-452.8 136.75,-446.42 131.22,-439.44 126.29,-431.15 122.22,-423.31"/>
<polygon fill="black" stroke="black" points="125.42,-421.88 117.88,-414.43 119.13,-424.95 125.42,-421.88"/>
<text xml:space="preserve" text-anchor="middle" x="148.38" y="-433.12" font-family="Helvetica,sans-Serif" font-size="14.00">true</text>
</g>
<!-- B13 -->
<g id="node14" class="node">
<title>B13</title>
<path fill="none" stroke="black" d="M255,-412.67C255,-412.67 225,-412.67 225,-412.67 219,-412.67 213,-406.67 213,-400.67 213,-400.67 213,-388.67 213,-388.67 213,-382.67 219,-376.67 225,-376.67 225,-376.67 255,-376.67 255,-376.67 261,-376.67 267,-382.67 267,-388.67 267,-388.67 267,-400.67 267,-400.67 267,-406.67 261,-412.67 255,-412.67"/>
<text xml:space="preserve" text-anchor="middle" x="240" y="-389.24" font-family="Helvetica,sans-Serif" font-size="14.00">j++</text>
</g>
<!-- B6&#45;&gt;B13 -->
<g id="edge10" class="edge">
<title>B6&#45;&gt;B13</title>
<path fill="none" stroke="black" d="M186.77,-464C192.65,-453.97 200.53,-441.28 208.5,-430.67 210.83,-427.57 213.38,-424.41 215.98,-421.33"/>
<polygon fill="black" stroke="black" points="218.37,-423.91 222.34,-414.09 213.11,-419.29 218.37,-423.91"/>
<text xml:space="preserve" text-anchor="middle" x="222.75" y="-433.12" font-family="Helvetica,sans-Serif" font-size="14.00">false</text>
</g>
<!-- B8 -->
<g id="node9" class="node">
<title>B8</title>
<path fill="none" stroke="black" d="M103,-339.67C103,-339.67 73,-339.67 73,-339.67 67,-339.67 61,-333.67 61,-327.67 61,-327.67 61,-315.67 61,-315.67 61,-309.67 67,-303.67 73,-303.67 73,-303.67 103,-303.67 103,-303.67 109,-303.67 115,-309.67 115,-315.67 115,-315.67 115,-327.67 115,-327.67 115,-333.67 109,-339.67 103,-339.67"/>
<text xml:space="preserve" text-anchor="middle" x="88" y="-316.24" font-family="Helvetica,sans-Serif" font-size="14.00">l &lt; 5</text>
</g>
<!-- B7&#45;&gt;B8 -->
<g id="edge11" class="edge">
<title>B7&#45;&gt;B8</title>
<path fill="none" stroke="black" d="M104.67,-376.48C102.27,-368.72 99.37,-359.35 96.66,-350.62"/>
<polygon fill="black" stroke="black" points="100.03,-349.66 93.72,-341.14 93.34,-351.73 100.03,-349.66"/>
</g>
<!-- B9 -->
<g id="node10" class="node">
<title>B9</title>
<path fill="none" stroke="black" d="M132.12,-251.92C132.12,-251.92 35.88,-251.92 35.88,-251.92 29.88,-251.92 23.88,-245.92 23.88,-239.92 23.88,-239.92 23.88,-227.92 23.88,-227.92 23.88,-221.92 29.88,-215.92 35.88,-215.92 35.88,-215.92 132.12,-215.92 132.12,-215.92 138.12,-215.92 144.12,-221.92 144.12,-227.92 144.12,-227.92 144.12,-239.92 144.12,-239.92 144.12,-245.92 138.12,-251.92 132.12,-251.92"/>
<text xml:space="preserve" text-anchor="middle" x="84" y="-228.49" font-family="Helvetica,sans-Serif" font-size="14.00">keys[i][j][k][l] == x</text>
</g>
<!-- B8&#45;&gt;B9 -->
<g id="edge12" class="edge">
<title>B8&#45;&gt;B9</title>
<path fill="none" stroke="black" d="M86.11,-303.24C85.58,-297.63 85.06,-291.39 84.75,-285.67 84.37,-278.56 84.15,-270.89 84.04,-263.72"/>
<polygon fill="black" stroke="black" points="87.54,-263.79 83.94,-253.82 80.54,-263.86 87.54,-263.79"/>
<text xml:space="preserve" text-anchor="middle" x="96.38" y="-272.37" font-family="Helvetica,sans-Serif" font-size="14.00">true</text>
</g>
<!-- B12 -->
<g id="node13" class="node">
<title>B12</title>
<path fill="none" stroke="black" d="M204,-251.92C204,-251.92 174,-251.92 174,-251.92 168,-251.92 162,-245.92 162,-239.92 162,-239.92 162,-227.92 162,-227.92 162,-221.92 168,-215.92 174,-215.92 174,-215.92 204,-215.92 204,-215.92 210,-215.92 216,-221.92 216,-227.92 216,-227.92 216,-239.92 216,-239.92 216,-245.92 210,-251.92 204,-251.92"/>
<text xml:space="preserve" text-anchor="middle" x="189" y="-228.49" font-family="Helvetica,sans-Serif" font-size="14.00">k++</text>
</g>
<!-- B8&#45;&gt;B12 -->
<g id="edge13" class="edge">
<title>B8&#45;&gt;B12</title>
<path fill="none" stroke="black" d="M100.52,-303.46C108.63,-293.02 119.83,-279.84 131.5,-269.92 137.81,-264.56 145.02,-259.48 152.16,-254.95"/>
<polygon fill="black" stroke="black" points="153.74,-258.09 160.47,-249.91 150.1,-252.11 153.74,-258.09"/>
<text xml:space="preserve" text-anchor="middle" x="145.75" y="-272.37" font-family="Helvetica,sans-Serif" font-size="14.00">false</text>
</g>
<!-- B10 -->
<g id="node11" class="node">
<title>B10</title>
<path fill="none" stroke="black" d="M307.62,-164.17C307.62,-164.17 94.38,-164.17 94.38,-164.17 88.38,-164.17 82.38,-158.17 82.38,-152.17 82.38,-152.17 82.38,-140.17 82.38,-140.17 82.38,-134.17 88.38,-128.17 94.38,-128.17 94.38,-128.17 307.62,-128.17 307.62,-128.17 313.62,-128.17 319.62,-134.17 319.62,-140.17 319.62,-140.17 319.62,-152.17 319.62,-152.17 319.62,-158.17 313.62,-164.17 307.62,-164.17"/>
<text xml:space="preserve" text-anchor="middle" x="201" y="-140.74" font-family="Helvetica,sans-Serif" font-size="14.00">return answer[i][j][k][l] + keys[i][j][k][l];</text>
</g>
<!-- B9&#45;&gt;B10 -->
<g id="edge14" class="edge">
<title>B9&#45;&gt;B10</title>
<path fill="none" stroke="black" d="M107.68,-215.56C125.12,-202.78 149.06,-185.23 168.33,-171.11"/>
<polygon fill="black" stroke="black" points="170.14,-174.12 176.14,-165.39 166,-168.48 170.14,-174.12"/>
<text xml:space="preserve" text-anchor="middle" x="164.6" y="-184.62" font-family="Helvetica,sans-Serif" font-size="14.00">true</text>
</g>
<!-- B11 -->
<g id="node12" class="node">
<title>B11</title>
<path fill="none" stroke="black" d="M42,-164.17C42,-164.17 12,-164.17 12,-164.17 6,-164.17 0,-158.17 0,-152.17 0,-152.17 0,-140.17 0,-140.17 0,-134.17 6,-128.17 12,-128.17 12,-128.17 42,-128.17 42,-128.17 48,-128.17 54,-134.17 54,-140.17 54,-140.17 54,-152.17 54,-152.17 54,-158.17 48,-164.17 42,-164.17"/>
<text xml:space="preserve" text-anchor="middle" x="27" y="-140.74" font-family="Helvetica,sans-Serif" font-size="14.00">l++</text>
</g>
<!-- B9&#45;&gt;B11 -->
<g id="edge15" class="edge">
<title>B9&#45;&gt;B11</title>
<path fill="none" stroke="black" d="M63.07,-215.75C57.5,-210.45 51.83,-204.31 47.5,-197.92 42.85,-191.04 38.98,-182.95 35.91,-175.27"/>
<polygon fill="black" stroke="black" points="39.22,-174.12 32.5,-165.93 32.64,-176.53 39.22,-174.12"/>
<text xml:space="preserve" text-anchor="middle" x="61.75" y="-184.62" font-family="Helvetica,sans-Serif" font-size="14.00">false</text>
</g>
<!-- END -->
<g id="node17" class="node">
<title>END</title>
<ellipse fill="none" stroke="black" cx="287" cy="-45.58" rx="41.58" ry="41.58"/>
<ellipse fill="none" stroke="black" cx="287" cy="-45.58" rx="45.58" ry="45.58"/>
<text xml:space="preserve" text-anchor="middle" x="287" y="-40.16" font-family="Helvetica,sans-Serif" font-size="14.00">End foo</text>
</g>
<!-- B10&#45;&gt;END -->
<g id="edge16" class="edge">
<title>B10&#45;&gt;END</title>
<path fill="none" stroke="black" d="M215.98,-127.99C225.39,-117.21 237.96,-102.8 249.91,-89.1"/>
<polygon fill="black" stroke="black" points="252.31,-91.68 256.24,-81.84 247.03,-87.07 252.31,-91.68"/>
</g>
<!-- B11&#45;&gt;B8 -->
<g id="edge17" class="edge">
<title>B11&#45;&gt;B8</title>
<path fill="none" stroke="black" d="M19.81,-164.64C12.11,-186.1 2.59,-223.18 15,-251.92 22.72,-269.78 37.62,-285.16 51.95,-296.81"/>
<polygon fill="black" stroke="black" points="49.48,-299.32 59.54,-302.65 53.75,-293.77 49.48,-299.32"/>
</g>
<!-- B12&#45;&gt;B6 -->
<g id="edge18" class="edge">
<title>B12&#45;&gt;B6</title>
<path fill="none" stroke="black" d="M188.16,-252.23C186.12,-294.11 180.9,-401.23 178.39,-452.81"/>
<polygon fill="black" stroke="black" points="174.91,-452.41 177.92,-462.57 181.9,-452.75 174.91,-452.41"/>
</g>
<!-- B13&#45;&gt;B4 -->
<g id="edge19" class="edge">
<title>B13&#45;&gt;B4</title>
<path fill="none" stroke="black" d="M240.98,-412.98C243.36,-454.86 249.45,-561.98 252.38,-613.56"/>
<polygon fill="black" stroke="black" points="248.87,-613.54 252.93,-623.32 255.86,-613.14 248.87,-613.54"/>
</g>
<!-- B14&#45;&gt;B2 -->
<g id="edge20" class="edge">
<title>B14&#45;&gt;B2</title>
<path fill="none" stroke="black" d="M312.59,-573.85C313.08,-579.46 313.59,-585.7 314,-591.42 319.61,-670.14 324.39,-763.13 326.63,-809.15"/>
<polygon fill="black" stroke="black" points="323.14,-809.24 327.11,-819.06 330.13,-808.9 323.14,-809.24"/>
</g>
<!-- B15&#45;&gt;END -->
<g id="edge21" class="edge">
<title>B15&#45;&gt;END</title>
<path fill="none" stroke="black" d="M376.84,-678.85C375.66,-659.66 374,-627.78 374,-600.29 374,-600.29 374,-600.29 374,-145.17 374,-117.7 354.78,-94.28 334.41,-77.16"/>
<polygon fill="black" stroke="black" points="336.86,-74.64 326.85,-71.16 332.51,-80.12 336.86,-74.64"/>
</g>
</g>
</svg>
