<?xml version="1.0" encoding="UTF-8" standalone="no"?>
<!DOCTYPE svg PUBLIC "-//W3C//DTD SVG 1.1//EN"
 "http://www.w3.org/Graphics/SVG/1.1/DTD/svg11.dtd">
<!-- Generated by graphviz version 13.1.2 (20250808.2320)
 -->
<!-- Title: foo_DFG Pages: 1 -->
<svg width="498pt" height="279pt"
 viewBox="0.00 0.00 498.00 279.00" xmlns="http://www.w3.org/2000/svg" xmlns:xlink="http://www.w3.org/1999/xlink">
<g id="graph0" class="graph" transform="scale(1 1) rotate(0) translate(4 274.5)">
<title>foo_DFG</title>
<polygon fill="white" stroke="none" points="-4,4 -4,-274.5 493.53,-274.5 493.53,4 -4,4"/>
<!-- x -->
<g id="node1" class="node">
<title>x</title>
<ellipse fill="lightblue" stroke="black" cx="61.59" cy="-164" rx="61.59" ry="18"/>
<text xml:space="preserve" text-anchor="middle" x="61.59" y="-158.95" font-family="Times New Roman,serif" font-size="14.00">x (parameter)</text>
</g>
<!-- eq -->
<g id="node5" class="node">
<title>eq</title>
<polygon fill="none" stroke="black" points="141.59,-109 87.59,-109 87.59,-73 141.59,-73 141.59,-109"/>
<text xml:space="preserve" text-anchor="middle" x="114.59" y="-85.95" font-family="Times New Roman,serif" font-size="14.00">==</text>
</g>
<!-- x&#45;&gt;eq -->
<g id="edge2" class="edge">
<title>x&#45;&gt;eq</title>
<path fill="none" stroke="black" d="M74.15,-146.17C80.28,-137.96 87.81,-127.87 94.7,-118.64"/>
<polygon fill="black" stroke="black" points="97.48,-120.77 100.66,-110.66 91.87,-116.58 97.48,-120.77"/>
</g>
<!-- keys -->
<g id="node2" class="node">
<title>keys</title>
<ellipse fill="lightblue" stroke="black" cx="196.59" cy="-164" rx="55.45" ry="18"/>
<text xml:space="preserve" text-anchor="middle" x="196.59" y="-158.95" font-family="Times New Roman,serif" font-size="14.00">keys (array)</text>
</g>
<!-- add -->
<g id="node4" class="node">
<title>add</title>
<polygon fill="none" stroke="black" points="261.59,-109 207.59,-109 207.59,-73 261.59,-73 261.59,-109"/>
<text xml:space="preserve" text-anchor="middle" x="234.59" y="-85.95" font-family="Times New Roman,serif" font-size="14.00">+</text>
</g>
<!-- keys&#45;&gt;add -->
<g id="edge4" class="edge">
<title>keys&#45;&gt;add</title>
<path fill="none" stroke="black" d="M205.79,-145.81C210.08,-137.79 215.29,-128.05 220.1,-119.07"/>
<polygon fill="black" stroke="black" points="223.13,-120.83 224.76,-110.36 216.95,-117.53 223.13,-120.83"/>
</g>
<!-- keys&#45;&gt;eq -->
<g id="edge1" class="edge">
<title>keys&#45;&gt;eq</title>
<path fill="none" stroke="black" d="M177.98,-146.89C167.66,-137.96 154.62,-126.66 143.05,-116.64"/>
<polygon fill="black" stroke="black" points="145.55,-114.18 135.7,-110.28 140.97,-119.47 145.55,-114.18"/>
</g>
<!-- answer -->
<g id="node3" class="node">
<title>answer</title>
<ellipse fill="lightblue" stroke="black" cx="334.59" cy="-164" rx="64.66" ry="18"/>
<text xml:space="preserve" text-anchor="middle" x="334.59" y="-158.95" font-family="Times New Roman,serif" font-size="14.00">answer (array)</text>
</g>
<!-- answer&#45;&gt;add -->
<g id="edge5" class="edge">
<title>answer&#45;&gt;add</title>
<path fill="none" stroke="black" d="M311.9,-146.89C298.94,-137.69 282.46,-125.99 268.05,-115.76"/>
<polygon fill="black" stroke="black" points="270.35,-113.1 260.17,-110.16 266.3,-118.81 270.35,-113.1"/>
</g>
<!-- result -->
<g id="node6" class="node">
<title>result</title>
<ellipse fill="lightgreen" stroke="black" cx="234.59" cy="-18" rx="31.39" ry="18"/>
<text xml:space="preserve" text-anchor="middle" x="234.59" y="-12.95" font-family="Times New Roman,serif" font-size="14.00">result</text>
</g>
<!-- add&#45;&gt;result -->
<g id="edge6" class="edge">
<title>add&#45;&gt;result</title>
<path fill="none" stroke="black" d="M234.59,-72.81C234.59,-65.23 234.59,-56.1 234.59,-47.54"/>
<polygon fill="black" stroke="black" points="238.09,-47.54 234.59,-37.54 231.09,-47.54 238.09,-47.54"/>
</g>
<!-- B9_cond -->
<g id="node7" class="node">
<title>B9_cond</title>
<ellipse fill="lightgreen" stroke="black" cx="114.59" cy="-18" rx="44.19" ry="18"/>
<text xml:space="preserve" text-anchor="middle" x="114.59" y="-12.95" font-family="Times New Roman,serif" font-size="14.00">B9_cond</text>
</g>
<!-- eq&#45;&gt;B9_cond -->
<g id="edge3" class="edge">
<title>eq&#45;&gt;B9_cond</title>
<path fill="none" stroke="black" stroke-dasharray="5,2" d="M114.59,-72.81C114.59,-65.23 114.59,-56.1 114.59,-47.54"/>
<polygon fill="black" stroke="black" points="118.09,-47.54 114.59,-37.54 111.09,-47.54 118.09,-47.54"/>
</g>
<!-- i -->
<g id="node8" class="node">
<title>i</title>
<ellipse fill="lightblue" stroke="black" cx="135.59" cy="-252.5" rx="27" ry="18"/>
<text xml:space="preserve" text-anchor="middle" x="135.59" y="-247.45" font-family="Times New Roman,serif" font-size="14.00">i</text>
</g>
<!-- i&#45;&gt;keys -->
<g id="edge7" class="edge">
<title>i&#45;&gt;keys</title>
<path fill="none" stroke="black" d="M119.89,-237.95C109.51,-227.3 99.22,-212.28 107.59,-200 112.43,-192.9 127.9,-185.82 144.62,-179.9"/>
<polygon fill="black" stroke="black" points="145.31,-183.36 153.68,-176.86 143.08,-176.73 145.31,-183.36"/>
<text xml:space="preserve" text-anchor="middle" x="122.59" y="-203.2" font-family="Times New Roman,serif" font-size="14.00">index</text>
</g>
<!-- i&#45;&gt;answer -->
<g id="edge11" class="edge">
<title>i&#45;&gt;answer</title>
<path fill="none" stroke="black" d="M161.22,-246.27C183.88,-240.94 217.33,-231.33 243.59,-216.5 253.33,-211 253.26,-206.16 262.59,-200 271.01,-194.43 280.46,-189.21 289.66,-184.58"/>
<polygon fill="black" stroke="black" points="291.05,-187.79 298.52,-180.28 288,-181.49 291.05,-187.79"/>
<text xml:space="preserve" text-anchor="middle" x="277.59" y="-203.2" font-family="Times New Roman,serif" font-size="14.00">index</text>
</g>
<!-- j -->
<g id="node9" class="node">
<title>j</title>
<ellipse fill="lightblue" stroke="black" cx="258.59" cy="-252.5" rx="27" ry="18"/>
<text xml:space="preserve" text-anchor="middle" x="258.59" y="-247.45" font-family="Times New Roman,serif" font-size="14.00">j</text>
</g>
<!-- j&#45;&gt;keys -->
<g id="edge8" class="edge">
<title>j&#45;&gt;keys</title>
<path fill="none" stroke="black" d="M231.49,-250.03C208.41,-247.18 176.51,-239.09 160.59,-216.5 154.21,-207.44 158.55,-197.47 166.12,-188.73"/>
<polygon fill="black" stroke="black" points="168.4,-191.39 173.04,-181.87 163.48,-186.42 168.4,-191.39"/>
<text xml:space="preserve" text-anchor="middle" x="175.59" y="-203.2" font-family="Times New Roman,serif" font-size="14.00">index</text>
</g>
<!-- j&#45;&gt;answer -->
<g id="edge12" class="edge">
<title>j&#45;&gt;answer</title>
<path fill="none" stroke="black" d="M274.77,-237.83C281.77,-231.61 289.88,-223.98 296.59,-216.5 303.63,-208.65 310.67,-199.55 316.74,-191.2"/>
<polygon fill="black" stroke="black" points="319.56,-193.27 322.49,-183.09 313.85,-189.22 319.56,-193.27"/>
<text xml:space="preserve" text-anchor="middle" x="325" y="-203.2" font-family="Times New Roman,serif" font-size="14.00">index</text>
</g>
<!-- k -->
<g id="node10" class="node">
<title>k</title>
<ellipse fill="lightblue" stroke="black" cx="355.59" cy="-252.5" rx="27" ry="18"/>
<text xml:space="preserve" text-anchor="middle" x="355.59" y="-247.45" font-family="Times New Roman,serif" font-size="14.00">k</text>
</g>
<!-- k&#45;&gt;keys -->
<g id="edge9" class="edge">
<title>k&#45;&gt;keys</title>
<path fill="none" stroke="black" d="M331.03,-244.34C319.94,-241.18 306.64,-237.52 294.59,-234.5 258.81,-225.55 240.94,-241.24 213.59,-216.5 206.96,-210.51 202.91,-201.88 200.44,-193.4"/>
<polygon fill="black" stroke="black" points="203.86,-192.67 198.28,-183.66 197.03,-194.18 203.86,-192.67"/>
<text xml:space="preserve" text-anchor="middle" x="228.59" y="-203.2" font-family="Times New Roman,serif" font-size="14.00">index</text>
</g>
<!-- k&#45;&gt;answer -->
<g id="edge13" class="edge">
<title>k&#45;&gt;answer</title>
<path fill="none" stroke="black" d="M354.81,-234.1C354.05,-224.01 352.55,-211.13 349.59,-200 348.94,-197.56 348.15,-195.07 347.27,-192.6"/>
<polygon fill="black" stroke="black" points="350.6,-191.49 343.64,-183.5 344.1,-194.09 350.6,-191.49"/>
<text xml:space="preserve" text-anchor="middle" x="367.71" y="-203.2" font-family="Times New Roman,serif" font-size="14.00">index</text>
</g>
<!-- l -->
<g id="node11" class="node">
<title>l</title>
<ellipse fill="lightblue" stroke="black" cx="440.59" cy="-252.5" rx="27" ry="18"/>
<text xml:space="preserve" text-anchor="middle" x="440.59" y="-247.45" font-family="Times New Roman,serif" font-size="14.00">l</text>
</g>
<!-- l&#45;&gt;keys -->
<g id="edge10" class="edge">
<title>l&#45;&gt;keys</title>
<path fill="none" stroke="black" d="M429.07,-236.21C419.19,-224.28 403.84,-208.37 386.59,-200 335.7,-175.3 316.02,-193.28 260.59,-182 256.58,-181.18 252.45,-180.27 248.3,-179.29"/>
<polygon fill="black" stroke="black" points="249.41,-175.96 238.86,-176.97 247.73,-182.75 249.41,-175.96"/>
<text xml:space="preserve" text-anchor="middle" x="424.91" y="-203.2" font-family="Times New Roman,serif" font-size="14.00">index</text>
</g>
<!-- l&#45;&gt;answer -->
<g id="edge14" class="edge">
<title>l&#45;&gt;answer</title>
<path fill="none" stroke="black" d="M451.86,-235.78C458.2,-224.85 463.42,-210.42 455.59,-200 444.27,-184.95 426.88,-176.06 408.77,-170.9"/>
<polygon fill="black" stroke="black" points="409.78,-167.54 399.24,-168.56 408.12,-174.34 409.78,-167.54"/>
<text xml:space="preserve" text-anchor="middle" x="474.53" y="-203.2" font-family="Times New Roman,serif" font-size="14.00">index</text>
</g>
</g>
</svg>
