<?xml version="1.0" encoding="UTF-8" standalone="no"?>
<!DOCTYPE svg PUBLIC "-//W3C//DTD SVG 1.1//EN"
 "http://www.w3.org/Graphics/SVG/1.1/DTD/svg11.dtd">
<!-- Generated by graphviz version 13.1.2 (20250808.2320)
 -->
<!-- Title: main_CFG Pages: 1 -->
<svg width="114pt" height="258pt"
 viewBox="0.00 0.00 114.00 258.00" xmlns="http://www.w3.org/2000/svg" xmlns:xlink="http://www.w3.org/1999/xlink">
<g id="graph0" class="graph" transform="scale(1 1) rotate(0) translate(4 254.14)">
<title>main_CFG</title>
<polygon fill="white" stroke="none" points="-4,4 -4,-254.14 110.14,-254.14 110.14,4 -4,4"/>
<!-- START -->
<g id="node1" class="node">
<title>START</title>
<path fill="none" stroke="black" d="M80.19,-250.14C80.19,-250.14 25.94,-250.14 25.94,-250.14 19.94,-250.14 13.94,-244.14 13.94,-238.14 13.94,-238.14 13.94,-226.14 13.94,-226.14 13.94,-220.14 19.94,-214.14 25.94,-214.14 25.94,-214.14 80.19,-214.14 80.19,-214.14 86.19,-214.14 92.19,-220.14 92.19,-226.14 92.19,-226.14 92.19,-238.14 92.19,-238.14 92.19,-244.14 86.19,-250.14 80.19,-250.14"/>
<text xml:space="preserve" text-anchor="middle" x="53.07" y="-226.71" font-family="Helvetica,sans-Serif" font-size="14.00">Start main</text>
</g>
<!-- B1 -->
<g id="node2" class="node">
<title>B1</title>
<path fill="none" stroke="black" d="M76.07,-178.14C76.07,-178.14 30.07,-178.14 30.07,-178.14 24.07,-178.14 18.07,-172.14 18.07,-166.14 18.07,-166.14 18.07,-154.14 18.07,-154.14 18.07,-148.14 24.07,-142.14 30.07,-142.14 30.07,-142.14 76.07,-142.14 76.07,-142.14 82.07,-142.14 88.07,-148.14 88.07,-154.14 88.07,-154.14 88.07,-166.14 88.07,-166.14 88.07,-172.14 82.07,-178.14 76.07,-178.14"/>
<text xml:space="preserve" text-anchor="middle" x="53.07" y="-154.71" font-family="Helvetica,sans-Serif" font-size="14.00">foo(400);</text>
</g>
<!-- START&#45;&gt;B1 -->
<g id="edge1" class="edge">
<title>START&#45;&gt;B1</title>
<path fill="none" stroke="black" d="M53.07,-213.83C53.07,-206.54 53.07,-197.86 53.07,-189.67"/>
<polygon fill="black" stroke="black" points="56.57,-189.75 53.07,-179.75 49.57,-189.75 56.57,-189.75"/>
</g>
<!-- END -->
<g id="node3" class="node">
<title>END</title>
<ellipse fill="none" stroke="black" cx="53.07" cy="-53.07" rx="49.07" ry="49.07"/>
<ellipse fill="none" stroke="black" cx="53.07" cy="-53.07" rx="53.07" ry="53.07"/>
<text xml:space="preserve" text-anchor="middle" x="53.07" y="-47.64" font-family="Helvetica,sans-Serif" font-size="14.00">End main</text>
</g>
<!-- B1&#45;&gt;END -->
<g id="edge2" class="edge">
<title>B1&#45;&gt;END</title>
<path fill="none" stroke="black" d="M53.07,-141.79C53.07,-134.9 53.07,-126.52 53.07,-117.71"/>
<polygon fill="black" stroke="black" points="56.57,-117.9 53.07,-107.9 49.57,-117.9 56.57,-117.9"/>
</g>
</g>
</svg>
