<?xml version="1.0" encoding="UTF-8" standalone="no"?>
<!DOCTYPE svg PUBLIC "-//W3C//DTD SVG 1.1//EN"
 "http://www.w3.org/Graphics/SVG/1.1/DTD/svg11.dtd">
<!-- Generated by graphviz version 13.1.2 (20250808.2320)
 -->
<!-- Title: main_DFG Pages: 1 -->
<svg width="144pt" height="188pt"
 viewBox="0.00 0.00 144.00 188.00" xmlns="http://www.w3.org/2000/svg" xmlns:xlink="http://www.w3.org/1999/xlink">
<g id="graph0" class="graph" transform="scale(1 1) rotate(0) translate(4 184)">
<title>main_DFG</title>
<polygon fill="white" stroke="none" points="-4,4 -4,-184 140.48,-184 140.48,4 -4,4"/>
<!-- x -->
<g id="node1" class="node">
<title>x</title>
<ellipse fill="lightblue" stroke="black" cx="68.24" cy="-162" rx="54.93" ry="18"/>
<text xml:space="preserve" text-anchor="middle" x="68.24" y="-156.95" font-family="Times New Roman,serif" font-size="14.00">400 (literal)</text>
</g>
<!-- call_foo -->
<g id="node2" class="node">
<title>call_foo</title>
<polygon fill="none" stroke="black" points="95.24,-108 41.24,-108 41.24,-72 95.24,-72 95.24,-108"/>
<text xml:space="preserve" text-anchor="middle" x="68.24" y="-84.95" font-family="Times New Roman,serif" font-size="14.00">foo()</text>
</g>
<!-- x&#45;&gt;call_foo -->
<g id="edge1" class="edge">
<title>x&#45;&gt;call_foo</title>
<path fill="none" stroke="black" d="M68.24,-143.7C68.24,-136.41 68.24,-127.73 68.24,-119.54"/>
<polygon fill="black" stroke="black" points="71.74,-119.62 68.24,-109.62 64.74,-119.62 71.74,-119.62"/>
</g>
<!-- result -->
<g id="node3" class="node">
<title>result</title>
<ellipse fill="lightgreen" stroke="black" cx="68.24" cy="-18" rx="68.24" ry="18"/>
<text xml:space="preserve" text-anchor="middle" x="68.24" y="-12.95" font-family="Times New Roman,serif" font-size="14.00">result (ignored)</text>
</g>
<!-- call_foo&#45;&gt;result -->
<g id="edge2" class="edge">
<title>call_foo&#45;&gt;result</title>
<path fill="none" stroke="black" stroke-dasharray="5,2" d="M68.24,-71.7C68.24,-64.41 68.24,-55.73 68.24,-47.54"/>
<polygon fill="black" stroke="black" points="71.74,-47.62 68.24,-37.62 64.74,-47.62 71.74,-47.62"/>
</g>
</g>
</svg>
