<?xml version="1.0" encoding="UTF-8" standalone="no"?>
<!DOCTYPE svg PUBLIC "-//W3C//DTD SVG 1.1//EN"
 "http://www.w3.org/Graphics/SVG/1.1/DTD/svg11.dtd">
<!-- Generated by graphviz version 13.1.2 (20250808.2320)
 -->
<!-- Title: compress_CFG Pages: 1 -->
<svg width="770pt" height="1590pt"
 viewBox="0.00 0.00 770.00 1590.00" xmlns="http://www.w3.org/2000/svg" xmlns:xlink="http://www.w3.org/1999/xlink">
<g id="graph0" class="graph" transform="scale(1 1) rotate(0) translate(4 1586)">
<title>compress_CFG</title>
<polygon fill="white" stroke="none" points="-4,4 -4,-1586 765.5,-1586 765.5,4 -4,4"/>
<!-- N1 -->
<g id="node1" class="node">
<title>N1</title>
<polygon fill="none" stroke="black" points="684.88,-1582 500.12,-1582 500.12,-1546 684.88,-1546 684.88,-1582"/>
<text xml:space="preserve" text-anchor="middle" x="592.5" y="-1558.95" font-family="Times New Roman,serif" font-size="14.00">1: offset = 0; bytes_out = 3; ...</text>
</g>
<!-- N2 -->
<g id="node2" class="node">
<title>N2</title>
<polygon fill="none" stroke="black" points="650,-1509 535,-1509 535,-1473 650,-1473 650,-1509"/>
<text xml:space="preserve" text-anchor="middle" x="592.5" y="-1485.95" font-family="Times New Roman,serif" font-size="14.00">2: ent = getbyte();</text>
</g>
<!-- N1&#45;&gt;N2 -->
<g id="edge1" class="edge">
<title>N1&#45;&gt;N2</title>
<path fill="none" stroke="black" d="M592.5,-1545.81C592.5,-1538.23 592.5,-1529.1 592.5,-1520.54"/>
<polygon fill="black" stroke="black" points="596,-1520.54 592.5,-1510.54 589,-1520.54 596,-1520.54"/>
</g>
<!-- N3 -->
<g id="node3" class="node">
<title>N3</title>
<polygon fill="none" stroke="black" points="682.62,-1436 502.38,-1436 502.38,-1400 682.62,-1400 682.62,-1436"/>
<text xml:space="preserve" text-anchor="middle" x="592.5" y="-1412.95" font-family="Times New Roman,serif" font-size="14.00">3: hshift = 0; for (fcode = ...);</text>
</g>
<!-- N2&#45;&gt;N3 -->
<g id="edge2" class="edge">
<title>N2&#45;&gt;N3</title>
<path fill="none" stroke="black" d="M592.5,-1472.81C592.5,-1465.23 592.5,-1456.1 592.5,-1447.54"/>
<polygon fill="black" stroke="black" points="596,-1447.54 592.5,-1437.54 589,-1447.54 596,-1447.54"/>
</g>
<!-- N4 -->
<g id="node4" class="node">
<title>N4</title>
<polygon fill="none" stroke="black" points="657.5,-1363 527.5,-1363 527.5,-1327 657.5,-1327 657.5,-1363"/>
<text xml:space="preserve" text-anchor="middle" x="592.5" y="-1339.95" font-family="Times New Roman,serif" font-size="14.00">4: hshift = 8 &#45; hshift;</text>
</g>
<!-- N3&#45;&gt;N4 -->
<g id="edge3" class="edge">
<title>N3&#45;&gt;N4</title>
<path fill="none" stroke="black" d="M592.5,-1399.81C592.5,-1392.23 592.5,-1383.1 592.5,-1374.54"/>
<polygon fill="black" stroke="black" points="596,-1374.54 592.5,-1364.54 589,-1374.54 596,-1374.54"/>
</g>
<!-- N5 -->
<g id="node5" class="node">
<title>N5</title>
<polygon fill="none" stroke="black" points="660.5,-1290 524.5,-1290 524.5,-1254 660.5,-1254 660.5,-1290"/>
<text xml:space="preserve" text-anchor="middle" x="592.5" y="-1266.95" font-family="Times New Roman,serif" font-size="14.00">5: cl_hash(hsize_reg);</text>
</g>
<!-- N4&#45;&gt;N5 -->
<g id="edge4" class="edge">
<title>N4&#45;&gt;N5</title>
<path fill="none" stroke="black" d="M592.5,-1326.81C592.5,-1319.23 592.5,-1310.1 592.5,-1301.54"/>
<polygon fill="black" stroke="black" points="596,-1301.54 592.5,-1291.54 589,-1301.54 596,-1301.54"/>
</g>
<!-- N6 -->
<g id="node6" class="node">
<title>N6</title>
<polygon fill="none" stroke="black" points="655.62,-1217 529.38,-1217 529.38,-1181 655.62,-1181 655.62,-1217"/>
<text xml:space="preserve" text-anchor="middle" x="592.5" y="-1193.95" font-family="Times New Roman,serif" font-size="14.00">6: while (InCnt &gt; 0)</text>
</g>
<!-- N5&#45;&gt;N6 -->
<g id="edge5" class="edge">
<title>N5&#45;&gt;N6</title>
<path fill="none" stroke="black" d="M592.5,-1253.81C592.5,-1246.23 592.5,-1237.1 592.5,-1228.54"/>
<polygon fill="black" stroke="black" points="596,-1228.54 592.5,-1218.54 589,-1228.54 596,-1228.54"/>
</g>
<!-- N7 -->
<g id="node7" class="node">
<title>N7</title>
<polygon fill="none" stroke="black" points="373.38,-1128.5 197.62,-1128.5 197.62,-1092.5 373.38,-1092.5 373.38,-1128.5"/>
<text xml:space="preserve" text-anchor="middle" x="285.5" y="-1105.45" font-family="Times New Roman,serif" font-size="14.00">7: c = getbyte(); in_count++;</text>
</g>
<!-- N6&#45;&gt;N7 -->
<g id="edge6" class="edge">
<title>N6&#45;&gt;N7</title>
<path fill="none" stroke="black" d="M530.74,-1180.6C480.97,-1166.57 410.86,-1146.82 358.35,-1132.03"/>
<polygon fill="black" stroke="black" points="359.45,-1128.7 348.88,-1129.36 357.55,-1135.44 359.45,-1128.7"/>
<text xml:space="preserve" text-anchor="middle" x="477" y="-1149.7" font-family="Times New Roman,serif" font-size="14.00">true</text>
</g>
<!-- N26 -->
<g id="node26" class="node">
<title>N26</title>
<polygon fill="none" stroke="black" points="641.12,-1128.5 391.88,-1128.5 391.88,-1092.5 641.12,-1092.5 641.12,-1128.5"/>
<text xml:space="preserve" text-anchor="middle" x="516.5" y="-1105.45" font-family="Times New Roman,serif" font-size="14.00">26: if (bytes_out &gt; in_count) exit_stat = 2;</text>
</g>
<!-- N6&#45;&gt;N26 -->
<g id="edge7" class="edge">
<title>N6&#45;&gt;N26</title>
<path fill="none" stroke="black" d="M577.48,-1180.91C566.52,-1168.43 551.47,-1151.3 539.07,-1137.18"/>
<polygon fill="black" stroke="black" points="541.97,-1135.19 532.74,-1129.99 536.71,-1139.81 541.97,-1135.19"/>
<text xml:space="preserve" text-anchor="middle" x="574.06" y="-1149.7" font-family="Times New Roman,serif" font-size="14.00">false</text>
</g>
<!-- N8 -->
<g id="node8" class="node">
<title>N8</title>
<polygon fill="none" stroke="black" points="350.12,-1055.5 220.88,-1055.5 220.88,-1019.5 350.12,-1019.5 350.12,-1055.5"/>
<text xml:space="preserve" text-anchor="middle" x="285.5" y="-1032.45" font-family="Times New Roman,serif" font-size="14.00">8: fcode = ...; i = ...;</text>
</g>
<!-- N7&#45;&gt;N8 -->
<g id="edge8" class="edge">
<title>N7&#45;&gt;N8</title>
<path fill="none" stroke="black" d="M285.5,-1092.31C285.5,-1084.73 285.5,-1075.6 285.5,-1067.04"/>
<polygon fill="black" stroke="black" points="289,-1067.04 285.5,-1057.04 282,-1067.04 289,-1067.04"/>
</g>
<!-- N9 -->
<g id="node9" class="node">
<title>N9</title>
<polygon fill="none" stroke="black" points="361.75,-982.5 209.25,-982.5 209.25,-946.5 361.75,-946.5 361.75,-982.5"/>
<text xml:space="preserve" text-anchor="middle" x="285.5" y="-959.45" font-family="Times New Roman,serif" font-size="14.00">9: if (htabof(i) == fcode)</text>
</g>
<!-- N8&#45;&gt;N9 -->
<g id="edge9" class="edge">
<title>N8&#45;&gt;N9</title>
<path fill="none" stroke="black" d="M285.5,-1019.31C285.5,-1011.73 285.5,-1002.6 285.5,-994.04"/>
<polygon fill="black" stroke="black" points="289,-994.04 285.5,-984.04 282,-994.04 289,-994.04"/>
</g>
<!-- N10 -->
<g id="node10" class="node">
<title>N10</title>
<polygon fill="none" stroke="black" points="193,-894 0,-894 0,-858 193,-858 193,-894"/>
<text xml:space="preserve" text-anchor="middle" x="96.5" y="-870.95" font-family="Times New Roman,serif" font-size="14.00">10: ent = codetabof(i); continue;</text>
</g>
<!-- N9&#45;&gt;N10 -->
<g id="edge10" class="edge">
<title>N9&#45;&gt;N10</title>
<path fill="none" stroke="black" d="M247.71,-946.2C218.19,-932.69 176.95,-913.82 145,-899.2"/>
<polygon fill="black" stroke="black" points="146.48,-896.02 135.93,-895.04 143.56,-902.39 146.48,-896.02"/>
<text xml:space="preserve" text-anchor="middle" x="218.43" y="-915.2" font-family="Times New Roman,serif" font-size="14.00">true</text>
</g>
<!-- N11 -->
<g id="node11" class="node">
<title>N11</title>
<polygon fill="none" stroke="black" points="363.75,-894 211.25,-894 211.25,-858 363.75,-858 363.75,-894"/>
<text xml:space="preserve" text-anchor="middle" x="287.5" y="-870.95" font-family="Times New Roman,serif" font-size="14.00">11: else if (htabof(i) &lt; 0)</text>
</g>
<!-- N9&#45;&gt;N11 -->
<g id="edge11" class="edge">
<title>N9&#45;&gt;N11</title>
<path fill="none" stroke="black" d="M285.9,-946.41C286.16,-934.76 286.53,-919.05 286.84,-905.52"/>
<polygon fill="black" stroke="black" points="290.33,-905.94 287.06,-895.86 283.33,-905.78 290.33,-905.94"/>
<text xml:space="preserve" text-anchor="middle" x="299.43" y="-915.2" font-family="Times New Roman,serif" font-size="14.00">false</text>
</g>
<!-- N12 -->
<g id="node12" class="node">
<title>N12</title>
<polygon fill="none" stroke="black" points="149.38,-751.5 33.62,-751.5 33.62,-715.5 149.38,-715.5 149.38,-751.5"/>
<text xml:space="preserve" text-anchor="middle" x="91.5" y="-728.45" font-family="Times New Roman,serif" font-size="14.00">12: goto nomatch;</text>
</g>
<!-- N11&#45;&gt;N12 -->
<g id="edge12" class="edge">
<title>N11&#45;&gt;N12</title>
<path fill="none" stroke="black" d="M263.47,-857.77C228.64,-832.81 164.02,-786.49 124.68,-758.28"/>
<polygon fill="black" stroke="black" points="127.13,-755.73 116.96,-752.75 123.05,-761.42 127.13,-755.73"/>
<text xml:space="preserve" text-anchor="middle" x="248.43" y="-826.7" font-family="Times New Roman,serif" font-size="14.00">true</text>
</g>
<!-- N13 -->
<g id="node13" class="node">
<title>N13</title>
<polygon fill="none" stroke="black" points="368.75,-805.5 222.25,-805.5 222.25,-769.5 368.75,-769.5 368.75,-805.5"/>
<text xml:space="preserve" text-anchor="middle" x="295.5" y="-782.45" font-family="Times New Roman,serif" font-size="14.00">13: disp = hsize_reg &#45; i;</text>
</g>
<!-- N11&#45;&gt;N13 -->
<g id="edge13" class="edge">
<title>N11&#45;&gt;N13</title>
<path fill="none" stroke="black" d="M289.08,-857.91C290.16,-846.26 291.61,-830.55 292.86,-817.02"/>
<polygon fill="black" stroke="black" points="296.32,-817.64 293.76,-807.36 289.35,-816.99 296.32,-817.64"/>
<text xml:space="preserve" text-anchor="middle" x="304.97" y="-826.7" font-family="Times New Roman,serif" font-size="14.00">false</text>
</g>
<!-- N21 -->
<g id="node21" class="node">
<title>N21</title>
<polygon fill="none" stroke="black" points="435.38,-286 223.62,-286 223.62,-250 435.38,-250 435.38,-286"/>
<text xml:space="preserve" text-anchor="middle" x="329.5" y="-262.95" font-family="Times New Roman,serif" font-size="14.00">21: nomatch: out_count++; ent = c;</text>
</g>
<!-- N12&#45;&gt;N21 -->
<g id="edge14" class="edge">
<title>N12&#45;&gt;N21</title>
<path fill="none" stroke="black" d="M90.92,-715.11C90.33,-695.84 89.5,-663.83 89.5,-636.25 89.5,-636.25 89.5,-636.25 89.5,-355.5 89.5,-325.77 155.49,-303.44 218.26,-288.92"/>
<polygon fill="black" stroke="black" points="218.65,-292.42 227.63,-286.81 217.11,-285.59 218.65,-292.42"/>
</g>
<!-- N14 -->
<g id="node14" class="node">
<title>N14</title>
<polygon fill="none" stroke="black" points="436,-697.5 291,-697.5 291,-661.5 436,-661.5 436,-697.5"/>
<text xml:space="preserve" text-anchor="middle" x="363.5" y="-674.45" font-family="Times New Roman,serif" font-size="14.00">14: if (i == 0) disp = 1;</text>
</g>
<!-- N13&#45;&gt;N14 -->
<g id="edge15" class="edge">
<title>N13&#45;&gt;N14</title>
<path fill="none" stroke="black" d="M306.43,-769.47C317.17,-752.72 333.73,-726.91 346.25,-707.39"/>
<polygon fill="black" stroke="black" points="349.1,-709.42 351.56,-699.11 343.21,-705.64 349.1,-709.42"/>
</g>
<!-- N15 -->
<g id="node15" class="node">
<title>N15</title>
<polygon fill="none" stroke="black" points="435.25,-609 309.75,-609 309.75,-573 435.25,-573 435.25,-609"/>
<text xml:space="preserve" text-anchor="middle" x="372.5" y="-585.95" font-family="Times New Roman,serif" font-size="14.00">15: probe: i &#45;= disp;</text>
</g>
<!-- N14&#45;&gt;N15 -->
<g id="edge16" class="edge">
<title>N14&#45;&gt;N15</title>
<path fill="none" stroke="black" d="M365.28,-661.41C366.49,-649.76 368.13,-634.05 369.53,-620.52"/>
<polygon fill="black" stroke="black" points="372.98,-621.16 370.54,-610.86 366.02,-620.44 372.98,-621.16"/>
</g>
<!-- N16 -->
<g id="node16" class="node">
<title>N16</title>
<polygon fill="none" stroke="black" points="458.12,-536 286.88,-536 286.88,-500 458.12,-500 458.12,-536"/>
<text xml:space="preserve" text-anchor="middle" x="372.5" y="-512.95" font-family="Times New Roman,serif" font-size="14.00">16: if (i &lt; 0) i += hsize_reg;</text>
</g>
<!-- N15&#45;&gt;N16 -->
<g id="edge17" class="edge">
<title>N15&#45;&gt;N16</title>
<path fill="none" stroke="black" d="M372.5,-572.81C372.5,-565.23 372.5,-556.1 372.5,-547.54"/>
<polygon fill="black" stroke="black" points="376,-547.54 372.5,-537.54 369,-547.54 376,-547.54"/>
</g>
<!-- N17 -->
<g id="node17" class="node">
<title>N17</title>
<polygon fill="none" stroke="black" points="452.12,-463 292.88,-463 292.88,-427 452.12,-427 452.12,-463"/>
<text xml:space="preserve" text-anchor="middle" x="372.5" y="-439.95" font-family="Times New Roman,serif" font-size="14.00">17: if (htabof(i) == fcode)</text>
</g>
<!-- N16&#45;&gt;N17 -->
<g id="edge18" class="edge">
<title>N16&#45;&gt;N17</title>
<path fill="none" stroke="black" d="M372.5,-499.81C372.5,-492.23 372.5,-483.1 372.5,-474.54"/>
<polygon fill="black" stroke="black" points="376,-474.54 372.5,-464.54 369,-474.54 376,-474.54"/>
</g>
<!-- N18 -->
<g id="node18" class="node">
<title>N18</title>
<polygon fill="none" stroke="black" points="311,-374.5 118,-374.5 118,-338.5 311,-338.5 311,-374.5"/>
<text xml:space="preserve" text-anchor="middle" x="214.5" y="-351.45" font-family="Times New Roman,serif" font-size="14.00">18: ent = codetabof(i); continue;</text>
</g>
<!-- N17&#45;&gt;N18 -->
<g id="edge19" class="edge">
<title>N17&#45;&gt;N18</title>
<path fill="none" stroke="black" d="M340.91,-426.7C316.55,-413.37 282.66,-394.81 256.09,-380.27"/>
<polygon fill="black" stroke="black" points="258.09,-377.37 247.64,-375.64 254.73,-383.51 258.09,-377.37"/>
<text xml:space="preserve" text-anchor="middle" x="318.15" y="-395.7" font-family="Times New Roman,serif" font-size="14.00">true</text>
</g>
<!-- N19 -->
<g id="node19" class="node">
<title>N19</title>
<polygon fill="none" stroke="black" points="600,-374.5 329,-374.5 329,-338.5 600,-338.5 600,-374.5"/>
<text xml:space="preserve" text-anchor="middle" x="464.5" y="-351.45" font-family="Times New Roman,serif" font-size="14.00">19: if (htabof(i) &gt; 0 &amp;&amp; bound++ &lt; in_count)</text>
</g>
<!-- N17&#45;&gt;N19 -->
<g id="edge20" class="edge">
<title>N17&#45;&gt;N19</title>
<path fill="none" stroke="black" d="M390.68,-426.91C404.2,-414.2 422.85,-396.66 438.03,-382.39"/>
<polygon fill="black" stroke="black" points="440.06,-385.29 444.94,-375.89 435.26,-380.19 440.06,-385.29"/>
<text xml:space="preserve" text-anchor="middle" x="439.49" y="-395.7" font-family="Times New Roman,serif" font-size="14.00">false</text>
</g>
<!-- N20 -->
<g id="node20" class="node">
<title>N20</title>
<polygon fill="none" stroke="black" points="605.12,-286 505.88,-286 505.88,-250 605.12,-250 605.12,-286"/>
<text xml:space="preserve" text-anchor="middle" x="555.5" y="-262.95" font-family="Times New Roman,serif" font-size="14.00">20: goto probe;</text>
</g>
<!-- N19&#45;&gt;N20 -->
<g id="edge21" class="edge">
<title>N19&#45;&gt;N20</title>
<path fill="none" stroke="black" d="M482.48,-338.41C495.85,-325.7 514.31,-308.16 529.32,-293.89"/>
<polygon fill="black" stroke="black" points="531.31,-296.82 536.15,-287.39 526.49,-291.75 531.31,-296.82"/>
<text xml:space="preserve" text-anchor="middle" x="528.65" y="-307.2" font-family="Times New Roman,serif" font-size="14.00">true</text>
</g>
<!-- N19&#45;&gt;N21 -->
<g id="edge22" class="edge">
<title>N19&#45;&gt;N21</title>
<path fill="none" stroke="black" d="M437.51,-338.2C416.99,-325.06 388.57,-306.85 366.02,-292.4"/>
<polygon fill="black" stroke="black" points="368.03,-289.53 357.72,-287.08 364.25,-295.43 368.03,-289.53"/>
<text xml:space="preserve" text-anchor="middle" x="421.84" y="-307.2" font-family="Times New Roman,serif" font-size="14.00">false</text>
</g>
<!-- N20&#45;&gt;N15 -->
<g id="edge23" class="edge">
<title>N20&#45;&gt;N15</title>
<path fill="none" stroke="black" d="M583.1,-286.36C603.77,-301.72 628.5,-326.22 628.5,-355.5 628.5,-519 628.5,-519 628.5,-519 628.5,-557 522.42,-575.5 446.83,-583.86"/>
<polygon fill="black" stroke="black" points="446.53,-580.37 436.96,-584.9 447.27,-587.33 446.53,-580.37"/>
</g>
<!-- N22 -->
<g id="node22" class="node">
<title>N22</title>
<polygon fill="none" stroke="black" points="425.25,-213 233.75,-213 233.75,-177 425.25,-177 425.25,-213"/>
<text xml:space="preserve" text-anchor="middle" x="329.5" y="-189.95" font-family="Times New Roman,serif" font-size="14.00">22: if (free_ent &lt; maxmaxcode)</text>
</g>
<!-- N21&#45;&gt;N22 -->
<g id="edge24" class="edge">
<title>N21&#45;&gt;N22</title>
<path fill="none" stroke="black" d="M329.5,-249.81C329.5,-242.23 329.5,-233.1 329.5,-224.54"/>
<polygon fill="black" stroke="black" points="333,-224.54 329.5,-214.54 326,-224.54 333,-224.54"/>
</g>
<!-- N23 -->
<g id="node23" class="node">
<title>N23</title>
<polygon fill="none" stroke="black" points="383.38,-124.5 99.62,-124.5 99.62,-88.5 383.38,-88.5 383.38,-124.5"/>
<text xml:space="preserve" text-anchor="middle" x="241.5" y="-101.45" font-family="Times New Roman,serif" font-size="14.00">23: codetabof(i) = free_ent++; htabof(i) = fcode;</text>
</g>
<!-- N22&#45;&gt;N23 -->
<g id="edge25" class="edge">
<title>N22&#45;&gt;N23</title>
<path fill="none" stroke="black" d="M312.11,-176.91C299.3,-164.32 281.67,-146.98 267.22,-132.79"/>
<polygon fill="black" stroke="black" points="269.82,-130.43 260.23,-125.91 264.91,-135.42 269.82,-130.43"/>
<text xml:space="preserve" text-anchor="middle" x="303.88" y="-145.7" font-family="Times New Roman,serif" font-size="14.00">true</text>
</g>
<!-- N24 -->
<g id="node24" class="node">
<title>N24</title>
<polygon fill="none" stroke="black" points="733.38,-124.5 401.62,-124.5 401.62,-88.5 733.38,-88.5 733.38,-124.5"/>
<text xml:space="preserve" text-anchor="middle" x="567.5" y="-101.45" font-family="Times New Roman,serif" font-size="14.00">24: else if (in_count &gt;= checkpoint &amp;&amp; block_compress)</text>
</g>
<!-- N22&#45;&gt;N24 -->
<g id="edge26" class="edge">
<title>N22&#45;&gt;N24</title>
<path fill="none" stroke="black" d="M377.38,-176.6C415.3,-162.82 468.45,-143.5 508.91,-128.79"/>
<polygon fill="black" stroke="black" points="510.07,-132.1 518.28,-125.39 507.68,-125.52 510.07,-132.1"/>
<text xml:space="preserve" text-anchor="middle" x="482.57" y="-145.7" font-family="Times New Roman,serif" font-size="14.00">false</text>
</g>
<!-- N24&#45;&gt;N6 -->
<g id="edge28" class="edge">
<title>N24&#45;&gt;N6</title>
<path fill="none" stroke="black" d="M611.94,-124.96C639.43,-139 669.5,-161.73 669.5,-194 669.5,-1111.5 669.5,-1111.5 669.5,-1111.5 669.5,-1137.19 650.32,-1158.78 631.11,-1173.97"/>
<polygon fill="black" stroke="black" points="629.21,-1171.02 623.27,-1179.79 633.38,-1176.64 629.21,-1171.02"/>
<text xml:space="preserve" text-anchor="middle" x="682.25" y="-630.2" font-family="Times New Roman,serif" font-size="14.00">false</text>
</g>
<!-- N25 -->
<g id="node25" class="node">
<title>N25</title>
<polygon fill="none" stroke="black" points="712.62,-36 616.38,-36 616.38,0 712.62,0 712.62,-36"/>
<text xml:space="preserve" text-anchor="middle" x="664.5" y="-12.95" font-family="Times New Roman,serif" font-size="14.00">25: cl_block();</text>
</g>
<!-- N24&#45;&gt;N25 -->
<g id="edge27" class="edge">
<title>N24&#45;&gt;N25</title>
<path fill="none" stroke="black" d="M586.66,-88.41C600.92,-75.7 620.59,-58.16 636.59,-43.89"/>
<polygon fill="black" stroke="black" points="638.78,-46.63 643.91,-37.36 634.12,-41.4 638.78,-46.63"/>
<text xml:space="preserve" text-anchor="middle" x="635.19" y="-57.2" font-family="Times New Roman,serif" font-size="14.00">true</text>
</g>
<!-- N25&#45;&gt;N6 -->
<g id="edge29" class="edge">
<title>N25&#45;&gt;N6</title>
<path fill="none" stroke="black" d="M705.64,-36.42C732.07,-50.68 761.5,-73.69 761.5,-105.5 761.5,-1111.5 761.5,-1111.5 761.5,-1111.5 761.5,-1157.02 712.31,-1178.6 667.01,-1188.82"/>
<polygon fill="black" stroke="black" points="666.47,-1185.36 657.39,-1190.82 667.89,-1192.22 666.47,-1185.36"/>
</g>
<!-- N27 -->
<g id="node27" class="node">
<title>N27</title>
<polygon fill="none" stroke="black" points="553,-1055.5 480,-1055.5 480,-1019.5 553,-1019.5 553,-1055.5"/>
<text xml:space="preserve" text-anchor="middle" x="516.5" y="-1032.45" font-family="Times New Roman,serif" font-size="14.00">27: return;</text>
</g>
<!-- N26&#45;&gt;N27 -->
<g id="edge30" class="edge">
<title>N26&#45;&gt;N27</title>
<path fill="none" stroke="black" d="M516.5,-1092.31C516.5,-1084.73 516.5,-1075.6 516.5,-1067.04"/>
<polygon fill="black" stroke="black" points="520,-1067.04 516.5,-1057.04 513,-1067.04 520,-1067.04"/>
</g>
</g>
</svg>
