<?xml version="1.0" encoding="UTF-8" standalone="no"?>
<!DOCTYPE svg PUBLIC "-//W3C//DTD SVG 1.1//EN"
 "http://www.w3.org/Graphics/SVG/1.1/DTD/svg11.dtd">
<!-- Generated by graphviz version 13.1.2 (20250808.2320)
 -->
<!-- Title: main_DFG Pages: 1 -->
<svg width="801pt" height="404pt"
 viewBox="0.00 0.00 801.00 404.00" xmlns="http://www.w3.org/2000/svg" xmlns:xlink="http://www.w3.org/1999/xlink">
<g id="graph0" class="graph" transform="scale(1 1) rotate(0) translate(4 400)">
<title>main_DFG</title>
<polygon fill="white" stroke="none" points="-4,4 -4,-400 796.78,-400 796.78,4 -4,4"/>
<!-- IN_COUNT_val -->
<g id="node1" class="node">
<title>IN_COUNT_val</title>
<ellipse fill="lightblue" stroke="black" cx="85.9" cy="-378" rx="56.98" ry="18"/>
<text xml:space="preserve" text-anchor="middle" x="85.9" y="-372.95" font-family="Times New Roman,serif" font-size="14.00">IN_COUNT</text>
</g>
<!-- op_assign_count -->
<g id="node5" class="node">
<title>op_assign_count</title>
<polygon fill="none" stroke="black" points="67.9,-324 13.9,-324 13.9,-288 67.9,-288 67.9,-324"/>
<text xml:space="preserve" text-anchor="middle" x="40.9" y="-300.95" font-family="Times New Roman,serif" font-size="14.00">=</text>
</g>
<!-- IN_COUNT_val&#45;&gt;op_assign_count -->
<g id="edge1" class="edge">
<title>IN_COUNT_val&#45;&gt;op_assign_count</title>
<path fill="none" stroke="black" d="M75.01,-360.05C69.94,-352.18 63.8,-342.62 58.13,-333.79"/>
<polygon fill="black" stroke="black" points="61.18,-332.07 52.83,-325.55 55.29,-335.85 61.18,-332.07"/>
</g>
<!-- op_assign_apsim_InCnt -->
<g id="node11" class="node">
<title>op_assign_apsim_InCnt</title>
<polygon fill="none" stroke="black" points="157.9,-324 103.9,-324 103.9,-288 157.9,-288 157.9,-324"/>
<text xml:space="preserve" text-anchor="middle" x="130.9" y="-300.95" font-family="Times New Roman,serif" font-size="14.00">=</text>
</g>
<!-- IN_COUNT_val&#45;&gt;op_assign_apsim_InCnt -->
<g id="edge10" class="edge">
<title>IN_COUNT_val&#45;&gt;op_assign_apsim_InCnt</title>
<path fill="none" stroke="black" d="M96.8,-360.05C101.86,-352.18 108.01,-342.62 113.68,-333.79"/>
<polygon fill="black" stroke="black" points="116.52,-335.85 118.98,-325.55 110.63,-332.07 116.52,-335.85"/>
</g>
<!-- BITS_val -->
<g id="node2" class="node">
<title>BITS_val</title>
<ellipse fill="lightblue" stroke="black" cx="257.9" cy="-378" rx="30.88" ry="18"/>
<text xml:space="preserve" text-anchor="middle" x="257.9" y="-372.95" font-family="Times New Roman,serif" font-size="14.00">BITS</text>
</g>
<!-- op_assign_maxbits -->
<g id="node7" class="node">
<title>op_assign_maxbits</title>
<polygon fill="none" stroke="black" points="284.9,-324 230.9,-324 230.9,-288 284.9,-288 284.9,-324"/>
<text xml:space="preserve" text-anchor="middle" x="257.9" y="-300.95" font-family="Times New Roman,serif" font-size="14.00">=</text>
</g>
<!-- BITS_val&#45;&gt;op_assign_maxbits -->
<g id="edge3" class="edge">
<title>BITS_val&#45;&gt;op_assign_maxbits</title>
<path fill="none" stroke="black" d="M257.9,-359.7C257.9,-352.41 257.9,-343.73 257.9,-335.54"/>
<polygon fill="black" stroke="black" points="261.4,-335.62 257.9,-325.62 254.4,-335.62 261.4,-335.62"/>
</g>
<!-- orig_text_buffer_val -->
<g id="node3" class="node">
<title>orig_text_buffer_val</title>
<ellipse fill="lightblue" stroke="black" cx="377.9" cy="-378" rx="71.31" ry="18"/>
<text xml:space="preserve" text-anchor="middle" x="377.9" y="-372.95" font-family="Times New Roman,serif" font-size="14.00">orig_text_buffer</text>
</g>
<!-- op_assign_InBuff -->
<g id="node12" class="node">
<title>op_assign_InBuff</title>
<polygon fill="none" stroke="black" points="404.9,-324 350.9,-324 350.9,-288 404.9,-288 404.9,-324"/>
<text xml:space="preserve" text-anchor="middle" x="377.9" y="-300.95" font-family="Times New Roman,serif" font-size="14.00">=</text>
</g>
<!-- orig_text_buffer_val&#45;&gt;op_assign_InBuff -->
<g id="edge12" class="edge">
<title>orig_text_buffer_val&#45;&gt;op_assign_InBuff</title>
<path fill="none" stroke="black" d="M377.9,-359.7C377.9,-352.41 377.9,-343.73 377.9,-335.54"/>
<polygon fill="black" stroke="black" points="381.4,-335.62 377.9,-325.62 374.4,-335.62 381.4,-335.62"/>
</g>
<!-- comp_text_buffer_val -->
<g id="node4" class="node">
<title>comp_text_buffer_val</title>
<ellipse fill="lightblue" stroke="black" cx="544.9" cy="-378" rx="77.45" ry="18"/>
<text xml:space="preserve" text-anchor="middle" x="544.9" y="-372.95" font-family="Times New Roman,serif" font-size="14.00">comp_text_buffer</text>
</g>
<!-- op_assign_OutBuff -->
<g id="node13" class="node">
<title>op_assign_OutBuff</title>
<polygon fill="none" stroke="black" points="571.9,-324 517.9,-324 517.9,-288 571.9,-288 571.9,-324"/>
<text xml:space="preserve" text-anchor="middle" x="544.9" y="-300.95" font-family="Times New Roman,serif" font-size="14.00">=</text>
</g>
<!-- comp_text_buffer_val&#45;&gt;op_assign_OutBuff -->
<g id="edge14" class="edge">
<title>comp_text_buffer_val&#45;&gt;op_assign_OutBuff</title>
<path fill="none" stroke="black" d="M544.9,-359.7C544.9,-352.41 544.9,-343.73 544.9,-335.54"/>
<polygon fill="black" stroke="black" points="548.4,-335.62 544.9,-325.62 541.4,-335.62 548.4,-335.62"/>
</g>
<!-- count_var -->
<g id="node16" class="node">
<title>count_var</title>
<ellipse fill="lightgreen" stroke="black" cx="31.9" cy="-234" rx="31.39" ry="18"/>
<text xml:space="preserve" text-anchor="middle" x="31.9" y="-228.95" font-family="Times New Roman,serif" font-size="14.00">count</text>
</g>
<!-- op_assign_count&#45;&gt;count_var -->
<g id="edge2" class="edge">
<title>op_assign_count&#45;&gt;count_var</title>
<path fill="none" stroke="black" d="M38.68,-287.7C37.73,-280.32 36.6,-271.52 35.53,-263.25"/>
<polygon fill="black" stroke="black" points="39.04,-263.08 34.29,-253.61 32.1,-263.97 39.04,-263.08"/>
</g>
<!-- op_call_initbuffer -->
<g id="node6" class="node">
<title>op_call_initbuffer</title>
<polygon fill="none" stroke="black" points="707.4,-396 640.4,-396 640.4,-360 707.4,-360 707.4,-396"/>
<text xml:space="preserve" text-anchor="middle" x="673.9" y="-372.95" font-family="Times New Roman,serif" font-size="14.00">initbuffer</text>
</g>
<!-- maxbits_var -->
<g id="node17" class="node">
<title>maxbits_var</title>
<ellipse fill="lightgreen" stroke="black" cx="257.9" cy="-234" rx="40.6" ry="18"/>
<text xml:space="preserve" text-anchor="middle" x="257.9" y="-228.95" font-family="Times New Roman,serif" font-size="14.00">maxbits</text>
</g>
<!-- op_assign_maxbits&#45;&gt;maxbits_var -->
<g id="edge4" class="edge">
<title>op_assign_maxbits&#45;&gt;maxbits_var</title>
<path fill="none" stroke="black" d="M257.9,-287.7C257.9,-280.41 257.9,-271.73 257.9,-263.54"/>
<polygon fill="black" stroke="black" points="261.4,-263.62 257.9,-253.62 254.4,-263.62 261.4,-263.62"/>
</g>
<!-- op_shift -->
<g id="node8" class="node">
<title>op_shift</title>
<polygon fill="none" stroke="black" points="284.9,-180 230.9,-180 230.9,-144 284.9,-144 284.9,-180"/>
<text xml:space="preserve" text-anchor="middle" x="257.9" y="-156.95" font-family="Times New Roman,serif" font-size="14.00">&lt;&lt;</text>
</g>
<!-- op_assign_maxmaxcode -->
<g id="node9" class="node">
<title>op_assign_maxmaxcode</title>
<polygon fill="none" stroke="black" points="284.9,-108 230.9,-108 230.9,-72 284.9,-72 284.9,-108"/>
<text xml:space="preserve" text-anchor="middle" x="257.9" y="-84.95" font-family="Times New Roman,serif" font-size="14.00">=</text>
</g>
<!-- op_shift&#45;&gt;op_assign_maxmaxcode -->
<g id="edge6" class="edge">
<title>op_shift&#45;&gt;op_assign_maxmaxcode</title>
<path fill="none" stroke="black" d="M257.9,-143.7C257.9,-136.41 257.9,-127.73 257.9,-119.54"/>
<polygon fill="black" stroke="black" points="261.4,-119.62 257.9,-109.62 254.4,-119.62 261.4,-119.62"/>
</g>
<!-- maxmaxcode_var -->
<g id="node18" class="node">
<title>maxmaxcode_var</title>
<ellipse fill="lightgreen" stroke="black" cx="257.9" cy="-18" rx="61.08" ry="18"/>
<text xml:space="preserve" text-anchor="middle" x="257.9" y="-12.95" font-family="Times New Roman,serif" font-size="14.00">maxmaxcode</text>
</g>
<!-- op_assign_maxmaxcode&#45;&gt;maxmaxcode_var -->
<g id="edge7" class="edge">
<title>op_assign_maxmaxcode&#45;&gt;maxmaxcode_var</title>
<path fill="none" stroke="black" d="M257.9,-71.7C257.9,-64.41 257.9,-55.73 257.9,-47.54"/>
<polygon fill="black" stroke="black" points="261.4,-47.62 257.9,-37.62 254.4,-47.62 261.4,-47.62"/>
</g>
<!-- op_assign_InCnt -->
<g id="node10" class="node">
<title>op_assign_InCnt</title>
<polygon fill="none" stroke="black" points="58.9,-180 4.9,-180 4.9,-144 58.9,-144 58.9,-180"/>
<text xml:space="preserve" text-anchor="middle" x="31.9" y="-156.95" font-family="Times New Roman,serif" font-size="14.00">=</text>
</g>
<!-- InCnt_var -->
<g id="node19" class="node">
<title>InCnt_var</title>
<ellipse fill="lightgreen" stroke="black" cx="31.9" cy="-90" rx="31.9" ry="18"/>
<text xml:space="preserve" text-anchor="middle" x="31.9" y="-84.95" font-family="Times New Roman,serif" font-size="14.00">InCnt</text>
</g>
<!-- op_assign_InCnt&#45;&gt;InCnt_var -->
<g id="edge9" class="edge">
<title>op_assign_InCnt&#45;&gt;InCnt_var</title>
<path fill="none" stroke="black" d="M31.9,-143.7C31.9,-136.41 31.9,-127.73 31.9,-119.54"/>
<polygon fill="black" stroke="black" points="35.4,-119.62 31.9,-109.62 28.4,-119.62 35.4,-119.62"/>
</g>
<!-- apsim_InCnt_var -->
<g id="node20" class="node">
<title>apsim_InCnt_var</title>
<ellipse fill="lightgreen" stroke="black" cx="139.9" cy="-234" rx="59.03" ry="18"/>
<text xml:space="preserve" text-anchor="middle" x="139.9" y="-228.95" font-family="Times New Roman,serif" font-size="14.00">apsim_InCnt</text>
</g>
<!-- op_assign_apsim_InCnt&#45;&gt;apsim_InCnt_var -->
<g id="edge11" class="edge">
<title>op_assign_apsim_InCnt&#45;&gt;apsim_InCnt_var</title>
<path fill="none" stroke="black" d="M133.13,-287.7C134.08,-280.32 135.21,-271.52 136.27,-263.25"/>
<polygon fill="black" stroke="black" points="139.71,-263.97 137.51,-253.61 132.76,-263.08 139.71,-263.97"/>
</g>
<!-- InBuff_var -->
<g id="node21" class="node">
<title>InBuff_var</title>
<ellipse fill="lightgreen" stroke="black" cx="377.9" cy="-234" rx="35.49" ry="18"/>
<text xml:space="preserve" text-anchor="middle" x="377.9" y="-228.95" font-family="Times New Roman,serif" font-size="14.00">InBuff</text>
</g>
<!-- op_assign_InBuff&#45;&gt;InBuff_var -->
<g id="edge13" class="edge">
<title>op_assign_InBuff&#45;&gt;InBuff_var</title>
<path fill="none" stroke="black" d="M377.9,-287.7C377.9,-280.41 377.9,-271.73 377.9,-263.54"/>
<polygon fill="black" stroke="black" points="381.4,-263.62 377.9,-253.62 374.4,-263.62 381.4,-263.62"/>
</g>
<!-- OutBuff_var -->
<g id="node22" class="node">
<title>OutBuff_var</title>
<ellipse fill="lightgreen" stroke="black" cx="544.9" cy="-234" rx="41.63" ry="18"/>
<text xml:space="preserve" text-anchor="middle" x="544.9" y="-228.95" font-family="Times New Roman,serif" font-size="14.00">OutBuff</text>
</g>
<!-- op_assign_OutBuff&#45;&gt;OutBuff_var -->
<g id="edge15" class="edge">
<title>op_assign_OutBuff&#45;&gt;OutBuff_var</title>
<path fill="none" stroke="black" d="M544.9,-287.7C544.9,-280.41 544.9,-271.73 544.9,-263.54"/>
<polygon fill="black" stroke="black" points="548.4,-263.62 544.9,-253.62 541.4,-263.62 548.4,-263.62"/>
</g>
<!-- op_call_compress -->
<g id="node14" class="node">
<title>op_call_compress</title>
<polygon fill="none" stroke="black" points="792.78,-396 725.03,-396 725.03,-360 792.78,-360 792.78,-396"/>
<text xml:space="preserve" text-anchor="middle" x="758.9" y="-372.95" font-family="Times New Roman,serif" font-size="14.00">compress</text>
</g>
<!-- op_return -->
<g id="node15" class="node">
<title>op_return</title>
<polygon fill="none" stroke="black" points="785.9,-324 731.9,-324 731.9,-288 785.9,-288 785.9,-324"/>
<text xml:space="preserve" text-anchor="middle" x="758.9" y="-300.95" font-family="Times New Roman,serif" font-size="14.00">return</text>
</g>
<!-- op_call_compress&#45;&gt;op_return -->
<g id="edge16" class="edge">
<title>op_call_compress&#45;&gt;op_return</title>
<path fill="none" stroke="black" d="M758.9,-359.7C758.9,-352.41 758.9,-343.73 758.9,-335.54"/>
<polygon fill="black" stroke="black" points="762.4,-335.62 758.9,-325.62 755.4,-335.62 762.4,-335.62"/>
</g>
<!-- count_var&#45;&gt;op_assign_InCnt -->
<g id="edge8" class="edge">
<title>count_var&#45;&gt;op_assign_InCnt</title>
<path fill="none" stroke="black" d="M31.9,-215.7C31.9,-208.41 31.9,-199.73 31.9,-191.54"/>
<polygon fill="black" stroke="black" points="35.4,-191.62 31.9,-181.62 28.4,-191.62 35.4,-191.62"/>
</g>
<!-- maxbits_var&#45;&gt;op_shift -->
<g id="edge5" class="edge">
<title>maxbits_var&#45;&gt;op_shift</title>
<path fill="none" stroke="black" d="M257.9,-215.7C257.9,-208.41 257.9,-199.73 257.9,-191.54"/>
<polygon fill="black" stroke="black" points="261.4,-191.62 257.9,-181.62 254.4,-191.62 261.4,-191.62"/>
</g>
</g>
</svg>
