<?xml version="1.0" encoding="UTF-8" standalone="no"?>
<!DOCTYPE svg PUBLIC "-//W3C//DTD SVG 1.1//EN"
 "http://www.w3.org/Graphics/SVG/1.1/DTD/svg11.dtd">
<!-- Generated by graphviz version 13.1.2 (20250808.2320)
 -->
<!-- Title: Compress_DFG Pages: 1 -->
<svg width="500pt" height="260pt"
 viewBox="0.00 0.00 500.00 260.00" xmlns="http://www.w3.org/2000/svg" xmlns:xlink="http://www.w3.org/1999/xlink">
<g id="graph0" class="graph" transform="scale(1 1) rotate(0) translate(4 256)">
<title>Compress_DFG</title>
<polygon fill="white" stroke="none" points="-4,4 -4,-256 495.75,-256 495.75,4 -4,4"/>
<!-- in_count -->
<g id="node1" class="node">
<title>in_count</title>
<ellipse fill="lightblue" stroke="black" cx="71.38" cy="-234" rx="43.16" ry="18"/>
<text xml:space="preserve" text-anchor="middle" x="71.38" y="-228.95" font-family="Times New Roman,serif" font-size="14.00">in_count</text>
</g>
<!-- cond -->
<g id="node4" class="node">
<title>cond</title>
<polygon fill="yellow" stroke="black" points="141.38,-180 0,-162 141.38,-144 282.77,-162 141.38,-180"/>
<text xml:space="preserve" text-anchor="middle" x="141.38" y="-156.95" font-family="Times New Roman,serif" font-size="14.00">in_count &gt;= checkpoint</text>
</g>
<!-- in_count&#45;&gt;cond -->
<g id="edge1" class="edge">
<title>in_count&#45;&gt;cond</title>
<path fill="none" stroke="black" d="M87.27,-217.12C96.34,-208.04 107.89,-196.49 117.99,-186.39"/>
<polygon fill="black" stroke="black" points="120.38,-188.96 124.97,-179.41 115.43,-184.01 120.38,-188.96"/>
</g>
<!-- checkpoint -->
<g id="node2" class="node">
<title>checkpoint</title>
<ellipse fill="lightblue" stroke="black" cx="212.38" cy="-234" rx="80.01" ry="18"/>
<text xml:space="preserve" text-anchor="middle" x="212.38" y="-228.95" font-family="Times New Roman,serif" font-size="14.00">checkpoint=10000</text>
</g>
<!-- checkpoint&#45;&gt;cond -->
<g id="edge2" class="edge">
<title>checkpoint&#45;&gt;cond</title>
<path fill="none" stroke="black" d="M195.2,-216.05C186.09,-207.08 174.77,-195.92 164.87,-186.15"/>
<polygon fill="black" stroke="black" points="167.62,-183.95 158.04,-179.42 162.7,-188.93 167.62,-183.95"/>
</g>
<!-- block_compress -->
<g id="node3" class="node">
<title>block_compress</title>
<ellipse fill="lightblue" stroke="black" cx="396.38" cy="-162" rx="95.37" ry="18"/>
<text xml:space="preserve" text-anchor="middle" x="396.38" y="-156.95" font-family="Times New Roman,serif" font-size="14.00">block_compress=0x80</text>
</g>
<!-- and -->
<g id="node5" class="node">
<title>and</title>
<polygon fill="lightgreen" stroke="black" points="295.38,-108 241.38,-108 241.38,-72 295.38,-72 295.38,-108"/>
<text xml:space="preserve" text-anchor="middle" x="268.38" y="-84.95" font-family="Times New Roman,serif" font-size="14.00">AND</text>
</g>
<!-- block_compress&#45;&gt;and -->
<g id="edge4" class="edge">
<title>block_compress&#45;&gt;and</title>
<path fill="none" stroke="black" d="M366.37,-144.59C348.21,-134.65 324.9,-121.91 305.57,-111.34"/>
<polygon fill="black" stroke="black" points="307.37,-108.33 296.92,-106.6 304.01,-114.47 307.37,-108.33"/>
</g>
<!-- cond&#45;&gt;and -->
<g id="edge3" class="edge">
<title>cond&#45;&gt;and</title>
<path fill="none" stroke="black" d="M167.08,-146.83C185.44,-136.72 210.41,-122.95 230.97,-111.62"/>
<polygon fill="black" stroke="black" points="232.57,-114.74 239.64,-106.84 229.19,-108.61 232.57,-114.74"/>
</g>
<!-- cl_block_call -->
<g id="node6" class="node">
<title>cl_block_call</title>
<polygon fill="lightgreen" stroke="red" points="321.01,-36 215.76,-36 215.76,0 321.01,0 321.01,-36"/>
<text xml:space="preserve" text-anchor="middle" x="268.38" y="-12.95" font-family="Times New Roman,serif" font-size="14.00" fill="red">Chama cl_block</text>
</g>
<!-- and&#45;&gt;cl_block_call -->
<g id="edge5" class="edge">
<title>and&#45;&gt;cl_block_call</title>
<path fill="none" stroke="red" d="M268.38,-71.7C268.38,-64.41 268.38,-55.73 268.38,-47.54"/>
<polygon fill="red" stroke="red" points="271.88,-47.62 268.38,-37.62 264.88,-47.62 271.88,-47.62"/>
</g>
</g>
</svg>
