<?xml version="1.0" encoding="UTF-8" standalone="no"?>
<!DOCTYPE svg PUBLIC "-//W3C//DTD SVG 1.1//EN"
 "http://www.w3.org/Graphics/SVG/1.1/DTD/svg11.dtd">
<!-- Generated by graphviz version 13.1.2 (20250808.2320)
 -->
<!-- Title: Compress_CFG Pages: 1 -->
<svg width="605pt" height="820pt"
 viewBox="0.00 0.00 605.00 820.00" xmlns="http://www.w3.org/2000/svg" xmlns:xlink="http://www.w3.org/1999/xlink">
<g id="graph0" class="graph" transform="scale(1 1) rotate(0) translate(4 816.25)">
<title>Compress_CFG</title>
<polygon fill="white" stroke="none" points="-4,4 -4,-816.25 601.25,-816.25 601.25,4 -4,4"/>
<!-- N1 -->
<g id="node1" class="node">
<title>N1</title>
<path fill="none" stroke="black" d="M385,-812.25C385,-812.25 79.5,-812.25 79.5,-812.25 73.5,-812.25 67.5,-806.25 67.5,-800.25 67.5,-800.25 67.5,-788.25 67.5,-788.25 67.5,-782.25 73.5,-776.25 79.5,-776.25 79.5,-776.25 385,-776.25 385,-776.25 391,-776.25 397,-782.25 397,-788.25 397,-788.25 397,-800.25 397,-800.25 397,-806.25 391,-812.25 385,-812.25"/>
<text xml:space="preserve" text-anchor="middle" x="232.25" y="-788.83" font-family="Helvetica,sans-Serif" font-size="14.00">Inicializacao: n_bits=9, maxcode=511, free_ent=257</text>
</g>
<!-- N2 -->
<g id="node2" class="node">
<title>N2</title>
<path fill="none" stroke="black" d="M409.5,-739.25C409.5,-739.25 281,-739.25 281,-739.25 275,-739.25 269,-733.25 269,-727.25 269,-727.25 269,-715.25 269,-715.25 269,-709.25 275,-703.25 281,-703.25 281,-703.25 409.5,-703.25 409.5,-703.25 415.5,-703.25 421.5,-709.25 421.5,-715.25 421.5,-715.25 421.5,-727.25 421.5,-727.25 421.5,-733.25 415.5,-739.25 409.5,-739.25"/>
<text xml:space="preserve" text-anchor="middle" x="345.25" y="-715.83" font-family="Helvetica,sans-Serif" font-size="14.00">Loop: while (InCnt &gt; 0)</text>
</g>
<!-- N1&#45;&gt;N2 -->
<g id="edge1" class="edge">
<title>N1&#45;&gt;N2</title>
<path fill="none" stroke="black" d="M259.89,-775.88C274.39,-766.77 292.36,-755.48 308.07,-745.61"/>
<polygon fill="black" stroke="black" points="309.61,-748.77 316.22,-740.49 305.89,-742.85 309.61,-748.77"/>
</g>
<!-- N3 -->
<g id="node3" class="node">
<title>N3</title>
<path fill="none" stroke="black" d="M305.12,-650.75C305.12,-650.75 237.38,-650.75 237.38,-650.75 231.38,-650.75 225.38,-644.75 225.38,-638.75 225.38,-638.75 225.38,-623.25 225.38,-623.25 225.38,-617.25 231.38,-611.25 237.38,-611.25 237.38,-611.25 305.12,-611.25 305.12,-611.25 311.12,-611.25 317.12,-617.25 317.12,-623.25 317.12,-623.25 317.12,-638.75 317.12,-638.75 317.12,-644.75 311.12,-650.75 305.12,-650.75"/>
<text xml:space="preserve" text-anchor="middle" x="271.25" y="-633.45" font-family="Helvetica,sans-Serif" font-size="14.00">c = getbyte()</text>
<text xml:space="preserve" text-anchor="middle" x="271.25" y="-617.7" font-family="Helvetica,sans-Serif" font-size="14.00">in_count++</text>
</g>
<!-- N2&#45;&gt;N3 -->
<g id="edge2" class="edge">
<title>N2&#45;&gt;N3</title>
<path fill="none" stroke="black" d="M305.46,-702.87C297.96,-698.08 290.82,-692.23 285.5,-685.25 280.41,-678.58 277.14,-670.23 275.03,-662.13"/>
<polygon fill="black" stroke="black" points="278.51,-661.64 273.07,-652.55 271.65,-663.04 278.51,-661.64"/>
<text xml:space="preserve" text-anchor="middle" x="308.38" y="-671.95" font-family="Times New Roman,serif" font-size="14.00">InCnt&gt;0</text>
</g>
<!-- N17 -->
<g id="node17" class="node">
<title>N17</title>
<path fill="none" stroke="black" d="M195.12,-649C195.12,-649 61.38,-649 61.38,-649 55.38,-649 49.38,-643 49.38,-637 49.38,-637 49.38,-625 49.38,-625 49.38,-619 55.38,-613 61.38,-613 61.38,-613 195.12,-613 195.12,-613 201.12,-613 207.12,-619 207.12,-625 207.12,-625 207.12,-637 207.12,-637 207.12,-643 201.12,-649 195.12,-649"/>
<text xml:space="preserve" text-anchor="middle" x="128.25" y="-625.58" font-family="Helvetica,sans-Serif" font-size="14.00">Final: verifica bytes_out</text>
</g>
<!-- N2&#45;&gt;N17 -->
<g id="edge3" class="edge">
<title>N2&#45;&gt;N17</title>
<path fill="none" stroke="black" d="M270.2,-702.83C253.16,-697.94 235.35,-692.06 219.25,-685.25 200.12,-677.16 180.08,-665.78 163.68,-655.62"/>
<polygon fill="black" stroke="black" points="165.59,-652.68 155.27,-650.3 161.85,-658.6 165.59,-652.68"/>
<text xml:space="preserve" text-anchor="middle" x="246.25" y="-671.95" font-family="Times New Roman,serif" font-size="14.00">InCnt&lt;=0</text>
</g>
<!-- N4 -->
<g id="node4" class="node">
<title>N4</title>
<path fill="none" stroke="black" d="M305.38,-574.25C305.38,-574.25 203.12,-574.25 203.12,-574.25 197.12,-574.25 191.12,-568.25 191.12,-562.25 191.12,-562.25 191.12,-550.25 191.12,-550.25 191.12,-544.25 197.12,-538.25 203.12,-538.25 203.12,-538.25 305.38,-538.25 305.38,-538.25 311.38,-538.25 317.38,-544.25 317.38,-550.25 317.38,-550.25 317.38,-562.25 317.38,-562.25 317.38,-568.25 311.38,-574.25 305.38,-574.25"/>
<text xml:space="preserve" text-anchor="middle" x="254.25" y="-550.83" font-family="Helvetica,sans-Serif" font-size="14.00">Computa fcode e i</text>
</g>
<!-- N3&#45;&gt;N4 -->
<g id="edge4" class="edge">
<title>N3&#45;&gt;N4</title>
<path fill="none" stroke="black" d="M266.78,-610.89C264.97,-603.13 262.84,-594.01 260.85,-585.51"/>
<polygon fill="black" stroke="black" points="264.31,-584.91 258.62,-575.97 257.49,-586.5 264.31,-584.91"/>
</g>
<!-- N5 -->
<g id="node5" class="node">
<title>N5</title>
<path fill="none" stroke="black" d="M300.88,-501.25C300.88,-501.25 207.62,-501.25 207.62,-501.25 201.62,-501.25 195.62,-495.25 195.62,-489.25 195.62,-489.25 195.62,-477.25 195.62,-477.25 195.62,-471.25 201.62,-465.25 207.62,-465.25 207.62,-465.25 300.88,-465.25 300.88,-465.25 306.88,-465.25 312.88,-471.25 312.88,-477.25 312.88,-477.25 312.88,-489.25 312.88,-489.25 312.88,-495.25 306.88,-501.25 300.88,-501.25"/>
<text xml:space="preserve" text-anchor="middle" x="254.25" y="-477.82" font-family="Helvetica,sans-Serif" font-size="14.00">htab[i] == fcode?</text>
</g>
<!-- N4&#45;&gt;N5 -->
<g id="edge5" class="edge">
<title>N4&#45;&gt;N5</title>
<path fill="none" stroke="black" d="M254.25,-538.06C254.25,-530.48 254.25,-521.35 254.25,-512.79"/>
<polygon fill="black" stroke="black" points="257.75,-512.79 254.25,-502.79 250.75,-512.79 257.75,-512.79"/>
</g>
<!-- N6 -->
<g id="node6" class="node">
<title>N6</title>
<path fill="none" stroke="black" d="M342.75,-412.75C342.75,-412.75 257.75,-412.75 257.75,-412.75 251.75,-412.75 245.75,-406.75 245.75,-400.75 245.75,-400.75 245.75,-385.25 245.75,-385.25 245.75,-379.25 251.75,-373.25 257.75,-373.25 257.75,-373.25 342.75,-373.25 342.75,-373.25 348.75,-373.25 354.75,-379.25 354.75,-385.25 354.75,-385.25 354.75,-400.75 354.75,-400.75 354.75,-406.75 348.75,-412.75 342.75,-412.75"/>
<text xml:space="preserve" text-anchor="middle" x="300.25" y="-395.45" font-family="Helvetica,sans-Serif" font-size="14.00">ent = codetab[i]</text>
<text xml:space="preserve" text-anchor="middle" x="300.25" y="-379.7" font-family="Helvetica,sans-Serif" font-size="14.00">Continua</text>
</g>
<!-- N5&#45;&gt;N6 -->
<g id="edge6" class="edge">
<title>N5&#45;&gt;N6</title>
<path fill="none" stroke="black" d="M263.34,-464.81C269.51,-452.97 277.83,-437.01 285.01,-423.24"/>
<polygon fill="black" stroke="black" points="288,-425.06 289.52,-414.58 281.8,-421.83 288,-425.06"/>
<text xml:space="preserve" text-anchor="middle" x="291.25" y="-433.95" font-family="Times New Roman,serif" font-size="14.00">Sim</text>
</g>
<!-- N7 -->
<g id="node7" class="node">
<title>N7</title>
<path fill="none" stroke="black" d="M216,-411C216,-411 156.5,-411 156.5,-411 150.5,-411 144.5,-405 144.5,-399 144.5,-399 144.5,-387 144.5,-387 144.5,-381 150.5,-375 156.5,-375 156.5,-375 216,-375 216,-375 222,-375 228,-381 228,-387 228,-387 228,-399 228,-399 228,-405 222,-411 216,-411"/>
<text xml:space="preserve" text-anchor="middle" x="186.25" y="-387.57" font-family="Helvetica,sans-Serif" font-size="14.00">htab[i] &lt; 0?</text>
</g>
<!-- N5&#45;&gt;N7 -->
<g id="edge7" class="edge">
<title>N5&#45;&gt;N7</title>
<path fill="none" stroke="black" d="M240.82,-464.81C231.04,-452.12 217.62,-434.71 206.54,-420.33"/>
<polygon fill="black" stroke="black" points="209.46,-418.38 200.58,-412.6 203.91,-422.66 209.46,-418.38"/>
<text xml:space="preserve" text-anchor="middle" x="237.59" y="-433.95" font-family="Times New Roman,serif" font-size="14.00">Nao</text>
</g>
<!-- N6&#45;&gt;N2 -->
<g id="edge8" class="edge">
<title>N6&#45;&gt;N2</title>
<path fill="none" stroke="black" d="M316.5,-412.92C329.39,-429.9 345.25,-456.11 345.25,-482.25 345.25,-632 345.25,-632 345.25,-632 345.25,-651.95 345.25,-674.43 345.25,-691.71"/>
<polygon fill="black" stroke="black" points="341.75,-691.49 345.25,-701.49 348.75,-691.49 341.75,-691.49"/>
</g>
<!-- N8 -->
<g id="node8" class="node">
<title>N8</title>
<path fill="none" stroke="black" d="M194.38,-311.12C194.38,-311.12 116.12,-311.12 116.12,-311.12 110.12,-311.12 104.12,-305.12 104.12,-299.12 104.12,-299.12 104.12,-287.12 104.12,-287.12 104.12,-281.12 110.12,-275.12 116.12,-275.12 116.12,-275.12 194.38,-275.12 194.38,-275.12 200.38,-275.12 206.38,-281.12 206.38,-287.12 206.38,-287.12 206.38,-299.12 206.38,-299.12 206.38,-305.12 200.38,-311.12 194.38,-311.12"/>
<text xml:space="preserve" text-anchor="middle" x="155.25" y="-287.7" font-family="Helvetica,sans-Serif" font-size="14.00">Linear probing</text>
</g>
<!-- N7&#45;&gt;N8 -->
<g id="edge10" class="edge">
<title>N7&#45;&gt;N8</title>
<path fill="none" stroke="black" d="M172.5,-374.57C168.56,-368.73 164.68,-361.99 162.25,-355.25 158.58,-345.07 156.71,-333.37 155.8,-322.95"/>
<polygon fill="black" stroke="black" points="159.3,-322.76 155.21,-312.98 152.31,-323.17 159.3,-322.76"/>
<text xml:space="preserve" text-anchor="middle" x="202.75" y="-341.95" font-family="Times New Roman,serif" font-size="14.00">Nao (ocupado)</text>
</g>
<!-- N11 -->
<g id="node11" class="node">
<title>N11</title>
<path fill="none" stroke="black" d="M304.12,-320.75C304.12,-320.75 236.38,-320.75 236.38,-320.75 230.38,-320.75 224.38,-314.75 224.38,-308.75 224.38,-308.75 224.38,-277.5 224.38,-277.5 224.38,-271.5 230.38,-265.5 236.38,-265.5 236.38,-265.5 304.12,-265.5 304.12,-265.5 310.12,-265.5 316.12,-271.5 316.12,-277.5 316.12,-277.5 316.12,-308.75 316.12,-308.75 316.12,-314.75 310.12,-320.75 304.12,-320.75"/>
<text xml:space="preserve" text-anchor="middle" x="270.25" y="-303.45" font-family="Helvetica,sans-Serif" font-size="14.00">nomatch:</text>
<text xml:space="preserve" text-anchor="middle" x="270.25" y="-287.7" font-family="Helvetica,sans-Serif" font-size="14.00">out_count++</text>
<text xml:space="preserve" text-anchor="middle" x="270.25" y="-271.95" font-family="Helvetica,sans-Serif" font-size="14.00">ent = c</text>
</g>
<!-- N7&#45;&gt;N11 -->
<g id="edge9" class="edge">
<title>N7&#45;&gt;N11</title>
<path fill="none" stroke="black" d="M220.46,-374.51C228.68,-369.16 236.9,-362.68 243.25,-355.25 249.18,-348.3 254.02,-339.85 257.88,-331.47"/>
<polygon fill="black" stroke="black" points="261.04,-332.98 261.66,-322.41 254.58,-330.29 261.04,-332.98"/>
<text xml:space="preserve" text-anchor="middle" x="285.72" y="-341.95" font-family="Times New Roman,serif" font-size="14.00">Sim (vazio)</text>
</g>
<!-- N9 -->
<g id="node9" class="node">
<title>N9</title>
<path fill="none" stroke="black" d="M154.5,-213C154.5,-213 44,-213 44,-213 38,-213 32,-207 32,-201 32,-201 32,-189 32,-189 32,-183 38,-177 44,-177 44,-177 154.5,-177 154.5,-177 160.5,-177 166.5,-183 166.5,-189 166.5,-189 166.5,-201 166.5,-201 166.5,-207 160.5,-213 154.5,-213"/>
<text xml:space="preserve" text-anchor="middle" x="99.25" y="-189.57" font-family="Helvetica,sans-Serif" font-size="14.00">Encontrou entrada?</text>
</g>
<!-- N8&#45;&gt;N9 -->
<g id="edge11" class="edge">
<title>N8&#45;&gt;N9</title>
<path fill="none" stroke="black" d="M180.01,-274.66C194.29,-262.39 207.56,-245.63 197.25,-231 193.95,-226.31 186.26,-221.8 176.57,-217.66"/>
<polygon fill="black" stroke="black" points="177.84,-214.4 167.25,-214.04 175.3,-220.93 177.84,-214.4"/>
</g>
<!-- N9&#45;&gt;N8 -->
<g id="edge13" class="edge">
<title>N9&#45;&gt;N8</title>
<path fill="none" stroke="black" d="M77.11,-213.04C66.94,-223.02 58.57,-235.89 65.75,-247.5 72.46,-258.35 82.7,-266.65 93.87,-272.96"/>
<polygon fill="black" stroke="black" points="92.02,-275.95 102.53,-277.34 95.18,-269.7 92.02,-275.95"/>
<text xml:space="preserve" text-anchor="middle" x="129.5" y="-234.2" font-family="Times New Roman,serif" font-size="14.00">Nao (continua probing)</text>
</g>
<!-- N10 -->
<g id="node10" class="node">
<title>N10</title>
<path fill="none" stroke="black" d="M74.5,-124.5C74.5,-124.5 12,-124.5 12,-124.5 6,-124.5 0,-118.5 0,-112.5 0,-112.5 0,-100.5 0,-100.5 0,-94.5 6,-88.5 12,-88.5 12,-88.5 74.5,-88.5 74.5,-88.5 80.5,-88.5 86.5,-94.5 86.5,-100.5 86.5,-100.5 86.5,-112.5 86.5,-112.5 86.5,-118.5 80.5,-124.5 74.5,-124.5"/>
<text xml:space="preserve" text-anchor="middle" x="43.25" y="-101.08" font-family="Helvetica,sans-Serif" font-size="14.00">Atualiza ent</text>
</g>
<!-- N9&#45;&gt;N10 -->
<g id="edge12" class="edge">
<title>N9&#45;&gt;N10</title>
<path fill="none" stroke="black" d="M88.19,-176.91C80.34,-164.79 69.64,-148.27 60.66,-134.39"/>
<polygon fill="black" stroke="black" points="63.68,-132.61 55.31,-126.12 57.8,-136.42 63.68,-132.61"/>
<text xml:space="preserve" text-anchor="middle" x="87.52" y="-145.7" font-family="Times New Roman,serif" font-size="14.00">Sim</text>
</g>
<!-- N10&#45;&gt;N2 -->
<g id="edge14" class="edge">
<title>N10&#45;&gt;N2</title>
<path fill="none" stroke="black" d="M30.26,-124.7C18.92,-141.46 4.25,-168.14 4.25,-194 4.25,-632 4.25,-632 4.25,-632 4.25,-684.26 156.24,-706.07 257.28,-714.8"/>
<polygon fill="black" stroke="black" points="256.96,-718.29 267.21,-715.63 257.54,-711.31 256.96,-718.29"/>
</g>
<!-- N12 -->
<g id="node12" class="node">
<title>N12</title>
<path fill="none" stroke="black" d="M343.5,-213C343.5,-213 197,-213 197,-213 191,-213 185,-207 185,-201 185,-201 185,-189 185,-189 185,-183 191,-177 197,-177 197,-177 343.5,-177 343.5,-177 349.5,-177 355.5,-183 355.5,-189 355.5,-189 355.5,-201 355.5,-201 355.5,-207 349.5,-213 343.5,-213"/>
<text xml:space="preserve" text-anchor="middle" x="270.25" y="-189.57" font-family="Helvetica,sans-Serif" font-size="14.00">free_ent &lt; maxmaxcode?</text>
</g>
<!-- N11&#45;&gt;N12 -->
<g id="edge15" class="edge">
<title>N11&#45;&gt;N12</title>
<path fill="none" stroke="black" d="M270.25,-265.09C270.25,-252.55 270.25,-237.63 270.25,-224.87"/>
<polygon fill="black" stroke="black" points="273.75,-224.96 270.25,-214.96 266.75,-224.96 273.75,-224.96"/>
</g>
<!-- N13 -->
<g id="node13" class="node">
<title>N13</title>
<path fill="none" stroke="black" d="M242.88,-124.5C242.88,-124.5 155.62,-124.5 155.62,-124.5 149.62,-124.5 143.62,-118.5 143.62,-112.5 143.62,-112.5 143.62,-100.5 143.62,-100.5 143.62,-94.5 149.62,-88.5 155.62,-88.5 155.62,-88.5 242.88,-88.5 242.88,-88.5 248.88,-88.5 254.88,-94.5 254.88,-100.5 254.88,-100.5 254.88,-112.5 254.88,-112.5 254.88,-118.5 248.88,-124.5 242.88,-124.5"/>
<text xml:space="preserve" text-anchor="middle" x="199.25" y="-101.08" font-family="Helvetica,sans-Serif" font-size="14.00">Atualiza tabelas</text>
</g>
<!-- N12&#45;&gt;N13 -->
<g id="edge16" class="edge">
<title>N12&#45;&gt;N13</title>
<path fill="none" stroke="black" d="M256.22,-176.91C246.08,-164.55 232.19,-147.63 220.66,-133.58"/>
<polygon fill="black" stroke="black" points="223.5,-131.53 214.45,-126.02 218.09,-135.97 223.5,-131.53"/>
<text xml:space="preserve" text-anchor="middle" x="252.36" y="-145.7" font-family="Times New Roman,serif" font-size="14.00">Sim</text>
</g>
<!-- N14 -->
<g id="node14" class="node">
<title>N14</title>
<path fill="none" stroke="black" d="M557.12,-124.5C557.12,-124.5 285.38,-124.5 285.38,-124.5 279.38,-124.5 273.38,-118.5 273.38,-112.5 273.38,-112.5 273.38,-100.5 273.38,-100.5 273.38,-94.5 279.38,-88.5 285.38,-88.5 285.38,-88.5 557.12,-88.5 557.12,-88.5 563.12,-88.5 569.12,-94.5 569.12,-100.5 569.12,-100.5 569.12,-112.5 569.12,-112.5 569.12,-118.5 563.12,-124.5 557.12,-124.5"/>
<text xml:space="preserve" text-anchor="middle" x="421.25" y="-101.08" font-family="Helvetica,sans-Serif" font-size="14.00">(in_count &gt;= checkpoint) &amp;&amp; block_compress?</text>
</g>
<!-- N12&#45;&gt;N14 -->
<g id="edge17" class="edge">
<title>N12&#45;&gt;N14</title>
<path fill="none" stroke="black" d="M300.44,-176.7C323.62,-163.43 355.83,-144.98 381.16,-130.46"/>
<polygon fill="black" stroke="black" points="382.6,-133.67 389.54,-125.67 379.12,-127.6 382.6,-133.67"/>
<text xml:space="preserve" text-anchor="middle" x="370.52" y="-145.7" font-family="Times New Roman,serif" font-size="14.00">Nao</text>
</g>
<!-- N13&#45;&gt;N2 -->
<g id="edge18" class="edge">
<title>N13&#45;&gt;N2</title>
<path fill="none" stroke="black" d="M255.2,-122.46C258.25,-123.17 261.29,-123.86 264.25,-124.5 310.53,-134.5 334.21,-110.66 369.25,-142.5 386.8,-158.45 383.25,-170.28 383.25,-194 383.25,-632 383.25,-632 383.25,-632 383.25,-653.83 373.32,-676.4 363.62,-693.25"/>
<polygon fill="black" stroke="black" points="360.71,-691.29 358.48,-701.65 366.68,-694.94 360.71,-691.29"/>
</g>
<!-- N14&#45;&gt;N2 -->
<g id="edge20" class="edge">
<title>N14&#45;&gt;N2</title>
<path fill="none" stroke="black" d="M421.25,-124.73C421.25,-142.19 421.25,-169.97 421.25,-194 421.25,-632 421.25,-632 421.25,-632 421.25,-657.96 413.99,-665.41 397.25,-685.25 394,-689.1 390.23,-692.7 386.23,-696.01"/>
<polygon fill="black" stroke="black" points="384.31,-693.08 378.44,-701.89 388.53,-698.66 384.31,-693.08"/>
<text xml:space="preserve" text-anchor="middle" x="432.5" y="-433.95" font-family="Times New Roman,serif" font-size="14.00">Nao</text>
</g>
<!-- N15 -->
<g id="node15" class="node">
<title>N15</title>
<path fill="none" stroke="red" d="M534.12,-36C534.12,-36 484.38,-36 484.38,-36 478.38,-36 472.38,-30 472.38,-24 472.38,-24 472.38,-12 472.38,-12 472.38,-6 478.38,0 484.38,0 484.38,0 534.12,0 534.12,0 540.12,0 546.12,-6 546.12,-12 546.12,-12 546.12,-24 546.12,-24 546.12,-30 540.12,-36 534.12,-36"/>
<text xml:space="preserve" text-anchor="middle" x="509.25" y="-12.57" font-family="Helvetica,sans-Serif" font-size="14.00" fill="red">cl_block()</text>
</g>
<!-- N14&#45;&gt;N15 -->
<g id="edge19" class="edge">
<title>N14&#45;&gt;N15</title>
<path fill="none" stroke="black" d="M438.64,-88.41C451.45,-75.82 469.08,-58.48 483.53,-44.29"/>
<polygon fill="black" stroke="black" points="485.84,-46.92 490.52,-37.41 480.93,-41.93 485.84,-46.92"/>
<text xml:space="preserve" text-anchor="middle" x="484.38" y="-57.2" font-family="Times New Roman,serif" font-size="14.00">Sim</text>
</g>
<!-- N15&#45;&gt;N2 -->
<g id="edge21" class="edge">
<title>N15&#45;&gt;N2</title>
<path fill="none" stroke="red" d="M545.04,-36.47C569.41,-51.14 597.25,-74.65 597.25,-105.5 597.25,-632 597.25,-632 597.25,-632 597.25,-667.77 505.67,-692.48 432.92,-706.47"/>
<polygon fill="red" stroke="red" points="432.56,-702.98 423.37,-708.26 433.85,-709.86 432.56,-702.98"/>
</g>
<!-- N16 -->
<g id="node16" class="node">
<title>N16</title>
<path fill="none" stroke="black" d="M489.88,-812.25C489.88,-812.25 426.62,-812.25 426.62,-812.25 420.62,-812.25 414.62,-806.25 414.62,-800.25 414.62,-800.25 414.62,-788.25 414.62,-788.25 414.62,-782.25 420.62,-776.25 426.62,-776.25 426.62,-776.25 489.88,-776.25 489.88,-776.25 495.88,-776.25 501.88,-782.25 501.88,-788.25 501.88,-788.25 501.88,-800.25 501.88,-800.25 501.88,-806.25 495.88,-812.25 489.88,-812.25"/>
<text xml:space="preserve" text-anchor="middle" x="458.25" y="-788.83" font-family="Helvetica,sans-Serif" font-size="14.00">Fim do loop</text>
</g>
<!-- N16&#45;&gt;N2 -->
<g id="edge22" class="edge">
<title>N16&#45;&gt;N2</title>
<path fill="none" stroke="black" d="M430.61,-775.88C416.11,-766.77 398.14,-755.48 382.43,-745.61"/>
<polygon fill="black" stroke="black" points="384.61,-742.85 374.28,-740.49 380.89,-748.77 384.61,-742.85"/>
</g>
</g>
</svg>
