<?xml version="1.0" encoding="UTF-8" standalone="no"?>
<!DOCTYPE svg PUBLIC "-//W3C//DTD SVG 1.1//EN"
 "http://www.w3.org/Graphics/SVG/1.1/DTD/svg11.dtd">
<!-- Generated by graphviz version 13.1.2 (20250808.2320)
 -->
<!-- Title: Encode Pages: 1 -->
<svg width="379pt" height="2817pt"
 viewBox="0.00 0.00 379.00 2817.00" xmlns="http://www.w3.org/2000/svg" xmlns:xlink="http://www.w3.org/1999/xlink">
<g id="graph0" class="graph" transform="scale(1 1) rotate(0) translate(4 2813)">
<title>Encode</title>
<polygon fill="white" stroke="none" points="-4,4 -4,-2813 374.75,-2813 374.75,4 -4,4"/>
<!-- start -->
<g id="node1" class="node">
<title>start</title>
<ellipse fill="none" stroke="black" cx="185.38" cy="-2791" rx="95.37" ry="18"/>
<text xml:space="preserve" text-anchor="middle" x="185.38" y="-2785.95" font-family="Courier,monospace" font-size="14.00">Inicio (encode)</text>
</g>
<!-- init -->
<g id="node3" class="node">
<title>init</title>
<polygon fill="none" stroke="black" points="325.38,-2736 45.38,-2736 45.38,-2700 325.38,-2700 325.38,-2736"/>
<text xml:space="preserve" text-anchor="middle" x="185.38" y="-2712.95" font-family="Courier,monospace" font-size="14.00">Inicializa ponteiros e variaveis</text>
</g>
<!-- start&#45;&gt;init -->
<g id="edge1" class="edge">
<title>start&#45;&gt;init</title>
<path fill="none" stroke="black" d="M185.38,-2772.81C185.38,-2765.23 185.38,-2756.1 185.38,-2747.54"/>
<polygon fill="black" stroke="black" points="188.88,-2747.54 185.38,-2737.54 181.88,-2747.54 188.88,-2747.54"/>
</g>
<!-- end -->
<g id="node2" class="node">
<title>end</title>
<ellipse fill="none" stroke="black" cx="183.38" cy="-18" rx="78.48" ry="18"/>
<text xml:space="preserve" text-anchor="middle" x="183.38" y="-12.95" font-family="Courier,monospace" font-size="14.00">Fim (encode)</text>
</g>
<!-- compute_xa_xb -->
<g id="node4" class="node">
<title>compute_xa_xb</title>
<polygon fill="none" stroke="black" points="350.12,-2663 20.62,-2663 20.62,-2627 350.12,-2627 350.12,-2663"/>
<text xml:space="preserve" text-anchor="middle" x="185.38" y="-2639.95" font-family="Courier,monospace" font-size="14.00">Calcula xa e xb (acumulacoes iniciais)</text>
</g>
<!-- init&#45;&gt;compute_xa_xb -->
<g id="edge2" class="edge">
<title>init&#45;&gt;compute_xa_xb</title>
<path fill="none" stroke="black" d="M185.38,-2699.81C185.38,-2692.23 185.38,-2683.1 185.38,-2674.54"/>
<polygon fill="black" stroke="black" points="188.88,-2674.54 185.38,-2664.54 181.88,-2674.54 188.88,-2674.54"/>
</g>
<!-- update_tqmf -->
<g id="node5" class="node">
<title>update_tqmf</title>
<polygon fill="none" stroke="black" points="275.88,-2590 94.88,-2590 94.88,-2554 275.88,-2554 275.88,-2590"/>
<text xml:space="preserve" text-anchor="middle" x="185.38" y="-2566.95" font-family="Courier,monospace" font-size="14.00">Atualiza buffer tqmf</text>
</g>
<!-- compute_xa_xb&#45;&gt;update_tqmf -->
<g id="edge3" class="edge">
<title>compute_xa_xb&#45;&gt;update_tqmf</title>
<path fill="none" stroke="black" d="M185.38,-2626.81C185.38,-2619.23 185.38,-2610.1 185.38,-2601.54"/>
<polygon fill="black" stroke="black" points="188.88,-2601.54 185.38,-2591.54 181.88,-2601.54 188.88,-2601.54"/>
</g>
<!-- compute_xl_xh -->
<g id="node6" class="node">
<title>compute_xl_xh</title>
<polygon fill="none" stroke="black" points="308.88,-2517 61.88,-2517 61.88,-2476 308.88,-2476 308.88,-2517"/>
<text xml:space="preserve" text-anchor="middle" x="185.38" y="-2499.7" font-family="Courier,monospace" font-size="14.00">Calcula xl = (xa + xb) &gt;&gt; 15</text>
<text xml:space="preserve" text-anchor="middle" x="185.38" y="-2483.2" font-family="Courier,monospace" font-size="14.00">xh = (xa &#45; xb) &gt;&gt; 15</text>
</g>
<!-- update_tqmf&#45;&gt;compute_xl_xh -->
<g id="edge4" class="edge">
<title>update_tqmf&#45;&gt;compute_xl_xh</title>
<path fill="none" stroke="black" d="M185.38,-2553.58C185.38,-2546.2 185.38,-2537.35 185.38,-2528.9"/>
<polygon fill="black" stroke="black" points="188.88,-2528.9 185.38,-2518.9 181.88,-2528.9 188.88,-2528.9"/>
</g>
<!-- compute_szl -->
<g id="node7" class="node">
<title>compute_szl</title>
<polygon fill="none" stroke="black" points="337.75,-2439 33,-2439 33,-2403 337.75,-2403 337.75,-2439"/>
<text xml:space="preserve" text-anchor="middle" x="185.38" y="-2415.95" font-family="Courier,monospace" font-size="14.00">szl = filtez(delay_bpl, delay_dltx)</text>
</g>
<!-- compute_xl_xh&#45;&gt;compute_szl -->
<g id="edge5" class="edge">
<title>compute_xl_xh&#45;&gt;compute_szl</title>
<path fill="none" stroke="black" d="M185.38,-2475.8C185.38,-2468.06 185.38,-2459.01 185.38,-2450.57"/>
<polygon fill="black" stroke="black" points="188.88,-2450.76 185.38,-2440.76 181.88,-2450.76 188.88,-2450.76"/>
</g>
<!-- compute_spl -->
<g id="node8" class="node">
<title>compute_spl</title>
<polygon fill="none" stroke="black" points="333.62,-2366 37.12,-2366 37.12,-2330 333.62,-2330 333.62,-2366"/>
<text xml:space="preserve" text-anchor="middle" x="185.38" y="-2342.95" font-family="Courier,monospace" font-size="14.00">spl = filtep(rlt1, al1, rlt2, al2)</text>
</g>
<!-- compute_szl&#45;&gt;compute_spl -->
<g id="edge6" class="edge">
<title>compute_szl&#45;&gt;compute_spl</title>
<path fill="none" stroke="black" d="M185.38,-2402.81C185.38,-2395.23 185.38,-2386.1 185.38,-2377.54"/>
<polygon fill="black" stroke="black" points="188.88,-2377.54 185.38,-2367.54 181.88,-2377.54 188.88,-2377.54"/>
</g>
<!-- compute_sl -->
<g id="node9" class="node">
<title>compute_sl</title>
<polygon fill="none" stroke="black" points="251.12,-2293 119.62,-2293 119.62,-2257 251.12,-2257 251.12,-2293"/>
<text xml:space="preserve" text-anchor="middle" x="185.38" y="-2269.95" font-family="Courier,monospace" font-size="14.00">sl = szl + spl</text>
</g>
<!-- compute_spl&#45;&gt;compute_sl -->
<g id="edge7" class="edge">
<title>compute_spl&#45;&gt;compute_sl</title>
<path fill="none" stroke="black" d="M185.38,-2329.81C185.38,-2322.23 185.38,-2313.1 185.38,-2304.54"/>
<polygon fill="black" stroke="black" points="188.88,-2304.54 185.38,-2294.54 181.88,-2304.54 188.88,-2304.54"/>
</g>
<!-- compute_el -->
<g id="node10" class="node">
<title>compute_el</title>
<polygon fill="none" stroke="black" points="242.88,-2220 127.88,-2220 127.88,-2184 242.88,-2184 242.88,-2220"/>
<text xml:space="preserve" text-anchor="middle" x="185.38" y="-2196.95" font-family="Courier,monospace" font-size="14.00">el = xl &#45; sl</text>
</g>
<!-- compute_sl&#45;&gt;compute_el -->
<g id="edge8" class="edge">
<title>compute_sl&#45;&gt;compute_el</title>
<path fill="none" stroke="black" d="M185.38,-2256.81C185.38,-2249.23 185.38,-2240.1 185.38,-2231.54"/>
<polygon fill="black" stroke="black" points="188.88,-2231.54 185.38,-2221.54 181.88,-2231.54 188.88,-2231.54"/>
</g>
<!-- quantize_el -->
<g id="node11" class="node">
<title>quantize_el</title>
<polygon fill="none" stroke="black" points="280,-2147 90.75,-2147 90.75,-2111 280,-2111 280,-2147"/>
<text xml:space="preserve" text-anchor="middle" x="185.38" y="-2123.95" font-family="Courier,monospace" font-size="14.00">il = quantl(el, detl)</text>
</g>
<!-- compute_el&#45;&gt;quantize_el -->
<g id="edge9" class="edge">
<title>compute_el&#45;&gt;quantize_el</title>
<path fill="none" stroke="black" d="M185.38,-2183.81C185.38,-2176.23 185.38,-2167.1 185.38,-2158.54"/>
<polygon fill="black" stroke="black" points="188.88,-2158.54 185.38,-2148.54 181.88,-2158.54 188.88,-2158.54"/>
</g>
<!-- compute_dlt -->
<g id="node12" class="node">
<title>compute_dlt</title>
<polygon fill="none" stroke="black" points="370.75,-2074 0,-2074 0,-2038 370.75,-2038 370.75,-2074"/>
<text xml:space="preserve" text-anchor="middle" x="185.38" y="-2050.95" font-family="Courier,monospace" font-size="14.00">dlt = (detl * qq4_code4_table[il&gt;&gt;2]) &gt;&gt; 15</text>
</g>
<!-- quantize_el&#45;&gt;compute_dlt -->
<g id="edge10" class="edge">
<title>quantize_el&#45;&gt;compute_dlt</title>
<path fill="none" stroke="black" d="M185.38,-2110.81C185.38,-2103.23 185.38,-2094.1 185.38,-2085.54"/>
<polygon fill="black" stroke="black" points="188.88,-2085.54 185.38,-2075.54 181.88,-2085.54 188.88,-2085.54"/>
</g>
<!-- update_nbl -->
<g id="node13" class="node">
<title>update_nbl</title>
<polygon fill="none" stroke="black" points="280,-2001 90.75,-2001 90.75,-1965 280,-1965 280,-2001"/>
<text xml:space="preserve" text-anchor="middle" x="185.38" y="-1977.95" font-family="Courier,monospace" font-size="14.00">nbl = logscl(il, nbl)</text>
</g>
<!-- compute_dlt&#45;&gt;update_nbl -->
<g id="edge11" class="edge">
<title>compute_dlt&#45;&gt;update_nbl</title>
<path fill="none" stroke="black" d="M185.38,-2037.81C185.38,-2030.23 185.38,-2021.1 185.38,-2012.54"/>
<polygon fill="black" stroke="black" points="188.88,-2012.54 185.38,-2002.54 181.88,-2012.54 188.88,-2012.54"/>
</g>
<!-- update_detl -->
<g id="node14" class="node">
<title>update_detl</title>
<polygon fill="none" stroke="black" points="280,-1928 90.75,-1928 90.75,-1892 280,-1892 280,-1928"/>
<text xml:space="preserve" text-anchor="middle" x="185.38" y="-1904.95" font-family="Courier,monospace" font-size="14.00">detl = scalel(nbl, 8)</text>
</g>
<!-- update_nbl&#45;&gt;update_detl -->
<g id="edge12" class="edge">
<title>update_nbl&#45;&gt;update_detl</title>
<path fill="none" stroke="black" d="M185.38,-1964.81C185.38,-1957.23 185.38,-1948.1 185.38,-1939.54"/>
<polygon fill="black" stroke="black" points="188.88,-1939.54 185.38,-1929.54 181.88,-1939.54 188.88,-1939.54"/>
</g>
<!-- compute_plt -->
<g id="node15" class="node">
<title>compute_plt</title>
<polygon fill="none" stroke="black" points="255.25,-1855 115.5,-1855 115.5,-1819 255.25,-1819 255.25,-1855"/>
<text xml:space="preserve" text-anchor="middle" x="185.38" y="-1831.95" font-family="Courier,monospace" font-size="14.00">plt = dlt + szl</text>
</g>
<!-- update_detl&#45;&gt;compute_plt -->
<g id="edge13" class="edge">
<title>update_detl&#45;&gt;compute_plt</title>
<path fill="none" stroke="black" d="M185.38,-1891.81C185.38,-1884.23 185.38,-1875.1 185.38,-1866.54"/>
<polygon fill="black" stroke="black" points="188.88,-1866.54 185.38,-1856.54 181.88,-1866.54 188.88,-1866.54"/>
</g>
<!-- update_delay_bpl -->
<g id="node16" class="node">
<title>update_delay_bpl</title>
<polygon fill="none" stroke="black" points="333.62,-1782 37.12,-1782 37.12,-1746 333.62,-1746 333.62,-1782"/>
<text xml:space="preserve" text-anchor="middle" x="185.38" y="-1758.95" font-family="Courier,monospace" font-size="14.00">upzero(dlt, delay_dltx, delay_bpl)</text>
</g>
<!-- compute_plt&#45;&gt;update_delay_bpl -->
<g id="edge14" class="edge">
<title>compute_plt&#45;&gt;update_delay_bpl</title>
<path fill="none" stroke="black" d="M185.38,-1818.81C185.38,-1811.23 185.38,-1802.1 185.38,-1793.54"/>
<polygon fill="black" stroke="black" points="188.88,-1793.54 185.38,-1783.54 181.88,-1793.54 188.88,-1793.54"/>
</g>
<!-- update_al2 -->
<g id="node17" class="node">
<title>update_al2</title>
<polygon fill="none" stroke="black" points="354.25,-1709 16.5,-1709 16.5,-1673 354.25,-1673 354.25,-1709"/>
<text xml:space="preserve" text-anchor="middle" x="185.38" y="-1685.95" font-family="Courier,monospace" font-size="14.00">al2 = uppol2(al1, al2, plt, plt1, plt2)</text>
</g>
<!-- update_delay_bpl&#45;&gt;update_al2 -->
<g id="edge15" class="edge">
<title>update_delay_bpl&#45;&gt;update_al2</title>
<path fill="none" stroke="black" d="M185.38,-1745.81C185.38,-1738.23 185.38,-1729.1 185.38,-1720.54"/>
<polygon fill="black" stroke="black" points="188.88,-1720.54 185.38,-1710.54 181.88,-1720.54 188.88,-1720.54"/>
</g>
<!-- update_al1 -->
<g id="node18" class="node">
<title>update_al1</title>
<polygon fill="none" stroke="black" points="329.5,-1636 41.25,-1636 41.25,-1600 329.5,-1600 329.5,-1636"/>
<text xml:space="preserve" text-anchor="middle" x="185.38" y="-1612.95" font-family="Courier,monospace" font-size="14.00">al1 = uppol1(al1, al2, plt, plt1)</text>
</g>
<!-- update_al2&#45;&gt;update_al1 -->
<g id="edge16" class="edge">
<title>update_al2&#45;&gt;update_al1</title>
<path fill="none" stroke="black" d="M185.38,-1672.81C185.38,-1665.23 185.38,-1656.1 185.38,-1647.54"/>
<polygon fill="black" stroke="black" points="188.88,-1647.54 185.38,-1637.54 181.88,-1647.54 188.88,-1647.54"/>
</g>
<!-- update_rlt -->
<g id="node19" class="node">
<title>update_rlt</title>
<polygon fill="none" stroke="black" points="251.12,-1563 119.62,-1563 119.62,-1472.5 251.12,-1472.5 251.12,-1563"/>
<text xml:space="preserve" text-anchor="middle" x="185.38" y="-1545.7" font-family="Courier,monospace" font-size="14.00">rlt = sl + dlt</text>
<text xml:space="preserve" text-anchor="middle" x="185.38" y="-1529.2" font-family="Courier,monospace" font-size="14.00">rlt2 = rlt1</text>
<text xml:space="preserve" text-anchor="middle" x="185.38" y="-1512.7" font-family="Courier,monospace" font-size="14.00">rlt1 = rlt</text>
<text xml:space="preserve" text-anchor="middle" x="185.38" y="-1496.2" font-family="Courier,monospace" font-size="14.00">plt2 = plt1</text>
<text xml:space="preserve" text-anchor="middle" x="185.38" y="-1479.7" font-family="Courier,monospace" font-size="14.00">plt1 = plt</text>
</g>
<!-- update_al1&#45;&gt;update_rlt -->
<g id="edge17" class="edge">
<title>update_al1&#45;&gt;update_rlt</title>
<path fill="none" stroke="black" d="M185.38,-1599.89C185.38,-1592.62 185.38,-1583.69 185.38,-1574.45"/>
<polygon fill="black" stroke="black" points="188.88,-1574.62 185.38,-1564.62 181.88,-1574.62 188.88,-1574.62"/>
</g>
<!-- compute_szh -->
<g id="node20" class="node">
<title>compute_szh</title>
<polygon fill="none" stroke="black" points="333.62,-1435.5 37.12,-1435.5 37.12,-1399.5 333.62,-1399.5 333.62,-1435.5"/>
<text xml:space="preserve" text-anchor="middle" x="185.38" y="-1412.45" font-family="Courier,monospace" font-size="14.00">szh = filtez(delay_bph, delay_dhx)</text>
</g>
<!-- update_rlt&#45;&gt;compute_szh -->
<g id="edge18" class="edge">
<title>update_rlt&#45;&gt;compute_szh</title>
<path fill="none" stroke="black" d="M185.38,-1472.22C185.38,-1463.69 185.38,-1454.98 185.38,-1447.12"/>
<polygon fill="black" stroke="black" points="188.88,-1447.13 185.38,-1437.13 181.88,-1447.13 188.88,-1447.13"/>
</g>
<!-- compute_sph -->
<g id="node21" class="node">
<title>compute_sph</title>
<polygon fill="none" stroke="black" points="325.38,-1362.5 45.38,-1362.5 45.38,-1326.5 325.38,-1326.5 325.38,-1362.5"/>
<text xml:space="preserve" text-anchor="middle" x="185.38" y="-1339.45" font-family="Courier,monospace" font-size="14.00">sph = filtep(rh1, ah1, rh2, ah2)</text>
</g>
<!-- compute_szh&#45;&gt;compute_sph -->
<g id="edge19" class="edge">
<title>compute_szh&#45;&gt;compute_sph</title>
<path fill="none" stroke="black" d="M185.38,-1399.31C185.38,-1391.73 185.38,-1382.6 185.38,-1374.04"/>
<polygon fill="black" stroke="black" points="188.88,-1374.04 185.38,-1364.04 181.88,-1374.04 188.88,-1374.04"/>
</g>
<!-- compute_sh -->
<g id="node22" class="node">
<title>compute_sh</title>
<polygon fill="none" stroke="black" points="251.12,-1289.5 119.62,-1289.5 119.62,-1253.5 251.12,-1253.5 251.12,-1289.5"/>
<text xml:space="preserve" text-anchor="middle" x="185.38" y="-1266.45" font-family="Courier,monospace" font-size="14.00">sh = sph + szh</text>
</g>
<!-- compute_sph&#45;&gt;compute_sh -->
<g id="edge20" class="edge">
<title>compute_sph&#45;&gt;compute_sh</title>
<path fill="none" stroke="black" d="M185.38,-1326.31C185.38,-1318.73 185.38,-1309.6 185.38,-1301.04"/>
<polygon fill="black" stroke="black" points="188.88,-1301.04 185.38,-1291.04 181.88,-1301.04 188.88,-1301.04"/>
</g>
<!-- compute_eh -->
<g id="node23" class="node">
<title>compute_eh</title>
<polygon fill="none" stroke="black" points="242.88,-1216.5 127.88,-1216.5 127.88,-1180.5 242.88,-1180.5 242.88,-1216.5"/>
<text xml:space="preserve" text-anchor="middle" x="185.38" y="-1193.45" font-family="Courier,monospace" font-size="14.00">eh = xh &#45; sh</text>
</g>
<!-- compute_sh&#45;&gt;compute_eh -->
<g id="edge21" class="edge">
<title>compute_sh&#45;&gt;compute_eh</title>
<path fill="none" stroke="black" d="M185.38,-1253.31C185.38,-1245.73 185.38,-1236.6 185.38,-1228.04"/>
<polygon fill="black" stroke="black" points="188.88,-1228.04 185.38,-1218.04 181.88,-1228.04 188.88,-1228.04"/>
</g>
<!-- cond_eh -->
<g id="node24" class="node">
<title>cond_eh</title>
<polygon fill="none" stroke="black" points="185.38,-1143.5 98.28,-1125.5 185.37,-1107.5 272.47,-1125.5 185.38,-1143.5"/>
<text xml:space="preserve" text-anchor="middle" x="185.38" y="-1120.45" font-family="Courier,monospace" font-size="14.00">eh &gt;= 0 ?</text>
</g>
<!-- compute_eh&#45;&gt;cond_eh -->
<g id="edge22" class="edge">
<title>compute_eh&#45;&gt;cond_eh</title>
<path fill="none" stroke="black" d="M185.38,-1180.31C185.38,-1172.73 185.38,-1163.6 185.38,-1155.04"/>
<polygon fill="black" stroke="black" points="188.88,-1155.04 185.38,-1145.04 181.88,-1155.04 188.88,-1155.04"/>
</g>
<!-- set_ih_pos -->
<g id="node25" class="node">
<title>set_ih_pos</title>
<polygon fill="none" stroke="black" points="176.12,-1055 110.62,-1055 110.62,-1019 176.12,-1019 176.12,-1055"/>
<text xml:space="preserve" text-anchor="middle" x="143.38" y="-1031.95" font-family="Courier,monospace" font-size="14.00">ih = 3</text>
</g>
<!-- cond_eh&#45;&gt;set_ih_pos -->
<g id="edge23" class="edge">
<title>cond_eh&#45;&gt;set_ih_pos</title>
<path fill="none" stroke="black" d="M177.67,-1108.63C171.82,-1096.59 163.63,-1079.72 156.72,-1065.49"/>
<polygon fill="black" stroke="black" points="159.93,-1064.08 152.41,-1056.61 153.63,-1067.13 159.93,-1064.08"/>
<text xml:space="preserve" text-anchor="middle" x="180.51" y="-1076.2" font-family="Courier,monospace" font-size="14.00">Sim</text>
</g>
<!-- set_ih_neg -->
<g id="node26" class="node">
<title>set_ih_neg</title>
<polygon fill="none" stroke="black" points="260.12,-1055 194.62,-1055 194.62,-1019 260.12,-1019 260.12,-1055"/>
<text xml:space="preserve" text-anchor="middle" x="227.38" y="-1031.95" font-family="Courier,monospace" font-size="14.00">ih = 1</text>
</g>
<!-- cond_eh&#45;&gt;set_ih_neg -->
<g id="edge24" class="edge">
<title>cond_eh&#45;&gt;set_ih_neg</title>
<path fill="none" stroke="black" d="M193.08,-1108.63C198.93,-1096.59 207.12,-1079.72 214.03,-1065.49"/>
<polygon fill="black" stroke="black" points="217.12,-1067.13 218.34,-1056.61 210.82,-1064.08 217.12,-1067.13"/>
<text xml:space="preserve" text-anchor="middle" x="222.51" y="-1076.2" font-family="Courier,monospace" font-size="14.00">Nao</text>
</g>
<!-- compute_decis -->
<g id="node27" class="node">
<title>compute_decis</title>
<polygon fill="none" stroke="black" points="299.62,-982 69.12,-982 69.12,-946 299.62,-946 299.62,-982"/>
<text xml:space="preserve" text-anchor="middle" x="184.38" y="-958.95" font-family="Courier,monospace" font-size="14.00">decis = (564 * deth) &gt;&gt; 12</text>
</g>
<!-- set_ih_pos&#45;&gt;compute_decis -->
<g id="edge25" class="edge">
<title>set_ih_pos&#45;&gt;compute_decis</title>
<path fill="none" stroke="black" d="M153.3,-1018.81C157.98,-1010.7 163.68,-1000.84 168.91,-991.78"/>
<polygon fill="black" stroke="black" points="171.81,-993.75 173.78,-983.34 165.75,-990.25 171.81,-993.75"/>
</g>
<!-- set_ih_neg&#45;&gt;compute_decis -->
<g id="edge26" class="edge">
<title>set_ih_neg&#45;&gt;compute_decis</title>
<path fill="none" stroke="black" d="M216.97,-1018.81C212.05,-1010.7 206.08,-1000.84 200.59,-991.78"/>
<polygon fill="black" stroke="black" points="203.65,-990.06 195.47,-983.32 197.66,-993.69 203.65,-990.06"/>
</g>
<!-- cond_abs_eh -->
<g id="node28" class="node">
<title>cond_abs_eh</title>
<polygon fill="none" stroke="black" points="184.38,-909 57.47,-891 184.37,-873 311.28,-891 184.38,-909"/>
<text xml:space="preserve" text-anchor="middle" x="184.38" y="-885.95" font-family="Courier,monospace" font-size="14.00">|eh| &gt; decis ?</text>
</g>
<!-- compute_decis&#45;&gt;cond_abs_eh -->
<g id="edge27" class="edge">
<title>compute_decis&#45;&gt;cond_abs_eh</title>
<path fill="none" stroke="black" d="M184.38,-945.81C184.38,-938.23 184.38,-929.1 184.38,-920.54"/>
<polygon fill="black" stroke="black" points="187.88,-920.54 184.38,-910.54 180.88,-920.54 187.88,-920.54"/>
</g>
<!-- dec_ih -->
<g id="node29" class="node">
<title>dec_ih</title>
<polygon fill="none" stroke="black" points="179.38,-820.5 125.38,-820.5 125.38,-784.5 179.38,-784.5 179.38,-820.5"/>
<text xml:space="preserve" text-anchor="middle" x="152.38" y="-797.45" font-family="Courier,monospace" font-size="14.00">ih&#45;&#45;</text>
</g>
<!-- cond_abs_eh&#45;&gt;dec_ih -->
<g id="edge28" class="edge">
<title>cond_abs_eh&#45;&gt;dec_ih</title>
<path fill="none" stroke="black" d="M178.36,-873.73C173.96,-861.84 167.88,-845.41 162.71,-831.43"/>
<polygon fill="black" stroke="black" points="166.08,-830.47 159.33,-822.3 159.52,-832.9 166.08,-830.47"/>
<text xml:space="preserve" text-anchor="middle" x="183.62" y="-841.7" font-family="Courier,monospace" font-size="14.00">Sim</text>
</g>
<!-- compute_dh -->
<g id="node30" class="node">
<title>compute_dh</title>
<polygon fill="none" stroke="black" points="352.25,-747.5 14.5,-747.5 14.5,-711.5 352.25,-711.5 352.25,-747.5"/>
<text xml:space="preserve" text-anchor="middle" x="183.38" y="-724.45" font-family="Courier,monospace" font-size="14.00">dh = (deth * qq2_code2_table[ih]) &gt;&gt; 15</text>
</g>
<!-- cond_abs_eh&#45;&gt;compute_dh -->
<g id="edge29" class="edge">
<title>cond_abs_eh&#45;&gt;compute_dh</title>
<path fill="none" stroke="black" d="M193.37,-874.12C196.2,-868.3 198.95,-861.53 200.38,-855 207.5,-822.28 199.97,-784.04 192.8,-758.66"/>
<polygon fill="black" stroke="black" points="196.25,-757.99 190.02,-749.42 189.55,-760.01 196.25,-757.99"/>
<text xml:space="preserve" text-anchor="middle" x="215.48" y="-797.45" font-family="Courier,monospace" font-size="14.00">Nao</text>
</g>
<!-- dec_ih&#45;&gt;compute_dh -->
<g id="edge30" class="edge">
<title>dec_ih&#45;&gt;compute_dh</title>
<path fill="none" stroke="black" d="M159.88,-784.31C163.34,-776.38 167.54,-766.76 171.43,-757.86"/>
<polygon fill="black" stroke="black" points="174.54,-759.48 175.33,-748.92 168.13,-756.68 174.54,-759.48"/>
</g>
<!-- update_nbh -->
<g id="node31" class="node">
<title>update_nbh</title>
<polygon fill="none" stroke="black" points="278,-674.5 88.75,-674.5 88.75,-638.5 278,-638.5 278,-674.5"/>
<text xml:space="preserve" text-anchor="middle" x="183.38" y="-651.45" font-family="Courier,monospace" font-size="14.00">nbh = logsch(ih, nbh)</text>
</g>
<!-- compute_dh&#45;&gt;update_nbh -->
<g id="edge31" class="edge">
<title>compute_dh&#45;&gt;update_nbh</title>
<path fill="none" stroke="black" d="M183.38,-711.31C183.38,-703.73 183.38,-694.6 183.38,-686.04"/>
<polygon fill="black" stroke="black" points="186.88,-686.04 183.38,-676.04 179.88,-686.04 186.88,-686.04"/>
</g>
<!-- update_deth -->
<g id="node32" class="node">
<title>update_deth</title>
<polygon fill="none" stroke="black" points="282.12,-601.5 84.62,-601.5 84.62,-565.5 282.12,-565.5 282.12,-601.5"/>
<text xml:space="preserve" text-anchor="middle" x="183.38" y="-578.45" font-family="Courier,monospace" font-size="14.00">deth = scalel(nbh, 10)</text>
</g>
<!-- update_nbh&#45;&gt;update_deth -->
<g id="edge32" class="edge">
<title>update_nbh&#45;&gt;update_deth</title>
<path fill="none" stroke="black" d="M183.38,-638.31C183.38,-630.73 183.38,-621.6 183.38,-613.04"/>
<polygon fill="black" stroke="black" points="186.88,-613.04 183.38,-603.04 179.88,-613.04 186.88,-613.04"/>
</g>
<!-- compute_ph -->
<g id="node33" class="node">
<title>compute_ph</title>
<polygon fill="none" stroke="black" points="245,-528.5 121.75,-528.5 121.75,-492.5 245,-492.5 245,-528.5"/>
<text xml:space="preserve" text-anchor="middle" x="183.38" y="-505.45" font-family="Courier,monospace" font-size="14.00">ph = dh + szh</text>
</g>
<!-- update_deth&#45;&gt;compute_ph -->
<g id="edge33" class="edge">
<title>update_deth&#45;&gt;compute_ph</title>
<path fill="none" stroke="black" d="M183.38,-565.31C183.38,-557.73 183.38,-548.6 183.38,-540.04"/>
<polygon fill="black" stroke="black" points="186.88,-540.04 183.38,-530.04 179.88,-540.04 186.88,-540.04"/>
</g>
<!-- update_delay_bph -->
<g id="node34" class="node">
<title>update_delay_bph</title>
<polygon fill="none" stroke="black" points="323.38,-455.5 43.38,-455.5 43.38,-419.5 323.38,-419.5 323.38,-455.5"/>
<text xml:space="preserve" text-anchor="middle" x="183.38" y="-432.45" font-family="Courier,monospace" font-size="14.00">upzero(dh, delay_dhx, delay_bph)</text>
</g>
<!-- compute_ph&#45;&gt;update_delay_bph -->
<g id="edge34" class="edge">
<title>compute_ph&#45;&gt;update_delay_bph</title>
<path fill="none" stroke="black" d="M183.38,-492.31C183.38,-484.73 183.38,-475.6 183.38,-467.04"/>
<polygon fill="black" stroke="black" points="186.88,-467.04 183.38,-457.04 179.88,-467.04 186.88,-467.04"/>
</g>
<!-- update_ah2 -->
<g id="node35" class="node">
<title>update_ah2</title>
<polygon fill="none" stroke="black" points="339.88,-382.5 26.88,-382.5 26.88,-346.5 339.88,-346.5 339.88,-382.5"/>
<text xml:space="preserve" text-anchor="middle" x="183.38" y="-359.45" font-family="Courier,monospace" font-size="14.00">ah2 = uppol2(ah1, ah2, ph, ph1, ph2)</text>
</g>
<!-- update_delay_bph&#45;&gt;update_ah2 -->
<g id="edge35" class="edge">
<title>update_delay_bph&#45;&gt;update_ah2</title>
<path fill="none" stroke="black" d="M183.38,-419.31C183.38,-411.73 183.38,-402.6 183.38,-394.04"/>
<polygon fill="black" stroke="black" points="186.88,-394.04 183.38,-384.04 179.88,-394.04 186.88,-394.04"/>
</g>
<!-- update_ah1 -->
<g id="node36" class="node">
<title>update_ah1</title>
<polygon fill="none" stroke="black" points="319.25,-309.5 47.5,-309.5 47.5,-273.5 319.25,-273.5 319.25,-309.5"/>
<text xml:space="preserve" text-anchor="middle" x="183.38" y="-286.45" font-family="Courier,monospace" font-size="14.00">ah1 = uppol1(ah1, ah2, ph, ph1)</text>
</g>
<!-- update_ah2&#45;&gt;update_ah1 -->
<g id="edge36" class="edge">
<title>update_ah2&#45;&gt;update_ah1</title>
<path fill="none" stroke="black" d="M183.38,-346.31C183.38,-338.73 183.38,-329.6 183.38,-321.04"/>
<polygon fill="black" stroke="black" points="186.88,-321.04 183.38,-311.04 179.88,-321.04 186.88,-321.04"/>
</g>
<!-- update_yh -->
<g id="node37" class="node">
<title>update_yh</title>
<polygon fill="none" stroke="black" points="240.88,-236.5 125.88,-236.5 125.88,-146 240.88,-146 240.88,-236.5"/>
<text xml:space="preserve" text-anchor="middle" x="183.38" y="-219.2" font-family="Courier,monospace" font-size="14.00">yh = sh + dh</text>
<text xml:space="preserve" text-anchor="middle" x="183.38" y="-202.7" font-family="Courier,monospace" font-size="14.00">rh2 = rh1</text>
<text xml:space="preserve" text-anchor="middle" x="183.38" y="-186.2" font-family="Courier,monospace" font-size="14.00">rh1 = yh</text>
<text xml:space="preserve" text-anchor="middle" x="183.38" y="-169.7" font-family="Courier,monospace" font-size="14.00">ph2 = ph1</text>
<text xml:space="preserve" text-anchor="middle" x="183.38" y="-153.2" font-family="Courier,monospace" font-size="14.00">ph1 = ph</text>
</g>
<!-- update_ah1&#45;&gt;update_yh -->
<g id="edge37" class="edge">
<title>update_ah1&#45;&gt;update_yh</title>
<path fill="none" stroke="black" d="M183.38,-273.39C183.38,-266.12 183.38,-257.19 183.38,-247.95"/>
<polygon fill="black" stroke="black" points="186.88,-248.12 183.38,-238.12 179.88,-248.12 186.88,-248.12"/>
</g>
<!-- return_val -->
<g id="node38" class="node">
<title>return_val</title>
<polygon fill="none" stroke="black" points="286.25,-109 80.5,-109 80.5,-73 286.25,-73 286.25,-109"/>
<text xml:space="preserve" text-anchor="middle" x="183.38" y="-85.95" font-family="Courier,monospace" font-size="14.00">return (il | (ih &lt;&lt; 6))</text>
</g>
<!-- update_yh&#45;&gt;return_val -->
<g id="edge38" class="edge">
<title>update_yh&#45;&gt;return_val</title>
<path fill="none" stroke="black" d="M183.38,-145.72C183.38,-137.19 183.38,-128.48 183.38,-120.62"/>
<polygon fill="black" stroke="black" points="186.88,-120.63 183.38,-110.63 179.88,-120.63 186.88,-120.63"/>
</g>
<!-- return_val&#45;&gt;end -->
<g id="edge39" class="edge">
<title>return_val&#45;&gt;end</title>
<path fill="none" stroke="black" d="M183.38,-72.81C183.38,-65.23 183.38,-56.1 183.38,-47.54"/>
<polygon fill="black" stroke="black" points="186.88,-47.54 183.38,-37.54 179.88,-47.54 186.88,-47.54"/>
</g>
</g>
</svg>
