<?xml version="1.0" encoding="UTF-8" standalone="no"?>
<!DOCTYPE svg PUBLIC "-//W3C//DTD SVG 1.1//EN"
 "http://www.w3.org/Graphics/SVG/1.1/DTD/svg11.dtd">
<!-- Generated by graphviz version 13.1.2 (20250808.2320)
 -->
<!-- Title: CFG_Sum Pages: 1 -->
<svg width="663pt" height="607pt"
 viewBox="0.00 0.00 663.00 607.00" xmlns="http://www.w3.org/2000/svg" xmlns:xlink="http://www.w3.org/1999/xlink">
<g id="graph0" class="graph" transform="scale(1 1) rotate(0) translate(4 602.5)">
<title>CFG_Sum</title>
<polygon fill="white" stroke="none" points="-4,4 -4,-602.5 659.25,-602.5 659.25,4 -4,4"/>
<!-- entry -->
<g id="node1" class="node">
<title>entry</title>
<path fill="none" stroke="black" d="M523.88,-598.5C523.88,-598.5 463.62,-598.5 463.62,-598.5 457.62,-598.5 451.62,-592.5 451.62,-586.5 451.62,-586.5 451.62,-574.5 451.62,-574.5 451.62,-568.5 457.62,-562.5 463.62,-562.5 463.62,-562.5 523.88,-562.5 523.88,-562.5 529.88,-562.5 535.88,-568.5 535.88,-574.5 535.88,-574.5 535.88,-586.5 535.88,-586.5 535.88,-592.5 529.88,-598.5 523.88,-598.5"/>
<text xml:space="preserve" text-anchor="middle" x="493.75" y="-575.45" font-family="Times New Roman,serif" font-size="14.00">Entry (Sum)</text>
</g>
<!-- loop_outer_init -->
<g id="node2" class="node">
<title>loop_outer_init</title>
<path fill="none" stroke="black" d="M516.38,-525.5C516.38,-525.5 471.12,-525.5 471.12,-525.5 465.12,-525.5 459.12,-519.5 459.12,-513.5 459.12,-513.5 459.12,-501.5 459.12,-501.5 459.12,-495.5 465.12,-489.5 471.12,-489.5 471.12,-489.5 516.38,-489.5 516.38,-489.5 522.38,-489.5 528.38,-495.5 528.38,-501.5 528.38,-501.5 528.38,-513.5 528.38,-513.5 528.38,-519.5 522.38,-525.5 516.38,-525.5"/>
<text xml:space="preserve" text-anchor="middle" x="493.75" y="-502.45" font-family="Times New Roman,serif" font-size="14.00">Outer = 0</text>
</g>
<!-- entry&#45;&gt;loop_outer_init -->
<g id="edge1" class="edge">
<title>entry&#45;&gt;loop_outer_init</title>
<path fill="none" stroke="black" d="M493.75,-562.31C493.75,-554.73 493.75,-545.6 493.75,-537.04"/>
<polygon fill="black" stroke="black" points="497.25,-537.04 493.75,-527.04 490.25,-537.04 497.25,-537.04"/>
</g>
<!-- loop_outer_cond -->
<g id="node3" class="node">
<title>loop_outer_cond</title>
<path fill="none" stroke="black" d="M546.38,-452.5C546.38,-452.5 441.12,-452.5 441.12,-452.5 435.12,-452.5 429.12,-446.5 429.12,-440.5 429.12,-440.5 429.12,-428.5 429.12,-428.5 429.12,-422.5 435.12,-416.5 441.12,-416.5 441.12,-416.5 546.38,-416.5 546.38,-416.5 552.38,-416.5 558.38,-422.5 558.38,-428.5 558.38,-428.5 558.38,-440.5 558.38,-440.5 558.38,-446.5 552.38,-452.5 546.38,-452.5"/>
<text xml:space="preserve" text-anchor="middle" x="493.75" y="-429.45" font-family="Times New Roman,serif" font-size="14.00">Outer &lt; MAXSIZE?</text>
</g>
<!-- loop_outer_init&#45;&gt;loop_outer_cond -->
<g id="edge2" class="edge">
<title>loop_outer_init&#45;&gt;loop_outer_cond</title>
<path fill="none" stroke="black" d="M493.75,-489.31C493.75,-481.73 493.75,-472.6 493.75,-464.04"/>
<polygon fill="black" stroke="black" points="497.25,-464.04 493.75,-454.04 490.25,-464.04 497.25,-464.04"/>
</g>
<!-- loop_inner_init -->
<g id="node4" class="node">
<title>loop_inner_init</title>
<path fill="none" stroke="black" d="M446.25,-364C446.25,-364 403.25,-364 403.25,-364 397.25,-364 391.25,-358 391.25,-352 391.25,-352 391.25,-340 391.25,-340 391.25,-334 397.25,-328 403.25,-328 403.25,-328 446.25,-328 446.25,-328 452.25,-328 458.25,-334 458.25,-340 458.25,-340 458.25,-352 458.25,-352 458.25,-358 452.25,-364 446.25,-364"/>
<text xml:space="preserve" text-anchor="middle" x="424.75" y="-340.95" font-family="Times New Roman,serif" font-size="14.00">Inner = 0</text>
</g>
<!-- loop_outer_cond&#45;&gt;loop_inner_init -->
<g id="edge3" class="edge">
<title>loop_outer_cond&#45;&gt;loop_inner_init</title>
<path fill="none" stroke="black" d="M473.92,-416.16C468.24,-410.76 462.25,-404.62 457.25,-398.5 451.14,-391.01 445.25,-382.31 440.2,-374.21"/>
<polygon fill="black" stroke="black" points="443.24,-372.47 435.08,-365.71 437.24,-376.08 443.24,-372.47"/>
<text xml:space="preserve" text-anchor="middle" x="468.5" y="-385.2" font-family="Times New Roman,serif" font-size="14.00">Sim</text>
</g>
<!-- exit -->
<g id="node11" class="node">
<title>exit</title>
<path fill="none" stroke="black" d="M643.25,-364C643.25,-364 534.25,-364 534.25,-364 528.25,-364 522.25,-358 522.25,-352 522.25,-352 522.25,-340 522.25,-340 522.25,-334 528.25,-328 534.25,-328 534.25,-328 643.25,-328 643.25,-328 649.25,-328 655.25,-334 655.25,-340 655.25,-340 655.25,-352 655.25,-352 655.25,-358 649.25,-364 643.25,-364"/>
<text xml:space="preserve" text-anchor="middle" x="588.75" y="-340.95" font-family="Times New Roman,serif" font-size="14.00">Exit (Update globals)</text>
</g>
<!-- loop_outer_cond&#45;&gt;exit -->
<g id="edge4" class="edge">
<title>loop_outer_cond&#45;&gt;exit</title>
<path fill="none" stroke="black" d="M512.52,-416.41C526.48,-403.7 545.75,-386.16 561.42,-371.89"/>
<polygon fill="black" stroke="black" points="563.54,-374.69 568.58,-365.37 558.83,-369.51 563.54,-374.69"/>
<text xml:space="preserve" text-anchor="middle" x="561.01" y="-385.2" font-family="Times New Roman,serif" font-size="14.00">Nao</text>
</g>
<!-- loop_inner_cond -->
<g id="node5" class="node">
<title>loop_inner_cond</title>
<path fill="none" stroke="black" d="M453.25,-291C453.25,-291 350.25,-291 350.25,-291 344.25,-291 338.25,-285 338.25,-279 338.25,-279 338.25,-267 338.25,-267 338.25,-261 344.25,-255 350.25,-255 350.25,-255 453.25,-255 453.25,-255 459.25,-255 465.25,-261 465.25,-267 465.25,-267 465.25,-279 465.25,-279 465.25,-285 459.25,-291 453.25,-291"/>
<text xml:space="preserve" text-anchor="middle" x="401.75" y="-267.95" font-family="Times New Roman,serif" font-size="14.00">Inner &lt; MAXSIZE?</text>
</g>
<!-- loop_inner_init&#45;&gt;loop_inner_cond -->
<g id="edge5" class="edge">
<title>loop_inner_init&#45;&gt;loop_inner_cond</title>
<path fill="none" stroke="black" d="M419.18,-327.81C416.67,-320.05 413.63,-310.68 410.8,-301.95"/>
<polygon fill="black" stroke="black" points="414.14,-300.9 407.73,-292.47 407.49,-303.06 414.14,-300.9"/>
</g>
<!-- condition -->
<g id="node6" class="node">
<title>condition</title>
<path fill="none" stroke="black" d="M353.38,-202.5C353.38,-202.5 224.12,-202.5 224.12,-202.5 218.12,-202.5 212.12,-196.5 212.12,-190.5 212.12,-190.5 212.12,-178.5 212.12,-178.5 212.12,-172.5 218.12,-166.5 224.12,-166.5 224.12,-166.5 353.38,-166.5 353.38,-166.5 359.38,-166.5 365.38,-172.5 365.38,-178.5 365.38,-178.5 365.38,-190.5 365.38,-190.5 365.38,-196.5 359.38,-202.5 353.38,-202.5"/>
<text xml:space="preserve" text-anchor="middle" x="288.75" y="-179.45" font-family="Times New Roman,serif" font-size="14.00">Array[Outer][Inner] &lt; 0?</text>
</g>
<!-- loop_inner_cond&#45;&gt;condition -->
<g id="edge6" class="edge">
<title>loop_inner_cond&#45;&gt;condition</title>
<path fill="none" stroke="black" d="M379.15,-254.7C362.29,-241.8 339.04,-224 320.34,-209.68"/>
<polygon fill="black" stroke="black" points="322.58,-206.99 312.51,-203.69 318.32,-212.54 322.58,-206.99"/>
<text xml:space="preserve" text-anchor="middle" x="366.62" y="-223.7" font-family="Times New Roman,serif" font-size="14.00">Sim</text>
</g>
<!-- outer_inc -->
<g id="node10" class="node">
<title>outer_inc</title>
<path fill="none" stroke="black" d="M500.38,-202.5C500.38,-202.5 461.12,-202.5 461.12,-202.5 455.12,-202.5 449.12,-196.5 449.12,-190.5 449.12,-190.5 449.12,-178.5 449.12,-178.5 449.12,-172.5 455.12,-166.5 461.12,-166.5 461.12,-166.5 500.38,-166.5 500.38,-166.5 506.38,-166.5 512.38,-172.5 512.38,-178.5 512.38,-178.5 512.38,-190.5 512.38,-190.5 512.38,-196.5 506.38,-202.5 500.38,-202.5"/>
<text xml:space="preserve" text-anchor="middle" x="480.75" y="-179.45" font-family="Times New Roman,serif" font-size="14.00">Outer++</text>
</g>
<!-- loop_inner_cond&#45;&gt;outer_inc -->
<g id="edge7" class="edge">
<title>loop_inner_cond&#45;&gt;outer_inc</title>
<path fill="none" stroke="black" d="M417.36,-254.91C428.75,-242.43 444.4,-225.3 457.29,-211.18"/>
<polygon fill="black" stroke="black" points="459.72,-213.71 463.88,-203.97 454.56,-208.99 459.72,-213.71"/>
<text xml:space="preserve" text-anchor="middle" x="459.58" y="-223.7" font-family="Times New Roman,serif" font-size="14.00">Nao</text>
</g>
<!-- then_branch -->
<g id="node7" class="node">
<title>then_branch</title>
<path fill="none" stroke="black" d="M167.5,-114C167.5,-114 12,-114 12,-114 6,-114 0,-108 0,-102 0,-102 0,-85 0,-85 0,-79 6,-73 12,-73 12,-73 167.5,-73 167.5,-73 173.5,-73 179.5,-79 179.5,-85 179.5,-85 179.5,-102 179.5,-102 179.5,-108 173.5,-114 167.5,-114"/>
<text xml:space="preserve" text-anchor="middle" x="89.75" y="-96.7" font-family="Times New Roman,serif" font-size="14.00">Ptotal += Array[Outer][Inner]</text>
<text xml:space="preserve" text-anchor="middle" x="89.75" y="-80.2" font-family="Times New Roman,serif" font-size="14.00">Pcnt++</text>
</g>
<!-- condition&#45;&gt;then_branch -->
<g id="edge8" class="edge">
<title>condition&#45;&gt;then_branch</title>
<path fill="none" stroke="black" d="M249.91,-166.13C219.87,-152.7 177.92,-133.93 144.48,-118.98"/>
<polygon fill="black" stroke="black" points="146.34,-115.97 135.78,-115.09 143.48,-122.36 146.34,-115.97"/>
<text xml:space="preserve" text-anchor="middle" x="218.32" y="-135.2" font-family="Times New Roman,serif" font-size="14.00">Sim</text>
</g>
<!-- else_branch -->
<g id="node8" class="node">
<title>else_branch</title>
<path fill="none" stroke="black" d="M367.62,-114C367.62,-114 209.88,-114 209.88,-114 203.88,-114 197.88,-108 197.88,-102 197.88,-102 197.88,-85 197.88,-85 197.88,-79 203.88,-73 209.88,-73 209.88,-73 367.62,-73 367.62,-73 373.62,-73 379.62,-79 379.62,-85 379.62,-85 379.62,-102 379.62,-102 379.62,-108 373.62,-114 367.62,-114"/>
<text xml:space="preserve" text-anchor="middle" x="288.75" y="-96.7" font-family="Times New Roman,serif" font-size="14.00">Ntotal += Array[Outer][Inner]</text>
<text xml:space="preserve" text-anchor="middle" x="288.75" y="-80.2" font-family="Times New Roman,serif" font-size="14.00">Ncnt++</text>
</g>
<!-- condition&#45;&gt;else_branch -->
<g id="edge9" class="edge">
<title>condition&#45;&gt;else_branch</title>
<path fill="none" stroke="black" d="M288.75,-166.34C288.75,-154.85 288.75,-139.4 288.75,-125.77"/>
<polygon fill="black" stroke="black" points="292.25,-125.92 288.75,-115.92 285.25,-125.92 292.25,-125.92"/>
<text xml:space="preserve" text-anchor="middle" x="300" y="-135.2" font-family="Times New Roman,serif" font-size="14.00">Nao</text>
</g>
<!-- inner_inc -->
<g id="node9" class="node">
<title>inner_inc</title>
<path fill="none" stroke="black" d="M307.25,-36C307.25,-36 270.25,-36 270.25,-36 264.25,-36 258.25,-30 258.25,-24 258.25,-24 258.25,-12 258.25,-12 258.25,-6 264.25,0 270.25,0 270.25,0 307.25,0 307.25,0 313.25,0 319.25,-6 319.25,-12 319.25,-12 319.25,-24 319.25,-24 319.25,-30 313.25,-36 307.25,-36"/>
<text xml:space="preserve" text-anchor="middle" x="288.75" y="-12.95" font-family="Times New Roman,serif" font-size="14.00">Inner++</text>
</g>
<!-- then_branch&#45;&gt;inner_inc -->
<g id="edge10" class="edge">
<title>then_branch&#45;&gt;inner_inc</title>
<path fill="none" stroke="black" d="M143.86,-72.51C176.46,-60.47 217.33,-45.38 247.34,-34.29"/>
<polygon fill="black" stroke="black" points="248.29,-37.68 256.45,-30.93 245.86,-31.11 248.29,-37.68"/>
</g>
<!-- else_branch&#45;&gt;inner_inc -->
<g id="edge11" class="edge">
<title>else_branch&#45;&gt;inner_inc</title>
<path fill="none" stroke="black" d="M288.75,-72.8C288.75,-65.06 288.75,-56.01 288.75,-47.57"/>
<polygon fill="black" stroke="black" points="292.25,-47.76 288.75,-37.76 285.25,-47.76 292.25,-47.76"/>
</g>
<!-- inner_inc&#45;&gt;loop_inner_cond -->
<g id="edge12" class="edge">
<title>inner_inc&#45;&gt;loop_inner_cond</title>
<path fill="none" stroke="black" d="M319.66,-26.91C342.86,-34.6 373.19,-48.75 388.75,-73 422.36,-125.38 415.18,-202.32 407.92,-243.5"/>
<polygon fill="black" stroke="black" points="404.52,-242.63 406.09,-253.1 411.4,-243.93 404.52,-242.63"/>
</g>
<!-- outer_inc&#45;&gt;loop_outer_cond -->
<g id="edge13" class="edge">
<title>outer_inc&#45;&gt;loop_outer_cond</title>
<path fill="none" stroke="black" d="M481.66,-202.92C483.87,-245.05 489.52,-352.82 492.24,-404.72"/>
<polygon fill="black" stroke="black" points="488.74,-404.75 492.76,-414.55 495.73,-404.38 488.74,-404.75"/>
</g>
</g>
</svg>
